//Event file generated from Sappy .s format.
	#include "MPlayDef.event"

	#define	_223AM_grp  voicegroup000
	#define	_223AM_pri  0
	#define	_223AM_rev  0
	#define	_223AM_mvl  127
	#define	_223AM_key  0
	#define	_223AM_tbs  1
	#define	_223AM_exg  0
	#define	_223AM_cmp  1

	// .rodata
	//	_223AM
	ALIGN 4


//**************** Track 1 (Midi-Chn.0) ****************//

_223AM_001:
//  #01 //000   ----------------------------------------
 BYTE   KEYSH   _223AM_key+0
 BYTE   TEMPO   88*_223AM_tbs/2
 BYTE   VOICE   10
 BYTE   MODT 0
 BYTE   LFOS 44
 BYTE   VOL   53*_223AM_mvl/mxv
 BYTE   PAN   c_v+0
 BYTE   W96
//  #01 //001   ----------------------------------------
Label_0159216F:
 BYTE   N02  An1  v048
 BYTE   W02
 BYTE   N16  As1
 BYTE   W10
 BYTE   N07  An2
 BYTE   W07
 BYTE   N04  Dn3
 BYTE   N04  Fn3
 BYTE   W05
 BYTE   W06
 BYTE   N17  An2
 BYTE   N17  Dn3
 BYTE   W06
 BYTE   N11  As1
 BYTE   W12
 BYTE   N19  An1
 BYTE   W12
 BYTE   N07  Gn2
 BYTE   W07
 BYTE   N04  Cs3
 BYTE   N04  En3
 BYTE   W05
 BYTE   W06
 BYTE   N17  Gn2
 BYTE   N17  Cs3
 BYTE   W06
 BYTE   N11  An1
 BYTE   W12
 BYTE   PEND 
//  #01 //002   ----------------------------------------
Label_0159219C:
 BYTE   N02  Cs2  v048
 BYTE   W02
 BYTE   N09  Dn2
 BYTE   W10
 BYTE   N07  Fn2
 BYTE   W07
 BYTE   N04  An2
 BYTE   N04  Cn3
 BYTE   W05
 BYTE   W06
 BYTE   N02  Gs1
 BYTE   W02
 BYTE   N09  An1
 BYTE   W10
 BYTE   N13  Gn1
 BYTE   W06
 BYTE   W08
 BYTE   N03  Gn2
 BYTE   W04
 BYTE   N07  Bn2
 BYTE   W08
 BYTE   N03  En3
 BYTE   W04
 BYTE   W06
 BYTE   N17  Gn1
 BYTE   N17  Bn2
 BYTE   N17  Ds3
 BYTE   W18
 BYTE   PEND 
//  #01 //003   ----------------------------------------
 BYTE   PATT
  POIN2 Label_0159216F
//  #01 //004   ----------------------------------------
Label_015921CD:
 BYTE   N07  Dn2  v048
 BYTE   W08
 BYTE   N15  Cn3
 BYTE   N15  En3
 BYTE   W04
 BYTE   N11  Dn2
 BYTE   W12
 BYTE   N07  Cs2
 BYTE   W08
 BYTE   N15  Bn2
 BYTE   N15  Ds3
 BYTE   W04
 BYTE   N11  Cs2
 BYTE   W12
 BYTE   N07  Cn2
 BYTE   W08
 BYTE   N15  As2
 BYTE   N15  Dn3
 BYTE   W04
 BYTE   N11  Cn2
 BYTE   W12
 BYTE   N07  Fn1
 BYTE   W08
 BYTE   N15  An2
 BYTE   N15  Ds3
 BYTE   W04
 BYTE   N11  Fn1
 BYTE   W12
 BYTE   PEND 
//  #01 //005   ----------------------------------------
 BYTE   PATT
  POIN2 Label_0159216F
//  #01 //006   ----------------------------------------
 BYTE   PATT
  POIN2 Label_0159219C
//  #01 //007   ----------------------------------------
 BYTE   PATT
  POIN2 Label_0159216F
//  #01 //008   ----------------------------------------
 BYTE   PATT
  POIN2 Label_015921CD
//  #01 //009   ----------------------------------------
 BYTE   PATT
  POIN2 Label_0159216F
//  #01 //010   ----------------------------------------
 BYTE   PATT
  POIN2 Label_0159219C
//  #01 //011   ----------------------------------------
 BYTE   PATT
  POIN2 Label_0159216F
//  #01 //012   ----------------------------------------
 BYTE   PATT
  POIN2 Label_015921CD
//  #01 //013   ----------------------------------------
 BYTE   PATT
  POIN2 Label_0159216F
//  #01 //014   ----------------------------------------
 BYTE   PATT
  POIN2 Label_0159219C
//  #01 //015   ----------------------------------------
 BYTE   PATT
  POIN2 Label_0159216F
//  #01 //016   ----------------------------------------
 BYTE   PATT
  POIN2 Label_015921CD
//  #01 //017   ----------------------------------------
Label_01592237:
//  #01 //018   ----------------------------------------
 BYTE   PATT
  POIN2 Label_0159216F
//  #01 //019   ----------------------------------------
 BYTE   PATT
  POIN2 Label_0159219C
//  #01 //020   ----------------------------------------
 BYTE   PATT
  POIN2 Label_0159216F
//  #01 //021   ----------------------------------------
 BYTE   PATT
  POIN2 Label_015921CD
//  #01 //022   ----------------------------------------
 BYTE   PATT
  POIN2 Label_0159216F
//  #01 //023   ----------------------------------------
 BYTE   PATT
  POIN2 Label_0159219C
//  #01 //024   ----------------------------------------
 BYTE   PATT
  POIN2 Label_0159216F
//  #01 //025   ----------------------------------------
 BYTE   PATT
  POIN2 Label_015921CD
//  #01 //026   ----------------------------------------
 BYTE   PATT
  POIN2 Label_0159216F
//  #01 //027   ----------------------------------------
 BYTE   PATT
  POIN2 Label_0159219C
//  #01 //028   ----------------------------------------
 BYTE   PATT
  POIN2 Label_0159216F
//  #01 //029   ----------------------------------------
 BYTE   PATT
  POIN2 Label_015921CD
//  #01 //030   ----------------------------------------
 BYTE   PATT
  POIN2 Label_0159216F
//  #01 //031   ----------------------------------------
 BYTE   PATT
  POIN2 Label_0159219C
//  #01 //032   ----------------------------------------
 BYTE   PATT
  POIN2 Label_0159216F
//  #01 //033   ----------------------------------------
 BYTE   PATT
  POIN2 Label_015921CD
//  #01 //034   ----------------------------------------
 BYTE   PATT
  POIN2 Label_0159216F
//  #01 //035   ----------------------------------------
 BYTE   PATT
  POIN2 Label_0159219C
//  #01 //036   ----------------------------------------
 BYTE   PATT
  POIN2 Label_0159216F
//  #01 //037   ----------------------------------------
 BYTE   PATT
  POIN2 Label_015921CD
//  #01 //038   ----------------------------------------
 BYTE   PATT
  POIN2 Label_0159216F
//  #01 //039   ----------------------------------------
 BYTE   PATT
  POIN2 Label_0159219C
//  #01 //040   ----------------------------------------
 BYTE   PATT
  POIN2 Label_0159216F
//  #01 //041   ----------------------------------------
 BYTE   PATT
  POIN2 Label_015921CD
//  #01 //042   ----------------------------------------
 BYTE   W96
//  #01 //043   ----------------------------------------
 BYTE   W96
//  #01 //044   ----------------------------------------
 BYTE   W96
//  #01 //045   ----------------------------------------
 BYTE   W72
 BYTE   N05  An2  v048
 BYTE   W06
 BYTE   BEND   c_v+30
 BYTE   N17  En3
 BYTE   W01
 BYTE   BEND   c_v+29
 BYTE   W01
 BYTE   BEND   c_v+27
 BYTE   W01
 BYTE   BEND   c_v+26
 BYTE   W01
 BYTE   BEND   c_v+23
 BYTE   W01
 BYTE   BEND   c_v+21
 BYTE   W01
 BYTE   BEND   c_v+20
 BYTE   W01
 BYTE   BEND   c_v+19
 BYTE   W01
 BYTE   BEND   c_v+16
 BYTE   W01
 BYTE   BEND   c_v+14
 BYTE   W01
 BYTE   BEND   c_v+13
 BYTE   W01
 BYTE   BEND   c_v+12
 BYTE   W01
 BYTE   BEND   c_v+9
 BYTE   W01
 BYTE   BEND   c_v+7
 BYTE   W01
 BYTE   BEND   c_v+6
 BYTE   W01
 BYTE   BEND   c_v+4
 BYTE   W01
 BYTE   BEND   c_v+2
 BYTE   W01
 BYTE   BEND   c_v+0
 BYTE   W01
//  #01 //046   ----------------------------------------
 BYTE   BEND   c_v+0
 BYTE   N02  An1
 BYTE   W02
 BYTE   N16  As1
 BYTE   W10
 BYTE   N07  An2
 BYTE   W07
 BYTE   N04  Dn3
 BYTE   N04  Fn3
 BYTE   W05
 BYTE   W06
 BYTE   N17  An2
 BYTE   N17  Dn3
 BYTE   W06
 BYTE   N11  As1
 BYTE   W12
 BYTE   N19  An1
 BYTE   W12
 BYTE   N07  Gn2
 BYTE   W07
 BYTE   N04  Cs3
 BYTE   N04  En3
 BYTE   W05
 BYTE   W06
 BYTE   N17  Gn2
 BYTE   N17  Cs3
 BYTE   W06
 BYTE   N11  An1
 BYTE   W12
//  #01 //047   ----------------------------------------
 BYTE   PATT
  POIN2 Label_0159219C
//  #01 //048   ----------------------------------------
 BYTE   PATT
  POIN2 Label_0159216F
//  #01 //049   ----------------------------------------
 BYTE   PATT
  POIN2 Label_015921CD
//  #01 //050   ----------------------------------------
 BYTE   PATT
  POIN2 Label_0159216F
//  #01 //051   ----------------------------------------
 BYTE   PATT
  POIN2 Label_0159219C
//  #01 //052   ----------------------------------------
 BYTE   PATT
  POIN2 Label_0159216F
//  #01 //053   ----------------------------------------
 BYTE   PATT
  POIN2 Label_015921CD
//  #01 //054   ----------------------------------------
 BYTE   PATT
  POIN2 Label_0159216F
//  #01 //055   ----------------------------------------
 BYTE   PATT
  POIN2 Label_0159219C
//  #01 //056   ----------------------------------------
 BYTE   PATT
  POIN2 Label_0159216F
//  #01 //057   ----------------------------------------
 BYTE   PATT
  POIN2 Label_015921CD
//  #01 //058   ----------------------------------------
 BYTE   PATT
  POIN2 Label_0159216F
//  #01 //059   ----------------------------------------
 BYTE   PATT
  POIN2 Label_0159219C
//  #01 //060   ----------------------------------------
 BYTE   PATT
  POIN2 Label_0159216F
//  #01 //061   ----------------------------------------
 BYTE   PATT
  POIN2 Label_015921CD
//  #01 //062   ----------------------------------------
 BYTE   PATT
  POIN2 Label_0159216F
//  #01 //063   ----------------------------------------
 BYTE   PATT
  POIN2 Label_0159219C
//  #01 //064   ----------------------------------------
 BYTE   PATT
  POIN2 Label_0159216F
//  #01 //065   ----------------------------------------
 BYTE   N07  Dn2  v048
 BYTE   W08
 BYTE   N15  Cn3
 BYTE   N15  En3
 BYTE   W04
 BYTE   N11  Dn2
 BYTE   W12
 BYTE   N07  Cs2
 BYTE   W08
 BYTE   N15  Bn2
 BYTE   N15  Ds3
 BYTE   W04
 BYTE   N11  Cs2
 BYTE   W12
 BYTE   N07  Cn2
 BYTE   W08
 BYTE   N15  As2
 BYTE   N15  Dn3
 BYTE   W04
 BYTE   N11  Cn2
 BYTE   W12
 BYTE   N07  Fn1
 BYTE   W08
 BYTE   N15  An2
 BYTE   N15  Ds3
 BYTE   W04
 BYTE   N11  Fn1
 BYTE   W11
 BYTE   BEND   c_v+0
 BYTE   W01
//  #01 //066   ----------------------------------------
 BYTE   W10
 BYTE   GoTo
  POIN2 Label_01592237
//  #01 //067   ----------------------------------------
 BYTE   W84
 BYTE   W02
 BYTE   W96
//  #01 //068   ----------------------------------------
 BYTE   W96
//  #01 //069   ----------------------------------------
 BYTE   W96
//  #01 //070   ----------------------------------------
 BYTE   W96
//  #01 //071   ----------------------------------------
 BYTE   W96
//  #01 //072   ----------------------------------------
 BYTE   W96
//  #01 //073   ----------------------------------------
 BYTE   W96
//  #01 //074   ----------------------------------------
 BYTE   W24
 BYTE   TEMPO   14*_223AM_tbs/2
 BYTE   W12
 BYTE   TEMPO   22*_223AM_tbs/2
 BYTE   W12
 BYTE   TEMPO   30*_223AM_tbs/2
 BYTE   W24
 BYTE   TEMPO   44*_223AM_tbs/2
 BYTE   W12
 BYTE   TEMPO   52*_223AM_tbs/2
 BYTE   W12
//  #01 //075   ----------------------------------------
 BYTE   TEMPO   60*_223AM_tbs/2
 BYTE   W12
 BYTE   TEMPO   60*_223AM_tbs/2
 BYTE   W12
 BYTE   TEMPO   60*_223AM_tbs/2
 BYTE   W12
 BYTE   TEMPO   60*_223AM_tbs/2
 BYTE   W12
 BYTE   TEMPO   60*_223AM_tbs/2
 BYTE   W12
 BYTE   TEMPO   60*_223AM_tbs/2
 BYTE   W06
 BYTE   TEMPO   60*_223AM_tbs/2
 BYTE   W06
 BYTE   TEMPO   60*_223AM_tbs/2
 BYTE   W06
 BYTE   TEMPO   60*_223AM_tbs/2
 BYTE   W12
 BYTE   TEMPO   60*_223AM_tbs/2
 BYTE   W06
//  #01 //076   ----------------------------------------
 BYTE   TEMPO   60*_223AM_tbs/2
 BYTE   W06
 BYTE   TEMPO   60*_223AM_tbs/2
 BYTE   W06
 BYTE   TEMPO   60*_223AM_tbs/2
 BYTE   W12
 BYTE   TEMPO   60*_223AM_tbs/2
 BYTE   W24
 BYTE   TEMPO   60*_223AM_tbs/2
 BYTE   W24
 BYTE   TEMPO   60*_223AM_tbs/2
 BYTE   W12
 BYTE   TEMPO   60*_223AM_tbs/2
 BYTE   W12
//  #01 //077   ----------------------------------------
 BYTE   TEMPO   60*_223AM_tbs/2
 BYTE   W12
 BYTE   TEMPO   60*_223AM_tbs/2
 BYTE   W12
 BYTE   TEMPO   60*_223AM_tbs/2
 BYTE   W12
 BYTE   TEMPO   60*_223AM_tbs/2
 BYTE   W12
 BYTE   TEMPO   60*_223AM_tbs/2
 BYTE   W12
 BYTE   TEMPO   60*_223AM_tbs/2
 BYTE   W06
 BYTE   TEMPO   60*_223AM_tbs/2
 BYTE   W06
 BYTE   TEMPO   60*_223AM_tbs/2
 BYTE   W06
 BYTE   TEMPO   60*_223AM_tbs/2
 BYTE   W12
 BYTE   TEMPO   62*_223AM_tbs/2
 BYTE   W06
//  #01 //078   ----------------------------------------
 BYTE   TEMPO   62*_223AM_tbs/2
 BYTE   W06
 BYTE   TEMPO   62*_223AM_tbs/2
 BYTE   W06
 BYTE   TEMPO   64*_223AM_tbs/2
 BYTE   W12
 BYTE   TEMPO   64*_223AM_tbs/2
 BYTE   W24
 BYTE   TEMPO   70*_223AM_tbs/2
 BYTE   W24
 BYTE   TEMPO   76*_223AM_tbs/2
 BYTE   W02
 BYTE   TEMPO   78*_223AM_tbs/2
 BYTE   W02
 BYTE   TEMPO   78*_223AM_tbs/2
 BYTE   W02
 BYTE   TEMPO   80*_223AM_tbs/2
 BYTE   W06
 BYTE   TEMPO   82*_223AM_tbs/2
 BYTE   W02
 BYTE   TEMPO   84*_223AM_tbs/2
 BYTE   W02
 BYTE   TEMPO   84*_223AM_tbs/2
 BYTE   W02
 BYTE   TEMPO   86*_223AM_tbs/2
 BYTE   W06
//  #01 //079   ----------------------------------------
 BYTE   TEMPO   88*_223AM_tbs/2
 BYTE   W96
//  #01 //080   ----------------------------------------
 BYTE   W96
//  #01 //081   ----------------------------------------
 BYTE   W96
//  #01 //082   ----------------------------------------
 BYTE   W96
//  #01 //083   ----------------------------------------
 BYTE   W96
//  #01 //084   ----------------------------------------
 BYTE   W96
//  #01 //085   ----------------------------------------
 BYTE   TEMPO   88*_223AM_tbs/2
 BYTE   W12
 BYTE   TEMPO   88*_223AM_tbs/2
 BYTE   W04
 BYTE   TEMPO   86*_223AM_tbs/2
 BYTE   W03
 BYTE   TEMPO   86*_223AM_tbs/2
 BYTE   W05
 BYTE   TEMPO   86*_223AM_tbs/2
 BYTE   W06
 BYTE   TEMPO   84*_223AM_tbs/2
 BYTE   W06
 BYTE   TEMPO   84*_223AM_tbs/2
 BYTE   W12
 BYTE   TEMPO   82*_223AM_tbs/2
 BYTE   W12
 BYTE   TEMPO   80*_223AM_tbs/2
 BYTE   W04
 BYTE   TEMPO   78*_223AM_tbs/2
 BYTE   W03
 BYTE   TEMPO   78*_223AM_tbs/2
 BYTE   W05
 BYTE   TEMPO   78*_223AM_tbs/2
 BYTE   W06
 BYTE   TEMPO   76*_223AM_tbs/2
 BYTE   W06
 BYTE   TEMPO   76*_223AM_tbs/2
 BYTE   W12
//  #01 //086   ----------------------------------------
 BYTE   TEMPO   74*_223AM_tbs/2
 BYTE   W08
 BYTE   TEMPO   72*_223AM_tbs/2
 BYTE   W04
 BYTE   TEMPO   72*_223AM_tbs/2
 BYTE   W12
 BYTE   TEMPO   70*_223AM_tbs/2
 BYTE   W08
 BYTE   TEMPO   70*_223AM_tbs/2
 BYTE   W04
 BYTE   TEMPO   68*_223AM_tbs/2
 BYTE   W12
 BYTE   TEMPO   66*_223AM_tbs/2
 BYTE   W08
 BYTE   TEMPO   66*_223AM_tbs/2
 BYTE   W04
 BYTE   TEMPO   64*_223AM_tbs/2
 BYTE   W12
 BYTE   TEMPO   62*_223AM_tbs/2
 BYTE   W08
 BYTE   TEMPO   62*_223AM_tbs/2
 BYTE   W04
 BYTE   TEMPO   60*_223AM_tbs/2
 BYTE   W12
//  #01 //087   ----------------------------------------
 BYTE   TEMPO   60*_223AM_tbs/2
 BYTE   FINE

//**************** Track 2 (Midi-Chn.1) ****************//

_223AM_002:
//  #02 //000   ----------------------------------------
 BYTE   KEYSH   _223AM_key+0
 BYTE   VOICE   77
 BYTE   MODT 0
 BYTE   LFOS 44
 BYTE   VOL   53*_223AM_mvl/mxv
 BYTE   PAN   c_v+0
 BYTE   W96
//  #02 //001   ----------------------------------------
 BYTE   W96
//  #02 //002   ----------------------------------------
 BYTE   W96
//  #02 //003   ----------------------------------------
 BYTE   W96
//  #02 //004   ----------------------------------------
 BYTE   W96
//  #02 //005   ----------------------------------------
 BYTE   W96
//  #02 //006   ----------------------------------------
 BYTE   W96
//  #02 //007   ----------------------------------------
 BYTE   W96
//  #02 //008   ----------------------------------------
 BYTE   W78
 BYTE   N05  Fn4  v060
 BYTE   W06
 BYTE   Gn4
 BYTE   W06
 BYTE   Fn4
 BYTE   W06
//  #02 //009   ----------------------------------------
Label_5590A5:
 BYTE   N02  Gn4  v060
 BYTE   W02
 BYTE   N09  An4
 BYTE   W10
 BYTE   N05  Dn4
 BYTE   W06
 BYTE   Fn4
 BYTE   W12
 BYTE   N05
 BYTE   W06
 BYTE   Gn4
 BYTE   W06
 BYTE   Fn4
 BYTE   W06
 BYTE   N02  Gn4
 BYTE   W02
 BYTE   N09  An4
 BYTE   W10
 BYTE   N05  Dn4
 BYTE   W06
 BYTE   Fn4
 BYTE   W12
 BYTE   N05
 BYTE   W06
 BYTE   Gn4
 BYTE   W06
 BYTE   Fn4
 BYTE   W06
 BYTE   PEND 
//  #02 //010   ----------------------------------------
Label_5590C9:
 BYTE   N02  Gn4  v060
 BYTE   W02
 BYTE   N09  An4
 BYTE   W10
 BYTE   N05  Cn5
 BYTE   W12
 BYTE   N05
 BYTE   W06
 BYTE   An4
 BYTE   W12
 BYTE   N02  Cn5
 BYTE   W02
 BYTE   N09  Dn5
 BYTE   W10
 BYTE   N05  Cn5
 BYTE   W12
 BYTE   N11  Gn4
 BYTE   W06
 BYTE   W06
 BYTE   N05  Fn4
 BYTE   W06
 BYTE   Gn4
 BYTE   W06
 BYTE   Fn4
 BYTE   W06
 BYTE   PEND 
//  #02 //011   ----------------------------------------
Label_5590EC:
 BYTE   N11  An4  v060
 BYTE   W12
 BYTE   N05  Dn4
 BYTE   W06
 BYTE   Fn4
 BYTE   W12
 BYTE   N05
 BYTE   W06
 BYTE   Gn4
 BYTE   W06
 BYTE   Fn4
 BYTE   W06
 BYTE   N02  Gn4
 BYTE   W02
 BYTE   N09  An4
 BYTE   W10
 BYTE   N05  Dn4
 BYTE   W06
 BYTE   Fn4
 BYTE   W12
 BYTE   N05
 BYTE   W06
 BYTE   Gn4
 BYTE   W06
 BYTE   Fn4
 BYTE   W06
 BYTE   PEND 
//  #02 //012   ----------------------------------------
Label_55910D:
 BYTE   N02  Gn4  v060
 BYTE   W02
 BYTE   N09  An4
 BYTE   W10
 BYTE   N05  Cn5
 BYTE   W06
 BYTE   Gn4
 BYTE   W12
 BYTE   Fn4
 BYTE   W06
 BYTE   Gn4
 BYTE   W06
 BYTE   Fn4
 BYTE   W06
 BYTE   Gn4
 BYTE   W06
 BYTE   An4
 BYTE   W18
 BYTE   Gs4
 BYTE   W06
 BYTE   Gn4
 BYTE   W06
 BYTE   Fn4
 BYTE   W06
 BYTE   Gn4
 BYTE   W06
 BYTE   PEND 
//  #02 //013   ----------------------------------------
 BYTE   PATT
  POIN2 Label_5590A5
//  #02 //014   ----------------------------------------
 BYTE   PATT
  POIN2 Label_5590C9
//  #02 //015   ----------------------------------------
 BYTE   PATT
  POIN2 Label_5590EC
//  #02 //016   ----------------------------------------
Label_55913B:
 BYTE   N02  Gn4  v060
 BYTE   W02
 BYTE   N09  An4
 BYTE   W10
 BYTE   N05  Cn5
 BYTE   W06
 BYTE   Gn4
 BYTE   W12
 BYTE   Fn4
 BYTE   W06
 BYTE   Gn4
 BYTE   W06
 BYTE   Fn4
 BYTE   W06
 BYTE   Gn4
 BYTE   W06
 BYTE   An4
 BYTE   W18
 BYTE   Gs4
 BYTE   W06
 BYTE   Gn4
 BYTE   W06
 BYTE   N11  Fn4
 BYTE   W12
 BYTE   PEND 
//  #02 //017   ----------------------------------------
Label_559159:
 BYTE   W96
//  #02 //018   ----------------------------------------
 BYTE   W96
//  #02 //019   ----------------------------------------
 BYTE   W96
//  #02 //020   ----------------------------------------
 BYTE   W96
//  #02 //021   ----------------------------------------
 BYTE   W96
//  #02 //022   ----------------------------------------
 BYTE   W96
//  #02 //023   ----------------------------------------
 BYTE   W96
//  #02 //024   ----------------------------------------
 BYTE   W96
//  #02 //025   ----------------------------------------
 BYTE   W96
//  #02 //026   ----------------------------------------
 BYTE   W96
//  #02 //027   ----------------------------------------
 BYTE   W96
//  #02 //028   ----------------------------------------
 BYTE   W96
//  #02 //029   ----------------------------------------
 BYTE   W96
//  #02 //030   ----------------------------------------
 BYTE   W96
//  #02 //031   ----------------------------------------
 BYTE   W96
//  #02 //032   ----------------------------------------
 BYTE   W96
//  #02 //033   ----------------------------------------
 BYTE   W72
 BYTE   N02  En5  v044
 BYTE   W02
 BYTE   N06  Fn5
 BYTE   W07
 BYTE   N08  En5
 BYTE   W09
 BYTE   N02  Cn5
 BYTE   W06
//  #02 //034   ----------------------------------------
 BYTE   N02
 BYTE   W02
 BYTE   N06  Dn5
 BYTE   W07
 BYTE   N08  Cn5
 BYTE   W09
 BYTE   N02  An4
 BYTE   W06
 BYTE   N08  Cn5
 BYTE   W09
 BYTE   An4
 BYTE   W09
 BYTE   N02  Gn4
 BYTE   W06
 BYTE   N02
 BYTE   W02
 BYTE   N10  An4
 BYTE   W22
 BYTE   N02  Gs4
 BYTE   W02
 BYTE   N09  Gn4
 BYTE   W10
 BYTE   N07  Fn4
 BYTE   W07
 BYTE   N04  Gn4
 BYTE   W05
//  #02 //035   ----------------------------------------
 BYTE   N02
 BYTE   W02
 BYTE   N10  An4
 BYTE   W68
 BYTE   W02
 BYTE   N10
 BYTE   W10
 BYTE   N03  As4
 BYTE   W07
 BYTE   Bn4
 BYTE   W07
//  #02 //036   ----------------------------------------
 BYTE   N02
 BYTE   W02
 BYTE   N05  Cn5
 BYTE   W06
 BYTE   N01  Gs4
 BYTE   W04
 BYTE   N07  Gn4
 BYTE   W07
 BYTE   N04  Fn4
 BYTE   W05
 BYTE   N05  Gn4
 BYTE   W06
 BYTE   Fn4
 BYTE   W06
 BYTE   N02  Gn4
 BYTE   W02
 BYTE   Gs4
 BYTE   W02
 BYTE   N07  An4
 BYTE   W32
 BYTE   N11  Fn4
 BYTE   W24
//  #02 //037   ----------------------------------------
 BYTE   W72
 BYTE   N02  En5
 BYTE   W02
 BYTE   N06  Fn5
 BYTE   W07
 BYTE   N08  En5
 BYTE   W09
 BYTE   N02  Cn5
 BYTE   W06
//  #02 //038   ----------------------------------------
 BYTE   N02
 BYTE   W02
 BYTE   N06  Dn5
 BYTE   W07
 BYTE   N08  Cn5
 BYTE   W09
 BYTE   N02  An4
 BYTE   W06
 BYTE   N08  Cn5
 BYTE   W09
 BYTE   An4
 BYTE   W09
 BYTE   N02  Gn4
 BYTE   W06
 BYTE   N02
 BYTE   W02
 BYTE   N10  An4
 BYTE   W22
 BYTE   N02  Gs4
 BYTE   W02
 BYTE   N09  Gn4
 BYTE   W10
 BYTE   N07  Fn4
 BYTE   W07
 BYTE   N04  Gn4
 BYTE   W05
//  #02 //039   ----------------------------------------
 BYTE   N02
 BYTE   W02
 BYTE   N10  An4
 BYTE   W68
 BYTE   W02
 BYTE   N10
 BYTE   W10
 BYTE   N03  As4
 BYTE   W07
 BYTE   Bn4
 BYTE   W07
//  #02 //040   ----------------------------------------
 BYTE   N02
 BYTE   W02
 BYTE   N05  Cn5
 BYTE   W06
 BYTE   N01  Gs4
 BYTE   W04
 BYTE   N07  Gn4
 BYTE   W07
 BYTE   N04  Fn4
 BYTE   W05
 BYTE   N05  Gn4
 BYTE   W06
 BYTE   Fn4
 BYTE   W06
 BYTE   N02  Gn4
 BYTE   W02
 BYTE   Gs4
 BYTE   W02
 BYTE   N07  An4
 BYTE   W32
 BYTE   N11  Fn4
 BYTE   W24
//  #02 //041   ----------------------------------------
 BYTE   W96
//  #02 //042   ----------------------------------------
 BYTE   W96
//  #02 //043   ----------------------------------------
 BYTE   W96
//  #02 //044   ----------------------------------------
 BYTE   W96
//  #02 //045   ----------------------------------------
 BYTE   W96
//  #02 //046   ----------------------------------------
 BYTE   W96
//  #02 //047   ----------------------------------------
 BYTE   W96
//  #02 //048   ----------------------------------------
 BYTE   W96
//  #02 //049   ----------------------------------------
 BYTE   W96
//  #02 //050   ----------------------------------------
 BYTE   W96
//  #02 //051   ----------------------------------------
 BYTE   W96
//  #02 //052   ----------------------------------------
 BYTE   W96
//  #02 //053   ----------------------------------------
 BYTE   W96
//  #02 //054   ----------------------------------------
 BYTE   W96
//  #02 //055   ----------------------------------------
 BYTE   W96
//  #02 //056   ----------------------------------------
 BYTE   W78
 BYTE   N05  Fn4  v060
 BYTE   W06
 BYTE   Gn4
 BYTE   W06
 BYTE   Fn4
 BYTE   W06
//  #02 //057   ----------------------------------------
 BYTE   PATT
  POIN2 Label_5590A5
//  #02 //058   ----------------------------------------
 BYTE   PATT
  POIN2 Label_5590C9
//  #02 //059   ----------------------------------------
 BYTE   PATT
  POIN2 Label_5590EC
//  #02 //060   ----------------------------------------
 BYTE   PATT
  POIN2 Label_55910D
//  #02 //061   ----------------------------------------
 BYTE   PATT
  POIN2 Label_5590A5
//  #02 //062   ----------------------------------------
 BYTE   PATT
  POIN2 Label_5590C9
//  #02 //063   ----------------------------------------
 BYTE   PATT
  POIN2 Label_5590EC
//  #02 //064   ----------------------------------------
 BYTE   PATT
  POIN2 Label_55913B
//  #02 //065   ----------------------------------------
 BYTE   W10
 BYTE   GoTo
  POIN2 Label_559159
//  #02 //066   ----------------------------------------
 BYTE   W84
 BYTE   W02
 BYTE   W96
//  #02 //067   ----------------------------------------
 BYTE   W96
//  #02 //068   ----------------------------------------
 BYTE   W96
//  #02 //069   ----------------------------------------
 BYTE   W96
//  #02 //070   ----------------------------------------
 BYTE   W96
//  #02 //071   ----------------------------------------
 BYTE   W96
//  #02 //072   ----------------------------------------
 BYTE   W96
//  #02 //073   ----------------------------------------
 BYTE   W96
//  #02 //074   ----------------------------------------
 BYTE   W96
//  #02 //075   ----------------------------------------
 BYTE   W96
//  #02 //076   ----------------------------------------
 BYTE   W96
//  #02 //077   ----------------------------------------
 BYTE   W96
//  #02 //078   ----------------------------------------
 BYTE   W96
//  #02 //079   ----------------------------------------
 BYTE   W96
//  #02 //080   ----------------------------------------
 BYTE   W96
//  #02 //081   ----------------------------------------
 BYTE   W96
//  #02 //082   ----------------------------------------
 BYTE   W96
//  #02 //083   ----------------------------------------
 BYTE   W96
//  #02 //084   ----------------------------------------
 BYTE   W96
//  #02 //085   ----------------------------------------
 BYTE   W96
 BYTE   FINE

//**************** Track 3 (Midi-Chn.2) ****************//

_223AM_003:
//  #03 //000   ----------------------------------------
 BYTE   KEYSH   _223AM_key+0
 BYTE   VOICE   62
 BYTE   MODT 0
 BYTE   LFOS 44
 BYTE   VOL   53*_223AM_mvl/mxv
 BYTE   PAN   c_v+0
 BYTE   W96
//  #03 //001   ----------------------------------------
 BYTE   W96
//  #03 //002   ----------------------------------------
 BYTE   W96
//  #03 //003   ----------------------------------------
 BYTE   W96
//  #03 //004   ----------------------------------------
 BYTE   W96
//  #03 //005   ----------------------------------------
 BYTE   W96
//  #03 //006   ----------------------------------------
 BYTE   W96
//  #03 //007   ----------------------------------------
 BYTE   W96
//  #03 //008   ----------------------------------------
 BYTE   W96
//  #03 //009   ----------------------------------------
 BYTE   W96
//  #03 //010   ----------------------------------------
 BYTE   W96
//  #03 //011   ----------------------------------------
 BYTE   W96
//  #03 //012   ----------------------------------------
 BYTE   W96
//  #03 //013   ----------------------------------------
 BYTE   W96
//  #03 //014   ----------------------------------------
 BYTE   W96
//  #03 //015   ----------------------------------------
 BYTE   W96
//  #03 //016   ----------------------------------------
 BYTE   W96
//  #03 //017   ----------------------------------------
Label_558855:
 BYTE   W96
//  #03 //018   ----------------------------------------
 BYTE   W96
//  #03 //019   ----------------------------------------
 BYTE   W96
//  #03 //020   ----------------------------------------
 BYTE   W96
//  #03 //021   ----------------------------------------
 BYTE   W96
//  #03 //022   ----------------------------------------
 BYTE   W96
//  #03 //023   ----------------------------------------
 BYTE   W96
//  #03 //024   ----------------------------------------
Label_55885C:
 BYTE   W72
 BYTE   N11  Fn3  v044
 BYTE   N11  An3
 BYTE   W12
 BYTE   Gn3
 BYTE   N11  As3
 BYTE   W12
 BYTE   PEND 
//  #03 //025   ----------------------------------------
Label_558868:
 BYTE   N44  Fn3  v044
 BYTE   N44  An3
 BYTE   W48
 BYTE   N23  En3
 BYTE   N23  Gn3
 BYTE   W24
 BYTE   N23
 BYTE   N23  Cn4
 BYTE   W24
 BYTE   PEND 
//  #03 //026   ----------------------------------------
Label_558878:
 BYTE   N44  Fn3  v044
 BYTE   N44  An3
 BYTE   W48
 BYTE   N23  Bn2
 BYTE   N23  Dn3
 BYTE   W24
 BYTE   En3
 BYTE   N23  Gn3
 BYTE   W24
 BYTE   PEND 
//  #03 //027   ----------------------------------------
 BYTE   PATT
  POIN2 Label_558868
//  #03 //028   ----------------------------------------
Label_55888D:
 BYTE   N23  Fn3  v044
 BYTE   N23  An3
 BYTE   W24
 BYTE   En3
 BYTE   N23  Gs3
 BYTE   W24
 BYTE   Ds3
 BYTE   N23  Gn3
 BYTE   W24
 BYTE   Fn3
 BYTE   N23  An3
 BYTE   W24
 BYTE   PEND 
//  #03 //029   ----------------------------------------
 BYTE   PATT
  POIN2 Label_558868
//  #03 //030   ----------------------------------------
 BYTE   PATT
  POIN2 Label_558878
//  #03 //031   ----------------------------------------
 BYTE   PATT
  POIN2 Label_558868
//  #03 //032   ----------------------------------------
 BYTE   PATT
  POIN2 Label_55888D
//  #03 //033   ----------------------------------------
 BYTE   W96
//  #03 //034   ----------------------------------------
 BYTE   W96
//  #03 //035   ----------------------------------------
 BYTE   W96
//  #03 //036   ----------------------------------------
 BYTE   W96
//  #03 //037   ----------------------------------------
 BYTE   W96
//  #03 //038   ----------------------------------------
 BYTE   W96
//  #03 //039   ----------------------------------------
 BYTE   W96
//  #03 //040   ----------------------------------------
 BYTE   W96
//  #03 //041   ----------------------------------------
 BYTE   W96
//  #03 //042   ----------------------------------------
 BYTE   W96
//  #03 //043   ----------------------------------------
 BYTE   W96
//  #03 //044   ----------------------------------------
 BYTE   W96
//  #03 //045   ----------------------------------------
 BYTE   W96
//  #03 //046   ----------------------------------------
 BYTE   W96
//  #03 //047   ----------------------------------------
 BYTE   W96
//  #03 //048   ----------------------------------------
 BYTE   PATT
  POIN2 Label_55885C
//  #03 //049   ----------------------------------------
 BYTE   N44  Fn3  v044
 BYTE   N44  An3
 BYTE   W48
 BYTE   N23  En3
 BYTE   N23  Gn3
 BYTE   W24
 BYTE   N23
 BYTE   N23  Cn4
 BYTE   W24
//  #03 //050   ----------------------------------------
 BYTE   PATT
  POIN2 Label_558878
//  #03 //051   ----------------------------------------
 BYTE   PATT
  POIN2 Label_558868
//  #03 //052   ----------------------------------------
 BYTE   PATT
  POIN2 Label_55888D
//  #03 //053   ----------------------------------------
 BYTE   PATT
  POIN2 Label_558868
//  #03 //054   ----------------------------------------
 BYTE   PATT
  POIN2 Label_558878
//  #03 //055   ----------------------------------------
 BYTE   PATT
  POIN2 Label_558868
//  #03 //056   ----------------------------------------
 BYTE   PATT
  POIN2 Label_55888D
//  #03 //057   ----------------------------------------
 BYTE   W96
//  #03 //058   ----------------------------------------
 BYTE   W96
//  #03 //059   ----------------------------------------
 BYTE   W96
//  #03 //060   ----------------------------------------
 BYTE   W96
//  #03 //061   ----------------------------------------
 BYTE   W96
//  #03 //062   ----------------------------------------
 BYTE   W96
//  #03 //063   ----------------------------------------
 BYTE   W96
//  #03 //064   ----------------------------------------
 BYTE   W96
//  #03 //065   ----------------------------------------
 BYTE   W10
 BYTE   GoTo
  POIN2 Label_558855
//  #03 //066   ----------------------------------------
 BYTE   W84
 BYTE   W02
 BYTE   W96
//  #03 //067   ----------------------------------------
 BYTE   W96
//  #03 //068   ----------------------------------------
 BYTE   W96
//  #03 //069   ----------------------------------------
 BYTE   W96
//  #03 //070   ----------------------------------------
 BYTE   W96
//  #03 //071   ----------------------------------------
 BYTE   W96
//  #03 //072   ----------------------------------------
 BYTE   W96
//  #03 //073   ----------------------------------------
 BYTE   W96
//  #03 //074   ----------------------------------------
 BYTE   W96
//  #03 //075   ----------------------------------------
 BYTE   W96
//  #03 //076   ----------------------------------------
 BYTE   W96
//  #03 //077   ----------------------------------------
 BYTE   W96
//  #03 //078   ----------------------------------------
 BYTE   W96
//  #03 //079   ----------------------------------------
 BYTE   W96
//  #03 //080   ----------------------------------------
 BYTE   W96
//  #03 //081   ----------------------------------------
 BYTE   W96
//  #03 //082   ----------------------------------------
 BYTE   W96
//  #03 //083   ----------------------------------------
 BYTE   W96
//  #03 //084   ----------------------------------------
 BYTE   W96
//  #03 //085   ----------------------------------------
 BYTE   W96
 BYTE   FINE

//**************** Track 4 (Midi-Chn.3) ****************//

_223AM_004:
//  #04 //000   ----------------------------------------
 BYTE   KEYSH   _223AM_key+0
 BYTE   VOICE   91
 BYTE   MODT 0
 BYTE   LFOS 44
 BYTE   VOL   53*_223AM_mvl/mxv
 BYTE   PAN   c_v+0
 BYTE   W96
//  #04 //001   ----------------------------------------
 BYTE   W96
//  #04 //002   ----------------------------------------
 BYTE   W96
//  #04 //003   ----------------------------------------
 BYTE   W96
//  #04 //004   ----------------------------------------
 BYTE   W96
//  #04 //005   ----------------------------------------
 BYTE   W96
//  #04 //006   ----------------------------------------
 BYTE   W96
//  #04 //007   ----------------------------------------
 BYTE   W96
//  #04 //008   ----------------------------------------
 BYTE   W96
//  #04 //009   ----------------------------------------
Label_558935:
 BYTE   N44  Dn3  v044
 BYTE   N44  An3
 BYTE   W48
 BYTE   N23  Cn3
 BYTE   N23  Gn3
 BYTE   W24
 BYTE   En3
 BYTE   N23  Cn4
 BYTE   W24
 BYTE   PEND 
//  #04 //010   ----------------------------------------
Label_558945:
 BYTE   N44  Dn3  v044
 BYTE   N44  An3
 BYTE   W72
 BYTE   N23  Cn3
 BYTE   N23  Gn3
 BYTE   W24
 BYTE   PEND 
//  #04 //011   ----------------------------------------
 BYTE   PATT
  POIN2 Label_558935
//  #04 //012   ----------------------------------------
Label_558956:
 BYTE   N23  Dn3  v044
 BYTE   N23  An3
 BYTE   W24
 BYTE   Cs3
 BYTE   N23  Gs3
 BYTE   W24
 BYTE   Cn3
 BYTE   N23  Gn3
 BYTE   W24
 BYTE   Dn3
 BYTE   N23  An3
 BYTE   W24
 BYTE   PEND 
//  #04 //013   ----------------------------------------
 BYTE   PATT
  POIN2 Label_558935
//  #04 //014   ----------------------------------------
 BYTE   PATT
  POIN2 Label_558945
//  #04 //015   ----------------------------------------
 BYTE   PATT
  POIN2 Label_558935
//  #04 //016   ----------------------------------------
 BYTE   PATT
  POIN2 Label_558956
//  #04 //017   ----------------------------------------
Label_55897D:
 BYTE   W96
//  #04 //018   ----------------------------------------
 BYTE   W96
//  #04 //019   ----------------------------------------
 BYTE   W96
//  #04 //020   ----------------------------------------
 BYTE   W96
//  #04 //021   ----------------------------------------
 BYTE   W96
//  #04 //022   ----------------------------------------
 BYTE   W96
//  #04 //023   ----------------------------------------
 BYTE   W96
//  #04 //024   ----------------------------------------
 BYTE   W96
//  #04 //025   ----------------------------------------
 BYTE   W96
//  #04 //026   ----------------------------------------
 BYTE   W96
//  #04 //027   ----------------------------------------
 BYTE   W96
//  #04 //028   ----------------------------------------
 BYTE   W96
//  #04 //029   ----------------------------------------
 BYTE   W96
//  #04 //030   ----------------------------------------
 BYTE   W96
//  #04 //031   ----------------------------------------
 BYTE   W96
//  #04 //032   ----------------------------------------
 BYTE   W96
//  #04 //033   ----------------------------------------
 BYTE   W96
//  #04 //034   ----------------------------------------
 BYTE   W96
//  #04 //035   ----------------------------------------
 BYTE   W96
//  #04 //036   ----------------------------------------
 BYTE   W96
//  #04 //037   ----------------------------------------
 BYTE   W96
//  #04 //038   ----------------------------------------
 BYTE   W96
//  #04 //039   ----------------------------------------
 BYTE   W96
//  #04 //040   ----------------------------------------
 BYTE   W96
//  #04 //041   ----------------------------------------
 BYTE   W96
//  #04 //042   ----------------------------------------
 BYTE   W96
//  #04 //043   ----------------------------------------
 BYTE   W96
//  #04 //044   ----------------------------------------
 BYTE   W96
//  #04 //045   ----------------------------------------
 BYTE   W96
//  #04 //046   ----------------------------------------
 BYTE   W96
//  #04 //047   ----------------------------------------
 BYTE   W96
//  #04 //048   ----------------------------------------
 BYTE   W96
//  #04 //049   ----------------------------------------
 BYTE   W96
//  #04 //050   ----------------------------------------
 BYTE   W96
//  #04 //051   ----------------------------------------
 BYTE   W96
//  #04 //052   ----------------------------------------
 BYTE   W96
//  #04 //053   ----------------------------------------
 BYTE   W96
//  #04 //054   ----------------------------------------
 BYTE   W96
//  #04 //055   ----------------------------------------
 BYTE   W96
//  #04 //056   ----------------------------------------
 BYTE   W96
//  #04 //057   ----------------------------------------
 BYTE   PATT
  POIN2 Label_558935
//  #04 //058   ----------------------------------------
 BYTE   PATT
  POIN2 Label_558945
//  #04 //059   ----------------------------------------
 BYTE   PATT
  POIN2 Label_558935
//  #04 //060   ----------------------------------------
 BYTE   PATT
  POIN2 Label_558956
//  #04 //061   ----------------------------------------
 BYTE   PATT
  POIN2 Label_558935
//  #04 //062   ----------------------------------------
 BYTE   PATT
  POIN2 Label_558945
//  #04 //063   ----------------------------------------
 BYTE   PATT
  POIN2 Label_558935
//  #04 //064   ----------------------------------------
 BYTE   PATT
  POIN2 Label_558956
//  #04 //065   ----------------------------------------
 BYTE   W10
 BYTE   GoTo
  POIN2 Label_55897D
//  #04 //066   ----------------------------------------
 BYTE   W84
 BYTE   W02
 BYTE   W96
//  #04 //067   ----------------------------------------
 BYTE   W96
//  #04 //068   ----------------------------------------
 BYTE   W96
//  #04 //069   ----------------------------------------
 BYTE   W96
//  #04 //070   ----------------------------------------
 BYTE   W96
//  #04 //071   ----------------------------------------
 BYTE   W96
//  #04 //072   ----------------------------------------
 BYTE   W96
//  #04 //073   ----------------------------------------
 BYTE   W96
//  #04 //074   ----------------------------------------
 BYTE   W96
//  #04 //075   ----------------------------------------
 BYTE   W96
//  #04 //076   ----------------------------------------
 BYTE   W96
//  #04 //077   ----------------------------------------
 BYTE   W96
//  #04 //078   ----------------------------------------
 BYTE   W96
//  #04 //079   ----------------------------------------
 BYTE   W96
//  #04 //080   ----------------------------------------
 BYTE   W96
//  #04 //081   ----------------------------------------
 BYTE   W96
//  #04 //082   ----------------------------------------
 BYTE   W96
//  #04 //083   ----------------------------------------
 BYTE   W96
//  #04 //084   ----------------------------------------
 BYTE   W96
//  #04 //085   ----------------------------------------
 BYTE   W96
 BYTE   FINE

//**************** Track 5 (Midi-Chn.4) ****************//

_223AM_005:
//  #05 //000   ----------------------------------------
 BYTE   KEYSH   _223AM_key+0
 BYTE   VOICE   4
 BYTE   MODT 0
 BYTE   LFOS 44
 BYTE   VOL   53*_223AM_mvl/mxv
 BYTE   PAN   c_v+0
 BYTE   W72
 BYTE   N02  Gs4  v127
 BYTE   W02
 BYTE   N09  An4
 BYTE   W10
 BYTE   N11  As4
 BYTE   W12
//  #05 //001   ----------------------------------------
Label_0159249F:
 BYTE   N02  As4  v127
 BYTE   W02
 BYTE   N04  Cn5
 BYTE   W10
 BYTE   N05
 BYTE   W12
 BYTE   N05
 BYTE   W12
 BYTE   N05
 BYTE   W12
 BYTE   N05
 BYTE   W18
 BYTE   As4
 BYTE   W06
 BYTE   An4
 BYTE   W06
 BYTE   N11  Gn4
 BYTE   W12
 BYTE   N02  Gs4
 BYTE   W02
 BYTE   N09  Gn4
 BYTE   W04
 BYTE   PEND 
//  #05 //002   ----------------------------------------
Label_015924BC:
 BYTE   W06
 BYTE   N05  Fn4  v127
 BYTE   W06
 BYTE   N02  Gs4
 BYTE   W02
 BYTE   N09  An4
 BYTE   W56
 BYTE   W02
 BYTE   N02  Gs4
 BYTE   W02
 BYTE   N09  An4
 BYTE   W10
 BYTE   N11  As4
 BYTE   W12
 BYTE   PEND 
//  #05 //003   ----------------------------------------
Label_015924D2:
 BYTE   N05  Cn5  v127
 BYTE   W12
 BYTE   N05
 BYTE   W12
 BYTE   N05
 BYTE   W12
 BYTE   N05
 BYTE   W12
 BYTE   N05
 BYTE   W18
 BYTE   As4
 BYTE   W06
 BYTE   An4
 BYTE   W06
 BYTE   N11  Gn4
 BYTE   W12
 BYTE   N02  Gs4
 BYTE   W02
 BYTE   N09  Gn4
 BYTE   W04
 BYTE   PEND 
//  #05 //004   ----------------------------------------
Label_015924EC:
 BYTE   W06
 BYTE   N05  Fn4  v127
 BYTE   W06
 BYTE   N11
 BYTE   W60
 BYTE   N02  Gs4
 BYTE   W02
 BYTE   N09  An4
 BYTE   W10
 BYTE   N11  As4
 BYTE   W12
 BYTE   PEND 
//  #05 //005   ----------------------------------------
 BYTE   PATT
  POIN2 Label_0159249F
//  #05 //006   ----------------------------------------
 BYTE   PATT
  POIN2 Label_015924BC
//  #05 //007   ----------------------------------------
 BYTE   PATT
  POIN2 Label_015924D2
//  #05 //008   ----------------------------------------
Label_0159250C:
 BYTE   W06
 BYTE   N05  Fn4  v127
 BYTE   W06
 BYTE   N11
 BYTE   W84
 BYTE   PEND 
//  #05 //009   ----------------------------------------
 BYTE   W96
//  #05 //010   ----------------------------------------
 BYTE   W96
//  #05 //011   ----------------------------------------
 BYTE   W96
//  #05 //012   ----------------------------------------
 BYTE   W96
//  #05 //013   ----------------------------------------
 BYTE   W96
//  #05 //014   ----------------------------------------
 BYTE   W96
//  #05 //015   ----------------------------------------
 BYTE   W96
//  #05 //016   ----------------------------------------
 BYTE   W96
//  #05 //017   ----------------------------------------
Label_0159251C:
 BYTE   W12
 BYTE   N05  Fn4  v127
 BYTE   W12
 BYTE   N05
 BYTE   W24
 BYTE   N05
 BYTE   W12
 BYTE   N03
 BYTE   W07
 BYTE   N02  Cs4  v044
 BYTE   W17
 BYTE   N03  Fn4  v127
 BYTE   W07
 BYTE   N02  Dn4
 BYTE   W05
 BYTE   PEND 
//  #05 //018   ----------------------------------------
Label_01592533:
 BYTE   N05  Fn4  v127
 BYTE   W12
 BYTE   N03  Dn4
 BYTE   W07
 BYTE   N05  Fn4
 BYTE   W11
 BYTE   N02  Gn4
 BYTE   W06
 BYTE   N02
 BYTE   W02
 BYTE   N07  An4
 BYTE   W56
 BYTE   W02
 BYTE   PEND 
//  #05 //019   ----------------------------------------
 BYTE   PATT
  POIN2 Label_0159251C
//  #05 //020   ----------------------------------------
Label_0159254C:
 BYTE   N05  Fn4  v127
 BYTE   W12
 BYTE   N03  Dn4
 BYTE   W07
 BYTE   N05  Fn4
 BYTE   W11
 BYTE   Gn4
 BYTE   W12
 BYTE   N08  Fn4
 BYTE   W54
 BYTE   PEND 
//  #05 //021   ----------------------------------------
 BYTE   PATT
  POIN2 Label_0159251C
//  #05 //022   ----------------------------------------
Label_01592561:
 BYTE   N05  Fn4  v127
 BYTE   W12
 BYTE   N03  Dn4
 BYTE   W07
 BYTE   N05  Fn4
 BYTE   W11
 BYTE   N02  Cn5
 BYTE   W06
 BYTE   Gn4
 BYTE   W02
 BYTE   N10  An4
 BYTE   W56
 BYTE   W02
 BYTE   PEND 
//  #05 //023   ----------------------------------------
 BYTE   PATT
  POIN2 Label_0159251C
//  #05 //024   ----------------------------------------
Label_0159257A:
 BYTE   N05  Fn4  v127
 BYTE   W12
 BYTE   N03  Dn4
 BYTE   W07
 BYTE   N05  Fn4
 BYTE   W11
 BYTE   Gn4
 BYTE   W12
 BYTE   N08  Fn4
 BYTE   W30
 BYTE   N02  Gs4
 BYTE   W02
 BYTE   N09  An4
 BYTE   W10
 BYTE   N11  As4
 BYTE   W12
 BYTE   PEND 
//  #05 //025   ----------------------------------------
 BYTE   PATT
  POIN2 Label_0159249F
//  #05 //026   ----------------------------------------
 BYTE   PATT
  POIN2 Label_015924BC
//  #05 //027   ----------------------------------------
 BYTE   PATT
  POIN2 Label_015924D2
//  #05 //028   ----------------------------------------
 BYTE   PATT
  POIN2 Label_015924EC
//  #05 //029   ----------------------------------------
 BYTE   PATT
  POIN2 Label_0159249F
//  #05 //030   ----------------------------------------
 BYTE   PATT
  POIN2 Label_015924BC
//  #05 //031   ----------------------------------------
 BYTE   PATT
  POIN2 Label_015924D2
//  #05 //032   ----------------------------------------
 BYTE   W06
 BYTE   N05  Fn4  v127
 BYTE   W06
 BYTE   N11
 BYTE   W48
 BYTE   Cn4
 BYTE   W12
 BYTE   N02  Fn4
 BYTE   W02
 BYTE   N09  Gn4
 BYTE   W10
 BYTE   N11  Fn4
 BYTE   W12
//  #05 //033   ----------------------------------------
 BYTE   W96
//  #05 //034   ----------------------------------------
 BYTE   W96
//  #05 //035   ----------------------------------------
 BYTE   W96
//  #05 //036   ----------------------------------------
 BYTE   W96
//  #05 //037   ----------------------------------------
 BYTE   W96
//  #05 //038   ----------------------------------------
 BYTE   W96
//  #05 //039   ----------------------------------------
 BYTE   W96
//  #05 //040   ----------------------------------------
 BYTE   W96
//  #05 //041   ----------------------------------------
 BYTE   PATT
  POIN2 Label_0159251C
//  #05 //042   ----------------------------------------
 BYTE   PATT
  POIN2 Label_01592533
//  #05 //043   ----------------------------------------
 BYTE   PATT
  POIN2 Label_0159251C
//  #05 //044   ----------------------------------------
 BYTE   PATT
  POIN2 Label_0159254C
//  #05 //045   ----------------------------------------
 BYTE   PATT
  POIN2 Label_0159251C
//  #05 //046   ----------------------------------------
 BYTE   PATT
  POIN2 Label_01592561
//  #05 //047   ----------------------------------------
 BYTE   PATT
  POIN2 Label_0159251C
//  #05 //048   ----------------------------------------
 BYTE   PATT
  POIN2 Label_0159257A
//  #05 //049   ----------------------------------------
 BYTE   PATT
  POIN2 Label_0159249F
//  #05 //050   ----------------------------------------
 BYTE   PATT
  POIN2 Label_015924BC
//  #05 //051   ----------------------------------------
 BYTE   PATT
  POIN2 Label_015924D2
//  #05 //052   ----------------------------------------
 BYTE   PATT
  POIN2 Label_015924EC
//  #05 //053   ----------------------------------------
 BYTE   PATT
  POIN2 Label_0159249F
//  #05 //054   ----------------------------------------
 BYTE   PATT
  POIN2 Label_015924BC
//  #05 //055   ----------------------------------------
 BYTE   PATT
  POIN2 Label_015924D2
//  #05 //056   ----------------------------------------
 BYTE   PATT
  POIN2 Label_0159250C
//  #05 //057   ----------------------------------------
 BYTE   W96
//  #05 //058   ----------------------------------------
 BYTE   W96
//  #05 //059   ----------------------------------------
 BYTE   W96
//  #05 //060   ----------------------------------------
 BYTE   W96
//  #05 //061   ----------------------------------------
 BYTE   W96
//  #05 //062   ----------------------------------------
 BYTE   W96
//  #05 //063   ----------------------------------------
 BYTE   W96
//  #05 //064   ----------------------------------------
 BYTE   W96
//  #05 //065   ----------------------------------------
 BYTE   W10
 BYTE   GoTo
  POIN2 Label_0159251C
//  #05 //066   ----------------------------------------
 BYTE   W84
 BYTE   W02
 BYTE   W96
//  #05 //067   ----------------------------------------
 BYTE   W96
//  #05 //068   ----------------------------------------
 BYTE   W96
//  #05 //069   ----------------------------------------
 BYTE   W96
//  #05 //070   ----------------------------------------
 BYTE   W96
//  #05 //071   ----------------------------------------
 BYTE   W96
//  #05 //072   ----------------------------------------
 BYTE   W96
//  #05 //073   ----------------------------------------
 BYTE   W96
//  #05 //074   ----------------------------------------
 BYTE   W96
//  #05 //075   ----------------------------------------
 BYTE   W96
//  #05 //076   ----------------------------------------
 BYTE   W96
//  #05 //077   ----------------------------------------
 BYTE   W96
//  #05 //078   ----------------------------------------
 BYTE   W96
//  #05 //079   ----------------------------------------
 BYTE   W96
//  #05 //080   ----------------------------------------
 BYTE   W96
//  #05 //081   ----------------------------------------
 BYTE   W96
//  #05 //082   ----------------------------------------
 BYTE   W96
//  #05 //083   ----------------------------------------
 BYTE   W96
//  #05 //084   ----------------------------------------
 BYTE   W96
//  #05 //085   ----------------------------------------
 BYTE   W96
 BYTE   FINE

//**************** Track 6 (Midi-Chn.5) ****************//

_223AM_006:
//  #06 //000   ----------------------------------------
 BYTE   KEYSH   _223AM_key+0
 BYTE   VOICE   124
 BYTE   MODT 0
 BYTE   LFOS 44
 BYTE   VOL   53*_223AM_mvl/mxv
 BYTE   PAN   c_v+0
 BYTE   VOL   53*_223AM_mvl/mxv
 BYTE   PAN   c_v+0
 BYTE   VOL   53*_223AM_mvl/mxv
 BYTE   PAN   c_v+0
 BYTE   VOL   53*_223AM_mvl/mxv
 BYTE   PAN   c_v+0
 BYTE   VOL   53*_223AM_mvl/mxv
 BYTE   PAN   c_v+0
 BYTE   VOL   53*_223AM_mvl/mxv
 BYTE   PAN   c_v+0
 BYTE   VOL   53*_223AM_mvl/mxv
 BYTE   PAN   c_v+0
 BYTE   W96
//  #06 //001   ----------------------------------------
Label_0159266D:
 BYTE   W24
 BYTE   N11  En0  v127
 BYTE   N11  En2
 BYTE   W48
 BYTE   En0
 BYTE   N11  En2
 BYTE   W24
 BYTE   PEND 
//  #06 //002   ----------------------------------------
 BYTE   PATT
  POIN2 Label_0159266D
//  #06 //003   ----------------------------------------
 BYTE   PATT
  POIN2 Label_0159266D
//  #06 //004   ----------------------------------------
 BYTE   W72
 BYTE   N01  En4  v060
 BYTE   W02
 BYTE   N01
 BYTE   W02
 BYTE   N01
 BYTE   W02
 BYTE   N05
 BYTE   W06
 BYTE   N01
 BYTE   W02
 BYTE   N01
 BYTE   W02
 BYTE   N01
 BYTE   W02
 BYTE   N05
 BYTE   W06
//  #06 //005   ----------------------------------------
Label_01592696:
 BYTE   N23  Cn1  v060
 BYTE   N11  En4
 BYTE   W12
 BYTE   N11
 BYTE   W12
 BYTE   En0  v127
 BYTE   N23  Ds1  v104
 BYTE   N11  En2  v127
 BYTE   N11  En4  v060
 BYTE   W12
 BYTE   N11
 BYTE   W12
 BYTE   Cn1
 BYTE   N11  En4
 BYTE   W12
 BYTE   Cn1
 BYTE   N11  En4
 BYTE   W12
 BYTE   En0  v127
 BYTE   N23  Ds1  v104
 BYTE   N11  En2  v127
 BYTE   N11  En4  v060
 BYTE   W08
 BYTE   N07  Cn1
 BYTE   W04
 BYTE   N11  En4
 BYTE   W12
 BYTE   PEND 
//  #06 //006   ----------------------------------------
 BYTE   N23  Cn1
 BYTE   N11  En4
 BYTE   W12
 BYTE   N11
 BYTE   W12
 BYTE   En0  v127
 BYTE   N23  Ds1  v104
 BYTE   N11  En2  v127
 BYTE   N11  En4  v060
 BYTE   W12
 BYTE   N11
 BYTE   W12
 BYTE   Cn1
 BYTE   N11  En4
 BYTE   W12
 BYTE   Cn1
 BYTE   N11  Ds2
 BYTE   W12
 BYTE   En0  v127
 BYTE   N23  Ds1  v104
 BYTE   N11  En2  v127
 BYTE   N11  En4  v060
 BYTE   W08
 BYTE   N07  Cn1
 BYTE   W04
 BYTE   N11  Fn4
 BYTE   W12
//  #06 //007   ----------------------------------------
 BYTE   N23  Cn1
 BYTE   N11  En4
 BYTE   W12
 BYTE   N11
 BYTE   W12
 BYTE   En0  v127
 BYTE   N23  Ds1  v104
 BYTE   N11  En2  v127
 BYTE   N11  En4  v060
 BYTE   W12
 BYTE   N11
 BYTE   W12
 BYTE   Cn1
 BYTE   N11  En4
 BYTE   W12
 BYTE   Cn1
 BYTE   N11  Ds2
 BYTE   W12
 BYTE   En0  v127
 BYTE   N23  Ds1  v104
 BYTE   N11  En2  v127
 BYTE   N11  En4  v060
 BYTE   W08
 BYTE   N07  Cn1
 BYTE   W04
 BYTE   N11  En4
 BYTE   W12
//  #06 //008   ----------------------------------------
 BYTE   N23  Cn1
 BYTE   N11  En4
 BYTE   W12
 BYTE   N11
 BYTE   W12
 BYTE   Ds1  v104
 BYTE   N11  En4  v060
 BYTE   W12
 BYTE   N11
 BYTE   W08
 BYTE   N03  Ds1  v104
 BYTE   W04
 BYTE   N23
 BYTE   N11  En4  v060
 BYTE   W12
 BYTE   Dn1
 BYTE   W12
 BYTE   N23  Ds1  v104
 BYTE   N09  En4  v060
 BYTE   W09
 BYTE   N04
 BYTE   W05
 BYTE   N09
 BYTE   W10
//  #06 //009   ----------------------------------------
Label_0159274A:
 BYTE   N23  Cn1  v060
 BYTE   N11  En4
 BYTE   W12
 BYTE   N11
 BYTE   W12
 BYTE   En0  v127
 BYTE   N23  Ds1  v104
 BYTE   N11  En2  v127
 BYTE   N11  En4  v060
 BYTE   W12
 BYTE   N11
 BYTE   W12
 BYTE   Cn1
 BYTE   N11  En4
 BYTE   W12
 BYTE   Cn1
 BYTE   N11  En4
 BYTE   W12
 BYTE   En0  v127
 BYTE   N23  Ds1  v104
 BYTE   N11  En2  v127
 BYTE   N11  En4  v060
 BYTE   W08
 BYTE   N07  Cn1
 BYTE   W04
 BYTE   N11  En4
 BYTE   W12
 BYTE   PEND 
//  #06 //010   ----------------------------------------
Label_0159277B:
 BYTE   N23  Cn1  v060
 BYTE   N11  En4
 BYTE   W12
 BYTE   N11
 BYTE   W12
 BYTE   En0  v127
 BYTE   N23  Ds1  v104
 BYTE   N11  En2  v127
 BYTE   N11  En4  v060
 BYTE   W12
 BYTE   N11
 BYTE   W12
 BYTE   Cn1
 BYTE   N11  En4
 BYTE   W12
 BYTE   Cn1
 BYTE   N11  Fn4
 BYTE   W12
 BYTE   En0  v127
 BYTE   N23  Ds1  v104
 BYTE   N11  En2  v127
 BYTE   N11  En4  v060
 BYTE   W08
 BYTE   N07  Cn1
 BYTE   W04
 BYTE   En4
 BYTE   W07
 BYTE   N04
 BYTE   W05
 BYTE   PEND 
//  #06 //011   ----------------------------------------
Label_015927AD:
 BYTE   N23  Cn1  v060
 BYTE   N11  En4
 BYTE   W12
 BYTE   N11
 BYTE   W12
 BYTE   En0  v127
 BYTE   N23  Ds1  v104
 BYTE   N11  En2  v127
 BYTE   N11  En4  v060
 BYTE   W12
 BYTE   N11
 BYTE   W12
 BYTE   Cn1
 BYTE   N11  En4
 BYTE   W12
 BYTE   Cn1
 BYTE   N11  Fn4
 BYTE   W12
 BYTE   En0  v127
 BYTE   N23  Ds1  v104
 BYTE   N11  En2  v127
 BYTE   N11  En4  v060
 BYTE   W08
 BYTE   N07  Cn1
 BYTE   W04
 BYTE   N11  En4
 BYTE   W12
 BYTE   PEND 
//  #06 //012   ----------------------------------------
Label_015927DE:
 BYTE   N23  Cn1  v060
 BYTE   N11  En4
 BYTE   W12
 BYTE   N11
 BYTE   W12
 BYTE   Ds1  v104
 BYTE   N11  En4  v060
 BYTE   W12
 BYTE   N11
 BYTE   W08
 BYTE   N03  Ds1  v104
 BYTE   W04
 BYTE   N23
 BYTE   N11  En4  v060
 BYTE   W12
 BYTE   Dn1
 BYTE   N11  Fn4
 BYTE   W12
 BYTE   N23  Ds1  v104
 BYTE   N09  En4  v060
 BYTE   W09
 BYTE   N04
 BYTE   W05
 BYTE   N09
 BYTE   W10
 BYTE   PEND 
//  #06 //013   ----------------------------------------
 BYTE   PATT
  POIN2 Label_0159274A
//  #06 //014   ----------------------------------------
 BYTE   PATT
  POIN2 Label_0159277B
//  #06 //015   ----------------------------------------
 BYTE   PATT
  POIN2 Label_015927AD
//  #06 //016   ----------------------------------------
 BYTE   PATT
  POIN2 Label_015927DE
//  #06 //017   ----------------------------------------
Label_0159281B:
//  #06 //018   ----------------------------------------
 BYTE   PATT
  POIN2 Label_01592696
//  #06 //019   ----------------------------------------
Label_01592820:
 BYTE   N23  Cn1  v060
 BYTE   N11  En4
 BYTE   W12
 BYTE   N11
 BYTE   W12
 BYTE   En0  v127
 BYTE   N23  Ds1  v104
 BYTE   N11  En2  v127
 BYTE   N11  En4  v060
 BYTE   W12
 BYTE   N11
 BYTE   W12
 BYTE   Cn1
 BYTE   N11  En4
 BYTE   W12
 BYTE   Cn1
 BYTE   N11  Fn4
 BYTE   W12
 BYTE   En0  v127
 BYTE   N23  Ds1  v104
 BYTE   N11  En2  v127
 BYTE   N11  En4  v060
 BYTE   W08
 BYTE   N07  Cn1
 BYTE   W05
 BYTE   N04  En4
 BYTE   W05
 BYTE   N05
 BYTE   W06
 BYTE   PEND 
//  #06 //020   ----------------------------------------
Label_01592853:
 BYTE   N23  Cn1  v060
 BYTE   N11  En4
 BYTE   W12
 BYTE   N11
 BYTE   W12
 BYTE   En0  v127
 BYTE   N23  Ds1  v104
 BYTE   N11  En2  v127
 BYTE   N11  En4  v060
 BYTE   W12
 BYTE   N11
 BYTE   W12
 BYTE   Cn1
 BYTE   N11  En4
 BYTE   W12
 BYTE   Cn1
 BYTE   N11  Fn4
 BYTE   W12
 BYTE   En0  v127
 BYTE   N23  Ds1  v104
 BYTE   N11  En2  v127
 BYTE   N11  En4  v060
 BYTE   W08
 BYTE   N07  Cn1
 BYTE   W04
 BYTE   N11  En4
 BYTE   W12
 BYTE   PEND 
//  #06 //021   ----------------------------------------
 BYTE   N23  Cn1
 BYTE   N11  En4
 BYTE   W12
 BYTE   N11
 BYTE   W12
 BYTE   Ds1  v104
 BYTE   N11  En4  v060
 BYTE   W12
 BYTE   N11
 BYTE   W08
 BYTE   N03  Ds1  v104
 BYTE   W04
 BYTE   N23
 BYTE   N11  En4  v060
 BYTE   W12
 BYTE   Dn1
 BYTE   N11  Fn4
 BYTE   W12
 BYTE   N23  Ds1  v104
 BYTE   N09  En4  v060
 BYTE   W09
 BYTE   N04
 BYTE   W05
 BYTE   N09
 BYTE   W10
//  #06 //022   ----------------------------------------
 BYTE   PATT
  POIN2 Label_01592696
//  #06 //023   ----------------------------------------
 BYTE   PATT
  POIN2 Label_01592820
//  #06 //024   ----------------------------------------
 BYTE   PATT
  POIN2 Label_01592853
//  #06 //025   ----------------------------------------
 BYTE   N23  Cn1  v060
 BYTE   N11  En4
 BYTE   W12
 BYTE   N11
 BYTE   W12
 BYTE   Ds1  v104
 BYTE   N11  En4  v060
 BYTE   W12
 BYTE   N11
 BYTE   W08
 BYTE   N03  Ds1  v104
 BYTE   W04
 BYTE   N23
 BYTE   N11  En4  v060
 BYTE   W12
 BYTE   Dn1
 BYTE   N11  Fn4
 BYTE   W12
 BYTE   N23  Ds1  v104
 BYTE   N09  En4  v060
 BYTE   W09
 BYTE   N04
 BYTE   W05
 BYTE   N09
 BYTE   W10
//  #06 //026   ----------------------------------------
Label_015928E2:
 BYTE   N23  Cn1  v060
 BYTE   N11  En4
 BYTE   W12
 BYTE   N11
 BYTE   W12
 BYTE   En0  v127
 BYTE   N23  Ds1  v104
 BYTE   N11  En2  v127
 BYTE   N11  En4  v060
 BYTE   W12
 BYTE   N11
 BYTE   W12
 BYTE   Cn1
 BYTE   N11  En4
 BYTE   W12
 BYTE   Cn1
 BYTE   N11  En4
 BYTE   W12
 BYTE   En0  v127
 BYTE   N23  Ds1  v104
 BYTE   N11  En2  v127
 BYTE   N11  En4  v060
 BYTE   W08
 BYTE   N07  Cn1
 BYTE   W04
 BYTE   N11  En4
 BYTE   W12
 BYTE   PEND 
//  #06 //027   ----------------------------------------
Label_01592913:
 BYTE   N23  Cn1  v060
 BYTE   N11  En4
 BYTE   W12
 BYTE   N11
 BYTE   W12
 BYTE   En0  v127
 BYTE   N23  Ds1  v104
 BYTE   N11  En2  v127
 BYTE   N11  En4  v060
 BYTE   W12
 BYTE   N11
 BYTE   W12
 BYTE   Cn1
 BYTE   N11  En4
 BYTE   W12
 BYTE   Cn1
 BYTE   N11  Fn4
 BYTE   W12
 BYTE   En0  v127
 BYTE   N23  Ds1  v104
 BYTE   N11  En2  v127
 BYTE   N11  En4  v060
 BYTE   W08
 BYTE   N07  Cn1
 BYTE   W05
 BYTE   N04  En4
 BYTE   W05
 BYTE   N05
 BYTE   W06
 BYTE   PEND 
//  #06 //028   ----------------------------------------
Label_01592946:
 BYTE   N23  Cn1  v060
 BYTE   N11  En4
 BYTE   W12
 BYTE   N11
 BYTE   W12
 BYTE   En0  v127
 BYTE   N23  Ds1  v104
 BYTE   N11  En2  v127
 BYTE   N11  En4  v060
 BYTE   W12
 BYTE   N11
 BYTE   W12
 BYTE   Cn1
 BYTE   N11  En4
 BYTE   W12
 BYTE   Cn1
 BYTE   N11  Fn4
 BYTE   W12
 BYTE   En0  v127
 BYTE   N23  Ds1  v104
 BYTE   N11  En2  v127
 BYTE   N11  En4  v060
 BYTE   W08
 BYTE   N07  Cn1
 BYTE   W04
 BYTE   N11  En4
 BYTE   W12
 BYTE   PEND 
//  #06 //029   ----------------------------------------
Label_01592977:
 BYTE   N23  Cn1  v060
 BYTE   N11  En4
 BYTE   W12
 BYTE   N11
 BYTE   W12
 BYTE   Ds1  v104
 BYTE   N11  En4  v060
 BYTE   W12
 BYTE   N11
 BYTE   W08
 BYTE   N03  Ds1  v104
 BYTE   W04
 BYTE   N23
 BYTE   N11  En4  v060
 BYTE   W12
 BYTE   Dn1
 BYTE   N11  Fn4
 BYTE   W12
 BYTE   N23  Ds1  v104
 BYTE   N11  En4  v060
 BYTE   W12
 BYTE   N07
 BYTE   W07
 BYTE   N04
 BYTE   W05
 BYTE   PEND 
//  #06 //030   ----------------------------------------
 BYTE   PATT
  POIN2 Label_015928E2
//  #06 //031   ----------------------------------------
 BYTE   PATT
  POIN2 Label_01592913
//  #06 //032   ----------------------------------------
 BYTE   PATT
  POIN2 Label_01592946
//  #06 //033   ----------------------------------------
 BYTE   PATT
  POIN2 Label_01592977
//  #06 //034   ----------------------------------------
 BYTE   PATT
  POIN2 Label_0159266D
//  #06 //035   ----------------------------------------
 BYTE   PATT
  POIN2 Label_0159266D
//  #06 //036   ----------------------------------------
 BYTE   PATT
  POIN2 Label_0159266D
//  #06 //037   ----------------------------------------
 BYTE   W96
//  #06 //038   ----------------------------------------
 BYTE   N11  En4  v060
 BYTE   W12
 BYTE   N11
 BYTE   W12
 BYTE   En0  v127
 BYTE   N11  En2
 BYTE   N23  Fs2
 BYTE   N11  Gn4  v060
 BYTE   W12
 BYTE   En4
 BYTE   W12
 BYTE   N11
 BYTE   W12
 BYTE   N11
 BYTE   W12
 BYTE   En0  v127
 BYTE   N11  En2
 BYTE   N23  Fs2
 BYTE   N11  Gn4  v060
 BYTE   W12
 BYTE   En4
 BYTE   W12
//  #06 //039   ----------------------------------------
 BYTE   N11
 BYTE   W12
 BYTE   N11
 BYTE   W12
 BYTE   En0  v127
 BYTE   N11  En2
 BYTE   N23  Fs2
 BYTE   N11  Gn4  v060
 BYTE   W12
 BYTE   En4
 BYTE   W12
 BYTE   N11
 BYTE   W12
 BYTE   Fn4
 BYTE   W12
 BYTE   En0  v127
 BYTE   N11  En2
 BYTE   N23  Fs2
 BYTE   N11  Gn4  v060
 BYTE   W12
 BYTE   En4
 BYTE   W12
//  #06 //040   ----------------------------------------
 BYTE   N11
 BYTE   W12
 BYTE   N11
 BYTE   W12
 BYTE   En0  v127
 BYTE   N11  En2
 BYTE   N23  Fs2
 BYTE   N11  Gn4  v060
 BYTE   W12
 BYTE   En4
 BYTE   W12
 BYTE   N11
 BYTE   W12
 BYTE   Fn4
 BYTE   W12
 BYTE   En0  v127
 BYTE   N11  En2
 BYTE   N23  Fs2
 BYTE   N11  Gn4  v060
 BYTE   W12
 BYTE   En4
 BYTE   W12
//  #06 //041   ----------------------------------------
 BYTE   N11
 BYTE   W12
 BYTE   N11
 BYTE   W12
 BYTE   N23  Fs2  v127
 BYTE   N11  Gn4  v060
 BYTE   W12
 BYTE   En4
 BYTE   W12
 BYTE   N11
 BYTE   W12
 BYTE   Fn4
 BYTE   W12
 BYTE   Dn2  v127
 BYTE   N23  Fs2  v060
 BYTE   N11  Gn4
 BYTE   W12
 BYTE   Dn2  v127
 BYTE   N11  En4  v060
 BYTE   W12
//  #06 //042   ----------------------------------------
 BYTE   N23  Cn1
 BYTE   N11  En4
 BYTE   W12
 BYTE   N11
 BYTE   W12
 BYTE   N23  Dn1
 BYTE   N23  Dn2  v127
 BYTE   N11  En4  v060
 BYTE   W12
 BYTE   N11
 BYTE   W06
 BYTE   N02  Bn0
 BYTE   W06
 BYTE   N11  Cn1
 BYTE   N11  En4
 BYTE   W12
 BYTE   Cn1
 BYTE   N11  En4
 BYTE   W12
 BYTE   N23  Dn1
 BYTE   N23  Dn2  v127
 BYTE   N11  En4  v060
 BYTE   W08
 BYTE   N07  Cn1
 BYTE   W04
 BYTE   N11  En4
 BYTE   W12
//  #06 //043   ----------------------------------------
 BYTE   N23  Cn1
 BYTE   N11  En4
 BYTE   W12
 BYTE   N11
 BYTE   W12
 BYTE   N23  Dn1
 BYTE   N23  Dn2  v127
 BYTE   N11  En4  v060
 BYTE   W06
 BYTE   N02  Bn0
 BYTE   W06
 BYTE   N11  En4
 BYTE   W06
 BYTE   N02  Bn0
 BYTE   W06
 BYTE   N11  Cn1
 BYTE   N11  En4
 BYTE   W12
 BYTE   Cn1
 BYTE   N11  Fn4
 BYTE   W12
 BYTE   N23  Dn1
 BYTE   N23  Dn2  v127
 BYTE   N11  En4  v060
 BYTE   W08
 BYTE   N07  Cn1
 BYTE   W04
 BYTE   N02  En4
 BYTE   W03
 BYTE   N02
 BYTE   W09
//  #06 //044   ----------------------------------------
 BYTE   N23  Cn1
 BYTE   N11  En4
 BYTE   W12
 BYTE   N11
 BYTE   W12
 BYTE   N23  Dn1
 BYTE   N23  Dn2  v127
 BYTE   N11  En4  v060
 BYTE   W12
 BYTE   N11
 BYTE   W06
 BYTE   N02  Bn0
 BYTE   W06
 BYTE   N23  Cn1
 BYTE   N11  En4
 BYTE   W12
 BYTE   Fn4
 BYTE   W12
 BYTE   N23  Dn1
 BYTE   N23  Dn2  v127
 BYTE   N11  En4  v060
 BYTE   W12
 BYTE   N11
 BYTE   W12
//  #06 //045   ----------------------------------------
Label_01592ACC:
 BYTE   N11  Cn1  v060
 BYTE   N11  En4
 BYTE   W12
 BYTE   Bn0
 BYTE   N11  En4
 BYTE   W12
 BYTE   N23  Cn1
 BYTE   N11  Dn1
 BYTE   N11  Dn2  v127
 BYTE   N11  En4  v060
 BYTE   W12
 BYTE   N11
 BYTE   W08
 BYTE   N03  Dn1
 BYTE   N03  Dn2  v127
 BYTE   W04
 BYTE   N11  Bn0  v060
 BYTE   N12  Dn1
 BYTE   N23  Dn2  v127
 BYTE   N11  En4  v060
 BYTE   W12
 BYTE   Cn1
 BYTE   N11  Dn1
 BYTE   N11  Fn4
 BYTE   W12
 BYTE   N23  Cn1
 BYTE   N23  Dn1
 BYTE   N23  Dn2  v127
 BYTE   W24
 BYTE   PEND 
//  #06 //046   ----------------------------------------
 BYTE   Cn1  v060
 BYTE   N11  En4
 BYTE   W12
 BYTE   N11
 BYTE   W12
 BYTE   En0  v127
 BYTE   N23  Dn1  v060
 BYTE   N23  Dn2  v127
 BYTE   N11  En2
 BYTE   N11  En4  v060
 BYTE   W12
 BYTE   N11
 BYTE   W06
 BYTE   N02  Bn0
 BYTE   W06
 BYTE   N11  Cn1
 BYTE   N11  En4
 BYTE   W12
 BYTE   Cn1
 BYTE   N11  En4
 BYTE   W12
 BYTE   En0  v127
 BYTE   N23  Dn1  v060
 BYTE   N23  Dn2  v127
 BYTE   N11  En2
 BYTE   N11  En4  v060
 BYTE   W08
 BYTE   N07  Cn1
 BYTE   W04
 BYTE   N11  En4
 BYTE   W12
//  #06 //047   ----------------------------------------
 BYTE   N23  Cn1
 BYTE   N11  En4
 BYTE   W12
 BYTE   N11
 BYTE   W12
 BYTE   En0  v127
 BYTE   N23  Dn1  v060
 BYTE   N23  Dn2  v127
 BYTE   N11  En2
 BYTE   N11  En4  v060
 BYTE   W06
 BYTE   N02  Bn0
 BYTE   W06
 BYTE   N11  En4
 BYTE   W06
 BYTE   N02  Bn0
 BYTE   W06
 BYTE   N11  Cn1
 BYTE   N11  En4
 BYTE   W12
 BYTE   Cn1
 BYTE   N11  Fn4
 BYTE   W12
 BYTE   En0  v127
 BYTE   N23  Dn1  v060
 BYTE   N23  Dn2  v127
 BYTE   N11  En2
 BYTE   N11  En4  v060
 BYTE   W08
 BYTE   N07  Cn1
 BYTE   W04
 BYTE   N02  En4
 BYTE   W03
 BYTE   N02
 BYTE   W09
//  #06 //048   ----------------------------------------
 BYTE   N23  Cn1
 BYTE   N11  En4
 BYTE   W12
 BYTE   N11
 BYTE   W12
 BYTE   En0  v127
 BYTE   N23  Dn1  v060
 BYTE   N23  Dn2  v127
 BYTE   N11  En2
 BYTE   N11  En4  v060
 BYTE   W12
 BYTE   N11
 BYTE   W06
 BYTE   N02  Bn0
 BYTE   W06
 BYTE   N23  Cn1
 BYTE   N11  En4
 BYTE   W12
 BYTE   Fn4
 BYTE   W12
 BYTE   En0  v127
 BYTE   N23  Dn1  v060
 BYTE   N23  Dn2  v127
 BYTE   N11  En2
 BYTE   N11  En4  v060
 BYTE   W12
 BYTE   N11
 BYTE   W12
//  #06 //049   ----------------------------------------
 BYTE   PATT
  POIN2 Label_01592ACC
//  #06 //050   ----------------------------------------
 BYTE   PATT
  POIN2 Label_015928E2
//  #06 //051   ----------------------------------------
 BYTE   PATT
  POIN2 Label_01592913
//  #06 //052   ----------------------------------------
 BYTE   PATT
  POIN2 Label_01592946
//  #06 //053   ----------------------------------------
 BYTE   PATT
  POIN2 Label_01592977
//  #06 //054   ----------------------------------------
 BYTE   PATT
  POIN2 Label_015928E2
//  #06 //055   ----------------------------------------
 BYTE   PATT
  POIN2 Label_01592913
//  #06 //056   ----------------------------------------
 BYTE   PATT
  POIN2 Label_01592946
//  #06 //057   ----------------------------------------
 BYTE   N23  Cn1  v060
 BYTE   N11  En4
 BYTE   W12
 BYTE   N11
 BYTE   W12
 BYTE   Ds1  v104
 BYTE   N11  En4  v060
 BYTE   W12
 BYTE   N11
 BYTE   W08
 BYTE   N03  Ds1  v104
 BYTE   W04
 BYTE   N23
 BYTE   N11  En4  v060
 BYTE   W12
 BYTE   Dn1
 BYTE   N11  Fn4
 BYTE   W12
 BYTE   N23  Ds1  v104
 BYTE   N11  En4  v060
 BYTE   W12
 BYTE   N07
 BYTE   W07
 BYTE   N04
 BYTE   W05
//  #06 //058   ----------------------------------------
 BYTE   PATT
  POIN2 Label_0159274A
//  #06 //059   ----------------------------------------
 BYTE   PATT
  POIN2 Label_0159277B
//  #06 //060   ----------------------------------------
 BYTE   PATT
  POIN2 Label_015927AD
//  #06 //061   ----------------------------------------
 BYTE   PATT
  POIN2 Label_015927DE
//  #06 //062   ----------------------------------------
 BYTE   PATT
  POIN2 Label_0159274A
//  #06 //063   ----------------------------------------
 BYTE   PATT
  POIN2 Label_0159277B
//  #06 //064   ----------------------------------------
 BYTE   PATT
  POIN2 Label_015927AD
//  #06 //065   ----------------------------------------
 BYTE   PATT
  POIN2 Label_015927DE
//  #06 //066   ----------------------------------------
 BYTE   W10
 BYTE   GoTo
  POIN2 Label_0159281B
//  #06 //067   ----------------------------------------
 BYTE   W84
 BYTE   W02
 BYTE   W96
//  #06 //068   ----------------------------------------
 BYTE   W96
//  #06 //069   ----------------------------------------
 BYTE   W96
//  #06 //070   ----------------------------------------
 BYTE   W96
//  #06 //071   ----------------------------------------
 BYTE   W96
//  #06 //072   ----------------------------------------
 BYTE   W96
//  #06 //073   ----------------------------------------
 BYTE   W96
//  #06 //074   ----------------------------------------
 BYTE   W96
//  #06 //075   ----------------------------------------
 BYTE   W96
//  #06 //076   ----------------------------------------
 BYTE   W96
//  #06 //077   ----------------------------------------
 BYTE   W96
//  #06 //078   ----------------------------------------
 BYTE   W96
//  #06 //079   ----------------------------------------
 BYTE   W96
//  #06 //080   ----------------------------------------
 BYTE   W96
//  #06 //081   ----------------------------------------
 BYTE   W96
//  #06 //082   ----------------------------------------
 BYTE   W96
//  #06 //083   ----------------------------------------
 BYTE   W96
//  #06 //084   ----------------------------------------
 BYTE   W96
//  #06 //085   ----------------------------------------
 BYTE   W96
//  #06 //086   ----------------------------------------
 BYTE   W96
 BYTE   FINE

//**************** Track 7 (Midi-Chn.6) ****************//

_223AM_007:
//  #07 //000   ----------------------------------------
 BYTE   KEYSH   _223AM_key+0
 BYTE   VOICE   33
 BYTE   MODT 0
 BYTE   LFOS 44
 BYTE   VOL   53*_223AM_mvl/mxv
 BYTE   PAN   c_v+0
 BYTE   W96
//  #07 //001   ----------------------------------------
 BYTE   W96
//  #07 //002   ----------------------------------------
 BYTE   W96
//  #07 //003   ----------------------------------------
 BYTE   W96
//  #07 //004   ----------------------------------------
 BYTE   W96
//  #07 //005   ----------------------------------------
 BYTE   W96
//  #07 //006   ----------------------------------------
 BYTE   W96
//  #07 //007   ----------------------------------------
 BYTE   W96
//  #07 //008   ----------------------------------------
 BYTE   W96
//  #07 //009   ----------------------------------------
 BYTE   W96
//  #07 //010   ----------------------------------------
 BYTE   W96
//  #07 //011   ----------------------------------------
 BYTE   W96
//  #07 //012   ----------------------------------------
 BYTE   W96
//  #07 //013   ----------------------------------------
 BYTE   W96
//  #07 //014   ----------------------------------------
 BYTE   W96
//  #07 //015   ----------------------------------------
 BYTE   W96
//  #07 //016   ----------------------------------------
 BYTE   W96
//  #07 //017   ----------------------------------------
Label_55929D:
 BYTE   W96
//  #07 //018   ----------------------------------------
 BYTE   W96
//  #07 //019   ----------------------------------------
 BYTE   W96
//  #07 //020   ----------------------------------------
 BYTE   W96
//  #07 //021   ----------------------------------------
 BYTE   W96
//  #07 //022   ----------------------------------------
 BYTE   W96
//  #07 //023   ----------------------------------------
 BYTE   W96
//  #07 //024   ----------------------------------------
 BYTE   W96
//  #07 //025   ----------------------------------------
 BYTE   W96
//  #07 //026   ----------------------------------------
 BYTE   W96
//  #07 //027   ----------------------------------------
 BYTE   W96
//  #07 //028   ----------------------------------------
 BYTE   W96
//  #07 //029   ----------------------------------------
 BYTE   W96
//  #07 //030   ----------------------------------------
 BYTE   W96
//  #07 //031   ----------------------------------------
 BYTE   W96
//  #07 //032   ----------------------------------------
 BYTE   W96
//  #07 //033   ----------------------------------------
 BYTE   W96
//  #07 //034   ----------------------------------------
 BYTE   W96
//  #07 //035   ----------------------------------------
 BYTE   W96
//  #07 //036   ----------------------------------------
 BYTE   W96
//  #07 //037   ----------------------------------------
 BYTE   W96
//  #07 //038   ----------------------------------------
 BYTE   W96
//  #07 //039   ----------------------------------------
 BYTE   W96
//  #07 //040   ----------------------------------------
 BYTE   W96
//  #07 //041   ----------------------------------------
Label_5592B5:
 BYTE   N16  As0  v036
 BYTE   W42
 BYTE   N03
 BYTE   W06
 BYTE   N07  An0
 BYTE   W12
 BYTE   N07
 BYTE   W20
 BYTE   N05
 BYTE   W16
 BYTE   PEND 
//  #07 //042   ----------------------------------------
Label_5592C3:
 BYTE   N16  Dn1  v036
 BYTE   W30
 BYTE   N03  An0
 BYTE   W12
 BYTE   N03
 BYTE   W06
 BYTE   N07  Gn0
 BYTE   W12
 BYTE   N07
 BYTE   W20
 BYTE   N05
 BYTE   W16
 BYTE   PEND 
//  #07 //043   ----------------------------------------
Label_5592D4:
 BYTE   N16  As0  v036
 BYTE   W42
 BYTE   N03
 BYTE   W06
 BYTE   N16  An0
 BYTE   W48
 BYTE   PEND 
//  #07 //044   ----------------------------------------
Label_5592DE:
 BYTE   N07  Dn1  v036
 BYTE   W12
 BYTE   N07
 BYTE   W12
 BYTE   N16  Cs1
 BYTE   W24
 BYTE   N07  Cn1
 BYTE   W12
 BYTE   N07
 BYTE   W12
 BYTE   N16  An0
 BYTE   W24
 BYTE   PEND 
//  #07 //045   ----------------------------------------
 BYTE   PATT
  POIN2 Label_5592B5
//  #07 //046   ----------------------------------------
 BYTE   PATT
  POIN2 Label_5592C3
//  #07 //047   ----------------------------------------
 BYTE   PATT
  POIN2 Label_5592D4
//  #07 //048   ----------------------------------------
 BYTE   PATT
  POIN2 Label_5592DE
//  #07 //049   ----------------------------------------
 BYTE   W96
//  #07 //050   ----------------------------------------
 BYTE   W96
//  #07 //051   ----------------------------------------
 BYTE   W96
//  #07 //052   ----------------------------------------
 BYTE   W96
//  #07 //053   ----------------------------------------
 BYTE   W96
//  #07 //054   ----------------------------------------
 BYTE   W96
//  #07 //055   ----------------------------------------
 BYTE   W96
//  #07 //056   ----------------------------------------
 BYTE   W96
//  #07 //057   ----------------------------------------
 BYTE   W96
//  #07 //058   ----------------------------------------
 BYTE   W96
//  #07 //059   ----------------------------------------
 BYTE   W96
//  #07 //060   ----------------------------------------
 BYTE   W96
//  #07 //061   ----------------------------------------
 BYTE   W96
//  #07 //062   ----------------------------------------
 BYTE   W96
//  #07 //063   ----------------------------------------
 BYTE   W96
//  #07 //064   ----------------------------------------
 BYTE   W96
//  #07 //065   ----------------------------------------
 BYTE   W10
 BYTE   GoTo
  POIN2 Label_55929D
//  #07 //066   ----------------------------------------
 BYTE   W84
 BYTE   W02
 BYTE   W96
//  #07 //067   ----------------------------------------
 BYTE   W96
//  #07 //068   ----------------------------------------
 BYTE   W96
//  #07 //069   ----------------------------------------
 BYTE   W96
//  #07 //070   ----------------------------------------
 BYTE   W96
//  #07 //071   ----------------------------------------
 BYTE   W96
//  #07 //072   ----------------------------------------
 BYTE   W96
//  #07 //073   ----------------------------------------
 BYTE   W96
//  #07 //074   ----------------------------------------
 BYTE   W96
//  #07 //075   ----------------------------------------
 BYTE   W96
//  #07 //076   ----------------------------------------
 BYTE   W96
//  #07 //077   ----------------------------------------
 BYTE   W96
//  #07 //078   ----------------------------------------
 BYTE   W96
//  #07 //079   ----------------------------------------
 BYTE   W96
//  #07 //080   ----------------------------------------
 BYTE   W96
//  #07 //081   ----------------------------------------
 BYTE   W96
//  #07 //082   ----------------------------------------
 BYTE   W96
//  #07 //083   ----------------------------------------
 BYTE   W96
//  #07 //084   ----------------------------------------
 BYTE   W96
//  #07 //085   ----------------------------------------
 BYTE   W96
 BYTE   FINE

//******************************************************//
	ALIGN 4

_223AM:
	BYTE	7	// NumTrks
	BYTE	0	// NumBlks
	BYTE	_223AM_pri	// Priority
	BYTE	_223AM_rev	// Reverb.
    
	POIN2	_223AM_grp
    
	POIN2	_223AM_001
	POIN2	_223AM_002
	POIN2	_223AM_003
	POIN2	_223AM_004
	POIN2	_223AM_005
	POIN2	_223AM_006
	POIN2	_223AM_007

	
