//Event file generated from Sappy .s format.
	#include "MPlayDef.event"

	#define	AstrogirlSlowed_grp  voicegroup000
	#define	AstrogirlSlowed_pri  0
	#define	AstrogirlSlowed_rev  0
	#define	AstrogirlSlowed_mvl  127
	#define	AstrogirlSlowed_key  0
	#define	AstrogirlSlowed_tbs  1
	#define	AstrogirlSlowed_exg  0
	#define	AstrogirlSlowed_cmp  1

	// .rodata
	//	AstrogirlSlowed
	ALIGN 4


//**************** Track 1 (Midi-Chn.0) ****************//

AstrogirlSlowed_001:
//  #01 //000   ----------------------------------------
 BYTE   KEYSH   AstrogirlSlowed_key+0
Label_0198008A:
 BYTE   TEMPO   148*AstrogirlSlowed_tbs/2
 BYTE   VOICE   48
 BYTE   MODT 0
 BYTE   LFOS 44
 BYTE   VOL   53*AstrogirlSlowed_mvl/mxv
 BYTE   PAN   c_v+0
 BYTE   VOL   53*AstrogirlSlowed_mvl/mxv
 BYTE   PAN   c_v+0
 BYTE   VOL   53*AstrogirlSlowed_mvl/mxv
 BYTE   PAN   c_v+0
 BYTE   W48
 BYTE   N32  As4  v060
 BYTE   W36
 BYTE   N11  Gs4
 BYTE   W12
//  #01 //001   ----------------------------------------
 BYTE   N68
 BYTE   W72
 BYTE   N11  Cs4
 BYTE   W12
 BYTE   N44  Gs4
 BYTE   W12
//  #01 //002   ----------------------------------------
 BYTE   W36
 BYTE   N11  Gs3
 BYTE   W12
 BYTE   N11
 BYTE   W12
 BYTE   As3
 BYTE   W12
 BYTE   Gs3
 BYTE   W12
 BYTE   Cs4
 BYTE   W12
//  #01 //003   ----------------------------------------
 BYTE   N92  Ds4
 BYTE   W96
//  #01 //004   ----------------------------------------
 BYTE   W24
 BYTE   N23  Cs5
 BYTE   W24
 BYTE   Cn5
 BYTE   W24
 BYTE   As4
 BYTE   W24
//  #01 //005   ----------------------------------------
 BYTE   N32  Gs4
 BYTE   W36
 BYTE   N11  Cs4
 BYTE   W12
 BYTE   N32
 BYTE   W36
 BYTE   N11
 BYTE   W12
//  #01 //006   ----------------------------------------
 BYTE   N23
 BYTE   W24
 BYTE   N23
 BYTE   W24
 BYTE   Gs3
 BYTE   W24
 BYTE   Ds4
 BYTE   W24
//  #01 //007   ----------------------------------------
 BYTE   TIE  Cs4
 BYTE   W96
//  #01 //008   ----------------------------------------
 BYTE   W23
 BYTE   EOT
 BYTE   W13
 BYTE   N11
 BYTE   W12
 BYTE   Ds4
 BYTE   W12
 BYTE   Cs4
 BYTE   W12
 BYTE   N23  Gs4
 BYTE   W24
//  #01 //009   ----------------------------------------
 BYTE   TIE  Fn4  v028
 BYTE   TIE  Gs4
 BYTE   W96
//  #01 //010   ----------------------------------------
Label_019800EC:
 BYTE   W92
 BYTE   W03
 BYTE   PEND 
 BYTE   EOT
 BYTE   Fn4  v080
 BYTE   W01
//  #01 //011   ----------------------------------------
 BYTE   TIE  Ds4  v028
 BYTE   TIE  Gs4
 BYTE   W96
//  #01 //012   ----------------------------------------
 BYTE   PATT
  POIN2 Label_019800EC
//  #01 //013   ----------------------------------------
 BYTE   EOT
 BYTE   Ds4  v080
 BYTE   W01
Label_01980102:
 BYTE   TIE  Cs4  v028
 BYTE   TIE  Gs4
 BYTE   W96
 BYTE   PEND 
//  #01 //014   ----------------------------------------
 BYTE   PATT
  POIN2 Label_019800EC
//  #01 //015   ----------------------------------------
 BYTE   EOT
 BYTE   Cs4  v080
 BYTE   W01
//  #01 //016   ----------------------------------------
 BYTE   PATT
  POIN2 Label_01980102
//  #01 //017   ----------------------------------------
 BYTE   W44
 BYTE   W03
 BYTE   EOT
 BYTE   Cs4  v080
 BYTE   W48
 BYTE   W01
//  #01 //018   ----------------------------------------
 BYTE   W12
 BYTE   N11  Fn4  v060
 BYTE   W12
 BYTE   N23
 BYTE   W24
 BYTE   Ds4
 BYTE   W24
 BYTE   N11  Cs4
 BYTE   W12
 BYTE   N23  Fs4
 BYTE   W12
//  #01 //019   ----------------------------------------
 BYTE   W12
 BYTE   Fn4
 BYTE   W24
 BYTE   Ds4
 BYTE   W12
 BYTE   W12
 BYTE   Cs4
 BYTE   W24
 BYTE   N32  Gs3
 BYTE   W12
//  #01 //020   ----------------------------------------
 BYTE   W36
 BYTE   N11  Ds4
 BYTE   W12
 BYTE   N11
 BYTE   W12
 BYTE   N11
 BYTE   W12
 BYTE   Cs4
 BYTE   W12
 BYTE   N23  Gs4
 BYTE   W12
//  #01 //021   ----------------------------------------
 BYTE   W12
 BYTE   As4
 BYTE   W24
 BYTE   Gs4
 BYTE   W12
 BYTE   W12
 BYTE   N11  Fn4
 BYTE   W12
 BYTE   Ds4
 BYTE   W12
 BYTE   Cs4
 BYTE   W12
//  #01 //022   ----------------------------------------
 BYTE   W12
 BYTE   Gs3
 BYTE   W12
 BYTE   Cs4
 BYTE   W12
 BYTE   Gs3
 BYTE   W12
 BYTE   Ds4
 BYTE   W12
 BYTE   N11
 BYTE   W12
 BYTE   Cs4
 BYTE   W12
 BYTE   N23  Gs4
 BYTE   W12
//  #01 //023   ----------------------------------------
 BYTE   W12
 BYTE   N11  Fn4
 BYTE   W12
 BYTE   Ds4
 BYTE   W12
 BYTE   Cs4
 BYTE   W12
 BYTE   Ds4
 BYTE   W12
 BYTE   Cs4
 BYTE   W12
 BYTE   As4
 BYTE   W12
 BYTE   TIE  Gs4
 BYTE   W12
//  #01 //024   ----------------------------------------
Label_01980173:
 BYTE   W92
 BYTE   W03
 BYTE   PEND 
 BYTE   EOT
 BYTE   Gs4
 BYTE   W01
//  #01 //025   ----------------------------------------
 BYTE   W84
 BYTE   N11  Gs3  v080
 BYTE   W12
//  #01 //026   ----------------------------------------
 BYTE   N32
 BYTE   W36
 BYTE   N11  Cs4
 BYTE   W12
 BYTE   N32
 BYTE   W36
 BYTE   N11
 BYTE   W12
//  #01 //027   ----------------------------------------
 BYTE   N32  Cn4
 BYTE   W36
 BYTE   N11  Cs4
 BYTE   W12
 BYTE   N32  Gs3
 BYTE   W36
 BYTE   N11
 BYTE   W12
//  #01 //028   ----------------------------------------
Label_01980192:
 BYTE   N32  Fn4  v080
 BYTE   W36
 BYTE   N11  Fs4
 BYTE   W12
 BYTE   N32  Fn4
 BYTE   W36
 BYTE   N11  Ds4
 BYTE   W12
 BYTE   PEND 
//  #01 //029   ----------------------------------------
 BYTE   N23  Cs4
 BYTE   N24  Ds4
 BYTE   W24
 BYTE   N11
 BYTE   W12
 BYTE   Cs4
 BYTE   W12
 BYTE   N23
 BYTE   W24
 BYTE   N11  Cn4
 BYTE   W12
 BYTE   As3
 BYTE   N11  Cs4
 BYTE   W12
//  #01 //030   ----------------------------------------
 BYTE   TIE  Gs3
 BYTE   N32  Cs4
 BYTE   W36
 BYTE   N11  Gs4
 BYTE   W12
 BYTE   N32
 BYTE   W36
 BYTE   N11  Cs4
 BYTE   W12
//  #01 //031   ----------------------------------------
 BYTE   N32  Cn4
 BYTE   W36
 BYTE   N11  Cs4
 BYTE   W12
 BYTE   EOT
 BYTE   Gs3
 BYTE   N11
 BYTE   W24
 BYTE   N11
 BYTE   W12
 BYTE   Cs4
 BYTE   W12
//  #01 //032   ----------------------------------------
 BYTE   N23  Fn4
 BYTE   W24
 BYTE   N11  Cs4
 BYTE   W12
 BYTE   N23  Fn4
 BYTE   W12
 BYTE   W12
 BYTE   Fs4
 BYTE   W24
 BYTE   N44  Fn4
 BYTE   W12
//  #01 //033   ----------------------------------------
 BYTE   W36
 BYTE   N32  Ds4
 BYTE   W12
 BYTE   W36
 BYTE   N11  Cs4
 BYTE   W12
//  #01 //034   ----------------------------------------
 BYTE   N36  Gs3
 BYTE   N32  Cs4
 BYTE   W36
 BYTE   N11  Gs3
 BYTE   W12
 BYTE   N23  Gs4
 BYTE   W36
 BYTE   N11  Cs4
 BYTE   W12
//  #01 //035   ----------------------------------------
 BYTE   N32
 BYTE   W36
 BYTE   N11  Gs3
 BYTE   W12
 BYTE   N23  Gs4
 BYTE   W24
 BYTE   N11  Gs3
 BYTE   W12
 BYTE   N11
 BYTE   W12
//  #01 //036   ----------------------------------------
 BYTE   Fn4
 BYTE   W12
 BYTE   Fs4
 BYTE   W12
 BYTE   Fn4
 BYTE   W12
 BYTE   Ds4
 BYTE   W12
 BYTE   N11
 BYTE   W12
 BYTE   Cs4
 BYTE   W12
 BYTE   Gs3
 BYTE   W12
 BYTE   N11
 BYTE   W12
//  #01 //037   ----------------------------------------
 BYTE   Fn4
 BYTE   W12
 BYTE   Fs4
 BYTE   W12
 BYTE   Fn4
 BYTE   W12
 BYTE   Ds4
 BYTE   W12
 BYTE   N11
 BYTE   W12
 BYTE   Gs4
 BYTE   W12
 BYTE   Cs4
 BYTE   W12
 BYTE   Gs3
 BYTE   W12
//  #01 //038   ----------------------------------------
 BYTE   N23
 BYTE   W36
 BYTE   N11  Ds4
 BYTE   W12
 BYTE   N32
 BYTE   W36
 BYTE   N11  Cs4
 BYTE   W12
//  #01 //039   ----------------------------------------
 BYTE   N32  Gs3
 BYTE   W36
 BYTE   N11
 BYTE   W12
 BYTE   Ds4
 BYTE   W12
 BYTE   Fn4
 BYTE   W12
 BYTE   Fs4
 BYTE   W12
 BYTE   N32  Fn4
 BYTE   W12
//  #01 //040   ----------------------------------------
 BYTE   W24
 BYTE   N44  Ds4
 BYTE   W60
 BYTE   N11  Gs3
 BYTE   W12
//  #01 //041   ----------------------------------------
 BYTE   PATT
  POIN2 Label_01980192
//  #01 //042   ----------------------------------------
 BYTE   TIE  Cs3  v080
 BYTE   N32  Ds4
 BYTE   W36
 BYTE   TIE  Cs4
 BYTE   W12
 BYTE   W48
//  #01 //043   ----------------------------------------
 BYTE   W92
 BYTE   W03
 BYTE   EOT
 BYTE   Cs3  v073
 BYTE   W01
//  #01 //044   ----------------------------------------
 BYTE   TIE
 BYTE   TIE  Cs5  v060
 BYTE   W96
//  #01 //045   ----------------------------------------
 BYTE   PATT
  POIN2 Label_01980173
//  #01 //046   ----------------------------------------
 BYTE   EOT
 BYTE   Cs4  v085
 BYTE   W01
 BYTE   TIE  Cs3  v080
 BYTE   TIE  Fn4  v060
 BYTE   W96
//  #01 //047   ----------------------------------------
 BYTE   PATT
  POIN2 Label_01980173
//  #01 //048   ----------------------------------------
 BYTE   EOT
 BYTE   Cs3  v077
 BYTE   W01
 BYTE   N92  Cs4  v080
 BYTE   N92  En4  v060
 BYTE   W96
//  #01 //049   ----------------------------------------
 BYTE   N05  En4  v116
 BYTE   W01
 BYTE   W01
 BYTE   W01
 BYTE   W01
 BYTE   W01
 BYTE   W07
 BYTE   N05
 BYTE   W01
 BYTE   W01
 BYTE   W01
 BYTE   W01
 BYTE   W01
 BYTE   W30
 BYTE   W01
 BYTE   W12
 BYTE   GoTo
  POIN2 Label_0198008A
//  #01 //050   ----------------------------------------
 BYTE   W36
 BYTE   W96
//  #01 //051   ----------------------------------------
 BYTE   W96
//  #01 //052   ----------------------------------------
 BYTE   W96
//  #01 //053   ----------------------------------------
 BYTE   W96
//  #01 //054   ----------------------------------------
 BYTE   W96
//  #01 //055   ----------------------------------------
 BYTE   W96
//  #01 //056   ----------------------------------------
 BYTE   W96
//  #01 //057   ----------------------------------------
 BYTE   W96
//  #01 //058   ----------------------------------------
 BYTE   W96
//  #01 //059   ----------------------------------------
 BYTE   W96
//  #01 //060   ----------------------------------------
 BYTE   W96
//  #01 //061   ----------------------------------------
 BYTE   W96
//  #01 //062   ----------------------------------------
 BYTE   W96
//  #01 //063   ----------------------------------------
 BYTE   W96
//  #01 //064   ----------------------------------------
 BYTE   W96
//  #01 //065   ----------------------------------------
 BYTE   W96
//  #01 //066   ----------------------------------------
 BYTE   W96
//  #01 //067   ----------------------------------------
 BYTE   W96
//  #01 //068   ----------------------------------------
 BYTE   W96
//  #01 //069   ----------------------------------------
 BYTE   W96
//  #01 //070   ----------------------------------------
 BYTE   W96
//  #01 //071   ----------------------------------------
 BYTE   W96
//  #01 //072   ----------------------------------------
 BYTE   W96
//  #01 //073   ----------------------------------------
 BYTE   W96
//  #01 //074   ----------------------------------------
 BYTE   W96
//  #01 //075   ----------------------------------------
 BYTE   W96
//  #01 //076   ----------------------------------------
 BYTE   W96
//  #01 //077   ----------------------------------------
 BYTE   W96
//  #01 //078   ----------------------------------------
 BYTE   W96
//  #01 //079   ----------------------------------------
 BYTE   W96
//  #01 //080   ----------------------------------------
 BYTE   W96
//  #01 //081   ----------------------------------------
 BYTE   W96
//  #01 //082   ----------------------------------------
 BYTE   W96
//  #01 //083   ----------------------------------------
 BYTE   W96
//  #01 //084   ----------------------------------------
 BYTE   W96
//  #01 //085   ----------------------------------------
 BYTE   W96
//  #01 //086   ----------------------------------------
 BYTE   W96
//  #01 //087   ----------------------------------------
 BYTE   W96
//  #01 //088   ----------------------------------------
 BYTE   W96
//  #01 //089   ----------------------------------------
 BYTE   W96
//  #01 //090   ----------------------------------------
 BYTE   W96
//  #01 //091   ----------------------------------------
 BYTE   W96
//  #01 //092   ----------------------------------------
 BYTE   W96
//  #01 //093   ----------------------------------------
 BYTE   W96
//  #01 //094   ----------------------------------------
 BYTE   W96
//  #01 //095   ----------------------------------------
 BYTE   W96
//  #01 //096   ----------------------------------------
 BYTE   W96
//  #01 //097   ----------------------------------------
 BYTE   W96
//  #01 //098   ----------------------------------------
 BYTE   W96
//  #01 //099   ----------------------------------------
 BYTE   W96
//  #01 //100   ----------------------------------------
 BYTE   W96
//  #01 //101   ----------------------------------------
 BYTE   W96
//  #01 //102   ----------------------------------------
 BYTE   W96
//  #01 //103   ----------------------------------------
 BYTE   W96
//  #01 //104   ----------------------------------------
 BYTE   W96
//  #01 //105   ----------------------------------------
 BYTE   TEMPO   138*AstrogirlSlowed_tbs/2
 BYTE   W48
 BYTE   TEMPO   134*AstrogirlSlowed_tbs/2
 BYTE   W48
//  #01 //106   ----------------------------------------
 BYTE   TEMPO   132*AstrogirlSlowed_tbs/2
 BYTE   W96
//  #01 //107   ----------------------------------------
 BYTE   W96
//  #01 //108   ----------------------------------------
 BYTE   W96
//  #01 //109   ----------------------------------------
 BYTE   W96
//  #01 //110   ----------------------------------------
 BYTE   W96
//  #01 //111   ----------------------------------------
 BYTE   W96
//  #01 //112   ----------------------------------------
 BYTE   W96
//  #01 //113   ----------------------------------------
 BYTE   W96
//  #01 //114   ----------------------------------------
 BYTE   W96
//  #01 //115   ----------------------------------------
 BYTE   W96
//  #01 //116   ----------------------------------------
 BYTE   W96
//  #01 //117   ----------------------------------------
 BYTE   W96
//  #01 //118   ----------------------------------------
 BYTE   W96
//  #01 //119   ----------------------------------------
 BYTE   TEMPO   130*AstrogirlSlowed_tbs/2
 BYTE   W48
 BYTE   TEMPO   124*AstrogirlSlowed_tbs/2
 BYTE   W48
//  #01 //120   ----------------------------------------
 BYTE   TEMPO   120*AstrogirlSlowed_tbs/2
 BYTE   W48
 BYTE   TEMPO   108*AstrogirlSlowed_tbs/2
 BYTE   W48
//  #01 //121   ----------------------------------------
 BYTE   TEMPO   100*AstrogirlSlowed_tbs/2
 BYTE   W36
 BYTE   TEMPO   88*AstrogirlSlowed_tbs/2
 BYTE   W12
 BYTE   TEMPO   78*AstrogirlSlowed_tbs/2
 BYTE   W24
 BYTE   TEMPO   70*AstrogirlSlowed_tbs/2
 BYTE   W24
//  #01 //122   ----------------------------------------
 BYTE   TEMPO   100*AstrogirlSlowed_tbs/2
 BYTE   W96
//  #01 //123   ----------------------------------------
 BYTE   TEMPO   60*AstrogirlSlowed_tbs/2
 BYTE   W96
//  #01 //124   ----------------------------------------
 BYTE   TEMPO   288*AstrogirlSlowed_tbs/2
 BYTE   W96
//  #01 //125   ----------------------------------------
 BYTE   TEMPO   60*AstrogirlSlowed_tbs/2
 BYTE   FINE

//**************** Track 2 (Midi-Chn.1) ****************//

AstrogirlSlowed_002:
//  #02 //000   ----------------------------------------
 BYTE   KEYSH   AstrogirlSlowed_key+0
Label_01980302:
 BYTE   VOICE   45
 BYTE   MODT 0
 BYTE   LFOS 44
 BYTE   VOL   53*AstrogirlSlowed_mvl/mxv
 BYTE   PAN   c_v+0
 BYTE   VOL   53*AstrogirlSlowed_mvl/mxv
 BYTE   PAN   c_v+0
 BYTE   W96
//  #02 //001   ----------------------------------------
 BYTE   W96
//  #02 //002   ----------------------------------------
 BYTE   W96
//  #02 //003   ----------------------------------------
 BYTE   W96
//  #02 //004   ----------------------------------------
 BYTE   W96
//  #02 //005   ----------------------------------------
 BYTE   W96
//  #02 //006   ----------------------------------------
 BYTE   W96
//  #02 //007   ----------------------------------------
 BYTE   W96
//  #02 //008   ----------------------------------------
 BYTE   W36
 BYTE   N11  Cs5  v060
 BYTE   W12
 BYTE   Ds5
 BYTE   W12
 BYTE   Cs5
 BYTE   W12
 BYTE   N23  Gs5
 BYTE   W24
//  #02 //009   ----------------------------------------
 BYTE   W96
//  #02 //010   ----------------------------------------
 BYTE   W96
//  #02 //011   ----------------------------------------
 BYTE   W96
//  #02 //012   ----------------------------------------
 BYTE   W96
//  #02 //013   ----------------------------------------
 BYTE   W96
//  #02 //014   ----------------------------------------
 BYTE   W96
//  #02 //015   ----------------------------------------
 BYTE   W96
//  #02 //016   ----------------------------------------
 BYTE   W96
//  #02 //017   ----------------------------------------
 BYTE   W96
//  #02 //018   ----------------------------------------
 BYTE   W96
//  #02 //019   ----------------------------------------
 BYTE   W96
//  #02 //020   ----------------------------------------
 BYTE   W96
//  #02 //021   ----------------------------------------
 BYTE   W96
//  #02 //022   ----------------------------------------
 BYTE   W96
//  #02 //023   ----------------------------------------
 BYTE   W96
//  #02 //024   ----------------------------------------
 BYTE   W96
//  #02 //025   ----------------------------------------
 BYTE   W96
//  #02 //026   ----------------------------------------
 BYTE   W96
//  #02 //027   ----------------------------------------
 BYTE   W96
//  #02 //028   ----------------------------------------
 BYTE   W96
//  #02 //029   ----------------------------------------
 BYTE   W96
//  #02 //030   ----------------------------------------
 BYTE   W96
//  #02 //031   ----------------------------------------
 BYTE   W96
//  #02 //032   ----------------------------------------
 BYTE   W96
//  #02 //033   ----------------------------------------
 BYTE   W96
//  #02 //034   ----------------------------------------
 BYTE   W72
 BYTE   N11
 BYTE   W12
 BYTE   N11
 BYTE   W12
//  #02 //035   ----------------------------------------
 BYTE   Fn6
 BYTE   W12
 BYTE   Fs6
 BYTE   W12
 BYTE   Fn6
 BYTE   W12
 BYTE   Ds6
 BYTE   W12
 BYTE   N11
 BYTE   W12
 BYTE   Cs6
 BYTE   W12
 BYTE   Gs5
 BYTE   W12
 BYTE   N11
 BYTE   W12
//  #02 //036   ----------------------------------------
 BYTE   Fn6
 BYTE   W12
 BYTE   Fs6
 BYTE   W12
 BYTE   Fn6
 BYTE   W12
 BYTE   Ds6
 BYTE   W12
 BYTE   N11
 BYTE   W12
 BYTE   Gs6
 BYTE   W36
//  #02 //037   ----------------------------------------
 BYTE   W96
//  #02 //038   ----------------------------------------
 BYTE   W96
//  #02 //039   ----------------------------------------
 BYTE   W96
//  #02 //040   ----------------------------------------
 BYTE   W96
//  #02 //041   ----------------------------------------
Label_01980362:
 BYTE   N11  Ds6  v080
 BYTE   W12
 BYTE   Cs6
 BYTE   W12
 BYTE   Gs6
 BYTE   W12
 BYTE   Cs6
 BYTE   W12
 BYTE   Ds6
 BYTE   W12
 BYTE   Cs6
 BYTE   W12
 BYTE   Gs5
 BYTE   W12
 BYTE   Cs6
 BYTE   W12
 BYTE   PEND 
//  #02 //042   ----------------------------------------
 BYTE   PATT
  POIN2 Label_01980362
//  #02 //043   ----------------------------------------
 BYTE   PATT
  POIN2 Label_01980362
//  #02 //044   ----------------------------------------
 BYTE   PATT
  POIN2 Label_01980362
//  #02 //045   ----------------------------------------
 BYTE   PATT
  POIN2 Label_01980362
//  #02 //046   ----------------------------------------
 BYTE   PATT
  POIN2 Label_01980362
//  #02 //047   ----------------------------------------
 BYTE   PATT
  POIN2 Label_01980362
//  #02 //048   ----------------------------------------
 BYTE   W60
 BYTE   GoTo
  POIN2 Label_01980302
//  #02 //049   ----------------------------------------
 BYTE   W36
 BYTE   W96
//  #02 //050   ----------------------------------------
 BYTE   W96
//  #02 //051   ----------------------------------------
 BYTE   W96
//  #02 //052   ----------------------------------------
 BYTE   W96
//  #02 //053   ----------------------------------------
 BYTE   W96
//  #02 //054   ----------------------------------------
 BYTE   W96
//  #02 //055   ----------------------------------------
 BYTE   W96
//  #02 //056   ----------------------------------------
 BYTE   W96
//  #02 //057   ----------------------------------------
 BYTE   W96
//  #02 //058   ----------------------------------------
 BYTE   W96
//  #02 //059   ----------------------------------------
 BYTE   W96
//  #02 //060   ----------------------------------------
 BYTE   W96
//  #02 //061   ----------------------------------------
 BYTE   W96
//  #02 //062   ----------------------------------------
 BYTE   W96
//  #02 //063   ----------------------------------------
 BYTE   W96
//  #02 //064   ----------------------------------------
 BYTE   W96
//  #02 //065   ----------------------------------------
 BYTE   W96
//  #02 //066   ----------------------------------------
 BYTE   W96
//  #02 //067   ----------------------------------------
 BYTE   W96
//  #02 //068   ----------------------------------------
 BYTE   W96
//  #02 //069   ----------------------------------------
 BYTE   W96
//  #02 //070   ----------------------------------------
 BYTE   W96
//  #02 //071   ----------------------------------------
 BYTE   W96
//  #02 //072   ----------------------------------------
 BYTE   W96
//  #02 //073   ----------------------------------------
 BYTE   W96
//  #02 //074   ----------------------------------------
 BYTE   W96
//  #02 //075   ----------------------------------------
 BYTE   W96
//  #02 //076   ----------------------------------------
 BYTE   W96
//  #02 //077   ----------------------------------------
 BYTE   W96
//  #02 //078   ----------------------------------------
 BYTE   W96
//  #02 //079   ----------------------------------------
 BYTE   W96
//  #02 //080   ----------------------------------------
 BYTE   W96
//  #02 //081   ----------------------------------------
 BYTE   W96
//  #02 //082   ----------------------------------------
 BYTE   W96
//  #02 //083   ----------------------------------------
 BYTE   W96
//  #02 //084   ----------------------------------------
 BYTE   W96
//  #02 //085   ----------------------------------------
 BYTE   W96
//  #02 //086   ----------------------------------------
 BYTE   W96
//  #02 //087   ----------------------------------------
 BYTE   W96
//  #02 //088   ----------------------------------------
 BYTE   W96
//  #02 //089   ----------------------------------------
 BYTE   W96
//  #02 //090   ----------------------------------------
 BYTE   W96
//  #02 //091   ----------------------------------------
 BYTE   W96
//  #02 //092   ----------------------------------------
 BYTE   W96
//  #02 //093   ----------------------------------------
 BYTE   W96
//  #02 //094   ----------------------------------------
 BYTE   W96
//  #02 //095   ----------------------------------------
 BYTE   W96
//  #02 //096   ----------------------------------------
 BYTE   W96
//  #02 //097   ----------------------------------------
 BYTE   W96
//  #02 //098   ----------------------------------------
 BYTE   W96
//  #02 //099   ----------------------------------------
 BYTE   W96
//  #02 //100   ----------------------------------------
 BYTE   W96
//  #02 //101   ----------------------------------------
 BYTE   W96
//  #02 //102   ----------------------------------------
 BYTE   W96
//  #02 //103   ----------------------------------------
 BYTE   W96
//  #02 //104   ----------------------------------------
 BYTE   W96
//  #02 //105   ----------------------------------------
 BYTE   W96
//  #02 //106   ----------------------------------------
 BYTE   W96
//  #02 //107   ----------------------------------------
 BYTE   W96
//  #02 //108   ----------------------------------------
 BYTE   W96
//  #02 //109   ----------------------------------------
 BYTE   W96
//  #02 //110   ----------------------------------------
 BYTE   W96
//  #02 //111   ----------------------------------------
 BYTE   W96
//  #02 //112   ----------------------------------------
 BYTE   W96
//  #02 //113   ----------------------------------------
 BYTE   W96
//  #02 //114   ----------------------------------------
 BYTE   W96
//  #02 //115   ----------------------------------------
 BYTE   W96
//  #02 //116   ----------------------------------------
 BYTE   W96
//  #02 //117   ----------------------------------------
 BYTE   W96
//  #02 //118   ----------------------------------------
 BYTE   W96
//  #02 //119   ----------------------------------------
 BYTE   W96
//  #02 //120   ----------------------------------------
 BYTE   W96
//  #02 //121   ----------------------------------------
 BYTE   W96
//  #02 //122   ----------------------------------------
 BYTE   W96
//  #02 //123   ----------------------------------------
 BYTE   W96
 BYTE   FINE

//**************** Track 3 (Midi-Chn.2) ****************//

AstrogirlSlowed_003:
//  #03 //000   ----------------------------------------
 BYTE   KEYSH   AstrogirlSlowed_key+0
Label_019803EA:
 BYTE   VOICE   44
 BYTE   MODT 0
 BYTE   LFOS 44
 BYTE   VOL   80*AstrogirlSlowed_mvl/mxv
 BYTE   PAN   c_v+0
 BYTE   VOL   53*AstrogirlSlowed_mvl/mxv
 BYTE   PAN   c_v+0
 BYTE   W96
//  #03 //001   ----------------------------------------
 BYTE   W96
//  #03 //002   ----------------------------------------
 BYTE   W96
//  #03 //003   ----------------------------------------
 BYTE   W96
//  #03 //004   ----------------------------------------
 BYTE   W96
//  #03 //005   ----------------------------------------
 BYTE   W96
//  #03 //006   ----------------------------------------
 BYTE   W96
//  #03 //007   ----------------------------------------
 BYTE   W96
//  #03 //008   ----------------------------------------
 BYTE   W96
//  #03 //009   ----------------------------------------
 BYTE   TIE  Fn4  v028
 BYTE   TIE  Gs4
 BYTE   W96
//  #03 //010   ----------------------------------------
Label_01980407:
 BYTE   W84
 BYTE   W02
 BYTE   PEND 
 BYTE   EOT
 BYTE   Fn4  v080
 BYTE   W10
//  #03 //011   ----------------------------------------
 BYTE   TIE  Ds4  v028
 BYTE   TIE  Gs4
 BYTE   W96
//  #03 //012   ----------------------------------------
 BYTE   PATT
  POIN2 Label_01980407
//  #03 //013   ----------------------------------------
 BYTE   EOT
 BYTE   Ds4  v080
 BYTE   W10
Label_0198041D:
 BYTE   TIE  Cs4  v028
 BYTE   TIE  Gs4
 BYTE   W96
 BYTE   PEND 
//  #03 //014   ----------------------------------------
 BYTE   PATT
  POIN2 Label_01980407
//  #03 //015   ----------------------------------------
 BYTE   EOT
 BYTE   Cs4  v080
 BYTE   W10
//  #03 //016   ----------------------------------------
 BYTE   PATT
  POIN2 Label_0198041D
//  #03 //017   ----------------------------------------
 BYTE   W40
 BYTE   EOT
 BYTE   Cs4  v080
 BYTE   W56
//  #03 //018   ----------------------------------------
 BYTE   W12
 BYTE   N11  Fn4  v060
 BYTE   W12
 BYTE   N22
 BYTE   W24
 BYTE   Ds4
 BYTE   W24
 BYTE   N11  Cs4
 BYTE   W12
 BYTE   N22  Fs4
 BYTE   W12
//  #03 //019   ----------------------------------------
 BYTE   W12
 BYTE   Fn4
 BYTE   W24
 BYTE   Ds4
 BYTE   W12
 BYTE   W12
 BYTE   Cs4
 BYTE   W24
 BYTE   N32  Gs3
 BYTE   W12
//  #03 //020   ----------------------------------------
 BYTE   W36
 BYTE   N11  Ds4
 BYTE   W12
 BYTE   N11
 BYTE   W12
 BYTE   N11
 BYTE   W12
 BYTE   Cs4
 BYTE   W12
 BYTE   N22  Gs4
 BYTE   W12
//  #03 //021   ----------------------------------------
 BYTE   W12
 BYTE   As4
 BYTE   W24
 BYTE   Gs4
 BYTE   W12
 BYTE   W12
 BYTE   N11  Fn4
 BYTE   W12
 BYTE   Ds4
 BYTE   W12
 BYTE   Cs4
 BYTE   W12
//  #03 //022   ----------------------------------------
 BYTE   W12
 BYTE   Gs3
 BYTE   W12
 BYTE   Cs4
 BYTE   W12
 BYTE   Gs3
 BYTE   W12
 BYTE   Ds4
 BYTE   W12
 BYTE   N11
 BYTE   W12
 BYTE   Cs4
 BYTE   W12
 BYTE   N22  Gs4
 BYTE   W12
//  #03 //023   ----------------------------------------
 BYTE   W12
 BYTE   N11  Fn4
 BYTE   W12
 BYTE   Ds4
 BYTE   W12
 BYTE   Cs4
 BYTE   W12
 BYTE   Ds4
 BYTE   W12
 BYTE   Cs4
 BYTE   W12
 BYTE   As4
 BYTE   W12
 BYTE   TIE  Gs4
 BYTE   W12
//  #03 //024   ----------------------------------------
 BYTE   W90
 BYTE   EOT
 BYTE   W06
//  #03 //025   ----------------------------------------
 BYTE   W84
 BYTE   N11  Fn4  v080
 BYTE   N11  Gs4
 BYTE   W12
//  #03 //026   ----------------------------------------
 BYTE   N32  Fn4
 BYTE   N32  Gs4
 BYTE   W36
 BYTE   N11
 BYTE   N11  Cs5
 BYTE   W12
 BYTE   N32  Gs4
 BYTE   N32  Cs5
 BYTE   W36
 BYTE   N11  Gs4
 BYTE   N11  Cs5
 BYTE   W12
//  #03 //027   ----------------------------------------
 BYTE   N32  Fs4
 BYTE   N32  Cn5
 BYTE   W36
 BYTE   N11  Gs4
 BYTE   N11  Cs5
 BYTE   W12
 BYTE   N32  Fn4
 BYTE   N32  Gs4
 BYTE   W36
 BYTE   N11  Fn4
 BYTE   N11  Gs4
 BYTE   W12
//  #03 //028   ----------------------------------------
Label_019804BD:
 BYTE   N32  Cs5  v080
 BYTE   N32  Fn5
 BYTE   W36
 BYTE   N11  Ds5
 BYTE   N11  Fs5
 BYTE   W12
 BYTE   N32  Cs5
 BYTE   N32  Fn5
 BYTE   W36
 BYTE   N11  Cn5
 BYTE   N11  Ds5
 BYTE   W12
 BYTE   PEND 
//  #03 //029   ----------------------------------------
 BYTE   N32  Cn5
 BYTE   N32  Ds5
 BYTE   W36
 BYTE   N11  Gs4
 BYTE   N11  Cs5
 BYTE   W12
 BYTE   N32  Fs4
 BYTE   N32  Cs5
 BYTE   W36
 BYTE   N11  Fs4
 BYTE   N11  Cs5
 BYTE   W12
//  #03 //030   ----------------------------------------
 BYTE   N32  Fn4
 BYTE   N32  Cs5
 BYTE   W36
 BYTE   N11
 BYTE   N11  Gs5
 BYTE   W12
 BYTE   N32  Cs5
 BYTE   N32  Gs5
 BYTE   W36
 BYTE   N11  Gs4
 BYTE   N11  Cs5
 BYTE   W12
//  #03 //031   ----------------------------------------
 BYTE   N32  Fs4
 BYTE   N32  Cn5
 BYTE   W36
 BYTE   N11  Gs4
 BYTE   N11  Cs5
 BYTE   W12
 BYTE   Fn4
 BYTE   N11  Gs4
 BYTE   W24
 BYTE   Fn4
 BYTE   N11  Gs4
 BYTE   W12
 BYTE   As4
 BYTE   N11  Cs5
 BYTE   W12
//  #03 //032   ----------------------------------------
 BYTE   N22
 BYTE   N22  Fn5
 BYTE   W24
 BYTE   N11  As4
 BYTE   N11  Cs5
 BYTE   W12
 BYTE   N22
 BYTE   N22  Fn5
 BYTE   W12
 BYTE   W12
 BYTE   Ds5
 BYTE   N22  Fs5
 BYTE   W24
 BYTE   N44  Cs5
 BYTE   N44  Fn5
 BYTE   W12
//  #03 //033   ----------------------------------------
 BYTE   W36
 BYTE   N32  Cn5
 BYTE   N32  Ds5
 BYTE   W12
 BYTE   W36
 BYTE   N11  Cs5
 BYTE   W12
//  #03 //034   ----------------------------------------
 BYTE   N32
 BYTE   W36
 BYTE   N11  Gs4
 BYTE   W12
 BYTE   N22  Gs5
 BYTE   W36
 BYTE   N11  Cs5
 BYTE   W12
//  #03 //035   ----------------------------------------
 BYTE   N32
 BYTE   W36
 BYTE   N11  Gs4
 BYTE   W12
 BYTE   N22  Gs5
 BYTE   W24
 BYTE   N11  Gs4
 BYTE   W12
 BYTE   N11
 BYTE   W12
//  #03 //036   ----------------------------------------
 BYTE   Cs5
 BYTE   N11  Fn5
 BYTE   W12
 BYTE   Ds5
 BYTE   N11  Fs5
 BYTE   W12
 BYTE   Cs5
 BYTE   N11  Fn5
 BYTE   W12
 BYTE   Cn5
 BYTE   N11  Ds5
 BYTE   W12
 BYTE   Cn5
 BYTE   N11  Ds5
 BYTE   W12
 BYTE   Gs4
 BYTE   N11  Cs5
 BYTE   W12
 BYTE   Fn4
 BYTE   N11  Gs4
 BYTE   W12
 BYTE   Fn4
 BYTE   N11  Gs4
 BYTE   W12
//  #03 //037   ----------------------------------------
 BYTE   Cs5
 BYTE   N11  Fn5
 BYTE   W12
 BYTE   Ds5
 BYTE   N11  Fs5
 BYTE   W12
 BYTE   Cs5
 BYTE   N11  Fn5
 BYTE   W12
 BYTE   Cn5
 BYTE   N11  Ds5
 BYTE   W12
 BYTE   Cn5
 BYTE   N11  Ds5
 BYTE   W12
 BYTE   N11
 BYTE   N11  Gs5
 BYTE   W12
 BYTE   Gs4
 BYTE   N11  Cs5
 BYTE   W12
 BYTE   Ds4
 BYTE   N11  Gs4
 BYTE   W12
//  #03 //038   ----------------------------------------
 BYTE   N22  Fn4
 BYTE   N22  Gs4
 BYTE   W36
 BYTE   N11
 BYTE   N11  Ds5
 BYTE   W12
 BYTE   N32  Gs4
 BYTE   N32  Ds5
 BYTE   W36
 BYTE   N11  Fs4
 BYTE   N11  Cs5
 BYTE   W12
//  #03 //039   ----------------------------------------
 BYTE   N32  Fn4
 BYTE   N32  Gs4
 BYTE   W36
 BYTE   N11  Fn4
 BYTE   N11  Gs4
 BYTE   W12
 BYTE   As4
 BYTE   N11  Ds5
 BYTE   W12
 BYTE   Cs5
 BYTE   N11  Fn5
 BYTE   W12
 BYTE   Ds5
 BYTE   N11  Fs5
 BYTE   W12
 BYTE   N32  Cs5
 BYTE   N32  Fn5
 BYTE   W12
//  #03 //040   ----------------------------------------
 BYTE   W24
 BYTE   N44  Cn5
 BYTE   N44  Ds5
 BYTE   W60
 BYTE   N11  Fn4
 BYTE   N11  Gs4
 BYTE   W12
//  #03 //041   ----------------------------------------
 BYTE   PATT
  POIN2 Label_019804BD
//  #03 //042   ----------------------------------------
 BYTE   N32  Cn5  v080
 BYTE   N32  Ds5
 BYTE   W36
 BYTE   TIE  Gs4
 BYTE   TIE  Cs5
 BYTE   W12
 BYTE   W48
//  #03 //043   ----------------------------------------
 BYTE   W88
 BYTE   EOT
 BYTE   Gs4  v085
 BYTE   W08
//  #03 //044   ----------------------------------------
 BYTE   W96
//  #03 //045   ----------------------------------------
 BYTE   W36
 BYTE   N11  Cs4
 BYTE   N11  Cs5
 BYTE   W12
 BYTE   Ds4
 BYTE   N11  Ds5
 BYTE   W12
 BYTE   Cs4
 BYTE   N11  Cs5
 BYTE   W12
 BYTE   N22  Gs3
 BYTE   N22  Gs4
 BYTE   W24
//  #03 //046   ----------------------------------------
 BYTE   W96
//  #03 //047   ----------------------------------------
 BYTE   W96
//  #03 //048   ----------------------------------------
 BYTE   W96
//  #03 //049   ----------------------------------------
 BYTE   W60
 BYTE   GoTo
  POIN2 Label_019803EA
//  #03 //050   ----------------------------------------
 BYTE   W36
 BYTE   W96
//  #03 //051   ----------------------------------------
 BYTE   W96
//  #03 //052   ----------------------------------------
 BYTE   W96
//  #03 //053   ----------------------------------------
 BYTE   W96
//  #03 //054   ----------------------------------------
 BYTE   W96
//  #03 //055   ----------------------------------------
 BYTE   W96
//  #03 //056   ----------------------------------------
 BYTE   W96
//  #03 //057   ----------------------------------------
 BYTE   W96
//  #03 //058   ----------------------------------------
 BYTE   W96
//  #03 //059   ----------------------------------------
 BYTE   W96
//  #03 //060   ----------------------------------------
 BYTE   W96
//  #03 //061   ----------------------------------------
 BYTE   W96
//  #03 //062   ----------------------------------------
 BYTE   W96
//  #03 //063   ----------------------------------------
 BYTE   W96
//  #03 //064   ----------------------------------------
 BYTE   W96
//  #03 //065   ----------------------------------------
 BYTE   W96
//  #03 //066   ----------------------------------------
 BYTE   W96
//  #03 //067   ----------------------------------------
 BYTE   W96
//  #03 //068   ----------------------------------------
 BYTE   W96
//  #03 //069   ----------------------------------------
 BYTE   W96
//  #03 //070   ----------------------------------------
 BYTE   W96
//  #03 //071   ----------------------------------------
 BYTE   W96
//  #03 //072   ----------------------------------------
 BYTE   W96
//  #03 //073   ----------------------------------------
 BYTE   W96
//  #03 //074   ----------------------------------------
 BYTE   W96
//  #03 //075   ----------------------------------------
 BYTE   W96
//  #03 //076   ----------------------------------------
 BYTE   W96
//  #03 //077   ----------------------------------------
 BYTE   W96
//  #03 //078   ----------------------------------------
 BYTE   W96
//  #03 //079   ----------------------------------------
 BYTE   W96
//  #03 //080   ----------------------------------------
 BYTE   W96
//  #03 //081   ----------------------------------------
 BYTE   W96
//  #03 //082   ----------------------------------------
 BYTE   W96
//  #03 //083   ----------------------------------------
 BYTE   W96
//  #03 //084   ----------------------------------------
 BYTE   W96
//  #03 //085   ----------------------------------------
 BYTE   W96
//  #03 //086   ----------------------------------------
 BYTE   W96
//  #03 //087   ----------------------------------------
 BYTE   W96
//  #03 //088   ----------------------------------------
 BYTE   W96
//  #03 //089   ----------------------------------------
 BYTE   W96
//  #03 //090   ----------------------------------------
 BYTE   W96
//  #03 //091   ----------------------------------------
 BYTE   W96
//  #03 //092   ----------------------------------------
 BYTE   W96
//  #03 //093   ----------------------------------------
 BYTE   W96
//  #03 //094   ----------------------------------------
 BYTE   W96
//  #03 //095   ----------------------------------------
 BYTE   W96
//  #03 //096   ----------------------------------------
 BYTE   W96
//  #03 //097   ----------------------------------------
 BYTE   W96
//  #03 //098   ----------------------------------------
 BYTE   W96
//  #03 //099   ----------------------------------------
 BYTE   W96
//  #03 //100   ----------------------------------------
 BYTE   W96
//  #03 //101   ----------------------------------------
 BYTE   W96
//  #03 //102   ----------------------------------------
 BYTE   W96
//  #03 //103   ----------------------------------------
 BYTE   W96
//  #03 //104   ----------------------------------------
 BYTE   W96
//  #03 //105   ----------------------------------------
 BYTE   W96
//  #03 //106   ----------------------------------------
 BYTE   W96
//  #03 //107   ----------------------------------------
 BYTE   W96
//  #03 //108   ----------------------------------------
 BYTE   W96
//  #03 //109   ----------------------------------------
 BYTE   W96
//  #03 //110   ----------------------------------------
 BYTE   W96
//  #03 //111   ----------------------------------------
 BYTE   W96
//  #03 //112   ----------------------------------------
 BYTE   W96
//  #03 //113   ----------------------------------------
 BYTE   W96
//  #03 //114   ----------------------------------------
 BYTE   W96
//  #03 //115   ----------------------------------------
 BYTE   W96
//  #03 //116   ----------------------------------------
 BYTE   W96
//  #03 //117   ----------------------------------------
 BYTE   W96
//  #03 //118   ----------------------------------------
 BYTE   W96
//  #03 //119   ----------------------------------------
 BYTE   W96
//  #03 //120   ----------------------------------------
 BYTE   W96
//  #03 //121   ----------------------------------------
 BYTE   W96
//  #03 //122   ----------------------------------------
 BYTE   W96
//  #03 //123   ----------------------------------------
 BYTE   W96
//  #03 //124   ----------------------------------------
 BYTE   W96
 BYTE   FINE

//**************** Track 4 (Midi-Chn.3) ****************//

AstrogirlSlowed_004:
//  #04 //000   ----------------------------------------
 BYTE   KEYSH   AstrogirlSlowed_key+0
Label_01980646:
 BYTE   VOICE   121
 BYTE   MODT 0
 BYTE   LFOS 44
 BYTE   VOL   41*AstrogirlSlowed_mvl/mxv
 BYTE   PAN   c_v+0
 BYTE   VOL   41*AstrogirlSlowed_mvl/mxv
 BYTE   PAN   c_v+0
 BYTE   W96
//  #04 //001   ----------------------------------------
 BYTE   W96
//  #04 //002   ----------------------------------------
 BYTE   W96
//  #04 //003   ----------------------------------------
 BYTE   W96
//  #04 //004   ----------------------------------------
 BYTE   W96
//  #04 //005   ----------------------------------------
 BYTE   W96
//  #04 //006   ----------------------------------------
 BYTE   W96
//  #04 //007   ----------------------------------------
 BYTE   W96
//  #04 //008   ----------------------------------------
 BYTE   W96
//  #04 //009   ----------------------------------------
 BYTE   W96
//  #04 //010   ----------------------------------------
 BYTE   W96
//  #04 //011   ----------------------------------------
 BYTE   W96
//  #04 //012   ----------------------------------------
 BYTE   W96
//  #04 //013   ----------------------------------------
 BYTE   W96
//  #04 //014   ----------------------------------------
 BYTE   W96
//  #04 //015   ----------------------------------------
 BYTE   W96
//  #04 //016   ----------------------------------------
 BYTE   TIE  Fn1  v060
 BYTE   W96
//  #04 //017   ----------------------------------------
 BYTE   W96
//  #04 //018   ----------------------------------------
 BYTE   W92
 BYTE   W03
 BYTE   EOT
 BYTE   W01
//  #04 //019   ----------------------------------------
 BYTE   W96
//  #04 //020   ----------------------------------------
 BYTE   W96
//  #04 //021   ----------------------------------------
 BYTE   W96
//  #04 //022   ----------------------------------------
 BYTE   W96
//  #04 //023   ----------------------------------------
 BYTE   W96
//  #04 //024   ----------------------------------------
 BYTE   TIE
 BYTE   W96
//  #04 //025   ----------------------------------------
 BYTE   W96
//  #04 //026   ----------------------------------------
 BYTE   W92
 BYTE   W03
 BYTE   EOT
 BYTE   W01
//  #04 //027   ----------------------------------------
 BYTE   W96
//  #04 //028   ----------------------------------------
 BYTE   W96
//  #04 //029   ----------------------------------------
 BYTE   W96
//  #04 //030   ----------------------------------------
 BYTE   W96
//  #04 //031   ----------------------------------------
 BYTE   W96
//  #04 //032   ----------------------------------------
 BYTE   W96
//  #04 //033   ----------------------------------------
 BYTE   W96
//  #04 //034   ----------------------------------------
 BYTE   W96
//  #04 //035   ----------------------------------------
 BYTE   W96
//  #04 //036   ----------------------------------------
 BYTE   W96
//  #04 //037   ----------------------------------------
 BYTE   W96
//  #04 //038   ----------------------------------------
 BYTE   W96
//  #04 //039   ----------------------------------------
 BYTE   W96
//  #04 //040   ----------------------------------------
 BYTE   TIE
 BYTE   W96
//  #04 //041   ----------------------------------------
Label_01980688:
 BYTE   N23  Dn1  v127
 BYTE   W24
 BYTE   Dn1  v080
 BYTE   W48
 BYTE   N05
 BYTE   W06
 BYTE   N05
 BYTE   W06
 BYTE   N11  Dn1  v127
 BYTE   W12
 BYTE   PEND 
//  #04 //042   ----------------------------------------
 BYTE   W12
 BYTE   N11
 BYTE   W24
 BYTE   N05  Dn1  v080
 BYTE   W06
 BYTE   N05
 BYTE   W06
 BYTE   N23  Dn1  v127
 BYTE   W24
 BYTE   N02  Dn1  v080
 BYTE   W03
 BYTE   N02
 BYTE   W03
 BYTE   N02
 BYTE   W03
 BYTE   N02
 BYTE   W03
 BYTE   N02
 BYTE   W03
 BYTE   N02
 BYTE   W03
 BYTE   N02
 BYTE   W03
 BYTE   N02
 BYTE   W02
 BYTE   EOT
 BYTE   Fn1
 BYTE   W01
//  #04 //043   ----------------------------------------
 BYTE   N23  Dn1  v127
 BYTE   W48
 BYTE   N11
 BYTE   W12
 BYTE   Dn1  v080
 BYTE   W24
 BYTE   N11
 BYTE   W12
//  #04 //044   ----------------------------------------
 BYTE   W12
 BYTE   Dn1  v127
 BYTE   W24
 BYTE   N05  Dn1  v080
 BYTE   W06
 BYTE   N05
 BYTE   W06
 BYTE   N11
 BYTE   W12
 BYTE   Dn1  v127
 BYTE   W36
//  #04 //045   ----------------------------------------
 BYTE   PATT
  POIN2 Label_01980688
//  #04 //046   ----------------------------------------
 BYTE   W12
 BYTE   N11  Dn1  v127
 BYTE   W24
 BYTE   N05  Dn1  v080
 BYTE   W06
 BYTE   N05
 BYTE   W06
 BYTE   N23  Dn1  v127
 BYTE   W24
 BYTE   N02  Dn1  v080
 BYTE   W03
 BYTE   N02
 BYTE   W03
 BYTE   N02
 BYTE   W03
 BYTE   N02
 BYTE   W03
 BYTE   N02
 BYTE   W03
 BYTE   N02
 BYTE   W03
 BYTE   N02
 BYTE   W03
 BYTE   N02
 BYTE   W03
//  #04 //047   ----------------------------------------
 BYTE   N23  Dn1  v127
 BYTE   N92  Fn1  v060
 BYTE   W48
 BYTE   N11  Dn1  v127
 BYTE   W12
 BYTE   Dn1  v080
 BYTE   W24
 BYTE   N11
 BYTE   W12
//  #04 //048   ----------------------------------------
 BYTE   N11
 BYTE   W12
 BYTE   Dn1  v127
 BYTE   W48
 BYTE   GoTo
  POIN2 Label_01980646
//  #04 //049   ----------------------------------------
 BYTE   W36
 BYTE   W96
//  #04 //050   ----------------------------------------
 BYTE   W96
//  #04 //051   ----------------------------------------
 BYTE   W96
//  #04 //052   ----------------------------------------
 BYTE   W96
//  #04 //053   ----------------------------------------
 BYTE   W96
//  #04 //054   ----------------------------------------
 BYTE   W96
//  #04 //055   ----------------------------------------
 BYTE   W96
//  #04 //056   ----------------------------------------
 BYTE   W96
//  #04 //057   ----------------------------------------
 BYTE   W96
//  #04 //058   ----------------------------------------
 BYTE   W96
//  #04 //059   ----------------------------------------
 BYTE   W96
//  #04 //060   ----------------------------------------
 BYTE   W96
//  #04 //061   ----------------------------------------
 BYTE   W96
//  #04 //062   ----------------------------------------
 BYTE   W96
//  #04 //063   ----------------------------------------
 BYTE   W96
//  #04 //064   ----------------------------------------
 BYTE   W96
//  #04 //065   ----------------------------------------
 BYTE   W96
//  #04 //066   ----------------------------------------
 BYTE   W96
//  #04 //067   ----------------------------------------
 BYTE   W96
//  #04 //068   ----------------------------------------
 BYTE   W96
//  #04 //069   ----------------------------------------
 BYTE   W96
//  #04 //070   ----------------------------------------
 BYTE   W96
//  #04 //071   ----------------------------------------
 BYTE   W96
//  #04 //072   ----------------------------------------
 BYTE   W96
//  #04 //073   ----------------------------------------
 BYTE   W96
//  #04 //074   ----------------------------------------
 BYTE   W96
//  #04 //075   ----------------------------------------
 BYTE   W96
//  #04 //076   ----------------------------------------
 BYTE   W96
//  #04 //077   ----------------------------------------
 BYTE   W96
//  #04 //078   ----------------------------------------
 BYTE   W96
//  #04 //079   ----------------------------------------
 BYTE   W96
//  #04 //080   ----------------------------------------
 BYTE   W96
//  #04 //081   ----------------------------------------
 BYTE   W96
//  #04 //082   ----------------------------------------
 BYTE   W96
//  #04 //083   ----------------------------------------
 BYTE   W96
//  #04 //084   ----------------------------------------
 BYTE   W96
//  #04 //085   ----------------------------------------
 BYTE   W96
//  #04 //086   ----------------------------------------
 BYTE   W96
//  #04 //087   ----------------------------------------
 BYTE   W96
//  #04 //088   ----------------------------------------
 BYTE   W96
//  #04 //089   ----------------------------------------
 BYTE   W96
//  #04 //090   ----------------------------------------
 BYTE   W96
//  #04 //091   ----------------------------------------
 BYTE   W96
//  #04 //092   ----------------------------------------
 BYTE   W96
//  #04 //093   ----------------------------------------
 BYTE   W96
//  #04 //094   ----------------------------------------
 BYTE   W96
//  #04 //095   ----------------------------------------
 BYTE   W96
//  #04 //096   ----------------------------------------
 BYTE   W96
//  #04 //097   ----------------------------------------
 BYTE   W96
//  #04 //098   ----------------------------------------
 BYTE   W96
//  #04 //099   ----------------------------------------
 BYTE   W96
//  #04 //100   ----------------------------------------
 BYTE   W96
//  #04 //101   ----------------------------------------
 BYTE   W96
//  #04 //102   ----------------------------------------
 BYTE   W96
//  #04 //103   ----------------------------------------
 BYTE   W96
//  #04 //104   ----------------------------------------
 BYTE   W96
//  #04 //105   ----------------------------------------
 BYTE   W96
//  #04 //106   ----------------------------------------
 BYTE   W96
//  #04 //107   ----------------------------------------
 BYTE   W96
//  #04 //108   ----------------------------------------
 BYTE   W96
//  #04 //109   ----------------------------------------
 BYTE   W96
//  #04 //110   ----------------------------------------
 BYTE   W96
//  #04 //111   ----------------------------------------
 BYTE   W96
//  #04 //112   ----------------------------------------
 BYTE   W96
//  #04 //113   ----------------------------------------
 BYTE   W96
//  #04 //114   ----------------------------------------
 BYTE   W96
//  #04 //115   ----------------------------------------
 BYTE   W96
//  #04 //116   ----------------------------------------
 BYTE   W96
//  #04 //117   ----------------------------------------
 BYTE   W96
//  #04 //118   ----------------------------------------
 BYTE   W96
//  #04 //119   ----------------------------------------
 BYTE   W96
//  #04 //120   ----------------------------------------
 BYTE   W96
//  #04 //121   ----------------------------------------
 BYTE   W96
//  #04 //122   ----------------------------------------
 BYTE   W96
//  #04 //123   ----------------------------------------
 BYTE   W96
 BYTE   FINE

//**************** Track 5 (Midi-Chn.4) ****************//

AstrogirlSlowed_005:
//  #05 //000   ----------------------------------------
 BYTE   KEYSH   AstrogirlSlowed_key+0
Label_01980766:
 BYTE   VOICE   75
 BYTE   MODT 0
 BYTE   LFOS 44
 BYTE   VOL   53*AstrogirlSlowed_mvl/mxv
 BYTE   PAN   c_v+0
 BYTE   VOL   53*AstrogirlSlowed_mvl/mxv
 BYTE   PAN   c_v+0
 BYTE   W48
 BYTE   N32  Fs3  v060
 BYTE   W36
 BYTE   N11  Fn3
 BYTE   W12
//  #05 //001   ----------------------------------------
 BYTE   N68  Gs2
 BYTE   N68  Fn3
 BYTE   W72
 BYTE   N11  As2
 BYTE   N11  Fs3
 BYTE   W12
 BYTE   TIE  Gs2
 BYTE   N44  Fn3
 BYTE   W12
//  #05 //002   ----------------------------------------
 BYTE   W36
 BYTE   N11
 BYTE   W12
 BYTE   N11
 BYTE   W12
 BYTE   Fs3
 BYTE   W12
 BYTE   Fn3
 BYTE   W12
 BYTE   Gs3
 BYTE   W11
 BYTE   EOT
 BYTE   Gs2
 BYTE   W01
//  #05 //003   ----------------------------------------
 BYTE   N92  Cn4
 BYTE   W24
 BYTE   N23  Cs3
 BYTE   W24
 BYTE   Ds3
 BYTE   W24
 BYTE   Cs3
 BYTE   W24
//  #05 //004   ----------------------------------------
 BYTE   N44  Cn3
 BYTE   W24
 BYTE   N23  Fn4
 BYTE   W24
 BYTE   Gs2
 BYTE   N23  Ds4
 BYTE   W24
 BYTE   Fs2
 BYTE   N23  Cs4
 BYTE   W24
//  #05 //005   ----------------------------------------
 BYTE   N44  Fn2
 BYTE   N32  Cs4
 BYTE   W36
 BYTE   N11  Fn3
 BYTE   W12
 BYTE   N44  Gs2
 BYTE   N32  Fn3
 BYTE   W36
 BYTE   N11
 BYTE   W12
//  #05 //006   ----------------------------------------
 BYTE   N44  Ds3
 BYTE   N23  Gs3
 BYTE   W24
 BYTE   N23
 BYTE   W24
 BYTE   Cn3
 BYTE   W24
 BYTE   Fs3
 BYTE   W24
//  #05 //007   ----------------------------------------
 BYTE   TIE  Gs2
 BYTE   TIE  Fn3
 BYTE   W96
//  #05 //008   ----------------------------------------
 BYTE   W23
 BYTE   EOT
 BYTE   Gs2  v065
 BYTE   W13
 BYTE   N11  Cs3
 BYTE   W12
 BYTE   Ds3
 BYTE   W12
 BYTE   Cs3
 BYTE   W12
 BYTE   N23  Cn3
 BYTE   N23  Gs3
 BYTE   W24
//  #05 //009   ----------------------------------------
 BYTE   W24
 BYTE   N44  Gs2
 BYTE   N23  Fn3
 BYTE   W24
 BYTE   Ds3
 BYTE   W24
 BYTE   N11  Gs2
 BYTE   N11  Cs3
 BYTE   W12
 BYTE   N23
 BYTE   N23  Fs3
 BYTE   W12
//  #05 //010   ----------------------------------------
 BYTE   W12
 BYTE   Cs3
 BYTE   N23  Fn3
 BYTE   W24
 BYTE   Cn3
 BYTE   N23  Ds3
 BYTE   W12
 BYTE   W12
 BYTE   As2
 BYTE   N23  Cs3
 BYTE   W24
 BYTE   N32  Ds2
 BYTE   N32  Gs2
 BYTE   W12
//  #05 //011   ----------------------------------------
 BYTE   W36
 BYTE   N11
 BYTE   N11  Cs3
 BYTE   W12
 BYTE   N23  Cn3
 BYTE   N23  Ds3
 BYTE   W24
 BYTE   N11  Gs2
 BYTE   N11  Cs3
 BYTE   W12
 BYTE   N68  Fn3
 BYTE   N23  Gs3
 BYTE   W12
//  #05 //012   ----------------------------------------
 BYTE   W12
 BYTE   As3
 BYTE   W24
 BYTE   Gs3
 BYTE   W12
 BYTE   W12
 BYTE   N11  Cs3
 BYTE   N11  Fn3
 BYTE   W12
 BYTE   Cn3
 BYTE   N11  Ds3
 BYTE   W12
 BYTE   As2
 BYTE   N11  Cs3
 BYTE   W12
//  #05 //013   ----------------------------------------
 BYTE   W12
 BYTE   Fn2
 BYTE   N11  Gs2
 BYTE   W12
 BYTE   N11
 BYTE   N11  Cs3
 BYTE   W12
 BYTE   Fn2
 BYTE   N11  Gs2
 BYTE   W12
 BYTE   Cn3
 BYTE   N11  Ds3
 BYTE   W12
 BYTE   Cn3
 BYTE   N11  Ds3
 BYTE   W12
 BYTE   As2
 BYTE   N11  Cs3
 BYTE   W12
 BYTE   N23  Fn3
 BYTE   N23  Gs3
 BYTE   W12
//  #05 //014   ----------------------------------------
 BYTE   W12
 BYTE   N11  Cs3
 BYTE   N11  Fn3
 BYTE   W12
 BYTE   Cn3
 BYTE   N11  Ds3
 BYTE   W12
 BYTE   As2
 BYTE   N11  Cs3
 BYTE   W12
 BYTE   Cn3
 BYTE   N11  Ds3
 BYTE   W12
 BYTE   As2
 BYTE   N11  Cs3
 BYTE   W12
 BYTE   Fn3
 BYTE   N11  As3
 BYTE   W12
 BYTE   TIE  Cs3
 BYTE   TIE  Gs3
 BYTE   W12
//  #05 //015   ----------------------------------------
 BYTE   W96
//  #05 //016   ----------------------------------------
 BYTE   W44
 BYTE   W03
 BYTE   EOT
 BYTE   Cs3  v068
 BYTE   W48
 BYTE   W01
//  #05 //017   ----------------------------------------
 BYTE   N92  As3
 BYTE   W12
 BYTE   N11  Fn4
 BYTE   W12
 BYTE   N23
 BYTE   W24
 BYTE   Ds4
 BYTE   W24
 BYTE   N11  Cs4
 BYTE   W12
 BYTE   N23  Fs4
 BYTE   W12
//  #05 //018   ----------------------------------------
 BYTE   N84  Gs3
 BYTE   W12
 BYTE   N23  Fn4
 BYTE   W24
 BYTE   Ds4
 BYTE   W12
 BYTE   W12
 BYTE   Cs4
 BYTE   W24
 BYTE   N11  Gs3
 BYTE   W12
//  #05 //019   ----------------------------------------
 BYTE   N92  Fn3
 BYTE   W36
 BYTE   N11  Ds4
 BYTE   W12
 BYTE   N11
 BYTE   W12
 BYTE   N11
 BYTE   W12
 BYTE   Cs4
 BYTE   W12
 BYTE   N23  Gs4
 BYTE   W12
//  #05 //020   ----------------------------------------
 BYTE   N44  Gs3
 BYTE   W12
 BYTE   N23  As4
 BYTE   W24
 BYTE   Gs4
 BYTE   W12
 BYTE   N44  Cn4
 BYTE   W12
 BYTE   N11  Fn4
 BYTE   W12
 BYTE   Ds4
 BYTE   W12
 BYTE   Cs4
 BYTE   W12
//  #05 //021   ----------------------------------------
 BYTE   W12
 BYTE   Fn3
 BYTE   N11  Gs3
 BYTE   W12
 BYTE   N11
 BYTE   N11  Cs4
 BYTE   W12
 BYTE   Fn3
 BYTE   N11  Gs3
 BYTE   W12
 BYTE   Cn4
 BYTE   N11  Ds4
 BYTE   W12
 BYTE   Cn4
 BYTE   N11  Ds4
 BYTE   W12
 BYTE   Gs3
 BYTE   N11  Cs4
 BYTE   W12
 BYTE   N23  Fn4
 BYTE   N23  Gs4
 BYTE   W12
//  #05 //022   ----------------------------------------
 BYTE   W12
 BYTE   N11  Cs4
 BYTE   N11  Fn4
 BYTE   W12
 BYTE   Cn4
 BYTE   N11  Ds4
 BYTE   W12
 BYTE   Gs3
 BYTE   N11  Cs4
 BYTE   W12
 BYTE   Fs3
 BYTE   N11  Ds4
 BYTE   W12
 BYTE   Gs3
 BYTE   N11  Cs4
 BYTE   W12
 BYTE   Fn4
 BYTE   N11  As4
 BYTE   W12
 BYTE   TIE  Ds4
 BYTE   TIE  Gs4
 BYTE   W12
//  #05 //023   ----------------------------------------
Label_019808ED:
 BYTE   W92
 BYTE   W03
 BYTE   PEND 
 BYTE   EOT
 BYTE   Ds4  v080
 BYTE   W01
//  #05 //024   ----------------------------------------
 BYTE   W84
 BYTE   N11  Fn3  v080
 BYTE   N11  Gs3
 BYTE   W12
//  #05 //025   ----------------------------------------
 BYTE   N32  Fn3
 BYTE   N32  Gs3
 BYTE   W36
 BYTE   N11
 BYTE   N11  Cs4
 BYTE   W12
 BYTE   N32  Gs3
 BYTE   N32  Cs4
 BYTE   W36
 BYTE   N11  Gs3
 BYTE   N11  Cs4
 BYTE   W12
//  #05 //026   ----------------------------------------
 BYTE   N32  Fs3
 BYTE   N32  Cn4
 BYTE   W36
 BYTE   N11  Gs3
 BYTE   N11  Cs4
 BYTE   W12
 BYTE   N32  Fn3
 BYTE   N32  Gs3
 BYTE   W36
 BYTE   N11  Fn3
 BYTE   N11  Gs3
 BYTE   W12
//  #05 //027   ----------------------------------------
Label_01980922:
 BYTE   N32  Cs4  v080
 BYTE   N32  Fn4
 BYTE   W36
 BYTE   N11  Ds4
 BYTE   N11  Fs4
 BYTE   W12
 BYTE   N32  Cs4
 BYTE   N32  Fn4
 BYTE   W36
 BYTE   N11  Cn4
 BYTE   N11  Ds4
 BYTE   W12
 BYTE   PEND 
//  #05 //028   ----------------------------------------
 BYTE   N32  Cn4
 BYTE   N32  Ds4
 BYTE   W36
 BYTE   N11  Gs3
 BYTE   N11  Cs4
 BYTE   W12
 BYTE   N32  Fs3
 BYTE   N32  Cs4
 BYTE   W36
 BYTE   N11  Fs3
 BYTE   N11  Cs4
 BYTE   W12
//  #05 //029   ----------------------------------------
 BYTE   N32  Fn3
 BYTE   N32  Cs4
 BYTE   W36
 BYTE   N11
 BYTE   N11  Gs4
 BYTE   W12
 BYTE   N32  Cs4
 BYTE   N32  Gs4
 BYTE   W36
 BYTE   N11  Gs3
 BYTE   N11  Cs4
 BYTE   W12
//  #05 //030   ----------------------------------------
 BYTE   N32  Fs3
 BYTE   N32  Cn4
 BYTE   W36
 BYTE   N11  Gs3
 BYTE   N11  Cs4
 BYTE   W12
 BYTE   Fn3
 BYTE   N11  Gs3
 BYTE   W24
 BYTE   Fn3
 BYTE   N11  Gs3
 BYTE   W12
 BYTE   As3
 BYTE   N11  Cs4
 BYTE   W12
//  #05 //031   ----------------------------------------
 BYTE   N23
 BYTE   N23  Fn4
 BYTE   W24
 BYTE   N11  As3
 BYTE   N11  Cs4
 BYTE   W12
 BYTE   N23
 BYTE   N23  Fn4
 BYTE   W12
 BYTE   W12
 BYTE   Ds4
 BYTE   N23  Fs4
 BYTE   W24
 BYTE   N44  Cs4
 BYTE   N44  Fn4
 BYTE   W12
//  #05 //032   ----------------------------------------
 BYTE   W36
 BYTE   N32  Cn4
 BYTE   N32  Ds4
 BYTE   W12
 BYTE   W36
 BYTE   N11  Cs4
 BYTE   W12
//  #05 //033   ----------------------------------------
 BYTE   N32
 BYTE   W36
 BYTE   N11  Gs3
 BYTE   W12
 BYTE   N23  Gs4
 BYTE   W36
 BYTE   N11  Cs4
 BYTE   W12
//  #05 //034   ----------------------------------------
 BYTE   N32
 BYTE   W36
 BYTE   N11  Gs3
 BYTE   W12
 BYTE   N23  Gs4
 BYTE   W24
 BYTE   N11  Gs3
 BYTE   W12
 BYTE   N11
 BYTE   W12
//  #05 //035   ----------------------------------------
 BYTE   Cs4
 BYTE   N11  Fn4
 BYTE   W12
 BYTE   Ds4
 BYTE   N11  Fs4
 BYTE   W12
 BYTE   Cs4
 BYTE   N11  Fn4
 BYTE   W12
 BYTE   Cn4
 BYTE   N11  Ds4
 BYTE   W12
 BYTE   Cn4
 BYTE   N11  Ds4
 BYTE   W12
 BYTE   Gs3
 BYTE   N11  Cs4
 BYTE   W12
 BYTE   Fn3
 BYTE   N11  Gs3
 BYTE   W12
 BYTE   Fn3
 BYTE   N11  Gs3
 BYTE   W12
//  #05 //036   ----------------------------------------
 BYTE   Cs4
 BYTE   N11  Fn4
 BYTE   W12
 BYTE   Ds4
 BYTE   N11  Fs4
 BYTE   W12
 BYTE   Cs4
 BYTE   N11  Fn4
 BYTE   W12
 BYTE   Cn4
 BYTE   N11  Ds4
 BYTE   W12
 BYTE   Cn4
 BYTE   N11  Ds4
 BYTE   W12
 BYTE   N11
 BYTE   N11  Gs4
 BYTE   W12
 BYTE   Gs3
 BYTE   N11  Cs4
 BYTE   W12
 BYTE   Ds3
 BYTE   N11  Gs3
 BYTE   W12
//  #05 //037   ----------------------------------------
 BYTE   N23  Fn3
 BYTE   N23  Gs3
 BYTE   W36
 BYTE   N11
 BYTE   N11  Ds4
 BYTE   W12
 BYTE   N32  Gs3
 BYTE   N32  Ds4
 BYTE   W36
 BYTE   N11  Fs3
 BYTE   N11  Cs4
 BYTE   W12
//  #05 //038   ----------------------------------------
 BYTE   N32  Fn3
 BYTE   N32  Gs3
 BYTE   W36
 BYTE   N11  Fn3
 BYTE   N11  Gs3
 BYTE   W12
 BYTE   As3
 BYTE   N11  Ds4
 BYTE   W12
 BYTE   Cs4
 BYTE   N11  Fn4
 BYTE   W12
 BYTE   Ds4
 BYTE   N11  Fs4
 BYTE   W12
 BYTE   N32  Cs4
 BYTE   N32  Fn4
 BYTE   W12
//  #05 //039   ----------------------------------------
 BYTE   W24
 BYTE   N44  Cn4
 BYTE   N44  Ds4
 BYTE   W60
 BYTE   N11  Fn3
 BYTE   N11  Gs3
 BYTE   W12
//  #05 //040   ----------------------------------------
 BYTE   PATT
  POIN2 Label_01980922
//  #05 //041   ----------------------------------------
 BYTE   N32  Cn4  v080
 BYTE   N32  Ds4
 BYTE   W36
 BYTE   TIE  Gs3
 BYTE   TIE  Cs4
 BYTE   W12
 BYTE   W48
//  #05 //042   ----------------------------------------
 BYTE   W92
 BYTE   W03
 BYTE   EOT
 BYTE   Gs3  v073
 BYTE   W01
//  #05 //043   ----------------------------------------
 BYTE   TIE  En4  v060
 BYTE   W96
//  #05 //044   ----------------------------------------
 BYTE   W36
 BYTE   N11  Cs3  v080
 BYTE   N11  Cs4
 BYTE   W12
 BYTE   Ds3
 BYTE   N11  Ds4
 BYTE   W12
 BYTE   Cs3
 BYTE   N11  Cs4
 BYTE   W12
 BYTE   N23  Gs2
 BYTE   N23  Gs3
 BYTE   W23
 BYTE   EOT
 BYTE   En4
 BYTE   W01
//  #05 //045   ----------------------------------------
 BYTE   TIE  Gs3  v060
 BYTE   W96
//  #05 //046   ----------------------------------------
 BYTE   PATT
  POIN2 Label_019808ED
//  #05 //047   ----------------------------------------
 BYTE   EOT
 BYTE   Gs3
 BYTE   W01
 BYTE   N92  Bn3  v060
 BYTE   W96
//  #05 //048   ----------------------------------------
 BYTE   N05  Bn3  v116
 BYTE   W01
 BYTE   W01
 BYTE   W01
 BYTE   W01
 BYTE   W01
 BYTE   W07
 BYTE   N05
 BYTE   W01
 BYTE   W01
 BYTE   W01
 BYTE   W01
 BYTE   W01
 BYTE   W30
 BYTE   W01
 BYTE   W12
 BYTE   GoTo
  POIN2 Label_01980766
//  #05 //049   ----------------------------------------
 BYTE   W36
 BYTE   W96
//  #05 //050   ----------------------------------------
 BYTE   W96
//  #05 //051   ----------------------------------------
 BYTE   W96
//  #05 //052   ----------------------------------------
 BYTE   W96
//  #05 //053   ----------------------------------------
 BYTE   W96
//  #05 //054   ----------------------------------------
 BYTE   W96
//  #05 //055   ----------------------------------------
 BYTE   W96
//  #05 //056   ----------------------------------------
 BYTE   W96
//  #05 //057   ----------------------------------------
 BYTE   W96
//  #05 //058   ----------------------------------------
 BYTE   W96
//  #05 //059   ----------------------------------------
 BYTE   W96
//  #05 //060   ----------------------------------------
 BYTE   W96
//  #05 //061   ----------------------------------------
 BYTE   W96
//  #05 //062   ----------------------------------------
 BYTE   W96
//  #05 //063   ----------------------------------------
 BYTE   W96
//  #05 //064   ----------------------------------------
 BYTE   W96
//  #05 //065   ----------------------------------------
 BYTE   W96
//  #05 //066   ----------------------------------------
 BYTE   W96
//  #05 //067   ----------------------------------------
 BYTE   W96
//  #05 //068   ----------------------------------------
 BYTE   W96
//  #05 //069   ----------------------------------------
 BYTE   W96
//  #05 //070   ----------------------------------------
 BYTE   W96
//  #05 //071   ----------------------------------------
 BYTE   W96
//  #05 //072   ----------------------------------------
 BYTE   W96
//  #05 //073   ----------------------------------------
 BYTE   W96
//  #05 //074   ----------------------------------------
 BYTE   W96
//  #05 //075   ----------------------------------------
 BYTE   W96
//  #05 //076   ----------------------------------------
 BYTE   W96
//  #05 //077   ----------------------------------------
 BYTE   W96
//  #05 //078   ----------------------------------------
 BYTE   W96
//  #05 //079   ----------------------------------------
 BYTE   W96
//  #05 //080   ----------------------------------------
 BYTE   W96
//  #05 //081   ----------------------------------------
 BYTE   W96
//  #05 //082   ----------------------------------------
 BYTE   W96
//  #05 //083   ----------------------------------------
 BYTE   W96
//  #05 //084   ----------------------------------------
 BYTE   W96
//  #05 //085   ----------------------------------------
 BYTE   W96
//  #05 //086   ----------------------------------------
 BYTE   W96
//  #05 //087   ----------------------------------------
 BYTE   W96
//  #05 //088   ----------------------------------------
 BYTE   W96
//  #05 //089   ----------------------------------------
 BYTE   W96
//  #05 //090   ----------------------------------------
 BYTE   W96
//  #05 //091   ----------------------------------------
 BYTE   W96
//  #05 //092   ----------------------------------------
 BYTE   W96
//  #05 //093   ----------------------------------------
 BYTE   W96
//  #05 //094   ----------------------------------------
 BYTE   W96
//  #05 //095   ----------------------------------------
 BYTE   W96
//  #05 //096   ----------------------------------------
 BYTE   W96
//  #05 //097   ----------------------------------------
 BYTE   W96
//  #05 //098   ----------------------------------------
 BYTE   W96
//  #05 //099   ----------------------------------------
 BYTE   W96
//  #05 //100   ----------------------------------------
 BYTE   W96
//  #05 //101   ----------------------------------------
 BYTE   W96
//  #05 //102   ----------------------------------------
 BYTE   W96
//  #05 //103   ----------------------------------------
 BYTE   W96
//  #05 //104   ----------------------------------------
 BYTE   W96
//  #05 //105   ----------------------------------------
 BYTE   W96
//  #05 //106   ----------------------------------------
 BYTE   W96
//  #05 //107   ----------------------------------------
 BYTE   W96
//  #05 //108   ----------------------------------------
 BYTE   W96
//  #05 //109   ----------------------------------------
 BYTE   W96
//  #05 //110   ----------------------------------------
 BYTE   W96
//  #05 //111   ----------------------------------------
 BYTE   W96
//  #05 //112   ----------------------------------------
 BYTE   W96
//  #05 //113   ----------------------------------------
 BYTE   W96
//  #05 //114   ----------------------------------------
 BYTE   W96
//  #05 //115   ----------------------------------------
 BYTE   W96
//  #05 //116   ----------------------------------------
 BYTE   W96
//  #05 //117   ----------------------------------------
 BYTE   W96
//  #05 //118   ----------------------------------------
 BYTE   W96
//  #05 //119   ----------------------------------------
 BYTE   W96
//  #05 //120   ----------------------------------------
 BYTE   W96
//  #05 //121   ----------------------------------------
 BYTE   W96
//  #05 //122   ----------------------------------------
 BYTE   W96
//  #05 //123   ----------------------------------------
 BYTE   W96
 BYTE   FINE

//**************** Track 6 (Midi-Chn.5) ****************//

AstrogirlSlowed_006:
//  #06 //000   ----------------------------------------
 BYTE   KEYSH   AstrogirlSlowed_key+0
Label_01980AD2:
 BYTE   VOICE   45
 BYTE   MODT 0
 BYTE   LFOS 44
 BYTE   VOL   53*AstrogirlSlowed_mvl/mxv
 BYTE   PAN   c_v+0
 BYTE   VOL   53*AstrogirlSlowed_mvl/mxv
 BYTE   PAN   c_v+0
 BYTE   W96
//  #06 //001   ----------------------------------------
 BYTE   N68  Cs2  v060
 BYTE   W72
 BYTE   N11  Ds2
 BYTE   W12
 BYTE   N32  Fn2
 BYTE   W12
//  #06 //002   ----------------------------------------
 BYTE   W24
 BYTE   N44  Cs2
 BYTE   W48
 BYTE   N11  Cn2
 BYTE   W12
 BYTE   As1
 BYTE   W12
//  #06 //003   ----------------------------------------
Label_01980AF4:
 BYTE   N92  Gs1  v060
 BYTE   W96
 BYTE   PEND 
//  #06 //004   ----------------------------------------
 BYTE   N44  Gs2
 BYTE   W48
 BYTE   N23  Ds2
 BYTE   W24
 BYTE   Cn2
 BYTE   W24
//  #06 //005   ----------------------------------------
 BYTE   N68  As1
 BYTE   W72
 BYTE   N23
 BYTE   W24
//  #06 //006   ----------------------------------------
 BYTE   N44  Gs1
 BYTE   W48
 BYTE   N23  Ds2
 BYTE   W24
 BYTE   Gs1
 BYTE   W24
//  #06 //007   ----------------------------------------
Label_01980B0E:
 BYTE   N32  Fs1  v060
 BYTE   W36
 BYTE   N11  Fn1
 BYTE   W12
 BYTE   Fs1
 BYTE   W12
 BYTE   Fn1
 BYTE   W12
 BYTE   Fs1
 BYTE   W12
 BYTE   Gs1
 BYTE   W12
 BYTE   PEND 
//  #06 //008   ----------------------------------------
 BYTE   As1
 BYTE   W12
 BYTE   Fs1
 BYTE   W12
 BYTE   Gs1
 BYTE   W12
 BYTE   As1
 BYTE   W12
 BYTE   N23  Cn2
 BYTE   W24
 BYTE   Ds2
 BYTE   W24
//  #06 //009   ----------------------------------------
 BYTE   N92  Cs2
 BYTE   W96
//  #06 //010   ----------------------------------------
 BYTE   N68  Fn2
 BYTE   W72
 BYTE   N11  Ds2
 BYTE   W12
 BYTE   Cs2
 BYTE   W12
//  #06 //011   ----------------------------------------
 BYTE   N92  Cn2
 BYTE   W96
//  #06 //012   ----------------------------------------
 BYTE   N44  Gs2
 BYTE   W48
 BYTE   N23  Cn2
 BYTE   W24
 BYTE   N11  Cs2
 BYTE   W12
 BYTE   Cn2
 BYTE   W12
//  #06 //013   ----------------------------------------
 BYTE   N92  As1
 BYTE   W96
//  #06 //014   ----------------------------------------
 BYTE   PATT
  POIN2 Label_01980AF4
//  #06 //015   ----------------------------------------
 BYTE   PATT
  POIN2 Label_01980B0E
//  #06 //016   ----------------------------------------
 BYTE   N11  As1  v060
 BYTE   W12
 BYTE   Fs1
 BYTE   W12
 BYTE   Gs1
 BYTE   W12
 BYTE   As1
 BYTE   W12
 BYTE   N23  Cn2
 BYTE   W24
 BYTE   Cs2
 BYTE   W24
//  #06 //017   ----------------------------------------
 BYTE   N68
 BYTE   W72
 BYTE   N11  Cn2
 BYTE   W12
 BYTE   Cs2
 BYTE   W12
//  #06 //018   ----------------------------------------
 BYTE   N23
 BYTE   W24
 BYTE   Ds2
 BYTE   W24
 BYTE   Fn2
 BYTE   W24
 BYTE   Cs2
 BYTE   W24
//  #06 //019   ----------------------------------------
 BYTE   N68  Gs2
 BYTE   W72
 BYTE   N11  Fs2
 BYTE   W12
 BYTE   Fn2
 BYTE   W12
//  #06 //020   ----------------------------------------
 BYTE   N44  Ds2
 BYTE   W48
 BYTE   Cs2
 BYTE   W48
//  #06 //021   ----------------------------------------
 BYTE   N92  Fs2
 BYTE   W96
//  #06 //022   ----------------------------------------
 BYTE   Gs2
 BYTE   W96
//  #06 //023   ----------------------------------------
 BYTE   N11
 BYTE   N11  Cs3
 BYTE   W12
 BYTE   Fs2
 BYTE   N11  Bn2
 BYTE   W12
 BYTE   Gs2
 BYTE   N11  Cs3
 BYTE   W12
 BYTE   As2
 BYTE   N11  Ds3
 BYTE   W12
 BYTE   Cs3
 BYTE   N11  Fs3
 BYTE   W12
 BYTE   Bn2
 BYTE   N11  Ds3
 BYTE   W12
 BYTE   Cs3
 BYTE   N11  Fs3
 BYTE   W12
 BYTE   Cs3
 BYTE   N11  Fn3
 BYTE   W12
//  #06 //024   ----------------------------------------
 BYTE   N92  Cn3
 BYTE   N92  Ds3
 BYTE   W96
//  #06 //025   ----------------------------------------
 BYTE   N32  Gs2  v080
 BYTE   W36
 BYTE   N11  Cs3
 BYTE   W12
 BYTE   N32
 BYTE   W36
 BYTE   N11
 BYTE   W12
//  #06 //026   ----------------------------------------
 BYTE   N32  Cn3
 BYTE   W36
 BYTE   N11  Cs3
 BYTE   W12
 BYTE   N32  Gs2
 BYTE   W36
 BYTE   N11
 BYTE   W12
//  #06 //027   ----------------------------------------
Label_01980BBC:
 BYTE   N32  Fn3  v080
 BYTE   W36
 BYTE   N11  Fs3
 BYTE   W12
 BYTE   N32  Fn3
 BYTE   W36
 BYTE   N11  Ds3
 BYTE   W12
 BYTE   PEND 
//  #06 //028   ----------------------------------------
 BYTE   N32
 BYTE   W36
 BYTE   N11  Cs3
 BYTE   W12
 BYTE   N32
 BYTE   W36
 BYTE   N11
 BYTE   W12
//  #06 //029   ----------------------------------------
 BYTE   N32
 BYTE   W36
 BYTE   N11  Gs3
 BYTE   W12
 BYTE   N32
 BYTE   W36
 BYTE   N11  Cs3
 BYTE   W12
//  #06 //030   ----------------------------------------
 BYTE   N32  Cn3
 BYTE   W36
 BYTE   N11  Cs3
 BYTE   W12
 BYTE   Gs2
 BYTE   W24
 BYTE   N11
 BYTE   W12
 BYTE   Cs3
 BYTE   W12
//  #06 //031   ----------------------------------------
 BYTE   N23  Fn3
 BYTE   W24
 BYTE   N11  Cs3
 BYTE   W12
 BYTE   N23  Fn3
 BYTE   W12
 BYTE   W12
 BYTE   Fs3
 BYTE   W24
 BYTE   N44  Fn3
 BYTE   W12
//  #06 //032   ----------------------------------------
 BYTE   W36
 BYTE   N32  Ds3
 BYTE   W12
 BYTE   W36
 BYTE   N11  Cs3
 BYTE   W12
//  #06 //033   ----------------------------------------
 BYTE   N32
 BYTE   W36
 BYTE   N11  Gs2
 BYTE   W12
 BYTE   N23  Gs3
 BYTE   W36
 BYTE   N11  Cs3
 BYTE   W12
//  #06 //034   ----------------------------------------
 BYTE   N32
 BYTE   W36
 BYTE   N11  Gs2
 BYTE   W12
 BYTE   N23  Gs3
 BYTE   W24
 BYTE   N11  Gs2
 BYTE   W12
 BYTE   N11
 BYTE   W12
//  #06 //035   ----------------------------------------
 BYTE   Fn3
 BYTE   W12
 BYTE   Fs3
 BYTE   W12
 BYTE   Fn3
 BYTE   W12
 BYTE   Ds3
 BYTE   W12
 BYTE   N11
 BYTE   W12
 BYTE   Cs3
 BYTE   W12
 BYTE   Gs2
 BYTE   W12
 BYTE   N11
 BYTE   W12
//  #06 //036   ----------------------------------------
 BYTE   Fn3
 BYTE   W12
 BYTE   Fs3
 BYTE   W12
 BYTE   Fn3
 BYTE   W12
 BYTE   Ds3
 BYTE   W12
 BYTE   N11
 BYTE   W12
 BYTE   Gs3
 BYTE   W12
 BYTE   Cs3
 BYTE   W12
 BYTE   Gs2
 BYTE   W12
//  #06 //037   ----------------------------------------
 BYTE   N23
 BYTE   W36
 BYTE   N11  Ds3
 BYTE   W12
 BYTE   N32
 BYTE   W36
 BYTE   N11  Cs3
 BYTE   W12
//  #06 //038   ----------------------------------------
 BYTE   N32  Gs2
 BYTE   W36
 BYTE   N11
 BYTE   W12
 BYTE   Ds3
 BYTE   W12
 BYTE   Fn3
 BYTE   W12
 BYTE   Fs3
 BYTE   W12
 BYTE   N32  Fn3
 BYTE   W12
//  #06 //039   ----------------------------------------
 BYTE   W24
 BYTE   N44  Ds3
 BYTE   W60
 BYTE   N11  Gs2
 BYTE   W12
//  #06 //040   ----------------------------------------
 BYTE   PATT
  POIN2 Label_01980BBC
//  #06 //041   ----------------------------------------
 BYTE   N32  Ds3  v080
 BYTE   W36
 BYTE   TIE  Cs3
 BYTE   W12
 BYTE   W48
//  #06 //042   ----------------------------------------
 BYTE   W92
 BYTE   W03
 BYTE   EOT
 BYTE   W01
//  #06 //043   ----------------------------------------
 BYTE   W96
//  #06 //044   ----------------------------------------
 BYTE   W36
 BYTE   N11
 BYTE   W12
 BYTE   Ds3
 BYTE   W12
 BYTE   Cs3
 BYTE   W12
 BYTE   N23  Gs2
 BYTE   W24
//  #06 //045   ----------------------------------------
 BYTE   W96
//  #06 //046   ----------------------------------------
 BYTE   W96
//  #06 //047   ----------------------------------------
 BYTE   W96
//  #06 //048   ----------------------------------------
 BYTE   W60
 BYTE   GoTo
  POIN2 Label_01980AD2
//  #06 //049   ----------------------------------------
 BYTE   W36
 BYTE   W96
//  #06 //050   ----------------------------------------
 BYTE   W96
//  #06 //051   ----------------------------------------
 BYTE   W96
//  #06 //052   ----------------------------------------
 BYTE   W96
//  #06 //053   ----------------------------------------
 BYTE   W96
//  #06 //054   ----------------------------------------
 BYTE   W96
//  #06 //055   ----------------------------------------
 BYTE   W96
//  #06 //056   ----------------------------------------
 BYTE   W96
//  #06 //057   ----------------------------------------
 BYTE   W96
//  #06 //058   ----------------------------------------
 BYTE   W96
//  #06 //059   ----------------------------------------
 BYTE   W96
//  #06 //060   ----------------------------------------
 BYTE   W96
//  #06 //061   ----------------------------------------
 BYTE   W96
//  #06 //062   ----------------------------------------
 BYTE   W96
//  #06 //063   ----------------------------------------
 BYTE   W96
//  #06 //064   ----------------------------------------
 BYTE   W96
//  #06 //065   ----------------------------------------
 BYTE   W96
//  #06 //066   ----------------------------------------
 BYTE   W96
//  #06 //067   ----------------------------------------
 BYTE   W96
//  #06 //068   ----------------------------------------
 BYTE   W96
//  #06 //069   ----------------------------------------
 BYTE   W96
//  #06 //070   ----------------------------------------
 BYTE   W96
//  #06 //071   ----------------------------------------
 BYTE   W96
//  #06 //072   ----------------------------------------
 BYTE   W96
//  #06 //073   ----------------------------------------
 BYTE   W96
//  #06 //074   ----------------------------------------
 BYTE   W96
//  #06 //075   ----------------------------------------
 BYTE   W96
//  #06 //076   ----------------------------------------
 BYTE   W96
//  #06 //077   ----------------------------------------
 BYTE   W96
//  #06 //078   ----------------------------------------
 BYTE   W96
//  #06 //079   ----------------------------------------
 BYTE   W96
//  #06 //080   ----------------------------------------
 BYTE   W96
//  #06 //081   ----------------------------------------
 BYTE   W96
//  #06 //082   ----------------------------------------
 BYTE   W96
//  #06 //083   ----------------------------------------
 BYTE   W96
//  #06 //084   ----------------------------------------
 BYTE   W96
//  #06 //085   ----------------------------------------
 BYTE   W96
//  #06 //086   ----------------------------------------
 BYTE   W96
//  #06 //087   ----------------------------------------
 BYTE   W96
//  #06 //088   ----------------------------------------
 BYTE   W96
//  #06 //089   ----------------------------------------
 BYTE   W96
//  #06 //090   ----------------------------------------
 BYTE   W96
//  #06 //091   ----------------------------------------
 BYTE   W96
//  #06 //092   ----------------------------------------
 BYTE   W96
//  #06 //093   ----------------------------------------
 BYTE   W96
//  #06 //094   ----------------------------------------
 BYTE   W96
//  #06 //095   ----------------------------------------
 BYTE   W96
//  #06 //096   ----------------------------------------
 BYTE   W96
//  #06 //097   ----------------------------------------
 BYTE   W96
//  #06 //098   ----------------------------------------
 BYTE   W96
//  #06 //099   ----------------------------------------
 BYTE   W96
//  #06 //100   ----------------------------------------
 BYTE   W96
//  #06 //101   ----------------------------------------
 BYTE   W96
//  #06 //102   ----------------------------------------
 BYTE   W96
//  #06 //103   ----------------------------------------
 BYTE   W96
//  #06 //104   ----------------------------------------
 BYTE   W96
//  #06 //105   ----------------------------------------
 BYTE   W96
//  #06 //106   ----------------------------------------
 BYTE   W96
//  #06 //107   ----------------------------------------
 BYTE   W96
//  #06 //108   ----------------------------------------
 BYTE   W96
//  #06 //109   ----------------------------------------
 BYTE   W96
//  #06 //110   ----------------------------------------
 BYTE   W96
//  #06 //111   ----------------------------------------
 BYTE   W96
//  #06 //112   ----------------------------------------
 BYTE   W96
//  #06 //113   ----------------------------------------
 BYTE   W96
//  #06 //114   ----------------------------------------
 BYTE   W96
//  #06 //115   ----------------------------------------
 BYTE   W96
//  #06 //116   ----------------------------------------
 BYTE   W96
//  #06 //117   ----------------------------------------
 BYTE   W96
//  #06 //118   ----------------------------------------
 BYTE   W96
//  #06 //119   ----------------------------------------
 BYTE   W96
//  #06 //120   ----------------------------------------
 BYTE   W96
//  #06 //121   ----------------------------------------
 BYTE   W96
//  #06 //122   ----------------------------------------
 BYTE   W96
//  #06 //123   ----------------------------------------
 BYTE   W96
 BYTE   FINE

//**************** Track 7 (Midi-Chn.6) ****************//

AstrogirlSlowed_007:
//  #07 //000   ----------------------------------------
 BYTE   KEYSH   AstrogirlSlowed_key+0
Label_01980CCE:
 BYTE   VOICE   77
 BYTE   MODT 0
 BYTE   LFOS 44
 BYTE   VOL   54*AstrogirlSlowed_mvl/mxv
 BYTE   PAN   c_v+0
 BYTE   VOL   53*AstrogirlSlowed_mvl/mxv
 BYTE   PAN   c_v+0
 BYTE   W96
//  #07 //001   ----------------------------------------
 BYTE   N68  Gs2  v060
 BYTE   W72
 BYTE   N11  As2
 BYTE   W12
 BYTE   TIE  Gs2
 BYTE   W12
//  #07 //002   ----------------------------------------
Label_01980CE7:
 BYTE   W92
 BYTE   W03
 BYTE   PEND 
 BYTE   EOT
 BYTE   Gs2
 BYTE   W01
//  #07 //003   ----------------------------------------
 BYTE   W24
 BYTE   N23  Cs3  v060
 BYTE   W24
 BYTE   Ds3
 BYTE   W24
 BYTE   Cs3
 BYTE   W24
//  #07 //004   ----------------------------------------
 BYTE   N44  Cn3
 BYTE   W48
 BYTE   N23  Gs2
 BYTE   W24
 BYTE   Fs2
 BYTE   W24
//  #07 //005   ----------------------------------------
 BYTE   N44  Fn2
 BYTE   W48
 BYTE   Gs2
 BYTE   W48
//  #07 //006   ----------------------------------------
 BYTE   Ds3
 BYTE   W48
 BYTE   Cn3
 BYTE   W48
//  #07 //007   ----------------------------------------
Label_01980D07:
 BYTE   TIE  Gs2  v060
 BYTE   W96
 BYTE   PEND 
//  #07 //008   ----------------------------------------
 BYTE   W23
 BYTE   EOT
 BYTE   W13
 BYTE   N11  Cs3
 BYTE   W12
 BYTE   Ds3
 BYTE   W12
 BYTE   Cs3
 BYTE   W12
 BYTE   N23  Cn3
 BYTE   W24
//  #07 //009   ----------------------------------------
 BYTE   W24
 BYTE   N44  Gs2
 BYTE   W48
 BYTE   N11
 BYTE   W12
 BYTE   N23  Cs3
 BYTE   W12
//  #07 //010   ----------------------------------------
 BYTE   W12
 BYTE   N23
 BYTE   W24
 BYTE   Cn3
 BYTE   W12
 BYTE   W12
 BYTE   As2
 BYTE   W24
 BYTE   N32  Ds2
 BYTE   W12
//  #07 //011   ----------------------------------------
 BYTE   W36
 BYTE   N11  Gs2
 BYTE   W12
 BYTE   N23  Cn3
 BYTE   W24
 BYTE   N11  Gs2
 BYTE   W12
 BYTE   N68  Fn3
 BYTE   W12
//  #07 //012   ----------------------------------------
 BYTE   W48
 BYTE   W12
 BYTE   N11  Cs3
 BYTE   W12
 BYTE   Cn3
 BYTE   W12
 BYTE   As2
 BYTE   W12
//  #07 //013   ----------------------------------------
 BYTE   W12
 BYTE   Fn2
 BYTE   W12
 BYTE   Gs2
 BYTE   W12
 BYTE   Fn2
 BYTE   W12
 BYTE   Cn3
 BYTE   W12
 BYTE   N11
 BYTE   W12
 BYTE   As2
 BYTE   W12
 BYTE   N23  Fn3
 BYTE   W12
//  #07 //014   ----------------------------------------
 BYTE   W12
 BYTE   N11  Cs3
 BYTE   W12
 BYTE   Cn3
 BYTE   W12
 BYTE   As2
 BYTE   W12
 BYTE   Cn3
 BYTE   W12
 BYTE   As2
 BYTE   W12
 BYTE   Fn3
 BYTE   W12
 BYTE   TIE  Cs3
 BYTE   W12
//  #07 //015   ----------------------------------------
 BYTE   W96
//  #07 //016   ----------------------------------------
 BYTE   W44
 BYTE   W03
 BYTE   EOT
 BYTE   W48
 BYTE   W01
//  #07 //017   ----------------------------------------
 BYTE   N92  Fs3
 BYTE   W96
//  #07 //018   ----------------------------------------
Label_01980D6D:
 BYTE   N92  Cs3  v060
 BYTE   W96
 BYTE   PEND 
//  #07 //019   ----------------------------------------
 BYTE   PATT
  POIN2 Label_01980D6D
//  #07 //020   ----------------------------------------
 BYTE   N44  Ds3  v060
 BYTE   W48
 BYTE   Gs2
 BYTE   W48
//  #07 //021   ----------------------------------------
 BYTE   PATT
  POIN2 Label_01980D6D
//  #07 //022   ----------------------------------------
 BYTE   PATT
  POIN2 Label_01980D6D
//  #07 //023   ----------------------------------------
 BYTE   N11  Cs3  v060
 BYTE   W12
 BYTE   Bn2
 BYTE   W12
 BYTE   Cs3
 BYTE   W12
 BYTE   Ds3
 BYTE   W12
 BYTE   Fs3
 BYTE   W12
 BYTE   Ds3
 BYTE   W12
 BYTE   Fs3
 BYTE   W12
 BYTE   Cs4
 BYTE   W12
//  #07 //024   ----------------------------------------
 BYTE   N92  Cn4
 BYTE   W96
//  #07 //025   ----------------------------------------
Label_01980D9C:
 BYTE   N68  Gs2  v080
 BYTE   W72
 BYTE   N23  Ds3
 BYTE   W24
 BYTE   PEND 
//  #07 //026   ----------------------------------------
 BYTE   N32  Cn3
 BYTE   W36
 BYTE   N11  Cs3
 BYTE   W12
 BYTE   N32
 BYTE   W36
 BYTE   N11  Gs2
 BYTE   W12
//  #07 //027   ----------------------------------------
Label_01980DAF:
 BYTE   N92  Cs3  v080
 BYTE   W96
 BYTE   PEND 
//  #07 //028   ----------------------------------------
 BYTE   N23
 BYTE   W24
 BYTE   Ds3
 BYTE   W24
 BYTE   Cs3
 BYTE   W24
 BYTE   N11  Cn3
 BYTE   W12
 BYTE   As2
 BYTE   W12
//  #07 //029   ----------------------------------------
Label_01980DBF:
 BYTE   N68  Gs2  v080
 BYTE   W72
 BYTE   N23  Cn3
 BYTE   W24
 BYTE   PEND 
//  #07 //030   ----------------------------------------
 BYTE   N32
 BYTE   W36
 BYTE   N11  Cs3
 BYTE   W12
 BYTE   N44
 BYTE   W48
//  #07 //031   ----------------------------------------
 BYTE   N92  As2
 BYTE   W96
//  #07 //032   ----------------------------------------
Label_01980DD1:
 BYTE   N44  Cn3  v080
 BYTE   W48
 BYTE   As2
 BYTE   W48
 BYTE   PEND 
//  #07 //033   ----------------------------------------
 BYTE   PATT
  POIN2 Label_01980DBF
//  #07 //034   ----------------------------------------
 BYTE   PATT
  POIN2 Label_01980DAF
//  #07 //035   ----------------------------------------
 BYTE   N68  Fs3  v080
 BYTE   W72
 BYTE   N23  Cs3
 BYTE   W24
//  #07 //036   ----------------------------------------
 BYTE   PATT
  POIN2 Label_01980DD1
//  #07 //037   ----------------------------------------
 BYTE   PATT
  POIN2 Label_01980D9C
//  #07 //038   ----------------------------------------
 BYTE   PATT
  POIN2 Label_01980DAF
//  #07 //039   ----------------------------------------
 BYTE   N68  As2  v080
 BYTE   W72
 BYTE   N23  Cs3
 BYTE   W24
//  #07 //040   ----------------------------------------
 BYTE   N44  Cn3
 BYTE   W48
 BYTE   Gs2
 BYTE   W48
//  #07 //041   ----------------------------------------
 BYTE   PATT
  POIN2 Label_01980D07
//  #07 //042   ----------------------------------------
 BYTE   PATT
  POIN2 Label_01980CE7
//  #07 //043   ----------------------------------------
 BYTE   EOT
 BYTE   Gs2
 BYTE   W01
 BYTE   TIE  Bn2  v060
 BYTE   W96
//  #07 //044   ----------------------------------------
 BYTE   PATT
  POIN2 Label_01980CE7
//  #07 //045   ----------------------------------------
 BYTE   EOT
 BYTE   Bn2
 BYTE   W01
 BYTE   TIE  Fn2  v060
 BYTE   W96
//  #07 //046   ----------------------------------------
 BYTE   PATT
  POIN2 Label_01980CE7
//  #07 //047   ----------------------------------------
 BYTE   EOT
 BYTE   Fn2
 BYTE   W01
 BYTE   N92  Bn2  v060
 BYTE   W96
//  #07 //048   ----------------------------------------
 BYTE   N05  Bn2  v116
 BYTE   W01
 BYTE   W01
 BYTE   W01
 BYTE   W01
 BYTE   W01
 BYTE   W07
 BYTE   N05
 BYTE   W01
 BYTE   W01
 BYTE   W01
 BYTE   W01
 BYTE   W01
 BYTE   W30
 BYTE   W01
 BYTE   W12
 BYTE   GoTo
  POIN2 Label_01980CCE
//  #07 //049   ----------------------------------------
 BYTE   W36
 BYTE   W96
//  #07 //050   ----------------------------------------
 BYTE   W96
//  #07 //051   ----------------------------------------
 BYTE   W96
//  #07 //052   ----------------------------------------
 BYTE   W96
//  #07 //053   ----------------------------------------
 BYTE   W96
//  #07 //054   ----------------------------------------
 BYTE   W96
//  #07 //055   ----------------------------------------
 BYTE   W96
//  #07 //056   ----------------------------------------
 BYTE   W96
//  #07 //057   ----------------------------------------
 BYTE   W96
//  #07 //058   ----------------------------------------
 BYTE   W96
//  #07 //059   ----------------------------------------
 BYTE   W96
//  #07 //060   ----------------------------------------
 BYTE   W96
//  #07 //061   ----------------------------------------
 BYTE   W96
//  #07 //062   ----------------------------------------
 BYTE   W96
//  #07 //063   ----------------------------------------
 BYTE   W96
//  #07 //064   ----------------------------------------
 BYTE   W96
//  #07 //065   ----------------------------------------
 BYTE   W96
//  #07 //066   ----------------------------------------
 BYTE   W96
//  #07 //067   ----------------------------------------
 BYTE   W96
//  #07 //068   ----------------------------------------
 BYTE   W96
//  #07 //069   ----------------------------------------
 BYTE   W96
//  #07 //070   ----------------------------------------
 BYTE   W96
//  #07 //071   ----------------------------------------
 BYTE   W96
//  #07 //072   ----------------------------------------
 BYTE   W96
//  #07 //073   ----------------------------------------
 BYTE   W96
//  #07 //074   ----------------------------------------
 BYTE   W96
//  #07 //075   ----------------------------------------
 BYTE   W96
//  #07 //076   ----------------------------------------
 BYTE   W96
//  #07 //077   ----------------------------------------
 BYTE   W96
//  #07 //078   ----------------------------------------
 BYTE   W96
//  #07 //079   ----------------------------------------
 BYTE   W96
//  #07 //080   ----------------------------------------
 BYTE   W96
//  #07 //081   ----------------------------------------
 BYTE   W96
//  #07 //082   ----------------------------------------
 BYTE   W96
//  #07 //083   ----------------------------------------
 BYTE   W96
//  #07 //084   ----------------------------------------
 BYTE   W96
//  #07 //085   ----------------------------------------
 BYTE   W96
//  #07 //086   ----------------------------------------
 BYTE   W96
//  #07 //087   ----------------------------------------
 BYTE   W96
//  #07 //088   ----------------------------------------
 BYTE   W96
//  #07 //089   ----------------------------------------
 BYTE   W96
//  #07 //090   ----------------------------------------
 BYTE   W96
//  #07 //091   ----------------------------------------
 BYTE   W96
//  #07 //092   ----------------------------------------
 BYTE   W96
//  #07 //093   ----------------------------------------
 BYTE   W96
//  #07 //094   ----------------------------------------
 BYTE   W96
//  #07 //095   ----------------------------------------
 BYTE   W96
//  #07 //096   ----------------------------------------
 BYTE   W96
//  #07 //097   ----------------------------------------
 BYTE   W96
//  #07 //098   ----------------------------------------
 BYTE   W96
//  #07 //099   ----------------------------------------
 BYTE   W96
//  #07 //100   ----------------------------------------
 BYTE   W96
//  #07 //101   ----------------------------------------
 BYTE   W96
//  #07 //102   ----------------------------------------
 BYTE   W96
//  #07 //103   ----------------------------------------
 BYTE   W96
//  #07 //104   ----------------------------------------
 BYTE   W96
//  #07 //105   ----------------------------------------
 BYTE   W96
//  #07 //106   ----------------------------------------
 BYTE   W96
//  #07 //107   ----------------------------------------
 BYTE   W96
//  #07 //108   ----------------------------------------
 BYTE   W96
//  #07 //109   ----------------------------------------
 BYTE   W96
//  #07 //110   ----------------------------------------
 BYTE   W96
//  #07 //111   ----------------------------------------
 BYTE   W96
//  #07 //112   ----------------------------------------
 BYTE   W96
//  #07 //113   ----------------------------------------
 BYTE   W96
//  #07 //114   ----------------------------------------
 BYTE   W96
//  #07 //115   ----------------------------------------
 BYTE   W96
//  #07 //116   ----------------------------------------
 BYTE   W96
//  #07 //117   ----------------------------------------
 BYTE   W96
//  #07 //118   ----------------------------------------
 BYTE   W96
//  #07 //119   ----------------------------------------
 BYTE   W96
//  #07 //120   ----------------------------------------
 BYTE   W96
//  #07 //121   ----------------------------------------
 BYTE   W96
//  #07 //122   ----------------------------------------
 BYTE   W96
//  #07 //123   ----------------------------------------
 BYTE   W96
 BYTE   FINE

//**************** Track 8 (Midi-Chn.7) ****************//

AstrogirlSlowed_008:
//  #08 //000   ----------------------------------------
 BYTE   KEYSH   AstrogirlSlowed_key+0
Label_01980E96:
 BYTE   VOICE   81
 BYTE   MODT 0
 BYTE   LFOS 44
 BYTE   VOL   53*AstrogirlSlowed_mvl/mxv
 BYTE   PAN   c_v+0
 BYTE   VOL   53*AstrogirlSlowed_mvl/mxv
 BYTE   PAN   c_v+0
 BYTE   W96
//  #08 //001   ----------------------------------------
 BYTE   N68  Cs2  v060
 BYTE   W72
 BYTE   N11  Ds2
 BYTE   W12
 BYTE   N32  Fn2
 BYTE   W12
//  #08 //002   ----------------------------------------
 BYTE   W24
 BYTE   N44  Cs2
 BYTE   W48
 BYTE   N11  Cn2
 BYTE   W12
 BYTE   As1
 BYTE   W12
//  #08 //003   ----------------------------------------
Label_01980EB8:
 BYTE   N92  Gs1  v060
 BYTE   W96
 BYTE   PEND 
//  #08 //004   ----------------------------------------
 BYTE   N44  Gs2
 BYTE   W48
 BYTE   N23  Ds2
 BYTE   W24
 BYTE   Cn2
 BYTE   W24
//  #08 //005   ----------------------------------------
 BYTE   N68  As1
 BYTE   W72
 BYTE   N23
 BYTE   W24
//  #08 //006   ----------------------------------------
 BYTE   N44  Gs1
 BYTE   W48
 BYTE   N23  Ds2
 BYTE   W24
 BYTE   Gs1
 BYTE   W24
//  #08 //007   ----------------------------------------
Label_01980ED2:
 BYTE   N32  Fs1  v060
 BYTE   W36
 BYTE   N11  Fn1
 BYTE   W12
 BYTE   Fs1
 BYTE   W12
 BYTE   Fn1
 BYTE   W12
 BYTE   Fs1
 BYTE   W12
 BYTE   Gs1
 BYTE   W12
 BYTE   PEND 
//  #08 //008   ----------------------------------------
 BYTE   As1
 BYTE   W12
 BYTE   Fs1
 BYTE   W12
 BYTE   Gs1
 BYTE   W12
 BYTE   As1
 BYTE   W12
 BYTE   N23  Cn2
 BYTE   W24
 BYTE   Ds2
 BYTE   W24
//  #08 //009   ----------------------------------------
Label_01980EEF:
 BYTE   N92  Cs2  v060
 BYTE   W96
 BYTE   PEND 
//  #08 //010   ----------------------------------------
 BYTE   N68  Fn2
 BYTE   W72
 BYTE   N11  Ds2
 BYTE   W12
 BYTE   Cs2
 BYTE   W12
//  #08 //011   ----------------------------------------
 BYTE   N92  Cn2
 BYTE   W96
//  #08 //012   ----------------------------------------
 BYTE   N44  Gs2
 BYTE   W48
 BYTE   N23  Cn2
 BYTE   W24
 BYTE   N11  Cs2
 BYTE   W12
 BYTE   Cn2
 BYTE   W12
//  #08 //013   ----------------------------------------
 BYTE   N92  As1
 BYTE   W96
//  #08 //014   ----------------------------------------
 BYTE   PATT
  POIN2 Label_01980EB8
//  #08 //015   ----------------------------------------
 BYTE   PATT
  POIN2 Label_01980ED2
//  #08 //016   ----------------------------------------
 BYTE   N11  As1  v060
 BYTE   W12
 BYTE   Fs1
 BYTE   W12
 BYTE   Gs1
 BYTE   W12
 BYTE   As1
 BYTE   W12
 BYTE   N23  Cn2
 BYTE   W24
 BYTE   Cs2
 BYTE   W24
//  #08 //017   ----------------------------------------
 BYTE   N68
 BYTE   W72
 BYTE   N11  Cn2
 BYTE   W12
 BYTE   Cs2
 BYTE   W12
//  #08 //018   ----------------------------------------
 BYTE   N23
 BYTE   W24
 BYTE   Ds2
 BYTE   W24
 BYTE   Fn2
 BYTE   W24
 BYTE   Cs2
 BYTE   W24
//  #08 //019   ----------------------------------------
 BYTE   N68  Gs2
 BYTE   W72
 BYTE   N11  Fs2
 BYTE   W12
 BYTE   Fn2
 BYTE   W12
//  #08 //020   ----------------------------------------
 BYTE   N44  Ds2
 BYTE   W48
 BYTE   Cs2
 BYTE   W48
//  #08 //021   ----------------------------------------
 BYTE   N92  Fs2
 BYTE   W96
//  #08 //022   ----------------------------------------
 BYTE   Gs2
 BYTE   W96
//  #08 //023   ----------------------------------------
 BYTE   N11
 BYTE   W12
 BYTE   Fs2
 BYTE   W12
 BYTE   Gs2
 BYTE   W12
 BYTE   As2
 BYTE   W12
 BYTE   Cs3
 BYTE   W12
 BYTE   Bn2
 BYTE   W12
 BYTE   Cs3
 BYTE   W12
 BYTE   Fn3
 BYTE   W12
//  #08 //024   ----------------------------------------
 BYTE   N92  Ds3
 BYTE   W96
//  #08 //025   ----------------------------------------
 BYTE   N68  Fn2  v080
 BYTE   N68  Gs2
 BYTE   W72
 BYTE   N23  Cn3
 BYTE   N23  Ds3
 BYTE   W24
//  #08 //026   ----------------------------------------
 BYTE   N32  Fn2
 BYTE   N32  Cn3
 BYTE   W36
 BYTE   N11  Gs2
 BYTE   N11  Cs3
 BYTE   W12
 BYTE   N32  Gs2
 BYTE   N32  Cs3
 BYTE   W36
 BYTE   N11  Fn2
 BYTE   N11  Gs2
 BYTE   W12
//  #08 //027   ----------------------------------------
 BYTE   N92  As2
 BYTE   N92  Cs3
 BYTE   W96
//  #08 //028   ----------------------------------------
 BYTE   N23  Gs2
 BYTE   N23  Cs3
 BYTE   W24
 BYTE   Cn3
 BYTE   N23  Ds3
 BYTE   W24
 BYTE   As2
 BYTE   N23  Cs3
 BYTE   W24
 BYTE   N11  Gs2
 BYTE   N11  Cn3
 BYTE   W12
 BYTE   Fs2
 BYTE   N11  As2
 BYTE   W12
//  #08 //029   ----------------------------------------
 BYTE   N68  Fn2
 BYTE   N68  Gs2
 BYTE   W72
 BYTE   N23  Ds2
 BYTE   N23  Cn3
 BYTE   W24
//  #08 //030   ----------------------------------------
 BYTE   N32  Ds2
 BYTE   N32  Cn3
 BYTE   W36
 BYTE   N11  Fn2
 BYTE   N11  Cs3
 BYTE   W12
 BYTE   N44  Fn2
 BYTE   N44  Cs3
 BYTE   W48
//  #08 //031   ----------------------------------------
 BYTE   N68  As1
 BYTE   N92  As2
 BYTE   W72
 BYTE   N23  Cs2
 BYTE   W24
//  #08 //032   ----------------------------------------
Label_01980FB5:
 BYTE   N44  Ds2  v080
 BYTE   N44  Cn3
 BYTE   W48
 BYTE   Cs2
 BYTE   N44  As2
 BYTE   W48
 BYTE   PEND 
//  #08 //033   ----------------------------------------
 BYTE   N68  Cs2
 BYTE   N68  Gs2
 BYTE   W72
 BYTE   N23  Ds2
 BYTE   N23  Cn3
 BYTE   W24
//  #08 //034   ----------------------------------------
 BYTE   N92  Gs2
 BYTE   N92  Cs3
 BYTE   W96
//  #08 //035   ----------------------------------------
 BYTE   N68  Fs2
 BYTE   N68  Ds3
 BYTE   W72
 BYTE   N23  Fn2
 BYTE   N23  Cs3
 BYTE   W24
//  #08 //036   ----------------------------------------
 BYTE   PATT
  POIN2 Label_01980FB5
//  #08 //037   ----------------------------------------
 BYTE   N68  Cs2  v080
 BYTE   N68  Gs2
 BYTE   W72
 BYTE   N23  Cn2
 BYTE   N23  Fs2
 BYTE   N23  Ds3
 BYTE   W24
//  #08 //038   ----------------------------------------
 BYTE   N92  Cs2
 BYTE   N92  Fn2
 BYTE   N92  Cs3
 BYTE   W96
//  #08 //039   ----------------------------------------
 BYTE   N68  Fs2
 BYTE   N68  As2
 BYTE   W72
 BYTE   N23  Fn2
 BYTE   N23  Cs3
 BYTE   W24
//  #08 //040   ----------------------------------------
 BYTE   N44  Ds2
 BYTE   N44  Cn3
 BYTE   W48
 BYTE   Cn2
 BYTE   N44  Gs2
 BYTE   W48
//  #08 //041   ----------------------------------------
 BYTE   TIE  Fn2  v060
 BYTE   TIE  Gs2  v080
 BYTE   W96
//  #08 //042   ----------------------------------------
Label_0198100C:
 BYTE   W92
 BYTE   W03
 BYTE   PEND 
 BYTE   EOT
 BYTE   Fn2  v056
 BYTE   W01
//  #08 //043   ----------------------------------------
 BYTE   TIE  En2  v060
 BYTE   W96
//  #08 //044   ----------------------------------------
 BYTE   W36
 BYTE   N11  Cs3  v080
 BYTE   W12
 BYTE   Ds3
 BYTE   W12
 BYTE   Cs3
 BYTE   W12
 BYTE   N23  Gs2
 BYTE   W23
 BYTE   EOT
 BYTE   En2
 BYTE   W01
//  #08 //045   ----------------------------------------
 BYTE   TIE  Gs1  v060
 BYTE   W96
//  #08 //046   ----------------------------------------
 BYTE   PATT
  POIN2 Label_0198100C
//  #08 //047   ----------------------------------------
 BYTE   EOT
 BYTE   Gs1
 BYTE   W01
//  #08 //048   ----------------------------------------
 BYTE   PATT
  POIN2 Label_01980EEF
//  #08 //049   ----------------------------------------
 BYTE   N05  Cs2  v116
 BYTE   W01
 BYTE   W01
 BYTE   W01
 BYTE   W01
 BYTE   W01
 BYTE   W07
 BYTE   N05
 BYTE   W01
 BYTE   W01
 BYTE   W01
 BYTE   W01
 BYTE   W01
 BYTE   W30
 BYTE   W01
 BYTE   W12
 BYTE   GoTo
  POIN2 Label_01980E96
//  #08 //050   ----------------------------------------
 BYTE   W36
 BYTE   W96
//  #08 //051   ----------------------------------------
 BYTE   W96
//  #08 //052   ----------------------------------------
 BYTE   W96
//  #08 //053   ----------------------------------------
 BYTE   W96
//  #08 //054   ----------------------------------------
 BYTE   W96
//  #08 //055   ----------------------------------------
 BYTE   W96
//  #08 //056   ----------------------------------------
 BYTE   W96
//  #08 //057   ----------------------------------------
 BYTE   W96
//  #08 //058   ----------------------------------------
 BYTE   W96
//  #08 //059   ----------------------------------------
 BYTE   W96
//  #08 //060   ----------------------------------------
 BYTE   W96
//  #08 //061   ----------------------------------------
 BYTE   W96
//  #08 //062   ----------------------------------------
 BYTE   W96
//  #08 //063   ----------------------------------------
 BYTE   W96
//  #08 //064   ----------------------------------------
 BYTE   W96
//  #08 //065   ----------------------------------------
 BYTE   W96
//  #08 //066   ----------------------------------------
 BYTE   W96
//  #08 //067   ----------------------------------------
 BYTE   W96
//  #08 //068   ----------------------------------------
 BYTE   W96
//  #08 //069   ----------------------------------------
 BYTE   W96
//  #08 //070   ----------------------------------------
 BYTE   W96
//  #08 //071   ----------------------------------------
 BYTE   W96
//  #08 //072   ----------------------------------------
 BYTE   W96
//  #08 //073   ----------------------------------------
 BYTE   W96
//  #08 //074   ----------------------------------------
 BYTE   W96
//  #08 //075   ----------------------------------------
 BYTE   W96
//  #08 //076   ----------------------------------------
 BYTE   W96
//  #08 //077   ----------------------------------------
 BYTE   W96
//  #08 //078   ----------------------------------------
 BYTE   W96
//  #08 //079   ----------------------------------------
 BYTE   W96
//  #08 //080   ----------------------------------------
 BYTE   W96
//  #08 //081   ----------------------------------------
 BYTE   W96
//  #08 //082   ----------------------------------------
 BYTE   W96
//  #08 //083   ----------------------------------------
 BYTE   W96
//  #08 //084   ----------------------------------------
 BYTE   W96
//  #08 //085   ----------------------------------------
 BYTE   W96
//  #08 //086   ----------------------------------------
 BYTE   W96
//  #08 //087   ----------------------------------------
 BYTE   W96
//  #08 //088   ----------------------------------------
 BYTE   W96
//  #08 //089   ----------------------------------------
 BYTE   W96
//  #08 //090   ----------------------------------------
 BYTE   W96
//  #08 //091   ----------------------------------------
 BYTE   W96
//  #08 //092   ----------------------------------------
 BYTE   W96
//  #08 //093   ----------------------------------------
 BYTE   W96
//  #08 //094   ----------------------------------------
 BYTE   W96
//  #08 //095   ----------------------------------------
 BYTE   W96
//  #08 //096   ----------------------------------------
 BYTE   W96
//  #08 //097   ----------------------------------------
 BYTE   W96
//  #08 //098   ----------------------------------------
 BYTE   W96
//  #08 //099   ----------------------------------------
 BYTE   W96
//  #08 //100   ----------------------------------------
 BYTE   W96
//  #08 //101   ----------------------------------------
 BYTE   W96
//  #08 //102   ----------------------------------------
 BYTE   W96
//  #08 //103   ----------------------------------------
 BYTE   W96
//  #08 //104   ----------------------------------------
 BYTE   W96
//  #08 //105   ----------------------------------------
 BYTE   W96
//  #08 //106   ----------------------------------------
 BYTE   W96
//  #08 //107   ----------------------------------------
 BYTE   W96
//  #08 //108   ----------------------------------------
 BYTE   W96
//  #08 //109   ----------------------------------------
 BYTE   W96
//  #08 //110   ----------------------------------------
 BYTE   W96
//  #08 //111   ----------------------------------------
 BYTE   W96
//  #08 //112   ----------------------------------------
 BYTE   W96
//  #08 //113   ----------------------------------------
 BYTE   W96
//  #08 //114   ----------------------------------------
 BYTE   W96
//  #08 //115   ----------------------------------------
 BYTE   W96
//  #08 //116   ----------------------------------------
 BYTE   W96
//  #08 //117   ----------------------------------------
 BYTE   W96
//  #08 //118   ----------------------------------------
 BYTE   W96
//  #08 //119   ----------------------------------------
 BYTE   W96
//  #08 //120   ----------------------------------------
 BYTE   W96
//  #08 //121   ----------------------------------------
 BYTE   W96
//  #08 //122   ----------------------------------------
 BYTE   W96
//  #08 //123   ----------------------------------------
 BYTE   W96
//  #08 //124   ----------------------------------------
 BYTE   W96
 BYTE   FINE

//**************** Track 9 (Midi-Chn.8) ****************//

AstrogirlSlowed_009:
//  #09 //000   ----------------------------------------
 BYTE   KEYSH   AstrogirlSlowed_key+0
Label_0198109E:
 BYTE   VOICE   85
 BYTE   MODT 0
 BYTE   LFOS 44
 BYTE   VOL   53*AstrogirlSlowed_mvl/mxv
 BYTE   PAN   c_v+0
 BYTE   VOL   53*AstrogirlSlowed_mvl/mxv
 BYTE   PAN   c_v+0
 BYTE   W96
//  #09 //001   ----------------------------------------
 BYTE   W96
//  #09 //002   ----------------------------------------
 BYTE   W96
//  #09 //003   ----------------------------------------
 BYTE   W96
//  #09 //004   ----------------------------------------
 BYTE   W96
//  #09 //005   ----------------------------------------
 BYTE   W96
//  #09 //006   ----------------------------------------
 BYTE   W96
//  #09 //007   ----------------------------------------
 BYTE   W96
//  #09 //008   ----------------------------------------
 BYTE   W96
//  #09 //009   ----------------------------------------
 BYTE   W96
//  #09 //010   ----------------------------------------
 BYTE   W96
//  #09 //011   ----------------------------------------
 BYTE   W96
//  #09 //012   ----------------------------------------
 BYTE   W96
//  #09 //013   ----------------------------------------
 BYTE   W96
//  #09 //014   ----------------------------------------
 BYTE   W96
//  #09 //015   ----------------------------------------
 BYTE   W96
//  #09 //016   ----------------------------------------
 BYTE   W96
//  #09 //017   ----------------------------------------
Label_019810BD:
 BYTE   N68  Ds1  v060
 BYTE   W72
 BYTE   N23  Cs1
 BYTE   W24
 BYTE   PEND 
//  #09 //018   ----------------------------------------
Label_019810C5:
 BYTE   N68  Fn1  v060
 BYTE   W72
 BYTE   N23  Cs1
 BYTE   W24
 BYTE   PEND 
//  #09 //019   ----------------------------------------
 BYTE   N68  Fs1
 BYTE   W72
 BYTE   N23  Cs1
 BYTE   W24
//  #09 //020   ----------------------------------------
 BYTE   N68  Gs1
 BYTE   W48
 BYTE   W24
 BYTE   N11  Fs1
 BYTE   W12
 BYTE   Fn1
 BYTE   W12
//  #09 //021   ----------------------------------------
 BYTE   PATT
  POIN2 Label_019810BD
//  #09 //022   ----------------------------------------
 BYTE   PATT
  POIN2 Label_019810C5
//  #09 //023   ----------------------------------------
 BYTE   N68  Bn0  v060
 BYTE   W72
 BYTE   N23
 BYTE   W24
//  #09 //024   ----------------------------------------
 BYTE   N92  Gs0
 BYTE   W96
//  #09 //025   ----------------------------------------
 BYTE   N68  Cs1  v080
 BYTE   W72
 BYTE   N11
 BYTE   W12
 BYTE   Ds1
 BYTE   W12
//  #09 //026   ----------------------------------------
 BYTE   N44  Fn1
 BYTE   W48
 BYTE   Fn0
 BYTE   W48
//  #09 //027   ----------------------------------------
 BYTE   N68  Fs0
 BYTE   W72
 BYTE   N23  As0
 BYTE   W24
//  #09 //028   ----------------------------------------
Label_01981102:
 BYTE   N44  Gs0  v080
 BYTE   W48
 BYTE   Fs0
 BYTE   W48
 BYTE   PEND 
//  #09 //029   ----------------------------------------
Label_01981109:
 BYTE   N68  Fn0  v080
 BYTE   W72
 BYTE   N11  Fs0
 BYTE   W12
 BYTE   Gs0
 BYTE   W12
 BYTE   PEND 
//  #09 //030   ----------------------------------------
Label_01981113:
 BYTE   N92  As0  v080
 BYTE   W96
 BYTE   PEND 
//  #09 //031   ----------------------------------------
Label_01981118:
 BYTE   N56  Ds1  v080
 BYTE   W48
 BYTE   W12
 BYTE   N11  Cs1
 BYTE   W12
 BYTE   Cn1
 BYTE   W12
 BYTE   As0
 BYTE   W12
 BYTE   PEND 
//  #09 //032   ----------------------------------------
 BYTE   PATT
  POIN2 Label_01981102
//  #09 //033   ----------------------------------------
 BYTE   PATT
  POIN2 Label_01981109
//  #09 //034   ----------------------------------------
 BYTE   PATT
  POIN2 Label_01981113
//  #09 //035   ----------------------------------------
 BYTE   N68  Ds1  v080
 BYTE   W72
 BYTE   N23  As0
 BYTE   W24
//  #09 //036   ----------------------------------------
 BYTE   PATT
  POIN2 Label_01981102
//  #09 //037   ----------------------------------------
 BYTE   N68  Fn0  v080
 BYTE   W72
 BYTE   N23
 BYTE   W24
//  #09 //038   ----------------------------------------
 BYTE   N68  As0
 BYTE   W72
 BYTE   N11  Cn1
 BYTE   W12
 BYTE   Cs1
 BYTE   W12
//  #09 //039   ----------------------------------------
 BYTE   PATT
  POIN2 Label_01981118
//  #09 //040   ----------------------------------------
 BYTE   N68  Gs0  v080
 BYTE   W72
 BYTE   N23  Cn1
 BYTE   W24
//  #09 //041   ----------------------------------------
Label_0198115A:
 BYTE   TIE  Cs1  v060
 BYTE   W96
 BYTE   PEND 
//  #09 //042   ----------------------------------------
Label_0198115F:
 BYTE   W92
 BYTE   W03
 BYTE   PEND 
 BYTE   EOT
 BYTE   Cs1
 BYTE   W01
//  #09 //043   ----------------------------------------
 BYTE   TIE  Cs2  v060
 BYTE   W96
//  #09 //044   ----------------------------------------
 BYTE   PATT
  POIN2 Label_0198115F
//  #09 //045   ----------------------------------------
 BYTE   EOT
 BYTE   Cs2
 BYTE   W01
//  #09 //046   ----------------------------------------
 BYTE   PATT
  POIN2 Label_0198115A
//  #09 //047   ----------------------------------------
 BYTE   PATT
  POIN2 Label_0198115F
//  #09 //048   ----------------------------------------
 BYTE   EOT
 BYTE   Cs1
 BYTE   W01
 BYTE   N92  Fs1  v060
 BYTE   W96
//  #09 //049   ----------------------------------------
 BYTE   N05  Fs1  v116
 BYTE   W01
 BYTE   W01
 BYTE   W01
 BYTE   W01
 BYTE   W01
 BYTE   W07
 BYTE   N05
 BYTE   W01
 BYTE   W01
 BYTE   W01
 BYTE   W01
 BYTE   W01
 BYTE   W30
 BYTE   W01
 BYTE   W12
 BYTE   GoTo
  POIN2 Label_0198109E
//  #09 //050   ----------------------------------------
 BYTE   W36
 BYTE   W96
//  #09 //051   ----------------------------------------
 BYTE   W96
//  #09 //052   ----------------------------------------
 BYTE   W96
//  #09 //053   ----------------------------------------
 BYTE   W96
//  #09 //054   ----------------------------------------
 BYTE   W96
//  #09 //055   ----------------------------------------
 BYTE   W96
//  #09 //056   ----------------------------------------
 BYTE   W96
//  #09 //057   ----------------------------------------
 BYTE   W96
//  #09 //058   ----------------------------------------
 BYTE   W96
//  #09 //059   ----------------------------------------
 BYTE   W96
//  #09 //060   ----------------------------------------
 BYTE   W96
//  #09 //061   ----------------------------------------
 BYTE   W96
//  #09 //062   ----------------------------------------
 BYTE   W96
//  #09 //063   ----------------------------------------
 BYTE   W96
//  #09 //064   ----------------------------------------
 BYTE   W96
//  #09 //065   ----------------------------------------
 BYTE   W96
//  #09 //066   ----------------------------------------
 BYTE   W96
//  #09 //067   ----------------------------------------
 BYTE   W96
//  #09 //068   ----------------------------------------
 BYTE   W96
//  #09 //069   ----------------------------------------
 BYTE   W96
//  #09 //070   ----------------------------------------
 BYTE   W96
//  #09 //071   ----------------------------------------
 BYTE   W96
//  #09 //072   ----------------------------------------
 BYTE   W96
//  #09 //073   ----------------------------------------
 BYTE   W96
//  #09 //074   ----------------------------------------
 BYTE   W96
//  #09 //075   ----------------------------------------
 BYTE   W96
//  #09 //076   ----------------------------------------
 BYTE   W96
//  #09 //077   ----------------------------------------
 BYTE   W96
//  #09 //078   ----------------------------------------
 BYTE   W96
//  #09 //079   ----------------------------------------
 BYTE   W96
//  #09 //080   ----------------------------------------
 BYTE   W96
//  #09 //081   ----------------------------------------
 BYTE   W96
//  #09 //082   ----------------------------------------
 BYTE   W96
//  #09 //083   ----------------------------------------
 BYTE   W96
//  #09 //084   ----------------------------------------
 BYTE   W96
//  #09 //085   ----------------------------------------
 BYTE   W96
//  #09 //086   ----------------------------------------
 BYTE   W96
//  #09 //087   ----------------------------------------
 BYTE   W96
//  #09 //088   ----------------------------------------
 BYTE   W96
//  #09 //089   ----------------------------------------
 BYTE   W96
//  #09 //090   ----------------------------------------
 BYTE   W96
//  #09 //091   ----------------------------------------
 BYTE   W96
//  #09 //092   ----------------------------------------
 BYTE   W96
//  #09 //093   ----------------------------------------
 BYTE   W96
//  #09 //094   ----------------------------------------
 BYTE   W96
//  #09 //095   ----------------------------------------
 BYTE   W96
//  #09 //096   ----------------------------------------
 BYTE   W96
//  #09 //097   ----------------------------------------
 BYTE   W96
//  #09 //098   ----------------------------------------
 BYTE   W96
//  #09 //099   ----------------------------------------
 BYTE   W96
//  #09 //100   ----------------------------------------
 BYTE   W96
//  #09 //101   ----------------------------------------
 BYTE   W96
//  #09 //102   ----------------------------------------
 BYTE   W96
//  #09 //103   ----------------------------------------
 BYTE   W96
//  #09 //104   ----------------------------------------
 BYTE   W96
//  #09 //105   ----------------------------------------
 BYTE   W96
//  #09 //106   ----------------------------------------
 BYTE   W96
//  #09 //107   ----------------------------------------
 BYTE   W96
//  #09 //108   ----------------------------------------
 BYTE   W96
//  #09 //109   ----------------------------------------
 BYTE   W96
//  #09 //110   ----------------------------------------
 BYTE   W96
//  #09 //111   ----------------------------------------
 BYTE   W96
//  #09 //112   ----------------------------------------
 BYTE   W96
//  #09 //113   ----------------------------------------
 BYTE   W96
//  #09 //114   ----------------------------------------
 BYTE   W96
//  #09 //115   ----------------------------------------
 BYTE   W96
//  #09 //116   ----------------------------------------
 BYTE   W96
//  #09 //117   ----------------------------------------
 BYTE   W96
//  #09 //118   ----------------------------------------
 BYTE   W96
//  #09 //119   ----------------------------------------
 BYTE   W96
//  #09 //120   ----------------------------------------
 BYTE   W96
//  #09 //121   ----------------------------------------
 BYTE   W96
//  #09 //122   ----------------------------------------
 BYTE   W96
//  #09 //123   ----------------------------------------
 BYTE   W96
//  #09 //124   ----------------------------------------
 BYTE   W96
 BYTE   FINE

//******************************************************//
	ALIGN 4

AstrogirlSlowed:
	BYTE	9	// NumTrks
	BYTE	0	// NumBlks
	BYTE	AstrogirlSlowed_pri	// Priority
	BYTE	AstrogirlSlowed_rev	// Reverb.
    
	POIN2	AstrogirlSlowed_grp
    
	POIN2	AstrogirlSlowed_001
	POIN2	AstrogirlSlowed_002
	POIN2	AstrogirlSlowed_003
	POIN2	AstrogirlSlowed_004
	POIN2	AstrogirlSlowed_005
	POIN2	AstrogirlSlowed_006
	POIN2	AstrogirlSlowed_007
	POIN2	AstrogirlSlowed_008
	POIN2	AstrogirlSlowed_009

	
