//Event file generated from Sappy .s format.
	#include "MPlayDef.event"

	#define	song1F_grp  voicegroup000
	#define	song1F_pri  0
	#define	song1F_rev  0
	#define	song1F_mvl  127
	#define	song1F_key  0
	#define	song1F_tbs  1
	#define	song1F_exg  0
	#define	song1F_cmp  1

	// .rodata
	//	song1F
	ALIGN 4


//**************** Track 1 (Midi-Chn.0) ****************//

song1F_001:
//  #01 //000   ----------------------------------------
 BYTE   VOL   80*song1F_mvl/mxv
 BYTE   KEYSH   song1F_key+0
Label_0101CFC8:
 BYTE   TEMPO   182*song1F_tbs/2
 BYTE   VOICE   85
 BYTE   N36  Fn3  v048
 BYTE   W36
 BYTE   Fn3  v040
 BYTE   W36
 BYTE   N24  Fn3  v032
 BYTE   W24
//  #01 //001   ----------------------------------------
Label_0101CFD7:
 BYTE   N36  Fn3  v048
 BYTE   W36
 BYTE   Fn3  v040
 BYTE   W36
 BYTE   N24  Fn3  v032
 BYTE   W24
 BYTE   PEND 
//  #01 //002   ----------------------------------------
Label_0101CFE3:
 BYTE   N36  En3  v048
 BYTE   W36
 BYTE   En3  v040
 BYTE   W36
 BYTE   N24  En3  v032
 BYTE   W24
 BYTE   PEND 
//  #01 //003   ----------------------------------------
 BYTE   PATT
  POIN2 Label_0101CFE3
//  #01 //004   ----------------------------------------
 BYTE   PATT
  POIN2 Label_0101CFD7
//  #01 //005   ----------------------------------------
 BYTE   PATT
  POIN2 Label_0101CFD7
//  #01 //006   ----------------------------------------
 BYTE   PATT
  POIN2 Label_0101CFE3
//  #01 //007   ----------------------------------------
 BYTE   N12  En3  v032
 BYTE   N12  Bn3
 BYTE   W12
 BYTE   En3
 BYTE   N12  Ds4
 BYTE   N12  Fs4
 BYTE   W12
 BYTE   En3
 BYTE   N12  Ds4
 BYTE   W12
 BYTE   En3
 BYTE   N12  Ds4
 BYTE   N12  Fs4
 BYTE   N12  An4
 BYTE   W12
 BYTE   En3
 BYTE   N12  Bn3
 BYTE   W12
 BYTE   En3
 BYTE   N12  Fs4
 BYTE   N12  An4
 BYTE   N12  Ds5
 BYTE   W12
 BYTE   En3
 BYTE   N12  Ds4
 BYTE   W12
 BYTE   En3
 BYTE   N12  Gs4
 BYTE   N12  Bn4
 BYTE   N12  En5
 BYTE   N12  Gs5
 BYTE   W12
//  #01 //008   ----------------------------------------
 BYTE   N24  Cs4
 BYTE   N24  Cs5
 BYTE   W24
 BYTE   N72  Gs3
 BYTE   N72  Gs4
 BYTE   W72
//  #01 //009   ----------------------------------------
 BYTE   W96
//  #01 //010   ----------------------------------------
 BYTE   W96
//  #01 //011   ----------------------------------------
 BYTE   W96
//  #01 //012   ----------------------------------------
 BYTE   W96
//  #01 //013   ----------------------------------------
 BYTE   W96
//  #01 //014   ----------------------------------------
 BYTE   W96
//  #01 //015   ----------------------------------------
 BYTE   W96
//  #01 //016   ----------------------------------------
 BYTE   W96
//  #01 //017   ----------------------------------------
 BYTE   W96
//  #01 //018   ----------------------------------------
 BYTE   W96
//  #01 //019   ----------------------------------------
 BYTE   W96
//  #01 //020   ----------------------------------------
 BYTE   W96
//  #01 //021   ----------------------------------------
 BYTE   W96
//  #01 //022   ----------------------------------------
 BYTE   W96
//  #01 //023   ----------------------------------------
 BYTE   W96
//  #01 //024   ----------------------------------------
 BYTE   W96
//  #01 //025   ----------------------------------------
 BYTE   W96
//  #01 //026   ----------------------------------------
 BYTE   W96
//  #01 //027   ----------------------------------------
 BYTE   W96
//  #01 //028   ----------------------------------------
 BYTE   W96
//  #01 //029   ----------------------------------------
 BYTE   W96
//  #01 //030   ----------------------------------------
 BYTE   W96
//  #01 //031   ----------------------------------------
 BYTE   W96
//  #01 //032   ----------------------------------------
 BYTE   W96
//  #01 //033   ----------------------------------------
 BYTE   W96
//  #01 //034   ----------------------------------------
 BYTE   W96
//  #01 //035   ----------------------------------------
 BYTE   W96
//  #01 //036   ----------------------------------------
 BYTE   W96
//  #01 //037   ----------------------------------------
 BYTE   W96
//  #01 //038   ----------------------------------------
 BYTE   W96
//  #01 //039   ----------------------------------------
 BYTE   W96
//  #01 //040   ----------------------------------------
 BYTE   W96
//  #01 //041   ----------------------------------------
 BYTE   W96
//  #01 //042   ----------------------------------------
 BYTE   W96
//  #01 //043   ----------------------------------------
 BYTE   W96
//  #01 //044   ----------------------------------------
 BYTE   W96
//  #01 //045   ----------------------------------------
 BYTE   W96
//  #01 //046   ----------------------------------------
 BYTE   W96
//  #01 //047   ----------------------------------------
 BYTE   W96
//  #01 //048   ----------------------------------------
 BYTE   W96
//  #01 //049   ----------------------------------------
 BYTE   W96
//  #01 //050   ----------------------------------------
 BYTE   W96
//  #01 //051   ----------------------------------------
 BYTE   W96
//  #01 //052   ----------------------------------------
 BYTE   W96
//  #01 //053   ----------------------------------------
 BYTE   W96
//  #01 //054   ----------------------------------------
 BYTE   W96
//  #01 //055   ----------------------------------------
 BYTE   W96
//  #01 //056   ----------------------------------------
 BYTE   W96
//  #01 //057   ----------------------------------------
 BYTE   W96
//  #01 //058   ----------------------------------------
 BYTE   W96
//  #01 //059   ----------------------------------------
 BYTE   W96
//  #01 //060   ----------------------------------------
 BYTE   W96
//  #01 //061   ----------------------------------------
 BYTE   W96
//  #01 //062   ----------------------------------------
 BYTE   W96
//  #01 //063   ----------------------------------------
 BYTE   W96
//  #01 //064   ----------------------------------------
 BYTE   W96
//  #01 //065   ----------------------------------------
 BYTE   W96
//  #01 //066   ----------------------------------------
 BYTE   W96
//  #01 //067   ----------------------------------------
 BYTE   W96
//  #01 //068   ----------------------------------------
 BYTE   W96
//  #01 //069   ----------------------------------------
 BYTE   W96
//  #01 //070   ----------------------------------------
 BYTE   W96
//  #01 //071   ----------------------------------------
 BYTE   W96
//  #01 //072   ----------------------------------------
 BYTE   W96
//  #01 //073   ----------------------------------------
 BYTE   W96
//  #01 //074   ----------------------------------------
 BYTE   W96
//  #01 //075   ----------------------------------------
 BYTE   W96
//  #01 //076   ----------------------------------------
 BYTE   W96
//  #01 //077   ----------------------------------------
 BYTE   W96
//  #01 //078   ----------------------------------------
 BYTE   W96
//  #01 //079   ----------------------------------------
 BYTE   W96
//  #01 //080   ----------------------------------------
 BYTE   W96
//  #01 //081   ----------------------------------------
 BYTE   W96
//  #01 //082   ----------------------------------------
 BYTE   W96
//  #01 //083   ----------------------------------------
 BYTE   W96
//  #01 //084   ----------------------------------------
 BYTE   W96
//  #01 //085   ----------------------------------------
 BYTE   W96
//  #01 //086   ----------------------------------------
 BYTE   W96
//  #01 //087   ----------------------------------------
 BYTE   W96
//  #01 //088   ----------------------------------------
 BYTE   W96
//  #01 //089   ----------------------------------------
 BYTE   W96
//  #01 //090   ----------------------------------------
 BYTE   W96
//  #01 //091   ----------------------------------------
 BYTE   W96
//  #01 //092   ----------------------------------------
 BYTE   W96
//  #01 //093   ----------------------------------------
 BYTE   W96
//  #01 //094   ----------------------------------------
 BYTE   W96
//  #01 //095   ----------------------------------------
 BYTE   W96
//  #01 //096   ----------------------------------------
 BYTE   W96
//  #01 //097   ----------------------------------------
 BYTE   GoTo
  POIN2 Label_0101CFC8
 BYTE   FINE

//**************** Track 2 (Midi-Chn.1) ****************//

song1F_002:
//  #02 //000   ----------------------------------------
 BYTE   VOL   80*song1F_mvl/mxv
 BYTE   KEYSH   song1F_key+0
Label_0102244C:
 BYTE   VOICE   4
 BYTE   N24  Gs2  v024
 BYTE   N24  Cn3
 BYTE   N24  Fn3
 BYTE   W24
 BYTE   N12  Gs2
 BYTE   N24  Cn3
 BYTE   N24  Fn3
 BYTE   W24
 BYTE   N12  Fn5
 BYTE   W12
 BYTE   Gs4  v020
 BYTE   W12
 BYTE   N06  Gs2  v024
 BYTE   N06  Cn3
 BYTE   W06
 BYTE   Fn2
 BYTE   W06
 BYTE   N24  Gs2
 BYTE   N24  Cn3
 BYTE   N24  Fn3
 BYTE   W12
//  #02 //001   ----------------------------------------
Label_01022472:
 BYTE   W12
 BYTE   N24  Gs2  v024
 BYTE   N24  Cn3
 BYTE   N24  Fn3
 BYTE   W24
 BYTE   N06  Gs2
 BYTE   N06  Cn3
 BYTE   W06
 BYTE   Fn2
 BYTE   W06
 BYTE   Gs2
 BYTE   N06  Cn3
 BYTE   N06  Fn3
 BYTE   W24
 BYTE   Gs2
 BYTE   N06  Cn3
 BYTE   N06  Fn3
 BYTE   W24
 BYTE   PEND 
//  #02 //002   ----------------------------------------
Label_0102248F:
 BYTE   N24  Gs2  v024
 BYTE   N24  Bn2
 BYTE   N24  En3
 BYTE   W24
 BYTE   N12  Gs3
 BYTE   N12  Bn3
 BYTE   N12  En4
 BYTE   W12
 BYTE   En3
 BYTE   W12
 BYTE   N24  Gs2
 BYTE   N24  Bn2
 BYTE   N24  En3
 BYTE   W36
 BYTE   Gs2
 BYTE   N24  Bn2
 BYTE   N24  En3
 BYTE   W12
 BYTE   PEND 
//  #02 //003   ----------------------------------------
 BYTE   W12
 BYTE   Gs2
 BYTE   N24  Bn2
 BYTE   N24  En3
 BYTE   W24
 BYTE   N06  Gs2
 BYTE   N06  Bn2
 BYTE   N06  En3
 BYTE   W06
 BYTE   En2
 BYTE   W06
 BYTE   Gs2
 BYTE   N06  Bn2
 BYTE   W12
 BYTE   N30  Gs2
 BYTE   N30  Bn2
 BYTE   N30  En3
 BYTE   W36
//  #02 //004   ----------------------------------------
 BYTE   N24  Gs2
 BYTE   N24  Cn3
 BYTE   N24  Fn3
 BYTE   W24
 BYTE   N06  Gs4  v020
 BYTE   N06  Ds5  v028
 BYTE   W12
 BYTE   Gs4  v020
 BYTE   N06  Cs5  v024
 BYTE   W12
 BYTE   Fn3  v020
 BYTE   W12
 BYTE   Gs3
 BYTE   W12
 BYTE   Gs2  v024
 BYTE   N06  Cn3
 BYTE   W06
 BYTE   Fn2
 BYTE   W06
 BYTE   N24  Gs2
 BYTE   N24  Cn3
 BYTE   N24  Fn3
 BYTE   W12
//  #02 //005   ----------------------------------------
 BYTE   PATT
  POIN2 Label_01022472
//  #02 //006   ----------------------------------------
 BYTE   PATT
  POIN2 Label_0102248F
//  #02 //007   ----------------------------------------
 BYTE   W12
 BYTE   N24  Gs2  v024
 BYTE   N24  Bn2
 BYTE   N24  En3
 BYTE   W24
 BYTE   N06  Gs2
 BYTE   N06  Bn2
 BYTE   N06  En3
 BYTE   W06
 BYTE   En2
 BYTE   W06
 BYTE   Gs2
 BYTE   N06  Bn2
 BYTE   W12
 BYTE   N12  Gs2
 BYTE   N12  Bn2
 BYTE   N12  En3
 BYTE   W12
 BYTE   N24  Cs4
 BYTE   N24  Cs5
 BYTE   W24
//  #02 //008   ----------------------------------------
 BYTE   N12  Gs2  v028
 BYTE   N12  Cn3
 BYTE   N12  Fn3
 BYTE   W12
 BYTE   N06  Cs5  v024
 BYTE   W06
 BYTE   Ds5
 BYTE   N06  En5
 BYTE   W06
 BYTE   Fn5
 BYTE   W06
 BYTE   Fs5
 BYTE   N06  Gn5
 BYTE   W06
 BYTE   N24  Gs4  v032
 BYTE   N24  Gs5
 BYTE   W24
 BYTE   N06  Gs4  v020
 BYTE   N06  Gs5
 BYTE   W06
 BYTE   Gs4
 BYTE   N06  Gs5
 BYTE   W06
 BYTE   Gs4
 BYTE   N06  Gs5
 BYTE   W06
 BYTE   Gs4
 BYTE   N06  Gs5
 BYTE   W06
 BYTE   Gs4
 BYTE   N06  Gs5
 BYTE   W06
 BYTE   Gs4
 BYTE   N06  Gs5
 BYTE   W06
//  #02 //009   ----------------------------------------
 BYTE   Gs4
 BYTE   N06  Gs5
 BYTE   W06
 BYTE   Gs4
 BYTE   N06  Gs5
 BYTE   W06
 BYTE   Gs4
 BYTE   N06  Gs5
 BYTE   W06
 BYTE   Gs4
 BYTE   N06  Gs5
 BYTE   W06
 BYTE   Gs4
 BYTE   N06  Gs5
 BYTE   W06
 BYTE   Gs4
 BYTE   N06  Gs5
 BYTE   W06
 BYTE   N12  Gs4
 BYTE   W12
 BYTE   Gs4  v024
 BYTE   N12  Gs5
 BYTE   W12
 BYTE   N06  Gn5  v032
 BYTE   W06
 BYTE   Fs5
 BYTE   W06
 BYTE   N24  Fn4
 BYTE   N24  Fn5
 BYTE   W24
//  #02 //010   ----------------------------------------
Label_0102257D:
 BYTE   N24  En4  v024
 BYTE   N24  Gs4
 BYTE   N24  Bn4
 BYTE   N24  En5
 BYTE   W24
 BYTE   N06  En4  v020
 BYTE   N06  En5
 BYTE   W06
 BYTE   En4
 BYTE   N06  En5
 BYTE   W06
 BYTE   En4
 BYTE   N06  En5
 BYTE   W06
 BYTE   En4
 BYTE   N06  En5
 BYTE   W06
 BYTE   En4
 BYTE   N06  En5
 BYTE   W06
 BYTE   En4
 BYTE   N06  En5
 BYTE   W06
 BYTE   En4
 BYTE   N06  En5
 BYTE   W06
 BYTE   En4
 BYTE   N06  En5
 BYTE   W06
 BYTE   En4
 BYTE   N06  En5
 BYTE   W06
 BYTE   En4
 BYTE   N06  En5
 BYTE   W06
 BYTE   En4
 BYTE   N06  En5
 BYTE   W06
 BYTE   En4
 BYTE   N06  En5
 BYTE   W06
 BYTE   PEND 
//  #02 //011   ----------------------------------------
 BYTE   En4
 BYTE   N06  En5
 BYTE   W06
 BYTE   En4
 BYTE   N06  En5
 BYTE   W06
 BYTE   En4
 BYTE   N06  En5
 BYTE   W06
 BYTE   En4
 BYTE   N06  En5
 BYTE   W06
 BYTE   En4
 BYTE   N06  En5
 BYTE   W06
 BYTE   En4
 BYTE   N06  En5
 BYTE   W06
 BYTE   Ds5  v024
 BYTE   W06
 BYTE   Dn5  v032
 BYTE   W06
 BYTE   N24  Cs4  v024
 BYTE   N24  Cs5
 BYTE   W24
 BYTE   N06  Cn5  v032
 BYTE   W06
 BYTE   Bn4
 BYTE   W06
 BYTE   As4
 BYTE   W06
 BYTE   An4
 BYTE   W06
//  #02 //012   ----------------------------------------
Label_010225E8:
 BYTE   N24  Gs3  v024
 BYTE   N24  Cn4
 BYTE   N24  Fn4
 BYTE   N24  Gs4
 BYTE   W24
 BYTE   N06  Gs3
 BYTE   N06  Gs4
 BYTE   W06
 BYTE   Gs3
 BYTE   N06  Gs4
 BYTE   W06
 BYTE   Gs3
 BYTE   N06  Gs4
 BYTE   W06
 BYTE   Gs3
 BYTE   N06  Gs4
 BYTE   W06
 BYTE   Gs3  v020
 BYTE   N06  Gs4
 BYTE   W06
 BYTE   Gs3
 BYTE   N06  Gs4
 BYTE   W06
 BYTE   Gs3
 BYTE   N06  Gs4
 BYTE   W06
 BYTE   Gs3
 BYTE   N06  Gs4
 BYTE   W06
 BYTE   Gs3
 BYTE   N06  Gs4
 BYTE   W06
 BYTE   Gs3
 BYTE   N06  Gs4
 BYTE   W06
 BYTE   Gs3
 BYTE   N06  Gs4
 BYTE   W06
 BYTE   Gs3
 BYTE   N06  Gs4
 BYTE   W06
 BYTE   PEND 
//  #02 //013   ----------------------------------------
Label_01022625:
 BYTE   N06  Gs3  v016
 BYTE   N06  Gs4
 BYTE   W06
 BYTE   Gs3
 BYTE   N06  Gs4
 BYTE   W06
 BYTE   Gs3
 BYTE   N06  Gs4
 BYTE   W06
 BYTE   Gs3
 BYTE   N06  Gs4
 BYTE   W06
 BYTE   Gs3
 BYTE   N06  Gs4
 BYTE   W06
 BYTE   Gs3
 BYTE   N06  Gs4
 BYTE   W06
 BYTE   Gs3
 BYTE   N06  Gs4
 BYTE   W06
 BYTE   Gs3
 BYTE   N06  Gs4
 BYTE   W06
 BYTE   Gs3  v012
 BYTE   N06  Gs4
 BYTE   W06
 BYTE   Gs3
 BYTE   N06  Gs4
 BYTE   W06
 BYTE   Gs3
 BYTE   N06  Gs4
 BYTE   W06
 BYTE   Gs3
 BYTE   N06  Gs4
 BYTE   W06
 BYTE   Gs3
 BYTE   N06  Gs4
 BYTE   W06
 BYTE   Gs3
 BYTE   N06  Gs4
 BYTE   W06
 BYTE   N12  Gs3  v008
 BYTE   W12
 BYTE   PEND 
//  #02 //014   ----------------------------------------
Label_01022665:
 BYTE   N24  Gs2  v028
 BYTE   N24  Bn2
 BYTE   N24  En3
 BYTE   W24
 BYTE   Gs2
 BYTE   N24  Bn2
 BYTE   N24  En3
 BYTE   W60
 BYTE   Gs2
 BYTE   N24  Bn2
 BYTE   N24  En3
 BYTE   W12
 BYTE   PEND 
//  #02 //015   ----------------------------------------
 BYTE   W12
 BYTE   Gs2
 BYTE   N24  Bn2
 BYTE   N24  En3
 BYTE   W60
 BYTE   Gs2
 BYTE   N24  Bn2
 BYTE   N24  En3
 BYTE   W24
//  #02 //016   ----------------------------------------
Label_01022687:
 BYTE   N24  Gs2  v032
 BYTE   N24  Cn3
 BYTE   N24  Fn3
 BYTE   W24
 BYTE   N12  Gs2
 BYTE   N12  Cn3
 BYTE   N12  Fn3
 BYTE   W48
 BYTE   Gs2
 BYTE   W12
 BYTE   N24
 BYTE   N24  Cn3
 BYTE   N24  Fn3
 BYTE   W12
 BYTE   PEND 
//  #02 //017   ----------------------------------------
Label_0102269F:
 BYTE   W12
 BYTE   N12  Gs2  v032
 BYTE   N12  Cn3
 BYTE   N12  Fn3
 BYTE   W12
 BYTE   N06  Gs2
 BYTE   W12
 BYTE   N06
 BYTE   W06
 BYTE   Fn2
 BYTE   W06
 BYTE   Gs2
 BYTE   N06  Cn3
 BYTE   N06  Fn3
 BYTE   W24
 BYTE   Gs2
 BYTE   N06  Cn3
 BYTE   N06  Fn3
 BYTE   W24
 BYTE   PEND 
//  #02 //018   ----------------------------------------
Label_010226BC:
 BYTE   N24  Bn2  v032
 BYTE   N24  En3
 BYTE   N24  Gs3
 BYTE   W24
 BYTE   N12  En3
 BYTE   W24
 BYTE   Gs2
 BYTE   N12  Bn2
 BYTE   N12  En3
 BYTE   W24
 BYTE   Gs2
 BYTE   W12
 BYTE   N24  Bn2
 BYTE   N24  En3
 BYTE   N24  Gs3
 BYTE   W12
 BYTE   PEND 
//  #02 //019   ----------------------------------------
 BYTE   W12
 BYTE   N12  Gs2
 BYTE   N12  Bn2
 BYTE   N12  En3
 BYTE   W12
 BYTE   N06  Gs2
 BYTE   W12
 BYTE   N06
 BYTE   W06
 BYTE   En2
 BYTE   W06
 BYTE   Gs2
 BYTE   N06  Bn2
 BYTE   N06  En3
 BYTE   W24
 BYTE   Gs2
 BYTE   N06  Bn2
 BYTE   N06  En3
 BYTE   W24
//  #02 //020   ----------------------------------------
 BYTE   PATT
  POIN2 Label_01022687
//  #02 //021   ----------------------------------------
 BYTE   PATT
  POIN2 Label_0102269F
//  #02 //022   ----------------------------------------
 BYTE   PATT
  POIN2 Label_010226BC
//  #02 //023   ----------------------------------------
 BYTE   W12
 BYTE   N12  Gs2  v032
 BYTE   N12  Bn2
 BYTE   N12  En3
 BYTE   W12
 BYTE   N06  Gs2
 BYTE   W12
 BYTE   N12
 BYTE   W12
 BYTE   N30  Bn3
 BYTE   N30  En4
 BYTE   N30  As4
 BYTE   W36
 BYTE   N12  Gs4
 BYTE   W12
//  #02 //024   ----------------------------------------
 BYTE   Gs4  v024
 BYTE   W12
 BYTE   Cs5  v020
 BYTE   W12
 BYTE   Gs5
 BYTE   W12
 BYTE   Gs4
 BYTE   W12
 BYTE   Ds5
 BYTE   W12
 BYTE   Gs5
 BYTE   W12
 BYTE   Gs4
 BYTE   W12
 BYTE   Gs4  v024
 BYTE   W12
//  #02 //025   ----------------------------------------
 BYTE   Ds5
 BYTE   W12
 BYTE   Cs5  v020
 BYTE   W12
 BYTE   Gs5
 BYTE   W12
 BYTE   Gs4
 BYTE   W12
 BYTE   Ds5
 BYTE   W12
 BYTE   Gs5
 BYTE   W12
 BYTE   N24  Gs4
 BYTE   W24
//  #02 //026   ----------------------------------------
Label_0102273C:
 BYTE   W12
 BYTE   N12  Cs5  v020
 BYTE   W12
 BYTE   Gs5
 BYTE   W12
 BYTE   Gs4
 BYTE   W12
 BYTE   Ds5
 BYTE   W12
 BYTE   Gs5
 BYTE   W12
 BYTE   N24  Gs4
 BYTE   W24
 BYTE   PEND 
//  #02 //027   ----------------------------------------
 BYTE   N12  Ds5
 BYTE   W12
 BYTE   Cs5
 BYTE   W12
 BYTE   Gs5
 BYTE   W12
 BYTE   Gs4
 BYTE   W12
 BYTE   Ds5
 BYTE   W12
 BYTE   Gs5
 BYTE   W12
 BYTE   N24  Gs4
 BYTE   W24
//  #02 //028   ----------------------------------------
 BYTE   Gs4  v024
 BYTE   W24
 BYTE   N12  Ds5  v020
 BYTE   W12
 BYTE   Cs5
 BYTE   W12
 BYTE   Gs5
 BYTE   W12
 BYTE   Gs4
 BYTE   W12
 BYTE   N24  Cs5
 BYTE   W24
//  #02 //029   ----------------------------------------
 BYTE   W12
 BYTE   N12
 BYTE   W12
 BYTE   Gs5
 BYTE   W12
 BYTE   Gs4
 BYTE   W12
 BYTE   Ds5
 BYTE   W12
 BYTE   Cs5
 BYTE   W12
 BYTE   Gs5
 BYTE   W12
 BYTE   Gs4
 BYTE   W12
//  #02 //030   ----------------------------------------
 BYTE   PATT
  POIN2 Label_0102273C
//  #02 //031   ----------------------------------------
 BYTE   N12  Ds5  v020
 BYTE   W12
 BYTE   Cs5
 BYTE   W12
 BYTE   Gs5
 BYTE   W12
 BYTE   Gs4
 BYTE   W12
 BYTE   Ds5
 BYTE   W12
 BYTE   Gs5
 BYTE   W12
 BYTE   N24  Gs4  v024
 BYTE   W24
//  #02 //032   ----------------------------------------
 BYTE   W24
 BYTE   Gs3
 BYTE   N24  Fn4
 BYTE   W24
 BYTE   Gs3
 BYTE   N24  Ds4
 BYTE   W24
 BYTE   N12  Cs4
 BYTE   W12
 BYTE   N24  Gs3
 BYTE   N24  Cs4
 BYTE   N24  Fs4
 BYTE   W12
//  #02 //033   ----------------------------------------
 BYTE   W12
 BYTE   Gs3
 BYTE   N24  Fn4
 BYTE   W24
 BYTE   Gs3
 BYTE   N24  Ds4
 BYTE   W24
 BYTE   Gs3
 BYTE   N24  Cs4
 BYTE   W24
 BYTE   N30  Gs3
 BYTE   W12
//  #02 //034   ----------------------------------------
 BYTE   W36
 BYTE   N12  Cs4
 BYTE   W12
 BYTE   Cn4
 BYTE   N12  Ds4
 BYTE   W12
 BYTE   Cn4
 BYTE   N12  Ds4
 BYTE   W12
 BYTE   Cs4
 BYTE   W12
 BYTE   N30  Cn4
 BYTE   N30  Ds4
 BYTE   N24  Gs4
 BYTE   W12
//  #02 //035   ----------------------------------------
 BYTE   W12
 BYTE   N12  As4
 BYTE   W24
 BYTE   N24  Cn4
 BYTE   N24  Ds4
 BYTE   N24  Gs4
 BYTE   W24
 BYTE   N12  Fn4
 BYTE   W12
 BYTE   Cn4
 BYTE   N12  Ds4
 BYTE   W12
 BYTE   Cs4
 BYTE   W12
//  #02 //036   ----------------------------------------
 BYTE   W12
 BYTE   Gs3
 BYTE   W12
 BYTE   Cs4
 BYTE   W12
 BYTE   Gs3
 BYTE   W12
 BYTE   N12
 BYTE   N12  Ds4
 BYTE   W12
 BYTE   Gs3
 BYTE   N12  Ds4
 BYTE   W12
 BYTE   Cs4
 BYTE   W12
 BYTE   N24
 BYTE   N24  Fn4
 BYTE   N24  Gs4
 BYTE   W12
//  #02 //037   ----------------------------------------
 BYTE   W12
 BYTE   N12  Fn4
 BYTE   W12
 BYTE   Ds4
 BYTE   W12
 BYTE   Cs4
 BYTE   W12
 BYTE   Cn4
 BYTE   N12  Ds4
 BYTE   W12
 BYTE   Cs4
 BYTE   W12
 BYTE   N12
 BYTE   N12  As4
 BYTE   W12
 BYTE   N30  Cs4
 BYTE   N30  Fn4
 BYTE   N30  Gs4
 BYTE   W12
//  #02 //038   ----------------------------------------
 BYTE   W24
 BYTE   N12  Cs2  v028
 BYTE   N12  Fs2
 BYTE   N12  As2
 BYTE   W48
 BYTE   Cs2  v032
 BYTE   N12  Fs2
 BYTE   N12  As2
 BYTE   W24
//  #02 //039   ----------------------------------------
 BYTE   W36
 BYTE   Cs4
 BYTE   W12
 BYTE   Ds4
 BYTE   W12
 BYTE   Cs4
 BYTE   W12
 BYTE   N24  Cs4  v024
 BYTE   N24  Gs4
 BYTE   N24  Cs5
 BYTE   W24
//  #02 //040   ----------------------------------------
 BYTE   N12  Gs2  v028
 BYTE   N12  Cn3
 BYTE   N12  Fn3
 BYTE   W12
 BYTE   N06  Cs5  v024
 BYTE   W06
 BYTE   Ds5
 BYTE   N06  En5
 BYTE   W06
 BYTE   Fn5
 BYTE   W06
 BYTE   Fs5
 BYTE   N06  Gn5
 BYTE   W06
 BYTE   N24  Gs4
 BYTE   N24  Gs5
 BYTE   W24
 BYTE   N06  Gs4  v020
 BYTE   N06  Gs5
 BYTE   W06
 BYTE   Gs4
 BYTE   N06  Gs5
 BYTE   W06
 BYTE   Gs4
 BYTE   N06  Gs5
 BYTE   W06
 BYTE   Gs4
 BYTE   N06  Gs5
 BYTE   W06
 BYTE   Gs4
 BYTE   N06  Gs5
 BYTE   W06
 BYTE   Gs4
 BYTE   N06  Gs5
 BYTE   W06
//  #02 //041   ----------------------------------------
 BYTE   Gs4
 BYTE   N06  Gs5
 BYTE   W06
 BYTE   Gs4
 BYTE   N06  Gs5
 BYTE   W06
 BYTE   Gs4
 BYTE   N06  Gs5
 BYTE   W06
 BYTE   Gs4
 BYTE   N06  Gs5
 BYTE   W06
 BYTE   Gs4
 BYTE   N06  Gs5
 BYTE   W06
 BYTE   Gs4
 BYTE   N06  Gs5
 BYTE   W06
 BYTE   N12  Gs4
 BYTE   W12
 BYTE   Gs4  v024
 BYTE   N12  Gs5
 BYTE   W12
 BYTE   N06  Gn5  v032
 BYTE   W06
 BYTE   Fs5
 BYTE   W06
 BYTE   N24  Fn4  v024
 BYTE   N24  Fn5
 BYTE   W24
//  #02 //042   ----------------------------------------
 BYTE   PATT
  POIN2 Label_0102257D
//  #02 //043   ----------------------------------------
 BYTE   N06  En4  v020
 BYTE   N06  En5
 BYTE   W06
 BYTE   En4
 BYTE   N06  En5
 BYTE   W06
 BYTE   En4
 BYTE   N06  En5
 BYTE   W06
 BYTE   En4
 BYTE   N06  En5
 BYTE   W06
 BYTE   En4
 BYTE   N06  En5
 BYTE   W06
 BYTE   En4
 BYTE   N06  En5
 BYTE   W06
 BYTE   N12  Cs4  v024
 BYTE   N12  Cs5
 BYTE   W12
 BYTE   Ds4
 BYTE   N12  Gs4
 BYTE   N12  Ds5
 BYTE   W12
 BYTE   Cs4
 BYTE   N12  Cs5
 BYTE   W12
 BYTE   Gs3
 BYTE   N12  Gs4
 BYTE   W12
 BYTE   N06  As4  v032
 BYTE   W06
 BYTE   An4
 BYTE   W06
//  #02 //044   ----------------------------------------
 BYTE   PATT
  POIN2 Label_010225E8
//  #02 //045   ----------------------------------------
 BYTE   PATT
  POIN2 Label_01022625
//  #02 //046   ----------------------------------------
 BYTE   PATT
  POIN2 Label_01022665
//  #02 //047   ----------------------------------------
 BYTE   W12
 BYTE   N24  Gs2  v028
 BYTE   N24  Bn2
 BYTE   N24  En3
 BYTE   W24
 BYTE   N06  En4  v024
 BYTE   W06
 BYTE   N06
 BYTE   W06
 BYTE   N18  Bn3
 BYTE   N18  En4
 BYTE   W18
 BYTE   Bn3
 BYTE   N18  En4
 BYTE   W18
 BYTE   N12  Bn3
 BYTE   N12  En4
 BYTE   W12
//  #02 //048   ----------------------------------------
Label_010228F4:
 BYTE   N12  Gs4  v028
 BYTE   N12  Ds5
 BYTE   W12
 BYTE   Cs5
 BYTE   W12
 BYTE   Gs5
 BYTE   W12
 BYTE   Gs4
 BYTE   W12
 BYTE   Ds5
 BYTE   W12
 BYTE   Cs5
 BYTE   W12
 BYTE   Gs5
 BYTE   W12
 BYTE   Gs4
 BYTE   W12
 BYTE   PEND 
//  #02 //049   ----------------------------------------
 BYTE   PATT
  POIN2 Label_010228F4
//  #02 //050   ----------------------------------------
 BYTE   PATT
  POIN2 Label_010228F4
//  #02 //051   ----------------------------------------
 BYTE   PATT
  POIN2 Label_010228F4
//  #02 //052   ----------------------------------------
 BYTE   W12
 BYTE   N12  Gs3  v032
 BYTE   W12
 BYTE   N12
 BYTE   N12  Cs4
 BYTE   W12
 BYTE   Gs3
 BYTE   W12
 BYTE   N12
 BYTE   N12  Ds4
 BYTE   W12
 BYTE   Gs3
 BYTE   N12  Ds4
 BYTE   W12
 BYTE   Gs3
 BYTE   N12  Cs4
 BYTE   W12
 BYTE   N24  Gs3
 BYTE   N24  Fn4
 BYTE   N24  Gs4
 BYTE   W12
//  #02 //053   ----------------------------------------
 BYTE   W12
 BYTE   N12  Cn4
 BYTE   N12  Fn4
 BYTE   W12
 BYTE   Cn4
 BYTE   N12  Ds4
 BYTE   W12
 BYTE   Cs4
 BYTE   W12
 BYTE   Cn4
 BYTE   N12  Ds4
 BYTE   W12
 BYTE   Cs4
 BYTE   W12
 BYTE   N12
 BYTE   N12  Fs4
 BYTE   N12  As4
 BYTE   W12
 BYTE   N24  Cs4
 BYTE   N24  Fn4
 BYTE   N24  Gs4
 BYTE   W12
//  #02 //054   ----------------------------------------
 BYTE   N12  Ds5
 BYTE   W12
 BYTE   Cs5
 BYTE   W12
 BYTE   Gs5
 BYTE   W12
 BYTE   Gs4
 BYTE   W12
 BYTE   Ds5
 BYTE   W12
 BYTE   Cs5
 BYTE   W12
 BYTE   Gs5
 BYTE   W12
 BYTE   Gs4
 BYTE   W12
//  #02 //055   ----------------------------------------
 BYTE   Ds3  v028
 BYTE   N12  Gs3
 BYTE   N12  Cs4
 BYTE   W12
 BYTE   Ds3
 BYTE   N12  Gs3
 BYTE   N12  Cs4
 BYTE   W12
 BYTE   Ds3
 BYTE   N12  Gs3
 BYTE   N12  Cs4
 BYTE   W12
 BYTE   N06  Ds3
 BYTE   N06  Gs3
 BYTE   N06  Cn4
 BYTE   W06
 BYTE   Ds4
 BYTE   W06
 BYTE   N18  Gs4
 BYTE   W18
 BYTE   N06  Ds4
 BYTE   W06
 BYTE   N12  Gs3
 BYTE   W12
 BYTE   Cn3  v040
 BYTE   N12  Gs3  v032
 BYTE   W12
//  #02 //056   ----------------------------------------
 BYTE   N30  Cs3  v040
 BYTE   N30  Fn3  v032
 BYTE   N30  Gs3
 BYTE   W36
 BYTE   N12  Fn3
 BYTE   N12  Cs4
 BYTE   W12
 BYTE   N30  Fn3
 BYTE   N30  Gs3
 BYTE   N30  Cs4
 BYTE   W36
 BYTE   N12  Fn3
 BYTE   N12  Cs4
 BYTE   W12
//  #02 //057   ----------------------------------------
 BYTE   N30  Fn3
 BYTE   N30  Gs3
 BYTE   N30  Cn4
 BYTE   W36
 BYTE   N12  Fn3
 BYTE   N12  Cs4
 BYTE   W12
 BYTE   N30  Cs3  v040
 BYTE   N30  Fn3  v032
 BYTE   N30  Gs3
 BYTE   W36
 BYTE   N12  Fn3
 BYTE   N12  Gs3
 BYTE   W12
//  #02 //058   ----------------------------------------
 BYTE   N30  As3
 BYTE   N30  Cs4
 BYTE   N30  Fn4
 BYTE   W36
 BYTE   N12  Cs4
 BYTE   N12  Fs4
 BYTE   W12
 BYTE   N30  As3
 BYTE   N30  Cs4
 BYTE   N30  Fn4
 BYTE   W36
 BYTE   N12  Cn4
 BYTE   N12  Ds4
 BYTE   W12
//  #02 //059   ----------------------------------------
 BYTE   N30  Gs3
 BYTE   N30  Cn4
 BYTE   N30  Ds4
 BYTE   W36
 BYTE   N12  Gs3
 BYTE   N12  Cs4
 BYTE   W12
 BYTE   N30  Gs3
 BYTE   N30  Cs4
 BYTE   W36
 BYTE   N12  Fs3
 BYTE   N12  Cs4
 BYTE   W12
//  #02 //060   ----------------------------------------
 BYTE   N30  Fn3
 BYTE   N30  Gs3
 BYTE   N30  Cs4
 BYTE   W36
 BYTE   N12  Gs3
 BYTE   N12  Gs4
 BYTE   W12
 BYTE   N30  Gs3
 BYTE   N30  Cs4
 BYTE   N30  Gs4
 BYTE   W36
 BYTE   N12  Gs3
 BYTE   N12  Cs4
 BYTE   W12
//  #02 //061   ----------------------------------------
 BYTE   N30  Fn3
 BYTE   N30  Gs3
 BYTE   N30  Cn4
 BYTE   W36
 BYTE   N12  Fn3
 BYTE   N12  Cs4
 BYTE   W12
 BYTE   N24  Fn3
 BYTE   N24  Gs3
 BYTE   W24
 BYTE   N12
 BYTE   W12
 BYTE   Cs4
 BYTE   W12
//  #02 //062   ----------------------------------------
 BYTE   N24  As3
 BYTE   N24  Cs4
 BYTE   N24  Fn4
 BYTE   W24
 BYTE   N12  As3
 BYTE   N12  Cs4
 BYTE   W12
 BYTE   N24  As3
 BYTE   N24  Cs4
 BYTE   N24  Fn4
 BYTE   W24
 BYTE   As3
 BYTE   N24  Fs4
 BYTE   W24
 BYTE   N42  Gs3
 BYTE   N42  Cn4
 BYTE   N42  Fn4
 BYTE   W12
//  #02 //063   ----------------------------------------
 BYTE   W36
 BYTE   Gs3
 BYTE   N42  Cn4
 BYTE   N42  Ds4
 BYTE   W48
 BYTE   N12  Cs4
 BYTE   W12
//  #02 //064   ----------------------------------------
 BYTE   N30  Fn3
 BYTE   N30  Gs3
 BYTE   N30  Cs4
 BYTE   W36
 BYTE   N12  Gs3
 BYTE   W12
 BYTE   N30
 BYTE   N30  Fn4
 BYTE   N30  Gs4
 BYTE   W36
 BYTE   N12  Fn3
 BYTE   N12  Cs4
 BYTE   W12
//  #02 //065   ----------------------------------------
 BYTE   N30  Fn3
 BYTE   N30  Gs3
 BYTE   N30  Cs4
 BYTE   W36
 BYTE   N12  Gs3
 BYTE   W12
 BYTE   N24
 BYTE   N24  Fn4
 BYTE   N24  Gs4
 BYTE   W24
 BYTE   N12  Gs3  v040
 BYTE   W12
 BYTE   N12
 BYTE   W12
//  #02 //066   ----------------------------------------
 BYTE   N12
 BYTE   N12  Fn4
 BYTE   W12
 BYTE   As3
 BYTE   N12  Fs4
 BYTE   W12
 BYTE   Gs3
 BYTE   N12  Fn4
 BYTE   W12
 BYTE   Fs3
 BYTE   N12  Ds4
 BYTE   W12
 BYTE   N24  Fs3
 BYTE   N24  Ds4
 BYTE   W24
 BYTE   N12  Gs3
 BYTE   W12
 BYTE   N12
 BYTE   W12
//  #02 //067   ----------------------------------------
 BYTE   Cs4  v032
 BYTE   N12  Fn4
 BYTE   W12
 BYTE   Ds4
 BYTE   N12  Fs4
 BYTE   W12
 BYTE   Cs4
 BYTE   N12  Fn4
 BYTE   W12
 BYTE   Cn4
 BYTE   N12  Ds4
 BYTE   W12
 BYTE   N24  Cn4
 BYTE   N24  Ds4
 BYTE   W24
 BYTE   N12  Cs4  v040
 BYTE   W12
 BYTE   Gs3
 BYTE   W12
//  #02 //068   ----------------------------------------
 BYTE   N30  Fn3  v032
 BYTE   N30  Gs3
 BYTE   W36
 BYTE   N12
 BYTE   N12  Ds4
 BYTE   W12
 BYTE   N30  Fn3
 BYTE   N30  Gs3
 BYTE   N30  Ds4
 BYTE   W36
 BYTE   N12  Gs3
 BYTE   N12  Cs4
 BYTE   W12
//  #02 //069   ----------------------------------------
 BYTE   N30  Fn3
 BYTE   N30  Gs3
 BYTE   W36
 BYTE   N12  Gs3  v040
 BYTE   W12
 BYTE   Gs3  v032
 BYTE   N12  Ds4
 BYTE   W12
 BYTE   Gs3
 BYTE   N12  Fn4
 BYTE   W12
 BYTE   Gs3
 BYTE   N12  Fs4
 BYTE   W12
 BYTE   N30  Gs3
 BYTE   N30  Cs4
 BYTE   N30  Fn4
 BYTE   W12
//  #02 //070   ----------------------------------------
 BYTE   W24
 BYTE   N24  Fs3
 BYTE   N24  As3
 BYTE   N24  Ds4
 BYTE   W60
 BYTE   N12  Gs3  v040
 BYTE   W12
//  #02 //071   ----------------------------------------
 BYTE   N30  Gs3  v032
 BYTE   N30  Cs4
 BYTE   N30  Fn4
 BYTE   W36
 BYTE   N12  Fs4  v040
 BYTE   W12
 BYTE   N30  Gs3  v032
 BYTE   N30  Cs4
 BYTE   N30  Fn4
 BYTE   W36
 BYTE   N12  Ds4  v040
 BYTE   W12
//  #02 //072   ----------------------------------------
 BYTE   N24  Fn3  v028
 BYTE   N24  Gs3
 BYTE   N24  Ds4
 BYTE   W24
 BYTE   N12  Gs2  v024
 BYTE   N12  Cn3
 BYTE   N12  Fn3
 BYTE   W12
 BYTE   N30  Gs3  v028
 BYTE   N30  Cs4
 BYTE   W36
 BYTE   N12  Gs2  v032
 BYTE   W12
 BYTE   N24  Gs2  v024
 BYTE   N24  Cn3
 BYTE   N24  Fn3
 BYTE   W12
//  #02 //073   ----------------------------------------
Label_01022B22:
 BYTE   W12
 BYTE   N12  Gs2  v024
 BYTE   N12  Cn3
 BYTE   N12  Fn3
 BYTE   W12
 BYTE   N06  Gs2  v032
 BYTE   W12
 BYTE   N06
 BYTE   W06
 BYTE   Fn2
 BYTE   W06
 BYTE   Gs2  v024
 BYTE   N06  Cn3
 BYTE   N06  Fn3
 BYTE   W24
 BYTE   Gs2
 BYTE   N06  Cn3
 BYTE   N06  Fn3
 BYTE   W24
 BYTE   PEND 
//  #02 //074   ----------------------------------------
Label_01022B41:
 BYTE   N24  Bn2  v024
 BYTE   N24  En3
 BYTE   N24  Gs3
 BYTE   W24
 BYTE   N12  Gs2
 BYTE   N12  Bn2
 BYTE   N12  En3
 BYTE   W24
 BYTE   En3  v032
 BYTE   W24
 BYTE   Gs2
 BYTE   W12
 BYTE   N24  Bn2  v024
 BYTE   N24  En3
 BYTE   N24  Gs3
 BYTE   W12
 BYTE   PEND 
//  #02 //075   ----------------------------------------
 BYTE   W12
 BYTE   N12  Gs2
 BYTE   N12  Bn2
 BYTE   N12  En3
 BYTE   W24
 BYTE   Cs4  v036
 BYTE   W12
 BYTE   En3  v024
 BYTE   N12  Gs3
 BYTE   N12  Ds4  v028
 BYTE   W12
 BYTE   Cs4  v036
 BYTE   W12
 BYTE   N24  Gs3
 BYTE   W24
//  #02 //076   ----------------------------------------
 BYTE   Gs2  v024
 BYTE   N24  Cn3
 BYTE   N24  Fn3
 BYTE   W24
 BYTE   N12  Gs2
 BYTE   N12  Cn3
 BYTE   N12  Fn3
 BYTE   W48
 BYTE   Gs2  v032
 BYTE   W12
 BYTE   N24  Gs2  v024
 BYTE   N24  Cn3
 BYTE   N24  Fn3
 BYTE   W12
//  #02 //077   ----------------------------------------
 BYTE   PATT
  POIN2 Label_01022B22
//  #02 //078   ----------------------------------------
 BYTE   PATT
  POIN2 Label_01022B41
//  #02 //079   ----------------------------------------
 BYTE   W12
 BYTE   N12  Gs2  v024
 BYTE   N12  Bn2
 BYTE   N12  En3
 BYTE   W12
 BYTE   Gs2  v032
 BYTE   W24
 BYTE   N30  Bn3  v024
 BYTE   N30  En4
 BYTE   N30  As4
 BYTE   W36
 BYTE   N12  Gs4  v032
 BYTE   W12
//  #02 //080   ----------------------------------------
 BYTE   Gs4  v020
 BYTE   W12
 BYTE   Cs5
 BYTE   W12
 BYTE   Gs5
 BYTE   W12
 BYTE   Gs4
 BYTE   W12
 BYTE   Ds5
 BYTE   W12
 BYTE   Gs5
 BYTE   W12
 BYTE   Gs4
 BYTE   W12
 BYTE   N12
 BYTE   W12
//  #02 //081   ----------------------------------------
Label_01022BC3:
 BYTE   N12  Ds5  v016
 BYTE   W12
 BYTE   Cs5  v012
 BYTE   W12
 BYTE   Gs5
 BYTE   W12
 BYTE   Gs4
 BYTE   W12
 BYTE   Ds5
 BYTE   W12
 BYTE   Gs5
 BYTE   W12
 BYTE   N24  Gs4
 BYTE   W24
 BYTE   PEND 
//  #02 //082   ----------------------------------------
Label_01022BD6:
 BYTE   W12
 BYTE   N12  Cs5  v012
 BYTE   W12
 BYTE   Gs5
 BYTE   W12
 BYTE   Gs4
 BYTE   W12
 BYTE   Ds5
 BYTE   W12
 BYTE   Gs5
 BYTE   W12
 BYTE   N24  Gs4
 BYTE   W24
 BYTE   PEND 
//  #02 //083   ----------------------------------------
 BYTE   N12  Ds5
 BYTE   W12
 BYTE   N06  Cs5
 BYTE   W12
 BYTE   N12  Gs5
 BYTE   W12
 BYTE   Gs4
 BYTE   W12
 BYTE   Ds5
 BYTE   W12
 BYTE   Gs5
 BYTE   W12
 BYTE   N24  Gs4
 BYTE   W24
//  #02 //084   ----------------------------------------
 BYTE   N24
 BYTE   W24
 BYTE   N12  Ds5
 BYTE   W12
 BYTE   Cs5
 BYTE   W12
 BYTE   Gs5
 BYTE   W12
 BYTE   Gs4
 BYTE   W12
 BYTE   N24  Cs5
 BYTE   W24
//  #02 //085   ----------------------------------------
 BYTE   W12
 BYTE   N12
 BYTE   W12
 BYTE   Gs5
 BYTE   W12
 BYTE   Gs4
 BYTE   W12
 BYTE   Ds5
 BYTE   W12
 BYTE   Cs5
 BYTE   W12
 BYTE   Gs5
 BYTE   W12
 BYTE   Gs4
 BYTE   W12
//  #02 //086   ----------------------------------------
 BYTE   PATT
  POIN2 Label_01022BD6
//  #02 //087   ----------------------------------------
 BYTE   N12  Ds5  v012
 BYTE   W12
 BYTE   Cs5
 BYTE   W12
 BYTE   Gs5
 BYTE   W12
 BYTE   Gs4
 BYTE   W12
 BYTE   Ds5
 BYTE   W12
 BYTE   Gs5
 BYTE   W12
 BYTE   N24  Gs4  v016
 BYTE   W24
//  #02 //088   ----------------------------------------
 BYTE   N12
 BYTE   N12  Ds5  v012
 BYTE   W12
 BYTE   Cs5
 BYTE   W12
 BYTE   Gs5
 BYTE   W12
 BYTE   Gs4
 BYTE   W12
 BYTE   Ds5
 BYTE   W12
 BYTE   Gs5
 BYTE   W12
 BYTE   N24  Gs4
 BYTE   W24
//  #02 //089   ----------------------------------------
 BYTE   PATT
  POIN2 Label_01022BC3
//  #02 //090   ----------------------------------------
 BYTE   N12  Ds5  v012
 BYTE   W12
 BYTE   Cs5
 BYTE   W12
 BYTE   Gs5
 BYTE   W12
 BYTE   Gs4
 BYTE   W12
 BYTE   Ds5
 BYTE   W12
 BYTE   Gs5
 BYTE   W12
 BYTE   Gs4
 BYTE   W24
//  #02 //091   ----------------------------------------
 BYTE   Ds5
 BYTE   W12
 BYTE   Cs5
 BYTE   W12
 BYTE   Gs5
 BYTE   W24
 BYTE   Ds5
 BYTE   W12
 BYTE   Gs5
 BYTE   W12
 BYTE   N24  Gs4
 BYTE   W24
//  #02 //092   ----------------------------------------
 BYTE   W24
 BYTE   N12  Ds5
 BYTE   W12
 BYTE   Cs5
 BYTE   W12
 BYTE   Gs5
 BYTE   W12
 BYTE   Gs4
 BYTE   W12
 BYTE   Cs5
 BYTE   W24
//  #02 //093   ----------------------------------------
 BYTE   Ds5
 BYTE   W12
 BYTE   Cs5
 BYTE   W12
 BYTE   Gs5
 BYTE   W12
 BYTE   Gs4
 BYTE   W12
 BYTE   Ds5
 BYTE   W12
 BYTE   Cs5
 BYTE   W12
 BYTE   Gs5
 BYTE   W24
//  #02 //094   ----------------------------------------
 BYTE   Ds5
 BYTE   W12
 BYTE   Cs5
 BYTE   W12
 BYTE   Gs5
 BYTE   W12
 BYTE   Gs4
 BYTE   W12
 BYTE   Ds5
 BYTE   W12
 BYTE   Gs5
 BYTE   W12
 BYTE   N24  Gs4
 BYTE   W24
//  #02 //095   ----------------------------------------
 BYTE   N12  Ds5
 BYTE   W12
 BYTE   Cs5
 BYTE   W12
 BYTE   Gs5  v016
 BYTE   W12
 BYTE   Cs4  v020
 BYTE   N12  Gs4  v016
 BYTE   W12
 BYTE   Ds4  v020
 BYTE   W12
 BYTE   Cs4
 BYTE   W12
 BYTE   N24  Cs4  v016
 BYTE   N24  Gs4
 BYTE   N24  Cs5
 BYTE   W24
//  #02 //096   ----------------------------------------
 BYTE   N96  Gs2
 BYTE   N96  Cn3
 BYTE   N96  Fn3
 BYTE   W96
//  #02 //097   ----------------------------------------
 BYTE   GoTo
  POIN2 Label_0102244C
 BYTE   FINE

//**************** Track 3 (Midi-Chn.2) ****************//

song1F_003:
//  #03 //000   ----------------------------------------
 BYTE   VOL   80*song1F_mvl/mxv
 BYTE   KEYSH   song1F_key+0
Label_010200E8:
 BYTE   VOICE   4
 BYTE   W96
//  #03 //001   ----------------------------------------
 BYTE   W96
//  #03 //002   ----------------------------------------
 BYTE   W96
//  #03 //003   ----------------------------------------
 BYTE   W96
//  #03 //004   ----------------------------------------
 BYTE   W96
//  #03 //005   ----------------------------------------
 BYTE   W96
//  #03 //006   ----------------------------------------
 BYTE   W96
//  #03 //007   ----------------------------------------
 BYTE   W96
//  #03 //008   ----------------------------------------
 BYTE   W96
//  #03 //009   ----------------------------------------
 BYTE   W96
//  #03 //010   ----------------------------------------
 BYTE   W96
//  #03 //011   ----------------------------------------
 BYTE   W96
//  #03 //012   ----------------------------------------
 BYTE   W96
//  #03 //013   ----------------------------------------
 BYTE   W96
//  #03 //014   ----------------------------------------
 BYTE   W96
//  #03 //015   ----------------------------------------
 BYTE   W96
//  #03 //016   ----------------------------------------
 BYTE   W96
//  #03 //017   ----------------------------------------
 BYTE   W96
//  #03 //018   ----------------------------------------
 BYTE   W96
//  #03 //019   ----------------------------------------
 BYTE   W96
//  #03 //020   ----------------------------------------
 BYTE   W96
//  #03 //021   ----------------------------------------
 BYTE   W96
//  #03 //022   ----------------------------------------
 BYTE   W96
//  #03 //023   ----------------------------------------
 BYTE   W96
//  #03 //024   ----------------------------------------
 BYTE   N96  Cn4  v016
 BYTE   N96  Fn4
 BYTE   W96
//  #03 //025   ----------------------------------------
 BYTE   Cn4
 BYTE   N96  Fn4
 BYTE   W96
//  #03 //026   ----------------------------------------
Label_0102010C:
 BYTE   N96  Gn3  v016
 BYTE   N96  As3
 BYTE   N96  Ds4
 BYTE   W96
 BYTE   PEND 
//  #03 //027   ----------------------------------------
 BYTE   PATT
  POIN2 Label_0102010C
//  #03 //028   ----------------------------------------
 BYTE   N96  Cs4  v016
 BYTE   N96  Fn4
 BYTE   W96
//  #03 //029   ----------------------------------------
Label_01020120:
 BYTE   N96  Ds3  v016
 BYTE   N96  As3
 BYTE   N96  Cs4
 BYTE   W96
 BYTE   PEND 
//  #03 //030   ----------------------------------------
Label_01020129:
 BYTE   N96  Fn3  v016
 BYTE   N96  As3
 BYTE   N96  Cs4
 BYTE   W96
 BYTE   PEND 
//  #03 //031   ----------------------------------------
Label_01020132:
 BYTE   N96  Ds3  v016
 BYTE   N96  Gs3
 BYTE   N96  Cn4
 BYTE   W96
 BYTE   PEND 
//  #03 //032   ----------------------------------------
 BYTE   W96
//  #03 //033   ----------------------------------------
 BYTE   W96
//  #03 //034   ----------------------------------------
 BYTE   W96
//  #03 //035   ----------------------------------------
 BYTE   W96
//  #03 //036   ----------------------------------------
 BYTE   W96
//  #03 //037   ----------------------------------------
 BYTE   W96
//  #03 //038   ----------------------------------------
 BYTE   W96
//  #03 //039   ----------------------------------------
 BYTE   W96
//  #03 //040   ----------------------------------------
 BYTE   W96
//  #03 //041   ----------------------------------------
 BYTE   W96
//  #03 //042   ----------------------------------------
 BYTE   W96
//  #03 //043   ----------------------------------------
 BYTE   W96
//  #03 //044   ----------------------------------------
 BYTE   W96
//  #03 //045   ----------------------------------------
 BYTE   W96
//  #03 //046   ----------------------------------------
 BYTE   W96
//  #03 //047   ----------------------------------------
 BYTE   W96
//  #03 //048   ----------------------------------------
 BYTE   W96
//  #03 //049   ----------------------------------------
 BYTE   W96
//  #03 //050   ----------------------------------------
 BYTE   W96
//  #03 //051   ----------------------------------------
 BYTE   W96
//  #03 //052   ----------------------------------------
 BYTE   W96
//  #03 //053   ----------------------------------------
 BYTE   W96
//  #03 //054   ----------------------------------------
 BYTE   W96
//  #03 //055   ----------------------------------------
 BYTE   W96
//  #03 //056   ----------------------------------------
 BYTE   W96
//  #03 //057   ----------------------------------------
 BYTE   W96
//  #03 //058   ----------------------------------------
 BYTE   W96
//  #03 //059   ----------------------------------------
 BYTE   W96
//  #03 //060   ----------------------------------------
 BYTE   W96
//  #03 //061   ----------------------------------------
 BYTE   W96
//  #03 //062   ----------------------------------------
 BYTE   W96
//  #03 //063   ----------------------------------------
 BYTE   W96
//  #03 //064   ----------------------------------------
 BYTE   W96
//  #03 //065   ----------------------------------------
 BYTE   W96
//  #03 //066   ----------------------------------------
 BYTE   W96
//  #03 //067   ----------------------------------------
 BYTE   W96
//  #03 //068   ----------------------------------------
 BYTE   W96
//  #03 //069   ----------------------------------------
 BYTE   W96
//  #03 //070   ----------------------------------------
 BYTE   W96
//  #03 //071   ----------------------------------------
 BYTE   W96
//  #03 //072   ----------------------------------------
 BYTE   W96
//  #03 //073   ----------------------------------------
 BYTE   W96
//  #03 //074   ----------------------------------------
 BYTE   W96
//  #03 //075   ----------------------------------------
 BYTE   W96
//  #03 //076   ----------------------------------------
 BYTE   W96
//  #03 //077   ----------------------------------------
 BYTE   W96
//  #03 //078   ----------------------------------------
 BYTE   W96
//  #03 //079   ----------------------------------------
 BYTE   W96
//  #03 //080   ----------------------------------------
 BYTE   N96
 BYTE   N96  Fn4
 BYTE   W96
//  #03 //081   ----------------------------------------
 BYTE   Cn4
 BYTE   N96  Fn4
 BYTE   W96
//  #03 //082   ----------------------------------------
 BYTE   PATT
  POIN2 Label_0102010C
//  #03 //083   ----------------------------------------
 BYTE   PATT
  POIN2 Label_0102010C
//  #03 //084   ----------------------------------------
Label_0102017D:
 BYTE   N96  Cs4  v016
 BYTE   N96  Fn4
 BYTE   N96  Gs4
 BYTE   W96
 BYTE   PEND 
//  #03 //085   ----------------------------------------
 BYTE   PATT
  POIN2 Label_01020120
//  #03 //086   ----------------------------------------
 BYTE   PATT
  POIN2 Label_01020129
//  #03 //087   ----------------------------------------
 BYTE   PATT
  POIN2 Label_01020132
//  #03 //088   ----------------------------------------
 BYTE   W96
//  #03 //089   ----------------------------------------
 BYTE   W96
//  #03 //090   ----------------------------------------
 BYTE   W96
//  #03 //091   ----------------------------------------
 BYTE   W96
//  #03 //092   ----------------------------------------
 BYTE   N96  Fn3  v016
 BYTE   N96  Gs3
 BYTE   W96
//  #03 //093   ----------------------------------------
 BYTE   PATT
  POIN2 Label_0102017D
//  #03 //094   ----------------------------------------
 BYTE   PATT
  POIN2 Label_0102017D
//  #03 //095   ----------------------------------------
 BYTE   W96
//  #03 //096   ----------------------------------------
 BYTE   W96
//  #03 //097   ----------------------------------------
 BYTE   GoTo
  POIN2 Label_010200E8
 BYTE   FINE

//**************** Track 4 (Midi-Chn.3) ****************//

song1F_004:
//  #04 //000   ----------------------------------------
 BYTE   VOL   80*song1F_mvl/mxv
 BYTE   KEYSH   song1F_key+0
Label_0101DAD8:
 BYTE   VOICE   100
 BYTE   W96
//  #04 //001   ----------------------------------------
 BYTE   W96
//  #04 //002   ----------------------------------------
 BYTE   W96
//  #04 //003   ----------------------------------------
 BYTE   W96
//  #04 //004   ----------------------------------------
 BYTE   W96
//  #04 //005   ----------------------------------------
 BYTE   W96
//  #04 //006   ----------------------------------------
 BYTE   W96
//  #04 //007   ----------------------------------------
 BYTE   W96
//  #04 //008   ----------------------------------------
 BYTE   W96
//  #04 //009   ----------------------------------------
 BYTE   W96
//  #04 //010   ----------------------------------------
 BYTE   W96
//  #04 //011   ----------------------------------------
 BYTE   W96
//  #04 //012   ----------------------------------------
 BYTE   W96
//  #04 //013   ----------------------------------------
 BYTE   W96
//  #04 //014   ----------------------------------------
 BYTE   W96
//  #04 //015   ----------------------------------------
 BYTE   W96
//  #04 //016   ----------------------------------------
 BYTE   W96
//  #04 //017   ----------------------------------------
 BYTE   W96
//  #04 //018   ----------------------------------------
 BYTE   W96
//  #04 //019   ----------------------------------------
 BYTE   W96
//  #04 //020   ----------------------------------------
 BYTE   W96
//  #04 //021   ----------------------------------------
 BYTE   W96
//  #04 //022   ----------------------------------------
 BYTE   W96
//  #04 //023   ----------------------------------------
 BYTE   W96
//  #04 //024   ----------------------------------------
 BYTE   W96
//  #04 //025   ----------------------------------------
 BYTE   W96
//  #04 //026   ----------------------------------------
 BYTE   W96
//  #04 //027   ----------------------------------------
 BYTE   W96
//  #04 //028   ----------------------------------------
 BYTE   W96
//  #04 //029   ----------------------------------------
 BYTE   W96
//  #04 //030   ----------------------------------------
 BYTE   W96
//  #04 //031   ----------------------------------------
 BYTE   W96
//  #04 //032   ----------------------------------------
 BYTE   W96
//  #04 //033   ----------------------------------------
 BYTE   W96
//  #04 //034   ----------------------------------------
 BYTE   W96
//  #04 //035   ----------------------------------------
 BYTE   W96
//  #04 //036   ----------------------------------------
 BYTE   W96
//  #04 //037   ----------------------------------------
 BYTE   W96
//  #04 //038   ----------------------------------------
 BYTE   W96
//  #04 //039   ----------------------------------------
 BYTE   W96
//  #04 //040   ----------------------------------------
 BYTE   W96
//  #04 //041   ----------------------------------------
 BYTE   W96
//  #04 //042   ----------------------------------------
 BYTE   W96
//  #04 //043   ----------------------------------------
 BYTE   W96
//  #04 //044   ----------------------------------------
 BYTE   W96
//  #04 //045   ----------------------------------------
 BYTE   W96
//  #04 //046   ----------------------------------------
 BYTE   W96
//  #04 //047   ----------------------------------------
 BYTE   W96
//  #04 //048   ----------------------------------------
 BYTE   W96
//  #04 //049   ----------------------------------------
 BYTE   W96
//  #04 //050   ----------------------------------------
 BYTE   W96
//  #04 //051   ----------------------------------------
 BYTE   W96
//  #04 //052   ----------------------------------------
 BYTE   W96
//  #04 //053   ----------------------------------------
 BYTE   W96
//  #04 //054   ----------------------------------------
 BYTE   W96
//  #04 //055   ----------------------------------------
 BYTE   W96
//  #04 //056   ----------------------------------------
 BYTE   W96
//  #04 //057   ----------------------------------------
 BYTE   W96
//  #04 //058   ----------------------------------------
 BYTE   W96
//  #04 //059   ----------------------------------------
 BYTE   W96
//  #04 //060   ----------------------------------------
 BYTE   W96
//  #04 //061   ----------------------------------------
 BYTE   W96
//  #04 //062   ----------------------------------------
 BYTE   W96
//  #04 //063   ----------------------------------------
 BYTE   W96
//  #04 //064   ----------------------------------------
 BYTE   W96
//  #04 //065   ----------------------------------------
 BYTE   W96
//  #04 //066   ----------------------------------------
 BYTE   W96
//  #04 //067   ----------------------------------------
 BYTE   W96
//  #04 //068   ----------------------------------------
 BYTE   W96
//  #04 //069   ----------------------------------------
 BYTE   W96
//  #04 //070   ----------------------------------------
 BYTE   W96
//  #04 //071   ----------------------------------------
 BYTE   W96
//  #04 //072   ----------------------------------------
 BYTE   W96
//  #04 //073   ----------------------------------------
 BYTE   W96
//  #04 //074   ----------------------------------------
 BYTE   W96
//  #04 //075   ----------------------------------------
 BYTE   W96
//  #04 //076   ----------------------------------------
 BYTE   W96
//  #04 //077   ----------------------------------------
 BYTE   W96
//  #04 //078   ----------------------------------------
 BYTE   W96
//  #04 //079   ----------------------------------------
 BYTE   W96
//  #04 //080   ----------------------------------------
 BYTE   N72  Cs3  v052
 BYTE   W72
 BYTE   N12  Cs4
 BYTE   W12
 BYTE   N48  Cs3
 BYTE   W12
//  #04 //081   ----------------------------------------
 BYTE   W36
 BYTE   N12  Gs3
 BYTE   W12
 BYTE   N12
 BYTE   W12
 BYTE   As3
 BYTE   W12
 BYTE   Gs3
 BYTE   W12
 BYTE   Ds4
 BYTE   W12
//  #04 //082   ----------------------------------------
 BYTE   N90  Cn3
 BYTE   W96
//  #04 //083   ----------------------------------------
 BYTE   N12
 BYTE   W12
 BYTE   N06  Cn4  v048
 BYTE   W06
 BYTE   N30  Cs4  v052
 BYTE   W30
 BYTE   N24  Cn4
 BYTE   W24
 BYTE   As3
 BYTE   W24
//  #04 //084   ----------------------------------------
 BYTE   N36  As2
 BYTE   W36
 BYTE   N12  Cs4
 BYTE   W12
 BYTE   N30
 BYTE   W36
 BYTE   N12
 BYTE   W12
//  #04 //085   ----------------------------------------
 BYTE   N24  Gs2
 BYTE   W24
 BYTE   Cs4
 BYTE   W24
 BYTE   Gs3
 BYTE   W24
 BYTE   Ds4
 BYTE   W24
//  #04 //086   ----------------------------------------
 BYTE   N90  Fs3
 BYTE   W96
//  #04 //087   ----------------------------------------
 BYTE   N24
 BYTE   W36
 BYTE   N12  Cs4
 BYTE   W12
 BYTE   Ds4
 BYTE   W12
 BYTE   Cs4
 BYTE   W24
 BYTE   N06  Cs3  v044
 BYTE   W06
 BYTE   Ds3
 BYTE   W06
//  #04 //088   ----------------------------------------
 BYTE   N24  Fn3  v052
 BYTE   W24
 BYTE   Fn4
 BYTE   W24
 BYTE   Ds4
 BYTE   W24
 BYTE   N12  Cs4
 BYTE   W12
 BYTE   Fs4
 BYTE   W12
//  #04 //089   ----------------------------------------
 BYTE   Cs3
 BYTE   W12
 BYTE   N24  Fn4
 BYTE   W24
 BYTE   Ds4
 BYTE   W24
 BYTE   N36  Cs4
 BYTE   W36
//  #04 //090   ----------------------------------------
 BYTE   Ds3
 BYTE   W36
 BYTE   N12  Cs4
 BYTE   W12
 BYTE   Ds4
 BYTE   W12
 BYTE   N12
 BYTE   W12
 BYTE   Cs4
 BYTE   W12
 BYTE   Gs4
 BYTE   W12
//  #04 //091   ----------------------------------------
 BYTE   Cn3
 BYTE   W36
 BYTE   N24  Gs4
 BYTE   N12  As4
 BYTE   W24
 BYTE   Fn4
 BYTE   W12
 BYTE   Ds4
 BYTE   W12
 BYTE   Cs4
 BYTE   W12
//  #04 //092   ----------------------------------------
 BYTE   Cs3
 BYTE   W12
 BYTE   Gs3
 BYTE   W12
 BYTE   Cs4
 BYTE   W12
 BYTE   Gs3
 BYTE   W12
 BYTE   N12
 BYTE   W12
 BYTE   N12
 BYTE   W12
 BYTE   N24  Cs4
 BYTE   W24
//  #04 //093   ----------------------------------------
 BYTE   N12  Cn3
 BYTE   W12
 BYTE   Fn4
 BYTE   W12
 BYTE   Ds4
 BYTE   W12
 BYTE   Cs4
 BYTE   W12
 BYTE   Ds4
 BYTE   W12
 BYTE   Cs4
 BYTE   W12
 BYTE   N24  As3
 BYTE   W24
//  #04 //094   ----------------------------------------
 BYTE   N36  Cs4
 BYTE   W36
 BYTE   Fs3
 BYTE   W36
 BYTE   N24
 BYTE   W24
//  #04 //095   ----------------------------------------
 BYTE   N36
 BYTE   W36
 BYTE   N12  Cs4
 BYTE   W12
 BYTE   Ds4
 BYTE   W12
 BYTE   Cs4
 BYTE   W12
 BYTE   N24  Gs3  v060
 BYTE   W24
//  #04 //096   ----------------------------------------
 BYTE   N96  Cs3
 BYTE   W96
//  #04 //097   ----------------------------------------
 BYTE   GoTo
  POIN2 Label_0101DAD8
 BYTE   FINE

//**************** Track 5 (Midi-Chn.4) ****************//

song1F_005:
//  #05 //000   ----------------------------------------
 BYTE   VOL   80*song1F_mvl/mxv
 BYTE   KEYSH   song1F_key+0
Label_01020974:
 BYTE   VOICE   80
 BYTE   W96
//  #05 //001   ----------------------------------------
 BYTE   W96
//  #05 //002   ----------------------------------------
 BYTE   W96
//  #05 //003   ----------------------------------------
 BYTE   W96
//  #05 //004   ----------------------------------------
 BYTE   W96
//  #05 //005   ----------------------------------------
 BYTE   W96
//  #05 //006   ----------------------------------------
 BYTE   W96
//  #05 //007   ----------------------------------------
 BYTE   W96
//  #05 //008   ----------------------------------------
 BYTE   W96
//  #05 //009   ----------------------------------------
 BYTE   W96
//  #05 //010   ----------------------------------------
 BYTE   W96
//  #05 //011   ----------------------------------------
 BYTE   W96
//  #05 //012   ----------------------------------------
 BYTE   W96
//  #05 //013   ----------------------------------------
 BYTE   W96
//  #05 //014   ----------------------------------------
 BYTE   W96
//  #05 //015   ----------------------------------------
 BYTE   W96
//  #05 //016   ----------------------------------------
 BYTE   W96
//  #05 //017   ----------------------------------------
 BYTE   W96
//  #05 //018   ----------------------------------------
 BYTE   W96
//  #05 //019   ----------------------------------------
 BYTE   W96
//  #05 //020   ----------------------------------------
 BYTE   W96
//  #05 //021   ----------------------------------------
 BYTE   W96
//  #05 //022   ----------------------------------------
 BYTE   W96
//  #05 //023   ----------------------------------------
 BYTE   W96
//  #05 //024   ----------------------------------------
 BYTE   W96
//  #05 //025   ----------------------------------------
 BYTE   W96
//  #05 //026   ----------------------------------------
 BYTE   W96
//  #05 //027   ----------------------------------------
 BYTE   W96
//  #05 //028   ----------------------------------------
 BYTE   W96
//  #05 //029   ----------------------------------------
 BYTE   W96
//  #05 //030   ----------------------------------------
 BYTE   W96
//  #05 //031   ----------------------------------------
 BYTE   W96
//  #05 //032   ----------------------------------------
 BYTE   W96
//  #05 //033   ----------------------------------------
 BYTE   W96
//  #05 //034   ----------------------------------------
 BYTE   W96
//  #05 //035   ----------------------------------------
 BYTE   W96
//  #05 //036   ----------------------------------------
 BYTE   W96
//  #05 //037   ----------------------------------------
 BYTE   W96
//  #05 //038   ----------------------------------------
 BYTE   W96
//  #05 //039   ----------------------------------------
 BYTE   W96
//  #05 //040   ----------------------------------------
 BYTE   W96
//  #05 //041   ----------------------------------------
 BYTE   W96
//  #05 //042   ----------------------------------------
 BYTE   W96
//  #05 //043   ----------------------------------------
 BYTE   W96
//  #05 //044   ----------------------------------------
 BYTE   W96
//  #05 //045   ----------------------------------------
 BYTE   W96
//  #05 //046   ----------------------------------------
 BYTE   W96
//  #05 //047   ----------------------------------------
 BYTE   W96
//  #05 //048   ----------------------------------------
Label_010209A6:
 BYTE   N12  Gs3  v008
 BYTE   W12
 BYTE   Cs4
 BYTE   W12
 BYTE   Gs4
 BYTE   W12
 BYTE   Gs3
 BYTE   W12
 BYTE   Ds4
 BYTE   W12
 BYTE   Cs4
 BYTE   W12
 BYTE   Gs4
 BYTE   W12
 BYTE   Gs3
 BYTE   W12
 BYTE   PEND 
//  #05 //049   ----------------------------------------
 BYTE   PATT
  POIN2 Label_010209A6
//  #05 //050   ----------------------------------------
 BYTE   PATT
  POIN2 Label_010209A6
//  #05 //051   ----------------------------------------
 BYTE   PATT
  POIN2 Label_010209A6
//  #05 //052   ----------------------------------------
 BYTE   W12
 BYTE   N12  Gs3  v008
 BYTE   W12
 BYTE   Cs4
 BYTE   W12
 BYTE   Gs3
 BYTE   W12
 BYTE   Ds4
 BYTE   W12
 BYTE   N12
 BYTE   W12
 BYTE   Cs4
 BYTE   W12
 BYTE   N24  Gs4
 BYTE   W12
//  #05 //053   ----------------------------------------
 BYTE   W12
 BYTE   N12  Fn4
 BYTE   W12
 BYTE   Ds4
 BYTE   W12
 BYTE   Cs4
 BYTE   W12
 BYTE   Ds4
 BYTE   W12
 BYTE   Cs4
 BYTE   W12
 BYTE   As4
 BYTE   W12
 BYTE   Gs4
 BYTE   W12
//  #05 //054   ----------------------------------------
 BYTE   Ds4
 BYTE   W12
 BYTE   Cs4
 BYTE   W12
 BYTE   Gs4
 BYTE   W12
 BYTE   Gs3
 BYTE   W12
 BYTE   Ds4
 BYTE   W12
 BYTE   Cs4
 BYTE   W12
 BYTE   Gs4
 BYTE   W12
 BYTE   Gs3
 BYTE   W12
//  #05 //055   ----------------------------------------
 BYTE   Cs4
 BYTE   W12
 BYTE   N12
 BYTE   W12
 BYTE   N12
 BYTE   W12
 BYTE   N06  Gs3
 BYTE   N06  Cn4
 BYTE   W06
 BYTE   Ds4
 BYTE   W06
 BYTE   N18  Gs4
 BYTE   W18
 BYTE   N06  Ds4
 BYTE   W06
 BYTE   N12  Gs3
 BYTE   W12
 BYTE   N12
 BYTE   W12
//  #05 //056   ----------------------------------------
 BYTE   N30
 BYTE   W36
 BYTE   N12  Cs4
 BYTE   W12
 BYTE   N30
 BYTE   W36
 BYTE   N12
 BYTE   W12
//  #05 //057   ----------------------------------------
 BYTE   N30  Cn4
 BYTE   W36
 BYTE   N12  Cs4
 BYTE   W12
 BYTE   N30  Gs3
 BYTE   W36
 BYTE   N12
 BYTE   W12
//  #05 //058   ----------------------------------------
Label_01020A26:
 BYTE   N30  Fn4  v008
 BYTE   W36
 BYTE   N12  Fs4
 BYTE   W12
 BYTE   N30  Fn4
 BYTE   W36
 BYTE   N12  Ds4
 BYTE   W12
 BYTE   PEND 
//  #05 //059   ----------------------------------------
 BYTE   N30
 BYTE   W36
 BYTE   N12  Cs4
 BYTE   W12
 BYTE   N30
 BYTE   W36
 BYTE   N12
 BYTE   W12
//  #05 //060   ----------------------------------------
 BYTE   N30
 BYTE   W36
 BYTE   N12  Gs4
 BYTE   W12
 BYTE   N30
 BYTE   W36
 BYTE   N12  Cs4
 BYTE   W12
//  #05 //061   ----------------------------------------
 BYTE   N30  Cn4
 BYTE   W36
 BYTE   N12  Cs4
 BYTE   W36
 BYTE   Gs3
 BYTE   W12
 BYTE   Cs4
 BYTE   W12
//  #05 //062   ----------------------------------------
 BYTE   N24  Fn4
 BYTE   W36
 BYTE   N24
 BYTE   W24
 BYTE   Fs4
 BYTE   W24
 BYTE   N42  Fn4
 BYTE   W12
//  #05 //063   ----------------------------------------
 BYTE   W36
 BYTE   Ds4
 BYTE   W48
 BYTE   N12  Cs4
 BYTE   W12
//  #05 //064   ----------------------------------------
 BYTE   N30
 BYTE   W36
 BYTE   N12  Gs3
 BYTE   W12
 BYTE   N30  Gs4
 BYTE   W36
 BYTE   N12  Cs4
 BYTE   W12
//  #05 //065   ----------------------------------------
 BYTE   N30
 BYTE   W36
 BYTE   N12  Gs3
 BYTE   W12
 BYTE   N24  Gs4
 BYTE   W24
 BYTE   N12  Gs3
 BYTE   W12
 BYTE   N12
 BYTE   W12
//  #05 //066   ----------------------------------------
 BYTE   Fn4
 BYTE   W12
 BYTE   Fs4
 BYTE   W12
 BYTE   Fn4
 BYTE   W12
 BYTE   Ds4
 BYTE   W12
 BYTE   N24
 BYTE   W24
 BYTE   N12  Gs3
 BYTE   W12
 BYTE   N12
 BYTE   W12
//  #05 //067   ----------------------------------------
 BYTE   Fn4
 BYTE   W12
 BYTE   Fs4
 BYTE   W12
 BYTE   Fn4
 BYTE   W12
 BYTE   Ds4
 BYTE   W12
 BYTE   N24
 BYTE   W24
 BYTE   N12  Cs4
 BYTE   W12
 BYTE   Gs3
 BYTE   W12
//  #05 //068   ----------------------------------------
 BYTE   N30
 BYTE   W36
 BYTE   N12  Ds4
 BYTE   W12
 BYTE   N30
 BYTE   W36
 BYTE   N12  Cs4
 BYTE   W12
//  #05 //069   ----------------------------------------
 BYTE   N30  Gs3
 BYTE   W36
 BYTE   N12
 BYTE   W12
 BYTE   Ds4
 BYTE   W12
 BYTE   Fn4
 BYTE   W12
 BYTE   Fs4
 BYTE   W12
 BYTE   N30  Fn4
 BYTE   W12
//  #05 //070   ----------------------------------------
 BYTE   W24
 BYTE   N24  Ds4
 BYTE   W60
 BYTE   N12  Gs3
 BYTE   W12
//  #05 //071   ----------------------------------------
 BYTE   PATT
  POIN2 Label_01020A26
//  #05 //072   ----------------------------------------
 BYTE   N24  Ds4  v008
 BYTE   W96
//  #05 //073   ----------------------------------------
 BYTE   W96
//  #05 //074   ----------------------------------------
 BYTE   W96
//  #05 //075   ----------------------------------------
 BYTE   W96
//  #05 //076   ----------------------------------------
 BYTE   W96
//  #05 //077   ----------------------------------------
 BYTE   W96
//  #05 //078   ----------------------------------------
 BYTE   W96
//  #05 //079   ----------------------------------------
 BYTE   W96
//  #05 //080   ----------------------------------------
 BYTE   W96
//  #05 //081   ----------------------------------------
 BYTE   W96
//  #05 //082   ----------------------------------------
 BYTE   W96
//  #05 //083   ----------------------------------------
 BYTE   W96
//  #05 //084   ----------------------------------------
 BYTE   W96
//  #05 //085   ----------------------------------------
 BYTE   W96
//  #05 //086   ----------------------------------------
 BYTE   W96
//  #05 //087   ----------------------------------------
 BYTE   W96
//  #05 //088   ----------------------------------------
 BYTE   W96
//  #05 //089   ----------------------------------------
 BYTE   W96
//  #05 //090   ----------------------------------------
 BYTE   W96
//  #05 //091   ----------------------------------------
 BYTE   W96
//  #05 //092   ----------------------------------------
 BYTE   W96
//  #05 //093   ----------------------------------------
 BYTE   W96
//  #05 //094   ----------------------------------------
 BYTE   W96
//  #05 //095   ----------------------------------------
 BYTE   W96
//  #05 //096   ----------------------------------------
 BYTE   W96
//  #05 //097   ----------------------------------------
 BYTE   GoTo
  POIN2 Label_01020974
 BYTE   FINE

//**************** Track 6 (Midi-Chn.5) ****************//

song1F_006:
//  #06 //000   ----------------------------------------
 BYTE   VOL   80*song1F_mvl/mxv
 BYTE   KEYSH   song1F_key+0
Label_01021200:
 BYTE   VOICE   39
 BYTE   N24  Cs2  v040
 BYTE   W24
 BYTE   N12  Cs1  v052
 BYTE   W12
 BYTE   Gs2  v040
 BYTE   W36
 BYTE   N06  Cs2
 BYTE   W12
 BYTE   N24
 BYTE   W12
//  #06 //001   ----------------------------------------
Label_01021212:
 BYTE   W12
 BYTE   N24  Cs2  v040
 BYTE   W24
 BYTE   N06
 BYTE   W12
 BYTE   N06
 BYTE   W24
 BYTE   N06
 BYTE   W24
 BYTE   PEND 
//  #06 //002   ----------------------------------------
Label_0102121E:
 BYTE   N24  Cs2  v040
 BYTE   W24
 BYTE   Cs1  v052
 BYTE   W24
 BYTE   Cs2  v040
 BYTE   W24
 BYTE   N06  Gs1
 BYTE   W12
 BYTE   N24  Cs2
 BYTE   W12
 BYTE   PEND 
//  #06 //003   ----------------------------------------
 BYTE   W12
 BYTE   N24
 BYTE   W24
 BYTE   N12
 BYTE   W24
 BYTE   N36
 BYTE   W36
//  #06 //004   ----------------------------------------
 BYTE   N24
 BYTE   W72
 BYTE   N06
 BYTE   W12
 BYTE   N24
 BYTE   W12
//  #06 //005   ----------------------------------------
 BYTE   PATT
  POIN2 Label_01021212
//  #06 //006   ----------------------------------------
 BYTE   PATT
  POIN2 Label_0102121E
//  #06 //007   ----------------------------------------
 BYTE   W12
 BYTE   N24  Cs2  v040
 BYTE   W24
 BYTE   N12
 BYTE   W24
 BYTE   N24
 BYTE   W24
 BYTE   N06  Cs1
 BYTE   W06
 BYTE   Gs0
 BYTE   W06
//  #06 //008   ----------------------------------------
Label_01021254:
 BYTE   N24  Cs1  v052
 BYTE   W24
 BYTE   Cs2  v044
 BYTE   W24
 BYTE   N12  Gs2  v052
 BYTE   W12
 BYTE   N24  Cs1
 BYTE   W24
 BYTE   Cs2  v044
 BYTE   W12
 BYTE   PEND 
//  #06 //009   ----------------------------------------
Label_01021266:
 BYTE   W12
 BYTE   N24  Cs2  v044
 BYTE   W24
 BYTE   N12  Cs1  v052
 BYTE   W12
 BYTE   Gs2
 BYTE   W12
 BYTE   Cs1
 BYTE   W12
 BYTE   N24  Cs2  v044
 BYTE   W24
 BYTE   PEND 
//  #06 //010   ----------------------------------------
 BYTE   PATT
  POIN2 Label_01021254
//  #06 //011   ----------------------------------------
 BYTE   PATT
  POIN2 Label_01021266
//  #06 //012   ----------------------------------------
Label_01021282:
 BYTE   N24  Cs1  v052
 BYTE   W24
 BYTE   Cs2  v044
 BYTE   W24
 BYTE   N12  Gs2  v052
 BYTE   W12
 BYTE   N24  Cs1
 BYTE   N24  Cs2
 BYTE   W24
 BYTE   Cs2  v044
 BYTE   W12
 BYTE   PEND 
//  #06 //013   ----------------------------------------
 BYTE   PATT
  POIN2 Label_01021266
//  #06 //014   ----------------------------------------
 BYTE   PATT
  POIN2 Label_01021254
//  #06 //015   ----------------------------------------
 BYTE   W12
 BYTE   N24  Cs2  v044
 BYTE   W24
 BYTE   N12  Cs1  v052
 BYTE   W12
 BYTE   Gs2
 BYTE   W12
 BYTE   Cs1
 BYTE   W12
 BYTE   Cs2  v044
 BYTE   W12
 BYTE   N06  Cs2  v052
 BYTE   W06
 BYTE   Gs1
 BYTE   W06
//  #06 //016   ----------------------------------------
Label_010212B6:
 BYTE   N12  Cs1  v052
 BYTE   W12
 BYTE   Cs2
 BYTE   W12
 BYTE   N06  Fn2
 BYTE   W12
 BYTE   Cs2
 BYTE   W06
 BYTE   Gs1
 BYTE   W06
 BYTE   Cs1
 BYTE   W12
 BYTE   Cs2
 BYTE   W12
 BYTE   Fn2
 BYTE   W12
 BYTE   N24  Cs2
 BYTE   W12
 BYTE   PEND 
//  #06 //017   ----------------------------------------
 BYTE   W12
 BYTE   N12
 BYTE   W12
 BYTE   N06  Fn2
 BYTE   W12
 BYTE   N12  Cs2
 BYTE   W12
 BYTE   N06
 BYTE   W12
 BYTE   N12
 BYTE   W12
 BYTE   N06  Fn2
 BYTE   W12
 BYTE   N12  Gs1
 BYTE   W12
//  #06 //018   ----------------------------------------
Label_010212E0:
 BYTE   N12  Cs1  v052
 BYTE   W12
 BYTE   Cs2
 BYTE   W12
 BYTE   N06  En2
 BYTE   W12
 BYTE   Cs2
 BYTE   W06
 BYTE   Gs1
 BYTE   W06
 BYTE   Cs1
 BYTE   W12
 BYTE   Cs2
 BYTE   W12
 BYTE   En2
 BYTE   W12
 BYTE   N24  Cs1
 BYTE   W12
 BYTE   PEND 
//  #06 //019   ----------------------------------------
 BYTE   W12
 BYTE   N12  Cs2
 BYTE   W12
 BYTE   N06  En2
 BYTE   W12
 BYTE   N12  Cs1
 BYTE   W12
 BYTE   N06  Cs2
 BYTE   W12
 BYTE   N12  Cs1
 BYTE   W12
 BYTE   N06  En2
 BYTE   W12
 BYTE   N12  Gs1
 BYTE   W12
//  #06 //020   ----------------------------------------
 BYTE   PATT
  POIN2 Label_010212B6
//  #06 //021   ----------------------------------------
Label_01021312:
 BYTE   W12
 BYTE   N12  Cs2  v052
 BYTE   W12
 BYTE   N06  Fn2
 BYTE   W12
 BYTE   N12  Cs1
 BYTE   W12
 BYTE   N06  Cs2
 BYTE   W12
 BYTE   N12  Cs1
 BYTE   W12
 BYTE   N06  Fn2
 BYTE   W12
 BYTE   N12  Gs1
 BYTE   W12
 BYTE   PEND 
//  #06 //022   ----------------------------------------
 BYTE   PATT
  POIN2 Label_010212E0
//  #06 //023   ----------------------------------------
 BYTE   W12
 BYTE   N12  Cs2  v052
 BYTE   W12
 BYTE   N06  En2
 BYTE   W12
 BYTE   Cs1
 BYTE   W06
 BYTE   Gs1
 BYTE   W06
 BYTE   Cs2
 BYTE   W12
 BYTE   N12  Cs1
 BYTE   W12
 BYTE   Cs2
 BYTE   W12
 BYTE   Gs2
 BYTE   W12
//  #06 //024   ----------------------------------------
 BYTE   N42  Cs2
 BYTE   W72
 BYTE   N12  Cs3
 BYTE   W12
 BYTE   N30  Cs2
 BYTE   W12
//  #06 //025   ----------------------------------------
 BYTE   W36
 BYTE   N12  Gs2
 BYTE   W12
 BYTE   N12
 BYTE   W12
 BYTE   As2
 BYTE   W12
 BYTE   Gs2
 BYTE   W12
 BYTE   Cs3
 BYTE   W12
//  #06 //026   ----------------------------------------
 BYTE   N90  Cn2
 BYTE   W96
//  #06 //027   ----------------------------------------
 BYTE   N24
 BYTE   W24
 BYTE   Cs3
 BYTE   W24
 BYTE   Cn3
 BYTE   W24
 BYTE   As2
 BYTE   W24
//  #06 //028   ----------------------------------------
 BYTE   As1
 BYTE   W36
 BYTE   N12  Cs3
 BYTE   W12
 BYTE   N30
 BYTE   W36
 BYTE   N12
 BYTE   W12
//  #06 //029   ----------------------------------------
 BYTE   N24  Gs1
 BYTE   W24
 BYTE   Cs3
 BYTE   W24
 BYTE   Gs2
 BYTE   W24
 BYTE   Ds3
 BYTE   W24
//  #06 //030   ----------------------------------------
 BYTE   N30  Fs1
 BYTE   W36
 BYTE   N30
 BYTE   W36
 BYTE   N42
 BYTE   W24
//  #06 //031   ----------------------------------------
 BYTE   W36
 BYTE   N12  Cs3
 BYTE   W12
 BYTE   Ds3
 BYTE   W12
 BYTE   Cs3
 BYTE   W24
 BYTE   Gs1  v044
 BYTE   W12
//  #06 //032   ----------------------------------------
 BYTE   Cs2  v052
 BYTE   W12
 BYTE   N06  Cs2  v044
 BYTE   W12
 BYTE   N12  Gs2  v052
 BYTE   W12
 BYTE   N06  Cs2  v044
 BYTE   W12
 BYTE   N06
 BYTE   W12
 BYTE   N12  Cs1  v052
 BYTE   W12
 BYTE   Gs2
 BYTE   W12
 BYTE   Cs1
 BYTE   W12
//  #06 //033   ----------------------------------------
 BYTE   N06  Cs2  v044
 BYTE   W12
 BYTE   N06
 BYTE   W12
 BYTE   N12  Gs2  v052
 BYTE   W12
 BYTE   Cs1
 BYTE   W12
 BYTE   N06  Cs2  v044
 BYTE   W12
 BYTE   N12  Cs1  v052
 BYTE   W12
 BYTE   Gs2
 BYTE   W12
 BYTE   N06  Cs2  v044
 BYTE   W12
//  #06 //034   ----------------------------------------
 BYTE   N12  Cn1  v052
 BYTE   W12
 BYTE   N06  Cn2  v044
 BYTE   W12
 BYTE   N12  Gs2  v052
 BYTE   W12
 BYTE   N06  Cn2  v044
 BYTE   W12
 BYTE   N06
 BYTE   W12
 BYTE   N12  Cn1  v052
 BYTE   W12
 BYTE   Gs2
 BYTE   W12
 BYTE   Cn1
 BYTE   W12
//  #06 //035   ----------------------------------------
 BYTE   N06  Cn2  v044
 BYTE   W12
 BYTE   N06
 BYTE   W12
 BYTE   N12  Gs2  v052
 BYTE   W12
 BYTE   Cn1
 BYTE   W12
 BYTE   N06  Cn2  v044
 BYTE   W12
 BYTE   N12  Cn1  v052
 BYTE   W12
 BYTE   Gs2
 BYTE   W12
 BYTE   N06  Cn2  v044
 BYTE   W12
//  #06 //036   ----------------------------------------
 BYTE   N12  As0  v052
 BYTE   W12
 BYTE   N06  As1  v044
 BYTE   W12
 BYTE   N12  Gs2  v052
 BYTE   W12
 BYTE   N06  As1  v044
 BYTE   W12
 BYTE   N06
 BYTE   W12
 BYTE   N12  As0  v052
 BYTE   W12
 BYTE   Gs2
 BYTE   W12
 BYTE   As0
 BYTE   W12
//  #06 //037   ----------------------------------------
 BYTE   N06  Gs1  v044
 BYTE   W12
 BYTE   N06
 BYTE   W12
 BYTE   N12  Gs2  v052
 BYTE   W12
 BYTE   Gs0
 BYTE   W12
 BYTE   N06  Gs1  v044
 BYTE   W12
 BYTE   N12  Gs0  v052
 BYTE   W12
 BYTE   Gs2
 BYTE   W12
 BYTE   N06  Gs1  v044
 BYTE   W12
//  #06 //038   ----------------------------------------
 BYTE   N12  Fs0  v040
 BYTE   W12
 BYTE   N06  Fs1  v032
 BYTE   W24
 BYTE   N06
 BYTE   W12
 BYTE   Fs1  v036
 BYTE   W12
 BYTE   N12  Fs0  v048
 BYTE   W24
 BYTE   Fs0  v052
 BYTE   W12
//  #06 //039   ----------------------------------------
 BYTE   W36
 BYTE   Cs2  v048
 BYTE   W12
 BYTE   Ds2
 BYTE   W12
 BYTE   Cs2
 BYTE   W12
 BYTE   Gs2
 BYTE   W12
 BYTE   N06  Cs1  v052
 BYTE   W06
 BYTE   Gs0
 BYTE   W06
//  #06 //040   ----------------------------------------
 BYTE   PATT
  POIN2 Label_01021254
//  #06 //041   ----------------------------------------
 BYTE   PATT
  POIN2 Label_01021266
//  #06 //042   ----------------------------------------
 BYTE   PATT
  POIN2 Label_01021254
//  #06 //043   ----------------------------------------
 BYTE   PATT
  POIN2 Label_01021266
//  #06 //044   ----------------------------------------
 BYTE   PATT
  POIN2 Label_01021282
//  #06 //045   ----------------------------------------
 BYTE   PATT
  POIN2 Label_01021266
//  #06 //046   ----------------------------------------
 BYTE   N12  Cs1  v052
 BYTE   W12
 BYTE   N12
 BYTE   W12
 BYTE   Cs2  v044
 BYTE   W12
 BYTE   Cs2  v052
 BYTE   W12
 BYTE   Gs2
 BYTE   W12
 BYTE   Cs1
 BYTE   W12
 BYTE   Cs2
 BYTE   W12
 BYTE   N06  Cs2  v044
 BYTE   W06
 BYTE   Cs1  v052
 BYTE   W06
//  #06 //047   ----------------------------------------
 BYTE   Cs2
 BYTE   W06
 BYTE   Cs1
 BYTE   W06
 BYTE   Cs2  v044
 BYTE   W06
 BYTE   Cs1  v052
 BYTE   W06
 BYTE   Cs2
 BYTE   W06
 BYTE   Gs1
 BYTE   W06
 BYTE   Cs2
 BYTE   W06
 BYTE   Gs1
 BYTE   W06
 BYTE   N12  Cs1
 BYTE   W12
 BYTE   N06  Cs2
 BYTE   W06
 BYTE   N06
 BYTE   W06
 BYTE   N12  Gs2
 BYTE   W12
 BYTE   N06  Cs2
 BYTE   W06
 BYTE   Gs1
 BYTE   W06
//  #06 //048   ----------------------------------------
 BYTE   N12  Cs1
 BYTE   W12
 BYTE   Fn2
 BYTE   W12
 BYTE   N24
 BYTE   W24
 BYTE   Ds2
 BYTE   W24
 BYTE   N12  Cs2
 BYTE   W12
 BYTE   Fs2
 BYTE   W12
//  #06 //049   ----------------------------------------
 BYTE   Fn1
 BYTE   W12
 BYTE   N24  Fn2
 BYTE   W24
 BYTE   Ds2
 BYTE   W24
 BYTE   Cs2
 BYTE   W24
 BYTE   N12  Gs1
 BYTE   W12
//  #06 //050   ----------------------------------------
 BYTE   N24  Fs1
 BYTE   W36
 BYTE   N12  Cs2
 BYTE   W12
 BYTE   Ds2
 BYTE   W12
 BYTE   N12
 BYTE   W12
 BYTE   Cs2
 BYTE   W12
 BYTE   Gs2
 BYTE   W12
//  #06 //051   ----------------------------------------
 BYTE   Gs1
 BYTE   W12
 BYTE   N24  As2
 BYTE   W24
 BYTE   Gs2
 BYTE   W24
 BYTE   N12  Fn2
 BYTE   W12
 BYTE   Ds2
 BYTE   W12
 BYTE   Cs2
 BYTE   W12
//  #06 //052   ----------------------------------------
 BYTE   Ds1
 BYTE   W12
 BYTE   N12
 BYTE   W12
 BYTE   N12
 BYTE   W12
 BYTE   N12
 BYTE   W12
 BYTE   N12
 BYTE   W12
 BYTE   N12
 BYTE   W12
 BYTE   N12
 BYTE   W12
 BYTE   N12
 BYTE   W12
//  #06 //053   ----------------------------------------
 BYTE   Fn1
 BYTE   W12
 BYTE   N12
 BYTE   W12
 BYTE   N12
 BYTE   W12
 BYTE   N12
 BYTE   W12
 BYTE   N12
 BYTE   W12
 BYTE   N12
 BYTE   W12
 BYTE   N12
 BYTE   W12
 BYTE   N12
 BYTE   W12
//  #06 //054   ----------------------------------------
 BYTE   Fs1
 BYTE   W12
 BYTE   N12
 BYTE   W12
 BYTE   N12
 BYTE   W12
 BYTE   N12
 BYTE   W12
 BYTE   N12
 BYTE   W12
 BYTE   N12
 BYTE   W12
 BYTE   N12
 BYTE   W12
 BYTE   N12
 BYTE   W12
//  #06 //055   ----------------------------------------
 BYTE   Gs1
 BYTE   W12
 BYTE   N12
 BYTE   W24
 BYTE   N06  Gs2  v044
 BYTE   W06
 BYTE   N06
 BYTE   W06
 BYTE   Cn3
 BYTE   W12
 BYTE   Gs2  v048
 BYTE   W06
 BYTE   N06
 BYTE   W06
 BYTE   Ds2
 BYTE   W12
 BYTE   Gs1
 BYTE   W06
 BYTE   Gs0
 BYTE   W06
//  #06 //056   ----------------------------------------
 BYTE   N12  Cs1  v060
 BYTE   W12
 BYTE   N06  Cs2  v048
 BYTE   W12
 BYTE   N12  Gs2  v060
 BYTE   W12
 BYTE   N06  Cs2  v048
 BYTE   W12
 BYTE   N06
 BYTE   W12
 BYTE   N12  Cs1  v060
 BYTE   W12
 BYTE   Gs2
 BYTE   W12
 BYTE   Cs1
 BYTE   W12
//  #06 //057   ----------------------------------------
 BYTE   N06  Fn0
 BYTE   N06  Fn1  v048
 BYTE   W12
 BYTE   N06
 BYTE   W12
 BYTE   N12  Gs2  v060
 BYTE   W12
 BYTE   Fn1
 BYTE   W12
 BYTE   N06  Fn2  v048
 BYTE   W12
 BYTE   N12  Fn1  v060
 BYTE   W12
 BYTE   Gs2
 BYTE   W12
 BYTE   N06  Fn1  v048
 BYTE   W12
//  #06 //058   ----------------------------------------
 BYTE   N12  Fs0  v060
 BYTE   W12
 BYTE   N06  Fs1  v048
 BYTE   W12
 BYTE   N12  As2  v060
 BYTE   W12
 BYTE   N06  Fs2  v048
 BYTE   W12
 BYTE   N06
 BYTE   W12
 BYTE   N12  Fs1  v060
 BYTE   W12
 BYTE   As2
 BYTE   W12
 BYTE   Fs0
 BYTE   W12
//  #06 //059   ----------------------------------------
Label_0102156D:
 BYTE   N06  Gs0  v048
 BYTE   W12
 BYTE   Gs1
 BYTE   W12
 BYTE   N12  Gs2  v060
 BYTE   W12
 BYTE   Gs1
 BYTE   W12
 BYTE   N06  Gs1  v048
 BYTE   W12
 BYTE   N12  Fs0  v060
 BYTE   W12
 BYTE   As2
 BYTE   W12
 BYTE   N06  Fs1  v048
 BYTE   W12
 BYTE   PEND 
//  #06 //060   ----------------------------------------
Label_01021588:
 BYTE   N12  Fn0  v060
 BYTE   W12
 BYTE   N06  Fn1  v048
 BYTE   W12
 BYTE   N12  Gs2  v060
 BYTE   W12
 BYTE   N06  Fn2  v048
 BYTE   W12
 BYTE   N06
 BYTE   W12
 BYTE   N12  Fn1  v060
 BYTE   W12
 BYTE   Gs2
 BYTE   W12
 BYTE   Fn0
 BYTE   W12
 BYTE   PEND 
//  #06 //061   ----------------------------------------
Label_010215A3:
 BYTE   N06  As0  v048
 BYTE   W12
 BYTE   As1
 BYTE   W12
 BYTE   N12  As2  v060
 BYTE   W12
 BYTE   As1
 BYTE   W12
 BYTE   N06  As2  v048
 BYTE   W12
 BYTE   N12  As1  v060
 BYTE   W12
 BYTE   As2
 BYTE   W12
 BYTE   N06  As1  v048
 BYTE   W12
 BYTE   PEND 
//  #06 //062   ----------------------------------------
Label_010215BE:
 BYTE   N12  Ds0  v060
 BYTE   W12
 BYTE   N06  Ds1  v048
 BYTE   W12
 BYTE   N12  Fs2  v060
 BYTE   W12
 BYTE   N06  Ds2  v048
 BYTE   W12
 BYTE   N06
 BYTE   W12
 BYTE   N12  Ds1  v060
 BYTE   W12
 BYTE   Fs2
 BYTE   W12
 BYTE   Ds0
 BYTE   W12
 BYTE   PEND 
//  #06 //063   ----------------------------------------
 BYTE   PATT
  POIN2 Label_0102156D
//  #06 //064   ----------------------------------------
 BYTE   PATT
  POIN2 Label_01021588
//  #06 //065   ----------------------------------------
 BYTE   PATT
  POIN2 Label_010215A3
//  #06 //066   ----------------------------------------
 BYTE   PATT
  POIN2 Label_010215BE
//  #06 //067   ----------------------------------------
 BYTE   PATT
  POIN2 Label_0102156D
//  #06 //068   ----------------------------------------
 BYTE   PATT
  POIN2 Label_01021588
//  #06 //069   ----------------------------------------
 BYTE   N06  As0  v048
 BYTE   N06  As1  v060
 BYTE   W12
 BYTE   As1  v048
 BYTE   W12
 BYTE   N12  As2  v060
 BYTE   W12
 BYTE   As1
 BYTE   W12
 BYTE   N06  As2  v048
 BYTE   W12
 BYTE   N12  As1  v060
 BYTE   W12
 BYTE   As2
 BYTE   W12
 BYTE   N06  As1  v048
 BYTE   W12
//  #06 //070   ----------------------------------------
 BYTE   N12  Ds1  v060
 BYTE   W12
 BYTE   N06  Ds1  v048
 BYTE   W12
 BYTE   N12  Fs2  v060
 BYTE   W12
 BYTE   N06  Ds2  v048
 BYTE   W12
 BYTE   N06
 BYTE   W12
 BYTE   N12  Ds1  v060
 BYTE   W12
 BYTE   Fs2
 BYTE   W12
 BYTE   Ds1
 BYTE   W12
//  #06 //071   ----------------------------------------
 BYTE   N06
 BYTE   W12
 BYTE   Ds1  v048
 BYTE   W12
 BYTE   N12  Fs2  v060
 BYTE   W12
 BYTE   Ds1
 BYTE   W12
 BYTE   N06  Ds2  v048
 BYTE   W12
 BYTE   N12  Ds1  v060
 BYTE   W12
 BYTE   Fs2
 BYTE   W12
 BYTE   N06  Ds1  v048
 BYTE   W12
//  #06 //072   ----------------------------------------
 BYTE   N12  Cs1  v052
 BYTE   W12
 BYTE   Cs2
 BYTE   W12
 BYTE   N06
 BYTE   N06  Fn2
 BYTE   W12
 BYTE   Cs2
 BYTE   W06
 BYTE   Gs1
 BYTE   W06
 BYTE   Cs1
 BYTE   W12
 BYTE   Cs2
 BYTE   W12
 BYTE   N06
 BYTE   N06  Fn2
 BYTE   W12
 BYTE   N24  Cs1
 BYTE   W12
//  #06 //073   ----------------------------------------
 BYTE   PATT
  POIN2 Label_01021312
//  #06 //074   ----------------------------------------
 BYTE   PATT
  POIN2 Label_010212E0
//  #06 //075   ----------------------------------------
 BYTE   W12
 BYTE   N12  Cs2  v052
 BYTE   W12
 BYTE   N06  Gs2
 BYTE   W12
 BYTE   N12  Cs1
 BYTE   W12
 BYTE   N06  Cs2
 BYTE   W12
 BYTE   N12  Cs1
 BYTE   W12
 BYTE   N06  Gs2
 BYTE   W12
 BYTE   N12  Gs1
 BYTE   W12
//  #06 //076   ----------------------------------------
Label_01021682:
 BYTE   N06  Fn2  v052
 BYTE   W12
 BYTE   Cs2
 BYTE   W12
 BYTE   Fn2
 BYTE   W12
 BYTE   Cs2
 BYTE   W12
 BYTE   Fn2
 BYTE   W12
 BYTE   Cs2
 BYTE   W12
 BYTE   Fn2
 BYTE   W12
 BYTE   Cs2
 BYTE   W12
 BYTE   PEND 
//  #06 //077   ----------------------------------------
 BYTE   PATT
  POIN2 Label_01021682
//  #06 //078   ----------------------------------------
 BYTE   N06  En1  v048
 BYTE   W12
 BYTE   Bn1
 BYTE   W12
 BYTE   N06
 BYTE   W12
 BYTE   N06
 BYTE   W12
 BYTE   En1
 BYTE   W12
 BYTE   Bn1
 BYTE   W12
 BYTE   N06
 BYTE   W12
 BYTE   N06
 BYTE   W12
//  #06 //079   ----------------------------------------
 BYTE   En2  v052
 BYTE   W06
 BYTE   Bn1
 BYTE   W06
 BYTE   Gs1
 BYTE   W06
 BYTE   En1
 BYTE   W06
 BYTE   N06
 BYTE   W06
 BYTE   Bn0
 BYTE   W06
 BYTE   Gs0
 BYTE   W06
 BYTE   En0
 BYTE   W06
 BYTE   N12  Gs1
 BYTE   W12
 BYTE   N06  En1
 BYTE   W06
 BYTE   Bn1
 BYTE   W06
 BYTE   N12  Gs1
 BYTE   W12
 BYTE   Bn1
 BYTE   W12
//  #06 //080   ----------------------------------------
 BYTE   N72  Cs1
 BYTE   W72
 BYTE   N12  Cs2
 BYTE   W12
 BYTE   N48  Cs1
 BYTE   W12
//  #06 //081   ----------------------------------------
 BYTE   W36
 BYTE   N12  Gs1
 BYTE   W12
 BYTE   N12
 BYTE   W12
 BYTE   As1
 BYTE   W12
 BYTE   Gs1
 BYTE   W12
 BYTE   Ds2
 BYTE   W12
//  #06 //082   ----------------------------------------
 BYTE   N90  Cn1
 BYTE   W96
//  #06 //083   ----------------------------------------
 BYTE   N12
 BYTE   W12
 BYTE   N06  Cn2  v048
 BYTE   W06
 BYTE   N30  Cs2  v052
 BYTE   W30
 BYTE   N24  Cn2
 BYTE   W24
 BYTE   As1
 BYTE   W24
//  #06 //084   ----------------------------------------
 BYTE   N36  As0
 BYTE   W36
 BYTE   N12  Cs2
 BYTE   W12
 BYTE   N30
 BYTE   W36
 BYTE   N12
 BYTE   W12
//  #06 //085   ----------------------------------------
 BYTE   N24  Gs0
 BYTE   W24
 BYTE   Cs2
 BYTE   W24
 BYTE   Gs1
 BYTE   W24
 BYTE   Ds2
 BYTE   W24
//  #06 //086   ----------------------------------------
 BYTE   N90  Fs1
 BYTE   W96
//  #06 //087   ----------------------------------------
 BYTE   N24
 BYTE   W36
 BYTE   N12  Cs2
 BYTE   W12
 BYTE   Ds2
 BYTE   W12
 BYTE   Cs2
 BYTE   W24
 BYTE   N06  Cs1  v044
 BYTE   W06
 BYTE   Ds1
 BYTE   W06
//  #06 //088   ----------------------------------------
 BYTE   N24  Fn1  v052
 BYTE   W24
 BYTE   Fn2
 BYTE   W24
 BYTE   Ds2
 BYTE   W24
 BYTE   N12  Cs2
 BYTE   W12
 BYTE   Fs2
 BYTE   W12
//  #06 //089   ----------------------------------------
 BYTE   Cs1
 BYTE   W12
 BYTE   N24  Fn2
 BYTE   W24
 BYTE   Ds2
 BYTE   W24
 BYTE   N36  Cs2
 BYTE   W36
//  #06 //090   ----------------------------------------
 BYTE   Ds1
 BYTE   W36
 BYTE   N12  Cs2
 BYTE   W12
 BYTE   Ds2
 BYTE   W12
 BYTE   N12
 BYTE   W12
 BYTE   Cs2
 BYTE   W12
 BYTE   Gs2
 BYTE   W12
//  #06 //091   ----------------------------------------
 BYTE   Cn1
 BYTE   W12
 BYTE   As2
 BYTE   W24
 BYTE   N24  Gs2
 BYTE   W24
 BYTE   N12  Fn2
 BYTE   W12
 BYTE   Ds2
 BYTE   W12
 BYTE   Cs2
 BYTE   W12
//  #06 //092   ----------------------------------------
 BYTE   Cs1
 BYTE   W12
 BYTE   Gs1
 BYTE   W12
 BYTE   Cs2
 BYTE   W12
 BYTE   Gs1
 BYTE   W12
 BYTE   N12
 BYTE   W12
 BYTE   N12
 BYTE   W12
 BYTE   N24  Cs2
 BYTE   W24
//  #06 //093   ----------------------------------------
 BYTE   N12  Cn1
 BYTE   W12
 BYTE   Fn2
 BYTE   W12
 BYTE   Ds2
 BYTE   W12
 BYTE   Cs2
 BYTE   W12
 BYTE   Ds2
 BYTE   W12
 BYTE   Cs2
 BYTE   W12
 BYTE   N24  As1
 BYTE   W24
//  #06 //094   ----------------------------------------
 BYTE   N36  Cs2
 BYTE   W36
 BYTE   Fs1
 BYTE   W36
 BYTE   N24
 BYTE   W24
//  #06 //095   ----------------------------------------
 BYTE   N36
 BYTE   W36
 BYTE   N12  Cs2
 BYTE   W12
 BYTE   Ds2
 BYTE   W12
 BYTE   Cs2
 BYTE   W12
 BYTE   N24  Gs1  v060
 BYTE   W24
//  #06 //096   ----------------------------------------
 BYTE   N96  Cs1
 BYTE   W96
//  #06 //097   ----------------------------------------
 BYTE   GoTo
  POIN2 Label_01021200
 BYTE   FINE

//**************** Track 7 (Midi-Chn.6) ****************//

song1F_007:
//  #07 //000   ----------------------------------------
 BYTE   VOL   80*song1F_mvl/mxv
 BYTE   KEYSH   song1F_key+0
Label_01021A8C:
 BYTE   VOICE   124
 BYTE   N12  Gs1  v048
 BYTE   N36  Fs2
 BYTE   W12
 BYTE   N12  Gs1  v036
 BYTE   W24
 BYTE   Fs2  v032
 BYTE   W12
 BYTE   N36  Fs2  v040
 BYTE   W12
 BYTE   N12  Gs1  v036
 BYTE   W12
 BYTE   Gs1  v048
 BYTE   W12
 BYTE   Fs2  v032
 BYTE   W12
//  #07 //001   ----------------------------------------
Label_01021AA9:
 BYTE   N12  Gs1  v048
 BYTE   N36  Fs2
 BYTE   W12
 BYTE   N12  Gs1  v036
 BYTE   W24
 BYTE   Fs2  v032
 BYTE   W12
 BYTE   N36  Fs2  v040
 BYTE   W12
 BYTE   N12  Gs1  v036
 BYTE   W12
 BYTE   Gs1  v048
 BYTE   W12
 BYTE   Fs2  v032
 BYTE   W12
 BYTE   PEND 
//  #07 //002   ----------------------------------------
 BYTE   PATT
  POIN2 Label_01021AA9
//  #07 //003   ----------------------------------------
 BYTE   N12  Gs1  v048
 BYTE   N36  Fs2
 BYTE   W12
 BYTE   N12  Gs1  v036
 BYTE   W24
 BYTE   Fs2  v032
 BYTE   W12
 BYTE   Gs1  v036
 BYTE   W12
 BYTE   Gs1  v048
 BYTE   W12
 BYTE   Gs1  v052
 BYTE   W12
 BYTE   Gs1  v056
 BYTE   W12
//  #07 //004   ----------------------------------------
Label_01021AE3:
 BYTE   N24  Cn1  v064
 BYTE   N12  Gs1  v048
 BYTE   N36  Fs2
 BYTE   W12
 BYTE   N12  Gs1  v036
 BYTE   W12
 BYTE   N24  Cn1  v056
 BYTE   W12
 BYTE   N12  Fs2  v032
 BYTE   W12
 BYTE   N24  Cn1  v064
 BYTE   N36  Fs2  v040
 BYTE   W12
 BYTE   N12  Gs1  v036
 BYTE   W12
 BYTE   N24  Cn1  v056
 BYTE   N12  Gs1  v048
 BYTE   W12
 BYTE   Fs2  v032
 BYTE   W12
 BYTE   PEND 
//  #07 //005   ----------------------------------------
Label_01021B0E:
 BYTE   N24  Cn1  v064
 BYTE   N12  Gs1  v048
 BYTE   N36  Fs2
 BYTE   W12
 BYTE   N12  Gs1  v036
 BYTE   W12
 BYTE   N18  Cn1  v056
 BYTE   W12
 BYTE   N12  Fs2  v032
 BYTE   W06
 BYTE   N06  Cn1  v068
 BYTE   W06
 BYTE   N24  Cn1  v064
 BYTE   N36  Fs2  v040
 BYTE   W12
 BYTE   N12  Gs1  v036
 BYTE   W12
 BYTE   N24  Cn1  v056
 BYTE   N12  Gs1  v048
 BYTE   W12
 BYTE   Fs2  v032
 BYTE   W12
 BYTE   PEND 
//  #07 //006   ----------------------------------------
 BYTE   N24  Cn1  v064
 BYTE   N12  Gs1  v048
 BYTE   N06  Bn1
 BYTE   N36  Fs2
 BYTE   W12
 BYTE   N12  Gs1  v036
 BYTE   W12
 BYTE   N24  Cn1  v056
 BYTE   W12
 BYTE   N12  Fs2  v032
 BYTE   W12
 BYTE   N36  Fs2  v040
 BYTE   W12
 BYTE   N12  Gs1  v036
 BYTE   W12
 BYTE   Gs1  v048
 BYTE   W12
 BYTE   Fs2  v032
 BYTE   W12
//  #07 //007   ----------------------------------------
 BYTE   N06  Dn1  v056
 BYTE   W06
 BYTE   Gn1  v048
 BYTE   W06
 BYTE   Gn1  v056
 BYTE   W06
 BYTE   An1  v048
 BYTE   W06
 BYTE   Dn1  v056
 BYTE   N24  Dn2  v048
 BYTE   W06
 BYTE   N06  An1
 BYTE   W06
 BYTE   An1  v056
 BYTE   W06
 BYTE   Bn1  v048
 BYTE   W06
 BYTE   Dn1  v056
 BYTE   N24  Dn2  v052
 BYTE   W06
 BYTE   N06  Bn1  v048
 BYTE   W06
 BYTE   Bn1  v056
 BYTE   W06
 BYTE   Cn2  v048
 BYTE   W06
 BYTE   Dn1  v056
 BYTE   N24  Dn2
 BYTE   W06
 BYTE   N06  Cn2  v048
 BYTE   W06
 BYTE   Cn2  v056
 BYTE   W06
 BYTE   En1  v048
 BYTE   W06
//  #07 //008   ----------------------------------------
 BYTE   N24  Cn1  v064
 BYTE   N12  Gs1  v048
 BYTE   N24  Cs2
 BYTE   W12
 BYTE   N12  Gs1  v036
 BYTE   W12
 BYTE   N24  Cn1  v056
 BYTE   W12
 BYTE   N12  Gs1  v048
 BYTE   W12
 BYTE   N24  Cn1  v064
 BYTE   N12  Gs1  v036
 BYTE   W24
 BYTE   N24  Cn1  v056
 BYTE   N12  Gs1  v048
 BYTE   W12
 BYTE   Gs1  v036
 BYTE   W12
//  #07 //009   ----------------------------------------
Label_01021BC3:
 BYTE   N24  Cn1  v064
 BYTE   N12  Gs1  v048
 BYTE   W12
 BYTE   Gs1  v036
 BYTE   W12
 BYTE   N18  Cn1  v056
 BYTE   W12
 BYTE   N12  Gs1  v048
 BYTE   W06
 BYTE   N06  Cn1  v068
 BYTE   W06
 BYTE   N24  Cn1  v064
 BYTE   N12  Gs1  v036
 BYTE   W24
 BYTE   N24  Cn1  v056
 BYTE   N12  Gs1  v048
 BYTE   W12
 BYTE   As1  v036
 BYTE   W12
 BYTE   PEND 
//  #07 //010   ----------------------------------------
Label_01021BEB:
 BYTE   N24  Cn1  v064
 BYTE   N12  Gs1  v048
 BYTE   W12
 BYTE   Gs1  v036
 BYTE   W12
 BYTE   N24  Cn1  v056
 BYTE   W12
 BYTE   N12  Gs1  v048
 BYTE   W12
 BYTE   N24  Cn1  v064
 BYTE   N12  Gs1  v036
 BYTE   W24
 BYTE   N24  Cn1  v056
 BYTE   N12  Gs1  v048
 BYTE   W12
 BYTE   Gs1  v036
 BYTE   W12
 BYTE   PEND 
//  #07 //011   ----------------------------------------
 BYTE   PATT
  POIN2 Label_01021BC3
//  #07 //012   ----------------------------------------
 BYTE   PATT
  POIN2 Label_01021BEB
//  #07 //013   ----------------------------------------
 BYTE   N24  Cn1  v064
 BYTE   N12  Gs1  v048
 BYTE   W12
 BYTE   Gs1  v036
 BYTE   W12
 BYTE   N18  Cn1  v056
 BYTE   W12
 BYTE   N12  Gs1  v048
 BYTE   W06
 BYTE   N06  Cn1  v068
 BYTE   W06
 BYTE   Cn1  v064
 BYTE   N06  Fn1  v052
 BYTE   N06  Gn1
 BYTE   W06
 BYTE   N06
 BYTE   N06  An1
 BYTE   W06
 BYTE   N12  Bn1
 BYTE   N12  Cn2
 BYTE   W12
 BYTE   Cn1  v064
 BYTE   N12  An1  v052
 BYTE   N12  Bn1
 BYTE   W12
 BYTE   Gn1
 BYTE   N12  An1
 BYTE   W12
//  #07 //014   ----------------------------------------
 BYTE   PATT
  POIN2 Label_01021AE3
//  #07 //015   ----------------------------------------
 BYTE   PATT
  POIN2 Label_01021B0E
//  #07 //016   ----------------------------------------
 BYTE   PATT
  POIN2 Label_01021AE3
//  #07 //017   ----------------------------------------
 BYTE   PATT
  POIN2 Label_01021B0E
//  #07 //018   ----------------------------------------
 BYTE   PATT
  POIN2 Label_01021AE3
//  #07 //019   ----------------------------------------
 BYTE   PATT
  POIN2 Label_01021B0E
//  #07 //020   ----------------------------------------
 BYTE   PATT
  POIN2 Label_01021AE3
//  #07 //021   ----------------------------------------
 BYTE   PATT
  POIN2 Label_01021B0E
//  #07 //022   ----------------------------------------
 BYTE   PATT
  POIN2 Label_01021AE3
//  #07 //023   ----------------------------------------
 BYTE   PATT
  POIN2 Label_01021B0E
//  #07 //024   ----------------------------------------
Label_01021C7E:
 BYTE   N12  Gs1  v048
 BYTE   W12
 BYTE   Gs1  v036
 BYTE   W36
 BYTE   N24  Cn1  v064
 BYTE   W48
 BYTE   PEND 
//  #07 //025   ----------------------------------------
Label_01021C8A:
 BYTE   N12  Gs1  v048
 BYTE   W12
 BYTE   Gs1  v036
 BYTE   W36
 BYTE   N24  Cn1  v064
 BYTE   W24
 BYTE   N24
 BYTE   W24
 BYTE   PEND 
//  #07 //026   ----------------------------------------
 BYTE   PATT
  POIN2 Label_01021C7E
//  #07 //027   ----------------------------------------
 BYTE   PATT
  POIN2 Label_01021C8A
//  #07 //028   ----------------------------------------
 BYTE   PATT
  POIN2 Label_01021C7E
//  #07 //029   ----------------------------------------
 BYTE   PATT
  POIN2 Label_01021C8A
//  #07 //030   ----------------------------------------
 BYTE   PATT
  POIN2 Label_01021C7E
//  #07 //031   ----------------------------------------
 BYTE   N24  Cn1  v064
 BYTE   N24  Ds1  v052
 BYTE   N12  Gs1  v048
 BYTE   W12
 BYTE   Gs1  v036
 BYTE   W12
 BYTE   Bn1  v052
 BYTE   N12  Cn2
 BYTE   W12
 BYTE   An1
 BYTE   N12  Bn1
 BYTE   W12
 BYTE   N18  Gn1
 BYTE   N12  Gs1  v036
 BYTE   N18  An1  v052
 BYTE   W12
 BYTE   N12  Gs1  v048
 BYTE   W06
 BYTE   N18  Fn1  v052
 BYTE   N18  Gn1
 BYTE   W06
 BYTE   N12  Gs1
 BYTE   W12
 BYTE   En1
 BYTE   N12  Fn1
 BYTE   N12  Gs1  v056
 BYTE   W12
//  #07 //032   ----------------------------------------
Label_01021CE4:
 BYTE   N24  Cn1  v080
 BYTE   N12  Gs1  v048
 BYTE   W12
 BYTE   Gs1  v036
 BYTE   W12
 BYTE   N24  Ds1  v052
 BYTE   N12  Gs1  v040
 BYTE   W12
 BYTE   N24  Cn1  v080
 BYTE   N12  Gs1  v036
 BYTE   W12
 BYTE   Gs1  v040
 BYTE   W12
 BYTE   Gs1  v036
 BYTE   W12
 BYTE   N24  Ds1  v052
 BYTE   N12  Gs1  v040
 BYTE   W12
 BYTE   Gs1  v036
 BYTE   W12
 BYTE   PEND 
//  #07 //033   ----------------------------------------
Label_01021D0D:
 BYTE   N24  Cn1  v080
 BYTE   N12  Gs1  v048
 BYTE   W12
 BYTE   Gs1  v036
 BYTE   W12
 BYTE   N24  Ds1  v052
 BYTE   N12  Gs1  v040
 BYTE   W12
 BYTE   N24  Cn1  v080
 BYTE   N12  Gs1  v036
 BYTE   W12
 BYTE   Gs1  v040
 BYTE   W12
 BYTE   Gs1  v036
 BYTE   W12
 BYTE   N24  Ds1  v052
 BYTE   N12  Gs1  v040
 BYTE   W12
 BYTE   As1  v036
 BYTE   W12
 BYTE   PEND 
//  #07 //034   ----------------------------------------
 BYTE   PATT
  POIN2 Label_01021CE4
//  #07 //035   ----------------------------------------
 BYTE   PATT
  POIN2 Label_01021D0D
//  #07 //036   ----------------------------------------
 BYTE   PATT
  POIN2 Label_01021CE4
//  #07 //037   ----------------------------------------
 BYTE   PATT
  POIN2 Label_01021CE4
//  #07 //038   ----------------------------------------
 BYTE   PATT
  POIN2 Label_01021CE4
//  #07 //039   ----------------------------------------
 BYTE   N24  Cn1  v080
 BYTE   N12  Gs1  v048
 BYTE   W12
 BYTE   Gs1  v036
 BYTE   W12
 BYTE   N24  Ds1  v052
 BYTE   N12  Gs1  v040
 BYTE   W12
 BYTE   Cn1  v080
 BYTE   N12  Gn1  v064
 BYTE   N12  Gs1  v036
 BYTE   W12
 BYTE   N24  Cn1  v064
 BYTE   N24  An1  v052
 BYTE   N24  Cs2
 BYTE   W24
 BYTE   Cn1  v064
 BYTE   N24  Gn1  v052
 BYTE   N24  Cs2
 BYTE   W24
//  #07 //040   ----------------------------------------
 BYTE   PATT
  POIN2 Label_01021BEB
//  #07 //041   ----------------------------------------
 BYTE   PATT
  POIN2 Label_01021BC3
//  #07 //042   ----------------------------------------
 BYTE   PATT
  POIN2 Label_01021BEB
//  #07 //043   ----------------------------------------
 BYTE   PATT
  POIN2 Label_01021BC3
//  #07 //044   ----------------------------------------
 BYTE   PATT
  POIN2 Label_01021BEB
//  #07 //045   ----------------------------------------
 BYTE   N24  Cn1  v064
 BYTE   N12  Gs1  v048
 BYTE   N06  Cn2  v052
 BYTE   W12
 BYTE   N12  Gs1  v036
 BYTE   W12
 BYTE   N18  Cn1  v056
 BYTE   N18  Cn2  v048
 BYTE   W12
 BYTE   N12  Gs1
 BYTE   W06
 BYTE   N06  Cn1  v068
 BYTE   N06  Cn2  v056
 BYTE   W06
 BYTE   Cn1  v064
 BYTE   N06  Cn2  v052
 BYTE   W06
 BYTE   Bn1
 BYTE   W06
 BYTE   N12  An1
 BYTE   W12
 BYTE   Cn1  v064
 BYTE   N12  Gn1  v052
 BYTE   W12
 BYTE   Fn1
 BYTE   W12
//  #07 //046   ----------------------------------------
 BYTE   N24  En1
 BYTE   W24
 BYTE   N24
 BYTE   W60
 BYTE   N24
 BYTE   W12
//  #07 //047   ----------------------------------------
 BYTE   W12
 BYTE   N24
 BYTE   W36
 BYTE   N06  Cn1  v064
 BYTE   N06  Cn2  v052
 BYTE   W06
 BYTE   Bn1
 BYTE   W06
 BYTE   N12  An1
 BYTE   W12
 BYTE   Gn1
 BYTE   W12
 BYTE   Fn1
 BYTE   W12
//  #07 //048   ----------------------------------------
Label_01021DDF:
 BYTE   N12  Cn1  v044
 BYTE   N24  Ds1  v048
 BYTE   W12
 BYTE   N12  Cn1  v040
 BYTE   W12
 BYTE   Cn1  v044
 BYTE   N24  Ds1  v036
 BYTE   W12
 BYTE   N06  Cn1  v032
 BYTE   W06
 BYTE   Cn1  v040
 BYTE   W06
 BYTE   N12  Cn1  v044
 BYTE   N24  Ds1  v040
 BYTE   W12
 BYTE   N12  Cn1
 BYTE   W12
 BYTE   Cn1  v044
 BYTE   N06  Ds1  v036
 BYTE   W06
 BYTE   N06
 BYTE   W06
 BYTE   Cn1  v032
 BYTE   W06
 BYTE   Cn1  v040
 BYTE   N06  Ds1  v036
 BYTE   W06
 BYTE   PEND 
//  #07 //049   ----------------------------------------
 BYTE   PATT
  POIN2 Label_01021DDF
//  #07 //050   ----------------------------------------
 BYTE   PATT
  POIN2 Label_01021DDF
//  #07 //051   ----------------------------------------
 BYTE   N96  En2  v064
 BYTE   W96
//  #07 //052   ----------------------------------------
 BYTE   N12  Cn1  v044
 BYTE   N24  Ds1  v048
 BYTE   N96  Gn2  v064
 BYTE   W12
 BYTE   N12  Cn1  v040
 BYTE   W12
 BYTE   Cn1  v044
 BYTE   N24  Ds1  v036
 BYTE   W12
 BYTE   N06  Cn1  v032
 BYTE   W06
 BYTE   Cn1  v040
 BYTE   W06
 BYTE   N12  Cn1  v044
 BYTE   N24  Ds1  v040
 BYTE   W12
 BYTE   N12  Cn1
 BYTE   W12
 BYTE   Cn1  v044
 BYTE   N06  Ds1  v036
 BYTE   W06
 BYTE   N06
 BYTE   W06
 BYTE   Cn1  v032
 BYTE   W06
 BYTE   Cn1  v040
 BYTE   N06  Ds1  v036
 BYTE   W06
//  #07 //053   ----------------------------------------
 BYTE   PATT
  POIN2 Label_01021DDF
//  #07 //054   ----------------------------------------
 BYTE   PATT
  POIN2 Label_01021DDF
//  #07 //055   ----------------------------------------
 BYTE   PATT
  POIN2 Label_01021DDF
//  #07 //056   ----------------------------------------
Label_01021E66:
 BYTE   N12  Gs1  v048
 BYTE   W12
 BYTE   Gs1  v036
 BYTE   W12
 BYTE   N24  Ds1  v052
 BYTE   N12  Gs1  v040
 BYTE   W12
 BYTE   Gs1  v036
 BYTE   W12
 BYTE   Gs1  v040
 BYTE   W12
 BYTE   Gs1  v036
 BYTE   W12
 BYTE   N24  Ds1  v052
 BYTE   N12  Gs1  v040
 BYTE   W12
 BYTE   Gs1  v036
 BYTE   W12
 BYTE   PEND 
//  #07 //057   ----------------------------------------
Label_01021E88:
 BYTE   N12  Gs1  v048
 BYTE   W12
 BYTE   Gs1  v036
 BYTE   W12
 BYTE   N24  Ds1  v052
 BYTE   N12  Gs1  v040
 BYTE   W12
 BYTE   Gs1  v036
 BYTE   W12
 BYTE   Gs1  v040
 BYTE   W12
 BYTE   Gs1  v036
 BYTE   W12
 BYTE   N24  Ds1  v052
 BYTE   N12  Gs1  v040
 BYTE   W12
 BYTE   As1  v036
 BYTE   W12
 BYTE   PEND 
//  #07 //058   ----------------------------------------
 BYTE   PATT
  POIN2 Label_01021E66
//  #07 //059   ----------------------------------------
 BYTE   PATT
  POIN2 Label_01021E88
//  #07 //060   ----------------------------------------
 BYTE   PATT
  POIN2 Label_01021E66
//  #07 //061   ----------------------------------------
 BYTE   PATT
  POIN2 Label_01021E88
//  #07 //062   ----------------------------------------
 BYTE   N12  Cn1  v052
 BYTE   N24  An1  v064
 BYTE   W12
 BYTE   N12  Cn1  v052
 BYTE   W12
 BYTE   N12
 BYTE   N12  Bn1  v064
 BYTE   W12
 BYTE   Cn1  v052
 BYTE   N12  An1  v064
 BYTE   W12
 BYTE   Cn1  v052
 BYTE   W12
 BYTE   N12
 BYTE   N12  An1  v064
 BYTE   N12  Bn1
 BYTE   W12
 BYTE   Cn1  v052
 BYTE   N12  Gn1  v064
 BYTE   N12  An1
 BYTE   W12
 BYTE   Cn1  v052
 BYTE   N12  Fn1  v064
 BYTE   N12  Gn1
 BYTE   W12
//  #07 //063   ----------------------------------------
 BYTE   N24  En1  v048
 BYTE   N24  Cs2
 BYTE   W24
 BYTE   En1  v052
 BYTE   N24  Cs2
 BYTE   W24
 BYTE   En1  v056
 BYTE   N24  Cs2
 BYTE   W24
 BYTE   En1  v064
 BYTE   N24  Cs2
 BYTE   W24
//  #07 //064   ----------------------------------------
 BYTE   PATT
  POIN2 Label_01021E66
//  #07 //065   ----------------------------------------
 BYTE   PATT
  POIN2 Label_01021E88
//  #07 //066   ----------------------------------------
 BYTE   PATT
  POIN2 Label_01021E66
//  #07 //067   ----------------------------------------
 BYTE   PATT
  POIN2 Label_01021E88
//  #07 //068   ----------------------------------------
 BYTE   PATT
  POIN2 Label_01021E66
//  #07 //069   ----------------------------------------
 BYTE   PATT
  POIN2 Label_01021E88
//  #07 //070   ----------------------------------------
 BYTE   N12  Cn1  v052
 BYTE   W12
 BYTE   N12
 BYTE   W12
 BYTE   N12
 BYTE   W12
 BYTE   N12
 BYTE   W12
 BYTE   N12
 BYTE   W12
 BYTE   N12
 BYTE   W12
 BYTE   N12
 BYTE   W12
 BYTE   N12
 BYTE   W12
//  #07 //071   ----------------------------------------
 BYTE   W96
//  #07 //072   ----------------------------------------
 BYTE   W48
 BYTE   Cs2  v036
 BYTE   W12
 BYTE   Cs2  v040
 BYTE   W12
 BYTE   Cs2  v048
 BYTE   W12
 BYTE   Cs2  v052
 BYTE   W12
//  #07 //073   ----------------------------------------
 BYTE   PATT
  POIN2 Label_01021AE3
//  #07 //074   ----------------------------------------
 BYTE   PATT
  POIN2 Label_01021B0E
//  #07 //075   ----------------------------------------
 BYTE   PATT
  POIN2 Label_01021AE3
//  #07 //076   ----------------------------------------
 BYTE   PATT
  POIN2 Label_01021B0E
//  #07 //077   ----------------------------------------
 BYTE   PATT
  POIN2 Label_01021AE3
//  #07 //078   ----------------------------------------
 BYTE   PATT
  POIN2 Label_01021B0E
//  #07 //079   ----------------------------------------
 BYTE   N12  Gs1  v048
 BYTE   N96  En2  v052
 BYTE   W24
 BYTE   N12  Gs1  v048
 BYTE   W24
 BYTE   N12
 BYTE   W24
 BYTE   N12
 BYTE   W24
//  #07 //080   ----------------------------------------
Label_01021F6E:
 BYTE   N12  Cn1  v064
 BYTE   N72  Cs2  v048
 BYTE   W12
 BYTE   N12  Cn1  v052
 BYTE   W12
 BYTE   Cn1  v056
 BYTE   W12
 BYTE   Cn1  v052
 BYTE   W12
 BYTE   Cn1  v064
 BYTE   W12
 BYTE   Cn1  v052
 BYTE   W12
 BYTE   Cn1  v056
 BYTE   W12
 BYTE   Cn1  v052
 BYTE   W12
 BYTE   PEND 
//  #07 //081   ----------------------------------------
 BYTE   PATT
  POIN2 Label_01021F6E
//  #07 //082   ----------------------------------------
 BYTE   PATT
  POIN2 Label_01021F6E
//  #07 //083   ----------------------------------------
 BYTE   PATT
  POIN2 Label_01021F6E
//  #07 //084   ----------------------------------------
Label_01021F9B:
 BYTE   N12  Cn1  v064
 BYTE   N72  Cs2  v036
 BYTE   W12
 BYTE   N12  Cn1  v052
 BYTE   W12
 BYTE   Cn1  v056
 BYTE   W12
 BYTE   Cn1  v052
 BYTE   W12
 BYTE   Cn1  v064
 BYTE   W12
 BYTE   Cn1  v052
 BYTE   W12
 BYTE   Cn1  v056
 BYTE   W12
 BYTE   Cn1  v052
 BYTE   W12
 BYTE   PEND 
//  #07 //085   ----------------------------------------
 BYTE   PATT
  POIN2 Label_01021F9B
//  #07 //086   ----------------------------------------
 BYTE   PATT
  POIN2 Label_01021F9B
//  #07 //087   ----------------------------------------
 BYTE   PATT
  POIN2 Label_01021F9B
//  #07 //088   ----------------------------------------
 BYTE   PATT
  POIN2 Label_01021AA9
//  #07 //089   ----------------------------------------
 BYTE   PATT
  POIN2 Label_01021AA9
//  #07 //090   ----------------------------------------
 BYTE   PATT
  POIN2 Label_01021AA9
//  #07 //091   ----------------------------------------
 BYTE   PATT
  POIN2 Label_01021AA9
//  #07 //092   ----------------------------------------
 BYTE   PATT
  POIN2 Label_01021AA9
//  #07 //093   ----------------------------------------
 BYTE   PATT
  POIN2 Label_01021AA9
//  #07 //094   ----------------------------------------
 BYTE   PATT
  POIN2 Label_01021AA9
//  #07 //095   ----------------------------------------
 BYTE   N12  Gs1  v048
 BYTE   N36  Fs2
 BYTE   W12
 BYTE   N12  Gs1  v036
 BYTE   W24
 BYTE   Fs2  v032
 BYTE   W60
//  #07 //096   ----------------------------------------
 BYTE   W48
 BYTE   N06  Gn1  v052
 BYTE   N06  Cn2
 BYTE   W06
 BYTE   Gn1
 BYTE   N06  Bn1
 BYTE   W06
 BYTE   N18  Gn1
 BYTE   N18  An1
 BYTE   W18
 BYTE   Fn1
 BYTE   N18  Gn1
 BYTE   W18
//  #07 //097   ----------------------------------------
 BYTE   GoTo
  POIN2 Label_01021A8C
 BYTE   FINE

//******************************************************//
	ALIGN 4

song1F:
	BYTE	7	// NumTrks
	BYTE	0	// NumBlks
	BYTE	song1F_pri	// Priority
	BYTE	song1F_rev	// Reverb.
    
	POIN2	song1F_grp
    
	POIN2	song1F_001
	POIN2	song1F_002
	POIN2	song1F_003
	POIN2	song1F_004
	POIN2	song1F_005
	POIN2	song1F_006
	POIN2	song1F_007

	
