//Event file generated from Sappy .s format.
	#include "MPlayDef.event"

	#define	CaesuraofDespair_grp  voicegroup000
	#define	CaesuraofDespair_pri  0
	#define	CaesuraofDespair_rev  0
	#define	CaesuraofDespair_mvl  127
	#define	CaesuraofDespair_key  0
	#define	CaesuraofDespair_tbs  1
	#define	CaesuraofDespair_exg  0
	#define	CaesuraofDespair_cmp  1

	// .rodata
	//	CaesuraofDespair
	ALIGN 4


//**************** Track 1 (Midi-Chn.0) ****************//

CaesuraofDespair_001:
//  #01 //000   ----------------------------------------
 BYTE   KEYSH   CaesuraofDespair_key+0
 BYTE   TEMPO   172*CaesuraofDespair_tbs/2
 BYTE   VOICE   52
 BYTE   MODT 0
 BYTE   LFOS 44
 BYTE   VOL   53*CaesuraofDespair_mvl/mxv
 BYTE   PAN   c_v+0
 BYTE   W48
 BYTE   N17  Gs4  v076
 BYTE   W18
 BYTE   As4
 BYTE   W18
 BYTE   N11  Cn5
 BYTE   W12
//  #01 //001   ----------------------------------------
 BYTE   N32  Cs4
 BYTE   N32  Cn5
 BYTE   W36
 BYTE   Fn4
 BYTE   W36
 BYTE   N68  Ds4
 BYTE   N68  As4
 BYTE   W24
//  #01 //002   ----------------------------------------
 BYTE   W48
 BYTE   N22  Ds4
 BYTE   N22  Gn4
 BYTE   W24
 BYTE   Gs4
 BYTE   W24
//  #01 //003   ----------------------------------------
 BYTE   N32  Cn4
 BYTE   N32  As4
 BYTE   W36
 BYTE   Cn5
 BYTE   W36
 BYTE   N68  Fn4
 BYTE   N68  Gs4
 BYTE   W24
//  #01 //004   ----------------------------------------
 BYTE   W48
 BYTE   N22  Fn4
 BYTE   W24
 BYTE   Gs4
 BYTE   W24
//  #01 //005   ----------------------------------------
 BYTE   Fn3
 BYTE   N22  Fn4
 BYTE   W24
 BYTE   Cs4  v080
 BYTE   N22  Cs5
 BYTE   W24
 BYTE   Cn4
 BYTE   N22  Cn5
 BYTE   W24
 BYTE   N44  As3  v084
 BYTE   N44  As4
 BYTE   W24
//  #01 //006   ----------------------------------------
 BYTE   W24
 BYTE   Gs3  v092
 BYTE   N44  Gs4
 BYTE   W48
 BYTE   N11  Gn3  v100
 BYTE   N11  Gn4
 BYTE   W12
 BYTE   N78  As3
 BYTE   N78  As4
 BYTE   W12
//  #01 //007   ----------------------------------------
 BYTE   W72
 BYTE   N11  Gs3
 BYTE   N11  Gs4
 BYTE   W12
 BYTE   N78  Gs3
 BYTE   N78  Gs4
 BYTE   W12
//  #01 //008   ----------------------------------------
 BYTE   W72
 BYTE   N07  Gs2  v028
 BYTE   W08
 BYTE   Cn3
 BYTE   W08
 BYTE   Ds3
 BYTE   W08
//  #01 //009   ----------------------------------------
 BYTE   Gs3  v032
 BYTE   W08
 BYTE   Cn4  v036
 BYTE   W08
 BYTE   Ds4  v044
 BYTE   W08
 BYTE   Gs4  v048
 BYTE   W08
 BYTE   Cn5  v052
 BYTE   W08
 BYTE   Ds5  v060
 BYTE   W08
 BYTE   N01  Gn5  v064
 BYTE   W01
 BYTE   Fn5  v068
 BYTE   W02
 BYTE   En5
 BYTE   W02
 BYTE   Dn5
 BYTE   W02
 BYTE   Cn5  v072
 BYTE   W02
 BYTE   Bn4
 BYTE   W02
 BYTE   An4
 BYTE   W02
 BYTE   Gn4  v076
 BYTE   W02
 BYTE   Fn4
 BYTE   W02
 BYTE   En4  v080
 BYTE   W02
 BYTE   Dn4
 BYTE   W02
 BYTE   Cn4
 BYTE   W02
 BYTE   Bn3  v084
 BYTE   W02
 BYTE   An3
 BYTE   W02
 BYTE   Gn3  v088
 BYTE   W02
 BYTE   Fn3
 BYTE   W02
 BYTE   En3
 BYTE   W02
 BYTE   Dn3  v092
 BYTE   W02
 BYTE   Cn3
 BYTE   W02
 BYTE   Bn2  v096
 BYTE   W02
 BYTE   An2
 BYTE   W03
 BYTE   N05  Gn2  v100
 BYTE   W06
//  #01 //010   ----------------------------------------
 BYTE   N22  Cn4  v104
 BYTE   N22  Ds4
 BYTE   N22  As4
 BYTE   W24
 BYTE   N11  Gs4  v084
 BYTE   W12
 BYTE   Ds4  v080
 BYTE   W12
 BYTE   As4
 BYTE   W12
 BYTE   Ds4
 BYTE   W12
 BYTE   Gs4
 BYTE   W12
 BYTE   Ds4
 BYTE   W12
//  #01 //011   ----------------------------------------
 BYTE   N22  Cs4
 BYTE   N22  Ds4
 BYTE   N22  As4
 BYTE   W24
 BYTE   N11  Gs4
 BYTE   W12
 BYTE   As3
 BYTE   W12
 BYTE   As4
 BYTE   W12
 BYTE   Ds4
 BYTE   W12
 BYTE   Gn4
 BYTE   W12
 BYTE   Ds4
 BYTE   W12
//  #01 //012   ----------------------------------------
 BYTE   Gs4
 BYTE   W12
 BYTE   Gs3
 BYTE   W12
 BYTE   As3
 BYTE   W12
 BYTE   Ds4
 BYTE   W12
 BYTE   Cn4
 BYTE   W12
 BYTE   Ds4
 BYTE   W12
 BYTE   Cs4
 BYTE   W12
 BYTE   Ds4
 BYTE   W12
//  #01 //013   ----------------------------------------
 BYTE   Cs5
 BYTE   W12
 BYTE   Ds4
 BYTE   W12
 BYTE   Cn5
 BYTE   W12
 BYTE   Ds4
 BYTE   W12
 BYTE   As4
 BYTE   W12
 BYTE   Ds4
 BYTE   W12
 BYTE   Gn4
 BYTE   W12
 BYTE   Ds4
 BYTE   W12
//  #01 //014   ----------------------------------------
 BYTE   N11
 BYTE   N11  Ds5
 BYTE   W12
 BYTE   Gs4
 BYTE   W12
 BYTE   As4
 BYTE   W12
 BYTE   N22  Gs4
 BYTE   W24
 BYTE   N11  Ds4
 BYTE   W12
 BYTE   Gn4
 BYTE   W12
 BYTE   Gs4
 BYTE   W12
//  #01 //015   ----------------------------------------
 BYTE   Ds4
 BYTE   N11  Ds5
 BYTE   W12
 BYTE   Gs4
 BYTE   W12
 BYTE   As4
 BYTE   W12
 BYTE   N22  Ds4
 BYTE   W24
 BYTE   N11  Gn4
 BYTE   W12
 BYTE   Gs4
 BYTE   W12
 BYTE   Ds5
 BYTE   W12
//  #01 //016   ----------------------------------------
 BYTE   N32  En4
 BYTE   N32  Gs4
 BYTE   N32  En5
 BYTE   W36
 BYTE   En4
 BYTE   N32  Gs4
 BYTE   N32  Ds5
 BYTE   W36
 BYTE   N22  En4
 BYTE   N22  Gs4
 BYTE   N22  Cs5
 BYTE   W24
//  #01 //017   ----------------------------------------
 BYTE   N11  Ds4
 BYTE   N11  Gs4
 BYTE   N11  Ds5
 BYTE   W12
 BYTE   Gn4  v076
 BYTE   W12
 BYTE   Ds4
 BYTE   W12
 BYTE   As3  v072
 BYTE   W12
 BYTE   Gs3  v068
 BYTE   W12
 BYTE   Gn3
 BYTE   W12
 BYTE   Ds3  v064
 BYTE   W12
Label_01A4AF76:
 BYTE   N11  Ds3  v064
 BYTE   W12
//  #01 //018   ----------------------------------------
Label_01A4AF7A:
 BYTE   N22  Gs3  v060
 BYTE   N22  Ds4
 BYTE   W24
 BYTE   N11  Cs4
 BYTE   W12
 BYTE   N22
 BYTE   W24
 BYTE   Cn4
 BYTE   W24
 BYTE   As3
 BYTE   W12
 BYTE   PEND 
//  #01 //019   ----------------------------------------
Label_01A4AF8A:
 BYTE   W12
 BYTE   N22  Gs3  v060
 BYTE   W24
 BYTE   As3
 BYTE   W24
 BYTE   Cn4
 BYTE   W24
 BYTE   N32  As3
 BYTE   W12
 BYTE   PEND 
//  #01 //020   ----------------------------------------
 BYTE   W24
 BYTE   N11  Gs3
 BYTE   W12
 BYTE   N22  As3
 BYTE   W24
 BYTE   Cn4
 BYTE   W24
 BYTE   N56  Gn3
 BYTE   N56  As3
 BYTE   W12
//  #01 //021   ----------------------------------------
 BYTE   W84
 BYTE   N11  Ds3
 BYTE   W12
//  #01 //022   ----------------------------------------
 BYTE   PATT
  POIN2 Label_01A4AF7A
//  #01 //023   ----------------------------------------
 BYTE   PATT
  POIN2 Label_01A4AF8A
//  #01 //024   ----------------------------------------
 BYTE   W24
 BYTE   N11  Gs3  v060
 BYTE   W12
 BYTE   N22  As3
 BYTE   W24
 BYTE   Cn4
 BYTE   W24
 BYTE   N32  Gs3
 BYTE   W12
//  #01 //025   ----------------------------------------
 BYTE   W48
 BYTE   N11
 BYTE   W12
 BYTE   As3
 BYTE   W12
 BYTE   N22  Cn4
 BYTE   W24
//  #01 //026   ----------------------------------------
 BYTE   N32  As3
 BYTE   W36
 BYTE   Gs3
 BYTE   W36
 BYTE   N44  As3
 BYTE   W24
//  #01 //027   ----------------------------------------
 BYTE   W48
 BYTE   N22  Gs3
 BYTE   W24
 BYTE   Ds4
 BYTE   W24
//  #01 //028   ----------------------------------------
 BYTE   N32  Gn3
 BYTE   W36
 BYTE   As3
 BYTE   W36
 BYTE   N44  Gs3
 BYTE   W24
//  #01 //029   ----------------------------------------
 BYTE   N22  As2
 BYTE   W48
 BYTE   Gs2
 BYTE   W24
 BYTE   Gs3  v080
 BYTE   W24
//  #01 //030   ----------------------------------------
 BYTE   Ds4
 BYTE   W24
 BYTE   Cs4
 BYTE   W24
 BYTE   Cn4
 BYTE   W24
 BYTE   N44  As3
 BYTE   W24
//  #01 //031   ----------------------------------------
 BYTE   W24
 BYTE   Gs3
 BYTE   W48
 BYTE   N44
 BYTE   W24
//  #01 //032   ----------------------------------------
 BYTE   W24
 BYTE   N11  Cn3  v028
 BYTE   N11  Ds3
 BYTE   N11  Gs3
 BYTE   W12
 BYTE   Cn3
 BYTE   N11  Gs3
 BYTE   W12
 BYTE   Cn3  v036
 BYTE   N11  Gs3
 BYTE   W12
 BYTE   Cn3  v044
 BYTE   N11  Gs3
 BYTE   W12
 BYTE   Cn3  v056
 BYTE   N11  Gs3
 BYTE   W12
 BYTE   Cn3  v068
 BYTE   N11  Gs3
 BYTE   W12
//  #01 //033   ----------------------------------------
 BYTE   N44  Cn3  v080
 BYTE   N44  Gs3
 BYTE   W48
 BYTE   N22  Cn3
 BYTE   N22  Ds3
 BYTE   W36
 BYTE   N11  Gs3  v092
 BYTE   W12
//  #01 //034   ----------------------------------------
 BYTE   N22
 BYTE   W24
 BYTE   N11  Cn4  v088
 BYTE   N11  Gn4
 BYTE   W12
 BYTE   N22  Cs4
 BYTE   N22  Gs4
 BYTE   W24
 BYTE   As3
 BYTE   N22  Gn4
 BYTE   W24
 BYTE   N56  Cn4
 BYTE   N56  Ds4
 BYTE   W12
//  #01 //035   ----------------------------------------
 BYTE   W48
 BYTE   N11  Cn4
 BYTE   N11  Cn5
 BYTE   W12
 BYTE   Cs4
 BYTE   N11  Cs5
 BYTE   W12
 BYTE   Ds4
 BYTE   N11  Ds5
 BYTE   W12
 BYTE   N32  Ds4
 BYTE   N32  Ds5
 BYTE   W12
//  #01 //036   ----------------------------------------
 BYTE   W24
 BYTE   N11  Fn4
 BYTE   N11  Fn5
 BYTE   W12
 BYTE   N22  Cs4
 BYTE   N22  Cs5
 BYTE   W24
 BYTE   Cn4
 BYTE   N22  Cn5
 BYTE   W24
 BYTE   N44  As3
 BYTE   N44  As4
 BYTE   W12
//  #01 //037   ----------------------------------------
 BYTE   W36
 BYTE   N05  Cn4
 BYTE   N05  Cn5
 BYTE   W06
 BYTE   As3
 BYTE   N05  As4
 BYTE   W06
 BYTE   N22  Gs3
 BYTE   N22  Gs4
 BYTE   W36
 BYTE   N11  Gs3
 BYTE   W12
//  #01 //038   ----------------------------------------
 BYTE   N22
 BYTE   W24
 BYTE   N11  Cn4
 BYTE   N11  Gn4
 BYTE   W12
 BYTE   N22  Cs4
 BYTE   N22  Gs4
 BYTE   W24
 BYTE   As3
 BYTE   N22  Gn4
 BYTE   W24
 BYTE   N56  Cn4
 BYTE   N56  Ds4
 BYTE   W12
//  #01 //039   ----------------------------------------
 BYTE   W48
 BYTE   N11  Ds3
 BYTE   N11  Ds4
 BYTE   W12
 BYTE   Gn3
 BYTE   N11  Gn4
 BYTE   W12
 BYTE   Gs3  v092
 BYTE   N11  Gs4
 BYTE   W12
 BYTE   N32  As3  v096
 BYTE   N32  As4
 BYTE   W12
//  #01 //040   ----------------------------------------
 BYTE   W24
 BYTE   N11  Gs3  v104
 BYTE   N11  Gs4
 BYTE   W12
 BYTE   N22  Ds3  v108
 BYTE   N22  Ds4
 BYTE   W24
 BYTE   Gs3  v112
 BYTE   N22  Gs4
 BYTE   W24
 BYTE   N32  As3  v120
 BYTE   N32  As4
 BYTE   W12
//  #01 //041   ----------------------------------------
 BYTE   W48
 BYTE   N22  Ds3  v104
 BYTE   N22  Ds4
 BYTE   W24
 BYTE   Gs3
 BYTE   N22  Gs4
 BYTE   W24
//  #01 //042   ----------------------------------------
 BYTE   N32  As3
 BYTE   N32  As4
 BYTE   W36
 BYTE   N44  Gs3  v100
 BYTE   N44  Gs4
 BYTE   W48
 BYTE   N11  Cn3
 BYTE   N11  Cn4
 BYTE   W12
//  #01 //043   ----------------------------------------
Label_01A4B0D0:
 BYTE   N22  Cn3  v100
 BYTE   N22  Cn4
 BYTE   W24
 BYTE   Cs3
 BYTE   N22  Cs4
 BYTE   W24
 BYTE   Ds3
 BYTE   N22  Ds4
 BYTE   W24
 BYTE   Gs3
 BYTE   N22  Gs4
 BYTE   W24
 BYTE   PEND 
//  #01 //044   ----------------------------------------
 BYTE   N32  As3
 BYTE   N32  As4
 BYTE   W36
 BYTE   N11  Gs3
 BYTE   N11  Gs4
 BYTE   W12
 BYTE   N32  Gs3
 BYTE   N32  Gs4
 BYTE   W36
 BYTE   N11  As3
 BYTE   N11  As4
 BYTE   W12
//  #01 //045   ----------------------------------------
 BYTE   N22  Cn4
 BYTE   N22  Cn5
 BYTE   W48
 BYTE   Ds3
 BYTE   N22  Ds4
 BYTE   W24
 BYTE   Gs3
 BYTE   N22  Gs4
 BYTE   W24
//  #01 //046   ----------------------------------------
 BYTE   N32  As3  v127
 BYTE   N32  As4
 BYTE   W36
 BYTE   N11  Gs3  v100
 BYTE   N11  Gs4
 BYTE   W12
 BYTE   N32  Gs3
 BYTE   N32  Gs4
 BYTE   W36
 BYTE   N11  Cn3
 BYTE   N11  Cn4
 BYTE   W12
//  #01 //047   ----------------------------------------
 BYTE   PATT
  POIN2 Label_01A4B0D0
//  #01 //048   ----------------------------------------
 BYTE   N32  As3  v100
 BYTE   N32  As4
 BYTE   W36
 BYTE   N11  Gs3
 BYTE   N11  Gs4
 BYTE   W12
 BYTE   N32  Gs3
 BYTE   N32  Gs4
 BYTE   W36
 BYTE   N11  Ds4
 BYTE   N11  Ds5
 BYTE   W12
//  #01 //049   ----------------------------------------
 BYTE   N22  Gs3
 BYTE   N22  Gs4
 BYTE   W48
 BYTE   N17  Gs3
 BYTE   N17  Gs4
 BYTE   W18
 BYTE   As3  v108
 BYTE   N17  As4
 BYTE   W18
 BYTE   N11  Cn4  v120
 BYTE   N11  Cn5
 BYTE   W12
//  #01 //050   ----------------------------------------
 BYTE   N32  Cn4  v127
 BYTE   N32  Cn5
 BYTE   W36
 BYTE   Fn3  v100
 BYTE   N32  Fn4
 BYTE   W36
 BYTE   N44  As3
 BYTE   N44  As4
 BYTE   W24
//  #01 //051   ----------------------------------------
 BYTE   W48
 BYTE   N22  Gn3
 BYTE   N22  Gn4
 BYTE   W24
 BYTE   Gs3
 BYTE   N22  Gs4
 BYTE   W24
//  #01 //052   ----------------------------------------
 BYTE   N32  As3
 BYTE   N32  As4
 BYTE   W36
 BYTE   Cn4
 BYTE   N32  Cn5
 BYTE   W36
 BYTE   N44  Gs3
 BYTE   N44  Gs4
 BYTE   W24
//  #01 //053   ----------------------------------------
 BYTE   W48
 BYTE   N22  Fn3
 BYTE   N22  Fn4
 BYTE   W24
 BYTE   Gs3
 BYTE   N22  Gs4
 BYTE   W24
//  #01 //054   ----------------------------------------
 BYTE   Fn3  v127
 BYTE   N22  Fn4
 BYTE   W24
 BYTE   Cs4  v104
 BYTE   N22  Cs5
 BYTE   W24
 BYTE   Cn4  v100
 BYTE   N22  Cn5
 BYTE   W24
 BYTE   N44  As3
 BYTE   N44  As4
 BYTE   W24
//  #01 //055   ----------------------------------------
 BYTE   W24
 BYTE   Gs3
 BYTE   N44  Gs4
 BYTE   W48
 BYTE   Gs3
 BYTE   N44  Gs4
 BYTE   W24
//  #01 //056   ----------------------------------------
 BYTE   W24
 BYTE   Gn3
 BYTE   N44  Gn4
 BYTE   W48
 BYTE   Gn3
 BYTE   N44  Gn4
 BYTE   W24
//  #01 //057   ----------------------------------------
 BYTE   W24
 BYTE   N22  Gs3
 BYTE   N22  Gs4
 BYTE   W24
 BYTE   N44  Gs3
 BYTE   N44  Gs4
 BYTE   W48
//  #01 //058   ----------------------------------------
 BYTE   W96
//  #01 //059   ----------------------------------------
 BYTE   Gs4  v048
 BYTE   W04
 BYTE   N42  As4
 BYTE   W05
 BYTE   N36  Ds5
 BYTE   W72
 BYTE   W03
 BYTE   GoTo
  POIN2 Label_01A4AF76
//  #01 //060   ----------------------------------------
 BYTE   N11  Gs3  v100
 BYTE   W12
 BYTE   W96
//  #01 //061   ----------------------------------------
 BYTE   W96
//  #01 //062   ----------------------------------------
 BYTE   W96
//  #01 //063   ----------------------------------------
 BYTE   W96
//  #01 //064   ----------------------------------------
 BYTE   W96
//  #01 //065   ----------------------------------------
 BYTE   W96
//  #01 //066   ----------------------------------------
 BYTE   W96
//  #01 //067   ----------------------------------------
 BYTE   W96
//  #01 //068   ----------------------------------------
 BYTE   W96
//  #01 //069   ----------------------------------------
 BYTE   W96
//  #01 //070   ----------------------------------------
 BYTE   W96
//  #01 //071   ----------------------------------------
 BYTE   W96
//  #01 //072   ----------------------------------------
 BYTE   W96
//  #01 //073   ----------------------------------------
 BYTE   W96
//  #01 //074   ----------------------------------------
 BYTE   W96
//  #01 //075   ----------------------------------------
 BYTE   W96
//  #01 //076   ----------------------------------------
 BYTE   W96
//  #01 //077   ----------------------------------------
 BYTE   W96
//  #01 //078   ----------------------------------------
 BYTE   W96
//  #01 //079   ----------------------------------------
 BYTE   W96
//  #01 //080   ----------------------------------------
 BYTE   W96
//  #01 //081   ----------------------------------------
 BYTE   W96
//  #01 //082   ----------------------------------------
 BYTE   W96
//  #01 //083   ----------------------------------------
 BYTE   W96
//  #01 //084   ----------------------------------------
 BYTE   W96
//  #01 //085   ----------------------------------------
 BYTE   W96
//  #01 //086   ----------------------------------------
 BYTE   W96
//  #01 //087   ----------------------------------------
 BYTE   W96
//  #01 //088   ----------------------------------------
 BYTE   W96
//  #01 //089   ----------------------------------------
 BYTE   W96
//  #01 //090   ----------------------------------------
 BYTE   W96
//  #01 //091   ----------------------------------------
 BYTE   W96
//  #01 //092   ----------------------------------------
 BYTE   W96
//  #01 //093   ----------------------------------------
 BYTE   W96
//  #01 //094   ----------------------------------------
 BYTE   W96
//  #01 //095   ----------------------------------------
 BYTE   W96
//  #01 //096   ----------------------------------------
 BYTE   W96
//  #01 //097   ----------------------------------------
 BYTE   W96
//  #01 //098   ----------------------------------------
 BYTE   W96
//  #01 //099   ----------------------------------------
 BYTE   W96
//  #01 //100   ----------------------------------------
 BYTE   W96
//  #01 //101   ----------------------------------------
 BYTE   W96
//  #01 //102   ----------------------------------------
 BYTE   W96
//  #01 //103   ----------------------------------------
 BYTE   W96
//  #01 //104   ----------------------------------------
 BYTE   W96
//  #01 //105   ----------------------------------------
 BYTE   W96
//  #01 //106   ----------------------------------------
 BYTE   W96
//  #01 //107   ----------------------------------------
 BYTE   W96
//  #01 //108   ----------------------------------------
 BYTE   W96
//  #01 //109   ----------------------------------------
 BYTE   W96
//  #01 //110   ----------------------------------------
 BYTE   W96
//  #01 //111   ----------------------------------------
 BYTE   W96
//  #01 //112   ----------------------------------------
 BYTE   W96
//  #01 //113   ----------------------------------------
 BYTE   W96
//  #01 //114   ----------------------------------------
 BYTE   W96
//  #01 //115   ----------------------------------------
 BYTE   W96
//  #01 //116   ----------------------------------------
 BYTE   W96
//  #01 //117   ----------------------------------------
 BYTE   W96
//  #01 //118   ----------------------------------------
 BYTE   W96
//  #01 //119   ----------------------------------------
 BYTE   W96
//  #01 //120   ----------------------------------------
 BYTE   W96
//  #01 //121   ----------------------------------------
 BYTE   W96
//  #01 //122   ----------------------------------------
 BYTE   W96
//  #01 //123   ----------------------------------------
 BYTE   W96
//  #01 //124   ----------------------------------------
 BYTE   W96
//  #01 //125   ----------------------------------------
 BYTE   W96
//  #01 //126   ----------------------------------------
 BYTE   W96
//  #01 //127   ----------------------------------------
 BYTE   W96
//  #01 //128   ----------------------------------------
 BYTE   W96
//  #01 //129   ----------------------------------------
 BYTE   W96
//  #01 //130   ----------------------------------------
 BYTE   W96
//  #01 //131   ----------------------------------------
 BYTE   W96
//  #01 //132   ----------------------------------------
 BYTE   W96
//  #01 //133   ----------------------------------------
 BYTE   W96
//  #01 //134   ----------------------------------------
 BYTE   W96
//  #01 //135   ----------------------------------------
 BYTE   W96
//  #01 //136   ----------------------------------------
 BYTE   W96
//  #01 //137   ----------------------------------------
 BYTE   W96
//  #01 //138   ----------------------------------------
 BYTE   W96
//  #01 //139   ----------------------------------------
 BYTE   W96
//  #01 //140   ----------------------------------------
 BYTE   W96
//  #01 //141   ----------------------------------------
 BYTE   W96
//  #01 //142   ----------------------------------------
 BYTE   W96
//  #01 //143   ----------------------------------------
 BYTE   W96
//  #01 //144   ----------------------------------------
 BYTE   W96
//  #01 //145   ----------------------------------------
 BYTE   W96
//  #01 //146   ----------------------------------------
 BYTE   W96
//  #01 //147   ----------------------------------------
 BYTE   W96
//  #01 //148   ----------------------------------------
 BYTE   W96
//  #01 //149   ----------------------------------------
 BYTE   W96
//  #01 //150   ----------------------------------------
 BYTE   W48
 BYTE   W96
//  #01 //151   ----------------------------------------
 BYTE   W96
//  #01 //152   ----------------------------------------
 BYTE   W96
//  #01 //153   ----------------------------------------
 BYTE   W96
//  #01 //154   ----------------------------------------
 BYTE   W96
//  #01 //155   ----------------------------------------
 BYTE   W96
//  #01 //156   ----------------------------------------
 BYTE   W96
//  #01 //157   ----------------------------------------
 BYTE   W96
//  #01 //158   ----------------------------------------
 BYTE   W96
//  #01 //159   ----------------------------------------
 BYTE   W96
//  #01 //160   ----------------------------------------
 BYTE   W96
//  #01 //161   ----------------------------------------
 BYTE   W96
//  #01 //162   ----------------------------------------
 BYTE   W96
//  #01 //163   ----------------------------------------
 BYTE   W96
//  #01 //164   ----------------------------------------
 BYTE   W96
//  #01 //165   ----------------------------------------
 BYTE   W96
//  #01 //166   ----------------------------------------
 BYTE   W96
//  #01 //167   ----------------------------------------
 BYTE   W96
//  #01 //168   ----------------------------------------
 BYTE   W96
//  #01 //169   ----------------------------------------
 BYTE   W96
//  #01 //170   ----------------------------------------
 BYTE   W96
//  #01 //171   ----------------------------------------
 BYTE   W96
//  #01 //172   ----------------------------------------
 BYTE   W96
//  #01 //173   ----------------------------------------
 BYTE   W96
//  #01 //174   ----------------------------------------
 BYTE   W96
//  #01 //175   ----------------------------------------
 BYTE   W96
//  #01 //176   ----------------------------------------
 BYTE   W96
//  #01 //177   ----------------------------------------
 BYTE   W96
//  #01 //178   ----------------------------------------
 BYTE   W96
//  #01 //179   ----------------------------------------
 BYTE   W96
//  #01 //180   ----------------------------------------
 BYTE   W96
//  #01 //181   ----------------------------------------
 BYTE   W96
//  #01 //182   ----------------------------------------
 BYTE   W96
//  #01 //183   ----------------------------------------
 BYTE   W48
 BYTE   TEMPO   160*CaesuraofDespair_tbs/2
 BYTE   W48
//  #01 //184   ----------------------------------------
 BYTE   TEMPO   108*CaesuraofDespair_tbs/2
 BYTE   W96
//  #01 //185   ----------------------------------------
 BYTE   TEMPO   100*CaesuraofDespair_tbs/2
 BYTE   W24
 BYTE   TEMPO   78*CaesuraofDespair_tbs/2
 BYTE   W24
 BYTE   TEMPO   40*CaesuraofDespair_tbs/2
 BYTE   FINE

//**************** Track 2 (Midi-Chn.1) ****************//

CaesuraofDespair_002:
//  #02 //000   ----------------------------------------
 BYTE   VOL   80*CaesuraofDespair_mvl/mxv
 BYTE   KEYSH   CaesuraofDespair_key+0
 BYTE   VOICE   0
 BYTE   MODT 0
 BYTE   LFOS 44
 BYTE   W96
//  #02 //001   ----------------------------------------
 BYTE   N90  Cs2  v060
 BYTE   N11  Cn3  v036
 BYTE   W12
 BYTE   Gs2
 BYTE   W12
 BYTE   Ds2
 BYTE   W12
 BYTE   Cn3
 BYTE   W12
 BYTE   Gs2
 BYTE   W12
 BYTE   Ds2
 BYTE   W12
 BYTE   Cn3
 BYTE   W12
 BYTE   Gs2
 BYTE   W12
//  #02 //002   ----------------------------------------
 BYTE   N36  Ds2  v060
 BYTE   W12
 BYTE   N11  As2  v036
 BYTE   W12
 BYTE   Gs2
 BYTE   W12
 BYTE   N36  Ds2
 BYTE   W12
 BYTE   N11  As2
 BYTE   W12
 BYTE   Gs2
 BYTE   W12
 BYTE   N19  Ds2
 BYTE   W12
 BYTE   N11  Gs2
 BYTE   W12
//  #02 //003   ----------------------------------------
 BYTE   N44  Cn2  v060
 BYTE   N11  Ds3  v036
 BYTE   W12
 BYTE   Gs2
 BYTE   W12
 BYTE   Ds2
 BYTE   W12
 BYTE   Ds3
 BYTE   W12
 BYTE   Gs2
 BYTE   W12
 BYTE   N32  En2
 BYTE   W12
 BYTE   N11  Gs3
 BYTE   W12
 BYTE   En3
 BYTE   W12
//  #02 //004   ----------------------------------------
 BYTE   N90  Fn2  v060
 BYTE   N11  Gs2  v036
 BYTE   W12
 BYTE   Gs3
 BYTE   W12
 BYTE   Ds3
 BYTE   W12
 BYTE   Gs2
 BYTE   W12
 BYTE   Gs3
 BYTE   W12
 BYTE   Ds3
 BYTE   W12
 BYTE   As3
 BYTE   W12
 BYTE   Ds3
 BYTE   W12
//  #02 //005   ----------------------------------------
 BYTE   N92  Cs3  v056
 BYTE   W06
 BYTE   N88  Gs2
 BYTE   W07
 BYTE   N80  Fn2
 BYTE   W07
 BYTE   N72  As1
 BYTE   W76
//  #02 //006   ----------------------------------------
 BYTE   N44  Ds1  v072
 BYTE   N44  Ds2
 BYTE   W48
 BYTE   Gn2  v076
 BYTE   W04
 BYTE   N42  As2
 BYTE   W05
 BYTE   N36  Ds3
 BYTE   W36
 BYTE   W03
//  #02 //007   ----------------------------------------
 BYTE   N90  Gs1  v080
 BYTE   N90  Gs2
 BYTE   W96
//  #02 //008   ----------------------------------------
 BYTE   N68  Gs0
 BYTE   N68  Gs1
 BYTE   W72
 BYTE   N11  Gs0  v028
 BYTE   N11  Gs1
 BYTE   W12
 BYTE   Gs0
 BYTE   N11  Gs1
 BYTE   W12
//  #02 //009   ----------------------------------------
 BYTE   Gs0  v032
 BYTE   N11  Gs1
 BYTE   W12
 BYTE   Gs0  v040
 BYTE   N11  Gs1
 BYTE   W12
 BYTE   Gs0  v048
 BYTE   N11  Gs1
 BYTE   W12
 BYTE   Gs0  v056
 BYTE   N11  Gs1
 BYTE   W12
 BYTE   Gs0  v064
 BYTE   N11  Gs1
 BYTE   W12
 BYTE   Gs0  v076
 BYTE   N11  Gs1
 BYTE   W12
 BYTE   Gs0  v084
 BYTE   N11  Gs1
 BYTE   W12
 BYTE   Gs0  v092
 BYTE   N11  Gs1
 BYTE   W12
//  #02 //010   ----------------------------------------
 BYTE   N22  Cn2  v104
 BYTE   N22  Gs2
 BYTE   N22  Cn3
 BYTE   W24
 BYTE   N11  Cn2  v084
 BYTE   W12
 BYTE   Cn3  v080
 BYTE   W12
 BYTE   Cn2
 BYTE   W12
 BYTE   Cn3
 BYTE   W12
 BYTE   Cn2
 BYTE   W12
 BYTE   Cn3
 BYTE   W12
//  #02 //011   ----------------------------------------
 BYTE   N22  Cs2
 BYTE   N22  Gs2
 BYTE   N22  Cs3
 BYTE   W24
 BYTE   N11  Cs2
 BYTE   W12
 BYTE   Cs3
 BYTE   W12
 BYTE   Cs2
 BYTE   W12
 BYTE   Cs3
 BYTE   W12
 BYTE   Cs2
 BYTE   W12
 BYTE   Cs3
 BYTE   W12
//  #02 //012   ----------------------------------------
 BYTE   N22  Ds2
 BYTE   N22  Gs2
 BYTE   N22  Ds3
 BYTE   W24
 BYTE   N11  Ds2
 BYTE   W12
 BYTE   Ds3
 BYTE   W12
 BYTE   Ds2
 BYTE   W12
 BYTE   Ds3
 BYTE   W12
 BYTE   Ds2
 BYTE   W12
 BYTE   Ds3
 BYTE   W12
//  #02 //013   ----------------------------------------
 BYTE   Fn2
 BYTE   W12
 BYTE   Fn3
 BYTE   W12
 BYTE   Fn2
 BYTE   W12
 BYTE   Fn3
 BYTE   W12
 BYTE   Ds2
 BYTE   W12
 BYTE   Ds3
 BYTE   W12
 BYTE   Ds2
 BYTE   W12
 BYTE   Ds3
 BYTE   W12
//  #02 //014   ----------------------------------------
 BYTE   As1
 BYTE   W12
 BYTE   Fn2
 BYTE   W12
 BYTE   As2
 BYTE   W12
 BYTE   N22  As1
 BYTE   W24
 BYTE   N11  Fn2
 BYTE   W12
 BYTE   N22  As2
 BYTE   W24
//  #02 //015   ----------------------------------------
 BYTE   N11  Cn2
 BYTE   W12
 BYTE   Gs2
 BYTE   W12
 BYTE   Cn3
 BYTE   W12
 BYTE   N22  Cn2
 BYTE   W24
 BYTE   N11  Gs2
 BYTE   W12
 BYTE   N22  Cn3
 BYTE   W24
//  #02 //016   ----------------------------------------
 BYTE   En1
 BYTE   N22  En2
 BYTE   W24
 BYTE   N11
 BYTE   W12
 BYTE   En1
 BYTE   W12
 BYTE   En2
 BYTE   W12
 BYTE   En1
 BYTE   W12
 BYTE   En2
 BYTE   W12
 BYTE   En1
 BYTE   W12
//  #02 //017   ----------------------------------------
 BYTE   N22  Ds1
 BYTE   N22  As1
 BYTE   N22  Ds2
 BYTE   W24
 BYTE   N11  Ds1  v076
 BYTE   W12
 BYTE   Gn1  v072
 BYTE   W12
 BYTE   As1  v068
 BYTE   W12
 BYTE   Ds2
 BYTE   W12
 BYTE   Gn2  v064
 BYTE   W12
Label_01A4BC76:
 BYTE   N11  As2  v064
 BYTE   W12
//  #02 //018   ----------------------------------------
 BYTE   N90  Gs2  v044
 BYTE   N90  Ds3
 BYTE   W96
//  #02 //019   ----------------------------------------
 BYTE   W96
//  #02 //020   ----------------------------------------
 BYTE   N92  Ds2
 BYTE   W04
 BYTE   N90  Gs2
 BYTE   W05
 BYTE   N84  As2
 BYTE   W04
 BYTE   N80  Ds3
 BYTE   W80
 BYTE   W03
//  #02 //021   ----------------------------------------
 BYTE   N90  Ds2  v060
 BYTE   W96
//  #02 //022   ----------------------------------------
 BYTE   Fn2  v048
 BYTE   N90  Cn3
 BYTE   N90  Ds3
 BYTE   W96
//  #02 //023   ----------------------------------------
 BYTE   W96
//  #02 //024   ----------------------------------------
 BYTE   Cs2
 BYTE   N90  Gs2
 BYTE   N90  En3
 BYTE   W96
//  #02 //025   ----------------------------------------
 BYTE   Cs4
 BYTE   N90  Ds4
 BYTE   N90  Gs4
 BYTE   W96
//  #02 //026   ----------------------------------------
 BYTE   N22  Cs2  v044
 BYTE   N22  Ds2
 BYTE   N22  Gs2
 BYTE   W24
 BYTE   N44  Cs3  v048
 BYTE   W48
 BYTE   N22  Cs2
 BYTE   W24
//  #02 //027   ----------------------------------------
 BYTE   Ds2  v044
 BYTE   N22  Gs2
 BYTE   N22  As2
 BYTE   W24
 BYTE   N44  Ds3  v048
 BYTE   W48
 BYTE   N22  Ds2
 BYTE   W24
//  #02 //028   ----------------------------------------
 BYTE   N44  Gn1  v044
 BYTE   N44  Dn2
 BYTE   N44  Fn2
 BYTE   W48
 BYTE   Cn2
 BYTE   N44  Gn2
 BYTE   N44  As2
 BYTE   W48
//  #02 //029   ----------------------------------------
 BYTE   Fn1
 BYTE   N44  Cn2
 BYTE   N44  Ds2
 BYTE   W48
 BYTE   Fn1
 BYTE   N44  As1
 BYTE   N44  Ds2
 BYTE   W48
//  #02 //030   ----------------------------------------
 BYTE   As1  v052
 BYTE   N44  Fn2
 BYTE   N44  Gs2
 BYTE   W48
 BYTE   Dn2  v060
 BYTE   W48
//  #02 //031   ----------------------------------------
 BYTE   Ds2  v052
 BYTE   N44  Gs2
 BYTE   N44  As2
 BYTE   W48
 BYTE   Ds1  v060
 BYTE   W48
//  #02 //032   ----------------------------------------
 BYTE   N22  Gs1
 BYTE   W24
 BYTE   N11  Gs1  v028
 BYTE   N11  Gs2
 BYTE   W12
 BYTE   Gs1
 BYTE   N11  Gs2
 BYTE   W12
 BYTE   Gs1  v036
 BYTE   N11  Gs2
 BYTE   W12
 BYTE   Gs1  v044
 BYTE   N11  Gs2
 BYTE   W12
 BYTE   Gs1  v056
 BYTE   N11  Gs2
 BYTE   W12
 BYTE   Gs1  v068
 BYTE   N11  Gs2
 BYTE   W12
//  #02 //033   ----------------------------------------
 BYTE   Gs1  v080
 BYTE   N11  Gs2
 BYTE   W12
 BYTE   Ds2
 BYTE   W12
 BYTE   Gs2
 BYTE   W12
 BYTE   N23  As2  v108
 BYTE   W24
 BYTE   N11  Gs2  v080
 BYTE   W12
 BYTE   Gn2
 BYTE   W12
 BYTE   Ds2  v076
 BYTE   W12
//  #02 //034   ----------------------------------------
 BYTE   Fn1
 BYTE   W12
 BYTE   Cn2  v052
 BYTE   W12
 BYTE   Gs2  v048
 BYTE   W12
 BYTE   Fn1  v072
 BYTE   W12
 BYTE   Cn2  v048
 BYTE   W12
 BYTE   Gs2
 BYTE   W12
 BYTE   N23  Fn1  v072
 BYTE   W24
//  #02 //035   ----------------------------------------
 BYTE   N11  Ds1
 BYTE   W12
 BYTE   Cn2  v048
 BYTE   W12
 BYTE   Gn2
 BYTE   W12
 BYTE   Ds1  v072
 BYTE   W12
 BYTE   Cn2  v048
 BYTE   W12
 BYTE   Gn2
 BYTE   W12
 BYTE   N23  Ds1  v072
 BYTE   W24
//  #02 //036   ----------------------------------------
 BYTE   N11  Cs1
 BYTE   W12
 BYTE   Gs1
 BYTE   W12
 BYTE   Cs2
 BYTE   W12
 BYTE   Cs3
 BYTE   W12
 BYTE   Cn3
 BYTE   W12
 BYTE   Gs2
 BYTE   W12
 BYTE   Fn2
 BYTE   W12
 BYTE   Cs2
 BYTE   W12
//  #02 //037   ----------------------------------------
 BYTE   Ds1
 BYTE   W12
 BYTE   Ds2
 BYTE   W12
 BYTE   Gn2
 BYTE   W12
 BYTE   As2
 BYTE   W12
 BYTE   Ds3
 BYTE   W12
 BYTE   As2
 BYTE   W12
 BYTE   Gn2
 BYTE   W12
 BYTE   Ds2
 BYTE   W12
//  #02 //038   ----------------------------------------
 BYTE   Fn1
 BYTE   W12
 BYTE   Cn2  v048
 BYTE   W12
 BYTE   Gs2
 BYTE   W12
 BYTE   Fn1  v072
 BYTE   W12
 BYTE   Cn2  v048
 BYTE   W12
 BYTE   Gs2
 BYTE   W12
 BYTE   N23  Fn1  v072
 BYTE   W24
//  #02 //039   ----------------------------------------
 BYTE   N11  Ds1
 BYTE   W12
 BYTE   Cn2  v048
 BYTE   W12
 BYTE   Gn2
 BYTE   W12
 BYTE   Ds1  v072
 BYTE   W12
 BYTE   Cn2  v048
 BYTE   W12
 BYTE   Gn2  v052
 BYTE   W12
 BYTE   N23  Ds1  v076
 BYTE   W24
//  #02 //040   ----------------------------------------
 BYTE   N22  Fs1  v080
 BYTE   N22  Cs2
 BYTE   N22  Fs2
 BYTE   W24
 BYTE   N11  Fs1  v084
 BYTE   N11  Fs2
 BYTE   W12
 BYTE   Fs1  v088
 BYTE   N11  Fs2
 BYTE   W12
 BYTE   Fs1
 BYTE   N11  Fs2
 BYTE   W12
 BYTE   Fs1  v092
 BYTE   N11  Fs2
 BYTE   W12
 BYTE   Fs1
 BYTE   N11  Fs2
 BYTE   W12
 BYTE   Fs1  v096
 BYTE   N11  Fs2
 BYTE   W12
//  #02 //041   ----------------------------------------
 BYTE   N22  Ds1  v100
 BYTE   N22  As1
 BYTE   N22  Ds2
 BYTE   W48
 BYTE   N44  Ds0  v104
 BYTE   W48
//  #02 //042   ----------------------------------------
 BYTE   N23  Gs0
 BYTE   N23  Gs1
 BYTE   W24
 BYTE   N11  Gs1  v064
 BYTE   W12
 BYTE   N22  Ds2  v060
 BYTE   N22  Gs2
 BYTE   W24
 BYTE   N11  Gs1
 BYTE   W12
 BYTE   Ds2
 BYTE   N11  Gs2
 BYTE   W12
 BYTE   Gs1
 BYTE   W12
//  #02 //043   ----------------------------------------
 BYTE   N23  Gs0  v080
 BYTE   N23  Gs1
 BYTE   W24
 BYTE   N11  Gs1  v060
 BYTE   W12
 BYTE   N22  Ds2
 BYTE   N22  Gs2
 BYTE   W24
 BYTE   N11  Gs1
 BYTE   W12
 BYTE   Ds2
 BYTE   N11  Gs2
 BYTE   W12
 BYTE   Gs1
 BYTE   W12
//  #02 //044   ----------------------------------------
Label_01A4BDFA:
 BYTE   N23  Fn0  v080
 BYTE   N23  Fn1
 BYTE   W24
 BYTE   N11  Fn1  v060
 BYTE   W12
 BYTE   N22  Cn2  v080
 BYTE   N22  Fn2
 BYTE   W24
 BYTE   N11  Fn1  v060
 BYTE   W12
 BYTE   Cn2  v080
 BYTE   N11  Fn2
 BYTE   W12
 BYTE   Fn1  v060
 BYTE   W12
 BYTE   PEND 
//  #02 //045   ----------------------------------------
 BYTE   PATT
  POIN2 Label_01A4BDFA
//  #02 //046   ----------------------------------------
Label_01A4BE1C:
 BYTE   N23  Cs0  v104
 BYTE   N23  Cs1
 BYTE   W24
 BYTE   N11  Cs1  v064
 BYTE   W12
 BYTE   N22  Gs1  v080
 BYTE   N22  Cs2
 BYTE   W24
 BYTE   N11  Cs1  v060
 BYTE   W12
 BYTE   Gs1  v080
 BYTE   N11  Cs2
 BYTE   W12
 BYTE   Cs1  v060
 BYTE   W12
 BYTE   PEND 
//  #02 //047   ----------------------------------------
 BYTE   N23  Cs0  v080
 BYTE   N23  Cs1
 BYTE   W24
 BYTE   N11  Cs1  v060
 BYTE   W12
 BYTE   N22  Gs1  v080
 BYTE   N22  Cs2
 BYTE   W24
 BYTE   N11  Cs1  v060
 BYTE   W12
 BYTE   Gs1  v080
 BYTE   N11  Cs2
 BYTE   W12
 BYTE   Cs1  v060
 BYTE   W12
//  #02 //048   ----------------------------------------
 BYTE   N22  Ds0  v080
 BYTE   N22  Ds1
 BYTE   W24
 BYTE   N11  Fs1  v060
 BYTE   W12
 BYTE   N22  Cs2  v080
 BYTE   N22  Fs2
 BYTE   W24
 BYTE   N11  Fs1  v060
 BYTE   W12
 BYTE   Cs2  v080
 BYTE   N11  Fs2
 BYTE   W12
 BYTE   Fs1  v060
 BYTE   W12
//  #02 //049   ----------------------------------------
 BYTE   N23  Gs0  v080
 BYTE   N23  Gs1
 BYTE   W24
 BYTE   N11  Gs1  v060
 BYTE   W12
 BYTE   N22  Ds2  v080
 BYTE   N22  Gs2
 BYTE   W24
 BYTE   N11  Gs1  v064
 BYTE   W12
 BYTE   Ds2  v092
 BYTE   N11  Gs2
 BYTE   W12
 BYTE   Gs1  v076
 BYTE   W12
//  #02 //050   ----------------------------------------
 BYTE   PATT
  POIN2 Label_01A4BE1C
//  #02 //051   ----------------------------------------
 BYTE   N23  Ds0  v080
 BYTE   N23  Ds1
 BYTE   W24
 BYTE   N11  Ds1  v060
 BYTE   W12
 BYTE   N22  As1  v080
 BYTE   N22  Ds2
 BYTE   W24
 BYTE   N11  Ds1  v060
 BYTE   W12
 BYTE   As1  v080
 BYTE   N11  Ds2
 BYTE   W12
 BYTE   Ds1  v060
 BYTE   W12
//  #02 //052   ----------------------------------------
 BYTE   N23  Cn0  v100
 BYTE   N23  Cn1
 BYTE   W24
 BYTE   N22  Cn1  v060
 BYTE   N22  Cn2
 BYTE   W24
 BYTE   N23  En0  v100
 BYTE   N23  En1
 BYTE   W24
 BYTE   N22  En1  v060
 BYTE   N22  En2
 BYTE   W24
//  #02 //053   ----------------------------------------
 BYTE   PATT
  POIN2 Label_01A4BDFA
//  #02 //054   ----------------------------------------
 BYTE   N23  As0  v104
 BYTE   N23  As1
 BYTE   W24
 BYTE   N11  As1  v064
 BYTE   W12
 BYTE   N22  Fn2  v080
 BYTE   N22  As2
 BYTE   W24
 BYTE   N11  As1  v060
 BYTE   W12
 BYTE   Fn2  v080
 BYTE   N11  As2
 BYTE   W12
 BYTE   As1  v060
 BYTE   W12
//  #02 //055   ----------------------------------------
 BYTE   N22  Ds1  v080
 BYTE   N22  Ds2
 BYTE   W24
 BYTE   N11  Ds3
 BYTE   W12
 BYTE   As2
 BYTE   W12
 BYTE   Gn2
 BYTE   W12
 BYTE   Ds2
 BYTE   W12
 BYTE   As1
 BYTE   W12
 BYTE   Gn1
 BYTE   W12
//  #02 //056   ----------------------------------------
 BYTE   N22  Ds1
 BYTE   N22  Ds2
 BYTE   W24
 BYTE   N07  Ds1
 BYTE   W08
 BYTE   Ds2
 BYTE   W08
 BYTE   As1
 BYTE   W08
 BYTE   Ds1
 BYTE   W08
 BYTE   Gn1
 BYTE   W08
 BYTE   As1
 BYTE   W08
 BYTE   Ds2
 BYTE   W08
 BYTE   As1
 BYTE   W08
 BYTE   Gn1
 BYTE   W08
//  #02 //057   ----------------------------------------
 BYTE   N05  Ds1
 BYTE   W06
 BYTE   Gn1
 BYTE   W06
 BYTE   As1
 BYTE   W06
 BYTE   Ds2
 BYTE   W06
 BYTE   Gn2
 BYTE   W06
 BYTE   As2
 BYTE   W06
 BYTE   Ds3
 BYTE   W06
 BYTE   As2
 BYTE   W06
 BYTE   Gn2
 BYTE   W06
 BYTE   Ds2
 BYTE   W06
 BYTE   As1
 BYTE   W06
 BYTE   Gn1
 BYTE   W06
 BYTE   Ds1
 BYTE   W06
 BYTE   As0
 BYTE   W06
 BYTE   Ds1
 BYTE   W06
 BYTE   As0
 BYTE   W06
//  #02 //058   ----------------------------------------
 BYTE   N92  Ds1
 BYTE   W04
 BYTE   N90  Gn1
 BYTE   W05
 BYTE   N84  As1
 BYTE   W04
 BYTE   N80  Ds2
 BYTE   W80
 BYTE   W03
//  #02 //059   ----------------------------------------
 BYTE   W84
 BYTE   GoTo
  POIN2 Label_01A4BC76
//  #02 //060   ----------------------------------------
 BYTE   W12
 BYTE   W96
//  #02 //061   ----------------------------------------
 BYTE   W96
//  #02 //062   ----------------------------------------
 BYTE   W96
//  #02 //063   ----------------------------------------
 BYTE   W96
//  #02 //064   ----------------------------------------
 BYTE   W96
//  #02 //065   ----------------------------------------
 BYTE   W96
//  #02 //066   ----------------------------------------
 BYTE   W96
//  #02 //067   ----------------------------------------
 BYTE   W96
//  #02 //068   ----------------------------------------
 BYTE   W96
//  #02 //069   ----------------------------------------
 BYTE   W96
//  #02 //070   ----------------------------------------
 BYTE   W96
//  #02 //071   ----------------------------------------
 BYTE   W96
//  #02 //072   ----------------------------------------
 BYTE   W96
//  #02 //073   ----------------------------------------
 BYTE   W96
//  #02 //074   ----------------------------------------
 BYTE   W96
//  #02 //075   ----------------------------------------
 BYTE   W96
//  #02 //076   ----------------------------------------
 BYTE   W96
//  #02 //077   ----------------------------------------
 BYTE   W96
//  #02 //078   ----------------------------------------
 BYTE   W96
//  #02 //079   ----------------------------------------
 BYTE   W96
//  #02 //080   ----------------------------------------
 BYTE   W96
//  #02 //081   ----------------------------------------
 BYTE   W96
//  #02 //082   ----------------------------------------
 BYTE   W96
//  #02 //083   ----------------------------------------
 BYTE   W96
//  #02 //084   ----------------------------------------
 BYTE   W96
//  #02 //085   ----------------------------------------
 BYTE   W96
//  #02 //086   ----------------------------------------
 BYTE   W96
//  #02 //087   ----------------------------------------
 BYTE   W96
//  #02 //088   ----------------------------------------
 BYTE   W96
//  #02 //089   ----------------------------------------
 BYTE   W96
//  #02 //090   ----------------------------------------
 BYTE   W96
//  #02 //091   ----------------------------------------
 BYTE   W96
//  #02 //092   ----------------------------------------
 BYTE   W96
//  #02 //093   ----------------------------------------
 BYTE   W96
//  #02 //094   ----------------------------------------
 BYTE   W96
//  #02 //095   ----------------------------------------
 BYTE   W96
//  #02 //096   ----------------------------------------
 BYTE   W96
//  #02 //097   ----------------------------------------
 BYTE   W96
//  #02 //098   ----------------------------------------
 BYTE   W96
//  #02 //099   ----------------------------------------
 BYTE   W96
//  #02 //100   ----------------------------------------
 BYTE   W96
//  #02 //101   ----------------------------------------
 BYTE   W96
//  #02 //102   ----------------------------------------
 BYTE   W96
//  #02 //103   ----------------------------------------
 BYTE   W96
//  #02 //104   ----------------------------------------
 BYTE   W96
//  #02 //105   ----------------------------------------
 BYTE   W96
//  #02 //106   ----------------------------------------
 BYTE   W96
//  #02 //107   ----------------------------------------
 BYTE   W96
//  #02 //108   ----------------------------------------
 BYTE   W96
//  #02 //109   ----------------------------------------
 BYTE   W96
//  #02 //110   ----------------------------------------
 BYTE   W96
//  #02 //111   ----------------------------------------
 BYTE   W96
//  #02 //112   ----------------------------------------
 BYTE   W96
//  #02 //113   ----------------------------------------
 BYTE   W96
//  #02 //114   ----------------------------------------
 BYTE   W96
//  #02 //115   ----------------------------------------
 BYTE   W96
//  #02 //116   ----------------------------------------
 BYTE   W96
//  #02 //117   ----------------------------------------
 BYTE   W96
//  #02 //118   ----------------------------------------
 BYTE   W96
//  #02 //119   ----------------------------------------
 BYTE   W96
//  #02 //120   ----------------------------------------
 BYTE   W96
//  #02 //121   ----------------------------------------
 BYTE   W96
//  #02 //122   ----------------------------------------
 BYTE   W96
//  #02 //123   ----------------------------------------
 BYTE   W96
//  #02 //124   ----------------------------------------
 BYTE   W96
//  #02 //125   ----------------------------------------
 BYTE   W96
//  #02 //126   ----------------------------------------
 BYTE   W96
//  #02 //127   ----------------------------------------
 BYTE   W96
//  #02 //128   ----------------------------------------
 BYTE   W96
//  #02 //129   ----------------------------------------
 BYTE   W96
//  #02 //130   ----------------------------------------
 BYTE   W96
//  #02 //131   ----------------------------------------
 BYTE   W96
//  #02 //132   ----------------------------------------
 BYTE   W96
//  #02 //133   ----------------------------------------
 BYTE   W96
//  #02 //134   ----------------------------------------
 BYTE   W96
//  #02 //135   ----------------------------------------
 BYTE   W96
//  #02 //136   ----------------------------------------
 BYTE   W96
//  #02 //137   ----------------------------------------
 BYTE   W96
//  #02 //138   ----------------------------------------
 BYTE   W96
//  #02 //139   ----------------------------------------
 BYTE   W96
//  #02 //140   ----------------------------------------
 BYTE   W96
//  #02 //141   ----------------------------------------
 BYTE   W96
//  #02 //142   ----------------------------------------
 BYTE   W96
//  #02 //143   ----------------------------------------
 BYTE   W96
//  #02 //144   ----------------------------------------
 BYTE   W96
//  #02 //145   ----------------------------------------
 BYTE   W96
//  #02 //146   ----------------------------------------
 BYTE   W96
//  #02 //147   ----------------------------------------
 BYTE   W96
//  #02 //148   ----------------------------------------
 BYTE   W96
//  #02 //149   ----------------------------------------
 BYTE   W96
//  #02 //150   ----------------------------------------
 BYTE   W48
 BYTE   W96
//  #02 //151   ----------------------------------------
 BYTE   W96
//  #02 //152   ----------------------------------------
 BYTE   W96
//  #02 //153   ----------------------------------------
 BYTE   W96
//  #02 //154   ----------------------------------------
 BYTE   W96
//  #02 //155   ----------------------------------------
 BYTE   W96
//  #02 //156   ----------------------------------------
 BYTE   W96
//  #02 //157   ----------------------------------------
 BYTE   W96
//  #02 //158   ----------------------------------------
 BYTE   W96
//  #02 //159   ----------------------------------------
 BYTE   W96
//  #02 //160   ----------------------------------------
 BYTE   W96
//  #02 //161   ----------------------------------------
 BYTE   W96
//  #02 //162   ----------------------------------------
 BYTE   W96
//  #02 //163   ----------------------------------------
 BYTE   W96
//  #02 //164   ----------------------------------------
 BYTE   W96
//  #02 //165   ----------------------------------------
 BYTE   W96
//  #02 //166   ----------------------------------------
 BYTE   W96
//  #02 //167   ----------------------------------------
 BYTE   W96
//  #02 //168   ----------------------------------------
 BYTE   W96
//  #02 //169   ----------------------------------------
 BYTE   W96
//  #02 //170   ----------------------------------------
 BYTE   W96
//  #02 //171   ----------------------------------------
 BYTE   W96
//  #02 //172   ----------------------------------------
 BYTE   W96
//  #02 //173   ----------------------------------------
 BYTE   W96
//  #02 //174   ----------------------------------------
 BYTE   W96
//  #02 //175   ----------------------------------------
 BYTE   W96
//  #02 //176   ----------------------------------------
 BYTE   W96
//  #02 //177   ----------------------------------------
 BYTE   W96
//  #02 //178   ----------------------------------------
 BYTE   W96
//  #02 //179   ----------------------------------------
 BYTE   W96
//  #02 //180   ----------------------------------------
 BYTE   W96
//  #02 //181   ----------------------------------------
 BYTE   W96
//  #02 //182   ----------------------------------------
 BYTE   W96
//  #02 //183   ----------------------------------------
 BYTE   W96
//  #02 //184   ----------------------------------------
 BYTE   W96
//  #02 //185   ----------------------------------------
 BYTE   W48
 BYTE   FINE

//**************** Track 3 (Midi-Chn.2) ****************//

CaesuraofDespair_003:
//  #03 //000   ----------------------------------------
 BYTE   KEYSH   CaesuraofDespair_key+0
 BYTE   VOICE   46
 BYTE   MODT 0
 BYTE   LFOS 44
 BYTE   PAN   c_v+0
 BYTE   VOL   53*CaesuraofDespair_mvl/mxv
 BYTE   W48
 BYTE   N17  Gs5  v076
 BYTE   W18
 BYTE   As5
 BYTE   W18
 BYTE   N11  Cn6
 BYTE   W12
//  #03 //001   ----------------------------------------
 BYTE   N32  Cs5
 BYTE   N32  Cn6
 BYTE   W36
 BYTE   Fn5
 BYTE   W36
 BYTE   N68  Ds5
 BYTE   N68  As5
 BYTE   W24
//  #03 //002   ----------------------------------------
 BYTE   W48
 BYTE   N22  Ds5
 BYTE   N22  Gn5
 BYTE   W24
 BYTE   Gs5
 BYTE   W24
//  #03 //003   ----------------------------------------
 BYTE   N32  Cn5
 BYTE   N32  As5
 BYTE   W36
 BYTE   Cn6
 BYTE   W36
 BYTE   N68  Fn5
 BYTE   N68  Gs5
 BYTE   W24
//  #03 //004   ----------------------------------------
 BYTE   W48
 BYTE   N22  Fn5
 BYTE   W24
 BYTE   Gs5
 BYTE   W24
//  #03 //005   ----------------------------------------
 BYTE   Fn4
 BYTE   N22  Fn5
 BYTE   W24
 BYTE   Cs5  v080
 BYTE   N22  Cs6
 BYTE   W24
 BYTE   Cn5
 BYTE   N22  Cn6
 BYTE   W24
 BYTE   N44  As4  v084
 BYTE   N44  As5
 BYTE   W24
//  #03 //006   ----------------------------------------
 BYTE   W24
 BYTE   Gs4  v092
 BYTE   N44  Gs5
 BYTE   W48
 BYTE   N11  Gn4  v100
 BYTE   N11  Gn5
 BYTE   W12
 BYTE   N78  As4
 BYTE   N78  As5
 BYTE   W12
//  #03 //007   ----------------------------------------
 BYTE   W72
 BYTE   N11  Gs4
 BYTE   N11  Gs5
 BYTE   W12
 BYTE   N78  Gs4
 BYTE   N78  Gs5
 BYTE   W12
//  #03 //008   ----------------------------------------
 BYTE   W72
 BYTE   N07  Gs3  v028
 BYTE   W08
 BYTE   Cn4
 BYTE   W08
 BYTE   Ds4
 BYTE   W08
//  #03 //009   ----------------------------------------
 BYTE   Gs4  v032
 BYTE   W08
 BYTE   Cn5  v036
 BYTE   W08
 BYTE   Ds5  v044
 BYTE   W08
 BYTE   Gs5  v048
 BYTE   W08
 BYTE   Cn6  v052
 BYTE   W08
 BYTE   Ds6  v060
 BYTE   W08
 BYTE   N01  Gn6  v064
 BYTE   W01
 BYTE   Fn6  v068
 BYTE   W02
 BYTE   En6
 BYTE   W02
 BYTE   Dn6
 BYTE   W02
 BYTE   Cn6  v072
 BYTE   W02
 BYTE   Bn5
 BYTE   W02
 BYTE   An5
 BYTE   W02
 BYTE   Gn5  v076
 BYTE   W02
 BYTE   Fn5
 BYTE   W02
 BYTE   En5  v080
 BYTE   W02
 BYTE   Dn5
 BYTE   W02
 BYTE   Cn5
 BYTE   W02
 BYTE   Bn4  v084
 BYTE   W02
 BYTE   An4
 BYTE   W02
 BYTE   Gn4  v088
 BYTE   W02
 BYTE   Fn4
 BYTE   W02
 BYTE   En4
 BYTE   W02
 BYTE   Dn4  v092
 BYTE   W02
 BYTE   Cn4
 BYTE   W02
 BYTE   Bn3  v096
 BYTE   W02
 BYTE   An3
 BYTE   W03
 BYTE   N05  Gn3  v100
 BYTE   W06
//  #03 //010   ----------------------------------------
 BYTE   N22  Cn5  v104
 BYTE   N22  Ds5
 BYTE   N22  As5
 BYTE   W24
 BYTE   N11  Gs5  v084
 BYTE   W12
 BYTE   Ds5  v080
 BYTE   W12
 BYTE   As5
 BYTE   W12
 BYTE   Ds5
 BYTE   W12
 BYTE   Gs5
 BYTE   W12
 BYTE   Ds5
 BYTE   W12
//  #03 //011   ----------------------------------------
 BYTE   N22  Cs5
 BYTE   N22  Ds5
 BYTE   N22  As5
 BYTE   W24
 BYTE   N11  Gs5
 BYTE   W12
 BYTE   As4
 BYTE   W12
 BYTE   As5
 BYTE   W12
 BYTE   Ds5
 BYTE   W12
 BYTE   Gn5
 BYTE   W12
 BYTE   Ds5
 BYTE   W12
//  #03 //012   ----------------------------------------
 BYTE   Gs5
 BYTE   W12
 BYTE   Gs4
 BYTE   W12
 BYTE   As4
 BYTE   W12
 BYTE   Ds5
 BYTE   W12
 BYTE   Cn5
 BYTE   W12
 BYTE   Ds5
 BYTE   W12
 BYTE   Cs5
 BYTE   W12
 BYTE   Ds5
 BYTE   W12
//  #03 //013   ----------------------------------------
 BYTE   Cs6
 BYTE   W12
 BYTE   Ds5
 BYTE   W12
 BYTE   Cn6
 BYTE   W12
 BYTE   Ds5
 BYTE   W12
 BYTE   As5
 BYTE   W12
 BYTE   Ds5
 BYTE   W12
 BYTE   Gn5
 BYTE   W12
 BYTE   Ds5
 BYTE   W12
//  #03 //014   ----------------------------------------
 BYTE   N11
 BYTE   N11  Ds6
 BYTE   W12
 BYTE   Gs5
 BYTE   W12
 BYTE   As5
 BYTE   W12
 BYTE   N22  Gs5
 BYTE   W24
 BYTE   N11  Ds5
 BYTE   W12
 BYTE   Gn5
 BYTE   W12
 BYTE   Gs5
 BYTE   W12
//  #03 //015   ----------------------------------------
 BYTE   Ds5
 BYTE   N11  Ds6
 BYTE   W12
 BYTE   Gs5
 BYTE   W12
 BYTE   As5
 BYTE   W12
 BYTE   N22  Ds5
 BYTE   W24
 BYTE   N11  Gn5
 BYTE   W12
 BYTE   Gs5
 BYTE   W12
 BYTE   Ds6
 BYTE   W12
//  #03 //016   ----------------------------------------
 BYTE   N32  En5
 BYTE   N32  Gs5
 BYTE   N32  En6
 BYTE   W36
 BYTE   En5
 BYTE   N32  Gs5
 BYTE   N32  Ds6
 BYTE   W36
 BYTE   N22  En5
 BYTE   N22  Gs5
 BYTE   N22  Cs6
 BYTE   W24
//  #03 //017   ----------------------------------------
 BYTE   N11  Ds5
 BYTE   N11  Gs5
 BYTE   N11  Ds6
 BYTE   W12
 BYTE   Gn5  v076
 BYTE   W12
 BYTE   Ds5
 BYTE   W12
 BYTE   As4  v072
 BYTE   W12
 BYTE   Gs4  v068
 BYTE   W12
 BYTE   Gn4
 BYTE   W12
 BYTE   Ds4  v064
 BYTE   W12
Label_01A4B850:
 BYTE   N11  Ds4  v064
 BYTE   W12
//  #03 //018   ----------------------------------------
Label_01A4B854:
 BYTE   N22  Gs4  v060
 BYTE   N22  Ds5
 BYTE   W24
 BYTE   N11  Cs5
 BYTE   W12
 BYTE   N22
 BYTE   W24
 BYTE   Cn5
 BYTE   W24
 BYTE   As4
 BYTE   W12
 BYTE   PEND 
//  #03 //019   ----------------------------------------
Label_01A4B864:
 BYTE   W12
 BYTE   N22  Gs4  v060
 BYTE   W24
 BYTE   As4
 BYTE   W24
 BYTE   Cn5
 BYTE   W24
 BYTE   N32  As4
 BYTE   W12
 BYTE   PEND 
//  #03 //020   ----------------------------------------
 BYTE   W24
 BYTE   N11  Gs4
 BYTE   W12
 BYTE   N22  As4
 BYTE   W24
 BYTE   Cn5
 BYTE   W24
 BYTE   N56  Gn4
 BYTE   N56  As4
 BYTE   W12
//  #03 //021   ----------------------------------------
 BYTE   W84
 BYTE   N11  Ds4
 BYTE   W12
//  #03 //022   ----------------------------------------
 BYTE   PATT
  POIN2 Label_01A4B854
//  #03 //023   ----------------------------------------
 BYTE   PATT
  POIN2 Label_01A4B864
//  #03 //024   ----------------------------------------
 BYTE   W24
 BYTE   N11  Gs4  v060
 BYTE   W12
 BYTE   N22  As4
 BYTE   W24
 BYTE   Cn5
 BYTE   W24
 BYTE   N32  Gs4
 BYTE   W12
//  #03 //025   ----------------------------------------
 BYTE   W48
 BYTE   N11
 BYTE   W12
 BYTE   As4
 BYTE   W12
 BYTE   N22  Cn5
 BYTE   W24
//  #03 //026   ----------------------------------------
 BYTE   N32  As4
 BYTE   W36
 BYTE   Gs4
 BYTE   W36
 BYTE   N44  As4
 BYTE   W24
//  #03 //027   ----------------------------------------
 BYTE   W48
 BYTE   N22  Gs4
 BYTE   W24
 BYTE   Ds5
 BYTE   W24
//  #03 //028   ----------------------------------------
 BYTE   N32  Gn4
 BYTE   W36
 BYTE   As4
 BYTE   W36
 BYTE   N44  Gs4
 BYTE   W24
//  #03 //029   ----------------------------------------
 BYTE   N22  As3
 BYTE   W48
 BYTE   Gs3
 BYTE   W24
 BYTE   Gs4  v080
 BYTE   W24
//  #03 //030   ----------------------------------------
 BYTE   Ds5
 BYTE   W24
 BYTE   Cs5
 BYTE   W24
 BYTE   Cn5
 BYTE   W24
 BYTE   N44  As4
 BYTE   W24
//  #03 //031   ----------------------------------------
 BYTE   W24
 BYTE   Gs4
 BYTE   W48
 BYTE   N44
 BYTE   W24
//  #03 //032   ----------------------------------------
 BYTE   W24
 BYTE   N11  Cn4  v028
 BYTE   N11  Ds4
 BYTE   N11  Gs4
 BYTE   W12
 BYTE   Cn4
 BYTE   N11  Gs4
 BYTE   W12
 BYTE   Cn4  v036
 BYTE   N11  Gs4
 BYTE   W12
 BYTE   Cn4  v044
 BYTE   N11  Gs4
 BYTE   W12
 BYTE   Cn4  v056
 BYTE   N11  Gs4
 BYTE   W12
 BYTE   Cn4  v068
 BYTE   N11  Gs4
 BYTE   W12
//  #03 //033   ----------------------------------------
 BYTE   N44  Cn4  v080
 BYTE   N44  Gs4
 BYTE   W48
 BYTE   N22  Cn4
 BYTE   N22  Ds4
 BYTE   W36
 BYTE   N11  Gs4  v092
 BYTE   W12
//  #03 //034   ----------------------------------------
 BYTE   N22
 BYTE   W24
 BYTE   N11  Cn5  v088
 BYTE   N11  Gn5
 BYTE   W12
 BYTE   N22  Cs5
 BYTE   N22  Gs5
 BYTE   W24
 BYTE   As4
 BYTE   N22  Gn5
 BYTE   W24
 BYTE   N56  Cn5
 BYTE   N56  Ds5
 BYTE   W12
//  #03 //035   ----------------------------------------
 BYTE   W48
 BYTE   N11  Cn5
 BYTE   N11  Cn6
 BYTE   W12
 BYTE   Cs5
 BYTE   N11  Cs6
 BYTE   W12
 BYTE   Ds5
 BYTE   N11  Ds6
 BYTE   W12
 BYTE   N32  Ds5
 BYTE   N32  Ds6
 BYTE   W12
//  #03 //036   ----------------------------------------
 BYTE   W24
 BYTE   N11  Fn5
 BYTE   N11  Fn6
 BYTE   W12
 BYTE   N22  Cs5
 BYTE   N22  Cs6
 BYTE   W24
 BYTE   Cn5
 BYTE   N22  Cn6
 BYTE   W24
 BYTE   N44  As4
 BYTE   N44  As5
 BYTE   W12
//  #03 //037   ----------------------------------------
 BYTE   W36
 BYTE   N05  Cn5
 BYTE   N05  Cn6
 BYTE   W06
 BYTE   As4
 BYTE   N05  As5
 BYTE   W06
 BYTE   N22  Gs4
 BYTE   N22  Gs5
 BYTE   W36
 BYTE   N11  Gs4
 BYTE   W12
//  #03 //038   ----------------------------------------
 BYTE   N22
 BYTE   W24
 BYTE   N11  Cn5
 BYTE   N11  Gn5
 BYTE   W12
 BYTE   N22  Cs5
 BYTE   N22  Gs5
 BYTE   W24
 BYTE   As4
 BYTE   N22  Gn5
 BYTE   W24
 BYTE   N56  Cn5
 BYTE   N56  Ds5
 BYTE   W12
//  #03 //039   ----------------------------------------
 BYTE   W48
 BYTE   N11  Ds4
 BYTE   N11  Ds5
 BYTE   W12
 BYTE   Gn4
 BYTE   N11  Gn5
 BYTE   W12
 BYTE   Gs4  v092
 BYTE   N11  Gs5
 BYTE   W12
 BYTE   N32  As4  v096
 BYTE   N32  As5
 BYTE   W12
//  #03 //040   ----------------------------------------
 BYTE   W24
 BYTE   N11  Gs4  v104
 BYTE   N11  Gs5
 BYTE   W12
 BYTE   N22  Ds4  v108
 BYTE   N22  Ds5
 BYTE   W24
 BYTE   Gs4  v112
 BYTE   N22  Gs5
 BYTE   W24
 BYTE   N32  As4  v120
 BYTE   N32  As5
 BYTE   W12
//  #03 //041   ----------------------------------------
 BYTE   W48
 BYTE   N22  Ds4  v104
 BYTE   N22  Ds5
 BYTE   W24
 BYTE   Gs4
 BYTE   N22  Gs5
 BYTE   W24
//  #03 //042   ----------------------------------------
 BYTE   N32  As4
 BYTE   N32  As5
 BYTE   W36
 BYTE   N44  Gs4  v100
 BYTE   N44  Gs5
 BYTE   W48
 BYTE   N11  Cn4
 BYTE   N11  Cn5
 BYTE   W12
//  #03 //043   ----------------------------------------
Label_01A4B9AA:
 BYTE   N22  Cn4  v100
 BYTE   N22  Cn5
 BYTE   W24
 BYTE   Cs4
 BYTE   N22  Cs5
 BYTE   W24
 BYTE   Ds4
 BYTE   N22  Ds5
 BYTE   W24
 BYTE   Gs4
 BYTE   N22  Gs5
 BYTE   W24
 BYTE   PEND 
//  #03 //044   ----------------------------------------
 BYTE   N32  As4
 BYTE   N32  As5
 BYTE   W36
 BYTE   N11  Gs4
 BYTE   N11  Gs5
 BYTE   W12
 BYTE   N32  Gs4
 BYTE   N32  Gs5
 BYTE   W36
 BYTE   N11  As4
 BYTE   N11  As5
 BYTE   W12
//  #03 //045   ----------------------------------------
 BYTE   N22  Cn5
 BYTE   N22  Cn6
 BYTE   W48
 BYTE   Ds4
 BYTE   N22  Ds5
 BYTE   W24
 BYTE   Gs4
 BYTE   N22  Gs5
 BYTE   W24
//  #03 //046   ----------------------------------------
 BYTE   N32  As4  v127
 BYTE   N32  As5
 BYTE   W36
 BYTE   N11  Gs4  v100
 BYTE   N11  Gs5
 BYTE   W12
 BYTE   N32  Gs4
 BYTE   N32  Gs5
 BYTE   W36
 BYTE   N11  Cn4
 BYTE   N11  Cn5
 BYTE   W12
//  #03 //047   ----------------------------------------
 BYTE   PATT
  POIN2 Label_01A4B9AA
//  #03 //048   ----------------------------------------
 BYTE   N32  As4  v100
 BYTE   N32  As5
 BYTE   W36
 BYTE   N11  Gs4
 BYTE   N11  Gs5
 BYTE   W12
 BYTE   N32  Gs4
 BYTE   N32  Gs5
 BYTE   W36
 BYTE   N11  Ds5
 BYTE   N11  Ds6
 BYTE   W12
//  #03 //049   ----------------------------------------
 BYTE   N22  Gs4
 BYTE   N22  Gs5
 BYTE   W48
 BYTE   N17  Gs4
 BYTE   N17  Gs5
 BYTE   W18
 BYTE   As4  v108
 BYTE   N17  As5
 BYTE   W18
 BYTE   N11  Cn5  v120
 BYTE   N11  Cn6
 BYTE   W12
//  #03 //050   ----------------------------------------
 BYTE   N32  Cn5  v127
 BYTE   N32  Cn6
 BYTE   W36
 BYTE   Fn4  v100
 BYTE   N32  Fn5
 BYTE   W36
 BYTE   N44  As4
 BYTE   N44  As5
 BYTE   W24
//  #03 //051   ----------------------------------------
 BYTE   W48
 BYTE   N22  Gn4
 BYTE   N22  Gn5
 BYTE   W24
 BYTE   Gs4
 BYTE   N22  Gs5
 BYTE   W24
//  #03 //052   ----------------------------------------
 BYTE   N32  As4
 BYTE   N32  As5
 BYTE   W36
 BYTE   Cn5
 BYTE   N32  Cn6
 BYTE   W36
 BYTE   N44  Gs4
 BYTE   N44  Gs5
 BYTE   W24
//  #03 //053   ----------------------------------------
 BYTE   W48
 BYTE   N22  Fn4
 BYTE   N22  Fn5
 BYTE   W24
 BYTE   Gs4
 BYTE   N22  Gs5
 BYTE   W24
//  #03 //054   ----------------------------------------
 BYTE   Fn4  v127
 BYTE   N22  Fn5
 BYTE   W24
 BYTE   Cs5  v104
 BYTE   N22  Cs6
 BYTE   W24
 BYTE   Cn5  v100
 BYTE   N22  Cn6
 BYTE   W24
 BYTE   N44  As4
 BYTE   N44  As5
 BYTE   W24
//  #03 //055   ----------------------------------------
 BYTE   W24
 BYTE   Gs4
 BYTE   N44  Gs5
 BYTE   W48
 BYTE   Gs4
 BYTE   N44  Gs5
 BYTE   W24
//  #03 //056   ----------------------------------------
 BYTE   W24
 BYTE   Gn4
 BYTE   N44  Gn5
 BYTE   W48
 BYTE   Gn4
 BYTE   N44  Gn5
 BYTE   W24
//  #03 //057   ----------------------------------------
 BYTE   W24
 BYTE   N22  Gs4
 BYTE   N22  Gs5
 BYTE   W24
 BYTE   N44  Gs4
 BYTE   N44  Gs5
 BYTE   W48
//  #03 //058   ----------------------------------------
 BYTE   W96
//  #03 //059   ----------------------------------------
 BYTE   Gs5  v048
 BYTE   W04
 BYTE   N42  As5
 BYTE   W05
 BYTE   N36  Ds6
 BYTE   W72
 BYTE   W03
 BYTE   GoTo
  POIN2 Label_01A4B850
//  #03 //060   ----------------------------------------
 BYTE   N11  Gs4  v100
 BYTE   W12
 BYTE   W96
//  #03 //061   ----------------------------------------
 BYTE   W96
//  #03 //062   ----------------------------------------
 BYTE   W96
//  #03 //063   ----------------------------------------
 BYTE   W96
//  #03 //064   ----------------------------------------
 BYTE   W96
//  #03 //065   ----------------------------------------
 BYTE   W96
//  #03 //066   ----------------------------------------
 BYTE   W96
//  #03 //067   ----------------------------------------
 BYTE   W96
//  #03 //068   ----------------------------------------
 BYTE   W96
//  #03 //069   ----------------------------------------
 BYTE   W96
//  #03 //070   ----------------------------------------
 BYTE   W96
//  #03 //071   ----------------------------------------
 BYTE   W96
//  #03 //072   ----------------------------------------
 BYTE   W96
//  #03 //073   ----------------------------------------
 BYTE   W96
//  #03 //074   ----------------------------------------
 BYTE   W96
//  #03 //075   ----------------------------------------
 BYTE   W96
//  #03 //076   ----------------------------------------
 BYTE   W96
//  #03 //077   ----------------------------------------
 BYTE   W96
//  #03 //078   ----------------------------------------
 BYTE   W96
//  #03 //079   ----------------------------------------
 BYTE   W96
//  #03 //080   ----------------------------------------
 BYTE   W96
//  #03 //081   ----------------------------------------
 BYTE   W96
//  #03 //082   ----------------------------------------
 BYTE   W96
//  #03 //083   ----------------------------------------
 BYTE   W96
//  #03 //084   ----------------------------------------
 BYTE   W96
//  #03 //085   ----------------------------------------
 BYTE   W96
//  #03 //086   ----------------------------------------
 BYTE   W96
//  #03 //087   ----------------------------------------
 BYTE   W96
//  #03 //088   ----------------------------------------
 BYTE   W96
//  #03 //089   ----------------------------------------
 BYTE   W96
//  #03 //090   ----------------------------------------
 BYTE   W96
//  #03 //091   ----------------------------------------
 BYTE   W96
//  #03 //092   ----------------------------------------
 BYTE   W96
//  #03 //093   ----------------------------------------
 BYTE   W96
//  #03 //094   ----------------------------------------
 BYTE   W96
//  #03 //095   ----------------------------------------
 BYTE   W96
//  #03 //096   ----------------------------------------
 BYTE   W96
//  #03 //097   ----------------------------------------
 BYTE   W96
//  #03 //098   ----------------------------------------
 BYTE   W96
//  #03 //099   ----------------------------------------
 BYTE   W96
//  #03 //100   ----------------------------------------
 BYTE   W96
//  #03 //101   ----------------------------------------
 BYTE   W96
//  #03 //102   ----------------------------------------
 BYTE   W96
//  #03 //103   ----------------------------------------
 BYTE   W96
//  #03 //104   ----------------------------------------
 BYTE   W96
//  #03 //105   ----------------------------------------
 BYTE   W96
//  #03 //106   ----------------------------------------
 BYTE   W96
//  #03 //107   ----------------------------------------
 BYTE   W96
//  #03 //108   ----------------------------------------
 BYTE   W96
//  #03 //109   ----------------------------------------
 BYTE   W96
//  #03 //110   ----------------------------------------
 BYTE   W96
//  #03 //111   ----------------------------------------
 BYTE   W96
//  #03 //112   ----------------------------------------
 BYTE   W96
//  #03 //113   ----------------------------------------
 BYTE   W96
//  #03 //114   ----------------------------------------
 BYTE   W96
//  #03 //115   ----------------------------------------
 BYTE   W96
//  #03 //116   ----------------------------------------
 BYTE   W96
//  #03 //117   ----------------------------------------
 BYTE   W96
//  #03 //118   ----------------------------------------
 BYTE   W96
//  #03 //119   ----------------------------------------
 BYTE   W96
//  #03 //120   ----------------------------------------
 BYTE   W96
//  #03 //121   ----------------------------------------
 BYTE   W96
//  #03 //122   ----------------------------------------
 BYTE   W96
//  #03 //123   ----------------------------------------
 BYTE   W96
//  #03 //124   ----------------------------------------
 BYTE   W96
//  #03 //125   ----------------------------------------
 BYTE   W96
//  #03 //126   ----------------------------------------
 BYTE   W96
//  #03 //127   ----------------------------------------
 BYTE   W96
//  #03 //128   ----------------------------------------
 BYTE   W96
//  #03 //129   ----------------------------------------
 BYTE   W96
//  #03 //130   ----------------------------------------
 BYTE   W96
//  #03 //131   ----------------------------------------
 BYTE   W96
//  #03 //132   ----------------------------------------
 BYTE   W96
//  #03 //133   ----------------------------------------
 BYTE   W96
//  #03 //134   ----------------------------------------
 BYTE   W96
//  #03 //135   ----------------------------------------
 BYTE   W96
//  #03 //136   ----------------------------------------
 BYTE   W96
//  #03 //137   ----------------------------------------
 BYTE   W96
//  #03 //138   ----------------------------------------
 BYTE   W96
//  #03 //139   ----------------------------------------
 BYTE   W96
//  #03 //140   ----------------------------------------
 BYTE   W96
//  #03 //141   ----------------------------------------
 BYTE   W96
//  #03 //142   ----------------------------------------
 BYTE   W96
//  #03 //143   ----------------------------------------
 BYTE   W96
//  #03 //144   ----------------------------------------
 BYTE   W96
//  #03 //145   ----------------------------------------
 BYTE   W96
//  #03 //146   ----------------------------------------
 BYTE   W96
//  #03 //147   ----------------------------------------
 BYTE   W96
//  #03 //148   ----------------------------------------
 BYTE   W96
//  #03 //149   ----------------------------------------
 BYTE   W96
//  #03 //150   ----------------------------------------
 BYTE   W48
 BYTE   W96
//  #03 //151   ----------------------------------------
 BYTE   W96
//  #03 //152   ----------------------------------------
 BYTE   W96
//  #03 //153   ----------------------------------------
 BYTE   W96
//  #03 //154   ----------------------------------------
 BYTE   W96
//  #03 //155   ----------------------------------------
 BYTE   W96
//  #03 //156   ----------------------------------------
 BYTE   W96
//  #03 //157   ----------------------------------------
 BYTE   W96
//  #03 //158   ----------------------------------------
 BYTE   W96
//  #03 //159   ----------------------------------------
 BYTE   W96
//  #03 //160   ----------------------------------------
 BYTE   W96
//  #03 //161   ----------------------------------------
 BYTE   W96
//  #03 //162   ----------------------------------------
 BYTE   W96
//  #03 //163   ----------------------------------------
 BYTE   W96
//  #03 //164   ----------------------------------------
 BYTE   W96
//  #03 //165   ----------------------------------------
 BYTE   W96
//  #03 //166   ----------------------------------------
 BYTE   W96
//  #03 //167   ----------------------------------------
 BYTE   W96
//  #03 //168   ----------------------------------------
 BYTE   W96
//  #03 //169   ----------------------------------------
 BYTE   W96
//  #03 //170   ----------------------------------------
 BYTE   W96
//  #03 //171   ----------------------------------------
 BYTE   W96
//  #03 //172   ----------------------------------------
 BYTE   W96
//  #03 //173   ----------------------------------------
 BYTE   W96
//  #03 //174   ----------------------------------------
 BYTE   W96
//  #03 //175   ----------------------------------------
 BYTE   W96
//  #03 //176   ----------------------------------------
 BYTE   W96
//  #03 //177   ----------------------------------------
 BYTE   W96
//  #03 //178   ----------------------------------------
 BYTE   W96
//  #03 //179   ----------------------------------------
 BYTE   W96
//  #03 //180   ----------------------------------------
 BYTE   W96
//  #03 //181   ----------------------------------------
 BYTE   W96
//  #03 //182   ----------------------------------------
 BYTE   W96
//  #03 //183   ----------------------------------------
 BYTE   W96
//  #03 //184   ----------------------------------------
 BYTE   W96
//  #03 //185   ----------------------------------------
 BYTE   W48
 BYTE   FINE

//**************** Track 4 (Midi-Chn.3) ****************//

CaesuraofDespair_004:
//  #04 //000   ----------------------------------------
 BYTE   VOL   80*CaesuraofDespair_mvl/mxv
 BYTE   KEYSH   CaesuraofDespair_key+0
 BYTE   VOICE   36
 BYTE   MODT 0
 BYTE   LFOS 44
 BYTE   W96
//  #04 //001   ----------------------------------------
 BYTE   N90  Cs3  v060
 BYTE   N11  Cn4  v036
 BYTE   W12
 BYTE   Gs3
 BYTE   W12
 BYTE   Ds3
 BYTE   W12
 BYTE   Cn4
 BYTE   W12
 BYTE   Gs3
 BYTE   W12
 BYTE   Ds3
 BYTE   W12
 BYTE   Cn4
 BYTE   W12
 BYTE   Gs3
 BYTE   W12
//  #04 //002   ----------------------------------------
 BYTE   N36  Ds3  v060
 BYTE   W12
 BYTE   N11  As3  v036
 BYTE   W12
 BYTE   Gs3
 BYTE   W12
 BYTE   N36  Ds3
 BYTE   W12
 BYTE   N11  As3
 BYTE   W12
 BYTE   Gs3
 BYTE   W12
 BYTE   N19  Ds3
 BYTE   W12
 BYTE   N11  Gs3
 BYTE   W12
//  #04 //003   ----------------------------------------
 BYTE   N44  Cn3  v060
 BYTE   N11  Ds4  v036
 BYTE   W12
 BYTE   Gs3
 BYTE   W12
 BYTE   Ds3
 BYTE   W12
 BYTE   Ds4
 BYTE   W12
 BYTE   Gs3
 BYTE   W12
 BYTE   N32  En3
 BYTE   W12
 BYTE   N11  Gs4
 BYTE   W12
 BYTE   En4
 BYTE   W12
//  #04 //004   ----------------------------------------
 BYTE   N90  Fn3  v060
 BYTE   N11  Gs3  v036
 BYTE   W12
 BYTE   Gs4
 BYTE   W12
 BYTE   Ds4
 BYTE   W12
 BYTE   Gs3
 BYTE   W12
 BYTE   Gs4
 BYTE   W12
 BYTE   Ds4
 BYTE   W12
 BYTE   As4
 BYTE   W12
 BYTE   Ds4
 BYTE   W12
//  #04 //005   ----------------------------------------
 BYTE   N92  Cs4  v056
 BYTE   W06
 BYTE   N88  Gs3
 BYTE   W07
 BYTE   N80  Fn3
 BYTE   W07
 BYTE   N72  As2
 BYTE   W76
//  #04 //006   ----------------------------------------
 BYTE   N44  Ds2  v072
 BYTE   N44  Ds3
 BYTE   W48
 BYTE   Gn3  v076
 BYTE   W04
 BYTE   N42  As3
 BYTE   W05
 BYTE   N36  Ds4
 BYTE   W36
 BYTE   W03
//  #04 //007   ----------------------------------------
 BYTE   N90  Gs2  v080
 BYTE   N90  Gs3
 BYTE   W96
//  #04 //008   ----------------------------------------
 BYTE   N68  Gs1
 BYTE   N68  Gs2
 BYTE   W72
 BYTE   N11  Gs1  v028
 BYTE   N11  Gs2
 BYTE   W12
 BYTE   Gs1
 BYTE   N11  Gs2
 BYTE   W12
//  #04 //009   ----------------------------------------
 BYTE   Gs1  v032
 BYTE   N11  Gs2
 BYTE   W12
 BYTE   Gs1  v040
 BYTE   N11  Gs2
 BYTE   W12
 BYTE   Gs1  v048
 BYTE   N11  Gs2
 BYTE   W12
 BYTE   Gs1  v056
 BYTE   N11  Gs2
 BYTE   W12
 BYTE   Gs1  v064
 BYTE   N11  Gs2
 BYTE   W12
 BYTE   Gs1  v076
 BYTE   N11  Gs2
 BYTE   W12
 BYTE   Gs1  v084
 BYTE   N11  Gs2
 BYTE   W12
 BYTE   Gs1  v092
 BYTE   N11  Gs2
 BYTE   W12
//  #04 //010   ----------------------------------------
 BYTE   N22  Cn3  v104
 BYTE   N22  Gs3
 BYTE   N22  Cn4
 BYTE   W24
 BYTE   N11  Cn3  v084
 BYTE   W12
 BYTE   Cn4  v080
 BYTE   W12
 BYTE   Cn3
 BYTE   W12
 BYTE   Cn4
 BYTE   W12
 BYTE   Cn3
 BYTE   W12
 BYTE   Cn4
 BYTE   W12
//  #04 //011   ----------------------------------------
 BYTE   N22  Cs3
 BYTE   N22  Gs3
 BYTE   N22  Cs4
 BYTE   W24
 BYTE   N11  Cs3
 BYTE   W12
 BYTE   Cs4
 BYTE   W12
 BYTE   Cs3
 BYTE   W12
 BYTE   Cs4
 BYTE   W12
 BYTE   Cs3
 BYTE   W12
 BYTE   Cs4
 BYTE   W12
//  #04 //012   ----------------------------------------
 BYTE   N22  Ds3
 BYTE   N22  Gs3
 BYTE   N22  Ds4
 BYTE   W24
 BYTE   N11  Ds3
 BYTE   W12
 BYTE   Ds4
 BYTE   W12
 BYTE   Ds3
 BYTE   W12
 BYTE   Ds4
 BYTE   W12
 BYTE   Ds3
 BYTE   W12
 BYTE   Ds4
 BYTE   W12
//  #04 //013   ----------------------------------------
 BYTE   Fn3
 BYTE   W12
 BYTE   Fn4
 BYTE   W12
 BYTE   Fn3
 BYTE   W12
 BYTE   Fn4
 BYTE   W12
 BYTE   Ds3
 BYTE   W12
 BYTE   Ds4
 BYTE   W12
 BYTE   Ds3
 BYTE   W12
 BYTE   Ds4
 BYTE   W12
//  #04 //014   ----------------------------------------
 BYTE   As2
 BYTE   W12
 BYTE   Fn3
 BYTE   W12
 BYTE   As3
 BYTE   W12
 BYTE   N22  As2
 BYTE   W24
 BYTE   N11  Fn3
 BYTE   W12
 BYTE   N22  As3
 BYTE   W24
//  #04 //015   ----------------------------------------
 BYTE   N11  Cn3
 BYTE   W12
 BYTE   Gs3
 BYTE   W12
 BYTE   Cn4
 BYTE   W12
 BYTE   N22  Cn3
 BYTE   W24
 BYTE   N11  Gs3
 BYTE   W12
 BYTE   N22  Cn4
 BYTE   W24
//  #04 //016   ----------------------------------------
 BYTE   En2
 BYTE   N22  En3
 BYTE   W24
 BYTE   N11
 BYTE   W12
 BYTE   En2
 BYTE   W12
 BYTE   En3
 BYTE   W12
 BYTE   En2
 BYTE   W12
 BYTE   En3
 BYTE   W12
 BYTE   En2
 BYTE   W12
//  #04 //017   ----------------------------------------
 BYTE   N22  Ds2
 BYTE   N22  As2
 BYTE   N22  Ds3
 BYTE   W24
 BYTE   N11  Ds2  v076
 BYTE   W12
 BYTE   Gn2  v072
 BYTE   W12
 BYTE   As2  v068
 BYTE   W12
 BYTE   Ds3
 BYTE   W12
 BYTE   Gn3  v064
 BYTE   W12
Label_01A4B3A6:
 BYTE   N11  As3  v064
 BYTE   W12
//  #04 //018   ----------------------------------------
 BYTE   N90  Gs3  v044
 BYTE   N90  Ds4
 BYTE   W96
//  #04 //019   ----------------------------------------
 BYTE   W96
//  #04 //020   ----------------------------------------
 BYTE   N92  Ds3
 BYTE   W04
 BYTE   N90  Gs3
 BYTE   W05
 BYTE   N84  As3
 BYTE   W04
 BYTE   N80  Ds4
 BYTE   W80
 BYTE   W03
//  #04 //021   ----------------------------------------
 BYTE   N90  Ds3  v060
 BYTE   W96
//  #04 //022   ----------------------------------------
 BYTE   Fn3  v048
 BYTE   N90  Cn4
 BYTE   N90  Ds4
 BYTE   W96
//  #04 //023   ----------------------------------------
 BYTE   W96
//  #04 //024   ----------------------------------------
 BYTE   Cs3
 BYTE   N90  Gs3
 BYTE   N90  En4
 BYTE   W96
//  #04 //025   ----------------------------------------
 BYTE   Cs5
 BYTE   N90  Ds5
 BYTE   N90  Gs5
 BYTE   W96
//  #04 //026   ----------------------------------------
 BYTE   N22  Cs3  v044
 BYTE   N22  Ds3
 BYTE   N22  Gs3
 BYTE   W24
 BYTE   N44  Cs4  v048
 BYTE   W48
 BYTE   N22  Cs3
 BYTE   W24
//  #04 //027   ----------------------------------------
 BYTE   Ds3  v044
 BYTE   N22  Gs3
 BYTE   N22  As3
 BYTE   W24
 BYTE   N44  Ds4  v048
 BYTE   W48
 BYTE   N22  Ds3
 BYTE   W24
//  #04 //028   ----------------------------------------
 BYTE   N44  Gn2  v044
 BYTE   N44  Dn3
 BYTE   N44  Fn3
 BYTE   W48
 BYTE   Cn3
 BYTE   N44  Gn3
 BYTE   N44  As3
 BYTE   W48
//  #04 //029   ----------------------------------------
 BYTE   Fn2
 BYTE   N44  Cn3
 BYTE   N44  Ds3
 BYTE   W48
 BYTE   Fn2
 BYTE   N44  As2
 BYTE   N44  Ds3
 BYTE   W48
//  #04 //030   ----------------------------------------
 BYTE   As2  v052
 BYTE   N44  Fn3
 BYTE   N44  Gs3
 BYTE   W48
 BYTE   Dn3  v060
 BYTE   W48
//  #04 //031   ----------------------------------------
 BYTE   Ds3  v052
 BYTE   N44  Gs3
 BYTE   N44  As3
 BYTE   W48
 BYTE   Ds2  v060
 BYTE   W48
//  #04 //032   ----------------------------------------
 BYTE   N22  Gs2
 BYTE   W24
 BYTE   N11  Gs2  v028
 BYTE   N11  Gs3
 BYTE   W12
 BYTE   Gs2
 BYTE   N11  Gs3
 BYTE   W12
 BYTE   Gs2  v036
 BYTE   N11  Gs3
 BYTE   W12
 BYTE   Gs2  v044
 BYTE   N11  Gs3
 BYTE   W12
 BYTE   Gs2  v056
 BYTE   N11  Gs3
 BYTE   W12
 BYTE   Gs2  v068
 BYTE   N11  Gs3
 BYTE   W12
//  #04 //033   ----------------------------------------
 BYTE   Gs2  v080
 BYTE   N11  Gs3
 BYTE   W12
 BYTE   Ds3
 BYTE   W12
 BYTE   Gs3
 BYTE   W12
 BYTE   N23  As3  v108
 BYTE   W24
 BYTE   N11  Gs3  v080
 BYTE   W12
 BYTE   Gn3
 BYTE   W12
 BYTE   Ds3  v076
 BYTE   W12
//  #04 //034   ----------------------------------------
 BYTE   Fn2
 BYTE   W12
 BYTE   Cn3  v052
 BYTE   W12
 BYTE   Gs3  v048
 BYTE   W12
 BYTE   Fn2  v072
 BYTE   W12
 BYTE   Cn3  v048
 BYTE   W12
 BYTE   Gs3
 BYTE   W12
 BYTE   N23  Fn2  v072
 BYTE   W24
//  #04 //035   ----------------------------------------
 BYTE   N11  Ds2
 BYTE   W12
 BYTE   Cn3  v048
 BYTE   W12
 BYTE   Gn3
 BYTE   W12
 BYTE   Ds2  v072
 BYTE   W12
 BYTE   Cn3  v048
 BYTE   W12
 BYTE   Gn3
 BYTE   W12
 BYTE   N23  Ds2  v072
 BYTE   W24
//  #04 //036   ----------------------------------------
 BYTE   N11  Cs2
 BYTE   W12
 BYTE   Gs2
 BYTE   W12
 BYTE   Cs3
 BYTE   W12
 BYTE   Cs4
 BYTE   W12
 BYTE   Cn4
 BYTE   W12
 BYTE   Gs3
 BYTE   W12
 BYTE   Fn3
 BYTE   W12
 BYTE   Cs3
 BYTE   W12
//  #04 //037   ----------------------------------------
 BYTE   Ds2
 BYTE   W12
 BYTE   Ds3
 BYTE   W12
 BYTE   Gn3
 BYTE   W12
 BYTE   As3
 BYTE   W12
 BYTE   Ds4
 BYTE   W12
 BYTE   As3
 BYTE   W12
 BYTE   Gn3
 BYTE   W12
 BYTE   Ds3
 BYTE   W12
//  #04 //038   ----------------------------------------
 BYTE   Fn2
 BYTE   W12
 BYTE   Cn3  v048
 BYTE   W12
 BYTE   Gs3
 BYTE   W12
 BYTE   Fn2  v072
 BYTE   W12
 BYTE   Cn3  v048
 BYTE   W12
 BYTE   Gs3
 BYTE   W12
 BYTE   N23  Fn2  v072
 BYTE   W24
//  #04 //039   ----------------------------------------
 BYTE   N11  Ds2
 BYTE   W12
 BYTE   Cn3  v048
 BYTE   W12
 BYTE   Gn3
 BYTE   W12
 BYTE   Ds2  v072
 BYTE   W12
 BYTE   Cn3  v048
 BYTE   W12
 BYTE   Gn3  v052
 BYTE   W12
 BYTE   N23  Ds2  v076
 BYTE   W24
//  #04 //040   ----------------------------------------
 BYTE   N22  Fs2  v080
 BYTE   N22  Cs3
 BYTE   N22  Fs3
 BYTE   W24
 BYTE   N11  Fs2  v084
 BYTE   N11  Fs3
 BYTE   W12
 BYTE   Fs2  v088
 BYTE   N11  Fs3
 BYTE   W12
 BYTE   Fs2
 BYTE   N11  Fs3
 BYTE   W12
 BYTE   Fs2  v092
 BYTE   N11  Fs3
 BYTE   W12
 BYTE   Fs2
 BYTE   N11  Fs3
 BYTE   W12
 BYTE   Fs2  v096
 BYTE   N11  Fs3
 BYTE   W12
//  #04 //041   ----------------------------------------
 BYTE   N22  Ds2  v100
 BYTE   N22  As2
 BYTE   N22  Ds3
 BYTE   W48
 BYTE   N44  Ds1  v104
 BYTE   W48
//  #04 //042   ----------------------------------------
 BYTE   N23  Gs1
 BYTE   N23  Gs2
 BYTE   W24
 BYTE   N11  Gs2  v064
 BYTE   W12
 BYTE   N22  Ds3  v060
 BYTE   N22  Gs3
 BYTE   W24
 BYTE   N11  Gs2
 BYTE   W12
 BYTE   Ds3
 BYTE   N11  Gs3
 BYTE   W12
 BYTE   Gs2
 BYTE   W12
//  #04 //043   ----------------------------------------
 BYTE   N23  Gs1  v080
 BYTE   N23  Gs2
 BYTE   W24
 BYTE   N11  Gs2  v060
 BYTE   W12
 BYTE   N22  Ds3
 BYTE   N22  Gs3
 BYTE   W24
 BYTE   N11  Gs2
 BYTE   W12
 BYTE   Ds3
 BYTE   N11  Gs3
 BYTE   W12
 BYTE   Gs2
 BYTE   W12
//  #04 //044   ----------------------------------------
Label_01A4B52A:
 BYTE   N23  Fn1  v080
 BYTE   N23  Fn2
 BYTE   W24
 BYTE   N11  Fn2  v060
 BYTE   W12
 BYTE   N22  Cn3  v080
 BYTE   N22  Fn3
 BYTE   W24
 BYTE   N11  Fn2  v060
 BYTE   W12
 BYTE   Cn3  v080
 BYTE   N11  Fn3
 BYTE   W12
 BYTE   Fn2  v060
 BYTE   W12
 BYTE   PEND 
//  #04 //045   ----------------------------------------
 BYTE   PATT
  POIN2 Label_01A4B52A
//  #04 //046   ----------------------------------------
Label_01A4B54C:
 BYTE   N23  Cs1  v104
 BYTE   N23  Cs2
 BYTE   W24
 BYTE   N11  Cs2  v064
 BYTE   W12
 BYTE   N22  Gs2  v080
 BYTE   N22  Cs3
 BYTE   W24
 BYTE   N11  Cs2  v060
 BYTE   W12
 BYTE   Gs2  v080
 BYTE   N11  Cs3
 BYTE   W12
 BYTE   Cs2  v060
 BYTE   W12
 BYTE   PEND 
//  #04 //047   ----------------------------------------
 BYTE   N23  Cs1  v080
 BYTE   N23  Cs2
 BYTE   W24
 BYTE   N11  Cs2  v060
 BYTE   W12
 BYTE   N22  Gs2  v080
 BYTE   N22  Cs3
 BYTE   W24
 BYTE   N11  Cs2  v060
 BYTE   W12
 BYTE   Gs2  v080
 BYTE   N11  Cs3
 BYTE   W12
 BYTE   Cs2  v060
 BYTE   W12
//  #04 //048   ----------------------------------------
 BYTE   N22  Ds1  v080
 BYTE   N22  Ds2
 BYTE   W24
 BYTE   N11  Fs2  v060
 BYTE   W12
 BYTE   N22  Cs3  v080
 BYTE   N22  Fs3
 BYTE   W24
 BYTE   N11  Fs2  v060
 BYTE   W12
 BYTE   Cs3  v080
 BYTE   N11  Fs3
 BYTE   W12
 BYTE   Fs2  v060
 BYTE   W12
//  #04 //049   ----------------------------------------
 BYTE   N23  Gs1  v080
 BYTE   N23  Gs2
 BYTE   W24
 BYTE   N11  Gs2  v060
 BYTE   W12
 BYTE   N22  Ds3  v080
 BYTE   N22  Gs3
 BYTE   W24
 BYTE   N11  Gs2  v064
 BYTE   W12
 BYTE   Ds3  v092
 BYTE   N11  Gs3
 BYTE   W12
 BYTE   Gs2  v076
 BYTE   W12
//  #04 //050   ----------------------------------------
 BYTE   PATT
  POIN2 Label_01A4B54C
//  #04 //051   ----------------------------------------
 BYTE   N23  Ds1  v080
 BYTE   N23  Ds2
 BYTE   W24
 BYTE   N11  Ds2  v060
 BYTE   W12
 BYTE   N22  As2  v080
 BYTE   N22  Ds3
 BYTE   W24
 BYTE   N11  Ds2  v060
 BYTE   W12
 BYTE   As2  v080
 BYTE   N11  Ds3
 BYTE   W12
 BYTE   Ds2  v060
 BYTE   W12
//  #04 //052   ----------------------------------------
 BYTE   N23  Cn1  v100
 BYTE   N23  Cn2
 BYTE   W24
 BYTE   N22  Cn2  v060
 BYTE   N22  Cn3
 BYTE   W24
 BYTE   N23  En1  v100
 BYTE   N23  En2
 BYTE   W24
 BYTE   N22  En2  v060
 BYTE   N22  En3
 BYTE   W24
//  #04 //053   ----------------------------------------
 BYTE   PATT
  POIN2 Label_01A4B52A
//  #04 //054   ----------------------------------------
 BYTE   N23  As1  v104
 BYTE   N23  As2
 BYTE   W24
 BYTE   N11  As2  v064
 BYTE   W12
 BYTE   N22  Fn3  v080
 BYTE   N22  As3
 BYTE   W24
 BYTE   N11  As2  v060
 BYTE   W12
 BYTE   Fn3  v080
 BYTE   N11  As3
 BYTE   W12
 BYTE   As2  v060
 BYTE   W12
//  #04 //055   ----------------------------------------
 BYTE   N22  Ds2  v080
 BYTE   N22  Ds3
 BYTE   W24
 BYTE   N11  Ds4
 BYTE   W12
 BYTE   As3
 BYTE   W12
 BYTE   Gn3
 BYTE   W12
 BYTE   Ds3
 BYTE   W12
 BYTE   As2
 BYTE   W12
 BYTE   Gn2
 BYTE   W12
//  #04 //056   ----------------------------------------
 BYTE   N22  Ds2
 BYTE   N22  Ds3
 BYTE   W24
 BYTE   N07  Ds2
 BYTE   W08
 BYTE   Ds3
 BYTE   W08
 BYTE   As2
 BYTE   W08
 BYTE   Ds2
 BYTE   W08
 BYTE   Gn2
 BYTE   W08
 BYTE   As2
 BYTE   W08
 BYTE   Ds3
 BYTE   W08
 BYTE   As2
 BYTE   W08
 BYTE   Gn2
 BYTE   W08
//  #04 //057   ----------------------------------------
 BYTE   N05  Ds2
 BYTE   W06
 BYTE   Gn2
 BYTE   W06
 BYTE   As2
 BYTE   W06
 BYTE   Ds3
 BYTE   W06
 BYTE   Gn3
 BYTE   W06
 BYTE   As3
 BYTE   W06
 BYTE   Ds4
 BYTE   W06
 BYTE   As3
 BYTE   W06
 BYTE   Gn3
 BYTE   W06
 BYTE   Ds3
 BYTE   W06
 BYTE   As2
 BYTE   W06
 BYTE   Gn2
 BYTE   W06
 BYTE   Ds2
 BYTE   W06
 BYTE   As1
 BYTE   W06
 BYTE   Ds2
 BYTE   W06
 BYTE   As1
 BYTE   W06
//  #04 //058   ----------------------------------------
 BYTE   N92  Ds2
 BYTE   W04
 BYTE   N90  Gn2
 BYTE   W05
 BYTE   N84  As2
 BYTE   W04
 BYTE   N80  Ds3
 BYTE   W80
 BYTE   W03
//  #04 //059   ----------------------------------------
 BYTE   W84
 BYTE   GoTo
  POIN2 Label_01A4B3A6
//  #04 //060   ----------------------------------------
 BYTE   W12
 BYTE   W96
//  #04 //061   ----------------------------------------
 BYTE   W96
//  #04 //062   ----------------------------------------
 BYTE   W96
//  #04 //063   ----------------------------------------
 BYTE   W96
//  #04 //064   ----------------------------------------
 BYTE   W96
//  #04 //065   ----------------------------------------
 BYTE   W96
//  #04 //066   ----------------------------------------
 BYTE   W96
//  #04 //067   ----------------------------------------
 BYTE   W96
//  #04 //068   ----------------------------------------
 BYTE   W96
//  #04 //069   ----------------------------------------
 BYTE   W96
//  #04 //070   ----------------------------------------
 BYTE   W96
//  #04 //071   ----------------------------------------
 BYTE   W96
//  #04 //072   ----------------------------------------
 BYTE   W96
//  #04 //073   ----------------------------------------
 BYTE   W96
//  #04 //074   ----------------------------------------
 BYTE   W96
//  #04 //075   ----------------------------------------
 BYTE   W96
//  #04 //076   ----------------------------------------
 BYTE   W96
//  #04 //077   ----------------------------------------
 BYTE   W96
//  #04 //078   ----------------------------------------
 BYTE   W96
//  #04 //079   ----------------------------------------
 BYTE   W96
//  #04 //080   ----------------------------------------
 BYTE   W96
//  #04 //081   ----------------------------------------
 BYTE   W96
//  #04 //082   ----------------------------------------
 BYTE   W96
//  #04 //083   ----------------------------------------
 BYTE   W96
//  #04 //084   ----------------------------------------
 BYTE   W96
//  #04 //085   ----------------------------------------
 BYTE   W96
//  #04 //086   ----------------------------------------
 BYTE   W96
//  #04 //087   ----------------------------------------
 BYTE   W96
//  #04 //088   ----------------------------------------
 BYTE   W96
//  #04 //089   ----------------------------------------
 BYTE   W96
//  #04 //090   ----------------------------------------
 BYTE   W96
//  #04 //091   ----------------------------------------
 BYTE   W96
//  #04 //092   ----------------------------------------
 BYTE   W96
//  #04 //093   ----------------------------------------
 BYTE   W96
//  #04 //094   ----------------------------------------
 BYTE   W96
//  #04 //095   ----------------------------------------
 BYTE   W96
//  #04 //096   ----------------------------------------
 BYTE   W96
//  #04 //097   ----------------------------------------
 BYTE   W96
//  #04 //098   ----------------------------------------
 BYTE   W96
//  #04 //099   ----------------------------------------
 BYTE   W96
//  #04 //100   ----------------------------------------
 BYTE   W96
//  #04 //101   ----------------------------------------
 BYTE   W96
//  #04 //102   ----------------------------------------
 BYTE   W96
//  #04 //103   ----------------------------------------
 BYTE   W96
//  #04 //104   ----------------------------------------
 BYTE   W96
//  #04 //105   ----------------------------------------
 BYTE   W96
//  #04 //106   ----------------------------------------
 BYTE   W96
//  #04 //107   ----------------------------------------
 BYTE   W96
//  #04 //108   ----------------------------------------
 BYTE   W96
//  #04 //109   ----------------------------------------
 BYTE   W96
//  #04 //110   ----------------------------------------
 BYTE   W96
//  #04 //111   ----------------------------------------
 BYTE   W96
//  #04 //112   ----------------------------------------
 BYTE   W96
//  #04 //113   ----------------------------------------
 BYTE   W96
//  #04 //114   ----------------------------------------
 BYTE   W96
//  #04 //115   ----------------------------------------
 BYTE   W96
//  #04 //116   ----------------------------------------
 BYTE   W96
//  #04 //117   ----------------------------------------
 BYTE   W96
//  #04 //118   ----------------------------------------
 BYTE   W96
//  #04 //119   ----------------------------------------
 BYTE   W96
//  #04 //120   ----------------------------------------
 BYTE   W96
//  #04 //121   ----------------------------------------
 BYTE   W96
//  #04 //122   ----------------------------------------
 BYTE   W96
//  #04 //123   ----------------------------------------
 BYTE   W96
//  #04 //124   ----------------------------------------
 BYTE   W96
//  #04 //125   ----------------------------------------
 BYTE   W96
//  #04 //126   ----------------------------------------
 BYTE   W96
//  #04 //127   ----------------------------------------
 BYTE   W96
//  #04 //128   ----------------------------------------
 BYTE   W96
//  #04 //129   ----------------------------------------
 BYTE   W96
//  #04 //130   ----------------------------------------
 BYTE   W96
//  #04 //131   ----------------------------------------
 BYTE   W96
//  #04 //132   ----------------------------------------
 BYTE   W96
//  #04 //133   ----------------------------------------
 BYTE   W96
//  #04 //134   ----------------------------------------
 BYTE   W96
//  #04 //135   ----------------------------------------
 BYTE   W96
//  #04 //136   ----------------------------------------
 BYTE   W96
//  #04 //137   ----------------------------------------
 BYTE   W96
//  #04 //138   ----------------------------------------
 BYTE   W96
//  #04 //139   ----------------------------------------
 BYTE   W96
//  #04 //140   ----------------------------------------
 BYTE   W96
//  #04 //141   ----------------------------------------
 BYTE   W96
//  #04 //142   ----------------------------------------
 BYTE   W96
//  #04 //143   ----------------------------------------
 BYTE   W96
//  #04 //144   ----------------------------------------
 BYTE   W96
//  #04 //145   ----------------------------------------
 BYTE   W96
//  #04 //146   ----------------------------------------
 BYTE   W96
//  #04 //147   ----------------------------------------
 BYTE   W96
//  #04 //148   ----------------------------------------
 BYTE   W96
//  #04 //149   ----------------------------------------
 BYTE   W96
//  #04 //150   ----------------------------------------
 BYTE   W48
 BYTE   W96
//  #04 //151   ----------------------------------------
 BYTE   W96
//  #04 //152   ----------------------------------------
 BYTE   W96
//  #04 //153   ----------------------------------------
 BYTE   W96
//  #04 //154   ----------------------------------------
 BYTE   W96
//  #04 //155   ----------------------------------------
 BYTE   W96
//  #04 //156   ----------------------------------------
 BYTE   W96
//  #04 //157   ----------------------------------------
 BYTE   W96
//  #04 //158   ----------------------------------------
 BYTE   W96
//  #04 //159   ----------------------------------------
 BYTE   W96
//  #04 //160   ----------------------------------------
 BYTE   W96
//  #04 //161   ----------------------------------------
 BYTE   W96
//  #04 //162   ----------------------------------------
 BYTE   W96
//  #04 //163   ----------------------------------------
 BYTE   W96
//  #04 //164   ----------------------------------------
 BYTE   W96
//  #04 //165   ----------------------------------------
 BYTE   W96
//  #04 //166   ----------------------------------------
 BYTE   W96
//  #04 //167   ----------------------------------------
 BYTE   W96
//  #04 //168   ----------------------------------------
 BYTE   W96
//  #04 //169   ----------------------------------------
 BYTE   W96
//  #04 //170   ----------------------------------------
 BYTE   W96
//  #04 //171   ----------------------------------------
 BYTE   W96
//  #04 //172   ----------------------------------------
 BYTE   W96
//  #04 //173   ----------------------------------------
 BYTE   W96
//  #04 //174   ----------------------------------------
 BYTE   W96
//  #04 //175   ----------------------------------------
 BYTE   W96
//  #04 //176   ----------------------------------------
 BYTE   W96
//  #04 //177   ----------------------------------------
 BYTE   W96
//  #04 //178   ----------------------------------------
 BYTE   W96
//  #04 //179   ----------------------------------------
 BYTE   W96
//  #04 //180   ----------------------------------------
 BYTE   W96
//  #04 //181   ----------------------------------------
 BYTE   W96
//  #04 //182   ----------------------------------------
 BYTE   W96
//  #04 //183   ----------------------------------------
 BYTE   W96
//  #04 //184   ----------------------------------------
 BYTE   W96
//  #04 //185   ----------------------------------------
 BYTE   W48
 BYTE   FINE

//**************** Track 5 (Midi-Chn.4) ****************//

CaesuraofDespair_005:
//  #05 //000   ----------------------------------------
 BYTE   VOL   80*CaesuraofDespair_mvl/mxv
 BYTE   KEYSH   CaesuraofDespair_key+0
 BYTE   VOICE   124
 BYTE   MODT 0
 BYTE   LFOS 44
 BYTE   W96
//  #05 //001   ----------------------------------------
 BYTE   W96
//  #05 //002   ----------------------------------------
 BYTE   W96
//  #05 //003   ----------------------------------------
 BYTE   W96
//  #05 //004   ----------------------------------------
 BYTE   W96
//  #05 //005   ----------------------------------------
 BYTE   W96
//  #05 //006   ----------------------------------------
 BYTE   W96
//  #05 //007   ----------------------------------------
 BYTE   W96
//  #05 //008   ----------------------------------------
 BYTE   W96
//  #05 //009   ----------------------------------------
 BYTE   N06  Cn1  v044
 BYTE   N06  Dn2
 BYTE   W06
 BYTE   N06
 BYTE   W06
 BYTE   Cn2
 BYTE   N06  Dn2
 BYTE   W06
 BYTE   Cn1
 BYTE   N06  Cn2
 BYTE   N06  Dn2
 BYTE   W06
 BYTE   Bn1
 BYTE   N06  Cn2
 BYTE   N06  Dn2
 BYTE   W06
 BYTE   Bn1
 BYTE   N06  Cn2
 BYTE   W06
 BYTE   An1
 BYTE   N06  Bn1
 BYTE   N06  Cn2
 BYTE   W06
 BYTE   Cn1
 BYTE   N06  An1
 BYTE   N06  Bn1
 BYTE   W06
 BYTE   Gn1
 BYTE   N06  An1
 BYTE   N06  Bn1
 BYTE   W06
 BYTE   Gn1
 BYTE   N06  An1
 BYTE   W06
 BYTE   Fn1
 BYTE   N06  Gn1
 BYTE   N06  An1
 BYTE   W06
 BYTE   Cn1
 BYTE   N06  Fn1
 BYTE   N06  Gn1
 BYTE   W06
 BYTE   Fn1
 BYTE   N06  Gn1
 BYTE   W06
 BYTE   Fn1
 BYTE   W06
 BYTE   N06
 BYTE   W06
 BYTE   Cn1
 BYTE   W06
//  #05 //010   ----------------------------------------
 BYTE   N24  Dn1
 BYTE   N12  En1
 BYTE   N48  Cs2
 BYTE   W12
 BYTE   N12  En1
 BYTE   W06
 BYTE   N06  Cn1
 BYTE   W06
 BYTE   N24  Dn1
 BYTE   N12  En1
 BYTE   W12
 BYTE   N12
 BYTE   W06
 BYTE   N06  Cn1
 BYTE   W06
 BYTE   N24  Dn1
 BYTE   N12  En1
 BYTE   W12
 BYTE   N12
 BYTE   W12
 BYTE   N24  Dn1
 BYTE   N12  En1
 BYTE   W12
 BYTE   N06  Cn1
 BYTE   N12  En1
 BYTE   W06
 BYTE   N06  Cn1
 BYTE   W06
//  #05 //011   ----------------------------------------
Label_01A4C04E:
 BYTE   N24  Dn1  v044
 BYTE   N12  En1
 BYTE   W12
 BYTE   N12
 BYTE   W06
 BYTE   N06  Cn1
 BYTE   W06
 BYTE   N24  Dn1
 BYTE   N12  En1
 BYTE   W12
 BYTE   N12
 BYTE   W06
 BYTE   N06  Cn1
 BYTE   W06
 BYTE   N24  Dn1
 BYTE   N12  En1
 BYTE   W12
 BYTE   N12
 BYTE   W12
 BYTE   N24  Dn1
 BYTE   N12  En1
 BYTE   W12
 BYTE   N06  Cn1
 BYTE   N12  En1
 BYTE   W06
 BYTE   N06  Cn1
 BYTE   W06
 BYTE   PEND 
//  #05 //012   ----------------------------------------
 BYTE   PATT
  POIN2 Label_01A4C04E
//  #05 //013   ----------------------------------------
 BYTE   N24  Dn1  v044
 BYTE   N12  En1
 BYTE   N06  Cn2
 BYTE   W06
 BYTE   An1
 BYTE   W06
 BYTE   N12  En1
 BYTE   N06  Bn1
 BYTE   W06
 BYTE   Cn1
 BYTE   N06  An1
 BYTE   W06
 BYTE   N24  Dn1
 BYTE   N12  En1
 BYTE   N06  Gn1
 BYTE   W06
 BYTE   An1
 BYTE   W06
 BYTE   N12  En1
 BYTE   N06  Bn1
 BYTE   W06
 BYTE   Cn1
 BYTE   N06  An1
 BYTE   W06
 BYTE   N24  Dn1
 BYTE   N12  En1
 BYTE   N06  Gn1
 BYTE   N06  Cn2
 BYTE   W06
 BYTE   Bn1
 BYTE   W06
 BYTE   N12  En1
 BYTE   N06  An1
 BYTE   W06
 BYTE   Bn1
 BYTE   W06
 BYTE   N24  Dn1
 BYTE   N12  En1
 BYTE   N06  Cn2
 BYTE   N06  Dn2
 BYTE   W06
 BYTE   An1
 BYTE   N06  Bn1
 BYTE   W06
 BYTE   Cn1
 BYTE   N12  En1
 BYTE   N06  Gn1
 BYTE   W06
 BYTE   Cn1
 BYTE   N06  Fn1
 BYTE   W06
//  #05 //014   ----------------------------------------
 BYTE   N24  Dn1
 BYTE   N12  En1
 BYTE   N06  Fn1
 BYTE   N24  Cs2
 BYTE   W12
 BYTE   N12  En1
 BYTE   W06
 BYTE   N06  Cn1
 BYTE   W06
 BYTE   N24  Dn1
 BYTE   N12  En1
 BYTE   W12
 BYTE   N12
 BYTE   W06
 BYTE   N06  Cn1
 BYTE   W06
 BYTE   N24  Dn1
 BYTE   N12  En1
 BYTE   W12
 BYTE   N12
 BYTE   W12
 BYTE   N24  Dn1
 BYTE   N12  En1
 BYTE   W12
 BYTE   N06  Cn1
 BYTE   N12  En1
 BYTE   W06
 BYTE   N06  Cn1
 BYTE   W06
//  #05 //015   ----------------------------------------
 BYTE   PATT
  POIN2 Label_01A4C04E
//  #05 //016   ----------------------------------------
 BYTE   PATT
  POIN2 Label_01A4C04E
//  #05 //017   ----------------------------------------
 BYTE   N24  Dn1  v044
 BYTE   N12  En1
 BYTE   W12
 BYTE   N12
 BYTE   W06
 BYTE   N06  Cn1
 BYTE   N06  An1
 BYTE   N06  Bn1
 BYTE   N06  Cn2
 BYTE   W06
 BYTE   N24  Dn1
 BYTE   N12  En1
 BYTE   N06  Fn1
 BYTE   N06  Gn1
 BYTE   N06  Bn1
 BYTE   N06  Dn2
 BYTE   W06
 BYTE   Bn1
 BYTE   N06  Cn2
 BYTE   W06
 BYTE   N12  En1
 BYTE   N06  Fn1
 BYTE   N06  An1
 BYTE   W06
 BYTE   Cn1
 BYTE   N06  Gn1
 BYTE   W06
 BYTE   N24  Dn1
 BYTE   N12  En1
 BYTE   N06  Fn1
 BYTE   W06
 BYTE   Gn1
 BYTE   W06
 BYTE   N12  En1
 BYTE   N06  Bn1
 BYTE   W06
 BYTE   Gn1
 BYTE   W06
 BYTE   N24  Dn1
 BYTE   N12  En1
 BYTE   N06  Fn1
 BYTE   W12
Label_01A4C146:
 BYTE   N06  Cn1  v044
 BYTE   N12  En1
 BYTE   W06
 BYTE   N06  Cn1
 BYTE   W06
//  #05 //018   ----------------------------------------
 BYTE   N24  Cs2
 BYTE   W96
//  #05 //019   ----------------------------------------
 BYTE   W96
//  #05 //020   ----------------------------------------
 BYTE   W96
//  #05 //021   ----------------------------------------
 BYTE   W96
//  #05 //022   ----------------------------------------
 BYTE   W96
//  #05 //023   ----------------------------------------
 BYTE   W96
//  #05 //024   ----------------------------------------
 BYTE   W96
//  #05 //025   ----------------------------------------
 BYTE   W96
//  #05 //026   ----------------------------------------
Label_01A4C159:
 BYTE   N24  Cn1  v044
 BYTE   N12  Fs1
 BYTE   W12
 BYTE   N12
 BYTE   W12
 BYTE   N24  Cn1
 BYTE   N12  Gs1
 BYTE   W12
 BYTE   N12
 BYTE   W12
 BYTE   N24  Cn1
 BYTE   N12  Fs1
 BYTE   W12
 BYTE   N12
 BYTE   W12
 BYTE   N24  Cn1
 BYTE   N12  Gs1
 BYTE   W12
 BYTE   N12
 BYTE   W12
 BYTE   PEND 
//  #05 //027   ----------------------------------------
 BYTE   PATT
  POIN2 Label_01A4C159
//  #05 //028   ----------------------------------------
 BYTE   PATT
  POIN2 Label_01A4C159
//  #05 //029   ----------------------------------------
 BYTE   PATT
  POIN2 Label_01A4C159
//  #05 //030   ----------------------------------------
 BYTE   PATT
  POIN2 Label_01A4C159
//  #05 //031   ----------------------------------------
 BYTE   PATT
  POIN2 Label_01A4C159
//  #05 //032   ----------------------------------------
 BYTE   N24  Cn1  v044
 BYTE   N12  Fs1
 BYTE   W12
 BYTE   N12
 BYTE   W12
 BYTE   N24  Cn1
 BYTE   N12  Fn1
 BYTE   N12  Gs1
 BYTE   W12
 BYTE   Fn1
 BYTE   N12  Gs1
 BYTE   W12
 BYTE   N24  Cn1
 BYTE   N12  Fn1
 BYTE   N12  Fs1
 BYTE   W12
 BYTE   Fn1
 BYTE   N12  Fs1
 BYTE   W12
 BYTE   N24  Cn1
 BYTE   N12  Gn1
 BYTE   N12  Gs1
 BYTE   W12
 BYTE   Gn1
 BYTE   N12  Gs1
 BYTE   W12
//  #05 //033   ----------------------------------------
 BYTE   N24  Cn1
 BYTE   N12  Fs1
 BYTE   N12  An1
 BYTE   W12
 BYTE   Fs1
 BYTE   N12  An1
 BYTE   W12
 BYTE   N24  Cn1
 BYTE   N06  Fn1
 BYTE   N12  Gs1
 BYTE   W06
 BYTE   N06  Fn1
 BYTE   N06  Gn1
 BYTE   W06
 BYTE   Fn1
 BYTE   N06  Gn1
 BYTE   N12  Gs1
 BYTE   N06  An1
 BYTE   W06
 BYTE   Gn1
 BYTE   N06  An1
 BYTE   N06  Bn1
 BYTE   W06
 BYTE   N24  Cn1
 BYTE   N06  An1
 BYTE   N06  Bn1
 BYTE   N06  Cn2
 BYTE   W06
 BYTE   Bn1
 BYTE   N06  Cn2
 BYTE   N06  Dn2
 BYTE   W06
 BYTE   Cn2
 BYTE   N06  Dn2
 BYTE   W06
 BYTE   N06
 BYTE   W06
 BYTE   N24  Cn1
 BYTE   N06  Cn2
 BYTE   W06
 BYTE   Fn1
 BYTE   W06
 BYTE   Gn1
 BYTE   N06  Bn1
 BYTE   N06  Dn2
 BYTE   W06
 BYTE   Fn1
 BYTE   N06  An1
 BYTE   N06  Cn2
 BYTE   W06
//  #05 //034   ----------------------------------------
 BYTE   N48  Cn1
 BYTE   N24  Dn1
 BYTE   N24  Cs2
 BYTE   W12
 BYTE   Fs1
 BYTE   W12
 BYTE   Dn1
 BYTE   W12
 BYTE   Gs1
 BYTE   W12
 BYTE   N48  Cn1
 BYTE   N24  Dn1
 BYTE   W12
 BYTE   Fs1
 BYTE   W12
 BYTE   Dn1
 BYTE   W12
 BYTE   Gs1
 BYTE   W12
//  #05 //035   ----------------------------------------
Label_01A4C21E:
 BYTE   N48  Cn1  v044
 BYTE   N24  Dn1
 BYTE   W12
 BYTE   Fs1
 BYTE   W12
 BYTE   Dn1
 BYTE   W12
 BYTE   Gs1
 BYTE   W12
 BYTE   N48  Cn1
 BYTE   N24  Dn1
 BYTE   W12
 BYTE   Fs1
 BYTE   W12
 BYTE   Dn1
 BYTE   W12
 BYTE   Gs1
 BYTE   W12
 BYTE   PEND 
//  #05 //036   ----------------------------------------
 BYTE   PATT
  POIN2 Label_01A4C21E
//  #05 //037   ----------------------------------------
 BYTE   N48  Cn1  v044
 BYTE   N24  Dn1
 BYTE   W12
 BYTE   Fs1
 BYTE   W06
 BYTE   N06  Cn2
 BYTE   W06
 BYTE   N24  Dn1
 BYTE   N06  An1
 BYTE   W12
 BYTE   N24  Gs1
 BYTE   N06  Bn1
 BYTE   W06
 BYTE   Cn2
 BYTE   W06
 BYTE   N48  Cn1
 BYTE   N24  Dn1
 BYTE   N06  Dn2
 BYTE   W06
 BYTE   Gn1
 BYTE   N06  Bn1
 BYTE   W06
 BYTE   N24  Fs1
 BYTE   W06
 BYTE   N06  Gn1
 BYTE   W06
 BYTE   N24  Dn1
 BYTE   W06
 BYTE   N06  An1
 BYTE   W06
 BYTE   N24  Gs1
 BYTE   N06  Cn2
 BYTE   W06
 BYTE   Bn1
 BYTE   W06
//  #05 //038   ----------------------------------------
 BYTE   N48  Cn1
 BYTE   N24  Dn1
 BYTE   W06
 BYTE   N06  Bn1
 BYTE   W06
 BYTE   N24  Fs1
 BYTE   N06  An1
 BYTE   W12
 BYTE   N24  Dn1
 BYTE   N06  Gn1
 BYTE   W12
 BYTE   N24  Gs1
 BYTE   W12
 BYTE   N48  Cn1
 BYTE   N24  Dn1
 BYTE   W12
 BYTE   Fs1
 BYTE   W12
 BYTE   Dn1
 BYTE   W12
 BYTE   Gs1
 BYTE   W12
//  #05 //039   ----------------------------------------
 BYTE   PATT
  POIN2 Label_01A4C21E
//  #05 //040   ----------------------------------------
 BYTE   N48  Cn1  v044
 BYTE   N24  Dn1
 BYTE   W06
 BYTE   N06  Dn2
 BYTE   W06
 BYTE   N24  Fs1
 BYTE   N06  Cn2
 BYTE   W06
 BYTE   Bn1
 BYTE   W06
 BYTE   N24  Dn1
 BYTE   N06  Gn1
 BYTE   N06  An1
 BYTE   W06
 BYTE   Fn1
 BYTE   N06  An1
 BYTE   W06
 BYTE   N24  Gs1
 BYTE   N06  Bn1
 BYTE   W06
 BYTE   Gn1
 BYTE   W06
 BYTE   N48  Cn1
 BYTE   N24  Dn1
 BYTE   N06  Fn1
 BYTE   N06  An1
 BYTE   W06
 BYTE   Bn1
 BYTE   W06
 BYTE   N24  Fs1
 BYTE   N06  Cn2
 BYTE   W06
 BYTE   Fn1
 BYTE   N06  Gn1
 BYTE   N06  Bn1
 BYTE   W06
 BYTE   N24  Dn1
 BYTE   N06  An1
 BYTE   W06
 BYTE   Gn1
 BYTE   W06
 BYTE   Fn1
 BYTE   W06
 BYTE   Gn1
 BYTE   W06
//  #05 //041   ----------------------------------------
 BYTE   N48  Cs2
 BYTE   W96
//  #05 //042   ----------------------------------------
Label_01A4C2DB:
 BYTE   N24  Cn1  v044
 BYTE   N12  Dn1
 BYTE   W12
 BYTE   Gs1
 BYTE   W12
 BYTE   N24  Cn1
 BYTE   N12  Dn1
 BYTE   W12
 BYTE   Gs1
 BYTE   W12
 BYTE   N24  Cn1
 BYTE   N12  Dn1
 BYTE   W12
 BYTE   Gs1
 BYTE   W12
 BYTE   N24  Cn1
 BYTE   N12  Dn1
 BYTE   W12
 BYTE   Gs1
 BYTE   W12
 BYTE   PEND 
//  #05 //043   ----------------------------------------
 BYTE   PATT
  POIN2 Label_01A4C2DB
//  #05 //044   ----------------------------------------
 BYTE   PATT
  POIN2 Label_01A4C2DB
//  #05 //045   ----------------------------------------
 BYTE   N24  Cn1  v044
 BYTE   N12  Dn1
 BYTE   W12
 BYTE   Gs1
 BYTE   W12
 BYTE   N24  Cn1
 BYTE   N12  Dn1
 BYTE   W12
 BYTE   Gs1
 BYTE   W12
 BYTE   N24  Cn1
 BYTE   N12  Cn2
 BYTE   W12
 BYTE   N12
 BYTE   W12
 BYTE   N24  Cn1
 BYTE   N12  Gn1
 BYTE   W12
 BYTE   N12
 BYTE   W12
//  #05 //046   ----------------------------------------
Label_01A4C320:
 BYTE   N24  Cn1  v044
 BYTE   N12  Fn1
 BYTE   W12
 BYTE   Bn1
 BYTE   W12
 BYTE   N24  Cn1
 BYTE   N12  Fn1
 BYTE   W12
 BYTE   Bn1
 BYTE   W12
 BYTE   N24  Cn1
 BYTE   N12  Fn1
 BYTE   W12
 BYTE   Bn1
 BYTE   W12
 BYTE   N24  Cn1
 BYTE   N12  Fn1
 BYTE   W12
 BYTE   Bn1
 BYTE   W12
 BYTE   PEND 
//  #05 //047   ----------------------------------------
 BYTE   PATT
  POIN2 Label_01A4C320
//  #05 //048   ----------------------------------------
 BYTE   PATT
  POIN2 Label_01A4C320
//  #05 //049   ----------------------------------------
 BYTE   PATT
  POIN2 Label_01A4C320
//  #05 //050   ----------------------------------------
 BYTE   N24  Cn1  v044
 BYTE   N12  Cs2
 BYTE   W12
 BYTE   Dn1
 BYTE   W12
 BYTE   N24  Cn1
 BYTE   N12  Fs1
 BYTE   W12
 BYTE   Dn1
 BYTE   N12  Cs2
 BYTE   W12
 BYTE   N24  Cn1
 BYTE   N12  Fs1
 BYTE   W12
 BYTE   Dn1
 BYTE   W12
 BYTE   N24  Cn1
 BYTE   N12  Fs1
 BYTE   N12  Cs2
 BYTE   W12
 BYTE   Dn1
 BYTE   W12
//  #05 //051   ----------------------------------------
 BYTE   N24  Cn1
 BYTE   N12  Fs1
 BYTE   W12
 BYTE   Dn1
 BYTE   W12
 BYTE   N24  Cn1
 BYTE   N12  Fs1
 BYTE   N12  Bn1
 BYTE   W12
 BYTE   Dn1
 BYTE   N12  Fn1
 BYTE   W12
 BYTE   N24  Cn1
 BYTE   N12  Fs1
 BYTE   N12  Bn1
 BYTE   W12
 BYTE   Dn1
 BYTE   N12  Fn1
 BYTE   W12
 BYTE   N24  Cn1
 BYTE   N12  Fs1
 BYTE   N12  Bn1
 BYTE   W12
 BYTE   Dn1
 BYTE   N12  Fn1
 BYTE   W12
//  #05 //052   ----------------------------------------
 BYTE   N24  Cn1
 BYTE   N12  Fs1
 BYTE   N12  Cs2
 BYTE   W12
 BYTE   Dn1
 BYTE   W12
 BYTE   N24  Cn1
 BYTE   N12  Fs1
 BYTE   W12
 BYTE   Dn1
 BYTE   N12  Cs2
 BYTE   W12
 BYTE   N24  Cn1
 BYTE   N12  Fs1
 BYTE   W12
 BYTE   Dn1
 BYTE   W12
 BYTE   N24  Cn1
 BYTE   N12  Fs1
 BYTE   N12  Cs2
 BYTE   W12
 BYTE   Dn1
 BYTE   W12
//  #05 //053   ----------------------------------------
Label_01A4C3B8:
 BYTE   N24  Cn1  v044
 BYTE   N12  Fs1
 BYTE   W12
 BYTE   Dn1
 BYTE   N12  Gs1
 BYTE   W12
 BYTE   N24  Cn1
 BYTE   N12  Fs1
 BYTE   W12
 BYTE   Dn1
 BYTE   N12  Gs1
 BYTE   W12
 BYTE   N24  Cn1
 BYTE   N12  Fs1
 BYTE   W12
 BYTE   Dn1
 BYTE   N12  Gs1
 BYTE   W12
 BYTE   N24  Cn1
 BYTE   N12  Fs1
 BYTE   W12
 BYTE   Dn1
 BYTE   N12  Gs1
 BYTE   W12
 BYTE   PEND 
//  #05 //054   ----------------------------------------
 BYTE   PATT
  POIN2 Label_01A4C3B8
//  #05 //055   ----------------------------------------
 BYTE   PATT
  POIN2 Label_01A4C3B8
//  #05 //056   ----------------------------------------
 BYTE   PATT
  POIN2 Label_01A4C3B8
//  #05 //057   ----------------------------------------
 BYTE   N24  Cn1  v044
 BYTE   N06  Fn1
 BYTE   N12  Fs1
 BYTE   N06  Bn1
 BYTE   N06  Dn2
 BYTE   W06
 BYTE   An1
 BYTE   N06  Cn2
 BYTE   W06
 BYTE   N12  Dn1
 BYTE   N06  Gn1
 BYTE   N12  Gs1
 BYTE   N06  Bn1
 BYTE   N06  Dn2
 BYTE   W06
 BYTE   Fn1
 BYTE   N06  Cn2
 BYTE   W06
 BYTE   N24  Cn1
 BYTE   N06  Fn1
 BYTE   N12  Fs1
 BYTE   N06  Bn1
 BYTE   N06  Dn2
 BYTE   W06
 BYTE   An1
 BYTE   N06  Cn2
 BYTE   N06  Dn2
 BYTE   W06
 BYTE   N12  Dn1
 BYTE   N12  Gs1
 BYTE   N06  An1
 BYTE   N06  Bn1
 BYTE   W06
 BYTE   Fn1
 BYTE   N06  Bn1
 BYTE   N06  Dn2
 BYTE   W06
 BYTE   N24  Cn1
 BYTE   N06  Fn1
 BYTE   N12  Fs1
 BYTE   N06  Gn1
 BYTE   W06
 BYTE   N06
 BYTE   N06  An1
 BYTE   W06
 BYTE   N12  Dn1
 BYTE   N06  Gn1
 BYTE   N12  Gs1
 BYTE   N06  An1
 BYTE   W06
 BYTE   Fn1
 BYTE   N06  Bn1
 BYTE   W06
 BYTE   N24  Cn1
 BYTE   N06  Fn1
 BYTE   N12  Fs1
 BYTE   N06  An1
 BYTE   W06
 BYTE   Gn1
 BYTE   W06
 BYTE   N12  Dn1
 BYTE   N06  Gn1
 BYTE   N12  Gs1
 BYTE   W06
 BYTE   N06  Fn1
 BYTE   W06
//  #05 //058   ----------------------------------------
 BYTE   N24  Cs2
 BYTE   W96
//  #05 //059   ----------------------------------------
 BYTE   W84
 BYTE   GoTo
  POIN2 Label_01A4C146
//  #05 //060   ----------------------------------------
 BYTE   W12
 BYTE   W96
//  #05 //061   ----------------------------------------
 BYTE   W96
//  #05 //062   ----------------------------------------
 BYTE   W96
//  #05 //063   ----------------------------------------
 BYTE   W96
//  #05 //064   ----------------------------------------
 BYTE   W96
//  #05 //065   ----------------------------------------
 BYTE   W96
//  #05 //066   ----------------------------------------
 BYTE   W96
//  #05 //067   ----------------------------------------
 BYTE   W96
//  #05 //068   ----------------------------------------
 BYTE   W96
//  #05 //069   ----------------------------------------
 BYTE   W96
//  #05 //070   ----------------------------------------
 BYTE   W96
//  #05 //071   ----------------------------------------
 BYTE   W96
//  #05 //072   ----------------------------------------
 BYTE   W96
//  #05 //073   ----------------------------------------
 BYTE   W96
//  #05 //074   ----------------------------------------
 BYTE   W96
//  #05 //075   ----------------------------------------
 BYTE   W96
//  #05 //076   ----------------------------------------
 BYTE   W96
//  #05 //077   ----------------------------------------
 BYTE   W96
//  #05 //078   ----------------------------------------
 BYTE   W96
//  #05 //079   ----------------------------------------
 BYTE   W96
//  #05 //080   ----------------------------------------
 BYTE   W96
//  #05 //081   ----------------------------------------
 BYTE   W96
//  #05 //082   ----------------------------------------
 BYTE   W96
//  #05 //083   ----------------------------------------
 BYTE   W96
//  #05 //084   ----------------------------------------
 BYTE   W96
//  #05 //085   ----------------------------------------
 BYTE   W96
//  #05 //086   ----------------------------------------
 BYTE   W96
//  #05 //087   ----------------------------------------
 BYTE   W96
//  #05 //088   ----------------------------------------
 BYTE   W96
//  #05 //089   ----------------------------------------
 BYTE   W96
//  #05 //090   ----------------------------------------
 BYTE   W96
//  #05 //091   ----------------------------------------
 BYTE   W96
//  #05 //092   ----------------------------------------
 BYTE   W96
//  #05 //093   ----------------------------------------
 BYTE   W96
//  #05 //094   ----------------------------------------
 BYTE   W96
//  #05 //095   ----------------------------------------
 BYTE   W96
//  #05 //096   ----------------------------------------
 BYTE   W96
//  #05 //097   ----------------------------------------
 BYTE   W96
//  #05 //098   ----------------------------------------
 BYTE   W96
//  #05 //099   ----------------------------------------
 BYTE   W96
//  #05 //100   ----------------------------------------
 BYTE   W96
//  #05 //101   ----------------------------------------
 BYTE   W96
//  #05 //102   ----------------------------------------
 BYTE   W96
//  #05 //103   ----------------------------------------
 BYTE   W96
//  #05 //104   ----------------------------------------
 BYTE   W96
//  #05 //105   ----------------------------------------
 BYTE   W96
//  #05 //106   ----------------------------------------
 BYTE   W96
//  #05 //107   ----------------------------------------
 BYTE   W96
//  #05 //108   ----------------------------------------
 BYTE   W96
//  #05 //109   ----------------------------------------
 BYTE   W96
//  #05 //110   ----------------------------------------
 BYTE   W96
//  #05 //111   ----------------------------------------
 BYTE   W96
//  #05 //112   ----------------------------------------
 BYTE   W96
//  #05 //113   ----------------------------------------
 BYTE   W96
//  #05 //114   ----------------------------------------
 BYTE   W96
//  #05 //115   ----------------------------------------
 BYTE   W96
//  #05 //116   ----------------------------------------
 BYTE   W96
//  #05 //117   ----------------------------------------
 BYTE   W96
//  #05 //118   ----------------------------------------
 BYTE   W96
//  #05 //119   ----------------------------------------
 BYTE   W96
//  #05 //120   ----------------------------------------
 BYTE   W96
//  #05 //121   ----------------------------------------
 BYTE   W96
//  #05 //122   ----------------------------------------
 BYTE   W96
//  #05 //123   ----------------------------------------
 BYTE   W96
//  #05 //124   ----------------------------------------
 BYTE   W96
//  #05 //125   ----------------------------------------
 BYTE   W96
//  #05 //126   ----------------------------------------
 BYTE   W96
//  #05 //127   ----------------------------------------
 BYTE   W96
//  #05 //128   ----------------------------------------
 BYTE   W96
//  #05 //129   ----------------------------------------
 BYTE   W96
//  #05 //130   ----------------------------------------
 BYTE   W96
//  #05 //131   ----------------------------------------
 BYTE   W96
//  #05 //132   ----------------------------------------
 BYTE   W96
//  #05 //133   ----------------------------------------
 BYTE   W96
//  #05 //134   ----------------------------------------
 BYTE   W96
//  #05 //135   ----------------------------------------
 BYTE   W96
//  #05 //136   ----------------------------------------
 BYTE   W96
//  #05 //137   ----------------------------------------
 BYTE   W96
//  #05 //138   ----------------------------------------
 BYTE   W96
//  #05 //139   ----------------------------------------
 BYTE   W96
//  #05 //140   ----------------------------------------
 BYTE   W96
//  #05 //141   ----------------------------------------
 BYTE   W96
//  #05 //142   ----------------------------------------
 BYTE   W96
//  #05 //143   ----------------------------------------
 BYTE   W96
//  #05 //144   ----------------------------------------
 BYTE   W96
//  #05 //145   ----------------------------------------
 BYTE   W96
//  #05 //146   ----------------------------------------
 BYTE   W96
//  #05 //147   ----------------------------------------
 BYTE   W96
//  #05 //148   ----------------------------------------
 BYTE   W96
//  #05 //149   ----------------------------------------
 BYTE   W96
//  #05 //150   ----------------------------------------
 BYTE   W48
 BYTE   W96
//  #05 //151   ----------------------------------------
 BYTE   W96
//  #05 //152   ----------------------------------------
 BYTE   W96
//  #05 //153   ----------------------------------------
 BYTE   W96
//  #05 //154   ----------------------------------------
 BYTE   W96
//  #05 //155   ----------------------------------------
 BYTE   W96
//  #05 //156   ----------------------------------------
 BYTE   W96
//  #05 //157   ----------------------------------------
 BYTE   W96
//  #05 //158   ----------------------------------------
 BYTE   W96
//  #05 //159   ----------------------------------------
 BYTE   W96
//  #05 //160   ----------------------------------------
 BYTE   W96
//  #05 //161   ----------------------------------------
 BYTE   W96
//  #05 //162   ----------------------------------------
 BYTE   W96
//  #05 //163   ----------------------------------------
 BYTE   W96
//  #05 //164   ----------------------------------------
 BYTE   W96
//  #05 //165   ----------------------------------------
 BYTE   W96
//  #05 //166   ----------------------------------------
 BYTE   W96
//  #05 //167   ----------------------------------------
 BYTE   W96
//  #05 //168   ----------------------------------------
 BYTE   W96
//  #05 //169   ----------------------------------------
 BYTE   W96
//  #05 //170   ----------------------------------------
 BYTE   W96
//  #05 //171   ----------------------------------------
 BYTE   W96
//  #05 //172   ----------------------------------------
 BYTE   W96
//  #05 //173   ----------------------------------------
 BYTE   W96
//  #05 //174   ----------------------------------------
 BYTE   W96
//  #05 //175   ----------------------------------------
 BYTE   W96
//  #05 //176   ----------------------------------------
 BYTE   W96
//  #05 //177   ----------------------------------------
 BYTE   W96
//  #05 //178   ----------------------------------------
 BYTE   W96
//  #05 //179   ----------------------------------------
 BYTE   W96
//  #05 //180   ----------------------------------------
 BYTE   W96
//  #05 //181   ----------------------------------------
 BYTE   W96
//  #05 //182   ----------------------------------------
 BYTE   W96
//  #05 //183   ----------------------------------------
 BYTE   W96
//  #05 //184   ----------------------------------------
 BYTE   W96
//  #05 //185   ----------------------------------------
 BYTE   W48
 BYTE   FINE

//******************************************************//
	ALIGN 4

CaesuraofDespair:
	BYTE	5	// NumTrks
	BYTE	0	// NumBlks
	BYTE	CaesuraofDespair_pri	// Priority
	BYTE	CaesuraofDespair_rev	// Reverb.
    
	POIN2	CaesuraofDespair_grp
    
	POIN2	CaesuraofDespair_001
	POIN2	CaesuraofDespair_002
	POIN2	CaesuraofDespair_003
	POIN2	CaesuraofDespair_004
	POIN2	CaesuraofDespair_005

	
