//Event file generated from Sappy .s format.
	#include "MPlayDef.event"

	#define	song39_grp  voicegroup000
	#define	song39_pri  0
	#define	song39_rev  0
	#define	song39_mvl  127
	#define	song39_key  0
	#define	song39_tbs  1
	#define	song39_exg  0
	#define	song39_cmp  1

	// .rodata
	//	song39
	ALIGN 4


//**************** Track 1 (Midi-Chn.0) ****************//

song39_001:
//  #01 //000   ----------------------------------------
 BYTE   KEYSH   song39_key+0
 BYTE   TEMPO   188*song39_tbs/2
 BYTE   VOICE   73
 BYTE   MODT 0
 BYTE   LFOS 44
 BYTE   MODT 0
 BYTE   LFOS 44
 BYTE   VOL   116*song39_mvl/mxv
 BYTE   PAN   c_v+0
 BYTE   N07  Fs3  v036
 BYTE   W08
 BYTE   N07
 BYTE   W08
 BYTE   N07
 BYTE   W08
 BYTE   TIE
 BYTE   W96
//  #01 //001   ----------------------------------------
 BYTE   W68
 BYTE   W03
 BYTE   EOT
 BYTE   W01
 BYTE   N07  As3
 BYTE   W08
 BYTE   N07
 BYTE   W08
 BYTE   N07
 BYTE   W08
//  #01 //002   ----------------------------------------
 BYTE   TIE  Cs4
 BYTE   W96
//  #01 //003   ----------------------------------------
 BYTE   W68
 BYTE   W03
 BYTE   EOT
 BYTE   W01
 BYTE   N07
 BYTE   W08
 BYTE   N07
 BYTE   W08
 BYTE   N07
 BYTE   W08
//  #01 //004   ----------------------------------------
 BYTE   N68  Fs4
 BYTE   W72
 BYTE   N07
 BYTE   W08
 BYTE   N07
 BYTE   W08
 BYTE   N07
 BYTE   W08
//  #01 //005   ----------------------------------------
 BYTE   N23  As4
 BYTE   W24
 BYTE   N07
 BYTE   W08
 BYTE   N07
 BYTE   W08
 BYTE   N07
 BYTE   W08
 BYTE   N11  Cs5
 BYTE   W12
 BYTE   N23  Gs4
 BYTE   W24
 BYTE   N11  As4
 BYTE   W12
//  #01 //006   ----------------------------------------
 BYTE   Bn4
 BYTE   W12
 BYTE   As4
 BYTE   W12
 BYTE   Gs4
 BYTE   W12
 BYTE   N23  Fs4
 BYTE   W24
 BYTE   N11
 BYTE   W12
 BYTE   Ds5
 BYTE   W12
 BYTE   N23  Cs5
 BYTE   W12
//  #01 //007   ----------------------------------------
 BYTE   W12
 BYTE   N11  As4
 BYTE   W12
 BYTE   Gs4
 BYTE   W12
 BYTE   N23  As4
 BYTE   W24
 BYTE   Gs4
 BYTE   W24
 BYTE   N11  As4
 BYTE   W12
//  #01 //008   ----------------------------------------
 BYTE   N23  Bn4
 BYTE   W24
 BYTE   N11
 BYTE   W12
 BYTE   N23  Cs5
 BYTE   W24
 BYTE   N11  Fs4
 BYTE   W12
 BYTE   Gs4
 BYTE   W12
 BYTE   N23  Fs4
 BYTE   W12
//  #01 //009   ----------------------------------------
 BYTE   W96
//  #01 //010   ----------------------------------------
 BYTE   W24
 BYTE   As4  v060
 BYTE   W24
 BYTE   Gs4
 BYTE   W24
 BYTE   Bn4
 BYTE   W24
//  #01 //011   ----------------------------------------
 BYTE   N23
 BYTE   W24
 BYTE   N11  As4
 BYTE   W12
 BYTE   N23  Fs4
 BYTE   W24
 BYTE   N11  Ds4
 BYTE   W12
 BYTE   Fn4
 BYTE   W12
 BYTE   N23  Fs4
 BYTE   W12
//  #01 //012   ----------------------------------------
 BYTE   W12
 BYTE   N11  Ds4
 BYTE   W12
 BYTE   As4
 BYTE   W12
 BYTE   N23  Gs4
 BYTE   W24
 BYTE   N11
 BYTE   W12
 BYTE   As4
 BYTE   W12
 BYTE   N23  Bn4
 BYTE   W12
//  #01 //013   ----------------------------------------
 BYTE   W12
 BYTE   N11
 BYTE   W12
 BYTE   Cs5
 BYTE   W12
 BYTE   N23  Gs4
 BYTE   W24
 BYTE   N11  As4
 BYTE   W12
 BYTE   Gs4
 BYTE   W12
 BYTE   N23  Fs4
 BYTE   W12
//  #01 //014   ----------------------------------------
 BYTE   W24
 BYTE   As4
 BYTE   W24
 BYTE   Gs4
 BYTE   W24
 BYTE   Bn4
 BYTE   W24
//  #01 //015   ----------------------------------------
 BYTE   N23
 BYTE   W24
 BYTE   N11  As4
 BYTE   W12
 BYTE   N23  Gs4
 BYTE   W24
 BYTE   N11  Fs4
 BYTE   W12
 BYTE   N23
 BYTE   W24
//  #01 //016   ----------------------------------------
 BYTE   N92  Cs5
 BYTE   W96
//  #01 //017   ----------------------------------------
Label_010E0BE1:
 BYTE   W72
 BYTE   N11  Cs4  v060
 BYTE   W12
 BYTE   N23  Fs4
 BYTE   W12
 BYTE   PEND 
//  #01 //018   ----------------------------------------
 BYTE   W12
 BYTE   N11
 BYTE   W12
 BYTE   N11
 BYTE   W12
 BYTE   N11
 BYTE   W12
 BYTE   N11
 BYTE   W12
 BYTE   Cs4
 BYTE   W12
 BYTE   Fs4
 BYTE   W12
 BYTE   N23  Gs4
 BYTE   W12
//  #01 //019   ----------------------------------------
 BYTE   W12
 BYTE   N11  Cs4
 BYTE   W12
 BYTE   N23
 BYTE   W24
 BYTE   N17  Bn4
 BYTE   W18
 BYTE   As4
 BYTE   W18
 BYTE   N11  Gs4
 BYTE   W12
//  #01 //020   ----------------------------------------
 BYTE   N23
 BYTE   W24
 BYTE   N11  Fs4
 BYTE   W12
 BYTE   N23
 BYTE   W24
 BYTE   N11
 BYTE   W12
 BYTE   Ds4
 BYTE   W12
 BYTE   N32  Cs4
 BYTE   W12
//  #01 //021   ----------------------------------------
 BYTE   W72
 BYTE   N11  Fs4
 BYTE   W12
 BYTE   N23
 BYTE   W12
//  #01 //022   ----------------------------------------
 BYTE   W12
 BYTE   N11
 BYTE   W12
 BYTE   N11
 BYTE   W12
 BYTE   Cs4
 BYTE   W12
 BYTE   Fs4
 BYTE   W12
 BYTE   Gs4
 BYTE   W12
 BYTE   As4
 BYTE   W12
 BYTE   N23  Bn4
 BYTE   W12
//  #01 //023   ----------------------------------------
 BYTE   W12
 BYTE   As4
 BYTE   W24
 BYTE   Cs5
 BYTE   W24
 BYTE   Fs4
 BYTE   W24
 BYTE   Ds4
 BYTE   W12
//  #01 //024   ----------------------------------------
 BYTE   W12
 BYTE   N11
 BYTE   W12
 BYTE   N11
 BYTE   W12
 BYTE   Fs4
 BYTE   W12
 BYTE   As4
 BYTE   W12
 BYTE   Bn4
 BYTE   W12
 BYTE   Cs5
 BYTE   W12
 BYTE   N32  Gs4
 BYTE   W12
//  #01 //025   ----------------------------------------
 BYTE   PATT
  POIN2 Label_010E0BE1
//  #01 //026   ----------------------------------------
 BYTE   W12
 BYTE   N05  Fs4  v060
 BYTE   W06
 BYTE   N05
 BYTE   W06
 BYTE   N11
 BYTE   W12
 BYTE   N11
 BYTE   W12
 BYTE   N11
 BYTE   W12
 BYTE   N11
 BYTE   W12
 BYTE   Ds4
 BYTE   W12
 BYTE   N23  Cs4
 BYTE   W12
//  #01 //027   ----------------------------------------
 BYTE   W12
 BYTE   N11
 BYTE   W12
 BYTE   N23  Ds4
 BYTE   W24
 BYTE   Cs4
 BYTE   W24
 BYTE   N11
 BYTE   W12
 BYTE   N23  Fs4
 BYTE   W12
//  #01 //028   ----------------------------------------
 BYTE   W12
 BYTE   N11
 BYTE   W12
 BYTE   N11
 BYTE   W12
 BYTE   N11
 BYTE   W12
 BYTE   N11
 BYTE   W12
 BYTE   N11
 BYTE   W12
 BYTE   As4
 BYTE   W12
 BYTE   N23  Bn4
 BYTE   W12
//  #01 //029   ----------------------------------------
 BYTE   W12
 BYTE   N11  As4
 BYTE   W12
 BYTE   Cs5
 BYTE   W12
 BYTE   N32  Fs4
 BYTE   W36
 BYTE   N11
 BYTE   W12
 BYTE   N23  Cs5
 BYTE   W12
//  #01 //030   ----------------------------------------
 BYTE   W12
 BYTE   Fs4
 BYTE   W24
 BYTE   N11
 BYTE   W12
 BYTE   N11
 BYTE   W12
 BYTE   N11
 BYTE   W12
 BYTE   Ds5
 BYTE   W12
 BYTE   N23  Cs5
 BYTE   W12
//  #01 //031   ----------------------------------------
 BYTE   W12
 BYTE   N11  Bn4
 BYTE   W12
 BYTE   As4
 BYTE   W12
 BYTE   Fs4
 BYTE   W12
 BYTE   N17
 BYTE   W18
 BYTE   N17
 BYTE   W18
 BYTE   N11  Gs4
 BYTE   W12
//  #01 //032   ----------------------------------------
 BYTE   Bn4
 BYTE   W12
 BYTE   As4
 BYTE   W12
 BYTE   Gs4
 BYTE   W12
 BYTE   N23  Fs4
 BYTE   W24
 BYTE   N11
 BYTE   W12
 BYTE   Gs4
 BYTE   W12
 BYTE   N32  Fs4
 BYTE   W12
//  #01 //033   ----------------------------------------
 BYTE   W24
 BYTE   N23
 BYTE   W24
 BYTE   N23
 BYTE   W24
 BYTE   Fn4
 BYTE   W24
//  #01 //034   ----------------------------------------
 BYTE   N32  Ds4
 BYTE   W36
 BYTE   N11
 BYTE   W12
 BYTE   N17
 BYTE   W18
 BYTE   Fn4
 BYTE   W18
 BYTE   N11  Fs4
 BYTE   W12
//  #01 //035   ----------------------------------------
 BYTE   N23  Gs4
 BYTE   W24
 BYTE   Fs4
 BYTE   W24
 BYTE   Fn4
 BYTE   W24
 BYTE   Ds5
 BYTE   W24
//  #01 //036   ----------------------------------------
 BYTE   Cs5
 BYTE   W36
 BYTE   N05
 BYTE   W06
 BYTE   N05
 BYTE   W06
 BYTE   N17
 BYTE   W18
 BYTE   Ds5
 BYTE   W18
 BYTE   N11  En5
 BYTE   W12
//  #01 //037   ----------------------------------------
 BYTE   N23
 BYTE   W24
 BYTE   N11  Ds5
 BYTE   W12
 BYTE   N23  Bn4
 BYTE   W24
 BYTE   N11  Fs4
 BYTE   W12
 BYTE   N11
 BYTE   W12
 BYTE   Fn4
 BYTE   W12
//  #01 //038   ----------------------------------------
 BYTE   Ds4
 BYTE   W12
 BYTE   Fn4
 BYTE   W12
 BYTE   Fs4
 BYTE   W12
 BYTE   N23  Cs4
 BYTE   W24
 BYTE   N11
 BYTE   W12
 BYTE   Ds4
 BYTE   W12
 BYTE   Fn4
 BYTE   W12
//  #01 //039   ----------------------------------------
 BYTE   Fs4
 BYTE   W12
 BYTE   Fn4
 BYTE   W12
 BYTE   Fs4
 BYTE   W12
 BYTE   N23  Gs4
 BYTE   W24
 BYTE   N11
 BYTE   W12
 BYTE   As4
 BYTE   W12
 BYTE   Bn4
 BYTE   W12
//  #01 //040   ----------------------------------------
 BYTE   N32  Cs5
 BYTE   W36
 BYTE   N11  Fs4
 BYTE   W12
 BYTE   N32
 BYTE   W36
 BYTE   N11
 BYTE   W12
//  #01 //041   ----------------------------------------
 BYTE   N17  Ds4
 BYTE   W18
 BYTE   Fn4
 BYTE   W18
 BYTE   N11  Fs4
 BYTE   W12
 BYTE   N17
 BYTE   W18
 BYTE   Gs4
 BYTE   W18
 BYTE   N11  As4
 BYTE   W12
//  #01 //042   ----------------------------------------
 BYTE   N32
 BYTE   W36
 BYTE   N11  Gs4
 BYTE   W12
 BYTE   N92
 BYTE   W48
//  #01 //043   ----------------------------------------
 BYTE   W84
 BYTE   N11  Gn4
 BYTE   W12
//  #01 //044   ----------------------------------------
 BYTE   N32  Gs4
 BYTE   W36
 BYTE   N11  Gn4
 BYTE   W12
 BYTE   N32
 BYTE   W36
 BYTE   N11
 BYTE   W12
//  #01 //045   ----------------------------------------
 BYTE   Gs4
 BYTE   W12
 BYTE   Gn4
 BYTE   W12
 BYTE   N11
 BYTE   W12
 BYTE   N23  Gs4
 BYTE   W24
 BYTE   N11  As4
 BYTE   W12
 BYTE   N23
 BYTE   W24
//  #01 //046   ----------------------------------------
Label_010E0D48:
 BYTE   W24
 BYTE   N23  Ds4  v060
 BYTE   W24
 BYTE   N23
 BYTE   W24
 BYTE   Gs4
 BYTE   W24
 BYTE   PEND 
//  #01 //047   ----------------------------------------
Label_010E0D52:
 BYTE   N23  Gs4  v060
 BYTE   W24
 BYTE   Gn4
 BYTE   W24
 BYTE   Gs4
 BYTE   W24
 BYTE   Ds5
 BYTE   W24
 BYTE   PEND 
//  #01 //048   ----------------------------------------
Label_010E0D5D:
 BYTE   N32  Ds5  v060
 BYTE   W36
 BYTE   N11  Gs4
 BYTE   W12
 BYTE   N32
 BYTE   W36
 BYTE   Cn5
 BYTE   W12
 BYTE   PEND 
//  #01 //049   ----------------------------------------
Label_010E0D69:
 BYTE   W24
 BYTE   N23  As4  v060
 BYTE   W24
 BYTE   Cs5
 BYTE   W24
 BYTE   Cn5
 BYTE   W24
 BYTE   PEND 
//  #01 //050   ----------------------------------------
Label_010E0D73:
 BYTE   W24
 BYTE   N23  As4  v060
 BYTE   W24
 BYTE   N23
 BYTE   W24
 BYTE   Cn5
 BYTE   W24
 BYTE   PEND 
//  #01 //051   ----------------------------------------
Label_010E0D7D:
 BYTE   N23  Cs5  v060
 BYTE   W24
 BYTE   Cn5
 BYTE   W24
 BYTE   N17  Ds5
 BYTE   W18
 BYTE   Cn5
 BYTE   W18
 BYTE   N11  As4
 BYTE   W12
 BYTE   PEND 
//  #01 //052   ----------------------------------------
 BYTE   N23
 BYTE   W24
 BYTE   N11  Gs4
 BYTE   W12
 BYTE   N23  As4
 BYTE   W24
 BYTE   N11  Cs5
 BYTE   W12
 BYTE   N44  Cn5
 BYTE   W24
//  #01 //053   ----------------------------------------
 BYTE   W36
 BYTE   N11
 BYTE   W12
 BYTE   Cs5
 BYTE   W12
 BYTE   Cn5
 BYTE   W12
 BYTE   As4
 BYTE   W12
 BYTE   Cn5
 BYTE   W12
//  #01 //054   ----------------------------------------
 BYTE   N23  As4
 BYTE   W24
 BYTE   N11  Gs4
 BYTE   W12
 BYTE   N56
 BYTE   W60
//  #01 //055   ----------------------------------------
 BYTE   W36
 BYTE   N11
 BYTE   W12
 BYTE   N11
 BYTE   W12
 BYTE   Gn4
 BYTE   W12
 BYTE   Fn4
 BYTE   W12
 BYTE   Gn4
 BYTE   W12
//  #01 //056   ----------------------------------------
 BYTE   N23  Ds4
 BYTE   W36
 BYTE   N11
 BYTE   W12
 BYTE   N17  Cn5
 BYTE   W18
 BYTE   As4
 BYTE   W18
 BYTE   N11  Cs5
 BYTE   W12
//  #01 //057   ----------------------------------------
 BYTE   N23  Cn5
 BYTE   W36
 BYTE   N11  Ds4
 BYTE   W12
 BYTE   N17
 BYTE   W18
 BYTE   Cs4
 BYTE   W18
 BYTE   N11  Cn4
 BYTE   W12
//  #01 //058   ----------------------------------------
 BYTE   N32  Cs4
 BYTE   W36
 BYTE   N11  Gs4
 BYTE   W12
 BYTE   N68
 BYTE   W48
//  #01 //059   ----------------------------------------
 BYTE   W36
 BYTE   N11
 BYTE   W12
 BYTE   N17
 BYTE   W18
 BYTE   As4
 BYTE   W18
 BYTE   N11  Cn5
 BYTE   W12
//  #01 //060   ----------------------------------------
 BYTE   N32
 BYTE   W36
 BYTE   N11  As4
 BYTE   W12
 BYTE   N23
 BYTE   W36
 BYTE   N11  Cs5
 BYTE   W12
//  #01 //061   ----------------------------------------
 BYTE   N32
 BYTE   W36
 BYTE   N11  Ds5
 BYTE   W12
 BYTE   N32
 BYTE   W48
//  #01 //062   ----------------------------------------
 BYTE   PATT
  POIN2 Label_010E0D48
//  #01 //063   ----------------------------------------
 BYTE   PATT
  POIN2 Label_010E0D52
//  #01 //064   ----------------------------------------
 BYTE   PATT
  POIN2 Label_010E0D5D
//  #01 //065   ----------------------------------------
 BYTE   PATT
  POIN2 Label_010E0D69
//  #01 //066   ----------------------------------------
 BYTE   PATT
  POIN2 Label_010E0D73
//  #01 //067   ----------------------------------------
 BYTE   PATT
  POIN2 Label_010E0D7D
//  #01 //068   ----------------------------------------
 BYTE   N23  As4  v060
 BYTE   W24
 BYTE   N11  Gs4
 BYTE   W12
 BYTE   N23  As4
 BYTE   W24
 BYTE   N11  Cs5
 BYTE   W12
 BYTE   TIE  Cn5
 BYTE   W24
//  #01 //069   ----------------------------------------
 BYTE   W92
 BYTE   W03
 BYTE   EOT
 BYTE   W01
//  #01 //070   ----------------------------------------
 BYTE   W24
 BYTE   N23  Gs4
 BYTE   W24
 BYTE   N23
 BYTE   W24
 BYTE   Cn5
 BYTE   W24
//  #01 //071   ----------------------------------------
 BYTE   N23
 BYTE   W24
 BYTE   As4
 BYTE   W24
 BYTE   Gs4
 BYTE   W24
 BYTE   N23
 BYTE   W24
//  #01 //072   ----------------------------------------
 BYTE   En5
 BYTE   W24
 BYTE   Cn5
 BYTE   W24
 BYTE   N17  As4
 BYTE   W18
 BYTE   Cn5
 BYTE   W18
 BYTE   N11  As4
 BYTE   W12
//  #01 //073   ----------------------------------------
 BYTE   N23  Gs4
 BYTE   W36
 BYTE   N11  Cn5
 BYTE   W12
 BYTE   N11
 BYTE   W12
 BYTE   Cs5
 BYTE   W12
 BYTE   Ds5
 BYTE   W12
 BYTE   N23
 BYTE   W12
//  #01 //074   ----------------------------------------
 BYTE   W12
 BYTE   N11  Gs4
 BYTE   W12
 BYTE   N11
 BYTE   W12
 BYTE   N23
 BYTE   W24
 BYTE   N11
 BYTE   W12
 BYTE   Fn4
 BYTE   W12
 BYTE   N23  Ds4
 BYTE   W12
//  #01 //075   ----------------------------------------
 BYTE   W12
 BYTE   N11  As4
 BYTE   W12
 BYTE   N23  Gs4
 BYTE   W24
 BYTE   N17
 BYTE   W18
 BYTE   N17
 BYTE   W18
 BYTE   N11  As4
 BYTE   W12
//  #01 //076   ----------------------------------------
 BYTE   N80  Cn5
 BYTE   W84
 BYTE   N11
 BYTE   W12
//  #01 //077   ----------------------------------------
 BYTE   Cs5
 BYTE   W12
 BYTE   N23  Ds5
 BYTE   W24
 BYTE   As4
 BYTE   W24
 BYTE   Gs4
 BYTE   W24
 BYTE   As4
 BYTE   W12
//  #01 //078   ----------------------------------------
 BYTE   W12
 BYTE   N11  Gs4
 BYTE   W12
 BYTE   N23
 BYTE   N23  Cn5  v008
 BYTE   W24
 BYTE   As4
 BYTE   W24
 BYTE   Cs5
 BYTE   W24
//  #01 //079   ----------------------------------------
 BYTE   Cs5  v060
 BYTE   W24
 BYTE   N11  Cn5
 BYTE   W12
 BYTE   N23  Gs4
 BYTE   W24
 BYTE   N11  Fn4
 BYTE   W12
 BYTE   Gn4
 BYTE   W12
 BYTE   N23  Gs4
 BYTE   W12
//  #01 //080   ----------------------------------------
 BYTE   W12
 BYTE   N11  Fn4
 BYTE   W12
 BYTE   Cn5
 BYTE   W12
 BYTE   N23  As4
 BYTE   W24
 BYTE   N11
 BYTE   W12
 BYTE   Cn5
 BYTE   W12
 BYTE   N23  Cs5
 BYTE   W12
//  #01 //081   ----------------------------------------
 BYTE   W12
 BYTE   N11
 BYTE   W12
 BYTE   Ds5
 BYTE   W12
 BYTE   N23  As4
 BYTE   W24
 BYTE   N11  Cn5
 BYTE   W12
 BYTE   As4
 BYTE   W12
 BYTE   N23  Gs4
 BYTE   W12
//  #01 //082   ----------------------------------------
 BYTE   W24
 BYTE   Cn5
 BYTE   W24
 BYTE   As4
 BYTE   W24
 BYTE   Cs5
 BYTE   W24
//  #01 //083   ----------------------------------------
 BYTE   N23
 BYTE   W24
 BYTE   N11  Cn5
 BYTE   W12
 BYTE   N23  As4
 BYTE   W24
 BYTE   N11  Gs4
 BYTE   W12
 BYTE   N23
 BYTE   W24
//  #01 //084   ----------------------------------------
 BYTE   N92  Ds5
 BYTE   W96
//  #01 //085   ----------------------------------------
 BYTE   W48
 BYTE   GoTo
  POIN2 Label_010E0BE1
//  #01 //086   ----------------------------------------
 BYTE   W18
 BYTE   W30
 BYTE   W96
 BYTE   FINE

//**************** Track 2 (Midi-Chn.1) ****************//

song39_002:
//  #02 //000   ----------------------------------------
 BYTE   KEYSH   song39_key+0
 BYTE   VOICE   1
 BYTE   MODT 0
 BYTE   LFOS 44
 BYTE   MODT 0
 BYTE   LFOS 44
 BYTE   VOL   100*song39_mvl/mxv
 BYTE   PAN   c_v+0
 BYTE   W24
 BYTE   TIE  As2  v036
 BYTE   N44  Fs3
 BYTE   TIE  As3
 BYTE   W48
 BYTE   N44  Cs3  v008
 BYTE   W48
//  #02 //001   ----------------------------------------
 BYTE   Fs3
 BYTE   W48
 BYTE   EOT
 BYTE   As3
 BYTE   N44
 BYTE   W48
//  #02 //002   ----------------------------------------
 BYTE   TIE  Cs3  v036
 BYTE   N44  As3
 BYTE   TIE  Cs4
 BYTE   W48
 BYTE   N44  Fs3  v016
 BYTE   W48
//  #02 //003   ----------------------------------------
 BYTE   As3
 BYTE   W48
 BYTE   EOT
 BYTE   Cs4
 BYTE   N44
 BYTE   W36
 BYTE   W02
 BYTE   EOT
 BYTE   Cs3
 BYTE   W10
//  #02 //004   ----------------------------------------
 BYTE   N90  Fs3  v036
 BYTE   N90  Fs4
 BYTE   W96
//  #02 //005   ----------------------------------------
 BYTE   N44  As3
 BYTE   N44  Cs4
 BYTE   N44  Fn4
 BYTE   N44  As4
 BYTE   W48
 BYTE   Cs4
 BYTE   N44  Fn4
 BYTE   N44  Gs4
 BYTE   N44  Cs5
 BYTE   W48
//  #02 //006   ----------------------------------------
 BYTE   N32  Ds4  v020
 BYTE   W36
 BYTE   N22  Bn3
 BYTE   W24
 BYTE   N11  Ds4
 BYTE   W12
 BYTE   Fs4
 BYTE   W12
 BYTE   As4
 BYTE   W12
//  #02 //007   ----------------------------------------
 BYTE   N32  Gs4
 BYTE   W36
 BYTE   N22  Cs5
 BYTE   W24
 BYTE   N05  Fn5
 BYTE   W06
 BYTE   Fs5
 BYTE   W06
 BYTE   N11  Fn5
 BYTE   W12
 BYTE   Cs5
 BYTE   W12
//  #02 //008   ----------------------------------------
 BYTE   Gs4
 BYTE   W24
 BYTE   N11
 BYTE   W24
 BYTE   Cs5
 BYTE   W12
 BYTE   N11
 BYTE   W24
 BYTE   N22  Fs4
 BYTE   W12
//  #02 //009   ----------------------------------------
 BYTE   W96
//  #02 //010   ----------------------------------------
 BYTE   N11  As3  v024
 BYTE   N11  Cs4
 BYTE   N11  Fs4
 BYTE   N11  As4
 BYTE   W24
 BYTE   N22  As3
 BYTE   N22  Cs4
 BYTE   N22  Fs4
 BYTE   N22  As4
 BYTE   W72
//  #02 //011   ----------------------------------------
 BYTE   N11  Fn4  v016
 BYTE   W12
 BYTE   Fs3
 BYTE   N11  Fs4
 BYTE   W12
 BYTE   Cs4  v012
 BYTE   N11  Fn4  v024
 BYTE   N11  As4
 BYTE   N11  Cs5  v012
 BYTE   W12
 BYTE   N22  Cs4  v024
 BYTE   N22  Fs4
 BYTE   N22  As4
 BYTE   N22  Cs5
 BYTE   W24
 BYTE   N05  Cs4  v012
 BYTE   W24
 BYTE   N05
 BYTE   W12
//  #02 //012   ----------------------------------------
 BYTE   W12
 BYTE   Fn4  v024
 BYTE   W06
 BYTE   Fs4
 BYTE   W06
 BYTE   N11  Gs3
 BYTE   N11  Bn3
 BYTE   N11  Ds4
 BYTE   N11  Gs4
 BYTE   W12
 BYTE   Fn3
 BYTE   N11  Gs3
 BYTE   N11  Cs4
 BYTE   W12
 BYTE   As3
 BYTE   N11  Cs4
 BYTE   N11  Fs4
 BYTE   N11  As4
 BYTE   W12
 BYTE   Cs4  v016
 BYTE   W12
 BYTE   As3  v024
 BYTE   N11  Cs4
 BYTE   N11  Fs4
 BYTE   N11  As4
 BYTE   W12
 BYTE   Cs4
 BYTE   N11  Fs4
 BYTE   N11  As4
 BYTE   N11  Cs5
 BYTE   W12
//  #02 //013   ----------------------------------------
 BYTE   W12
 BYTE   Cs4
 BYTE   N11  Fs4
 BYTE   N11  As4
 BYTE   N11  Cs5
 BYTE   W12
 BYTE   Bn3
 BYTE   N11  Ds4
 BYTE   N11  Fs4
 BYTE   N11  Bn4
 BYTE   W12
 BYTE   As3
 BYTE   N11  Cs4
 BYTE   N11  Fs4
 BYTE   N11  As4
 BYTE   W24
 BYTE   Fn3
 BYTE   N11  As3
 BYTE   W12
 BYTE   Fn3
 BYTE   N11  As3
 BYTE   W24
//  #02 //014   ----------------------------------------
 BYTE   N05  As3  v012
 BYTE   N05  Cs4  v024
 BYTE   N05  Fs4
 BYTE   N05  As4  v012
 BYTE   W24
 BYTE   N22  As3  v024
 BYTE   N22  Cs4
 BYTE   N22  Fs4
 BYTE   N22  As4
 BYTE   W36
 BYTE   N11  Fs3  v012
 BYTE   N11  As3  v024
 BYTE   N11  Cs4
 BYTE   N11  Fs4  v012
 BYTE   W12
 BYTE   Ds4  v024
 BYTE   N11  Fs4
 BYTE   N11  As4
 BYTE   N11  Ds5
 BYTE   W12
 BYTE   N22  Cs4
 BYTE   N22  Fs4
 BYTE   N22  As4
 BYTE   N22  Cs5
 BYTE   W12
//  #02 //015   ----------------------------------------
 BYTE   W12
 BYTE   N11  Fs3
 BYTE   N11  As3
 BYTE   N11  Cs4
 BYTE   N11  Fs4
 BYTE   W12
 BYTE   As3
 BYTE   N11  Cs4
 BYTE   N11  Fn4
 BYTE   N11  As4
 BYTE   W12
 BYTE   N22  Cs4
 BYTE   N22  Fs4
 BYTE   N22  As4
 BYTE   N22  Cs5
 BYTE   W24
 BYTE   N11  Fn3
 BYTE   N11  As3
 BYTE   N11  Cs4
 BYTE   W12
 BYTE   N22  Fn3
 BYTE   N22  As3
 BYTE   N22  Cs4
 BYTE   W24
//  #02 //016   ----------------------------------------
 BYTE   Gs3
 BYTE   N22  Bn3
 BYTE   N22  En4
 BYTE   N22  Gs4
 BYTE   W24
 BYTE   Gs3
 BYTE   N22  Bn3
 BYTE   N22  En4
 BYTE   N22  Gs4
 BYTE   W24
 BYTE   N32  Gs3
 BYTE   N32  Bn3
 BYTE   N32  En4
 BYTE   N32  Gs4
 BYTE   W36
 BYTE   N02
 BYTE   W02
 BYTE   An4
 BYTE   W02
 BYTE   As4
 BYTE   W03
 BYTE   Bn4
 BYTE   W02
 BYTE   Cn5
 BYTE   W03
//  #02 //017   ----------------------------------------
Label_01891BEE:
 BYTE   N22  Cs4  v024
 BYTE   N22  Gs4
 BYTE   N22  Cs5
 BYTE   W96
//  #02 //018   ----------------------------------------
 BYTE   W96
//  #02 //019   ----------------------------------------
 BYTE   W48
 BYTE   N17  Bn4
 BYTE   W18
 BYTE   As4
 BYTE   W18
 BYTE   N11  Gs4
 BYTE   W12
//  #02 //020   ----------------------------------------
 BYTE   N22  Fs4
 BYTE   W72
 BYTE   N11  Ds4
 BYTE   W12
 BYTE   N22  Cs4
 BYTE   W12
//  #02 //021   ----------------------------------------
 BYTE   W96
//  #02 //022   ----------------------------------------
 BYTE   W48
 BYTE   N11  Fs5  v016
 BYTE   W12
 BYTE   Gs5
 BYTE   W12
 BYTE   As5
 BYTE   W12
 BYTE   N22  Bn5
 BYTE   W12
//  #02 //023   ----------------------------------------
 BYTE   W12
 BYTE   As5
 BYTE   W24
 BYTE   Cs6
 BYTE   W24
 BYTE   Fs5
 BYTE   W24
 BYTE   Ds5
 BYTE   W12
//  #02 //024   ----------------------------------------
 BYTE   W12
 BYTE   N11
 BYTE   W12
 BYTE   N11
 BYTE   W12
 BYTE   Fs5
 BYTE   W12
 BYTE   As5
 BYTE   W12
 BYTE   Bn5
 BYTE   W12
 BYTE   Cs6
 BYTE   W12
 BYTE   N22  Gs5
 BYTE   W12
//  #02 //025   ----------------------------------------
 BYTE   W12
 BYTE   N11  As5  v012
 BYTE   W12
 BYTE   N11
 BYTE   W12
 BYTE   N11
 BYTE   W12
 BYTE   N11
 BYTE   W12
 BYTE   N11
 BYTE   W24
 BYTE   N32  Fs3  v024
 BYTE   N32  As3
 BYTE   N32  Cs4
 BYTE   N32  Fs4
 BYTE   W12
//  #02 //026   ----------------------------------------
 BYTE   W24
 BYTE   N22  Fs4  v016
 BYTE   W24
 BYTE   N11
 BYTE   W12
 BYTE   N11
 BYTE   W12
 BYTE   N11
 BYTE   W12
 BYTE   N22  Gs3
 BYTE   N22  Bn3
 BYTE   N22  En4
 BYTE   W12
//  #02 //027   ----------------------------------------
 BYTE   W12
 BYTE   EOT
 BYTE   As2
 BYTE   N11  As2  v024
 BYTE   N11  Cs3
 BYTE   N11  En3
 BYTE   N11  As3
 BYTE   W12
 BYTE   Cs3
 BYTE   N11  En3
 BYTE   N11  As3
 BYTE   N11  Cs4
 BYTE   W12
 BYTE   As2
 BYTE   N11  Cs3
 BYTE   N11  En3
 BYTE   N11  As3
 BYTE   W12
 BYTE   N05  Cs3
 BYTE   N05  En3
 BYTE   N05  As3
 BYTE   N05  Cs4
 BYTE   W12
 BYTE   N22  Gs3
 BYTE   N22  Cs4
 BYTE   N22  Fn4
 BYTE   N22  Gs4
 BYTE   W24
 BYTE   N32  As3
 BYTE   N32  Ds4
 BYTE   N32  Fs4
 BYTE   N32  As4
 BYTE   W12
//  #02 //028   ----------------------------------------
 BYTE   W24
 BYTE   As4  v016
 BYTE   W36
 BYTE   N22
 BYTE   W24
 BYTE   Gs4
 BYTE   W12
//  #02 //029   ----------------------------------------
 BYTE   W12
 BYTE   N11  Fs4
 BYTE   W12
 BYTE   Gs4
 BYTE   W12
 BYTE   N05  As4  v052
 BYTE   W06
 BYTE   N05
 BYTE   W06
 BYTE   N11  Bn3  v024
 BYTE   N11  Ds4
 BYTE   N11  Fs4
 BYTE   N11  Bn4
 BYTE   W12
 BYTE   As3
 BYTE   N11  Cs4
 BYTE   N11  Fs4
 BYTE   N11  As4
 BYTE   W12
 BYTE   Gs3
 BYTE   N11  Bn3
 BYTE   N11  Ds4
 BYTE   N11  Gs4
 BYTE   W12
 BYTE   N32  Cs4
 BYTE   N32  Fs4
 BYTE   N32  As4
 BYTE   N32  Cs5
 BYTE   W12
//  #02 //030   ----------------------------------------
 BYTE   W24
 BYTE   N11  Fs4  v016
 BYTE   W12
 BYTE   Fn4
 BYTE   W12
 BYTE   Fs4
 BYTE   W12
 BYTE   Fs3  v024
 BYTE   N11  Bn3
 BYTE   N11  Ds4
 BYTE   N11  Fs4
 BYTE   W12
 BYTE   Ds4
 BYTE   N11  Fs4
 BYTE   N11  Bn4
 BYTE   N11  Ds5
 BYTE   W12
 BYTE   N22  Cs4
 BYTE   N22  Fn4
 BYTE   N22  As4
 BYTE   N22  Cs5
 BYTE   W12
//  #02 //031   ----------------------------------------
 BYTE   W12
 BYTE   N11  Bn3
 BYTE   N11  Fn4
 BYTE   N11  Gs4
 BYTE   N11  Bn4
 BYTE   W12
 BYTE   As3
 BYTE   N11  Cs4
 BYTE   N11  Fn4
 BYTE   N11  As4
 BYTE   W12
 BYTE   N22  Fs3
 BYTE   N22  As3
 BYTE   N22  Ds4
 BYTE   N22  Fs4
 BYTE   W24
 BYTE   N11  Cs3  v016
 BYTE   N11  Fs3  v024
 BYTE   N11  As3
 BYTE   N11  Cs4  v016
 BYTE   W12
 BYTE   N22  Cs3
 BYTE   N22  Fs3  v024
 BYTE   N22  As3
 BYTE   N22  Cs4  v016
 BYTE   W24
//  #02 //032   ----------------------------------------
 BYTE   N11  Fs3  v024
 BYTE   N11  Bn3
 BYTE   N11  Ds4
 BYTE   N11  Fs4
 BYTE   W12
 BYTE   Cs4
 BYTE   W12
 BYTE   Fs3
 BYTE   N11  Bn3
 BYTE   N11  Ds4
 BYTE   N11  Fs4
 BYTE   W12
 BYTE   N22  Gs3
 BYTE   N22  Cs4
 BYTE   N22  Fn4
 BYTE   N22  Gs4
 BYTE   W24
 BYTE   N11  Fn3
 BYTE   N11  Gs3
 BYTE   N11  Cs4
 BYTE   N11  Fn4
 BYTE   W12
 BYTE   Fn3
 BYTE   N11  Gs3
 BYTE   N11  Cs4
 BYTE   N11  Fn4
 BYTE   W12
 BYTE   N22  Fs3
 BYTE   N22  As3
 BYTE   N22  Cs4
 BYTE   N22  Fs4
 BYTE   W12
//  #02 //033   ----------------------------------------
 BYTE   W84
 BYTE   N03  Bn3
 BYTE   W04
 BYTE   Ds4  v004
 BYTE   W04
 BYTE   Fs4
 BYTE   W04
//  #02 //034   ----------------------------------------
 BYTE   N68  As4  v012
 BYTE   W72
 BYTE   N22
 BYTE   W24
//  #02 //035   ----------------------------------------
 BYTE   N32
 BYTE   W36
 BYTE   Fs4
 BYTE   W36
 BYTE   N22  Ds5
 BYTE   W24
//  #02 //036   ----------------------------------------
 BYTE   N32  Cs5
 BYTE   W40
 BYTE   N03  Fn5
 BYTE   W04
 BYTE   N03
 BYTE   W04
 BYTE   N17
 BYTE   W18
 BYTE   Cs5
 BYTE   W18
 BYTE   N11  Gs4
 BYTE   W12
//  #02 //037   ----------------------------------------
 BYTE   N22  Fs4
 BYTE   W24
 BYTE   N11  Cs4
 BYTE   W12
 BYTE   Gs4
 BYTE   W24
 BYTE   Fs4
 BYTE   W12
 BYTE   N22  Cs4  v016
 BYTE   W24
//  #02 //038   ----------------------------------------
 BYTE   N11  Fs3
 BYTE   N11  Bn3
 BYTE   N11  Ds4
 BYTE   N11  Fs4
 BYTE   W12
 BYTE   Fn3
 BYTE   N11  Gs3
 BYTE   N11  Cs4
 BYTE   N11  Fn4
 BYTE   W12
 BYTE   Fs3
 BYTE   N11  Bn3
 BYTE   N11  Ds4
 BYTE   N11  Fs4
 BYTE   W12
 BYTE   N22  Gs3
 BYTE   N22  Cs4
 BYTE   N22  Fn4
 BYTE   N22  Gs4
 BYTE   W24
 BYTE   N11  Cs3
 BYTE   N11  Fn3
 BYTE   N11  As3
 BYTE   N11  Cs4
 BYTE   W12
 BYTE   N22  Cs3
 BYTE   N22  Fs3
 BYTE   N22  As3
 BYTE   N22  Cs4
 BYTE   W24
//  #02 //039   ----------------------------------------
 BYTE   N11  Fs3
 BYTE   N11  Bn3
 BYTE   N11  Ds4
 BYTE   N11  Fs4
 BYTE   W12
 BYTE   Fn3
 BYTE   N11  Gs3
 BYTE   N11  Bn3
 BYTE   N11  Fn4
 BYTE   W12
 BYTE   Fs3
 BYTE   N11  Bn3
 BYTE   N11  Ds4
 BYTE   N11  Fs4
 BYTE   W12
 BYTE   N22  Gs3
 BYTE   N22  Cs4
 BYTE   N22  Fn4
 BYTE   N22  Gs4
 BYTE   W24
 BYTE   N11  Cs4
 BYTE   N11  Fs4
 BYTE   N11  As4
 BYTE   N11  Cs5
 BYTE   W12
 BYTE   N22  Cs4
 BYTE   N22  Fn4
 BYTE   N22  As4
 BYTE   N22  Cs5
 BYTE   W24
//  #02 //040   ----------------------------------------
 BYTE   N44  As3
 BYTE   W01
 BYTE   Cs4
 BYTE   W01
 BYTE   Fn4
 BYTE   W01
 BYTE   As4
 BYTE   W44
 BYTE   W01
 BYTE   As2
 BYTE   N44  Cs3
 BYTE   N44  Fs3
 BYTE   N44  As3
 BYTE   W48
//  #02 //041   ----------------------------------------
 BYTE   Fs3
 BYTE   N44  As3
 BYTE   N44  Cs4
 BYTE   N44  Fs4
 BYTE   W48
 BYTE   As3
 BYTE   N44  Ds4
 BYTE   N44  Fs4
 BYTE   N44  As4
 BYTE   W48
//  #02 //042   ----------------------------------------
 BYTE   W12
 BYTE   N11  Ds3  v024
 BYTE   N11  Gs3
 BYTE   N11  Bn3
 BYTE   N11  Ds4
 BYTE   W12
 BYTE   Fn3
 BYTE   N11  Gs3
 BYTE   N11  Cs4
 BYTE   N11  Fn4
 BYTE   W12
 BYTE   Fs3
 BYTE   N11  As3
 BYTE   N11  Cs4
 BYTE   N11  Fs4
 BYTE   W24
 BYTE   Fs3
 BYTE   N11  As3
 BYTE   N11  Cs4
 BYTE   N11  Fs4
 BYTE   W12
 BYTE   Gs3
 BYTE   N11  Cs4
 BYTE   N11  Fn4
 BYTE   N11  Gs4
 BYTE   W12
 BYTE   As3
 BYTE   N11  Cs4
 BYTE   N11  Fn4
 BYTE   N11  As4
 BYTE   W12
//  #02 //043   ----------------------------------------
 BYTE   W12
 BYTE   As3
 BYTE   N11  Cs4
 BYTE   N11  Fn4
 BYTE   N11  As4
 BYTE   W12
 BYTE   Bn3
 BYTE   N11  Fn4
 BYTE   N11  Gs4
 BYTE   N11  Bn4
 BYTE   W12
 BYTE   Cs4
 BYTE   N11  Fn4
 BYTE   N11  Gs4
 BYTE   N11  Cs5
 BYTE   W24
 BYTE   Cs4
 BYTE   N11  Fn4
 BYTE   N11  Gs4
 BYTE   N11  Cs5
 BYTE   W12
 BYTE   N01  Dn4
 BYTE   W01
 BYTE   En4
 BYTE   W02
 BYTE   Fn4
 BYTE   W02
 BYTE   Gn4
 BYTE   W01
 BYTE   An4
 BYTE   W02
 BYTE   Bn4
 BYTE   W02
 BYTE   Cn5
 BYTE   W02
 BYTE   N11  Cs5
 BYTE   W12
//  #02 //044   ----------------------------------------
 BYTE   W12
 BYTE   N68  Cs4
 BYTE   N68  Fs4
 BYTE   N68  As4
 BYTE   N68  Cs5
 BYTE   W84
//  #02 //045   ----------------------------------------
 BYTE   N11  Ds4
 BYTE   N11  Fs4
 BYTE   N11  As4
 BYTE   N11  Ds5
 BYTE   W12
 BYTE   Ds4
 BYTE   N11  Fs4
 BYTE   N11  As4
 BYTE   N11  Ds5
 BYTE   W84
//  #02 //046   ----------------------------------------
 BYTE   Cn4  v036
 BYTE   N11  Ds4
 BYTE   N11  Gs4
 BYTE   N11  Cn5
 BYTE   W24
 BYTE   N22  Cn4
 BYTE   N22  Ds4
 BYTE   N22  Gs4
 BYTE   N22  Cn5
 BYTE   W72
//  #02 //047   ----------------------------------------
Label_01891EA3:
 BYTE   N44  Ds3  v036
 BYTE   N24  Gs3  v016
 BYTE   W24
 BYTE   N21  Gs3  v020
 BYTE   N11  Cn4
 BYTE   N11  Ds4
 BYTE   N11  Gs4
 BYTE   W24
 BYTE   N12  Gs3  v036
 BYTE   N12  Cn4  v016
 BYTE   W12
 BYTE   N32  Gs3  v020
 BYTE   N32  Cn4
 BYTE   N11  Ds4
 BYTE   N11  Gs4
 BYTE   W36
 BYTE   PEND 
//  #02 //048   ----------------------------------------
 BYTE   N44  Gs3  v036
 BYTE   N44  Cn4  v016
 BYTE   W84
 BYTE   N05  Gs4  v036
 BYTE   W06
 BYTE   As4
 BYTE   W06
//  #02 //049   ----------------------------------------
Label_01891ED3:
 BYTE   N22  Cn4  v036
 BYTE   N22  Ds4
 BYTE   N22  Gs4
 BYTE   N22  Cn5
 BYTE   W24
 BYTE   As3
 BYTE   N22  Ds4
 BYTE   N22  Gn4
 BYTE   N22  As4
 BYTE   W24
 BYTE   N08  Gs3
 BYTE   N08  Cs4
 BYTE   N08  Fn4
 BYTE   N08  Gs4
 BYTE   W18
 BYTE   As3
 BYTE   N08  Cs4
 BYTE   N08  Fn4
 BYTE   N08  As4
 BYTE   W18
 BYTE   N11  Gs3
 BYTE   N11  Cs4
 BYTE   N11  Fn4
 BYTE   N11  Gs4
 BYTE   W12
 BYTE   PEND 
//  #02 //050   ----------------------------------------
 BYTE   N22  Gn3
 BYTE   N22  Cn4
 BYTE   N22  Ds4
 BYTE   N22  Gn4
 BYTE   W96
//  #02 //051   ----------------------------------------
 BYTE   N24  Gn3  v016
 BYTE   W24
 BYTE   N11  Ds3  v020
 BYTE   N21  Gn3  v036
 BYTE   N11  As3
 BYTE   N11  Ds4  v020
 BYTE   W36
 BYTE   Ds3
 BYTE   N11  Gn3  v036
 BYTE   N11  As3
 BYTE   N11  Ds4  v020
 BYTE   W36
//  #02 //052   ----------------------------------------
 BYTE   Gn3
 BYTE   W24
 BYTE   N22  Gs3  v052
 BYTE   N22  Cn4  v036
 BYTE   N22  Fn4
 BYTE   N22  Gs4  v084
 BYTE   W24
 BYTE   Gs3  v016
 BYTE   W36
 BYTE   N05  Gn3  v036
 BYTE   N05  Gn4
 BYTE   W06
 BYTE   Gs3
 BYTE   N05  Gs4
 BYTE   W06
//  #02 //053   ----------------------------------------
 BYTE   N11  As3
 BYTE   N11  Ds4
 BYTE   N11  Gn4
 BYTE   N11  As4
 BYTE   W12
 BYTE   Gs3
 BYTE   N11  Cn4
 BYTE   N11  Ds4
 BYTE   N11  Gs4
 BYTE   W12
 BYTE   Ds3
 BYTE   N11  Gn3
 BYTE   N11  Cn4
 BYTE   N11  Ds4
 BYTE   W12
 BYTE   N05  Cs3
 BYTE   N05  Gn3
 BYTE   N05  As3
 BYTE   N05  Cs4
 BYTE   W12
 BYTE   N11  Gs3  v016
 BYTE   W12
 BYTE   Ds3  v036
 BYTE   N11  Gs3
 BYTE   N11  Cn4
 BYTE   N11  Ds4
 BYTE   W12
 BYTE   N22  Gs2
 BYTE   N22  Cn3
 BYTE   N22  Ds3
 BYTE   N22  Gs3
 BYTE   W24
//  #02 //054   ----------------------------------------
 BYTE   Ds4  v016
 BYTE   W24
 BYTE   Gs3  v036
 BYTE   N22  Cn4
 BYTE   N22  Ds4
 BYTE   N22  Gs4
 BYTE   W24
 BYTE   N11  Cn4  v020
 BYTE   W12
 BYTE   Ds4
 BYTE   W12
 BYTE   Gs4
 BYTE   W12
 BYTE   N32  Cn5
 BYTE   W12
//  #02 //055   ----------------------------------------
 BYTE   W24
 BYTE   N11  Ds3  v016
 BYTE   N11  Gs3  v036
 BYTE   N11  Cn4
 BYTE   N22  Ds4  v020
 BYTE   W24
 BYTE   Fn4
 BYTE   W12
 BYTE   N11  Ds3  v016
 BYTE   N11  Gs3  v036
 BYTE   N11  Cn4
 BYTE   N11  Ds4  v016
 BYTE   W12
 BYTE   N17  Gn4  v020
 BYTE   W18
 BYTE   N05  Fn4
 BYTE   W06
//  #02 //056   ----------------------------------------
 BYTE   N44  Ds4
 BYTE   W84
 BYTE   N22  Cn3  v036
 BYTE   N22  Fn3
 BYTE   N22  Gs3
 BYTE   N22  Cn4
 BYTE   W12
//  #02 //057   ----------------------------------------
 BYTE   W12
 BYTE   N11  Gn3
 BYTE   N11  Cn4
 BYTE   N11  Ds4
 BYTE   N11  Gn4
 BYTE   W12
 BYTE   Gs3
 BYTE   N11  Cn4
 BYTE   N11  Ds4
 BYTE   N11  Gs4
 BYTE   W12
 BYTE   Cn3
 BYTE   N11  Fn3
 BYTE   N11  Gs3
 BYTE   N11  Cn4
 BYTE   W24
 BYTE   N22  Ds3
 BYTE   N22  Gs3
 BYTE   N22  Cn4
 BYTE   N22  Ds4
 BYTE   W30
 BYTE   N02  As4
 BYTE   W03
 BYTE   Cn5
 BYTE   W03
//  #02 //058   ----------------------------------------
 BYTE   N11  Cs4
 BYTE   N11  Fs4
 BYTE   N11  As4
 BYTE   N11  Cs5
 BYTE   W12
 BYTE   Cn4
 BYTE   N11  Ds4
 BYTE   N11  Fs4
 BYTE   N11  Cn5
 BYTE   W12
 BYTE   Gs3
 BYTE   N11  Cs4
 BYTE   N11  Fn4
 BYTE   N11  Gs4
 BYTE   W12
 BYTE   Ds3
 BYTE   N11  Fs3
 BYTE   N11  Cn4
 BYTE   N11  Ds4
 BYTE   W36
 BYTE   Cs4
 BYTE   N11  Fs4
 BYTE   N11  As4
 BYTE   N11  Cs5
 BYTE   W12
 BYTE   Cn4
 BYTE   N11  Ds4
 BYTE   N11  Fs4
 BYTE   N11  Cn5
 BYTE   W12
//  #02 //059   ----------------------------------------
 BYTE   Gs3
 BYTE   N11  Cs4
 BYTE   N11  Fn4
 BYTE   N11  Gs4
 BYTE   W12
 BYTE   Ds3
 BYTE   N11  Fs3
 BYTE   N11  Cn4
 BYTE   N11  Ds4
 BYTE   W12
 BYTE   Cn4  v016
 BYTE   W12
 BYTE   Gs3
 BYTE   W12
 BYTE   N17  Gs3  v036
 BYTE   N17  Cs4
 BYTE   N17  Fn4
 BYTE   N17  Gs4
 BYTE   W18
 BYTE   As3
 BYTE   N17  Cs4
 BYTE   N17  Fn4
 BYTE   N17  As4
 BYTE   W18
 BYTE   N11  Cn4
 BYTE   N11  Fn4
 BYTE   N11  Gs4
 BYTE   N11  Cn5
 BYTE   W12
//  #02 //060   ----------------------------------------
 BYTE   N32  Gs3
 BYTE   N32  Cn4
 BYTE   N32  Ds4
 BYTE   N32  Gs4
 BYTE   W36
 BYTE   N11  Gn3
 BYTE   N11  As3
 BYTE   N11  Ds4
 BYTE   N11  Gn4
 BYTE   W12
 BYTE   N32  Gn3
 BYTE   N32  As3
 BYTE   N32  Ds4
 BYTE   N32  Gn4
 BYTE   W36
 BYTE   N11  Gs3
 BYTE   N11  Cn4
 BYTE   N11  Ds4
 BYTE   N11  Gs4
 BYTE   W12
//  #02 //061   ----------------------------------------
 BYTE   N32  Gs3
 BYTE   N32  Cn4
 BYTE   N32  Ds4
 BYTE   N32  Gs4
 BYTE   W36
 BYTE   N11  As3
 BYTE   N11  Ds4
 BYTE   N11  Gn4
 BYTE   N11  As4
 BYTE   W12
 BYTE   N44  As3
 BYTE   N44  Ds4
 BYTE   N44  Gn4
 BYTE   N44  As4
 BYTE   W48
//  #02 //062   ----------------------------------------
 BYTE   W24
 BYTE   Ds4
 BYTE   N44  Gs4
 BYTE   N44  Cn5
 BYTE   N44  Ds5  v076
 BYTE   W72
//  #02 //063   ----------------------------------------
 BYTE   PATT
  POIN2 Label_01891EA3
//  #02 //064   ----------------------------------------
 BYTE   N44  Gs3  v036
 BYTE   N44  Cn4  v016
 BYTE   W48
 BYTE   N12  Gs3  v036
 BYTE   N32  Cn4
 BYTE   N32  Ds4
 BYTE   N32  Gs4
 BYTE   W12
 BYTE   N12  Gs3  v020
 BYTE   W12
 BYTE   N11  Gs3  v028
 BYTE   W12
 BYTE   Gs3  v036
 BYTE   N05  Gs4
 BYTE   W06
 BYTE   As4
 BYTE   W06
//  #02 //065   ----------------------------------------
 BYTE   PATT
  POIN2 Label_01891ED3
//  #02 //066   ----------------------------------------
 BYTE   N22  Gn3  v036
 BYTE   N22  Cn4
 BYTE   N22  Ds4
 BYTE   N22  Gn4
 BYTE   W36
 BYTE   Ds4
 BYTE   W24
 BYTE   Cn4
 BYTE   W24
 BYTE   N11  Gs3
 BYTE   N11  Cn4
 BYTE   N11  Ds4
 BYTE   N11  Gs4
 BYTE   W12
//  #02 //067   ----------------------------------------
 BYTE   As3
 BYTE   N11  Ds4
 BYTE   N11  Gn4
 BYTE   N11  As4
 BYTE   W12
 BYTE   Cs4
 BYTE   N11  Gn4
 BYTE   N11  As4
 BYTE   N11  Cs5
 BYTE   W24
 BYTE   Cn4
 BYTE   N11  Ds4
 BYTE   N11  Gs4
 BYTE   N11  Cn5
 BYTE   W24
 BYTE   N22  Ds4
 BYTE   N22  Gs4
 BYTE   N22  Cn5
 BYTE   N22  Ds5
 BYTE   W24
 BYTE   N05  Cn4  v020
 BYTE   W06
 BYTE   As3
 BYTE   W06
//  #02 //068   ----------------------------------------
 BYTE   N22  Gs3
 BYTE   W24
 BYTE   Gs3  v036
 BYTE   N22  Cn4
 BYTE   N22  Ds4
 BYTE   N22  Gs4
 BYTE   W24
 BYTE   N11  Gs4  v020
 BYTE   W12
 BYTE   Cn5
 BYTE   W24
 BYTE   N22  As4
 BYTE   W12
//  #02 //069   ----------------------------------------
 BYTE   W12
 BYTE   N02  Cs4
 BYTE   W02
 BYTE   N01  Dn4
 BYTE   W01
 BYTE   Ds4
 BYTE   W01
 BYTE   En4
 BYTE   W01
 BYTE   Fn4
 BYTE   W01
 BYTE   Fs4
 BYTE   W01
 BYTE   Gn4
 BYTE   W01
 BYTE   Gs4
 BYTE   W01
 BYTE   An4
 BYTE   N01  As4
 BYTE   W01
 BYTE   Bn4
 BYTE   W01
 BYTE   Cn5
 BYTE   W01
 BYTE   N11  Cs5  v036
 BYTE   W12
 BYTE   Cs4
 BYTE   N11  Gn4
 BYTE   N11  As4
 BYTE   N11  Cs5
 BYTE   W12
 BYTE   Cn4
 BYTE   N11  Ds4
 BYTE   N11  Gs4
 BYTE   N11  Cn5
 BYTE   W12
 BYTE   Gs3
 BYTE   N11  Cn4
 BYTE   N11  Ds4
 BYTE   N11  Gs4
 BYTE   W12
 BYTE   N17  Ds3
 BYTE   N17  Gs3
 BYTE   N17  Cn4
 BYTE   N17  Ds4
 BYTE   W18
 BYTE   N02  Cn5
 BYTE   W03
 BYTE   Cs5
 BYTE   W03
//  #02 //070   ----------------------------------------
 BYTE   TIE  Ds4
 BYTE   N36  Gs4
 BYTE   TIE  Cn5
 BYTE   TIE  Ds5
 BYTE   W36
 BYTE   N48  Gs4  v020
 BYTE   W36
 BYTE   N11  Cn4
 BYTE   W12
 BYTE   N24  Gs4
 BYTE   W12
//  #02 //071   ----------------------------------------
 BYTE   W12
 BYTE   N28
 BYTE   W28
 BYTE   EOT
 BYTE   Ds4  v084
 BYTE   Ds5
 BYTE   W08
 BYTE   N44  Cs4  v036
 BYTE   N44  Gn4  v020
 BYTE   N44  As4  v036
 BYTE   N44  Cs5
 BYTE   W48
//  #02 //072   ----------------------------------------
 BYTE   N22  En4
 BYTE   N22  Gs4
 BYTE   N22  Bn4
 BYTE   N22  En5
 BYTE   W24
 BYTE   Cn4
 BYTE   N22  En4
 BYTE   N22  Gs4
 BYTE   N22  Cn5
 BYTE   W24
 BYTE   N17  As3
 BYTE   N17  Ds4
 BYTE   N17  Gn4
 BYTE   N17  As4
 BYTE   W18
 BYTE   Cn4
 BYTE   N17  Ds4
 BYTE   N17  Gn4
 BYTE   N17  Cn5
 BYTE   W18
 BYTE   N05  Ds5
 BYTE   W06
 BYTE   En5
 BYTE   W06
//  #02 //073   ----------------------------------------
 BYTE   N11  Fn4
 BYTE   N11  Gs4
 BYTE   N11  Cn5
 BYTE   N11  Fn5
 BYTE   W12
 BYTE   Cn4
 BYTE   N11  Fn4
 BYTE   N11  Gs4
 BYTE   N11  Cn5
 BYTE   W12
 BYTE   As3
 BYTE   N11  Cs4
 BYTE   N11  Fn4
 BYTE   N11  As4
 BYTE   W12
 BYTE   Cn4
 BYTE   N11  Ds4
 BYTE   N11  Gn4
 BYTE   N11  Cn5
 BYTE   W24
 BYTE   Gs3
 BYTE   N11  Cn4
 BYTE   N11  Ds4
 BYTE   N11  Gs4
 BYTE   W12
 BYTE   N22  Gs3
 BYTE   N22  Cn4
 BYTE   N22  Ds4
 BYTE   N22  Gs4
 BYTE   W24
//  #02 //074   ----------------------------------------
 BYTE   W48
 BYTE   N44  Cn3  v008
 BYTE   N44  Fn3  v016
 BYTE   N44  Gs3
 BYTE   N44  Cn4  v008
 BYTE   W48
//  #02 //075   ----------------------------------------
 BYTE   Ds3  v020
 BYTE   N44  Gn3
 BYTE   N44  Cn4
 BYTE   N44  Ds4
 BYTE   W48
 BYTE   Gs3  v024
 BYTE   N44  Cn4
 BYTE   N44  Ds4
 BYTE   N44  Gs4
 BYTE   W48
//  #02 //076   ----------------------------------------
 BYTE   N78  Cn4  v032
 BYTE   N78  Fn4
 BYTE   N78  Gs4
 BYTE   N78  Cn5
 BYTE   W84
 BYTE   N11  Cn4  v036
 BYTE   N11  Fn4
 BYTE   N11  Gs4
 BYTE   N11  Cn5
 BYTE   W12
//  #02 //077   ----------------------------------------
 BYTE   Cs4
 BYTE   N11  Gn4
 BYTE   N11  As4
 BYTE   N11  Cs5
 BYTE   W12
 BYTE   N22  Ds4
 BYTE   N22  Gn4
 BYTE   N22  As4
 BYTE   N22  Ds5
 BYTE   W72
 BYTE   N05  Gs4
 BYTE   W06
 BYTE   As4
 BYTE   W06
//  #02 //078   ----------------------------------------
 BYTE   N11  Cn4  v024
 BYTE   N11  Ds4
 BYTE   N11  Gs4
 BYTE   N11  Cn5
 BYTE   W24
 BYTE   N22  Cn4
 BYTE   N22  Ds4
 BYTE   N22  Gs4
 BYTE   N22  Cn5
 BYTE   W72
//  #02 //079   ----------------------------------------
 BYTE   N11  Gn4  v016
 BYTE   W12
 BYTE   Gs3
 BYTE   N11  Gs4
 BYTE   W12
 BYTE   Ds4  v012
 BYTE   N11  Gn4  v024
 BYTE   N11  Cn5
 BYTE   N11  Ds5  v012
 BYTE   W12
 BYTE   N22  Ds4  v024
 BYTE   N22  Gs4
 BYTE   N22  Cn5
 BYTE   N22  Ds5
 BYTE   W24
 BYTE   N05  Ds4  v012
 BYTE   W24
 BYTE   N05
 BYTE   W12
//  #02 //080   ----------------------------------------
 BYTE   W12
 BYTE   Gn4  v024
 BYTE   W06
 BYTE   Gs4
 BYTE   W06
 BYTE   N11  As3
 BYTE   N11  Cs4
 BYTE   N11  Fn4
 BYTE   N11  As4
 BYTE   W12
 BYTE   Ds3
 BYTE   N11  Gn3
 BYTE   N11  As3
 BYTE   N11  Ds4
 BYTE   W12
 BYTE   Cn4
 BYTE   N11  Ds4
 BYTE   N11  Gs4
 BYTE   N11  Cn5
 BYTE   W12
 BYTE   Ds4  v016
 BYTE   W12
 BYTE   Cn4  v024
 BYTE   N11  Ds4
 BYTE   N11  Gs4
 BYTE   N11  Cn5
 BYTE   W12
 BYTE   Ds4
 BYTE   N11  Gs4
 BYTE   N11  Cn5
 BYTE   N11  Ds5
 BYTE   W12
//  #02 //081   ----------------------------------------
 BYTE   W12
 BYTE   Ds4
 BYTE   N11  Gs4
 BYTE   N11  Cn5
 BYTE   N11  Ds5
 BYTE   W12
 BYTE   Cs4
 BYTE   N11  Fn4
 BYTE   N11  Gs4
 BYTE   N11  Cs5
 BYTE   W12
 BYTE   Cn4
 BYTE   N11  Ds4
 BYTE   N11  Gs4
 BYTE   N11  Cn5
 BYTE   W24
 BYTE   Gn3
 BYTE   N11  Cn4
 BYTE   W12
 BYTE   Gn3
 BYTE   N11  Cn4
 BYTE   W24
//  #02 //082   ----------------------------------------
 BYTE   N05  Cn4  v012
 BYTE   N05  Ds4  v024
 BYTE   N05  Gs4
 BYTE   N05  Cn5  v012
 BYTE   W24
 BYTE   N22  Cn4  v024
 BYTE   N22  Ds4
 BYTE   N22  Gs4
 BYTE   N22  Cn5
 BYTE   W36
 BYTE   N11  Gs3  v012
 BYTE   N11  Cn4  v024
 BYTE   N11  Ds4
 BYTE   N11  Gs4  v012
 BYTE   W12
 BYTE   Fn4  v024
 BYTE   N11  Gs4
 BYTE   N11  Cn5
 BYTE   N11  Fn5
 BYTE   W12
 BYTE   N22  Ds4
 BYTE   N22  Gs4
 BYTE   N22  Cn5
 BYTE   N22  Ds5
 BYTE   W12
//  #02 //083   ----------------------------------------
 BYTE   W12
 BYTE   N11  Gs3
 BYTE   N11  Cn4
 BYTE   N11  Ds4
 BYTE   N11  Gs4
 BYTE   W12
 BYTE   Cn4
 BYTE   N11  Ds4
 BYTE   N11  Gn4
 BYTE   N11  Cn5
 BYTE   W12
 BYTE   N22  Ds4
 BYTE   N22  Gs4
 BYTE   N22  Cn5
 BYTE   N22  Ds5
 BYTE   W24
 BYTE   N11  Gn3
 BYTE   N11  Cn4
 BYTE   N11  Ds4
 BYTE   W12
 BYTE   N22  Gn3
 BYTE   N22  Cn4
 BYTE   N22  Ds4
 BYTE   W24
//  #02 //084   ----------------------------------------
 BYTE   As3
 BYTE   N22  Cs4
 BYTE   N22  Fs4
 BYTE   N22  As4
 BYTE   W24
 BYTE   As3
 BYTE   N22  Cs4
 BYTE   N22  Fs4
 BYTE   N22  As4
 BYTE   W24
 BYTE   N32  As3
 BYTE   N32  Cs4
 BYTE   N32  Fs4
 BYTE   N32  As4
 BYTE   W36
 BYTE   N02
 BYTE   W02
 BYTE   Bn4
 BYTE   W02
 BYTE   Cn5
 BYTE   W03
 BYTE   Cs5
 BYTE   W02
 BYTE   Dn5
 BYTE   W03
//  #02 //085   ----------------------------------------
 BYTE   N22  Ds4
 BYTE   N22  As4
 BYTE   N22  Ds5
 BYTE   W48
 BYTE   GoTo
  POIN2 Label_01891BEE
//  #02 //086   ----------------------------------------
 BYTE   W48
 BYTE   W96
 BYTE   FINE

//**************** Track 3 (Midi-Chn.2) ****************//

song39_003:
//  #03 //000   ----------------------------------------
 BYTE   VOL   127*song39_mvl/mxv
 BYTE   KEYSH   song39_key+0
 BYTE   VOICE   1
 BYTE   MODT 0
 BYTE   LFOS 44
 BYTE   MODT 0
 BYTE   LFOS 44
 BYTE   W24
 BYTE   N11  As1  v020
 BYTE   TIE  As2
 BYTE   W12
 BYTE   N11  As1
 BYTE   W12
 BYTE   N11
 BYTE   W12
 BYTE   N11
 BYTE   W12
 BYTE   N11
 BYTE   W12
 BYTE   N11
 BYTE   W12
//  #03 //001   ----------------------------------------
 BYTE   N11
 BYTE   W12
 BYTE   N11
 BYTE   W12
 BYTE   N11
 BYTE   W12
 BYTE   N11
 BYTE   W12
 BYTE   N11
 BYTE   W12
 BYTE   N11
 BYTE   W12
 BYTE   N11
 BYTE   W12
 BYTE   N11
 BYTE   W12
//  #03 //002   ----------------------------------------
 BYTE   N11
 BYTE   W12
 BYTE   N11
 BYTE   W02
 BYTE   EOT
 BYTE   As2
 BYTE   W10
Label_0189236B:
 BYTE   N11  As1  v020
 BYTE   N11  As2
 BYTE   W12
 BYTE   As1
 BYTE   W12
 BYTE   N11
 BYTE   W12
 BYTE   N11
 BYTE   W12
 BYTE   N11
 BYTE   W12
 BYTE   N11
 BYTE   W12
//  #03 //003   ----------------------------------------
 BYTE   N11
 BYTE   W12
 BYTE   N11
 BYTE   W12
 BYTE   PEND 
Label_01892380:
 BYTE   N11  As1  v020
 BYTE   W12
 BYTE   N11
 BYTE   W12
 BYTE   N11
 BYTE   W12
 BYTE   N11
 BYTE   W12
 BYTE   N11
 BYTE   W12
 BYTE   N11
 BYTE   W12
//  #03 //004   ----------------------------------------
 BYTE   N11
 BYTE   W12
 BYTE   N11
 BYTE   W12
 BYTE   PEND 
//  #03 //005   ----------------------------------------
 BYTE   PATT
  POIN2 Label_0189236B
//  #03 //006   ----------------------------------------
 BYTE   PATT
  POIN2 Label_01892380
//  #03 //007   ----------------------------------------
 BYTE   N32  Cs2  v008
 BYTE   W36
 BYTE   N22  Bn1
 BYTE   W24
 BYTE   N11  Fs1
 BYTE   W12
 BYTE   Bn1
 BYTE   W12
 BYTE   N11
 BYTE   W12
//  #03 //008   ----------------------------------------
 BYTE   Cs2
 BYTE   W12
 BYTE   N22
 BYTE   W24
 BYTE   Fs2
 BYTE   W24
 BYTE   N11  Cs2
 BYTE   W12
 BYTE   N22  Fs2
 BYTE   W24
//  #03 //009   ----------------------------------------
 BYTE   N11  Gs1
 BYTE   W24
 BYTE   N11
 BYTE   W24
 BYTE   Cs2
 BYTE   W12
 BYTE   N11
 BYTE   W24
 BYTE   N22  Fs1
 BYTE   W12
//  #03 //010   ----------------------------------------
 BYTE   W60
 BYTE   N11  As1  v020
 BYTE   W12
 BYTE   Ds2
 BYTE   W12
 BYTE   As1
 BYTE   W12
//  #03 //011   ----------------------------------------
 BYTE   Bn1
 BYTE   N11  Fs2
 BYTE   N11  Bn2
 BYTE   W12
 BYTE   Bn1
 BYTE   N11  Fs2
 BYTE   N11  Bn2
 BYTE   W12
 BYTE   Bn1
 BYTE   N11  Fs2
 BYTE   N11  Bn2
 BYTE   W12
 BYTE   Cs2
 BYTE   N11  Gs2
 BYTE   N11  Cs3
 BYTE   W12
 BYTE   Cs2
 BYTE   N11  Gs2
 BYTE   N11  Cs3
 BYTE   W12
 BYTE   Cs2
 BYTE   N11  Gs2
 BYTE   N11  Cs3
 BYTE   W12
 BYTE   Cs2
 BYTE   N11  Gs2
 BYTE   N11  Cs3
 BYTE   W12
 BYTE   As1
 BYTE   N11  Fn2
 BYTE   N11  As2
 BYTE   W12
//  #03 //012   ----------------------------------------
 BYTE   As1
 BYTE   N11  Fn2
 BYTE   N11  As2
 BYTE   W12
 BYTE   As1
 BYTE   N11  Fn2
 BYTE   N11  As2
 BYTE   W12
 BYTE   As1
 BYTE   N11  Fn2
 BYTE   N11  As2
 BYTE   W12
 BYTE   Ds2
 BYTE   N11  As2
 BYTE   N11  Ds3
 BYTE   W12
 BYTE   Ds2
 BYTE   N11  As2
 BYTE   N11  Ds3
 BYTE   W12
 BYTE   Ds2
 BYTE   N11  As2
 BYTE   N11  Ds3
 BYTE   W12
 BYTE   Ds2
 BYTE   N11  As2
 BYTE   N11  Ds3
 BYTE   W12
 BYTE   Ds2
 BYTE   N11  As2
 BYTE   N11  Ds3
 BYTE   W12
//  #03 //013   ----------------------------------------
 BYTE   Gs1
 BYTE   N11  Ds2
 BYTE   N11  Gs2
 BYTE   W12
 BYTE   Gs1
 BYTE   N11  Ds2
 BYTE   N11  Gs2
 BYTE   W12
 BYTE   Gs1
 BYTE   N11  Ds2
 BYTE   N11  Gs2
 BYTE   W12
 BYTE   Cs2
 BYTE   N11  Gs2
 BYTE   N11  Cs3
 BYTE   W12
 BYTE   Cs2
 BYTE   N11  Gs2
 BYTE   N11  Cs3
 BYTE   W12
 BYTE   Cs2
 BYTE   N11  Gs2
 BYTE   N11  Cs3
 BYTE   W12
 BYTE   Cs2
 BYTE   N11  Gs2
 BYTE   N11  Cs3
 BYTE   W12
 BYTE   Fs1
 BYTE   N11  Cs2
 BYTE   N11  Fs2
 BYTE   W12
//  #03 //014   ----------------------------------------
 BYTE   Fs1
 BYTE   N11  Cs2
 BYTE   N11  Fs2
 BYTE   W12
 BYTE   Fs1
 BYTE   N11  Cs2
 BYTE   N11  Fs2
 BYTE   W12
 BYTE   Fs1
 BYTE   N11  Cs2
 BYTE   N11  Fs2
 BYTE   W12
 BYTE   Fs1
 BYTE   N11  Cs2
 BYTE   N11  Fs2
 BYTE   W24
 BYTE   As1
 BYTE   N11  Fn2
 BYTE   N11  As2
 BYTE   W12
 BYTE   N22  As1
 BYTE   N22  Fn2
 BYTE   N22  As2
 BYTE   W24
//  #03 //015   ----------------------------------------
 BYTE   N11  Bn1
 BYTE   N11  Fs2
 BYTE   N11  Bn2
 BYTE   W12
 BYTE   Bn1
 BYTE   N11  Fs2
 BYTE   W12
 BYTE   Bn1
 BYTE   N11  Fs2
 BYTE   N11  Bn2
 BYTE   W12
 BYTE   N22  Cs2
 BYTE   N22  Gs2
 BYTE   N22  Cs3
 BYTE   W24
 BYTE   N11  Cs2
 BYTE   N11  Gs2
 BYTE   W12
 BYTE   Cs2
 BYTE   N11  Cs3
 BYTE   W12
 BYTE   Fs2
 BYTE   N11  Bn2
 BYTE   W12
//  #03 //016   ----------------------------------------
 BYTE   As1
 BYTE   N11  Fn2
 BYTE   N11  As2
 BYTE   W12
 BYTE   As1
 BYTE   N11  Fn2
 BYTE   N11  As2
 BYTE   W12
 BYTE   As1
 BYTE   N11  Fn2
 BYTE   N11  As2
 BYTE   W12
 BYTE   N22  Ds2
 BYTE   N22  As2
 BYTE   N22  Ds3
 BYTE   W24
 BYTE   N11  As1
 BYTE   N11  Ds2
 BYTE   N11  As2
 BYTE   W12
 BYTE   N22  Ds2
 BYTE   N22  As2
 BYTE   N22  Ds3
 BYTE   W24
//  #03 //017   ----------------------------------------
 BYTE   N11  En2
 BYTE   N11  Bn2
 BYTE   N11  En3
 BYTE   W24
 BYTE   N22  En2
 BYTE   N22  Bn2
 BYTE   N22  En3
 BYTE   W24
 BYTE   N17  En2
 BYTE   N17  Bn2
 BYTE   N17  En3
 BYTE   W18
 BYTE   Ds2
 BYTE   N17  As2
 BYTE   N17  Ds3
 BYTE   W18
 BYTE   N11  Dn2
 BYTE   N11  An2
 BYTE   N11  Dn3
 BYTE   W12
//  #03 //018   ----------------------------------------
Label_018924EF:
 BYTE   N22  Cs2  v020
 BYTE   N22  Gs2
 BYTE   N22  Cs3
 BYTE   W84
 BYTE   Fs1
 BYTE   N22  Cs2
 BYTE   N22  Fs2
 BYTE   W12
//  #03 //019   ----------------------------------------
 BYTE   W84
 BYTE   N11  Fn1
 BYTE   N22  Cs2
 BYTE   N22  Fn2
 BYTE   W12
//  #03 //020   ----------------------------------------
 BYTE   N11  Fn1
 BYTE   W12
 BYTE   N11
 BYTE   N11  Cs2
 BYTE   N11  Fn2
 BYTE   W12
 BYTE   N22  Fn1
 BYTE   N22  Cs2
 BYTE   N22  Fn2
 BYTE   W72
//  #03 //021   ----------------------------------------
 BYTE   Ds1
 BYTE   N22  As1
 BYTE   N22  Ds2
 BYTE   W84
 BYTE   Cs1
 BYTE   N22  Gs1
 BYTE   N22  Cs2
 BYTE   W12
//  #03 //022   ----------------------------------------
 BYTE   W12
 BYTE   N11  Cs1
 BYTE   N11  Gs1
 BYTE   N11  Cs2
 BYTE   W12
 BYTE   N22  Cs1
 BYTE   N22  Gs1
 BYTE   N22  Cs2
 BYTE   W60
 BYTE   N90  Bn0
 BYTE   N90  Fs1
 BYTE   N22  Bn1
 BYTE   W12
//  #03 //023   ----------------------------------------
 BYTE   W12
 BYTE   N11
 BYTE   W12
 BYTE   N11
 BYTE   W12
 BYTE   N11
 BYTE   W12
 BYTE   Bn1  v016
 BYTE   W12
 BYTE   N11
 BYTE   W12
 BYTE   N11
 BYTE   W12
 BYTE   TIE  As0
 BYTE   TIE  Fn1
 BYTE   N22  As1
 BYTE   W12
//  #03 //024   ----------------------------------------
 BYTE   W12
 BYTE   N11
 BYTE   W12
 BYTE   N11
 BYTE   W12
 BYTE   N11
 BYTE   W12
 BYTE   N11
 BYTE   W12
 BYTE   N11
 BYTE   W12
 BYTE   N11
 BYTE   W12
 BYTE   N11
 BYTE   W06
 BYTE   EOT
 BYTE   As0  v041
 BYTE   W06
//  #03 //025   ----------------------------------------
 BYTE   N78  Gs0
 BYTE   N78  Ds1
 BYTE   N11  Gs1
 BYTE   W12
 BYTE   N11
 BYTE   W12
 BYTE   N11
 BYTE   W12
 BYTE   N11
 BYTE   W12
 BYTE   N11
 BYTE   W12
 BYTE   N11
 BYTE   W12
 BYTE   N11
 BYTE   W12
 BYTE   N22  Cs1
 BYTE   N22  Gs1
 BYTE   N22  Cs2
 BYTE   W12
//  #03 //026   ----------------------------------------
 BYTE   W84
 BYTE   Fs1  v024
 BYTE   TIE  Cs2
 BYTE   TIE  Fs2
 BYTE   W12
//  #03 //027   ----------------------------------------
 BYTE   W12
 BYTE   N11  Fs1
 BYTE   W12
 BYTE   N11
 BYTE   W12
 BYTE   N11
 BYTE   W12
 BYTE   N11
 BYTE   W12
 BYTE   N11
 BYTE   W12
 BYTE   N11
 BYTE   W12
 BYTE   N22  En1
 BYTE   TIE  Bn1
 BYTE   TIE  En2
 BYTE   W06
 BYTE   EOT
 BYTE   Cs2  v054
 BYTE   W06
//  #03 //028   ----------------------------------------
 BYTE   W12
 BYTE   N11  En1
 BYTE   W12
 BYTE   N11
 BYTE   W12
 BYTE   N11
 BYTE   W12
 BYTE   N11
 BYTE   W12
 BYTE   N11
 BYTE   W12
 BYTE   N11
 BYTE   W12
 BYTE   N22  Ds1
 BYTE   TIE  As1
 BYTE   TIE  Ds2
 BYTE   W06
 BYTE   EOT
 BYTE   Bn1  v052
 BYTE   W06
//  #03 //029   ----------------------------------------
 BYTE   W12
 BYTE   N11  Ds1
 BYTE   W12
 BYTE   N11
 BYTE   W12
 BYTE   N11
 BYTE   W12
 BYTE   N11
 BYTE   W12
 BYTE   N11
 BYTE   W12
 BYTE   N11
 BYTE   W12
 BYTE   N22  Cs1
 BYTE   N22  Gs1
 BYTE   N22  Cs2
 BYTE   W06
 BYTE   EOT
 BYTE   As1  v051
 BYTE   W06
//  #03 //030   ----------------------------------------
 BYTE   W12
 BYTE   N11  Cs1
 BYTE   W12
 BYTE   N11
 BYTE   W12
 BYTE   Bn0
 BYTE   W12
 BYTE   Fs0
 BYTE   N11  Cs1
 BYTE   N11  Fs1
 BYTE   W12
 BYTE   Fs0
 BYTE   W12
 BYTE   N11
 BYTE   W12
 BYTE   N22  Bn0
 BYTE   N22  Fs1
 BYTE   N22  Bn1
 BYTE   W12
//  #03 //031   ----------------------------------------
 BYTE   W12
 BYTE   N11  Bn0
 BYTE   W12
 BYTE   N11
 BYTE   W12
 BYTE   N11
 BYTE   W12
 BYTE   N11
 BYTE   N11  Fs1
 BYTE   N11  Bn1
 BYTE   W12
 BYTE   Cs1
 BYTE   N11  Gs1
 BYTE   N11  Cs2
 BYTE   W12
 BYTE   Bn0
 BYTE   N11  Fs1
 BYTE   N11  Bn1
 BYTE   W12
 BYTE   N22  As0
 BYTE   N22  Fn1
 BYTE   N22  As1
 BYTE   W12
//  #03 //032   ----------------------------------------
 BYTE   W12
 BYTE   N11  As0
 BYTE   N11  Fn1
 BYTE   N11  As1
 BYTE   W12
 BYTE   As0
 BYTE   N11  Fn1
 BYTE   N11  As1
 BYTE   W12
 BYTE   N22  Ds1
 BYTE   N22  As1
 BYTE   N22  Ds2
 BYTE   W24
 BYTE   N11  Ds1
 BYTE   N11  As1
 BYTE   W12
 BYTE   N22  Ds1
 BYTE   N22  As1
 BYTE   N22  Ds2
 BYTE   W24
//  #03 //033   ----------------------------------------
 BYTE   N11  Bn0
 BYTE   N11  Fs1
 BYTE   N11  Bn1
 BYTE   W12
 BYTE   Bn0
 BYTE   N11  Fs1
 BYTE   N11  Bn1
 BYTE   W12
 BYTE   Bn0
 BYTE   N11  Fs1
 BYTE   N11  Bn1
 BYTE   W12
 BYTE   N22  Cs1
 BYTE   N22  Gs1
 BYTE   N22  Cs2
 BYTE   W24
 BYTE   N11  Cs1
 BYTE   N11  Gs1
 BYTE   N11  Cs2
 BYTE   W12
 BYTE   N22  Cs1
 BYTE   N22  Gs1
 BYTE   N22  Cs2
 BYTE   W24
//  #03 //034   ----------------------------------------
 BYTE   Fs0
 BYTE   N22  Cs1
 BYTE   N22  Fs1
 BYTE   W96
//  #03 //035   ----------------------------------------
 BYTE   N68  Bn0  v012
 BYTE   N68  Fs1
 BYTE   N68  Bn1
 BYTE   W72
 BYTE   N22  Fs1
 BYTE   W24
//  #03 //036   ----------------------------------------
 BYTE   N32  Bn0
 BYTE   N32  Fs1
 BYTE   N32  Bn1
 BYTE   W36
 BYTE   Fs1
 BYTE   N32  Cs2
 BYTE   N32  Fs2
 BYTE   W36
 BYTE   N22  Bn0
 BYTE   N22  Fs1
 BYTE   N22  Bn1
 BYTE   W24
//  #03 //037   ----------------------------------------
 BYTE   N68  As0
 BYTE   N68  Fn1
 BYTE   N68  As1
 BYTE   W72
 BYTE   N22  Fn1
 BYTE   W24
//  #03 //038   ----------------------------------------
 BYTE   N11  As0
 BYTE   N11  Fn1
 BYTE   N11  As1
 BYTE   W12
 BYTE   As0
 BYTE   N11  Fn1
 BYTE   N11  As1
 BYTE   W12
 BYTE   As0
 BYTE   N11  Fn1
 BYTE   N11  As1
 BYTE   W12
 BYTE   As0
 BYTE   N11  Fn1
 BYTE   N11  As1
 BYTE   W24
 BYTE   Ds1
 BYTE   N11  As1
 BYTE   N11  Ds2
 BYTE   W12
 BYTE   N22  Ds1
 BYTE   N22  As1
 BYTE   N22  Ds2
 BYTE   W24
//  #03 //039   ----------------------------------------
 BYTE   N11  Gs0  v020
 BYTE   N11  Ds1
 BYTE   N11  Gs1
 BYTE   W12
 BYTE   Gs0
 BYTE   N11  Ds1
 BYTE   N11  Gs1
 BYTE   W12
 BYTE   Gs0
 BYTE   N11  Ds1
 BYTE   N11  Gs1
 BYTE   W12
 BYTE   N22  As0
 BYTE   N22  Fn1
 BYTE   N22  As1
 BYTE   W24
 BYTE   N11  As0
 BYTE   N11  Fn1
 BYTE   N11  As1
 BYTE   W12
 BYTE   Fs0
 BYTE   N11  Cs1
 BYTE   N11  Fs1
 BYTE   W12
 BYTE   As0
 BYTE   N11  Fn1
 BYTE   N11  As1
 BYTE   W12
//  #03 //040   ----------------------------------------
 BYTE   Bn0
 BYTE   N11  Fs1
 BYTE   N11  Bn1
 BYTE   W12
 BYTE   Bn0
 BYTE   N11  Fs1
 BYTE   N11  Bn1
 BYTE   W12
 BYTE   Bn0
 BYTE   N11  Fs1
 BYTE   N11  Bn1
 BYTE   W12
 BYTE   N22  As0
 BYTE   N22  Fn1
 BYTE   N22  As1
 BYTE   W24
 BYTE   N11  Fs0
 BYTE   N11  Cs1
 BYTE   N11  Fs1
 BYTE   W12
 BYTE   N22  As0
 BYTE   N22  Fn1
 BYTE   N22  As1
 BYTE   W24
//  #03 //041   ----------------------------------------
 BYTE   Bn0
 BYTE   N22  Fs1
 BYTE   N22  Bn1
 BYTE   W24
 BYTE   N11  Bn0
 BYTE   N11  Fs1
 BYTE   N11  Bn1
 BYTE   W12
 BYTE   Bn0
 BYTE   N11  Fs1
 BYTE   N11  Bn1
 BYTE   W12
 BYTE   Bn0
 BYTE   N11  Fs1
 BYTE   N11  Bn1
 BYTE   W12
 BYTE   Bn0
 BYTE   N11  Fs1
 BYTE   N11  Bn1
 BYTE   W12
 BYTE   Bn0
 BYTE   N11  Fs1
 BYTE   N11  Bn1
 BYTE   W12
 BYTE   Bn0
 BYTE   N11  Fs1
 BYTE   N11  Bn1
 BYTE   W12
//  #03 //042   ----------------------------------------
 BYTE   Cn1
 BYTE   N11  Gn1
 BYTE   N11  Cn2
 BYTE   W12
 BYTE   Cn1
 BYTE   N11  Gn1
 BYTE   N11  Cn2
 BYTE   W12
 BYTE   Cn1
 BYTE   N11  Gn1
 BYTE   N11  Cn2
 BYTE   W12
 BYTE   Cn1
 BYTE   N11  Gn1
 BYTE   N11  Cn2
 BYTE   W12
 BYTE   Cn1
 BYTE   N11  Gn1
 BYTE   N11  Cn2
 BYTE   W12
 BYTE   Gs1
 BYTE   W12
 BYTE   Fs1
 BYTE   N11  Cs2
 BYTE   N11  Fs2
 BYTE   W12
 BYTE   Gs1
 BYTE   W12
//  #03 //043   ----------------------------------------
 BYTE   Cs1
 BYTE   N11  Gs1
 BYTE   N11  Cs2
 BYTE   W12
 BYTE   Cs1
 BYTE   N11  Gs1
 BYTE   N11  Cs2
 BYTE   W12
 BYTE   Cs1
 BYTE   N11  Gs1
 BYTE   N11  Cs2
 BYTE   W12
 BYTE   Cs1
 BYTE   N11  Gs1
 BYTE   N11  Cs2
 BYTE   W12
 BYTE   Cs1
 BYTE   N11  Gs1
 BYTE   N11  Cs2
 BYTE   W12
 BYTE   Cs1
 BYTE   N11  Gs1
 BYTE   N11  Cs2
 BYTE   W12
 BYTE   Cs1
 BYTE   N11  Gs1
 BYTE   N11  Cs2
 BYTE   W12
 BYTE   N22  Cs1
 BYTE   N22  Gs1
 BYTE   N22  Cs2
 BYTE   W12
//  #03 //044   ----------------------------------------
 BYTE   W12
 BYTE   N11  Cs1
 BYTE   N11  Gs1
 BYTE   N11  Cs2
 BYTE   W12
 BYTE   Gs1
 BYTE   W12
 BYTE   Cs1
 BYTE   N11  Gs1
 BYTE   N11  Cs2
 BYTE   W12
 BYTE   Cs1
 BYTE   N11  Gs1
 BYTE   N11  Cs2
 BYTE   W12
 BYTE   Gs1
 BYTE   W12
 BYTE   Cs1
 BYTE   N11  Gs1
 BYTE   N11  Cs2
 BYTE   W12
 BYTE   Cs1
 BYTE   N11  Gs1
 BYTE   N11  Cs2
 BYTE   W12
//  #03 //045   ----------------------------------------
 BYTE   W12
 BYTE   Ds1
 BYTE   N11  As1
 BYTE   N11  Ds2
 BYTE   W12
 BYTE   Ds1
 BYTE   N11  As1
 BYTE   N11  Ds2
 BYTE   W12
 BYTE   Bn0
 BYTE   N11  Fs1
 BYTE   N11  Bn1
 BYTE   W12
 BYTE   Ds1
 BYTE   N11  As1
 BYTE   N11  Ds2
 BYTE   W12
 BYTE   N05  Ds1
 BYTE   N05  As1
 BYTE   N05  Ds2
 BYTE   W06
 BYTE   Ds1
 BYTE   N05  As1
 BYTE   N05  Ds2
 BYTE   W06
 BYTE   N22  Ds1
 BYTE   N22  As1
 BYTE   N22  Ds2
 BYTE   W24
//  #03 //046   ----------------------------------------
 BYTE   N11  Ds1
 BYTE   N11  As1
 BYTE   N11  Ds2
 BYTE   W12
 BYTE   Ds1
 BYTE   N11  As1
 BYTE   N11  Ds2
 BYTE   W84
//  #03 //047   ----------------------------------------
Label_018927DB:
 BYTE   N22  Gs0  v020
 BYTE   N22  Ds1
 BYTE   N22  Gs1
 BYTE   W24
 BYTE   N11  Gs0
 BYTE   N11  Ds1
 BYTE   N11  Gs1
 BYTE   W12
 BYTE   Gs0
 BYTE   N11  Ds1
 BYTE   N11  Gs1
 BYTE   W12
 BYTE   Gs0
 BYTE   N11  Ds1
 BYTE   N11  Gs1
 BYTE   W12
 BYTE   Gs0
 BYTE   N11  Ds1
 BYTE   N11  Gs1
 BYTE   W12
 BYTE   Gs0
 BYTE   N11  Ds1
 BYTE   N11  Gs1
 BYTE   W12
 BYTE   Gs0
 BYTE   N11  Ds1
 BYTE   N11  Gs1
 BYTE   W12
 BYTE   PEND 
//  #03 //048   ----------------------------------------
Label_01892809:
 BYTE   N11  Cn1  v020
 BYTE   N11  Gn1
 BYTE   N11  Cn2
 BYTE   W12
 BYTE   Cn1
 BYTE   N11  Gn1
 BYTE   N11  Cn2
 BYTE   W12
 BYTE   Cn1
 BYTE   N11  Gn1
 BYTE   N11  Cn2
 BYTE   W12
 BYTE   Cn1
 BYTE   N11  Gn1
 BYTE   N11  Cn2
 BYTE   W12
 BYTE   Cn1
 BYTE   N11  Gn1
 BYTE   N11  Cn2
 BYTE   W12
 BYTE   Cn1
 BYTE   N11  Gn1
 BYTE   N11  Cn2
 BYTE   W12
 BYTE   Cn1
 BYTE   N11  Gn1
 BYTE   N11  Cn2
 BYTE   W12
 BYTE   Cn1
 BYTE   N11  Gn1
 BYTE   N11  Cn2
 BYTE   W12
 BYTE   PEND 
//  #03 //049   ----------------------------------------
Label_0189283C:
 BYTE   N11  Cs1  v020
 BYTE   N11  Gs1
 BYTE   N11  Cs2
 BYTE   W12
 BYTE   Cs1
 BYTE   N11  Gs1
 BYTE   N11  Cs2
 BYTE   W12
 BYTE   Cs1
 BYTE   N11  Gs1
 BYTE   N11  Cs2
 BYTE   W12
 BYTE   Cs1
 BYTE   N11  Gs1
 BYTE   N11  Cs2
 BYTE   W12
 BYTE   Cs1
 BYTE   N11  Gs1
 BYTE   N11  Cs2
 BYTE   W12
 BYTE   Cs1
 BYTE   N11  Gs1
 BYTE   N11  Cs2
 BYTE   W12
 BYTE   Cs1
 BYTE   N11  Gs1
 BYTE   N11  Cs2
 BYTE   W12
 BYTE   Cs1
 BYTE   N11  Gs1
 BYTE   N11  Cs2
 BYTE   W12
 BYTE   PEND 
//  #03 //050   ----------------------------------------
Label_0189286F:
 BYTE   N11  Ds1  v020
 BYTE   N11  As1
 BYTE   N11  Ds2
 BYTE   W12
 BYTE   Ds1
 BYTE   N11  As1
 BYTE   N11  Ds2
 BYTE   W12
 BYTE   Ds1
 BYTE   N11  As1
 BYTE   N11  Ds2
 BYTE   W12
 BYTE   Ds1
 BYTE   N11  As1
 BYTE   N11  Ds2
 BYTE   W12
 BYTE   Cs1
 BYTE   N11  Gs1
 BYTE   N11  Cs2
 BYTE   W12
 BYTE   Cs1
 BYTE   N11  Gs1
 BYTE   N11  Cs2
 BYTE   W12
 BYTE   Cs1
 BYTE   N11  Gs1
 BYTE   N11  Cs2
 BYTE   W12
 BYTE   Cs1
 BYTE   N11  Gs1
 BYTE   N11  Cs2
 BYTE   W12
 BYTE   PEND 
//  #03 //051   ----------------------------------------
 BYTE   PATT
  POIN2 Label_01892809
//  #03 //052   ----------------------------------------
Label_018928A7:
 BYTE   N11  Ds0  v020
 BYTE   N11  Ds1
 BYTE   W12
 BYTE   Ds0
 BYTE   N11  Ds1
 BYTE   W12
 BYTE   Ds0
 BYTE   N11  Ds1
 BYTE   W12
 BYTE   Ds0
 BYTE   N11  Ds1
 BYTE   W12
 BYTE   Ds0
 BYTE   N11  Ds1
 BYTE   W12
 BYTE   Ds0
 BYTE   N11  Ds1
 BYTE   W12
 BYTE   Ds0
 BYTE   N11  Ds1
 BYTE   W12
 BYTE   Ds0
 BYTE   N11  Ds1
 BYTE   W12
 BYTE   PEND 
//  #03 //053   ----------------------------------------
Label_018928CA:
 BYTE   N11  Fn0  v020
 BYTE   N11  Fn1
 BYTE   W12
 BYTE   Fn0
 BYTE   N11  Fn1
 BYTE   W12
 BYTE   Fn0
 BYTE   N11  Fn1
 BYTE   W12
 BYTE   Fn0
 BYTE   N11  Fn1
 BYTE   W12
 BYTE   Fn0
 BYTE   N11  Fn1
 BYTE   W12
 BYTE   Fn0
 BYTE   N11  Fn1
 BYTE   W12
 BYTE   Fn0
 BYTE   N11  Fn1
 BYTE   W12
 BYTE   Fn0
 BYTE   N11  Fn1
 BYTE   W12
 BYTE   PEND 
//  #03 //054   ----------------------------------------
Label_018928ED:
 BYTE   N11  Ds1  v020
 BYTE   N11  As1
 BYTE   N11  Ds2
 BYTE   W12
 BYTE   Ds1
 BYTE   N11  As1
 BYTE   N11  Ds2
 BYTE   W12
 BYTE   Ds1
 BYTE   N11  As1
 BYTE   N11  Ds2
 BYTE   W12
 BYTE   Ds1
 BYTE   N11  As1
 BYTE   N11  Ds2
 BYTE   W12
 BYTE   Gs0
 BYTE   N11  Ds1
 BYTE   N11  Gs1
 BYTE   W12
 BYTE   Gs0
 BYTE   N11  Ds1
 BYTE   N11  Gs1
 BYTE   W12
 BYTE   Gs0
 BYTE   N11  Ds1
 BYTE   N11  Gs1
 BYTE   W12
 BYTE   Gs0
 BYTE   N11  Ds1
 BYTE   N11  Gs1
 BYTE   W12
 BYTE   PEND 
//  #03 //055   ----------------------------------------
Label_01892920:
 BYTE   N22  Cs1  v020
 BYTE   N22  Gs1
 BYTE   N22  Cs2
 BYTE   W24
 BYTE   N11  Cs1
 BYTE   N11  Gs1
 BYTE   N11  Cs2
 BYTE   W12
 BYTE   Cs1
 BYTE   N11  Gs1
 BYTE   N11  Cs2
 BYTE   W12
 BYTE   Cs1
 BYTE   N11  Gs1
 BYTE   N11  Cs2
 BYTE   W12
 BYTE   Cs1
 BYTE   N11  Gs1
 BYTE   N11  Cs2
 BYTE   W12
 BYTE   Cs1
 BYTE   N11  Gs1
 BYTE   N11  Cs2
 BYTE   W12
 BYTE   Cs1
 BYTE   N11  Gs1
 BYTE   N11  Cs2
 BYTE   W12
 BYTE   PEND 
//  #03 //056   ----------------------------------------
 BYTE   PATT
  POIN2 Label_0189283C
//  #03 //057   ----------------------------------------
 BYTE   N22  Cn1  v020
 BYTE   N22  Gn1
 BYTE   N22  Cn2
 BYTE   W24
 BYTE   N11  Cn1
 BYTE   N11  Gn1
 BYTE   N11  Cn2
 BYTE   W12
 BYTE   Cn1
 BYTE   N11  Gn1
 BYTE   N11  Cn2
 BYTE   W12
 BYTE   Cn1
 BYTE   N11  Gn1
 BYTE   N11  Cn2
 BYTE   W12
 BYTE   Cn1
 BYTE   N11  Gn1
 BYTE   N11  Cn2
 BYTE   W12
 BYTE   Cn1
 BYTE   N11  Gn1
 BYTE   N11  Cn2
 BYTE   W12
 BYTE   N22  Fn0
 BYTE   N22  Cn1
 BYTE   N22  Fn1
 BYTE   W12
//  #03 //058   ----------------------------------------
 BYTE   W12
 BYTE   N11  Fn0
 BYTE   N11  Cn1
 BYTE   N11  Fn1
 BYTE   W12
 BYTE   Fn0
 BYTE   N11  Cn1
 BYTE   N11  Fn1
 BYTE   W12
 BYTE   Fn0
 BYTE   N11  Cn1
 BYTE   N11  Fn1
 BYTE   W12
 BYTE   Fn0
 BYTE   N11  Cn1
 BYTE   N11  Fn1
 BYTE   W12
 BYTE   Fn0
 BYTE   N11  Cn1
 BYTE   N11  Fn1
 BYTE   W12
 BYTE   Fn0
 BYTE   N11  Cn1
 BYTE   N11  Fn1
 BYTE   W12
 BYTE   Fn0
 BYTE   N11  Cn1
 BYTE   N11  Fn1
 BYTE   W12
//  #03 //059   ----------------------------------------
 BYTE   Fs1
 BYTE   W12
 BYTE   N11
 BYTE   W12
 BYTE   Cs1
 BYTE   N11  Gs1
 BYTE   N11  Cs2
 BYTE   W12
 BYTE   N32  Fs1
 BYTE   N32  Cs2
 BYTE   N32  Fs2
 BYTE   W36
 BYTE   N11  Fs1
 BYTE   W12
 BYTE   N11
 BYTE   W12
//  #03 //060   ----------------------------------------
 BYTE   Cs1
 BYTE   N11  Gs1
 BYTE   N11  Cs2
 BYTE   W12
 BYTE   N32  Fs1
 BYTE   N32  Cs2
 BYTE   N32  Fs2
 BYTE   W36
 BYTE   N11  Fs1
 BYTE   N11  Cs2
 BYTE   N11  Fs2
 BYTE   W12
 BYTE   Fs1
 BYTE   N11  Cs2
 BYTE   N11  Fs2
 BYTE   W12
 BYTE   N22  Fs1
 BYTE   N22  Cs2
 BYTE   N22  Fs2
 BYTE   W24
//  #03 //061   ----------------------------------------
 BYTE   Ds1
 BYTE   N22  As1
 BYTE   N22  Ds2
 BYTE   W24
 BYTE   N11  Ds1
 BYTE   N11  As1
 BYTE   N11  Ds2
 BYTE   W12
 BYTE   Ds1
 BYTE   N11  As1
 BYTE   N11  Ds2
 BYTE   W12
 BYTE   Ds1
 BYTE   N11  As1
 BYTE   N11  Ds2
 BYTE   W12
 BYTE   Ds1
 BYTE   N11  As1
 BYTE   N11  Ds2
 BYTE   W12
 BYTE   Ds1
 BYTE   N11  As1
 BYTE   N11  Ds2
 BYTE   W12
 BYTE   Ds1
 BYTE   N11  As1
 BYTE   N11  Ds2
 BYTE   W12
//  #03 //062   ----------------------------------------
 BYTE   Ds1
 BYTE   N11  As1
 BYTE   N11  Ds2
 BYTE   W12
 BYTE   Ds1
 BYTE   N11  As1
 BYTE   N11  Ds2
 BYTE   W12
 BYTE   N22  Ds1
 BYTE   N22  As1
 BYTE   N22  Ds2
 BYTE   W24
 BYTE   Fn1
 BYTE   N22  Cn2
 BYTE   N22  Fn2
 BYTE   W24
 BYTE   Cn1
 BYTE   N22  Gn1
 BYTE   N22  Cn2
 BYTE   W24
//  #03 //063   ----------------------------------------
 BYTE   PATT
  POIN2 Label_018927DB
//  #03 //064   ----------------------------------------
 BYTE   PATT
  POIN2 Label_01892809
//  #03 //065   ----------------------------------------
 BYTE   PATT
  POIN2 Label_0189283C
//  #03 //066   ----------------------------------------
 BYTE   PATT
  POIN2 Label_0189286F
//  #03 //067   ----------------------------------------
 BYTE   PATT
  POIN2 Label_01892809
//  #03 //068   ----------------------------------------
 BYTE   PATT
  POIN2 Label_018928A7
//  #03 //069   ----------------------------------------
 BYTE   PATT
  POIN2 Label_018928CA
//  #03 //070   ----------------------------------------
 BYTE   PATT
  POIN2 Label_018928ED
//  #03 //071   ----------------------------------------
 BYTE   PATT
  POIN2 Label_01892920
//  #03 //072   ----------------------------------------
 BYTE   N11  Ds1  v020
 BYTE   N11  As1
 BYTE   N11  Ds2
 BYTE   W12
 BYTE   Ds1
 BYTE   N11  As1
 BYTE   N11  Ds2
 BYTE   W12
 BYTE   Ds1
 BYTE   N11  As1
 BYTE   N11  Ds2
 BYTE   W12
 BYTE   Ds1
 BYTE   N11  As1
 BYTE   N11  Ds2
 BYTE   W12
 BYTE   Ds1
 BYTE   N11  As1
 BYTE   N11  Ds2
 BYTE   W12
 BYTE   Ds1
 BYTE   N11  As1
 BYTE   N11  Ds2
 BYTE   W12
 BYTE   Ds1
 BYTE   N11  As1
 BYTE   N11  Ds2
 BYTE   W12
 BYTE   Ds1
 BYTE   N11  As1
 BYTE   N11  Ds2
 BYTE   W12
//  #03 //073   ----------------------------------------
 BYTE   En1
 BYTE   N11  Bn1
 BYTE   N11  En2
 BYTE   W12
 BYTE   En1
 BYTE   N11  Bn1
 BYTE   N11  En2
 BYTE   W12
 BYTE   En1
 BYTE   N11  Bn1
 BYTE   N11  En2
 BYTE   W12
 BYTE   Cn1
 BYTE   N11  Gn1
 BYTE   N11  Cn2
 BYTE   W12
 BYTE   Cn1
 BYTE   N11  Gn1
 BYTE   N11  Cn2
 BYTE   W12
 BYTE   Cn1
 BYTE   N11  Gn1
 BYTE   N11  Cn2
 BYTE   W12
 BYTE   En1
 BYTE   N11  Bn1
 BYTE   N11  En2
 BYTE   W12
 BYTE   En1
 BYTE   N11  Bn1
 BYTE   N11  En2
 BYTE   W12
//  #03 //074   ----------------------------------------
 BYTE   Fn1
 BYTE   N11  Cn2
 BYTE   N11  Fn2
 BYTE   W12
 BYTE   Fn1
 BYTE   N11  Cn2
 BYTE   N11  Fn2
 BYTE   W12
 BYTE   Fn1
 BYTE   N11  Cn2
 BYTE   N11  Fn2
 BYTE   W12
 BYTE   Gn1
 BYTE   N11  Dn2
 BYTE   N11  Gn2
 BYTE   W12
 BYTE   Gs1
 BYTE   N11  Ds2
 BYTE   N11  Gs2
 BYTE   W12
 BYTE   Gs1
 BYTE   N11  Ds2
 BYTE   N11  Gs2
 BYTE   W12
 BYTE   N22  Gs1
 BYTE   N22  Ds2
 BYTE   N22  Gs2
 BYTE   W24
//  #03 //075   ----------------------------------------
 BYTE   N44  As0
 BYTE   N44  Fn1
 BYTE   N44  As1
 BYTE   W48
 BYTE   N11  As0
 BYTE   N11  Fn1
 BYTE   N11  As1
 BYTE   W12
 BYTE   As0
 BYTE   N11  Fn1
 BYTE   N11  As1
 BYTE   W12
 BYTE   As0
 BYTE   N11  Fn1
 BYTE   N11  As1
 BYTE   W12
 BYTE   As0
 BYTE   N11  Fn1
 BYTE   N11  As1
 BYTE   W12
//  #03 //076   ----------------------------------------
 BYTE   Cn1  v024
 BYTE   N11  Gn1
 BYTE   N11  Cn2
 BYTE   W12
 BYTE   Cn1
 BYTE   N11  Gn1
 BYTE   N11  Cn2
 BYTE   W12
 BYTE   Cn1
 BYTE   N11  Gn1
 BYTE   N11  Cn2
 BYTE   W12
 BYTE   Cn1
 BYTE   N11  Gn1
 BYTE   N11  Cn2
 BYTE   W12
 BYTE   Cn1  v028
 BYTE   N11  Gn1
 BYTE   N11  Cn2
 BYTE   W12
 BYTE   Cn1  v032
 BYTE   N11  Gn1
 BYTE   N11  Cn2
 BYTE   W12
 BYTE   Cn1
 BYTE   N11  Gn1
 BYTE   N11  Cn2
 BYTE   W12
 BYTE   Cn1  v036
 BYTE   N11  Gn1
 BYTE   N11  Cn2
 BYTE   W12
//  #03 //077   ----------------------------------------
 BYTE   Cs1  v040
 BYTE   N11  Gs1
 BYTE   N11  Cs2
 BYTE   W12
 BYTE   N22  Cs1  v044
 BYTE   N22  Gs1
 BYTE   N22  Cs2
 BYTE   W24
 BYTE   N11  Cs1  v052
 BYTE   N11  Gs1
 BYTE   N11  Cs2
 BYTE   W12
 BYTE   Cs1  v056
 BYTE   N11  Gs1
 BYTE   N11  Cs2
 BYTE   W12
 BYTE   Cn1  v060
 BYTE   N11  Gn1
 BYTE   N11  Cn2
 BYTE   W12
 BYTE   Cs1  v068
 BYTE   N11  Gs1
 BYTE   N11  Cs2
 BYTE   W12
 BYTE   Cs1  v036
 BYTE   N11  Gs1
 BYTE   N11  Cs2
 BYTE   W12
//  #03 //078   ----------------------------------------
 BYTE   Ds1
 BYTE   N11  As1
 BYTE   N11  Ds2
 BYTE   W12
 BYTE   Ds1
 BYTE   N11  As1
 BYTE   N11  Ds2
 BYTE   W84
//  #03 //079   ----------------------------------------
 BYTE   Cs1  v020
 BYTE   N11  Gs1
 BYTE   N11  Cs2
 BYTE   W12
 BYTE   Cs1
 BYTE   N11  Gs1
 BYTE   N11  Cs2
 BYTE   W12
 BYTE   Cs1
 BYTE   N11  Gs1
 BYTE   N11  Cs2
 BYTE   W12
 BYTE   Ds1
 BYTE   N11  As1
 BYTE   N11  Ds2
 BYTE   W12
 BYTE   Ds1
 BYTE   N11  As1
 BYTE   N11  Ds2
 BYTE   W12
 BYTE   Ds1
 BYTE   N11  As1
 BYTE   N11  Ds2
 BYTE   W12
 BYTE   Ds1
 BYTE   N11  As1
 BYTE   N11  Ds2
 BYTE   W12
 BYTE   Cn1
 BYTE   N11  Gn1
 BYTE   N11  Cn2
 BYTE   W12
//  #03 //080   ----------------------------------------
 BYTE   Cn1
 BYTE   N11  Gn1
 BYTE   N11  Cn2
 BYTE   W12
 BYTE   Cn1
 BYTE   N11  Gn1
 BYTE   N11  Cn2
 BYTE   W12
 BYTE   Cn1
 BYTE   N11  Gn1
 BYTE   N11  Cn2
 BYTE   W12
 BYTE   Fn1
 BYTE   N11  Cn2
 BYTE   N11  Fn2
 BYTE   W12
 BYTE   Fn1
 BYTE   N11  Cn2
 BYTE   N11  Fn2
 BYTE   W12
 BYTE   Fn1
 BYTE   N11  Cn2
 BYTE   N11  Fn2
 BYTE   W12
 BYTE   Fn1
 BYTE   N11  Cn2
 BYTE   N11  Fn2
 BYTE   W12
 BYTE   Fn1
 BYTE   N11  Cn2
 BYTE   N11  Fn2
 BYTE   W12
//  #03 //081   ----------------------------------------
 BYTE   As0
 BYTE   N11  Fn1
 BYTE   N11  As1
 BYTE   W12
 BYTE   As0
 BYTE   N11  Fn1
 BYTE   N11  As1
 BYTE   W12
 BYTE   As0
 BYTE   N11  Fn1
 BYTE   N11  As1
 BYTE   W12
 BYTE   Ds1
 BYTE   N11  As1
 BYTE   N11  Ds2
 BYTE   W12
 BYTE   Ds1
 BYTE   N11  As1
 BYTE   N11  Ds2
 BYTE   W12
 BYTE   Ds1
 BYTE   N11  As1
 BYTE   N11  Ds2
 BYTE   W12
 BYTE   Ds1
 BYTE   N11  As1
 BYTE   N11  Ds2
 BYTE   W12
 BYTE   Gs0
 BYTE   N11  Ds1
 BYTE   N11  Gs1
 BYTE   W12
//  #03 //082   ----------------------------------------
 BYTE   Gs0
 BYTE   N11  Ds1
 BYTE   N11  Gs1
 BYTE   W12
 BYTE   Gs0
 BYTE   N11  Ds1
 BYTE   N11  Gs1
 BYTE   W12
 BYTE   Gs0
 BYTE   N11  Ds1
 BYTE   N11  Gs1
 BYTE   W12
 BYTE   Gs0
 BYTE   N11  Ds1
 BYTE   N11  Gs1
 BYTE   W24
 BYTE   Cn1
 BYTE   N11  Gn1
 BYTE   N11  Cn2
 BYTE   W12
 BYTE   Cn1
 BYTE   N11  Gn1
 BYTE   W12
 BYTE   Cn1
 BYTE   N11  Gn1
 BYTE   N11  Cn2
 BYTE   W12
//  #03 //083   ----------------------------------------
 BYTE   Cs1
 BYTE   N11  Gs1
 BYTE   N11  Cs2
 BYTE   W12
 BYTE   Cs1
 BYTE   N11  Gs1
 BYTE   W12
 BYTE   Cs1
 BYTE   N11  Gs1
 BYTE   N11  Cs2
 BYTE   W12
 BYTE   N22  Ds1
 BYTE   N22  As1
 BYTE   N22  Ds2
 BYTE   W24
 BYTE   N11  Ds1
 BYTE   N11  As1
 BYTE   W12
 BYTE   Ds1
 BYTE   N11  Ds2
 BYTE   W12
 BYTE   Gs1
 BYTE   N11  Cs2
 BYTE   W12
//  #03 //084   ----------------------------------------
 BYTE   Cn1
 BYTE   N11  Gn1
 BYTE   N11  Cn2
 BYTE   W12
 BYTE   Cn1
 BYTE   N11  Gn1
 BYTE   N11  Cn2
 BYTE   W12
 BYTE   Cn1
 BYTE   N11  Gn1
 BYTE   N11  Cn2
 BYTE   W12
 BYTE   N22  Fn1
 BYTE   N22  Cn2
 BYTE   N22  Fn2
 BYTE   W24
 BYTE   N11  Cn1
 BYTE   N11  Fn1
 BYTE   N11  Cn2
 BYTE   W12
 BYTE   N22  Fn1
 BYTE   N22  Cn2
 BYTE   N22  Fn2
 BYTE   W24
//  #03 //085   ----------------------------------------
 BYTE   N11  Fs1
 BYTE   N11  Cs2
 BYTE   N11  Fs2
 BYTE   W24
 BYTE   N22  Fs1
 BYTE   N22  Cs2
 BYTE   N22  Fs2
 BYTE   W24
 BYTE   N17  Fs1
 BYTE   N17  Cs2
 BYTE   N17  Fs2
 BYTE   W18
 BYTE   Fn1
 BYTE   N17  Cn2
 BYTE   N17  Fn2
 BYTE   W18
 BYTE   N11  En1
 BYTE   N11  Bn1
 BYTE   N11  En2
 BYTE   W12
//  #03 //086   ----------------------------------------
 BYTE   N22  Ds1
 BYTE   N22  As1
 BYTE   N22  Ds2
 BYTE   W48
 BYTE   GoTo
  POIN2 Label_018924EF
//  #03 //087   ----------------------------------------
 BYTE   W48
 BYTE   W96
 BYTE   FINE

//**************** Track 4 (Midi-Chn.3) ****************//

song39_004:
//  #04 //000   ----------------------------------------
 BYTE   KEYSH   song39_key+0
 BYTE   VOICE   121
 BYTE   MODT 0
 BYTE   LFOS 44
 BYTE   MODT 0
 BYTE   LFOS 44
 BYTE   VOL   100*song39_mvl/mxv
 BYTE   PAN   c_v+0
 BYTE   W24
 BYTE   N23  Cn1  v036
 BYTE   W12
 BYTE   N11  En1  v040
 BYTE   W12
 BYTE   N05  Cn1  v036
 BYTE   W06
 BYTE   N05
 BYTE   W06
 BYTE   N11  En1  v040
 BYTE   W12
 BYTE   Cn1  v036
 BYTE   W12
 BYTE   N05  Cn1  v008
 BYTE   W06
 BYTE   En1  v040
 BYTE   W06
//  #04 //001   ----------------------------------------
 BYTE   N23  Cn1  v036
 BYTE   W24
 BYTE   N05
 BYTE   W06
 BYTE   N05
 BYTE   W06
 BYTE   N11  En1
 BYTE   W12
 BYTE   Cn1
 BYTE   W12
 BYTE   N11
 BYTE   W06
 BYTE   N05  En1
 BYTE   W06
 BYTE   N11
 BYTE   W12
 BYTE   N05  En1  v004
 BYTE   W06
 BYTE   N05
 BYTE   W06
//  #04 //002   ----------------------------------------
 BYTE   En1  v036
 BYTE   W06
 BYTE   N05
 BYTE   W06
 BYTE   Dn1
 BYTE   W06
 BYTE   Dn1  v008
 BYTE   W06
 BYTE   N11  Cn1  v036
 BYTE   W12
 BYTE   En1
 BYTE   W12
 BYTE   N05  Cn1
 BYTE   W06
 BYTE   N05
 BYTE   W06
 BYTE   N11  En1
 BYTE   W12
 BYTE   Cn1
 BYTE   W12
 BYTE   N05  En1  v016
 BYTE   W06
 BYTE   N05
 BYTE   W06
//  #04 //003   ----------------------------------------
 BYTE   N11  Cn1  v036
 BYTE   N11  En1
 BYTE   W18
 BYTE   N05
 BYTE   W06
 BYTE   N11  Cn1
 BYTE   N05  En1  v016
 BYTE   W06
 BYTE   N05
 BYTE   W06
 BYTE   N11  An1  v036
 BYTE   W12
 BYTE   Cn1
 BYTE   N05  An1
 BYTE   W06
 BYTE   En1
 BYTE   W06
 BYTE   N05
 BYTE   W06
 BYTE   N05
 BYTE   W06
 BYTE   N11  Cn1
 BYTE   N11  An1
 BYTE   W12
 BYTE   N05  En1  v016
 BYTE   W06
 BYTE   N05
 BYTE   W06
//  #04 //004   ----------------------------------------
 BYTE   N11  En1  v036
 BYTE   W12
 BYTE   An1
 BYTE   W12
 BYTE   Cn1
 BYTE   W12
 BYTE   N05  En1
 BYTE   W06
 BYTE   N05
 BYTE   W06
 BYTE   N11
 BYTE   W12
 BYTE   Cn1
 BYTE   W12
 BYTE   N05  En1
 BYTE   W06
 BYTE   N05
 BYTE   W06
 BYTE   N05
 BYTE   W06
 BYTE   N05
 BYTE   W06
//  #04 //005   ----------------------------------------
 BYTE   N11  Cn1
 BYTE   W06
 BYTE   N05  En1
 BYTE   W06
 BYTE   N05
 BYTE   W06
 BYTE   N05
 BYTE   W06
 BYTE   W06
 BYTE   Cn1
 BYTE   W06
 BYTE   N11  En1
 BYTE   W30
 BYTE   N05  Cn1
 BYTE   W06
 BYTE   N11  En1
 BYTE   W18
 BYTE   N05  Cn1
 BYTE   W06
//  #04 //006   ----------------------------------------
 BYTE   N23  En1
 BYTE   W06
 BYTE   N05  Cn1
 BYTE   W18
 BYTE   N23
 BYTE   N23  En2
 BYTE   W24
 BYTE   Cs1
 BYTE   W24
 BYTE   N23
 BYTE   W24
//  #04 //007   ----------------------------------------
 BYTE   N23
 BYTE   W24
 BYTE   N23
 BYTE   W12
 BYTE   N11  Cn1
 BYTE   W12
 BYTE   N23  Cs1
 BYTE   W24
 BYTE   N23
 BYTE   W24
//  #04 //008   ----------------------------------------
 BYTE   N23
 BYTE   N23  As1
 BYTE   W24
 BYTE   Cn1
 BYTE   N23  En1  v076
 BYTE   W24
 BYTE   Cn1  v036
 BYTE   N23  En1  v076
 BYTE   N23  As1  v036
 BYTE   W24
 BYTE   N11  Cn1
 BYTE   N11  En1  v076
 BYTE   W12
 BYTE   Cn1  v036
 BYTE   N11  En1  v076
 BYTE   W24
//  #04 //009   ----------------------------------------
 BYTE   Cn1  v036
 BYTE   N11  En1  v076
 BYTE   N11  As1  v036
 BYTE   W12
 BYTE   W60
 BYTE   N05  Cn1
 BYTE   W06
 BYTE   N05
 BYTE   W06
 BYTE   N23  En1  v076
 BYTE   N23  Cs2  v036
 BYTE   W24
//  #04 //010   ----------------------------------------
 BYTE   Cn1
 BYTE   W24
 BYTE   En1  v076
 BYTE   N23  As1  v036
 BYTE   W12
 BYTE   N11  Cn1
 BYTE   W12
 BYTE   N23  En1  v076
 BYTE   N23  As1  v036
 BYTE   W12
 BYTE   N11  Cn1
 BYTE   W12
 BYTE   N23  En1  v076
 BYTE   N23  As1  v036
 BYTE   W12
 BYTE   N05  Cn1
 BYTE   W06
 BYTE   N05
 BYTE   W06
//  #04 //011   ----------------------------------------
 BYTE   N23  En1  v076
 BYTE   N23  As1  v036
 BYTE   W12
 BYTE   N11  Cn1
 BYTE   W12
 BYTE   N23  En1  v076
 BYTE   N23  As1  v036
 BYTE   W24
 BYTE   En1  v076
 BYTE   N23  As1  v036
 BYTE   W12
 BYTE   N11  Cn1
 BYTE   W12
 BYTE   N23  En1  v076
 BYTE   N23  As1  v036
 BYTE   W12
 BYTE   N11  Cn1
 BYTE   W12
//  #04 //012   ----------------------------------------
 BYTE   N23
 BYTE   N23  Cs2
 BYTE   W24
 BYTE   En1  v076
 BYTE   N23  As1  v036
 BYTE   W12
 BYTE   N11  Cn1
 BYTE   W12
 BYTE   N23  En1  v076
 BYTE   N23  As1  v036
 BYTE   W12
 BYTE   N11  Cn1
 BYTE   W12
 BYTE   N23  En1  v076
 BYTE   N23  As1  v036
 BYTE   W12
 BYTE   N11  Cn1
 BYTE   W12
//  #04 //013   ----------------------------------------
Label_01892E27:
 BYTE   N23  En1  v076
 BYTE   N23  As1  v036
 BYTE   W12
 BYTE   N11  Cn1
 BYTE   W12
 BYTE   Fn1
 BYTE   W12
 BYTE   Cn1
 BYTE   N11  Cs2
 BYTE   W24
 BYTE   En1  v076
 BYTE   W12
 BYTE   N23
 BYTE   W24
 BYTE   PEND 
//  #04 //014   ----------------------------------------
Label_01892E3D:
 BYTE   N11  Cn1  v036
 BYTE   N23  Cs2
 BYTE   W12
 BYTE   N11  Cn1
 BYTE   W12
 BYTE   En1  v076
 BYTE   W12
 BYTE   Cn1  v036
 BYTE   N11  Cs2
 BYTE   W24
 BYTE   Cn1
 BYTE   W12
 BYTE   En1  v076
 BYTE   N11  Cs2  v036
 BYTE   W12
 BYTE   N05  En1
 BYTE   W06
 BYTE   N05
 BYTE   W06
 BYTE   PEND 
//  #04 //015   ----------------------------------------
Label_01892E5C:
 BYTE   N11  Cn1  v036
 BYTE   W12
 BYTE   N11
 BYTE   W12
 BYTE   En1  v076
 BYTE   W12
 BYTE   Cn1  v036
 BYTE   N11  Cs2
 BYTE   W24
 BYTE   Cn1
 BYTE   W12
 BYTE   En1  v076
 BYTE   N11  As1  v036
 BYTE   W12
 BYTE   N05  En1
 BYTE   W06
 BYTE   N05
 BYTE   W06
 BYTE   PEND 
//  #04 //016   ----------------------------------------
Label_01892E78:
 BYTE   N11  Cn1  v036
 BYTE   W24
 BYTE   N11
 BYTE   N11  En1  v076
 BYTE   N11  Cs2  v036
 BYTE   W12
 BYTE   N05  En1
 BYTE   W06
 BYTE   N05
 BYTE   W06
 BYTE   N11  Cn1
 BYTE   W18
 BYTE   N17  Bn1
 BYTE   W18
 BYTE   N11  An1
 BYTE   W12
 BYTE   PEND 
//  #04 //017   ----------------------------------------
Label_01892E93:
 BYTE   N23  Cn1  v036
 BYTE   N23  Cs2
 BYTE   W72
 BYTE   N11  Cn1
 BYTE   N11  En1  v076
 BYTE   W12
 BYTE   Gn1  v036
 BYTE   N11  As1
 BYTE   W12
//  #04 //018   ----------------------------------------
 BYTE   W84
 BYTE   Cn1
 BYTE   N11  As1
 BYTE   W12
//  #04 //019   ----------------------------------------
 BYTE   W12
 BYTE   Cn1
 BYTE   N11  En1  v076
 BYTE   W12
 BYTE   Cn1  v036
 BYTE   N11  En1  v076
 BYTE   W72
//  #04 //020   ----------------------------------------
 BYTE   N23  Cn1  v036
 BYTE   N23  As1
 BYTE   W72
 BYTE   N11  En1  v076
 BYTE   W12
 BYTE   Cn1  v036
 BYTE   N11  Cs2
 BYTE   W12
//  #04 //021   ----------------------------------------
 BYTE   W12
 BYTE   En1  v076
 BYTE   W12
 BYTE   N11
 BYTE   W60
 BYTE   Cn1  v036
 BYTE   N11  Cs2
 BYTE   W12
//  #04 //022   ----------------------------------------
 BYTE   W12
 BYTE   Cn1
 BYTE   W12
 BYTE   N23
 BYTE   N23  Fs1  v016
 BYTE   W24
 BYTE   Cn1  v036
 BYTE   N23  Fs1  v016
 BYTE   W24
 BYTE   Cn1  v036
 BYTE   N11  Fs1  v016
 BYTE   W12
 BYTE   N05  Fs1  v020
 BYTE   W06
 BYTE   N05
 BYTE   W06
//  #04 //023   ----------------------------------------
 BYTE   N23  Cn1  v036
 BYTE   N23  Fs1  v024
 BYTE   W24
 BYTE   Cn1  v036
 BYTE   N23  Fs1  v024
 BYTE   W24
 BYTE   Cn1  v036
 BYTE   N11  Fs1  v024
 BYTE   W12
 BYTE   N05  Fs1  v036
 BYTE   W06
 BYTE   N05
 BYTE   W06
 BYTE   N23  Cn1
 BYTE   N23  As1
 BYTE   W24
//  #04 //024   ----------------------------------------
 BYTE   Cn1
 BYTE   N23  Cs2  v016
 BYTE   W24
 BYTE   En1  v076
 BYTE   N23  Cs2  v036
 BYTE   W12
 BYTE   N05  Cn1
 BYTE   W06
 BYTE   N05
 BYTE   W06
 BYTE   N11  En1  v076
 BYTE   W12
 BYTE   N11
 BYTE   W24
 BYTE   Cn1  v036
 BYTE   N11  Cs2
 BYTE   W12
//  #04 //025   ----------------------------------------
 BYTE   W60
 BYTE   En1  v076
 BYTE   W12
 BYTE   N11
 BYTE   W12
 BYTE   Cn1  v036
 BYTE   N11  Cs2
 BYTE   W12
//  #04 //026   ----------------------------------------
Label_01892F2D:
 BYTE   W12
 BYTE   N11  Cn1  v036
 BYTE   W12
 BYTE   N23  En1  v076
 BYTE   N23  As1  v036
 BYTE   W24
 BYTE   N11  Cn1
 BYTE   N23  As1
 BYTE   W12
 BYTE   N11  Cn1
 BYTE   W12
 BYTE   N23  En1  v076
 BYTE   N23  As1  v036
 BYTE   W12
 BYTE   N11  Cn1
 BYTE   W12
 BYTE   PEND 
//  #04 //027   ----------------------------------------
 BYTE   N23  As1
 BYTE   W12
 BYTE   N11  Cn1
 BYTE   W12
 BYTE   N23  En1  v076
 BYTE   N23  As1  v036
 BYTE   W24
 BYTE   N11  Cn1
 BYTE   N23  As1
 BYTE   W12
 BYTE   N11  Cn1
 BYTE   W12
 BYTE   En1  v076
 BYTE   N11  As1  v036
 BYTE   W12
 BYTE   Cn1
 BYTE   N11  Cs2
 BYTE   W12
//  #04 //028   ----------------------------------------
 BYTE   PATT
  POIN2 Label_01892F2D
//  #04 //029   ----------------------------------------
 BYTE   N23  As1  v036
 BYTE   W12
 BYTE   N11  Cn1
 BYTE   W12
 BYTE   En1  v076
 BYTE   N11  As1  v036
 BYTE   W12
 BYTE   N05  En1
 BYTE   W06
 BYTE   N05
 BYTE   W06
 BYTE   Dn2
 BYTE   W06
 BYTE   N05
 BYTE   W06
 BYTE   Cn2
 BYTE   W06
 BYTE   N05
 BYTE   W06
 BYTE   Bn1
 BYTE   W06
 BYTE   N05
 BYTE   W06
 BYTE   N11  Cn1
 BYTE   N11  Cs2
 BYTE   W12
//  #04 //030   ----------------------------------------
 BYTE   W12
 BYTE   Cn1
 BYTE   W12
 BYTE   N23  En1  v076
 BYTE   N23  As1  v036
 BYTE   W24
 BYTE   N11  Cn1
 BYTE   N23  As1
 BYTE   W12
 BYTE   N11  Cn1
 BYTE   W12
 BYTE   En1  v076
 BYTE   N11  As1  v036
 BYTE   W12
 BYTE   Cn1
 BYTE   N11  Cs2
 BYTE   W12
//  #04 //031   ----------------------------------------
 BYTE   W12
 BYTE   Cn1
 BYTE   W12
 BYTE   En1  v076
 BYTE   N11  As1  v036
 BYTE   W12
 BYTE   Cn1
 BYTE   N11  Cs2
 BYTE   W24
 BYTE   Cn1
 BYTE   W12
 BYTE   N23  En1  v076
 BYTE   W24
//  #04 //032   ----------------------------------------
 BYTE   N11  Cn1  v036
 BYTE   W12
 BYTE   N11
 BYTE   W12
 BYTE   En1  v076
 BYTE   W12
 BYTE   Cn1  v036
 BYTE   N11  Cs2
 BYTE   W24
 BYTE   Cn1
 BYTE   W12
 BYTE   En1  v076
 BYTE   W12
 BYTE   N05  En1  v036
 BYTE   W06
 BYTE   N05
 BYTE   W06
//  #04 //033   ----------------------------------------
 BYTE   N23  Cn1
 BYTE   N23  As1
 BYTE   W48
 BYTE   Fs1
 BYTE   W12
 BYTE   N11  Cn1
 BYTE   W12
 BYTE   N23  En1  v076
 BYTE   N23  As1  v036
 BYTE   W24
//  #04 //034   ----------------------------------------
 BYTE   Cn1
 BYTE   W24
 BYTE   Fs1  v020
 BYTE   W12
 BYTE   N11  Cn1  v036
 BYTE   W12
 BYTE   N23  Fs1  v020
 BYTE   W12
 BYTE   N11  Cn1  v036
 BYTE   W12
 BYTE   N23  En1  v076
 BYTE   N23  As1  v036
 BYTE   W24
//  #04 //035   ----------------------------------------
 BYTE   N11  Cn1
 BYTE   N23  Fs1  v020
 BYTE   W12
 BYTE   N11  Cn1  v036
 BYTE   W12
 BYTE   N23  Fs1  v020
 BYTE   W12
 BYTE   N11  Cn1  v036
 BYTE   W12
 BYTE   N23  Fs1  v020
 BYTE   W12
 BYTE   N11  Cn1  v036
 BYTE   W12
 BYTE   N23  En1  v076
 BYTE   N23  As1  v036
 BYTE   W24
//  #04 //036   ----------------------------------------
 BYTE   Cn1
 BYTE   N11  Fs1  v020
 BYTE   W12
 BYTE   Fs1  v008
 BYTE   W12
 BYTE   Fs1  v020
 BYTE   W12
 BYTE   Cn1  v036
 BYTE   N11  Fs1  v008
 BYTE   W12
 BYTE   Fs1  v020
 BYTE   W12
 BYTE   Cn1  v036
 BYTE   N11  Fs1  v008
 BYTE   W12
 BYTE   N23  En1  v076
 BYTE   N23  As1  v036
 BYTE   W24
//  #04 //037   ----------------------------------------
 BYTE   N11  Cn1
 BYTE   N23  Cs2  v020
 BYTE   N23  Ds2  v060
 BYTE   W12
 BYTE   N11  Cn1  v036
 BYTE   W12
 BYTE   En1  v076
 BYTE   W12
 BYTE   Cn1  v036
 BYTE   N11  Cs2  v020
 BYTE   N11  Ds2  v060
 BYTE   W24
 BYTE   N05  Cn1  v036
 BYTE   W06
 BYTE   N05
 BYTE   W06
 BYTE   N23  En1  v076
 BYTE   N23  Cs2  v036
 BYTE   W24
//  #04 //038   ----------------------------------------
 BYTE   N11  Cn1
 BYTE   W12
 BYTE   N11
 BYTE   W12
 BYTE   En1  v076
 BYTE   W12
 BYTE   Cn1  v036
 BYTE   N11  Cs2
 BYTE   W24
 BYTE   Cn1
 BYTE   W12
 BYTE   N17  En1  v076
 BYTE   N17  As1  v036
 BYTE   W18
 BYTE   N05  En1
 BYTE   W06
//  #04 //039   ----------------------------------------
 BYTE   N11  Cn1
 BYTE   W12
 BYTE   N11
 BYTE   W12
 BYTE   En1  v076
 BYTE   W12
 BYTE   Cn1  v036
 BYTE   N11  Cs2
 BYTE   W24
 BYTE   En1  v076
 BYTE   W12
 BYTE   N23
 BYTE   N23  As1  v036
 BYTE   W24
//  #04 //040   ----------------------------------------
 BYTE   Cn1
 BYTE   N11  Fs1  v016
 BYTE   W12
 BYTE   Fs1  v008
 BYTE   W12
 BYTE   N23  Cn1  v036
 BYTE   N11  Fs1  v016
 BYTE   W12
 BYTE   Fs1  v008
 BYTE   W12
 BYTE   N23  Cn1  v036
 BYTE   N11  Fs1  v016
 BYTE   W12
 BYTE   Fs1  v008
 BYTE   W12
 BYTE   N23  Cn1  v036
 BYTE   N11  Fs1  v016
 BYTE   W12
 BYTE   N05  Fs1  v008
 BYTE   W06
 BYTE   N05
 BYTE   W06
//  #04 //041   ----------------------------------------
 BYTE   N23  Cn1  v036
 BYTE   N11  Fs1  v016
 BYTE   W12
 BYTE   Fs1  v008
 BYTE   W12
 BYTE   N23  Cn1  v036
 BYTE   N11  As1
 BYTE   W12
 BYTE   En1  v076
 BYTE   W12
 BYTE   N23  Cn1  v036
 BYTE   N11  Bn1
 BYTE   W12
 BYTE   N05  An1
 BYTE   W06
 BYTE   N05
 BYTE   W06
 BYTE   N23  Cn1
 BYTE   N23  En1  v076
 BYTE   W24
//  #04 //042   ----------------------------------------
 BYTE   Cn1  v036
 BYTE   N23  Cs2
 BYTE   W24
 BYTE   En1  v076
 BYTE   N23  As1  v036
 BYTE   W12
 BYTE   N11  Cn1
 BYTE   W12
 BYTE   N23  En1  v076
 BYTE   N23  As1  v036
 BYTE   W12
 BYTE   N11  Cn1
 BYTE   W12
 BYTE   En1  v076
 BYTE   N11  As1  v036
 BYTE   W12
 BYTE   Cn1
 BYTE   N11  Cs2
 BYTE   W12
//  #04 //043   ----------------------------------------
 BYTE   W12
 BYTE   An1
 BYTE   W12
 BYTE   Bn1
 BYTE   W12
 BYTE   N05
 BYTE   W06
 BYTE   N05
 BYTE   W06
 BYTE   N11  An1
 BYTE   W12
 BYTE   N05  Cn2
 BYTE   W06
 BYTE   N05
 BYTE   W06
 BYTE   An1
 BYTE   W06
 BYTE   N05
 BYTE   W06
 BYTE   N05
 BYTE   W06
 BYTE   Fn1
 BYTE   W06
//  #04 //044   ----------------------------------------
 BYTE   N11  Cn1
 BYTE   W12
 BYTE   Bn1
 BYTE   W12
 BYTE   N23
 BYTE   W12
 BYTE   N11  Cn1
 BYTE   W12
 BYTE   Bn1
 BYTE   W12
 BYTE   N05  En1
 BYTE   W06
 BYTE   N05
 BYTE   W06
 BYTE   N17  An1
 BYTE   W18
 BYTE   N05
 BYTE   W06
//  #04 //045   ----------------------------------------
 BYTE   N11  En1  v076
 BYTE   W12
 BYTE   N11
 BYTE   W84
//  #04 //046   ----------------------------------------
 BYTE   N23  Cn1  v036
 BYTE   N11  Cs2
 BYTE   W12
 BYTE   En1  v016
 BYTE   W12
 BYTE   N23  Cn1  v036
 BYTE   N11  En1  v076
 BYTE   N11  Fs1  v016
 BYTE   W12
 BYTE   N05  En1  v008
 BYTE   N05  Fs1
 BYTE   W06
 BYTE   En1  v036
 BYTE   W06
 BYTE   N23  Cn1
 BYTE   N11  En1  v076
 BYTE   N11  Fs1  v016
 BYTE   W12
 BYTE   En1
 BYTE   N11  Fs1  v008
 BYTE   W12
 BYTE   N23  Cn1  v036
 BYTE   N05  En1  v016
 BYTE   N05  Fs1  v036
 BYTE   W06
 BYTE   En1
 BYTE   W06
 BYTE   N11  En1  v076
 BYTE   N11  Fs1  v008
 BYTE   W12
//  #04 //047   ----------------------------------------
 BYTE   N23  Cn1  v036
 BYTE   N11  En1  v076
 BYTE   N11  Fs1  v016
 BYTE   W12
 BYTE   N05  En1  v008
 BYTE   N05  Fs1
 BYTE   W06
 BYTE   En1  v036
 BYTE   W06
 BYTE   N23  Cn1
 BYTE   N11  En1  v076
 BYTE   N11  Fs1  v016
 BYTE   W12
 BYTE   En1
 BYTE   N11  Fs1  v008
 BYTE   W12
 BYTE   N23  Cn1  v036
 BYTE   N11  En1  v076
 BYTE   N11  Fs1  v036
 BYTE   W12
 BYTE   En1  v016
 BYTE   N11  Fs1  v036
 BYTE   W12
 BYTE   N23  Cn1
 BYTE   N11  En1  v076
 BYTE   N11  Fs1  v016
 BYTE   W12
 BYTE   N05  En1  v008
 BYTE   N05  Fs1
 BYTE   W06
 BYTE   En1  v036
 BYTE   W06
//  #04 //048   ----------------------------------------
 BYTE   N23  Cn1
 BYTE   N11  En1  v076
 BYTE   N11  Fs1  v016
 BYTE   W12
 BYTE   N05  En1  v008
 BYTE   N05  Fs1
 BYTE   W06
 BYTE   En1  v036
 BYTE   W06
 BYTE   N23  Cn1
 BYTE   N11  En1  v076
 BYTE   N11  Fs1  v016
 BYTE   W12
 BYTE   N05  En1  v008
 BYTE   N05  Fs1
 BYTE   W06
 BYTE   En1  v036
 BYTE   W06
 BYTE   N23  Cn1
 BYTE   N11  En1  v076
 BYTE   N11  Fs1  v016
 BYTE   W12
 BYTE   En1
 BYTE   N11  Fs1  v008
 BYTE   W12
 BYTE   N23  Cn1  v036
 BYTE   N05  En1  v016
 BYTE   N05  Fs1
 BYTE   W06
 BYTE   En1  v036
 BYTE   W06
 BYTE   N11  En1  v076
 BYTE   N11  Fs1  v008
 BYTE   W12
//  #04 //049   ----------------------------------------
 BYTE   N23  Cn1  v036
 BYTE   N11  En1  v076
 BYTE   N11  Fs1  v016
 BYTE   W12
 BYTE   N05  En1  v008
 BYTE   N05  Fs1
 BYTE   W06
 BYTE   En1  v036
 BYTE   W06
 BYTE   N23  Cn1
 BYTE   N11  En1  v076
 BYTE   N11  Fs1  v016
 BYTE   W12
 BYTE   N05  En1  v008
 BYTE   N05  Fs1
 BYTE   W06
 BYTE   En1  v036
 BYTE   W06
 BYTE   N23  Cn1
 BYTE   N11  En1  v076
 BYTE   N11  Fs1  v016
 BYTE   W12
 BYTE   N05  Fs1  v008
 BYTE   W06
 BYTE   En1  v036
 BYTE   W06
 BYTE   N23  Cn1
 BYTE   N05  En1  v024
 BYTE   N05  Fs1  v016
 BYTE   W06
 BYTE   En1  v024
 BYTE   W06
 BYTE   N05
 BYTE   N05  Fs1  v008
 BYTE   W06
 BYTE   En1  v024
 BYTE   W06
//  #04 //050   ----------------------------------------
 BYTE   N23  Cn1  v036
 BYTE   N11  Cs2
 BYTE   W12
 BYTE   En1  v016
 BYTE   W12
 BYTE   N23  Cn1  v036
 BYTE   N11  En1  v076
 BYTE   N11  Fs1  v016
 BYTE   W12
 BYTE   N05  En1  v008
 BYTE   N05  Fs1
 BYTE   W06
 BYTE   En1  v036
 BYTE   W06
 BYTE   N23  Cn1
 BYTE   N11  En1  v076
 BYTE   N11  Fs1  v016
 BYTE   W12
 BYTE   En1
 BYTE   N11  Fs1  v008
 BYTE   W12
 BYTE   N23  Cn1  v036
 BYTE   N05  En1  v016
 BYTE   N05  Fs1
 BYTE   W06
 BYTE   En1  v036
 BYTE   W06
 BYTE   N11  En1  v076
 BYTE   N11  Fs1  v008
 BYTE   W12
//  #04 //051   ----------------------------------------
 BYTE   N23  Cn1  v036
 BYTE   N11  En1  v076
 BYTE   N11  Fs1  v016
 BYTE   W12
 BYTE   N05  En1  v008
 BYTE   N05  Fs1
 BYTE   W06
 BYTE   En1  v036
 BYTE   W06
 BYTE   N23  Cn1
 BYTE   N11  En1  v076
 BYTE   N11  Fs1  v016
 BYTE   W12
 BYTE   En1
 BYTE   N11  Fs1  v008
 BYTE   W12
 BYTE   N23  Cn1  v036
 BYTE   N11  En1  v076
 BYTE   N11  Fs1  v016
 BYTE   W12
 BYTE   En1
 BYTE   N11  Fs1  v008
 BYTE   W12
 BYTE   N23  Cn1  v036
 BYTE   N11  En1  v076
 BYTE   N11  Fs1  v016
 BYTE   W12
 BYTE   N05  En1  v008
 BYTE   N05  Fs1
 BYTE   W06
 BYTE   En1  v036
 BYTE   W06
//  #04 //052   ----------------------------------------
 BYTE   N23  Cn1
 BYTE   N11  En1  v076
 BYTE   N11  Fs1  v016
 BYTE   W12
 BYTE   N05  En1  v008
 BYTE   N05  Fs1
 BYTE   W06
 BYTE   En1  v024
 BYTE   W06
 BYTE   N23  Cn1  v036
 BYTE   N05  En1
 BYTE   N05  Fs1  v016
 BYTE   W06
 BYTE   En1
 BYTE   W06
 BYTE   En1  v008
 BYTE   N05  Fs1
 BYTE   W06
 BYTE   En1  v016
 BYTE   W06
 BYTE   N23  Cn1  v036
 BYTE   N11  En1  v076
 BYTE   N11  Fs1  v016
 BYTE   W12
 BYTE   En1
 BYTE   N11  Fs1  v008
 BYTE   W12
 BYTE   N23  Cn1  v036
 BYTE   N05  En1  v016
 BYTE   N05  Fs1
 BYTE   W06
 BYTE   En1
 BYTE   W06
 BYTE   N11  En1  v076
 BYTE   N11  Fs1  v008
 BYTE   W12
//  #04 //053   ----------------------------------------
 BYTE   N23  Cn1  v036
 BYTE   N11  En1  v076
 BYTE   N11  Fs1  v016
 BYTE   W12
 BYTE   N05  En1  v008
 BYTE   N05  Fs1
 BYTE   W06
 BYTE   En1  v036
 BYTE   W06
 BYTE   N23  Cn1
 BYTE   N11  En1  v076
 BYTE   N11  Fs1  v016
 BYTE   W12
 BYTE   N05  En1  v008
 BYTE   N05  Fs1
 BYTE   W06
 BYTE   En1  v036
 BYTE   W06
 BYTE   N23  Cn1
 BYTE   N11  En1  v076
 BYTE   N11  Fs1  v016
 BYTE   W12
 BYTE   N05  En1  v008
 BYTE   N05  Fs1
 BYTE   W06
 BYTE   En1  v036
 BYTE   W06
 BYTE   N23  Cn1
 BYTE   N05  En1  v024
 BYTE   N05  Fs1  v016
 BYTE   W06
 BYTE   En1  v024
 BYTE   W06
 BYTE   N05
 BYTE   N05  Fs1  v008
 BYTE   W06
 BYTE   En1  v024
 BYTE   W06
//  #04 //054   ----------------------------------------
 BYTE   N23  Cn1  v036
 BYTE   N23  Cs2
 BYTE   W24
 BYTE   Cn1
 BYTE   N11  En1  v076
 BYTE   N11  Fs1  v016
 BYTE   W12
 BYTE   N05  En1  v008
 BYTE   N05  Fs1
 BYTE   W06
 BYTE   En1  v036
 BYTE   W06
 BYTE   N23  Cn1
 BYTE   N11  En1  v076
 BYTE   N11  Fs1  v016
 BYTE   W12
 BYTE   En1
 BYTE   N11  Fs1  v008
 BYTE   W12
 BYTE   N23  Cn1  v036
 BYTE   N05  En1  v016
 BYTE   N05  Fs1
 BYTE   W06
 BYTE   En1  v036
 BYTE   W06
 BYTE   N11  En1  v076
 BYTE   N11  Fs1  v008
 BYTE   W12
//  #04 //055   ----------------------------------------
 BYTE   N23  Cn1  v036
 BYTE   N11  En1  v076
 BYTE   N11  Fs1  v016
 BYTE   W12
 BYTE   N05  En1  v008
 BYTE   N05  Fs1
 BYTE   W06
 BYTE   En1  v036
 BYTE   W06
 BYTE   N23  Cn1
 BYTE   N11  En1  v076
 BYTE   N11  Fs1  v016
 BYTE   W12
 BYTE   N05  En1
 BYTE   N05  Fs1  v008
 BYTE   W06
 BYTE   En1  v036
 BYTE   W06
 BYTE   N23  Cn1
 BYTE   N11  En1  v076
 BYTE   N11  Fs1  v016
 BYTE   W12
 BYTE   En1
 BYTE   N11  Fs1  v008
 BYTE   W12
 BYTE   N23  Cn1  v036
 BYTE   N05  En1  v008
 BYTE   N05  Fs1  v016
 BYTE   W06
 BYTE   En1  v036
 BYTE   W06
 BYTE   En1  v008
 BYTE   N05  Fs1
 BYTE   W06
 BYTE   En1  v036
 BYTE   W06
//  #04 //056   ----------------------------------------
 BYTE   N23  Cn1
 BYTE   N11  En1  v076
 BYTE   N11  Fs1  v016
 BYTE   W12
 BYTE   N05  Fs1  v008
 BYTE   W06
 BYTE   En1  v016
 BYTE   W06
 BYTE   N23  Cn1  v036
 BYTE   N05  En1
 BYTE   N05  Fs1  v016
 BYTE   W06
 BYTE   En1  v036
 BYTE   W06
 BYTE   En1  v008
 BYTE   N05  Fs1
 BYTE   W06
 BYTE   En1
 BYTE   W06
 BYTE   N23  Cn1  v036
 BYTE   N11  En1  v076
 BYTE   N11  Fs1  v016
 BYTE   W12
 BYTE   En1  v008
 BYTE   N11  Fs1
 BYTE   W12
 BYTE   N23  Cn1  v036
 BYTE   N05  En1  v008
 BYTE   N05  Fs1  v016
 BYTE   W06
 BYTE   En1  v008
 BYTE   W06
 BYTE   N11  En1  v076
 BYTE   N11  Fs1  v008
 BYTE   W12
//  #04 //057   ----------------------------------------
 BYTE   N23  Cn1  v036
 BYTE   N11  En1  v076
 BYTE   N11  Fs1  v016
 BYTE   W12
 BYTE   N05  En1  v008
 BYTE   N05  Fs1
 BYTE   W06
 BYTE   En1  v036
 BYTE   W06
 BYTE   N23  Cn1
 BYTE   N11  En1  v076
 BYTE   N11  Fs1  v016
 BYTE   W12
 BYTE   N05  En1  v036
 BYTE   N05  Fs1  v008
 BYTE   W06
 BYTE   En1  v036
 BYTE   W06
 BYTE   N23  Cn1
 BYTE   N11  En1  v016
 BYTE   W12
 BYTE   N05  En1  v036
 BYTE   W06
 BYTE   N05
 BYTE   W06
 BYTE   N11  Cn1
 BYTE   N17  En1  v076
 BYTE   W12
 BYTE   N11  Cn1  v036
 BYTE   W06
 BYTE   N05  En1
 BYTE   W06
//  #04 //058   ----------------------------------------
 BYTE   N11  Cn1
 BYTE   N32  En1  v076
 BYTE   N32  Cs2  v036
 BYTE   W12
 BYTE   N11  Cn1
 BYTE   W12
 BYTE   N11
 BYTE   W12
 BYTE   N11
 BYTE   N32  En1  v076
 BYTE   N32  Cs2  v036
 BYTE   W12
 BYTE   N11  Cn1
 BYTE   W12
 BYTE   N11
 BYTE   W12
 BYTE   N11
 BYTE   N23  En1  v076
 BYTE   N23  As1  v036
 BYTE   W12
 BYTE   N11  Cn1
 BYTE   W12
//  #04 //059   ----------------------------------------
 BYTE   N11
 BYTE   W12
 BYTE   N11
 BYTE   N11  En1  v076
 BYTE   N11  Cs2  v036
 BYTE   W12
 BYTE   Cn1
 BYTE   W12
 BYTE   N11
 BYTE   W12
 BYTE   N11
 BYTE   N11  En1  v076
 BYTE   W12
 BYTE   N05  En1  v036
 BYTE   W06
 BYTE   N05
 BYTE   W06
 BYTE   N05
 BYTE   W06
 BYTE   An1
 BYTE   W06
 BYTE   N05
 BYTE   W06
 BYTE   N05
 BYTE   W06
//  #04 //060   ----------------------------------------
 BYTE   N23  Cn1
 BYTE   W24
 BYTE   N23
 BYTE   W12
 BYTE   N11  En1  v004
 BYTE   W12
 BYTE   N23  Cn1  v036
 BYTE   N11  En1  v008
 BYTE   W12
 BYTE   En1  v020
 BYTE   W12
 BYTE   N23  Cn1  v036
 BYTE   N11  En1
 BYTE   W12
 BYTE   En1  v060
 BYTE   W12
//  #04 //061   ----------------------------------------
 BYTE   N23  Cn1  v036
 BYTE   N11  En1  v060
 BYTE   W12
 BYTE   N11
 BYTE   W12
 BYTE   N23  Cn1  v036
 BYTE   N23  En1  v060
 BYTE   W24
 BYTE   Cn1  v036
 BYTE   N05  En1
 BYTE   W06
 BYTE   N05
 BYTE   W06
 BYTE   N05
 BYTE   W06
 BYTE   N05
 BYTE   W06
 BYTE   N23  Cn1
 BYTE   N05  En1
 BYTE   W06
 BYTE   N05
 BYTE   W06
 BYTE   N05
 BYTE   W06
 BYTE   N05
 BYTE   W06
//  #04 //062   ----------------------------------------
 BYTE   N23  Cn1
 BYTE   N23  Cs2
 BYTE   W24
 BYTE   Cn1
 BYTE   N11  En1  v076
 BYTE   W12
 BYTE   N05  As1  v020
 BYTE   W06
 BYTE   N05
 BYTE   W06
 BYTE   N23  Cn1  v036
 BYTE   N11  As1  v008
 BYTE   W12
 BYTE   As1  v028
 BYTE   W12
 BYTE   N23  Cn1  v036
 BYTE   N11  En1  v076
 BYTE   N11  As1  v008
 BYTE   W12
 BYTE   As1  v028
 BYTE   W12
//  #04 //063   ----------------------------------------
Label_01893512:
 BYTE   N23  Cn1  v036
 BYTE   N11  As1  v008
 BYTE   W12
 BYTE   As1  v028
 BYTE   W12
 BYTE   N23  Cn1  v036
 BYTE   N11  En1  v076
 BYTE   N11  As1  v008
 BYTE   W12
 BYTE   As1  v028
 BYTE   W12
 BYTE   N23  Cn1  v036
 BYTE   N11  As1  v008
 BYTE   W12
 BYTE   As1  v028
 BYTE   W12
 BYTE   N23  Cn1  v036
 BYTE   N11  En1  v076
 BYTE   N11  As1  v008
 BYTE   W12
 BYTE   As1  v028
 BYTE   W12
 BYTE   PEND 
//  #04 //064   ----------------------------------------
 BYTE   PATT
  POIN2 Label_01893512
//  #04 //065   ----------------------------------------
 BYTE   PATT
  POIN2 Label_01893512
//  #04 //066   ----------------------------------------
Label_0189354B:
 BYTE   N23  Cn1  v036
 BYTE   N23  Cs2
 BYTE   W24
 BYTE   Cn1
 BYTE   N11  En1  v076
 BYTE   N11  As1  v008
 BYTE   W12
 BYTE   As1  v028
 BYTE   W12
 BYTE   N23  Cn1  v036
 BYTE   N11  As1  v008
 BYTE   W12
 BYTE   As1  v028
 BYTE   W12
 BYTE   N23  Cn1  v036
 BYTE   N11  En1  v076
 BYTE   N11  As1  v008
 BYTE   W12
 BYTE   As1  v028
 BYTE   W12
 BYTE   PEND 
//  #04 //067   ----------------------------------------
 BYTE   PATT
  POIN2 Label_01893512
//  #04 //068   ----------------------------------------
 BYTE   PATT
  POIN2 Label_01893512
//  #04 //069   ----------------------------------------
 BYTE   N23  Cn1  v036
 BYTE   N11  As1
 BYTE   W12
 BYTE   As1  v008
 BYTE   W12
 BYTE   N23  Cn1  v036
 BYTE   N11  En1  v076
 BYTE   N11  Cs2  v036
 BYTE   W12
 BYTE   N05  En1  v024
 BYTE   W06
 BYTE   N05
 BYTE   W06
 BYTE   N23  Cn1  v036
 BYTE   N11  En1
 BYTE   W12
 BYTE   N05
 BYTE   W06
 BYTE   N05
 BYTE   W06
 BYTE   N23  Cn1
 BYTE   N05  An1
 BYTE   W06
 BYTE   An1  v024
 BYTE   W06
 BYTE   N05
 BYTE   W06
 BYTE   N05
 BYTE   W06
//  #04 //070   ----------------------------------------
 BYTE   PATT
  POIN2 Label_0189354B
//  #04 //071   ----------------------------------------
 BYTE   PATT
  POIN2 Label_01893512
//  #04 //072   ----------------------------------------
 BYTE   N23  Cn1  v036
 BYTE   W24
 BYTE   N23
 BYTE   N23  En1  v076
 BYTE   N23  Cs2  v036
 BYTE   W24
 BYTE   Cn1
 BYTE   N23  As1
 BYTE   W24
 BYTE   Cn1
 BYTE   N23  En1  v076
 BYTE   N23  As1  v036
 BYTE   W24
//  #04 //073   ----------------------------------------
 BYTE   Cn1
 BYTE   N23  As1
 BYTE   W24
 BYTE   Cn1
 BYTE   N23  En1  v076
 BYTE   N23  As1  v036
 BYTE   W24
 BYTE   Cn1
 BYTE   N11  As1
 BYTE   W12
 BYTE   N05  En1  v016
 BYTE   W06
 BYTE   N05
 BYTE   W06
 BYTE   N17  Cn1  v036
 BYTE   N23  En1  v076
 BYTE   W18
 BYTE   N05  Cn1  v036
 BYTE   W06
//  #04 //074   ----------------------------------------
 BYTE   N23
 BYTE   N23  En1  v076
 BYTE   N23  As1  v036
 BYTE   W24
 BYTE   Cn1
 BYTE   W24
 BYTE   N23
 BYTE   N11  En1  v020
 BYTE   W12
 BYTE   En1  v024
 BYTE   W12
 BYTE   N23  Cn1  v036
 BYTE   N11  En1  v024
 BYTE   W12
 BYTE   En1  v028
 BYTE   W12
//  #04 //075   ----------------------------------------
 BYTE   N23  Cn1  v036
 BYTE   N11  En1  v032
 BYTE   W12
 BYTE   En1  v036
 BYTE   W12
 BYTE   N23  Cn1
 BYTE   N11  En1
 BYTE   W12
 BYTE   En1  v044
 BYTE   W12
 BYTE   N23  Cn1  v036
 BYTE   N11  En1  v048
 BYTE   W12
 BYTE   En1  v052
 BYTE   W12
 BYTE   N23  Cn1  v036
 BYTE   N11  En1  v052
 BYTE   W12
 BYTE   En1  v060
 BYTE   W12
//  #04 //076   ----------------------------------------
 BYTE   N23  Cn1  v036
 BYTE   N17  En1  v060
 BYTE   W18
 BYTE   N05  En1  v008
 BYTE   W06
 BYTE   N23  Cn1  v036
 BYTE   N05  En1  v016
 BYTE   W06
 BYTE   En1  v036
 BYTE   W06
 BYTE   N11  En1  v076
 BYTE   W12
 BYTE   N23  Cn1  v036
 BYTE   N05  En1
 BYTE   W06
 BYTE   En1  v016
 BYTE   W06
 BYTE   N05
 BYTE   W06
 BYTE   En1  v036
 BYTE   W06
 BYTE   N17  Cn1
 BYTE   N11  En1  v076
 BYTE   W12
 BYTE   N11
 BYTE   W06
 BYTE   N05  Cn1  v036
 BYTE   W06
//  #04 //077   ----------------------------------------
 BYTE   N11
 BYTE   N11  En1  v076
 BYTE   W12
 BYTE   Cn1  v036
 BYTE   N11  En1  v076
 BYTE   W72
 BYTE   N05  Cn1  v036
 BYTE   W06
 BYTE   N05
 BYTE   W06
//  #04 //078   ----------------------------------------
 BYTE   N23  En1  v076
 BYTE   N23  Cs2  v036
 BYTE   W24
 BYTE   En1  v076
 BYTE   N23  As1  v036
 BYTE   W12
 BYTE   N11  Cn1
 BYTE   W12
 BYTE   N23  En1  v076
 BYTE   N23  As1  v036
 BYTE   W12
 BYTE   N11  Cn1
 BYTE   W12
 BYTE   N23  En1  v076
 BYTE   N23  As1  v036
 BYTE   W12
 BYTE   N05  Cn1
 BYTE   W06
 BYTE   N05
 BYTE   W06
//  #04 //079   ----------------------------------------
Label_0189369C:
 BYTE   N23  En1  v076
 BYTE   N23  As1  v036
 BYTE   W24
 BYTE   En1  v076
 BYTE   N23  As1  v036
 BYTE   W12
 BYTE   N11  Cn1
 BYTE   W12
 BYTE   N23  En1  v076
 BYTE   N23  As1  v036
 BYTE   W12
 BYTE   N11  Cn1
 BYTE   W12
 BYTE   N23  En1  v076
 BYTE   N23  As1  v036
 BYTE   W12
 BYTE   N05  Cn1
 BYTE   W06
 BYTE   N05
 BYTE   W06
 BYTE   PEND 
//  #04 //080   ----------------------------------------
 BYTE   PATT
  POIN2 Label_0189369C
//  #04 //081   ----------------------------------------
 BYTE   PATT
  POIN2 Label_01892E27
//  #04 //082   ----------------------------------------
 BYTE   PATT
  POIN2 Label_01892E3D
//  #04 //083   ----------------------------------------
 BYTE   PATT
  POIN2 Label_01892E5C
//  #04 //084   ----------------------------------------
 BYTE   PATT
  POIN2 Label_01892E78
//  #04 //085   ----------------------------------------
 BYTE   N23  Cn1  v036
 BYTE   N23  Cs2
 BYTE   W24
 BYTE   Cn1
 BYTE   W12
 BYTE   N11  En1  v076
 BYTE   N11  As1  v036
 BYTE   W12
 BYTE   GoTo
  POIN2 Label_01892E93
//  #04 //086   ----------------------------------------
 BYTE   W48
 BYTE   W96
 BYTE   FINE

//******************************************************//
	ALIGN 4

song39:
	BYTE	4	// NumTrks
	BYTE	0	// NumBlks
	BYTE	song39_pri	// Priority
	BYTE	song39_rev	// Reverb.
    
	POIN2	song39_grp
    
	POIN2	song39_001
	POIN2	song39_002
	POIN2	song39_003
	POIN2	song39_004

	
