//Event file generated from Sappy .s format.
	#include "MPlayDef.event"

	#define	FE11IntotheDarkness_grp  voicegroup000
	#define	FE11IntotheDarkness_pri  0
	#define	FE11IntotheDarkness_rev  0
	#define	FE11IntotheDarkness_mvl  127
	#define	FE11IntotheDarkness_key  0
	#define	FE11IntotheDarkness_tbs  1
	#define	FE11IntotheDarkness_exg  0
	#define	FE11IntotheDarkness_cmp  1

	// .rodata
	//	FE11IntotheDarkness
	ALIGN 4


//**************** Track 1 (Midi-Chn.0) ****************//

FE11IntotheDarkness_001:
//  #01 //000   ----------------------------------------
 BYTE   KEYSH   FE11IntotheDarkness_key+0
Label_010B87DE:
 BYTE   TEMPO   112*FE11IntotheDarkness_tbs/2
 BYTE   MODT 0
 BYTE   LFOS 44
 BYTE   PAN   c_v+0
 BYTE   VOL   65*FE11IntotheDarkness_mvl/mxv
 BYTE   W96
//  #01 //001   ----------------------------------------
 BYTE   W96
//  #01 //002   ----------------------------------------
 BYTE   W96
//  #01 //003   ----------------------------------------
 BYTE   W96
//  #01 //004   ----------------------------------------
 BYTE   VOICE   4
 BYTE   VOL   44*FE11IntotheDarkness_mvl/mxv
 BYTE   PAN   c_v+20
 BYTE   VOL   44*FE11IntotheDarkness_mvl/mxv
 BYTE   W84
 BYTE   N05  En4  v084
 BYTE   W06
 BYTE   An4  v080
 BYTE   W06
//  #01 //005   ----------------------------------------
 BYTE   N32  Bn2  v120
 BYTE   W36
 BYTE   N05  En4  v100
 BYTE   N05  Bn4
 BYTE   W06
 BYTE   Fs4  v088
 BYTE   N05  Cn5
 BYTE   W06
 BYTE   N68  Gn2  v120
 BYTE   N68  Dn3
 BYTE   W03
 BYTE   VOL   44*FE11IntotheDarkness_mvl/mxv
 BYTE   W01
 BYTE   VOL   38*FE11IntotheDarkness_mvl/mxv
 BYTE   W01
 BYTE   VOL   28*FE11IntotheDarkness_mvl/mxv
 BYTE   W01
 BYTE   VOL   23*FE11IntotheDarkness_mvl/mxv
 BYTE   W01
 BYTE   VOL   19*FE11IntotheDarkness_mvl/mxv
 BYTE   W01
 BYTE   VOL   11*FE11IntotheDarkness_mvl/mxv
 BYTE   W01
 BYTE   VOL   7*FE11IntotheDarkness_mvl/mxv
 BYTE   W01
 BYTE   VOL   1*FE11IntotheDarkness_mvl/mxv
 BYTE   W02
 BYTE   VOL   2*FE11IntotheDarkness_mvl/mxv
 BYTE   W01
 BYTE   VOL   2*FE11IntotheDarkness_mvl/mxv
 BYTE   W02
 BYTE   VOL   3*FE11IntotheDarkness_mvl/mxv
 BYTE   W01
 BYTE   VOL   3*FE11IntotheDarkness_mvl/mxv
 BYTE   W02
 BYTE   VOL   4*FE11IntotheDarkness_mvl/mxv
 BYTE   W01
 BYTE   VOL   4*FE11IntotheDarkness_mvl/mxv
 BYTE   W02
 BYTE   VOL   5*FE11IntotheDarkness_mvl/mxv
 BYTE   W01
 BYTE   VOL   7*FE11IntotheDarkness_mvl/mxv
 BYTE   W02
 BYTE   VOL   7*FE11IntotheDarkness_mvl/mxv
 BYTE   W01
 BYTE   VOL   8*FE11IntotheDarkness_mvl/mxv
 BYTE   W02
 BYTE   VOL   10*FE11IntotheDarkness_mvl/mxv
 BYTE   W01
 BYTE   VOL   12*FE11IntotheDarkness_mvl/mxv
 BYTE   W02
 BYTE   VOL   13*FE11IntotheDarkness_mvl/mxv
 BYTE   W01
 BYTE   VOL   14*FE11IntotheDarkness_mvl/mxv
 BYTE   W02
 BYTE   VOL   16*FE11IntotheDarkness_mvl/mxv
 BYTE   W01
 BYTE   VOL   19*FE11IntotheDarkness_mvl/mxv
 BYTE   W02
 BYTE   VOL   21*FE11IntotheDarkness_mvl/mxv
 BYTE   W01
 BYTE   VOL   23*FE11IntotheDarkness_mvl/mxv
 BYTE   W02
 BYTE   VOL   26*FE11IntotheDarkness_mvl/mxv
 BYTE   W01
 BYTE   VOL   30*FE11IntotheDarkness_mvl/mxv
 BYTE   W02
 BYTE   VOL   34*FE11IntotheDarkness_mvl/mxv
 BYTE   W01
 BYTE   VOL   38*FE11IntotheDarkness_mvl/mxv
 BYTE   W02
 BYTE   VOL   44*FE11IntotheDarkness_mvl/mxv
 BYTE   W01
 BYTE   VOL   42*FE11IntotheDarkness_mvl/mxv
 BYTE   W02
//  #01 //006   ----------------------------------------
 BYTE   VOL   39*FE11IntotheDarkness_mvl/mxv
 BYTE   W01
 BYTE   VOL   36*FE11IntotheDarkness_mvl/mxv
 BYTE   W02
 BYTE   VOL   34*FE11IntotheDarkness_mvl/mxv
 BYTE   W01
 BYTE   VOL   31*FE11IntotheDarkness_mvl/mxv
 BYTE   W02
 BYTE   VOL   29*FE11IntotheDarkness_mvl/mxv
 BYTE   W01
 BYTE   VOL   25*FE11IntotheDarkness_mvl/mxv
 BYTE   W02
 BYTE   VOL   22*FE11IntotheDarkness_mvl/mxv
 BYTE   W01
 BYTE   VOL   19*FE11IntotheDarkness_mvl/mxv
 BYTE   W02
 BYTE   VOL   14*FE11IntotheDarkness_mvl/mxv
 BYTE   W01
 BYTE   VOL   11*FE11IntotheDarkness_mvl/mxv
 BYTE   W02
 BYTE   VOL   7*FE11IntotheDarkness_mvl/mxv
 BYTE   W01
 BYTE   VOL   2*FE11IntotheDarkness_mvl/mxv
 BYTE   W02
 BYTE   VOL   0*FE11IntotheDarkness_mvl/mxv
 BYTE   W01
 BYTE   VOL   0*FE11IntotheDarkness_mvl/mxv
 BYTE   W01
 BYTE   VOL   0*FE11IntotheDarkness_mvl/mxv
 BYTE   W48
 BYTE   W03
 BYTE   VOL   0*FE11IntotheDarkness_mvl/mxv
 BYTE   W01
 BYTE   VOL   0*FE11IntotheDarkness_mvl/mxv
 BYTE   W01
 BYTE   VOL   20*FE11IntotheDarkness_mvl/mxv
 BYTE   W01
 BYTE   VOL   33*FE11IntotheDarkness_mvl/mxv
 BYTE   W01
 BYTE   VOL   44*FE11IntotheDarkness_mvl/mxv
 BYTE   W21
//  #01 //007   ----------------------------------------
 BYTE   W96
//  #01 //008   ----------------------------------------
 BYTE   W24
 BYTE   VOICE   49
 BYTE   VOL   65*FE11IntotheDarkness_mvl/mxv
 BYTE   PAN   c_v-17
 BYTE   VOL   65*FE11IntotheDarkness_mvl/mxv
 BYTE   W09
 BYTE   VOL   65*FE11IntotheDarkness_mvl/mxv
 BYTE   W03
 BYTE   VOL   63*FE11IntotheDarkness_mvl/mxv
 BYTE   W03
 BYTE   VOL   61*FE11IntotheDarkness_mvl/mxv
 BYTE   W03
 BYTE   VOL   59*FE11IntotheDarkness_mvl/mxv
 BYTE   W03
 BYTE   VOL   58*FE11IntotheDarkness_mvl/mxv
 BYTE   W03
 BYTE   VOL   56*FE11IntotheDarkness_mvl/mxv
 BYTE   W03
 BYTE   VOL   54*FE11IntotheDarkness_mvl/mxv
 BYTE   W03
 BYTE   VOL   53*FE11IntotheDarkness_mvl/mxv
 BYTE   W03
 BYTE   VOL   51*FE11IntotheDarkness_mvl/mxv
 BYTE   W03
 BYTE   VOL   49*FE11IntotheDarkness_mvl/mxv
 BYTE   W03
 BYTE   VOL   48*FE11IntotheDarkness_mvl/mxv
 BYTE   W03
 BYTE   VOL   46*FE11IntotheDarkness_mvl/mxv
 BYTE   W03
 BYTE   VOL   44*FE11IntotheDarkness_mvl/mxv
 BYTE   W03
 BYTE   VOL   42*FE11IntotheDarkness_mvl/mxv
 BYTE   W03
 BYTE   VOL   42*FE11IntotheDarkness_mvl/mxv
 BYTE   W03
 BYTE   VOL   40*FE11IntotheDarkness_mvl/mxv
 BYTE   W03
 BYTE   VOL   38*FE11IntotheDarkness_mvl/mxv
 BYTE   W03
 BYTE   VOL   37*FE11IntotheDarkness_mvl/mxv
 BYTE   N05  Cn3  v060
 BYTE   W03
 BYTE   VOL   36*FE11IntotheDarkness_mvl/mxv
 BYTE   W03
 BYTE   VOL   34*FE11IntotheDarkness_mvl/mxv
 BYTE   N05  Dn3
 BYTE   W01
 BYTE   VOL   33*FE11IntotheDarkness_mvl/mxv
 BYTE   W05
//  #01 //009   ----------------------------------------
 BYTE   N44  En3
 BYTE   W04
 BYTE   VOL   34*FE11IntotheDarkness_mvl/mxv
 BYTE   W06
 BYTE   VOL   35*FE11IntotheDarkness_mvl/mxv
 BYTE   W03
 BYTE   VOL   36*FE11IntotheDarkness_mvl/mxv
 BYTE   W06
 BYTE   VOL   36*FE11IntotheDarkness_mvl/mxv
 BYTE   W03
 BYTE   VOL   37*FE11IntotheDarkness_mvl/mxv
 BYTE   W06
 BYTE   VOL   38*FE11IntotheDarkness_mvl/mxv
 BYTE   W03
 BYTE   VOL   39*FE11IntotheDarkness_mvl/mxv
 BYTE   W03
 BYTE   VOL   40*FE11IntotheDarkness_mvl/mxv
 BYTE   W03
 BYTE   VOL   41*FE11IntotheDarkness_mvl/mxv
 BYTE   W03
 BYTE   VOL   42*FE11IntotheDarkness_mvl/mxv
 BYTE   W03
 BYTE   VOL   42*FE11IntotheDarkness_mvl/mxv
 BYTE   W03
 BYTE   VOL   44*FE11IntotheDarkness_mvl/mxv
 BYTE   W02
 BYTE   N44  Gn3  v056
 BYTE   W01
 BYTE   VOL   46*FE11IntotheDarkness_mvl/mxv
 BYTE   W03
 BYTE   VOL   47*FE11IntotheDarkness_mvl/mxv
 BYTE   W03
 BYTE   VOL   49*FE11IntotheDarkness_mvl/mxv
 BYTE   W03
 BYTE   VOL   51*FE11IntotheDarkness_mvl/mxv
 BYTE   W03
 BYTE   VOL   53*FE11IntotheDarkness_mvl/mxv
 BYTE   W03
 BYTE   VOL   55*FE11IntotheDarkness_mvl/mxv
 BYTE   W03
 BYTE   VOL   58*FE11IntotheDarkness_mvl/mxv
 BYTE   W03
 BYTE   VOL   63*FE11IntotheDarkness_mvl/mxv
 BYTE   W02
 BYTE   VOL   65*FE11IntotheDarkness_mvl/mxv
 BYTE   W24
//  #01 //010   ----------------------------------------
 BYTE   N44  Fs3  v052
 BYTE   W44
 BYTE   W01
 BYTE   VOL   65*FE11IntotheDarkness_mvl/mxv
 BYTE   W03
 BYTE   VOL   63*FE11IntotheDarkness_mvl/mxv
 BYTE   N44  Dn3  v064
 BYTE   W03
 BYTE   VOL   63*FE11IntotheDarkness_mvl/mxv
 BYTE   W03
 BYTE   VOL   60*FE11IntotheDarkness_mvl/mxv
 BYTE   W03
 BYTE   VOL   59*FE11IntotheDarkness_mvl/mxv
 BYTE   W03
 BYTE   VOL   58*FE11IntotheDarkness_mvl/mxv
 BYTE   W03
 BYTE   VOL   56*FE11IntotheDarkness_mvl/mxv
 BYTE   W03
 BYTE   VOL   54*FE11IntotheDarkness_mvl/mxv
 BYTE   W03
 BYTE   VOL   53*FE11IntotheDarkness_mvl/mxv
 BYTE   W03
 BYTE   VOL   51*FE11IntotheDarkness_mvl/mxv
 BYTE   W03
 BYTE   VOL   51*FE11IntotheDarkness_mvl/mxv
 BYTE   W03
 BYTE   VOL   48*FE11IntotheDarkness_mvl/mxv
 BYTE   W03
 BYTE   VOL   47*FE11IntotheDarkness_mvl/mxv
 BYTE   W03
 BYTE   VOL   46*FE11IntotheDarkness_mvl/mxv
 BYTE   W03
 BYTE   VOL   44*FE11IntotheDarkness_mvl/mxv
 BYTE   W03
 BYTE   VOL   42*FE11IntotheDarkness_mvl/mxv
 BYTE   W03
 BYTE   VOL   42*FE11IntotheDarkness_mvl/mxv
 BYTE   W03
//  #01 //011   ----------------------------------------
 BYTE   VOL   40*FE11IntotheDarkness_mvl/mxv
 BYTE   N88  En3  v040
 BYTE   W03
 BYTE   VOL   39*FE11IntotheDarkness_mvl/mxv
 BYTE   W03
 BYTE   VOL   37*FE11IntotheDarkness_mvl/mxv
 BYTE   W06
 BYTE   VOL   38*FE11IntotheDarkness_mvl/mxv
 BYTE   W06
 BYTE   VOL   39*FE11IntotheDarkness_mvl/mxv
 BYTE   W06
 BYTE   VOL   40*FE11IntotheDarkness_mvl/mxv
 BYTE   W03
 BYTE   VOL   41*FE11IntotheDarkness_mvl/mxv
 BYTE   W03
 BYTE   VOL   42*FE11IntotheDarkness_mvl/mxv
 BYTE   W06
 BYTE   VOL   42*FE11IntotheDarkness_mvl/mxv
 BYTE   W03
 BYTE   VOL   44*FE11IntotheDarkness_mvl/mxv
 BYTE   W03
 BYTE   VOL   44*FE11IntotheDarkness_mvl/mxv
 BYTE   W03
 BYTE   VOL   46*FE11IntotheDarkness_mvl/mxv
 BYTE   W03
 BYTE   VOL   47*FE11IntotheDarkness_mvl/mxv
 BYTE   W03
 BYTE   VOL   48*FE11IntotheDarkness_mvl/mxv
 BYTE   W03
 BYTE   VOL   49*FE11IntotheDarkness_mvl/mxv
 BYTE   W03
 BYTE   VOL   51*FE11IntotheDarkness_mvl/mxv
 BYTE   W03
 BYTE   VOL   53*FE11IntotheDarkness_mvl/mxv
 BYTE   W03
 BYTE   VOL   54*FE11IntotheDarkness_mvl/mxv
 BYTE   W03
 BYTE   VOL   56*FE11IntotheDarkness_mvl/mxv
 BYTE   W03
 BYTE   VOL   58*FE11IntotheDarkness_mvl/mxv
 BYTE   W03
 BYTE   VOL   61*FE11IntotheDarkness_mvl/mxv
 BYTE   W03
 BYTE   VOL   65*FE11IntotheDarkness_mvl/mxv
 BYTE   W21
//  #01 //012   ----------------------------------------
 BYTE   W24
 BYTE   N68  Dn1  v084
 BYTE   W05
 BYTE   VOL   61*FE11IntotheDarkness_mvl/mxv
 BYTE   W01
 BYTE   VOL   58*FE11IntotheDarkness_mvl/mxv
 BYTE   W01
 BYTE   VOL   55*FE11IntotheDarkness_mvl/mxv
 BYTE   W01
 BYTE   VOL   49*FE11IntotheDarkness_mvl/mxv
 BYTE   W01
 BYTE   VOL   46*FE11IntotheDarkness_mvl/mxv
 BYTE   W01
 BYTE   VOL   44*FE11IntotheDarkness_mvl/mxv
 BYTE   W01
 BYTE   VOL   38*FE11IntotheDarkness_mvl/mxv
 BYTE   W01
 BYTE   VOL   35*FE11IntotheDarkness_mvl/mxv
 BYTE   W01
 BYTE   VOL   32*FE11IntotheDarkness_mvl/mxv
 BYTE   W01
 BYTE   VOL   27*FE11IntotheDarkness_mvl/mxv
 BYTE   W01
 BYTE   VOL   25*FE11IntotheDarkness_mvl/mxv
 BYTE   W01
 BYTE   VOL   21*FE11IntotheDarkness_mvl/mxv
 BYTE   W09
 BYTE   VOL   22*FE11IntotheDarkness_mvl/mxv
 BYTE   W06
 BYTE   VOL   22*FE11IntotheDarkness_mvl/mxv
 BYTE   W06
 BYTE   VOL   23*FE11IntotheDarkness_mvl/mxv
 BYTE   W03
 BYTE   VOL   24*FE11IntotheDarkness_mvl/mxv
 BYTE   W03
 BYTE   VOL   25*FE11IntotheDarkness_mvl/mxv
 BYTE   W03
 BYTE   VOL   25*FE11IntotheDarkness_mvl/mxv
 BYTE   W03
 BYTE   VOL   26*FE11IntotheDarkness_mvl/mxv
 BYTE   W03
 BYTE   VOL   27*FE11IntotheDarkness_mvl/mxv
 BYTE   W03
 BYTE   VOL   28*FE11IntotheDarkness_mvl/mxv
 BYTE   W03
 BYTE   VOL   30*FE11IntotheDarkness_mvl/mxv
 BYTE   W03
 BYTE   VOL   31*FE11IntotheDarkness_mvl/mxv
 BYTE   W03
 BYTE   VOL   34*FE11IntotheDarkness_mvl/mxv
 BYTE   W03
 BYTE   VOL   36*FE11IntotheDarkness_mvl/mxv
 BYTE   W03
 BYTE   VOL   40*FE11IntotheDarkness_mvl/mxv
 BYTE   W01
 BYTE   VOL   42*FE11IntotheDarkness_mvl/mxv
 BYTE   W01
//  #01 //013   ----------------------------------------
 BYTE   VOL   41*FE11IntotheDarkness_mvl/mxv
 BYTE   N76  Bn0  v127
 BYTE   N76  En1  v096
 BYTE   W02
 BYTE   VOL   39*FE11IntotheDarkness_mvl/mxv
 BYTE   W01
 BYTE   VOL   37*FE11IntotheDarkness_mvl/mxv
 BYTE   W02
 BYTE   VOL   36*FE11IntotheDarkness_mvl/mxv
 BYTE   W01
 BYTE   VOL   33*FE11IntotheDarkness_mvl/mxv
 BYTE   W02
 BYTE   VOL   30*FE11IntotheDarkness_mvl/mxv
 BYTE   W01
 BYTE   VOL   25*FE11IntotheDarkness_mvl/mxv
 BYTE   W02
 BYTE   VOL   21*FE11IntotheDarkness_mvl/mxv
 BYTE   W01
 BYTE   VOL   16*FE11IntotheDarkness_mvl/mxv
 BYTE   W08
 BYTE   VOL   16*FE11IntotheDarkness_mvl/mxv
 BYTE   W03
 BYTE   VOL   17*FE11IntotheDarkness_mvl/mxv
 BYTE   W03
 BYTE   VOL   18*FE11IntotheDarkness_mvl/mxv
 BYTE   W03
 BYTE   VOL   19*FE11IntotheDarkness_mvl/mxv
 BYTE   W03
 BYTE   VOL   20*FE11IntotheDarkness_mvl/mxv
 BYTE   W03
 BYTE   VOL   21*FE11IntotheDarkness_mvl/mxv
 BYTE   W03
 BYTE   VOL   22*FE11IntotheDarkness_mvl/mxv
 BYTE   W03
 BYTE   VOL   24*FE11IntotheDarkness_mvl/mxv
 BYTE   W03
 BYTE   VOL   25*FE11IntotheDarkness_mvl/mxv
 BYTE   W03
 BYTE   VOL   27*FE11IntotheDarkness_mvl/mxv
 BYTE   W03
 BYTE   VOL   29*FE11IntotheDarkness_mvl/mxv
 BYTE   W03
 BYTE   VOL   31*FE11IntotheDarkness_mvl/mxv
 BYTE   W03
 BYTE   VOL   34*FE11IntotheDarkness_mvl/mxv
 BYTE   W03
 BYTE   VOL   36*FE11IntotheDarkness_mvl/mxv
 BYTE   W03
 BYTE   VOL   40*FE11IntotheDarkness_mvl/mxv
 BYTE   W03
 BYTE   VOL   44*FE11IntotheDarkness_mvl/mxv
 BYTE   W03
 BYTE   VOL   48*FE11IntotheDarkness_mvl/mxv
 BYTE   W03
 BYTE   VOL   54*FE11IntotheDarkness_mvl/mxv
 BYTE   W03
 BYTE   VOL   60*FE11IntotheDarkness_mvl/mxv
 BYTE   W02
 BYTE   VOL   65*FE11IntotheDarkness_mvl/mxv
 BYTE   W08
 BYTE   N03  Fn3  v056
 BYTE   W04
 BYTE   Gn3  v064
 BYTE   W04
 BYTE   An3  v060
 BYTE   W04
//  #01 //014   ----------------------------------------
 BYTE   N44  En3  v028
 BYTE   N44  Fn3  v032
 BYTE   N44  Bn3  v056
 BYTE   W08
 BYTE   VOL   65*FE11IntotheDarkness_mvl/mxv
 BYTE   W03
 BYTE   VOL   63*FE11IntotheDarkness_mvl/mxv
 BYTE   W03
 BYTE   VOL   63*FE11IntotheDarkness_mvl/mxv
 BYTE   W01
 BYTE   VOL   61*FE11IntotheDarkness_mvl/mxv
 BYTE   W02
 BYTE   VOL   60*FE11IntotheDarkness_mvl/mxv
 BYTE   W03
 BYTE   VOL   59*FE11IntotheDarkness_mvl/mxv
 BYTE   W01
 BYTE   VOL   58*FE11IntotheDarkness_mvl/mxv
 BYTE   W02
 BYTE   VOL   58*FE11IntotheDarkness_mvl/mxv
 BYTE   W01
 BYTE   VOL   56*FE11IntotheDarkness_mvl/mxv
 BYTE   W02
 BYTE   VOL   55*FE11IntotheDarkness_mvl/mxv
 BYTE   W01
 BYTE   VOL   53*FE11IntotheDarkness_mvl/mxv
 BYTE   W02
 BYTE   VOL   53*FE11IntotheDarkness_mvl/mxv
 BYTE   W01
 BYTE   VOL   51*FE11IntotheDarkness_mvl/mxv
 BYTE   W02
 BYTE   VOL   49*FE11IntotheDarkness_mvl/mxv
 BYTE   W01
 BYTE   VOL   48*FE11IntotheDarkness_mvl/mxv
 BYTE   W02
 BYTE   VOL   46*FE11IntotheDarkness_mvl/mxv
 BYTE   W01
 BYTE   VOL   44*FE11IntotheDarkness_mvl/mxv
 BYTE   W02
 BYTE   VOL   42*FE11IntotheDarkness_mvl/mxv
 BYTE   W01
 BYTE   VOL   40*FE11IntotheDarkness_mvl/mxv
 BYTE   W02
 BYTE   VOL   37*FE11IntotheDarkness_mvl/mxv
 BYTE   W01
 BYTE   VOL   35*FE11IntotheDarkness_mvl/mxv
 BYTE   W02
 BYTE   VOL   32*FE11IntotheDarkness_mvl/mxv
 BYTE   W01
 BYTE   VOL   29*FE11IntotheDarkness_mvl/mxv
 BYTE   W01
 BYTE   VOL   26*FE11IntotheDarkness_mvl/mxv
 BYTE   W02
 BYTE   N23  En3  v036
 BYTE   N23  Fs3  v032
 BYTE   N23  An3  v060
 BYTE   W24
 BYTE   N32  Dn3  v036
 BYTE   N32  En3  v040
 BYTE   N32  Fs3  v056
 BYTE   W08
 BYTE   VOL   26*FE11IntotheDarkness_mvl/mxv
 BYTE   W02
 BYTE   VOL   27*FE11IntotheDarkness_mvl/mxv
 BYTE   W01
 BYTE   VOL   28*FE11IntotheDarkness_mvl/mxv
 BYTE   W02
 BYTE   VOL   29*FE11IntotheDarkness_mvl/mxv
 BYTE   W01
 BYTE   VOL   30*FE11IntotheDarkness_mvl/mxv
 BYTE   W02
 BYTE   VOL   30*FE11IntotheDarkness_mvl/mxv
 BYTE   W01
 BYTE   VOL   32*FE11IntotheDarkness_mvl/mxv
 BYTE   W02
 BYTE   VOL   33*FE11IntotheDarkness_mvl/mxv
 BYTE   W01
 BYTE   VOL   35*FE11IntotheDarkness_mvl/mxv
 BYTE   W02
 BYTE   VOL   36*FE11IntotheDarkness_mvl/mxv
 BYTE   W01
 BYTE   VOL   37*FE11IntotheDarkness_mvl/mxv
 BYTE   W01
//  #01 //015   ----------------------------------------
 BYTE   W01
 BYTE   VOL   39*FE11IntotheDarkness_mvl/mxv
 BYTE   W01
 BYTE   VOL   41*FE11IntotheDarkness_mvl/mxv
 BYTE   W02
 BYTE   VOL   44*FE11IntotheDarkness_mvl/mxv
 BYTE   W01
 BYTE   VOL   46*FE11IntotheDarkness_mvl/mxv
 BYTE   W02
 BYTE   VOL   48*FE11IntotheDarkness_mvl/mxv
 BYTE   W01
 BYTE   VOL   51*FE11IntotheDarkness_mvl/mxv
 BYTE   W02
 BYTE   VOL   54*FE11IntotheDarkness_mvl/mxv
 BYTE   W01
 BYTE   VOL   58*FE11IntotheDarkness_mvl/mxv
 BYTE   W01
 BYTE   N05  Dn3  v032
 BYTE   N05  En3  v060
 BYTE   W01
 BYTE   VOL   61*FE11IntotheDarkness_mvl/mxv
 BYTE   W01
 BYTE   VOL   65*FE11IntotheDarkness_mvl/mxv
 BYTE   W04
 BYTE   N05  Cn3  v032
 BYTE   N05  Fs3  v056
 BYTE   W06
 BYTE   N68  As2  v032
 BYTE   TIE  Ds3  v036
 BYTE   TIE  Gn3  v056
 BYTE   W10
 BYTE   VOL   65*FE11IntotheDarkness_mvl/mxv
 BYTE   W02
 BYTE   VOL   63*FE11IntotheDarkness_mvl/mxv
 BYTE   W01
 BYTE   VOL   63*FE11IntotheDarkness_mvl/mxv
 BYTE   W02
 BYTE   VOL   60*FE11IntotheDarkness_mvl/mxv
 BYTE   W01
 BYTE   VOL   59*FE11IntotheDarkness_mvl/mxv
 BYTE   W02
 BYTE   VOL   58*FE11IntotheDarkness_mvl/mxv
 BYTE   W01
 BYTE   VOL   55*FE11IntotheDarkness_mvl/mxv
 BYTE   W02
 BYTE   VOL   53*FE11IntotheDarkness_mvl/mxv
 BYTE   W01
 BYTE   VOL   51*FE11IntotheDarkness_mvl/mxv
 BYTE   W02
 BYTE   VOL   48*FE11IntotheDarkness_mvl/mxv
 BYTE   W01
 BYTE   VOL   46*FE11IntotheDarkness_mvl/mxv
 BYTE   W02
 BYTE   VOL   44*FE11IntotheDarkness_mvl/mxv
 BYTE   W01
 BYTE   VOL   41*FE11IntotheDarkness_mvl/mxv
 BYTE   W02
 BYTE   VOL   37*FE11IntotheDarkness_mvl/mxv
 BYTE   W01
 BYTE   VOL   34*FE11IntotheDarkness_mvl/mxv
 BYTE   W02
 BYTE   VOL   30*FE11IntotheDarkness_mvl/mxv
 BYTE   W01
 BYTE   VOL   27*FE11IntotheDarkness_mvl/mxv
 BYTE   W01
 BYTE   VOL   25*FE11IntotheDarkness_mvl/mxv
 BYTE   W06
 BYTE   VOL   25*FE11IntotheDarkness_mvl/mxv
 BYTE   W03
 BYTE   VOL   26*FE11IntotheDarkness_mvl/mxv
 BYTE   W03
 BYTE   VOL   27*FE11IntotheDarkness_mvl/mxv
 BYTE   W03
 BYTE   VOL   28*FE11IntotheDarkness_mvl/mxv
 BYTE   W03
 BYTE   VOL   29*FE11IntotheDarkness_mvl/mxv
 BYTE   W03
 BYTE   VOL   30*FE11IntotheDarkness_mvl/mxv
 BYTE   W03
 BYTE   VOL   30*FE11IntotheDarkness_mvl/mxv
 BYTE   W03
 BYTE   VOL   32*FE11IntotheDarkness_mvl/mxv
 BYTE   W03
 BYTE   VOL   33*FE11IntotheDarkness_mvl/mxv
 BYTE   W03
 BYTE   VOL   34*FE11IntotheDarkness_mvl/mxv
 BYTE   W03
 BYTE   VOL   36*FE11IntotheDarkness_mvl/mxv
 BYTE   W01
//  #01 //016   ----------------------------------------
 BYTE   W02
 BYTE   VOL   37*FE11IntotheDarkness_mvl/mxv
 BYTE   W03
 BYTE   VOL   39*FE11IntotheDarkness_mvl/mxv
 BYTE   W03
 BYTE   VOL   41*FE11IntotheDarkness_mvl/mxv
 BYTE   W03
 BYTE   VOL   42*FE11IntotheDarkness_mvl/mxv
 BYTE   W03
 BYTE   VOL   44*FE11IntotheDarkness_mvl/mxv
 BYTE   W03
 BYTE   VOL   47*FE11IntotheDarkness_mvl/mxv
 BYTE   W03
 BYTE   VOL   49*FE11IntotheDarkness_mvl/mxv
 BYTE   W03
 BYTE   VOL   53*FE11IntotheDarkness_mvl/mxv
 BYTE   W03
 BYTE   VOL   56*FE11IntotheDarkness_mvl/mxv
 BYTE   W03
 BYTE   VOL   60*FE11IntotheDarkness_mvl/mxv
 BYTE   W02
 BYTE   VOL   65*FE11IntotheDarkness_mvl/mxv
 BYTE   W16
 BYTE   EOT
 BYTE   W01
 BYTE   N44  Gs3  v048
 BYTE   W13
 BYTE   VOL   65*FE11IntotheDarkness_mvl/mxv
 BYTE   W03
 BYTE   VOL   63*FE11IntotheDarkness_mvl/mxv
 BYTE   W01
 BYTE   VOL   63*FE11IntotheDarkness_mvl/mxv
 BYTE   W02
 BYTE   VOL   61*FE11IntotheDarkness_mvl/mxv
 BYTE   W01
 BYTE   VOL   60*FE11IntotheDarkness_mvl/mxv
 BYTE   W02
 BYTE   VOL   59*FE11IntotheDarkness_mvl/mxv
 BYTE   W01
 BYTE   VOL   58*FE11IntotheDarkness_mvl/mxv
 BYTE   W02
 BYTE   VOL   58*FE11IntotheDarkness_mvl/mxv
 BYTE   W01
 BYTE   VOL   56*FE11IntotheDarkness_mvl/mxv
 BYTE   W02
 BYTE   VOL   54*FE11IntotheDarkness_mvl/mxv
 BYTE   W01
 BYTE   VOL   53*FE11IntotheDarkness_mvl/mxv
 BYTE   W02
 BYTE   VOL   53*FE11IntotheDarkness_mvl/mxv
 BYTE   W01
 BYTE   VOL   51*FE11IntotheDarkness_mvl/mxv
 BYTE   W02
 BYTE   VOL   48*FE11IntotheDarkness_mvl/mxv
 BYTE   W01
 BYTE   VOL   46*FE11IntotheDarkness_mvl/mxv
 BYTE   W02
 BYTE   VOL   44*FE11IntotheDarkness_mvl/mxv
 BYTE   W01
 BYTE   VOL   42*FE11IntotheDarkness_mvl/mxv
 BYTE   W02
 BYTE   VOL   41*FE11IntotheDarkness_mvl/mxv
 BYTE   W01
 BYTE   VOL   38*FE11IntotheDarkness_mvl/mxv
 BYTE   W02
 BYTE   VOL   36*FE11IntotheDarkness_mvl/mxv
 BYTE   W01
 BYTE   VOL   34*FE11IntotheDarkness_mvl/mxv
 BYTE   W02
 BYTE   VOL   30*FE11IntotheDarkness_mvl/mxv
 BYTE   W01
 BYTE   EOT
 BYTE   Ds3
 BYTE   VOL   27*FE11IntotheDarkness_mvl/mxv
 BYTE   W01
//  #01 //017   ----------------------------------------
 BYTE   VOL   25*FE11IntotheDarkness_mvl/mxv
 BYTE   N44  Bn2  v032
 BYTE   N80  Gn3  v056
 BYTE   W06
 BYTE   VOL   25*FE11IntotheDarkness_mvl/mxv
 BYTE   W03
 BYTE   VOL   26*FE11IntotheDarkness_mvl/mxv
 BYTE   W03
 BYTE   VOL   27*FE11IntotheDarkness_mvl/mxv
 BYTE   W03
 BYTE   VOL   28*FE11IntotheDarkness_mvl/mxv
 BYTE   W03
 BYTE   VOL   29*FE11IntotheDarkness_mvl/mxv
 BYTE   W03
 BYTE   VOL   30*FE11IntotheDarkness_mvl/mxv
 BYTE   W03
 BYTE   VOL   31*FE11IntotheDarkness_mvl/mxv
 BYTE   W03
 BYTE   VOL   32*FE11IntotheDarkness_mvl/mxv
 BYTE   W03
 BYTE   VOL   34*FE11IntotheDarkness_mvl/mxv
 BYTE   W03
 BYTE   VOL   35*FE11IntotheDarkness_mvl/mxv
 BYTE   W03
 BYTE   VOL   36*FE11IntotheDarkness_mvl/mxv
 BYTE   W03
 BYTE   VOL   38*FE11IntotheDarkness_mvl/mxv
 BYTE   W03
 BYTE   VOL   40*FE11IntotheDarkness_mvl/mxv
 BYTE   W03
 BYTE   VOL   42*FE11IntotheDarkness_mvl/mxv
 BYTE   W03
 BYTE   VOL   44*FE11IntotheDarkness_mvl/mxv
 BYTE   N32  Ds3  v040
 BYTE   W03
 BYTE   VOL   46*FE11IntotheDarkness_mvl/mxv
 BYTE   W03
 BYTE   VOL   49*FE11IntotheDarkness_mvl/mxv
 BYTE   W03
 BYTE   VOL   53*FE11IntotheDarkness_mvl/mxv
 BYTE   W03
 BYTE   VOL   56*FE11IntotheDarkness_mvl/mxv
 BYTE   W03
 BYTE   VOL   60*FE11IntotheDarkness_mvl/mxv
 BYTE   W03
 BYTE   VOL   65*FE11IntotheDarkness_mvl/mxv
 BYTE   W18
 BYTE   N03  Dn3  v048
 BYTE   N03  Gn3  v044
 BYTE   W04
 BYTE   Cs3  v040
 BYTE   N03  Fs3  v048
 BYTE   W04
 BYTE   Cn3
 BYTE   N03  Fn3  v040
 BYTE   W04
//  #01 //018   ----------------------------------------
 BYTE   N68  Bn2  v028
 BYTE   N92  En3  v040
 BYTE   W16
 BYTE   VOL   65*FE11IntotheDarkness_mvl/mxv
 BYTE   W03
 BYTE   VOL   63*FE11IntotheDarkness_mvl/mxv
 BYTE   W03
 BYTE   VOL   63*FE11IntotheDarkness_mvl/mxv
 BYTE   W03
 BYTE   VOL   61*FE11IntotheDarkness_mvl/mxv
 BYTE   W03
 BYTE   VOL   59*FE11IntotheDarkness_mvl/mxv
 BYTE   W03
 BYTE   VOL   58*FE11IntotheDarkness_mvl/mxv
 BYTE   W03
 BYTE   VOL   58*FE11IntotheDarkness_mvl/mxv
 BYTE   W03
 BYTE   VOL   55*FE11IntotheDarkness_mvl/mxv
 BYTE   W03
 BYTE   VOL   53*FE11IntotheDarkness_mvl/mxv
 BYTE   W03
 BYTE   VOL   53*FE11IntotheDarkness_mvl/mxv
 BYTE   W03
 BYTE   VOL   51*FE11IntotheDarkness_mvl/mxv
 BYTE   W03
 BYTE   VOL   48*FE11IntotheDarkness_mvl/mxv
 BYTE   W03
 BYTE   VOL   46*FE11IntotheDarkness_mvl/mxv
 BYTE   W03
 BYTE   VOL   44*FE11IntotheDarkness_mvl/mxv
 BYTE   W03
 BYTE   VOL   42*FE11IntotheDarkness_mvl/mxv
 BYTE   W03
 BYTE   VOL   41*FE11IntotheDarkness_mvl/mxv
 BYTE   W03
 BYTE   VOL   38*FE11IntotheDarkness_mvl/mxv
 BYTE   W03
 BYTE   VOL   36*FE11IntotheDarkness_mvl/mxv
 BYTE   W03
 BYTE   VOL   34*FE11IntotheDarkness_mvl/mxv
 BYTE   W02
 BYTE   N23  An2  v032
 BYTE   W01
 BYTE   VOL   31*FE11IntotheDarkness_mvl/mxv
 BYTE   W03
 BYTE   VOL   29*FE11IntotheDarkness_mvl/mxv
 BYTE   W03
 BYTE   VOL   25*FE11IntotheDarkness_mvl/mxv
 BYTE   W03
 BYTE   VOL   23*FE11IntotheDarkness_mvl/mxv
 BYTE   W03
 BYTE   VOL   20*FE11IntotheDarkness_mvl/mxv
 BYTE   W03
 BYTE   VOL   16*FE11IntotheDarkness_mvl/mxv
 BYTE   W02
 BYTE   VOL   14*FE11IntotheDarkness_mvl/mxv
 BYTE   W06
//  #01 //019   ----------------------------------------
 BYTE   VOL   15*FE11IntotheDarkness_mvl/mxv
 BYTE   N76  Bn2  v048
 BYTE   W03
 BYTE   VOL   15*FE11IntotheDarkness_mvl/mxv
 BYTE   W03
 BYTE   VOL   16*FE11IntotheDarkness_mvl/mxv
 BYTE   W03
 BYTE   VOL   17*FE11IntotheDarkness_mvl/mxv
 BYTE   W03
 BYTE   VOL   18*FE11IntotheDarkness_mvl/mxv
 BYTE   W03
 BYTE   VOL   19*FE11IntotheDarkness_mvl/mxv
 BYTE   W03
 BYTE   VOL   20*FE11IntotheDarkness_mvl/mxv
 BYTE   W03
 BYTE   VOL   21*FE11IntotheDarkness_mvl/mxv
 BYTE   W03
 BYTE   VOL   22*FE11IntotheDarkness_mvl/mxv
 BYTE   W03
 BYTE   VOL   24*FE11IntotheDarkness_mvl/mxv
 BYTE   W03
 BYTE   VOL   25*FE11IntotheDarkness_mvl/mxv
 BYTE   W03
 BYTE   VOL   26*FE11IntotheDarkness_mvl/mxv
 BYTE   W03
 BYTE   VOL   29*FE11IntotheDarkness_mvl/mxv
 BYTE   W03
 BYTE   VOL   30*FE11IntotheDarkness_mvl/mxv
 BYTE   W03
 BYTE   VOL   33*FE11IntotheDarkness_mvl/mxv
 BYTE   W03
 BYTE   VOL   36*FE11IntotheDarkness_mvl/mxv
 BYTE   W03
 BYTE   VOL   38*FE11IntotheDarkness_mvl/mxv
 BYTE   W03
 BYTE   VOL   42*FE11IntotheDarkness_mvl/mxv
 BYTE   W03
 BYTE   VOL   46*FE11IntotheDarkness_mvl/mxv
 BYTE   W03
 BYTE   VOL   51*FE11IntotheDarkness_mvl/mxv
 BYTE   W03
 BYTE   VOL   55*FE11IntotheDarkness_mvl/mxv
 BYTE   W03
 BYTE   VOL   63*FE11IntotheDarkness_mvl/mxv
 BYTE   W01
 BYTE   VOL   65*FE11IntotheDarkness_mvl/mxv
 BYTE   W14
 BYTE   N05  An2  v036
 BYTE   N05  En3  v032
 BYTE   W06
 BYTE   An2  v048
 BYTE   N05  En3  v056
 BYTE   W06
 BYTE   Dn3  v048
 BYTE   N05  An3  v056
 BYTE   W06
//  #01 //020   ----------------------------------------
 BYTE   TIE  En3
 BYTE   TIE  Bn3  v048
 BYTE   W05
 BYTE   VOL   65*FE11IntotheDarkness_mvl/mxv
 BYTE   W01
 BYTE   VOL   61*FE11IntotheDarkness_mvl/mxv
 BYTE   W01
 BYTE   VOL   54*FE11IntotheDarkness_mvl/mxv
 BYTE   W01
 BYTE   VOL   51*FE11IntotheDarkness_mvl/mxv
 BYTE   W01
 BYTE   VOL   47*FE11IntotheDarkness_mvl/mxv
 BYTE   W01
 BYTE   VOL   41*FE11IntotheDarkness_mvl/mxv
 BYTE   W01
 BYTE   VOL   37*FE11IntotheDarkness_mvl/mxv
 BYTE   W01
 BYTE   VOL   35*FE11IntotheDarkness_mvl/mxv
 BYTE   W01
 BYTE   VOL   29*FE11IntotheDarkness_mvl/mxv
 BYTE   W01
 BYTE   VOL   25*FE11IntotheDarkness_mvl/mxv
 BYTE   W01
 BYTE   VOL   23*FE11IntotheDarkness_mvl/mxv
 BYTE   W01
 BYTE   VOL   18*FE11IntotheDarkness_mvl/mxv
 BYTE   W01
 BYTE   VOL   15*FE11IntotheDarkness_mvl/mxv
 BYTE   W01
 BYTE   VOL   13*FE11IntotheDarkness_mvl/mxv
 BYTE   W09
 BYTE   VOL   14*FE11IntotheDarkness_mvl/mxv
 BYTE   W06
 BYTE   VOL   15*FE11IntotheDarkness_mvl/mxv
 BYTE   W09
 BYTE   VOL   15*FE11IntotheDarkness_mvl/mxv
 BYTE   W06
 BYTE   VOL   16*FE11IntotheDarkness_mvl/mxv
 BYTE   W06
 BYTE   VOL   17*FE11IntotheDarkness_mvl/mxv
 BYTE   W06
 BYTE   VOL   18*FE11IntotheDarkness_mvl/mxv
 BYTE   W03
 BYTE   VOL   19*FE11IntotheDarkness_mvl/mxv
 BYTE   W06
 BYTE   VOL   19*FE11IntotheDarkness_mvl/mxv
 BYTE   W06
 BYTE   VOL   20*FE11IntotheDarkness_mvl/mxv
 BYTE   W03
 BYTE   VOL   21*FE11IntotheDarkness_mvl/mxv
 BYTE   W06
 BYTE   VOL   22*FE11IntotheDarkness_mvl/mxv
 BYTE   W03
 BYTE   VOL   22*FE11IntotheDarkness_mvl/mxv
 BYTE   W06
 BYTE   VOL   23*FE11IntotheDarkness_mvl/mxv
 BYTE   W03
//  #01 //021   ----------------------------------------
 BYTE   VOL   24*FE11IntotheDarkness_mvl/mxv
 BYTE   W03
 BYTE   VOL   25*FE11IntotheDarkness_mvl/mxv
 BYTE   W03
 BYTE   VOL   25*FE11IntotheDarkness_mvl/mxv
 BYTE   W06
 BYTE   VOL   26*FE11IntotheDarkness_mvl/mxv
 BYTE   W03
 BYTE   VOL   27*FE11IntotheDarkness_mvl/mxv
 BYTE   W03
 BYTE   VOL   28*FE11IntotheDarkness_mvl/mxv
 BYTE   W03
 BYTE   VOL   29*FE11IntotheDarkness_mvl/mxv
 BYTE   W03
 BYTE   VOL   30*FE11IntotheDarkness_mvl/mxv
 BYTE   W03
 BYTE   VOL   31*FE11IntotheDarkness_mvl/mxv
 BYTE   W03
 BYTE   VOL   32*FE11IntotheDarkness_mvl/mxv
 BYTE   W03
 BYTE   VOL   33*FE11IntotheDarkness_mvl/mxv
 BYTE   W03
 BYTE   VOL   34*FE11IntotheDarkness_mvl/mxv
 BYTE   W03
 BYTE   VOL   35*FE11IntotheDarkness_mvl/mxv
 BYTE   W03
 BYTE   VOL   36*FE11IntotheDarkness_mvl/mxv
 BYTE   W03
 BYTE   VOL   37*FE11IntotheDarkness_mvl/mxv
 BYTE   W03
 BYTE   VOL   39*FE11IntotheDarkness_mvl/mxv
 BYTE   W03
 BYTE   VOL   40*FE11IntotheDarkness_mvl/mxv
 BYTE   W03
 BYTE   VOL   42*FE11IntotheDarkness_mvl/mxv
 BYTE   W03
 BYTE   VOL   44*FE11IntotheDarkness_mvl/mxv
 BYTE   W03
 BYTE   VOL   46*FE11IntotheDarkness_mvl/mxv
 BYTE   W03
 BYTE   VOL   46*FE11IntotheDarkness_mvl/mxv
 BYTE   W03
 BYTE   VOL   48*FE11IntotheDarkness_mvl/mxv
 BYTE   W03
 BYTE   VOL   51*FE11IntotheDarkness_mvl/mxv
 BYTE   W03
 BYTE   VOL   53*FE11IntotheDarkness_mvl/mxv
 BYTE   W03
 BYTE   VOL   55*FE11IntotheDarkness_mvl/mxv
 BYTE   W03
 BYTE   VOL   58*FE11IntotheDarkness_mvl/mxv
 BYTE   W03
 BYTE   VOL   61*FE11IntotheDarkness_mvl/mxv
 BYTE   W03
 BYTE   VOL   65*FE11IntotheDarkness_mvl/mxv
 BYTE   W03
 BYTE   VOL   65*FE11IntotheDarkness_mvl/mxv
 BYTE   W01
 BYTE   VOL   63*FE11IntotheDarkness_mvl/mxv
 BYTE   W02
 BYTE   VOL   59*FE11IntotheDarkness_mvl/mxv
 BYTE   W01
 BYTE   VOL   56*FE11IntotheDarkness_mvl/mxv
 BYTE   W02
 BYTE   VOL   54*FE11IntotheDarkness_mvl/mxv
 BYTE   W01
 BYTE   VOL   51*FE11IntotheDarkness_mvl/mxv
 BYTE   W02
//  #01 //022   ----------------------------------------
 BYTE   VOL   48*FE11IntotheDarkness_mvl/mxv
 BYTE   W01
 BYTE   VOL   46*FE11IntotheDarkness_mvl/mxv
 BYTE   W02
 BYTE   VOL   44*FE11IntotheDarkness_mvl/mxv
 BYTE   W01
 BYTE   VOL   41*FE11IntotheDarkness_mvl/mxv
 BYTE   W02
 BYTE   VOL   39*FE11IntotheDarkness_mvl/mxv
 BYTE   W01
 BYTE   VOL   36*FE11IntotheDarkness_mvl/mxv
 BYTE   W02
 BYTE   VOL   34*FE11IntotheDarkness_mvl/mxv
 BYTE   W01
 BYTE   VOL   31*FE11IntotheDarkness_mvl/mxv
 BYTE   W02
 BYTE   VOL   30*FE11IntotheDarkness_mvl/mxv
 BYTE   W01
 BYTE   VOL   27*FE11IntotheDarkness_mvl/mxv
 BYTE   W02
 BYTE   VOL   25*FE11IntotheDarkness_mvl/mxv
 BYTE   W01
 BYTE   VOL   23*FE11IntotheDarkness_mvl/mxv
 BYTE   W02
 BYTE   VOL   21*FE11IntotheDarkness_mvl/mxv
 BYTE   W01
 BYTE   VOL   19*FE11IntotheDarkness_mvl/mxv
 BYTE   W02
 BYTE   VOL   17*FE11IntotheDarkness_mvl/mxv
 BYTE   W01
 BYTE   VOL   15*FE11IntotheDarkness_mvl/mxv
 BYTE   W02
 BYTE   VOL   13*FE11IntotheDarkness_mvl/mxv
 BYTE   W01
 BYTE   VOL   11*FE11IntotheDarkness_mvl/mxv
 BYTE   W02
 BYTE   VOL   9*FE11IntotheDarkness_mvl/mxv
 BYTE   W01
 BYTE   VOL   7*FE11IntotheDarkness_mvl/mxv
 BYTE   W02
 BYTE   VOL   5*FE11IntotheDarkness_mvl/mxv
 BYTE   W01
 BYTE   VOL   4*FE11IntotheDarkness_mvl/mxv
 BYTE   W02
 BYTE   VOL   3*FE11IntotheDarkness_mvl/mxv
 BYTE   W01
 BYTE   VOL   1*FE11IntotheDarkness_mvl/mxv
 BYTE   W02
 BYTE   VOL   0*FE11IntotheDarkness_mvl/mxv
 BYTE   W01
 BYTE   VOL   0*FE11IntotheDarkness_mvl/mxv
 BYTE   W02
 BYTE   VOL   0*FE11IntotheDarkness_mvl/mxv
 BYTE   W01
 BYTE   VOL   0*FE11IntotheDarkness_mvl/mxv
 BYTE   W02
 BYTE   VOL   0*FE11IntotheDarkness_mvl/mxv
 BYTE   W01
 BYTE   VOL   0*FE11IntotheDarkness_mvl/mxv
 BYTE   W02
 BYTE   VOL   0*FE11IntotheDarkness_mvl/mxv
 BYTE   W01
 BYTE   VOL   0*FE11IntotheDarkness_mvl/mxv
 BYTE   W01
 BYTE   EOT
 BYTE   En3  v071
 BYTE   W01
 BYTE   VOL   0*FE11IntotheDarkness_mvl/mxv
 BYTE   W01
 BYTE   VOL   0*FE11IntotheDarkness_mvl/mxv
 BYTE   W02
 BYTE   VOL   0*FE11IntotheDarkness_mvl/mxv
 BYTE   W01
 BYTE   VOL   0*FE11IntotheDarkness_mvl/mxv
 BYTE   W02
 BYTE   VOL   0*FE11IntotheDarkness_mvl/mxv
 BYTE   W42
//  #01 //023   ----------------------------------------
 BYTE   W96
//  #01 //024   ----------------------------------------
 BYTE   W96
//  #01 //025   ----------------------------------------
 BYTE   W96
//  #01 //026   ----------------------------------------
 BYTE   GoTo
  POIN2 Label_010B87DE
 BYTE   FINE

//**************** Track 2 (Midi-Chn.1) ****************//

FE11IntotheDarkness_002:
//  #02 //000   ----------------------------------------
 BYTE   KEYSH   FE11IntotheDarkness_key+0
Label_01AABE12:
 BYTE   VOICE   73
 BYTE   MODT 0
 BYTE   LFOS 44
 BYTE   VOL   25*FE11IntotheDarkness_mvl/mxv
 BYTE   PAN   c_v+11
 BYTE   VOL   0*FE11IntotheDarkness_mvl/mxv
 BYTE   N32  An2  v100
 BYTE   W01
 BYTE   VOL   0*FE11IntotheDarkness_mvl/mxv
 BYTE   W02
 BYTE   VOL   1*FE11IntotheDarkness_mvl/mxv
 BYTE   W01
 BYTE   VOL   2*FE11IntotheDarkness_mvl/mxv
 BYTE   W02
 BYTE   VOL   3*FE11IntotheDarkness_mvl/mxv
 BYTE   W01
 BYTE   VOL   4*FE11IntotheDarkness_mvl/mxv
 BYTE   W02
 BYTE   VOL   5*FE11IntotheDarkness_mvl/mxv
 BYTE   W01
 BYTE   VOL   6*FE11IntotheDarkness_mvl/mxv
 BYTE   W02
 BYTE   VOL   7*FE11IntotheDarkness_mvl/mxv
 BYTE   W01
 BYTE   VOL   8*FE11IntotheDarkness_mvl/mxv
 BYTE   W02
 BYTE   VOL   8*FE11IntotheDarkness_mvl/mxv
 BYTE   W01
 BYTE   VOL   10*FE11IntotheDarkness_mvl/mxv
 BYTE   W02
 BYTE   VOL   12*FE11IntotheDarkness_mvl/mxv
 BYTE   W01
 BYTE   VOL   13*FE11IntotheDarkness_mvl/mxv
 BYTE   W02
 BYTE   VOL   14*FE11IntotheDarkness_mvl/mxv
 BYTE   W01
 BYTE   VOL   15*FE11IntotheDarkness_mvl/mxv
 BYTE   W02
 BYTE   VOL   16*FE11IntotheDarkness_mvl/mxv
 BYTE   W01
 BYTE   VOL   18*FE11IntotheDarkness_mvl/mxv
 BYTE   W02
 BYTE   VOL   19*FE11IntotheDarkness_mvl/mxv
 BYTE   W01
 BYTE   VOL   20*FE11IntotheDarkness_mvl/mxv
 BYTE   W02
 BYTE   VOL   22*FE11IntotheDarkness_mvl/mxv
 BYTE   W01
 BYTE   VOL   23*FE11IntotheDarkness_mvl/mxv
 BYTE   W02
 BYTE   VOL   25*FE11IntotheDarkness_mvl/mxv
 BYTE   W03
 BYTE   N05  An2  v024
 BYTE   W06
 BYTE   An2  v080
 BYTE   W06
 BYTE   TIE  Bn2  v100
 BYTE   W48
//  #02 //001   ----------------------------------------
 BYTE   W02
 BYTE   VOL   25*FE11IntotheDarkness_mvl/mxv
 BYTE   W06
 BYTE   VOL   24*FE11IntotheDarkness_mvl/mxv
 BYTE   W03
 BYTE   VOL   23*FE11IntotheDarkness_mvl/mxv
 BYTE   W03
 BYTE   VOL   23*FE11IntotheDarkness_mvl/mxv
 BYTE   W03
 BYTE   VOL   22*FE11IntotheDarkness_mvl/mxv
 BYTE   W03
 BYTE   VOL   22*FE11IntotheDarkness_mvl/mxv
 BYTE   W03
 BYTE   VOL   22*FE11IntotheDarkness_mvl/mxv
 BYTE   W03
 BYTE   VOL   21*FE11IntotheDarkness_mvl/mxv
 BYTE   W03
 BYTE   VOL   20*FE11IntotheDarkness_mvl/mxv
 BYTE   W03
 BYTE   VOL   20*FE11IntotheDarkness_mvl/mxv
 BYTE   W03
 BYTE   VOL   19*FE11IntotheDarkness_mvl/mxv
 BYTE   W03
 BYTE   VOL   19*FE11IntotheDarkness_mvl/mxv
 BYTE   W03
 BYTE   VOL   17*FE11IntotheDarkness_mvl/mxv
 BYTE   W03
 BYTE   VOL   17*FE11IntotheDarkness_mvl/mxv
 BYTE   W03
 BYTE   VOL   15*FE11IntotheDarkness_mvl/mxv
 BYTE   W03
 BYTE   VOL   15*FE11IntotheDarkness_mvl/mxv
 BYTE   W03
 BYTE   VOL   14*FE11IntotheDarkness_mvl/mxv
 BYTE   W03
 BYTE   VOL   13*FE11IntotheDarkness_mvl/mxv
 BYTE   W03
 BYTE   VOL   13*FE11IntotheDarkness_mvl/mxv
 BYTE   W03
 BYTE   VOL   12*FE11IntotheDarkness_mvl/mxv
 BYTE   W03
 BYTE   VOL   11*FE11IntotheDarkness_mvl/mxv
 BYTE   W03
 BYTE   VOL   9*FE11IntotheDarkness_mvl/mxv
 BYTE   W03
 BYTE   VOL   8*FE11IntotheDarkness_mvl/mxv
 BYTE   W03
 BYTE   VOL   7*FE11IntotheDarkness_mvl/mxv
 BYTE   W03
 BYTE   VOL   6*FE11IntotheDarkness_mvl/mxv
 BYTE   W03
 BYTE   VOL   4*FE11IntotheDarkness_mvl/mxv
 BYTE   W03
 BYTE   VOL   3*FE11IntotheDarkness_mvl/mxv
 BYTE   W03
 BYTE   EOT
 BYTE   VOL   2*FE11IntotheDarkness_mvl/mxv
 BYTE   W01
 BYTE   N05  Bn2  v024
 BYTE   W02
 BYTE   VOL   0*FE11IntotheDarkness_mvl/mxv
 BYTE   W01
 BYTE   VOL   2*FE11IntotheDarkness_mvl/mxv
 BYTE   W01
 BYTE   VOL   5*FE11IntotheDarkness_mvl/mxv
 BYTE   W01
 BYTE   VOL   7*FE11IntotheDarkness_mvl/mxv
 BYTE   W01
 BYTE   VOL   14*FE11IntotheDarkness_mvl/mxv
 BYTE   W01
 BYTE   VOL   17*FE11IntotheDarkness_mvl/mxv
 BYTE   W01
 BYTE   VOL   21*FE11IntotheDarkness_mvl/mxv
 BYTE   W01
//  #02 //002   ----------------------------------------
 BYTE   VOL   25*FE11IntotheDarkness_mvl/mxv
 BYTE   N32  An2  v084
 BYTE   W36
 BYTE   N05  An2  v024
 BYTE   W06
 BYTE   Bn2  v072
 BYTE   W06
 BYTE   N56  Cn3  v092
 BYTE   W28
 BYTE   VOL   25*FE11IntotheDarkness_mvl/mxv
 BYTE   W02
 BYTE   VOL   24*FE11IntotheDarkness_mvl/mxv
 BYTE   W01
 BYTE   VOL   23*FE11IntotheDarkness_mvl/mxv
 BYTE   W02
 BYTE   VOL   22*FE11IntotheDarkness_mvl/mxv
 BYTE   W01
 BYTE   VOL   22*FE11IntotheDarkness_mvl/mxv
 BYTE   W02
 BYTE   VOL   21*FE11IntotheDarkness_mvl/mxv
 BYTE   W01
 BYTE   VOL   20*FE11IntotheDarkness_mvl/mxv
 BYTE   W02
 BYTE   VOL   19*FE11IntotheDarkness_mvl/mxv
 BYTE   W01
 BYTE   VOL   19*FE11IntotheDarkness_mvl/mxv
 BYTE   W02
 BYTE   VOL   18*FE11IntotheDarkness_mvl/mxv
 BYTE   W01
 BYTE   VOL   17*FE11IntotheDarkness_mvl/mxv
 BYTE   W02
 BYTE   VOL   16*FE11IntotheDarkness_mvl/mxv
 BYTE   W01
 BYTE   VOL   15*FE11IntotheDarkness_mvl/mxv
 BYTE   W02
//  #02 //003   ----------------------------------------
 BYTE   VOL   14*FE11IntotheDarkness_mvl/mxv
 BYTE   W01
 BYTE   VOL   14*FE11IntotheDarkness_mvl/mxv
 BYTE   W02
 BYTE   VOL   13*FE11IntotheDarkness_mvl/mxv
 BYTE   W01
 BYTE   VOL   13*FE11IntotheDarkness_mvl/mxv
 BYTE   W02
 BYTE   VOL   12*FE11IntotheDarkness_mvl/mxv
 BYTE   W01
 BYTE   VOL   12*FE11IntotheDarkness_mvl/mxv
 BYTE   W02
 BYTE   VOL   10*FE11IntotheDarkness_mvl/mxv
 BYTE   W01
 BYTE   VOL   10*FE11IntotheDarkness_mvl/mxv
 BYTE   W02
 BYTE   VOL   8*FE11IntotheDarkness_mvl/mxv
 BYTE   N05  Cn3  v024
 BYTE   W01
 BYTE   VOL   8*FE11IntotheDarkness_mvl/mxv
 BYTE   W02
 BYTE   VOL   7*FE11IntotheDarkness_mvl/mxv
 BYTE   W01
 BYTE   VOL   7*FE11IntotheDarkness_mvl/mxv
 BYTE   W06
 BYTE   VOL   7*FE11IntotheDarkness_mvl/mxv
 BYTE   W02
 BYTE   N23  Cn3  v076
 BYTE   N23  Gn3  v096
 BYTE   W04
 BYTE   VOL   7*FE11IntotheDarkness_mvl/mxv
 BYTE   W03
 BYTE   VOL   8*FE11IntotheDarkness_mvl/mxv
 BYTE   W03
 BYTE   VOL   8*FE11IntotheDarkness_mvl/mxv
 BYTE   W06
 BYTE   VOL   8*FE11IntotheDarkness_mvl/mxv
 BYTE   W03
 BYTE   VOL   9*FE11IntotheDarkness_mvl/mxv
 BYTE   W03
 BYTE   VOL   10*FE11IntotheDarkness_mvl/mxv
 BYTE   W02
 BYTE   N23  Bn2  v076
 BYTE   N23  Fs3  v104
 BYTE   W01
 BYTE   VOL   10*FE11IntotheDarkness_mvl/mxv
 BYTE   W03
 BYTE   VOL   11*FE11IntotheDarkness_mvl/mxv
 BYTE   W03
 BYTE   VOL   12*FE11IntotheDarkness_mvl/mxv
 BYTE   W03
 BYTE   VOL   12*FE11IntotheDarkness_mvl/mxv
 BYTE   W03
 BYTE   VOL   13*FE11IntotheDarkness_mvl/mxv
 BYTE   W03
 BYTE   VOL   13*FE11IntotheDarkness_mvl/mxv
 BYTE   W03
 BYTE   VOL   14*FE11IntotheDarkness_mvl/mxv
 BYTE   W03
 BYTE   VOL   15*FE11IntotheDarkness_mvl/mxv
 BYTE   W02
 BYTE   N23  As2  v080
 BYTE   N23  Dn3  v096
 BYTE   W01
 BYTE   VOL   16*FE11IntotheDarkness_mvl/mxv
 BYTE   W03
 BYTE   VOL   17*FE11IntotheDarkness_mvl/mxv
 BYTE   W03
 BYTE   VOL   19*FE11IntotheDarkness_mvl/mxv
 BYTE   W03
 BYTE   VOL   20*FE11IntotheDarkness_mvl/mxv
 BYTE   W03
 BYTE   VOL   22*FE11IntotheDarkness_mvl/mxv
 BYTE   W03
 BYTE   VOL   23*FE11IntotheDarkness_mvl/mxv
 BYTE   W02
 BYTE   VOL   25*FE11IntotheDarkness_mvl/mxv
 BYTE   W06
//  #02 //004   ----------------------------------------
 BYTE   N90  An2  v068
 BYTE   TIE  En3  v092
 BYTE   W07
 BYTE   VOL   25*FE11IntotheDarkness_mvl/mxv
 BYTE   W03
 BYTE   VOL   24*FE11IntotheDarkness_mvl/mxv
 BYTE   W03
 BYTE   VOL   23*FE11IntotheDarkness_mvl/mxv
 BYTE   W03
 BYTE   VOL   22*FE11IntotheDarkness_mvl/mxv
 BYTE   W03
 BYTE   VOL   21*FE11IntotheDarkness_mvl/mxv
 BYTE   W03
 BYTE   VOL   20*FE11IntotheDarkness_mvl/mxv
 BYTE   W03
 BYTE   VOL   19*FE11IntotheDarkness_mvl/mxv
 BYTE   W02
 BYTE   VOL   19*FE11IntotheDarkness_mvl/mxv
 BYTE   W13
 BYTE   VOL   19*FE11IntotheDarkness_mvl/mxv
 BYTE   W14
 BYTE   VOL   19*FE11IntotheDarkness_mvl/mxv
 BYTE   W13
 BYTE   VOL   20*FE11IntotheDarkness_mvl/mxv
 BYTE   W07
 BYTE   VOL   20*FE11IntotheDarkness_mvl/mxv
 BYTE   W07
 BYTE   VOL   21*FE11IntotheDarkness_mvl/mxv
 BYTE   W07
 BYTE   VOL   22*FE11IntotheDarkness_mvl/mxv
 BYTE   W02
 BYTE   N05  An2  v024
 BYTE   W05
 BYTE   VOL   22*FE11IntotheDarkness_mvl/mxv
 BYTE   W01
//  #02 //005   ----------------------------------------
 BYTE   N80  An2  v084
 BYTE   W05
 BYTE   VOL   23*FE11IntotheDarkness_mvl/mxv
 BYTE   W07
 BYTE   VOL   25*FE11IntotheDarkness_mvl/mxv
 BYTE   W03
 BYTE   VOL   24*FE11IntotheDarkness_mvl/mxv
 BYTE   W03
 BYTE   VOL   23*FE11IntotheDarkness_mvl/mxv
 BYTE   W03
 BYTE   VOL   23*FE11IntotheDarkness_mvl/mxv
 BYTE   W03
 BYTE   VOL   22*FE11IntotheDarkness_mvl/mxv
 BYTE   W03
 BYTE   VOL   22*FE11IntotheDarkness_mvl/mxv
 BYTE   W03
 BYTE   VOL   21*FE11IntotheDarkness_mvl/mxv
 BYTE   W03
 BYTE   VOL   20*FE11IntotheDarkness_mvl/mxv
 BYTE   W03
 BYTE   VOL   19*FE11IntotheDarkness_mvl/mxv
 BYTE   W03
 BYTE   VOL   19*FE11IntotheDarkness_mvl/mxv
 BYTE   W03
 BYTE   VOL   18*FE11IntotheDarkness_mvl/mxv
 BYTE   W03
 BYTE   VOL   16*FE11IntotheDarkness_mvl/mxv
 BYTE   W03
 BYTE   VOL   15*FE11IntotheDarkness_mvl/mxv
 BYTE   W03
 BYTE   VOL   14*FE11IntotheDarkness_mvl/mxv
 BYTE   W03
 BYTE   VOL   13*FE11IntotheDarkness_mvl/mxv
 BYTE   W03
 BYTE   VOL   12*FE11IntotheDarkness_mvl/mxv
 BYTE   W03
 BYTE   VOL   10*FE11IntotheDarkness_mvl/mxv
 BYTE   W03
 BYTE   VOL   8*FE11IntotheDarkness_mvl/mxv
 BYTE   W03
 BYTE   VOL   7*FE11IntotheDarkness_mvl/mxv
 BYTE   W03
 BYTE   VOL   5*FE11IntotheDarkness_mvl/mxv
 BYTE   W03
 BYTE   VOL   3*FE11IntotheDarkness_mvl/mxv
 BYTE   W03
 BYTE   VOL   0*FE11IntotheDarkness_mvl/mxv
 BYTE   W06
 BYTE   EOT
 BYTE   En3
 BYTE   W03
 BYTE   N05  En3  v024
 BYTE   W09
 BYTE   VOL   0*FE11IntotheDarkness_mvl/mxv
 BYTE   W01
 BYTE   VOL   25*FE11IntotheDarkness_mvl/mxv
 BYTE   W02
//  #02 //006   ----------------------------------------
 BYTE   N32  An2  v088
 BYTE   W36
 BYTE   N05  An2  v024
 BYTE   W06
 BYTE   An2  v084
 BYTE   W06
 BYTE   TIE  Bn2  v076
 BYTE   W48
//  #02 //007   ----------------------------------------
 BYTE   W04
 BYTE   VOL   25*FE11IntotheDarkness_mvl/mxv
 BYTE   W06
 BYTE   VOL   24*FE11IntotheDarkness_mvl/mxv
 BYTE   W06
 BYTE   VOL   23*FE11IntotheDarkness_mvl/mxv
 BYTE   W03
 BYTE   VOL   23*FE11IntotheDarkness_mvl/mxv
 BYTE   W03
 BYTE   VOL   22*FE11IntotheDarkness_mvl/mxv
 BYTE   W03
 BYTE   VOL   22*FE11IntotheDarkness_mvl/mxv
 BYTE   W06
 BYTE   VOL   22*FE11IntotheDarkness_mvl/mxv
 BYTE   W03
 BYTE   VOL   21*FE11IntotheDarkness_mvl/mxv
 BYTE   W03
 BYTE   VOL   20*FE11IntotheDarkness_mvl/mxv
 BYTE   W03
 BYTE   VOL   20*FE11IntotheDarkness_mvl/mxv
 BYTE   W03
 BYTE   VOL   19*FE11IntotheDarkness_mvl/mxv
 BYTE   W03
 BYTE   VOL   19*FE11IntotheDarkness_mvl/mxv
 BYTE   W03
 BYTE   VOL   18*FE11IntotheDarkness_mvl/mxv
 BYTE   W03
 BYTE   VOL   17*FE11IntotheDarkness_mvl/mxv
 BYTE   W03
 BYTE   VOL   16*FE11IntotheDarkness_mvl/mxv
 BYTE   W03
 BYTE   VOL   15*FE11IntotheDarkness_mvl/mxv
 BYTE   W03
 BYTE   VOL   15*FE11IntotheDarkness_mvl/mxv
 BYTE   W03
 BYTE   VOL   14*FE11IntotheDarkness_mvl/mxv
 BYTE   W03
 BYTE   VOL   13*FE11IntotheDarkness_mvl/mxv
 BYTE   W03
 BYTE   VOL   12*FE11IntotheDarkness_mvl/mxv
 BYTE   W03
 BYTE   VOL   12*FE11IntotheDarkness_mvl/mxv
 BYTE   W03
 BYTE   VOL   10*FE11IntotheDarkness_mvl/mxv
 BYTE   W03
 BYTE   VOL   8*FE11IntotheDarkness_mvl/mxv
 BYTE   W03
 BYTE   VOL   7*FE11IntotheDarkness_mvl/mxv
 BYTE   W03
 BYTE   VOL   6*FE11IntotheDarkness_mvl/mxv
 BYTE   W01
 BYTE   EOT
 BYTE   W01
 BYTE   N05  Bn2  v024
 BYTE   W01
 BYTE   VOL   5*FE11IntotheDarkness_mvl/mxv
 BYTE   W03
 BYTE   VOL   3*FE11IntotheDarkness_mvl/mxv
 BYTE   W01
 BYTE   VOL   7*FE11IntotheDarkness_mvl/mxv
 BYTE   W01
 BYTE   VOL   13*FE11IntotheDarkness_mvl/mxv
 BYTE   W01
 BYTE   VOL   25*FE11IntotheDarkness_mvl/mxv
 BYTE   W02
//  #02 //008   ----------------------------------------
 BYTE   N32  An2  v108
 BYTE   W32
 BYTE   W01
 BYTE   N05  An2  v024
 BYTE   W09
 BYTE   Bn2  v088
 BYTE   W06
 BYTE   N60  Cn3  v068
 BYTE   W48
//  #02 //009   ----------------------------------------
 BYTE   W03
 BYTE   VOL   25*FE11IntotheDarkness_mvl/mxv
 BYTE   W01
 BYTE   VOL   24*FE11IntotheDarkness_mvl/mxv
 BYTE   W02
 BYTE   VOL   23*FE11IntotheDarkness_mvl/mxv
 BYTE   W01
 BYTE   VOL   22*FE11IntotheDarkness_mvl/mxv
 BYTE   W02
 BYTE   VOL   21*FE11IntotheDarkness_mvl/mxv
 BYTE   W01
 BYTE   VOL   20*FE11IntotheDarkness_mvl/mxv
 BYTE   W02
 BYTE   VOL   19*FE11IntotheDarkness_mvl/mxv
 BYTE   W01
 BYTE   VOL   18*FE11IntotheDarkness_mvl/mxv
 BYTE   W02
 BYTE   VOL   17*FE11IntotheDarkness_mvl/mxv
 BYTE   N05  Cn3  v024
 BYTE   W01
 BYTE   VOL   15*FE11IntotheDarkness_mvl/mxv
 BYTE   W08
 BYTE   N23  Bn2  v084
 BYTE   W05
 BYTE   VOL   16*FE11IntotheDarkness_mvl/mxv
 BYTE   W09
 BYTE   VOL   17*FE11IntotheDarkness_mvl/mxv
 BYTE   W04
 BYTE   VOL   17*FE11IntotheDarkness_mvl/mxv
 BYTE   W06
 BYTE   N23  Bn2  v080
 BYTE   N23  Cn3  v088
 BYTE   W03
 BYTE   VOL   18*FE11IntotheDarkness_mvl/mxv
 BYTE   W05
 BYTE   VOL   19*FE11IntotheDarkness_mvl/mxv
 BYTE   W04
 BYTE   VOL   19*FE11IntotheDarkness_mvl/mxv
 BYTE   W04
 BYTE   VOL   19*FE11IntotheDarkness_mvl/mxv
 BYTE   W05
 BYTE   VOL   20*FE11IntotheDarkness_mvl/mxv
 BYTE   W03
 BYTE   N23  As2  v080
 BYTE   N23  Dn3  v092
 BYTE   W01
 BYTE   VOL   20*FE11IntotheDarkness_mvl/mxv
 BYTE   W05
 BYTE   VOL   22*FE11IntotheDarkness_mvl/mxv
 BYTE   W04
 BYTE   VOL   22*FE11IntotheDarkness_mvl/mxv
 BYTE   W04
 BYTE   VOL   23*FE11IntotheDarkness_mvl/mxv
 BYTE   W05
 BYTE   VOL   25*FE11IntotheDarkness_mvl/mxv
 BYTE   W05
//  #02 //010   ----------------------------------------
 BYTE   N44  An2  v080
 BYTE   N40  Dn3  v092
 BYTE   W42
 BYTE   N05  Dn3  v024
 BYTE   W06
 BYTE   TIE  An2  v080
 BYTE   TIE  Cn3  v084
 BYTE   W48
//  #02 //011   ----------------------------------------
 BYTE   W06
 BYTE   VOL   25*FE11IntotheDarkness_mvl/mxv
 BYTE   W03
 BYTE   VOL   24*FE11IntotheDarkness_mvl/mxv
 BYTE   W03
 BYTE   VOL   23*FE11IntotheDarkness_mvl/mxv
 BYTE   W03
 BYTE   VOL   22*FE11IntotheDarkness_mvl/mxv
 BYTE   W03
 BYTE   VOL   22*FE11IntotheDarkness_mvl/mxv
 BYTE   W03
 BYTE   VOL   20*FE11IntotheDarkness_mvl/mxv
 BYTE   W03
 BYTE   VOL   20*FE11IntotheDarkness_mvl/mxv
 BYTE   W03
 BYTE   VOL   19*FE11IntotheDarkness_mvl/mxv
 BYTE   W03
 BYTE   VOL   18*FE11IntotheDarkness_mvl/mxv
 BYTE   W03
 BYTE   VOL   17*FE11IntotheDarkness_mvl/mxv
 BYTE   W03
 BYTE   VOL   15*FE11IntotheDarkness_mvl/mxv
 BYTE   W03
 BYTE   VOL   14*FE11IntotheDarkness_mvl/mxv
 BYTE   W03
 BYTE   VOL   13*FE11IntotheDarkness_mvl/mxv
 BYTE   W03
 BYTE   VOL   13*FE11IntotheDarkness_mvl/mxv
 BYTE   W03
 BYTE   VOL   12*FE11IntotheDarkness_mvl/mxv
 BYTE   W03
 BYTE   VOL   10*FE11IntotheDarkness_mvl/mxv
 BYTE   W03
 BYTE   VOL   8*FE11IntotheDarkness_mvl/mxv
 BYTE   W03
 BYTE   VOL   7*FE11IntotheDarkness_mvl/mxv
 BYTE   W03
 BYTE   VOL   6*FE11IntotheDarkness_mvl/mxv
 BYTE   W03
 BYTE   VOL   5*FE11IntotheDarkness_mvl/mxv
 BYTE   W03
 BYTE   VOL   4*FE11IntotheDarkness_mvl/mxv
 BYTE   W03
 BYTE   VOL   3*FE11IntotheDarkness_mvl/mxv
 BYTE   W03
 BYTE   VOL   2*FE11IntotheDarkness_mvl/mxv
 BYTE   W03
 BYTE   VOL   0*FE11IntotheDarkness_mvl/mxv
 BYTE   W03
 BYTE   VOL   0*FE11IntotheDarkness_mvl/mxv
 BYTE   W03
 BYTE   VOL   0*FE11IntotheDarkness_mvl/mxv
 BYTE   W03
 BYTE   VOL   0*FE11IntotheDarkness_mvl/mxv
 BYTE   W03
 BYTE   VOL   0*FE11IntotheDarkness_mvl/mxv
 BYTE   W03
 BYTE   VOL   0*FE11IntotheDarkness_mvl/mxv
 BYTE   W03
 BYTE   VOL   0*FE11IntotheDarkness_mvl/mxv
 BYTE   W02
 BYTE   EOT
 BYTE   An2  v060
 BYTE   W01
//  #02 //012   ----------------------------------------
 BYTE   VOL   0*FE11IntotheDarkness_mvl/mxv
 BYTE   W96
//  #02 //013   ----------------------------------------
 BYTE   W05
 BYTE   VOL   0*FE11IntotheDarkness_mvl/mxv
 BYTE   W01
 BYTE   VOL   0*FE11IntotheDarkness_mvl/mxv
 BYTE   W01
 BYTE   VOL   0*FE11IntotheDarkness_mvl/mxv
 BYTE   W01
 BYTE   VOL   7*FE11IntotheDarkness_mvl/mxv
 BYTE   W01
 BYTE   VOL   12*FE11IntotheDarkness_mvl/mxv
 BYTE   W01
 BYTE   VOL   17*FE11IntotheDarkness_mvl/mxv
 BYTE   W01
 BYTE   VOL   25*FE11IntotheDarkness_mvl/mxv
 BYTE   W84
 BYTE   W01
//  #02 //014   ----------------------------------------
 BYTE   W96
//  #02 //015   ----------------------------------------
 BYTE   W96
//  #02 //016   ----------------------------------------
 BYTE   N28  Gn3  v072
 BYTE   W12
 BYTE   VOL   25*FE11IntotheDarkness_mvl/mxv
 BYTE   W18
 BYTE   N05  Gn3  v020
 BYTE   W12
 BYTE   As2  v108
 BYTE   W06
 BYTE   N28  Fn3  v076
 BYTE   W30
 BYTE   N05  Ds3  v060
 BYTE   W06
 BYTE   Dn3  v056
 BYTE   W06
 BYTE   Fn3  v064
 BYTE   W06
//  #02 //017   ----------------------------------------
 BYTE   N23  Ds3  v068
 BYTE   W24
 BYTE   N44  Bn2
 BYTE   W48
 BYTE   N23  Ds3  v072
 BYTE   W24
//  #02 //018   ----------------------------------------
 BYTE   TIE  En3  v064
 BYTE   W60
 BYTE   VOL   25*FE11IntotheDarkness_mvl/mxv
 BYTE   W03
 BYTE   VOL   24*FE11IntotheDarkness_mvl/mxv
 BYTE   W01
 BYTE   VOL   23*FE11IntotheDarkness_mvl/mxv
 BYTE   W02
 BYTE   VOL   23*FE11IntotheDarkness_mvl/mxv
 BYTE   W01
 BYTE   VOL   22*FE11IntotheDarkness_mvl/mxv
 BYTE   W02
 BYTE   VOL   22*FE11IntotheDarkness_mvl/mxv
 BYTE   W01
 BYTE   VOL   22*FE11IntotheDarkness_mvl/mxv
 BYTE   W03
 BYTE   VOL   21*FE11IntotheDarkness_mvl/mxv
 BYTE   W02
 BYTE   VOL   20*FE11IntotheDarkness_mvl/mxv
 BYTE   W01
 BYTE   VOL   20*FE11IntotheDarkness_mvl/mxv
 BYTE   W02
 BYTE   VOL   19*FE11IntotheDarkness_mvl/mxv
 BYTE   W01
 BYTE   VOL   19*FE11IntotheDarkness_mvl/mxv
 BYTE   W02
 BYTE   VOL   18*FE11IntotheDarkness_mvl/mxv
 BYTE   W01
 BYTE   VOL   17*FE11IntotheDarkness_mvl/mxv
 BYTE   W02
 BYTE   VOL   17*FE11IntotheDarkness_mvl/mxv
 BYTE   W01
 BYTE   VOL   16*FE11IntotheDarkness_mvl/mxv
 BYTE   W02
 BYTE   VOL   15*FE11IntotheDarkness_mvl/mxv
 BYTE   W01
 BYTE   VOL   15*FE11IntotheDarkness_mvl/mxv
 BYTE   W02
 BYTE   VOL   14*FE11IntotheDarkness_mvl/mxv
 BYTE   W01
 BYTE   VOL   14*FE11IntotheDarkness_mvl/mxv
 BYTE   W02
 BYTE   VOL   13*FE11IntotheDarkness_mvl/mxv
 BYTE   W01
 BYTE   VOL   13*FE11IntotheDarkness_mvl/mxv
 BYTE   W02
//  #02 //019   ----------------------------------------
 BYTE   VOL   12*FE11IntotheDarkness_mvl/mxv
 BYTE   W01
 BYTE   VOL   12*FE11IntotheDarkness_mvl/mxv
 BYTE   W02
 BYTE   VOL   11*FE11IntotheDarkness_mvl/mxv
 BYTE   W01
 BYTE   VOL   10*FE11IntotheDarkness_mvl/mxv
 BYTE   W02
 BYTE   VOL   9*FE11IntotheDarkness_mvl/mxv
 BYTE   W01
 BYTE   VOL   8*FE11IntotheDarkness_mvl/mxv
 BYTE   W02
 BYTE   VOL   8*FE11IntotheDarkness_mvl/mxv
 BYTE   W01
 BYTE   VOL   7*FE11IntotheDarkness_mvl/mxv
 BYTE   W02
 BYTE   VOL   7*FE11IntotheDarkness_mvl/mxv
 BYTE   W01
 BYTE   VOL   6*FE11IntotheDarkness_mvl/mxv
 BYTE   W02
 BYTE   VOL   5*FE11IntotheDarkness_mvl/mxv
 BYTE   W01
 BYTE   VOL   4*FE11IntotheDarkness_mvl/mxv
 BYTE   W02
 BYTE   VOL   4*FE11IntotheDarkness_mvl/mxv
 BYTE   W01
 BYTE   VOL   3*FE11IntotheDarkness_mvl/mxv
 BYTE   W02
 BYTE   VOL   2*FE11IntotheDarkness_mvl/mxv
 BYTE   W01
 BYTE   VOL   2*FE11IntotheDarkness_mvl/mxv
 BYTE   W02
 BYTE   VOL   0*FE11IntotheDarkness_mvl/mxv
 BYTE   W01
 BYTE   VOL   0*FE11IntotheDarkness_mvl/mxv
 BYTE   W02
 BYTE   VOL   0*FE11IntotheDarkness_mvl/mxv
 BYTE   W01
 BYTE   VOL   0*FE11IntotheDarkness_mvl/mxv
 BYTE   W02
 BYTE   VOL   0*FE11IntotheDarkness_mvl/mxv
 BYTE   W01
 BYTE   VOL   0*FE11IntotheDarkness_mvl/mxv
 BYTE   W02
 BYTE   VOL   0*FE11IntotheDarkness_mvl/mxv
 BYTE   W01
 BYTE   VOL   0*FE11IntotheDarkness_mvl/mxv
 BYTE   W01
 BYTE   EOT
 BYTE   W01
 BYTE   VOL   0*FE11IntotheDarkness_mvl/mxv
 BYTE   W01
 BYTE   VOL   0*FE11IntotheDarkness_mvl/mxv
 BYTE   W02
 BYTE   VOL   0*FE11IntotheDarkness_mvl/mxv
 BYTE   W01
 BYTE   VOL   0*FE11IntotheDarkness_mvl/mxv
 BYTE   W02
 BYTE   VOL   0*FE11IntotheDarkness_mvl/mxv
 BYTE   W01
 BYTE   VOL   0*FE11IntotheDarkness_mvl/mxv
 BYTE   W02
 BYTE   VOL   0*FE11IntotheDarkness_mvl/mxv
 BYTE   W48
 BYTE   W03
//  #02 //020   ----------------------------------------
 BYTE   W92
 BYTE   W03
 BYTE   VOL   0*FE11IntotheDarkness_mvl/mxv
 BYTE   W01
//  #02 //021   ----------------------------------------
 BYTE   VOL   2*FE11IntotheDarkness_mvl/mxv
 BYTE   W01
 BYTE   VOL   10*FE11IntotheDarkness_mvl/mxv
 BYTE   W01
 BYTE   VOL   25*FE11IntotheDarkness_mvl/mxv
 BYTE   W92
 BYTE   W02
//  #02 //022   ----------------------------------------
 BYTE   W96
//  #02 //023   ----------------------------------------
 BYTE   W96
//  #02 //024   ----------------------------------------
 BYTE   W96
//  #02 //025   ----------------------------------------
 BYTE   W96
//  #02 //026   ----------------------------------------
 BYTE   GoTo
  POIN2 Label_01AABE12
 BYTE   FINE

//**************** Track 3 (Midi-Chn.2) ****************//

FE11IntotheDarkness_003:
//  #03 //000   ----------------------------------------
 BYTE   KEYSH   FE11IntotheDarkness_key+0
Label_01A632BE:
 BYTE   VOICE   2
 BYTE   MODT 0
 BYTE   LFOS 44
 BYTE   VOL   65*FE11IntotheDarkness_mvl/mxv
 BYTE   PAN   c_v+0
 BYTE   VOL   65*FE11IntotheDarkness_mvl/mxv
 BYTE   N10  An0  v120
 BYTE   W12
 BYTE   N04  An0  v056
 BYTE   W12
 BYTE   N02
 BYTE   W12
 BYTE   N18  An0  v127
 BYTE   W24
 BYTE   N02  An0  v084
 BYTE   W12
 BYTE   An0  v104
 BYTE   W06
 BYTE   N03  An0  v068
 BYTE   W06
 BYTE   N05  An0  v060
 BYTE   W12
//  #03 //001   ----------------------------------------
Label_01A632E7:
 BYTE   N15  An0  v127
 BYTE   W24
 BYTE   N03  An0  v044
 BYTE   W12
 BYTE   N16  An0  v120
 BYTE   W24
 BYTE   N02  An0  v084
 BYTE   W12
 BYTE   An0  v120
 BYTE   W06
 BYTE   An0  v084
 BYTE   W06
 BYTE   N02
 BYTE   W06
 BYTE   N03  An0  v080
 BYTE   W06
 BYTE   PEND 
//  #03 //002   ----------------------------------------
Label_01A63304:
 BYTE   N09  An0  v127
 BYTE   W12
 BYTE   N04  An0  v052
 BYTE   W12
 BYTE   N02  An0  v048
 BYTE   W12
 BYTE   N20  An0  v127
 BYTE   W24
 BYTE   N05  An0  v108
 BYTE   W12
 BYTE   N02  An0  v076
 BYTE   W06
 BYTE   An0  v092
 BYTE   W06
 BYTE   An0  v072
 BYTE   W06
 BYTE   N03
 BYTE   W06
 BYTE   PEND 
//  #03 //003   ----------------------------------------
Label_01A63325:
 BYTE   N07  An0  v120
 BYTE   W12
 BYTE   N04  An0  v060
 BYTE   W12
 BYTE   N02  An0  v076
 BYTE   W12
 BYTE   N16  An0  v127
 BYTE   W24
 BYTE   N03  An0  v084
 BYTE   W12
 BYTE   N05  Ds1  v100
 BYTE   W06
 BYTE   Dn1  v096
 BYTE   W06
 BYTE   Cn1  v108
 BYTE   W06
 BYTE   Dn1  v100
 BYTE   W06
 BYTE   PEND 
//  #03 //004   ----------------------------------------
Label_01A63347:
 BYTE   N14  An0  v092
 BYTE   W24
 BYTE   N03  An0  v080
 BYTE   W12
 BYTE   N19  An0  v104
 BYTE   W24
 BYTE   N02  An0  v056
 BYTE   W12
 BYTE   N03  An0  v092
 BYTE   W12
 BYTE   An0  v112
 BYTE   W12
 BYTE   PEND 
//  #03 //005   ----------------------------------------
Label_01A6335F:
 BYTE   N09  An0  v120
 BYTE   W12
 BYTE   N03  An0  v048
 BYTE   W12
 BYTE   An0  v092
 BYTE   W12
 BYTE   N17  An0  v127
 BYTE   W18
 BYTE   N02  An0  v100
 BYTE   W06
 BYTE   Bn0
 BYTE   W06
 BYTE   Cn1
 BYTE   W06
 BYTE   N05  Dn1
 BYTE   W06
 BYTE   N02  Cn1
 BYTE   W06
 BYTE   Bn0
 BYTE   W06
 BYTE   Cn1
 BYTE   W06
 BYTE   PEND 
//  #03 //006   ----------------------------------------
Label_01A63381:
 BYTE   N10  An0  v120
 BYTE   W12
 BYTE   N04  An0  v056
 BYTE   W12
 BYTE   N02
 BYTE   W12
 BYTE   N18  An0  v127
 BYTE   W24
 BYTE   N02  An0  v084
 BYTE   W12
 BYTE   An0  v104
 BYTE   W06
 BYTE   N03  An0  v068
 BYTE   W06
 BYTE   N05  An0  v060
 BYTE   W12
 BYTE   PEND 
//  #03 //007   ----------------------------------------
 BYTE   PATT
  POIN2 Label_01A632E7
//  #03 //008   ----------------------------------------
 BYTE   PATT
  POIN2 Label_01A63304
//  #03 //009   ----------------------------------------
 BYTE   PATT
  POIN2 Label_01A63325
//  #03 //010   ----------------------------------------
 BYTE   PATT
  POIN2 Label_01A63347
//  #03 //011   ----------------------------------------
 BYTE   PATT
  POIN2 Label_01A6335F
//  #03 //012   ----------------------------------------
 BYTE   PATT
  POIN2 Label_01A63381
//  #03 //013   ----------------------------------------
 BYTE   PATT
  POIN2 Label_01A632E7
//  #03 //014   ----------------------------------------
 BYTE   N10  Fn0  v112
 BYTE   W12
 BYTE   N04  Fn0  v044
 BYTE   W12
 BYTE   N02
 BYTE   W12
 BYTE   N18  Fn0  v112
 BYTE   W24
 BYTE   N02  Fn0  v072
 BYTE   W12
 BYTE   Fn0  v088
 BYTE   W06
 BYTE   N03  Fn0  v056
 BYTE   W06
 BYTE   N05  Fn0  v048
 BYTE   W12
//  #03 //015   ----------------------------------------
 BYTE   N15  En0  v112
 BYTE   W24
 BYTE   N03  Ds0  v032
 BYTE   W12
 BYTE   N16  Ds0  v104
 BYTE   W24
 BYTE   N02  Ds0  v072
 BYTE   W12
 BYTE   Ds0  v104
 BYTE   W06
 BYTE   Ds0  v072
 BYTE   W06
 BYTE   N02
 BYTE   W06
 BYTE   N03  Ds0  v068
 BYTE   W06
//  #03 //016   ----------------------------------------
 BYTE   N09  Ds0  v112
 BYTE   W12
 BYTE   N04  Ds0  v040
 BYTE   W12
 BYTE   N02  Ds0  v036
 BYTE   W12
 BYTE   N20  Ds0  v112
 BYTE   W24
 BYTE   N05  Ds0  v092
 BYTE   W12
 BYTE   N02  Ds0  v060
 BYTE   W06
 BYTE   Ds0  v076
 BYTE   W06
 BYTE   Ds0  v056
 BYTE   W06
 BYTE   N03
 BYTE   W06
//  #03 //017   ----------------------------------------
 BYTE   N07  En0  v104
 BYTE   W12
 BYTE   N04  En0  v048
 BYTE   W12
 BYTE   N02  En0  v060
 BYTE   W12
 BYTE   N16  En0  v112
 BYTE   W24
 BYTE   N03  En0  v076
 BYTE   W12
 BYTE   N05  En0  v096
 BYTE   W06
 BYTE   Fs0  v092
 BYTE   W06
 BYTE   N11  Gs0  v104
 BYTE   W12
//  #03 //018   ----------------------------------------
 BYTE   PATT
  POIN2 Label_01A63347
//  #03 //019   ----------------------------------------
 BYTE   PATT
  POIN2 Label_01A6335F
//  #03 //020   ----------------------------------------
 BYTE   PATT
  POIN2 Label_01A63347
//  #03 //021   ----------------------------------------
 BYTE   PATT
  POIN2 Label_01A6335F
//  #03 //022   ----------------------------------------
 BYTE   PATT
  POIN2 Label_01A63381
//  #03 //023   ----------------------------------------
 BYTE   PATT
  POIN2 Label_01A632E7
//  #03 //024   ----------------------------------------
 BYTE   PATT
  POIN2 Label_01A63347
//  #03 //025   ----------------------------------------
 BYTE   PATT
  POIN2 Label_01A6335F
//  #03 //026   ----------------------------------------
 BYTE   GoTo
  POIN2 Label_01A632BE
 BYTE   FINE

//**************** Track 4 (Midi-Chn.3) ****************//

FE11IntotheDarkness_004:
//  #04 //000   ----------------------------------------
 BYTE   KEYSH   FE11IntotheDarkness_key+0
Label_010B8E52:
 BYTE   VOICE   48
 BYTE   MODT 0
 BYTE   LFOS 44
 BYTE   VOL   59*FE11IntotheDarkness_mvl/mxv
 BYTE   PAN   c_v+16
 BYTE   VOL   59*FE11IntotheDarkness_mvl/mxv
 BYTE   W84
 BYTE   N05  En2  v068
 BYTE   W06
 BYTE   An2  v056
 BYTE   W06
//  #04 //001   ----------------------------------------
 BYTE   N90  En2  v076
 BYTE   N90  Bn2
 BYTE   W96
//  #04 //002   ----------------------------------------
 BYTE   W68
 BYTE   W02
 BYTE   VOL   59*FE11IntotheDarkness_mvl/mxv
 BYTE   W02
 BYTE   VOL   58*FE11IntotheDarkness_mvl/mxv
 BYTE   W01
 BYTE   VOL   56*FE11IntotheDarkness_mvl/mxv
 BYTE   W02
 BYTE   VOL   54*FE11IntotheDarkness_mvl/mxv
 BYTE   W01
 BYTE   VOL   53*FE11IntotheDarkness_mvl/mxv
 BYTE   W02
 BYTE   VOL   51*FE11IntotheDarkness_mvl/mxv
 BYTE   W01
 BYTE   VOL   48*FE11IntotheDarkness_mvl/mxv
 BYTE   W02
 BYTE   VOL   46*FE11IntotheDarkness_mvl/mxv
 BYTE   W01
 BYTE   VOL   44*FE11IntotheDarkness_mvl/mxv
 BYTE   W02
 BYTE   VOL   44*FE11IntotheDarkness_mvl/mxv
 BYTE   N05  An2
 BYTE   W01
 BYTE   VOL   42*FE11IntotheDarkness_mvl/mxv
 BYTE   W02
 BYTE   VOL   40*FE11IntotheDarkness_mvl/mxv
 BYTE   W01
 BYTE   VOL   38*FE11IntotheDarkness_mvl/mxv
 BYTE   W02
 BYTE   VOL   36*FE11IntotheDarkness_mvl/mxv
 BYTE   N05  Bn2
 BYTE   W01
 BYTE   VOL   36*FE11IntotheDarkness_mvl/mxv
 BYTE   W02
 BYTE   VOL   34*FE11IntotheDarkness_mvl/mxv
 BYTE   W01
 BYTE   VOL   32*FE11IntotheDarkness_mvl/mxv
 BYTE   W02
//  #04 //003   ----------------------------------------
 BYTE   N23  Cn3  v080
 BYTE   W07
 BYTE   VOL   33*FE11IntotheDarkness_mvl/mxv
 BYTE   W03
 BYTE   VOL   34*FE11IntotheDarkness_mvl/mxv
 BYTE   W06
 BYTE   VOL   35*FE11IntotheDarkness_mvl/mxv
 BYTE   W06
 BYTE   VOL   36*FE11IntotheDarkness_mvl/mxv
 BYTE   W02
 BYTE   N23  Bn2  v092
 BYTE   N23  Gn3  v080
 BYTE   W01
 BYTE   VOL   36*FE11IntotheDarkness_mvl/mxv
 BYTE   W06
 BYTE   VOL   36*FE11IntotheDarkness_mvl/mxv
 BYTE   W03
 BYTE   VOL   37*FE11IntotheDarkness_mvl/mxv
 BYTE   W03
 BYTE   VOL   38*FE11IntotheDarkness_mvl/mxv
 BYTE   W06
 BYTE   VOL   39*FE11IntotheDarkness_mvl/mxv
 BYTE   W03
 BYTE   VOL   40*FE11IntotheDarkness_mvl/mxv
 BYTE   W02
 BYTE   N23  An2  v076
 BYTE   N23  Fs3  v096
 BYTE   W01
 BYTE   VOL   41*FE11IntotheDarkness_mvl/mxv
 BYTE   W03
 BYTE   VOL   42*FE11IntotheDarkness_mvl/mxv
 BYTE   W03
 BYTE   VOL   42*FE11IntotheDarkness_mvl/mxv
 BYTE   W03
 BYTE   VOL   44*FE11IntotheDarkness_mvl/mxv
 BYTE   W03
 BYTE   VOL   46*FE11IntotheDarkness_mvl/mxv
 BYTE   W03
 BYTE   VOL   46*FE11IntotheDarkness_mvl/mxv
 BYTE   W03
 BYTE   VOL   48*FE11IntotheDarkness_mvl/mxv
 BYTE   W03
 BYTE   VOL   49*FE11IntotheDarkness_mvl/mxv
 BYTE   W02
 BYTE   N23  Gs2  v084
 BYTE   N23  Dn3  v100
 BYTE   W01
 BYTE   VOL   51*FE11IntotheDarkness_mvl/mxv
 BYTE   W03
 BYTE   VOL   53*FE11IntotheDarkness_mvl/mxv
 BYTE   W03
 BYTE   VOL   54*FE11IntotheDarkness_mvl/mxv
 BYTE   W03
 BYTE   VOL   56*FE11IntotheDarkness_mvl/mxv
 BYTE   W03
 BYTE   VOL   59*FE11IntotheDarkness_mvl/mxv
 BYTE   W11
//  #04 //004   ----------------------------------------
 BYTE   TIE  An2  v052
 BYTE   TIE  Bn2
 BYTE   TIE  En3  v100
 BYTE   W68
 BYTE   W02
 BYTE   VOL   59*FE11IntotheDarkness_mvl/mxv
 BYTE   W06
 BYTE   VOL   58*FE11IntotheDarkness_mvl/mxv
 BYTE   W03
 BYTE   VOL   56*FE11IntotheDarkness_mvl/mxv
 BYTE   W03
 BYTE   VOL   55*FE11IntotheDarkness_mvl/mxv
 BYTE   W03
 BYTE   VOL   54*FE11IntotheDarkness_mvl/mxv
 BYTE   W03
 BYTE   VOL   53*FE11IntotheDarkness_mvl/mxv
 BYTE   W03
 BYTE   VOL   53*FE11IntotheDarkness_mvl/mxv
 BYTE   W03
 BYTE   VOL   51*FE11IntotheDarkness_mvl/mxv
 BYTE   W02
//  #04 //005   ----------------------------------------
 BYTE   W01
 BYTE   VOL   49*FE11IntotheDarkness_mvl/mxv
 BYTE   W03
 BYTE   VOL   47*FE11IntotheDarkness_mvl/mxv
 BYTE   W03
 BYTE   VOL   46*FE11IntotheDarkness_mvl/mxv
 BYTE   W03
 BYTE   VOL   44*FE11IntotheDarkness_mvl/mxv
 BYTE   W03
 BYTE   VOL   44*FE11IntotheDarkness_mvl/mxv
 BYTE   W03
 BYTE   VOL   42*FE11IntotheDarkness_mvl/mxv
 BYTE   W03
 BYTE   VOL   40*FE11IntotheDarkness_mvl/mxv
 BYTE   W03
 BYTE   VOL   38*FE11IntotheDarkness_mvl/mxv
 BYTE   W03
 BYTE   VOL   36*FE11IntotheDarkness_mvl/mxv
 BYTE   W03
 BYTE   VOL   35*FE11IntotheDarkness_mvl/mxv
 BYTE   W03
 BYTE   VOL   33*FE11IntotheDarkness_mvl/mxv
 BYTE   W03
 BYTE   VOL   30*FE11IntotheDarkness_mvl/mxv
 BYTE   W03
 BYTE   VOL   28*FE11IntotheDarkness_mvl/mxv
 BYTE   W02
 BYTE   VOL   26*FE11IntotheDarkness_mvl/mxv
 BYTE   W06
 BYTE   EOT
 BYTE   W01
 BYTE   EOT
 BYTE   An2  v059
 BYTE   W44
 BYTE   W03
 BYTE   VOL   34*FE11IntotheDarkness_mvl/mxv
 BYTE   W01
 BYTE   VOL   41*FE11IntotheDarkness_mvl/mxv
 BYTE   W01
 BYTE   VOL   49*FE11IntotheDarkness_mvl/mxv
 BYTE   W01
//  #04 //006   ----------------------------------------
 BYTE   VOL   59*FE11IntotheDarkness_mvl/mxv
 BYTE   W84
 BYTE   N05  En2  v080
 BYTE   W06
 BYTE   An2  v072
 BYTE   W06
//  #04 //007   ----------------------------------------
 BYTE   N90  En2  v080
 BYTE   N90  Bn2
 BYTE   W96
//  #04 //008   ----------------------------------------
 BYTE   W48
 BYTE   W01
 BYTE   VOL   59*FE11IntotheDarkness_mvl/mxv
 BYTE   W03
 BYTE   VOL   58*FE11IntotheDarkness_mvl/mxv
 BYTE   W03
 BYTE   VOL   54*FE11IntotheDarkness_mvl/mxv
 BYTE   W03
 BYTE   VOL   51*FE11IntotheDarkness_mvl/mxv
 BYTE   W03
 BYTE   VOL   48*FE11IntotheDarkness_mvl/mxv
 BYTE   W03
 BYTE   VOL   46*FE11IntotheDarkness_mvl/mxv
 BYTE   W03
 BYTE   VOL   42*FE11IntotheDarkness_mvl/mxv
 BYTE   W03
 BYTE   VOL   41*FE11IntotheDarkness_mvl/mxv
 BYTE   W03
 BYTE   VOL   38*FE11IntotheDarkness_mvl/mxv
 BYTE   W03
 BYTE   VOL   36*FE11IntotheDarkness_mvl/mxv
 BYTE   W03
 BYTE   VOL   34*FE11IntotheDarkness_mvl/mxv
 BYTE   W03
 BYTE   VOL   31*FE11IntotheDarkness_mvl/mxv
 BYTE   W02
 BYTE   N05  Cn3  v084
 BYTE   W01
 BYTE   VOL   29*FE11IntotheDarkness_mvl/mxv
 BYTE   W05
 BYTE   N05  Dn3  v064
 BYTE   W04
 BYTE   VOL   30*FE11IntotheDarkness_mvl/mxv
 BYTE   W02
//  #04 //009   ----------------------------------------
 BYTE   N44  En3  v084
 BYTE   W04
 BYTE   VOL   30*FE11IntotheDarkness_mvl/mxv
 BYTE   W06
 BYTE   VOL   31*FE11IntotheDarkness_mvl/mxv
 BYTE   W03
 BYTE   VOL   32*FE11IntotheDarkness_mvl/mxv
 BYTE   W06
 BYTE   VOL   33*FE11IntotheDarkness_mvl/mxv
 BYTE   W03
 BYTE   VOL   34*FE11IntotheDarkness_mvl/mxv
 BYTE   W06
 BYTE   VOL   35*FE11IntotheDarkness_mvl/mxv
 BYTE   W03
 BYTE   VOL   36*FE11IntotheDarkness_mvl/mxv
 BYTE   W03
 BYTE   VOL   36*FE11IntotheDarkness_mvl/mxv
 BYTE   W03
 BYTE   VOL   36*FE11IntotheDarkness_mvl/mxv
 BYTE   W03
 BYTE   VOL   37*FE11IntotheDarkness_mvl/mxv
 BYTE   W03
 BYTE   VOL   38*FE11IntotheDarkness_mvl/mxv
 BYTE   W03
 BYTE   VOL   39*FE11IntotheDarkness_mvl/mxv
 BYTE   W02
 BYTE   N44  En3  v076
 BYTE   W01
 BYTE   VOL   41*FE11IntotheDarkness_mvl/mxv
 BYTE   W03
 BYTE   VOL   42*FE11IntotheDarkness_mvl/mxv
 BYTE   W03
 BYTE   VOL   42*FE11IntotheDarkness_mvl/mxv
 BYTE   W03
 BYTE   VOL   44*FE11IntotheDarkness_mvl/mxv
 BYTE   W03
 BYTE   VOL   46*FE11IntotheDarkness_mvl/mxv
 BYTE   W03
 BYTE   VOL   48*FE11IntotheDarkness_mvl/mxv
 BYTE   W03
 BYTE   VOL   51*FE11IntotheDarkness_mvl/mxv
 BYTE   W03
 BYTE   VOL   53*FE11IntotheDarkness_mvl/mxv
 BYTE   W03
 BYTE   VOL   55*FE11IntotheDarkness_mvl/mxv
 BYTE   W03
 BYTE   VOL   59*FE11IntotheDarkness_mvl/mxv
 BYTE   W20
//  #04 //010   ----------------------------------------
 BYTE   N44  Dn3  v080
 BYTE   W48
 BYTE   An2  v076
 BYTE   W32
 BYTE   W01
 BYTE   VOL   59*FE11IntotheDarkness_mvl/mxv
 BYTE   W08
 BYTE   VOL   58*FE11IntotheDarkness_mvl/mxv
 BYTE   W07
//  #04 //011   ----------------------------------------
 BYTE   N84  Cn3  v080
 BYTE   W02
 BYTE   VOL   58*FE11IntotheDarkness_mvl/mxv
 BYTE   W04
 BYTE   VOL   56*FE11IntotheDarkness_mvl/mxv
 BYTE   W09
 BYTE   VOL   55*FE11IntotheDarkness_mvl/mxv
 BYTE   W04
 BYTE   VOL   54*FE11IntotheDarkness_mvl/mxv
 BYTE   W05
 BYTE   VOL   53*FE11IntotheDarkness_mvl/mxv
 BYTE   W08
 BYTE   VOL   53*FE11IntotheDarkness_mvl/mxv
 BYTE   W05
 BYTE   VOL   51*FE11IntotheDarkness_mvl/mxv
 BYTE   W04
 BYTE   VOL   51*FE11IntotheDarkness_mvl/mxv
 BYTE   W04
 BYTE   VOL   49*FE11IntotheDarkness_mvl/mxv
 BYTE   W05
 BYTE   VOL   48*FE11IntotheDarkness_mvl/mxv
 BYTE   W04
 BYTE   VOL   47*FE11IntotheDarkness_mvl/mxv
 BYTE   W04
 BYTE   VOL   46*FE11IntotheDarkness_mvl/mxv
 BYTE   W05
 BYTE   VOL   44*FE11IntotheDarkness_mvl/mxv
 BYTE   W04
 BYTE   VOL   44*FE11IntotheDarkness_mvl/mxv
 BYTE   W05
 BYTE   VOL   42*FE11IntotheDarkness_mvl/mxv
 BYTE   W04
 BYTE   VOL   41*FE11IntotheDarkness_mvl/mxv
 BYTE   W04
 BYTE   VOL   39*FE11IntotheDarkness_mvl/mxv
 BYTE   W05
 BYTE   VOL   37*FE11IntotheDarkness_mvl/mxv
 BYTE   W10
 BYTE   VOL   38*FE11IntotheDarkness_mvl/mxv
 BYTE   W01
//  #04 //012   ----------------------------------------
 BYTE   N80  En2  v060
 BYTE   TIE  An2  v080
 BYTE   W02
 BYTE   VOL   39*FE11IntotheDarkness_mvl/mxv
 BYTE   W07
 BYTE   VOL   40*FE11IntotheDarkness_mvl/mxv
 BYTE   W06
 BYTE   VOL   41*FE11IntotheDarkness_mvl/mxv
 BYTE   W03
 BYTE   VOL   42*FE11IntotheDarkness_mvl/mxv
 BYTE   W07
 BYTE   VOL   42*FE11IntotheDarkness_mvl/mxv
 BYTE   W03
 BYTE   VOL   44*FE11IntotheDarkness_mvl/mxv
 BYTE   W03
 BYTE   VOL   44*FE11IntotheDarkness_mvl/mxv
 BYTE   W04
 BYTE   VOL   46*FE11IntotheDarkness_mvl/mxv
 BYTE   W03
 BYTE   VOL   46*FE11IntotheDarkness_mvl/mxv
 BYTE   W03
 BYTE   VOL   47*FE11IntotheDarkness_mvl/mxv
 BYTE   W03
 BYTE   VOL   48*FE11IntotheDarkness_mvl/mxv
 BYTE   W04
 BYTE   VOL   51*FE11IntotheDarkness_mvl/mxv
 BYTE   W03
 BYTE   VOL   51*FE11IntotheDarkness_mvl/mxv
 BYTE   W03
 BYTE   VOL   53*FE11IntotheDarkness_mvl/mxv
 BYTE   W03
 BYTE   VOL   54*FE11IntotheDarkness_mvl/mxv
 BYTE   W04
 BYTE   VOL   56*FE11IntotheDarkness_mvl/mxv
 BYTE   W03
 BYTE   VOL   59*FE11IntotheDarkness_mvl/mxv
 BYTE   W20
 BYTE   N02  En2
 BYTE   W03
 BYTE   Dn2
 BYTE   W03
 BYTE   Cn2
 BYTE   W03
 BYTE   As1
 BYTE   W03
//  #04 //013   ----------------------------------------
 BYTE   N68  An1
 BYTE   W54
 BYTE   W01
 BYTE   EOT
 BYTE   An2
 BYTE   W17
 BYTE   N03  Bn1
 BYTE   W04
 BYTE   Cs2
 BYTE   W04
 BYTE   Ds2
 BYTE   W04
 BYTE   Fn2
 BYTE   W04
 BYTE   Gn2  v088
 BYTE   W04
 BYTE   An2  v096
 BYTE   W02
 BYTE   VOL   59*FE11IntotheDarkness_mvl/mxv
 BYTE   W02
//  #04 //014   ----------------------------------------
 BYTE   N44  Bn2  v064
 BYTE   W07
 BYTE   VOL   58*FE11IntotheDarkness_mvl/mxv
 BYTE   W09
 BYTE   VOL   58*FE11IntotheDarkness_mvl/mxv
 BYTE   W08
 BYTE   VOL   56*FE11IntotheDarkness_mvl/mxv
 BYTE   W05
 BYTE   VOL   55*FE11IntotheDarkness_mvl/mxv
 BYTE   W09
 BYTE   VOL   54*FE11IntotheDarkness_mvl/mxv
 BYTE   W04
 BYTE   VOL   53*FE11IntotheDarkness_mvl/mxv
 BYTE   W06
 BYTE   N44  An2  v060
 BYTE   W03
 BYTE   VOL   53*FE11IntotheDarkness_mvl/mxv
 BYTE   W04
 BYTE   VOL   51*FE11IntotheDarkness_mvl/mxv
 BYTE   W05
 BYTE   VOL   51*FE11IntotheDarkness_mvl/mxv
 BYTE   W09
 BYTE   VOL   49*FE11IntotheDarkness_mvl/mxv
 BYTE   W04
 BYTE   VOL   48*FE11IntotheDarkness_mvl/mxv
 BYTE   W05
 BYTE   VOL   47*FE11IntotheDarkness_mvl/mxv
 BYTE   W04
 BYTE   VOL   46*FE11IntotheDarkness_mvl/mxv
 BYTE   W09
 BYTE   VOL   46*FE11IntotheDarkness_mvl/mxv
 BYTE   W04
 BYTE   VOL   44*FE11IntotheDarkness_mvl/mxv
 BYTE   W01
//  #04 //015   ----------------------------------------
 BYTE   N23  En2
 BYTE   W04
 BYTE   VOL   44*FE11IntotheDarkness_mvl/mxv
 BYTE   W04
 BYTE   VOL   42*FE11IntotheDarkness_mvl/mxv
 BYTE   W05
 BYTE   VOL   42*FE11IntotheDarkness_mvl/mxv
 BYTE   W04
 BYTE   VOL   41*FE11IntotheDarkness_mvl/mxv
 BYTE   W04
 BYTE   VOL   40*FE11IntotheDarkness_mvl/mxv
 BYTE   W03
 BYTE   N68  Ds2  v064
 BYTE   W02
 BYTE   VOL   39*FE11IntotheDarkness_mvl/mxv
 BYTE   W04
 BYTE   VOL   38*FE11IntotheDarkness_mvl/mxv
 BYTE   W05
 BYTE   VOL   37*FE11IntotheDarkness_mvl/mxv
 BYTE   W04
 BYTE   VOL   36*FE11IntotheDarkness_mvl/mxv
 BYTE   W05
 BYTE   VOL   36*FE11IntotheDarkness_mvl/mxv
 BYTE   W04
 BYTE   VOL   35*FE11IntotheDarkness_mvl/mxv
 BYTE   W04
 BYTE   VOL   34*FE11IntotheDarkness_mvl/mxv
 BYTE   W05
 BYTE   VOL   33*FE11IntotheDarkness_mvl/mxv
 BYTE   W04
 BYTE   VOL   31*FE11IntotheDarkness_mvl/mxv
 BYTE   W05
 BYTE   VOL   30*FE11IntotheDarkness_mvl/mxv
 BYTE   W04
 BYTE   VOL   29*FE11IntotheDarkness_mvl/mxv
 BYTE   W04
 BYTE   VOL   28*FE11IntotheDarkness_mvl/mxv
 BYTE   W05
 BYTE   VOL   26*FE11IntotheDarkness_mvl/mxv
 BYTE   W04
 BYTE   VOL   25*FE11IntotheDarkness_mvl/mxv
 BYTE   W05
 BYTE   VOL   24*FE11IntotheDarkness_mvl/mxv
 BYTE   W04
 BYTE   VOL   22*FE11IntotheDarkness_mvl/mxv
 BYTE   W04
//  #04 //016   ----------------------------------------
 BYTE   N44
 BYTE   N44  As2  v060
 BYTE   W01
 BYTE   VOL   21*FE11IntotheDarkness_mvl/mxv
 BYTE   W06
 BYTE   VOL   22*FE11IntotheDarkness_mvl/mxv
 BYTE   W06
 BYTE   VOL   22*FE11IntotheDarkness_mvl/mxv
 BYTE   W06
 BYTE   VOL   23*FE11IntotheDarkness_mvl/mxv
 BYTE   W03
 BYTE   VOL   24*FE11IntotheDarkness_mvl/mxv
 BYTE   W03
 BYTE   VOL   25*FE11IntotheDarkness_mvl/mxv
 BYTE   W06
 BYTE   VOL   25*FE11IntotheDarkness_mvl/mxv
 BYTE   W03
 BYTE   VOL   26*FE11IntotheDarkness_mvl/mxv
 BYTE   W03
 BYTE   VOL   27*FE11IntotheDarkness_mvl/mxv
 BYTE   W03
 BYTE   VOL   28*FE11IntotheDarkness_mvl/mxv
 BYTE   W03
 BYTE   VOL   29*FE11IntotheDarkness_mvl/mxv
 BYTE   W03
 BYTE   VOL   30*FE11IntotheDarkness_mvl/mxv
 BYTE   W02
 BYTE   N44  Cs2  v068
 BYTE   N44  Cs3  v072
 BYTE   W01
 BYTE   VOL   30*FE11IntotheDarkness_mvl/mxv
 BYTE   W03
 BYTE   VOL   31*FE11IntotheDarkness_mvl/mxv
 BYTE   W03
 BYTE   VOL   32*FE11IntotheDarkness_mvl/mxv
 BYTE   W03
 BYTE   VOL   34*FE11IntotheDarkness_mvl/mxv
 BYTE   W03
 BYTE   VOL   35*FE11IntotheDarkness_mvl/mxv
 BYTE   W03
 BYTE   VOL   36*FE11IntotheDarkness_mvl/mxv
 BYTE   W03
 BYTE   VOL   36*FE11IntotheDarkness_mvl/mxv
 BYTE   W03
 BYTE   VOL   38*FE11IntotheDarkness_mvl/mxv
 BYTE   W03
 BYTE   VOL   40*FE11IntotheDarkness_mvl/mxv
 BYTE   W03
 BYTE   VOL   42*FE11IntotheDarkness_mvl/mxv
 BYTE   W03
 BYTE   VOL   44*FE11IntotheDarkness_mvl/mxv
 BYTE   W03
 BYTE   VOL   46*FE11IntotheDarkness_mvl/mxv
 BYTE   W03
 BYTE   VOL   48*FE11IntotheDarkness_mvl/mxv
 BYTE   W03
 BYTE   VOL   51*FE11IntotheDarkness_mvl/mxv
 BYTE   W03
 BYTE   VOL   54*FE11IntotheDarkness_mvl/mxv
 BYTE   W03
 BYTE   VOL   58*FE11IntotheDarkness_mvl/mxv
 BYTE   W02
//  #04 //017   ----------------------------------------
 BYTE   VOL   59*FE11IntotheDarkness_mvl/mxv
 BYTE   N44  Bn1  v068
 BYTE   N44  Ds3  v072
 BYTE   W40
 BYTE   VOL   59*FE11IntotheDarkness_mvl/mxv
 BYTE   W06
 BYTE   VOL   58*FE11IntotheDarkness_mvl/mxv
 BYTE   W02
 BYTE   N32  Ds2  v068
 BYTE   N23  Bn2  v060
 BYTE   W04
 BYTE   VOL   58*FE11IntotheDarkness_mvl/mxv
 BYTE   W06
 BYTE   VOL   56*FE11IntotheDarkness_mvl/mxv
 BYTE   W06
 BYTE   VOL   55*FE11IntotheDarkness_mvl/mxv
 BYTE   W03
 BYTE   VOL   54*FE11IntotheDarkness_mvl/mxv
 BYTE   W05
 BYTE   N23  An2  v064
 BYTE   W01
 BYTE   VOL   53*FE11IntotheDarkness_mvl/mxv
 BYTE   W03
 BYTE   VOL   53*FE11IntotheDarkness_mvl/mxv
 BYTE   W06
 BYTE   VOL   51*FE11IntotheDarkness_mvl/mxv
 BYTE   W02
 BYTE   N11  Bn1  v060
 BYTE   W01
 BYTE   VOL   51*FE11IntotheDarkness_mvl/mxv
 BYTE   W03
 BYTE   VOL   49*FE11IntotheDarkness_mvl/mxv
 BYTE   W06
 BYTE   VOL   48*FE11IntotheDarkness_mvl/mxv
 BYTE   W02
//  #04 //018   ----------------------------------------
 BYTE   N92  An1  v068
 BYTE   N92  Bn2  v072
 BYTE   W01
 BYTE   VOL   47*FE11IntotheDarkness_mvl/mxv
 BYTE   W03
 BYTE   VOL   46*FE11IntotheDarkness_mvl/mxv
 BYTE   W03
 BYTE   VOL   46*FE11IntotheDarkness_mvl/mxv
 BYTE   W03
 BYTE   VOL   44*FE11IntotheDarkness_mvl/mxv
 BYTE   W06
 BYTE   VOL   44*FE11IntotheDarkness_mvl/mxv
 BYTE   W03
 BYTE   VOL   42*FE11IntotheDarkness_mvl/mxv
 BYTE   W03
 BYTE   VOL   42*FE11IntotheDarkness_mvl/mxv
 BYTE   W03
 BYTE   VOL   41*FE11IntotheDarkness_mvl/mxv
 BYTE   W03
 BYTE   VOL   40*FE11IntotheDarkness_mvl/mxv
 BYTE   W03
 BYTE   VOL   39*FE11IntotheDarkness_mvl/mxv
 BYTE   W03
 BYTE   VOL   37*FE11IntotheDarkness_mvl/mxv
 BYTE   W03
 BYTE   VOL   36*FE11IntotheDarkness_mvl/mxv
 BYTE   W03
 BYTE   VOL   36*FE11IntotheDarkness_mvl/mxv
 BYTE   W03
 BYTE   VOL   36*FE11IntotheDarkness_mvl/mxv
 BYTE   W03
 BYTE   VOL   35*FE11IntotheDarkness_mvl/mxv
 BYTE   W03
 BYTE   VOL   33*FE11IntotheDarkness_mvl/mxv
 BYTE   W03
 BYTE   VOL   32*FE11IntotheDarkness_mvl/mxv
 BYTE   W03
 BYTE   VOL   31*FE11IntotheDarkness_mvl/mxv
 BYTE   W03
 BYTE   VOL   30*FE11IntotheDarkness_mvl/mxv
 BYTE   W03
 BYTE   VOL   29*FE11IntotheDarkness_mvl/mxv
 BYTE   W03
 BYTE   VOL   27*FE11IntotheDarkness_mvl/mxv
 BYTE   W03
 BYTE   VOL   25*FE11IntotheDarkness_mvl/mxv
 BYTE   W03
 BYTE   VOL   25*FE11IntotheDarkness_mvl/mxv
 BYTE   W03
 BYTE   VOL   23*FE11IntotheDarkness_mvl/mxv
 BYTE   W03
 BYTE   VOL   22*FE11IntotheDarkness_mvl/mxv
 BYTE   W03
 BYTE   VOL   20*FE11IntotheDarkness_mvl/mxv
 BYTE   W03
 BYTE   VOL   19*FE11IntotheDarkness_mvl/mxv
 BYTE   W03
 BYTE   VOL   17*FE11IntotheDarkness_mvl/mxv
 BYTE   W01
 BYTE   VOL   16*FE11IntotheDarkness_mvl/mxv
 BYTE   W06
 BYTE   VOL   17*FE11IntotheDarkness_mvl/mxv
 BYTE   W03
 BYTE   VOL   18*FE11IntotheDarkness_mvl/mxv
 BYTE   W01
//  #04 //019   ----------------------------------------
 BYTE   N72  En3
 BYTE   W05
 BYTE   VOL   19*FE11IntotheDarkness_mvl/mxv
 BYTE   W03
 BYTE   VOL   19*FE11IntotheDarkness_mvl/mxv
 BYTE   W03
 BYTE   VOL   20*FE11IntotheDarkness_mvl/mxv
 BYTE   W03
 BYTE   VOL   21*FE11IntotheDarkness_mvl/mxv
 BYTE   W03
 BYTE   VOL   22*FE11IntotheDarkness_mvl/mxv
 BYTE   W03
 BYTE   VOL   22*FE11IntotheDarkness_mvl/mxv
 BYTE   W03
 BYTE   VOL   23*FE11IntotheDarkness_mvl/mxv
 BYTE   W03
 BYTE   VOL   25*FE11IntotheDarkness_mvl/mxv
 BYTE   W03
 BYTE   VOL   25*FE11IntotheDarkness_mvl/mxv
 BYTE   W03
 BYTE   VOL   27*FE11IntotheDarkness_mvl/mxv
 BYTE   W03
 BYTE   VOL   28*FE11IntotheDarkness_mvl/mxv
 BYTE   W03
 BYTE   VOL   30*FE11IntotheDarkness_mvl/mxv
 BYTE   W03
 BYTE   VOL   31*FE11IntotheDarkness_mvl/mxv
 BYTE   W03
 BYTE   VOL   33*FE11IntotheDarkness_mvl/mxv
 BYTE   W03
 BYTE   VOL   35*FE11IntotheDarkness_mvl/mxv
 BYTE   W03
 BYTE   VOL   36*FE11IntotheDarkness_mvl/mxv
 BYTE   W03
 BYTE   VOL   38*FE11IntotheDarkness_mvl/mxv
 BYTE   W03
 BYTE   VOL   41*FE11IntotheDarkness_mvl/mxv
 BYTE   W03
 BYTE   VOL   44*FE11IntotheDarkness_mvl/mxv
 BYTE   W03
 BYTE   VOL   46*FE11IntotheDarkness_mvl/mxv
 BYTE   W03
 BYTE   VOL   51*FE11IntotheDarkness_mvl/mxv
 BYTE   W03
 BYTE   VOL   55*FE11IntotheDarkness_mvl/mxv
 BYTE   W02
 BYTE   VOL   59*FE11IntotheDarkness_mvl/mxv
 BYTE   W24
 BYTE   W02
//  #04 //020   ----------------------------------------
 BYTE   W36
 BYTE   N05  En2  v092
 BYTE   W06
 BYTE   An2  v080
 BYTE   W06
 BYTE   N44  En2  v092
 BYTE   N44  An2  v072
 BYTE   N44  Bn2  v112
 BYTE   W09
 BYTE   VOL   59*FE11IntotheDarkness_mvl/mxv
 BYTE   W03
 BYTE   VOL   58*FE11IntotheDarkness_mvl/mxv
 BYTE   W03
 BYTE   VOL   55*FE11IntotheDarkness_mvl/mxv
 BYTE   W03
 BYTE   VOL   53*FE11IntotheDarkness_mvl/mxv
 BYTE   W03
 BYTE   VOL   51*FE11IntotheDarkness_mvl/mxv
 BYTE   W03
 BYTE   VOL   49*FE11IntotheDarkness_mvl/mxv
 BYTE   W03
 BYTE   VOL   47*FE11IntotheDarkness_mvl/mxv
 BYTE   W03
 BYTE   VOL   46*FE11IntotheDarkness_mvl/mxv
 BYTE   W03
 BYTE   VOL   44*FE11IntotheDarkness_mvl/mxv
 BYTE   W03
 BYTE   VOL   42*FE11IntotheDarkness_mvl/mxv
 BYTE   W03
 BYTE   VOL   40*FE11IntotheDarkness_mvl/mxv
 BYTE   W01
 BYTE   VOL   38*FE11IntotheDarkness_mvl/mxv
 BYTE   W08
//  #04 //021   ----------------------------------------
 BYTE   N44  An2  v084
 BYTE   TIE  Dn3  v088
 BYTE   W04
 BYTE   VOL   39*FE11IntotheDarkness_mvl/mxv
 BYTE   W08
 BYTE   VOL   40*FE11IntotheDarkness_mvl/mxv
 BYTE   W08
 BYTE   VOL   41*FE11IntotheDarkness_mvl/mxv
 BYTE   W04
 BYTE   VOL   42*FE11IntotheDarkness_mvl/mxv
 BYTE   W08
 BYTE   VOL   42*FE11IntotheDarkness_mvl/mxv
 BYTE   W04
 BYTE   VOL   44*FE11IntotheDarkness_mvl/mxv
 BYTE   W04
 BYTE   VOL   44*FE11IntotheDarkness_mvl/mxv
 BYTE   W04
 BYTE   VOL   46*FE11IntotheDarkness_mvl/mxv
 BYTE   W04
 BYTE   VOL   46*FE11IntotheDarkness_mvl/mxv
 BYTE   N92  Gn2  v072
 BYTE   W04
 BYTE   VOL   47*FE11IntotheDarkness_mvl/mxv
 BYTE   W04
 BYTE   VOL   48*FE11IntotheDarkness_mvl/mxv
 BYTE   W04
 BYTE   VOL   49*FE11IntotheDarkness_mvl/mxv
 BYTE   W04
 BYTE   VOL   51*FE11IntotheDarkness_mvl/mxv
 BYTE   W04
 BYTE   VOL   53*FE11IntotheDarkness_mvl/mxv
 BYTE   W04
 BYTE   VOL   54*FE11IntotheDarkness_mvl/mxv
 BYTE   W04
 BYTE   VOL   56*FE11IntotheDarkness_mvl/mxv
 BYTE   W04
 BYTE   VOL   58*FE11IntotheDarkness_mvl/mxv
 BYTE   W01
 BYTE   VOL   59*FE11IntotheDarkness_mvl/mxv
 BYTE   W15
//  #04 //022   ----------------------------------------
 BYTE   VOL   59*FE11IntotheDarkness_mvl/mxv
 BYTE   W01
 BYTE   VOL   55*FE11IntotheDarkness_mvl/mxv
 BYTE   W02
 BYTE   VOL   51*FE11IntotheDarkness_mvl/mxv
 BYTE   W01
 BYTE   VOL   46*FE11IntotheDarkness_mvl/mxv
 BYTE   W02
 BYTE   VOL   42*FE11IntotheDarkness_mvl/mxv
 BYTE   W01
 BYTE   VOL   39*FE11IntotheDarkness_mvl/mxv
 BYTE   W02
 BYTE   VOL   36*FE11IntotheDarkness_mvl/mxv
 BYTE   W01
 BYTE   VOL   32*FE11IntotheDarkness_mvl/mxv
 BYTE   W02
 BYTE   VOL   28*FE11IntotheDarkness_mvl/mxv
 BYTE   W01
 BYTE   VOL   25*FE11IntotheDarkness_mvl/mxv
 BYTE   W02
 BYTE   VOL   22*FE11IntotheDarkness_mvl/mxv
 BYTE   W01
 BYTE   VOL   18*FE11IntotheDarkness_mvl/mxv
 BYTE   W02
 BYTE   VOL   15*FE11IntotheDarkness_mvl/mxv
 BYTE   W01
 BYTE   VOL   13*FE11IntotheDarkness_mvl/mxv
 BYTE   W02
 BYTE   VOL   9*FE11IntotheDarkness_mvl/mxv
 BYTE   W01
 BYTE   VOL   7*FE11IntotheDarkness_mvl/mxv
 BYTE   W02
 BYTE   VOL   4*FE11IntotheDarkness_mvl/mxv
 BYTE   W01
 BYTE   VOL   2*FE11IntotheDarkness_mvl/mxv
 BYTE   W02
 BYTE   VOL   0*FE11IntotheDarkness_mvl/mxv
 BYTE   W01
 BYTE   VOL   0*FE11IntotheDarkness_mvl/mxv
 BYTE   W02
 BYTE   VOL   0*FE11IntotheDarkness_mvl/mxv
 BYTE   W01
 BYTE   VOL   0*FE11IntotheDarkness_mvl/mxv
 BYTE   W16
 BYTE   EOT
 BYTE   Dn3
 BYTE   W48
 BYTE   W01
//  #04 //023   ----------------------------------------
 BYTE   W96
//  #04 //024   ----------------------------------------
 BYTE   W96
//  #04 //025   ----------------------------------------
 BYTE   W96
//  #04 //026   ----------------------------------------
 BYTE   GoTo
  POIN2 Label_010B8E52
 BYTE   FINE

//**************** Track 5 (Midi-Chn.4) ****************//

FE11IntotheDarkness_005:
//  #05 //000   ----------------------------------------
 BYTE   KEYSH   FE11IntotheDarkness_key+0
Label_010BB2BA:
 BYTE   VOICE   49
 BYTE   MODT 0
 BYTE   LFOS 44
 BYTE   VOL   46*FE11IntotheDarkness_mvl/mxv
 BYTE   PAN   c_v-18
 BYTE   VOL   46*FE11IntotheDarkness_mvl/mxv
 BYTE   PAN   c_v-18
 BYTE   VOL   46*FE11IntotheDarkness_mvl/mxv
 BYTE   N28  En2  v092
 BYTE   N28  An2  v060
 BYTE   W30
 BYTE   N06  En2  v032
 BYTE   N06  An2  v036
 BYTE   W12
 BYTE   En2  v072
 BYTE   N06  An2  v052
 BYTE   W06
 BYTE   TIE  Fs2  v064
 BYTE   TIE  Bn2  v052
 BYTE   W48
//  #05 //001   ----------------------------------------
 BYTE   W88
 BYTE   W01
 BYTE   EOT
 BYTE   Fs2  v059
 BYTE   W01
 BYTE   N06  Fs2  v032
 BYTE   N06  Bn2  v036
 BYTE   W06
//  #05 //002   ----------------------------------------
Label_010BB2F2:
 BYTE   N28  En2  v084
 BYTE   N28  An2  v056
 BYTE   W30
 BYTE   N06  En2  v032
 BYTE   N06  An2  v036
 BYTE   W12
 BYTE   N05  Fs2  v092
 BYTE   N05  Bn2  v060
 BYTE   W06
 BYTE   N64  Gn2  v076
 BYTE   N64  Cn3  v056
 BYTE   W48
 BYTE   PEND 
//  #05 //003   ----------------------------------------
 BYTE   W18
 BYTE   N06  Gn2  v032
 BYTE   N06  Cn3  v036
 BYTE   W78
//  #05 //004   ----------------------------------------
 BYTE   W96
//  #05 //005   ----------------------------------------
 BYTE   W19
 BYTE   VOL   46*FE11IntotheDarkness_mvl/mxv
 BYTE   W03
 BYTE   VOL   46*FE11IntotheDarkness_mvl/mxv
 BYTE   W03
 BYTE   VOL   44*FE11IntotheDarkness_mvl/mxv
 BYTE   W03
 BYTE   VOL   44*FE11IntotheDarkness_mvl/mxv
 BYTE   W03
 BYTE   VOL   42*FE11IntotheDarkness_mvl/mxv
 BYTE   W03
 BYTE   VOL   41*FE11IntotheDarkness_mvl/mxv
 BYTE   W03
 BYTE   VOL   40*FE11IntotheDarkness_mvl/mxv
 BYTE   W03
 BYTE   VOL   39*FE11IntotheDarkness_mvl/mxv
 BYTE   W03
 BYTE   VOL   37*FE11IntotheDarkness_mvl/mxv
 BYTE   W03
 BYTE   VOL   36*FE11IntotheDarkness_mvl/mxv
 BYTE   W03
 BYTE   VOL   35*FE11IntotheDarkness_mvl/mxv
 BYTE   W03
 BYTE   VOL   33*FE11IntotheDarkness_mvl/mxv
 BYTE   W03
 BYTE   VOL   31*FE11IntotheDarkness_mvl/mxv
 BYTE   W03
 BYTE   VOL   30*FE11IntotheDarkness_mvl/mxv
 BYTE   W03
 BYTE   VOL   28*FE11IntotheDarkness_mvl/mxv
 BYTE   W03
 BYTE   VOL   25*FE11IntotheDarkness_mvl/mxv
 BYTE   W03
 BYTE   VOL   24*FE11IntotheDarkness_mvl/mxv
 BYTE   W03
 BYTE   VOL   21*FE11IntotheDarkness_mvl/mxv
 BYTE   W03
 BYTE   VOL   19*FE11IntotheDarkness_mvl/mxv
 BYTE   W03
 BYTE   VOL   15*FE11IntotheDarkness_mvl/mxv
 BYTE   W03
 BYTE   VOL   13*FE11IntotheDarkness_mvl/mxv
 BYTE   W03
 BYTE   VOL   11*FE11IntotheDarkness_mvl/mxv
 BYTE   W03
 BYTE   VOL   7*FE11IntotheDarkness_mvl/mxv
 BYTE   W03
 BYTE   VOL   4*FE11IntotheDarkness_mvl/mxv
 BYTE   W02
 BYTE   VOL   0*FE11IntotheDarkness_mvl/mxv
 BYTE   W05
 BYTE   VOL   20*FE11IntotheDarkness_mvl/mxv
 BYTE   W01
//  #05 //006   ----------------------------------------
 BYTE   VOL   46*FE11IntotheDarkness_mvl/mxv
 BYTE   N28  En2  v092
 BYTE   N28  An2  v060
 BYTE   W30
 BYTE   N06  En2  v032
 BYTE   N06  An2  v036
 BYTE   W12
 BYTE   En2  v072
 BYTE   N06  An2  v052
 BYTE   W06
 BYTE   TIE  Fs2  v064
 BYTE   TIE  Bn2  v052
 BYTE   W48
//  #05 //007   ----------------------------------------
 BYTE   W88
 BYTE   W01
 BYTE   EOT
 BYTE   Fs2  v059
 BYTE   W01
 BYTE   N06  Fs2  v032
 BYTE   N06  Bn2  v036
 BYTE   W06
//  #05 //008   ----------------------------------------
 BYTE   PATT
  POIN2 Label_010BB2F2
//  #05 //009   ----------------------------------------
 BYTE   W18
 BYTE   N06  Gn2  v032
 BYTE   N06  Cn3  v036
 BYTE   W06
 BYTE   N23  Fs2  v088
 BYTE   W24
 BYTE   Gn2
 BYTE   W24
 BYTE   N11  Fs2  v080
 BYTE   W12
 BYTE   N05  Gn2
 BYTE   W06
 BYTE   Gs2
 BYTE   W06
//  #05 //010   ----------------------------------------
 BYTE   N44  An2  v108
 BYTE   W24
 BYTE   W03
 BYTE   VOL   46*FE11IntotheDarkness_mvl/mxv
 BYTE   W03
 BYTE   VOL   46*FE11IntotheDarkness_mvl/mxv
 BYTE   W03
 BYTE   VOL   44*FE11IntotheDarkness_mvl/mxv
 BYTE   W03
 BYTE   VOL   44*FE11IntotheDarkness_mvl/mxv
 BYTE   W03
 BYTE   VOL   42*FE11IntotheDarkness_mvl/mxv
 BYTE   W03
 BYTE   VOL   41*FE11IntotheDarkness_mvl/mxv
 BYTE   W03
 BYTE   VOL   40*FE11IntotheDarkness_mvl/mxv
 BYTE   W03
 BYTE   VOL   40*FE11IntotheDarkness_mvl/mxv
 BYTE   N68  Gn2  v092
 BYTE   W03
 BYTE   VOL   39*FE11IntotheDarkness_mvl/mxv
 BYTE   W03
 BYTE   VOL   37*FE11IntotheDarkness_mvl/mxv
 BYTE   W03
 BYTE   VOL   36*FE11IntotheDarkness_mvl/mxv
 BYTE   W03
 BYTE   VOL   36*FE11IntotheDarkness_mvl/mxv
 BYTE   W03
 BYTE   VOL   35*FE11IntotheDarkness_mvl/mxv
 BYTE   W03
 BYTE   VOL   35*FE11IntotheDarkness_mvl/mxv
 BYTE   W03
 BYTE   VOL   33*FE11IntotheDarkness_mvl/mxv
 BYTE   W03
 BYTE   VOL   32*FE11IntotheDarkness_mvl/mxv
 BYTE   W03
 BYTE   VOL   31*FE11IntotheDarkness_mvl/mxv
 BYTE   W03
 BYTE   VOL   30*FE11IntotheDarkness_mvl/mxv
 BYTE   W03
 BYTE   VOL   30*FE11IntotheDarkness_mvl/mxv
 BYTE   W03
 BYTE   VOL   29*FE11IntotheDarkness_mvl/mxv
 BYTE   W03
 BYTE   VOL   28*FE11IntotheDarkness_mvl/mxv
 BYTE   W03
 BYTE   VOL   27*FE11IntotheDarkness_mvl/mxv
 BYTE   W03
 BYTE   VOL   26*FE11IntotheDarkness_mvl/mxv
 BYTE   W03
//  #05 //011   ----------------------------------------
 BYTE   VOL   25*FE11IntotheDarkness_mvl/mxv
 BYTE   W03
 BYTE   VOL   25*FE11IntotheDarkness_mvl/mxv
 BYTE   W03
 BYTE   VOL   24*FE11IntotheDarkness_mvl/mxv
 BYTE   W03
 BYTE   VOL   23*FE11IntotheDarkness_mvl/mxv
 BYTE   W03
 BYTE   VOL   22*FE11IntotheDarkness_mvl/mxv
 BYTE   W09
 BYTE   VOL   22*FE11IntotheDarkness_mvl/mxv
 BYTE   W03
 BYTE   N23  An2  v076
 BYTE   N23  Bn2
 BYTE   W03
 BYTE   VOL   23*FE11IntotheDarkness_mvl/mxv
 BYTE   W06
 BYTE   VOL   24*FE11IntotheDarkness_mvl/mxv
 BYTE   W06
 BYTE   VOL   25*FE11IntotheDarkness_mvl/mxv
 BYTE   W03
 BYTE   VOL   25*FE11IntotheDarkness_mvl/mxv
 BYTE   W06
 BYTE   VOL   25*FE11IntotheDarkness_mvl/mxv
 BYTE   N23
 BYTE   N23  En3  v104
 BYTE   W03
 BYTE   VOL   26*FE11IntotheDarkness_mvl/mxv
 BYTE   W03
 BYTE   VOL   27*FE11IntotheDarkness_mvl/mxv
 BYTE   W03
 BYTE   VOL   28*FE11IntotheDarkness_mvl/mxv
 BYTE   W03
 BYTE   VOL   29*FE11IntotheDarkness_mvl/mxv
 BYTE   W03
 BYTE   VOL   30*FE11IntotheDarkness_mvl/mxv
 BYTE   W03
 BYTE   VOL   30*FE11IntotheDarkness_mvl/mxv
 BYTE   W03
 BYTE   VOL   31*FE11IntotheDarkness_mvl/mxv
 BYTE   W03
 BYTE   VOL   33*FE11IntotheDarkness_mvl/mxv
 BYTE   N23  Dn3  v076
 BYTE   N23  Gn3  v112
 BYTE   W03
 BYTE   VOL   35*FE11IntotheDarkness_mvl/mxv
 BYTE   W03
 BYTE   VOL   36*FE11IntotheDarkness_mvl/mxv
 BYTE   W03
 BYTE   VOL   38*FE11IntotheDarkness_mvl/mxv
 BYTE   W03
 BYTE   VOL   40*FE11IntotheDarkness_mvl/mxv
 BYTE   W03
 BYTE   VOL   44*FE11IntotheDarkness_mvl/mxv
 BYTE   W01
 BYTE   VOL   46*FE11IntotheDarkness_mvl/mxv
 BYTE   W08
//  #05 //012   ----------------------------------------
 BYTE   N23  Cs3  v072
 BYTE   N44  Fs3  v100
 BYTE   W04
 BYTE   VOL   46*FE11IntotheDarkness_mvl/mxv
 BYTE   W06
 BYTE   VOL   46*FE11IntotheDarkness_mvl/mxv
 BYTE   W06
 BYTE   VOL   44*FE11IntotheDarkness_mvl/mxv
 BYTE   W03
 BYTE   VOL   44*FE11IntotheDarkness_mvl/mxv
 BYTE   W05
 BYTE   N23  Cn3  v072
 BYTE   W01
 BYTE   VOL   42*FE11IntotheDarkness_mvl/mxv
 BYTE   W03
 BYTE   VOL   42*FE11IntotheDarkness_mvl/mxv
 BYTE   W03
 BYTE   VOL   41*FE11IntotheDarkness_mvl/mxv
 BYTE   W03
 BYTE   VOL   40*FE11IntotheDarkness_mvl/mxv
 BYTE   W03
 BYTE   VOL   40*FE11IntotheDarkness_mvl/mxv
 BYTE   W06
 BYTE   VOL   38*FE11IntotheDarkness_mvl/mxv
 BYTE   W03
 BYTE   VOL   37*FE11IntotheDarkness_mvl/mxv
 BYTE   W02
 BYTE   N23  Bn2
 BYTE   N44  Dn3  v092
 BYTE   W01
 BYTE   VOL   36*FE11IntotheDarkness_mvl/mxv
 BYTE   W03
 BYTE   VOL   36*FE11IntotheDarkness_mvl/mxv
 BYTE   W03
 BYTE   VOL   35*FE11IntotheDarkness_mvl/mxv
 BYTE   W03
 BYTE   VOL   34*FE11IntotheDarkness_mvl/mxv
 BYTE   W03
 BYTE   VOL   33*FE11IntotheDarkness_mvl/mxv
 BYTE   W03
 BYTE   VOL   31*FE11IntotheDarkness_mvl/mxv
 BYTE   W03
 BYTE   VOL   30*FE11IntotheDarkness_mvl/mxv
 BYTE   W03
 BYTE   VOL   29*FE11IntotheDarkness_mvl/mxv
 BYTE   W02
 BYTE   N23  As2  v072
 BYTE   W01
 BYTE   VOL   27*FE11IntotheDarkness_mvl/mxv
 BYTE   W03
 BYTE   VOL   25*FE11IntotheDarkness_mvl/mxv
 BYTE   W03
 BYTE   VOL   25*FE11IntotheDarkness_mvl/mxv
 BYTE   W03
 BYTE   VOL   22*FE11IntotheDarkness_mvl/mxv
 BYTE   W03
 BYTE   VOL   20*FE11IntotheDarkness_mvl/mxv
 BYTE   W03
 BYTE   VOL   19*FE11IntotheDarkness_mvl/mxv
 BYTE   W03
 BYTE   VOL   15*FE11IntotheDarkness_mvl/mxv
 BYTE   W05
//  #05 //013   ----------------------------------------
 BYTE   N92  Bn2  v068
 BYTE   N92  En3  v092
 BYTE   W04
 BYTE   VOL   16*FE11IntotheDarkness_mvl/mxv
 BYTE   W03
 BYTE   VOL   17*FE11IntotheDarkness_mvl/mxv
 BYTE   W06
 BYTE   VOL   18*FE11IntotheDarkness_mvl/mxv
 BYTE   W06
 BYTE   VOL   19*FE11IntotheDarkness_mvl/mxv
 BYTE   W03
 BYTE   VOL   19*FE11IntotheDarkness_mvl/mxv
 BYTE   W06
 BYTE   VOL   20*FE11IntotheDarkness_mvl/mxv
 BYTE   W03
 BYTE   VOL   20*FE11IntotheDarkness_mvl/mxv
 BYTE   W03
 BYTE   VOL   21*FE11IntotheDarkness_mvl/mxv
 BYTE   W03
 BYTE   VOL   22*FE11IntotheDarkness_mvl/mxv
 BYTE   W06
 BYTE   VOL   22*FE11IntotheDarkness_mvl/mxv
 BYTE   W03
 BYTE   VOL   23*FE11IntotheDarkness_mvl/mxv
 BYTE   W03
 BYTE   VOL   25*FE11IntotheDarkness_mvl/mxv
 BYTE   W03
 BYTE   VOL   25*FE11IntotheDarkness_mvl/mxv
 BYTE   W03
 BYTE   VOL   25*FE11IntotheDarkness_mvl/mxv
 BYTE   W03
 BYTE   VOL   26*FE11IntotheDarkness_mvl/mxv
 BYTE   W03
 BYTE   VOL   28*FE11IntotheDarkness_mvl/mxv
 BYTE   W03
 BYTE   VOL   29*FE11IntotheDarkness_mvl/mxv
 BYTE   W03
 BYTE   VOL   30*FE11IntotheDarkness_mvl/mxv
 BYTE   W03
 BYTE   VOL   31*FE11IntotheDarkness_mvl/mxv
 BYTE   W03
 BYTE   VOL   33*FE11IntotheDarkness_mvl/mxv
 BYTE   W03
 BYTE   VOL   35*FE11IntotheDarkness_mvl/mxv
 BYTE   W03
 BYTE   VOL   36*FE11IntotheDarkness_mvl/mxv
 BYTE   W03
 BYTE   VOL   37*FE11IntotheDarkness_mvl/mxv
 BYTE   W03
 BYTE   VOL   40*FE11IntotheDarkness_mvl/mxv
 BYTE   W03
 BYTE   VOL   42*FE11IntotheDarkness_mvl/mxv
 BYTE   W03
 BYTE   VOL   46*FE11IntotheDarkness_mvl/mxv
 BYTE   W01
 BYTE   VOL   46*FE11IntotheDarkness_mvl/mxv
 BYTE   W04
//  #05 //014   ----------------------------------------
 BYTE   VOL   46*FE11IntotheDarkness_mvl/mxv
 BYTE   N04  Bn2  v016
 BYTE   N04  En3
 BYTE   W96
//  #05 //015   ----------------------------------------
 BYTE   W44
 BYTE   W03
 BYTE   VOL   46*FE11IntotheDarkness_mvl/mxv
 BYTE   W01
 BYTE   VOL   44*FE11IntotheDarkness_mvl/mxv
 BYTE   W02
 BYTE   VOL   41*FE11IntotheDarkness_mvl/mxv
 BYTE   W01
 BYTE   VOL   38*FE11IntotheDarkness_mvl/mxv
 BYTE   W02
 BYTE   VOL   36*FE11IntotheDarkness_mvl/mxv
 BYTE   W01
 BYTE   VOL   34*FE11IntotheDarkness_mvl/mxv
 BYTE   W02
 BYTE   VOL   30*FE11IntotheDarkness_mvl/mxv
 BYTE   W01
 BYTE   VOL   29*FE11IntotheDarkness_mvl/mxv
 BYTE   W02
 BYTE   VOL   26*FE11IntotheDarkness_mvl/mxv
 BYTE   W01
 BYTE   VOL   24*FE11IntotheDarkness_mvl/mxv
 BYTE   W02
 BYTE   VOL   22*FE11IntotheDarkness_mvl/mxv
 BYTE   W01
 BYTE   VOL   20*FE11IntotheDarkness_mvl/mxv
 BYTE   W02
 BYTE   VOL   16*FE11IntotheDarkness_mvl/mxv
 BYTE   W07
 BYTE   N02  Fn4  v104
 BYTE   W02
 BYTE   VOL   17*FE11IntotheDarkness_mvl/mxv
 BYTE   W01
 BYTE   N02  Gn4
 BYTE   W02
 BYTE   VOL   18*FE11IntotheDarkness_mvl/mxv
 BYTE   W01
 BYTE   N02  Gs4
 BYTE   W03
 BYTE   As4
 BYTE   W02
 BYTE   VOL   19*FE11IntotheDarkness_mvl/mxv
 BYTE   W01
 BYTE   N02  Cn5
 BYTE   W03
 BYTE   Cs5
 BYTE   W02
 BYTE   VOL   19*FE11IntotheDarkness_mvl/mxv
 BYTE   W01
 BYTE   N02  Ds5
 BYTE   W03
 BYTE   Fn5
 BYTE   W02
 BYTE   VOL   20*FE11IntotheDarkness_mvl/mxv
 BYTE   W01
//  #05 //016   ----------------------------------------
 BYTE   N44  Gn3
 BYTE   W02
 BYTE   VOL   20*FE11IntotheDarkness_mvl/mxv
 BYTE   W06
 BYTE   VOL   21*FE11IntotheDarkness_mvl/mxv
 BYTE   W03
 BYTE   VOL   22*FE11IntotheDarkness_mvl/mxv
 BYTE   W03
 BYTE   VOL   22*FE11IntotheDarkness_mvl/mxv
 BYTE   W06
 BYTE   VOL   23*FE11IntotheDarkness_mvl/mxv
 BYTE   W03
 BYTE   VOL   24*FE11IntotheDarkness_mvl/mxv
 BYTE   W03
 BYTE   VOL   25*FE11IntotheDarkness_mvl/mxv
 BYTE   W03
 BYTE   VOL   25*FE11IntotheDarkness_mvl/mxv
 BYTE   W03
 BYTE   VOL   25*FE11IntotheDarkness_mvl/mxv
 BYTE   W03
 BYTE   VOL   26*FE11IntotheDarkness_mvl/mxv
 BYTE   W03
 BYTE   VOL   27*FE11IntotheDarkness_mvl/mxv
 BYTE   W03
 BYTE   VOL   28*FE11IntotheDarkness_mvl/mxv
 BYTE   W03
 BYTE   VOL   29*FE11IntotheDarkness_mvl/mxv
 BYTE   W03
 BYTE   VOL   30*FE11IntotheDarkness_mvl/mxv
 BYTE   W01
 BYTE   N44  Fn3
 BYTE   W02
 BYTE   VOL   30*FE11IntotheDarkness_mvl/mxv
 BYTE   W03
 BYTE   VOL   31*FE11IntotheDarkness_mvl/mxv
 BYTE   W03
 BYTE   VOL   32*FE11IntotheDarkness_mvl/mxv
 BYTE   W03
 BYTE   VOL   33*FE11IntotheDarkness_mvl/mxv
 BYTE   W03
 BYTE   VOL   35*FE11IntotheDarkness_mvl/mxv
 BYTE   W03
 BYTE   VOL   35*FE11IntotheDarkness_mvl/mxv
 BYTE   W03
 BYTE   VOL   36*FE11IntotheDarkness_mvl/mxv
 BYTE   W03
 BYTE   VOL   38*FE11IntotheDarkness_mvl/mxv
 BYTE   W03
 BYTE   VOL   39*FE11IntotheDarkness_mvl/mxv
 BYTE   W03
 BYTE   VOL   40*FE11IntotheDarkness_mvl/mxv
 BYTE   W03
 BYTE   VOL   42*FE11IntotheDarkness_mvl/mxv
 BYTE   W03
 BYTE   VOL   44*FE11IntotheDarkness_mvl/mxv
 BYTE   W03
 BYTE   VOL   46*FE11IntotheDarkness_mvl/mxv
 BYTE   W10
//  #05 //017   ----------------------------------------
 BYTE   N11  Bn4
 BYTE   W12
 BYTE   N05  An2  v072
 BYTE   N05  Cs3  v104
 BYTE   W06
 BYTE   Gs2  v072
 BYTE   N05  Dn3  v104
 BYTE   W06
 BYTE   N68  Gn2  v072
 BYTE   N68  Ds3  v104
 BYTE   W02
 BYTE   VOL   40*FE11IntotheDarkness_mvl/mxv
 BYTE   W01
 BYTE   VOL   33*FE11IntotheDarkness_mvl/mxv
 BYTE   W01
 BYTE   VOL   26*FE11IntotheDarkness_mvl/mxv
 BYTE   W01
 BYTE   VOL   15*FE11IntotheDarkness_mvl/mxv
 BYTE   W01
 BYTE   VOL   9*FE11IntotheDarkness_mvl/mxv
 BYTE   W01
 BYTE   VOL   2*FE11IntotheDarkness_mvl/mxv
 BYTE   W03
 BYTE   VOL   2*FE11IntotheDarkness_mvl/mxv
 BYTE   W03
 BYTE   VOL   3*FE11IntotheDarkness_mvl/mxv
 BYTE   W02
 BYTE   VOL   3*FE11IntotheDarkness_mvl/mxv
 BYTE   W03
 BYTE   VOL   4*FE11IntotheDarkness_mvl/mxv
 BYTE   W01
 BYTE   VOL   4*FE11IntotheDarkness_mvl/mxv
 BYTE   W03
 BYTE   VOL   4*FE11IntotheDarkness_mvl/mxv
 BYTE   W02
 BYTE   VOL   5*FE11IntotheDarkness_mvl/mxv
 BYTE   W01
 BYTE   VOL   5*FE11IntotheDarkness_mvl/mxv
 BYTE   W02
 BYTE   VOL   6*FE11IntotheDarkness_mvl/mxv
 BYTE   W01
 BYTE   VOL   7*FE11IntotheDarkness_mvl/mxv
 BYTE   W02
 BYTE   VOL   7*FE11IntotheDarkness_mvl/mxv
 BYTE   W01
 BYTE   VOL   7*FE11IntotheDarkness_mvl/mxv
 BYTE   W02
 BYTE   VOL   8*FE11IntotheDarkness_mvl/mxv
 BYTE   W01
 BYTE   VOL   8*FE11IntotheDarkness_mvl/mxv
 BYTE   W02
 BYTE   VOL   9*FE11IntotheDarkness_mvl/mxv
 BYTE   W01
 BYTE   VOL   10*FE11IntotheDarkness_mvl/mxv
 BYTE   W02
 BYTE   VOL   11*FE11IntotheDarkness_mvl/mxv
 BYTE   W01
 BYTE   VOL   12*FE11IntotheDarkness_mvl/mxv
 BYTE   W02
 BYTE   VOL   12*FE11IntotheDarkness_mvl/mxv
 BYTE   W01
 BYTE   VOL   13*FE11IntotheDarkness_mvl/mxv
 BYTE   W02
 BYTE   VOL   14*FE11IntotheDarkness_mvl/mxv
 BYTE   W01
 BYTE   VOL   15*FE11IntotheDarkness_mvl/mxv
 BYTE   W02
 BYTE   VOL   16*FE11IntotheDarkness_mvl/mxv
 BYTE   W01
 BYTE   VOL   18*FE11IntotheDarkness_mvl/mxv
 BYTE   W02
 BYTE   VOL   19*FE11IntotheDarkness_mvl/mxv
 BYTE   W01
 BYTE   VOL   20*FE11IntotheDarkness_mvl/mxv
 BYTE   W02
 BYTE   VOL   22*FE11IntotheDarkness_mvl/mxv
 BYTE   W01
 BYTE   VOL   23*FE11IntotheDarkness_mvl/mxv
 BYTE   W02
 BYTE   VOL   25*FE11IntotheDarkness_mvl/mxv
 BYTE   W01
 BYTE   VOL   27*FE11IntotheDarkness_mvl/mxv
 BYTE   W02
 BYTE   VOL   30*FE11IntotheDarkness_mvl/mxv
 BYTE   W01
 BYTE   VOL   31*FE11IntotheDarkness_mvl/mxv
 BYTE   W02
 BYTE   VOL   35*FE11IntotheDarkness_mvl/mxv
 BYTE   W01
 BYTE   VOL   36*FE11IntotheDarkness_mvl/mxv
 BYTE   W02
 BYTE   VOL   40*FE11IntotheDarkness_mvl/mxv
 BYTE   W01
 BYTE   VOL   44*FE11IntotheDarkness_mvl/mxv
 BYTE   W01
 BYTE   VOL   46*FE11IntotheDarkness_mvl/mxv
 BYTE   W04
//  #05 //018   ----------------------------------------
 BYTE   W76
 BYTE   VOL   31*FE11IntotheDarkness_mvl/mxv
 BYTE   W01
 BYTE   VOL   16*FE11IntotheDarkness_mvl/mxv
 BYTE   W07
 BYTE   N05  Bn4  v076
 BYTE   N05  En5
 BYTE   W02
 BYTE   VOL   17*FE11IntotheDarkness_mvl/mxv
 BYTE   W04
 BYTE   N05  Bn4  v080
 BYTE   N05  En5  v084
 BYTE   W02
 BYTE   VOL   18*FE11IntotheDarkness_mvl/mxv
 BYTE   W03
 BYTE   VOL   19*FE11IntotheDarkness_mvl/mxv
 BYTE   W01
//  #05 //019   ----------------------------------------
 BYTE   N44  Bn2  v072
 BYTE   N44  En3  v088
 BYTE   W05
 BYTE   VOL   19*FE11IntotheDarkness_mvl/mxv
 BYTE   W06
 BYTE   VOL   20*FE11IntotheDarkness_mvl/mxv
 BYTE   W03
 BYTE   VOL   20*FE11IntotheDarkness_mvl/mxv
 BYTE   W06
 BYTE   VOL   21*FE11IntotheDarkness_mvl/mxv
 BYTE   W03
 BYTE   VOL   22*FE11IntotheDarkness_mvl/mxv
 BYTE   W03
 BYTE   VOL   22*FE11IntotheDarkness_mvl/mxv
 BYTE   W03
 BYTE   VOL   23*FE11IntotheDarkness_mvl/mxv
 BYTE   W03
 BYTE   VOL   24*FE11IntotheDarkness_mvl/mxv
 BYTE   W03
 BYTE   VOL   25*FE11IntotheDarkness_mvl/mxv
 BYTE   W03
 BYTE   VOL   25*FE11IntotheDarkness_mvl/mxv
 BYTE   W03
 BYTE   VOL   25*FE11IntotheDarkness_mvl/mxv
 BYTE   W03
 BYTE   VOL   26*FE11IntotheDarkness_mvl/mxv
 BYTE   W03
 BYTE   VOL   27*FE11IntotheDarkness_mvl/mxv
 BYTE   W01
 BYTE   N44  Dn3  v072
 BYTE   N44  En3
 BYTE   N44  An3  v092
 BYTE   W02
 BYTE   VOL   28*FE11IntotheDarkness_mvl/mxv
 BYTE   W03
 BYTE   VOL   30*FE11IntotheDarkness_mvl/mxv
 BYTE   W03
 BYTE   VOL   30*FE11IntotheDarkness_mvl/mxv
 BYTE   W03
 BYTE   VOL   30*FE11IntotheDarkness_mvl/mxv
 BYTE   W03
 BYTE   VOL   32*FE11IntotheDarkness_mvl/mxv
 BYTE   W03
 BYTE   VOL   34*FE11IntotheDarkness_mvl/mxv
 BYTE   W03
 BYTE   VOL   35*FE11IntotheDarkness_mvl/mxv
 BYTE   W03
 BYTE   VOL   36*FE11IntotheDarkness_mvl/mxv
 BYTE   W03
 BYTE   VOL   38*FE11IntotheDarkness_mvl/mxv
 BYTE   W03
 BYTE   VOL   40*FE11IntotheDarkness_mvl/mxv
 BYTE   W03
 BYTE   VOL   42*FE11IntotheDarkness_mvl/mxv
 BYTE   W03
 BYTE   VOL   44*FE11IntotheDarkness_mvl/mxv
 BYTE   W02
 BYTE   VOL   46*FE11IntotheDarkness_mvl/mxv
 BYTE   W11
//  #05 //020   ----------------------------------------
 BYTE   W72
 BYTE   VOICE   48
 BYTE   VOL   44*FE11IntotheDarkness_mvl/mxv
 BYTE   PAN   c_v+20
 BYTE   VOL   44*FE11IntotheDarkness_mvl/mxv
 BYTE   W12
 BYTE   N05  En4  v084
 BYTE   W06
 BYTE   An4  v080
 BYTE   W06
//  #05 //021   ----------------------------------------
 BYTE   N32  Bn2  v120
 BYTE   W36
 BYTE   N05  En4  v100
 BYTE   N05  An4
 BYTE   W06
 BYTE   An4  v088
 BYTE   N05  Dn5
 BYTE   W06
 BYTE   N44  Dn3  v100
 BYTE   N44  En3  v120
 BYTE   W03
 BYTE   VOL   44*FE11IntotheDarkness_mvl/mxv
 BYTE   W01
 BYTE   VOL   38*FE11IntotheDarkness_mvl/mxv
 BYTE   W01
 BYTE   VOL   28*FE11IntotheDarkness_mvl/mxv
 BYTE   W01
 BYTE   VOL   23*FE11IntotheDarkness_mvl/mxv
 BYTE   W01
 BYTE   VOL   19*FE11IntotheDarkness_mvl/mxv
 BYTE   W01
 BYTE   VOL   11*FE11IntotheDarkness_mvl/mxv
 BYTE   W01
 BYTE   VOL   7*FE11IntotheDarkness_mvl/mxv
 BYTE   W01
 BYTE   VOL   1*FE11IntotheDarkness_mvl/mxv
 BYTE   W02
 BYTE   VOL   2*FE11IntotheDarkness_mvl/mxv
 BYTE   W01
 BYTE   VOL   2*FE11IntotheDarkness_mvl/mxv
 BYTE   W02
 BYTE   VOL   3*FE11IntotheDarkness_mvl/mxv
 BYTE   W01
 BYTE   VOL   3*FE11IntotheDarkness_mvl/mxv
 BYTE   W02
 BYTE   VOL   4*FE11IntotheDarkness_mvl/mxv
 BYTE   W01
 BYTE   VOL   4*FE11IntotheDarkness_mvl/mxv
 BYTE   W02
 BYTE   VOL   5*FE11IntotheDarkness_mvl/mxv
 BYTE   W01
 BYTE   VOL   7*FE11IntotheDarkness_mvl/mxv
 BYTE   W02
 BYTE   VOL   7*FE11IntotheDarkness_mvl/mxv
 BYTE   W01
 BYTE   VOL   8*FE11IntotheDarkness_mvl/mxv
 BYTE   W02
 BYTE   VOL   10*FE11IntotheDarkness_mvl/mxv
 BYTE   W01
 BYTE   VOL   12*FE11IntotheDarkness_mvl/mxv
 BYTE   W02
 BYTE   VOL   13*FE11IntotheDarkness_mvl/mxv
 BYTE   W01
 BYTE   VOL   14*FE11IntotheDarkness_mvl/mxv
 BYTE   W02
 BYTE   VOL   16*FE11IntotheDarkness_mvl/mxv
 BYTE   W01
 BYTE   VOL   19*FE11IntotheDarkness_mvl/mxv
 BYTE   W02
 BYTE   VOL   21*FE11IntotheDarkness_mvl/mxv
 BYTE   W01
 BYTE   VOL   23*FE11IntotheDarkness_mvl/mxv
 BYTE   W02
 BYTE   VOL   26*FE11IntotheDarkness_mvl/mxv
 BYTE   W01
 BYTE   VOL   30*FE11IntotheDarkness_mvl/mxv
 BYTE   W02
 BYTE   VOL   34*FE11IntotheDarkness_mvl/mxv
 BYTE   W01
 BYTE   VOL   38*FE11IntotheDarkness_mvl/mxv
 BYTE   W02
 BYTE   VOL   44*FE11IntotheDarkness_mvl/mxv
 BYTE   W03
//  #05 //022   ----------------------------------------
 BYTE   W96
//  #05 //023   ----------------------------------------
 BYTE   W96
//  #05 //024   ----------------------------------------
 BYTE   W96
//  #05 //025   ----------------------------------------
 BYTE   W96
//  #05 //026   ----------------------------------------
 BYTE   GoTo
  POIN2 Label_010BB2BA
 BYTE   FINE

//**************** Track 6 (Midi-Chn.5) ****************//

FE11IntotheDarkness_006:
//  #06 //000   ----------------------------------------
 BYTE   KEYSH   FE11IntotheDarkness_key+0
Label_01AAC87E:
 BYTE   VOICE   127
 BYTE   MODT 0
 BYTE   LFOS 44
 BYTE   VOL   18*FE11IntotheDarkness_mvl/mxv
 BYTE   PAN   c_v+0
 BYTE   N12  Dn1  v104
 BYTE   N12  Cs2  v048
 BYTE   W12
 BYTE   N03  Gs1  v020
 BYTE   W24
 BYTE   N12  Dn1  v112
 BYTE   N02  Gs1  v020
 BYTE   W24
 BYTE   N02
 BYTE   W12
 BYTE   N11  En1  v127
 BYTE   W12
 BYTE   N05  Dn1  v048
 BYTE   N02  Gs1  v020
 BYTE   W06
 BYTE   N05  Dn1  v056
 BYTE   W06
//  #06 //001   ----------------------------------------
 BYTE   N12  Dn1  v100
 BYTE   W12
 BYTE   N02  Gs1  v020
 BYTE   W12
 BYTE   N12  Dn1  v108
 BYTE   W12
 BYTE   N02  Gs1  v020
 BYTE   W24
 BYTE   N02
 BYTE   W12
 BYTE   N11  En1  v127
 BYTE   W12
 BYTE   N05  Dn1  v080
 BYTE   N02  Gs1  v020
 BYTE   W06
 BYTE   N05  En1  v084
 BYTE   W06
//  #06 //002   ----------------------------------------
 BYTE   N12  Dn1  v108
 BYTE   W12
 BYTE   N02  Gs1  v020
 BYTE   W24
 BYTE   N12  Dn1  v072
 BYTE   N02  Gs1  v020
 BYTE   W24
 BYTE   N02
 BYTE   W12
 BYTE   N11  En1  v127
 BYTE   W12
 BYTE   N05  Dn1  v072
 BYTE   N02  Gs1  v020
 BYTE   W06
 BYTE   N05  Dn1  v056
 BYTE   W06
//  #06 //003   ----------------------------------------
 BYTE   N12  Dn1  v100
 BYTE   W12
 BYTE   N02  Gs1  v020
 BYTE   W12
 BYTE   N12  Dn1  v112
 BYTE   W12
 BYTE   N01  Gs1  v020
 BYTE   W24
 BYTE   N01
 BYTE   W12
 BYTE   N11  En1  v127
 BYTE   W12
 BYTE   N05  Dn1  v084
 BYTE   N01  Gs1  v020
 BYTE   W06
 BYTE   N05  En1  v112
 BYTE   W06
//  #06 //004   ----------------------------------------
 BYTE   N12  Dn1  v084
 BYTE   W12
 BYTE   N02  Gs1  v020
 BYTE   W24
 BYTE   N12  Dn1  v072
 BYTE   N02  Gs1  v020
 BYTE   W24
 BYTE   N02
 BYTE   W12
 BYTE   N11  En1  v127
 BYTE   W12
 BYTE   N05  Dn1  v088
 BYTE   N02  Gs1  v020
 BYTE   W06
 BYTE   N05  Dn1  v068
 BYTE   W06
//  #06 //005   ----------------------------------------
 BYTE   N12  Dn1  v100
 BYTE   W12
 BYTE   N01  Gs1  v020
 BYTE   W12
 BYTE   N12  Dn1  v092
 BYTE   W12
 BYTE   N02  Gs1  v020
 BYTE   W24
 BYTE   N11  En1  v120
 BYTE   N02  Gs1  v020
 BYTE   W12
 BYTE   N11  Dn1  v084
 BYTE   W12
 BYTE   N05  En1  v100
 BYTE   N01  Gs1  v020
 BYTE   W06
 BYTE   N05  Dn1  v088
 BYTE   N02  Gs1  v020
 BYTE   W06
//  #06 //006   ----------------------------------------
 BYTE   N12  Dn1  v108
 BYTE   N11  Cs2  v044
 BYTE   W12
 BYTE   N01  Gs1  v020
 BYTE   W24
 BYTE   N12  Dn1  v084
 BYTE   N01  Gs1  v020
 BYTE   W24
 BYTE   N01
 BYTE   W12
 BYTE   N11  En1  v127
 BYTE   W12
 BYTE   N05  Dn1  v076
 BYTE   N02  Gs1  v020
 BYTE   W06
 BYTE   N05  Dn1  v064
 BYTE   W06
//  #06 //007   ----------------------------------------
 BYTE   N12  Dn1  v088
 BYTE   W12
 BYTE   N01  Gs1  v020
 BYTE   W12
 BYTE   N12  Dn1  v100
 BYTE   W12
 BYTE   N01  Gs1  v020
 BYTE   W24
 BYTE   N11  Dn1  v108
 BYTE   N01  Gs1  v020
 BYTE   W12
 BYTE   N11  En1  v108
 BYTE   W12
 BYTE   N05  Dn1  v088
 BYTE   N02  Gs1  v020
 BYTE   W06
 BYTE   N05  En1  v092
 BYTE   W06
//  #06 //008   ----------------------------------------
 BYTE   N12  Dn1  v100
 BYTE   W12
 BYTE   N02  Gs1  v020
 BYTE   W12
 BYTE   N11  En1  v108
 BYTE   W12
 BYTE   N12  Dn1  v060
 BYTE   N01  Gs1  v020
 BYTE   W24
 BYTE   N02
 BYTE   W12
 BYTE   N11  En1  v127
 BYTE   W12
 BYTE   N05  Dn1  v064
 BYTE   N02  Gs1  v020
 BYTE   W06
 BYTE   N05  Dn1  v056
 BYTE   W06
//  #06 //009   ----------------------------------------
 BYTE   N12  Dn1  v092
 BYTE   W12
 BYTE   N01  Gs1  v020
 BYTE   W12
 BYTE   N23  En1  v127
 BYTE   W12
 BYTE   N02  Gs1  v020
 BYTE   W24
 BYTE   N02
 BYTE   W12
 BYTE   N23  En1  v127
 BYTE   W12
 BYTE   N02  Gs1  v020
 BYTE   W12
//  #06 //010   ----------------------------------------
 BYTE   N12  Dn1  v076
 BYTE   W12
 BYTE   N02  Gs1  v020
 BYTE   W12
 BYTE   N11  En1  v108
 BYTE   W12
 BYTE   N12  Dn1  v068
 BYTE   N02  Gs1  v020
 BYTE   W24
 BYTE   N02
 BYTE   W12
 BYTE   N11  En1  v127
 BYTE   W12
 BYTE   N05  Dn1  v076
 BYTE   N02  Gs1  v020
 BYTE   W06
 BYTE   N05  En1  v056
 BYTE   W06
//  #06 //011   ----------------------------------------
 BYTE   N12  Dn1  v076
 BYTE   W12
 BYTE   N02  Gs1  v020
 BYTE   W12
 BYTE   N12  Dn1  v080
 BYTE   W12
 BYTE   N02  Gs1  v020
 BYTE   W24
 BYTE   N02
 BYTE   W12
 BYTE   N11  En1  v127
 BYTE   W12
 BYTE   N05  Dn1  v076
 BYTE   N01  Gs1  v020
 BYTE   W06
 BYTE   N05  En1  v076
 BYTE   W06
//  #06 //012   ----------------------------------------
 BYTE   N12  Dn1  v108
 BYTE   W12
 BYTE   N01  Gs1  v020
 BYTE   W24
 BYTE   N12  Dn1  v076
 BYTE   N02  Gs1  v020
 BYTE   W24
 BYTE   N02
 BYTE   W12
 BYTE   N11  En1  v127
 BYTE   W12
 BYTE   N05  Dn1  v088
 BYTE   N01  Gs1  v020
 BYTE   W06
 BYTE   N05  Dn1  v056
 BYTE   W06
//  #06 //013   ----------------------------------------
 BYTE   N12  Dn1  v072
 BYTE   W12
 BYTE   N02  Gs1  v020
 BYTE   W12
 BYTE   N12  Dn1  v084
 BYTE   W12
 BYTE   N02  Gs1  v020
 BYTE   W24
 BYTE   N11  En1  v088
 BYTE   N02  Gs1  v020
 BYTE   W12
 BYTE   N05  En1  v120
 BYTE   W06
 BYTE   Dn1  v076
 BYTE   W06
 BYTE   En1  v096
 BYTE   N02  Gs1  v020
 BYTE   W06
 BYTE   N05  Dn1  v112
 BYTE   W06
//  #06 //014   ----------------------------------------
 BYTE   N11  Cs2  v044
 BYTE   W96
//  #06 //015   ----------------------------------------
 BYTE   W96
//  #06 //016   ----------------------------------------
 BYTE   W96
//  #06 //017   ----------------------------------------
 BYTE   W96
//  #06 //018   ----------------------------------------
 BYTE   N05  Gn2
 BYTE   W96
//  #06 //019   ----------------------------------------
 BYTE   W72
 BYTE   En1  v104
 BYTE   W06
 BYTE   N06  Ds1  v076
 BYTE   W06
 BYTE   N05  Dn1  v092
 BYTE   W06
 BYTE   En1  v104
 BYTE   W06
//  #06 //020   ----------------------------------------
 BYTE   N12  Dn1
 BYTE   N11  Cs2  v048
 BYTE   W36
 BYTE   N12  Dn1  v112
 BYTE   W36
 BYTE   N11  En1  v127
 BYTE   W12
 BYTE   N05  Dn1  v048
 BYTE   W06
 BYTE   Dn1  v056
 BYTE   W06
//  #06 //021   ----------------------------------------
Label_01AACA98:
 BYTE   N12  Dn1  v100
 BYTE   W24
 BYTE   Dn1  v108
 BYTE   W48
 BYTE   N11  En1  v127
 BYTE   W12
 BYTE   N05  Dn1  v080
 BYTE   W06
 BYTE   En1  v084
 BYTE   W06
 BYTE   PEND 
//  #06 //022   ----------------------------------------
 BYTE   N12  Dn1  v104
 BYTE   N12  Cs2  v048
 BYTE   W36
 BYTE   Dn1  v112
 BYTE   W36
 BYTE   N11  En1  v127
 BYTE   W12
 BYTE   N05  Dn1  v048
 BYTE   W06
 BYTE   Dn1  v056
 BYTE   W06
//  #06 //023   ----------------------------------------
 BYTE   PATT
  POIN2 Label_01AACA98
//  #06 //024   ----------------------------------------
 BYTE   N12  Dn1  v108
 BYTE   W36
 BYTE   Dn1  v072
 BYTE   W36
 BYTE   N11  En1  v127
 BYTE   W12
 BYTE   N05  Dn1  v072
 BYTE   W06
 BYTE   Dn1  v056
 BYTE   W06
//  #06 //025   ----------------------------------------
 BYTE   N12  Dn1  v100
 BYTE   W24
 BYTE   Dn1  v112
 BYTE   W48
 BYTE   N11  En1  v127
 BYTE   W12
 BYTE   N05  Dn1  v084
 BYTE   W06
 BYTE   En1  v112
 BYTE   W06
//  #06 //026   ----------------------------------------
 BYTE   GoTo
  POIN2 Label_01AAC87E
 BYTE   FINE

//**************** Track 7 (Midi-Chn.6) ****************//

FE11IntotheDarkness_007:
//  #07 //000   ----------------------------------------
 BYTE   KEYSH   FE11IntotheDarkness_key+0
Label_01AAC62A:
 BYTE   VOICE   47
 BYTE   MODT 0
 BYTE   LFOS 44
 BYTE   VOL   53*FE11IntotheDarkness_mvl/mxv
 BYTE   PAN   c_v-11
 BYTE   N48  An1  v108
 BYTE   W96
//  #07 //001   ----------------------------------------
Label_01AAC638:
 BYTE   W84
 BYTE   N05  En1  v127
 BYTE   W06
 BYTE   En1  v100
 BYTE   W06
 BYTE   PEND 
//  #07 //002   ----------------------------------------
 BYTE   N48  An1  v127
 BYTE   W96
//  #07 //003   ----------------------------------------
Label_01AAC645:
 BYTE   W84
 BYTE   N05  En1  v127
 BYTE   W06
 BYTE   En1  v108
 BYTE   W06
 BYTE   PEND 
//  #07 //004   ----------------------------------------
 BYTE   N48  An1  v127
 BYTE   W96
//  #07 //005   ----------------------------------------
Label_01AAC652:
 BYTE   W84
 BYTE   N05  En1  v112
 BYTE   W06
 BYTE   N05
 BYTE   W06
 BYTE   PEND 
//  #07 //006   ----------------------------------------
 BYTE   N48  An1  v127
 BYTE   W96
//  #07 //007   ----------------------------------------
 BYTE   PATT
  POIN2 Label_01AAC638
//  #07 //008   ----------------------------------------
 BYTE   N48  An1  v127
 BYTE   W96
//  #07 //009   ----------------------------------------
 BYTE   PATT
  POIN2 Label_01AAC645
//  #07 //010   ----------------------------------------
 BYTE   N48  An1  v127
 BYTE   W96
//  #07 //011   ----------------------------------------
 BYTE   PATT
  POIN2 Label_01AAC652
//  #07 //012   ----------------------------------------
 BYTE   N48  An1  v127
 BYTE   W96
//  #07 //013   ----------------------------------------
 BYTE   W84
 BYTE   N05  An1  v112
 BYTE   W06
 BYTE   N05
 BYTE   W06
//  #07 //014   ----------------------------------------
 BYTE   N44  Fn1  v044
 BYTE   W96
//  #07 //015   ----------------------------------------
 BYTE   En1
 BYTE   W96
//  #07 //016   ----------------------------------------
 BYTE   Fn1
 BYTE   W96
//  #07 //017   ----------------------------------------
 BYTE   W48
 BYTE   An3  v080
 BYTE   W48
//  #07 //018   ----------------------------------------
 BYTE   N11  An1  v084
 BYTE   W12
 BYTE   An1  v024
 BYTE   W12
 BYTE   An1  v020
 BYTE   W12
 BYTE   An1  v080
 BYTE   W12
 BYTE   An1  v032
 BYTE   W12
 BYTE   An1  v028
 BYTE   W12
 BYTE   An1  v036
 BYTE   W12
 BYTE   An1  v024
 BYTE   W12
//  #07 //019   ----------------------------------------
 BYTE   An1  v064
 BYTE   W12
 BYTE   An1  v024
 BYTE   W12
 BYTE   N11
 BYTE   W12
 BYTE   An1  v076
 BYTE   W12
 BYTE   An1  v032
 BYTE   W12
 BYTE   An1  v020
 BYTE   W12
 BYTE   An1  v064
 BYTE   W12
 BYTE   An1  v032
 BYTE   W12
//  #07 //020   ----------------------------------------
 BYTE   An1  v076
 BYTE   W12
 BYTE   An1  v020
 BYTE   W12
 BYTE   An1  v024
 BYTE   W12
 BYTE   An1  v080
 BYTE   W12
 BYTE   An1  v024
 BYTE   W12
 BYTE   An1  v032
 BYTE   W12
 BYTE   An1  v076
 BYTE   W12
 BYTE   An1  v020
 BYTE   W12
//  #07 //021   ----------------------------------------
 BYTE   An1  v072
 BYTE   W12
 BYTE   An1  v020
 BYTE   W12
 BYTE   An1  v024
 BYTE   W12
 BYTE   N23  An1  v080
 BYTE   W24
 BYTE   N11  An1  v020
 BYTE   W12
 BYTE   An1  v076
 BYTE   W12
 BYTE   An1  v044
 BYTE   W12
//  #07 //022   ----------------------------------------
 BYTE   N24  An1  v108
 BYTE   W96
//  #07 //023   ----------------------------------------
 BYTE   PATT
  POIN2 Label_01AAC638
//  #07 //024   ----------------------------------------
 BYTE   N48  An1  v127
 BYTE   W96
//  #07 //025   ----------------------------------------
 BYTE   W84
 BYTE   N11  En1
 BYTE   W12
//  #07 //026   ----------------------------------------
 BYTE   GoTo
  POIN2 Label_01AAC62A
 BYTE   FINE

//**************** Track 8 (Midi-Chn.7) ****************//

FE11IntotheDarkness_008:
//  #08 //000   ----------------------------------------
 BYTE   KEYSH   FE11IntotheDarkness_key+0
Label_0144EB4E:
 BYTE   VOICE   39
 BYTE   MODT 0
 BYTE   LFOS 44
 BYTE   VOL   0*FE11IntotheDarkness_mvl/mxv
 BYTE   PAN   c_v-41
 BYTE   VOL   0*FE11IntotheDarkness_mvl/mxv
 BYTE   PAN   c_v-41
 BYTE   N96  Cn3  v041
 BYTE   W08
 BYTE   PAN   c_v-40
 BYTE   W01
 BYTE   PAN   c_v-38
 BYTE   W01
 BYTE   PAN   c_v-34
 BYTE   W01
 BYTE   PAN   c_v-33
 BYTE   W01
 BYTE   PAN   c_v-32
 BYTE   W01
 BYTE   PAN   c_v-31
 BYTE   W01
 BYTE   PAN   c_v-28
 BYTE   W03
 BYTE   PAN   c_v-27
 BYTE   W03
 BYTE   PAN   c_v-25
 BYTE   W01
 BYTE   PAN   c_v-24
 BYTE   W01
 BYTE   PAN   c_v-22
 BYTE   W01
 BYTE   PAN   c_v-21
 BYTE   W01
 BYTE   PAN   c_v-19
 BYTE   W01
 BYTE   PAN   c_v-17
 BYTE   W02
 BYTE   PAN   c_v-15
 BYTE   W01
 BYTE   PAN   c_v-13
 BYTE   W01
 BYTE   PAN   c_v-10
 BYTE   W01
 BYTE   PAN   c_v-8
 BYTE   W01
 BYTE   PAN   c_v-6
 BYTE   W01
 BYTE   PAN   c_v-4
 BYTE   W02
 BYTE   PAN   c_v+0
 BYTE   W01
 BYTE   PAN   c_v+1
 BYTE   W02
 BYTE   PAN   c_v+2
 BYTE   W01
 BYTE   PAN   c_v+4
 BYTE   W02
 BYTE   PAN   c_v+7
 BYTE   W01
 BYTE   PAN   c_v+11
 BYTE   W01
 BYTE   PAN   c_v+14
 BYTE   W02
 BYTE   PAN   c_v+15
 BYTE   W10
 BYTE   PAN   c_v+14
 BYTE   W01
 BYTE   PAN   c_v+13
 BYTE   W01
 BYTE   PAN   c_v+9
 BYTE   W01
 BYTE   PAN   c_v+4
 BYTE   W01
 BYTE   PAN   c_v+0
 BYTE   W01
 BYTE   PAN   c_v-4
 BYTE   W01
 BYTE   PAN   c_v-6
 BYTE   W01
 BYTE   PAN   c_v-8
 BYTE   W01
 BYTE   PAN   c_v-10
 BYTE   W01
 BYTE   PAN   c_v-11
 BYTE   W01
 BYTE   PAN   c_v-12
 BYTE   W01
 BYTE   PAN   c_v-15
 BYTE   W01
 BYTE   PAN   c_v-17
 BYTE   W01
 BYTE   PAN   c_v-20
 BYTE   W01
 BYTE   PAN   c_v-24
 BYTE   W01
 BYTE   PAN   c_v-29
 BYTE   W01
 BYTE   PAN   c_v-34
 BYTE   W01
 BYTE   PAN   c_v-35
 BYTE   W01
 BYTE   PAN   c_v-36
 BYTE   W01
 BYTE   PAN   c_v-37
 BYTE   W01
 BYTE   PAN   c_v-38
 BYTE   W03
 BYTE   PAN   c_v-36
 BYTE   W01
 BYTE   PAN   c_v-34
 BYTE   W01
 BYTE   PAN   c_v-29
 BYTE   W01
 BYTE   PAN   c_v-27
 BYTE   W01
 BYTE   PAN   c_v-22
 BYTE   W01
 BYTE   PAN   c_v-15
 BYTE   W01
 BYTE   PAN   c_v-9
 BYTE   W01
 BYTE   PAN   c_v-7
 BYTE   W02
 BYTE   PAN   c_v-5
 BYTE   W01
 BYTE   PAN   c_v-4
 BYTE   W01
 BYTE   PAN   c_v-3
 BYTE   W01
 BYTE   PAN   c_v+0
 BYTE   W01
 BYTE   PAN   c_v+4
 BYTE   W01
 BYTE   PAN   c_v+11
 BYTE   W01
 BYTE   PAN   c_v+16
 BYTE   W01
 BYTE   PAN   c_v+20
 BYTE   W01
 BYTE   PAN   c_v+25
 BYTE   W01
 BYTE   PAN   c_v+28
 BYTE   W01
//  #08 //001   ----------------------------------------
 BYTE   PAN   c_v+29
 BYTE   TIE  Cn4  v002
 BYTE   W04
 BYTE   PAN   c_v+28
 BYTE   W02
 BYTE   PAN   c_v+27
 BYTE   W02
 BYTE   PAN   c_v+26
 BYTE   W01
 BYTE   PAN   c_v+25
 BYTE   W01
 BYTE   PAN   c_v+20
 BYTE   W01
 BYTE   PAN   c_v+17
 BYTE   W01
 BYTE   PAN   c_v+14
 BYTE   W01
 BYTE   PAN   c_v+10
 BYTE   W01
 BYTE   PAN   c_v+7
 BYTE   W01
 BYTE   PAN   c_v+6
 BYTE   W01
 BYTE   PAN   c_v+3
 BYTE   W02
 BYTE   PAN   c_v+1
 BYTE   W01
 BYTE   PAN   c_v+0
 BYTE   W01
 BYTE   PAN   c_v-2
 BYTE   W01
 BYTE   PAN   c_v-3
 BYTE   W01
 BYTE   PAN   c_v-5
 BYTE   W01
 BYTE   PAN   c_v-10
 BYTE   W01
 BYTE   PAN   c_v-11
 BYTE   W01
 BYTE   PAN   c_v-14
 BYTE   W01
 BYTE   PAN   c_v-15
 BYTE   W01
 BYTE   PAN   c_v-16
 BYTE   W01
 BYTE   PAN   c_v-17
 BYTE   W01
 BYTE   PAN   c_v-19
 BYTE   W01
 BYTE   PAN   c_v-21
 BYTE   W01
 BYTE   PAN   c_v-22
 BYTE   W01
 BYTE   PAN   c_v-24
 BYTE   W01
 BYTE   PAN   c_v-27
 BYTE   W01
 BYTE   PAN   c_v-32
 BYTE   W02
 BYTE   PAN   c_v-33
 BYTE   W01
 BYTE   PAN   c_v-35
 BYTE   W01
 BYTE   PAN   c_v-36
 BYTE   W04
 BYTE   PAN   c_v-37
 BYTE   W01
 BYTE   PAN   c_v-39
 BYTE   W01
 BYTE   PAN   c_v-40
 BYTE   W01
 BYTE   PAN   c_v-41
 BYTE   W01
 BYTE   PAN   c_v-42
 BYTE   W03
 BYTE   PAN   c_v-41
 BYTE   W01
 BYTE   PAN   c_v-37
 BYTE   W01
 BYTE   PAN   c_v-31
 BYTE   W01
 BYTE   PAN   c_v-27
 BYTE   W01
 BYTE   PAN   c_v-25
 BYTE   W01
 BYTE   PAN   c_v-20
 BYTE   W01
 BYTE   PAN   c_v-17
 BYTE   W01
 BYTE   PAN   c_v-13
 BYTE   W01
 BYTE   PAN   c_v-10
 BYTE   W01
 BYTE   PAN   c_v-7
 BYTE   W01
 BYTE   PAN   c_v-4
 BYTE   W01
 BYTE   PAN   c_v+0
 BYTE   W01
 BYTE   PAN   c_v+2
 BYTE   W01
 BYTE   PAN   c_v+5
 BYTE   W01
 BYTE   PAN   c_v+8
 BYTE   W01
 BYTE   PAN   c_v+11
 BYTE   W01
 BYTE   PAN   c_v+12
 BYTE   W01
 BYTE   PAN   c_v+13
 BYTE   W01
 BYTE   PAN   c_v+18
 BYTE   W01
 BYTE   PAN   c_v+20
 BYTE   W01
 BYTE   PAN   c_v+22
 BYTE   W01
 BYTE   PAN   c_v+26
 BYTE   W01
 BYTE   PAN   c_v+27
 BYTE   W02
 BYTE   PAN   c_v+28
 BYTE   W05
 BYTE   PAN   c_v+24
 BYTE   W01
 BYTE   PAN   c_v+20
 BYTE   W01
 BYTE   PAN   c_v+14
 BYTE   W01
 BYTE   PAN   c_v+7
 BYTE   W01
 BYTE   PAN   c_v+1
 BYTE   W01
 BYTE   PAN   c_v-1
 BYTE   W01
 BYTE   PAN   c_v-4
 BYTE   W01
 BYTE   PAN   c_v-6
 BYTE   W03
 BYTE   PAN   c_v-8
 BYTE   W01
 BYTE   PAN   c_v-10
 BYTE   W01
 BYTE   PAN   c_v-13
 BYTE   W01
 BYTE   PAN   c_v-17
 BYTE   W01
 BYTE   PAN   c_v-22
 BYTE   W02
 BYTE   PAN   c_v-23
 BYTE   W01
 BYTE   PAN   c_v-24
 BYTE   W01
//  #08 //002   ----------------------------------------
 BYTE   PAN   c_v-22
 BYTE   W01
 BYTE   PAN   c_v-19
 BYTE   W01
 BYTE   PAN   c_v-15
 BYTE   W01
 BYTE   PAN   c_v-13
 BYTE   W01
 BYTE   PAN   c_v-9
 BYTE   W01
 BYTE   PAN   c_v-4
 BYTE   W01
 BYTE   PAN   c_v+3
 BYTE   W01
 BYTE   PAN   c_v+8
 BYTE   W01
 BYTE   PAN   c_v+12
 BYTE   W01
 BYTE   PAN   c_v+19
 BYTE   W01
 BYTE   PAN   c_v+23
 BYTE   W03
 BYTE   PAN   c_v+25
 BYTE   W03
 BYTE   PAN   c_v+26
 BYTE   W01
 BYTE   PAN   c_v+27
 BYTE   W03
 BYTE   PAN   c_v+28
 BYTE   W01
 BYTE   PAN   c_v+30
 BYTE   W01
 BYTE   PAN   c_v+31
 BYTE   W04
 BYTE   PAN   c_v+32
 BYTE   W04
 BYTE   PAN   c_v+27
 BYTE   W01
 BYTE   PAN   c_v+22
 BYTE   W01
 BYTE   PAN   c_v+15
 BYTE   W01
 BYTE   PAN   c_v+10
 BYTE   W01
 BYTE   PAN   c_v+3
 BYTE   W01
 BYTE   PAN   c_v-4
 BYTE   W01
 BYTE   PAN   c_v-6
 BYTE   W01
 BYTE   PAN   c_v-11
 BYTE   W01
 BYTE   PAN   c_v-15
 BYTE   W01
 BYTE   PAN   c_v-17
 BYTE   W01
 BYTE   PAN   c_v-19
 BYTE   W01
 BYTE   PAN   c_v-20
 BYTE   W01
 BYTE   PAN   c_v-22
 BYTE   W02
 BYTE   PAN   c_v-23
 BYTE   W01
 BYTE   PAN   c_v-24
 BYTE   W02
 BYTE   PAN   c_v-25
 BYTE   W02
 BYTE   PAN   c_v-26
 BYTE   W01
 BYTE   PAN   c_v-24
 BYTE   W01
 BYTE   PAN   c_v-19
 BYTE   W01
 BYTE   PAN   c_v-13
 BYTE   W01
 BYTE   PAN   c_v-5
 BYTE   W01
 BYTE   PAN   c_v+1
 BYTE   W01
 BYTE   PAN   c_v+8
 BYTE   W01
 BYTE   PAN   c_v+13
 BYTE   W01
 BYTE   PAN   c_v+15
 BYTE   W01
 BYTE   PAN   c_v+19
 BYTE   W01
 BYTE   PAN   c_v+22
 BYTE   W01
 BYTE   PAN   c_v+24
 BYTE   W01
 BYTE   PAN   c_v+27
 BYTE   W01
 BYTE   PAN   c_v+29
 BYTE   W02
 BYTE   PAN   c_v+31
 BYTE   W01
 BYTE   PAN   c_v+34
 BYTE   W02
 BYTE   PAN   c_v+35
 BYTE   W09
 BYTE   PAN   c_v+27
 BYTE   W01
 BYTE   PAN   c_v+20
 BYTE   W01
 BYTE   PAN   c_v+15
 BYTE   W01
 BYTE   PAN   c_v+8
 BYTE   W01
 BYTE   PAN   c_v-1
 BYTE   W01
 BYTE   PAN   c_v-7
 BYTE   W01
 BYTE   PAN   c_v-12
 BYTE   W01
 BYTE   PAN   c_v-19
 BYTE   W01
 BYTE   PAN   c_v-21
 BYTE   W01
 BYTE   PAN   c_v-23
 BYTE   W01
 BYTE   PAN   c_v-28
 BYTE   W01
 BYTE   PAN   c_v-31
 BYTE   W01
 BYTE   PAN   c_v-36
 BYTE   W01
 BYTE   PAN   c_v-40
 BYTE   W01
 BYTE   PAN   c_v-46
 BYTE   W01
 BYTE   PAN   c_v-47
 BYTE   W01
 BYTE   PAN   c_v-48
 BYTE   W02
 BYTE   PAN   c_v-50
 BYTE   W02
//  #08 //003   ----------------------------------------
 BYTE   EOT
 BYTE   N96  Cn3  v041
 BYTE   W03
 BYTE   PAN   c_v-48
 BYTE   W01
 BYTE   PAN   c_v-46
 BYTE   W01
 BYTE   PAN   c_v-41
 BYTE   W01
 BYTE   PAN   c_v-36
 BYTE   W01
 BYTE   PAN   c_v-29
 BYTE   W01
 BYTE   PAN   c_v-21
 BYTE   W01
 BYTE   PAN   c_v-15
 BYTE   W01
 BYTE   PAN   c_v-10
 BYTE   W01
 BYTE   PAN   c_v-4
 BYTE   W01
 BYTE   PAN   c_v-1
 BYTE   W01
 BYTE   PAN   c_v+1
 BYTE   W01
 BYTE   PAN   c_v+2
 BYTE   W01
 BYTE   PAN   c_v+3
 BYTE   W01
 BYTE   PAN   c_v+5
 BYTE   W01
 BYTE   PAN   c_v+7
 BYTE   W01
 BYTE   PAN   c_v+9
 BYTE   W01
 BYTE   PAN   c_v+12
 BYTE   W01
 BYTE   PAN   c_v+13
 BYTE   W01
 BYTE   PAN   c_v+14
 BYTE   W01
 BYTE   PAN   c_v+16
 BYTE   W01
 BYTE   PAN   c_v+19
 BYTE   W02
 BYTE   PAN   c_v+21
 BYTE   W01
 BYTE   PAN   c_v+22
 BYTE   W01
 BYTE   PAN   c_v+23
 BYTE   W01
 BYTE   PAN   c_v+25
 BYTE   W02
 BYTE   PAN   c_v+27
 BYTE   W01
 BYTE   PAN   c_v+28
 BYTE   W01
 BYTE   PAN   c_v+30
 BYTE   W01
 BYTE   PAN   c_v+31
 BYTE   W01
 BYTE   PAN   c_v+34
 BYTE   W01
 BYTE   PAN   c_v+35
 BYTE   W11
 BYTE   PAN   c_v+32
 BYTE   W01
 BYTE   PAN   c_v+29
 BYTE   W01
 BYTE   PAN   c_v+26
 BYTE   W01
 BYTE   PAN   c_v+23
 BYTE   W01
 BYTE   PAN   c_v+20
 BYTE   W01
 BYTE   PAN   c_v+19
 BYTE   W01
 BYTE   PAN   c_v+15
 BYTE   W02
 BYTE   PAN   c_v+13
 BYTE   W01
 BYTE   PAN   c_v+12
 BYTE   W01
 BYTE   PAN   c_v+10
 BYTE   W01
 BYTE   PAN   c_v+8
 BYTE   W01
 BYTE   PAN   c_v+6
 BYTE   W01
 BYTE   PAN   c_v+3
 BYTE   W01
 BYTE   PAN   c_v+1
 BYTE   W01
 BYTE   PAN   c_v-2
 BYTE   W32
 BYTE   W01
 BYTE   PAN   c_v-2
 BYTE   W02
//  #08 //004   ----------------------------------------
 BYTE   PAN   c_v-3
 BYTE   N92
 BYTE   W01
 BYTE   PAN   c_v-4
 BYTE   W02
 BYTE   PAN   c_v-5
 BYTE   W01
 BYTE   PAN   c_v-6
 BYTE   W01
 BYTE   PAN   c_v-8
 BYTE   W01
 BYTE   PAN   c_v-10
 BYTE   W02
 BYTE   PAN   c_v-11
 BYTE   W04
 BYTE   PAN   c_v-12
 BYTE   W03
 BYTE   PAN   c_v-13
 BYTE   W01
 BYTE   PAN   c_v-15
 BYTE   W01
 BYTE   PAN   c_v-20
 BYTE   W01
 BYTE   PAN   c_v-22
 BYTE   W01
 BYTE   PAN   c_v-23
 BYTE   W01
 BYTE   PAN   c_v-24
 BYTE   W01
 BYTE   PAN   c_v-26
 BYTE   W05
 BYTE   PAN   c_v-27
 BYTE   W01
 BYTE   PAN   c_v-26
 BYTE   W02
 BYTE   PAN   c_v-24
 BYTE   W01
 BYTE   PAN   c_v-20
 BYTE   W01
 BYTE   PAN   c_v-17
 BYTE   W01
 BYTE   PAN   c_v-13
 BYTE   W01
 BYTE   PAN   c_v-9
 BYTE   W01
 BYTE   PAN   c_v-3
 BYTE   W01
 BYTE   PAN   c_v-2
 BYTE   W01
 BYTE   PAN   c_v-1
 BYTE   W01
 BYTE   PAN   c_v+0
 BYTE   W01
 BYTE   PAN   c_v+1
 BYTE   W01
 BYTE   PAN   c_v+2
 BYTE   W03
 BYTE   PAN   c_v+3
 BYTE   W01
 BYTE   PAN   c_v+4
 BYTE   W01
 BYTE   PAN   c_v+7
 BYTE   W01
 BYTE   PAN   c_v+10
 BYTE   W01
 BYTE   PAN   c_v+12
 BYTE   W01
 BYTE   PAN   c_v+14
 BYTE   W01
 BYTE   PAN   c_v+15
 BYTE   W05
 BYTE   PAN   c_v+16
 BYTE   W01
 BYTE   PAN   c_v+17
 BYTE   W01
 BYTE   PAN   c_v+19
 BYTE   W01
 BYTE   PAN   c_v+21
 BYTE   W01
 BYTE   PAN   c_v+23
 BYTE   W01
 BYTE   PAN   c_v+27
 BYTE   W01
 BYTE   PAN   c_v+30
 BYTE   W02
 BYTE   PAN   c_v+31
 BYTE   W01
 BYTE   PAN   c_v+32
 BYTE   W10
 BYTE   PAN   c_v+24
 BYTE   W01
 BYTE   PAN   c_v+19
 BYTE   W01
 BYTE   PAN   c_v+9
 BYTE   W01
 BYTE   PAN   c_v+5
 BYTE   W02
 BYTE   PAN   c_v+3
 BYTE   W01
 BYTE   PAN   c_v+1
 BYTE   W01
 BYTE   PAN   c_v-1
 BYTE   W01
 BYTE   PAN   c_v-2
 BYTE   W02
 BYTE   PAN   c_v-3
 BYTE   W01
 BYTE   PAN   c_v-4
 BYTE   W01
 BYTE   PAN   c_v-11
 BYTE   W01
 BYTE   PAN   c_v-14
 BYTE   W01
 BYTE   PAN   c_v-16
 BYTE   W01
 BYTE   PAN   c_v-20
 BYTE   W01
 BYTE   PAN   c_v-22
 BYTE   W08
//  #08 //005   ----------------------------------------
 BYTE   N23
 BYTE   W05
 BYTE   PAN   c_v-23
 BYTE   W01
 BYTE   PAN   c_v-25
 BYTE   W02
 BYTE   PAN   c_v-26
 BYTE   W02
 BYTE   PAN   c_v-27
 BYTE   W01
 BYTE   PAN   c_v-28
 BYTE   W02
 BYTE   PAN   c_v-29
 BYTE   W02
 BYTE   PAN   c_v-30
 BYTE   W02
 BYTE   PAN   c_v-31
 BYTE   W02
 BYTE   PAN   c_v-33
 BYTE   W04
 BYTE   PAN   c_v-34
 BYTE   W01
 BYTE   PAN   c_v-33
 BYTE   N72  Cn4  v002
 BYTE   W01
 BYTE   PAN   c_v-28
 BYTE   W01
 BYTE   PAN   c_v-25
 BYTE   W01
 BYTE   PAN   c_v-22
 BYTE   W01
 BYTE   PAN   c_v-16
 BYTE   W01
 BYTE   PAN   c_v-10
 BYTE   W01
 BYTE   PAN   c_v-7
 BYTE   W01
 BYTE   PAN   c_v-1
 BYTE   W01
 BYTE   PAN   c_v+2
 BYTE   W01
 BYTE   PAN   c_v+6
 BYTE   W01
 BYTE   PAN   c_v+11
 BYTE   W01
 BYTE   PAN   c_v+16
 BYTE   W01
 BYTE   PAN   c_v+18
 BYTE   W01
 BYTE   PAN   c_v+22
 BYTE   W01
 BYTE   PAN   c_v+26
 BYTE   W01
 BYTE   PAN   c_v+30
 BYTE   W01
 BYTE   PAN   c_v+31
 BYTE   W01
 BYTE   PAN   c_v+33
 BYTE   W03
 BYTE   PAN   c_v+34
 BYTE   W04
 BYTE   PAN   c_v+33
 BYTE   W01
 BYTE   PAN   c_v+32
 BYTE   W02
 BYTE   PAN   c_v+28
 BYTE   W01
 BYTE   PAN   c_v+23
 BYTE   W01
 BYTE   PAN   c_v+18
 BYTE   W01
 BYTE   PAN   c_v+14
 BYTE   W01
 BYTE   PAN   c_v+9
 BYTE   W01
 BYTE   PAN   c_v+5
 BYTE   W01
 BYTE   PAN   c_v+2
 BYTE   W01
 BYTE   PAN   c_v-1
 BYTE   W01
 BYTE   PAN   c_v-5
 BYTE   W01
 BYTE   PAN   c_v-7
 BYTE   W01
 BYTE   PAN   c_v-11
 BYTE   W01
 BYTE   PAN   c_v-14
 BYTE   W02
 BYTE   PAN   c_v-15
 BYTE   W01
 BYTE   PAN   c_v-16
 BYTE   W01
 BYTE   PAN   c_v-19
 BYTE   W02
 BYTE   PAN   c_v-20
 BYTE   W01
 BYTE   PAN   c_v-21
 BYTE   W03
 BYTE   PAN   c_v-20
 BYTE   W01
 BYTE   PAN   c_v-19
 BYTE   W01
 BYTE   PAN   c_v-17
 BYTE   W01
 BYTE   PAN   c_v-11
 BYTE   W01
 BYTE   PAN   c_v-5
 BYTE   W01
 BYTE   PAN   c_v+6
 BYTE   W01
 BYTE   PAN   c_v+13
 BYTE   W01
 BYTE   PAN   c_v+23
 BYTE   W01
 BYTE   PAN   c_v+29
 BYTE   W01
 BYTE   PAN   c_v+35
 BYTE   W01
 BYTE   PAN   c_v+38
 BYTE   W01
 BYTE   PAN   c_v+40
 BYTE   W01
 BYTE   PAN   c_v+42
 BYTE   W01
 BYTE   PAN   c_v+44
 BYTE   W01
 BYTE   PAN   c_v+49
 BYTE   W01
 BYTE   PAN   c_v+52
 BYTE   W01
 BYTE   PAN   c_v+55
 BYTE   W01
 BYTE   PAN   c_v+57
 BYTE   W02
 BYTE   PAN   c_v+58
 BYTE   W02
 BYTE   PAN   c_v+59
 BYTE   W01
 BYTE   PAN   c_v+56
 BYTE   W01
 BYTE   PAN   c_v+48
 BYTE   W01
//  #08 //006   ----------------------------------------
 BYTE   PAN   c_v+42
 BYTE   N96  Cn3  v041
 BYTE   W01
 BYTE   PAN   c_v+38
 BYTE   W01
 BYTE   PAN   c_v+28
 BYTE   W01
 BYTE   PAN   c_v+21
 BYTE   W01
 BYTE   PAN   c_v+16
 BYTE   W01
 BYTE   PAN   c_v+10
 BYTE   W01
 BYTE   PAN   c_v+6
 BYTE   W01
 BYTE   PAN   c_v+1
 BYTE   W01
 BYTE   PAN   c_v-6
 BYTE   W01
 BYTE   PAN   c_v-10
 BYTE   W01
 BYTE   PAN   c_v-13
 BYTE   W01
 BYTE   PAN   c_v-17
 BYTE   W01
 BYTE   PAN   c_v-21
 BYTE   W01
 BYTE   PAN   c_v-23
 BYTE   W01
 BYTE   PAN   c_v-25
 BYTE   W01
 BYTE   PAN   c_v-29
 BYTE   W01
 BYTE   PAN   c_v-32
 BYTE   W01
 BYTE   PAN   c_v-38
 BYTE   W01
 BYTE   PAN   c_v-43
 BYTE   W01
 BYTE   PAN   c_v-49
 BYTE   W01
 BYTE   PAN   c_v-56
 BYTE   W01
 BYTE   PAN   c_v-60
 BYTE   W01
 BYTE   PAN   c_v-63
 BYTE   W02
 BYTE   PAN   c_v-62
 BYTE   W02
 BYTE   PAN   c_v-60
 BYTE   W01
 BYTE   PAN   c_v-57
 BYTE   W01
 BYTE   PAN   c_v-56
 BYTE   W09
 BYTE   PAN   c_v+18
 BYTE   W01
 BYTE   PAN   c_v+20
 BYTE   W01
 BYTE   PAN   c_v+22
 BYTE   W01
 BYTE   PAN   c_v+25
 BYTE   W01
 BYTE   PAN   c_v+27
 BYTE   W01
 BYTE   PAN   c_v+29
 BYTE   W01
 BYTE   PAN   c_v+32
 BYTE   W01
 BYTE   PAN   c_v+34
 BYTE   W01
 BYTE   PAN   c_v+37
 BYTE   W01
 BYTE   PAN   c_v+41
 BYTE   W01
 BYTE   PAN   c_v+42
 BYTE   W02
 BYTE   PAN   c_v+43
 BYTE   W08
 BYTE   PAN   c_v+42
 BYTE   W01
 BYTE   PAN   c_v+39
 BYTE   W01
 BYTE   PAN   c_v+34
 BYTE   W01
 BYTE   PAN   c_v+30
 BYTE   W01
 BYTE   PAN   c_v+27
 BYTE   W01
 BYTE   PAN   c_v+14
 BYTE   W01
 BYTE   PAN   c_v+4
 BYTE   W01
 BYTE   PAN   c_v-4
 BYTE   W01
 BYTE   PAN   c_v-10
 BYTE   W01
 BYTE   PAN   c_v-18
 BYTE   W01
 BYTE   PAN   c_v-26
 BYTE   W01
 BYTE   PAN   c_v-28
 BYTE   W02
 BYTE   PAN   c_v-30
 BYTE   W01
 BYTE   PAN   c_v-31
 BYTE   W01
 BYTE   PAN   c_v-33
 BYTE   W01
 BYTE   PAN   c_v-34
 BYTE   W01
 BYTE   PAN   c_v-36
 BYTE   W01
 BYTE   PAN   c_v-38
 BYTE   W01
 BYTE   PAN   c_v-39
 BYTE   W01
 BYTE   PAN   c_v-40
 BYTE   W02
 BYTE   PAN   c_v-41
 BYTE   W01
 BYTE   PAN   c_v-38
 BYTE   W01
 BYTE   PAN   c_v-36
 BYTE   W01
 BYTE   PAN   c_v-33
 BYTE   W01
 BYTE   PAN   c_v-30
 BYTE   W01
 BYTE   PAN   c_v-25
 BYTE   W01
 BYTE   PAN   c_v-16
 BYTE   W01
 BYTE   PAN   c_v-12
 BYTE   W01
 BYTE   PAN   c_v-4
 BYTE   W01
 BYTE   PAN   c_v+3
 BYTE   W01
 BYTE   PAN   c_v+8
 BYTE   W01
 BYTE   PAN   c_v+16
 BYTE   W01
 BYTE   PAN   c_v+19
 BYTE   W01
 BYTE   PAN   c_v+21
 BYTE   W01
 BYTE   PAN   c_v+23
 BYTE   W01
 BYTE   PAN   c_v+25
 BYTE   W01
 BYTE   PAN   c_v+27
 BYTE   W01
//  #08 //007   ----------------------------------------
 BYTE   PAN   c_v+30
 BYTE   TIE  Cn4  v002
 BYTE   W01
 BYTE   PAN   c_v+32
 BYTE   W01
 BYTE   PAN   c_v+33
 BYTE   W02
 BYTE   PAN   c_v+34
 BYTE   W01
 BYTE   PAN   c_v+35
 BYTE   W01
 BYTE   PAN   c_v+36
 BYTE   W01
 BYTE   PAN   c_v+38
 BYTE   W01
 BYTE   PAN   c_v+39
 BYTE   W01
 BYTE   PAN   c_v+40
 BYTE   W01
 BYTE   PAN   c_v+42
 BYTE   W04
 BYTE   PAN   c_v+43
 BYTE   W01
 BYTE   PAN   c_v+41
 BYTE   W01
 BYTE   PAN   c_v+38
 BYTE   W01
 BYTE   PAN   c_v+35
 BYTE   W01
 BYTE   PAN   c_v+32
 BYTE   W01
 BYTE   PAN   c_v+29
 BYTE   W01
 BYTE   PAN   c_v+24
 BYTE   W01
 BYTE   PAN   c_v+19
 BYTE   W01
 BYTE   PAN   c_v+13
 BYTE   W01
 BYTE   PAN   c_v+8
 BYTE   W01
 BYTE   PAN   c_v+3
 BYTE   W01
 BYTE   PAN   c_v+0
 BYTE   W01
 BYTE   PAN   c_v-6
 BYTE   W01
 BYTE   PAN   c_v-9
 BYTE   W01
 BYTE   PAN   c_v-14
 BYTE   W01
 BYTE   PAN   c_v-17
 BYTE   W01
 BYTE   PAN   c_v-20
 BYTE   W01
 BYTE   PAN   c_v-22
 BYTE   W01
 BYTE   PAN   c_v-26
 BYTE   W01
 BYTE   PAN   c_v-27
 BYTE   W01
 BYTE   PAN   c_v-29
 BYTE   W01
 BYTE   PAN   c_v-31
 BYTE   W01
 BYTE   PAN   c_v-32
 BYTE   W03
 BYTE   PAN   c_v-33
 BYTE   W02
 BYTE   PAN   c_v-35
 BYTE   W01
 BYTE   PAN   c_v-36
 BYTE   W03
 BYTE   PAN   c_v-37
 BYTE   W02
 BYTE   PAN   c_v-38
 BYTE   W01
 BYTE   PAN   c_v-36
 BYTE   W01
 BYTE   PAN   c_v-29
 BYTE   W01
 BYTE   PAN   c_v-25
 BYTE   W01
 BYTE   PAN   c_v-17
 BYTE   W01
 BYTE   PAN   c_v-10
 BYTE   W01
 BYTE   PAN   c_v-6
 BYTE   W01
 BYTE   PAN   c_v+2
 BYTE   W01
 BYTE   PAN   c_v+7
 BYTE   W01
 BYTE   PAN   c_v+11
 BYTE   W01
 BYTE   PAN   c_v+17
 BYTE   W01
 BYTE   PAN   c_v+22
 BYTE   W01
 BYTE   PAN   c_v+25
 BYTE   W01
 BYTE   PAN   c_v+28
 BYTE   W02
 BYTE   PAN   c_v+29
 BYTE   W04
 BYTE   PAN   c_v+30
 BYTE   W03
 BYTE   PAN   c_v+29
 BYTE   W01
 BYTE   PAN   c_v+28
 BYTE   W02
 BYTE   PAN   c_v+27
 BYTE   W01
 BYTE   PAN   c_v+25
 BYTE   W01
 BYTE   PAN   c_v+18
 BYTE   W01
 BYTE   PAN   c_v+11
 BYTE   W01
 BYTE   PAN   c_v+6
 BYTE   W01
 BYTE   PAN   c_v-1
 BYTE   W01
 BYTE   PAN   c_v-8
 BYTE   W01
 BYTE   PAN   c_v-13
 BYTE   W01
 BYTE   PAN   c_v-18
 BYTE   W01
 BYTE   PAN   c_v-19
 BYTE   W01
 BYTE   PAN   c_v-21
 BYTE   W01
 BYTE   PAN   c_v-22
 BYTE   W01
 BYTE   PAN   c_v-23
 BYTE   W02
 BYTE   PAN   c_v-24
 BYTE   W01
 BYTE   PAN   c_v-25
 BYTE   W01
 BYTE   PAN   c_v-28
 BYTE   W03
 BYTE   PAN   c_v-29
 BYTE   W02
 BYTE   PAN   c_v-29
 BYTE   W01
 BYTE   PAN   c_v-25
 BYTE   W01
 BYTE   PAN   c_v-19
 BYTE   W01
//  #08 //008   ----------------------------------------
 BYTE   PAN   c_v-15
 BYTE   W01
 BYTE   PAN   c_v-9
 BYTE   W01
 BYTE   PAN   c_v-2
 BYTE   W01
 BYTE   PAN   c_v+3
 BYTE   W01
 BYTE   PAN   c_v+8
 BYTE   W01
 BYTE   PAN   c_v+12
 BYTE   W01
 BYTE   PAN   c_v+15
 BYTE   W01
 BYTE   PAN   c_v+19
 BYTE   W01
 BYTE   PAN   c_v+24
 BYTE   W01
 BYTE   PAN   c_v+27
 BYTE   W01
 BYTE   PAN   c_v+30
 BYTE   W01
 BYTE   PAN   c_v+32
 BYTE   W05
 BYTE   PAN   c_v+32
 BYTE   W01
 BYTE   PAN   c_v+29
 BYTE   W01
 BYTE   PAN   c_v+26
 BYTE   W01
 BYTE   PAN   c_v+22
 BYTE   W01
 BYTE   PAN   c_v+19
 BYTE   W01
 BYTE   PAN   c_v+15
 BYTE   W01
 BYTE   PAN   c_v+10
 BYTE   W01
 BYTE   PAN   c_v+6
 BYTE   W01
 BYTE   PAN   c_v+1
 BYTE   W01
 BYTE   PAN   c_v-5
 BYTE   W01
 BYTE   PAN   c_v-8
 BYTE   W01
 BYTE   PAN   c_v-14
 BYTE   W01
 BYTE   PAN   c_v-17
 BYTE   W01
 BYTE   PAN   c_v-18
 BYTE   W01
 BYTE   PAN   c_v-20
 BYTE   W01
 BYTE   PAN   c_v-21
 BYTE   W01
 BYTE   PAN   c_v-23
 BYTE   W01
 BYTE   PAN   c_v-25
 BYTE   W01
 BYTE   PAN   c_v-26
 BYTE   W07
 BYTE   PAN   c_v-23
 BYTE   W01
 BYTE   PAN   c_v-16
 BYTE   W01
 BYTE   PAN   c_v-8
 BYTE   W01
 BYTE   PAN   c_v+4
 BYTE   W01
 BYTE   PAN   c_v+17
 BYTE   W01
 BYTE   PAN   c_v+25
 BYTE   W01
 BYTE   PAN   c_v+37
 BYTE   W01
 BYTE   PAN   c_v+46
 BYTE   W02
 BYTE   PAN   c_v+47
 BYTE   W02
 BYTE   PAN   c_v+48
 BYTE   W01
 BYTE   PAN   c_v+50
 BYTE   W02
 BYTE   PAN   c_v+51
 BYTE   W03
 BYTE   PAN   c_v+50
 BYTE   W02
 BYTE   PAN   c_v+49
 BYTE   W02
 BYTE   PAN   c_v+41
 BYTE   W01
 BYTE   PAN   c_v+32
 BYTE   W01
 BYTE   PAN   c_v+26
 BYTE   W01
 BYTE   PAN   c_v+17
 BYTE   W01
 BYTE   PAN   c_v+8
 BYTE   W01
 BYTE   PAN   c_v+1
 BYTE   W01
 BYTE   PAN   c_v-5
 BYTE   W01
 BYTE   PAN   c_v-7
 BYTE   W01
 BYTE   PAN   c_v-8
 BYTE   W01
 BYTE   PAN   c_v-9
 BYTE   W01
 BYTE   PAN   c_v-11
 BYTE   W01
 BYTE   PAN   c_v-12
 BYTE   W01
 BYTE   PAN   c_v-16
 BYTE   W01
 BYTE   PAN   c_v-21
 BYTE   W01
 BYTE   PAN   c_v-26
 BYTE   W01
 BYTE   PAN   c_v-30
 BYTE   W01
 BYTE   PAN   c_v-32
 BYTE   W01
 BYTE   PAN   c_v-35
 BYTE   W01
 BYTE   PAN   c_v-38
 BYTE   W01
 BYTE   PAN   c_v-40
 BYTE   W01
 BYTE   PAN   c_v-43
 BYTE   W01
 BYTE   PAN   c_v-41
 BYTE   W01
 BYTE   PAN   c_v-38
 BYTE   W01
 BYTE   PAN   c_v-36
 BYTE   W01
 BYTE   PAN   c_v-33
 BYTE   W01
 BYTE   PAN   c_v-30
 BYTE   W01
 BYTE   PAN   c_v-27
 BYTE   W01
 BYTE   PAN   c_v-21
 BYTE   W01
 BYTE   PAN   c_v-15
 BYTE   W01
 BYTE   PAN   c_v-11
 BYTE   W01
 BYTE   PAN   c_v-4
 BYTE   W01
 BYTE   PAN   c_v+3
 BYTE   W01
 BYTE   PAN   c_v+8
 BYTE   W01
 BYTE   PAN   c_v+16
 BYTE   W01
//  #08 //009   ----------------------------------------
 BYTE   EOT
 BYTE   PAN   c_v+19
 BYTE   N96  Cn3  v041
 BYTE   W01
 BYTE   PAN   c_v+21
 BYTE   W01
 BYTE   PAN   c_v+24
 BYTE   W01
 BYTE   PAN   c_v+27
 BYTE   W01
 BYTE   PAN   c_v+29
 BYTE   W09
 BYTE   PAN   c_v+24
 BYTE   W01
 BYTE   PAN   c_v+20
 BYTE   W01
 BYTE   PAN   c_v+13
 BYTE   W01
 BYTE   PAN   c_v+7
 BYTE   W01
 BYTE   PAN   c_v+0
 BYTE   W01
 BYTE   PAN   c_v-11
 BYTE   W01
 BYTE   PAN   c_v-23
 BYTE   W01
 BYTE   PAN   c_v-32
 BYTE   W01
 BYTE   PAN   c_v-37
 BYTE   W01
 BYTE   PAN   c_v-46
 BYTE   W01
 BYTE   PAN   c_v-54
 BYTE   W01
 BYTE   PAN   c_v-61
 BYTE   W02
 BYTE   PAN   c_v-60
 BYTE   W02
 BYTE   PAN   c_v-59
 BYTE   W02
 BYTE   PAN   c_v-58
 BYTE   W02
 BYTE   PAN   c_v-52
 BYTE   W01
 BYTE   PAN   c_v-44
 BYTE   W01
 BYTE   PAN   c_v-34
 BYTE   W01
 BYTE   PAN   c_v-27
 BYTE   W01
 BYTE   PAN   c_v-17
 BYTE   W01
 BYTE   PAN   c_v-7
 BYTE   W01
 BYTE   PAN   c_v+1
 BYTE   W01
 BYTE   PAN   c_v+7
 BYTE   W01
 BYTE   PAN   c_v+10
 BYTE   W01
 BYTE   PAN   c_v+12
 BYTE   W01
 BYTE   PAN   c_v+15
 BYTE   W01
 BYTE   PAN   c_v+18
 BYTE   W01
 BYTE   PAN   c_v+20
 BYTE   W02
 BYTE   PAN   c_v+22
 BYTE   W01
 BYTE   PAN   c_v+24
 BYTE   W01
 BYTE   PAN   c_v+26
 BYTE   W01
 BYTE   PAN   c_v+29
 BYTE   W01
 BYTE   PAN   c_v+31
 BYTE   W01
 BYTE   PAN   c_v+34
 BYTE   W01
 BYTE   PAN   c_v+39
 BYTE   W01
 BYTE   PAN   c_v+44
 BYTE   W01
 BYTE   PAN   c_v+48
 BYTE   W01
 BYTE   PAN   c_v+49
 BYTE   W01
 BYTE   PAN   c_v+51
 BYTE   W01
 BYTE   PAN   c_v+53
 BYTE   W01
 BYTE   PAN   c_v+55
 BYTE   W01
 BYTE   PAN   c_v+58
 BYTE   W02
 BYTE   PAN   c_v+57
 BYTE   W01
 BYTE   PAN   c_v+56
 BYTE   W01
 BYTE   PAN   c_v+55
 BYTE   W01
 BYTE   PAN   c_v+53
 BYTE   W01
 BYTE   PAN   c_v+52
 BYTE   W01
 BYTE   PAN   c_v+48
 BYTE   W01
 BYTE   PAN   c_v+40
 BYTE   W01
 BYTE   PAN   c_v+35
 BYTE   W01
 BYTE   PAN   c_v+26
 BYTE   W01
 BYTE   PAN   c_v+17
 BYTE   W01
 BYTE   PAN   c_v+12
 BYTE   W01
 BYTE   PAN   c_v+2
 BYTE   W01
 BYTE   PAN   c_v+0
 BYTE   W01
 BYTE   PAN   c_v-2
 BYTE   W01
 BYTE   PAN   c_v-3
 BYTE   W01
 BYTE   PAN   c_v-4
 BYTE   W01
 BYTE   PAN   c_v-5
 BYTE   W01
 BYTE   PAN   c_v-7
 BYTE   W01
 BYTE   PAN   c_v-8
 BYTE   W02
 BYTE   PAN   c_v-9
 BYTE   W01
 BYTE   PAN   c_v-10
 BYTE   W01
 BYTE   PAN   c_v-11
 BYTE   W01
 BYTE   PAN   c_v-12
 BYTE   W01
 BYTE   PAN   c_v-14
 BYTE   W01
 BYTE   PAN   c_v-15
 BYTE   W01
 BYTE   PAN   c_v-17
 BYTE   W01
 BYTE   PAN   c_v-18
 BYTE   W01
 BYTE   PAN   c_v-20
 BYTE   W06
 BYTE   PAN   c_v-15
 BYTE   W01
//  #08 //010   ----------------------------------------
 BYTE   PAN   c_v-8
 BYTE   N92
 BYTE   W01
 BYTE   PAN   c_v-2
 BYTE   W01
 BYTE   PAN   c_v+7
 BYTE   W01
 BYTE   PAN   c_v+15
 BYTE   W01
 BYTE   PAN   c_v+21
 BYTE   W01
 BYTE   PAN   c_v+30
 BYTE   W01
 BYTE   PAN   c_v+37
 BYTE   W01
 BYTE   PAN   c_v+39
 BYTE   W02
 BYTE   PAN   c_v+41
 BYTE   W01
 BYTE   PAN   c_v+42
 BYTE   W01
 BYTE   PAN   c_v+43
 BYTE   W01
 BYTE   PAN   c_v+44
 BYTE   W01
 BYTE   PAN   c_v+46
 BYTE   W01
 BYTE   PAN   c_v+47
 BYTE   W02
 BYTE   PAN   c_v+49
 BYTE   W04
 BYTE   PAN   c_v+48
 BYTE   W01
 BYTE   PAN   c_v+47
 BYTE   W02
 BYTE   PAN   c_v+45
 BYTE   W01
 BYTE   PAN   c_v+38
 BYTE   W01
 BYTE   PAN   c_v+33
 BYTE   W01
 BYTE   PAN   c_v+29
 BYTE   W01
 BYTE   PAN   c_v+23
 BYTE   W01
 BYTE   PAN   c_v+17
 BYTE   W01
 BYTE   PAN   c_v+13
 BYTE   W01
 BYTE   PAN   c_v+7
 BYTE   W01
 BYTE   PAN   c_v+5
 BYTE   W01
 BYTE   PAN   c_v+2
 BYTE   W01
 BYTE   PAN   c_v-1
 BYTE   W01
 BYTE   PAN   c_v-4
 BYTE   W01
 BYTE   PAN   c_v-7
 BYTE   W01
 BYTE   PAN   c_v-11
 BYTE   W01
 BYTE   PAN   c_v-14
 BYTE   W01
 BYTE   PAN   c_v-18
 BYTE   W01
 BYTE   PAN   c_v-24
 BYTE   W01
 BYTE   PAN   c_v-27
 BYTE   W01
 BYTE   PAN   c_v-29
 BYTE   W01
 BYTE   PAN   c_v-31
 BYTE   W03
 BYTE   PAN   c_v-32
 BYTE   W02
 BYTE   PAN   c_v-34
 BYTE   W03
 BYTE   PAN   c_v-33
 BYTE   W01
 BYTE   PAN   c_v-32
 BYTE   W01
 BYTE   PAN   c_v-31
 BYTE   W01
 BYTE   PAN   c_v-29
 BYTE   W01
 BYTE   PAN   c_v-23
 BYTE   W01
 BYTE   PAN   c_v-14
 BYTE   W01
 BYTE   PAN   c_v-7
 BYTE   W01
 BYTE   PAN   c_v+1
 BYTE   W01
 BYTE   PAN   c_v+6
 BYTE   W01
 BYTE   PAN   c_v+13
 BYTE   W01
 BYTE   PAN   c_v+21
 BYTE   W01
 BYTE   PAN   c_v+25
 BYTE   W01
 BYTE   PAN   c_v+28
 BYTE   W01
 BYTE   PAN   c_v+31
 BYTE   W01
 BYTE   PAN   c_v+33
 BYTE   W01
 BYTE   PAN   c_v+37
 BYTE   W01
 BYTE   PAN   c_v+40
 BYTE   W01
 BYTE   PAN   c_v+43
 BYTE   W02
 BYTE   PAN   c_v+43
 BYTE   W01
 BYTE   PAN   c_v+41
 BYTE   W01
 BYTE   PAN   c_v+39
 BYTE   W01
 BYTE   PAN   c_v+36
 BYTE   W01
 BYTE   PAN   c_v+34
 BYTE   W01
 BYTE   PAN   c_v+32
 BYTE   W01
 BYTE   PAN   c_v+29
 BYTE   W01
 BYTE   PAN   c_v+24
 BYTE   W01
 BYTE   PAN   c_v+20
 BYTE   W01
 BYTE   PAN   c_v+14
 BYTE   W01
 BYTE   PAN   c_v+11
 BYTE   W01
 BYTE   PAN   c_v+5
 BYTE   W01
 BYTE   PAN   c_v+0
 BYTE   W01
 BYTE   PAN   c_v-5
 BYTE   W01
 BYTE   PAN   c_v-11
 BYTE   W01
 BYTE   PAN   c_v-12
 BYTE   W01
 BYTE   PAN   c_v-15
 BYTE   W01
 BYTE   PAN   c_v-18
 BYTE   W01
 BYTE   PAN   c_v-20
 BYTE   W01
 BYTE   PAN   c_v-23
 BYTE   W01
 BYTE   PAN   c_v-25
 BYTE   W01
 BYTE   PAN   c_v-27
 BYTE   W06
//  #08 //011   ----------------------------------------
 BYTE   PAN   c_v-29
 BYTE   N23
 BYTE   W01
 BYTE   PAN   c_v-28
 BYTE   W01
 BYTE   PAN   c_v-24
 BYTE   W01
 BYTE   PAN   c_v-19
 BYTE   W01
 BYTE   PAN   c_v-14
 BYTE   W01
 BYTE   PAN   c_v-8
 BYTE   W01
 BYTE   PAN   c_v-3
 BYTE   W01
 BYTE   PAN   c_v+3
 BYTE   W01
 BYTE   PAN   c_v+10
 BYTE   W01
 BYTE   VOL   0*FE11IntotheDarkness_mvl/mxv
 BYTE   PAN   c_v+16
 BYTE   W01
 BYTE   PAN   c_v+22
 BYTE   W01
 BYTE   PAN   c_v+24
 BYTE   W01
 BYTE   VOL   0*FE11IntotheDarkness_mvl/mxv
 BYTE   PAN   c_v+26
 BYTE   W01
 BYTE   PAN   c_v+28
 BYTE   W01
 BYTE   PAN   c_v+31
 BYTE   W01
 BYTE   VOL   0*FE11IntotheDarkness_mvl/mxv
 BYTE   PAN   c_v+33
 BYTE   W01
 BYTE   PAN   c_v+36
 BYTE   W02
 BYTE   VOL   0*FE11IntotheDarkness_mvl/mxv
 BYTE   PAN   c_v+38
 BYTE   W03
 BYTE   VOL   0*FE11IntotheDarkness_mvl/mxv
 BYTE   W03
 BYTE   VOL   0*FE11IntotheDarkness_mvl/mxv
 BYTE   PAN   c_v+37
 BYTE   N72  Cn4  v002
 BYTE   W01
 BYTE   PAN   c_v+35
 BYTE   W01
 BYTE   PAN   c_v+31
 BYTE   W01
 BYTE   VOL   0*FE11IntotheDarkness_mvl/mxv
 BYTE   PAN   c_v+28
 BYTE   W01
 BYTE   PAN   c_v+25
 BYTE   W01
 BYTE   PAN   c_v+22
 BYTE   W01
 BYTE   VOL   0*FE11IntotheDarkness_mvl/mxv
 BYTE   PAN   c_v+19
 BYTE   W01
 BYTE   PAN   c_v+11
 BYTE   W01
 BYTE   PAN   c_v+5
 BYTE   W01
 BYTE   VOL   0*FE11IntotheDarkness_mvl/mxv
 BYTE   PAN   c_v+1
 BYTE   W01
 BYTE   PAN   c_v-6
 BYTE   W01
 BYTE   PAN   c_v-10
 BYTE   W01
 BYTE   VOL   0*FE11IntotheDarkness_mvl/mxv
 BYTE   PAN   c_v-14
 BYTE   W01
 BYTE   PAN   c_v-17
 BYTE   W01
 BYTE   PAN   c_v-21
 BYTE   W01
 BYTE   VOL   0*FE11IntotheDarkness_mvl/mxv
 BYTE   PAN   c_v-25
 BYTE   W01
 BYTE   PAN   c_v-28
 BYTE   W01
 BYTE   PAN   c_v-30
 BYTE   W01
 BYTE   VOL   0*FE11IntotheDarkness_mvl/mxv
 BYTE   PAN   c_v-31
 BYTE   W03
 BYTE   VOL   0*FE11IntotheDarkness_mvl/mxv
 BYTE   W02
 BYTE   PAN   c_v-33
 BYTE   W01
 BYTE   VOL   0*FE11IntotheDarkness_mvl/mxv
 BYTE   PAN   c_v-32
 BYTE   W01
 BYTE   PAN   c_v-31
 BYTE   W01
 BYTE   PAN   c_v-30
 BYTE   W01
 BYTE   VOL   0*FE11IntotheDarkness_mvl/mxv
 BYTE   PAN   c_v-28
 BYTE   W01
 BYTE   PAN   c_v-27
 BYTE   W01
 BYTE   PAN   c_v-25
 BYTE   W01
 BYTE   VOL   0*FE11IntotheDarkness_mvl/mxv
 BYTE   PAN   c_v-20
 BYTE   W01
 BYTE   PAN   c_v-15
 BYTE   W01
 BYTE   PAN   c_v-9
 BYTE   W01
 BYTE   VOL   0*FE11IntotheDarkness_mvl/mxv
 BYTE   PAN   c_v-5
 BYTE   W01
 BYTE   PAN   c_v+1
 BYTE   W01
 BYTE   PAN   c_v+7
 BYTE   W01
 BYTE   VOL   0*FE11IntotheDarkness_mvl/mxv
 BYTE   PAN   c_v+12
 BYTE   W01
 BYTE   PAN   c_v+15
 BYTE   W01
 BYTE   PAN   c_v+18
 BYTE   W01
 BYTE   VOL   0*FE11IntotheDarkness_mvl/mxv
 BYTE   PAN   c_v+19
 BYTE   W01
 BYTE   PAN   c_v+20
 BYTE   W02
 BYTE   VOL   0*FE11IntotheDarkness_mvl/mxv
 BYTE   W01
 BYTE   PAN   c_v+21
 BYTE   W02
 BYTE   VOL   0*FE11IntotheDarkness_mvl/mxv
 BYTE   PAN   c_v+22
 BYTE   W01
 BYTE   PAN   c_v+19
 BYTE   W01
 BYTE   PAN   c_v+16
 BYTE   W01
 BYTE   VOL   0*FE11IntotheDarkness_mvl/mxv
 BYTE   PAN   c_v+13
 BYTE   W01
 BYTE   PAN   c_v+9
 BYTE   W01
 BYTE   PAN   c_v+7
 BYTE   W01
 BYTE   VOL   0*FE11IntotheDarkness_mvl/mxv
 BYTE   PAN   c_v+3
 BYTE   W01
 BYTE   PAN   c_v-1
 BYTE   W01
 BYTE   PAN   c_v-11
 BYTE   W01
 BYTE   VOL   0*FE11IntotheDarkness_mvl/mxv
 BYTE   PAN   c_v-13
 BYTE   W01
 BYTE   PAN   c_v-18
 BYTE   W01
 BYTE   PAN   c_v-22
 BYTE   W01
 BYTE   VOL   0*FE11IntotheDarkness_mvl/mxv
 BYTE   PAN   c_v-25
 BYTE   W01
 BYTE   PAN   c_v-29
 BYTE   W01
 BYTE   PAN   c_v-32
 BYTE   W01
 BYTE   VOL   0*FE11IntotheDarkness_mvl/mxv
 BYTE   PAN   c_v-33
 BYTE   W03
 BYTE   VOL   0*FE11IntotheDarkness_mvl/mxv
 BYTE   W03
 BYTE   VOL   0*FE11IntotheDarkness_mvl/mxv
 BYTE   PAN   c_v-29
 BYTE   W01
 BYTE   PAN   c_v-25
 BYTE   W01
 BYTE   PAN   c_v-17
 BYTE   W01
 BYTE   VOL   0*FE11IntotheDarkness_mvl/mxv
 BYTE   PAN   c_v-12
 BYTE   W03
//  #08 //012   ----------------------------------------
 BYTE   VOL   0*FE11IntotheDarkness_mvl/mxv
 BYTE   N44  Cn3  v041
 BYTE   W03
 BYTE   VOL   0*FE11IntotheDarkness_mvl/mxv
 BYTE   W03
 BYTE   PAN   c_v+31
 BYTE   W01
 BYTE   PAN   c_v+28
 BYTE   W01
 BYTE   PAN   c_v+25
 BYTE   W01
 BYTE   PAN   c_v+22
 BYTE   W01
 BYTE   PAN   c_v+18
 BYTE   W01
 BYTE   PAN   c_v+16
 BYTE   W01
 BYTE   PAN   c_v+11
 BYTE   W01
 BYTE   PAN   c_v+3
 BYTE   W01
 BYTE   PAN   c_v+0
 BYTE   W01
 BYTE   PAN   c_v-2
 BYTE   VOL   0*FE11IntotheDarkness_mvl/mxv
 BYTE   PAN   c_v-6
 BYTE   W01
 BYTE   PAN   c_v-12
 BYTE   W01
 BYTE   PAN   c_v-16
 BYTE   W01
 BYTE   PAN   c_v-21
 BYTE   W01
 BYTE   PAN   c_v-27
 BYTE   W01
 BYTE   PAN   c_v-29
 BYTE   W03
 BYTE   VOL   0*FE11IntotheDarkness_mvl/mxv
 BYTE   PAN   c_v-28
 BYTE   W02
 BYTE   PAN   c_v-27
 BYTE   W01
 BYTE   PAN   c_v-25
 BYTE   W01
 BYTE   PAN   c_v-22
 BYTE   W01
 BYTE   PAN   c_v-18
 BYTE   W01
 BYTE   PAN   c_v-12
 BYTE   W01
 BYTE   PAN   c_v-4
 BYTE   W01
 BYTE   PAN   c_v+1
 BYTE   W01
 BYTE   PAN   c_v+4
 BYTE   W01
 BYTE   PAN   c_v+9
 BYTE   W01
 BYTE   PAN   c_v+14
 BYTE   W01
 BYTE   PAN   c_v+15
 BYTE   VOL   0*FE11IntotheDarkness_mvl/mxv
 BYTE   PAN   c_v+17
 BYTE   W01
 BYTE   PAN   c_v+17
 BYTE   W01
 BYTE   PAN   c_v+14
 BYTE   W01
 BYTE   PAN   c_v+8
 BYTE   W01
 BYTE   PAN   c_v+3
 BYTE   W01
 BYTE   PAN   c_v+0
 BYTE   W01
 BYTE   PAN   c_v-6
 BYTE   W01
 BYTE   PAN   c_v-12
 BYTE   W01
 BYTE   PAN   c_v-15
 BYTE   VOL   0*FE11IntotheDarkness_mvl/mxv
 BYTE   PAN   c_v-21
 BYTE   W01
 BYTE   PAN   c_v-23
 BYTE   W01
 BYTE   PAN   c_v-27
 BYTE   W01
 BYTE   PAN   c_v-31
 BYTE   W01
 BYTE   PAN   c_v-32
 BYTE   VOL   0*FE11IntotheDarkness_mvl/mxv
 BYTE   PAN   c_v-34
 BYTE   W01
 BYTE   PAN   c_v-37
 BYTE   TIE  Cn4  v002
 BYTE   W01
 BYTE   PAN   c_v-41
 BYTE   W02
 BYTE   PAN   c_v-40
 BYTE   W01
 BYTE   PAN   c_v-39
 BYTE   W01
 BYTE   PAN   c_v-38
 BYTE   W02
 BYTE   PAN   c_v-37
 BYTE   VOL   0*FE11IntotheDarkness_mvl/mxv
 BYTE   W01
 BYTE   PAN   c_v-31
 BYTE   W01
 BYTE   PAN   c_v-24
 BYTE   W01
 BYTE   PAN   c_v-15
 BYTE   W01
 BYTE   PAN   c_v-8
 BYTE   W01
 BYTE   PAN   c_v+0
 BYTE   W01
 BYTE   PAN   c_v+4
 BYTE   W01
 BYTE   PAN   c_v+10
 BYTE   W01
 BYTE   PAN   c_v+14
 BYTE   VOL   0*FE11IntotheDarkness_mvl/mxv
 BYTE   PAN   c_v+16
 BYTE   W01
 BYTE   PAN   c_v+20
 BYTE   W01
 BYTE   PAN   c_v+26
 BYTE   W02
 BYTE   PAN   c_v+27
 BYTE   VOL   0*FE11IntotheDarkness_mvl/mxv
 BYTE   W03
 BYTE   PAN   c_v+26
 BYTE   W01
 BYTE   PAN   c_v+25
 BYTE   W01
 BYTE   PAN   c_v+24
 BYTE   W02
 BYTE   PAN   c_v+20
 BYTE   W01
 BYTE   PAN   c_v+16
 BYTE   VOL   0*FE11IntotheDarkness_mvl/mxv
 BYTE   PAN   c_v+14
 BYTE   W01
 BYTE   PAN   c_v+9
 BYTE   W01
 BYTE   PAN   c_v+5
 BYTE   W01
 BYTE   PAN   c_v-2
 BYTE   W01
 BYTE   PAN   c_v-8
 BYTE   VOL   0*FE11IntotheDarkness_mvl/mxv
 BYTE   W01
 BYTE   PAN   c_v-12
 BYTE   W01
 BYTE   PAN   c_v-19
 BYTE   W01
 BYTE   PAN   c_v-24
 BYTE   W01
 BYTE   PAN   c_v-28
 BYTE   W01
 BYTE   PAN   c_v-29
 BYTE   W01
 BYTE   PAN   c_v-31
 BYTE   W01
 BYTE   PAN   c_v-30
 BYTE   W01
 BYTE   PAN   c_v-27
 BYTE   W01
 BYTE   VOL   0*FE11IntotheDarkness_mvl/mxv
 BYTE   PAN   c_v-24
 BYTE   W01
 BYTE   PAN   c_v-22
 BYTE   W01
 BYTE   PAN   c_v-19
 BYTE   W01
 BYTE   PAN   c_v-16
 BYTE   W01
 BYTE   VOL   0*FE11IntotheDarkness_mvl/mxv
 BYTE   PAN   c_v-14
 BYTE   W01
 BYTE   PAN   c_v-11
 BYTE   W01
 BYTE   PAN   c_v-8
 BYTE   W01
 BYTE   PAN   c_v-1
 BYTE   W01
//  #08 //013   ----------------------------------------
 BYTE   VOL   0*FE11IntotheDarkness_mvl/mxv
 BYTE   PAN   c_v+4
 BYTE   W01
 BYTE   PAN   c_v+12
 BYTE   W01
 BYTE   PAN   c_v+19
 BYTE   W01
 BYTE   PAN   c_v+24
 BYTE   W01
 BYTE   PAN   c_v+27
 BYTE   VOL   0*FE11IntotheDarkness_mvl/mxv
 BYTE   PAN   c_v+32
 BYTE   W01
 BYTE   PAN   c_v+38
 BYTE   W01
 BYTE   PAN   c_v+40
 BYTE   W01
 BYTE   PAN   c_v+38
 BYTE   W01
 BYTE   VOL   0*FE11IntotheDarkness_mvl/mxv
 BYTE   PAN   c_v+37
 BYTE   W01
 BYTE   PAN   c_v+35
 BYTE   W01
 BYTE   PAN   c_v+33
 BYTE   W01
 BYTE   PAN   c_v+31
 BYTE   W01
 BYTE   VOL   0*FE11IntotheDarkness_mvl/mxv
 BYTE   PAN   c_v+30
 BYTE   W01
 BYTE   PAN   c_v+28
 BYTE   W01
 BYTE   PAN   c_v+24
 BYTE   W01
 BYTE   PAN   c_v+16
 BYTE   W01
 BYTE   PAN   c_v+14
 BYTE   VOL   0*FE11IntotheDarkness_mvl/mxv
 BYTE   W04
 BYTE   VOL   0*FE11IntotheDarkness_mvl/mxv
 BYTE   W04
 BYTE   VOL   0*FE11IntotheDarkness_mvl/mxv
 BYTE   W02
 BYTE   PAN   c_v-40
 BYTE   W02
 BYTE   VOL   0*FE11IntotheDarkness_mvl/mxv
 BYTE   W04
 BYTE   VOL   0*FE11IntotheDarkness_mvl/mxv
 BYTE   W04
 BYTE   VOL   0*FE11IntotheDarkness_mvl/mxv
 BYTE   PAN   c_v+6
 BYTE   W01
 BYTE   PAN   c_v+19
 BYTE   W01
 BYTE   PAN   c_v+27
 BYTE   W01
 BYTE   PAN   c_v+30
 BYTE   W01
 BYTE   PAN   c_v+31
 BYTE   VOL   0*FE11IntotheDarkness_mvl/mxv
 BYTE   PAN   c_v+32
 BYTE   W01
 BYTE   PAN   c_v+36
 BYTE   W01
 BYTE   PAN   c_v+39
 BYTE   W01
 BYTE   PAN   c_v+41
 BYTE   W01
 BYTE   PAN   c_v+44
 BYTE   VOL   0*FE11IntotheDarkness_mvl/mxv
 BYTE   PAN   c_v+45
 BYTE   W01
 BYTE   PAN   c_v+48
 BYTE   W01
 BYTE   PAN   c_v+47
 BYTE   W01
 BYTE   PAN   c_v+42
 BYTE   W01
 BYTE   PAN   c_v+38
 BYTE   VOL   0*FE11IntotheDarkness_mvl/mxv
 BYTE   PAN   c_v+36
 BYTE   W01
 BYTE   PAN   c_v+32
 BYTE   W01
 BYTE   PAN   c_v+26
 BYTE   W01
 BYTE   PAN   c_v+20
 BYTE   W01
 BYTE   PAN   c_v+16
 BYTE   VOL   0*FE11IntotheDarkness_mvl/mxv
 BYTE   W01
 BYTE   PAN   c_v+10
 BYTE   W01
 BYTE   PAN   c_v+2
 BYTE   W01
 BYTE   PAN   c_v+1
 BYTE   W01
 BYTE   PAN   c_v+0
 BYTE   VOL   0*FE11IntotheDarkness_mvl/mxv
 BYTE   PAN   c_v-1
 BYTE   W01
 BYTE   PAN   c_v-3
 BYTE   W01
 BYTE   PAN   c_v-5
 BYTE   W01
 BYTE   PAN   c_v-7
 BYTE   W01
 BYTE   PAN   c_v-9
 BYTE   VOL   0*FE11IntotheDarkness_mvl/mxv
 BYTE   W01
 BYTE   PAN   c_v-11
 BYTE   W02
 BYTE   PAN   c_v-10
 BYTE   W01
 BYTE   PAN   c_v-9
 BYTE   VOL   0*FE11IntotheDarkness_mvl/mxv
 BYTE   W01
 BYTE   PAN   c_v-8
 BYTE   W02
 BYTE   PAN   c_v-7
 BYTE   W01
 BYTE   PAN   c_v-6
 BYTE   W01
 BYTE   VOL   0*FE11IntotheDarkness_mvl/mxv
 BYTE   PAN   c_v-5
 BYTE   W01
 BYTE   PAN   c_v+1
 BYTE   W01
 BYTE   PAN   c_v+16
 BYTE   W01
 BYTE   PAN   c_v+26
 BYTE   W01
 BYTE   VOL   0*FE11IntotheDarkness_mvl/mxv
 BYTE   PAN   c_v+28
 BYTE   VOL   0*FE11IntotheDarkness_mvl/mxv
 BYTE   PAN   c_v+31
 BYTE   W01
 BYTE   PAN   c_v+39
 BYTE   W01
 BYTE   PAN   c_v+47
 BYTE   W01
 BYTE   PAN   c_v+52
 BYTE   W01
 BYTE   PAN   c_v+60
 BYTE   W01
 BYTE   PAN   c_v+63
 BYTE   W04
 BYTE   PAN   c_v+62
 BYTE   W03
 BYTE   PAN   c_v+54
 BYTE   W01
 BYTE   PAN   c_v+44
 BYTE   W01
 BYTE   PAN   c_v+38
 BYTE   W01
 BYTE   PAN   c_v+29
 BYTE   W01
 BYTE   PAN   c_v+20
 BYTE   W01
 BYTE   PAN   c_v+14
 BYTE   W01
 BYTE   PAN   c_v+5
 BYTE   W01
 BYTE   PAN   c_v-4
 BYTE   W01
 BYTE   PAN   c_v-11
 BYTE   W01
 BYTE   PAN   c_v-17
 BYTE   W01
 BYTE   EOT
 BYTE   PAN   c_v-18
 BYTE   W01
//  #08 //014   ----------------------------------------
 BYTE   W96
//  #08 //015   ----------------------------------------
 BYTE   W96
//  #08 //016   ----------------------------------------
 BYTE   W96
//  #08 //017   ----------------------------------------
 BYTE   W96
//  #08 //018   ----------------------------------------
 BYTE   VOL   0*FE11IntotheDarkness_mvl/mxv
 BYTE   W08
 BYTE   PAN   c_v-40
 BYTE   W01
 BYTE   PAN   c_v-38
 BYTE   W01
 BYTE   PAN   c_v-34
 BYTE   W01
 BYTE   PAN   c_v-33
 BYTE   W01
 BYTE   PAN   c_v-32
 BYTE   W01
 BYTE   PAN   c_v-31
 BYTE   W01
 BYTE   PAN   c_v-28
 BYTE   W03
 BYTE   PAN   c_v-27
 BYTE   W03
 BYTE   PAN   c_v-25
 BYTE   W01
 BYTE   PAN   c_v-24
 BYTE   W01
 BYTE   PAN   c_v-22
 BYTE   W01
 BYTE   PAN   c_v-21
 BYTE   W01
 BYTE   PAN   c_v-19
 BYTE   W01
 BYTE   PAN   c_v-17
 BYTE   W02
 BYTE   PAN   c_v-15
 BYTE   W01
 BYTE   PAN   c_v-13
 BYTE   W01
 BYTE   PAN   c_v-10
 BYTE   W01
 BYTE   PAN   c_v-8
 BYTE   W01
 BYTE   PAN   c_v-6
 BYTE   W01
 BYTE   PAN   c_v-4
 BYTE   W02
 BYTE   PAN   c_v+0
 BYTE   W01
 BYTE   PAN   c_v+1
 BYTE   W02
 BYTE   PAN   c_v+2
 BYTE   W01
 BYTE   PAN   c_v+4
 BYTE   W02
 BYTE   PAN   c_v+7
 BYTE   W01
 BYTE   PAN   c_v+11
 BYTE   W01
 BYTE   PAN   c_v+14
 BYTE   W02
 BYTE   PAN   c_v+15
 BYTE   W04
 BYTE   TIE
 BYTE   W06
 BYTE   PAN   c_v+14
 BYTE   W01
 BYTE   PAN   c_v+13
 BYTE   W01
 BYTE   PAN   c_v+9
 BYTE   W01
 BYTE   PAN   c_v+4
 BYTE   W01
 BYTE   PAN   c_v+0
 BYTE   W01
 BYTE   PAN   c_v-4
 BYTE   W01
 BYTE   PAN   c_v-6
 BYTE   W01
 BYTE   PAN   c_v-8
 BYTE   W01
 BYTE   PAN   c_v-10
 BYTE   W01
 BYTE   PAN   c_v-11
 BYTE   W01
 BYTE   PAN   c_v-12
 BYTE   W01
 BYTE   PAN   c_v-15
 BYTE   W01
 BYTE   PAN   c_v-17
 BYTE   W01
 BYTE   PAN   c_v-20
 BYTE   W01
 BYTE   PAN   c_v-24
 BYTE   W01
 BYTE   PAN   c_v-29
 BYTE   W01
 BYTE   PAN   c_v-34
 BYTE   W01
 BYTE   PAN   c_v-35
 BYTE   W01
 BYTE   PAN   c_v-36
 BYTE   W01
 BYTE   PAN   c_v-37
 BYTE   W01
 BYTE   PAN   c_v-38
 BYTE   W03
 BYTE   PAN   c_v-36
 BYTE   W01
 BYTE   PAN   c_v-34
 BYTE   W01
 BYTE   PAN   c_v-29
 BYTE   W01
 BYTE   PAN   c_v-27
 BYTE   W01
 BYTE   PAN   c_v-22
 BYTE   W01
 BYTE   PAN   c_v-15
 BYTE   W01
 BYTE   PAN   c_v-9
 BYTE   W01
 BYTE   PAN   c_v-7
 BYTE   W02
 BYTE   PAN   c_v-5
 BYTE   W01
 BYTE   PAN   c_v-4
 BYTE   W01
 BYTE   PAN   c_v-3
 BYTE   W01
 BYTE   PAN   c_v+0
 BYTE   W01
 BYTE   PAN   c_v+4
 BYTE   W01
 BYTE   PAN   c_v+11
 BYTE   W01
 BYTE   PAN   c_v+16
 BYTE   W01
 BYTE   PAN   c_v+20
 BYTE   W01
 BYTE   PAN   c_v+25
 BYTE   W01
 BYTE   PAN   c_v+28
 BYTE   W01
//  #08 //019   ----------------------------------------
 BYTE   PAN   c_v+29
 BYTE   W04
 BYTE   PAN   c_v+28
 BYTE   W02
 BYTE   PAN   c_v+27
 BYTE   W02
 BYTE   PAN   c_v+26
 BYTE   W01
 BYTE   PAN   c_v+25
 BYTE   W01
 BYTE   PAN   c_v+20
 BYTE   W01
 BYTE   PAN   c_v+17
 BYTE   W01
 BYTE   PAN   c_v+14
 BYTE   W01
 BYTE   PAN   c_v+10
 BYTE   W01
 BYTE   PAN   c_v+7
 BYTE   W01
 BYTE   PAN   c_v+6
 BYTE   W01
 BYTE   PAN   c_v+3
 BYTE   W02
 BYTE   PAN   c_v+1
 BYTE   W01
 BYTE   PAN   c_v+0
 BYTE   W01
 BYTE   PAN   c_v-2
 BYTE   W01
 BYTE   PAN   c_v-3
 BYTE   W01
 BYTE   PAN   c_v-5
 BYTE   W01
 BYTE   PAN   c_v-10
 BYTE   W01
 BYTE   PAN   c_v-11
 BYTE   W01
 BYTE   PAN   c_v-14
 BYTE   W01
 BYTE   PAN   c_v-15
 BYTE   W01
 BYTE   PAN   c_v-16
 BYTE   W01
 BYTE   PAN   c_v-17
 BYTE   W01
 BYTE   PAN   c_v-19
 BYTE   W01
 BYTE   PAN   c_v-21
 BYTE   W01
 BYTE   PAN   c_v-22
 BYTE   W01
 BYTE   PAN   c_v-24
 BYTE   W01
 BYTE   PAN   c_v-27
 BYTE   W01
 BYTE   PAN   c_v-32
 BYTE   W02
 BYTE   PAN   c_v-33
 BYTE   W01
 BYTE   PAN   c_v-35
 BYTE   W01
 BYTE   PAN   c_v-36
 BYTE   W04
 BYTE   PAN   c_v-37
 BYTE   W01
 BYTE   PAN   c_v-39
 BYTE   W01
 BYTE   PAN   c_v-40
 BYTE   W01
 BYTE   PAN   c_v-41
 BYTE   W01
 BYTE   PAN   c_v-42
 BYTE   W03
 BYTE   PAN   c_v-41
 BYTE   W01
 BYTE   PAN   c_v-37
 BYTE   W01
 BYTE   PAN   c_v-31
 BYTE   W01
 BYTE   PAN   c_v-27
 BYTE   W01
 BYTE   PAN   c_v-25
 BYTE   W01
 BYTE   PAN   c_v-20
 BYTE   W01
 BYTE   PAN   c_v-17
 BYTE   W01
 BYTE   PAN   c_v-13
 BYTE   W01
 BYTE   PAN   c_v-10
 BYTE   W01
 BYTE   PAN   c_v-7
 BYTE   W01
 BYTE   PAN   c_v-4
 BYTE   W01
 BYTE   PAN   c_v+0
 BYTE   W01
 BYTE   PAN   c_v+2
 BYTE   W01
 BYTE   PAN   c_v+5
 BYTE   W01
 BYTE   PAN   c_v+8
 BYTE   W01
 BYTE   PAN   c_v+11
 BYTE   W01
 BYTE   PAN   c_v+12
 BYTE   W01
 BYTE   PAN   c_v+13
 BYTE   W01
 BYTE   PAN   c_v+18
 BYTE   W01
 BYTE   PAN   c_v+20
 BYTE   W01
 BYTE   PAN   c_v+22
 BYTE   W01
 BYTE   PAN   c_v+26
 BYTE   W01
 BYTE   PAN   c_v+27
 BYTE   W02
 BYTE   PAN   c_v+28
 BYTE   W05
 BYTE   PAN   c_v+24
 BYTE   W01
 BYTE   PAN   c_v+20
 BYTE   W01
 BYTE   PAN   c_v+14
 BYTE   W01
 BYTE   PAN   c_v+7
 BYTE   W01
 BYTE   PAN   c_v+1
 BYTE   W01
 BYTE   PAN   c_v-1
 BYTE   W01
 BYTE   PAN   c_v-4
 BYTE   W01
 BYTE   PAN   c_v-6
 BYTE   W03
 BYTE   PAN   c_v-8
 BYTE   W01
 BYTE   PAN   c_v-10
 BYTE   W01
 BYTE   PAN   c_v-13
 BYTE   W01
 BYTE   PAN   c_v-17
 BYTE   W01
 BYTE   PAN   c_v-22
 BYTE   W02
 BYTE   PAN   c_v-23
 BYTE   W01
 BYTE   EOT
 BYTE   PAN   c_v-24
 BYTE   W01
//  #08 //020   ----------------------------------------
 BYTE   PAN   c_v-22
 BYTE   N96  Cn3  v041
 BYTE   W01
 BYTE   PAN   c_v-19
 BYTE   W01
 BYTE   PAN   c_v-15
 BYTE   W01
 BYTE   PAN   c_v-13
 BYTE   W01
 BYTE   PAN   c_v-9
 BYTE   W01
 BYTE   PAN   c_v-4
 BYTE   W01
 BYTE   PAN   c_v+3
 BYTE   W01
 BYTE   PAN   c_v+8
 BYTE   W01
 BYTE   PAN   c_v+12
 BYTE   W01
 BYTE   PAN   c_v+19
 BYTE   W01
 BYTE   PAN   c_v+23
 BYTE   W03
 BYTE   PAN   c_v+25
 BYTE   W03
 BYTE   PAN   c_v+26
 BYTE   W01
 BYTE   PAN   c_v+27
 BYTE   W03
 BYTE   PAN   c_v+28
 BYTE   W01
 BYTE   PAN   c_v+30
 BYTE   W01
 BYTE   PAN   c_v+31
 BYTE   W04
 BYTE   PAN   c_v+32
 BYTE   W04
 BYTE   PAN   c_v+27
 BYTE   W01
 BYTE   PAN   c_v+22
 BYTE   W01
 BYTE   PAN   c_v+15
 BYTE   W01
 BYTE   PAN   c_v+10
 BYTE   W01
 BYTE   PAN   c_v+3
 BYTE   W01
 BYTE   PAN   c_v-4
 BYTE   W01
 BYTE   PAN   c_v-6
 BYTE   W01
 BYTE   PAN   c_v-11
 BYTE   W01
 BYTE   PAN   c_v-15
 BYTE   W01
 BYTE   PAN   c_v-17
 BYTE   W01
 BYTE   PAN   c_v-19
 BYTE   W01
 BYTE   PAN   c_v-20
 BYTE   W01
 BYTE   PAN   c_v-22
 BYTE   W02
 BYTE   PAN   c_v-23
 BYTE   W01
 BYTE   PAN   c_v-24
 BYTE   W02
 BYTE   PAN   c_v-25
 BYTE   W02
 BYTE   PAN   c_v-26
 BYTE   W01
 BYTE   PAN   c_v-24
 BYTE   W01
 BYTE   PAN   c_v-19
 BYTE   W01
 BYTE   PAN   c_v-13
 BYTE   W01
 BYTE   PAN   c_v-5
 BYTE   W01
 BYTE   PAN   c_v+1
 BYTE   W01
 BYTE   PAN   c_v+8
 BYTE   W01
 BYTE   PAN   c_v+13
 BYTE   W01
 BYTE   PAN   c_v+15
 BYTE   W01
 BYTE   PAN   c_v+19
 BYTE   W01
 BYTE   PAN   c_v+22
 BYTE   W01
 BYTE   PAN   c_v+24
 BYTE   W01
 BYTE   PAN   c_v+27
 BYTE   W01
 BYTE   PAN   c_v+29
 BYTE   W02
 BYTE   PAN   c_v+31
 BYTE   W01
 BYTE   PAN   c_v+34
 BYTE   W02
 BYTE   PAN   c_v+35
 BYTE   W09
 BYTE   PAN   c_v+27
 BYTE   W01
 BYTE   PAN   c_v+20
 BYTE   W01
 BYTE   PAN   c_v+15
 BYTE   W01
 BYTE   PAN   c_v+8
 BYTE   W01
 BYTE   PAN   c_v-1
 BYTE   W01
 BYTE   PAN   c_v-7
 BYTE   W01
 BYTE   PAN   c_v-12
 BYTE   W01
 BYTE   PAN   c_v-19
 BYTE   W01
 BYTE   PAN   c_v-21
 BYTE   W01
 BYTE   PAN   c_v-23
 BYTE   W01
 BYTE   PAN   c_v-28
 BYTE   W01
 BYTE   PAN   c_v-31
 BYTE   W01
 BYTE   PAN   c_v-36
 BYTE   W01
 BYTE   PAN   c_v-40
 BYTE   W01
 BYTE   PAN   c_v-46
 BYTE   W01
 BYTE   PAN   c_v-47
 BYTE   W01
 BYTE   PAN   c_v-48
 BYTE   W02
 BYTE   PAN   c_v-50
 BYTE   W02
//  #08 //021   ----------------------------------------
 BYTE   N72  Cn4  v002
 BYTE   W03
 BYTE   PAN   c_v-48
 BYTE   W01
 BYTE   PAN   c_v-46
 BYTE   W01
 BYTE   PAN   c_v-41
 BYTE   W01
 BYTE   PAN   c_v-36
 BYTE   W01
 BYTE   PAN   c_v-29
 BYTE   W01
 BYTE   PAN   c_v-21
 BYTE   W01
 BYTE   PAN   c_v-15
 BYTE   W01
 BYTE   PAN   c_v-10
 BYTE   W01
 BYTE   PAN   c_v-4
 BYTE   W01
 BYTE   PAN   c_v-1
 BYTE   W01
 BYTE   PAN   c_v+1
 BYTE   W01
 BYTE   PAN   c_v+2
 BYTE   W01
 BYTE   PAN   c_v+3
 BYTE   W01
 BYTE   PAN   c_v+5
 BYTE   W01
 BYTE   PAN   c_v+7
 BYTE   W01
 BYTE   PAN   c_v+9
 BYTE   W01
 BYTE   PAN   c_v+12
 BYTE   W01
 BYTE   PAN   c_v+13
 BYTE   W01
 BYTE   PAN   c_v+14
 BYTE   W01
 BYTE   PAN   c_v+16
 BYTE   W01
 BYTE   PAN   c_v+19
 BYTE   W02
 BYTE   PAN   c_v+21
 BYTE   W01
 BYTE   PAN   c_v+22
 BYTE   W01
 BYTE   PAN   c_v+23
 BYTE   W01
 BYTE   PAN   c_v+25
 BYTE   W02
 BYTE   PAN   c_v+27
 BYTE   W01
 BYTE   PAN   c_v+28
 BYTE   W01
 BYTE   PAN   c_v+30
 BYTE   W01
 BYTE   PAN   c_v+31
 BYTE   W01
 BYTE   PAN   c_v+34
 BYTE   W01
 BYTE   PAN   c_v+35
 BYTE   W11
 BYTE   PAN   c_v+32
 BYTE   W01
 BYTE   PAN   c_v+29
 BYTE   W01
 BYTE   PAN   c_v+26
 BYTE   W01
 BYTE   PAN   c_v+23
 BYTE   W01
 BYTE   PAN   c_v+20
 BYTE   W01
 BYTE   PAN   c_v+19
 BYTE   W01
 BYTE   PAN   c_v+15
 BYTE   W02
 BYTE   PAN   c_v+13
 BYTE   W01
 BYTE   PAN   c_v+12
 BYTE   W01
 BYTE   PAN   c_v+10
 BYTE   W01
 BYTE   PAN   c_v+8
 BYTE   W01
 BYTE   PAN   c_v+6
 BYTE   W01
 BYTE   PAN   c_v+3
 BYTE   W01
 BYTE   PAN   c_v+1
 BYTE   W01
 BYTE   PAN   c_v-2
 BYTE   W11
 BYTE   N23  Cn3  v041
 BYTE   W22
 BYTE   PAN   c_v-2
 BYTE   W01
 BYTE   PAN   c_v-8
 BYTE   W01
//  #08 //022   ----------------------------------------
 BYTE   PAN   c_v-12
 BYTE   N96
 BYTE   W01
 BYTE   PAN   c_v-18
 BYTE   W01
 BYTE   PAN   c_v-24
 BYTE   W01
 BYTE   PAN   c_v-28
 BYTE   W01
 BYTE   PAN   c_v-34
 BYTE   W01
 BYTE   PAN   c_v-40
 BYTE   W01
 BYTE   PAN   c_v-41
 BYTE   W08
 BYTE   PAN   c_v-40
 BYTE   W01
 BYTE   PAN   c_v-38
 BYTE   W01
 BYTE   PAN   c_v-34
 BYTE   W01
 BYTE   PAN   c_v-33
 BYTE   W01
 BYTE   PAN   c_v-32
 BYTE   W01
 BYTE   PAN   c_v-31
 BYTE   W01
 BYTE   PAN   c_v-28
 BYTE   W03
 BYTE   PAN   c_v-27
 BYTE   W01
 BYTE   VOL   0*FE11IntotheDarkness_mvl/mxv
 BYTE   W02
 BYTE   PAN   c_v-25
 BYTE   W01
 BYTE   VOL   0*FE11IntotheDarkness_mvl/mxv
 BYTE   PAN   c_v-24
 BYTE   W01
 BYTE   PAN   c_v-22
 BYTE   W01
 BYTE   PAN   c_v-21
 BYTE   W01
 BYTE   VOL   0*FE11IntotheDarkness_mvl/mxv
 BYTE   PAN   c_v-19
 BYTE   W01
 BYTE   PAN   c_v-17
 BYTE   W02
 BYTE   VOL   0*FE11IntotheDarkness_mvl/mxv
 BYTE   PAN   c_v-15
 BYTE   W01
 BYTE   PAN   c_v-13
 BYTE   W01
 BYTE   PAN   c_v-10
 BYTE   W01
 BYTE   VOL   0*FE11IntotheDarkness_mvl/mxv
 BYTE   PAN   c_v-8
 BYTE   W01
 BYTE   PAN   c_v-6
 BYTE   W01
 BYTE   PAN   c_v-4
 BYTE   W01
 BYTE   VOL   0*FE11IntotheDarkness_mvl/mxv
 BYTE   W01
 BYTE   PAN   c_v+0
 BYTE   W01
 BYTE   PAN   c_v+1
 BYTE   W01
 BYTE   VOL   0*FE11IntotheDarkness_mvl/mxv
 BYTE   W01
 BYTE   PAN   c_v+2
 BYTE   W01
 BYTE   PAN   c_v+4
 BYTE   W01
 BYTE   VOL   0*FE11IntotheDarkness_mvl/mxv
 BYTE   W01
 BYTE   PAN   c_v+7
 BYTE   W01
 BYTE   PAN   c_v+11
 BYTE   W01
 BYTE   VOL   0*FE11IntotheDarkness_mvl/mxv
 BYTE   PAN   c_v+14
 BYTE   W02
 BYTE   PAN   c_v+15
 BYTE   W01
 BYTE   VOL   0*FE11IntotheDarkness_mvl/mxv
 BYTE   W03
 BYTE   VOL   0*FE11IntotheDarkness_mvl/mxv
 BYTE   W03
 BYTE   VOL   0*FE11IntotheDarkness_mvl/mxv
 BYTE   W03
 BYTE   VOL   0*FE11IntotheDarkness_mvl/mxv
 BYTE   PAN   c_v+14
 BYTE   W01
 BYTE   PAN   c_v+13
 BYTE   W01
 BYTE   PAN   c_v+9
 BYTE   W01
 BYTE   VOL   0*FE11IntotheDarkness_mvl/mxv
 BYTE   PAN   c_v+4
 BYTE   W01
 BYTE   PAN   c_v+0
 BYTE   W01
 BYTE   PAN   c_v-4
 BYTE   W01
 BYTE   VOL   0*FE11IntotheDarkness_mvl/mxv
 BYTE   PAN   c_v-6
 BYTE   W01
 BYTE   PAN   c_v-8
 BYTE   W01
 BYTE   PAN   c_v-10
 BYTE   W01
 BYTE   VOL   0*FE11IntotheDarkness_mvl/mxv
 BYTE   PAN   c_v-11
 BYTE   W01
 BYTE   PAN   c_v-12
 BYTE   W01
 BYTE   PAN   c_v-15
 BYTE   W01
 BYTE   VOL   0*FE11IntotheDarkness_mvl/mxv
 BYTE   PAN   c_v-17
 BYTE   W01
 BYTE   PAN   c_v-20
 BYTE   W01
 BYTE   PAN   c_v-24
 BYTE   W01
 BYTE   VOL   0*FE11IntotheDarkness_mvl/mxv
 BYTE   PAN   c_v-29
 BYTE   W01
 BYTE   PAN   c_v-34
 BYTE   W01
 BYTE   PAN   c_v-35
 BYTE   W01
 BYTE   VOL   0*FE11IntotheDarkness_mvl/mxv
 BYTE   PAN   c_v-36
 BYTE   W01
 BYTE   PAN   c_v-37
 BYTE   W01
 BYTE   PAN   c_v-38
 BYTE   W01
 BYTE   VOL   0*FE11IntotheDarkness_mvl/mxv
 BYTE   W02
 BYTE   PAN   c_v-36
 BYTE   W01
 BYTE   VOL   0*FE11IntotheDarkness_mvl/mxv
 BYTE   PAN   c_v-34
 BYTE   W01
 BYTE   PAN   c_v-29
 BYTE   W01
 BYTE   PAN   c_v-27
 BYTE   W01
 BYTE   VOL   0*FE11IntotheDarkness_mvl/mxv
 BYTE   PAN   c_v-22
 BYTE   W01
 BYTE   PAN   c_v-15
 BYTE   W01
 BYTE   PAN   c_v-9
 BYTE   W01
 BYTE   VOL   0*FE11IntotheDarkness_mvl/mxv
 BYTE   PAN   c_v-7
 BYTE   W02
 BYTE   PAN   c_v-5
 BYTE   W01
 BYTE   VOL   0*FE11IntotheDarkness_mvl/mxv
 BYTE   PAN   c_v-4
 BYTE   W01
 BYTE   PAN   c_v-3
 BYTE   W01
 BYTE   PAN   c_v+0
 BYTE   W01
//  #08 //023   ----------------------------------------
 BYTE   VOL   0*FE11IntotheDarkness_mvl/mxv
 BYTE   PAN   c_v+4
 BYTE   TIE  Cn4  v002
 BYTE   W01
 BYTE   PAN   c_v+11
 BYTE   W01
 BYTE   PAN   c_v+16
 BYTE   W01
 BYTE   VOL   0*FE11IntotheDarkness_mvl/mxv
 BYTE   PAN   c_v+20
 BYTE   W01
 BYTE   PAN   c_v+25
 BYTE   W01
 BYTE   PAN   c_v+28
 BYTE   W01
 BYTE   VOL   0*FE11IntotheDarkness_mvl/mxv
 BYTE   PAN   c_v+29
 BYTE   W03
 BYTE   VOL   0*FE11IntotheDarkness_mvl/mxv
 BYTE   W01
 BYTE   PAN   c_v+28
 BYTE   W02
 BYTE   VOL   0*FE11IntotheDarkness_mvl/mxv
 BYTE   PAN   c_v+27
 BYTE   W02
 BYTE   PAN   c_v+26
 BYTE   W01
 BYTE   VOL   0*FE11IntotheDarkness_mvl/mxv
 BYTE   PAN   c_v+25
 BYTE   W01
 BYTE   PAN   c_v+20
 BYTE   W01
 BYTE   PAN   c_v+17
 BYTE   W01
 BYTE   VOL   0*FE11IntotheDarkness_mvl/mxv
 BYTE   PAN   c_v+14
 BYTE   W01
 BYTE   PAN   c_v+10
 BYTE   W01
 BYTE   PAN   c_v+7
 BYTE   W01
 BYTE   VOL   0*FE11IntotheDarkness_mvl/mxv
 BYTE   PAN   c_v+6
 BYTE   W01
 BYTE   PAN   c_v+3
 BYTE   W02
 BYTE   VOL   0*FE11IntotheDarkness_mvl/mxv
 BYTE   PAN   c_v+1
 BYTE   W01
 BYTE   PAN   c_v+0
 BYTE   W01
 BYTE   PAN   c_v-2
 BYTE   W01
 BYTE   VOL   0*FE11IntotheDarkness_mvl/mxv
 BYTE   PAN   c_v-3
 BYTE   W01
 BYTE   PAN   c_v-5
 BYTE   W01
 BYTE   PAN   c_v-10
 BYTE   W01
 BYTE   VOL   0*FE11IntotheDarkness_mvl/mxv
 BYTE   PAN   c_v-11
 BYTE   W01
 BYTE   PAN   c_v-14
 BYTE   W01
 BYTE   PAN   c_v-15
 BYTE   W01
 BYTE   VOL   0*FE11IntotheDarkness_mvl/mxv
 BYTE   PAN   c_v-16
 BYTE   W01
 BYTE   PAN   c_v-17
 BYTE   W01
 BYTE   PAN   c_v-19
 BYTE   W01
 BYTE   VOL   0*FE11IntotheDarkness_mvl/mxv
 BYTE   PAN   c_v-21
 BYTE   W01
 BYTE   PAN   c_v-22
 BYTE   W01
 BYTE   PAN   c_v-24
 BYTE   W01
 BYTE   VOL   0*FE11IntotheDarkness_mvl/mxv
 BYTE   PAN   c_v-27
 BYTE   W01
 BYTE   PAN   c_v-32
 BYTE   W02
 BYTE   VOL   0*FE11IntotheDarkness_mvl/mxv
 BYTE   PAN   c_v-33
 BYTE   W01
 BYTE   PAN   c_v-35
 BYTE   W01
 BYTE   PAN   c_v-36
 BYTE   W01
 BYTE   VOL   0*FE11IntotheDarkness_mvl/mxv
 BYTE   W03
 BYTE   VOL   0*FE11IntotheDarkness_mvl/mxv
 BYTE   PAN   c_v-37
 BYTE   W01
 BYTE   PAN   c_v-39
 BYTE   W01
 BYTE   PAN   c_v-40
 BYTE   W01
 BYTE   VOL   0*FE11IntotheDarkness_mvl/mxv
 BYTE   PAN   c_v-41
 BYTE   W01
 BYTE   PAN   c_v-42
 BYTE   W02
 BYTE   VOL   0*FE11IntotheDarkness_mvl/mxv
 BYTE   W01
 BYTE   PAN   c_v-41
 BYTE   W01
 BYTE   PAN   c_v-37
 BYTE   W01
 BYTE   VOL   0*FE11IntotheDarkness_mvl/mxv
 BYTE   PAN   c_v-31
 BYTE   W01
 BYTE   PAN   c_v-27
 BYTE   W01
 BYTE   PAN   c_v-25
 BYTE   W01
 BYTE   PAN   c_v-23
 BYTE   VOL   0*FE11IntotheDarkness_mvl/mxv
 BYTE   PAN   c_v-20
 BYTE   W01
 BYTE   PAN   c_v-17
 BYTE   W01
 BYTE   PAN   c_v-13
 BYTE   W01
 BYTE   VOL   0*FE11IntotheDarkness_mvl/mxv
 BYTE   PAN   c_v-10
 BYTE   W01
 BYTE   PAN   c_v-7
 BYTE   W01
 BYTE   PAN   c_v-4
 BYTE   W01
 BYTE   VOL   0*FE11IntotheDarkness_mvl/mxv
 BYTE   PAN   c_v+0
 BYTE   W01
 BYTE   PAN   c_v+2
 BYTE   W01
 BYTE   PAN   c_v+5
 BYTE   W01
 BYTE   VOL   0*FE11IntotheDarkness_mvl/mxv
 BYTE   PAN   c_v+8
 BYTE   W01
 BYTE   PAN   c_v+11
 BYTE   W01
 BYTE   PAN   c_v+12
 BYTE   W01
 BYTE   VOL   0*FE11IntotheDarkness_mvl/mxv
 BYTE   PAN   c_v+13
 BYTE   W01
 BYTE   PAN   c_v+18
 BYTE   W01
 BYTE   PAN   c_v+20
 BYTE   W01
 BYTE   PAN   c_v+22
 BYTE   W01
 BYTE   PAN   c_v+26
 BYTE   W01
 BYTE   PAN   c_v+27
 BYTE   W02
 BYTE   PAN   c_v+28
 BYTE   W05
 BYTE   PAN   c_v+24
 BYTE   W01
 BYTE   PAN   c_v+20
 BYTE   W01
 BYTE   PAN   c_v+14
 BYTE   W01
 BYTE   PAN   c_v+7
 BYTE   W01
 BYTE   PAN   c_v+1
 BYTE   W01
 BYTE   PAN   c_v-1
 BYTE   W01
 BYTE   PAN   c_v-4
 BYTE   W01
 BYTE   PAN   c_v-6
 BYTE   W03
 BYTE   PAN   c_v-8
 BYTE   W01
 BYTE   PAN   c_v-10
 BYTE   W01
//  #08 //024   ----------------------------------------
 BYTE   PAN   c_v-13
 BYTE   W01
 BYTE   PAN   c_v-17
 BYTE   W01
 BYTE   PAN   c_v-22
 BYTE   W02
 BYTE   PAN   c_v-23
 BYTE   W01
 BYTE   PAN   c_v-24
 BYTE   W01
 BYTE   PAN   c_v-22
 BYTE   W01
 BYTE   PAN   c_v-19
 BYTE   W01
 BYTE   PAN   c_v-15
 BYTE   W01
 BYTE   PAN   c_v-13
 BYTE   W01
 BYTE   PAN   c_v-9
 BYTE   W01
 BYTE   PAN   c_v-4
 BYTE   W01
 BYTE   PAN   c_v+3
 BYTE   W01
 BYTE   PAN   c_v+8
 BYTE   W01
 BYTE   PAN   c_v+12
 BYTE   W01
 BYTE   PAN   c_v+19
 BYTE   W01
 BYTE   PAN   c_v+23
 BYTE   W03
 BYTE   PAN   c_v+25
 BYTE   W03
 BYTE   PAN   c_v+26
 BYTE   W01
 BYTE   PAN   c_v+27
 BYTE   W03
 BYTE   PAN   c_v+28
 BYTE   W01
 BYTE   PAN   c_v+30
 BYTE   W01
 BYTE   PAN   c_v+31
 BYTE   W04
 BYTE   PAN   c_v+32
 BYTE   W04
 BYTE   PAN   c_v+27
 BYTE   W01
 BYTE   PAN   c_v+22
 BYTE   W01
 BYTE   PAN   c_v+15
 BYTE   W01
 BYTE   PAN   c_v+10
 BYTE   W01
 BYTE   PAN   c_v+3
 BYTE   W01
 BYTE   PAN   c_v-4
 BYTE   W01
 BYTE   PAN   c_v-6
 BYTE   W01
 BYTE   PAN   c_v-11
 BYTE   W01
 BYTE   PAN   c_v-15
 BYTE   W01
 BYTE   PAN   c_v-17
 BYTE   W01
 BYTE   PAN   c_v-19
 BYTE   W01
 BYTE   PAN   c_v-20
 BYTE   W01
 BYTE   PAN   c_v-22
 BYTE   W02
 BYTE   PAN   c_v-23
 BYTE   W01
 BYTE   PAN   c_v-24
 BYTE   W02
 BYTE   PAN   c_v-25
 BYTE   W02
 BYTE   PAN   c_v-26
 BYTE   W01
 BYTE   PAN   c_v-24
 BYTE   W01
 BYTE   PAN   c_v-19
 BYTE   W01
 BYTE   PAN   c_v-13
 BYTE   W01
 BYTE   PAN   c_v-5
 BYTE   W01
 BYTE   PAN   c_v+1
 BYTE   W01
 BYTE   PAN   c_v+8
 BYTE   W01
 BYTE   PAN   c_v+13
 BYTE   W01
 BYTE   PAN   c_v+15
 BYTE   W01
 BYTE   PAN   c_v+19
 BYTE   W01
 BYTE   PAN   c_v+22
 BYTE   W01
 BYTE   PAN   c_v+24
 BYTE   W01
 BYTE   PAN   c_v+27
 BYTE   W01
 BYTE   PAN   c_v+29
 BYTE   W02
 BYTE   PAN   c_v+31
 BYTE   W01
 BYTE   PAN   c_v+34
 BYTE   W02
 BYTE   PAN   c_v+35
 BYTE   W09
 BYTE   PAN   c_v+27
 BYTE   W01
 BYTE   PAN   c_v+20
 BYTE   W01
 BYTE   PAN   c_v+15
 BYTE   W01
 BYTE   PAN   c_v+8
 BYTE   W01
 BYTE   PAN   c_v-1
 BYTE   W01
 BYTE   PAN   c_v-7
 BYTE   W01
 BYTE   PAN   c_v-12
 BYTE   W01
 BYTE   PAN   c_v-19
 BYTE   W01
 BYTE   PAN   c_v-21
 BYTE   W01
 BYTE   PAN   c_v-23
 BYTE   W01
 BYTE   PAN   c_v-28
 BYTE   W01
 BYTE   PAN   c_v-31
 BYTE   W01
 BYTE   PAN   c_v-36
 BYTE   W01
 BYTE   PAN   c_v-40
 BYTE   W01
//  #08 //025   ----------------------------------------
 BYTE   EOT
 BYTE   PAN   c_v-46
 BYTE   N96  Cn3  v041
 BYTE   W01
 BYTE   PAN   c_v-47
 BYTE   W01
 BYTE   PAN   c_v-48
 BYTE   W02
 BYTE   PAN   c_v-50
 BYTE   W05
 BYTE   PAN   c_v-48
 BYTE   W01
 BYTE   PAN   c_v-46
 BYTE   W01
 BYTE   PAN   c_v-41
 BYTE   W01
 BYTE   PAN   c_v-36
 BYTE   W01
 BYTE   PAN   c_v-29
 BYTE   W01
 BYTE   PAN   c_v-21
 BYTE   W01
 BYTE   PAN   c_v-15
 BYTE   W01
 BYTE   PAN   c_v-10
 BYTE   W01
 BYTE   PAN   c_v-4
 BYTE   W01
 BYTE   PAN   c_v-1
 BYTE   W01
 BYTE   PAN   c_v+1
 BYTE   W01
 BYTE   PAN   c_v+2
 BYTE   W01
 BYTE   PAN   c_v+3
 BYTE   W01
 BYTE   PAN   c_v+5
 BYTE   W01
 BYTE   PAN   c_v+7
 BYTE   W01
 BYTE   PAN   c_v+9
 BYTE   W01
 BYTE   PAN   c_v+12
 BYTE   W01
 BYTE   PAN   c_v+13
 BYTE   W01
 BYTE   PAN   c_v+14
 BYTE   W01
 BYTE   PAN   c_v+16
 BYTE   W01
 BYTE   PAN   c_v+19
 BYTE   W02
 BYTE   PAN   c_v+21
 BYTE   W01
 BYTE   PAN   c_v+22
 BYTE   W01
 BYTE   PAN   c_v+23
 BYTE   W01
 BYTE   PAN   c_v+25
 BYTE   W02
 BYTE   PAN   c_v+27
 BYTE   W01
 BYTE   PAN   c_v+28
 BYTE   W01
 BYTE   PAN   c_v+30
 BYTE   W01
 BYTE   PAN   c_v+31
 BYTE   W01
 BYTE   PAN   c_v+34
 BYTE   W01
 BYTE   PAN   c_v+35
 BYTE   W11
 BYTE   PAN   c_v+32
 BYTE   W01
 BYTE   PAN   c_v+29
 BYTE   W01
 BYTE   PAN   c_v+26
 BYTE   W01
 BYTE   PAN   c_v+23
 BYTE   W01
 BYTE   PAN   c_v+20
 BYTE   W01
 BYTE   PAN   c_v+19
 BYTE   W01
 BYTE   PAN   c_v+15
 BYTE   W02
 BYTE   PAN   c_v+13
 BYTE   W01
 BYTE   PAN   c_v+12
 BYTE   W01
 BYTE   PAN   c_v+10
 BYTE   W01
 BYTE   PAN   c_v+8
 BYTE   W01
 BYTE   PAN   c_v+6
 BYTE   W01
 BYTE   PAN   c_v+3
 BYTE   W01
 BYTE   PAN   c_v+1
 BYTE   W01
 BYTE   PAN   c_v-2
 BYTE   W28
 BYTE   W01
//  #08 //026   ----------------------------------------
 BYTE   GoTo
  POIN2 Label_0144EB4E
 BYTE   FINE

//**************** Track 9 (Midi-Chn.8) ****************//

FE11IntotheDarkness_009:
//  #09 //000   ----------------------------------------
 BYTE   KEYSH   FE11IntotheDarkness_key+0
Label_01AAC3A6:
 BYTE   VOICE   79
 BYTE   MODT 0
 BYTE   LFOS 44
 BYTE   VOL   0*FE11IntotheDarkness_mvl/mxv
 BYTE   PAN   c_v+23
 BYTE   N05  Cn1  v045
 BYTE   W06
 BYTE   Cs1
 BYTE   W06
 BYTE   Dn1
 BYTE   W06
 BYTE   Ds1
 BYTE   W06
 BYTE   En1
 BYTE   W06
 BYTE   Fn1
 BYTE   W06
 BYTE   Fs1
 BYTE   W06
 BYTE   Ds1
 BYTE   W06
 BYTE   Cs1
 BYTE   W06
 BYTE   Fn1  v022
 BYTE   W06
 BYTE   As1  v045
 BYTE   W06
 BYTE   Bn1
 BYTE   W06
 BYTE   Cn2
 BYTE   W06
 BYTE   Cs2
 BYTE   W06
 BYTE   Dn2
 BYTE   W06
 BYTE   Cn2
 BYTE   W06
//  #09 //001   ----------------------------------------
Label_01AAC3D4:
 BYTE   N05  Cn1  v045
 BYTE   W06
 BYTE   Cs1
 BYTE   W06
 BYTE   Dn1
 BYTE   W06
 BYTE   Ds1
 BYTE   W06
 BYTE   En1
 BYTE   W06
 BYTE   Fn1
 BYTE   W06
 BYTE   Fs1
 BYTE   W06
 BYTE   Ds1
 BYTE   W06
 BYTE   Cs1
 BYTE   W06
 BYTE   Fn1  v022
 BYTE   W06
 BYTE   As1  v045
 BYTE   W06
 BYTE   Bn1
 BYTE   W06
 BYTE   Cn2
 BYTE   W06
 BYTE   Cs2
 BYTE   W06
 BYTE   Dn2
 BYTE   W06
 BYTE   Ds2  v026
 BYTE   W06
 BYTE   PEND 
//  #09 //002   ----------------------------------------
Label_01AAC3FA:
 BYTE   N05  Cn1  v045
 BYTE   W06
 BYTE   Cs1
 BYTE   W06
 BYTE   Dn1
 BYTE   W06
 BYTE   Ds1
 BYTE   W06
 BYTE   En1
 BYTE   W06
 BYTE   Fn1
 BYTE   W06
 BYTE   Fs1
 BYTE   W06
 BYTE   Ds1
 BYTE   W06
 BYTE   Cs1
 BYTE   W06
 BYTE   Fn1  v022
 BYTE   W06
 BYTE   As1  v045
 BYTE   W06
 BYTE   Bn1
 BYTE   W06
 BYTE   Cn2
 BYTE   W06
 BYTE   Cs2
 BYTE   W06
 BYTE   Dn2
 BYTE   W06
 BYTE   Cn2
 BYTE   W06
 BYTE   PEND 
//  #09 //003   ----------------------------------------
 BYTE   PATT
  POIN2 Label_01AAC3D4
//  #09 //004   ----------------------------------------
 BYTE   PATT
  POIN2 Label_01AAC3FA
//  #09 //005   ----------------------------------------
 BYTE   PATT
  POIN2 Label_01AAC3D4
//  #09 //006   ----------------------------------------
 BYTE   PATT
  POIN2 Label_01AAC3FA
//  #09 //007   ----------------------------------------
 BYTE   PATT
  POIN2 Label_01AAC3D4
//  #09 //008   ----------------------------------------
 BYTE   PATT
  POIN2 Label_01AAC3FA
//  #09 //009   ----------------------------------------
 BYTE   PATT
  POIN2 Label_01AAC3D4
//  #09 //010   ----------------------------------------
 BYTE   PATT
  POIN2 Label_01AAC3FA
//  #09 //011   ----------------------------------------
 BYTE   PATT
  POIN2 Label_01AAC3D4
//  #09 //012   ----------------------------------------
 BYTE   PATT
  POIN2 Label_01AAC3FA
//  #09 //013   ----------------------------------------
 BYTE   PATT
  POIN2 Label_01AAC3D4
//  #09 //014   ----------------------------------------
 BYTE   N05  Cn1  v030
 BYTE   W06
 BYTE   Cs1  v022
 BYTE   W06
 BYTE   Dn1
 BYTE   W06
 BYTE   Ds1
 BYTE   W06
 BYTE   Dn1
 BYTE   W06
 BYTE   Fn1
 BYTE   W06
 BYTE   Fs1
 BYTE   W06
 BYTE   Ds1
 BYTE   W06
 BYTE   Cs1
 BYTE   W06
 BYTE   Ds1
 BYTE   W06
 BYTE   As1
 BYTE   W06
 BYTE   Bn1
 BYTE   W06
 BYTE   As1
 BYTE   W06
 BYTE   Cs2
 BYTE   W06
 BYTE   Dn2
 BYTE   W06
 BYTE   Fn1
 BYTE   W06
//  #09 //015   ----------------------------------------
 BYTE   Cn1
 BYTE   W06
 BYTE   Bn1
 BYTE   W06
 BYTE   As1
 BYTE   W06
 BYTE   Ds1
 BYTE   W06
 BYTE   Fn1
 BYTE   W06
 BYTE   Ds1
 BYTE   W06
 BYTE   Fs1
 BYTE   W06
 BYTE   Fn1
 BYTE   W06
 BYTE   As1
 BYTE   W06
 BYTE   Ds1
 BYTE   W06
 BYTE   Dn1
 BYTE   W06
 BYTE   Bn1
 BYTE   W06
 BYTE   Fn1
 BYTE   W06
 BYTE   Cs1
 BYTE   W06
 BYTE   Ds1
 BYTE   W06
 BYTE   Fs1
 BYTE   W06
//  #09 //016   ----------------------------------------
 BYTE   Cn1
 BYTE   W06
 BYTE   Cs1
 BYTE   W06
 BYTE   Dn1
 BYTE   W06
 BYTE   Ds1
 BYTE   W06
 BYTE   Dn1
 BYTE   W06
 BYTE   Fn1
 BYTE   W06
 BYTE   Fs1
 BYTE   W06
 BYTE   Ds1
 BYTE   W06
 BYTE   Cs1
 BYTE   W06
 BYTE   Ds1
 BYTE   W06
 BYTE   As1
 BYTE   W06
 BYTE   Bn1
 BYTE   W06
 BYTE   As1
 BYTE   W06
 BYTE   Cs2
 BYTE   W06
 BYTE   Dn2
 BYTE   W06
 BYTE   Fn1
 BYTE   W06
//  #09 //017   ----------------------------------------
 BYTE   Cn1
 BYTE   W06
 BYTE   Bn1
 BYTE   W06
 BYTE   As1
 BYTE   W06
 BYTE   Ds1
 BYTE   W06
 BYTE   Fn1
 BYTE   W06
 BYTE   Ds1
 BYTE   W06
 BYTE   Fs1
 BYTE   W06
 BYTE   Fn1  v030
 BYTE   W06
 BYTE   En1
 BYTE   W06
 BYTE   Ds1
 BYTE   W06
 BYTE   Dn1
 BYTE   W06
 BYTE   Cs1
 BYTE   W06
 BYTE   En1
 BYTE   W06
 BYTE   Cs1
 BYTE   W06
 BYTE   Cn2  v000
 BYTE   W06
 BYTE   En1  v038
 BYTE   W06
//  #09 //018   ----------------------------------------
 BYTE   Cn1  v030
 BYTE   W06
 BYTE   Cs1
 BYTE   W06
 BYTE   Dn1
 BYTE   W06
 BYTE   Ds1
 BYTE   W06
 BYTE   Dn1
 BYTE   W06
 BYTE   Fn1
 BYTE   W06
 BYTE   Fs1
 BYTE   W06
 BYTE   Ds1
 BYTE   W06
 BYTE   Cs1
 BYTE   W06
 BYTE   Fn1  v006
 BYTE   W06
 BYTE   As1  v030
 BYTE   W06
 BYTE   Bn1
 BYTE   W06
 BYTE   As1
 BYTE   W06
 BYTE   Cs2
 BYTE   W06
 BYTE   Dn2
 BYTE   W06
 BYTE   Fn1
 BYTE   W06
//  #09 //019   ----------------------------------------
 BYTE   Cn1
 BYTE   W06
 BYTE   Cs1
 BYTE   W06
 BYTE   Dn1
 BYTE   W06
 BYTE   Ds1
 BYTE   W06
 BYTE   Dn1
 BYTE   W06
 BYTE   Fn1
 BYTE   W06
 BYTE   Fs1
 BYTE   W06
 BYTE   Ds1
 BYTE   W06
 BYTE   Cs1
 BYTE   W06
 BYTE   Fn1  v006
 BYTE   W06
 BYTE   As1  v030
 BYTE   W06
 BYTE   Bn1
 BYTE   W06
 BYTE   En1
 BYTE   W06
 BYTE   Cs2
 BYTE   W06
 BYTE   Dn2
 BYTE   W06
 BYTE   Cn2
 BYTE   W06
//  #09 //020   ----------------------------------------
 BYTE   PATT
  POIN2 Label_01AAC3FA
//  #09 //021   ----------------------------------------
 BYTE   PATT
  POIN2 Label_01AAC3D4
//  #09 //022   ----------------------------------------
 BYTE   PATT
  POIN2 Label_01AAC3FA
//  #09 //023   ----------------------------------------
 BYTE   PATT
  POIN2 Label_01AAC3D4
//  #09 //024   ----------------------------------------
 BYTE   PATT
  POIN2 Label_01AAC3FA
//  #09 //025   ----------------------------------------
 BYTE   N05  Cn1  v045
 BYTE   W06
 BYTE   En1
 BYTE   W06
 BYTE   Dn1
 BYTE   W06
 BYTE   Ds1
 BYTE   W06
 BYTE   En1
 BYTE   W06
 BYTE   Fn1
 BYTE   W06
 BYTE   Fs1
 BYTE   W06
 BYTE   Cn2
 BYTE   W06
 BYTE   Cs1
 BYTE   W06
 BYTE   Fn1  v022
 BYTE   W06
 BYTE   As1  v045
 BYTE   W06
 BYTE   Bn1
 BYTE   W06
 BYTE   Gn1
 BYTE   W06
 BYTE   Cs2
 BYTE   W06
 BYTE   Dn2
 BYTE   W06
 BYTE   Fn1  v026
 BYTE   W06
//  #09 //026   ----------------------------------------
 BYTE   GoTo
  POIN2 Label_01AAC3A6
 BYTE   FINE

//**************** Track 10 (Midi-Chn.9) ****************//

FE11IntotheDarkness_010:
//  #10 //000   ----------------------------------------
 BYTE   KEYSH   FE11IntotheDarkness_key+0
Label_0144FEAE:
 BYTE   VOICE   4
 BYTE   MODT 0
 BYTE   LFOS 44
 BYTE   VOL   4*FE11IntotheDarkness_mvl/mxv
 BYTE   PAN   c_v-64
 BYTE   VOL   0*FE11IntotheDarkness_mvl/mxv
 BYTE   W01
 BYTE   VOL   0*FE11IntotheDarkness_mvl/mxv
 BYTE   W02
 BYTE   VOL   0*FE11IntotheDarkness_mvl/mxv
 BYTE   W01
 BYTE   VOL   0*FE11IntotheDarkness_mvl/mxv
 BYTE   W02
 BYTE   VOL   0*FE11IntotheDarkness_mvl/mxv
 BYTE   N32  An2  v100
 BYTE   W01
 BYTE   VOL   0*FE11IntotheDarkness_mvl/mxv
 BYTE   W02
 BYTE   VOL   0*FE11IntotheDarkness_mvl/mxv
 BYTE   W01
 BYTE   VOL   0*FE11IntotheDarkness_mvl/mxv
 BYTE   W02
 BYTE   VOL   0*FE11IntotheDarkness_mvl/mxv
 BYTE   W01
 BYTE   VOL   0*FE11IntotheDarkness_mvl/mxv
 BYTE   W02
 BYTE   VOL   0*FE11IntotheDarkness_mvl/mxv
 BYTE   W01
 BYTE   VOL   0*FE11IntotheDarkness_mvl/mxv
 BYTE   W02
 BYTE   VOL   0*FE11IntotheDarkness_mvl/mxv
 BYTE   W01
 BYTE   VOL   0*FE11IntotheDarkness_mvl/mxv
 BYTE   W02
 BYTE   VOL   0*FE11IntotheDarkness_mvl/mxv
 BYTE   W01
 BYTE   VOL   0*FE11IntotheDarkness_mvl/mxv
 BYTE   W02
 BYTE   VOL   0*FE11IntotheDarkness_mvl/mxv
 BYTE   W01
 BYTE   VOL   0*FE11IntotheDarkness_mvl/mxv
 BYTE   W02
 BYTE   VOL   0*FE11IntotheDarkness_mvl/mxv
 BYTE   W01
 BYTE   VOL   0*FE11IntotheDarkness_mvl/mxv
 BYTE   W02
 BYTE   VOL   0*FE11IntotheDarkness_mvl/mxv
 BYTE   W01
 BYTE   VOL   2*FE11IntotheDarkness_mvl/mxv
 BYTE   W02
 BYTE   VOL   2*FE11IntotheDarkness_mvl/mxv
 BYTE   W01
 BYTE   VOL   2*FE11IntotheDarkness_mvl/mxv
 BYTE   W02
 BYTE   VOL   3*FE11IntotheDarkness_mvl/mxv
 BYTE   W01
 BYTE   VOL   3*FE11IntotheDarkness_mvl/mxv
 BYTE   W02
 BYTE   VOL   4*FE11IntotheDarkness_mvl/mxv
 BYTE   W03
 BYTE   N05  An2  v024
 BYTE   W06
 BYTE   An2  v080
 BYTE   W06
 BYTE   TIE  Bn2  v100
 BYTE   W42
//  #10 //001   ----------------------------------------
 BYTE   VOL   4*FE11IntotheDarkness_mvl/mxv
 BYTE   W06
 BYTE   VOL   4*FE11IntotheDarkness_mvl/mxv
 BYTE   W03
 BYTE   VOL   4*FE11IntotheDarkness_mvl/mxv
 BYTE   W06
 BYTE   VOL   3*FE11IntotheDarkness_mvl/mxv
 BYTE   W03
 BYTE   VOL   3*FE11IntotheDarkness_mvl/mxv
 BYTE   W06
 BYTE   VOL   3*FE11IntotheDarkness_mvl/mxv
 BYTE   W03
 BYTE   VOL   3*FE11IntotheDarkness_mvl/mxv
 BYTE   W03
 BYTE   VOL   2*FE11IntotheDarkness_mvl/mxv
 BYTE   W03
 BYTE   VOL   2*FE11IntotheDarkness_mvl/mxv
 BYTE   W03
 BYTE   VOL   2*FE11IntotheDarkness_mvl/mxv
 BYTE   W03
 BYTE   VOL   2*FE11IntotheDarkness_mvl/mxv
 BYTE   W03
 BYTE   VOL   2*FE11IntotheDarkness_mvl/mxv
 BYTE   W03
 BYTE   VOL   1*FE11IntotheDarkness_mvl/mxv
 BYTE   W03
 BYTE   VOL   1*FE11IntotheDarkness_mvl/mxv
 BYTE   W03
 BYTE   VOL   0*FE11IntotheDarkness_mvl/mxv
 BYTE   W03
 BYTE   VOL   0*FE11IntotheDarkness_mvl/mxv
 BYTE   W03
 BYTE   VOL   0*FE11IntotheDarkness_mvl/mxv
 BYTE   W03
 BYTE   VOL   0*FE11IntotheDarkness_mvl/mxv
 BYTE   W03
 BYTE   VOL   0*FE11IntotheDarkness_mvl/mxv
 BYTE   W03
 BYTE   VOL   0*FE11IntotheDarkness_mvl/mxv
 BYTE   W03
 BYTE   VOL   0*FE11IntotheDarkness_mvl/mxv
 BYTE   W03
 BYTE   VOL   0*FE11IntotheDarkness_mvl/mxv
 BYTE   W03
 BYTE   VOL   0*FE11IntotheDarkness_mvl/mxv
 BYTE   W03
 BYTE   VOL   0*FE11IntotheDarkness_mvl/mxv
 BYTE   W03
 BYTE   VOL   0*FE11IntotheDarkness_mvl/mxv
 BYTE   W03
 BYTE   VOL   0*FE11IntotheDarkness_mvl/mxv
 BYTE   W03
 BYTE   VOL   0*FE11IntotheDarkness_mvl/mxv
 BYTE   W03
 BYTE   VOL   0*FE11IntotheDarkness_mvl/mxv
 BYTE   W02
 BYTE   EOT
 BYTE   W01
 BYTE   VOL   0*FE11IntotheDarkness_mvl/mxv
 BYTE   N05  Bn2  v024
 BYTE   W03
//  #10 //002   ----------------------------------------
 BYTE   VOL   0*FE11IntotheDarkness_mvl/mxv
 BYTE   W03
 BYTE   VOL   0*FE11IntotheDarkness_mvl/mxv
 BYTE   W01
 BYTE   VOL   4*FE11IntotheDarkness_mvl/mxv
 BYTE   W02
 BYTE   N32  An2  v084
 BYTE   W36
 BYTE   N05  An2  v024
 BYTE   W06
 BYTE   Bn2  v072
 BYTE   W06
 BYTE   N56  Cn3  v092
 BYTE   W28
 BYTE   VOL   4*FE11IntotheDarkness_mvl/mxv
 BYTE   W03
 BYTE   VOL   4*FE11IntotheDarkness_mvl/mxv
 BYTE   W03
 BYTE   VOL   3*FE11IntotheDarkness_mvl/mxv
 BYTE   W03
 BYTE   VOL   3*FE11IntotheDarkness_mvl/mxv
 BYTE   W03
 BYTE   VOL   2*FE11IntotheDarkness_mvl/mxv
 BYTE   W02
//  #10 //003   ----------------------------------------
 BYTE   W01
 BYTE   VOL   2*FE11IntotheDarkness_mvl/mxv
 BYTE   W03
 BYTE   VOL   2*FE11IntotheDarkness_mvl/mxv
 BYTE   W03
 BYTE   VOL   1*FE11IntotheDarkness_mvl/mxv
 BYTE   W03
 BYTE   VOL   0*FE11IntotheDarkness_mvl/mxv
 BYTE   W03
 BYTE   VOL   0*FE11IntotheDarkness_mvl/mxv
 BYTE   W03
 BYTE   VOL   0*FE11IntotheDarkness_mvl/mxv
 BYTE   W02
 BYTE   N05  Cn3  v024
 BYTE   W01
 BYTE   VOL   0*FE11IntotheDarkness_mvl/mxv
 BYTE   W03
 BYTE   VOL   0*FE11IntotheDarkness_mvl/mxv
 BYTE   W08
 BYTE   N23  Gn3  v096
 BYTE   W03
 BYTE   VOL   0*FE11IntotheDarkness_mvl/mxv
 BYTE   W07
 BYTE   VOL   0*FE11IntotheDarkness_mvl/mxv
 BYTE   W07
 BYTE   VOL   0*FE11IntotheDarkness_mvl/mxv
 BYTE   W03
 BYTE   VOL   0*FE11IntotheDarkness_mvl/mxv
 BYTE   W04
 BYTE   N23  Fs3  v104
 BYTE   W03
 BYTE   VOL   0*FE11IntotheDarkness_mvl/mxv
 BYTE   W04
 BYTE   VOL   0*FE11IntotheDarkness_mvl/mxv
 BYTE   W03
 BYTE   VOL   0*FE11IntotheDarkness_mvl/mxv
 BYTE   W04
 BYTE   VOL   1*FE11IntotheDarkness_mvl/mxv
 BYTE   W03
 BYTE   VOL   1*FE11IntotheDarkness_mvl/mxv
 BYTE   W04
 BYTE   VOL   2*FE11IntotheDarkness_mvl/mxv
 BYTE   W03
 BYTE   VOL   2*FE11IntotheDarkness_mvl/mxv
 BYTE   N23  Dn3  v096
 BYTE   W04
 BYTE   VOL   2*FE11IntotheDarkness_mvl/mxv
 BYTE   W03
 BYTE   VOL   2*FE11IntotheDarkness_mvl/mxv
 BYTE   W04
 BYTE   VOL   3*FE11IntotheDarkness_mvl/mxv
 BYTE   W03
 BYTE   VOL   3*FE11IntotheDarkness_mvl/mxv
 BYTE   W04
//  #10 //004   ----------------------------------------
 BYTE   VOL   4*FE11IntotheDarkness_mvl/mxv
 BYTE   W06
 BYTE   TIE  En3  v092
 BYTE   W07
 BYTE   VOL   4*FE11IntotheDarkness_mvl/mxv
 BYTE   W03
 BYTE   VOL   4*FE11IntotheDarkness_mvl/mxv
 BYTE   W03
 BYTE   VOL   3*FE11IntotheDarkness_mvl/mxv
 BYTE   W03
 BYTE   VOL   3*FE11IntotheDarkness_mvl/mxv
 BYTE   W03
 BYTE   VOL   2*FE11IntotheDarkness_mvl/mxv
 BYTE   W03
 BYTE   VOL   2*FE11IntotheDarkness_mvl/mxv
 BYTE   W03
 BYTE   VOL   2*FE11IntotheDarkness_mvl/mxv
 BYTE   W02
 BYTE   VOL   1*FE11IntotheDarkness_mvl/mxv
 BYTE   W13
 BYTE   VOL   2*FE11IntotheDarkness_mvl/mxv
 BYTE   W14
 BYTE   VOL   2*FE11IntotheDarkness_mvl/mxv
 BYTE   W13
 BYTE   VOL   2*FE11IntotheDarkness_mvl/mxv
 BYTE   W07
 BYTE   VOL   2*FE11IntotheDarkness_mvl/mxv
 BYTE   W07
 BYTE   VOL   2*FE11IntotheDarkness_mvl/mxv
 BYTE   W07
 BYTE   VOL   3*FE11IntotheDarkness_mvl/mxv
 BYTE   W02
//  #10 //005   ----------------------------------------
 BYTE   W05
 BYTE   VOL   3*FE11IntotheDarkness_mvl/mxv
 BYTE   W06
 BYTE   VOL   4*FE11IntotheDarkness_mvl/mxv
 BYTE   W07
 BYTE   VOL   4*FE11IntotheDarkness_mvl/mxv
 BYTE   W03
 BYTE   VOL   4*FE11IntotheDarkness_mvl/mxv
 BYTE   W03
 BYTE   VOL   4*FE11IntotheDarkness_mvl/mxv
 BYTE   W03
 BYTE   VOL   3*FE11IntotheDarkness_mvl/mxv
 BYTE   W03
 BYTE   VOL   3*FE11IntotheDarkness_mvl/mxv
 BYTE   W03
 BYTE   VOL   3*FE11IntotheDarkness_mvl/mxv
 BYTE   W03
 BYTE   VOL   2*FE11IntotheDarkness_mvl/mxv
 BYTE   W03
 BYTE   VOL   2*FE11IntotheDarkness_mvl/mxv
 BYTE   W03
 BYTE   VOL   2*FE11IntotheDarkness_mvl/mxv
 BYTE   W03
 BYTE   VOL   1*FE11IntotheDarkness_mvl/mxv
 BYTE   W03
 BYTE   VOL   1*FE11IntotheDarkness_mvl/mxv
 BYTE   W03
 BYTE   VOL   0*FE11IntotheDarkness_mvl/mxv
 BYTE   W03
 BYTE   VOL   0*FE11IntotheDarkness_mvl/mxv
 BYTE   W03
 BYTE   VOL   0*FE11IntotheDarkness_mvl/mxv
 BYTE   W03
 BYTE   VOL   0*FE11IntotheDarkness_mvl/mxv
 BYTE   W03
 BYTE   VOL   0*FE11IntotheDarkness_mvl/mxv
 BYTE   W03
 BYTE   VOL   0*FE11IntotheDarkness_mvl/mxv
 BYTE   W03
 BYTE   VOL   0*FE11IntotheDarkness_mvl/mxv
 BYTE   W03
 BYTE   VOL   0*FE11IntotheDarkness_mvl/mxv
 BYTE   W03
 BYTE   VOL   0*FE11IntotheDarkness_mvl/mxv
 BYTE   W03
 BYTE   VOL   0*FE11IntotheDarkness_mvl/mxv
 BYTE   W03
 BYTE   VOL   0*FE11IntotheDarkness_mvl/mxv
 BYTE   W06
 BYTE   EOT
 BYTE   W09
//  #10 //006   ----------------------------------------
 BYTE   W03
 BYTE   VOL   0*FE11IntotheDarkness_mvl/mxv
 BYTE   W01
 BYTE   VOL   4*FE11IntotheDarkness_mvl/mxv
 BYTE   W02
 BYTE   N32  An2  v088
 BYTE   W36
 BYTE   N05  An2  v024
 BYTE   W06
 BYTE   An2  v084
 BYTE   W06
 BYTE   TIE  Bn2  v076
 BYTE   W24
 BYTE   VOL   4*FE11IntotheDarkness_mvl/mxv
 BYTE   W06
 BYTE   VOL   4*FE11IntotheDarkness_mvl/mxv
 BYTE   W06
 BYTE   VOL   4*FE11IntotheDarkness_mvl/mxv
 BYTE   W06
//  #10 //007   ----------------------------------------
 BYTE   VOL   3*FE11IntotheDarkness_mvl/mxv
 BYTE   W03
 BYTE   VOL   3*FE11IntotheDarkness_mvl/mxv
 BYTE   W06
 BYTE   VOL   3*FE11IntotheDarkness_mvl/mxv
 BYTE   W03
 BYTE   VOL   3*FE11IntotheDarkness_mvl/mxv
 BYTE   W06
 BYTE   VOL   2*FE11IntotheDarkness_mvl/mxv
 BYTE   W03
 BYTE   VOL   2*FE11IntotheDarkness_mvl/mxv
 BYTE   W03
 BYTE   VOL   2*FE11IntotheDarkness_mvl/mxv
 BYTE   W06
 BYTE   VOL   2*FE11IntotheDarkness_mvl/mxv
 BYTE   W03
 BYTE   VOL   2*FE11IntotheDarkness_mvl/mxv
 BYTE   W03
 BYTE   VOL   1*FE11IntotheDarkness_mvl/mxv
 BYTE   W03
 BYTE   VOL   1*FE11IntotheDarkness_mvl/mxv
 BYTE   W03
 BYTE   VOL   0*FE11IntotheDarkness_mvl/mxv
 BYTE   W03
 BYTE   VOL   0*FE11IntotheDarkness_mvl/mxv
 BYTE   W03
 BYTE   VOL   0*FE11IntotheDarkness_mvl/mxv
 BYTE   W03
 BYTE   VOL   0*FE11IntotheDarkness_mvl/mxv
 BYTE   W03
 BYTE   VOL   0*FE11IntotheDarkness_mvl/mxv
 BYTE   W03
 BYTE   VOL   0*FE11IntotheDarkness_mvl/mxv
 BYTE   W03
 BYTE   VOL   0*FE11IntotheDarkness_mvl/mxv
 BYTE   W03
 BYTE   VOL   0*FE11IntotheDarkness_mvl/mxv
 BYTE   W03
 BYTE   VOL   0*FE11IntotheDarkness_mvl/mxv
 BYTE   W03
 BYTE   VOL   0*FE11IntotheDarkness_mvl/mxv
 BYTE   W03
 BYTE   VOL   0*FE11IntotheDarkness_mvl/mxv
 BYTE   W03
 BYTE   VOL   0*FE11IntotheDarkness_mvl/mxv
 BYTE   W03
 BYTE   VOL   0*FE11IntotheDarkness_mvl/mxv
 BYTE   W03
 BYTE   VOL   0*FE11IntotheDarkness_mvl/mxv
 BYTE   W03
 BYTE   VOL   0*FE11IntotheDarkness_mvl/mxv
 BYTE   W03
 BYTE   VOL   0*FE11IntotheDarkness_mvl/mxv
 BYTE   W03
 BYTE   VOL   0*FE11IntotheDarkness_mvl/mxv
 BYTE   W02
 BYTE   EOT
 BYTE   W01
 BYTE   VOL   0*FE11IntotheDarkness_mvl/mxv
 BYTE   N05  Bn2  v024
 BYTE   W03
//  #10 //008   ----------------------------------------
 BYTE   VOL   0*FE11IntotheDarkness_mvl/mxv
 BYTE   W03
 BYTE   VOL   0*FE11IntotheDarkness_mvl/mxv
 BYTE   W03
 BYTE   VOL   4*FE11IntotheDarkness_mvl/mxv
 BYTE   N32  An2  v108
 BYTE   W32
 BYTE   W01
 BYTE   N05  An2  v024
 BYTE   W09
 BYTE   Bn2  v088
 BYTE   W06
 BYTE   N60  Cn3  v068
 BYTE   W42
//  #10 //009   ----------------------------------------
 BYTE   W09
 BYTE   VOL   4*FE11IntotheDarkness_mvl/mxv
 BYTE   W01
 BYTE   VOL   4*FE11IntotheDarkness_mvl/mxv
 BYTE   W02
 BYTE   VOL   3*FE11IntotheDarkness_mvl/mxv
 BYTE   W01
 BYTE   VOL   3*FE11IntotheDarkness_mvl/mxv
 BYTE   W02
 BYTE   VOL   2*FE11IntotheDarkness_mvl/mxv
 BYTE   W01
 BYTE   VOL   2*FE11IntotheDarkness_mvl/mxv
 BYTE   W02
 BYTE   VOL   2*FE11IntotheDarkness_mvl/mxv
 BYTE   W01
 BYTE   VOL   1*FE11IntotheDarkness_mvl/mxv
 BYTE   W02
 BYTE   VOL   0*FE11IntotheDarkness_mvl/mxv
 BYTE   N05  Cn3  v024
 BYTE   W01
 BYTE   VOL   0*FE11IntotheDarkness_mvl/mxv
 BYTE   W08
 BYTE   N23  Bn2  v084
 BYTE   W05
 BYTE   VOL   0*FE11IntotheDarkness_mvl/mxv
 BYTE   W09
 BYTE   VOL   0*FE11IntotheDarkness_mvl/mxv
 BYTE   W04
 BYTE   VOL   0*FE11IntotheDarkness_mvl/mxv
 BYTE   W06
 BYTE   N23  Cn3
 BYTE   W03
 BYTE   VOL   1*FE11IntotheDarkness_mvl/mxv
 BYTE   W05
 BYTE   VOL   1*FE11IntotheDarkness_mvl/mxv
 BYTE   W04
 BYTE   VOL   2*FE11IntotheDarkness_mvl/mxv
 BYTE   W04
 BYTE   VOL   2*FE11IntotheDarkness_mvl/mxv
 BYTE   W05
 BYTE   VOL   2*FE11IntotheDarkness_mvl/mxv
 BYTE   W03
 BYTE   N23  Dn3  v088
 BYTE   W01
 BYTE   VOL   2*FE11IntotheDarkness_mvl/mxv
 BYTE   W05
 BYTE   VOL   3*FE11IntotheDarkness_mvl/mxv
 BYTE   W04
 BYTE   VOL   3*FE11IntotheDarkness_mvl/mxv
 BYTE   W04
 BYTE   VOL   3*FE11IntotheDarkness_mvl/mxv
 BYTE   W04
//  #10 //010   ----------------------------------------
 BYTE   W01
 BYTE   VOL   4*FE11IntotheDarkness_mvl/mxv
 BYTE   W03
 BYTE   VOL   4*FE11IntotheDarkness_mvl/mxv
 BYTE   W02
 BYTE   N40  Dn3  v092
 BYTE   W01
 BYTE   VOL   4*FE11IntotheDarkness_mvl/mxv
 BYTE   W03
 BYTE   VOL   3*FE11IntotheDarkness_mvl/mxv
 BYTE   W03
 BYTE   VOL   3*FE11IntotheDarkness_mvl/mxv
 BYTE   W03
 BYTE   VOL   3*FE11IntotheDarkness_mvl/mxv
 BYTE   W03
 BYTE   VOL   2*FE11IntotheDarkness_mvl/mxv
 BYTE   W03
 BYTE   VOL   2*FE11IntotheDarkness_mvl/mxv
 BYTE   W03
 BYTE   VOL   2*FE11IntotheDarkness_mvl/mxv
 BYTE   W03
 BYTE   VOL   2*FE11IntotheDarkness_mvl/mxv
 BYTE   W03
 BYTE   VOL   1*FE11IntotheDarkness_mvl/mxv
 BYTE   W03
 BYTE   VOL   1*FE11IntotheDarkness_mvl/mxv
 BYTE   W03
 BYTE   VOL   0*FE11IntotheDarkness_mvl/mxv
 BYTE   W03
 BYTE   VOL   0*FE11IntotheDarkness_mvl/mxv
 BYTE   W03
 BYTE   VOL   0*FE11IntotheDarkness_mvl/mxv
 BYTE   W03
 BYTE   VOL   0*FE11IntotheDarkness_mvl/mxv
 BYTE   W02
 BYTE   N05  Dn3  v024
 BYTE   W01
 BYTE   VOL   0*FE11IntotheDarkness_mvl/mxv
 BYTE   W03
 BYTE   VOL   0*FE11IntotheDarkness_mvl/mxv
 BYTE   W02
 BYTE   TIE  Cn3  v092
 BYTE   W01
 BYTE   VOL   0*FE11IntotheDarkness_mvl/mxv
 BYTE   W03
 BYTE   VOL   0*FE11IntotheDarkness_mvl/mxv
 BYTE   W03
 BYTE   VOL   0*FE11IntotheDarkness_mvl/mxv
 BYTE   W03
 BYTE   VOL   0*FE11IntotheDarkness_mvl/mxv
 BYTE   W03
 BYTE   VOL   0*FE11IntotheDarkness_mvl/mxv
 BYTE   W03
 BYTE   VOL   0*FE11IntotheDarkness_mvl/mxv
 BYTE   W03
 BYTE   VOL   1*FE11IntotheDarkness_mvl/mxv
 BYTE   W03
 BYTE   VOL   2*FE11IntotheDarkness_mvl/mxv
 BYTE   W03
 BYTE   VOL   3*FE11IntotheDarkness_mvl/mxv
 BYTE   W03
 BYTE   VOL   3*FE11IntotheDarkness_mvl/mxv
 BYTE   W02
 BYTE   VOL   4*FE11IntotheDarkness_mvl/mxv
 BYTE   W12
//  #10 //011   ----------------------------------------
 BYTE   W12
 BYTE   VOL   4*FE11IntotheDarkness_mvl/mxv
 BYTE   W03
 BYTE   VOL   4*FE11IntotheDarkness_mvl/mxv
 BYTE   W03
 BYTE   VOL   3*FE11IntotheDarkness_mvl/mxv
 BYTE   W03
 BYTE   VOL   3*FE11IntotheDarkness_mvl/mxv
 BYTE   W03
 BYTE   VOL   3*FE11IntotheDarkness_mvl/mxv
 BYTE   W03
 BYTE   VOL   2*FE11IntotheDarkness_mvl/mxv
 BYTE   W03
 BYTE   VOL   2*FE11IntotheDarkness_mvl/mxv
 BYTE   W03
 BYTE   VOL   2*FE11IntotheDarkness_mvl/mxv
 BYTE   W03
 BYTE   VOL   1*FE11IntotheDarkness_mvl/mxv
 BYTE   W03
 BYTE   VOL   0*FE11IntotheDarkness_mvl/mxv
 BYTE   W03
 BYTE   VOL   0*FE11IntotheDarkness_mvl/mxv
 BYTE   W03
 BYTE   VOL   0*FE11IntotheDarkness_mvl/mxv
 BYTE   W03
 BYTE   VOL   0*FE11IntotheDarkness_mvl/mxv
 BYTE   W03
 BYTE   VOL   0*FE11IntotheDarkness_mvl/mxv
 BYTE   W03
 BYTE   VOL   0*FE11IntotheDarkness_mvl/mxv
 BYTE   W03
 BYTE   VOL   0*FE11IntotheDarkness_mvl/mxv
 BYTE   W03
 BYTE   VOL   0*FE11IntotheDarkness_mvl/mxv
 BYTE   W03
 BYTE   VOL   0*FE11IntotheDarkness_mvl/mxv
 BYTE   W03
 BYTE   VOL   0*FE11IntotheDarkness_mvl/mxv
 BYTE   W03
 BYTE   VOL   0*FE11IntotheDarkness_mvl/mxv
 BYTE   W03
 BYTE   VOL   0*FE11IntotheDarkness_mvl/mxv
 BYTE   W03
 BYTE   VOL   0*FE11IntotheDarkness_mvl/mxv
 BYTE   W03
 BYTE   VOL   0*FE11IntotheDarkness_mvl/mxv
 BYTE   W03
 BYTE   VOL   0*FE11IntotheDarkness_mvl/mxv
 BYTE   W03
 BYTE   VOL   0*FE11IntotheDarkness_mvl/mxv
 BYTE   W03
 BYTE   VOL   0*FE11IntotheDarkness_mvl/mxv
 BYTE   W03
 BYTE   VOL   0*FE11IntotheDarkness_mvl/mxv
 BYTE   W03
 BYTE   VOL   0*FE11IntotheDarkness_mvl/mxv
 BYTE   W03
//  #10 //012   ----------------------------------------
 BYTE   VOL   0*FE11IntotheDarkness_mvl/mxv
 BYTE   W03
 BYTE   VOL   0*FE11IntotheDarkness_mvl/mxv
 BYTE   W02
 BYTE   EOT
 BYTE   W01
 BYTE   VOL   0*FE11IntotheDarkness_mvl/mxv
 BYTE   W90
//  #10 //013   ----------------------------------------
 BYTE   W11
 BYTE   VOL   0*FE11IntotheDarkness_mvl/mxv
 BYTE   W01
 BYTE   VOL   0*FE11IntotheDarkness_mvl/mxv
 BYTE   W01
 BYTE   VOL   0*FE11IntotheDarkness_mvl/mxv
 BYTE   W01
 BYTE   VOL   0*FE11IntotheDarkness_mvl/mxv
 BYTE   W01
 BYTE   VOL   0*FE11IntotheDarkness_mvl/mxv
 BYTE   W01
 BYTE   VOL   0*FE11IntotheDarkness_mvl/mxv
 BYTE   W01
 BYTE   VOL   4*FE11IntotheDarkness_mvl/mxv
 BYTE   W78
 BYTE   W01
//  #10 //014   ----------------------------------------
 BYTE   W96
//  #10 //015   ----------------------------------------
 BYTE   W96
//  #10 //016   ----------------------------------------
 BYTE   W06
 BYTE   N28  Gn3  v072
 BYTE   W12
 BYTE   VOL   4*FE11IntotheDarkness_mvl/mxv
 BYTE   W18
 BYTE   N05  Gn3  v020
 BYTE   W12
 BYTE   As2  v108
 BYTE   W06
 BYTE   N28  Fn3  v076
 BYTE   W30
 BYTE   N05  Ds3  v060
 BYTE   W06
 BYTE   Dn3  v056
 BYTE   W06
//  #10 //017   ----------------------------------------
 BYTE   Fn3  v064
 BYTE   W06
 BYTE   N23  Ds3  v068
 BYTE   W24
 BYTE   N44  Bn2
 BYTE   W48
 BYTE   N23  Ds3  v072
 BYTE   W18
//  #10 //018   ----------------------------------------
 BYTE   W06
 BYTE   TIE  En3  v064
 BYTE   W60
 BYTE   VOL   4*FE11IntotheDarkness_mvl/mxv
 BYTE   W03
 BYTE   VOL   4*FE11IntotheDarkness_mvl/mxv
 BYTE   W01
 BYTE   VOL   4*FE11IntotheDarkness_mvl/mxv
 BYTE   W02
 BYTE   VOL   3*FE11IntotheDarkness_mvl/mxv
 BYTE   W01
 BYTE   VOL   3*FE11IntotheDarkness_mvl/mxv
 BYTE   W02
 BYTE   VOL   3*FE11IntotheDarkness_mvl/mxv
 BYTE   W01
 BYTE   VOL   3*FE11IntotheDarkness_mvl/mxv
 BYTE   W03
 BYTE   VOL   2*FE11IntotheDarkness_mvl/mxv
 BYTE   W02
 BYTE   VOL   2*FE11IntotheDarkness_mvl/mxv
 BYTE   W01
 BYTE   VOL   2*FE11IntotheDarkness_mvl/mxv
 BYTE   W02
 BYTE   VOL   2*FE11IntotheDarkness_mvl/mxv
 BYTE   W01
 BYTE   VOL   2*FE11IntotheDarkness_mvl/mxv
 BYTE   W02
 BYTE   VOL   1*FE11IntotheDarkness_mvl/mxv
 BYTE   W01
 BYTE   VOL   0*FE11IntotheDarkness_mvl/mxv
 BYTE   W02
 BYTE   VOL   0*FE11IntotheDarkness_mvl/mxv
 BYTE   W01
 BYTE   VOL   0*FE11IntotheDarkness_mvl/mxv
 BYTE   W02
 BYTE   VOL   0*FE11IntotheDarkness_mvl/mxv
 BYTE   W01
 BYTE   VOL   0*FE11IntotheDarkness_mvl/mxv
 BYTE   W02
//  #10 //019   ----------------------------------------
 BYTE   VOL   0*FE11IntotheDarkness_mvl/mxv
 BYTE   W01
 BYTE   VOL   0*FE11IntotheDarkness_mvl/mxv
 BYTE   W02
 BYTE   VOL   0*FE11IntotheDarkness_mvl/mxv
 BYTE   W01
 BYTE   VOL   0*FE11IntotheDarkness_mvl/mxv
 BYTE   W02
 BYTE   VOL   0*FE11IntotheDarkness_mvl/mxv
 BYTE   W01
 BYTE   VOL   0*FE11IntotheDarkness_mvl/mxv
 BYTE   W02
 BYTE   VOL   0*FE11IntotheDarkness_mvl/mxv
 BYTE   W01
 BYTE   VOL   0*FE11IntotheDarkness_mvl/mxv
 BYTE   W02
 BYTE   VOL   0*FE11IntotheDarkness_mvl/mxv
 BYTE   W01
 BYTE   VOL   0*FE11IntotheDarkness_mvl/mxv
 BYTE   W02
 BYTE   VOL   0*FE11IntotheDarkness_mvl/mxv
 BYTE   W01
 BYTE   VOL   0*FE11IntotheDarkness_mvl/mxv
 BYTE   W02
 BYTE   VOL   0*FE11IntotheDarkness_mvl/mxv
 BYTE   W01
 BYTE   VOL   0*FE11IntotheDarkness_mvl/mxv
 BYTE   W02
 BYTE   VOL   0*FE11IntotheDarkness_mvl/mxv
 BYTE   W01
 BYTE   VOL   0*FE11IntotheDarkness_mvl/mxv
 BYTE   W02
 BYTE   VOL   0*FE11IntotheDarkness_mvl/mxv
 BYTE   W01
 BYTE   VOL   0*FE11IntotheDarkness_mvl/mxv
 BYTE   W02
 BYTE   VOL   0*FE11IntotheDarkness_mvl/mxv
 BYTE   W01
 BYTE   VOL   0*FE11IntotheDarkness_mvl/mxv
 BYTE   W02
 BYTE   VOL   0*FE11IntotheDarkness_mvl/mxv
 BYTE   W01
 BYTE   VOL   0*FE11IntotheDarkness_mvl/mxv
 BYTE   W02
 BYTE   VOL   0*FE11IntotheDarkness_mvl/mxv
 BYTE   W01
 BYTE   VOL   0*FE11IntotheDarkness_mvl/mxv
 BYTE   W02
 BYTE   VOL   0*FE11IntotheDarkness_mvl/mxv
 BYTE   W01
 BYTE   VOL   0*FE11IntotheDarkness_mvl/mxv
 BYTE   W02
 BYTE   VOL   0*FE11IntotheDarkness_mvl/mxv
 BYTE   W01
 BYTE   VOL   0*FE11IntotheDarkness_mvl/mxv
 BYTE   W01
 BYTE   EOT
 BYTE   W01
 BYTE   VOL   0*FE11IntotheDarkness_mvl/mxv
 BYTE   W01
 BYTE   VOL   0*FE11IntotheDarkness_mvl/mxv
 BYTE   W02
 BYTE   VOL   0*FE11IntotheDarkness_mvl/mxv
 BYTE   W01
 BYTE   VOL   0*FE11IntotheDarkness_mvl/mxv
 BYTE   W02
 BYTE   VOL   0*FE11IntotheDarkness_mvl/mxv
 BYTE   W01
 BYTE   VOL   0*FE11IntotheDarkness_mvl/mxv
 BYTE   W02
 BYTE   VOL   0*FE11IntotheDarkness_mvl/mxv
 BYTE   W44
 BYTE   W01
//  #10 //020   ----------------------------------------
 BYTE   W96
//  #10 //021   ----------------------------------------
 BYTE   W05
 BYTE   VOL   0*FE11IntotheDarkness_mvl/mxv
 BYTE   W01
 BYTE   VOL   0*FE11IntotheDarkness_mvl/mxv
 BYTE   W01
 BYTE   VOL   0*FE11IntotheDarkness_mvl/mxv
 BYTE   W01
 BYTE   VOL   4*FE11IntotheDarkness_mvl/mxv
 BYTE   W88
//  #10 //022   ----------------------------------------
 BYTE   W96
//  #10 //023   ----------------------------------------
 BYTE   W96
//  #10 //024   ----------------------------------------
 BYTE   W96
//  #10 //025   ----------------------------------------
 BYTE   W96
//  #10 //026   ----------------------------------------
 BYTE   GoTo
  POIN2 Label_0144FEAE
 BYTE   FINE

//**************** Track 11 (Midi-Chn.10) ****************//

FE11IntotheDarkness_011:
//  #11 //000   ----------------------------------------
 BYTE   KEYSH   FE11IntotheDarkness_key+0
Label_0145032A:
 BYTE   VOICE   48
 BYTE   MODT 0
 BYTE   LFOS 44
 BYTE   VOL   18*FE11IntotheDarkness_mvl/mxv
 BYTE   PAN   c_v-64
 BYTE   VOL   18*FE11IntotheDarkness_mvl/mxv
 BYTE   PAN   c_v-64
 BYTE   VOL   18*FE11IntotheDarkness_mvl/mxv
 BYTE   W90
 BYTE   N05  En2  v068
 BYTE   W06
//  #11 //001   ----------------------------------------
 BYTE   An2  v056
 BYTE   W06
 BYTE   N90  Bn2  v076
 BYTE   W90
//  #11 //002   ----------------------------------------
 BYTE   W76
 BYTE   VOL   18*FE11IntotheDarkness_mvl/mxv
 BYTE   W02
 BYTE   VOL   17*FE11IntotheDarkness_mvl/mxv
 BYTE   W01
 BYTE   VOL   16*FE11IntotheDarkness_mvl/mxv
 BYTE   W02
 BYTE   VOL   15*FE11IntotheDarkness_mvl/mxv
 BYTE   W01
 BYTE   VOL   14*FE11IntotheDarkness_mvl/mxv
 BYTE   W02
 BYTE   VOL   13*FE11IntotheDarkness_mvl/mxv
 BYTE   W01
 BYTE   VOL   13*FE11IntotheDarkness_mvl/mxv
 BYTE   W02
 BYTE   VOL   12*FE11IntotheDarkness_mvl/mxv
 BYTE   W01
 BYTE   VOL   12*FE11IntotheDarkness_mvl/mxv
 BYTE   W02
 BYTE   VOL   11*FE11IntotheDarkness_mvl/mxv
 BYTE   N05  An2
 BYTE   W01
 BYTE   VOL   10*FE11IntotheDarkness_mvl/mxv
 BYTE   W02
 BYTE   VOL   9*FE11IntotheDarkness_mvl/mxv
 BYTE   W01
 BYTE   VOL   8*FE11IntotheDarkness_mvl/mxv
 BYTE   W02
//  #11 //003   ----------------------------------------
 BYTE   VOL   7*FE11IntotheDarkness_mvl/mxv
 BYTE   N05  Bn2
 BYTE   W01
 BYTE   VOL   7*FE11IntotheDarkness_mvl/mxv
 BYTE   W02
 BYTE   VOL   6*FE11IntotheDarkness_mvl/mxv
 BYTE   W01
 BYTE   VOL   5*FE11IntotheDarkness_mvl/mxv
 BYTE   W02
 BYTE   N23  Cn3  v080
 BYTE   W07
 BYTE   VOL   5*FE11IntotheDarkness_mvl/mxv
 BYTE   W03
 BYTE   VOL   6*FE11IntotheDarkness_mvl/mxv
 BYTE   W06
 BYTE   VOL   7*FE11IntotheDarkness_mvl/mxv
 BYTE   W06
 BYTE   VOL   7*FE11IntotheDarkness_mvl/mxv
 BYTE   W02
 BYTE   N23  Gn3
 BYTE   W01
 BYTE   VOL   7*FE11IntotheDarkness_mvl/mxv
 BYTE   W06
 BYTE   VOL   7*FE11IntotheDarkness_mvl/mxv
 BYTE   W03
 BYTE   VOL   8*FE11IntotheDarkness_mvl/mxv
 BYTE   W03
 BYTE   VOL   8*FE11IntotheDarkness_mvl/mxv
 BYTE   W06
 BYTE   VOL   8*FE11IntotheDarkness_mvl/mxv
 BYTE   W03
 BYTE   VOL   9*FE11IntotheDarkness_mvl/mxv
 BYTE   W02
 BYTE   N23  Fs3  v096
 BYTE   W01
 BYTE   VOL   9*FE11IntotheDarkness_mvl/mxv
 BYTE   W03
 BYTE   VOL   10*FE11IntotheDarkness_mvl/mxv
 BYTE   W03
 BYTE   VOL   10*FE11IntotheDarkness_mvl/mxv
 BYTE   W03
 BYTE   VOL   12*FE11IntotheDarkness_mvl/mxv
 BYTE   W03
 BYTE   VOL   12*FE11IntotheDarkness_mvl/mxv
 BYTE   W03
 BYTE   VOL   12*FE11IntotheDarkness_mvl/mxv
 BYTE   W03
 BYTE   VOL   13*FE11IntotheDarkness_mvl/mxv
 BYTE   W03
 BYTE   VOL   13*FE11IntotheDarkness_mvl/mxv
 BYTE   W02
 BYTE   N23  Dn3  v100
 BYTE   W01
 BYTE   VOL   14*FE11IntotheDarkness_mvl/mxv
 BYTE   W03
 BYTE   VOL   14*FE11IntotheDarkness_mvl/mxv
 BYTE   W03
 BYTE   VOL   15*FE11IntotheDarkness_mvl/mxv
 BYTE   W03
 BYTE   VOL   16*FE11IntotheDarkness_mvl/mxv
 BYTE   W03
 BYTE   VOL   18*FE11IntotheDarkness_mvl/mxv
 BYTE   W05
//  #11 //004   ----------------------------------------
 BYTE   W76
 BYTE   VOL   18*FE11IntotheDarkness_mvl/mxv
 BYTE   W06
 BYTE   VOL   17*FE11IntotheDarkness_mvl/mxv
 BYTE   W03
 BYTE   VOL   16*FE11IntotheDarkness_mvl/mxv
 BYTE   W03
 BYTE   VOL   15*FE11IntotheDarkness_mvl/mxv
 BYTE   W03
 BYTE   VOL   15*FE11IntotheDarkness_mvl/mxv
 BYTE   W03
 BYTE   VOL   15*FE11IntotheDarkness_mvl/mxv
 BYTE   W02
//  #11 //005   ----------------------------------------
 BYTE   W01
 BYTE   VOL   14*FE11IntotheDarkness_mvl/mxv
 BYTE   W03
 BYTE   VOL   13*FE11IntotheDarkness_mvl/mxv
 BYTE   W03
 BYTE   VOL   13*FE11IntotheDarkness_mvl/mxv
 BYTE   W03
 BYTE   VOL   12*FE11IntotheDarkness_mvl/mxv
 BYTE   W03
 BYTE   VOL   12*FE11IntotheDarkness_mvl/mxv
 BYTE   W03
 BYTE   VOL   12*FE11IntotheDarkness_mvl/mxv
 BYTE   W03
 BYTE   VOL   11*FE11IntotheDarkness_mvl/mxv
 BYTE   W03
 BYTE   VOL   10*FE11IntotheDarkness_mvl/mxv
 BYTE   W03
 BYTE   VOL   9*FE11IntotheDarkness_mvl/mxv
 BYTE   W03
 BYTE   VOL   8*FE11IntotheDarkness_mvl/mxv
 BYTE   W03
 BYTE   VOL   7*FE11IntotheDarkness_mvl/mxv
 BYTE   W03
 BYTE   VOL   7*FE11IntotheDarkness_mvl/mxv
 BYTE   W03
 BYTE   VOL   5*FE11IntotheDarkness_mvl/mxv
 BYTE   W03
 BYTE   VOL   5*FE11IntotheDarkness_mvl/mxv
 BYTE   W03
 BYTE   VOL   4*FE11IntotheDarkness_mvl/mxv
 BYTE   W02
 BYTE   VOL   3*FE11IntotheDarkness_mvl/mxv
 BYTE   W48
 BYTE   W03
//  #11 //006   ----------------------------------------
 BYTE   W03
 BYTE   VOL   6*FE11IntotheDarkness_mvl/mxv
 BYTE   W01
 BYTE   VOL   9*FE11IntotheDarkness_mvl/mxv
 BYTE   W01
 BYTE   VOL   13*FE11IntotheDarkness_mvl/mxv
 BYTE   W01
 BYTE   VOL   18*FE11IntotheDarkness_mvl/mxv
 BYTE   W84
 BYTE   N05  En2  v080
 BYTE   W06
//  #11 //007   ----------------------------------------
 BYTE   An2  v072
 BYTE   W06
 BYTE   N90  Bn2  v080
 BYTE   W90
//  #11 //008   ----------------------------------------
 BYTE   W54
 BYTE   W01
 BYTE   VOL   18*FE11IntotheDarkness_mvl/mxv
 BYTE   W03
 BYTE   VOL   16*FE11IntotheDarkness_mvl/mxv
 BYTE   W03
 BYTE   VOL   15*FE11IntotheDarkness_mvl/mxv
 BYTE   W03
 BYTE   VOL   14*FE11IntotheDarkness_mvl/mxv
 BYTE   W03
 BYTE   VOL   13*FE11IntotheDarkness_mvl/mxv
 BYTE   W03
 BYTE   VOL   12*FE11IntotheDarkness_mvl/mxv
 BYTE   W03
 BYTE   VOL   10*FE11IntotheDarkness_mvl/mxv
 BYTE   W03
 BYTE   VOL   9*FE11IntotheDarkness_mvl/mxv
 BYTE   W03
 BYTE   VOL   8*FE11IntotheDarkness_mvl/mxv
 BYTE   W03
 BYTE   VOL   7*FE11IntotheDarkness_mvl/mxv
 BYTE   W03
 BYTE   VOL   6*FE11IntotheDarkness_mvl/mxv
 BYTE   W03
 BYTE   VOL   5*FE11IntotheDarkness_mvl/mxv
 BYTE   W02
 BYTE   N05  Cn3  v084
 BYTE   W01
 BYTE   VOL   4*FE11IntotheDarkness_mvl/mxv
 BYTE   W05
//  #11 //009   ----------------------------------------
 BYTE   N05  Dn3  v064
 BYTE   W04
 BYTE   VOL   4*FE11IntotheDarkness_mvl/mxv
 BYTE   W02
 BYTE   N44  En3  v084
 BYTE   W04
 BYTE   VOL   5*FE11IntotheDarkness_mvl/mxv
 BYTE   W06
 BYTE   VOL   5*FE11IntotheDarkness_mvl/mxv
 BYTE   W03
 BYTE   VOL   5*FE11IntotheDarkness_mvl/mxv
 BYTE   W06
 BYTE   VOL   5*FE11IntotheDarkness_mvl/mxv
 BYTE   W03
 BYTE   VOL   6*FE11IntotheDarkness_mvl/mxv
 BYTE   W06
 BYTE   VOL   7*FE11IntotheDarkness_mvl/mxv
 BYTE   W03
 BYTE   VOL   7*FE11IntotheDarkness_mvl/mxv
 BYTE   W03
 BYTE   VOL   7*FE11IntotheDarkness_mvl/mxv
 BYTE   W03
 BYTE   VOL   7*FE11IntotheDarkness_mvl/mxv
 BYTE   W03
 BYTE   VOL   8*FE11IntotheDarkness_mvl/mxv
 BYTE   W03
 BYTE   VOL   8*FE11IntotheDarkness_mvl/mxv
 BYTE   W03
 BYTE   VOL   8*FE11IntotheDarkness_mvl/mxv
 BYTE   W03
 BYTE   VOL   9*FE11IntotheDarkness_mvl/mxv
 BYTE   W03
 BYTE   VOL   10*FE11IntotheDarkness_mvl/mxv
 BYTE   W03
 BYTE   VOL   10*FE11IntotheDarkness_mvl/mxv
 BYTE   W03
 BYTE   VOL   12*FE11IntotheDarkness_mvl/mxv
 BYTE   W03
 BYTE   VOL   12*FE11IntotheDarkness_mvl/mxv
 BYTE   W03
 BYTE   VOL   13*FE11IntotheDarkness_mvl/mxv
 BYTE   W03
 BYTE   VOL   13*FE11IntotheDarkness_mvl/mxv
 BYTE   W03
 BYTE   VOL   15*FE11IntotheDarkness_mvl/mxv
 BYTE   W03
 BYTE   VOL   15*FE11IntotheDarkness_mvl/mxv
 BYTE   W03
 BYTE   VOL   18*FE11IntotheDarkness_mvl/mxv
 BYTE   W14
//  #11 //010   ----------------------------------------
 BYTE   W84
 BYTE   W03
 BYTE   VOL   18*FE11IntotheDarkness_mvl/mxv
 BYTE   W08
 BYTE   VOL   17*FE11IntotheDarkness_mvl/mxv
 BYTE   W01
//  #11 //011   ----------------------------------------
 BYTE   W08
 BYTE   VOL   16*FE11IntotheDarkness_mvl/mxv
 BYTE   W04
 BYTE   VOL   16*FE11IntotheDarkness_mvl/mxv
 BYTE   W09
 BYTE   VOL   15*FE11IntotheDarkness_mvl/mxv
 BYTE   W04
 BYTE   VOL   15*FE11IntotheDarkness_mvl/mxv
 BYTE   W05
 BYTE   VOL   15*FE11IntotheDarkness_mvl/mxv
 BYTE   W08
 BYTE   VOL   14*FE11IntotheDarkness_mvl/mxv
 BYTE   W05
 BYTE   VOL   14*FE11IntotheDarkness_mvl/mxv
 BYTE   W04
 BYTE   VOL   13*FE11IntotheDarkness_mvl/mxv
 BYTE   W04
 BYTE   VOL   13*FE11IntotheDarkness_mvl/mxv
 BYTE   W05
 BYTE   VOL   13*FE11IntotheDarkness_mvl/mxv
 BYTE   W04
 BYTE   VOL   12*FE11IntotheDarkness_mvl/mxv
 BYTE   W04
 BYTE   VOL   12*FE11IntotheDarkness_mvl/mxv
 BYTE   W05
 BYTE   VOL   12*FE11IntotheDarkness_mvl/mxv
 BYTE   W04
 BYTE   VOL   11*FE11IntotheDarkness_mvl/mxv
 BYTE   W05
 BYTE   VOL   10*FE11IntotheDarkness_mvl/mxv
 BYTE   W04
 BYTE   VOL   9*FE11IntotheDarkness_mvl/mxv
 BYTE   W04
 BYTE   VOL   8*FE11IntotheDarkness_mvl/mxv
 BYTE   W05
 BYTE   VOL   8*FE11IntotheDarkness_mvl/mxv
 BYTE   W05
//  #11 //012   ----------------------------------------
 BYTE   W96
//  #11 //013   ----------------------------------------
 BYTE   VOICE   49
 BYTE   VOL   5*FE11IntotheDarkness_mvl/mxv
 BYTE   PAN   c_v+63
 BYTE   VOL   14*FE11IntotheDarkness_mvl/mxv
 BYTE   W90
 BYTE   N03  Fn3  v056
 BYTE   W04
 BYTE   Gn3  v064
 BYTE   W02
//  #11 //014   ----------------------------------------
 BYTE   W02
 BYTE   An3  v060
 BYTE   W04
 BYTE   N44  Bn3  v056
 BYTE   W08
 BYTE   VOL   14*FE11IntotheDarkness_mvl/mxv
 BYTE   W03
 BYTE   VOL   13*FE11IntotheDarkness_mvl/mxv
 BYTE   W03
 BYTE   VOL   13*FE11IntotheDarkness_mvl/mxv
 BYTE   W01
 BYTE   VOL   13*FE11IntotheDarkness_mvl/mxv
 BYTE   W02
 BYTE   VOL   12*FE11IntotheDarkness_mvl/mxv
 BYTE   W03
 BYTE   VOL   12*FE11IntotheDarkness_mvl/mxv
 BYTE   W01
 BYTE   VOL   12*FE11IntotheDarkness_mvl/mxv
 BYTE   W02
 BYTE   VOL   12*FE11IntotheDarkness_mvl/mxv
 BYTE   W01
 BYTE   VOL   11*FE11IntotheDarkness_mvl/mxv
 BYTE   W02
 BYTE   VOL   11*FE11IntotheDarkness_mvl/mxv
 BYTE   W01
 BYTE   VOL   9*FE11IntotheDarkness_mvl/mxv
 BYTE   W02
 BYTE   VOL   9*FE11IntotheDarkness_mvl/mxv
 BYTE   W01
 BYTE   VOL   8*FE11IntotheDarkness_mvl/mxv
 BYTE   W02
 BYTE   VOL   8*FE11IntotheDarkness_mvl/mxv
 BYTE   W01
 BYTE   VOL   8*FE11IntotheDarkness_mvl/mxv
 BYTE   W02
 BYTE   VOL   7*FE11IntotheDarkness_mvl/mxv
 BYTE   W01
 BYTE   VOL   6*FE11IntotheDarkness_mvl/mxv
 BYTE   W02
 BYTE   VOL   5*FE11IntotheDarkness_mvl/mxv
 BYTE   W01
 BYTE   VOL   5*FE11IntotheDarkness_mvl/mxv
 BYTE   W02
 BYTE   VOL   4*FE11IntotheDarkness_mvl/mxv
 BYTE   W01
 BYTE   VOL   3*FE11IntotheDarkness_mvl/mxv
 BYTE   W02
 BYTE   VOL   2*FE11IntotheDarkness_mvl/mxv
 BYTE   W01
 BYTE   VOL   1*FE11IntotheDarkness_mvl/mxv
 BYTE   W01
 BYTE   VOL   0*FE11IntotheDarkness_mvl/mxv
 BYTE   W02
 BYTE   N23  An3  v060
 BYTE   W24
 BYTE   N32  Fs3  v056
 BYTE   W08
 BYTE   VOL   0*FE11IntotheDarkness_mvl/mxv
 BYTE   W02
 BYTE   VOL   0*FE11IntotheDarkness_mvl/mxv
 BYTE   W01
 BYTE   VOL   0*FE11IntotheDarkness_mvl/mxv
 BYTE   W02
 BYTE   VOL   1*FE11IntotheDarkness_mvl/mxv
 BYTE   W01
 BYTE   VOL   1*FE11IntotheDarkness_mvl/mxv
 BYTE   W02
 BYTE   VOL   2*FE11IntotheDarkness_mvl/mxv
 BYTE   W01
 BYTE   VOL   2*FE11IntotheDarkness_mvl/mxv
 BYTE   W01
//  #11 //015   ----------------------------------------
 BYTE   W01
 BYTE   VOL   2*FE11IntotheDarkness_mvl/mxv
 BYTE   W01
 BYTE   VOL   3*FE11IntotheDarkness_mvl/mxv
 BYTE   W02
 BYTE   VOL   4*FE11IntotheDarkness_mvl/mxv
 BYTE   W01
 BYTE   VOL   4*FE11IntotheDarkness_mvl/mxv
 BYTE   W02
 BYTE   VOL   4*FE11IntotheDarkness_mvl/mxv
 BYTE   W01
 BYTE   VOL   5*FE11IntotheDarkness_mvl/mxv
 BYTE   W02
 BYTE   VOL   6*FE11IntotheDarkness_mvl/mxv
 BYTE   W01
 BYTE   VOL   7*FE11IntotheDarkness_mvl/mxv
 BYTE   W02
 BYTE   VOL   8*FE11IntotheDarkness_mvl/mxv
 BYTE   W01
 BYTE   VOL   8*FE11IntotheDarkness_mvl/mxv
 BYTE   W02
 BYTE   VOL   10*FE11IntotheDarkness_mvl/mxv
 BYTE   W01
 BYTE   VOL   12*FE11IntotheDarkness_mvl/mxv
 BYTE   W01
 BYTE   N05  En3
 BYTE   W01
 BYTE   VOL   13*FE11IntotheDarkness_mvl/mxv
 BYTE   W01
 BYTE   VOL   14*FE11IntotheDarkness_mvl/mxv
 BYTE   W04
 BYTE   N05  Fs3
 BYTE   W06
 BYTE   TIE  Gn3
 BYTE   W10
 BYTE   VOL   14*FE11IntotheDarkness_mvl/mxv
 BYTE   W02
 BYTE   VOL   13*FE11IntotheDarkness_mvl/mxv
 BYTE   W01
 BYTE   VOL   13*FE11IntotheDarkness_mvl/mxv
 BYTE   W02
 BYTE   VOL   12*FE11IntotheDarkness_mvl/mxv
 BYTE   W01
 BYTE   VOL   12*FE11IntotheDarkness_mvl/mxv
 BYTE   W02
 BYTE   VOL   12*FE11IntotheDarkness_mvl/mxv
 BYTE   W01
 BYTE   VOL   11*FE11IntotheDarkness_mvl/mxv
 BYTE   W02
 BYTE   VOL   9*FE11IntotheDarkness_mvl/mxv
 BYTE   W01
 BYTE   VOL   8*FE11IntotheDarkness_mvl/mxv
 BYTE   W02
 BYTE   VOL   8*FE11IntotheDarkness_mvl/mxv
 BYTE   W01
 BYTE   VOL   7*FE11IntotheDarkness_mvl/mxv
 BYTE   W02
 BYTE   VOL   6*FE11IntotheDarkness_mvl/mxv
 BYTE   W01
 BYTE   VOL   5*FE11IntotheDarkness_mvl/mxv
 BYTE   W02
 BYTE   VOL   4*FE11IntotheDarkness_mvl/mxv
 BYTE   W01
 BYTE   VOL   3*FE11IntotheDarkness_mvl/mxv
 BYTE   W02
 BYTE   VOL   2*FE11IntotheDarkness_mvl/mxv
 BYTE   W01
 BYTE   VOL   0*FE11IntotheDarkness_mvl/mxv
 BYTE   W01
 BYTE   VOL   0*FE11IntotheDarkness_mvl/mxv
 BYTE   W06
 BYTE   VOL   0*FE11IntotheDarkness_mvl/mxv
 BYTE   W03
 BYTE   VOL   0*FE11IntotheDarkness_mvl/mxv
 BYTE   W03
 BYTE   VOL   0*FE11IntotheDarkness_mvl/mxv
 BYTE   W03
 BYTE   VOL   0*FE11IntotheDarkness_mvl/mxv
 BYTE   W03
 BYTE   VOL   1*FE11IntotheDarkness_mvl/mxv
 BYTE   W03
 BYTE   VOL   1*FE11IntotheDarkness_mvl/mxv
 BYTE   W03
 BYTE   VOL   2*FE11IntotheDarkness_mvl/mxv
 BYTE   W03
 BYTE   VOL   2*FE11IntotheDarkness_mvl/mxv
 BYTE   W03
 BYTE   VOL   2*FE11IntotheDarkness_mvl/mxv
 BYTE   W01
//  #11 //016   ----------------------------------------
 BYTE   W02
 BYTE   VOL   3*FE11IntotheDarkness_mvl/mxv
 BYTE   W03
 BYTE   VOL   3*FE11IntotheDarkness_mvl/mxv
 BYTE   W03
 BYTE   VOL   4*FE11IntotheDarkness_mvl/mxv
 BYTE   W03
 BYTE   VOL   4*FE11IntotheDarkness_mvl/mxv
 BYTE   W03
 BYTE   VOL   5*FE11IntotheDarkness_mvl/mxv
 BYTE   W03
 BYTE   VOL   5*FE11IntotheDarkness_mvl/mxv
 BYTE   W03
 BYTE   VOL   6*FE11IntotheDarkness_mvl/mxv
 BYTE   W03
 BYTE   VOL   7*FE11IntotheDarkness_mvl/mxv
 BYTE   W03
 BYTE   VOL   8*FE11IntotheDarkness_mvl/mxv
 BYTE   W03
 BYTE   VOL   9*FE11IntotheDarkness_mvl/mxv
 BYTE   W03
 BYTE   VOL   11*FE11IntotheDarkness_mvl/mxv
 BYTE   W03
 BYTE   VOL   12*FE11IntotheDarkness_mvl/mxv
 BYTE   W02
 BYTE   VOL   14*FE11IntotheDarkness_mvl/mxv
 BYTE   W16
 BYTE   EOT
 BYTE   W14
 BYTE   VOL   14*FE11IntotheDarkness_mvl/mxv
 BYTE   W03
 BYTE   VOL   13*FE11IntotheDarkness_mvl/mxv
 BYTE   W01
 BYTE   VOL   13*FE11IntotheDarkness_mvl/mxv
 BYTE   W02
 BYTE   VOL   13*FE11IntotheDarkness_mvl/mxv
 BYTE   W01
 BYTE   VOL   12*FE11IntotheDarkness_mvl/mxv
 BYTE   W02
 BYTE   VOL   12*FE11IntotheDarkness_mvl/mxv
 BYTE   W01
 BYTE   VOL   12*FE11IntotheDarkness_mvl/mxv
 BYTE   W02
 BYTE   VOL   12*FE11IntotheDarkness_mvl/mxv
 BYTE   W01
 BYTE   VOL   11*FE11IntotheDarkness_mvl/mxv
 BYTE   W02
 BYTE   VOL   10*FE11IntotheDarkness_mvl/mxv
 BYTE   W01
 BYTE   VOL   9*FE11IntotheDarkness_mvl/mxv
 BYTE   W02
 BYTE   VOL   9*FE11IntotheDarkness_mvl/mxv
 BYTE   W01
 BYTE   VOL   8*FE11IntotheDarkness_mvl/mxv
 BYTE   W02
 BYTE   VOL   8*FE11IntotheDarkness_mvl/mxv
 BYTE   W01
 BYTE   VOL   7*FE11IntotheDarkness_mvl/mxv
 BYTE   W02
 BYTE   VOL   6*FE11IntotheDarkness_mvl/mxv
 BYTE   W01
 BYTE   VOL   5*FE11IntotheDarkness_mvl/mxv
 BYTE   W02
 BYTE   VOL   5*FE11IntotheDarkness_mvl/mxv
 BYTE   W01
 BYTE   VOL   4*FE11IntotheDarkness_mvl/mxv
 BYTE   W01
//  #11 //017   ----------------------------------------
 BYTE   W01
 BYTE   VOL   4*FE11IntotheDarkness_mvl/mxv
 BYTE   W01
 BYTE   VOL   3*FE11IntotheDarkness_mvl/mxv
 BYTE   W02
 BYTE   VOL   2*FE11IntotheDarkness_mvl/mxv
 BYTE   W01
 BYTE   VOL   0*FE11IntotheDarkness_mvl/mxv
 BYTE   W01
 BYTE   VOL   0*FE11IntotheDarkness_mvl/mxv
 BYTE   W06
 BYTE   VOL   0*FE11IntotheDarkness_mvl/mxv
 BYTE   W03
 BYTE   VOL   0*FE11IntotheDarkness_mvl/mxv
 BYTE   W03
 BYTE   VOL   0*FE11IntotheDarkness_mvl/mxv
 BYTE   W03
 BYTE   VOL   0*FE11IntotheDarkness_mvl/mxv
 BYTE   W03
 BYTE   VOL   1*FE11IntotheDarkness_mvl/mxv
 BYTE   W03
 BYTE   VOL   2*FE11IntotheDarkness_mvl/mxv
 BYTE   W03
 BYTE   VOL   2*FE11IntotheDarkness_mvl/mxv
 BYTE   W03
 BYTE   VOL   2*FE11IntotheDarkness_mvl/mxv
 BYTE   W03
 BYTE   VOL   3*FE11IntotheDarkness_mvl/mxv
 BYTE   W03
 BYTE   VOL   3*FE11IntotheDarkness_mvl/mxv
 BYTE   W03
 BYTE   VOL   4*FE11IntotheDarkness_mvl/mxv
 BYTE   W03
 BYTE   VOL   4*FE11IntotheDarkness_mvl/mxv
 BYTE   W03
 BYTE   VOL   5*FE11IntotheDarkness_mvl/mxv
 BYTE   W03
 BYTE   VOL   5*FE11IntotheDarkness_mvl/mxv
 BYTE   W03
 BYTE   VOL   6*FE11IntotheDarkness_mvl/mxv
 BYTE   W03
 BYTE   VOL   7*FE11IntotheDarkness_mvl/mxv
 BYTE   W03
 BYTE   VOL   8*FE11IntotheDarkness_mvl/mxv
 BYTE   W03
 BYTE   VOL   9*FE11IntotheDarkness_mvl/mxv
 BYTE   W03
 BYTE   VOL   11*FE11IntotheDarkness_mvl/mxv
 BYTE   W03
 BYTE   VOL   12*FE11IntotheDarkness_mvl/mxv
 BYTE   W03
 BYTE   VOL   14*FE11IntotheDarkness_mvl/mxv
 BYTE   W18
 BYTE   N03  Gn3  v044
 BYTE   W04
 BYTE   Fs3  v048
 BYTE   W02
//  #11 //018   ----------------------------------------
 BYTE   W02
 BYTE   Fn3  v040
 BYTE   W04
 BYTE   N92  En3
 BYTE   W16
 BYTE   VOL   14*FE11IntotheDarkness_mvl/mxv
 BYTE   W03
 BYTE   VOL   13*FE11IntotheDarkness_mvl/mxv
 BYTE   W03
 BYTE   VOL   13*FE11IntotheDarkness_mvl/mxv
 BYTE   W03
 BYTE   VOL   13*FE11IntotheDarkness_mvl/mxv
 BYTE   W03
 BYTE   VOL   12*FE11IntotheDarkness_mvl/mxv
 BYTE   W03
 BYTE   VOL   12*FE11IntotheDarkness_mvl/mxv
 BYTE   W03
 BYTE   VOL   12*FE11IntotheDarkness_mvl/mxv
 BYTE   W03
 BYTE   VOL   11*FE11IntotheDarkness_mvl/mxv
 BYTE   W03
 BYTE   VOL   9*FE11IntotheDarkness_mvl/mxv
 BYTE   W03
 BYTE   VOL   9*FE11IntotheDarkness_mvl/mxv
 BYTE   W03
 BYTE   VOL   8*FE11IntotheDarkness_mvl/mxv
 BYTE   W03
 BYTE   VOL   8*FE11IntotheDarkness_mvl/mxv
 BYTE   W03
 BYTE   VOL   7*FE11IntotheDarkness_mvl/mxv
 BYTE   W03
 BYTE   VOL   6*FE11IntotheDarkness_mvl/mxv
 BYTE   W03
 BYTE   VOL   5*FE11IntotheDarkness_mvl/mxv
 BYTE   W03
 BYTE   VOL   5*FE11IntotheDarkness_mvl/mxv
 BYTE   W03
 BYTE   VOL   4*FE11IntotheDarkness_mvl/mxv
 BYTE   W03
 BYTE   VOL   4*FE11IntotheDarkness_mvl/mxv
 BYTE   W03
 BYTE   VOL   3*FE11IntotheDarkness_mvl/mxv
 BYTE   W03
 BYTE   VOL   2*FE11IntotheDarkness_mvl/mxv
 BYTE   W03
 BYTE   VOL   1*FE11IntotheDarkness_mvl/mxv
 BYTE   W03
 BYTE   VOL   0*FE11IntotheDarkness_mvl/mxv
 BYTE   W03
 BYTE   VOL   0*FE11IntotheDarkness_mvl/mxv
 BYTE   W03
 BYTE   VOL   0*FE11IntotheDarkness_mvl/mxv
 BYTE   W03
 BYTE   VOL   0*FE11IntotheDarkness_mvl/mxv
 BYTE   W02
//  #11 //019   ----------------------------------------
 BYTE   VOL   0*FE11IntotheDarkness_mvl/mxv
 BYTE   W06
 BYTE   VOL   0*FE11IntotheDarkness_mvl/mxv
 BYTE   N76  Bn2  v048
 BYTE   W03
 BYTE   VOL   0*FE11IntotheDarkness_mvl/mxv
 BYTE   W03
 BYTE   VOL   0*FE11IntotheDarkness_mvl/mxv
 BYTE   W03
 BYTE   VOL   0*FE11IntotheDarkness_mvl/mxv
 BYTE   W03
 BYTE   VOL   0*FE11IntotheDarkness_mvl/mxv
 BYTE   W03
 BYTE   VOL   0*FE11IntotheDarkness_mvl/mxv
 BYTE   W03
 BYTE   VOL   0*FE11IntotheDarkness_mvl/mxv
 BYTE   W03
 BYTE   VOL   0*FE11IntotheDarkness_mvl/mxv
 BYTE   W03
 BYTE   VOL   0*FE11IntotheDarkness_mvl/mxv
 BYTE   W03
 BYTE   VOL   0*FE11IntotheDarkness_mvl/mxv
 BYTE   W03
 BYTE   VOL   0*FE11IntotheDarkness_mvl/mxv
 BYTE   W03
 BYTE   VOL   0*FE11IntotheDarkness_mvl/mxv
 BYTE   W03
 BYTE   VOL   1*FE11IntotheDarkness_mvl/mxv
 BYTE   W03
 BYTE   VOL   2*FE11IntotheDarkness_mvl/mxv
 BYTE   W03
 BYTE   VOL   2*FE11IntotheDarkness_mvl/mxv
 BYTE   W03
 BYTE   VOL   3*FE11IntotheDarkness_mvl/mxv
 BYTE   W03
 BYTE   VOL   4*FE11IntotheDarkness_mvl/mxv
 BYTE   W03
 BYTE   VOL   5*FE11IntotheDarkness_mvl/mxv
 BYTE   W03
 BYTE   VOL   7*FE11IntotheDarkness_mvl/mxv
 BYTE   W03
 BYTE   VOL   8*FE11IntotheDarkness_mvl/mxv
 BYTE   W03
 BYTE   VOL   11*FE11IntotheDarkness_mvl/mxv
 BYTE   W03
 BYTE   VOL   13*FE11IntotheDarkness_mvl/mxv
 BYTE   W01
 BYTE   VOL   14*FE11IntotheDarkness_mvl/mxv
 BYTE   W11
 BYTE   N05  En4  v036
 BYTE   W06
 BYTE   En4  v056
 BYTE   W06
 BYTE   An4  v052
 BYTE   W03
//  #11 //020   ----------------------------------------
 BYTE   W03
 BYTE   TIE  Bn4  v044
 BYTE   W08
 BYTE   VOL   14*FE11IntotheDarkness_mvl/mxv
 BYTE   W01
 BYTE   VOL   13*FE11IntotheDarkness_mvl/mxv
 BYTE   W01
 BYTE   VOL   10*FE11IntotheDarkness_mvl/mxv
 BYTE   W01
 BYTE   VOL   8*FE11IntotheDarkness_mvl/mxv
 BYTE   W01
 BYTE   VOL   7*FE11IntotheDarkness_mvl/mxv
 BYTE   W01
 BYTE   VOL   5*FE11IntotheDarkness_mvl/mxv
 BYTE   W01
 BYTE   VOL   4*FE11IntotheDarkness_mvl/mxv
 BYTE   W01
 BYTE   VOL   3*FE11IntotheDarkness_mvl/mxv
 BYTE   W01
 BYTE   VOL   1*FE11IntotheDarkness_mvl/mxv
 BYTE   W01
 BYTE   VOL   0*FE11IntotheDarkness_mvl/mxv
 BYTE   W01
 BYTE   VOL   0*FE11IntotheDarkness_mvl/mxv
 BYTE   W01
 BYTE   VOL   0*FE11IntotheDarkness_mvl/mxv
 BYTE   W01
 BYTE   VOL   0*FE11IntotheDarkness_mvl/mxv
 BYTE   W01
 BYTE   VOL   0*FE11IntotheDarkness_mvl/mxv
 BYTE   W09
 BYTE   VOL   0*FE11IntotheDarkness_mvl/mxv
 BYTE   W06
 BYTE   VOL   0*FE11IntotheDarkness_mvl/mxv
 BYTE   W09
 BYTE   VOL   0*FE11IntotheDarkness_mvl/mxv
 BYTE   W06
 BYTE   VOL   0*FE11IntotheDarkness_mvl/mxv
 BYTE   W06
 BYTE   VOL   0*FE11IntotheDarkness_mvl/mxv
 BYTE   W06
 BYTE   VOL   0*FE11IntotheDarkness_mvl/mxv
 BYTE   W03
 BYTE   VOL   0*FE11IntotheDarkness_mvl/mxv
 BYTE   W06
 BYTE   VOL   0*FE11IntotheDarkness_mvl/mxv
 BYTE   W06
 BYTE   VOL   0*FE11IntotheDarkness_mvl/mxv
 BYTE   W03
 BYTE   VOL   0*FE11IntotheDarkness_mvl/mxv
 BYTE   W06
 BYTE   VOL   0*FE11IntotheDarkness_mvl/mxv
 BYTE   W03
 BYTE   VOL   0*FE11IntotheDarkness_mvl/mxv
 BYTE   W03
//  #11 //021   ----------------------------------------
 BYTE   W03
 BYTE   VOL   0*FE11IntotheDarkness_mvl/mxv
 BYTE   W03
 BYTE   VOL   0*FE11IntotheDarkness_mvl/mxv
 BYTE   W03
 BYTE   VOL   0*FE11IntotheDarkness_mvl/mxv
 BYTE   W03
 BYTE   VOL   0*FE11IntotheDarkness_mvl/mxv
 BYTE   W06
 BYTE   VOL   0*FE11IntotheDarkness_mvl/mxv
 BYTE   W03
 BYTE   VOL   0*FE11IntotheDarkness_mvl/mxv
 BYTE   W03
 BYTE   VOL   0*FE11IntotheDarkness_mvl/mxv
 BYTE   W03
 BYTE   VOL   1*FE11IntotheDarkness_mvl/mxv
 BYTE   W03
 BYTE   VOL   1*FE11IntotheDarkness_mvl/mxv
 BYTE   W03
 BYTE   VOL   2*FE11IntotheDarkness_mvl/mxv
 BYTE   W03
 BYTE   VOL   2*FE11IntotheDarkness_mvl/mxv
 BYTE   W03
 BYTE   VOL   2*FE11IntotheDarkness_mvl/mxv
 BYTE   W03
 BYTE   VOL   3*FE11IntotheDarkness_mvl/mxv
 BYTE   W03
 BYTE   VOL   3*FE11IntotheDarkness_mvl/mxv
 BYTE   W03
 BYTE   VOL   4*FE11IntotheDarkness_mvl/mxv
 BYTE   W03
 BYTE   VOL   4*FE11IntotheDarkness_mvl/mxv
 BYTE   W03
 BYTE   VOL   4*FE11IntotheDarkness_mvl/mxv
 BYTE   W03
 BYTE   VOL   5*FE11IntotheDarkness_mvl/mxv
 BYTE   W03
 BYTE   VOL   5*FE11IntotheDarkness_mvl/mxv
 BYTE   W03
 BYTE   VOL   6*FE11IntotheDarkness_mvl/mxv
 BYTE   W03
 BYTE   VOL   7*FE11IntotheDarkness_mvl/mxv
 BYTE   W03
 BYTE   VOL   7*FE11IntotheDarkness_mvl/mxv
 BYTE   W03
 BYTE   VOL   8*FE11IntotheDarkness_mvl/mxv
 BYTE   W03
 BYTE   VOL   8*FE11IntotheDarkness_mvl/mxv
 BYTE   W03
 BYTE   VOL   9*FE11IntotheDarkness_mvl/mxv
 BYTE   W03
 BYTE   VOL   11*FE11IntotheDarkness_mvl/mxv
 BYTE   W03
 BYTE   VOL   12*FE11IntotheDarkness_mvl/mxv
 BYTE   W03
 BYTE   VOL   13*FE11IntotheDarkness_mvl/mxv
 BYTE   W03
 BYTE   VOL   14*FE11IntotheDarkness_mvl/mxv
 BYTE   W03
 BYTE   VOL   14*FE11IntotheDarkness_mvl/mxv
 BYTE   W01
 BYTE   VOL   13*FE11IntotheDarkness_mvl/mxv
 BYTE   W02
//  #11 //022   ----------------------------------------
 BYTE   VOL   12*FE11IntotheDarkness_mvl/mxv
 BYTE   W01
 BYTE   VOL   11*FE11IntotheDarkness_mvl/mxv
 BYTE   W02
 BYTE   VOL   10*FE11IntotheDarkness_mvl/mxv
 BYTE   W01
 BYTE   VOL   8*FE11IntotheDarkness_mvl/mxv
 BYTE   W02
 BYTE   VOL   8*FE11IntotheDarkness_mvl/mxv
 BYTE   W01
 BYTE   VOL   7*FE11IntotheDarkness_mvl/mxv
 BYTE   W02
 BYTE   VOL   6*FE11IntotheDarkness_mvl/mxv
 BYTE   W01
 BYTE   VOL   5*FE11IntotheDarkness_mvl/mxv
 BYTE   W02
 BYTE   VOL   4*FE11IntotheDarkness_mvl/mxv
 BYTE   W01
 BYTE   VOL   4*FE11IntotheDarkness_mvl/mxv
 BYTE   W02
 BYTE   VOL   3*FE11IntotheDarkness_mvl/mxv
 BYTE   W01
 BYTE   VOL   2*FE11IntotheDarkness_mvl/mxv
 BYTE   W02
 BYTE   VOL   1*FE11IntotheDarkness_mvl/mxv
 BYTE   W01
 BYTE   VOL   0*FE11IntotheDarkness_mvl/mxv
 BYTE   W02
 BYTE   VOL   0*FE11IntotheDarkness_mvl/mxv
 BYTE   W01
 BYTE   VOL   0*FE11IntotheDarkness_mvl/mxv
 BYTE   W02
 BYTE   VOL   0*FE11IntotheDarkness_mvl/mxv
 BYTE   W01
 BYTE   VOL   0*FE11IntotheDarkness_mvl/mxv
 BYTE   W02
 BYTE   VOL   0*FE11IntotheDarkness_mvl/mxv
 BYTE   W01
 BYTE   VOL   0*FE11IntotheDarkness_mvl/mxv
 BYTE   W02
 BYTE   VOL   0*FE11IntotheDarkness_mvl/mxv
 BYTE   W01
 BYTE   VOL   0*FE11IntotheDarkness_mvl/mxv
 BYTE   W02
 BYTE   VOL   0*FE11IntotheDarkness_mvl/mxv
 BYTE   W01
 BYTE   VOL   0*FE11IntotheDarkness_mvl/mxv
 BYTE   W02
 BYTE   VOL   0*FE11IntotheDarkness_mvl/mxv
 BYTE   W01
 BYTE   VOL   0*FE11IntotheDarkness_mvl/mxv
 BYTE   W02
 BYTE   VOL   0*FE11IntotheDarkness_mvl/mxv
 BYTE   W01
 BYTE   VOL   0*FE11IntotheDarkness_mvl/mxv
 BYTE   W02
 BYTE   VOL   0*FE11IntotheDarkness_mvl/mxv
 BYTE   W01
 BYTE   VOL   0*FE11IntotheDarkness_mvl/mxv
 BYTE   W02
 BYTE   VOL   0*FE11IntotheDarkness_mvl/mxv
 BYTE   W01
 BYTE   VOL   0*FE11IntotheDarkness_mvl/mxv
 BYTE   W02
 BYTE   VOL   0*FE11IntotheDarkness_mvl/mxv
 BYTE   W01
 BYTE   VOL   0*FE11IntotheDarkness_mvl/mxv
 BYTE   W01
 BYTE   EOT
 BYTE   W01
 BYTE   VOL   0*FE11IntotheDarkness_mvl/mxv
 BYTE   W01
 BYTE   VOL   0*FE11IntotheDarkness_mvl/mxv
 BYTE   W02
 BYTE   VOL   0*FE11IntotheDarkness_mvl/mxv
 BYTE   W01
 BYTE   VOL   0*FE11IntotheDarkness_mvl/mxv
 BYTE   W02
 BYTE   VOL   0*FE11IntotheDarkness_mvl/mxv
 BYTE   W01
 BYTE   VOL   0*FE11IntotheDarkness_mvl/mxv
 BYTE   W02
 BYTE   VOL   0*FE11IntotheDarkness_mvl/mxv
 BYTE   W36
//  #11 //023   ----------------------------------------
 BYTE   W96
//  #11 //024   ----------------------------------------
 BYTE   W96
//  #11 //025   ----------------------------------------
 BYTE   W96
//  #11 //026   ----------------------------------------
 BYTE   GoTo
  POIN2 Label_0145032A
 BYTE   FINE

//******************************************************//
	ALIGN 4

FE11IntotheDarkness:
	BYTE	11	// NumTrks
	BYTE	0	// NumBlks
	BYTE	FE11IntotheDarkness_pri	// Priority
	BYTE	FE11IntotheDarkness_rev	// Reverb.
    
	POIN2	FE11IntotheDarkness_grp
    
	POIN2	FE11IntotheDarkness_001
	POIN2	FE11IntotheDarkness_002
	POIN2	FE11IntotheDarkness_003
	POIN2	FE11IntotheDarkness_004
	POIN2	FE11IntotheDarkness_005
	POIN2	FE11IntotheDarkness_006
	POIN2	FE11IntotheDarkness_007
	POIN2	FE11IntotheDarkness_008
	POIN2	FE11IntotheDarkness_009
	POIN2	FE11IntotheDarkness_010
	POIN2	FE11IntotheDarkness_011

	
