//Event file generated from Sappy .s format.
	#include "MPlayDef.event"

	#define	FE5Attack_grp  voicegroup000
	#define	FE5Attack_pri  0
	#define	FE5Attack_rev  0
	#define	FE5Attack_mvl  127
	#define	FE5Attack_key  0
	#define	FE5Attack_tbs  1
	#define	FE5Attack_exg  0
	#define	FE5Attack_cmp  1

	// .rodata
	//	FE5Attack
	ALIGN 4


//**************** Track 1 (Midi-Chn.0) ****************//

FE5Attack_001:
//  #01 //000   ----------------------------------------
 BYTE   KEYSH   FE5Attack_key+0
Label_0110B95A:
 BYTE   TEMPO   162*FE5Attack_tbs/2
 BYTE   VOICE   49
 BYTE   VOL   59*FE5Attack_mvl/mxv
 BYTE   PAN   c_v+0
 BYTE   N04  As3  v100
 BYTE   W06
 BYTE   N04
 BYTE   W06
 BYTE   An3
 BYTE   W06
 BYTE   As3
 BYTE   W06
Label_0110B96C:
 BYTE   N04  Fn3  v100
 BYTE   W06
 BYTE   Dn3
 BYTE   W06
 BYTE   N36  As2
 BYTE   W12
 BYTE   PEND 
 BYTE   W24
 BYTE   W12
 BYTE   N09
 BYTE   W12
//  #01 //001   ----------------------------------------
 BYTE   N36  Fs3
 BYTE   W24
 BYTE   W24
 BYTE   An3
 BYTE   W24
 BYTE   W24
//  #01 //002   ----------------------------------------
 BYTE   As1
 BYTE   W24
 BYTE   W24
 BYTE   W24
 BYTE   W24
//  #01 //003   ----------------------------------------
 BYTE   N04  Cs3
 BYTE   W06
 BYTE   N04
 BYTE   W06
 BYTE   Cn3
 BYTE   W06
 BYTE   Cs3
 BYTE   W06
 BYTE   Ds3
 BYTE   W06
 BYTE   En3
 BYTE   W06
 BYTE   N36  Fn3
 BYTE   W12
 BYTE   W24
 BYTE   W12
 BYTE   N09
 BYTE   W12
//  #01 //004   ----------------------------------------
 BYTE   N36  Ds3
 BYTE   W24
 BYTE   W24
 BYTE   Bn3
 BYTE   W24
 BYTE   W24
//  #01 //005   ----------------------------------------
 BYTE   W24
 BYTE   W24
 BYTE   N04  As2
 BYTE   W06
 BYTE   Bn2
 BYTE   W06
 BYTE   Dn3
 BYTE   W06
 BYTE   Ds3
 BYTE   W06
 BYTE   Fn3
 BYTE   W06
 BYTE   N22  Fs3
 BYTE   W18
//  #01 //006   ----------------------------------------
 BYTE   W06
 BYTE   N04
 BYTE   W06
 BYTE   Fn3
 BYTE   W06
 BYTE   En3
 BYTE   W06
 BYTE   N66  Ds3
 BYTE   W24
 BYTE   W24
 BYTE   W24
//  #01 //007   ----------------------------------------
 BYTE   GoTo
  POIN2 Label_0110B95A
//  #01 //008   ----------------------------------------
 BYTE   N04  As3  v100
 BYTE   W06
 BYTE   N04
 BYTE   W06
 BYTE   An3
 BYTE   W06
 BYTE   As3
 BYTE   W06
//  #01 //009   ----------------------------------------
 BYTE   PATT
  POIN2 Label_0110B96C
//  #01 //010   ----------------------------------------
 BYTE   W24
 BYTE   W12
 BYTE   N09  As2  v100
 BYTE   W12
 BYTE   FINE

//**************** Track 2 (Midi-Chn.1) ****************//

FE5Attack_002:
//  #02 //000   ----------------------------------------
 BYTE   KEYSH   FE5Attack_key+0
Label_0110B9DA:
 BYTE   VOICE   48
 BYTE   VOL   60*FE5Attack_mvl/mxv
 BYTE   PAN   c_v+0
 BYTE   N04  As4  v100
 BYTE   W06
 BYTE   N04
 BYTE   W06
 BYTE   An4
 BYTE   W06
 BYTE   As4
 BYTE   W06
Label_0110B9EA:
 BYTE   N04  Fn4  v100
 BYTE   W06
 BYTE   Dn4
 BYTE   W06
 BYTE   N36  As3
 BYTE   W12
 BYTE   PEND 
 BYTE   W24
 BYTE   W12
 BYTE   N09
 BYTE   W12
//  #02 //001   ----------------------------------------
 BYTE   N36  Fs4
 BYTE   W24
 BYTE   W24
 BYTE   An4
 BYTE   W24
 BYTE   W24
//  #02 //002   ----------------------------------------
 BYTE   As2
 BYTE   W24
 BYTE   W24
 BYTE   W24
 BYTE   W24
//  #02 //003   ----------------------------------------
 BYTE   N04  Cs4
 BYTE   W06
 BYTE   N04
 BYTE   W06
 BYTE   Cn4
 BYTE   W06
 BYTE   Cs4
 BYTE   W06
 BYTE   Ds4
 BYTE   W06
 BYTE   En4
 BYTE   W06
 BYTE   N36  Fn4
 BYTE   W12
 BYTE   W24
 BYTE   W12
 BYTE   N09
 BYTE   W12
//  #02 //004   ----------------------------------------
 BYTE   N36  Ds4
 BYTE   W24
 BYTE   W24
 BYTE   Bn4
 BYTE   W24
 BYTE   W24
//  #02 //005   ----------------------------------------
 BYTE   W24
 BYTE   W24
 BYTE   N04  As3
 BYTE   W06
 BYTE   Bn3
 BYTE   W06
 BYTE   Dn4
 BYTE   W06
 BYTE   Ds4
 BYTE   W06
 BYTE   Fn4
 BYTE   W06
 BYTE   N22  Fs4
 BYTE   W18
//  #02 //006   ----------------------------------------
 BYTE   W06
 BYTE   N04
 BYTE   W06
 BYTE   Fn4
 BYTE   W06
 BYTE   En4
 BYTE   W06
 BYTE   N66  Ds4
 BYTE   W24
 BYTE   W24
 BYTE   W24
//  #02 //007   ----------------------------------------
 BYTE   GoTo
  POIN2 Label_0110B9DA
//  #02 //008   ----------------------------------------
 BYTE   N04  As4  v100
 BYTE   W06
 BYTE   N04
 BYTE   W06
 BYTE   An4
 BYTE   W06
 BYTE   As4
 BYTE   W06
//  #02 //009   ----------------------------------------
 BYTE   PATT
  POIN2 Label_0110B9EA
//  #02 //010   ----------------------------------------
 BYTE   W24
 BYTE   W12
 BYTE   N09  As3  v100
 BYTE   W12
 BYTE   FINE

//**************** Track 3 (Midi-Chn.2) ****************//

FE5Attack_003:
//  #03 //000   ----------------------------------------
 BYTE   KEYSH   FE5Attack_key+0
Label_549912:
 BYTE   VOICE   49
 BYTE   PAN   c_v+0
 BYTE   VOL   75*FE5Attack_mvl/mxv
 BYTE   N96  As0  v127
 BYTE   N96  As1
 BYTE   W24
 BYTE   W24
 BYTE   W24
 BYTE   W24
//  #03 //001   ----------------------------------------
 BYTE   N06  Bn0  v040
 BYTE   N06  Bn1
 BYTE   W12
 BYTE   Bn0
 BYTE   N06  Bn1
 BYTE   W12
 BYTE   Bn0  v044
 BYTE   N06  Bn1
 BYTE   W12
 BYTE   Bn0  v052
 BYTE   N06  Bn1
 BYTE   W12
 BYTE   Bn0  v060
 BYTE   N06  Bn1
 BYTE   W12
 BYTE   Bn0  v072
 BYTE   N06  Bn1
 BYTE   W12
 BYTE   Bn0  v092
 BYTE   N06  Bn1
 BYTE   W12
 BYTE   Bn0  v116
 BYTE   N06  Bn1
 BYTE   W12
//  #03 //002   ----------------------------------------
 BYTE   N20  As1  v120
 BYTE   N20  As2
 BYTE   W24
 BYTE   W24
 BYTE   W24
 BYTE   W24
//  #03 //003   ----------------------------------------
 BYTE   N48  As0  v112
 BYTE   N48  As1
 BYTE   W24
 BYTE   W24
 BYTE   N04  As2  v124
 BYTE   W06
 BYTE   An2  v108
 BYTE   W06
 BYTE   Gs2  v120
 BYTE   W06
 BYTE   Gn2  v104
 BYTE   W06
 BYTE   Fs2  v120
 BYTE   W06
 BYTE   Fn2  v108
 BYTE   W06
 BYTE   Cs2  v124
 BYTE   W06
 BYTE   As1  v108
 BYTE   W06
//  #03 //004   ----------------------------------------
 BYTE   Bn0  v124
 BYTE   N04  Bn1
 BYTE   W12
 BYTE   Bn0  v052
 BYTE   N04  Bn1
 BYTE   W12
 BYTE   Bn0  v076
 BYTE   N04  Bn1
 BYTE   W12
 BYTE   Bn0  v072
 BYTE   N04  Bn1
 BYTE   W12
 BYTE   Bn0  v100
 BYTE   N04  Bn1
 BYTE   W12
 BYTE   Bn0  v088
 BYTE   N04  Bn1
 BYTE   W12
 BYTE   Bn0  v116
 BYTE   N04  Bn1
 BYTE   W14
 BYTE   Bn0  v096
 BYTE   N04  Bn1
 BYTE   W10
//  #03 //005   ----------------------------------------
 BYTE   N10  As0  v127
 BYTE   N10  As1
 BYTE   W12
 BYTE   Fn1
 BYTE   N10  Fn2
 BYTE   W12
 BYTE   As1
 BYTE   N10  As2
 BYTE   W12
 BYTE   Bn1
 BYTE   N10  Bn2
 BYTE   W12
 BYTE   W24
 BYTE   W18
 BYTE   N04  Cn2  v080
 BYTE   N04  Cn3
 BYTE   W06
//  #03 //006   ----------------------------------------
 BYTE   Bn1  v108
 BYTE   N04  Bn2
 BYTE   W06
 BYTE   As1
 BYTE   N04  As2
 BYTE   W06
 BYTE   An1  v116
 BYTE   N04  An2
 BYTE   W06
 BYTE   N76  Gs1  v127
 BYTE   N76  Gs2
 BYTE   W06
 BYTE   W24
 BYTE   W24
 BYTE   W24
//  #03 //007   ----------------------------------------
 BYTE   GoTo
  POIN2 Label_549912
//  #03 //008   ----------------------------------------
 BYTE   N96  As0  v127
 BYTE   N96  As1
 BYTE   W24
 BYTE   W24
 BYTE   W24
 BYTE   W24
 BYTE   FINE

//**************** Track 4 (Midi-Chn.3) ****************//

FE5Attack_004:
//  #04 //000   ----------------------------------------
 BYTE   KEYSH   FE5Attack_key+0
Label_5499DE:
 BYTE   VOICE   57
 BYTE   PAN   c_v+9
 BYTE   VOL   52*FE5Attack_mvl/mxv
 BYTE   W24
 BYTE   W24
 BYTE   W24
 BYTE   W24
//  #04 //001   ----------------------------------------
 BYTE   W06
 BYTE   N04  As1  v100
 BYTE   W06
 BYTE   Fn2
 BYTE   W06
 BYTE   Fs2
 BYTE   W06
 BYTE   As2
 BYTE   W06
 BYTE   Bn2
 BYTE   W06
 BYTE   N56  Ds3
 BYTE   W12
 BYTE   W24
 BYTE   W24
//  #04 //002   ----------------------------------------
 BYTE   W24
 BYTE   W24
 BYTE   W24
 BYTE   W24
//  #04 //003   ----------------------------------------
 BYTE   W24
 BYTE   W24
 BYTE   W24
 BYTE   W24
//  #04 //004   ----------------------------------------
 BYTE   N02  As2
 BYTE   W03
 BYTE   Bn2
 BYTE   W03
 BYTE   N04
 BYTE   W06
 BYTE   N28
 BYTE   W12
 BYTE   W24
 BYTE   N36  Ds3
 BYTE   W24
 BYTE   W24
//  #04 //005   ----------------------------------------
 BYTE   W24
 BYTE   W12
 BYTE   N09  Fs2
 BYTE   W12
 BYTE   W24
 BYTE   W24
//  #04 //006   ----------------------------------------
 BYTE   W24
 BYTE   W24
 BYTE   W24
 BYTE   W24
//  #04 //007   ----------------------------------------
 BYTE   GoTo
  POIN2 Label_5499DE
//  #04 //008   ----------------------------------------
 BYTE   W24
 BYTE   W24
 BYTE   W24
 BYTE   W24
 BYTE   FINE

//**************** Track 5 (Midi-Chn.4) ****************//

FE5Attack_005:
//  #05 //000   ----------------------------------------
 BYTE   KEYSH   FE5Attack_key+0
Label_0110BA5A:
 BYTE   VOICE   56
 BYTE   PAN   c_v+8
 BYTE   VOL   54*FE5Attack_mvl/mxv
 BYTE   W24
 BYTE   W24
 BYTE   W24
 BYTE   W24
//  #05 //001   ----------------------------------------
 BYTE   W06
 BYTE   N04  As1  v100
 BYTE   W06
 BYTE   Fn2
 BYTE   W06
 BYTE   Fs2
 BYTE   W06
 BYTE   As2
 BYTE   W06
 BYTE   Bn2
 BYTE   W06
 BYTE   N56  Ds3
 BYTE   W12
 BYTE   W24
 BYTE   W24
//  #05 //002   ----------------------------------------
 BYTE   W24
 BYTE   W24
 BYTE   W24
 BYTE   W24
//  #05 //003   ----------------------------------------
 BYTE   W24
 BYTE   W24
 BYTE   W24
 BYTE   W24
//  #05 //004   ----------------------------------------
 BYTE   N02  As2
 BYTE   W03
 BYTE   Bn2
 BYTE   W03
 BYTE   N04
 BYTE   W06
 BYTE   N28
 BYTE   W12
 BYTE   W24
 BYTE   N36  Ds3
 BYTE   W24
 BYTE   W24
//  #05 //005   ----------------------------------------
 BYTE   W24
 BYTE   W12
 BYTE   N09  Fs2
 BYTE   W12
 BYTE   W24
 BYTE   W24
//  #05 //006   ----------------------------------------
 BYTE   W24
 BYTE   W24
 BYTE   W24
 BYTE   W24
//  #05 //007   ----------------------------------------
 BYTE   GoTo
  POIN2 Label_0110BA5A
//  #05 //008   ----------------------------------------
 BYTE   W24
 BYTE   W24
 BYTE   W24
 BYTE   W24
 BYTE   FINE

//**************** Track 6 (Midi-Chn.5) ****************//

FE5Attack_006:
//  #06 //000   ----------------------------------------
 BYTE   KEYSH   FE5Attack_key+0
Label_54A28A:
 BYTE   VOICE   122
 BYTE   PAN   c_v-25
 BYTE   VOL   49*FE5Attack_mvl/mxv
 BYTE   N03  Dn1  v120
 BYTE   W02
 BYTE   En1  v068
 BYTE   W06
 BYTE   Dn1  v016
 BYTE   W04
 BYTE   En1
 BYTE   W04
 BYTE   Dn1
 BYTE   W04
 BYTE   En1  v020
 BYTE   W04
Label_54A2A1:
 BYTE   N03  Dn1  v024
 BYTE   W04
 BYTE   En1  v028
 BYTE   W04
 BYTE   Dn1  v032
 BYTE   W04
 BYTE   Dn1  v108
 BYTE   W02
 BYTE   En1  v060
 BYTE   W06
 BYTE   Dn1  v020
 BYTE   W04
 BYTE   PEND 
Label_54A2B5:
 BYTE   N03  En1  v016
 BYTE   W04
 BYTE   Dn1
 BYTE   W04
 BYTE   En1
 BYTE   W04
 BYTE   Dn1
 BYTE   W04
 BYTE   En1
 BYTE   W04
 BYTE   Dn1  v024
 BYTE   W04
 BYTE   PEND 
Label_54A2C5:
 BYTE   N03  En1  v044
 BYTE   W04
 BYTE   Dn1  v056
 BYTE   W04
 BYTE   En1  v064
 BYTE   W04
 BYTE   Dn1  v124
 BYTE   W02
 BYTE   En1  v072
 BYTE   W04
 BYTE   Dn1  v036
 BYTE   W06
 BYTE   PEND 
//  #06 //001   ----------------------------------------
Label_54A2D9:
 BYTE   N03  Dn1  v112
 BYTE   W02
 BYTE   En1  v072
 BYTE   W02
 BYTE   Dn1  v052
 BYTE   W04
 BYTE   Dn1  v044
 BYTE   W04
 BYTE   Dn1  v040
 BYTE   W04
 BYTE   Dn1  v036
 BYTE   W04
 BYTE   N03
 BYTE   W04
 BYTE   PEND 
Label_54A2EF:
 BYTE   N03  Dn1  v100
 BYTE   W02
 BYTE   En1  v076
 BYTE   W02
 BYTE   Dn1  v052
 BYTE   W04
 BYTE   Dn1  v024
 BYTE   W04
 BYTE   N03
 BYTE   W04
 BYTE   N03
 BYTE   W04
 BYTE   Dn1  v032
 BYTE   W04
 BYTE   PEND 
Label_54A304:
 BYTE   N03  Dn1  v112
 BYTE   W02
 BYTE   En1  v060
 BYTE   W02
 BYTE   Dn1  v052
 BYTE   W04
 BYTE   Dn1  v056
 BYTE   W04
 BYTE   Dn1  v096
 BYTE   W02
 BYTE   En1  v076
 BYTE   W02
 BYTE   Dn1  v064
 BYTE   W04
 BYTE   Dn1  v072
 BYTE   W04
 BYTE   PEND 
 BYTE   Dn1  v104
 BYTE   W02
 BYTE   En1  v064
 BYTE   W04
 BYTE   Dn1  v096
 BYTE   W06
 BYTE   Dn1  v112
 BYTE   W06
 BYTE   Dn1  v120
 BYTE   W02
 BYTE   En1  v064
 BYTE   W04
//  #06 //002   ----------------------------------------
Label_54A330:
 BYTE   N03  Dn1  v120
 BYTE   W02
 BYTE   En1  v080
 BYTE   W02
 BYTE   Dn1  v064
 BYTE   W04
 BYTE   Dn1  v044
 BYTE   W04
 BYTE   Dn1  v040
 BYTE   W04
 BYTE   Dn1  v032
 BYTE   W04
 BYTE   Dn1  v036
 BYTE   W04
 BYTE   PEND 
 BYTE   Dn1  v120
 BYTE   W02
 BYTE   En1  v068
 BYTE   W04
 BYTE   Dn1  v120
 BYTE   W06
 BYTE   Dn1  v064
 BYTE   W06
 BYTE   Dn1  v100
 BYTE   W02
 BYTE   En1  v048
 BYTE   W04
 BYTE   Dn1  v116
 BYTE   W04
 BYTE   En1  v060
 BYTE   W04
 BYTE   En1  v040
 BYTE   W04
 BYTE   Dn1  v108
 BYTE   W04
 BYTE   En1  v064
 BYTE   W04
 BYTE   En1  v036
 BYTE   W04
 BYTE   Dn1  v072
 BYTE   W02
 BYTE   En1  v040
 BYTE   W04
 BYTE   Dn1  v088
 BYTE   W06
 BYTE   Dn1  v104
 BYTE   W06
 BYTE   Dn1  v116
 BYTE   W02
 BYTE   En1  v064
 BYTE   W04
//  #06 //003   ----------------------------------------
 BYTE   PATT
  POIN2 Label_54A2D9
//  #06 //004   ----------------------------------------
 BYTE   PATT
  POIN2 Label_54A2EF
//  #06 //005   ----------------------------------------
 BYTE   PATT
  POIN2 Label_54A304
//  #06 //006   ----------------------------------------
 BYTE   N03  Dn1  v104
 BYTE   W02
 BYTE   En1  v064
 BYTE   W04
 BYTE   Dn1  v052
 BYTE   W06
 BYTE   Dn1  v104
 BYTE   W02
 BYTE   En1  v064
 BYTE   W04
 BYTE   Dn1  v056
 BYTE   W06
//  #06 //007   ----------------------------------------
 BYTE   PATT
  POIN2 Label_54A330
//  #06 //008   ----------------------------------------
 BYTE   N03  Dn1  v120
 BYTE   W02
 BYTE   En1  v068
 BYTE   W04
 BYTE   Dn1  v084
 BYTE   W06
 BYTE   Dn1  v100
 BYTE   W06
 BYTE   Dn1  v084
 BYTE   W02
 BYTE   En1  v048
 BYTE   W04
 BYTE   Dn1  v116
 BYTE   W04
 BYTE   En1  v060
 BYTE   W04
 BYTE   En1  v040
 BYTE   W04
 BYTE   Dn1  v092
 BYTE   W04
 BYTE   En1  v064
 BYTE   W04
 BYTE   En1  v036
 BYTE   W04
 BYTE   Dn1  v080
 BYTE   W02
 BYTE   En1  v040
 BYTE   W04
 BYTE   Dn1  v088
 BYTE   W06
 BYTE   Dn1  v104
 BYTE   W06
 BYTE   Dn1  v116
 BYTE   W02
 BYTE   En1  v064
 BYTE   W04
 BYTE   Dn1  v120
 BYTE   W02
 BYTE   En1  v080
 BYTE   W02
 BYTE   Dn1  v064
 BYTE   W04
 BYTE   Dn1  v024
 BYTE   W04
 BYTE   Dn1  v020
 BYTE   W04
 BYTE   Dn1  v068
 BYTE   W04
 BYTE   Dn1  v092
 BYTE   W04
//  #06 //009   ----------------------------------------
 BYTE   Dn1  v120
 BYTE   W02
 BYTE   En1  v068
 BYTE   W04
 BYTE   Dn1  v048
 BYTE   W06
 BYTE   Dn1  v100
 BYTE   W02
 BYTE   En1  v048
 BYTE   W04
 BYTE   Dn1  v036
 BYTE   W06
 BYTE   Dn1  v080
 BYTE   W04
 BYTE   Dn1  v048
 BYTE   W04
 BYTE   Dn1  v040
 BYTE   W04
 BYTE   Dn1  v044
 BYTE   W04
 BYTE   En1  v064
 BYTE   W04
 BYTE   En1  v048
 BYTE   W04
Label_54A414:
 BYTE   N03  Dn1  v100
 BYTE   W02
 BYTE   En1  v064
 BYTE   W04
 BYTE   Dn1  v048
 BYTE   W06
 BYTE   Dn1  v080
 BYTE   W02
 BYTE   En1  v064
 BYTE   W04
 BYTE   Dn1  v056
 BYTE   W06
 BYTE   PEND 
 BYTE   Dn1  v112
 BYTE   W02
 BYTE   En1  v072
 BYTE   W02
 BYTE   Dn1  v052
 BYTE   W04
 BYTE   Dn1  v048
 BYTE   W04
 BYTE   Dn1  v040
 BYTE   W04
 BYTE   Dn1  v044
 BYTE   W04
 BYTE   Dn1  v052
 BYTE   W04
//  #06 //010   ----------------------------------------
 BYTE   Dn1  v032
 BYTE   W04
 BYTE   Dn1  v036
 BYTE   W04
 BYTE   Dn1  v040
 BYTE   W04
 BYTE   Dn1  v088
 BYTE   W04
 BYTE   Dn1  v060
 BYTE   W04
 BYTE   N03
 BYTE   W04
//  #06 //011   ----------------------------------------
 BYTE   PATT
  POIN2 Label_54A414
//  #06 //012   ----------------------------------------
 BYTE   PATT
  POIN2 Label_54A414
//  #06 //013   ----------------------------------------
 BYTE   GoTo
  POIN2 Label_54A28A
//  #06 //014   ----------------------------------------
 BYTE   N03  Dn1  v120
 BYTE   W02
 BYTE   En1  v068
 BYTE   W06
 BYTE   Dn1  v016
 BYTE   W04
 BYTE   En1
 BYTE   W04
 BYTE   Dn1
 BYTE   W04
 BYTE   En1  v020
 BYTE   W04
//  #06 //015   ----------------------------------------
 BYTE   PATT
  POIN2 Label_54A2A1
//  #06 //016   ----------------------------------------
 BYTE   PATT
  POIN2 Label_54A2B5
//  #06 //017   ----------------------------------------
 BYTE   PATT
  POIN2 Label_54A2C5
 BYTE   FINE

//**************** Track 7 (Midi-Chn.6) ****************//

FE5Attack_007:
//  #07 //000   ----------------------------------------
 BYTE   KEYSH   FE5Attack_key+0
Label_0110BAC6:
 BYTE   VOICE   47
 BYTE   VOL   47*FE5Attack_mvl/mxv
 BYTE   PAN   c_v+0
 BYTE   N04  As1  v124
 BYTE   W08
 BYTE   As1  v088
 BYTE   W08
 BYTE   As1  v052
 BYTE   W08
Label_0110BAD6:
 BYTE   N04  As1  v040
 BYTE   W08
 BYTE   As1  v028
 BYTE   W08
 BYTE   As1  v020
 BYTE   W08
 BYTE   PEND 
 BYTE   W24
Label_0110BAE2:
 BYTE   W12
 BYTE   N04  As1  v124
 BYTE   W08
 BYTE   As1  v080
 BYTE   W04
 BYTE   PEND 
//  #07 //001   ----------------------------------------
 BYTE   W04
 BYTE   As1  v048
 BYTE   W08
 BYTE   As1  v032
 BYTE   W08
 BYTE   As1  v024
 BYTE   W04
 BYTE   W04
 BYTE   As1  v020
 BYTE   W20
 BYTE   W24
 BYTE   W24
//  #07 //002   ----------------------------------------
Label_0110BAFB:
 BYTE   N04  As1  v124
 BYTE   W08
 BYTE   As1  v068
 BYTE   W08
 BYTE   As1  v036
 BYTE   W08
 BYTE   PEND 
Label_0110BB06:
 BYTE   N04  As1  v124
 BYTE   W08
 BYTE   As1  v064
 BYTE   W08
 BYTE   As1  v032
 BYTE   W08
 BYTE   PEND 
//  #07 //003   ----------------------------------------
 BYTE   PATT
  POIN2 Label_0110BAFB
//  #07 //004   ----------------------------------------
 BYTE   PATT
  POIN2 Label_0110BB06
//  #07 //005   ----------------------------------------
 BYTE   PATT
  POIN2 Label_0110BAFB
//  #07 //006   ----------------------------------------
 BYTE   PATT
  POIN2 Label_0110BB06
//  #07 //007   ----------------------------------------
 BYTE   PATT
  POIN2 Label_0110BAFB
//  #07 //008   ----------------------------------------
 BYTE   PATT
  POIN2 Label_0110BB06
//  #07 //009   ----------------------------------------
Label_0110BB2F:
 BYTE   N04  Bn1  v124
 BYTE   W08
 BYTE   Bn1  v068
 BYTE   W08
 BYTE   Bn1  v036
 BYTE   W08
 BYTE   PEND 
Label_0110BB3A:
 BYTE   N04  Bn1  v124
 BYTE   W08
 BYTE   Bn1  v064
 BYTE   W08
 BYTE   Bn1  v032
 BYTE   W08
 BYTE   PEND 
//  #07 //010   ----------------------------------------
 BYTE   PATT
  POIN2 Label_0110BB2F
//  #07 //011   ----------------------------------------
 BYTE   PATT
  POIN2 Label_0110BB3A
//  #07 //012   ----------------------------------------
 BYTE   N04  As1  v124
 BYTE   W08
 BYTE   As1  v068
 BYTE   W08
 BYTE   As1  v040
 BYTE   W08
 BYTE   As1  v028
 BYTE   W12
 BYTE   As1  v112
 BYTE   W08
 BYTE   As1  v044
 BYTE   W04
 BYTE   W24
 BYTE   W24
//  #07 //013   ----------------------------------------
 BYTE   W24
 BYTE   W24
 BYTE   W16
 BYTE   An1  v124
 BYTE   W08
 BYTE   An1  v076
 BYTE   W08
 BYTE   An1  v052
 BYTE   W08
 BYTE   An1  v036
 BYTE   W08
//  #07 //014   ----------------------------------------
 BYTE   GoTo
  POIN2 Label_0110BAC6
//  #07 //015   ----------------------------------------
 BYTE   N04  As1  v124
 BYTE   W08
 BYTE   As1  v088
 BYTE   W08
 BYTE   As1  v052
 BYTE   W08
//  #07 //016   ----------------------------------------
 BYTE   PATT
  POIN2 Label_0110BAD6
//  #07 //017   ----------------------------------------
 BYTE   W24
//  #07 //018   ----------------------------------------
 BYTE   PATT
  POIN2 Label_0110BAE2
 BYTE   FINE

//**************** Track 8 (Midi-Chn.7) ****************//

FE5Attack_008:
//  #08 //000   ----------------------------------------
 BYTE   KEYSH   FE5Attack_key+0
Label_549A2A:
 BYTE   VOICE   121
 BYTE   PAN   c_v-14
 BYTE   VOL   57*FE5Attack_mvl/mxv
 BYTE   N28  An2  v100
 BYTE   W24
 BYTE   W12
 BYTE   N36
 BYTE   W12
 BYTE   W24
 BYTE   W24
//  #08 //001   ----------------------------------------
 BYTE   W24
 BYTE   W24
 BYTE   W24
 BYTE   W24
//  #08 //002   ----------------------------------------
 BYTE   N76  Ds2
 BYTE   N76  An2
 BYTE   W24
 BYTE   W24
 BYTE   W24
 BYTE   W24
//  #08 //003   ----------------------------------------
 BYTE   W24
 BYTE   W24
 BYTE   W24
 BYTE   W24
//  #08 //004   ----------------------------------------
 BYTE   W24
 BYTE   W24
 BYTE   W24
 BYTE   W24
//  #08 //005   ----------------------------------------
 BYTE   N28
 BYTE   W24
 BYTE   W12
 BYTE   N36
 BYTE   W12
 BYTE   W24
 BYTE   W24
//  #08 //006   ----------------------------------------
 BYTE   N28
 BYTE   W24
 BYTE   W12
 BYTE   N36
 BYTE   W12
 BYTE   W24
 BYTE   W12
 BYTE   N09  Cs2
 BYTE   N09  An2
 BYTE   W12
//  #08 //007   ----------------------------------------
 BYTE   GoTo
  POIN2 Label_549A2A
//  #08 //008   ----------------------------------------
 BYTE   N28  An2  v100
 BYTE   W24
 BYTE   W12
 BYTE   N36
 BYTE   W12
 BYTE   W24
 BYTE   W24
 BYTE   FINE

//**************** Track 9 (Midi-Chn.8) ****************//

FE5Attack_009:
//  #09 //000   ----------------------------------------
 BYTE   KEYSH   FE5Attack_key+0
Label_54960E:
 BYTE   VOICE   18
 BYTE   PAN   c_v+33
 BYTE   VOL   57*FE5Attack_mvl/mxv
 BYTE   W24
 BYTE   W24
Label_549616:
 BYTE   N04  As3  v100
 BYTE   W06
 BYTE   N04
 BYTE   W06
 BYTE   An3
 BYTE   W06
 BYTE   As3
 BYTE   W06
 BYTE   PEND 
Label_549621:
 BYTE   N04  Fn3  v100
 BYTE   W06
 BYTE   Dn3
 BYTE   W18
 BYTE   PEND 
//  #09 //001   ----------------------------------------
 BYTE   W24
 BYTE   W24
 BYTE   W24
 BYTE   W24
//  #09 //002   ----------------------------------------
 BYTE   W24
 BYTE   W24
 BYTE   W24
 BYTE   W24
//  #09 //003   ----------------------------------------
 BYTE   W24
 BYTE   W24
 BYTE   W24
 BYTE   W24
//  #09 //004   ----------------------------------------
 BYTE   W24
 BYTE   W24
 BYTE   W24
 BYTE   W24
//  #09 //005   ----------------------------------------
 BYTE   W24
 BYTE   W24
 BYTE   W24
 BYTE   W24
//  #09 //006   ----------------------------------------
 BYTE   W24
 BYTE   W24
 BYTE   W24
 BYTE   W24
//  #09 //007   ----------------------------------------
 BYTE   GoTo
  POIN2 Label_54960E
//  #09 //008   ----------------------------------------
 BYTE   W24
 BYTE   W24
//  #09 //009   ----------------------------------------
 BYTE   PATT
  POIN2 Label_549616
//  #09 //010   ----------------------------------------
 BYTE   PATT
  POIN2 Label_549621
 BYTE   FINE

//**************** Track 10 (Midi-Chn.9) ****************//

FE5Attack_010:
//  #10 //000   ----------------------------------------
 BYTE   KEYSH   FE5Attack_key+0
Label_549656:
 BYTE   VOICE   18
 BYTE   PAN   c_v+31
 BYTE   VOL   57*FE5Attack_mvl/mxv
 BYTE   W24
 BYTE   W24
Label_54965E:
 BYTE   N04  As4  v100
 BYTE   W06
 BYTE   N04
 BYTE   W06
 BYTE   An4
 BYTE   W06
 BYTE   As4
 BYTE   W06
 BYTE   PEND 
Label_549669:
 BYTE   N04  Fn4  v100
 BYTE   W06
 BYTE   Dn4
 BYTE   W18
 BYTE   PEND 
//  #10 //001   ----------------------------------------
 BYTE   W24
 BYTE   W24
 BYTE   W24
 BYTE   W24
//  #10 //002   ----------------------------------------
 BYTE   W24
 BYTE   W24
 BYTE   W24
 BYTE   W24
//  #10 //003   ----------------------------------------
 BYTE   W24
 BYTE   W24
 BYTE   W24
 BYTE   W24
//  #10 //004   ----------------------------------------
 BYTE   W24
 BYTE   W24
 BYTE   W24
 BYTE   W24
//  #10 //005   ----------------------------------------
 BYTE   W24
 BYTE   W24
 BYTE   W24
 BYTE   W24
//  #10 //006   ----------------------------------------
 BYTE   W24
 BYTE   W24
 BYTE   W24
 BYTE   W24
//  #10 //007   ----------------------------------------
 BYTE   GoTo
  POIN2 Label_549656
//  #10 //008   ----------------------------------------
 BYTE   W24
 BYTE   W24
//  #10 //009   ----------------------------------------
 BYTE   PATT
  POIN2 Label_54965E
//  #10 //010   ----------------------------------------
 BYTE   PATT
  POIN2 Label_549669
 BYTE   FINE

//******************************************************//
	ALIGN 4

FE5Attack:
	BYTE	10	// NumTrks
	BYTE	0	// NumBlks
	BYTE	FE5Attack_pri	// Priority
	BYTE	FE5Attack_rev	// Reverb.
    
	POIN2	FE5Attack_grp
    
	POIN2	FE5Attack_001
	POIN2	FE5Attack_002
	POIN2	FE5Attack_003
	POIN2	FE5Attack_004
	POIN2	FE5Attack_005
	POIN2	FE5Attack_006
	POIN2	FE5Attack_007
	POIN2	FE5Attack_008
	POIN2	FE5Attack_009
	POIN2	FE5Attack_010

	
