//Event file generated from Sappy .s format.
	#include "MPlayDef.event"

	#define	song38_grp  voicegroup000
	#define	song38_pri  0
	#define	song38_rev  0
	#define	song38_mvl  127
	#define	song38_key  0
	#define	song38_tbs  1
	#define	song38_exg  0
	#define	song38_cmp  1

	// .rodata
	//	song38
	ALIGN 4


//**************** Track 1 (Midi-Chn.0) ****************//

song38_001:
//  #01 //000   ----------------------------------------
 BYTE   KEYSH   song38_key+0
 BYTE   TEMPO   180*song38_tbs/2
 BYTE   VOICE   90
 BYTE   MODT 0
 BYTE   LFOS 44
 BYTE   MODT 0
 BYTE   LFOS 44
 BYTE   VOL   18*song38_mvl/mxv
 BYTE   PAN   c_v+0
 BYTE   VOL   18*song38_mvl/mxv
 BYTE   PAN   c_v+0
 BYTE   VOL   37*song38_mvl/mxv
 BYTE   PAN   c_v+0
 BYTE   VOL   18*song38_mvl/mxv
 BYTE   PAN   c_v+0
 BYTE   VOL   18*song38_mvl/mxv
 BYTE   PAN   c_v+0
 BYTE   VOL   18*song38_mvl/mxv
 BYTE   PAN   c_v+0
 BYTE   TIE  BnM1  v036
 BYTE   TIE  Bn0
 BYTE   W96
//  #01 //001   ----------------------------------------
 BYTE   W84
 BYTE   W02
 BYTE   EOT
 BYTE   BnM1  v035
 BYTE   W10
//  #01 //002   ----------------------------------------
Label_010DDA2E:
 BYTE   TIE  Cs0  v036
 BYTE   TIE  Cs1
 BYTE   W96
 BYTE   PEND 
//  #01 //003   ----------------------------------------
 BYTE   W84
 BYTE   W02
 BYTE   EOT
 BYTE   Cs0  v037
 BYTE   W10
//  #01 //004   ----------------------------------------
 BYTE   TIE  Ds0
 BYTE   TIE  Ds1
 BYTE   W96
//  #01 //005   ----------------------------------------
 BYTE   W84
 BYTE   W02
 BYTE   EOT
 BYTE   Ds0  v039
 BYTE   W10
//  #01 //006   ----------------------------------------
 BYTE   TIE  Fs0
 BYTE   TIE  Fs1
 BYTE   W96
//  #01 //007   ----------------------------------------
 BYTE   W84
 BYTE   W02
 BYTE   EOT
 BYTE   Fs0  v042
 BYTE   W10
//  #01 //008   ----------------------------------------
 BYTE   TIE  BnM1
 BYTE   TIE  Bn0
 BYTE   W96
//  #01 //009   ----------------------------------------
 BYTE   W84
 BYTE   W02
 BYTE   EOT
 BYTE   BnM1  v035
 BYTE   W10
//  #01 //010   ----------------------------------------
 BYTE   PATT
  POIN2 Label_010DDA2E
//  #01 //011   ----------------------------------------
 BYTE   W84
 BYTE   W02
 BYTE   EOT
 BYTE   Cs0  v037
 BYTE   W10
//  #01 //012   ----------------------------------------
 BYTE   TIE  Ds0  v036
 BYTE   TIE  Ds1
 BYTE   N11  Ds3
 BYTE   N11  As3
 BYTE   W12
 BYTE   Fs3
 BYTE   W12
 BYTE   Ds3  v044
 BYTE   N11  As3
 BYTE   W12
 BYTE   N11
 BYTE   N11  Cs4
 BYTE   W12
 BYTE   Fs3
 BYTE   W12
 BYTE   As3  v048
 BYTE   N11  Cs4
 BYTE   W12
 BYTE   As3
 BYTE   N11  Fs4
 BYTE   W12
 BYTE   Ds4  v052
 BYTE   W12
//  #01 //013   ----------------------------------------
 BYTE   N11
 BYTE   N11  Fs4
 BYTE   W12
 BYTE   As3
 BYTE   N11  Gs4
 BYTE   W12
 BYTE   Ds4  v056
 BYTE   W12
 BYTE   As3
 BYTE   N11  Gs4
 BYTE   W12
 BYTE   Fs3  v060
 BYTE   N11  Cs4
 BYTE   W12
 BYTE   As3
 BYTE   W12
 BYTE   Ds4
 BYTE   W12
 BYTE   Fs4  v064
 BYTE   W02
 BYTE   EOT
 BYTE   Ds0  v039
 BYTE   W10
//  #01 //014   ----------------------------------------
 BYTE   TIE  Fs0
 BYTE   TIE  Fs1
 BYTE   N11  Cs3
 BYTE   N11  As3
 BYTE   W12
 BYTE   Fs3  v072
 BYTE   W12
 BYTE   Cs3
 BYTE   N11  As3
 BYTE   W12
 BYTE   N11
 BYTE   N11  Cs4
 BYTE   W12
 BYTE   Fs3  v076
 BYTE   W12
 BYTE   As3
 BYTE   N11  Cs4
 BYTE   W12
 BYTE   As3  v080
 BYTE   N11  Fs4
 BYTE   W12
 BYTE   Cs4
 BYTE   W12
//  #01 //015   ----------------------------------------
 BYTE   Fs3  v088
 BYTE   N11  Fs4
 BYTE   W12
 BYTE   Gs3
 BYTE   N11  Gs4
 BYTE   W05
 BYTE   EOT
 BYTE   Fs0  v042
 BYTE   W07
 BYTE   N11  Gs3
 BYTE   N11  Gs4
 BYTE   W12
 BYTE   Fs0  v092
 BYTE   N11  Cs1
 BYTE   N11  Fs1
 BYTE   N11  Cs4
 BYTE   N11  Fs4
 BYTE   N11  As4
 BYTE   N11  Cs5
 BYTE   W12
 BYTE   Fs0
 BYTE   N11  Cs1
 BYTE   N11  Fs1
 BYTE   N11  Cs4
 BYTE   N11  Fs4
 BYTE   N11  As4
 BYTE   N11  Cs5
 BYTE   W12
 BYTE   Fs0
 BYTE   N11  Cs1
 BYTE   N11  Fs1
 BYTE   N11  Cs4
 BYTE   N11  Fs4
 BYTE   N11  As4
 BYTE   N11  Cs5
 BYTE   W12
 BYTE   N22  Fs0
 BYTE   N22  Cs1
 BYTE   N22  Fs1
 BYTE   N05  Cs4
 BYTE   N05  Fs4
 BYTE   N05  As4
 BYTE   N05  Cs5
 BYTE   W06
 BYTE   N01  Cn6
 BYTE   W01
 BYTE   Bn5
 BYTE   W02
 BYTE   An5
 BYTE   W01
 BYTE   Gn5
 BYTE   W02
 BYTE   Fn5
 BYTE   W01
 BYTE   En5
 BYTE   W02
 BYTE   Dn5
 BYTE   W01
 BYTE   Cn5
 BYTE   W02
 BYTE   Bn4
 BYTE   W01
 BYTE   An4
 BYTE   W02
 BYTE   Gn4
 BYTE   W01
 BYTE   Fn4
 BYTE   W02
//  #01 //016   ----------------------------------------
Label_010DDB30:
 BYTE   TIE  BnM1  v092
 BYTE   TIE  Bn0
 BYTE   W96
 BYTE   PEND 
//  #01 //017   ----------------------------------------
 BYTE   W84
 BYTE   W02
 BYTE   EOT
 BYTE   BnM1  v035
 BYTE   W10
//  #01 //018   ----------------------------------------
Label_010DDB3D:
 BYTE   TIE  Cs0  v092
 BYTE   TIE  Cs1
 BYTE   W96
 BYTE   PEND 
//  #01 //019   ----------------------------------------
 BYTE   W84
 BYTE   W02
 BYTE   EOT
 BYTE   Cs0  v037
 BYTE   W10
//  #01 //020   ----------------------------------------
Label_010DDB4A:
 BYTE   TIE  AsM1  v092
 BYTE   TIE  As0
 BYTE   W96
 BYTE   PEND 
//  #01 //021   ----------------------------------------
 BYTE   W84
 BYTE   W02
 BYTE   EOT
 BYTE   AsM1  v034
 BYTE   W10
//  #01 //022   ----------------------------------------
 BYTE   TIE  Ds0
 BYTE   TIE  Ds1
 BYTE   W96
//  #01 //023   ----------------------------------------
 BYTE   W84
 BYTE   W02
 BYTE   EOT
 BYTE   Ds0  v039
 BYTE   W10
//  #01 //024   ----------------------------------------
 BYTE   TIE  Bn0
 BYTE   W96
//  #01 //025   ----------------------------------------
 BYTE   W84
 BYTE   W02
 BYTE   EOT
 BYTE   W10
//  #01 //026   ----------------------------------------
 BYTE   TIE  As0
 BYTE   W96
//  #01 //027   ----------------------------------------
 BYTE   W84
 BYTE   W02
 BYTE   EOT
 BYTE   W10
//  #01 //028   ----------------------------------------
 BYTE   N90  Ds1
 BYTE   W96
//  #01 //029   ----------------------------------------
 BYTE   Cs1
 BYTE   W96
//  #01 //030   ----------------------------------------
 BYTE   Cn1
 BYTE   W96
//  #01 //031   ----------------------------------------
 BYTE   N90
 BYTE   W96
//  #01 //032   ----------------------------------------
Label_010DDB79:
 BYTE   N11  Bn0  v092
 BYTE   W12
 BYTE   Fs1
 BYTE   W12
 BYTE   Bn0
 BYTE   W12
 BYTE   Bn1
 BYTE   W12
 BYTE   Bn0
 BYTE   W12
 BYTE   Bn1
 BYTE   W24
 BYTE   Bn0
 BYTE   N11  Bn1
 BYTE   W12
 BYTE   PEND 
//  #01 //033   ----------------------------------------
 BYTE   W12
 BYTE   N11
 BYTE   W12
 BYTE   Bn0
 BYTE   W24
 BYTE   N11
 BYTE   W12
 BYTE   Fs1
 BYTE   W12
 BYTE   Bn0
 BYTE   W12
 BYTE   Bn1
 BYTE   W12
//  #01 //034   ----------------------------------------
Label_010DDB99:
 BYTE   N11  Cs1  v092
 BYTE   W12
 BYTE   Gs1
 BYTE   W12
 BYTE   Cs1
 BYTE   W12
 BYTE   Cs2
 BYTE   W12
 BYTE   Cs1
 BYTE   W12
 BYTE   Cs2
 BYTE   W24
 BYTE   Cs1
 BYTE   N11  Cs2
 BYTE   W12
 BYTE   PEND 
//  #01 //035   ----------------------------------------
Label_010DDBAC:
 BYTE   W12
 BYTE   N11  Cs2  v092
 BYTE   W12
 BYTE   Cs1
 BYTE   W24
 BYTE   N11
 BYTE   W12
 BYTE   Gs1
 BYTE   W12
 BYTE   Cs1
 BYTE   W12
 BYTE   Cs2
 BYTE   W12
 BYTE   PEND 
//  #01 //036   ----------------------------------------
Label_010DDBBC:
 BYTE   N11  Gs0  v092
 BYTE   N11  Gs1
 BYTE   W12
 BYTE   Bn0
 BYTE   W12
 BYTE   Ds1
 BYTE   W12
 BYTE   Gs1
 BYTE   W12
 BYTE   Ds1
 BYTE   W12
 BYTE   Bn0
 BYTE   W12
 BYTE   Gs0
 BYTE   W12
 BYTE   As0
 BYTE   W12
 BYTE   PEND 
//  #01 //037   ----------------------------------------
Label_010DDBD1:
 BYTE   N11  Cs1  v092
 BYTE   W12
 BYTE   Fn1
 BYTE   W12
 BYTE   As1
 BYTE   W12
 BYTE   Fn1
 BYTE   W12
 BYTE   Cs1
 BYTE   W12
 BYTE   As0
 BYTE   W12
 BYTE   Cs1
 BYTE   W12
 BYTE   Fn1
 BYTE   W12
 BYTE   PEND 
//  #01 //038   ----------------------------------------
Label_010DDBE4:
 BYTE   N11  Bn0  v092
 BYTE   N11  Bn1
 BYTE   W12
 BYTE   Ds1
 BYTE   W12
 BYTE   Fs1
 BYTE   W12
 BYTE   Bn1
 BYTE   W12
 BYTE   Fs1
 BYTE   W12
 BYTE   Ds1
 BYTE   W12
 BYTE   Bn0
 BYTE   W12
 BYTE   Bn1
 BYTE   W12
 BYTE   PEND 
//  #01 //039   ----------------------------------------
Label_010DDBF9:
 BYTE   N11  Ds1  v092
 BYTE   W12
 BYTE   Fs1
 BYTE   W12
 BYTE   Bn1
 BYTE   W12
 BYTE   Fs1
 BYTE   W12
 BYTE   Ds1
 BYTE   W12
 BYTE   Bn0
 BYTE   W12
 BYTE   Ds1
 BYTE   W12
 BYTE   Fs1
 BYTE   W12
 BYTE   PEND 
//  #01 //040   ----------------------------------------
 BYTE   N90  Cs1
 BYTE   W96
//  #01 //041   ----------------------------------------
 BYTE   N90
 BYTE   W96
//  #01 //042   ----------------------------------------
 BYTE   Bn0
 BYTE   W96
//  #01 //043   ----------------------------------------
 BYTE   As0
 BYTE   W96
//  #01 //044   ----------------------------------------
 BYTE   N24  Gs0  v032
 BYTE   N11  Cs4  v012
 BYTE   W12
 BYTE   Fn3
 BYTE   W12
 BYTE   Fs3
 BYTE   W12
 BYTE   Cs4
 BYTE   W12
 BYTE   Fn3
 BYTE   W12
 BYTE   Fs3
 BYTE   W12
 BYTE   Cs4
 BYTE   W12
 BYTE   Fn3
 BYTE   W12
//  #01 //045   ----------------------------------------
 BYTE   Fs3
 BYTE   W12
 BYTE   Cs4
 BYTE   W12
 BYTE   Fn3
 BYTE   W12
 BYTE   Fs3
 BYTE   W12
 BYTE   Cs4
 BYTE   W12
 BYTE   Fn3
 BYTE   W12
 BYTE   Fs3
 BYTE   W12
 BYTE   Cs4
 BYTE   W12
//  #01 //046   ----------------------------------------
 BYTE   N90  Bn0  v092
 BYTE   W96
//  #01 //047   ----------------------------------------
Label_010DDC3E:
 BYTE   N44  As0  v092
 BYTE   W48
 BYTE   An0
 BYTE   W48
 BYTE   PEND 
//  #01 //048   ----------------------------------------
 BYTE   N90  Gs0
 BYTE   W84
 BYTE   N11  Cs3
 BYTE   N11  Gs3
 BYTE   N11  Cs4
 BYTE   W12
//  #01 //049   ----------------------------------------
 BYTE   N44  Cs0
 BYTE   N44  Gs0
 BYTE   N44  Cs1
 BYTE   N36  Cs3
 BYTE   N24  Gs3
 BYTE   N36  Cs4
 BYTE   W48
 BYTE   N44  Fs3
 BYTE   N44  Cs4
 BYTE   N44  Fs4
 BYTE   W48
//  #01 //050   ----------------------------------------
 BYTE   PATT
  POIN2 Label_010DDB30
//  #01 //051   ----------------------------------------
 BYTE   W84
 BYTE   W02
 BYTE   EOT
 BYTE   BnM1  v035
 BYTE   W10
//  #01 //052   ----------------------------------------
 BYTE   PATT
  POIN2 Label_010DDB3D
//  #01 //053   ----------------------------------------
 BYTE   W84
 BYTE   W02
 BYTE   EOT
 BYTE   Cs0  v037
 BYTE   W10
//  #01 //054   ----------------------------------------
 BYTE   PATT
  POIN2 Label_010DDB4A
//  #01 //055   ----------------------------------------
 BYTE   W84
 BYTE   W02
 BYTE   EOT
 BYTE   AsM1  v034
 BYTE   W10
//  #01 //056   ----------------------------------------
Label_010DDC84:
 BYTE   N90  Ds0  v092
 BYTE   N90  Ds1
 BYTE   W72
 BYTE   N22  Cs4
 BYTE   N22  Cs5
 BYTE   W24
 BYTE   PEND 
//  #01 //057   ----------------------------------------
Label_010DDC90:
 BYTE   N90  Fs0  v092
 BYTE   N90  Fs1
 BYTE   N17  Gs4
 BYTE   N17  Gs5
 BYTE   W18
 BYTE   Fs4
 BYTE   N17  Fs5
 BYTE   W18
 BYTE   N11  Gs4
 BYTE   N11  Gs5
 BYTE   W24
 BYTE   As4
 BYTE   N11  As5
 BYTE   W12
 BYTE   N01  Cn6
 BYTE   W01
 BYTE   Bn5
 BYTE   W02
 BYTE   An5
 BYTE   W01
 BYTE   Gn5
 BYTE   W02
 BYTE   Fn5
 BYTE   W01
 BYTE   En5
 BYTE   W02
 BYTE   Dn5
 BYTE   W01
 BYTE   Cn5
 BYTE   W02
 BYTE   Bn4
 BYTE   W01
 BYTE   An4
 BYTE   W02
 BYTE   Gn4
 BYTE   W01
 BYTE   Fn4
 BYTE   W02
 BYTE   En4
 BYTE   W01
 BYTE   Dn4
 BYTE   W02
 BYTE   Cn4
 BYTE   W01
 BYTE   Bn3
 BYTE   W02
 BYTE   PEND 
//  #01 //058   ----------------------------------------
 BYTE   N90  BnM1
 BYTE   N90  Bn0
 BYTE   W96
//  #01 //059   ----------------------------------------
 BYTE   BnM1
 BYTE   N90  Bn0
 BYTE   W96
//  #01 //060   ----------------------------------------
 BYTE   Cs0
 BYTE   N90  Cs1
 BYTE   W96
//  #01 //061   ----------------------------------------
 BYTE   Cs0
 BYTE   N90  Cs1
 BYTE   W96
//  #01 //062   ----------------------------------------
 BYTE   AsM1
 BYTE   N90  As0
 BYTE   W96
//  #01 //063   ----------------------------------------
 BYTE   AsM1
 BYTE   N90  As0
 BYTE   W96
//  #01 //064   ----------------------------------------
 BYTE   Ds0
 BYTE   N90  Ds1
 BYTE   W96
//  #01 //065   ----------------------------------------
 BYTE   Fs0
 BYTE   N90  Fs1
 BYTE   W96
//  #01 //066   ----------------------------------------
Label_010DDCEA:
 BYTE   N11  Bn0  v092
 BYTE   W12
 BYTE   Bn1
 BYTE   W12
 BYTE   Gs0
 BYTE   W12
 BYTE   Gs1
 BYTE   W12
 BYTE   As0
 BYTE   W12
 BYTE   As1
 BYTE   W12
 BYTE   As0
 BYTE   W12
 BYTE   As1
 BYTE   W12
 BYTE   PEND 
//  #01 //067   ----------------------------------------
Label_010DDCFD:
 BYTE   N11  Bn0  v092
 BYTE   W12
 BYTE   Bn1
 BYTE   W12
 BYTE   Bn0
 BYTE   W12
 BYTE   Bn1
 BYTE   W12
 BYTE   As0
 BYTE   W12
 BYTE   As1
 BYTE   W12
 BYTE   As0
 BYTE   W12
 BYTE   As1
 BYTE   W12
 BYTE   PEND 
//  #01 //068   ----------------------------------------
Label_010DDD10:
 BYTE   N11  Gs0  v092
 BYTE   W12
 BYTE   Gs1
 BYTE   W12
 BYTE   Gs0
 BYTE   W12
 BYTE   Gs1
 BYTE   W12
 BYTE   As0
 BYTE   W12
 BYTE   As1
 BYTE   W12
 BYTE   As0
 BYTE   W12
 BYTE   As1
 BYTE   W12
 BYTE   PEND 
//  #01 //069   ----------------------------------------
Label_010DDD23:
 BYTE   N11  Bn0  v092
 BYTE   W12
 BYTE   Bn1
 BYTE   W12
 BYTE   Bn0
 BYTE   W12
 BYTE   Bn1
 BYTE   W12
 BYTE   Bn0
 BYTE   W12
 BYTE   Bn1
 BYTE   W12
 BYTE   Bn0
 BYTE   W12
 BYTE   Bn1
 BYTE   W12
 BYTE   PEND 
//  #01 //070   ----------------------------------------
Label_010DDD36:
 BYTE   N32  Gs0  v092
 BYTE   N32  Gs1
 BYTE   W36
 BYTE   As0
 BYTE   N32  As1
 BYTE   W36
 BYTE   Bn0
 BYTE   N32  Bn1
 BYTE   W24
 BYTE   PEND 
//  #01 //071   ----------------------------------------
Label_010DDD45:
 BYTE   W12
 BYTE   N32  As0  v092
 BYTE   N32  As1
 BYTE   W36
 BYTE   N22  Ds0
 BYTE   N22  Ds1
 BYTE   W24
 BYTE   Cs0
 BYTE   N22  Cs1
 BYTE   W24
 BYTE   PEND 
//  #01 //072   ----------------------------------------
Label_010DDD56:
 BYTE   N44  Gs0  v092
 BYTE   N44  Gs1
 BYTE   W48
 BYTE   N32  As0
 BYTE   N32  As1
 BYTE   W36
 BYTE   N11  Bn0
 BYTE   N11  Bn1
 BYTE   W12
 BYTE   PEND 
//  #01 //073   ----------------------------------------
Label_010DDD67:
 BYTE   N12  Cs1  v092
 BYTE   N22  Cs2
 BYTE   W96
 BYTE   PEND 
//  #01 //074   ----------------------------------------
 BYTE   PATT
  POIN2 Label_010DDB30
//  #01 //075   ----------------------------------------
 BYTE   W84
 BYTE   W02
 BYTE   EOT
 BYTE   BnM1  v035
 BYTE   W10
//  #01 //076   ----------------------------------------
 BYTE   PATT
  POIN2 Label_010DDB3D
//  #01 //077   ----------------------------------------
 BYTE   W84
 BYTE   W02
 BYTE   EOT
 BYTE   Cs0  v037
 BYTE   W10
//  #01 //078   ----------------------------------------
 BYTE   PATT
  POIN2 Label_010DDB4A
//  #01 //079   ----------------------------------------
 BYTE   W84
 BYTE   W02
 BYTE   EOT
 BYTE   AsM1  v034
 BYTE   W10
//  #01 //080   ----------------------------------------
 BYTE   N90  Ds0  v092
 BYTE   N90  Ds1
 BYTE   W96
//  #01 //081   ----------------------------------------
 BYTE   W96
//  #01 //082   ----------------------------------------
 BYTE   W96
//  #01 //083   ----------------------------------------
 BYTE   W48
 BYTE   N44  Bn0
 BYTE   W48
//  #01 //084   ----------------------------------------
 BYTE   TIE  As0
 BYTE   W96
//  #01 //085   ----------------------------------------
 BYTE   W84
 BYTE   W02
 BYTE   EOT
 BYTE   W10
//  #01 //086   ----------------------------------------
 BYTE   N90  Ds1
 BYTE   W96
//  #01 //087   ----------------------------------------
 BYTE   Cs1
 BYTE   W96
//  #01 //088   ----------------------------------------
 BYTE   Cn1
 BYTE   W96
//  #01 //089   ----------------------------------------
 BYTE   N90
 BYTE   W96
//  #01 //090   ----------------------------------------
 BYTE   PATT
  POIN2 Label_010DDB79
//  #01 //091   ----------------------------------------
 BYTE   W12
 BYTE   N11  Bn1  v092
 BYTE   W12
 BYTE   Bn0
 BYTE   W24
 BYTE   N11
 BYTE   W18
 BYTE   N11
 BYTE   W18
 BYTE   N11
 BYTE   W12
//  #01 //092   ----------------------------------------
 BYTE   PATT
  POIN2 Label_010DDB99
//  #01 //093   ----------------------------------------
 BYTE   PATT
  POIN2 Label_010DDBAC
//  #01 //094   ----------------------------------------
 BYTE   PATT
  POIN2 Label_010DDBBC
//  #01 //095   ----------------------------------------
 BYTE   PATT
  POIN2 Label_010DDBD1
//  #01 //096   ----------------------------------------
 BYTE   PATT
  POIN2 Label_010DDBE4
//  #01 //097   ----------------------------------------
 BYTE   PATT
  POIN2 Label_010DDBF9
//  #01 //098   ----------------------------------------
 BYTE   N90  Cs1  v092
 BYTE   W96
//  #01 //099   ----------------------------------------
 BYTE   N90
 BYTE   W96
//  #01 //100   ----------------------------------------
 BYTE   Bn0
 BYTE   W96
//  #01 //101   ----------------------------------------
 BYTE   As0
 BYTE   W96
//  #01 //102   ----------------------------------------
 BYTE   TIE  Gs0  v032
 BYTE   N11  Cs4  v012
 BYTE   W12
 BYTE   Fn3
 BYTE   W12
 BYTE   Fs3
 BYTE   W12
 BYTE   Cs4
 BYTE   W12
 BYTE   Fn3
 BYTE   W12
 BYTE   Fs3
 BYTE   W12
 BYTE   Cs4
 BYTE   W12
 BYTE   Fn3
 BYTE   W12
//  #01 //103   ----------------------------------------
 BYTE   Fs3
 BYTE   W12
 BYTE   Cs4
 BYTE   W12
 BYTE   Fn3
 BYTE   W12
 BYTE   Fs3
 BYTE   W12
 BYTE   Cs4
 BYTE   W12
 BYTE   Fn3
 BYTE   W12
 BYTE   Fs3
 BYTE   W12
 BYTE   Cs4
 BYTE   W07
 BYTE   EOT
 BYTE   Gs0
 BYTE   W05
//  #01 //104   ----------------------------------------
 BYTE   N90  Bn0  v092
 BYTE   W96
//  #01 //105   ----------------------------------------
 BYTE   PATT
  POIN2 Label_010DDC3E
//  #01 //106   ----------------------------------------
 BYTE   N90  Gs0  v092
 BYTE   W84
 BYTE   N11  Fs3
 BYTE   N11  Cs4
 BYTE   N11  Fs4
 BYTE   W12
//  #01 //107   ----------------------------------------
 BYTE   N44  Cs0
 BYTE   N44  Gs0
 BYTE   N44  Cs1
 BYTE   N22  Fs3
 BYTE   N22  Cs4
 BYTE   N22  Fs4
 BYTE   W24
 BYTE   N13  Cs4
 BYTE   N06  Fn4
 BYTE   W24
 BYTE   N01  Cn6
 BYTE   W01
 BYTE   Bn5
 BYTE   W02
 BYTE   An5
 BYTE   W01
 BYTE   Gn5
 BYTE   W02
 BYTE   Fn5
 BYTE   W01
 BYTE   En5
 BYTE   W02
 BYTE   Dn5
 BYTE   W01
 BYTE   Cn5
 BYTE   W02
 BYTE   Bn4
 BYTE   W01
 BYTE   An4
 BYTE   W02
 BYTE   Gn4
 BYTE   W01
 BYTE   Fn4
 BYTE   W02
 BYTE   En4
 BYTE   W01
 BYTE   Dn4
 BYTE   W02
 BYTE   Cn4
 BYTE   W01
 BYTE   Bn3
 BYTE   W02
 BYTE   An3
 BYTE   W01
 BYTE   Gn3
 BYTE   W02
 BYTE   Fn3
 BYTE   W01
 BYTE   En3
 BYTE   W02
 BYTE   Dn3
 BYTE   W01
 BYTE   Cn3
 BYTE   W02
 BYTE   Bn2
 BYTE   W01
 BYTE   An2
 BYTE   W02
 BYTE   Gn2
 BYTE   W01
 BYTE   Fn2
 BYTE   W02
 BYTE   En2
 BYTE   W01
 BYTE   Dn2
 BYTE   W02
 BYTE   Cn2
 BYTE   W01
 BYTE   Bn1
 BYTE   W02
 BYTE   An1
 BYTE   W01
 BYTE   Gn1
 BYTE   W02
//  #01 //108   ----------------------------------------
 BYTE   PATT
  POIN2 Label_010DDB30
//  #01 //109   ----------------------------------------
 BYTE   W84
 BYTE   W02
 BYTE   EOT
 BYTE   BnM1  v035
 BYTE   W10
//  #01 //110   ----------------------------------------
 BYTE   PATT
  POIN2 Label_010DDB3D
//  #01 //111   ----------------------------------------
 BYTE   W84
 BYTE   W02
 BYTE   EOT
 BYTE   Cs0  v037
 BYTE   W10
//  #01 //112   ----------------------------------------
 BYTE   PATT
  POIN2 Label_010DDB4A
//  #01 //113   ----------------------------------------
 BYTE   W84
 BYTE   W02
 BYTE   EOT
 BYTE   AsM1  v034
 BYTE   W10
//  #01 //114   ----------------------------------------
 BYTE   PATT
  POIN2 Label_010DDC84
//  #01 //115   ----------------------------------------
 BYTE   PATT
  POIN2 Label_010DDC90
//  #01 //116   ----------------------------------------
 BYTE   N90  BnM1  v092
 BYTE   N90  Bn0
 BYTE   W96
//  #01 //117   ----------------------------------------
 BYTE   BnM1
 BYTE   N90  Bn0
 BYTE   W96
//  #01 //118   ----------------------------------------
 BYTE   Cs0
 BYTE   N90  Cs1
 BYTE   W96
//  #01 //119   ----------------------------------------
 BYTE   Cs0
 BYTE   N90  Cs1
 BYTE   W96
//  #01 //120   ----------------------------------------
 BYTE   AsM1
 BYTE   N90  As0
 BYTE   W96
//  #01 //121   ----------------------------------------
 BYTE   AsM1
 BYTE   N90  As0
 BYTE   W96
//  #01 //122   ----------------------------------------
 BYTE   Ds0
 BYTE   N90  Ds1
 BYTE   W96
//  #01 //123   ----------------------------------------
 BYTE   Fs0
 BYTE   N90  Fs1
 BYTE   W96
//  #01 //124   ----------------------------------------
 BYTE   PATT
  POIN2 Label_010DDCEA
//  #01 //125   ----------------------------------------
 BYTE   PATT
  POIN2 Label_010DDCFD
//  #01 //126   ----------------------------------------
 BYTE   PATT
  POIN2 Label_010DDD10
//  #01 //127   ----------------------------------------
 BYTE   PATT
  POIN2 Label_010DDD23
//  #01 //128   ----------------------------------------
 BYTE   PATT
  POIN2 Label_010DDD36
//  #01 //129   ----------------------------------------
 BYTE   PATT
  POIN2 Label_010DDD45
//  #01 //130   ----------------------------------------
 BYTE   PATT
  POIN2 Label_010DDD56
//  #01 //131   ----------------------------------------
 BYTE   PATT
  POIN2 Label_010DDD67
//  #01 //132   ----------------------------------------
 BYTE   N68  Gs0  v092
 BYTE   N68  Gs1
 BYTE   W72
 BYTE   N90  As0
 BYTE   N90  As1
 BYTE   W24
//  #01 //133   ----------------------------------------
 BYTE   W72
 BYTE   N22  As0
 BYTE   N22  As1
 BYTE   W24
//  #01 //134   ----------------------------------------
 BYTE   N68  Bn0
 BYTE   N68  Bn1
 BYTE   W72
 BYTE   TIE  Cs1
 BYTE   TIE  Cs2
 BYTE   W24
//  #01 //135   ----------------------------------------
 BYTE   W88
 BYTE   W01
 BYTE   EOT
 BYTE   Cs1  v049
 BYTE   W07
//  #01 //136   ----------------------------------------
 BYTE   N90  Gs0
 BYTE   N90  Gs1
 BYTE   W96
//  #01 //137   ----------------------------------------
 BYTE   As0
 BYTE   N90  As1
 BYTE   W96
//  #01 //138   ----------------------------------------
 BYTE   Bn0
 BYTE   N90  Bn1
 BYTE   W96
//  #01 //139   ----------------------------------------
 BYTE   N02  Cs3
 BYTE   N01  Cn7
 BYTE   W01
 BYTE   Bn6
 BYTE   W02
 BYTE   N02  As2
 BYTE   N01  An6
 BYTE   W01
 BYTE   Gn6
 BYTE   W02
 BYTE   N02  Gs2
 BYTE   N01  Fn6
 BYTE   W01
 BYTE   En6
 BYTE   W02
 BYTE   N02  Fs2
 BYTE   N01  Dn6
 BYTE   W01
 BYTE   Cn6
 BYTE   W02
 BYTE   N02  Ds2
 BYTE   N01  Bn5
 BYTE   W01
 BYTE   An5
 BYTE   W02
 BYTE   N02  Cs2
 BYTE   N01  Gn5
 BYTE   W01
 BYTE   Fn5
 BYTE   W02
 BYTE   N02  As1
 BYTE   N01  En5
 BYTE   W01
 BYTE   Dn5
 BYTE   W02
 BYTE   N02  Gs1
 BYTE   N01  Cn5
 BYTE   W01
 BYTE   Bn4
 BYTE   W02
 BYTE   N02  Fs1
 BYTE   N01  An4
 BYTE   W01
 BYTE   Gn4
 BYTE   W02
 BYTE   N02  Ds1
 BYTE   N01  Fn4
 BYTE   W01
 BYTE   En4
 BYTE   W02
 BYTE   N02  Cs1
 BYTE   N01  Dn4
 BYTE   W01
 BYTE   Cn4
 BYTE   W02
 BYTE   N02  As0
 BYTE   W03
 BYTE   Gs0
 BYTE   N11  Fs3  v127
 BYTE   N11  Cs4
 BYTE   N11  Fs4
 BYTE   W03
 BYTE   N02  Fs0  v092
 BYTE   W03
 BYTE   Ds0
 BYTE   W03
 BYTE   Cs0
 BYTE   W03
 BYTE   N44
 BYTE   N44  Cs1
 BYTE   N23  As3  v127
 BYTE   N23  Fn4
 BYTE   N23  As4
 BYTE   W24
 BYTE   Cs4
 BYTE   N23  Gs4
 BYTE   N23  Cs5
 BYTE   W24
//  #01 //140   ----------------------------------------
 BYTE   N90  BnM1  v092
 BYTE   N90  Bn0
 BYTE   N22  Ds4
 BYTE   N22  Fs4
 BYTE   N22  As4
 BYTE   W24
 BYTE   N11  Ds4
 BYTE   N11  Fs4
 BYTE   N11  As4
 BYTE   W12
 BYTE   N22  Ds4
 BYTE   N22  Fs4
 BYTE   N22  As4
 BYTE   W24
 BYTE   N11  Ds4
 BYTE   N11  Fs4
 BYTE   N11  As4
 BYTE   W12
 BYTE   Ds4
 BYTE   N11  Fs4
 BYTE   N11  As4
 BYTE   W12
 BYTE   Ds4
 BYTE   N11  Fs4
 BYTE   N11  As4
 BYTE   W12
//  #01 //141   ----------------------------------------
 BYTE   N90  Cs0
 BYTE   N90  Cs1
 BYTE   N11  Cs4
 BYTE   N11  Fn4
 BYTE   N11  As4
 BYTE   W12
 BYTE   Cs4
 BYTE   N11  Fn4
 BYTE   N11  As4
 BYTE   W12
 BYTE   Cs4
 BYTE   N11  Fn4
 BYTE   N11  As4
 BYTE   W12
 BYTE   N22  Cs4
 BYTE   N22  Fn4
 BYTE   N22  As4
 BYTE   W24
 BYTE   N11
 BYTE   N11  As5
 BYTE   W12
 BYTE   Bn4
 BYTE   N11  Bn5
 BYTE   W12
 BYTE   N22  Cs5
 BYTE   N22  Cs6
 BYTE   W12
//  #01 //142   ----------------------------------------
 BYTE   N90  AsM1
 BYTE   N90  As0
 BYTE   W12
 BYTE   N11  Cs5
 BYTE   N11  Cs6
 BYTE   W12
 BYTE   Bn4
 BYTE   N11  Bn5
 BYTE   W12
 BYTE   N22  As4
 BYTE   N22  As5
 BYTE   W24
 BYTE   N11  As4
 BYTE   N11  As5
 BYTE   W12
 BYTE   Cs5
 BYTE   N11  Cs6
 BYTE   W12
 BYTE   N22  Gs5
 BYTE   N22  Gs6
 BYTE   W12
//  #01 //143   ----------------------------------------
 BYTE   N90  Ds0
 BYTE   N90  Ds1
 BYTE   W12
 BYTE   N11  Fs5
 BYTE   N11  Fs6
 BYTE   W12
 BYTE   Fn5
 BYTE   N11  Fn6
 BYTE   W12
 BYTE   Fs5
 BYTE   N11  Fs6
 BYTE   W12
 BYTE   N01  Fn6
 BYTE   W01
 BYTE   En6
 BYTE   W02
 BYTE   Dn6
 BYTE   W01
 BYTE   Cn6
 BYTE   W02
 BYTE   Bn5
 BYTE   W01
 BYTE   An5
 BYTE   W02
 BYTE   Gn5
 BYTE   W01
 BYTE   Fn5
 BYTE   W02
 BYTE   En5
 BYTE   W01
 BYTE   Dn5
 BYTE   W02
 BYTE   Cn5
 BYTE   W01
 BYTE   Bn4
 BYTE   W02
 BYTE   An4
 BYTE   W01
 BYTE   Gn4
 BYTE   W02
 BYTE   Fn4
 BYTE   W01
 BYTE   En4
 BYTE   W02
 BYTE   N22  Cs4
 BYTE   N22  Fs4
 BYTE   N22  As4
 BYTE   N22  Cs5
 BYTE   W24
//  #01 //144   ----------------------------------------
 BYTE   Gs0
 BYTE   N22  Gs1
 BYTE   W24
 BYTE   As0
 BYTE   N22  As1
 BYTE   W24
 BYTE   Bn0
 BYTE   N22  Bn1
 BYTE   W24
 BYTE   As0
 BYTE   N22  As1
 BYTE   W24
//  #01 //145   ----------------------------------------
 BYTE   Gs0
 BYTE   N22  Gs1
 BYTE   W24
 BYTE   As0
 BYTE   N22  As1
 BYTE   W24
 BYTE   Gs0
 BYTE   N22  Gs1
 BYTE   W24
 BYTE   As0
 BYTE   N22  As1
 BYTE   W24
//  #01 //146   ----------------------------------------
 BYTE   Bn0
 BYTE   N22  Bn1
 BYTE   W24
 BYTE   Bn0
 BYTE   N22  Bn1
 BYTE   W24
 BYTE   Bn0
 BYTE   N22  Bn1
 BYTE   W24
 BYTE   Bn0
 BYTE   N22  Bn1
 BYTE   W24
//  #01 //147   ----------------------------------------
 BYTE   Cs1
 BYTE   N22  Cs2
 BYTE   W24
 BYTE   Cs1
 BYTE   N22  Cs2
 BYTE   W24
 BYTE   Cs1
 BYTE   N22  Cs2
 BYTE   W24
 BYTE   Cs1
 BYTE   N22  Cs2
 BYTE   W24
//  #01 //148   ----------------------------------------
Label_010DE07E:
 BYTE   N22  Fs0  v092
 BYTE   N22  Fs1
 BYTE   W24
 BYTE   Fs0
 BYTE   N22  Fs1
 BYTE   W24
 BYTE   Fs0
 BYTE   N22  Fs1
 BYTE   W24
 BYTE   Fs0
 BYTE   N22  Fs1
 BYTE   W24
 BYTE   PEND 
//  #01 //149   ----------------------------------------
 BYTE   PATT
  POIN2 Label_010DE07E
//  #01 //150   ----------------------------------------
 BYTE   TIE  Cs0  v092
 BYTE   TIE  Cs1
 BYTE   TIE  Gs3
 BYTE   TIE  Cs4
 BYTE   TIE  Fn4
 BYTE   TIE  Gs4
 BYTE   W96
//  #01 //151   ----------------------------------------
 BYTE   W84
 BYTE   W02
 BYTE   EOT
 BYTE   Cs0  v037
 BYTE   Gs3  v073
 BYTE   Fn4  v080
 BYTE   W10
//  #01 //152   ----------------------------------------
 BYTE   N32  Ds1  v036
 BYTE   W36
 BYTE   As1
 BYTE   W36
 BYTE   Ds1
 BYTE   W24
//  #01 //153   ----------------------------------------
 BYTE   W12
 BYTE   As1
 BYTE   W36
 BYTE   N44  Ds1
 BYTE   W48
//  #01 //154   ----------------------------------------
 BYTE   N32  Bn0
 BYTE   W36
 BYTE   Fs1
 BYTE   W36
 BYTE   Bn0
 BYTE   W24
//  #01 //155   ----------------------------------------
 BYTE   W12
 BYTE   Fs1
 BYTE   W36
 BYTE   N44  Bn0
 BYTE   W48
//  #01 //156   ----------------------------------------
 BYTE   N90  Cs1
 BYTE   N90  Cs2
 BYTE   W96
//  #01 //157   ----------------------------------------
 BYTE   N44  Dn1
 BYTE   N44  Dn2
 BYTE   W48
 BYTE   As0
 BYTE   N44  As1
 BYTE   W48
//  #01 //158   ----------------------------------------
 BYTE   N90  Ds0
 BYTE   N90  Ds1
 BYTE   W96
//  #01 //159   ----------------------------------------
 BYTE   N22  As0
 BYTE   N22  As1
 BYTE   W48
 BYTE   N44  As0  v060
 BYTE   N36  As1
 BYTE   W48
//  #01 //160   ----------------------------------------
 BYTE   N22  Gs0
 BYTE   N22  Gs1
 BYTE   W24
 BYTE   Gs0
 BYTE   N22  Gs1
 BYTE   W24
 BYTE   Gs0
 BYTE   N22  Gs1
 BYTE   W24
 BYTE   Gs0
 BYTE   N22  Gs1
 BYTE   W24
//  #01 //161   ----------------------------------------
 BYTE   As0
 BYTE   N22  As1
 BYTE   W24
 BYTE   As0
 BYTE   N22  As1
 BYTE   W24
 BYTE   As0
 BYTE   N22  As1
 BYTE   W24
 BYTE   As0
 BYTE   N22  As1
 BYTE   W24
//  #01 //162   ----------------------------------------
Label_010DE108:
 BYTE   N22  Bn0  v060
 BYTE   N22  Bn1
 BYTE   W24
 BYTE   Bn0
 BYTE   N22  Bn1
 BYTE   W24
 BYTE   Bn0
 BYTE   N22  Bn1
 BYTE   W24
 BYTE   Bn0
 BYTE   N22  Bn1
 BYTE   W24
 BYTE   PEND 
//  #01 //163   ----------------------------------------
 BYTE   As0
 BYTE   N22  As1
 BYTE   W24
 BYTE   As0
 BYTE   N22  As1
 BYTE   W24
 BYTE   An0
 BYTE   N22  An1
 BYTE   W24
 BYTE   An0
 BYTE   N22  An1
 BYTE   W24
//  #01 //164   ----------------------------------------
 BYTE   N32  Gs0
 BYTE   N32  Gs1
 BYTE   W36
 BYTE   Gs0
 BYTE   N32  Gs1
 BYTE   W36
 BYTE   Gs0
 BYTE   N32  Gs1
 BYTE   W24
//  #01 //165   ----------------------------------------
 BYTE   W12
 BYTE   Gs0
 BYTE   N32  Gs1
 BYTE   W36
 BYTE   N44  Gs0
 BYTE   N44  Gs1
 BYTE   W48
//  #01 //166   ----------------------------------------
 BYTE   PATT
  POIN2 Label_010DE108
//  #01 //167   ----------------------------------------
 BYTE   PATT
  POIN2 Label_010DE108
//  #01 //168   ----------------------------------------
 BYTE   N22  Cs1  v060
 BYTE   N22  Cs2
 BYTE   W24
 BYTE   Cs1
 BYTE   N22  Cs2
 BYTE   W24
 BYTE   Cs1
 BYTE   N22  Cs2
 BYTE   W24
 BYTE   Cs1
 BYTE   N22  Cs2
 BYTE   W24
//  #01 //169   ----------------------------------------
 BYTE   Cs1
 BYTE   N22  Cs2
 BYTE   W24
 BYTE   Cs1  v072
 BYTE   N22  Cs2
 BYTE   W24
 BYTE   Cs1  v076
 BYTE   N22  Cs2
 BYTE   W24
 BYTE   Cs1  v088
 BYTE   N22  Cs2
 BYTE   W12
 BYTE   N11  Fs4  v092
 BYTE   N11  Fs5
 BYTE   W12
//  #01 //170   ----------------------------------------
 BYTE   N22  As0
 BYTE   N22  Dn1
 BYTE   N22  As1
 BYTE   N32  Cs5
 BYTE   N32  Cs6
 BYTE   W24
 BYTE   N22  As0
 BYTE   N22  As1
 BYTE   W12
 BYTE   N11  Bn4
 BYTE   N11  Bn5
 BYTE   W12
 BYTE   N22  As0
 BYTE   N22  As1
 BYTE   N32  Bn4
 BYTE   N32  Bn5
 BYTE   W24
 BYTE   N22  As0
 BYTE   N22  As1
 BYTE   W12
 BYTE   N11  As4
 BYTE   N11  As5
 BYTE   W12
//  #01 //171   ----------------------------------------
 BYTE   N22  As0
 BYTE   N22  As1
 BYTE   N22  As4
 BYTE   N22  As5
 BYTE   W24
 BYTE   As0
 BYTE   N22  As1
 BYTE   N22  Gs4
 BYTE   N22  Gs5
 BYTE   W24
 BYTE   As0
 BYTE   N22  As1
 BYTE   N22  Bn4
 BYTE   N22  Bn5
 BYTE   W24
 BYTE   N11  As0
 BYTE   N11  As1
 BYTE   N22  As4
 BYTE   N22  As5
 BYTE   W12
 BYTE   N11  As0
 BYTE   N11  Fn1
 BYTE   N11  As1
 BYTE   W12
//  #01 //172   ----------------------------------------
 BYTE   W96
//  #01 //173   ----------------------------------------
 BYTE   W96
//  #01 //174   ----------------------------------------
 BYTE   N22  As3
 BYTE   N22  As4
 BYTE   W24
 BYTE   N11  Gs3
 BYTE   N11  Gs4
 BYTE   W12
 BYTE   N22  Gs3
 BYTE   N22  Gs4
 BYTE   W24
 BYTE   N11  Fs3
 BYTE   N11  Fs4
 BYTE   W12
 BYTE   N44  Fs3
 BYTE   N44  Fs4
 BYTE   W24
//  #01 //175   ----------------------------------------
 BYTE   W48
 BYTE   BnM1  v127
 BYTE   N44  Fs0
 BYTE   N44  Bn0
 BYTE   W48
//  #01 //176   ----------------------------------------
 BYTE   N32  Cs0  v092
 BYTE   N32  Cs1
 BYTE   W36
 BYTE   Cs0
 BYTE   N32  Cs1
 BYTE   W36
 BYTE   Cs0
 BYTE   N32  Cs1
 BYTE   W24
//  #01 //177   ----------------------------------------
 BYTE   W12
 BYTE   Cs0
 BYTE   N32  Cs1
 BYTE   W36
 BYTE   N22  Cs0
 BYTE   N22  Cs1
 BYTE   W24
 BYTE   Cs0
 BYTE   N22  Cs1
 BYTE   W24
//  #01 //178   ----------------------------------------
 BYTE   N32  AsM1
 BYTE   N32  As0
 BYTE   W36
 BYTE   AsM1
 BYTE   N32  As0
 BYTE   W36
 BYTE   AsM1
 BYTE   N32  As0
 BYTE   W24
//  #01 //179   ----------------------------------------
 BYTE   W12
 BYTE   AsM1
 BYTE   N32  As0
 BYTE   W36
 BYTE   N22  AsM1
 BYTE   N22  As0
 BYTE   W24
 BYTE   AsM1
 BYTE   N22  As0
 BYTE   W24
//  #01 //180   ----------------------------------------
 BYTE   N11  Ds0
 BYTE   N11  Ds1
 BYTE   W12
 BYTE   Fs2
 BYTE   N11  Fs3
 BYTE   N11  Fs4
 BYTE   N11  Fs5
 BYTE   W12
 BYTE   Fn2
 BYTE   N11  Fn3
 BYTE   N11  Fn4
 BYTE   N11  Fn5
 BYTE   W12
 BYTE   Cs2
 BYTE   N11  Cs3
 BYTE   N11  Cs4
 BYTE   N11  Cs5
 BYTE   W12
 BYTE   Gs1
 BYTE   N11  Gs2
 BYTE   N11  Gs3
 BYTE   N11  Gs4
 BYTE   W12
 BYTE   Fs1
 BYTE   N11  Fs2
 BYTE   N11  Fs3
 BYTE   N11  Fs4
 BYTE   W12
 BYTE   N22  Cs1
 BYTE   N22  Cs2
 BYTE   N22  Cs4
 BYTE   N22  Cs5
 BYTE   W24
//  #01 //181   ----------------------------------------
 BYTE   PATT
  POIN2 Label_010DDC90
//  #01 //182   ----------------------------------------
 BYTE   N90  BnM1  v092
 BYTE   N90  Bn0
 BYTE   W96
//  #01 //183   ----------------------------------------
 BYTE   BnM1
 BYTE   N90  Bn0
 BYTE   W96
//  #01 //184   ----------------------------------------
 BYTE   Cs0
 BYTE   N90  Cs1
 BYTE   W96
//  #01 //185   ----------------------------------------
 BYTE   Cs0
 BYTE   N90  Cs1
 BYTE   W96
//  #01 //186   ----------------------------------------
 BYTE   AsM1
 BYTE   N90  As0
 BYTE   W96
//  #01 //187   ----------------------------------------
 BYTE   AsM1
 BYTE   N90  As0
 BYTE   W96
//  #01 //188   ----------------------------------------
 BYTE   Ds0
 BYTE   N90  Ds1
 BYTE   W96
//  #01 //189   ----------------------------------------
 BYTE   Fs0
 BYTE   N90  Fs1
 BYTE   W96
//  #01 //190   ----------------------------------------
 BYTE   PATT
  POIN2 Label_010DDCEA
//  #01 //191   ----------------------------------------
 BYTE   PATT
  POIN2 Label_010DDCFD
//  #01 //192   ----------------------------------------
 BYTE   PATT
  POIN2 Label_010DDD10
//  #01 //193   ----------------------------------------
 BYTE   PATT
  POIN2 Label_010DDD23
//  #01 //194   ----------------------------------------
 BYTE   PATT
  POIN2 Label_010DDD36
//  #01 //195   ----------------------------------------
 BYTE   PATT
  POIN2 Label_010DDD45
//  #01 //196   ----------------------------------------
 BYTE   PATT
  POIN2 Label_010DDD56
//  #01 //197   ----------------------------------------
 BYTE   N12  Cs1  v092
 BYTE   N22  Cs2
 BYTE   W36
 BYTE   N11  Cs4  v127
 BYTE   N11  Cs5
 BYTE   W12
 BYTE   N32  Bn4
 BYTE   N32  Bn5
 BYTE   W36
 BYTE   N11  As4
 BYTE   N11  As5
 BYTE   W12
//  #01 //198   ----------------------------------------
 BYTE   PATT
  POIN2 Label_010DDB30
//  #01 //199   ----------------------------------------
 BYTE   W84
 BYTE   W02
 BYTE   EOT
 BYTE   BnM1  v035
 BYTE   W10
//  #01 //200   ----------------------------------------
 BYTE   PATT
  POIN2 Label_010DDB3D
//  #01 //201   ----------------------------------------
 BYTE   W84
 BYTE   W02
 BYTE   EOT
 BYTE   Cs0  v037
 BYTE   W10
//  #01 //202   ----------------------------------------
 BYTE   N78  Gs0  v092
 BYTE   N78  Gs1
 BYTE   W84
 BYTE   As0
 BYTE   N78  As1
 BYTE   W12
//  #01 //203   ----------------------------------------
 BYTE   W72
 BYTE   N22  Cs0
 BYTE   N22  Cs1
 BYTE   W24
//  #01 //204   ----------------------------------------
 BYTE   N90  BnM1
 BYTE   N90  Bn0
 BYTE   W96
//  #01 //205   ----------------------------------------
 BYTE   N11  Cs0
 BYTE   N11  Gs0
 BYTE   N11  Cs1
 BYTE   W18
 BYTE   Cs0
 BYTE   N11  Gs0
 BYTE   N11  Cs1
 BYTE   W18
 BYTE   Cs0
 BYTE   N11  Gs0
 BYTE   N11  Cs1
 BYTE   W12
 BYTE   Cs0
 BYTE   N11  Gs0
 BYTE   N11  Cs1
 BYTE   W18
 BYTE   Cs0
 BYTE   N11  Gs0
 BYTE   N11  Cs1
 BYTE   W18
 BYTE   Cs0
 BYTE   N11  Gs0
 BYTE   N11  Cs1
 BYTE   W12
//  #01 //206   ----------------------------------------
 BYTE   W24
 BYTE   TIE  Bn1  v024
 BYTE   TIE  Fs2
 BYTE   N92  Fn5
 BYTE   W03
 BYTE   N32  Cs5
 BYTE   W32
 BYTE   W01
 BYTE   N56
 BYTE   W36
//  #01 //207   ----------------------------------------
 BYTE   N11  Gs4
 BYTE   W36
 BYTE   Fs4
 BYTE   W36
 BYTE   Fn4
 BYTE   W24
//  #01 //208   ----------------------------------------
 BYTE   Cs4
 BYTE   W24
 BYTE   Gs3
 BYTE   W36
 BYTE   Fs3
 BYTE   W36
//  #01 //209   ----------------------------------------
 BYTE   Fn3
 BYTE   W36
 BYTE   Cs3
 BYTE   W36
 BYTE   Gs2
 BYTE   W24
//  #01 //210   ----------------------------------------
 BYTE   EOT
 BYTE   Fs2
 BYTE   TIE
 BYTE   W96
//  #01 //211   ----------------------------------------
 BYTE   W96
//  #01 //212   ----------------------------------------
 BYTE   W96
//  #01 //213   ----------------------------------------
 BYTE   W56
 BYTE   W02
 BYTE   EOT
 BYTE   Bn1
 BYTE   W18
 BYTE   Fs2
 BYTE   FINE

//**************** Track 2 (Midi-Chn.1) ****************//

song38_002:
//  #02 //000   ----------------------------------------
 BYTE   KEYSH   song38_key+0
 BYTE   VOICE   121
 BYTE   MODT 0
 BYTE   LFOS 44
 BYTE   VOL   107*song38_mvl/mxv
 BYTE   MODT 0
 BYTE   LFOS 44
 BYTE   PAN   c_v+0
 BYTE   W96
//  #02 //001   ----------------------------------------
 BYTE   W96
//  #02 //002   ----------------------------------------
 BYTE   W96
//  #02 //003   ----------------------------------------
 BYTE   W96
//  #02 //004   ----------------------------------------
 BYTE   W96
//  #02 //005   ----------------------------------------
 BYTE   W96
//  #02 //006   ----------------------------------------
 BYTE   W96
//  #02 //007   ----------------------------------------
 BYTE   W96
//  #02 //008   ----------------------------------------
 BYTE   W96
//  #02 //009   ----------------------------------------
 BYTE   W96
//  #02 //010   ----------------------------------------
 BYTE   W96
//  #02 //011   ----------------------------------------
 BYTE   W96
//  #02 //012   ----------------------------------------
 BYTE   W96
//  #02 //013   ----------------------------------------
 BYTE   W96
//  #02 //014   ----------------------------------------
 BYTE   W96
//  #02 //015   ----------------------------------------
 BYTE   W60
 BYTE   N11  Cn1  v036
 BYTE   W12
 BYTE   N23  Dn1
 BYTE   N23  As1
 BYTE   W24
//  #02 //016   ----------------------------------------
Label_0183E499:
 BYTE   N11  Cn1  v036
 BYTE   N11  Dn1
 BYTE   N11  An2
 BYTE   W12
 BYTE   Cn1
 BYTE   W12
 BYTE   N11
 BYTE   W12
 BYTE   N11
 BYTE   N11  Dn1
 BYTE   N11  Cs2
 BYTE   W12
 BYTE   Cn1
 BYTE   W12
 BYTE   N11
 BYTE   W12
 BYTE   N11
 BYTE   N11  Dn1
 BYTE   N11  An2
 BYTE   W12
 BYTE   Cn1
 BYTE   W12
 BYTE   PEND 
//  #02 //017   ----------------------------------------
Label_0183E4B8:
 BYTE   N11  Cn1  v036
 BYTE   W12
 BYTE   N11
 BYTE   N11  Dn1
 BYTE   N11  Cs2
 BYTE   W12
 BYTE   Cn1
 BYTE   W12
 BYTE   N11
 BYTE   W12
 BYTE   N11
 BYTE   N11  Dn1
 BYTE   N11  An2
 BYTE   W12
 BYTE   Cn1
 BYTE   W12
 BYTE   N11
 BYTE   N11  Dn1
 BYTE   N11  Cs2
 BYTE   W12
 BYTE   Cn1
 BYTE   W12
 BYTE   PEND 
//  #02 //018   ----------------------------------------
 BYTE   PATT
  POIN2 Label_0183E499
//  #02 //019   ----------------------------------------
Label_0183E4DC:
 BYTE   N11  Cn1  v036
 BYTE   W12
 BYTE   N11
 BYTE   N11  Dn1
 BYTE   N11  Cs2
 BYTE   W12
 BYTE   Cn1
 BYTE   N11  Bn1
 BYTE   W12
 BYTE   Cn1
 BYTE   N11  An1
 BYTE   W12
 BYTE   Cn1
 BYTE   N11  Bn1
 BYTE   W12
 BYTE   Cn1
 BYTE   N11  An1
 BYTE   W12
 BYTE   Cn1
 BYTE   N11  An1
 BYTE   W12
 BYTE   Cn1
 BYTE   N11  Fn1
 BYTE   W12
 BYTE   PEND 
//  #02 //020   ----------------------------------------
 BYTE   PATT
  POIN2 Label_0183E499
//  #02 //021   ----------------------------------------
 BYTE   PATT
  POIN2 Label_0183E4B8
//  #02 //022   ----------------------------------------
 BYTE   PATT
  POIN2 Label_0183E499
//  #02 //023   ----------------------------------------
 BYTE   N11  Cn1  v036
 BYTE   N11  Fn1
 BYTE   N11  Bn1
 BYTE   W12
 BYTE   Cn1
 BYTE   N11  An1
 BYTE   W12
 BYTE   Cn1
 BYTE   W12
 BYTE   N11
 BYTE   N11  Fn1
 BYTE   N11  An1
 BYTE   W12
 BYTE   Cn1
 BYTE   W12
 BYTE   Dn1
 BYTE   N11  As1
 BYTE   W36
//  #02 //024   ----------------------------------------
 BYTE   N23  Cn1
 BYTE   N23  An2
 BYTE   W24
 BYTE   Cn1
 BYTE   W12
 BYTE   N11  Fs1
 BYTE   W12
 BYTE   N23  Cn1
 BYTE   W12
 BYTE   N11  Fs1
 BYTE   W12
 BYTE   N23  Cn1
 BYTE   W12
 BYTE   N11  Fs1
 BYTE   W12
//  #02 //025   ----------------------------------------
Label_0183E53E:
 BYTE   N23  Cn1  v036
 BYTE   W12
 BYTE   N11  Fs1
 BYTE   W12
 BYTE   N23  Cn1
 BYTE   W12
 BYTE   N11  Fs1
 BYTE   W12
 BYTE   N23  Cn1
 BYTE   W12
 BYTE   N11  Fs1
 BYTE   W12
 BYTE   N23  Cn1
 BYTE   W12
 BYTE   N11  Fs1
 BYTE   W12
 BYTE   PEND 
//  #02 //026   ----------------------------------------
 BYTE   PATT
  POIN2 Label_0183E53E
//  #02 //027   ----------------------------------------
 BYTE   N23  Cn1  v036
 BYTE   W12
 BYTE   N11  Fs1
 BYTE   W12
 BYTE   N23  Cn1
 BYTE   W12
 BYTE   N11  Fs1
 BYTE   W12
 BYTE   N23  Cn1
 BYTE   W12
 BYTE   N11  Fs1
 BYTE   W12
 BYTE   N23  Cn1
 BYTE   N11  As1
 BYTE   W12
 BYTE   Fs1
 BYTE   W12
//  #02 //028   ----------------------------------------
 BYTE   N23  Cn1
 BYTE   N11  As1
 BYTE   N11  Gn2
 BYTE   W12
 BYTE   Fs1
 BYTE   W12
 BYTE   N23  Cn1
 BYTE   W12
 BYTE   N11  Fs1
 BYTE   W12
 BYTE   N23  Cn1
 BYTE   W12
 BYTE   N11  Fs1
 BYTE   W12
 BYTE   N23  Cn1
 BYTE   W12
 BYTE   N11  Fs1
 BYTE   W12
//  #02 //029   ----------------------------------------
 BYTE   PATT
  POIN2 Label_0183E53E
//  #02 //030   ----------------------------------------
 BYTE   PATT
  POIN2 Label_0183E53E
//  #02 //031   ----------------------------------------
 BYTE   N23  Cn1  v036
 BYTE   W12
 BYTE   N11  Fs1
 BYTE   W12
 BYTE   N23  Cn1
 BYTE   N11  As1
 BYTE   W24
 BYTE   N23  Cn1
 BYTE   N05  Dn1
 BYTE   W06
 BYTE   N05
 BYTE   W06
 BYTE   N05
 BYTE   W06
 BYTE   N05
 BYTE   W06
 BYTE   N23  Cn1
 BYTE   N05  Dn1
 BYTE   W06
 BYTE   N05
 BYTE   W06
 BYTE   N05
 BYTE   W06
 BYTE   N05
 BYTE   W06
//  #02 //032   ----------------------------------------
Label_0183E5BE:
 BYTE   N23  Cn1  v036
 BYTE   N11  An2
 BYTE   W12
 BYTE   Fs1
 BYTE   W12
 BYTE   N23  Cn1
 BYTE   N11  Dn1
 BYTE   N11  As1
 BYTE   W12
 BYTE   Fs1
 BYTE   W12
 BYTE   Cn1
 BYTE   W12
 BYTE   N11
 BYTE   N11  Fs1
 BYTE   W24
 BYTE   Cn1
 BYTE   N11  Dn1
 BYTE   N11  As1
 BYTE   W12
 BYTE   PEND 
//  #02 //033   ----------------------------------------
Label_0183E5DC:
 BYTE   W12
 BYTE   N11  Cn1  v036
 BYTE   N11  Fs1
 BYTE   W12
 BYTE   Cn1
 BYTE   N11  Dn1
 BYTE   N11  As1
 BYTE   W24
 BYTE   Cn1
 BYTE   N11  Fs1
 BYTE   W12
 BYTE   Cn1
 BYTE   W12
 BYTE   Dn1
 BYTE   N11  As1
 BYTE   W12
 BYTE   N05  Dn1
 BYTE   W06
 BYTE   N05
 BYTE   W06
 BYTE   PEND 
//  #02 //034   ----------------------------------------
Label_0183E5F9:
 BYTE   N23  Cn1  v036
 BYTE   N11  As1
 BYTE   W12
 BYTE   Fs1
 BYTE   W12
 BYTE   N23  Cn1
 BYTE   N11  Dn1
 BYTE   N11  As1
 BYTE   W12
 BYTE   Fs1
 BYTE   W12
 BYTE   Cn1
 BYTE   W12
 BYTE   N11
 BYTE   N11  Fs1
 BYTE   W24
 BYTE   Cn1
 BYTE   N11  Dn1
 BYTE   N11  As1
 BYTE   W12
 BYTE   PEND 
//  #02 //035   ----------------------------------------
 BYTE   PATT
  POIN2 Label_0183E5DC
//  #02 //036   ----------------------------------------
 BYTE   PATT
  POIN2 Label_0183E5F9
//  #02 //037   ----------------------------------------
 BYTE   PATT
  POIN2 Label_0183E5DC
//  #02 //038   ----------------------------------------
 BYTE   PATT
  POIN2 Label_0183E5F9
//  #02 //039   ----------------------------------------
 BYTE   W12
 BYTE   N11  Cn1  v036
 BYTE   N11  Fs1
 BYTE   W12
 BYTE   Cn1
 BYTE   N11  Dn1
 BYTE   N11  As1
 BYTE   W12
 BYTE   Bn1
 BYTE   W12
 BYTE   Cn1
 BYTE   N11  An1
 BYTE   W12
 BYTE   Cn1
 BYTE   N11  An1
 BYTE   W12
 BYTE   Fn1
 BYTE   W12
 BYTE   Gn1
 BYTE   W12
//  #02 //040   ----------------------------------------
Label_0183E646:
 BYTE   N11  Cn1  v036
 BYTE   N05  An1
 BYTE   N05  Gn2
 BYTE   W06
 BYTE   An1
 BYTE   W06
 BYTE   N11  Cn1
 BYTE   N11  Bn1
 BYTE   W12
 BYTE   Dn1
 BYTE   N11  Fn1
 BYTE   W12
 BYTE   N11
 BYTE   N11  Gn1
 BYTE   W12
 BYTE   Cn1
 BYTE   N05  An1
 BYTE   W06
 BYTE   N05
 BYTE   W06
 BYTE   N11  Cn1
 BYTE   N11  Bn1
 BYTE   W12
 BYTE   Dn1
 BYTE   N11  Fn1
 BYTE   W12
 BYTE   N11
 BYTE   N11  Gn1
 BYTE   W12
 BYTE   PEND 
//  #02 //041   ----------------------------------------
 BYTE   Cn1
 BYTE   N05  An1
 BYTE   W06
 BYTE   N05
 BYTE   W06
 BYTE   N11  Cn1
 BYTE   N11  Bn1
 BYTE   W12
 BYTE   Dn1
 BYTE   N11  Fn1
 BYTE   W12
 BYTE   N11
 BYTE   N11  Gn1
 BYTE   W12
 BYTE   Cn1
 BYTE   N05  An1
 BYTE   W06
 BYTE   N05
 BYTE   W06
 BYTE   N11  Cn1
 BYTE   N11  Bn1
 BYTE   W12
 BYTE   Dn1
 BYTE   N11  Fn1
 BYTE   W12
 BYTE   N11
 BYTE   N11  Gn1
 BYTE   W12
//  #02 //042   ----------------------------------------
 BYTE   PATT
  POIN2 Label_0183E646
//  #02 //043   ----------------------------------------
 BYTE   N11  Cn1  v036
 BYTE   W12
 BYTE   N11
 BYTE   W12
 BYTE   N23
 BYTE   N05  Dn1
 BYTE   W06
 BYTE   N05
 BYTE   W06
 BYTE   N05
 BYTE   W06
 BYTE   N05
 BYTE   W06
 BYTE   N23  Cn1
 BYTE   N05  Dn1
 BYTE   W06
 BYTE   N05
 BYTE   W06
 BYTE   N05
 BYTE   W06
 BYTE   N05
 BYTE   W06
 BYTE   N11  Cn1
 BYTE   N11  An1
 BYTE   N11  Bn1
 BYTE   W12
 BYTE   Cn1
 BYTE   N11  Fn1
 BYTE   N11  An1
 BYTE   W12
//  #02 //044   ----------------------------------------
 BYTE   N23  Cn1
 BYTE   N23  An2
 BYTE   W96
//  #02 //045   ----------------------------------------
 BYTE   W72
 BYTE   N11  Cn1
 BYTE   W12
 BYTE   N11
 BYTE   W12
//  #02 //046   ----------------------------------------
Label_0183E6CF:
 BYTE   N23  Cn1  v036
 BYTE   N11  An2
 BYTE   W12
 BYTE   As1
 BYTE   W12
 BYTE   N23  Cn1
 BYTE   N11  Dn1
 BYTE   N11  Fn1
 BYTE   N11  As1
 BYTE   W12
 BYTE   Dn1
 BYTE   N11  Fn1
 BYTE   W12
 BYTE   N23  Cn1
 BYTE   N11  Dn1
 BYTE   N11  Fn1
 BYTE   N11  As1
 BYTE   W12
 BYTE   Dn1
 BYTE   N11  Fn1
 BYTE   W12
 BYTE   N23  Cn1
 BYTE   N11  Dn1
 BYTE   N11  Fn1
 BYTE   N11  As1
 BYTE   W12
 BYTE   Dn1
 BYTE   N11  Fn1
 BYTE   W12
 BYTE   PEND 
//  #02 //047   ----------------------------------------
Label_0183E6FF:
 BYTE   N23  Cn1  v036
 BYTE   N11  Dn1
 BYTE   N11  Fn1
 BYTE   N11  As1
 BYTE   W12
 BYTE   Dn1
 BYTE   N11  Fn1
 BYTE   W12
 BYTE   N23  Cn1
 BYTE   N11  Dn1
 BYTE   N11  Fn1
 BYTE   N11  As1
 BYTE   W12
 BYTE   Dn1
 BYTE   N11  Fn1
 BYTE   W12
 BYTE   N23  Cn1
 BYTE   N11  Dn1
 BYTE   N11  Fn1
 BYTE   N11  As1
 BYTE   W12
 BYTE   N05  Dn1
 BYTE   N05  Fn1
 BYTE   W06
 BYTE   Dn1
 BYTE   W06
 BYTE   N23  Cn1
 BYTE   N11  Dn1
 BYTE   N11  Fn1
 BYTE   N11  As1
 BYTE   W12
 BYTE   N05  Dn1
 BYTE   N05  Fn1
 BYTE   W06
 BYTE   Dn1
 BYTE   W06
 BYTE   PEND 
//  #02 //048   ----------------------------------------
 BYTE   N23  Cn1
 BYTE   N23  An2
 BYTE   W24
 BYTE   Cn1
 BYTE   W24
 BYTE   N23
 BYTE   W24
 BYTE   N23
 BYTE   W24
//  #02 //049   ----------------------------------------
 BYTE   N23
 BYTE   N23  An2
 BYTE   W96
//  #02 //050   ----------------------------------------
Label_0183E74A:
 BYTE   N11  Cn1  v036
 BYTE   N05  Dn1
 BYTE   N05  An2
 BYTE   W06
 BYTE   Dn1
 BYTE   W06
 BYTE   N05
 BYTE   W06
 BYTE   N05
 BYTE   W06
 BYTE   N05
 BYTE   W06
 BYTE   N05
 BYTE   W06
 BYTE   N11  Cn1
 BYTE   N05  Dn1
 BYTE   W06
 BYTE   N05
 BYTE   W06
 BYTE   N05
 BYTE   W06
 BYTE   N05
 BYTE   W06
 BYTE   N05
 BYTE   W06
 BYTE   N05
 BYTE   W06
 BYTE   N11  Cn1
 BYTE   N05  Dn1
 BYTE   W06
 BYTE   N05
 BYTE   W06
 BYTE   N05
 BYTE   W06
 BYTE   N05
 BYTE   W06
 BYTE   PEND 
//  #02 //051   ----------------------------------------
Label_0183E777:
 BYTE   N05  Dn1  v036
 BYTE   W06
 BYTE   N05
 BYTE   W06
 BYTE   N11  Cn1
 BYTE   N05  Dn1
 BYTE   W06
 BYTE   N05
 BYTE   W06
 BYTE   N05
 BYTE   W06
 BYTE   N05
 BYTE   W06
 BYTE   N05
 BYTE   W06
 BYTE   N05
 BYTE   W06
 BYTE   N11  Cn1
 BYTE   N05  Dn1
 BYTE   W06
 BYTE   N05
 BYTE   W06
 BYTE   N05
 BYTE   W06
 BYTE   N05
 BYTE   W06
 BYTE   N11  Cn1
 BYTE   N05  Dn1
 BYTE   W06
 BYTE   N05
 BYTE   W06
 BYTE   N05
 BYTE   W06
 BYTE   N05
 BYTE   W06
 BYTE   PEND 
//  #02 //052   ----------------------------------------
 BYTE   PATT
  POIN2 Label_0183E74A
//  #02 //053   ----------------------------------------
 BYTE   PATT
  POIN2 Label_0183E777
//  #02 //054   ----------------------------------------
 BYTE   PATT
  POIN2 Label_0183E74A
//  #02 //055   ----------------------------------------
 BYTE   PATT
  POIN2 Label_0183E777
//  #02 //056   ----------------------------------------
 BYTE   N11  Cn1  v036
 BYTE   N05  Dn1
 BYTE   N05  An2
 BYTE   W06
 BYTE   Dn1
 BYTE   W06
 BYTE   N05
 BYTE   W06
 BYTE   N05
 BYTE   W06
 BYTE   N05
 BYTE   W06
 BYTE   N05
 BYTE   W06
 BYTE   N11  Cn1
 BYTE   N05  Dn1
 BYTE   W06
 BYTE   N05
 BYTE   W06
 BYTE   N05
 BYTE   W06
 BYTE   N05
 BYTE   W06
 BYTE   N05
 BYTE   W06
 BYTE   N05
 BYTE   W06
 BYTE   N23  Cn1
 BYTE   N23  Dn1
 BYTE   N23  Fn1
 BYTE   W24
//  #02 //057   ----------------------------------------
Label_0183E7DF:
 BYTE   N11  Cn1  v036
 BYTE   N11  Dn1
 BYTE   N11  Fn1
 BYTE   W18
 BYTE   Cn1
 BYTE   N11  Dn1
 BYTE   N11  Fn1
 BYTE   W18
 BYTE   Cn1
 BYTE   N11  Dn1
 BYTE   N11  An2
 BYTE   W24
 BYTE   Cn1
 BYTE   N11  Dn1
 BYTE   W12
 BYTE   Cn1
 BYTE   N11  Dn1
 BYTE   W12
 BYTE   Cn1
 BYTE   N05  Dn1
 BYTE   W06
 BYTE   N05
 BYTE   W06
 BYTE   PEND 
//  #02 //058   ----------------------------------------
Label_0183E802:
 BYTE   N23  Cn1  v036
 BYTE   N23  An2
 BYTE   W24
 BYTE   N11  Dn1
 BYTE   N11  As1
 BYTE   W18
 BYTE   N05  Dn1
 BYTE   W06
 BYTE   N11  Cn1
 BYTE   N23  As1
 BYTE   W12
 BYTE   N11  Cn1
 BYTE   W12
 BYTE   N23  Dn1
 BYTE   N23  As1
 BYTE   W24
 BYTE   PEND 
//  #02 //059   ----------------------------------------
Label_0183E81E:
 BYTE   N23  Cn1  v036
 BYTE   N23  As1
 BYTE   W24
 BYTE   N11  Dn1
 BYTE   N11  As1
 BYTE   W18
 BYTE   N05  Dn1
 BYTE   W06
 BYTE   N11  Cn1
 BYTE   N23  As1
 BYTE   W12
 BYTE   N11  Cn1
 BYTE   W12
 BYTE   N23  Dn1
 BYTE   N23  As1
 BYTE   W24
 BYTE   PEND 
//  #02 //060   ----------------------------------------
 BYTE   PATT
  POIN2 Label_0183E81E
//  #02 //061   ----------------------------------------
Label_0183E83F:
 BYTE   N23  Cn1  v036
 BYTE   N23  As1
 BYTE   W24
 BYTE   N11  Dn1
 BYTE   N11  As1
 BYTE   W18
 BYTE   N05  Dn1
 BYTE   W06
 BYTE   N11  Cn1
 BYTE   N23  As1
 BYTE   W12
 BYTE   N11  Cn1
 BYTE   W12
 BYTE   N05  Dn1
 BYTE   N05  As1
 BYTE   W06
 BYTE   Dn1
 BYTE   W06
 BYTE   N05
 BYTE   W06
 BYTE   N05
 BYTE   W06
 BYTE   PEND 
//  #02 //062   ----------------------------------------
 BYTE   PATT
  POIN2 Label_0183E802
//  #02 //063   ----------------------------------------
Label_0183E866:
 BYTE   N23  Cn1  v036
 BYTE   N23  As1
 BYTE   W24
 BYTE   N11  Dn1
 BYTE   N11  As1
 BYTE   W18
 BYTE   N05  Dn1
 BYTE   W06
 BYTE   N11  Cn1
 BYTE   N05  Dn1
 BYTE   N05  As1
 BYTE   W06
 BYTE   Dn1
 BYTE   W06
 BYTE   N11  Cn1
 BYTE   N05  Dn1
 BYTE   W06
 BYTE   N05
 BYTE   W06
 BYTE   N05
 BYTE   N05  As1
 BYTE   W06
 BYTE   Dn1
 BYTE   W06
 BYTE   N05
 BYTE   W06
 BYTE   N05
 BYTE   W06
 BYTE   PEND 
//  #02 //064   ----------------------------------------
Label_0183E88F:
 BYTE   N11  Cn1  v036
 BYTE   N05  Dn1
 BYTE   N05  An2
 BYTE   W06
 BYTE   Dn1
 BYTE   W06
 BYTE   N05
 BYTE   W06
 BYTE   N05
 BYTE   W06
 BYTE   N05
 BYTE   W06
 BYTE   N05
 BYTE   W06
 BYTE   N11  Cn1
 BYTE   N05  Dn1
 BYTE   N05  An2
 BYTE   W06
 BYTE   Dn1
 BYTE   W06
 BYTE   N05
 BYTE   W06
 BYTE   N05
 BYTE   W06
 BYTE   N05
 BYTE   W06
 BYTE   N05
 BYTE   W06
 BYTE   N11  Cn1
 BYTE   N05  Dn1
 BYTE   N05  Cs2
 BYTE   W06
 BYTE   Dn1
 BYTE   W06
 BYTE   N05
 BYTE   W06
 BYTE   N05
 BYTE   W06
 BYTE   PEND 
//  #02 //065   ----------------------------------------
Label_0183E8C0:
 BYTE   N05  Dn1  v036
 BYTE   W06
 BYTE   N05
 BYTE   W06
 BYTE   N11  Cn1
 BYTE   N05  Dn1
 BYTE   N05  Cs2
 BYTE   W06
 BYTE   Dn1
 BYTE   W06
 BYTE   N05
 BYTE   W06
 BYTE   N05
 BYTE   W06
 BYTE   N05
 BYTE   W06
 BYTE   N05
 BYTE   W06
 BYTE   N11  Cn1
 BYTE   N05  Dn1
 BYTE   N05  As1
 BYTE   W06
 BYTE   Dn1
 BYTE   W06
 BYTE   N05
 BYTE   W06
 BYTE   N05
 BYTE   W06
 BYTE   N11  Cn1
 BYTE   N05  Dn1
 BYTE   N05  As1
 BYTE   W06
 BYTE   Dn1
 BYTE   W06
 BYTE   N05
 BYTE   W06
 BYTE   N05
 BYTE   W06
 BYTE   PEND 
//  #02 //066   ----------------------------------------
Label_0183E8F2:
 BYTE   N23  Cn1  v036
 BYTE   N23  Dn1
 BYTE   N23  An2
 BYTE   W24
 BYTE   Dn1
 BYTE   N23  As1
 BYTE   W12
 BYTE   N11  Cn1
 BYTE   W12
 BYTE   N23  Dn1
 BYTE   N23  As1
 BYTE   W12
 BYTE   N11  Cn1
 BYTE   W12
 BYTE   N23  Dn1
 BYTE   N23  As1
 BYTE   W12
 BYTE   N11  Cn1
 BYTE   W12
 BYTE   PEND 
//  #02 //067   ----------------------------------------
Label_0183E912:
 BYTE   N23  Dn1  v036
 BYTE   N23  As1
 BYTE   W12
 BYTE   N11  Cn1
 BYTE   W12
 BYTE   N23  Dn1
 BYTE   N23  As1
 BYTE   W12
 BYTE   N11  Cn1
 BYTE   W12
 BYTE   N23  Dn1
 BYTE   N23  As1
 BYTE   W12
 BYTE   N11  Cn1
 BYTE   W12
 BYTE   N23  Dn1
 BYTE   N23  As1
 BYTE   W12
 BYTE   N11  Cn1
 BYTE   W12
 BYTE   PEND 
//  #02 //068   ----------------------------------------
Label_0183E934:
 BYTE   N23  Dn1  v036
 BYTE   N23  An2
 BYTE   W12
 BYTE   N11  Cn1
 BYTE   W12
 BYTE   N23  Dn1
 BYTE   N23  As1
 BYTE   W12
 BYTE   N11  Cn1
 BYTE   W12
 BYTE   N23  Dn1
 BYTE   N23  As1
 BYTE   W12
 BYTE   N11  Cn1
 BYTE   W12
 BYTE   N23  Dn1
 BYTE   N23  As1
 BYTE   W12
 BYTE   N11  Cn1
 BYTE   W12
 BYTE   PEND 
//  #02 //069   ----------------------------------------
 BYTE   PATT
  POIN2 Label_0183E912
//  #02 //070   ----------------------------------------
Label_0183E95B:
 BYTE   N23  Cn1  v036
 BYTE   N23  Dn1
 BYTE   N23  An2
 BYTE   W24
 BYTE   N11  Cn1
 BYTE   W12
 BYTE   N23
 BYTE   N23  Dn1
 BYTE   N23  Cs2
 BYTE   W24
 BYTE   N11  Cn1
 BYTE   W12
 BYTE   N23
 BYTE   N23  Dn1
 BYTE   N23  An2
 BYTE   W24
 BYTE   PEND 
//  #02 //071   ----------------------------------------
Label_0183E976:
 BYTE   N11  Cn1  v036
 BYTE   W12
 BYTE   N23
 BYTE   N23  Dn1
 BYTE   N23  Cs2
 BYTE   W24
 BYTE   N11  Cn1
 BYTE   W12
 BYTE   N11
 BYTE   N11  Dn1
 BYTE   N11  An2
 BYTE   W12
 BYTE   Cn1
 BYTE   N05  Bn1
 BYTE   W06
 BYTE   N05
 BYTE   W06
 BYTE   N11  Cn1
 BYTE   N05  An1
 BYTE   W06
 BYTE   N05
 BYTE   W06
 BYTE   N11  Cn1
 BYTE   N05  Fn1
 BYTE   W06
 BYTE   N05
 BYTE   W06
 BYTE   PEND 
//  #02 //072   ----------------------------------------
Label_0183E99E:
 BYTE   N23  Cn1  v036
 BYTE   N23  Dn1
 BYTE   N23  An2
 BYTE   W24
 BYTE   Cn1
 BYTE   N11  Dn1
 BYTE   N11  Fn1
 BYTE   N11  As1
 BYTE   W12
 BYTE   Dn1
 BYTE   N11  Fn1
 BYTE   W12
 BYTE   N23  Cn1
 BYTE   N05  Dn1
 BYTE   N05  Fn1
 BYTE   N05  As1
 BYTE   W06
 BYTE   Dn1
 BYTE   W06
 BYTE   N05
 BYTE   N05  Fn1
 BYTE   W06
 BYTE   Dn1
 BYTE   W06
 BYTE   N23  Cn1
 BYTE   N11  Dn1
 BYTE   N11  Fn1
 BYTE   N11  As1
 BYTE   W12
 BYTE   Dn1
 BYTE   N11  Fn1
 BYTE   W12
 BYTE   PEND 
//  #02 //073   ----------------------------------------
 BYTE   N23  Cn1
 BYTE   N11  Dn1
 BYTE   N11  Fn1
 BYTE   N11  As1
 BYTE   W72
 BYTE   N05  Bn1
 BYTE   N05  Cn2
 BYTE   W06
 BYTE   An1
 BYTE   N05  Bn1
 BYTE   W06
 BYTE   Fn1
 BYTE   N05  An1
 BYTE   W06
 BYTE   Fn1
 BYTE   N05  An1
 BYTE   W06
//  #02 //074   ----------------------------------------
 BYTE   PATT
  POIN2 Label_0183E499
//  #02 //075   ----------------------------------------
 BYTE   PATT
  POIN2 Label_0183E4B8
//  #02 //076   ----------------------------------------
 BYTE   PATT
  POIN2 Label_0183E499
//  #02 //077   ----------------------------------------
 BYTE   PATT
  POIN2 Label_0183E4DC
//  #02 //078   ----------------------------------------
 BYTE   PATT
  POIN2 Label_0183E499
//  #02 //079   ----------------------------------------
 BYTE   PATT
  POIN2 Label_0183E4B8
//  #02 //080   ----------------------------------------
 BYTE   PATT
  POIN2 Label_0183E499
//  #02 //081   ----------------------------------------
 BYTE   N23  An2  v036
 BYTE   W96
//  #02 //082   ----------------------------------------
 BYTE   W96
//  #02 //083   ----------------------------------------
 BYTE   W24
 BYTE   N44  En2
 BYTE   W72
//  #02 //084   ----------------------------------------
Label_0183EA17:
 BYTE   N23  Cn1  v036
 BYTE   W24
 BYTE   N11  Cs1
 BYTE   W18
 BYTE   N11
 BYTE   W06
 BYTE   Cn1
 BYTE   W12
 BYTE   N11
 BYTE   W24
 BYTE   Cs1
 BYTE   W12
 BYTE   PEND 
//  #02 //085   ----------------------------------------
 BYTE   N23  Cn1
 BYTE   W24
 BYTE   N11  Cs1
 BYTE   W18
 BYTE   N11
 BYTE   W06
 BYTE   Cn1
 BYTE   W12
 BYTE   N11
 BYTE   W12
 BYTE   Cs1
 BYTE   W24
//  #02 //086   ----------------------------------------
 BYTE   PATT
  POIN2 Label_0183EA17
//  #02 //087   ----------------------------------------
 BYTE   N23  Cn1  v036
 BYTE   W24
 BYTE   N11  Cs1
 BYTE   W18
 BYTE   N11
 BYTE   W06
 BYTE   Cn1
 BYTE   W12
 BYTE   N11
 BYTE   W12
 BYTE   Cs1
 BYTE   W18
 BYTE   N05
 BYTE   W06
//  #02 //088   ----------------------------------------
 BYTE   PATT
  POIN2 Label_0183EA17
//  #02 //089   ----------------------------------------
 BYTE   N23  Cn1  v036
 BYTE   W24
 BYTE   N11  Cs1
 BYTE   W36
 BYTE   Cn1
 BYTE   N11  Dn1
 BYTE   N11  Fn1
 BYTE   W12
 BYTE   Cn1
 BYTE   N11  Dn1
 BYTE   N11  Fn1
 BYTE   W24
//  #02 //090   ----------------------------------------
 BYTE   PATT
  POIN2 Label_0183E5BE
//  #02 //091   ----------------------------------------
 BYTE   W12
 BYTE   N11  Cn1  v036
 BYTE   N11  Fs1
 BYTE   W12
 BYTE   Cn1
 BYTE   N11  Dn1
 BYTE   N11  As1
 BYTE   W24
 BYTE   Cn1
 BYTE   N11  Dn1
 BYTE   N11  Bn1
 BYTE   W18
 BYTE   Cn1
 BYTE   N11  Dn1
 BYTE   N11  An1
 BYTE   W18
 BYTE   Cn1
 BYTE   N11  Dn1
 BYTE   N11  Fn1
 BYTE   W12
//  #02 //092   ----------------------------------------
 BYTE   N23  Cn1
 BYTE   N11  As1
 BYTE   W12
 BYTE   Fs1
 BYTE   W12
 BYTE   N23  Cn1
 BYTE   N11  Dn1
 BYTE   N11  As1
 BYTE   W12
 BYTE   N05  Dn1
 BYTE   N11  Fs1
 BYTE   W06
 BYTE   N05  Dn1
 BYTE   W06
 BYTE   N11  Cn1
 BYTE   W12
 BYTE   N11
 BYTE   N11  Fs1
 BYTE   W24
 BYTE   Cn1
 BYTE   N11  Dn1
 BYTE   N11  As1
 BYTE   W12
//  #02 //093   ----------------------------------------
 BYTE   W12
 BYTE   Cn1
 BYTE   N11  Fs1
 BYTE   W12
 BYTE   Cn1
 BYTE   N11  Dn1
 BYTE   N11  As1
 BYTE   W24
 BYTE   Cn1
 BYTE   N11  Dn1
 BYTE   N11  As1
 BYTE   W12
 BYTE   Cn1
 BYTE   N05  Dn1
 BYTE   W06
 BYTE   N05
 BYTE   W06
 BYTE   N05
 BYTE   W06
 BYTE   N05
 BYTE   W06
 BYTE   N05
 BYTE   W06
 BYTE   N05
 BYTE   W06
//  #02 //094   ----------------------------------------
Label_0183EAC9:
 BYTE   N23  Cn1  v036
 BYTE   N11  An2
 BYTE   W24
 BYTE   Dn1
 BYTE   N11  As1
 BYTE   W18
 BYTE   N05  Dn1
 BYTE   W06
 BYTE   N11  Cn1
 BYTE   N11  As1
 BYTE   W12
 BYTE   Cn1
 BYTE   W12
 BYTE   N23  Dn1
 BYTE   N23  As1
 BYTE   W24
 BYTE   PEND 
//  #02 //095   ----------------------------------------
 BYTE   Cn1
 BYTE   N11  As1
 BYTE   W24
 BYTE   Dn1
 BYTE   N11  As1
 BYTE   W18
 BYTE   N05  Dn1
 BYTE   W06
 BYTE   N11  Cn1
 BYTE   N11  As1
 BYTE   W12
 BYTE   Cn1
 BYTE   W12
 BYTE   N23  Dn1
 BYTE   N23  As1
 BYTE   W24
//  #02 //096   ----------------------------------------
 BYTE   PATT
  POIN2 Label_0183EAC9
//  #02 //097   ----------------------------------------
 BYTE   N23  Cn1  v036
 BYTE   N11  As1
 BYTE   W24
 BYTE   N05  Dn1
 BYTE   N05  As1
 BYTE   W06
 BYTE   Dn1
 BYTE   W06
 BYTE   N05
 BYTE   W06
 BYTE   N05
 BYTE   W06
 BYTE   N11  Cn1
 BYTE   N11  Dn1
 BYTE   N11  Bn1
 BYTE   W12
 BYTE   Cn1
 BYTE   N11  Dn1
 BYTE   N11  An1
 BYTE   W12
 BYTE   N23  Cn1
 BYTE   N11  Dn1
 BYTE   N11  Fn1
 BYTE   W24
//  #02 //098   ----------------------------------------
 BYTE   N23  Cn1
 BYTE   N23  An2
 BYTE   W24
 BYTE   Cn1
 BYTE   N23  As1
 BYTE   W24
 BYTE   Dn1
 BYTE   N23  As1
 BYTE   W12
 BYTE   N11  Cn1
 BYTE   W12
 BYTE   N23  As1
 BYTE   W12
 BYTE   N11  Cn1
 BYTE   W12
//  #02 //099   ----------------------------------------
 BYTE   N23  As1
 BYTE   W12
 BYTE   N11  Cn1
 BYTE   W12
 BYTE   N23
 BYTE   N23  As1
 BYTE   W24
 BYTE   N11  Dn1
 BYTE   N11  As1
 BYTE   W12
 BYTE   Cn1
 BYTE   N05  Dn1
 BYTE   W06
 BYTE   N05
 BYTE   W06
 BYTE   N11  As1
 BYTE   W12
 BYTE   Cn1
 BYTE   N11  Dn1
 BYTE   W12
//  #02 //100   ----------------------------------------
 BYTE   Cn1
 BYTE   N23  As1
 BYTE   N23  An2
 BYTE   W12
 BYTE   N11  Cn1
 BYTE   W12
 BYTE   N23  As1
 BYTE   W12
 BYTE   N11  Cn1
 BYTE   W12
 BYTE   N23  Dn1
 BYTE   N23  As1
 BYTE   W24
 BYTE   N11  Cn1
 BYTE   N23  As1
 BYTE   W12
 BYTE   N11  Cn1
 BYTE   W12
//  #02 //101   ----------------------------------------
 BYTE   As1
 BYTE   W12
 BYTE   Cn1
 BYTE   N11  Dn1
 BYTE   W12
 BYTE   N23  As1
 BYTE   W24
 BYTE   Cn1
 BYTE   N05  Dn1
 BYTE   N05  As1
 BYTE   W06
 BYTE   Dn1
 BYTE   W06
 BYTE   N05
 BYTE   W06
 BYTE   N05
 BYTE   W06
 BYTE   N23  Cn1
 BYTE   N11  An1
 BYTE   N11  Bn1
 BYTE   W12
 BYTE   Fn1
 BYTE   N11  An1
 BYTE   W12
//  #02 //102   ----------------------------------------
 BYTE   N23  Cn1
 BYTE   N23  An2
 BYTE   W84
 BYTE   N05  As1
 BYTE   W06
 BYTE   N05
 BYTE   W06
//  #02 //103   ----------------------------------------
 BYTE   N11
 BYTE   W72
 BYTE   N23  Fn1
 BYTE   N23  Bn1
 BYTE   W24
//  #02 //104   ----------------------------------------
 BYTE   PATT
  POIN2 Label_0183E6CF
//  #02 //105   ----------------------------------------
 BYTE   PATT
  POIN2 Label_0183E6FF
//  #02 //106   ----------------------------------------
 BYTE   N23  Cn1  v036
 BYTE   N23  An2
 BYTE   W24
 BYTE   Cn1
 BYTE   N23  Fn1
 BYTE   N23  An1
 BYTE   W24
 BYTE   Cn1
 BYTE   N23  Fn1
 BYTE   N23  An1
 BYTE   W24
 BYTE   Cn1
 BYTE   N23  Fn1
 BYTE   N23  An1
 BYTE   W24
//  #02 //107   ----------------------------------------
 BYTE   Cn1
 BYTE   N23  An2
 BYTE   W48
 BYTE   N05  Dn1
 BYTE   W06
 BYTE   N05
 BYTE   W06
 BYTE   N05
 BYTE   W06
 BYTE   N05
 BYTE   W06
 BYTE   N05
 BYTE   N05  Bn1
 BYTE   W06
 BYTE   Dn1
 BYTE   N05  Bn1
 BYTE   W06
 BYTE   Dn1
 BYTE   N05  An1
 BYTE   W06
 BYTE   Dn1
 BYTE   N05  An1
 BYTE   W06
//  #02 //108   ----------------------------------------
 BYTE   PATT
  POIN2 Label_0183E499
//  #02 //109   ----------------------------------------
 BYTE   PATT
  POIN2 Label_0183E4B8
//  #02 //110   ----------------------------------------
 BYTE   PATT
  POIN2 Label_0183E499
//  #02 //111   ----------------------------------------
 BYTE   N23  Cn1  v036
 BYTE   N05  Dn1
 BYTE   W06
 BYTE   N05
 BYTE   W06
 BYTE   N05
 BYTE   W06
 BYTE   N05
 BYTE   W06
 BYTE   N23  Cn1
 BYTE   N05  Dn1
 BYTE   W06
 BYTE   N05
 BYTE   W06
 BYTE   N05
 BYTE   N05  An1
 BYTE   W06
 BYTE   Dn1
 BYTE   N05  Fn1
 BYTE   W06
 BYTE   N11  Cn1
 BYTE   N11  Dn1
 BYTE   N11  Fn1
 BYTE   W12
 BYTE   Cn1
 BYTE   N11  Dn1
 BYTE   N11  Fn1
 BYTE   W36
//  #02 //112   ----------------------------------------
Label_0183EC19:
 BYTE   N11  Cn1  v036
 BYTE   N23  An2
 BYTE   W12
 BYTE   N11  Cn1
 BYTE   W12
 BYTE   Dn1
 BYTE   N11  Cs2
 BYTE   W18
 BYTE   N05  Dn1
 BYTE   W06
 BYTE   N11  Cn1
 BYTE   N11  An2
 BYTE   W12
 BYTE   Cn1
 BYTE   W12
 BYTE   Dn1
 BYTE   N11  Cs2
 BYTE   W24
 BYTE   PEND 
//  #02 //113   ----------------------------------------
 BYTE   PATT
  POIN2 Label_0183EC19
//  #02 //114   ----------------------------------------
 BYTE   N11  Cn1  v036
 BYTE   N23  An2
 BYTE   W12
 BYTE   N11  Cn1
 BYTE   W12
 BYTE   N11
 BYTE   W12
 BYTE   Dn1
 BYTE   N11  Cs2
 BYTE   W24
 BYTE   Cn1
 BYTE   N05  Dn1
 BYTE   W06
 BYTE   N05
 BYTE   W06
 BYTE   N11  Cn1
 BYTE   N05  Dn1
 BYTE   W06
 BYTE   N05
 BYTE   N05  Bn1
 BYTE   W06
 BYTE   N11  Cn1
 BYTE   N05  Dn1
 BYTE   N05  Bn1
 BYTE   W06
 BYTE   Dn1
 BYTE   N05  An1
 BYTE   W06
//  #02 //115   ----------------------------------------
 BYTE   N11  Cn1
 BYTE   N11  Dn1
 BYTE   N11  Fn1
 BYTE   W18
 BYTE   Cn1
 BYTE   N11  Dn1
 BYTE   N11  Fn1
 BYTE   W18
 BYTE   Cn1
 BYTE   N11  Dn1
 BYTE   N11  An2
 BYTE   W24
 BYTE   Dn1
 BYTE   W12
 BYTE   N11
 BYTE   W12
 BYTE   Cn1
 BYTE   N05  Dn1
 BYTE   W06
 BYTE   N05
 BYTE   W06
//  #02 //116   ----------------------------------------
 BYTE   PATT
  POIN2 Label_0183E802
//  #02 //117   ----------------------------------------
 BYTE   PATT
  POIN2 Label_0183E81E
//  #02 //118   ----------------------------------------
 BYTE   PATT
  POIN2 Label_0183E81E
//  #02 //119   ----------------------------------------
 BYTE   PATT
  POIN2 Label_0183E83F
//  #02 //120   ----------------------------------------
 BYTE   PATT
  POIN2 Label_0183E802
//  #02 //121   ----------------------------------------
 BYTE   PATT
  POIN2 Label_0183E866
//  #02 //122   ----------------------------------------
 BYTE   PATT
  POIN2 Label_0183E88F
//  #02 //123   ----------------------------------------
 BYTE   PATT
  POIN2 Label_0183E8C0
//  #02 //124   ----------------------------------------
 BYTE   PATT
  POIN2 Label_0183E8F2
//  #02 //125   ----------------------------------------
 BYTE   PATT
  POIN2 Label_0183E912
//  #02 //126   ----------------------------------------
 BYTE   PATT
  POIN2 Label_0183E934
//  #02 //127   ----------------------------------------
 BYTE   PATT
  POIN2 Label_0183E912
//  #02 //128   ----------------------------------------
 BYTE   PATT
  POIN2 Label_0183E95B
//  #02 //129   ----------------------------------------
 BYTE   PATT
  POIN2 Label_0183E976
//  #02 //130   ----------------------------------------
 BYTE   PATT
  POIN2 Label_0183E99E
//  #02 //131   ----------------------------------------
 BYTE   N23  Cn1  v036
 BYTE   N11  Dn1
 BYTE   N11  Fn1
 BYTE   N11  As1
 BYTE   W48
 BYTE   N05  Dn1
 BYTE   W06
 BYTE   N05
 BYTE   W06
 BYTE   N05
 BYTE   W06
 BYTE   N05
 BYTE   W06
 BYTE   N05
 BYTE   N05  Bn1
 BYTE   N05  Cn2
 BYTE   W06
 BYTE   Dn1
 BYTE   N05  An1
 BYTE   N05  Bn1
 BYTE   W06
 BYTE   Dn1
 BYTE   N05  Fn1
 BYTE   N05  An1
 BYTE   W06
 BYTE   Dn1
 BYTE   N05  Fn1
 BYTE   N05  An1
 BYTE   W06
//  #02 //132   ----------------------------------------
 BYTE   PATT
  POIN2 Label_0183E499
//  #02 //133   ----------------------------------------
 BYTE   PATT
  POIN2 Label_0183E4B8
//  #02 //134   ----------------------------------------
 BYTE   PATT
  POIN2 Label_0183E499
//  #02 //135   ----------------------------------------
 BYTE   PATT
  POIN2 Label_0183E4B8
//  #02 //136   ----------------------------------------
 BYTE   N32  Cn1  v036
 BYTE   N05  Dn1
 BYTE   N05  An2
 BYTE   W06
 BYTE   Dn1
 BYTE   W06
 BYTE   N05
 BYTE   W06
 BYTE   N05
 BYTE   W06
 BYTE   N05
 BYTE   W06
 BYTE   N05
 BYTE   W06
 BYTE   N32  Cn1
 BYTE   N05  Dn1
 BYTE   N05  Cs2
 BYTE   W06
 BYTE   Dn1
 BYTE   W06
 BYTE   N05
 BYTE   W06
 BYTE   N05
 BYTE   W06
 BYTE   N05
 BYTE   W06
 BYTE   N05
 BYTE   W06
 BYTE   N32  Cn1
 BYTE   N05  Dn1
 BYTE   N05  An2
 BYTE   W06
 BYTE   Dn1
 BYTE   W06
 BYTE   N05
 BYTE   W06
 BYTE   N05
 BYTE   W06
//  #02 //137   ----------------------------------------
 BYTE   N05
 BYTE   W06
 BYTE   N05
 BYTE   W06
 BYTE   N32  Cn1
 BYTE   N05  Dn1
 BYTE   N05  Cs2
 BYTE   W06
 BYTE   Dn1
 BYTE   W06
 BYTE   N05
 BYTE   W06
 BYTE   N05
 BYTE   W06
 BYTE   N05
 BYTE   W06
 BYTE   N05
 BYTE   W06
 BYTE   N23  Cn1
 BYTE   N05  Dn1
 BYTE   W06
 BYTE   N05
 BYTE   W06
 BYTE   N05
 BYTE   W06
 BYTE   N05
 BYTE   W06
 BYTE   N23  Cn1
 BYTE   N05  An1
 BYTE   W06
 BYTE   N05
 BYTE   W06
 BYTE   Fn1
 BYTE   W06
 BYTE   N05
 BYTE   W06
//  #02 //138   ----------------------------------------
 BYTE   N32  Cn1
 BYTE   N05  Dn1
 BYTE   N05  An2
 BYTE   W06
 BYTE   Bn1
 BYTE   W06
 BYTE   Fn1
 BYTE   N05  Bn1
 BYTE   W06
 BYTE   An1
 BYTE   W06
 BYTE   N11  Fn1
 BYTE   N11  An1
 BYTE   W12
 BYTE   N32  Cn1
 BYTE   N05  Dn1
 BYTE   N05  An2
 BYTE   W06
 BYTE   Bn1
 BYTE   W06
 BYTE   Fn1
 BYTE   N05  Bn1
 BYTE   W06
 BYTE   An1
 BYTE   W06
 BYTE   N11  Fn1
 BYTE   N11  An1
 BYTE   W12
 BYTE   N32  Cn1
 BYTE   N05  Dn1
 BYTE   N05  An2
 BYTE   W06
 BYTE   Bn1
 BYTE   W06
 BYTE   Fn1
 BYTE   N05  Bn1
 BYTE   W06
 BYTE   An1
 BYTE   W06
//  #02 //139   ----------------------------------------
 BYTE   N11  Fn1
 BYTE   N11  An1
 BYTE   W12
 BYTE   Cn1
 BYTE   N05  Dn1
 BYTE   W06
 BYTE   N05
 BYTE   W06
 BYTE   N11  Cn1
 BYTE   N05  Dn1
 BYTE   W06
 BYTE   N05
 BYTE   W06
 BYTE   N11  Cn1
 BYTE   N05  Dn1
 BYTE   W06
 BYTE   N05
 BYTE   W06
 BYTE   N11  Cn1
 BYTE   N05  Dn1
 BYTE   W06
 BYTE   N05
 BYTE   W06
 BYTE   N05
 BYTE   W06
 BYTE   N05
 BYTE   W06
 BYTE   N11  Cn1
 BYTE   N05  Dn1
 BYTE   W06
 BYTE   N05
 BYTE   W06
 BYTE   N05
 BYTE   W06
 BYTE   N05
 BYTE   W06
//  #02 //140   ----------------------------------------
 BYTE   N23  Cn1
 BYTE   N23  An2
 BYTE   W24
 BYTE   N17  Dn1
 BYTE   N17  Ds2
 BYTE   W18
 BYTE   N05  Dn1
 BYTE   W06
 BYTE   N11  Cn1
 BYTE   N23  Ds2
 BYTE   W12
 BYTE   N11  Cn1
 BYTE   W12
 BYTE   N23  Dn1
 BYTE   N23  Ds2
 BYTE   W24
//  #02 //141   ----------------------------------------
Label_0183EDE5:
 BYTE   N23  Cn1  v036
 BYTE   N23  Ds2
 BYTE   W24
 BYTE   N17  Dn1
 BYTE   N17  Ds2
 BYTE   W18
 BYTE   N05  Dn1
 BYTE   W06
 BYTE   N11  Cn1
 BYTE   N23  Ds2
 BYTE   W12
 BYTE   N11  Cn1
 BYTE   W12
 BYTE   N23  Dn1
 BYTE   N23  Ds2
 BYTE   W24
 BYTE   PEND 
//  #02 //142   ----------------------------------------
 BYTE   PATT
  POIN2 Label_0183EDE5
//  #02 //143   ----------------------------------------
 BYTE   N23  Cn1  v036
 BYTE   N23  Ds2
 BYTE   W24
 BYTE   N17  Dn1
 BYTE   N17  Ds2
 BYTE   W18
 BYTE   N05  Dn1
 BYTE   W06
 BYTE   N11  Cn1
 BYTE   N05  Bn1
 BYTE   N05  Ds2
 BYTE   W06
 BYTE   Bn1
 BYTE   W06
 BYTE   N11  Cn1
 BYTE   N11  Fn1
 BYTE   N11  An1
 BYTE   W12
 BYTE   N05  Dn1
 BYTE   N05  Ds2
 BYTE   W06
 BYTE   Dn1
 BYTE   W06
 BYTE   N05
 BYTE   W06
 BYTE   N05
 BYTE   W06
//  #02 //144   ----------------------------------------
Label_0183EE2F:
 BYTE   N11  Cn1  v036
 BYTE   N23  Dn1
 BYTE   N23  An2
 BYTE   W12
 BYTE   N11  Cn1
 BYTE   W12
 BYTE   N23  Dn1
 BYTE   N23  As1
 BYTE   N23  Ds2
 BYTE   W12
 BYTE   N11  Cn1
 BYTE   W12
 BYTE   N23  Dn1
 BYTE   N23  As1
 BYTE   N23  Ds2
 BYTE   W12
 BYTE   N11  Cn1
 BYTE   W12
 BYTE   N23  Dn1
 BYTE   N23  As1
 BYTE   N23  Ds2
 BYTE   W12
 BYTE   N11  Cn1
 BYTE   W12
 BYTE   PEND 
//  #02 //145   ----------------------------------------
 BYTE   N23  Dn1
 BYTE   N23  As1
 BYTE   N23  Ds2
 BYTE   W12
 BYTE   N11  Cn1
 BYTE   W12
 BYTE   N23  Dn1
 BYTE   N23  As1
 BYTE   N23  Ds2
 BYTE   W12
 BYTE   N11  Cn1
 BYTE   W12
 BYTE   N23  Dn1
 BYTE   N23  As1
 BYTE   N23  Ds2
 BYTE   W12
 BYTE   N11  Cn1
 BYTE   W12
 BYTE   N23  Dn1
 BYTE   N23  As1
 BYTE   N23  Ds2
 BYTE   W12
 BYTE   N11  Cn1
 BYTE   W12
//  #02 //146   ----------------------------------------
 BYTE   PATT
  POIN2 Label_0183EE2F
//  #02 //147   ----------------------------------------
 BYTE   N23  Dn1  v036
 BYTE   N23  An2
 BYTE   W12
 BYTE   N11  Cn1
 BYTE   W12
 BYTE   N23  Dn1
 BYTE   N23  Cs2
 BYTE   W12
 BYTE   N11  Cn1
 BYTE   W12
 BYTE   N05  Dn1
 BYTE   N05  Bn1
 BYTE   W06
 BYTE   Fn1
 BYTE   N05  An1
 BYTE   W06
 BYTE   N11  Cn1
 BYTE   W12
 BYTE   Dn1
 BYTE   W12
 BYTE   Cn1
 BYTE   N05  Dn1
 BYTE   W06
 BYTE   N05
 BYTE   W06
//  #02 //148   ----------------------------------------
 BYTE   N32  Cn1
 BYTE   N05  Dn1
 BYTE   N05  Bn1
 BYTE   W06
 BYTE   Dn1
 BYTE   W06
 BYTE   N05
 BYTE   W06
 BYTE   N05
 BYTE   W06
 BYTE   N05
 BYTE   W06
 BYTE   N05
 BYTE   W06
 BYTE   N32  Cn1
 BYTE   N05  Dn1
 BYTE   N05  Bn1
 BYTE   W06
 BYTE   Dn1
 BYTE   W06
 BYTE   N05
 BYTE   W06
 BYTE   N05
 BYTE   W06
 BYTE   N05
 BYTE   W06
 BYTE   N05
 BYTE   W06
 BYTE   N23  Cn1
 BYTE   N05  Dn1
 BYTE   N05  Bn1
 BYTE   W06
 BYTE   Dn1
 BYTE   W06
 BYTE   N05
 BYTE   W06
 BYTE   N05
 BYTE   W06
//  #02 //149   ----------------------------------------
 BYTE   N23  Cn1
 BYTE   N05  Dn1
 BYTE   W06
 BYTE   N05
 BYTE   W06
 BYTE   N05
 BYTE   W06
 BYTE   N05
 BYTE   W06
 BYTE   N11  Cn1
 BYTE   N05  Bn1
 BYTE   W06
 BYTE   N05
 BYTE   W06
 BYTE   N11  Cn1
 BYTE   N05  Bn1
 BYTE   W06
 BYTE   N05
 BYTE   W06
 BYTE   N11  Cn1
 BYTE   N05  An1
 BYTE   W06
 BYTE   N05
 BYTE   W06
 BYTE   N11  Cn1
 BYTE   N05  An1
 BYTE   W06
 BYTE   N05
 BYTE   W06
 BYTE   N11  Cn1
 BYTE   N05  Fn1
 BYTE   W06
 BYTE   N05
 BYTE   W06
 BYTE   N11  Cn1
 BYTE   N05  Fn1
 BYTE   W06
 BYTE   N05
 BYTE   W06
//  #02 //150   ----------------------------------------
 BYTE   N23  Cn1
 BYTE   N23  An2
 BYTE   W96
//  #02 //151   ----------------------------------------
 BYTE   Ds2
 BYTE   W24
 BYTE   N11
 BYTE   W12
 BYTE   N23
 BYTE   W24
 BYTE   N11
 BYTE   W12
 BYTE   N23
 BYTE   W24
//  #02 //152   ----------------------------------------
 BYTE   Cn1
 BYTE   N11  An2
 BYTE   W12
 BYTE   Dn1  v012
 BYTE   N11  Fs1  v036
 BYTE   W12
 BYTE   Cn1
 BYTE   N11  Fs1  v012
 BYTE   W12
 BYTE   Dn1  v036
 BYTE   N11  Fs1
 BYTE   W12
 BYTE   Fs1  v012
 BYTE   W12
 BYTE   Fs1  v036
 BYTE   W12
 BYTE   Fs1  v012
 BYTE   W12
 BYTE   Dn1  v036
 BYTE   N11  Fs1
 BYTE   W12
//  #02 //153   ----------------------------------------
 BYTE   Fs1  v012
 BYTE   W12
 BYTE   Dn1
 BYTE   N11  Fs1  v036
 BYTE   W12
 BYTE   Fs1  v012
 BYTE   W12
 BYTE   Cn1  v036
 BYTE   N11  Dn1  v012
 BYTE   N11  Fs1  v036
 BYTE   W12
 BYTE   Dn1
 BYTE   N11  Fs1  v012
 BYTE   W12
 BYTE   Dn1
 BYTE   N11  Fs1  v036
 BYTE   W12
 BYTE   Fs1  v012
 BYTE   W12
 BYTE   Dn1
 BYTE   N11  Fs1  v036
 BYTE   W12
//  #02 //154   ----------------------------------------
 BYTE   Cn1
 BYTE   N11  Fs1  v012
 BYTE   W12
 BYTE   Dn1
 BYTE   N11  Fs1  v036
 BYTE   W12
 BYTE   Cn1
 BYTE   N11  Fs1  v012
 BYTE   W12
 BYTE   Dn1
 BYTE   N11  Fs1  v036
 BYTE   W12
 BYTE   Fs1  v012
 BYTE   W12
 BYTE   Dn1
 BYTE   N11  Fs1  v036
 BYTE   W12
 BYTE   Fs1  v012
 BYTE   W12
 BYTE   Dn1
 BYTE   N11  Fs1  v036
 BYTE   W12
//  #02 //155   ----------------------------------------
 BYTE   Fs1  v012
 BYTE   W12
 BYTE   Dn1
 BYTE   N11  Fs1  v036
 BYTE   W12
 BYTE   Cn1  v012
 BYTE   N11  Fs1
 BYTE   W12
 BYTE   Dn1
 BYTE   N11  Fs1  v036
 BYTE   W12
 BYTE   N17  Cs1
 BYTE   W18
 BYTE   N17
 BYTE   W18
 BYTE   N11
 BYTE   W12
//  #02 //156   ----------------------------------------
 BYTE   N23  Cn1
 BYTE   N11  An2
 BYTE   W12
 BYTE   Dn1  v024
 BYTE   N11  Fs1  v036
 BYTE   W12
 BYTE   Cn1
 BYTE   N11  Fs1  v024
 BYTE   W12
 BYTE   Dn1  v036
 BYTE   N11  Fs1
 BYTE   W12
 BYTE   Fs1  v024
 BYTE   W12
 BYTE   Fs1  v036
 BYTE   W12
 BYTE   Fs1  v024
 BYTE   W12
 BYTE   Dn1  v036
 BYTE   N11  Fs1
 BYTE   W12
//  #02 //157   ----------------------------------------
 BYTE   Fs1  v024
 BYTE   W12
 BYTE   Dn1
 BYTE   N11  Fs1  v036
 BYTE   W12
 BYTE   Fs1  v024
 BYTE   W12
 BYTE   Cn1  v036
 BYTE   N11  Dn1  v024
 BYTE   N11  Fs1  v036
 BYTE   W12
 BYTE   Dn1
 BYTE   N11  Fs1  v024
 BYTE   W12
 BYTE   Dn1
 BYTE   N11  Fs1  v036
 BYTE   W12
 BYTE   Fs1  v024
 BYTE   W12
 BYTE   Dn1
 BYTE   N11  Fs1  v036
 BYTE   W12
//  #02 //158   ----------------------------------------
 BYTE   Cn1
 BYTE   N11  Fs1  v024
 BYTE   W12
 BYTE   Dn1
 BYTE   N11  Fs1  v036
 BYTE   W12
 BYTE   Cn1
 BYTE   N11  Fs1  v024
 BYTE   W12
 BYTE   Dn1
 BYTE   N11  Fs1  v036
 BYTE   W12
 BYTE   Dn1
 BYTE   N11  Fs1  v024
 BYTE   W12
 BYTE   Dn1
 BYTE   N11  Fs1  v036
 BYTE   W12
 BYTE   Fs1  v024
 BYTE   W12
 BYTE   Cn1  v036
 BYTE   N11  Dn1  v024
 BYTE   N11  Fs1  v036
 BYTE   W12
//  #02 //159   ----------------------------------------
 BYTE   Fs1  v024
 BYTE   W12
 BYTE   Dn1
 BYTE   N11  Fs1  v036
 BYTE   W12
 BYTE   Fs1  v024
 BYTE   W12
 BYTE   N05  Cn1
 BYTE   N11  Fs1  v036
 BYTE   W06
 BYTE   N05  Cn1  v024
 BYTE   W06
 BYTE   N44
 BYTE   N44  Dn1
 BYTE   N44  An2
 BYTE   W48
//  #02 //160   ----------------------------------------
Label_0183F031:
 BYTE   N23  Cn1  v036
 BYTE   N23  An2
 BYTE   W24
 BYTE   Cn1
 BYTE   N11  As1
 BYTE   W12
 BYTE   N11
 BYTE   W12
 BYTE   N23  Cn1
 BYTE   N11  As1
 BYTE   W12
 BYTE   N11
 BYTE   W12
 BYTE   N23  Cn1
 BYTE   N11  As1
 BYTE   W12
 BYTE   N05  Dn1
 BYTE   N05  As1
 BYTE   W06
 BYTE   Dn1
 BYTE   W06
 BYTE   PEND 
//  #02 //161   ----------------------------------------
 BYTE   N23  Cn1
 BYTE   N11  Dn1
 BYTE   N11  As1
 BYTE   W12
 BYTE   N11
 BYTE   W12
 BYTE   N23  Cn1
 BYTE   N11  As1
 BYTE   W12
 BYTE   N11
 BYTE   W12
 BYTE   N23  Cn1
 BYTE   N11  As1
 BYTE   W12
 BYTE   Dn1
 BYTE   N11  Fn1
 BYTE   W12
 BYTE   N23  Cn1
 BYTE   N11  As1
 BYTE   W12
 BYTE   Dn1
 BYTE   N11  Fn1
 BYTE   W12
//  #02 //162   ----------------------------------------
 BYTE   PATT
  POIN2 Label_0183F031
//  #02 //163   ----------------------------------------
 BYTE   N23  Cn1  v036
 BYTE   N11  As1
 BYTE   W12
 BYTE   Dn1
 BYTE   N11  As1
 BYTE   W12
 BYTE   N23  Cn1
 BYTE   N11  As1
 BYTE   W12
 BYTE   Dn1
 BYTE   N11  As1
 BYTE   W12
 BYTE   N23  Cn1
 BYTE   N05  Dn1
 BYTE   W06
 BYTE   N05
 BYTE   W06
 BYTE   N05
 BYTE   W06
 BYTE   N05
 BYTE   W06
 BYTE   N23  Cn1
 BYTE   N05  An1
 BYTE   W06
 BYTE   N05
 BYTE   W06
 BYTE   Fn1
 BYTE   W06
 BYTE   N05
 BYTE   W06
//  #02 //164   ----------------------------------------
 BYTE   N23  Cn1
 BYTE   N23  An2
 BYTE   W24
 BYTE   Cn1
 BYTE   N23  An2
 BYTE   W24
 BYTE   Cn1
 BYTE   N23  Dn1
 BYTE   N23  An2
 BYTE   W24
 BYTE   Cn1
 BYTE   N11  An2
 BYTE   W12
 BYTE   Dn1
 BYTE   W12
//  #02 //165   ----------------------------------------
 BYTE   N23  Cn1
 BYTE   N11  An2
 BYTE   W12
 BYTE   Dn1
 BYTE   W12
 BYTE   N23  Cn1
 BYTE   N11  An2
 BYTE   W24
 BYTE   N23  Cn1
 BYTE   N23  Dn1
 BYTE   N23  An2
 BYTE   W24
 BYTE   N11  Cn1
 BYTE   N11  Dn1
 BYTE   N11  An2
 BYTE   W12
 BYTE   N05  Cn1
 BYTE   N05  Dn1
 BYTE   W06
 BYTE   Cn1
 BYTE   N05  Dn1
 BYTE   W06
//  #02 //166   ----------------------------------------
 BYTE   N32  Cn1
 BYTE   N05  Dn1
 BYTE   N05  An2
 BYTE   W06
 BYTE   Dn1
 BYTE   W06
 BYTE   N05
 BYTE   W06
 BYTE   N05
 BYTE   W06
 BYTE   N05
 BYTE   W06
 BYTE   N05
 BYTE   W06
 BYTE   N32  Cn1
 BYTE   N05  Dn1
 BYTE   N05  En2
 BYTE   W06
 BYTE   Dn1
 BYTE   W06
 BYTE   N05
 BYTE   W06
 BYTE   N05
 BYTE   W06
 BYTE   N05
 BYTE   W06
 BYTE   N05
 BYTE   W06
 BYTE   N32  Cn1
 BYTE   N05  Dn1
 BYTE   N05  Cs2
 BYTE   W06
 BYTE   Dn1
 BYTE   W06
 BYTE   N05
 BYTE   W06
 BYTE   N05
 BYTE   W06
//  #02 //167   ----------------------------------------
 BYTE   N05
 BYTE   W06
 BYTE   N05
 BYTE   W06
 BYTE   N23  Cn1
 BYTE   N05  Dn1
 BYTE   N05  An2
 BYTE   W06
 BYTE   Dn1
 BYTE   W06
 BYTE   N05
 BYTE   W06
 BYTE   N05
 BYTE   W06
 BYTE   N05
 BYTE   W06
 BYTE   N05
 BYTE   W06
 BYTE   N23  Cn1
 BYTE   N05  Dn1
 BYTE   N05  Fn1
 BYTE   N05  Bn1
 BYTE   W06
 BYTE   Dn1
 BYTE   W06
 BYTE   N05
 BYTE   W06
 BYTE   N05
 BYTE   W06
 BYTE   N11  Cn1
 BYTE   N05  Dn1
 BYTE   N05  As1
 BYTE   N05  Fn2
 BYTE   W06
 BYTE   Dn1
 BYTE   W06
 BYTE   N05
 BYTE   W06
 BYTE   N05
 BYTE   W06
//  #02 //168   ----------------------------------------
 BYTE   N11  Cn1
 BYTE   N23  Dn1
 BYTE   N23  An2
 BYTE   W12
 BYTE   N11  Cn1
 BYTE   W12
 BYTE   N23  Dn1
 BYTE   N23  As1
 BYTE   W12
 BYTE   N11  Cn1
 BYTE   W12
 BYTE   N23  Dn1
 BYTE   N23  As1
 BYTE   W12
 BYTE   N11  Cn1
 BYTE   W12
 BYTE   N23  Dn1
 BYTE   N23  As1
 BYTE   W12
 BYTE   N11  Cn1
 BYTE   W12
//  #02 //169   ----------------------------------------
 BYTE   N23  Dn1
 BYTE   N23  As1
 BYTE   W12
 BYTE   N11  Cn1
 BYTE   W12
 BYTE   N23  Dn1
 BYTE   N23  As1
 BYTE   W12
 BYTE   N11  Cn1
 BYTE   W12
 BYTE   N23  Dn1
 BYTE   N23  As1
 BYTE   W12
 BYTE   N11  Cn1
 BYTE   W12
 BYTE   Dn1
 BYTE   N11  As1
 BYTE   W12
 BYTE   Cn1
 BYTE   N05  Dn1
 BYTE   W06
 BYTE   N05
 BYTE   W06
//  #02 //170   ----------------------------------------
 BYTE   N23  Cn1
 BYTE   N11  Dn1
 BYTE   N11  An2
 BYTE   W12
 BYTE   Dn1
 BYTE   N11  Fn1
 BYTE   W12
 BYTE   N23  Cn1
 BYTE   N11  Dn1
 BYTE   N11  Fn1
 BYTE   W12
 BYTE   Dn1
 BYTE   N11  Fn1
 BYTE   W12
 BYTE   N23  Cn1
 BYTE   N11  Dn1
 BYTE   N11  Fn1
 BYTE   W12
 BYTE   Dn1
 BYTE   N11  Fn1
 BYTE   W12
 BYTE   N23  Cn1
 BYTE   N11  Dn1
 BYTE   N11  Fn1
 BYTE   W12
 BYTE   Dn1
 BYTE   N11  Fn1
 BYTE   W12
//  #02 //171   ----------------------------------------
 BYTE   N23  Cn1
 BYTE   N11  Dn1
 BYTE   N11  Fn1
 BYTE   W12
 BYTE   Dn1
 BYTE   N11  Fn1
 BYTE   W12
 BYTE   N23  Cn1
 BYTE   N11  Dn1
 BYTE   N11  Fn1
 BYTE   W12
 BYTE   Dn1
 BYTE   N11  Fn1
 BYTE   W12
 BYTE   N23  Cn1
 BYTE   N11  Dn1
 BYTE   N11  Fn1
 BYTE   W12
 BYTE   Dn1
 BYTE   N11  Fn1
 BYTE   W12
 BYTE   Cn1
 BYTE   N11  Dn1
 BYTE   N11  Fn1
 BYTE   W12
 BYTE   Cn1
 BYTE   N11  Dn1
 BYTE   N11  As1
 BYTE   W12
//  #02 //172   ----------------------------------------
 BYTE   W96
//  #02 //173   ----------------------------------------
 BYTE   W96
//  #02 //174   ----------------------------------------
 BYTE   W96
//  #02 //175   ----------------------------------------
 BYTE   W48
 BYTE   Cn1
 BYTE   N05  Dn1
 BYTE   W06
 BYTE   N05
 BYTE   W06
 BYTE   N05
 BYTE   W06
 BYTE   N05
 BYTE   W06
 BYTE   N11  Cn1
 BYTE   N05  Bn1
 BYTE   W06
 BYTE   N05
 BYTE   W06
 BYTE   An1
 BYTE   W06
 BYTE   N05
 BYTE   W06
//  #02 //176   ----------------------------------------
 BYTE   N11  Cn1
 BYTE   N05  Dn1
 BYTE   N05  An2
 BYTE   W06
 BYTE   Dn1
 BYTE   W06
 BYTE   N05
 BYTE   W06
 BYTE   N05
 BYTE   W06
 BYTE   N05
 BYTE   W06
 BYTE   N05
 BYTE   W06
 BYTE   N11  Cn1
 BYTE   N05  Dn1
 BYTE   N05  An2
 BYTE   W06
 BYTE   Dn1
 BYTE   W06
 BYTE   N05
 BYTE   W06
 BYTE   N05
 BYTE   W06
 BYTE   N05
 BYTE   W06
 BYTE   N05
 BYTE   W06
 BYTE   N11  Cn1
 BYTE   N05  Dn1
 BYTE   N05  An2
 BYTE   W06
 BYTE   Dn1
 BYTE   W06
 BYTE   N05
 BYTE   W06
 BYTE   N05
 BYTE   W06
//  #02 //177   ----------------------------------------
 BYTE   N05
 BYTE   W06
 BYTE   N05
 BYTE   W06
 BYTE   N11  Cn1
 BYTE   N05  Dn1
 BYTE   N05  An2
 BYTE   W06
 BYTE   Dn1
 BYTE   W06
 BYTE   N05
 BYTE   W06
 BYTE   N05
 BYTE   W06
 BYTE   N05
 BYTE   W06
 BYTE   N05
 BYTE   W06
 BYTE   N11  Cn1
 BYTE   N05  As1
 BYTE   N05  Bn1
 BYTE   W06
 BYTE   N05
 BYTE   W06
 BYTE   N05
 BYTE   W06
 BYTE   N05
 BYTE   W06
 BYTE   N11  Cn1
 BYTE   N05  An1
 BYTE   N05  As1
 BYTE   W06
 BYTE   An1
 BYTE   W06
 BYTE   N05
 BYTE   W06
 BYTE   N05
 BYTE   W06
//  #02 //178   ----------------------------------------
 BYTE   N11  Cn1
 BYTE   N05  An1
 BYTE   N05  An2
 BYTE   W06
 BYTE   An1
 BYTE   W06
 BYTE   N05
 BYTE   W06
 BYTE   N05
 BYTE   W06
 BYTE   N05
 BYTE   W06
 BYTE   N05
 BYTE   W06
 BYTE   N11  Cn1
 BYTE   N05  Fn1
 BYTE   N05  An2
 BYTE   W06
 BYTE   Fn1
 BYTE   W06
 BYTE   N05
 BYTE   W06
 BYTE   N05
 BYTE   W06
 BYTE   N05
 BYTE   W06
 BYTE   N05
 BYTE   W06
 BYTE   N11  Cn1
 BYTE   N05  Dn1
 BYTE   N05  An2
 BYTE   W06
 BYTE   Dn1
 BYTE   W06
 BYTE   N05
 BYTE   W06
 BYTE   N05
 BYTE   W06
//  #02 //179   ----------------------------------------
 BYTE   Bn1
 BYTE   W06
 BYTE   N05
 BYTE   W06
 BYTE   N11  Cn1
 BYTE   N05  Bn1
 BYTE   N05  An2
 BYTE   W06
 BYTE   Bn1
 BYTE   W06
 BYTE   An1
 BYTE   W06
 BYTE   N05
 BYTE   W06
 BYTE   N05
 BYTE   W06
 BYTE   N05
 BYTE   W06
 BYTE   N11  Cn1
 BYTE   N05  Fn1
 BYTE   N05  As1
 BYTE   W06
 BYTE   Fn1
 BYTE   W06
 BYTE   N05
 BYTE   W06
 BYTE   N05
 BYTE   W06
 BYTE   N11  Cn1
 BYTE   N05  Dn1
 BYTE   N05  As1
 BYTE   W06
 BYTE   Dn1
 BYTE   W06
 BYTE   N05
 BYTE   W06
 BYTE   N05
 BYTE   W06
//  #02 //180   ----------------------------------------
 BYTE   N11  Cn1
 BYTE   N05  Dn1
 BYTE   N05  An2
 BYTE   W06
 BYTE   Dn1
 BYTE   W06
 BYTE   N05
 BYTE   W06
 BYTE   N05
 BYTE   W06
 BYTE   N05
 BYTE   W06
 BYTE   N05
 BYTE   W06
 BYTE   N11  Cn1
 BYTE   N05  Dn1
 BYTE   W06
 BYTE   N05
 BYTE   W06
 BYTE   N05
 BYTE   W06
 BYTE   N05
 BYTE   W06
 BYTE   N05
 BYTE   W06
 BYTE   N05
 BYTE   W06
 BYTE   N23  Cn1
 BYTE   N05  Dn1
 BYTE   N05  Fn1
 BYTE   W06
 BYTE   An1
 BYTE   N05  Bn1
 BYTE   W06
 BYTE   An1
 BYTE   N05  Bn1
 BYTE   W06
 BYTE   An1
 BYTE   N05  Bn1
 BYTE   W06
//  #02 //181   ----------------------------------------
 BYTE   PATT
  POIN2 Label_0183E7DF
//  #02 //182   ----------------------------------------
 BYTE   PATT
  POIN2 Label_0183E802
//  #02 //183   ----------------------------------------
 BYTE   PATT
  POIN2 Label_0183E81E
//  #02 //184   ----------------------------------------
 BYTE   PATT
  POIN2 Label_0183E81E
//  #02 //185   ----------------------------------------
 BYTE   PATT
  POIN2 Label_0183E83F
//  #02 //186   ----------------------------------------
 BYTE   PATT
  POIN2 Label_0183E802
//  #02 //187   ----------------------------------------
 BYTE   PATT
  POIN2 Label_0183E866
//  #02 //188   ----------------------------------------
 BYTE   PATT
  POIN2 Label_0183E88F
//  #02 //189   ----------------------------------------
 BYTE   PATT
  POIN2 Label_0183E8C0
//  #02 //190   ----------------------------------------
 BYTE   N23  Cn1  v036
 BYTE   N23  An2
 BYTE   W24
 BYTE   As1
 BYTE   W12
 BYTE   N11  Cn1
 BYTE   W12
 BYTE   N23
 BYTE   N23  Dn1
 BYTE   N23  As1
 BYTE   W24
 BYTE   N11  Cn1
 BYTE   N23  As1
 BYTE   W12
 BYTE   N11  Cn1
 BYTE   W12
//  #02 //191   ----------------------------------------
 BYTE   N11
 BYTE   N23  Dn1
 BYTE   N23  As1
 BYTE   W12
 BYTE   N11  Cn1
 BYTE   W12
 BYTE   N11
 BYTE   N23  As1
 BYTE   W12
 BYTE   N11  Cn1
 BYTE   W12
 BYTE   N23
 BYTE   N11  Dn1
 BYTE   N11  As1
 BYTE   W12
 BYTE   Dn1
 BYTE   W12
 BYTE   Cn1
 BYTE   N23  Cs2
 BYTE   W12
 BYTE   N11  Cn1
 BYTE   W12
//  #02 //192   ----------------------------------------
 BYTE   N23
 BYTE   N23  An2
 BYTE   W24
 BYTE   N11  As1
 BYTE   W12
 BYTE   Cn1
 BYTE   N11  Dn1
 BYTE   W12
 BYTE   N23  Cn1
 BYTE   N11  As1
 BYTE   W12
 BYTE   Dn1
 BYTE   W12
 BYTE   Cn1
 BYTE   N11  As1
 BYTE   W12
 BYTE   Cn1
 BYTE   N11  Dn1
 BYTE   W12
//  #02 //193   ----------------------------------------
 BYTE   N23
 BYTE   N23  As1
 BYTE   W12
 BYTE   N11  Cn1
 BYTE   W12
 BYTE   N23  Dn1
 BYTE   N23  An2
 BYTE   W12
 BYTE   N11  Cn1
 BYTE   W12
 BYTE   N05  Bn1
 BYTE   W06
 BYTE   N05
 BYTE   W06
 BYTE   N11  Cn1
 BYTE   N05  Bn1
 BYTE   W06
 BYTE   An1
 BYTE   W06
 BYTE   N05
 BYTE   W06
 BYTE   N05
 BYTE   W06
 BYTE   N11  Cn1
 BYTE   N05  Fn1
 BYTE   W06
 BYTE   N05
 BYTE   W06
//  #02 //194   ----------------------------------------
 BYTE   N23  Cn1
 BYTE   N23  An2
 BYTE   W24
 BYTE   As1
 BYTE   W12
 BYTE   N11  Cn1
 BYTE   W12
 BYTE   N23
 BYTE   N23  Dn1
 BYTE   N23  As1
 BYTE   W24
 BYTE   N11  Cn1
 BYTE   N11  As1
 BYTE   W12
 BYTE   Cn1
 BYTE   N11  Dn1
 BYTE   W12
//  #02 //195   ----------------------------------------
 BYTE   Cn1
 BYTE   N11  As1
 BYTE   W12
 BYTE   Dn1
 BYTE   W12
 BYTE   Cn1
 BYTE   N11  As1
 BYTE   W12
 BYTE   Dn1
 BYTE   W12
 BYTE   Cn1
 BYTE   N11  Dn1
 BYTE   N11  As1
 BYTE   W12
 BYTE   Cn1
 BYTE   N11  Dn1
 BYTE   W36
//  #02 //196   ----------------------------------------
 BYTE   Cn1
 BYTE   N11  Dn1
 BYTE   N11  An2
 BYTE   W12
 BYTE   N05  Dn1
 BYTE   W06
 BYTE   N05
 BYTE   W06
 BYTE   N11
 BYTE   W12
 BYTE   Cn1
 BYTE   N11  Dn1
 BYTE   N11  An2
 BYTE   W12
 BYTE   N05  Dn1
 BYTE   W06
 BYTE   N05
 BYTE   W06
 BYTE   Bn1
 BYTE   W06
 BYTE   N05
 BYTE   W06
 BYTE   N11  Cn1
 BYTE   N05  Bn1
 BYTE   W06
 BYTE   An1
 BYTE   W06
 BYTE   N05
 BYTE   W06
 BYTE   N05
 BYTE   W06
//  #02 //197   ----------------------------------------
 BYTE   N11  Cn1
 BYTE   N11  An2
 BYTE   W60
 BYTE   N05  Fn1
 BYTE   N05  Bn1
 BYTE   W06
 BYTE   Fn1
 BYTE   N05  Bn1
 BYTE   W06
 BYTE   N11  Gn1
 BYTE   N11  An1
 BYTE   W24
//  #02 //198   ----------------------------------------
 BYTE   PATT
  POIN2 Label_0183E499
//  #02 //199   ----------------------------------------
 BYTE   PATT
  POIN2 Label_0183E4B8
//  #02 //200   ----------------------------------------
 BYTE   PATT
  POIN2 Label_0183E499
//  #02 //201   ----------------------------------------
 BYTE   PATT
  POIN2 Label_0183E4DC
//  #02 //202   ----------------------------------------
 BYTE   PATT
  POIN2 Label_0183E499
//  #02 //203   ----------------------------------------
 BYTE   PATT
  POIN2 Label_0183E4B8
//  #02 //204   ----------------------------------------
 BYTE   N11  Cn1  v036
 BYTE   N11  Dn1
 BYTE   N11  An2
 BYTE   W12
 BYTE   Cn1
 BYTE   W12
 BYTE   N11
 BYTE   W12
 BYTE   N11
 BYTE   N11  Dn1
 BYTE   N11  Cs2
 BYTE   W12
 BYTE   Cn1
 BYTE   W12
 BYTE   N11
 BYTE   W12
 BYTE   N11
 BYTE   N05  Bn1
 BYTE   W06
 BYTE   N05
 BYTE   W06
 BYTE   N11  Cn1
 BYTE   N05  An1
 BYTE   W06
 BYTE   N05
 BYTE   W06
//  #02 //205   ----------------------------------------
 BYTE   N11  Cn1
 BYTE   N11  Dn1
 BYTE   N11  Fn1
 BYTE   W18
 BYTE   Cn1
 BYTE   N11  Dn1
 BYTE   N11  Fn1
 BYTE   W18
 BYTE   Cn1
 BYTE   N11  Dn1
 BYTE   N11  Fn1
 BYTE   W12
 BYTE   Cn1
 BYTE   N11  Dn1
 BYTE   N11  As1
 BYTE   W18
 BYTE   Cn1
 BYTE   N11  Dn1
 BYTE   N11  As1
 BYTE   W18
 BYTE   Cn1
 BYTE   N11  Dn1
 BYTE   N11  As1
 BYTE   W12
//  #02 //206   ----------------------------------------
 BYTE   W24
 BYTE   N23  Cn1
 BYTE   N23  An2
 BYTE   W72
//  #02 //207   ----------------------------------------
 BYTE   W96
//  #02 //208   ----------------------------------------
 BYTE   W96
//  #02 //209   ----------------------------------------
 BYTE   W96
//  #02 //210   ----------------------------------------
 BYTE   W96
//  #02 //211   ----------------------------------------
 BYTE   W96
//  #02 //212   ----------------------------------------
 BYTE   W96
//  #02 //213   ----------------------------------------
 BYTE   W76
 BYTE   FINE

//**************** Track 3 (Midi-Chn.2) ****************//

song38_003:
//  #03 //000   ----------------------------------------
 BYTE   KEYSH   song38_key+0
 BYTE   VOICE   44
 BYTE   MODT 0
 BYTE   LFOS 44
 BYTE   VOL   54*song38_mvl/mxv
 BYTE   MODT 0
 BYTE   LFOS 44
 BYTE   PAN   c_v+0
 BYTE   N11  Gs2  v036
 BYTE   W24
 BYTE   N11
 BYTE   W12
 BYTE   Cs3
 BYTE   W24
 BYTE   N11
 BYTE   W12
 BYTE   Fs3
 BYTE   W24
//  #03 //001   ----------------------------------------
Label_010E0488:
 BYTE   N11  Fs3  v036
 BYTE   W12
 BYTE   Gs3
 BYTE   W24
 BYTE   N11
 BYTE   W12
 BYTE   Cs3
 BYTE   W48
 BYTE   PEND 
//  #03 //002   ----------------------------------------
Label_010E0493:
 BYTE   N11  Gs2  v036
 BYTE   W24
 BYTE   N11
 BYTE   W12
 BYTE   Cs3
 BYTE   W24
 BYTE   N11
 BYTE   W12
 BYTE   Fs3
 BYTE   W24
 BYTE   PEND 
//  #03 //003   ----------------------------------------
 BYTE   PATT
  POIN2 Label_010E0488
//  #03 //004   ----------------------------------------
Label_010E04A5:
 BYTE   N11  As2  v036
 BYTE   W24
 BYTE   N11
 BYTE   W12
 BYTE   Cs3
 BYTE   W24
 BYTE   N11
 BYTE   W12
 BYTE   Fs3
 BYTE   W24
 BYTE   PEND 
//  #03 //005   ----------------------------------------
 BYTE   PATT
  POIN2 Label_010E0488
//  #03 //006   ----------------------------------------
 BYTE   PATT
  POIN2 Label_010E04A5
//  #03 //007   ----------------------------------------
 BYTE   N11  Fs3  v036
 BYTE   W12
 BYTE   Gs3
 BYTE   W24
 BYTE   N11
 BYTE   W12
 BYTE   As3
 BYTE   W48
//  #03 //008   ----------------------------------------
 BYTE   PATT
  POIN2 Label_010E0493
//  #03 //009   ----------------------------------------
 BYTE   PATT
  POIN2 Label_010E0488
//  #03 //010   ----------------------------------------
 BYTE   PATT
  POIN2 Label_010E0493
//  #03 //011   ----------------------------------------
 BYTE   PATT
  POIN2 Label_010E0488
//  #03 //012   ----------------------------------------
 BYTE   PATT
  POIN2 Label_010E04A5
//  #03 //013   ----------------------------------------
 BYTE   PATT
  POIN2 Label_010E0488
//  #03 //014   ----------------------------------------
 BYTE   PATT
  POIN2 Label_010E04A5
//  #03 //015   ----------------------------------------
 BYTE   N11  Fs3  v036
 BYTE   W96
//  #03 //016   ----------------------------------------
 BYTE   W96
//  #03 //017   ----------------------------------------
 BYTE   W96
//  #03 //018   ----------------------------------------
 BYTE   W96
//  #03 //019   ----------------------------------------
 BYTE   W96
//  #03 //020   ----------------------------------------
 BYTE   W96
//  #03 //021   ----------------------------------------
 BYTE   W96
//  #03 //022   ----------------------------------------
 BYTE   W96
//  #03 //023   ----------------------------------------
 BYTE   W96
//  #03 //024   ----------------------------------------
 BYTE   W96
//  #03 //025   ----------------------------------------
 BYTE   W96
//  #03 //026   ----------------------------------------
 BYTE   W96
//  #03 //027   ----------------------------------------
 BYTE   W96
//  #03 //028   ----------------------------------------
 BYTE   W96
//  #03 //029   ----------------------------------------
 BYTE   W96
//  #03 //030   ----------------------------------------
 BYTE   W96
//  #03 //031   ----------------------------------------
 BYTE   W96
//  #03 //032   ----------------------------------------
 BYTE   W96
//  #03 //033   ----------------------------------------
 BYTE   W96
//  #03 //034   ----------------------------------------
 BYTE   W96
//  #03 //035   ----------------------------------------
 BYTE   W96
//  #03 //036   ----------------------------------------
 BYTE   W96
//  #03 //037   ----------------------------------------
 BYTE   W96
//  #03 //038   ----------------------------------------
 BYTE   W96
//  #03 //039   ----------------------------------------
 BYTE   W96
//  #03 //040   ----------------------------------------
 BYTE   W96
//  #03 //041   ----------------------------------------
 BYTE   W96
//  #03 //042   ----------------------------------------
 BYTE   W96
//  #03 //043   ----------------------------------------
 BYTE   W96
//  #03 //044   ----------------------------------------
 BYTE   W72
 BYTE   N22  Fs2  v060
 BYTE   W24
//  #03 //045   ----------------------------------------
 BYTE   N22
 BYTE   W24
 BYTE   Gs2
 BYTE   W24
 BYTE   Fs2
 BYTE   W24
 BYTE   N11  Ds3
 BYTE   W12
 BYTE   N11
 BYTE   W12
//  #03 //046   ----------------------------------------
 BYTE   W96
//  #03 //047   ----------------------------------------
 BYTE   W96
//  #03 //048   ----------------------------------------
 BYTE   W96
//  #03 //049   ----------------------------------------
 BYTE   W96
//  #03 //050   ----------------------------------------
 BYTE   W96
//  #03 //051   ----------------------------------------
 BYTE   W96
//  #03 //052   ----------------------------------------
 BYTE   W96
//  #03 //053   ----------------------------------------
 BYTE   W96
//  #03 //054   ----------------------------------------
 BYTE   W96
//  #03 //055   ----------------------------------------
 BYTE   W96
//  #03 //056   ----------------------------------------
 BYTE   W96
//  #03 //057   ----------------------------------------
 BYTE   W96
//  #03 //058   ----------------------------------------
 BYTE   W96
//  #03 //059   ----------------------------------------
 BYTE   W96
//  #03 //060   ----------------------------------------
 BYTE   W96
//  #03 //061   ----------------------------------------
 BYTE   W96
//  #03 //062   ----------------------------------------
 BYTE   W96
//  #03 //063   ----------------------------------------
 BYTE   W96
//  #03 //064   ----------------------------------------
 BYTE   W96
//  #03 //065   ----------------------------------------
 BYTE   W96
//  #03 //066   ----------------------------------------
 BYTE   W96
//  #03 //067   ----------------------------------------
 BYTE   W96
//  #03 //068   ----------------------------------------
 BYTE   W96
//  #03 //069   ----------------------------------------
 BYTE   W96
//  #03 //070   ----------------------------------------
 BYTE   W96
//  #03 //071   ----------------------------------------
 BYTE   W96
//  #03 //072   ----------------------------------------
 BYTE   W96
//  #03 //073   ----------------------------------------
 BYTE   W96
//  #03 //074   ----------------------------------------
 BYTE   W96
//  #03 //075   ----------------------------------------
 BYTE   W96
//  #03 //076   ----------------------------------------
 BYTE   W96
//  #03 //077   ----------------------------------------
 BYTE   W96
//  #03 //078   ----------------------------------------
 BYTE   W96
//  #03 //079   ----------------------------------------
 BYTE   W96
//  #03 //080   ----------------------------------------
 BYTE   W96
//  #03 //081   ----------------------------------------
 BYTE   W96
//  #03 //082   ----------------------------------------
 BYTE   W96
//  #03 //083   ----------------------------------------
 BYTE   W96
//  #03 //084   ----------------------------------------
 BYTE   N05  Cs3  v036
 BYTE   W06
 BYTE   N05
 BYTE   W06
 BYTE   N05
 BYTE   W06
 BYTE   N05
 BYTE   W30
 BYTE   N05
 BYTE   W06
 BYTE   N05
 BYTE   W06
 BYTE   N05
 BYTE   W06
 BYTE   N05
 BYTE   W30
//  #03 //085   ----------------------------------------
 BYTE   N05
 BYTE   W06
 BYTE   N05
 BYTE   W06
 BYTE   N05
 BYTE   W06
 BYTE   N05
 BYTE   W06
 BYTE   N05
 BYTE   W06
 BYTE   N05
 BYTE   W06
 BYTE   N05
 BYTE   W06
 BYTE   N05
 BYTE   W54
//  #03 //086   ----------------------------------------
 BYTE   W36
 BYTE   N17  Gs3
 BYTE   W18
 BYTE   N05
 BYTE   W18
 BYTE   N11
 BYTE   W24
//  #03 //087   ----------------------------------------
 BYTE   W12
 BYTE   N17  Cs4
 BYTE   W18
 BYTE   N05
 BYTE   W18
 BYTE   N11
 BYTE   W48
//  #03 //088   ----------------------------------------
 BYTE   W12
 BYTE   N17
 BYTE   W18
 BYTE   N05
 BYTE   W18
 BYTE   N11
 BYTE   W36
 BYTE   Gs3
 BYTE   W12
//  #03 //089   ----------------------------------------
 BYTE   W06
 BYTE   N11
 BYTE   W18
 BYTE   N11
 BYTE   W72
//  #03 //090   ----------------------------------------
 BYTE   W12
 BYTE   Fs3
 BYTE   W18
 BYTE   N11
 BYTE   W18
 BYTE   N11
 BYTE   W36
 BYTE   Cs3
 BYTE   W12
//  #03 //091   ----------------------------------------
 BYTE   W06
 BYTE   Fs3
 BYTE   W18
 BYTE   N11
 BYTE   W72
//  #03 //092   ----------------------------------------
 BYTE   W96
//  #03 //093   ----------------------------------------
 BYTE   W96
//  #03 //094   ----------------------------------------
 BYTE   W96
//  #03 //095   ----------------------------------------
 BYTE   W96
//  #03 //096   ----------------------------------------
 BYTE   W96
//  #03 //097   ----------------------------------------
 BYTE   W96
//  #03 //098   ----------------------------------------
 BYTE   W96
//  #03 //099   ----------------------------------------
 BYTE   W96
//  #03 //100   ----------------------------------------
 BYTE   W96
//  #03 //101   ----------------------------------------
 BYTE   W96
//  #03 //102   ----------------------------------------
 BYTE   W96
//  #03 //103   ----------------------------------------
 BYTE   W96
//  #03 //104   ----------------------------------------
 BYTE   W96
//  #03 //105   ----------------------------------------
 BYTE   W96
//  #03 //106   ----------------------------------------
 BYTE   W96
//  #03 //107   ----------------------------------------
 BYTE   W96
//  #03 //108   ----------------------------------------
 BYTE   W96
//  #03 //109   ----------------------------------------
 BYTE   W96
//  #03 //110   ----------------------------------------
 BYTE   W96
//  #03 //111   ----------------------------------------
 BYTE   W96
//  #03 //112   ----------------------------------------
 BYTE   W96
//  #03 //113   ----------------------------------------
 BYTE   W96
//  #03 //114   ----------------------------------------
 BYTE   W96
//  #03 //115   ----------------------------------------
 BYTE   W96
//  #03 //116   ----------------------------------------
 BYTE   W96
//  #03 //117   ----------------------------------------
 BYTE   W96
//  #03 //118   ----------------------------------------
 BYTE   W96
//  #03 //119   ----------------------------------------
 BYTE   W96
//  #03 //120   ----------------------------------------
 BYTE   W96
//  #03 //121   ----------------------------------------
 BYTE   W96
//  #03 //122   ----------------------------------------
 BYTE   W96
//  #03 //123   ----------------------------------------
 BYTE   W96
//  #03 //124   ----------------------------------------
 BYTE   W96
//  #03 //125   ----------------------------------------
 BYTE   W96
//  #03 //126   ----------------------------------------
 BYTE   W96
//  #03 //127   ----------------------------------------
 BYTE   W96
//  #03 //128   ----------------------------------------
 BYTE   W96
//  #03 //129   ----------------------------------------
 BYTE   W96
//  #03 //130   ----------------------------------------
 BYTE   W96
//  #03 //131   ----------------------------------------
 BYTE   W96
//  #03 //132   ----------------------------------------
 BYTE   W96
//  #03 //133   ----------------------------------------
 BYTE   W96
//  #03 //134   ----------------------------------------
 BYTE   W96
//  #03 //135   ----------------------------------------
 BYTE   W96
//  #03 //136   ----------------------------------------
 BYTE   W96
//  #03 //137   ----------------------------------------
 BYTE   W96
//  #03 //138   ----------------------------------------
 BYTE   W96
//  #03 //139   ----------------------------------------
 BYTE   W96
//  #03 //140   ----------------------------------------
 BYTE   W96
//  #03 //141   ----------------------------------------
 BYTE   W96
//  #03 //142   ----------------------------------------
 BYTE   W96
//  #03 //143   ----------------------------------------
 BYTE   W96
//  #03 //144   ----------------------------------------
 BYTE   W96
//  #03 //145   ----------------------------------------
 BYTE   W96
//  #03 //146   ----------------------------------------
 BYTE   W96
//  #03 //147   ----------------------------------------
 BYTE   W96
//  #03 //148   ----------------------------------------
 BYTE   W96
//  #03 //149   ----------------------------------------
 BYTE   W96
//  #03 //150   ----------------------------------------
 BYTE   W96
//  #03 //151   ----------------------------------------
 BYTE   W96
//  #03 //152   ----------------------------------------
 BYTE   W96
//  #03 //153   ----------------------------------------
 BYTE   W96
//  #03 //154   ----------------------------------------
 BYTE   W96
//  #03 //155   ----------------------------------------
 BYTE   W96
//  #03 //156   ----------------------------------------
 BYTE   W96
//  #03 //157   ----------------------------------------
 BYTE   W96
//  #03 //158   ----------------------------------------
 BYTE   W96
//  #03 //159   ----------------------------------------
 BYTE   W96
//  #03 //160   ----------------------------------------
 BYTE   W96
//  #03 //161   ----------------------------------------
 BYTE   W96
//  #03 //162   ----------------------------------------
 BYTE   W96
//  #03 //163   ----------------------------------------
 BYTE   W96
//  #03 //164   ----------------------------------------
 BYTE   W96
//  #03 //165   ----------------------------------------
 BYTE   W96
//  #03 //166   ----------------------------------------
 BYTE   W96
//  #03 //167   ----------------------------------------
 BYTE   W96
//  #03 //168   ----------------------------------------
 BYTE   W96
//  #03 //169   ----------------------------------------
 BYTE   W96
//  #03 //170   ----------------------------------------
 BYTE   W96
//  #03 //171   ----------------------------------------
 BYTE   W96
//  #03 //172   ----------------------------------------
 BYTE   W96
//  #03 //173   ----------------------------------------
 BYTE   W96
//  #03 //174   ----------------------------------------
 BYTE   W96
//  #03 //175   ----------------------------------------
 BYTE   W96
//  #03 //176   ----------------------------------------
 BYTE   W96
//  #03 //177   ----------------------------------------
 BYTE   W96
//  #03 //178   ----------------------------------------
 BYTE   W96
//  #03 //179   ----------------------------------------
 BYTE   W96
//  #03 //180   ----------------------------------------
 BYTE   W96
//  #03 //181   ----------------------------------------
 BYTE   W96
//  #03 //182   ----------------------------------------
 BYTE   W96
//  #03 //183   ----------------------------------------
 BYTE   W96
//  #03 //184   ----------------------------------------
 BYTE   W96
//  #03 //185   ----------------------------------------
 BYTE   W96
//  #03 //186   ----------------------------------------
 BYTE   W96
//  #03 //187   ----------------------------------------
 BYTE   W96
//  #03 //188   ----------------------------------------
 BYTE   W96
//  #03 //189   ----------------------------------------
 BYTE   W96
//  #03 //190   ----------------------------------------
 BYTE   W96
//  #03 //191   ----------------------------------------
 BYTE   W96
//  #03 //192   ----------------------------------------
 BYTE   W96
//  #03 //193   ----------------------------------------
 BYTE   W96
//  #03 //194   ----------------------------------------
 BYTE   W96
//  #03 //195   ----------------------------------------
 BYTE   W96
//  #03 //196   ----------------------------------------
 BYTE   W96
//  #03 //197   ----------------------------------------
 BYTE   W96
//  #03 //198   ----------------------------------------
 BYTE   W96
//  #03 //199   ----------------------------------------
 BYTE   W96
//  #03 //200   ----------------------------------------
 BYTE   W96
//  #03 //201   ----------------------------------------
 BYTE   W96
//  #03 //202   ----------------------------------------
 BYTE   W96
//  #03 //203   ----------------------------------------
 BYTE   W96
//  #03 //204   ----------------------------------------
 BYTE   W96
//  #03 //205   ----------------------------------------
 BYTE   W96
//  #03 //206   ----------------------------------------
 BYTE   W96
//  #03 //207   ----------------------------------------
 BYTE   W96
//  #03 //208   ----------------------------------------
 BYTE   W60
 BYTE   Cs4
 BYTE   W36
//  #03 //209   ----------------------------------------
 BYTE   Gs3
 BYTE   W36
 BYTE   Fs3
 BYTE   W36
 BYTE   Fn3
 BYTE   W24
//  #03 //210   ----------------------------------------
 BYTE   Cs3
 BYTE   W24
 BYTE   Gs2
 BYTE   W36
 BYTE   Fs2
 BYTE   W36
//  #03 //211   ----------------------------------------
 BYTE   Fn2
 BYTE   W36
 BYTE   Cs2
 BYTE   W36
 BYTE   Gs1
 BYTE   W24
//  #03 //212   ----------------------------------------
 BYTE   TIE  Fs1
 BYTE   W96
//  #03 //213   ----------------------------------------
 BYTE   W96
//  #03 //214   ----------------------------------------
 BYTE   W96
//  #03 //215   ----------------------------------------
 BYTE   W76
 BYTE   EOT
 BYTE   FINE

//**************** Track 4 (Midi-Chn.3) ****************//

song38_004:
//  #04 //000   ----------------------------------------
 BYTE   KEYSH   song38_key+0
 BYTE   VOICE   98
 BYTE   MODT 0
 BYTE   LFOS 44
 BYTE   VOL   53*song38_mvl/mxv
 BYTE   MODT 0
 BYTE   LFOS 44
 BYTE   PAN   c_v+0
 BYTE   W12
 BYTE   N11  Gs2  v012
 BYTE   W12
 BYTE   N11
 BYTE   W12
 BYTE   N11
 BYTE   W12
 BYTE   N11
 BYTE   N11  Cs3
 BYTE   W12
 BYTE   N11
 BYTE   W12
 BYTE   N11
 BYTE   W12
 BYTE   N11
 BYTE   N11  Fs3
 BYTE   W12
//  #04 //001   ----------------------------------------
Label_0183F489:
 BYTE   N11  Fs3  v012
 BYTE   W12
 BYTE   N11
 BYTE   W12
 BYTE   N11
 BYTE   N11  Gs3
 BYTE   W12
 BYTE   N11
 BYTE   W12
 BYTE   N11
 BYTE   W12
 BYTE   Cs3
 BYTE   N11  Gs3
 BYTE   W12
 BYTE   Cs3
 BYTE   W24
 BYTE   PEND 
//  #04 //002   ----------------------------------------
Label_0183F49E:
 BYTE   W12
 BYTE   N11  Gs2  v012
 BYTE   W12
 BYTE   N11
 BYTE   W12
 BYTE   N11
 BYTE   W12
 BYTE   N11
 BYTE   N11  Cs3
 BYTE   W12
 BYTE   N11
 BYTE   W12
 BYTE   N11
 BYTE   W12
 BYTE   N11
 BYTE   N11  Fs3
 BYTE   W12
 BYTE   PEND 
//  #04 //003   ----------------------------------------
 BYTE   PATT
  POIN2 Label_0183F489
//  #04 //004   ----------------------------------------
Label_0183F4B9:
 BYTE   W12
 BYTE   N11  As2  v012
 BYTE   W12
 BYTE   N11
 BYTE   W12
 BYTE   N11
 BYTE   W12
 BYTE   N11
 BYTE   N11  Cs3
 BYTE   W12
 BYTE   N11
 BYTE   W12
 BYTE   N11
 BYTE   W12
 BYTE   N11
 BYTE   N11  Fs3
 BYTE   W12
 BYTE   PEND 
//  #04 //005   ----------------------------------------
 BYTE   PATT
  POIN2 Label_0183F489
//  #04 //006   ----------------------------------------
 BYTE   PATT
  POIN2 Label_0183F4B9
//  #04 //007   ----------------------------------------
 BYTE   N11  Fs3  v012
 BYTE   W12
 BYTE   N11
 BYTE   W12
 BYTE   N11
 BYTE   N11  Gs3
 BYTE   W12
 BYTE   N11
 BYTE   W12
 BYTE   N11
 BYTE   W12
 BYTE   N11
 BYTE   N11  As3
 BYTE   W12
 BYTE   N11
 BYTE   W24
//  #04 //008   ----------------------------------------
 BYTE   PATT
  POIN2 Label_0183F49E
//  #04 //009   ----------------------------------------
 BYTE   PATT
  POIN2 Label_0183F489
//  #04 //010   ----------------------------------------
 BYTE   PATT
  POIN2 Label_0183F49E
//  #04 //011   ----------------------------------------
 BYTE   PATT
  POIN2 Label_0183F489
//  #04 //012   ----------------------------------------
 BYTE   PATT
  POIN2 Label_0183F4B9
//  #04 //013   ----------------------------------------
 BYTE   PATT
  POIN2 Label_0183F489
//  #04 //014   ----------------------------------------
 BYTE   TIE  As3  v012
 BYTE   TIE  Ds4
 BYTE   TIE  As4
 BYTE   W12
 BYTE   N11  As2
 BYTE   W12
 BYTE   N11
 BYTE   W12
 BYTE   N11
 BYTE   W12
 BYTE   N11
 BYTE   N11  Cs3
 BYTE   W12
 BYTE   N11
 BYTE   W12
 BYTE   N11
 BYTE   W12
 BYTE   N11
 BYTE   N11  Fs3
 BYTE   W12
//  #04 //015   ----------------------------------------
 BYTE   N92  Fs2  v036
 BYTE   N11  Fs3  v012
 BYTE   W12
 BYTE   N11
 BYTE   W12
 BYTE   N11
 BYTE   W68
 BYTE   W03
 BYTE   EOT
 BYTE   As3  v075
 BYTE   As4
 BYTE   W01
//  #04 //016   ----------------------------------------
Label_0183F537:
 BYTE   N11  Bn0  v036
 BYTE   N11  Bn1
 BYTE   N11  Fs2
 BYTE   N11  Bn2
 BYTE   W12
 BYTE   Ds1
 BYTE   N11  Bn1
 BYTE   N11  Fs2
 BYTE   N11  Bn2
 BYTE   W12
 BYTE   Fs1
 BYTE   N11  Bn1
 BYTE   N11  Fs2
 BYTE   N11  Bn2
 BYTE   W12
 BYTE   Bn0
 BYTE   N11  Bn1
 BYTE   N11  Fs2
 BYTE   N11  Bn2
 BYTE   W12
 BYTE   Ds1
 BYTE   N11  Bn1
 BYTE   N11  Fs2
 BYTE   N11  Bn2
 BYTE   W12
 BYTE   Fs1
 BYTE   N11  Bn1
 BYTE   N11  Fs2
 BYTE   N11  Bn2
 BYTE   W12
 BYTE   Bn0
 BYTE   N11  Bn1
 BYTE   N11  Fs2
 BYTE   N11  Bn2
 BYTE   W12
 BYTE   Ds1
 BYTE   N11  Bn1
 BYTE   N11  Fs2
 BYTE   N11  Bn2
 BYTE   W12
 BYTE   PEND 
//  #04 //017   ----------------------------------------
Label_0183F57A:
 BYTE   N11  Fs1  v036
 BYTE   N11  Bn1
 BYTE   N11  Fs2
 BYTE   N11  Bn2
 BYTE   W12
 BYTE   Bn0
 BYTE   N11  Bn1
 BYTE   N11  Fs2
 BYTE   N11  Bn2
 BYTE   W12
 BYTE   Ds1
 BYTE   N11  Bn1
 BYTE   N11  Fs2
 BYTE   N11  Bn2
 BYTE   W12
 BYTE   Fs1
 BYTE   N11  Bn1
 BYTE   N11  Fs2
 BYTE   N11  Bn2
 BYTE   W12
 BYTE   Bn0
 BYTE   N11  Bn1
 BYTE   N11  Fs2
 BYTE   N11  Bn2
 BYTE   W12
 BYTE   Bn0
 BYTE   N11  Bn1
 BYTE   N11  Fs2
 BYTE   N11  Bn2
 BYTE   W12
 BYTE   Bn0
 BYTE   N11  Bn1
 BYTE   N11  Fs2
 BYTE   N11  Bn2
 BYTE   W12
 BYTE   Bn0
 BYTE   N11  Bn1
 BYTE   N11  Fs2
 BYTE   N11  Bn2
 BYTE   W12
 BYTE   PEND 
//  #04 //018   ----------------------------------------
Label_0183F5BD:
 BYTE   N11  Cs1  v036
 BYTE   N11  Cs2
 BYTE   N11  Gs2
 BYTE   N11  Cs3
 BYTE   W12
 BYTE   Fn1
 BYTE   N11  Cs2
 BYTE   N11  Gs2
 BYTE   N11  Cs3
 BYTE   W12
 BYTE   Gs1
 BYTE   N11  Cs2
 BYTE   N11  Gs2
 BYTE   N11  Cs3
 BYTE   W12
 BYTE   Cs1
 BYTE   N11  Cs2
 BYTE   N11  Gs2
 BYTE   N11  Cs3
 BYTE   W12
 BYTE   Fn1
 BYTE   N11  Cs2
 BYTE   N11  Gs2
 BYTE   N11  Cs3
 BYTE   W12
 BYTE   Gs1
 BYTE   N11  Cs2
 BYTE   N11  Gs2
 BYTE   N11  Cs3
 BYTE   W12
 BYTE   Cs1
 BYTE   N11  Cs2
 BYTE   N11  Gs2
 BYTE   N11  Cs3
 BYTE   W12
 BYTE   Fn1
 BYTE   N11  Cs2
 BYTE   N11  Gs2
 BYTE   N11  Cs3
 BYTE   W12
 BYTE   PEND 
//  #04 //019   ----------------------------------------
Label_0183F600:
 BYTE   N11  Gs1  v036
 BYTE   N11  Cs2
 BYTE   N11  Gs2
 BYTE   N11  Cs3
 BYTE   W12
 BYTE   Cs1
 BYTE   N11  Cs2
 BYTE   N11  Gs2
 BYTE   N11  Cs3
 BYTE   W12
 BYTE   Fn1
 BYTE   N11  Cs2
 BYTE   N11  Gs2
 BYTE   N11  Cs3
 BYTE   W12
 BYTE   Gs1
 BYTE   N11  Cs2
 BYTE   N11  Gs2
 BYTE   N11  Cs3
 BYTE   W12
 BYTE   Cs1
 BYTE   N11  Cs2
 BYTE   N11  Gs2
 BYTE   N11  Cs3
 BYTE   W12
 BYTE   Cs1
 BYTE   N11  Cs2
 BYTE   N11  Gs2
 BYTE   N11  Cs3
 BYTE   W12
 BYTE   Cs1
 BYTE   N11  Cs2
 BYTE   N11  Gs2
 BYTE   N11  Cs3
 BYTE   W12
 BYTE   Cs1
 BYTE   N11  Cs2
 BYTE   N11  Gs2
 BYTE   N11  Cs3
 BYTE   W12
 BYTE   PEND 
//  #04 //020   ----------------------------------------
Label_0183F643:
 BYTE   N11  As0  v036
 BYTE   N11  As1
 BYTE   N11  Fn2
 BYTE   N11  As2
 BYTE   W12
 BYTE   Cs1
 BYTE   N11  As1
 BYTE   N11  Fn2
 BYTE   N11  As2
 BYTE   W12
 BYTE   Fn1
 BYTE   N11  As1
 BYTE   N11  Fn2
 BYTE   N11  As2
 BYTE   W12
 BYTE   As0
 BYTE   N11  As1
 BYTE   N11  Fn2
 BYTE   N11  As2
 BYTE   W12
 BYTE   Cs1
 BYTE   N11  As1
 BYTE   N11  Fn2
 BYTE   N11  As2
 BYTE   W12
 BYTE   Fn1
 BYTE   N11  As1
 BYTE   N11  Fn2
 BYTE   N11  As2
 BYTE   W12
 BYTE   As0
 BYTE   N11  As1
 BYTE   N11  Fn2
 BYTE   N11  As2
 BYTE   W12
 BYTE   Cs1
 BYTE   N11  As1
 BYTE   N11  Fn2
 BYTE   N11  As2
 BYTE   W12
 BYTE   PEND 
//  #04 //021   ----------------------------------------
Label_0183F686:
 BYTE   N11  Fn1  v036
 BYTE   N11  As1
 BYTE   N11  Fn2
 BYTE   N11  As2
 BYTE   W12
 BYTE   As0
 BYTE   N11  As1
 BYTE   N11  Fn2
 BYTE   N11  As2
 BYTE   W12
 BYTE   Cs1
 BYTE   N11  As1
 BYTE   N11  Fn2
 BYTE   N11  As2
 BYTE   W12
 BYTE   Fn1
 BYTE   N11  As1
 BYTE   N11  Fn2
 BYTE   N11  As2
 BYTE   W12
 BYTE   As0
 BYTE   N11  As1
 BYTE   N11  Fn2
 BYTE   N11  As2
 BYTE   W12
 BYTE   As0
 BYTE   N11  As1
 BYTE   N11  Fn2
 BYTE   N11  As2
 BYTE   W12
 BYTE   As0
 BYTE   N11  As1
 BYTE   N11  Fn2
 BYTE   N11  As2
 BYTE   W12
 BYTE   As0
 BYTE   N11  As1
 BYTE   N11  Fn2
 BYTE   N11  As2
 BYTE   W12
 BYTE   PEND 
//  #04 //022   ----------------------------------------
Label_0183F6C9:
 BYTE   N11  Ds1  v036
 BYTE   N11  Ds2
 BYTE   N11  As2
 BYTE   N11  Ds3
 BYTE   W12
 BYTE   Fs1
 BYTE   N11  Ds2
 BYTE   N11  As2
 BYTE   N11  Ds3
 BYTE   W12
 BYTE   As1
 BYTE   N11  Ds2
 BYTE   N11  As2
 BYTE   N11  Ds3
 BYTE   W12
 BYTE   Ds1
 BYTE   N11  Ds2
 BYTE   N11  As2
 BYTE   N11  Ds3
 BYTE   W12
 BYTE   Fs1
 BYTE   N11  Ds2
 BYTE   N11  As2
 BYTE   N11  Ds3
 BYTE   W12
 BYTE   As1
 BYTE   N11  Ds2
 BYTE   N11  As2
 BYTE   N11  Ds3
 BYTE   W12
 BYTE   Ds1
 BYTE   N11  Ds2
 BYTE   N11  As2
 BYTE   N11  Ds3
 BYTE   W12
 BYTE   Fs1
 BYTE   N11  Ds2
 BYTE   N11  As2
 BYTE   N11  Ds3
 BYTE   W12
 BYTE   PEND 
//  #04 //023   ----------------------------------------
 BYTE   As1
 BYTE   N11  Ds2
 BYTE   N11  As2
 BYTE   N11  Ds3
 BYTE   W12
 BYTE   Ds1
 BYTE   N11  Ds2
 BYTE   N11  As2
 BYTE   N11  Ds3
 BYTE   W12
 BYTE   Fs1
 BYTE   N11  Ds2
 BYTE   N11  As2
 BYTE   N11  Ds3
 BYTE   W12
 BYTE   As1
 BYTE   N11  Ds2
 BYTE   N11  As2
 BYTE   N11  Ds3
 BYTE   W12
 BYTE   N02  Ds1
 BYTE   N44  Ds2
 BYTE   N44  As2
 BYTE   N44  Ds3
 BYTE   W02
 BYTE   N02  Dn1
 BYTE   W03
 BYTE   Cs1
 BYTE   W04
 BYTE   Cn1
 BYTE   W02
 BYTE   Bn0
 BYTE   W03
 BYTE   As0
 BYTE   W04
 BYTE   An0
 BYTE   W02
 BYTE   Gs0
 BYTE   W03
 BYTE   Gn0
 BYTE   W04
 BYTE   Fs0
 BYTE   W02
 BYTE   Fn0
 BYTE   W03
 BYTE   En0
 BYTE   W04
 BYTE   N11  Ds0
 BYTE   W12
//  #04 //024   ----------------------------------------
 BYTE   TIE  Bn0
 BYTE   N32  Fs2
 BYTE   W36
 BYTE   Cs3
 BYTE   W36
 BYTE   N23  Fs2
 BYTE   W24
//  #04 //025   ----------------------------------------
Label_0183F759:
 BYTE   N32  Cs3  v036
 BYTE   W36
 BYTE   Fs2
 BYTE   W11
 BYTE   PEND 
 BYTE   EOT
 BYTE   Bn0
 BYTE   W01
 BYTE   N44  Fs1
 BYTE   W24
 BYTE   N23  Fs2
 BYTE   W24
//  #04 //026   ----------------------------------------
 BYTE   TIE  As0
 BYTE   N68  As1
 BYTE   N68  Cs2
 BYTE   N68  Fs2
 BYTE   N68  As2
 BYTE   W72
 BYTE   N23  Fs2
 BYTE   W24
//  #04 //027   ----------------------------------------
 BYTE   PATT
  POIN2 Label_0183F759
//  #04 //028   ----------------------------------------
 BYTE   EOT
 BYTE   As0
 BYTE   W01
 BYTE   N23  As0  v036
 BYTE   W24
 BYTE   Fn1
 BYTE   N23  Gs2
 BYTE   W24
 BYTE   N68  Ds1
 BYTE   N32  As2
 BYTE   W36
 BYTE   Fn3
 BYTE   W36
//  #04 //029   ----------------------------------------
 BYTE   N23  As1
 BYTE   N23  As2
 BYTE   W24
 BYTE   N32  Cs1
 BYTE   N32  Fn3
 BYTE   W36
 BYTE   Gs1
 BYTE   N32  As2
 BYTE   W36
//  #04 //030   ----------------------------------------
 BYTE   N23  Cs1
 BYTE   N23  As2
 BYTE   W24
 BYTE   N68  Cn1
 BYTE   N32  Ds3
 BYTE   W36
 BYTE   As2
 BYTE   W36
//  #04 //031   ----------------------------------------
 BYTE   N23  Fs1
 BYTE   N23  As2
 BYTE   W24
 BYTE   N44  Cn2
 BYTE   N32  Ds3
 BYTE   W36
 BYTE   As2
 BYTE   W12
 BYTE   N02  Cn2
 BYTE   W02
 BYTE   Bn1
 BYTE   W03
 BYTE   As1
 BYTE   W04
 BYTE   An1
 BYTE   W02
 BYTE   Gs1
 BYTE   W03
 BYTE   Gn1
 BYTE   W04
 BYTE   Fs1
 BYTE   W02
 BYTE   Fn1
 BYTE   W03
 BYTE   En1
 BYTE   W01
//  #04 //032   ----------------------------------------
 BYTE   N23  As2
 BYTE   W03
 BYTE   N02  Ds1
 BYTE   W02
 BYTE   Dn1
 BYTE   W03
 BYTE   Cs1
 BYTE   W04
 BYTE   N11  Cn1
 BYTE   W12
 BYTE   Bn0
 BYTE   N23  Bn1
 BYTE   N23  Fs2
 BYTE   N23  Bn2
 BYTE   W12
 BYTE   N11  Fs1
 BYTE   W12
 BYTE   Bn0
 BYTE   N12  Bn1
 BYTE   N23  Fs2
 BYTE   N23  Bn2
 BYTE   W12
 BYTE   N11  Bn1
 BYTE   W12
 BYTE   Bn0
 BYTE   N11  Bn1
 BYTE   N11  Fs2
 BYTE   N11  Bn2
 BYTE   W12
 BYTE   Bn1
 BYTE   N11  Fs2
 BYTE   N11  Bn2
 BYTE   W24
//  #04 //033   ----------------------------------------
 BYTE   Bn0
 BYTE   N11  Bn1
 BYTE   N11  Fs2
 BYTE   N11  Bn2
 BYTE   W12
 BYTE   W12
 BYTE   Bn1
 BYTE   N11  Fs2
 BYTE   N11  Bn2
 BYTE   W12
 BYTE   Bn0
 BYTE   N23  Bn1
 BYTE   N23  Fs2
 BYTE   N23  Bn2
 BYTE   W24
 BYTE   N11  Bn0
 BYTE   N11  Bn1
 BYTE   N11  Fs2
 BYTE   N11  Bn2
 BYTE   W12
 BYTE   Fs1
 BYTE   N11  Bn1
 BYTE   N11  Fs2
 BYTE   N11  Bn2
 BYTE   W12
 BYTE   Bn0
 BYTE   N11  Bn1
 BYTE   N11  Fs2
 BYTE   N11  Bn2
 BYTE   W12
//  #04 //034   ----------------------------------------
 BYTE   Bn1
 BYTE   N11  Fs2
 BYTE   N11  Bn2
 BYTE   W12
 BYTE   Cs1
 BYTE   N23  Cs2
 BYTE   N23  Gs2
 BYTE   N23  Cs3
 BYTE   W12
 BYTE   N11  Gs1
 BYTE   W12
 BYTE   Cs1
 BYTE   N12  Cs2
 BYTE   N23  Gs2
 BYTE   N23  Cs3
 BYTE   W12
 BYTE   N11  Cs2
 BYTE   W12
 BYTE   Cs1
 BYTE   N11  Cs2
 BYTE   N11  Gs2
 BYTE   N11  Cs3
 BYTE   W12
 BYTE   Cs2
 BYTE   N11  Gs2
 BYTE   N11  Cs3
 BYTE   W24
//  #04 //035   ----------------------------------------
 BYTE   Cs1
 BYTE   N11  Cs2
 BYTE   N11  Gs2
 BYTE   N11  Cs3
 BYTE   W12
 BYTE   W12
 BYTE   Cs2
 BYTE   N11  Gs2
 BYTE   N11  Cs3
 BYTE   W12
 BYTE   Cs1
 BYTE   N23  Cs2
 BYTE   N23  Gs2
 BYTE   N23  Cs3
 BYTE   W24
 BYTE   N11  Cs1
 BYTE   N11  Cs2
 BYTE   N11  Gs2
 BYTE   N11  Cs3
 BYTE   W12
 BYTE   Gs1
 BYTE   N11  Cs2
 BYTE   N11  Gs2
 BYTE   N11  Cs3
 BYTE   W12
 BYTE   Cs1
 BYTE   N11  Cs2
 BYTE   N11  Gs2
 BYTE   N11  Cs3
 BYTE   W12
//  #04 //036   ----------------------------------------
 BYTE   Cs2
 BYTE   N11  Gs2
 BYTE   N11  Cs3
 BYTE   W12
 BYTE   Gs1
 BYTE   N11  Ds2
 BYTE   N11  Gs2
 BYTE   W12
 BYTE   Bn0
 BYTE   N11  Gs1
 BYTE   N11  Ds2
 BYTE   N11  Gs2
 BYTE   W12
 BYTE   Ds1
 BYTE   N11  Gs1
 BYTE   N11  Ds2
 BYTE   N11  Gs2
 BYTE   W12
 BYTE   Gs1
 BYTE   N11  Ds2
 BYTE   N11  Gs2
 BYTE   W12
 BYTE   Ds1
 BYTE   N11  Gs1
 BYTE   N11  Ds2
 BYTE   N11  Gs2
 BYTE   W12
 BYTE   Bn0
 BYTE   N11  Gs1
 BYTE   N11  Ds2
 BYTE   N11  Gs2
 BYTE   W12
 BYTE   Gs0
 BYTE   N11  Gs1
 BYTE   N11  Ds2
 BYTE   N11  Gs2
 BYTE   W12
//  #04 //037   ----------------------------------------
 BYTE   As0
 BYTE   N11  As1
 BYTE   N11  Fn2
 BYTE   N11  As2
 BYTE   W12
 BYTE   Cs1
 BYTE   N11  As1
 BYTE   N11  Fn2
 BYTE   N11  As2
 BYTE   W12
 BYTE   Fn1
 BYTE   N11  As1
 BYTE   N11  Fn2
 BYTE   N11  As2
 BYTE   W12
 BYTE   As1
 BYTE   N11  Fn2
 BYTE   N11  As2
 BYTE   W12
 BYTE   Fn1
 BYTE   N11  As1
 BYTE   N11  Fn2
 BYTE   N11  As2
 BYTE   W12
 BYTE   Cs1
 BYTE   N11  As1
 BYTE   N11  Fn2
 BYTE   N11  As2
 BYTE   W12
 BYTE   As0
 BYTE   N11  As1
 BYTE   N11  Fn2
 BYTE   N11  As2
 BYTE   W12
 BYTE   Cs1
 BYTE   N11  As1
 BYTE   N11  Fn2
 BYTE   N11  As2
 BYTE   W12
//  #04 //038   ----------------------------------------
 BYTE   Fn1
 BYTE   N11  As1
 BYTE   N11  Fn2
 BYTE   N11  As2
 BYTE   W12
 BYTE   Bn0
 BYTE   N11  Bn1
 BYTE   N11  Fs2
 BYTE   N11  Bn2
 BYTE   W12
 BYTE   Ds1
 BYTE   N11  Bn1
 BYTE   N11  Fs2
 BYTE   N11  Bn2
 BYTE   W12
 BYTE   Fs1
 BYTE   N11  Bn1
 BYTE   N11  Fs2
 BYTE   N11  Bn2
 BYTE   W12
 BYTE   Bn1
 BYTE   N11  Fs2
 BYTE   N11  Bn2
 BYTE   W12
 BYTE   Fs1
 BYTE   N11  Bn1
 BYTE   N11  Fs2
 BYTE   N11  Bn2
 BYTE   W12
 BYTE   Ds1
 BYTE   N11  Bn1
 BYTE   N11  Fs2
 BYTE   N11  Bn2
 BYTE   W12
 BYTE   Bn0
 BYTE   N11  Bn1
 BYTE   N11  Fs2
 BYTE   N11  Bn2
 BYTE   W12
//  #04 //039   ----------------------------------------
 BYTE   Bn1
 BYTE   N11  Fs2
 BYTE   N11  Bn2
 BYTE   W12
 BYTE   Ds1
 BYTE   N11  Bn1
 BYTE   N11  Fs2
 BYTE   N11  Bn2
 BYTE   W12
 BYTE   Fs1
 BYTE   N11  Bn1
 BYTE   N11  Fs2
 BYTE   N11  Bn2
 BYTE   W12
 BYTE   Bn1
 BYTE   N11  Fs2
 BYTE   N11  Bn2
 BYTE   W12
 BYTE   Fs1
 BYTE   N11  Bn1
 BYTE   N11  Fs2
 BYTE   N11  Bn2
 BYTE   W12
 BYTE   Ds1
 BYTE   N11  Bn1
 BYTE   N11  Fs2
 BYTE   N11  Bn2
 BYTE   W12
 BYTE   Bn0
 BYTE   N11  Bn1
 BYTE   N11  Fs2
 BYTE   N11  Bn2
 BYTE   W12
 BYTE   Ds1
 BYTE   N11  Bn1
 BYTE   N11  Fs2
 BYTE   N11  Bn2
 BYTE   W12
//  #04 //040   ----------------------------------------
 BYTE   Fs1
 BYTE   N11  Bn1
 BYTE   N11  Fs2
 BYTE   N11  Bn2
 BYTE   W12
 BYTE   Cs1
 BYTE   N11  Cs2
 BYTE   N11  Gs2
 BYTE   N11  Cs3
 BYTE   W12
 BYTE   Cs1
 BYTE   N11  Cs2
 BYTE   N11  Gs2
 BYTE   N11  Cs3
 BYTE   W12
 BYTE   Gs1
 BYTE   N11  Cs2
 BYTE   N11  Gs2
 BYTE   N11  Cs3
 BYTE   W12
 BYTE   Cs1
 BYTE   W12
 BYTE   Gs0
 BYTE   W12
 BYTE   Cs1
 BYTE   N11  Cs2
 BYTE   N11  Gs2
 BYTE   N11  Cs3
 BYTE   W12
 BYTE   Gs1
 BYTE   N11  Cs2
 BYTE   N11  Gs2
 BYTE   N11  Cs3
 BYTE   W12
//  #04 //041   ----------------------------------------
 BYTE   Cs1
 BYTE   N11  Cs2
 BYTE   N11  Gs2
 BYTE   N11  Cs3
 BYTE   W12
 BYTE   Cs1
 BYTE   W12
 BYTE   N11
 BYTE   N11  Cs2
 BYTE   N11  Gs2
 BYTE   N11  Cs3
 BYTE   W12
 BYTE   Gs1
 BYTE   N11  Cs2
 BYTE   N11  Gs2
 BYTE   N11  Cs3
 BYTE   W12
 BYTE   Cs1
 BYTE   N11  Cs2
 BYTE   N11  Gs2
 BYTE   N11  Cs3
 BYTE   W12
 BYTE   Gs0
 BYTE   W12
 BYTE   Cs1
 BYTE   N11  Cs2
 BYTE   N11  Gs2
 BYTE   N11  Cs3
 BYTE   W12
 BYTE   Gs1
 BYTE   N11  Cs2
 BYTE   N11  Gs2
 BYTE   N11  Cs3
 BYTE   W12
//  #04 //042   ----------------------------------------
 BYTE   Cs1
 BYTE   N11  Cs2
 BYTE   N11  Gs2
 BYTE   N11  Cs3
 BYTE   W12
 BYTE   Bn0
 BYTE   N11  Bn1
 BYTE   N11  Fs2
 BYTE   N11  Bn2
 BYTE   W12
 BYTE   Bn0
 BYTE   N11  Bn1
 BYTE   N11  Fs2
 BYTE   N11  Bn2
 BYTE   W12
 BYTE   Fs1
 BYTE   N11  Bn1
 BYTE   N11  Fs2
 BYTE   N11  Bn2
 BYTE   W12
 BYTE   Bn0
 BYTE   W12
 BYTE   Fs0
 BYTE   W12
 BYTE   Bn0
 BYTE   N11  Bn1
 BYTE   N11  Fs2
 BYTE   N11  Bn2
 BYTE   W12
 BYTE   Fs1
 BYTE   N11  Bn1
 BYTE   N11  Fs2
 BYTE   N11  Bn2
 BYTE   W12
//  #04 //043   ----------------------------------------
 BYTE   Bn0
 BYTE   N11  Bn1
 BYTE   N11  Fs2
 BYTE   N11  Bn2
 BYTE   W12
 BYTE   As0
 BYTE   N11  As1
 BYTE   N11  Fn2
 BYTE   N11  As2
 BYTE   W12
 BYTE   As0
 BYTE   N11  As1
 BYTE   N11  Fn2
 BYTE   N11  As2
 BYTE   W12
 BYTE   Fn1
 BYTE   N11  As1
 BYTE   N11  Fn2
 BYTE   N11  As2
 BYTE   W12
 BYTE   As0
 BYTE   N11  As1
 BYTE   N11  Fn2
 BYTE   N11  As2
 BYTE   W12
 BYTE   Fn0
 BYTE   N11  As1
 BYTE   N11  Fn2
 BYTE   N11  As2
 BYTE   W12
 BYTE   As0
 BYTE   N11  As1
 BYTE   N11  Fn2
 BYTE   N11  As2
 BYTE   W12
 BYTE   Fn1
 BYTE   N11  As1
 BYTE   N11  Fn2
 BYTE   N11  As2
 BYTE   W12
//  #04 //044   ----------------------------------------
 BYTE   As0
 BYTE   N11  As1
 BYTE   N11  Fn2
 BYTE   N11  As2
 BYTE   W12
 BYTE   N23  Gs0
 BYTE   N11  Cs4
 BYTE   W12
 BYTE   Fn3
 BYTE   W12
 BYTE   N01  Gs0
 BYTE   N11  Fs3
 BYTE   W01
 BYTE   N01  Gn0
 BYTE   W02
 BYTE   Fs0
 BYTE   W03
 BYTE   Fn0
 BYTE   W01
 BYTE   En0
 BYTE   W02
 BYTE   Ds0
 BYTE   W03
 BYTE   Dn0
 BYTE   N11  Cs4
 BYTE   W01
 BYTE   N01  Cs0
 BYTE   W02
 BYTE   Cn0
 BYTE   W03
 BYTE   BnM1
 BYTE   W01
 BYTE   AsM1
 BYTE   W02
 BYTE   AnM1
 BYTE   W03
 BYTE   N11  GsM1
 BYTE   N11  Fn3
 BYTE   W12
 BYTE   Fs3
 BYTE   W12
 BYTE   Cs4
 BYTE   W12
//  #04 //045   ----------------------------------------
 BYTE   Fn3
 BYTE   W12
 BYTE   Fs3
 BYTE   W12
 BYTE   Cs4
 BYTE   W12
 BYTE   Fn3
 BYTE   W12
 BYTE   Fs3
 BYTE   W12
 BYTE   Cs4
 BYTE   W12
 BYTE   Fn3
 BYTE   W12
 BYTE   N01  Ds1
 BYTE   N11  Fs3
 BYTE   W01
 BYTE   N01  Dn1
 BYTE   W01
 BYTE   Cs1
 BYTE   W02
 BYTE   Cn1
 BYTE   W01
 BYTE   Bn0
 BYTE   W02
 BYTE   As0
 BYTE   W02
 BYTE   An0
 BYTE   W01
 BYTE   Gs0
 BYTE   W01
 BYTE   Gn0
 BYTE   W01
//  #04 //046   ----------------------------------------
 BYTE   N11  Cs4
 BYTE   W01
 BYTE   N01  Fs0
 BYTE   W01
 BYTE   Fn0
 BYTE   W02
 BYTE   En0
 BYTE   W02
 BYTE   N05  Ds0
 BYTE   W06
Label_0183FAB8:
 BYTE   N11  Bn0  v036
 BYTE   N11  Bn1
 BYTE   N11  Fs2
 BYTE   N11  Bn2
 BYTE   W12
 BYTE   Bn0
 BYTE   N11  Bn1
 BYTE   N11  Fs2
 BYTE   N11  Bn2
 BYTE   W12
 BYTE   Bn0
 BYTE   N11  Bn1
 BYTE   N11  Fs2
 BYTE   N11  Bn2
 BYTE   W12
 BYTE   Bn0
 BYTE   N11  Bn1
 BYTE   N11  Fs2
 BYTE   N11  Bn2
 BYTE   W12
 BYTE   Bn0
 BYTE   N11  Bn1
 BYTE   N11  Fs2
 BYTE   N11  Bn2
 BYTE   W12
 BYTE   Bn0
 BYTE   N11  Bn1
 BYTE   N11  Fs2
 BYTE   N11  Bn2
 BYTE   W12
 BYTE   Bn0
 BYTE   N11  Bn1
 BYTE   N11  Fs2
 BYTE   N11  Bn2
 BYTE   W12
//  #04 //047   ----------------------------------------
 BYTE   Bn0
 BYTE   N11  Bn1
 BYTE   N11  Fs2
 BYTE   N11  Bn2
 BYTE   W12
 BYTE   PEND 
Label_0183FAFB:
 BYTE   N11  As0  v036
 BYTE   N11  As1
 BYTE   N11  Fn2
 BYTE   N11  As2
 BYTE   W12
 BYTE   As0
 BYTE   N11  As1
 BYTE   N11  Fn2
 BYTE   N11  As2
 BYTE   W12
 BYTE   As0
 BYTE   N11  As1
 BYTE   N11  Fn2
 BYTE   N11  As2
 BYTE   W12
 BYTE   As0
 BYTE   N11  As1
 BYTE   N11  Fn2
 BYTE   N11  As2
 BYTE   W12
 BYTE   An0
 BYTE   N11  An1
 BYTE   N11  En2
 BYTE   N11  An2
 BYTE   W12
 BYTE   An0
 BYTE   N11  An1
 BYTE   N11  En2
 BYTE   N11  An2
 BYTE   W12
 BYTE   An0
 BYTE   N11  An1
 BYTE   N11  En2
 BYTE   N11  An2
 BYTE   W12
//  #04 //048   ----------------------------------------
 BYTE   An0
 BYTE   N11  An1
 BYTE   N11  En2
 BYTE   N11  An2
 BYTE   W12
 BYTE   PEND 
Label_0183FB3E:
 BYTE   N23  Gs0  v036
 BYTE   N23  Gs1
 BYTE   N23  Ds2
 BYTE   N23  Gs2
 BYTE   W24
 BYTE   Gs0
 BYTE   N23  Gs1
 BYTE   N23  Ds2
 BYTE   N23  Gs2
 BYTE   W24
 BYTE   Gs0
 BYTE   N23  Gs1
 BYTE   N23  Ds2
 BYTE   N23  Gs2
 BYTE   W24
 BYTE   Gs0
 BYTE   N23  Gs1
 BYTE   N23  Ds2
 BYTE   N23  Gs2
 BYTE   W24
 BYTE   PEND 
//  #04 //049   ----------------------------------------
Label_0183FB61:
 BYTE   N44  Cs0  v036
 BYTE   N44  Cs1
 BYTE   N44  Gs1
 BYTE   N44  Cs2
 BYTE   W96
 BYTE   PEND 
//  #04 //050   ----------------------------------------
 BYTE   PATT
  POIN2 Label_0183FAB8
//  #04 //051   ----------------------------------------
 BYTE   PATT
  POIN2 Label_0183FAB8
//  #04 //052   ----------------------------------------
Label_0183FB76:
 BYTE   N11  Cs1  v036
 BYTE   N11  Cs2
 BYTE   N11  Gs2
 BYTE   N11  Cs3
 BYTE   W12
 BYTE   Cs1
 BYTE   N11  Cs2
 BYTE   N11  Gs2
 BYTE   N11  Cs3
 BYTE   W12
 BYTE   Cs1
 BYTE   N11  Cs2
 BYTE   N11  Gs2
 BYTE   N11  Cs3
 BYTE   W12
 BYTE   Cs1
 BYTE   N11  Cs2
 BYTE   N11  Gs2
 BYTE   N11  Cs3
 BYTE   W12
 BYTE   Cs1
 BYTE   N11  Cs2
 BYTE   N11  Gs2
 BYTE   N11  Cs3
 BYTE   W12
 BYTE   Cs1
 BYTE   N11  Cs2
 BYTE   N11  Gs2
 BYTE   N11  Cs3
 BYTE   W12
 BYTE   Cs1
 BYTE   N11  Cs2
 BYTE   N11  Gs2
 BYTE   N11  Cs3
 BYTE   W12
 BYTE   Cs1
 BYTE   N11  Cs2
 BYTE   N11  Gs2
 BYTE   N11  Cs3
 BYTE   W12
 BYTE   PEND 
//  #04 //053   ----------------------------------------
 BYTE   PATT
  POIN2 Label_0183FB76
//  #04 //054   ----------------------------------------
Label_0183FBBE:
 BYTE   N11  As0  v036
 BYTE   N11  As1
 BYTE   N11  Fn2
 BYTE   N11  As2
 BYTE   W12
 BYTE   As0
 BYTE   N11  As1
 BYTE   N11  Fn2
 BYTE   N11  As2
 BYTE   W12
 BYTE   As0
 BYTE   N11  As1
 BYTE   N11  Fn2
 BYTE   N11  As2
 BYTE   W12
 BYTE   As0
 BYTE   N11  As1
 BYTE   N11  Fn2
 BYTE   N11  As2
 BYTE   W12
 BYTE   As0
 BYTE   N11  As1
 BYTE   N11  Fn2
 BYTE   N11  As2
 BYTE   W12
 BYTE   As0
 BYTE   N11  As1
 BYTE   N11  Fn2
 BYTE   N11  As2
 BYTE   W12
 BYTE   As0
 BYTE   N11  As1
 BYTE   N11  Fn2
 BYTE   N11  As2
 BYTE   W12
 BYTE   As0
 BYTE   N11  As1
 BYTE   N11  Fn2
 BYTE   N11  As2
 BYTE   W12
 BYTE   PEND 
//  #04 //055   ----------------------------------------
 BYTE   PATT
  POIN2 Label_0183FBBE
//  #04 //056   ----------------------------------------
Label_0183FC06:
 BYTE   N11  Ds1  v036
 BYTE   N11  Ds2
 BYTE   N11  As2
 BYTE   N11  Ds3
 BYTE   W12
 BYTE   Ds1
 BYTE   N11  Ds2
 BYTE   N11  As2
 BYTE   N11  Ds3
 BYTE   W12
 BYTE   Ds1
 BYTE   N11  Ds2
 BYTE   N11  As2
 BYTE   N11  Ds3
 BYTE   W12
 BYTE   Ds1
 BYTE   N11  Ds2
 BYTE   N11  As2
 BYTE   N11  Ds3
 BYTE   W12
 BYTE   Ds1
 BYTE   N11  Ds2
 BYTE   N11  As2
 BYTE   N11  Ds3
 BYTE   W12
 BYTE   Ds1
 BYTE   N11  Ds2
 BYTE   N11  As2
 BYTE   N11  Ds3
 BYTE   W12
 BYTE   N23  Cs1
 BYTE   N23  Cs2
 BYTE   N23  As2
 BYTE   N23  Cs3
 BYTE   W24
 BYTE   PEND 
//  #04 //057   ----------------------------------------
Label_0183FC42:
 BYTE   N17  Gs0  v036
 BYTE   N17  Gs2
 BYTE   N17  Cs3
 BYTE   N17  Gs3
 BYTE   W18
 BYTE   Fs0
 BYTE   N17  Fs2
 BYTE   N17  Cs3
 BYTE   N17  Fs3
 BYTE   W18
 BYTE   N11  Gs0
 BYTE   N11  Gs2
 BYTE   N11  Cs3
 BYTE   N11  Gs3
 BYTE   W24
 BYTE   As0
 BYTE   N11  As2
 BYTE   N11  Cs3
 BYTE   N11  Fs3
 BYTE   N11  As3
 BYTE   W12
 BYTE   As0
 BYTE   N11  As2
 BYTE   N11  Cs3
 BYTE   N11  Fs3
 BYTE   N11  As3
 BYTE   W12
 BYTE   As0
 BYTE   N11  As2
 BYTE   N11  Cs3
 BYTE   N11  Fs3
 BYTE   N11  As3
 BYTE   W12
 BYTE   PEND 
//  #04 //058   ----------------------------------------
Label_0183FC7C:
 BYTE   N11  Bn0  v036
 BYTE   N11  Bn1
 BYTE   N11  Fs2
 BYTE   N11  Bn2
 BYTE   W12
 BYTE   Bn0
 BYTE   N11  Bn1
 BYTE   N11  Fs2
 BYTE   N11  Bn2
 BYTE   W12
 BYTE   Bn0
 BYTE   N11  Bn1
 BYTE   N11  Fs2
 BYTE   N11  Bn2
 BYTE   W12
 BYTE   Bn0
 BYTE   N11  Bn1
 BYTE   N11  Fs2
 BYTE   N11  Bn2
 BYTE   W12
 BYTE   Fs1
 BYTE   N11  Bn1
 BYTE   N11  Fs2
 BYTE   N11  Bn2
 BYTE   W12
 BYTE   Fs1
 BYTE   N11  Bn1
 BYTE   N11  Fs2
 BYTE   N11  Bn2
 BYTE   W12
 BYTE   Fs1
 BYTE   N11  Bn1
 BYTE   N11  Fs2
 BYTE   N11  Bn2
 BYTE   W12
 BYTE   Fs1
 BYTE   N11  Bn1
 BYTE   N11  Fs2
 BYTE   N11  Bn2
 BYTE   W12
 BYTE   PEND 
//  #04 //059   ----------------------------------------
 BYTE   PATT
  POIN2 Label_0183FC7C
//  #04 //060   ----------------------------------------
Label_0183FCC4:
 BYTE   N11  Cs1  v036
 BYTE   N11  Cs2
 BYTE   N11  Gs2
 BYTE   N11  Cs3
 BYTE   W12
 BYTE   Cs1
 BYTE   N11  Cs2
 BYTE   N11  Gs2
 BYTE   N11  Cs3
 BYTE   W12
 BYTE   Cs1
 BYTE   N11  Cs2
 BYTE   N11  Gs2
 BYTE   N11  Cs3
 BYTE   W12
 BYTE   Cs1
 BYTE   N11  Cs2
 BYTE   N11  Gs2
 BYTE   N11  Cs3
 BYTE   W12
 BYTE   Gs1
 BYTE   N11  Cs2
 BYTE   N11  Gs2
 BYTE   N11  Cs3
 BYTE   W12
 BYTE   Gs1
 BYTE   N11  Cs2
 BYTE   N11  Gs2
 BYTE   N11  Cs3
 BYTE   W12
 BYTE   Gs1
 BYTE   N11  Cs2
 BYTE   N11  Gs2
 BYTE   N11  Cs3
 BYTE   W12
 BYTE   Gs1
 BYTE   N11  Cs2
 BYTE   N11  Gs2
 BYTE   N11  Cs3
 BYTE   W12
 BYTE   PEND 
//  #04 //061   ----------------------------------------
 BYTE   PATT
  POIN2 Label_0183FCC4
//  #04 //062   ----------------------------------------
Label_0183FD0C:
 BYTE   N11  As0  v036
 BYTE   N11  As1
 BYTE   N11  Fn2
 BYTE   N11  As2
 BYTE   W12
 BYTE   As0
 BYTE   N11  As1
 BYTE   N11  Fn2
 BYTE   N11  As2
 BYTE   W12
 BYTE   As0
 BYTE   N11  As1
 BYTE   N11  Fn2
 BYTE   N11  As2
 BYTE   W12
 BYTE   As0
 BYTE   N11  As1
 BYTE   N11  Fn2
 BYTE   N11  As2
 BYTE   W12
 BYTE   Fn1
 BYTE   N11  As1
 BYTE   N11  Fn2
 BYTE   N11  As2
 BYTE   W12
 BYTE   Fn1
 BYTE   N11  As1
 BYTE   N11  Fn2
 BYTE   N11  As2
 BYTE   W12
 BYTE   Fn1
 BYTE   N11  As1
 BYTE   N11  Fn2
 BYTE   N11  As2
 BYTE   W12
 BYTE   Fn1
 BYTE   N11  As1
 BYTE   N11  Fn2
 BYTE   N11  As2
 BYTE   W12
 BYTE   PEND 
//  #04 //063   ----------------------------------------
 BYTE   PATT
  POIN2 Label_0183FD0C
//  #04 //064   ----------------------------------------
Label_0183FD54:
 BYTE   N11  Ds1  v036
 BYTE   N11  Ds2
 BYTE   N11  As2
 BYTE   N11  Ds3
 BYTE   W12
 BYTE   Ds1
 BYTE   N11  Ds2
 BYTE   N11  As2
 BYTE   N11  Ds3
 BYTE   W12
 BYTE   Ds1
 BYTE   N11  Ds2
 BYTE   N11  As2
 BYTE   N11  Ds3
 BYTE   W12
 BYTE   Ds1
 BYTE   N11  Ds2
 BYTE   N11  As2
 BYTE   N11  Ds3
 BYTE   W12
 BYTE   Ds1
 BYTE   N11  Ds2
 BYTE   N11  As2
 BYTE   N11  Ds3
 BYTE   W12
 BYTE   Ds1
 BYTE   N11  Ds2
 BYTE   N11  As2
 BYTE   N11  Ds3
 BYTE   W12
 BYTE   Ds1
 BYTE   N11  Ds2
 BYTE   N11  As2
 BYTE   N11  Ds3
 BYTE   W12
 BYTE   Ds1
 BYTE   N11  Ds2
 BYTE   N11  As2
 BYTE   N11  Ds3
 BYTE   W12
 BYTE   PEND 
//  #04 //065   ----------------------------------------
Label_0183FD97:
 BYTE   N11  Fs0  v036
 BYTE   N11  Fs2
 BYTE   N11  Cs3
 BYTE   N11  Fs3
 BYTE   W12
 BYTE   Fs0
 BYTE   N11  Fs2
 BYTE   N11  Cs3
 BYTE   N11  Fs3
 BYTE   W12
 BYTE   Fs0
 BYTE   N11  Fs2
 BYTE   N11  Cs3
 BYTE   N11  Fs3
 BYTE   W12
 BYTE   Fs0
 BYTE   N11  Fs2
 BYTE   N11  Cs3
 BYTE   N11  Fs3
 BYTE   W12
 BYTE   Fs0
 BYTE   N11  Fs2
 BYTE   N11  Cs3
 BYTE   N11  Fs3
 BYTE   W12
 BYTE   Fs0
 BYTE   N11  Fs2
 BYTE   N11  Cs3
 BYTE   N11  Fs3
 BYTE   W12
 BYTE   Fs0
 BYTE   N11  Fs2
 BYTE   N11  Cs3
 BYTE   N11  Fs3
 BYTE   W12
 BYTE   Fs0
 BYTE   N11  Fs2
 BYTE   N11  Cs3
 BYTE   N11  Fs3
 BYTE   W12
 BYTE   PEND 
//  #04 //066   ----------------------------------------
Label_0183FDDA:
 BYTE   N11  Bn0  v036
 BYTE   N11  Bn1
 BYTE   N11  Fs2
 BYTE   N11  Bn2
 BYTE   W12
 BYTE   Bn0
 BYTE   N11  Bn1
 BYTE   N11  Fs2
 BYTE   N11  Bn2
 BYTE   W12
 BYTE   Gs0
 BYTE   N11  Gs1
 BYTE   N11  Ds2
 BYTE   N11  Gs2
 BYTE   W12
 BYTE   Gs0
 BYTE   N11  Gs1
 BYTE   N11  Ds2
 BYTE   N11  Gs2
 BYTE   W12
 BYTE   As0
 BYTE   N11  As1
 BYTE   N11  Fn2
 BYTE   N11  As2
 BYTE   W12
 BYTE   As0
 BYTE   N11  As1
 BYTE   N11  Fn2
 BYTE   N11  As2
 BYTE   W12
 BYTE   As0
 BYTE   N11  As1
 BYTE   N11  Fn2
 BYTE   N11  As2
 BYTE   W12
 BYTE   As0
 BYTE   N11  As1
 BYTE   N11  Fn2
 BYTE   N11  As2
 BYTE   W12
 BYTE   PEND 
//  #04 //067   ----------------------------------------
Label_0183FE1D:
 BYTE   N11  Bn0  v036
 BYTE   N11  Bn1
 BYTE   N11  Fs2
 BYTE   N11  Bn2
 BYTE   W12
 BYTE   Bn0
 BYTE   N11  Bn1
 BYTE   N11  Fs2
 BYTE   N11  Bn2
 BYTE   W12
 BYTE   Bn0
 BYTE   N11  Bn1
 BYTE   N11  Fs2
 BYTE   N11  Bn2
 BYTE   W12
 BYTE   Bn0
 BYTE   N11  Bn1
 BYTE   N11  Fs2
 BYTE   N11  Bn2
 BYTE   W12
 BYTE   As0
 BYTE   N11  As1
 BYTE   N11  Fn2
 BYTE   N11  As2
 BYTE   W12
 BYTE   As0
 BYTE   N11  As1
 BYTE   N11  Fn2
 BYTE   N11  As2
 BYTE   W12
 BYTE   As0
 BYTE   N11  As1
 BYTE   N11  Fn2
 BYTE   N11  As2
 BYTE   W12
 BYTE   As0
 BYTE   N11  As1
 BYTE   N11  Fn2
 BYTE   N11  As2
 BYTE   W12
 BYTE   PEND 
//  #04 //068   ----------------------------------------
Label_0183FE60:
 BYTE   N11  Gs0  v036
 BYTE   N11  Gs1
 BYTE   N11  Ds2
 BYTE   N11  Gs2
 BYTE   W12
 BYTE   Gs0
 BYTE   N11  Gs1
 BYTE   N11  Ds2
 BYTE   N11  Gs2
 BYTE   W12
 BYTE   Gs0
 BYTE   N11  Gs1
 BYTE   N11  Ds2
 BYTE   N11  Gs2
 BYTE   W12
 BYTE   Gs0
 BYTE   N11  Gs1
 BYTE   N11  Ds2
 BYTE   N11  Gs2
 BYTE   W12
 BYTE   As0
 BYTE   N11  As1
 BYTE   N11  Fn2
 BYTE   N11  As2
 BYTE   W12
 BYTE   As0
 BYTE   N11  As1
 BYTE   N11  Fn2
 BYTE   N11  As2
 BYTE   W12
 BYTE   As0
 BYTE   N11  As1
 BYTE   N11  Fn2
 BYTE   N11  As2
 BYTE   W12
 BYTE   As0
 BYTE   N11  As1
 BYTE   N11  Fn2
 BYTE   N11  As2
 BYTE   W12
 BYTE   PEND 
//  #04 //069   ----------------------------------------
 BYTE   PATT
  POIN2 Label_0183FAB8
//  #04 //070   ----------------------------------------
Label_0183FEA8:
 BYTE   N11  Gs0  v036
 BYTE   N11  Bn1
 BYTE   N11  Ds2
 BYTE   N11  Gs2
 BYTE   W12
 BYTE   Gs0
 BYTE   N11  Bn1
 BYTE   N11  Ds2
 BYTE   N11  Gs2
 BYTE   W12
 BYTE   Gs0
 BYTE   N11  Bn1
 BYTE   N11  Ds2
 BYTE   N11  Gs2
 BYTE   W12
 BYTE   As0
 BYTE   N11  Cs2
 BYTE   N11  Fn2
 BYTE   N11  As2
 BYTE   W12
 BYTE   As0
 BYTE   N11  Cs2
 BYTE   N11  Fn2
 BYTE   N11  As2
 BYTE   W12
 BYTE   As0
 BYTE   N11  Cs2
 BYTE   N11  Fn2
 BYTE   N11  As2
 BYTE   W12
 BYTE   Bn0
 BYTE   N11  Ds2
 BYTE   N11  Fs2
 BYTE   N11  Bn2
 BYTE   W12
 BYTE   Bn0
 BYTE   N11  Ds2
 BYTE   N11  Fs2
 BYTE   N11  Bn2
 BYTE   W12
 BYTE   PEND 
//  #04 //071   ----------------------------------------
Label_0183FEEB:
 BYTE   N11  Bn0  v036
 BYTE   N11  Ds2
 BYTE   N11  Fs2
 BYTE   N11  Bn2
 BYTE   W12
 BYTE   As0
 BYTE   N11  Cs2
 BYTE   N11  Fn2
 BYTE   N11  As2
 BYTE   W12
 BYTE   As0
 BYTE   N11  Cs2
 BYTE   N11  Fn2
 BYTE   N11  As2
 BYTE   W12
 BYTE   As0
 BYTE   N11  Cs2
 BYTE   N11  Fn2
 BYTE   N11  As2
 BYTE   W12
 BYTE   Ds1
 BYTE   N11  Ds2
 BYTE   N11  Ds3
 BYTE   W12
 BYTE   Ds1
 BYTE   N11  Ds2
 BYTE   N11  Ds3
 BYTE   W12
 BYTE   Cs1
 BYTE   N11  Cs2
 BYTE   N11  Cs3
 BYTE   W12
 BYTE   Cs1
 BYTE   N11  Cs2
 BYTE   N11  Cs3
 BYTE   W12
 BYTE   PEND 
//  #04 //072   ----------------------------------------
Label_0183FF26:
 BYTE   N23  Gs0  v036
 BYTE   N23  Gs1
 BYTE   N23  Ds2
 BYTE   N23  Gs2
 BYTE   W24
 BYTE   N11  Gs0
 BYTE   N11  Gs1
 BYTE   N11  Ds2
 BYTE   N11  Gs2
 BYTE   W12
 BYTE   Gs0
 BYTE   N11  Gs1
 BYTE   N11  Ds2
 BYTE   N11  Gs2
 BYTE   W12
 BYTE   As0
 BYTE   N11  As1
 BYTE   N11  Fn2
 BYTE   N11  As2
 BYTE   W12
 BYTE   As0
 BYTE   N11  As1
 BYTE   N11  Fn2
 BYTE   N11  As2
 BYTE   W12
 BYTE   As0
 BYTE   N11  As1
 BYTE   N11  Fn2
 BYTE   N11  As2
 BYTE   W12
 BYTE   Bn0
 BYTE   N11  Bn1
 BYTE   N11  Fs2
 BYTE   N11  Bn2
 BYTE   W12
 BYTE   PEND 
//  #04 //073   ----------------------------------------
Label_0183FF62:
 BYTE   N11  Cs1  v036
 BYTE   N23  Cs2
 BYTE   N23  Gs2
 BYTE   N23  Cs3
 BYTE   W12
 BYTE   N01  Cn1
 BYTE   N01  Cs1
 BYTE   W01
 BYTE   Bn0
 BYTE   W02
 BYTE   An0
 BYTE   N01  As0
 BYTE   W01
 BYTE   Gs0
 BYTE   W02
 BYTE   Fs0
 BYTE   N01  Gn0
 BYTE   W01
 BYTE   Fn0
 BYTE   W02
 BYTE   Ds0
 BYTE   N01  En0
 BYTE   W01
 BYTE   Dn0
 BYTE   W02
 BYTE   N05  Cs0
 BYTE   W72
 BYTE   PEND 
//  #04 //074   ----------------------------------------
 BYTE   PATT
  POIN2 Label_0183F537
//  #04 //075   ----------------------------------------
 BYTE   PATT
  POIN2 Label_0183F57A
//  #04 //076   ----------------------------------------
 BYTE   PATT
  POIN2 Label_0183F5BD
//  #04 //077   ----------------------------------------
 BYTE   PATT
  POIN2 Label_0183F600
//  #04 //078   ----------------------------------------
 BYTE   PATT
  POIN2 Label_0183F643
//  #04 //079   ----------------------------------------
 BYTE   PATT
  POIN2 Label_0183F686
//  #04 //080   ----------------------------------------
 BYTE   PATT
  POIN2 Label_0183F6C9
//  #04 //081   ----------------------------------------
 BYTE   N32  Ds2  v036
 BYTE   W36
 BYTE   Fn2
 BYTE   W36
 BYTE   N23  Fs2
 BYTE   W24
//  #04 //082   ----------------------------------------
 BYTE   N05  Cs3  v012
 BYTE   W06
 BYTE   N05
 BYTE   W06
 BYTE   N05
 BYTE   W06
 BYTE   N05
 BYTE   W30
 BYTE   N05
 BYTE   W06
 BYTE   N05
 BYTE   W06
 BYTE   N05
 BYTE   W06
 BYTE   N05
 BYTE   W30
//  #04 //083   ----------------------------------------
 BYTE   N05
 BYTE   W06
 BYTE   N05
 BYTE   W06
 BYTE   N05
 BYTE   W06
 BYTE   N05
 BYTE   W06
 BYTE   N05
 BYTE   W06
 BYTE   N05
 BYTE   W06
 BYTE   N05
 BYTE   W06
 BYTE   N05
 BYTE   W54
//  #04 //084   ----------------------------------------
 BYTE   W36
 BYTE   N17  Gs3
 BYTE   W18
 BYTE   N05
 BYTE   W18
 BYTE   N11
 BYTE   W24
//  #04 //085   ----------------------------------------
 BYTE   W12
 BYTE   N17  Cs4
 BYTE   W18
 BYTE   N05
 BYTE   W18
 BYTE   N11
 BYTE   W48
//  #04 //086   ----------------------------------------
 BYTE   W12
 BYTE   N17
 BYTE   W18
 BYTE   N05
 BYTE   W18
 BYTE   N11
 BYTE   W36
 BYTE   Gs3
 BYTE   W12
//  #04 //087   ----------------------------------------
 BYTE   W06
 BYTE   N11
 BYTE   W18
 BYTE   N11
 BYTE   W72
//  #04 //088   ----------------------------------------
 BYTE   W12
 BYTE   Fs3
 BYTE   W18
 BYTE   N11
 BYTE   W18
 BYTE   N11
 BYTE   W36
 BYTE   Cs3
 BYTE   W12
//  #04 //089   ----------------------------------------
 BYTE   W06
 BYTE   Fs3
 BYTE   W18
 BYTE   N11
 BYTE   W36
 BYTE   Fs3  v036
 BYTE   W12
 BYTE   N01  Cn2
 BYTE   N11  Fn3
 BYTE   W01
 BYTE   N01  Bn1
 BYTE   W01
 BYTE   As1
 BYTE   W02
 BYTE   An1
 BYTE   W01
 BYTE   Gs1
 BYTE   W02
 BYTE   Gn1
 BYTE   W02
 BYTE   Fs1
 BYTE   W01
 BYTE   Fn1
 BYTE   W01
 BYTE   En1
 BYTE   W01
 BYTE   N11  Cs3
 BYTE   W01
 BYTE   N01  Ds1
 BYTE   W01
 BYTE   Dn1
 BYTE   W02
 BYTE   Cs1
 BYTE   W02
 BYTE   N05  Cn1
 BYTE   W06
//  #04 //090   ----------------------------------------
 BYTE   N23  Bn1
 BYTE   N23  Fs2
 BYTE   N23  Bn2
 BYTE   W24
 BYTE   Bn1
 BYTE   N23  Fs2
 BYTE   N23  Bn2
 BYTE   W24
 BYTE   N11  Bn1
 BYTE   N11  Fs2
 BYTE   N11  Bn2
 BYTE   W12
 BYTE   Bn1
 BYTE   N11  Fs2
 BYTE   N11  Bn2
 BYTE   W24
 BYTE   Bn1
 BYTE   N11  Fs2
 BYTE   N11  Bn2
 BYTE   W12
//  #04 //091   ----------------------------------------
 BYTE   W12
 BYTE   Bn1
 BYTE   N11  Fs2
 BYTE   N11  Bn2
 BYTE   W12
 BYTE   N23  Bn1
 BYTE   N23  Fs2
 BYTE   N23  Bn2
 BYTE   W24
 BYTE   N11  Bn1
 BYTE   N11  Fs2
 BYTE   N11  Bn2
 BYTE   W18
 BYTE   Bn1
 BYTE   N11  Fs2
 BYTE   N11  Bn2
 BYTE   W18
 BYTE   Bn1
 BYTE   N11  Fs2
 BYTE   N11  Bn2
 BYTE   W12
//  #04 //092   ----------------------------------------
 BYTE   N23  Cs2
 BYTE   N23  Gs2
 BYTE   N23  Cs3
 BYTE   W24
 BYTE   Cs2
 BYTE   N23  Gs2
 BYTE   N23  Cs3
 BYTE   W24
 BYTE   N11  Cs2
 BYTE   N11  Gs2
 BYTE   N11  Cs3
 BYTE   W12
 BYTE   Cs2
 BYTE   N11  Gs2
 BYTE   N11  Cs3
 BYTE   W24
 BYTE   Cs2
 BYTE   N11  Gs2
 BYTE   N11  Cs3
 BYTE   W12
//  #04 //093   ----------------------------------------
 BYTE   W12
 BYTE   Cs2
 BYTE   N11  Gs2
 BYTE   N11  Cs3
 BYTE   W12
 BYTE   N23  Cs2
 BYTE   N23  Gs2
 BYTE   N23  Cs3
 BYTE   W24
 BYTE   N11  Cs2
 BYTE   N11  Gs2
 BYTE   N11  Cs3
 BYTE   W12
 BYTE   Cs2
 BYTE   N11  Gs2
 BYTE   N11  Cs3
 BYTE   W12
 BYTE   Cs2
 BYTE   N11  Gs2
 BYTE   N11  Cs3
 BYTE   W12
 BYTE   Cs2
 BYTE   N11  Gs2
 BYTE   N11  Cs3
 BYTE   W12
//  #04 //094   ----------------------------------------
 BYTE   Gs1
 BYTE   N11  Ds2
 BYTE   N11  Gs2
 BYTE   W12
 BYTE   Gs1
 BYTE   N11  Ds2
 BYTE   N11  Gs2
 BYTE   W12
 BYTE   Gs1
 BYTE   N11  Ds2
 BYTE   N11  Gs2
 BYTE   W12
 BYTE   Gs1
 BYTE   N11  Ds2
 BYTE   N11  Gs2
 BYTE   W12
 BYTE   Gs1
 BYTE   N11  Ds2
 BYTE   N11  Gs2
 BYTE   W12
 BYTE   Gs1
 BYTE   N11  Ds2
 BYTE   N11  Gs2
 BYTE   W12
 BYTE   Gs1
 BYTE   N11  Ds2
 BYTE   N11  Gs2
 BYTE   W12
 BYTE   As1
 BYTE   N11  Fn2
 BYTE   N11  As2
 BYTE   W12
//  #04 //095   ----------------------------------------
Label_018400E1:
 BYTE   N11  As1  v036
 BYTE   N11  Fn2
 BYTE   N11  As2
 BYTE   W12
 BYTE   As1
 BYTE   N11  Fn2
 BYTE   N11  As2
 BYTE   W12
 BYTE   As1
 BYTE   N11  Fn2
 BYTE   N11  As2
 BYTE   W12
 BYTE   As1
 BYTE   N11  Fn2
 BYTE   N11  As2
 BYTE   W12
 BYTE   As1
 BYTE   N11  Fn2
 BYTE   N11  As2
 BYTE   W12
 BYTE   As1
 BYTE   N11  Fn2
 BYTE   N11  As2
 BYTE   W12
 BYTE   As1
 BYTE   N11  Fn2
 BYTE   N11  As2
 BYTE   W12
 BYTE   As1
 BYTE   N11  Fn2
 BYTE   N11  As2
 BYTE   W12
 BYTE   PEND 
//  #04 //096   ----------------------------------------
Label_01840114:
 BYTE   N11  Bn1  v036
 BYTE   N11  Fs2
 BYTE   N11  Bn2
 BYTE   W12
 BYTE   Bn1
 BYTE   N11  Fs2
 BYTE   N11  Bn2
 BYTE   W12
 BYTE   Bn1
 BYTE   N11  Fs2
 BYTE   N11  Bn2
 BYTE   W12
 BYTE   Bn1
 BYTE   N11  Fs2
 BYTE   N11  Bn2
 BYTE   W12
 BYTE   Bn1
 BYTE   N11  Fs2
 BYTE   N11  Bn2
 BYTE   W12
 BYTE   Bn1
 BYTE   N11  Fs2
 BYTE   N11  Bn2
 BYTE   W12
 BYTE   Bn1
 BYTE   N11  Fs2
 BYTE   N11  Bn2
 BYTE   W12
 BYTE   Bn1
 BYTE   N11  Fs2
 BYTE   N11  Bn2
 BYTE   W12
 BYTE   PEND 
//  #04 //097   ----------------------------------------
 BYTE   PATT
  POIN2 Label_01840114
//  #04 //098   ----------------------------------------
 BYTE   N11  Cs2  v036
 BYTE   N11  Gs2
 BYTE   N11  Cs3
 BYTE   W12
 BYTE   Cs2
 BYTE   N11  Gs2
 BYTE   N11  Cs3
 BYTE   W12
 BYTE   Cs2
 BYTE   N11  Gs2
 BYTE   N11  Cs3
 BYTE   W36
 BYTE   Cs2
 BYTE   N11  Gs2
 BYTE   N11  Cs3
 BYTE   W12
 BYTE   Cs2
 BYTE   N11  Gs2
 BYTE   N11  Cs3
 BYTE   W12
 BYTE   Cs2
 BYTE   N11  Gs2
 BYTE   N11  Cs3
 BYTE   W12
//  #04 //099   ----------------------------------------
 BYTE   W12
 BYTE   Cs2
 BYTE   N11  Gs2
 BYTE   N11  Cs3
 BYTE   W12
 BYTE   Cs2
 BYTE   N11  Gs2
 BYTE   N11  Cs3
 BYTE   W12
 BYTE   Cs2
 BYTE   N11  Gs2
 BYTE   N11  Cs3
 BYTE   W24
 BYTE   Cs2
 BYTE   N11  Gs2
 BYTE   N11  Cs3
 BYTE   W12
 BYTE   Cs2
 BYTE   N11  Gs2
 BYTE   N11  Cs3
 BYTE   W12
 BYTE   Cs2
 BYTE   N11  Gs2
 BYTE   N11  Cs3
 BYTE   W12
//  #04 //100   ----------------------------------------
 BYTE   Bn1
 BYTE   N11  Fs2
 BYTE   N11  Bn2
 BYTE   W12
 BYTE   Bn1
 BYTE   N11  Fs2
 BYTE   N11  Bn2
 BYTE   W12
 BYTE   Bn1
 BYTE   N11  Fs2
 BYTE   N11  Bn2
 BYTE   W36
 BYTE   Bn1
 BYTE   N11  Fs2
 BYTE   N11  Bn2
 BYTE   W12
 BYTE   Bn1
 BYTE   N11  Fs2
 BYTE   N11  Bn2
 BYTE   W12
 BYTE   Bn1
 BYTE   N11  Fs2
 BYTE   N11  Bn2
 BYTE   W12
//  #04 //101   ----------------------------------------
 BYTE   PATT
  POIN2 Label_018400E1
//  #04 //102   ----------------------------------------
 BYTE   N01  Gs0  v036
 BYTE   N11  Cs4
 BYTE   W01
 BYTE   N01  Gn0
 BYTE   W02
 BYTE   Fs0
 BYTE   W03
 BYTE   Fn0
 BYTE   W01
 BYTE   En0
 BYTE   W02
 BYTE   Ds0
 BYTE   W03
 BYTE   Dn0
 BYTE   N11  Fn3
 BYTE   W01
 BYTE   N01  Cs0
 BYTE   W02
 BYTE   Cn0
 BYTE   W03
 BYTE   BnM1
 BYTE   W01
 BYTE   AsM1
 BYTE   W02
 BYTE   AnM1
 BYTE   W03
 BYTE   N11  GsM1
 BYTE   N11  Fs3
 BYTE   W12
 BYTE   Ds1
 BYTE   N11  Cs4
 BYTE   W12
 BYTE   N17  Gs1
 BYTE   N11  Fn3
 BYTE   W12
 BYTE   Fs3
 BYTE   W06
 BYTE   N05  Ds1
 BYTE   W06
 BYTE   N23  Fs1
 BYTE   N11  Cs4
 BYTE   W12
 BYTE   Fn3
 BYTE   W12
//  #04 //103   ----------------------------------------
 BYTE   N44  As1
 BYTE   N11  Fs3
 BYTE   W12
 BYTE   Cs4
 BYTE   W12
 BYTE   Fn3
 BYTE   W12
 BYTE   Fs3
 BYTE   W12
 BYTE   N23  Fs1
 BYTE   N11  Cs4
 BYTE   W12
 BYTE   Fn3
 BYTE   W12
 BYTE   N01  Ds1
 BYTE   N11  Fs3
 BYTE   W01
 BYTE   N01  Dn1
 BYTE   W01
 BYTE   Cs1
 BYTE   W02
 BYTE   Cn1
 BYTE   W01
 BYTE   Bn0
 BYTE   W02
 BYTE   As0
 BYTE   W02
 BYTE   An0
 BYTE   W01
 BYTE   Gs0
 BYTE   W01
 BYTE   Gn0
 BYTE   W01
 BYTE   N11  Cs4
 BYTE   W01
 BYTE   N01  Fs0
 BYTE   W01
 BYTE   Fn0
 BYTE   W02
 BYTE   En0
 BYTE   W02
 BYTE   N05  Ds0
 BYTE   W06
//  #04 //104   ----------------------------------------
 BYTE   PATT
  POIN2 Label_0183FAB8
//  #04 //105   ----------------------------------------
 BYTE   PATT
  POIN2 Label_0183FAFB
//  #04 //106   ----------------------------------------
 BYTE   PATT
  POIN2 Label_0183FB3E
//  #04 //107   ----------------------------------------
 BYTE   PATT
  POIN2 Label_0183FB61
//  #04 //108   ----------------------------------------
 BYTE   PATT
  POIN2 Label_0183FAB8
//  #04 //109   ----------------------------------------
 BYTE   PATT
  POIN2 Label_0183FAB8
//  #04 //110   ----------------------------------------
 BYTE   PATT
  POIN2 Label_0183FB76
//  #04 //111   ----------------------------------------
 BYTE   N11  Cs1  v036
 BYTE   N11  Cs2
 BYTE   N11  Gs2
 BYTE   N11  Cs3
 BYTE   W12
 BYTE   Cs1
 BYTE   N11  Cs2
 BYTE   N11  Gs2
 BYTE   N11  Cs3
 BYTE   W12
 BYTE   Cs1
 BYTE   N11  Cs2
 BYTE   N11  Gs2
 BYTE   N11  Cs3
 BYTE   W12
 BYTE   Cs1
 BYTE   N11  Cs2
 BYTE   N11  Gs2
 BYTE   N11  Cs3
 BYTE   W12
 BYTE   Cs1
 BYTE   N11  Cs2
 BYTE   N11  Gs2
 BYTE   N11  Cs3
 BYTE   W12
 BYTE   Cs1
 BYTE   N11  Cs2
 BYTE   N11  Gs2
 BYTE   N11  Cs3
 BYTE   W36
//  #04 //112   ----------------------------------------
 BYTE   PATT
  POIN2 Label_0183FBBE
//  #04 //113   ----------------------------------------
 BYTE   PATT
  POIN2 Label_0183FBBE
//  #04 //114   ----------------------------------------
 BYTE   N32  Ds1  v036
 BYTE   N11  Ds2
 BYTE   N11  As2
 BYTE   N11  Ds3
 BYTE   W12
 BYTE   Ds2
 BYTE   N11  As2
 BYTE   N11  Ds3
 BYTE   W12
 BYTE   Ds2
 BYTE   N11  As2
 BYTE   N11  Ds3
 BYTE   W12
 BYTE   N32  As1
 BYTE   N11  Ds2
 BYTE   N11  As2
 BYTE   N11  Ds3
 BYTE   W12
 BYTE   Ds2
 BYTE   N11  As2
 BYTE   N11  Ds3
 BYTE   W12
 BYTE   Ds2
 BYTE   N11  As2
 BYTE   N11  Ds3
 BYTE   W12
 BYTE   N23  Cs1
 BYTE   N23  Cs2
 BYTE   N23  As2
 BYTE   N23  Cs3
 BYTE   W24
//  #04 //115   ----------------------------------------
 BYTE   PATT
  POIN2 Label_0183FC42
//  #04 //116   ----------------------------------------
 BYTE   PATT
  POIN2 Label_0183FC7C
//  #04 //117   ----------------------------------------
 BYTE   PATT
  POIN2 Label_0183FC7C
//  #04 //118   ----------------------------------------
 BYTE   PATT
  POIN2 Label_0183FCC4
//  #04 //119   ----------------------------------------
 BYTE   PATT
  POIN2 Label_0183FCC4
//  #04 //120   ----------------------------------------
 BYTE   PATT
  POIN2 Label_0183FD0C
//  #04 //121   ----------------------------------------
 BYTE   PATT
  POIN2 Label_0183FD0C
//  #04 //122   ----------------------------------------
 BYTE   PATT
  POIN2 Label_0183FD54
//  #04 //123   ----------------------------------------
 BYTE   PATT
  POIN2 Label_0183FD97
//  #04 //124   ----------------------------------------
 BYTE   PATT
  POIN2 Label_0183FDDA
//  #04 //125   ----------------------------------------
 BYTE   PATT
  POIN2 Label_0183FE1D
//  #04 //126   ----------------------------------------
 BYTE   PATT
  POIN2 Label_0183FE60
//  #04 //127   ----------------------------------------
 BYTE   PATT
  POIN2 Label_0183FAB8
//  #04 //128   ----------------------------------------
 BYTE   PATT
  POIN2 Label_0183FEA8
//  #04 //129   ----------------------------------------
 BYTE   PATT
  POIN2 Label_0183FEEB
//  #04 //130   ----------------------------------------
 BYTE   PATT
  POIN2 Label_0183FF26
//  #04 //131   ----------------------------------------
 BYTE   PATT
  POIN2 Label_0183FF62
//  #04 //132   ----------------------------------------
 BYTE   N11  Gs0  v036
 BYTE   N11  Gs1
 BYTE   N11  Ds2
 BYTE   N11  Gs2
 BYTE   W12
 BYTE   Gs0
 BYTE   N11  Gs1
 BYTE   N11  Ds2
 BYTE   N11  Gs2
 BYTE   W12
 BYTE   Gs0
 BYTE   N11  Gs1
 BYTE   N11  Ds2
 BYTE   N11  Gs2
 BYTE   W12
 BYTE   Gs0
 BYTE   N11  Gs1
 BYTE   N11  Ds2
 BYTE   N06  Gs2
 BYTE   W12
 BYTE   N11  Gs0
 BYTE   N11  Gs1
 BYTE   N11  Ds2
 BYTE   W12
 BYTE   Gs0
 BYTE   N11  Gs1
 BYTE   N11  Ds2
 BYTE   W12
 BYTE   As0
 BYTE   N11  As1
 BYTE   N11  Fn2
 BYTE   N06  As2
 BYTE   W12
 BYTE   N11  As0
 BYTE   N11  As1
 BYTE   N11  Fn2
 BYTE   W12
//  #04 //133   ----------------------------------------
 BYTE   As0
 BYTE   N11  As1
 BYTE   N11  Fn2
 BYTE   N11  As2
 BYTE   W12
 BYTE   As0
 BYTE   N11  As1
 BYTE   N11  Fn2
 BYTE   N11  As2
 BYTE   W12
 BYTE   As0
 BYTE   N11  As1
 BYTE   N11  Fn2
 BYTE   N11  As2
 BYTE   W12
 BYTE   As0
 BYTE   N11  As1
 BYTE   N11  Fn2
 BYTE   N11  As2
 BYTE   W12
 BYTE   Bn0
 BYTE   N11  Bn1
 BYTE   N11  Fs2
 BYTE   N11  Bn2
 BYTE   W12
 BYTE   Bn0
 BYTE   N11  Bn1
 BYTE   N11  Fs2
 BYTE   N11  Bn2
 BYTE   W12
 BYTE   As0
 BYTE   N11  As1
 BYTE   N11  Fn2
 BYTE   N11  As2
 BYTE   W12
 BYTE   As0
 BYTE   N11  As1
 BYTE   N11  Fn2
 BYTE   N11  As2
 BYTE   W12
//  #04 //134   ----------------------------------------
 BYTE   Bn0
 BYTE   N11  Bn1
 BYTE   N11  Fs2
 BYTE   N11  Bn2
 BYTE   W12
 BYTE   Bn0
 BYTE   N11  Bn1
 BYTE   N11  Fs2
 BYTE   N11  Bn2
 BYTE   W12
 BYTE   Bn0
 BYTE   N11  Bn1
 BYTE   N11  Fs2
 BYTE   N11  Bn2
 BYTE   W12
 BYTE   Bn0
 BYTE   N11  Bn1
 BYTE   N11  Fs2
 BYTE   N11  Bn2
 BYTE   W12
 BYTE   Bn0
 BYTE   N11  Bn1
 BYTE   N11  Fs2
 BYTE   N11  Bn2
 BYTE   W12
 BYTE   Bn0
 BYTE   N11  Bn1
 BYTE   N11  Fs2
 BYTE   N11  Bn2
 BYTE   W12
 BYTE   Cs1
 BYTE   N11  Cs2
 BYTE   N11  Gs2
 BYTE   N06  Cs3
 BYTE   W12
 BYTE   N11  Cs1
 BYTE   N11  Cs2
 BYTE   N11  Gs2
 BYTE   W12
//  #04 //135   ----------------------------------------
 BYTE   Cs1
 BYTE   N11  Cs2
 BYTE   N11  Gs2
 BYTE   W12
 BYTE   Cs1
 BYTE   N11  Cs2
 BYTE   N11  Gs2
 BYTE   N11  Cs3
 BYTE   W12
 BYTE   Cs1
 BYTE   N11  Cs2
 BYTE   N11  Gs2
 BYTE   N11  Cs3
 BYTE   W12
 BYTE   Cs1
 BYTE   N11  Cs2
 BYTE   N11  Gs2
 BYTE   N11  Cs3
 BYTE   W12
 BYTE   Cs1
 BYTE   N11  Cs2
 BYTE   N11  Gs2
 BYTE   N11  Cs3
 BYTE   W12
 BYTE   Cs1
 BYTE   N11  Cs2
 BYTE   N11  Gs2
 BYTE   N11  Cs3
 BYTE   W12
 BYTE   Cs1
 BYTE   N11  Cs2
 BYTE   N11  Gs2
 BYTE   N11  Cs3
 BYTE   W12
 BYTE   Cs1
 BYTE   N11  Cs2
 BYTE   N11  Gs2
 BYTE   N11  Cs3
 BYTE   W12
//  #04 //136   ----------------------------------------
Label_01840412:
 BYTE   N11  Gs0  v036
 BYTE   N11  Gs1
 BYTE   N11  Ds2
 BYTE   N11  Gs2
 BYTE   W12
 BYTE   Gs0
 BYTE   N11  Gs1
 BYTE   N11  Ds2
 BYTE   N11  Gs2
 BYTE   W12
 BYTE   Gs0
 BYTE   N11  Gs1
 BYTE   N11  Ds2
 BYTE   N11  Gs2
 BYTE   W12
 BYTE   Gs0
 BYTE   N11  Gs1
 BYTE   N11  Ds2
 BYTE   N11  Gs2
 BYTE   W12
 BYTE   Gs0
 BYTE   N11  Gs1
 BYTE   N11  Ds2
 BYTE   N11  Gs2
 BYTE   W12
 BYTE   Gs0
 BYTE   N11  Gs1
 BYTE   N11  Ds2
 BYTE   N11  Gs2
 BYTE   W12
 BYTE   Gs0
 BYTE   N11  Gs1
 BYTE   N11  Ds2
 BYTE   N11  Gs2
 BYTE   W12
 BYTE   Gs0
 BYTE   N11  Gs1
 BYTE   N11  Ds2
 BYTE   N11  Gs2
 BYTE   W12
 BYTE   PEND 
//  #04 //137   ----------------------------------------
 BYTE   PATT
  POIN2 Label_0183FBBE
//  #04 //138   ----------------------------------------
 BYTE   PATT
  POIN2 Label_0183FAB8
//  #04 //139   ----------------------------------------
 BYTE   N11  Cs1  v036
 BYTE   N11  Cs2
 BYTE   N11  Gs2
 BYTE   N11  Cs3
 BYTE   W12
 BYTE   Cs1
 BYTE   N11  Cs2
 BYTE   N11  Gs2
 BYTE   N11  Cs3
 BYTE   W12
 BYTE   Cs1
 BYTE   N11  Cs2
 BYTE   N11  Gs2
 BYTE   N11  Cs3
 BYTE   W12
 BYTE   Cs1
 BYTE   N11  Cs2
 BYTE   N11  Gs2
 BYTE   N11  Cs3
 BYTE   W12
 BYTE   Cs1
 BYTE   N23  As1
 BYTE   N11  Cs2
 BYTE   N23  Fn2
 BYTE   N11  Gs2
 BYTE   N23  As2
 BYTE   N11  Cs3
 BYTE   W12
 BYTE   Cs1
 BYTE   N11  Cs2
 BYTE   N11  Gs2
 BYTE   N11  Cs3
 BYTE   W12
 BYTE   Cs1
 BYTE   N23  As1
 BYTE   N11  Cs2
 BYTE   N23  Fn2
 BYTE   N11  Gs2
 BYTE   N23  As2
 BYTE   N11  Cs3
 BYTE   W12
 BYTE   Cs1
 BYTE   N11  Cs2
 BYTE   N11  Gs2
 BYTE   N11  Cs3
 BYTE   W12
//  #04 //140   ----------------------------------------
 BYTE   PATT
  POIN2 Label_0183FAB8
//  #04 //141   ----------------------------------------
 BYTE   PATT
  POIN2 Label_0183FB76
//  #04 //142   ----------------------------------------
 BYTE   PATT
  POIN2 Label_0183FBBE
//  #04 //143   ----------------------------------------
 BYTE   PATT
  POIN2 Label_0183FD54
//  #04 //144   ----------------------------------------
 BYTE   N11  Gs0  v036
 BYTE   N11  Gs1
 BYTE   N11  Ds2
 BYTE   N11  Gs2
 BYTE   W12
 BYTE   Gs0
 BYTE   N11  Gs1
 BYTE   N11  Ds2
 BYTE   N11  Gs2
 BYTE   W12
 BYTE   As0
 BYTE   N11  As1
 BYTE   N11  Fn2
 BYTE   N11  As2
 BYTE   W12
 BYTE   As0
 BYTE   N11  As1
 BYTE   N11  Fn2
 BYTE   N11  As2
 BYTE   W12
 BYTE   Bn0
 BYTE   N11  Bn1
 BYTE   N11  Fs2
 BYTE   N11  Bn2
 BYTE   W12
 BYTE   Bn0
 BYTE   N11  Bn1
 BYTE   N11  Fs2
 BYTE   N11  Bn2
 BYTE   W12
 BYTE   As0
 BYTE   N11  As1
 BYTE   N11  Fn2
 BYTE   N11  As2
 BYTE   W12
 BYTE   As0
 BYTE   N11  As1
 BYTE   N11  Fn2
 BYTE   N11  As2
 BYTE   W12
//  #04 //145   ----------------------------------------
 BYTE   Gs0
 BYTE   N11  Gs1
 BYTE   N11  Ds2
 BYTE   N11  Gs2
 BYTE   W12
 BYTE   Gs0
 BYTE   N11  Gs1
 BYTE   N11  Ds2
 BYTE   N11  Gs2
 BYTE   W12
 BYTE   As0
 BYTE   N11  As1
 BYTE   N11  Fn2
 BYTE   N11  As2
 BYTE   W12
 BYTE   As0
 BYTE   N11  As1
 BYTE   N11  Fn2
 BYTE   N11  As2
 BYTE   W12
 BYTE   Gs0
 BYTE   N11  Gs1
 BYTE   N11  Ds2
 BYTE   N11  Gs2
 BYTE   W12
 BYTE   Gs0
 BYTE   N11  Gs1
 BYTE   N11  Ds2
 BYTE   N11  Gs2
 BYTE   W12
 BYTE   As0
 BYTE   N11  As1
 BYTE   N11  Fn2
 BYTE   N11  As2
 BYTE   W12
 BYTE   As0
 BYTE   N11  As1
 BYTE   N11  Fn2
 BYTE   N11  As2
 BYTE   W12
//  #04 //146   ----------------------------------------
 BYTE   PATT
  POIN2 Label_0183FAB8
//  #04 //147   ----------------------------------------
 BYTE   PATT
  POIN2 Label_0183FB76
//  #04 //148   ----------------------------------------
Label_0184054D:
 BYTE   N11  Fs0  v036
 BYTE   N11  Fs1
 BYTE   N11  Cs2
 BYTE   N11  Fs2
 BYTE   W12
 BYTE   Fs0
 BYTE   N11  Fs1
 BYTE   N11  Cs2
 BYTE   N11  Fs2
 BYTE   W12
 BYTE   Fs0
 BYTE   N11  Fs1
 BYTE   N11  Cs2
 BYTE   N11  Fs2
 BYTE   W12
 BYTE   Fs0
 BYTE   N11  Fs1
 BYTE   N11  Cs2
 BYTE   N11  Fs2
 BYTE   W12
 BYTE   Fs0
 BYTE   N11  Fs1
 BYTE   N11  Cs2
 BYTE   N11  Fs2
 BYTE   W12
 BYTE   Fs0
 BYTE   N11  Fs1
 BYTE   N11  Cs2
 BYTE   N11  Fs2
 BYTE   W12
 BYTE   Fs0
 BYTE   N11  Fs1
 BYTE   N11  Cs2
 BYTE   N11  Fs2
 BYTE   W12
 BYTE   Fs0
 BYTE   N11  Fs1
 BYTE   N11  Cs2
 BYTE   N11  Fs2
 BYTE   W12
 BYTE   PEND 
//  #04 //149   ----------------------------------------
 BYTE   PATT
  POIN2 Label_0184054D
//  #04 //150   ----------------------------------------
 BYTE   N92  Cs1  v036
 BYTE   N92  Cs2
 BYTE   N92  Gs2
 BYTE   N92  Cs3
 BYTE   W96
//  #04 //151   ----------------------------------------
 BYTE   Cs2
 BYTE   W96
//  #04 //152   ----------------------------------------
 BYTE   N11  Ds2
 BYTE   W12
 BYTE   As2
 BYTE   W12
 BYTE   Ds3
 BYTE   W12
 BYTE   N23  Fn3
 BYTE   W24
 BYTE   Ds3
 BYTE   W24
 BYTE   Gs3
 BYTE   W12
//  #04 //153   ----------------------------------------
 BYTE   W12
 BYTE   Cs3
 BYTE   W24
 BYTE   N56  Fn3
 BYTE   W60
//  #04 //154   ----------------------------------------
 BYTE   N11  Bn1
 BYTE   W12
 BYTE   Fs2
 BYTE   W12
 BYTE   Bn2
 BYTE   W12
 BYTE   N23  Cs3
 BYTE   W24
 BYTE   Bn2
 BYTE   W24
 BYTE   Ds3
 BYTE   W12
//  #04 //155   ----------------------------------------
 BYTE   W12
 BYTE   N32  Cs3
 BYTE   W84
//  #04 //156   ----------------------------------------
 BYTE   N11  Cs2
 BYTE   W12
 BYTE   Gs2
 BYTE   W12
 BYTE   As2
 BYTE   W12
 BYTE   N23  Cs3
 BYTE   W24
 BYTE   As2
 BYTE   W24
 BYTE   Dn3
 BYTE   W12
//  #04 //157   ----------------------------------------
 BYTE   W12
 BYTE   As2
 BYTE   W24
 BYTE   Dn3
 BYTE   W24
 BYTE   N32  As2
 BYTE   W36
//  #04 //158   ----------------------------------------
 BYTE   N11  Ds2
 BYTE   W12
 BYTE   As2
 BYTE   W12
 BYTE   Ds3
 BYTE   W12
 BYTE   N56  Fn3
 BYTE   W60
//  #04 //159   ----------------------------------------
 BYTE   N44  Cs3
 BYTE   W36
 BYTE   N05  Cs2
 BYTE   N05  Fn2
 BYTE   N05  As2
 BYTE   W06
 BYTE   Cs2
 BYTE   N05  Fn2
 BYTE   N05  As2
 BYTE   W06
 BYTE   N44  As0
 BYTE   N36  Fn2
 BYTE   N36  As2
 BYTE   N36  Cs3
 BYTE   N36  Fn3
 BYTE   W48
//  #04 //160   ----------------------------------------
 BYTE   N05  Gs0
 BYTE   N05  Gs1
 BYTE   N05  Ds2
 BYTE   N05  Gs2
 BYTE   W12
 BYTE   Gs0
 BYTE   N05  Gs1
 BYTE   N05  Ds2
 BYTE   N05  Gs2
 BYTE   W12
 BYTE   Gs0
 BYTE   N05  Gs1
 BYTE   N05  Ds2
 BYTE   N05  Gs2
 BYTE   W12
 BYTE   Gs0
 BYTE   N05  Gs1
 BYTE   N05  Ds2
 BYTE   N05  Gs2
 BYTE   W12
 BYTE   Gs0
 BYTE   N05  Gs1
 BYTE   N05  Ds2
 BYTE   N05  Gs2
 BYTE   W12
 BYTE   Gs0
 BYTE   N05  Gs1
 BYTE   N05  Ds2
 BYTE   N05  Gs2
 BYTE   W12
 BYTE   Gs0
 BYTE   N05  Gs1
 BYTE   N05  Ds2
 BYTE   N05  Gs2
 BYTE   W12
 BYTE   Gs0
 BYTE   N05  Gs1
 BYTE   N05  Ds2
 BYTE   N05  Gs2
 BYTE   W12
//  #04 //161   ----------------------------------------
 BYTE   As0
 BYTE   N05  As1
 BYTE   N05  Fn2
 BYTE   N05  As2
 BYTE   W12
 BYTE   As0
 BYTE   N05  As1
 BYTE   N05  Fn2
 BYTE   N05  As2
 BYTE   W12
 BYTE   As0
 BYTE   N05  As1
 BYTE   N05  Fn2
 BYTE   N05  As2
 BYTE   W12
 BYTE   As0
 BYTE   N05  As1
 BYTE   N05  Fn2
 BYTE   N05  As2
 BYTE   W12
 BYTE   As0
 BYTE   N05  As1
 BYTE   N05  Fn2
 BYTE   N05  As2
 BYTE   W12
 BYTE   As0
 BYTE   N05  As1
 BYTE   N05  Fn2
 BYTE   N05  As2
 BYTE   W12
 BYTE   As0
 BYTE   N05  As1
 BYTE   N05  Fn2
 BYTE   N05  As2
 BYTE   W12
 BYTE   As0
 BYTE   N05  As1
 BYTE   N05  Fn2
 BYTE   N05  As2
 BYTE   W12
//  #04 //162   ----------------------------------------
 BYTE   Bn0
 BYTE   N05  Bn1
 BYTE   N05  Fs2
 BYTE   N05  Bn2
 BYTE   W12
 BYTE   Bn0
 BYTE   N05  Bn1
 BYTE   N05  Fs2
 BYTE   N05  Bn2
 BYTE   W12
 BYTE   Bn0
 BYTE   N05  Bn1
 BYTE   N05  Fs2
 BYTE   N05  Bn2
 BYTE   W12
 BYTE   Bn0
 BYTE   N05  Bn1
 BYTE   N05  Fs2
 BYTE   N05  Bn2
 BYTE   W12
 BYTE   Bn0
 BYTE   N05  Bn1
 BYTE   N05  Fs2
 BYTE   N05  Bn2
 BYTE   W12
 BYTE   Bn0
 BYTE   N05  Bn1
 BYTE   N05  Fs2
 BYTE   N05  Bn2
 BYTE   W12
 BYTE   Bn0
 BYTE   N05  Bn1
 BYTE   N05  Fs2
 BYTE   N05  Bn2
 BYTE   W12
 BYTE   Bn0
 BYTE   N05  Bn1
 BYTE   N05  Fs2
 BYTE   N05  Bn2
 BYTE   W12
//  #04 //163   ----------------------------------------
 BYTE   As0
 BYTE   N05  As1
 BYTE   N05  Fn2
 BYTE   N05  As2
 BYTE   W12
 BYTE   As0
 BYTE   N05  As1
 BYTE   N05  Fn2
 BYTE   N05  As2
 BYTE   W12
 BYTE   As0
 BYTE   N05  As1
 BYTE   N05  Fn2
 BYTE   N05  As2
 BYTE   W12
 BYTE   As0
 BYTE   N05  As1
 BYTE   N05  Fn2
 BYTE   N05  As2
 BYTE   W12
 BYTE   An0
 BYTE   N05  An1
 BYTE   N05  En2
 BYTE   N05  An2
 BYTE   W12
 BYTE   An0
 BYTE   N05  An1
 BYTE   N05  En2
 BYTE   N05  An2
 BYTE   W12
 BYTE   An0
 BYTE   N05  An1
 BYTE   N05  En2
 BYTE   N05  An2
 BYTE   W12
 BYTE   An0
 BYTE   N05  An1
 BYTE   N05  En2
 BYTE   N05  An2
 BYTE   W12
//  #04 //164   ----------------------------------------
 BYTE   PATT
  POIN2 Label_01840412
//  #04 //165   ----------------------------------------
 BYTE   PATT
  POIN2 Label_01840412
//  #04 //166   ----------------------------------------
 BYTE   PATT
  POIN2 Label_0183FAB8
//  #04 //167   ----------------------------------------
 BYTE   PATT
  POIN2 Label_0183FAB8
//  #04 //168   ----------------------------------------
 BYTE   PATT
  POIN2 Label_0183FB76
//  #04 //169   ----------------------------------------
 BYTE   PATT
  POIN2 Label_0183FB76
//  #04 //170   ----------------------------------------
 BYTE   PATT
  POIN2 Label_0183FBBE
//  #04 //171   ----------------------------------------
 BYTE   PATT
  POIN2 Label_0183FBBE
//  #04 //172   ----------------------------------------
 BYTE   W96
//  #04 //173   ----------------------------------------
 BYTE   W96
//  #04 //174   ----------------------------------------
 BYTE   W96
//  #04 //175   ----------------------------------------
 BYTE   W48
 BYTE   N11  Bn0  v036
 BYTE   N11  Bn1
 BYTE   N11  Fs2
 BYTE   N11  Bn2
 BYTE   W12
 BYTE   Bn0
 BYTE   N11  Bn1
 BYTE   N11  Fs2
 BYTE   N11  Bn2
 BYTE   W12
 BYTE   Bn0
 BYTE   N11  Bn1
 BYTE   N11  Fs2
 BYTE   N11  Bn2
 BYTE   W12
 BYTE   Bn0
 BYTE   N11  Bn1
 BYTE   N11  Fs2
 BYTE   N11  Bn2
 BYTE   W12
//  #04 //176   ----------------------------------------
 BYTE   PATT
  POIN2 Label_0183FB76
//  #04 //177   ----------------------------------------
 BYTE   PATT
  POIN2 Label_0183FB76
//  #04 //178   ----------------------------------------
 BYTE   PATT
  POIN2 Label_0183FBBE
//  #04 //179   ----------------------------------------
 BYTE   PATT
  POIN2 Label_0183FBBE
//  #04 //180   ----------------------------------------
 BYTE   PATT
  POIN2 Label_0183FC06
//  #04 //181   ----------------------------------------
 BYTE   PATT
  POIN2 Label_0183FC42
//  #04 //182   ----------------------------------------
 BYTE   PATT
  POIN2 Label_0183FC7C
//  #04 //183   ----------------------------------------
 BYTE   PATT
  POIN2 Label_0183FC7C
//  #04 //184   ----------------------------------------
 BYTE   PATT
  POIN2 Label_0183FCC4
//  #04 //185   ----------------------------------------
 BYTE   PATT
  POIN2 Label_0183FCC4
//  #04 //186   ----------------------------------------
 BYTE   PATT
  POIN2 Label_0183FD0C
//  #04 //187   ----------------------------------------
 BYTE   PATT
  POIN2 Label_0183FD0C
//  #04 //188   ----------------------------------------
 BYTE   PATT
  POIN2 Label_0183FD54
//  #04 //189   ----------------------------------------
 BYTE   PATT
  POIN2 Label_0183FD97
//  #04 //190   ----------------------------------------
 BYTE   PATT
  POIN2 Label_0183FDDA
//  #04 //191   ----------------------------------------
 BYTE   PATT
  POIN2 Label_0183FE1D
//  #04 //192   ----------------------------------------
 BYTE   PATT
  POIN2 Label_0183FE60
//  #04 //193   ----------------------------------------
 BYTE   PATT
  POIN2 Label_0183FAB8
//  #04 //194   ----------------------------------------
 BYTE   PATT
  POIN2 Label_0183FEA8
//  #04 //195   ----------------------------------------
 BYTE   PATT
  POIN2 Label_0183FEEB
//  #04 //196   ----------------------------------------
 BYTE   PATT
  POIN2 Label_0183FF26
//  #04 //197   ----------------------------------------
 BYTE   PATT
  POIN2 Label_0183FF62
//  #04 //198   ----------------------------------------
 BYTE   PATT
  POIN2 Label_0183F537
//  #04 //199   ----------------------------------------
 BYTE   PATT
  POIN2 Label_0183F57A
//  #04 //200   ----------------------------------------
 BYTE   PATT
  POIN2 Label_0183F5BD
//  #04 //201   ----------------------------------------
 BYTE   PATT
  POIN2 Label_0183F600
//  #04 //202   ----------------------------------------
 BYTE   N11  Gs0  v036
 BYTE   N11  Gs1
 BYTE   N11  Ds2
 BYTE   N11  Gs2
 BYTE   W12
 BYTE   Gs0
 BYTE   N11  Gs1
 BYTE   N11  Ds2
 BYTE   N11  Gs2
 BYTE   W12
 BYTE   Gs0
 BYTE   N11  Gs1
 BYTE   N11  Ds2
 BYTE   N11  Gs2
 BYTE   W12
 BYTE   Gs0
 BYTE   N11  Gs1
 BYTE   N11  Ds2
 BYTE   N11  Gs2
 BYTE   W12
 BYTE   Gs0
 BYTE   N11  Gs1
 BYTE   N11  Ds2
 BYTE   N11  Gs2
 BYTE   W12
 BYTE   Gs0
 BYTE   N11  Gs1
 BYTE   N11  Ds2
 BYTE   N11  Gs2
 BYTE   W12
 BYTE   Gs0
 BYTE   N11  Gs1
 BYTE   N11  Ds2
 BYTE   N11  Gs2
 BYTE   W12
 BYTE   As0
 BYTE   N11  As1
 BYTE   N11  Fn2
 BYTE   N11  As2
 BYTE   W12
//  #04 //203   ----------------------------------------
 BYTE   As0
 BYTE   N11  As1
 BYTE   N11  Fn2
 BYTE   N11  As2
 BYTE   W12
 BYTE   As0
 BYTE   N11  As1
 BYTE   N11  Fn2
 BYTE   N11  As2
 BYTE   W12
 BYTE   As0
 BYTE   N11  As1
 BYTE   N11  Fn2
 BYTE   N11  As2
 BYTE   W12
 BYTE   As0
 BYTE   N11  As1
 BYTE   N11  Fn2
 BYTE   N11  As2
 BYTE   W12
 BYTE   As0
 BYTE   N11  As1
 BYTE   N11  Fn2
 BYTE   N11  As2
 BYTE   W12
 BYTE   As0
 BYTE   N11  As1
 BYTE   N11  Fn2
 BYTE   N11  As2
 BYTE   W12
 BYTE   Cs1
 BYTE   N11  Cs2
 BYTE   N11  Gs2
 BYTE   N11  Cs3
 BYTE   W12
 BYTE   Cs1
 BYTE   N11  Cs2
 BYTE   N11  Gs2
 BYTE   N11  Cs3
 BYTE   W12
//  #04 //204   ----------------------------------------
 BYTE   PATT
  POIN2 Label_0183FD54
//  #04 //205   ----------------------------------------
 BYTE   N11  Cs1  v036
 BYTE   N11  Cs2
 BYTE   N11  Gs2
 BYTE   N11  Cs3
 BYTE   W18
 BYTE   Cs1
 BYTE   N11  Cs2
 BYTE   N11  Gs2
 BYTE   N11  Cs3
 BYTE   W18
 BYTE   Cs1
 BYTE   N11  Cs2
 BYTE   N11  Gs2
 BYTE   N11  Cs3
 BYTE   W12
 BYTE   Cs2
 BYTE   N11  Gs2
 BYTE   N11  Cs3
 BYTE   W18
 BYTE   Cs2
 BYTE   N11  Gs2
 BYTE   N11  Cs3
 BYTE   W18
 BYTE   Cs2
 BYTE   N11  Gs2
 BYTE   N11  Cs3
 BYTE   W12
//  #04 //206   ----------------------------------------
 BYTE   W24
 BYTE   TIE  Fs2  v012
 BYTE   W48
 BYTE   N11  Cs4
 BYTE   W12
 BYTE   N11
 BYTE   W12
//  #04 //207   ----------------------------------------
 BYTE   W12
 BYTE   Gs3
 BYTE   W12
 BYTE   N11
 BYTE   W24
 BYTE   Fs3
 BYTE   W12
 BYTE   N11
 BYTE   W24
 BYTE   Fn3
 BYTE   W12
//  #04 //208   ----------------------------------------
 BYTE   N11
 BYTE   W12
 BYTE   Cs3
 BYTE   W12
 BYTE   N11
 BYTE   W12
 BYTE   Gs2
 BYTE   W12
 BYTE   N11
 BYTE   W24
 BYTE   EOT
 BYTE   Fs2
 BYTE   N11
 BYTE   W12
 BYTE   N11
 BYTE   W12
//  #04 //209   ----------------------------------------
 BYTE   W12
 BYTE   Fn2
 BYTE   W12
 BYTE   N11
 BYTE   W24
 BYTE   Cs2
 BYTE   W12
 BYTE   N11
 BYTE   W24
 BYTE   Gs1
 BYTE   W12
//  #04 //210   ----------------------------------------
 BYTE   N11
 BYTE   W12
 BYTE   N12  Fs1
 BYTE   W12
 BYTE   N72
 BYTE   W72
//  #04 //211   ----------------------------------------
 BYTE   N96
 BYTE   W96
//  #04 //212   ----------------------------------------
 BYTE   N96
 BYTE   W96
//  #04 //213   ----------------------------------------
 BYTE   N54
 BYTE   W76
 BYTE   FINE

//**************** Track 5 (Midi-Chn.4) ****************//

song38_005:
//  #05 //000   ----------------------------------------
 BYTE   KEYSH   song38_key+0
 BYTE   VOICE   48
 BYTE   MODT 0
 BYTE   LFOS 44
 BYTE   VOL   54*song38_mvl/mxv
 BYTE   MODT 0
 BYTE   LFOS 44
 BYTE   PAN   c_v+0
 BYTE   N11  Gs3  v036
 BYTE   W24
 BYTE   N11
 BYTE   W12
 BYTE   Cs4
 BYTE   W24
 BYTE   N11
 BYTE   W12
 BYTE   Fs4
 BYTE   W24
//  #05 //001   ----------------------------------------
Label_018408E0:
 BYTE   N11  Fs4  v036
 BYTE   W12
 BYTE   Gs4
 BYTE   W24
 BYTE   N11
 BYTE   W12
 BYTE   Cs4
 BYTE   W48
 BYTE   PEND 
//  #05 //002   ----------------------------------------
 BYTE   Gs3
 BYTE   W24
 BYTE   N11
 BYTE   W12
 BYTE   Cs4
 BYTE   W24
 BYTE   N11
 BYTE   W12
 BYTE   Fs4
 BYTE   W24
//  #05 //003   ----------------------------------------
 BYTE   PATT
  POIN2 Label_018408E0
//  #05 //004   ----------------------------------------
Label_018408FA:
 BYTE   N11  As3  v036
 BYTE   W24
 BYTE   N11
 BYTE   W12
 BYTE   Cs4
 BYTE   W24
 BYTE   N11
 BYTE   W12
 BYTE   Fs4
 BYTE   W24
 BYTE   PEND 
//  #05 //005   ----------------------------------------
 BYTE   PATT
  POIN2 Label_018408E0
//  #05 //006   ----------------------------------------
 BYTE   PATT
  POIN2 Label_018408FA
//  #05 //007   ----------------------------------------
 BYTE   N11  Fs4  v036
 BYTE   W12
 BYTE   Gs4
 BYTE   W24
 BYTE   N11
 BYTE   W12
 BYTE   As4
 BYTE   W48
//  #05 //008   ----------------------------------------
 BYTE   Fs2
 BYTE   N11  Gs3
 BYTE   W12
 BYTE   Gs2
 BYTE   W12
 BYTE   Gs3
 BYTE   W12
 BYTE   N22  Cs3
 BYTE   N11  Cs4
 BYTE   W24
 BYTE   N22  Gs2
 BYTE   N11  Cs4
 BYTE   W12
 BYTE   Fs4
 BYTE   W12
 BYTE   N22  Fs2
 BYTE   W12
//  #05 //009   ----------------------------------------
 BYTE   PATT
  POIN2 Label_018408E0
//  #05 //010   ----------------------------------------
 BYTE   N11  Fs2  v036
 BYTE   N11  Gs3
 BYTE   W12
 BYTE   Gs2
 BYTE   W12
 BYTE   Gs3
 BYTE   W12
 BYTE   N22  Ds3
 BYTE   N11  Cs4
 BYTE   W24
 BYTE   N22  Cs3
 BYTE   N11  Cs4
 BYTE   W12
 BYTE   Fs4
 BYTE   W12
 BYTE   N22  Cs3
 BYTE   W12
//  #05 //011   ----------------------------------------
 BYTE   PATT
  POIN2 Label_018408E0
//  #05 //012   ----------------------------------------
 BYTE   N11  Fs2  v036
 BYTE   N11  Ds3
 BYTE   N11  Fs3
 BYTE   N11  As3
 BYTE   W12
 BYTE   Gs2
 BYTE   N11  Fs3
 BYTE   N11  Gs3
 BYTE   W12
 BYTE   Ds3  v044
 BYTE   N11  As3
 BYTE   W12
 BYTE   N22  Cs3
 BYTE   N11  As3
 BYTE   N22  Cs4
 BYTE   W12
 BYTE   N11  Fs3
 BYTE   W12
 BYTE   N22  Gs2  v048
 BYTE   N22  Gs3
 BYTE   N11  As3
 BYTE   N11  Cs4
 BYTE   W12
 BYTE   As3
 BYTE   N11  Fs4
 BYTE   W12
 BYTE   N12  Fs2  v052
 BYTE   N22  Fs3
 BYTE   N11  Ds4
 BYTE   W12
//  #05 //013   ----------------------------------------
 BYTE   N11
 BYTE   N11  Fs4
 BYTE   W12
 BYTE   As3
 BYTE   N11  Gs4
 BYTE   W12
 BYTE   Ds4  v056
 BYTE   W12
 BYTE   As3
 BYTE   N11  Gs4
 BYTE   W12
 BYTE   Fs3  v060
 BYTE   N11  Cs4
 BYTE   W12
 BYTE   As3
 BYTE   W12
 BYTE   Ds4
 BYTE   W12
 BYTE   Fs4  v064
 BYTE   W12
//  #05 //014   ----------------------------------------
 BYTE   Fs2
 BYTE   N11  Cs3
 BYTE   N11  Fs3
 BYTE   N11  As3
 BYTE   W12
 BYTE   Gs2  v072
 BYTE   N11  Fs3
 BYTE   N11  Gs3
 BYTE   W12
 BYTE   Cs3
 BYTE   N11  As3
 BYTE   W12
 BYTE   N22  Cs3
 BYTE   N11  As3
 BYTE   N22  Cs4
 BYTE   W12
 BYTE   N11  Fs3  v076
 BYTE   W12
 BYTE   N22  Gs2
 BYTE   N22  Gs3
 BYTE   N11  As3
 BYTE   N11  Cs4
 BYTE   W12
 BYTE   As3  v080
 BYTE   N11  Fs4
 BYTE   W12
 BYTE   N12  Fs2
 BYTE   N12  Fs3
 BYTE   N11  Cs4
 BYTE   W12
//  #05 //015   ----------------------------------------
 BYTE   Fs3  v088
 BYTE   N11  Fs4
 BYTE   W12
 BYTE   Gs3
 BYTE   N11  Gs4
 BYTE   W12
 BYTE   Gs3
 BYTE   N11  Gs4
 BYTE   W12
 BYTE   Cs4  v092
 BYTE   N11  Fs4
 BYTE   N11  As4
 BYTE   N11  Cs5
 BYTE   W12
 BYTE   Cs4
 BYTE   N11  Fs4
 BYTE   N11  As4
 BYTE   N11  Cs5
 BYTE   W12
 BYTE   Cs4
 BYTE   N11  Fs4
 BYTE   N11  As4
 BYTE   N11  Cs5
 BYTE   W12
 BYTE   N22  Cs4
 BYTE   N22  Fs4
 BYTE   N22  As4
 BYTE   N22  Cs5
 BYTE   W06
 BYTE   N01  Cn6
 BYTE   W01
 BYTE   Bn5
 BYTE   W02
 BYTE   An5
 BYTE   W01
 BYTE   Gn5
 BYTE   W02
 BYTE   Fn5
 BYTE   W01
 BYTE   En5
 BYTE   W02
 BYTE   Dn5
 BYTE   W01
 BYTE   Cn5
 BYTE   W02
 BYTE   Bn4
 BYTE   W01
 BYTE   An4
 BYTE   W02
 BYTE   Gn4
 BYTE   W01
 BYTE   Fn4
 BYTE   W02
//  #05 //016   ----------------------------------------
 BYTE   N11  Fs3
 BYTE   N11  Bn3
 BYTE   N11  Ds4
 BYTE   N32  Fs4
 BYTE   N32  Bn4
 BYTE   N32  Ds5
 BYTE   N32  Fs5
 BYTE   W12
 BYTE   N11  Fs3
 BYTE   N11  Bn3
 BYTE   W12
 BYTE   Fs3
 BYTE   N11  Bn3
 BYTE   W12
 BYTE   Fn3
 BYTE   N11  Bn3
 BYTE   N11  Ds4
 BYTE   N32  Fn4
 BYTE   N32  Bn4
 BYTE   N32  Ds5
 BYTE   N32  Fn5
 BYTE   W12
 BYTE   N11  Fn3
 BYTE   N11  Bn3
 BYTE   W12
 BYTE   Fn3
 BYTE   N11  Bn3
 BYTE   W12
 BYTE   Cs3
 BYTE   N11  Ds3
 BYTE   N11  Fs3
 BYTE   N32  Cs4
 BYTE   N32  Ds4
 BYTE   N32  Fs4
 BYTE   N32  Cs5
 BYTE   W12
 BYTE   N11  Cs3
 BYTE   N11  Ds3
 BYTE   W12
//  #05 //017   ----------------------------------------
Label_01840A62:
 BYTE   N11  Cs3  v092
 BYTE   N11  Ds3
 BYTE   W12
 BYTE   Gs2
 BYTE   N11  Cs3
 BYTE   N32  Gs3
 BYTE   N32  Cs4
 BYTE   N32  Gs4
 BYTE   W12
 BYTE   N11  Gs2
 BYTE   N11  Cs3
 BYTE   W12
 BYTE   Gs2
 BYTE   N11  Cs3
 BYTE   W12
 BYTE   Fs2
 BYTE   N11  Cs3
 BYTE   N22  Fs3
 BYTE   N22  Cs4
 BYTE   N22  Fs4
 BYTE   W12
 BYTE   N11  Fs2
 BYTE   N11  Cs3
 BYTE   W12
 BYTE   Gs2
 BYTE   N11  Cs3
 BYTE   N22  Gs3
 BYTE   N22  Cs4
 BYTE   N22  Gs4
 BYTE   W12
 BYTE   N11  Gs2
 BYTE   N11  Cs3
 BYTE   W12
 BYTE   PEND 
//  #05 //018   ----------------------------------------
Label_01840A9A:
 BYTE   N11  Fn2  v092
 BYTE   N11  Gs2
 BYTE   N11  Cs3
 BYTE   N32  Fn3
 BYTE   N32  Gs3
 BYTE   N32  Cs4
 BYTE   N32  Fn4
 BYTE   W12
 BYTE   N11  Fn2
 BYTE   N11  Gs2
 BYTE   W12
 BYTE   Fn2
 BYTE   N11  Gs2
 BYTE   W12
 BYTE   Fs2
 BYTE   N11  Cs3
 BYTE   N32  Fs3
 BYTE   N32  As3
 BYTE   N32  Cs4
 BYTE   N32  Fs4
 BYTE   W12
 BYTE   N11  Fs2
 BYTE   N11  Cs3
 BYTE   W12
 BYTE   Fs2
 BYTE   N11  Cs3
 BYTE   W12
 BYTE   N11
 BYTE   N11  Fs3
 BYTE   N56  Cs4
 BYTE   N56  Fs4
 BYTE   N56  As4
 BYTE   N56  Cs5
 BYTE   W12
 BYTE   N11  Cs3
 BYTE   N11  Fs3
 BYTE   W12
 BYTE   PEND 
//  #05 //019   ----------------------------------------
Label_01840ADA:
 BYTE   N11  Cs3  v092
 BYTE   N11  Fs3
 BYTE   W12
 BYTE   Cs3
 BYTE   N11  Fs3
 BYTE   W12
 BYTE   Cs3
 BYTE   N11  Fs3
 BYTE   W12
 BYTE   N22  As3
 BYTE   N22  Cs4
 BYTE   N22  Fs4
 BYTE   N22  As4
 BYTE   W24
 BYTE   N11  Bn3
 BYTE   N11  Bn4
 BYTE   W12
 BYTE   Cs4
 BYTE   N11  Cs5
 BYTE   W12
 BYTE   As3
 BYTE   N11  As4
 BYTE   W12
 BYTE   PEND 
//  #05 //020   ----------------------------------------
Label_01840AFF:
 BYTE   N22  Gs3  v092
 BYTE   N22  Cs4
 BYTE   N22  Fn4
 BYTE   N24  Gs4
 BYTE   N32  Cs5
 BYTE   N32  Fn5
 BYTE   N32  Gs5
 BYTE   W24
 BYTE   N11  Gs3
 BYTE   N11  Cs4
 BYTE   N11  Fn4
 BYTE   N11  Gs4
 BYTE   W12
 BYTE   N22  Fn3
 BYTE   N22  As3
 BYTE   N22  Cs4
 BYTE   N24  Fn4
 BYTE   N32  As4
 BYTE   N32  Cs5
 BYTE   N32  Fn5
 BYTE   W24
 BYTE   N11  Fn3
 BYTE   N11  As3
 BYTE   N11  Cs4
 BYTE   N11  Fn4
 BYTE   W12
 BYTE   N22  Cs3
 BYTE   N22  Fn3
 BYTE   N22  As3
 BYTE   N24  Cs4
 BYTE   N32  Fn4
 BYTE   N32  As4
 BYTE   N32  Cs5
 BYTE   W24
 BYTE   PEND 
//  #05 //021   ----------------------------------------
Label_01840B40:
 BYTE   N11  Cs3  v092
 BYTE   N11  Fn3
 BYTE   N11  As3
 BYTE   N11  Cs4
 BYTE   W12
 BYTE   N22  Gs3
 BYTE   N22  Cs4
 BYTE   N22  Fn4
 BYTE   N24  Gs4
 BYTE   N32  Cs5
 BYTE   N32  Fn5
 BYTE   N32  Gs5
 BYTE   W24
 BYTE   N11  Gs3
 BYTE   N11  Cs4
 BYTE   N11  Fn4
 BYTE   N11  Gs4
 BYTE   W12
 BYTE   N22  As3
 BYTE   N22  Cs4
 BYTE   N22  Fn4
 BYTE   N22  As4
 BYTE   N22  Cs5
 BYTE   N22  Fn5
 BYTE   N22  As5
 BYTE   W24
 BYTE   Gs3
 BYTE   N22  Cs4
 BYTE   N22  Fn4
 BYTE   N22  Gs4
 BYTE   N22  Cs5
 BYTE   N22  Fn5
 BYTE   N22  Gs5
 BYTE   W24
 BYTE   PEND 
//  #05 //022   ----------------------------------------
 BYTE   Fn3
 BYTE   N22  As3
 BYTE   N22  Cs4
 BYTE   N24  Fn4
 BYTE   N32  As4
 BYTE   N32  Cs5
 BYTE   N32  Fn5
 BYTE   W24
 BYTE   N11  Fn3
 BYTE   N11  As3
 BYTE   N11  Cs4
 BYTE   N11  Fn4
 BYTE   W12
 BYTE   N32  Fs3
 BYTE   N32  As3
 BYTE   N32  Ds4
 BYTE   N32  Fs4
 BYTE   N32  As4
 BYTE   N32  Ds5
 BYTE   N32  Fs5
 BYTE   W36
 BYTE   N22  Fs3
 BYTE   N22  As3
 BYTE   N22  Ds4
 BYTE   N22  Fs4
 BYTE   N22  As4
 BYTE   N22  Ds5
 BYTE   N22  Fs5
 BYTE   W24
//  #05 //023   ----------------------------------------
 BYTE   N44  Gs3
 BYTE   N44  As3
 BYTE   N44  Ds4
 BYTE   N44  Gs4
 BYTE   N44  As4
 BYTE   N44  Ds5
 BYTE   N44  Gs5
 BYTE   W48
 BYTE   As3
 BYTE   N44  Ds4
 BYTE   N44  Fs4
 BYTE   N44  As4
 BYTE   N44  Ds5
 BYTE   N44  Fs5
 BYTE   N44  As5
 BYTE   W48
//  #05 //024   ----------------------------------------
 BYTE   N32  Fs2  v012
 BYTE   N22  Cs3  v060
 BYTE   W24
 BYTE   N12
 BYTE   W12
 BYTE   Cs3  v012
 BYTE   W12
 BYTE   N22  Cs3  v060
 BYTE   W24
 BYTE   Fs2  v012
 BYTE   N11  Cs3  v060
 BYTE   W12
 BYTE   Ds3
 BYTE   W12
//  #05 //025   ----------------------------------------
 BYTE   N32  Fs2  v012
 BYTE   N22  Cs3  v060
 BYTE   W36
 BYTE   N32  Cs3  v012
 BYTE   W12
 BYTE   N22  Fs2  v060
 BYTE   N22  As2
 BYTE   W24
 BYTE   Fs2  v012
 BYTE   N22  Gs2  v060
 BYTE   N22  Bn2
 BYTE   W24
//  #05 //026   ----------------------------------------
 BYTE   N32  Gs2
 BYTE   N32  Bn2
 BYTE   W36
 BYTE   N11  Fs2
 BYTE   N11  As2
 BYTE   W12
 BYTE   N22
 BYTE   N22  Cs3
 BYTE   W24
 BYTE   N23  Fs3  v032
 BYTE   W24
//  #05 //027   ----------------------------------------
 BYTE   N32  Fn3
 BYTE   W36
 BYTE   Cs3
 BYTE   W36
 BYTE   N23  Gs2
 BYTE   N22  Bn2  v060
 BYTE   W24
//  #05 //028   ----------------------------------------
 BYTE   N32  As2  v012
 BYTE   N22  Cs3  v060
 BYTE   W24
 BYTE   N11  Ds3
 BYTE   W12
 BYTE   N24  Cs3
 BYTE   W24
 BYTE   N11
 BYTE   N11  Fs3
 BYTE   W12
 BYTE   Cs3
 BYTE   N11  Fs3
 BYTE   N22  Gs3  v012
 BYTE   W12
 BYTE   N11  Cs3  v060
 BYTE   N11  Fs3
 BYTE   W12
//  #05 //029   ----------------------------------------
 BYTE   N22  Cs3
 BYTE   N32  Fn3  v012
 BYTE   N22  Gs3  v060
 BYTE   W24
 BYTE   N12  Cs3
 BYTE   N22  Fs3
 BYTE   W12
 BYTE   N12  Cs3  v012
 BYTE   W12
 BYTE   N24  Cs3  v060
 BYTE   N22  Fn3
 BYTE   W24
 BYTE   N12  Cs3
 BYTE   N11  Fs3
 BYTE   W12
 BYTE   N56  Cs3
 BYTE   N48  Fs3
 BYTE   W12
//  #05 //030   ----------------------------------------
 BYTE   N32  Ds3  v032
 BYTE   W36
 BYTE   Fs3
 BYTE   W36
 BYTE   N44  Ds4
 BYTE   W24
//  #05 //031   ----------------------------------------
 BYTE   W24
 BYTE   N23  As3
 BYTE   W24
 BYTE   Fs3
 BYTE   W24
 BYTE   Ds3
 BYTE   W24
//  #05 //032   ----------------------------------------
Label_01840C71:
 BYTE   N22  Cs3  v060
 BYTE   N22  Cs4
 BYTE   W24
 BYTE   Cs3
 BYTE   N22  Cs4
 BYTE   W24
 BYTE   Cs3
 BYTE   N22  Cs4
 BYTE   W24
 BYTE   N11  Cs3
 BYTE   N11  Cs4
 BYTE   W12
 BYTE   Ds3
 BYTE   N11  Ds4
 BYTE   W12
 BYTE   PEND 
//  #05 //033   ----------------------------------------
Label_01840C89:
 BYTE   N22  Cs3  v060
 BYTE   N22  Cs4
 BYTE   W48
 BYTE   Cs3
 BYTE   N22  Cs4
 BYTE   W24
 BYTE   Fs3
 BYTE   N22  Fs4
 BYTE   W24
 BYTE   PEND 
//  #05 //034   ----------------------------------------
Label_01840C98:
 BYTE   N32  Gs3  v060
 BYTE   N32  Gs4
 BYTE   W36
 BYTE   N11  Fs3
 BYTE   N11  Fs4
 BYTE   W12
 BYTE   N44  As3
 BYTE   N44  As4
 BYTE   W48
 BYTE   PEND 
//  #05 //035   ----------------------------------------
 BYTE   W72
 BYTE   N11  Fs3
 BYTE   N11  Fs4
 BYTE   W12
 BYTE   N22  Cs4
 BYTE   N22  Cs5
 BYTE   W12
//  #05 //036   ----------------------------------------
 BYTE   W12
 BYTE   Fs3
 BYTE   N22  Fs4
 BYTE   W24
 BYTE   Fs3
 BYTE   N22  Fs4
 BYTE   W24
 BYTE   Fn3
 BYTE   N22  Fn4
 BYTE   W24
 BYTE   N32  Fn3
 BYTE   N32  Fn4
 BYTE   W12
//  #05 //037   ----------------------------------------
 BYTE   W36
 BYTE   N11  Cs3
 BYTE   N11  Cs4
 BYTE   W12
 BYTE   Cs3
 BYTE   N11  Cs4
 BYTE   W12
 BYTE   Bn2
 BYTE   N11  Bn3
 BYTE   W12
 BYTE   As2
 BYTE   N11  As3
 BYTE   W12
 BYTE   N22  Bn2
 BYTE   N22  Bn3
 BYTE   W12
//  #05 //038   ----------------------------------------
 BYTE   W12
 BYTE   N44  Fs3
 BYTE   N44  Fs4
 BYTE   W60
 BYTE   N11  Bn2
 BYTE   W12
 BYTE   N22
 BYTE   N22  Ds3
 BYTE   W12
//  #05 //039   ----------------------------------------
 BYTE   W12
 BYTE   N11  Bn2
 BYTE   N11  Ds3
 BYTE   W12
 BYTE   Bn2
 BYTE   N11  Fn3
 BYTE   W12
 BYTE   Bn2
 BYTE   N11  Fn3
 BYTE   W12
 BYTE   N32  Cs3
 BYTE   N32  Fs3
 BYTE   N32  Cs4
 BYTE   W36
 BYTE   N11  Fs3
 BYTE   N11  Fs4
 BYTE   W12
//  #05 //040   ----------------------------------------
Label_01840D04:
 BYTE   N32  Cs3  v036
 BYTE   N32  Gs3  v060
 BYTE   N32  Gs4
 BYTE   W36
 BYTE   N11  Cs3  v036
 BYTE   N11  Fs3  v060
 BYTE   N11  Fs4
 BYTE   W12
 BYTE   N32  Cs3  v036
 BYTE   N32  Gs3  v060
 BYTE   N32  Gs4
 BYTE   W36
 BYTE   N11  Cs3  v036
 BYTE   N11  Fs3  v060
 BYTE   N11  Fs4
 BYTE   W12
 BYTE   PEND 
//  #05 //041   ----------------------------------------
Label_01840D29:
 BYTE   N22  Cs3  v036
 BYTE   N22  Gs3  v060
 BYTE   N22  Gs4
 BYTE   W24
 BYTE   N11  Cs3  v036
 BYTE   N11  Fs3  v060
 BYTE   N11  Fs4
 BYTE   W12
 BYTE   N22  Cs3
 BYTE   N22  Cs4
 BYTE   W24
 BYTE   Cs3  v036
 BYTE   N22  Fs3  v060
 BYTE   N22  Fs4
 BYTE   W24
 BYTE   N56  Cs3  v036
 BYTE   N56  Fs3  v060
 BYTE   N32  Fs4
 BYTE   W12
 BYTE   PEND 
//  #05 //042   ----------------------------------------
Label_01840D52:
 BYTE   W72
 BYTE   N11  Fs3  v060
 BYTE   N11  Fs4
 BYTE   W12
 BYTE   N32  Fs3
 BYTE   N32  Fs4
 BYTE   W12
 BYTE   PEND 
//  #05 //043   ----------------------------------------
Label_01840D5F:
 BYTE   W24
 BYTE   N22  As2  v060
 BYTE   N22  As3
 BYTE   W24
 BYTE   Fn3
 BYTE   N22  Fn4
 BYTE   W24
 BYTE   Fs3
 BYTE   N22  Fs4
 BYTE   W24
 BYTE   PEND 
//  #05 //044   ----------------------------------------
 BYTE   N11  Cs4  v012
 BYTE   W12
 BYTE   Fn3
 BYTE   W12
 BYTE   Fs3
 BYTE   W12
 BYTE   Cs4
 BYTE   W12
 BYTE   Fn3
 BYTE   W12
 BYTE   Fs3
 BYTE   W12
 BYTE   Cs4
 BYTE   W12
 BYTE   Fn3
 BYTE   W12
//  #05 //045   ----------------------------------------
 BYTE   Fs3
 BYTE   W12
 BYTE   Cs4
 BYTE   W12
 BYTE   Fn3
 BYTE   W12
 BYTE   Fs3
 BYTE   W12
 BYTE   Cs4
 BYTE   W12
 BYTE   Fn3
 BYTE   W12
 BYTE   Fs3
 BYTE   W12
 BYTE   Cs4
 BYTE   W12
//  #05 //046   ----------------------------------------
Label_01840D91:
 BYTE   N11  Fs3  v036
 BYTE   N11  Fs4
 BYTE   W12
 BYTE   Fs3
 BYTE   N11  Fs4
 BYTE   W12
 BYTE   Fs3
 BYTE   N11  Fs4
 BYTE   W12
 BYTE   Fn3
 BYTE   N11  Fn4
 BYTE   W12
 BYTE   Fn3
 BYTE   N11  Fn4
 BYTE   W12
 BYTE   Fn3
 BYTE   N11  Fn4
 BYTE   W12
 BYTE   N22  Ds3  v092
 BYTE   N11  Fs3  v036
 BYTE   N22  Ds4  v092
 BYTE   N11  Fs4  v036
 BYTE   W12
 BYTE   Fs3
 BYTE   N11  Fs4
 BYTE   W12
 BYTE   PEND 
//  #05 //047   ----------------------------------------
Label_01840DBD:
 BYTE   N22  Cs3  v092
 BYTE   N11  Fs3  v036
 BYTE   N22  Cs4  v092
 BYTE   N11  Fs4  v036
 BYTE   W12
 BYTE   Fs3
 BYTE   N11  Fs4
 BYTE   W12
 BYTE   N12  Fs3  v092
 BYTE   N12  Fs4
 BYTE   W12
 BYTE   N11  Fs3  v036
 BYTE   N11  Fs4
 BYTE   W12
 BYTE   N22  Gs3  v092
 BYTE   N11  Cs4  v036
 BYTE   N22  Gs4  v092
 BYTE   N11  Cs5  v036
 BYTE   W12
 BYTE   Cs4
 BYTE   N11  Cs5
 BYTE   W12
 BYTE   N32  Gs3  v092
 BYTE   N11  Cs4  v036
 BYTE   N32  Gs4  v092
 BYTE   N11  Cs5  v036
 BYTE   W12
 BYTE   Cs4
 BYTE   N11  Cs5
 BYTE   W12
 BYTE   PEND 
//  #05 //048   ----------------------------------------
 BYTE   N12  Fs3
 BYTE   N12  Fs4
 BYTE   W12
 BYTE   N11  Fs3  v092
 BYTE   N11  Fs4
 BYTE   W12
 BYTE   N22  Fs3
 BYTE   N22  Gs3  v036
 BYTE   N22  Fs4  v092
 BYTE   N22  Gs4  v036
 BYTE   W24
 BYTE   As3
 BYTE   N22  As4
 BYTE   W24
 BYTE   N11  Fs3
 BYTE   N11  Fs4
 BYTE   W12
 BYTE   Cs3  v092
 BYTE   N11  Gs3
 BYTE   N11  Cs4
 BYTE   W12
//  #05 //049   ----------------------------------------
 BYTE   N44  Cs3
 BYTE   N44  Gs3
 BYTE   N44  Cs4
 BYTE   W48
 BYTE   Fs3
 BYTE   N44  Cs4
 BYTE   N44  Fs4
 BYTE   W48
//  #05 //050   ----------------------------------------
Label_01840E31:
 BYTE   N22  As3  v092
 BYTE   N22  Cs4
 BYTE   N22  Fs4
 BYTE   N22  As4
 BYTE   W24
 BYTE   N11  Gs3
 BYTE   N11  Cs4
 BYTE   N11  Fn4
 BYTE   N11  Gs4
 BYTE   W12
 BYTE   N22  Gs3
 BYTE   N22  Cs4
 BYTE   N22  Fn4
 BYTE   N22  Gs4
 BYTE   W24
 BYTE   N11  Fs3
 BYTE   N11  Cs4
 BYTE   N11  Ds4
 BYTE   N11  Fs4
 BYTE   W12
 BYTE   N44  Fs3
 BYTE   N44  Cs4
 BYTE   N44  Ds4
 BYTE   N44  Fs4
 BYTE   W24
 BYTE   PEND 
//  #05 //051   ----------------------------------------
Label_01840E60:
 BYTE   W24
 BYTE   N22  Fs3  v092
 BYTE   N22  Bn3
 BYTE   N22  Ds4
 BYTE   N22  Fs4
 BYTE   W24
 BYTE   Cs4
 BYTE   N22  Fs4
 BYTE   N22  As4
 BYTE   N22  Cs5
 BYTE   W24
 BYTE   N32  Gs3
 BYTE   N32  Cs4
 BYTE   N32  Fn4
 BYTE   N32  Gs4
 BYTE   W24
 BYTE   PEND 
//  #05 //052   ----------------------------------------
Label_01840E7D:
 BYTE   W24
 BYTE   N11  Fn2  v092
 BYTE   N11  Gs2
 BYTE   N11  Cs3
 BYTE   W12
 BYTE   Fn2
 BYTE   N11  Gs2
 BYTE   N11  Cs3
 BYTE   W36
 BYTE   N22  Fn3
 BYTE   N22  As3
 BYTE   N22  Cs4
 BYTE   N22  Fn4
 BYTE   W24
 BYTE   PEND 
//  #05 //053   ----------------------------------------
Label_01840E96:
 BYTE   N22  Fs3  v092
 BYTE   N22  As3
 BYTE   N22  Cs4
 BYTE   N22  Fs4
 BYTE   W24
 BYTE   Gs3
 BYTE   N22  Cs4
 BYTE   N22  Fn4
 BYTE   N22  Gs4
 BYTE   W48
 BYTE   N11  Cs3
 BYTE   N11  Fn3
 BYTE   N11  Gs3
 BYTE   N11  Cs4
 BYTE   W12
 BYTE   Cs3
 BYTE   N11  Fn3
 BYTE   N11  Gs3
 BYTE   N11  Cs4
 BYTE   W12
 BYTE   PEND 
//  #05 //054   ----------------------------------------
Label_01840EBA:
 BYTE   N22  As3  v092
 BYTE   N22  Cs4
 BYTE   N22  Fn4
 BYTE   N22  As4
 BYTE   W24
 BYTE   N11  Gs3
 BYTE   N11  Cs4
 BYTE   N11  Fn4
 BYTE   N11  Gs4
 BYTE   W12
 BYTE   N32  Gs3
 BYTE   N32  Cs4
 BYTE   N32  Fn4
 BYTE   N32  Gs4
 BYTE   W36
 BYTE   N11  Gs3
 BYTE   N11  Cs4
 BYTE   N11  Fn4
 BYTE   N11  Gs4
 BYTE   W12
 BYTE   N32  Bn3
 BYTE   N32  Cs4
 BYTE   N32  Fn4
 BYTE   N32  Bn4
 BYTE   W12
 BYTE   PEND 
//  #05 //055   ----------------------------------------
Label_01840EE9:
 BYTE   W24
 BYTE   N22  As3  v092
 BYTE   N22  Cs4
 BYTE   N22  Fn4
 BYTE   N22  As4
 BYTE   W24
 BYTE   Fn3
 BYTE   N22  As3
 BYTE   N22  Cs4
 BYTE   N22  Fn4
 BYTE   W24
 BYTE   N32  Fs3
 BYTE   N32  As3
 BYTE   N32  Cs4
 BYTE   N32  Fs4
 BYTE   W24
 BYTE   PEND 
//  #05 //056   ----------------------------------------
Label_01840F06:
 BYTE   W12
 BYTE   N11  Fs4  v092
 BYTE   N11  Fs5
 BYTE   W12
 BYTE   Fn4
 BYTE   N11  Fn5
 BYTE   W12
 BYTE   Cs4
 BYTE   N11  Cs5
 BYTE   W12
 BYTE   Gs3
 BYTE   N11  Gs4
 BYTE   W12
 BYTE   Fs3
 BYTE   N11  Fs4
 BYTE   W12
 BYTE   N22  Cs3
 BYTE   N22  Cs4
 BYTE   W24
 BYTE   PEND 
//  #05 //057   ----------------------------------------
Label_01840F23:
 BYTE   N17  Gs3  v092
 BYTE   N17  Cs4
 BYTE   N17  Fn4
 BYTE   N17  Gs4
 BYTE   W18
 BYTE   Fs3
 BYTE   N17  As3
 BYTE   N17  Cs4
 BYTE   N17  Fs4
 BYTE   W18
 BYTE   N11  Gs3
 BYTE   N11  Cs4
 BYTE   N11  Fn4
 BYTE   N11  Gs4
 BYTE   W24
 BYTE   N32  As3
 BYTE   N32  Cs4
 BYTE   N32  Fs4
 BYTE   N32  As4
 BYTE   W12
 BYTE   N01  Cn6
 BYTE   W01
 BYTE   Bn5
 BYTE   W02
 BYTE   An5
 BYTE   W01
 BYTE   Gn5
 BYTE   W02
 BYTE   Fn5
 BYTE   W01
 BYTE   En5
 BYTE   W02
 BYTE   Dn5
 BYTE   W01
 BYTE   Cn5
 BYTE   W02
 BYTE   Bn4
 BYTE   W01
 BYTE   An4
 BYTE   W02
 BYTE   Gn4
 BYTE   W01
 BYTE   Fn4
 BYTE   W02
 BYTE   En4
 BYTE   W01
 BYTE   Dn4
 BYTE   W02
 BYTE   Cn4
 BYTE   W01
 BYTE   Bn3
 BYTE   W02
 BYTE   PEND 
//  #05 //058   ----------------------------------------
Label_01840F69:
 BYTE   N22  As3  v092
 BYTE   N22  Cs4
 BYTE   N22  Fs4
 BYTE   N22  As4
 BYTE   W24
 BYTE   N11  Gs3
 BYTE   N11  Cs4
 BYTE   N11  Fn4
 BYTE   N11  Gs4
 BYTE   W12
 BYTE   N22  Gs3
 BYTE   N22  Cs4
 BYTE   N22  Fn4
 BYTE   N22  Gs4
 BYTE   W24
 BYTE   N11  Fs3
 BYTE   N11  As3
 BYTE   N11  Cs4
 BYTE   N11  Fs4
 BYTE   W12
 BYTE   N44  Fs3
 BYTE   N44  As3
 BYTE   N44  Cs4
 BYTE   N44  Fs4
 BYTE   W24
 BYTE   PEND 
//  #05 //059   ----------------------------------------
Label_01840F98:
 BYTE   W24
 BYTE   N22  Fs3  v092
 BYTE   N22  Bn3
 BYTE   N22  Ds4
 BYTE   N22  Fs4
 BYTE   W24
 BYTE   Cs4
 BYTE   N22  Fs4
 BYTE   N22  As4
 BYTE   N22  Cs5
 BYTE   W24
 BYTE   N68  Gs3
 BYTE   N68  Cs4
 BYTE   N68  Fn4
 BYTE   N68  Gs4
 BYTE   W24
 BYTE   PEND 
//  #05 //060   ----------------------------------------
Label_01840FB5:
 BYTE   W72
 BYTE   N22  As3  v092
 BYTE   N22  Cs4
 BYTE   N22  Fn4
 BYTE   N22  As4
 BYTE   W24
 BYTE   PEND 
//  #05 //061   ----------------------------------------
Label_01840FC1:
 BYTE   N22  Gs3  v092
 BYTE   N22  Cs4
 BYTE   N22  Fn4
 BYTE   N22  Gs4
 BYTE   W24
 BYTE   Fs3
 BYTE   N22  Gs3
 BYTE   N22  Cs4
 BYTE   N22  Fs4
 BYTE   W24
 BYTE   Fn3
 BYTE   N22  Gs3
 BYTE   N22  Cs4
 BYTE   N22  Fn4
 BYTE   W24
 BYTE   Fs3
 BYTE   N22  Gs3
 BYTE   N22  Cs4
 BYTE   N22  Fs4
 BYTE   W24
 BYTE   PEND 
//  #05 //062   ----------------------------------------
Label_01840FE4:
 BYTE   N22  Gs3  v092
 BYTE   N22  Cs4
 BYTE   N22  Fn4
 BYTE   N22  Gs4
 BYTE   W24
 BYTE   Cs3
 BYTE   N22  Fn3
 BYTE   N22  As3
 BYTE   N22  Cs4
 BYTE   W48
 BYTE   N11  Cs3
 BYTE   N11  Fn3
 BYTE   N11  As3
 BYTE   N11  Cs4
 BYTE   W12
 BYTE   N32  Bn3
 BYTE   N32  Dn4
 BYTE   N32  Fn4
 BYTE   N32  Bn4
 BYTE   W12
 BYTE   PEND 
//  #05 //063   ----------------------------------------
Label_01841009:
 BYTE   W24
 BYTE   N22  As3  v092
 BYTE   N22  Dn4
 BYTE   N22  Fn4
 BYTE   N22  As4
 BYTE   W24
 BYTE   Gs3
 BYTE   N22  Dn4
 BYTE   N22  Fn4
 BYTE   N22  Gs4
 BYTE   W24
 BYTE   N11  Fs3
 BYTE   N11  As3
 BYTE   N11  Dn4
 BYTE   N11  Fs4
 BYTE   W12
 BYTE   N22  Fn3
 BYTE   N22  As3
 BYTE   N22  Dn4
 BYTE   N22  Fn4
 BYTE   W12
 BYTE   PEND 
//  #05 //064   ----------------------------------------
Label_0184102F:
 BYTE   W12
 BYTE   N11  Fs3  v092
 BYTE   N11  As3
 BYTE   N11  Ds4
 BYTE   N11  Fs4
 BYTE   W12
 BYTE   N22  Fs3
 BYTE   N22  As3
 BYTE   N22  Ds4
 BYTE   N22  Fs4
 BYTE   W48
 BYTE   N11  Gs3
 BYTE   N11  Cs4
 BYTE   N11  Fn4
 BYTE   N11  Gs4
 BYTE   W12
 BYTE   N32  Fs3
 BYTE   N32  As3
 BYTE   N32  Cs4
 BYTE   N32  Fs4
 BYTE   W12
 BYTE   PEND 
//  #05 //065   ----------------------------------------
Label_01841056:
 BYTE   W48
 BYTE   N11  Fs3  v092
 BYTE   N11  Fs4
 BYTE   N11  Fs5
 BYTE   W12
 BYTE   Fn3
 BYTE   N11  Fn4
 BYTE   N11  Fn5
 BYTE   W12
 BYTE   Ds3
 BYTE   N11  Ds4
 BYTE   N11  Ds5
 BYTE   W12
 BYTE   Cs3
 BYTE   N11  Cs4
 BYTE   N11  Cs5
 BYTE   W12
 BYTE   PEND 
//  #05 //066   ----------------------------------------
Label_01841072:
 BYTE   N22  Cs3  v092
 BYTE   N22  Fs3
 BYTE   N22  Cs4
 BYTE   N22  Fs4
 BYTE   N22  Cs5
 BYTE   W24
 BYTE   Fs3
 BYTE   N22  Bn3
 BYTE   N22  Fs4
 BYTE   N22  Bn4
 BYTE   N22  Fs5
 BYTE   W48
 BYTE   As2
 BYTE   N22  Fs3
 BYTE   N22  As3
 BYTE   N22  Fs4
 BYTE   N22  As4
 BYTE   W24
 BYTE   PEND 
//  #05 //067   ----------------------------------------
 BYTE   Bn2
 BYTE   N22  Fs3
 BYTE   N22  Bn3
 BYTE   N22  Fs4
 BYTE   N22  Bn4
 BYTE   W24
 BYTE   Fs3
 BYTE   N22  Bn3
 BYTE   N22  Fs4
 BYTE   N22  Bn4
 BYTE   N22  Fs5
 BYTE   W48
 BYTE   N11  Cs3
 BYTE   N11  As3
 BYTE   N11  Cs4
 BYTE   N11  As4
 BYTE   N11  Cs5
 BYTE   W12
 BYTE   Cs3
 BYTE   N11  As3
 BYTE   N11  Cs4
 BYTE   N11  As4
 BYTE   N11  Cs5
 BYTE   W12
//  #05 //068   ----------------------------------------
Label_018410BC:
 BYTE   N22  Ds3  v092
 BYTE   N22  Bn3
 BYTE   N22  Ds4
 BYTE   N22  Bn4
 BYTE   N22  Ds5
 BYTE   W24
 BYTE   N11  Cs3
 BYTE   N11  Gs3
 BYTE   N11  Cs4
 BYTE   N11  Gs4
 BYTE   N11  Cs5
 BYTE   W12
 BYTE   N22  Ds3
 BYTE   N22  Bn3
 BYTE   N22  Ds4
 BYTE   N22  Bn4
 BYTE   N22  Ds5
 BYTE   W24
 BYTE   Fn3
 BYTE   N22  As3
 BYTE   N22  Fn4
 BYTE   N22  As4
 BYTE   N22  Fn5
 BYTE   W24
 BYTE   Fs3
 BYTE   N22  Bn3
 BYTE   N22  Fs4
 BYTE   N22  Bn4
 BYTE   N22  Fs5
 BYTE   W12
 BYTE   PEND 
//  #05 //069   ----------------------------------------
Label_018410F3:
 BYTE   W12
 BYTE   N22  Fn3  v092
 BYTE   N22  Bn3
 BYTE   N22  Fn4
 BYTE   N22  Bn4
 BYTE   N22  Fn5
 BYTE   W24
 BYTE   N32  Fs3
 BYTE   N32  Bn3
 BYTE   N32  Fs4
 BYTE   N32  Bn4
 BYTE   N32  Fs5
 BYTE   W36
 BYTE   N22  Gs3
 BYTE   N22  Bn3
 BYTE   N22  Gs4
 BYTE   N22  Bn4
 BYTE   N22  Gs5
 BYTE   W24
 BYTE   PEND 
//  #05 //070   ----------------------------------------
Label_01841117:
 BYTE   N22  As3  v092
 BYTE   N22  Ds4
 BYTE   N22  Fs4
 BYTE   N22  As4
 BYTE   N22  Ds5
 BYTE   N22  Fs5
 BYTE   N22  As5
 BYTE   W24
 BYTE   Fs3
 BYTE   N22  Bn3
 BYTE   N22  Ds4
 BYTE   N22  Fs4
 BYTE   N22  Bn4
 BYTE   N22  Ds5
 BYTE   N22  Fs5
 BYTE   W48
 BYTE   Cs4
 BYTE   N22  Fs4
 BYTE   N22  Bn4
 BYTE   N22  Cs5
 BYTE   N22  Fs5
 BYTE   N22  Bn5
 BYTE   N22  Cs6
 BYTE   W24
 BYTE   PEND 
//  #05 //071   ----------------------------------------
Label_01841144:
 BYTE   N22  Gs3  v092
 BYTE   N22  Bn3
 BYTE   N22  Fn4
 BYTE   N22  Gs4
 BYTE   N22  Bn4
 BYTE   N22  Fn5
 BYTE   N22  Gs5
 BYTE   W24
 BYTE   Fs3
 BYTE   N22  As3
 BYTE   N22  Cs4
 BYTE   N22  Fs4
 BYTE   N22  As4
 BYTE   N22  Cs5
 BYTE   N22  Fs5
 BYTE   W48
 BYTE   N11  Gs3
 BYTE   N11  Gs4
 BYTE   N11  Gs5
 BYTE   W12
 BYTE   As3
 BYTE   N11  As4
 BYTE   N11  As5
 BYTE   W12
 BYTE   PEND 
//  #05 //072   ----------------------------------------
Label_01841170:
 BYTE   N22  Bn3  v092
 BYTE   N22  Ds4
 BYTE   N22  Gs4
 BYTE   N22  Bn4
 BYTE   N22  Ds5
 BYTE   N22  Gs5
 BYTE   N22  Bn5
 BYTE   W24
 BYTE   N11  As3
 BYTE   N11  Ds4
 BYTE   N11  Fs4
 BYTE   N11  As4
 BYTE   N11  Ds5
 BYTE   N11  Fs5
 BYTE   N11  As5
 BYTE   W12
 BYTE   N90  Fs3
 BYTE   N90  As3
 BYTE   N90  Cs4
 BYTE   N90  Fs4
 BYTE   N90  As4
 BYTE   N90  Cs5
 BYTE   N90  Fs5
 BYTE   W60
 BYTE   PEND 
//  #05 //073   ----------------------------------------
 BYTE   W36
 BYTE   N11  Fs4
 BYTE   N11  Fs5
 BYTE   W12
 BYTE   N22  Fn4
 BYTE   N22  Fn5
 BYTE   W24
 BYTE   N11  Fs4
 BYTE   N11  Fs5
 BYTE   W12
 BYTE   N12  Fs4
 BYTE   N12  Fs5
 BYTE   W12
//  #05 //074   ----------------------------------------
 BYTE   N11  Fs3
 BYTE   N11  Bn3
 BYTE   N11  Ds4
 BYTE   N72  Fs4
 BYTE   N32  Bn4
 BYTE   N32  Ds5
 BYTE   N90  Fs5
 BYTE   W12
 BYTE   N11  Fs3
 BYTE   N11  Bn3
 BYTE   W12
 BYTE   Fs3
 BYTE   N11  Bn3
 BYTE   W12
 BYTE   Fn3
 BYTE   N11  Bn3
 BYTE   N11  Ds4
 BYTE   N32  Fn4
 BYTE   N32  Bn4
 BYTE   N32  Ds5
 BYTE   N32  Fn5
 BYTE   W12
 BYTE   N11  Fn3
 BYTE   N11  Bn3
 BYTE   W12
 BYTE   Fn3
 BYTE   N11  Bn3
 BYTE   W12
 BYTE   Cs3
 BYTE   N11  Ds3
 BYTE   N11  Fs3
 BYTE   N32  Cs4
 BYTE   N32  Ds4
 BYTE   N32  Fs4
 BYTE   N32  Cs5
 BYTE   W12
 BYTE   N11  Cs3
 BYTE   N11  Ds3
 BYTE   W12
//  #05 //075   ----------------------------------------
 BYTE   PATT
  POIN2 Label_01840A62
//  #05 //076   ----------------------------------------
 BYTE   PATT
  POIN2 Label_01840A9A
//  #05 //077   ----------------------------------------
 BYTE   PATT
  POIN2 Label_01840ADA
//  #05 //078   ----------------------------------------
 BYTE   PATT
  POIN2 Label_01840AFF
//  #05 //079   ----------------------------------------
 BYTE   PATT
  POIN2 Label_01840B40
//  #05 //080   ----------------------------------------
 BYTE   N22  Fn3  v092
 BYTE   N22  As3
 BYTE   N22  Cs4
 BYTE   N24  Fn4
 BYTE   N32  As4
 BYTE   N32  Cs5
 BYTE   N32  Fn5
 BYTE   W24
 BYTE   N11  Fn3
 BYTE   N11  As3
 BYTE   N11  Cs4
 BYTE   N11  Fn4
 BYTE   W12
 BYTE   N56  Fs3
 BYTE   N56  As3
 BYTE   N56  Ds4
 BYTE   N56  Fs4
 BYTE   N56  As4
 BYTE   N56  Ds5
 BYTE   N56  Fs5
 BYTE   W60
//  #05 //081   ----------------------------------------
 BYTE   W96
//  #05 //082   ----------------------------------------
 BYTE   N22  Cs3  v060
 BYTE   TIE  Cs5  v012
 BYTE   TIE  Fs5
 BYTE   W24
 BYTE   N22  Cs3  v060
 BYTE   W24
 BYTE   N22
 BYTE   W24
 BYTE   N11
 BYTE   W12
 BYTE   Ds3
 BYTE   W12
//  #05 //083   ----------------------------------------
 BYTE   N22  Cs3
 BYTE   W06
 BYTE   EOT
 BYTE   Cs5  v090
 BYTE   W06
 BYTE   N11  Cs5  v012
 BYTE   N11  Fs5
 BYTE   W24
 BYTE   Cs5
 BYTE   N11  Fs5
 BYTE   W12
 BYTE   N22  Fs2  v060
 BYTE   N22  As2
 BYTE   N11  Cs5  v012
 BYTE   N11  Fs5
 BYTE   W12
 BYTE   Cs5
 BYTE   N11  Fs5
 BYTE   W12
 BYTE   N22  Gs2  v060
 BYTE   N22  Bn2
 BYTE   N11  Cs5  v012
 BYTE   N11  Fs5
 BYTE   W12
 BYTE   Cs5
 BYTE   N11  Fs5
 BYTE   W12
//  #05 //084   ----------------------------------------
 BYTE   N32  Gs2  v060
 BYTE   N32  Bn2
 BYTE   W36
 BYTE   N11  Fs2
 BYTE   N11  As2
 BYTE   N17  Gs4  v012
 BYTE   W12
 BYTE   N22  As2  v060
 BYTE   N22  Cs3
 BYTE   W06
 BYTE   N05  Gs4  v012
 BYTE   W18
 BYTE   N11
 BYTE   W24
//  #05 //085   ----------------------------------------
 BYTE   W12
 BYTE   N17  Cs5
 BYTE   W18
 BYTE   N05
 BYTE   W18
 BYTE   N11
 BYTE   W24
 BYTE   N22  Bn2  v060
 BYTE   W24
//  #05 //086   ----------------------------------------
 BYTE   Cs3
 BYTE   W12
 BYTE   N17  Cs5  v012
 BYTE   W12
 BYTE   N11  Ds3  v060
 BYTE   W06
 BYTE   N05  Cs5  v012
 BYTE   W06
 BYTE   N22  Cs3  v060
 BYTE   W12
 BYTE   N11  Cs5  v012
 BYTE   W12
 BYTE   Cs3  v060
 BYTE   N11  Fs3
 BYTE   W12
 BYTE   Cs3
 BYTE   N11  Fs3
 BYTE   W12
 BYTE   Cs3
 BYTE   N11  Fs3
 BYTE   N11  Gs4  v012
 BYTE   W12
//  #05 //087   ----------------------------------------
 BYTE   N22  Cs3  v060
 BYTE   N22  Gs3
 BYTE   W06
 BYTE   N11  Gs4  v012
 BYTE   W18
 BYTE   N22  Cs3  v060
 BYTE   N22  Fs3
 BYTE   N11  Gs4  v012
 BYTE   W24
 BYTE   N22  Cs3  v060
 BYTE   N22  Fn3
 BYTE   W24
 BYTE   N11  Cs3
 BYTE   N11  Fs3
 BYTE   W12
 BYTE   N56  Cs3
 BYTE   N24  Fs3
 BYTE   W12
//  #05 //088   ----------------------------------------
 BYTE   W12
 BYTE   N18  Fs3  v012
 BYTE   W18
 BYTE   N14
 BYTE   W18
 BYTE   N11
 BYTE   W36
 BYTE   Cs3
 BYTE   W12
//  #05 //089   ----------------------------------------
 BYTE   W06
 BYTE   Fs3
 BYTE   W18
 BYTE   N11
 BYTE   W24
 BYTE   N11
 BYTE   W12
 BYTE   N11
 BYTE   W12
 BYTE   Fn3
 BYTE   W12
 BYTE   Cs3
 BYTE   W12
//  #05 //090   ----------------------------------------
 BYTE   PATT
  POIN2 Label_01840C71
//  #05 //091   ----------------------------------------
 BYTE   PATT
  POIN2 Label_01840C89
//  #05 //092   ----------------------------------------
 BYTE   PATT
  POIN2 Label_01840C98
//  #05 //093   ----------------------------------------
 BYTE   W72
 BYTE   N11  Fs4  v060
 BYTE   N11  Fs5
 BYTE   W12
 BYTE   N22  Cs5
 BYTE   N22  Cs6
 BYTE   W12
//  #05 //094   ----------------------------------------
 BYTE   W12
 BYTE   Fs4
 BYTE   N22  Fs5
 BYTE   W24
 BYTE   Fs4
 BYTE   N22  Fs5
 BYTE   W24
 BYTE   N11  Gs4
 BYTE   N11  Gs5
 BYTE   W12
 BYTE   As4
 BYTE   N11  As5
 BYTE   W12
 BYTE   N32  Gs4
 BYTE   N32  Gs5
 BYTE   W12
//  #05 //095   ----------------------------------------
 BYTE   W36
 BYTE   N11  Cs4
 BYTE   N11  Cs5
 BYTE   W12
 BYTE   Cs4
 BYTE   N11  Cs5
 BYTE   W12
 BYTE   Cs4
 BYTE   N11  Cs5
 BYTE   W12
 BYTE   Bn4
 BYTE   N11  Bn5
 BYTE   W12
 BYTE   N22  As4
 BYTE   N22  As5
 BYTE   W12
//  #05 //096   ----------------------------------------
 BYTE   W12
 BYTE   N44  Fs4
 BYTE   N44  Fs5
 BYTE   W72
 BYTE   N22  Cs4
 BYTE   N22  Cs5
 BYTE   W12
//  #05 //097   ----------------------------------------
 BYTE   W12
 BYTE   N11  Cs4
 BYTE   N11  Cs5
 BYTE   W12
 BYTE   Cs4
 BYTE   N11  Cs5
 BYTE   W12
 BYTE   Cs4
 BYTE   N11  Cs5
 BYTE   W12
 BYTE   N32  Cs3
 BYTE   N32  Fs3
 BYTE   N32  Cs4
 BYTE   W36
 BYTE   N11  Fs3
 BYTE   N11  Fs4
 BYTE   W12
//  #05 //098   ----------------------------------------
 BYTE   PATT
  POIN2 Label_01840D04
//  #05 //099   ----------------------------------------
 BYTE   PATT
  POIN2 Label_01840D29
//  #05 //100   ----------------------------------------
 BYTE   PATT
  POIN2 Label_01840D52
//  #05 //101   ----------------------------------------
 BYTE   PATT
  POIN2 Label_01840D5F
//  #05 //102   ----------------------------------------
 BYTE   N11  Cs5  v012
 BYTE   W12
 BYTE   Fn4
 BYTE   W12
 BYTE   Fs4
 BYTE   W12
 BYTE   Cs5
 BYTE   W12
 BYTE   Fn4
 BYTE   W12
 BYTE   Fs4
 BYTE   W12
 BYTE   Cs5
 BYTE   W12
 BYTE   Fn4
 BYTE   W12
//  #05 //103   ----------------------------------------
 BYTE   Fs4
 BYTE   W12
 BYTE   Cs5
 BYTE   W12
 BYTE   Fn4
 BYTE   W12
 BYTE   Fs4
 BYTE   W12
 BYTE   Cs5
 BYTE   W12
 BYTE   Fn4
 BYTE   W12
 BYTE   Fs4
 BYTE   W12
 BYTE   Cs5
 BYTE   W12
//  #05 //104   ----------------------------------------
 BYTE   PATT
  POIN2 Label_01840D91
//  #05 //105   ----------------------------------------
 BYTE   PATT
  POIN2 Label_01840DBD
//  #05 //106   ----------------------------------------
 BYTE   N12  Fs3  v036
 BYTE   N12  Fs4
 BYTE   W12
 BYTE   N11  Fs3  v092
 BYTE   N11  Fs4
 BYTE   W12
 BYTE   N22  Fs3
 BYTE   N22  Gs3  v036
 BYTE   N22  Fs4  v092
 BYTE   N22  Gs4  v036
 BYTE   W24
 BYTE   As3
 BYTE   N22  As4
 BYTE   W24
 BYTE   N11  Fs3
 BYTE   N11  Fs4
 BYTE   W12
 BYTE   Fs3  v092
 BYTE   N11  Cs4
 BYTE   N11  Fs4
 BYTE   W12
//  #05 //107   ----------------------------------------
 BYTE   N22  Fs3
 BYTE   N22  Cs4
 BYTE   N22  Fs4
 BYTE   W24
 BYTE   Gs3
 BYTE   N22  Cs4
 BYTE   N22  Fn4
 BYTE   N22  Gs4
 BYTE   W24
 BYTE   N01  Cn6
 BYTE   W01
 BYTE   Bn5
 BYTE   W02
 BYTE   An5
 BYTE   W01
 BYTE   Gn5
 BYTE   W02
 BYTE   Fn5
 BYTE   W01
 BYTE   En5
 BYTE   W02
 BYTE   Dn5
 BYTE   W01
 BYTE   Cn5
 BYTE   W02
 BYTE   Bn4
 BYTE   W01
 BYTE   An4
 BYTE   W02
 BYTE   Gn4
 BYTE   W01
 BYTE   Fn4
 BYTE   W02
 BYTE   En4
 BYTE   W01
 BYTE   Dn4
 BYTE   W02
 BYTE   Cn4
 BYTE   W01
 BYTE   Bn3
 BYTE   W02
 BYTE   An3
 BYTE   W01
 BYTE   Gn3
 BYTE   W02
 BYTE   Fn3
 BYTE   W01
 BYTE   En3
 BYTE   W02
 BYTE   Dn3
 BYTE   W01
 BYTE   Cn3
 BYTE   W02
 BYTE   Bn2
 BYTE   W01
 BYTE   An2
 BYTE   W02
 BYTE   Gn2
 BYTE   W01
 BYTE   Fn2
 BYTE   W02
 BYTE   En2
 BYTE   W01
 BYTE   Dn2
 BYTE   W02
 BYTE   Cn2
 BYTE   W01
 BYTE   Bn1
 BYTE   W02
 BYTE   An1
 BYTE   W01
 BYTE   Gn1
 BYTE   W02
//  #05 //108   ----------------------------------------
 BYTE   PATT
  POIN2 Label_01840E31
//  #05 //109   ----------------------------------------
 BYTE   PATT
  POIN2 Label_01840E60
//  #05 //110   ----------------------------------------
 BYTE   PATT
  POIN2 Label_01840E7D
//  #05 //111   ----------------------------------------
 BYTE   PATT
  POIN2 Label_01840E96
//  #05 //112   ----------------------------------------
 BYTE   PATT
  POIN2 Label_01840EBA
//  #05 //113   ----------------------------------------
 BYTE   PATT
  POIN2 Label_01840EE9
//  #05 //114   ----------------------------------------
 BYTE   PATT
  POIN2 Label_01840F06
//  #05 //115   ----------------------------------------
 BYTE   PATT
  POIN2 Label_01840F23
//  #05 //116   ----------------------------------------
 BYTE   PATT
  POIN2 Label_01840F69
//  #05 //117   ----------------------------------------
 BYTE   PATT
  POIN2 Label_01840F98
//  #05 //118   ----------------------------------------
 BYTE   PATT
  POIN2 Label_01840FB5
//  #05 //119   ----------------------------------------
 BYTE   PATT
  POIN2 Label_01840FC1
//  #05 //120   ----------------------------------------
 BYTE   PATT
  POIN2 Label_01840FE4
//  #05 //121   ----------------------------------------
 BYTE   PATT
  POIN2 Label_01841009
//  #05 //122   ----------------------------------------
 BYTE   PATT
  POIN2 Label_0184102F
//  #05 //123   ----------------------------------------
 BYTE   PATT
  POIN2 Label_01841056
//  #05 //124   ----------------------------------------
 BYTE   PATT
  POIN2 Label_01841072
//  #05 //125   ----------------------------------------
Label_0184147C:
 BYTE   N22  Bn2  v092
 BYTE   N22  Fs3
 BYTE   N22  Bn3
 BYTE   N22  Fs4
 BYTE   N22  Bn4
 BYTE   W24
 BYTE   Fs3
 BYTE   N22  Bn3
 BYTE   N22  Fs4
 BYTE   N22  Bn4
 BYTE   N22  Fs5
 BYTE   W48
 BYTE   Cs3
 BYTE   N22  As3
 BYTE   N22  Cs4
 BYTE   N22  As4
 BYTE   N22  Cs5
 BYTE   W24
 BYTE   PEND 
//  #05 //126   ----------------------------------------
 BYTE   PATT
  POIN2 Label_018410BC
//  #05 //127   ----------------------------------------
 BYTE   PATT
  POIN2 Label_018410F3
//  #05 //128   ----------------------------------------
 BYTE   PATT
  POIN2 Label_01841117
//  #05 //129   ----------------------------------------
 BYTE   PATT
  POIN2 Label_01841144
//  #05 //130   ----------------------------------------
 BYTE   PATT
  POIN2 Label_01841170
//  #05 //131   ----------------------------------------
 BYTE   W36
 BYTE   N11  Cs4  v092
 BYTE   N11  Cs5
 BYTE   W12
 BYTE   N22  Gs4
 BYTE   N22  Gs5
 BYTE   W24
 BYTE   N11  As4
 BYTE   N11  As5
 BYTE   W12
 BYTE   As4
 BYTE   N11  As5
 BYTE   W12
//  #05 //132   ----------------------------------------
 BYTE   Bn2
 BYTE   N11  Ds3
 BYTE   N12  As3
 BYTE   N32  Ds4
 BYTE   N32  Fs4
 BYTE   N32  As4
 BYTE   W12
 BYTE   N11  Bn2
 BYTE   N11  Ds3
 BYTE   N12  As3
 BYTE   W12
 BYTE   N11  Bn2
 BYTE   N11  Ds3
 BYTE   N11  As3
 BYTE   W12
 BYTE   Bn2
 BYTE   N11  Ds3
 BYTE   N12  Gs3
 BYTE   N32  Bn3
 BYTE   N32  Ds4
 BYTE   N32  Gs4
 BYTE   W12
 BYTE   N11  Bn2
 BYTE   N11  Ds3
 BYTE   N12  Gs3
 BYTE   W12
 BYTE   N11  Bn2
 BYTE   N11  Ds3
 BYTE   N11  Gs3
 BYTE   W12
 BYTE   Cs3
 BYTE   N11  Fn3
 BYTE   N12  As3
 BYTE   N32  Cs4
 BYTE   N32  Fn4
 BYTE   N32  As4
 BYTE   W12
 BYTE   N11  Cs3
 BYTE   N11  Fn3
 BYTE   N12  As3
 BYTE   W12
//  #05 //133   ----------------------------------------
 BYTE   N11  Cs3
 BYTE   N11  Fn3
 BYTE   N11  As3
 BYTE   W12
 BYTE   Cs3
 BYTE   N11  Fn3
 BYTE   N12  Gs3
 BYTE   N32  Cs4
 BYTE   N32  Fn4
 BYTE   N32  Gs4
 BYTE   W12
 BYTE   N11  Cs3
 BYTE   N11  Fn3
 BYTE   N12  Gs3
 BYTE   W12
 BYTE   N11  Cs3
 BYTE   N11  Fn3
 BYTE   N11  Gs3
 BYTE   W12
 BYTE   Ds3
 BYTE   N11  Fs3
 BYTE   N12  As3
 BYTE   N22  Ds4
 BYTE   N22  Fs4
 BYTE   N22  As4
 BYTE   W12
 BYTE   N11  Ds3
 BYTE   N11  Fs3
 BYTE   N11  As3
 BYTE   W12
 BYTE   Cs3
 BYTE   N11  Fn3
 BYTE   N12  Bn3
 BYTE   N22  Cs4
 BYTE   N22  Fn4
 BYTE   N22  Bn4
 BYTE   W12
 BYTE   N11  Cs3
 BYTE   N11  Fn3
 BYTE   N11  Bn3
 BYTE   W12
//  #05 //134   ----------------------------------------
 BYTE   Ds3
 BYTE   N11  Fs3
 BYTE   N12  Cs4
 BYTE   N32  Ds4
 BYTE   N32  Fs4
 BYTE   N32  Cs5
 BYTE   W12
 BYTE   N11  Ds3
 BYTE   N11  Fs3
 BYTE   N12  Cs4
 BYTE   W12
 BYTE   N11  Ds3
 BYTE   N11  Fs3
 BYTE   N11  Cs4
 BYTE   W12
 BYTE   Ds3
 BYTE   N11  Fs3
 BYTE   N12  Cs4
 BYTE   N32  Ds4
 BYTE   N32  Fs4
 BYTE   N32  Cs5
 BYTE   W12
 BYTE   N11  Ds3
 BYTE   N11  Fs3
 BYTE   N12  Cs4
 BYTE   W12
 BYTE   N11  Ds3
 BYTE   N11  Fs3
 BYTE   N11  Cs4
 BYTE   W12
 BYTE   Fn3
 BYTE   N11  Gs3
 BYTE   N12  Cs4
 BYTE   N32  Fn4
 BYTE   N32  As4
 BYTE   N32  Cs5
 BYTE   W12
 BYTE   N11  Fn3
 BYTE   N11  Gs3
 BYTE   N12  Cs4
 BYTE   W12
//  #05 //135   ----------------------------------------
 BYTE   N11  Fn3
 BYTE   N11  Gs3
 BYTE   N11  Cs4
 BYTE   W12
 BYTE   Fs3
 BYTE   N11  Cs4
 BYTE   N11  Fs4
 BYTE   N11  Cs5
 BYTE   N11  Fs5
 BYTE   W12
 BYTE   Fs3
 BYTE   N11  Cs4
 BYTE   N11  Fs4
 BYTE   N11  Cs5
 BYTE   N11  Fs5
 BYTE   W12
 BYTE   Fs4
 BYTE   N11  Fs5
 BYTE   W12
 BYTE   N22  Fn4
 BYTE   N22  Fn5
 BYTE   W24
 BYTE   Cs4
 BYTE   N22  Cs5
 BYTE   W24
//  #05 //136   ----------------------------------------
 BYTE   W36
 BYTE   N11  Cs3
 BYTE   N11  Gs3
 BYTE   N11  Cs4
 BYTE   W12
 BYTE   N17  Ds3
 BYTE   N17  Gs3
 BYTE   N17  Ds4
 BYTE   W18
 BYTE   Fn3
 BYTE   N17  Gs3
 BYTE   N17  Fn4
 BYTE   W18
 BYTE   N11  Fs3
 BYTE   N11  Bn3
 BYTE   N11  Fs4
 BYTE   W12
//  #05 //137   ----------------------------------------
 BYTE   N17  Fn3
 BYTE   N17  As3
 BYTE   N17  Fn4
 BYTE   W18
 BYTE   Cs3
 BYTE   N17  As3
 BYTE   N17  Cs4
 BYTE   W18
 BYTE   N11  Cs3
 BYTE   N11  As3
 BYTE   N11  Cs4
 BYTE   W12
 BYTE   N17  Gs3
 BYTE   N17  Cs4
 BYTE   N17  Gs4
 BYTE   W18
 BYTE   Fs3
 BYTE   N17  Cs4
 BYTE   N17  Fs4
 BYTE   W18
 BYTE   N11  Bn3
 BYTE   N11  Fn4
 BYTE   N11  Bn4
 BYTE   W12
//  #05 //138   ----------------------------------------
 BYTE   N12  As3
 BYTE   N12  Cs4
 BYTE   N12  Fs4
 BYTE   N12  As4
 BYTE   W12
 BYTE   As3
 BYTE   N12  Cs4
 BYTE   N12  Fs4
 BYTE   N12  As4
 BYTE   W12
 BYTE   As3
 BYTE   N12  Cs4
 BYTE   N12  Fs4
 BYTE   N12  As4
 BYTE   W12
 BYTE   As3
 BYTE   N12  Cs4
 BYTE   N12  Fs4
 BYTE   N12  As4
 BYTE   W12
 BYTE   As3
 BYTE   N12  Cs4
 BYTE   N12  Fs4
 BYTE   N12  As4
 BYTE   W12
 BYTE   As3
 BYTE   N12  Cs4
 BYTE   N12  Fs4
 BYTE   N12  As4
 BYTE   W12
 BYTE   As3
 BYTE   N12  Cs4
 BYTE   N12  Fs4
 BYTE   N12  As4
 BYTE   W12
 BYTE   N28  As3
 BYTE   N28  Cs4
 BYTE   N28  Fs4
 BYTE   N28  As4
 BYTE   W12
//  #05 //139   ----------------------------------------
 BYTE   N01  Cn7
 BYTE   W01
 BYTE   Bn6
 BYTE   W02
 BYTE   An6
 BYTE   W01
 BYTE   Gn6
 BYTE   W02
 BYTE   Fn6
 BYTE   W01
 BYTE   En6
 BYTE   W02
 BYTE   Dn6
 BYTE   W01
 BYTE   Cn6
 BYTE   W02
 BYTE   Bn5
 BYTE   W01
 BYTE   An5
 BYTE   W02
 BYTE   Gn5
 BYTE   W01
 BYTE   Fn5
 BYTE   W02
 BYTE   En5
 BYTE   W01
 BYTE   Dn5
 BYTE   W02
 BYTE   Cn5
 BYTE   W01
 BYTE   Bn4
 BYTE   W02
 BYTE   An4
 BYTE   W01
 BYTE   Gn4
 BYTE   W02
 BYTE   Fn4
 BYTE   W01
 BYTE   En4
 BYTE   W02
 BYTE   Dn4
 BYTE   W01
 BYTE   Cn4
 BYTE   W05
 BYTE   N11  Fs3  v127
 BYTE   N11  Cs4
 BYTE   N11  Fs4
 BYTE   W12
 BYTE   N23  As3
 BYTE   N23  Fn4
 BYTE   N23  As4
 BYTE   W24
 BYTE   Cs4
 BYTE   N23  Gs4
 BYTE   N23  Cs5
 BYTE   W24
//  #05 //140   ----------------------------------------
 BYTE   N22  As3  v092
 BYTE   N22  Ds4
 BYTE   N22  Fs4
 BYTE   N22  As4
 BYTE   W24
 BYTE   N11  As3
 BYTE   N11  Ds4
 BYTE   N11  Fs4
 BYTE   N11  As4
 BYTE   W12
 BYTE   N22  As3
 BYTE   N22  Ds4
 BYTE   N22  Fs4
 BYTE   N22  As4
 BYTE   W24
 BYTE   N11  As3
 BYTE   N11  Ds4
 BYTE   N11  Fs4
 BYTE   N11  As4
 BYTE   W12
 BYTE   As3
 BYTE   N11  Ds4
 BYTE   N11  Fs4
 BYTE   N11  As4
 BYTE   W12
 BYTE   As3
 BYTE   N11  Ds4
 BYTE   N11  Fs4
 BYTE   N11  As4
 BYTE   W12
//  #05 //141   ----------------------------------------
 BYTE   As3
 BYTE   N11  Cs4
 BYTE   N11  Fn4
 BYTE   N11  As4
 BYTE   W12
 BYTE   As3
 BYTE   N11  Cs4
 BYTE   N11  Fn4
 BYTE   N11  As4
 BYTE   W12
 BYTE   As3
 BYTE   N11  Cs4
 BYTE   N11  Fn4
 BYTE   N11  As4
 BYTE   W12
 BYTE   N22  As3
 BYTE   N22  Cs4
 BYTE   N22  Fn4
 BYTE   N22  As4
 BYTE   W24
 BYTE   N11
 BYTE   N11  As5
 BYTE   W12
 BYTE   Bn4
 BYTE   N11  Bn5
 BYTE   W12
 BYTE   N22  Cs5
 BYTE   N22  Cs6
 BYTE   W12
//  #05 //142   ----------------------------------------
 BYTE   W12
 BYTE   N11  Cs5
 BYTE   N11  Cs6
 BYTE   W12
 BYTE   Bn4
 BYTE   N11  Bn5
 BYTE   W12
 BYTE   N22  As4
 BYTE   N22  As5
 BYTE   W24
 BYTE   N11  As4
 BYTE   N11  As5
 BYTE   W12
 BYTE   Cs5
 BYTE   N11  Cs6
 BYTE   W12
 BYTE   N22  Gs5
 BYTE   N22  Gs6
 BYTE   W12
//  #05 //143   ----------------------------------------
 BYTE   W12
 BYTE   N11  Fs5
 BYTE   N11  Fs6
 BYTE   W12
 BYTE   Fn5
 BYTE   N11  Fn6
 BYTE   W12
 BYTE   Fs5
 BYTE   N11  Fs6
 BYTE   W12
 BYTE   N01  Fn6
 BYTE   W01
 BYTE   En6
 BYTE   W02
 BYTE   Dn6
 BYTE   W01
 BYTE   Cn6
 BYTE   W02
 BYTE   Bn5
 BYTE   W01
 BYTE   An5
 BYTE   W02
 BYTE   Gn5
 BYTE   W01
 BYTE   Fn5
 BYTE   W02
 BYTE   En5
 BYTE   W01
 BYTE   Dn5
 BYTE   W02
 BYTE   Cn5
 BYTE   W01
 BYTE   Bn4
 BYTE   W02
 BYTE   An4
 BYTE   W01
 BYTE   Gn4
 BYTE   W02
 BYTE   Fn4
 BYTE   W01
 BYTE   En4
 BYTE   W02
 BYTE   N22  Fs3
 BYTE   N22  As3
 BYTE   N22  Cs4
 BYTE   N22  Fs4
 BYTE   N22  As4
 BYTE   N22  Cs5
 BYTE   W24
//  #05 //144   ----------------------------------------
 BYTE   N11  Fn3
 BYTE   N11  Gs3
 BYTE   N12  Cs4
 BYTE   N22  Fn4
 BYTE   N22  Gs4
 BYTE   N22  Cs5
 BYTE   W12
 BYTE   N11  Fn3
 BYTE   N11  Gs3
 BYTE   N11  Cs4
 BYTE   W12
 BYTE   Cs3
 BYTE   N11  Fn3
 BYTE   N12  Bn3
 BYTE   N22  Fn4
 BYTE   N22  Gs4
 BYTE   N22  Bn4
 BYTE   W12
 BYTE   N11  Cs3
 BYTE   N11  Fn3
 BYTE   N11  Bn3
 BYTE   W12
 BYTE   Ds3
 BYTE   N11  Fs3
 BYTE   N12  As3
 BYTE   N22  Ds4
 BYTE   N22  Fs4
 BYTE   N22  As4
 BYTE   W12
 BYTE   N11  Ds3
 BYTE   N11  Fs3
 BYTE   N11  As3
 BYTE   W12
 BYTE   Cs3
 BYTE   N11  Fn3
 BYTE   N12  Gs3
 BYTE   N22  Cs4
 BYTE   N22  Fn4
 BYTE   N22  Gs4
 BYTE   W12
 BYTE   N11  Cs3
 BYTE   N11  Fn3
 BYTE   N11  Gs3
 BYTE   W12
//  #05 //145   ----------------------------------------
 BYTE   Bn2
 BYTE   N11  Ds3
 BYTE   N12  Fs3
 BYTE   N22  Bn3
 BYTE   N22  Ds4
 BYTE   N22  Fs4
 BYTE   W12
 BYTE   N11  Bn2
 BYTE   N11  Ds3
 BYTE   N11  Fs3
 BYTE   W12
 BYTE   Cs3
 BYTE   N11  Fn3
 BYTE   N12  Gs3
 BYTE   N22  Cs4
 BYTE   N22  Fn4
 BYTE   N22  Gs4
 BYTE   W12
 BYTE   N11  Cs3
 BYTE   N11  Fn3
 BYTE   N11  Gs3
 BYTE   W12
 BYTE   Bn2
 BYTE   N11  Ds3
 BYTE   N12  As3
 BYTE   N22  Cs4
 BYTE   N22  Fn4
 BYTE   N22  As4
 BYTE   W12
 BYTE   N11  Bn2
 BYTE   N11  Ds3
 BYTE   N11  As3
 BYTE   W12
 BYTE   Fn2
 BYTE   N11  As2
 BYTE   N12  Cs3
 BYTE   N22  Fn3
 BYTE   N22  As3
 BYTE   N22  Cs4
 BYTE   W12
 BYTE   N11  Fn2
 BYTE   N11  As2
 BYTE   N11  Cs3
 BYTE   W12
//  #05 //146   ----------------------------------------
 BYTE   N32  Ds3
 BYTE   N32  Ds4
 BYTE   W15
 BYTE   N02  Cs3
 BYTE   W03
 BYTE   As2
 BYTE   W03
 BYTE   Gs2
 BYTE   W03
 BYTE   Fs2
 BYTE   W03
 BYTE   N02
 BYTE   W03
 BYTE   Ds2
 BYTE   W03
 BYTE   Cs2
 BYTE   W24
 BYTE   W03
 BYTE   N32  Fs3
 BYTE   N32  Fs4
 BYTE   W15
 BYTE   N02  Ds3
 BYTE   W03
 BYTE   Cs3
 BYTE   W03
 BYTE   As2
 BYTE   W03
 BYTE   Gs2
 BYTE   W03
 BYTE   Fs2
 BYTE   W03
 BYTE   Ds2
 BYTE   W03
 BYTE   Cs2
 BYTE   W03
//  #05 //147   ----------------------------------------
 BYTE   W12
 BYTE   N32  As3
 BYTE   N32  As4
 BYTE   W15
 BYTE   N02  Gs3
 BYTE   W03
 BYTE   Fs3
 BYTE   W03
 BYTE   Ds3
 BYTE   W03
 BYTE   Cs3
 BYTE   W03
 BYTE   As2
 BYTE   W03
 BYTE   Gs2
 BYTE   W03
 BYTE   Fs2
 BYTE   W24
 BYTE   W03
 BYTE   N22  Fn2
 BYTE   N22  Gs2
 BYTE   N22  Cs3
 BYTE   N22  Fn3
 BYTE   N22  Gs3
 BYTE   N22  Cs4
 BYTE   W24
//  #05 //148   ----------------------------------------
Label_01841831:
 BYTE   N11  As2  v092
 BYTE   N11  Cs3
 BYTE   N12  Fs3
 BYTE   N22  As3
 BYTE   N22  Cs4
 BYTE   N22  Fs4
 BYTE   W12
 BYTE   N11  As2
 BYTE   N11  Cs3
 BYTE   N11  Fs3
 BYTE   W12
 BYTE   Cs3
 BYTE   N11  Fs3
 BYTE   N12  As3
 BYTE   N22  Cs4
 BYTE   N22  Fs4
 BYTE   N22  As4
 BYTE   W12
 BYTE   N11  Cs3
 BYTE   N11  Fs3
 BYTE   N11  As3
 BYTE   W12
 BYTE   As2
 BYTE   N11  Cs3
 BYTE   N12  Gs3
 BYTE   N22  Cs4
 BYTE   N22  Fn4
 BYTE   N22  Gs4
 BYTE   W12
 BYTE   N11  As2
 BYTE   N11  Cs3
 BYTE   N11  Gs3
 BYTE   W12
 BYTE   Cs3
 BYTE   N11  Fs3
 BYTE   N12  As3
 BYTE   N22  Cs4
 BYTE   N22  Fs4
 BYTE   N22  As4
 BYTE   W12
 BYTE   N11  Cs3
 BYTE   N11  Fs3
 BYTE   N11  As3
 BYTE   W12
 BYTE   PEND 
//  #05 //149   ----------------------------------------
 BYTE   PATT
  POIN2 Label_01841831
//  #05 //150   ----------------------------------------
 BYTE   N90  Cs3  v092
 BYTE   N90  Fn3
 BYTE   TIE  Gs3
 BYTE   N96  Cs4
 BYTE   TIE  Fn4
 BYTE   TIE  Gs4
 BYTE   W96
//  #05 //151   ----------------------------------------
 BYTE   N36  Cs4  v012
 BYTE   W36
 BYTE   N36
 BYTE   W36
 BYTE   N22
 BYTE   W14
 BYTE   EOT
 BYTE   Gs3  v077
 BYTE   Gs4
 BYTE   W10
//  #05 //152   ----------------------------------------
 BYTE   W48
 BYTE   N22  Fn3  v036
 BYTE   W24
 BYTE   N11  Fs3
 BYTE   W12
 BYTE   N22  Fn3
 BYTE   W12
//  #05 //153   ----------------------------------------
 BYTE   W12
 BYTE   N11  Cs3
 BYTE   W12
 BYTE   N22
 BYTE   W48
 BYTE   N11  As2
 BYTE   W12
 BYTE   Bn2
 BYTE   W12
//  #05 //154   ----------------------------------------
 BYTE   N22  Cs3
 BYTE   W24
 BYTE   N11  Ds3
 BYTE   W12
 BYTE   N22  Cs3
 BYTE   W24
 BYTE   N11  Fs2
 BYTE   W12
 BYTE   N44
 BYTE   W24
//  #05 //155   ----------------------------------------
 BYTE   W48
 BYTE   N22  Bn2
 BYTE   W24
 BYTE   As2
 BYTE   W24
//  #05 //156   ----------------------------------------
 BYTE   W36
 BYTE   N11
 BYTE   W12
 BYTE   N22  Cs3
 BYTE   W24
 BYTE   N11
 BYTE   W12
 BYTE   N32  Gs3
 BYTE   W12
//  #05 //157   ----------------------------------------
 BYTE   W24
 BYTE   N11  Fs3
 BYTE   W12
 BYTE   N32  Fn3
 BYTE   W36
 BYTE   N11  Fs3
 BYTE   W12
 BYTE   N78  Fn3
 BYTE   W12
//  #05 //158   ----------------------------------------
 BYTE   W72
 BYTE   N11  Ds3
 BYTE   W12
 BYTE   N56  Fs3
 BYTE   W12
//  #05 //159   ----------------------------------------
 BYTE   W48
 BYTE   N32  As2  v060
 BYTE   N09  Fn3
 BYTE   N32  As3
 BYTE   N32  Fn4
 BYTE   W04
 BYTE   N30  Cs3
 BYTE   W05
 BYTE   N24  Fn3
 BYTE   W24
 BYTE   W03
 BYTE   N11  As2
 BYTE   N11  As3
 BYTE   W12
//  #05 //160   ----------------------------------------
 BYTE   N17  Fn3
 BYTE   N17  Fn4
 BYTE   W18
 BYTE   Fs3
 BYTE   N17  Fs4
 BYTE   W18
 BYTE   N11  As2
 BYTE   N11  As3
 BYTE   W12
 BYTE   N17  Fn3
 BYTE   N17  Fn4
 BYTE   W18
 BYTE   Fs3
 BYTE   N17  Fs4
 BYTE   W18
 BYTE   N11  Fs3
 BYTE   N11  Fs4
 BYTE   W12
//  #05 //161   ----------------------------------------
 BYTE   N17  Gs3
 BYTE   N17  Gs4
 BYTE   W18
 BYTE   Fs3
 BYTE   N17  Fs4
 BYTE   W18
 BYTE   N11  Fs3
 BYTE   N11  Fs4
 BYTE   W12
 BYTE   N17  Fn3
 BYTE   N17  Fn4
 BYTE   W18
 BYTE   Fs3
 BYTE   N17  Fs4
 BYTE   W18
 BYTE   N11  Cs3
 BYTE   N11  Cs4
 BYTE   W12
//  #05 //162   ----------------------------------------
 BYTE   N22  Bn3
 BYTE   N22  Bn4
 BYTE   W24
 BYTE   N11  As3
 BYTE   N11  As4
 BYTE   W12
 BYTE   N32  As3
 BYTE   N32  As4
 BYTE   W36
 BYTE   N11  Fs3
 BYTE   N11  Fs4
 BYTE   W12
 BYTE   Fs3
 BYTE   N11  Fs4
 BYTE   W12
//  #05 //163   ----------------------------------------
 BYTE   N22  Cs4
 BYTE   N22  Cs5
 BYTE   W24
 BYTE   Bn3
 BYTE   N22  Bn4
 BYTE   W24
 BYTE   N17  An3
 BYTE   N17  An4
 BYTE   W18
 BYTE   Gs3
 BYTE   N17  Gs4
 BYTE   W18
 BYTE   N36  Fs3
 BYTE   N36  Fs4
 BYTE   W12
//  #05 //164   ----------------------------------------
 BYTE   N11  Cs4
 BYTE   N11  Cs5
 BYTE   W12
 BYTE   Fn3
 BYTE   N11  Fn4
 BYTE   W12
 BYTE   N36  Fs3
 BYTE   N36  Fs4
 BYTE   W12
 BYTE   N11  Cs4
 BYTE   N11  Cs5
 BYTE   W12
 BYTE   Fn3
 BYTE   N11  Fn4
 BYTE   W12
 BYTE   N30  Fs3
 BYTE   N30  Fs4
 BYTE   W12
 BYTE   N11  Cs4
 BYTE   N11  Cs5
 BYTE   W12
 BYTE   Fn3
 BYTE   N11  Fn4
 BYTE   W12
//  #05 //165   ----------------------------------------
 BYTE   Fs3
 BYTE   N11  Fs4
 BYTE   W12
 BYTE   Cs4
 BYTE   N11  Cs5
 BYTE   W12
 BYTE   Fn3
 BYTE   N11  Fn4
 BYTE   W12
 BYTE   Cs4
 BYTE   N11  Gs4
 BYTE   N11  Cs5
 BYTE   W12
 BYTE   Cs4
 BYTE   N11  Gs4
 BYTE   N11  Cs5
 BYTE   W12
 BYTE   Bn3
 BYTE   N11  Gs4
 BYTE   N11  Bn4
 BYTE   W12
 BYTE   As3
 BYTE   N11  Gs4
 BYTE   N11  As4
 BYTE   W12
 BYTE   N22  Bn3
 BYTE   N22  Gs4
 BYTE   N22  Bn4
 BYTE   W12
//  #05 //166   ----------------------------------------
 BYTE   W12
 BYTE   N11  Fs4
 BYTE   N11  Bn4
 BYTE   N11  Ds5
 BYTE   N11  Fs5
 BYTE   W12
 BYTE   N22  Fs4
 BYTE   N22  Bn4
 BYTE   N22  Ds5
 BYTE   N22  Fs5
 BYTE   W60
 BYTE   N11  Fs3
 BYTE   N11  Fs4
 BYTE   W12
//  #05 //167   ----------------------------------------
 BYTE   N22  As3
 BYTE   N22  As4
 BYTE   W24
 BYTE   Gs3
 BYTE   N22  Gs4
 BYTE   W24
 BYTE   N11  Fs3
 BYTE   N11  Fs4
 BYTE   W12
 BYTE   Fs3
 BYTE   N11  Fs4
 BYTE   W12
 BYTE   N32  Fs3
 BYTE   N32  Ds4
 BYTE   N32  Fs4
 BYTE   W24
//  #05 //168   ----------------------------------------
 BYTE   W12
 BYTE   N11  Gs3
 BYTE   N11  Fn4
 BYTE   N11  Gs4
 BYTE   W12
 BYTE   TIE  Gs3
 BYTE   TIE  Fn4
 BYTE   TIE  Gs4
 BYTE   W72
//  #05 //169   ----------------------------------------
 BYTE   W40
 BYTE   W01
 BYTE   EOT
 BYTE   Gs3  v077
 BYTE   Gs4
 BYTE   W42
 BYTE   W01
 BYTE   N11  Fs4  v092
 BYTE   N11  Fs5
 BYTE   W12
//  #05 //170   ----------------------------------------
 BYTE   N32  Cs5
 BYTE   N32  Cs6
 BYTE   W36
 BYTE   N11  Bn4
 BYTE   N11  Bn5
 BYTE   W12
 BYTE   N32  Bn4
 BYTE   N32  Bn5
 BYTE   W36
 BYTE   N11  As4
 BYTE   N11  As5
 BYTE   W12
//  #05 //171   ----------------------------------------
 BYTE   N22  As4
 BYTE   N22  As5
 BYTE   W24
 BYTE   Gs4
 BYTE   N22  Gs5
 BYTE   W24
 BYTE   Bn4
 BYTE   N22  Bn5
 BYTE   W24
 BYTE   As4
 BYTE   N22  As5
 BYTE   W24
//  #05 //172   ----------------------------------------
 BYTE   W96
//  #05 //173   ----------------------------------------
 BYTE   W96
//  #05 //174   ----------------------------------------
 BYTE   As3
 BYTE   N22  As4
 BYTE   W24
 BYTE   N11  Gs3
 BYTE   N11  Gs4
 BYTE   W12
 BYTE   N22  Gs3
 BYTE   N22  Gs4
 BYTE   W24
 BYTE   N11  Fs3
 BYTE   N11  Fs4
 BYTE   W12
 BYTE   N44  Fs3
 BYTE   N44  Fs4
 BYTE   W24
//  #05 //175   ----------------------------------------
 BYTE   W24
 BYTE   N22  Fs3
 BYTE   N22  Fs4
 BYTE   W24
 BYTE   Cs4
 BYTE   N22  Fs4
 BYTE   N22  As4
 BYTE   N22  Cs5
 BYTE   W24
 BYTE   N32  Gs3
 BYTE   N32  Cs4
 BYTE   N32  Fn4
 BYTE   N32  Gs4
 BYTE   W24
//  #05 //176   ----------------------------------------
 BYTE   PATT
  POIN2 Label_01840E7D
//  #05 //177   ----------------------------------------
 BYTE   PATT
  POIN2 Label_01840E96
//  #05 //178   ----------------------------------------
 BYTE   PATT
  POIN2 Label_01840EBA
//  #05 //179   ----------------------------------------
 BYTE   PATT
  POIN2 Label_01840EE9
//  #05 //180   ----------------------------------------
 BYTE   PATT
  POIN2 Label_01840F06
//  #05 //181   ----------------------------------------
 BYTE   PATT
  POIN2 Label_01840F23
//  #05 //182   ----------------------------------------
 BYTE   PATT
  POIN2 Label_01840F69
//  #05 //183   ----------------------------------------
 BYTE   PATT
  POIN2 Label_01840F98
//  #05 //184   ----------------------------------------
 BYTE   PATT
  POIN2 Label_01840FB5
//  #05 //185   ----------------------------------------
 BYTE   PATT
  POIN2 Label_01840FC1
//  #05 //186   ----------------------------------------
 BYTE   PATT
  POIN2 Label_01840FE4
//  #05 //187   ----------------------------------------
 BYTE   PATT
  POIN2 Label_01841009
//  #05 //188   ----------------------------------------
 BYTE   PATT
  POIN2 Label_0184102F
//  #05 //189   ----------------------------------------
 BYTE   PATT
  POIN2 Label_01841056
//  #05 //190   ----------------------------------------
 BYTE   PATT
  POIN2 Label_01841072
//  #05 //191   ----------------------------------------
 BYTE   PATT
  POIN2 Label_0184147C
//  #05 //192   ----------------------------------------
 BYTE   PATT
  POIN2 Label_018410BC
//  #05 //193   ----------------------------------------
 BYTE   PATT
  POIN2 Label_018410F3
//  #05 //194   ----------------------------------------
 BYTE   PATT
  POIN2 Label_01841117
//  #05 //195   ----------------------------------------
 BYTE   PATT
  POIN2 Label_01841144
//  #05 //196   ----------------------------------------
 BYTE   PATT
  POIN2 Label_01841170
//  #05 //197   ----------------------------------------
 BYTE   W36
 BYTE   N11  Cs4  v127
 BYTE   N11  Cs5
 BYTE   W12
 BYTE   N32  Bn4
 BYTE   N32  Bn5
 BYTE   W36
 BYTE   TIE  As4
 BYTE   TIE  As5
 BYTE   W12
//  #05 //198   ----------------------------------------
 BYTE   N11  Fs3  v092
 BYTE   N11  Bn3
 BYTE   N11  Ds4
 BYTE   N32  Fs4
 BYTE   N32  Bn4
 BYTE   N32  Ds5
 BYTE   N32  Fs5
 BYTE   W12
 BYTE   N11  Fs3
 BYTE   N11  Bn3
 BYTE   W12
 BYTE   Fs3
 BYTE   N11  Bn3
 BYTE   W12
 BYTE   Fn3
 BYTE   N11  Bn3
 BYTE   N11  Ds4
 BYTE   N32  Fn4
 BYTE   N32  Bn4
 BYTE   N32  Ds5
 BYTE   N32  Fn5
 BYTE   W12
 BYTE   N11  Fn3
 BYTE   N11  Bn3
 BYTE   W12
 BYTE   Fn3
 BYTE   N11  Bn3
 BYTE   W12
 BYTE   Cs3
 BYTE   N11  Ds3
 BYTE   N11  Fs3
 BYTE   N32  Cs4
 BYTE   N32  Ds4
 BYTE   N32  Fs4
 BYTE   N32  Cs5
 BYTE   W12
 BYTE   N11  Cs3
 BYTE   N11  Ds3
 BYTE   W07
 BYTE   EOT
 BYTE   As4  v094
 BYTE   W05
//  #05 //199   ----------------------------------------
 BYTE   PATT
  POIN2 Label_01840A62
//  #05 //200   ----------------------------------------
 BYTE   PATT
  POIN2 Label_01840A9A
//  #05 //201   ----------------------------------------
 BYTE   N11  Cs3  v092
 BYTE   N11  Fs3
 BYTE   W12
 BYTE   Cs3
 BYTE   N11  Fs3
 BYTE   W12
 BYTE   Cs3
 BYTE   N11  Fs3
 BYTE   W12
 BYTE   N22  Gs3
 BYTE   N22  Cs4
 BYTE   N22  Fn4
 BYTE   N22  Gs4
 BYTE   W24
 BYTE   N32  Fs3
 BYTE   N32  Gs3
 BYTE   N32  Cs4
 BYTE   N32  Fs4
 BYTE   W36
//  #05 //202   ----------------------------------------
 BYTE   N22  As3
 BYTE   N22  Cs4
 BYTE   N22  Fn4
 BYTE   N22  As4
 BYTE   N22  Cs5
 BYTE   N22  Fn5
 BYTE   N22  As5
 BYTE   W24
 BYTE   N11  As3
 BYTE   N11  Cs4
 BYTE   N11  Fn4
 BYTE   N11  As4
 BYTE   N11  Cs5
 BYTE   N11  Fn5
 BYTE   N11  As5
 BYTE   W12
 BYTE   N22  Gs3
 BYTE   N22  Cs4
 BYTE   N22  Fn4
 BYTE   N22  Gs4
 BYTE   N22  Cs5
 BYTE   N22  Fn5
 BYTE   N22  Gs5
 BYTE   W24
 BYTE   N11  Gs3
 BYTE   N11  Cs4
 BYTE   N11  Fn4
 BYTE   N11  Gs4
 BYTE   N11  Cs5
 BYTE   N11  Fn5
 BYTE   N11  Gs5
 BYTE   W12
 BYTE   N22  Cs4
 BYTE   N22  Fn4
 BYTE   N22  As4
 BYTE   N22  Cs5
 BYTE   N22  Fn5
 BYTE   N22  As5
 BYTE   N22  Cs6
 BYTE   W24
//  #05 //203   ----------------------------------------
 BYTE   N11  Cs4
 BYTE   N11  Fn4
 BYTE   N11  As4
 BYTE   N11  Cs5
 BYTE   N11  Fn5
 BYTE   N11  As5
 BYTE   N11  Cs6
 BYTE   W12
 BYTE   N22  Fs3
 BYTE   N22  As3
 BYTE   N22  Cs4
 BYTE   N22  Fs4
 BYTE   N22  As4
 BYTE   N22  Cs5
 BYTE   N22  Fs5
 BYTE   W24
 BYTE   N11  Fs3
 BYTE   N11  As3
 BYTE   N11  Cs4
 BYTE   N11  Fs4
 BYTE   N11  As4
 BYTE   N11  Cs5
 BYTE   N11  Fs5
 BYTE   W12
 BYTE   N22  Fn3
 BYTE   N22  Gs3
 BYTE   N22  Cs4
 BYTE   N22  Fn4
 BYTE   N22  Gs4
 BYTE   N22  Cs5
 BYTE   N22  Fn5
 BYTE   W24
 BYTE   Gs3
 BYTE   N22  Cs4
 BYTE   N22  Fn4
 BYTE   N22  Gs4
 BYTE   N22  Cs5
 BYTE   N22  Fn5
 BYTE   N22  Gs5
 BYTE   W24
//  #05 //204   ----------------------------------------
 BYTE   N44  Fs3
 BYTE   N44  As3
 BYTE   N44  Cs4
 BYTE   N44  Fs4
 BYTE   N44  As4
 BYTE   N44  Cs5
 BYTE   N44  Fs5
 BYTE   W72
 BYTE   N22  Cs3
 BYTE   N22  Fs3
 BYTE   N22  As3
 BYTE   N22  Cs4
 BYTE   N22  Fs4
 BYTE   N22  As4
 BYTE   N22  Cs5
 BYTE   W24
//  #05 //205   ----------------------------------------
 BYTE   N44  As3
 BYTE   N44  Ds4
 BYTE   N44  Fs4
 BYTE   N44  As4
 BYTE   N44  Ds5
 BYTE   N44  Fs5
 BYTE   N44  As5
 BYTE   W48
 BYTE   Gs3
 BYTE   N44  Cs4
 BYTE   N44  Fn4
 BYTE   N44  Gs4
 BYTE   N44  Cs5
 BYTE   N44  Fn5
 BYTE   N44  Gs5
 BYTE   W48
//  #05 //206   ----------------------------------------
 BYTE   W24
 BYTE   TIE  Fn5  v024
 BYTE   W01
 BYTE   N01  Cs5  v092
 BYTE   W02
 BYTE   N32  Cs5  v024
 BYTE   W32
 BYTE   W01
 BYTE   TIE
 BYTE   W36
//  #05 //207   ----------------------------------------
 BYTE   N11  Gs4
 BYTE   W36
 BYTE   Fs4
 BYTE   W36
 BYTE   Fn4
 BYTE   W24
//  #05 //208   ----------------------------------------
 BYTE   Cs4
 BYTE   W17
 BYTE   EOT
 BYTE   Cs5  v089
 BYTE   W07
 BYTE   N11  Gs3
 BYTE   W36
 BYTE   Fs3
 BYTE   W36
//  #05 //209   ----------------------------------------
 BYTE   Fn3
 BYTE   W36
 BYTE   Cs3
 BYTE   W36
 BYTE   Gs2
 BYTE   W24
//  #05 //210   ----------------------------------------
 BYTE   TIE  Fs2
 BYTE   W96
//  #05 //211   ----------------------------------------
 BYTE   W96
//  #05 //212   ----------------------------------------
 BYTE   W96
//  #05 //213   ----------------------------------------
 BYTE   W76
 BYTE   EOT
 BYTE   FINE

//**************** Track 6 (Midi-Chn.5) ****************//

song38_006:
//  #06 //000   ----------------------------------------
 BYTE   KEYSH   song38_key+0
 BYTE   VOICE   101
 BYTE   MODT 0
 BYTE   LFOS 44
 BYTE   VOL   56*song38_mvl/mxv
 BYTE   MODT 0
 BYTE   LFOS 44
 BYTE   PAN   c_v+0
 BYTE   W96
//  #06 //001   ----------------------------------------
 BYTE   W96
//  #06 //002   ----------------------------------------
 BYTE   W96
//  #06 //003   ----------------------------------------
 BYTE   W96
//  #06 //004   ----------------------------------------
 BYTE   W96
//  #06 //005   ----------------------------------------
 BYTE   W96
//  #06 //006   ----------------------------------------
 BYTE   W96
//  #06 //007   ----------------------------------------
 BYTE   W96
//  #06 //008   ----------------------------------------
 BYTE   W96
//  #06 //009   ----------------------------------------
 BYTE   W96
//  #06 //010   ----------------------------------------
 BYTE   W96
//  #06 //011   ----------------------------------------
 BYTE   W96
//  #06 //012   ----------------------------------------
 BYTE   W96
//  #06 //013   ----------------------------------------
 BYTE   W96
//  #06 //014   ----------------------------------------
 BYTE   W72
 BYTE   N11  Fs3  v036
 BYTE   W24
//  #06 //015   ----------------------------------------
 BYTE   W12
 BYTE   Gs3
 BYTE   W24
 BYTE   Cs4  v092
 BYTE   W12
 BYTE   N11
 BYTE   W12
 BYTE   N11
 BYTE   W12
 BYTE   N23
 BYTE   W24
//  #06 //016   ----------------------------------------
Label_01841C77:
 BYTE   N11  Bn1  v036
 BYTE   N11  Fs2
 BYTE   N11  Bn2
 BYTE   N23  Fs4  v092
 BYTE   W12
 BYTE   N11  Bn1  v036
 BYTE   N11  Fs2
 BYTE   N11  Bn2
 BYTE   W12
 BYTE   Bn1
 BYTE   N11  Fs2
 BYTE   N11  Bn2
 BYTE   N11  Fs4  v092
 BYTE   W12
 BYTE   Bn1  v036
 BYTE   N11  Fs2
 BYTE   N11  Bn2
 BYTE   N23  Fn4  v092
 BYTE   W12
 BYTE   N11  Bn1  v036
 BYTE   N11  Fs2
 BYTE   N11  Bn2
 BYTE   W12
 BYTE   Bn1
 BYTE   N11  Fs2
 BYTE   N11  Bn2
 BYTE   N11  Fn4  v092
 BYTE   W12
 BYTE   Bn1  v036
 BYTE   N11  Fs2
 BYTE   N11  Bn2
 BYTE   N23  Cs4  v092
 BYTE   W12
 BYTE   N11  Bn1  v036
 BYTE   N11  Fs2
 BYTE   N11  Bn2
 BYTE   W12
 BYTE   PEND 
//  #06 //017   ----------------------------------------
 BYTE   Bn1
 BYTE   N11  Fs2
 BYTE   N11  Bn2
 BYTE   N11  Cs4  v092
 BYTE   W12
 BYTE   Bn1  v036
 BYTE   N11  Fs2
 BYTE   N11  Bn2
 BYTE   N23  Gs3  v092
 BYTE   W12
 BYTE   N11  Bn1  v036
 BYTE   N11  Fs2
 BYTE   N11  Bn2
 BYTE   W12
 BYTE   Bn1
 BYTE   N11  Fs2
 BYTE   N11  Bn2
 BYTE   N11  Gs3  v092
 BYTE   W12
 BYTE   Bn1  v036
 BYTE   N11  Fs2
 BYTE   N11  Bn2
 BYTE   N23  Fs3  v092
 BYTE   W12
 BYTE   N11  Bn1  v036
 BYTE   N11  Fs2
 BYTE   N11  Bn2
 BYTE   W12
 BYTE   Bn1
 BYTE   N11  Fs2
 BYTE   N11  Bn2
 BYTE   N23  Gs3  v092
 BYTE   W12
 BYTE   N11  Bn1  v036
 BYTE   N11  Fs2
 BYTE   N11  Bn2
 BYTE   W12
//  #06 //018   ----------------------------------------
Label_01841D08:
 BYTE   N11  Cs2  v036
 BYTE   N11  Gs2
 BYTE   N11  Cs3
 BYTE   N23  Fn3  v092
 BYTE   W12
 BYTE   N11  Cs2  v036
 BYTE   N11  Gs2
 BYTE   N11  Cs3
 BYTE   W12
 BYTE   Cs2
 BYTE   N11  Gs2
 BYTE   N11  Cs3
 BYTE   N11  Fn3  v092
 BYTE   W12
 BYTE   Cs2  v036
 BYTE   N11  Gs2
 BYTE   N11  Cs3
 BYTE   N23  Fs3  v092
 BYTE   W12
 BYTE   N11  Cs2  v036
 BYTE   N11  Gs2
 BYTE   N11  Cs3
 BYTE   W12
 BYTE   Cs2
 BYTE   N11  Gs2
 BYTE   N11  Cs3
 BYTE   N11  Fs3  v092
 BYTE   W12
 BYTE   Cs2  v036
 BYTE   N11  Gs2
 BYTE   N11  Cs3
 BYTE   N56  Cs4  v092
 BYTE   W12
 BYTE   N11  Cs2  v036
 BYTE   N11  Gs2
 BYTE   N11  Cs3
 BYTE   W12
 BYTE   PEND 
//  #06 //019   ----------------------------------------
Label_01841D52:
 BYTE   N11  Cs2  v036
 BYTE   N11  Gs2
 BYTE   N11  Cs3
 BYTE   W12
 BYTE   Cs2
 BYTE   N11  Gs2
 BYTE   N11  Cs3
 BYTE   W12
 BYTE   Cs2
 BYTE   N11  Gs2
 BYTE   N11  Cs3
 BYTE   W12
 BYTE   Cs2
 BYTE   N11  Gs2
 BYTE   N11  Cs3
 BYTE   N23  As3  v092
 BYTE   W12
 BYTE   N11  Cs2  v036
 BYTE   N11  Gs2
 BYTE   N11  Cs3
 BYTE   W12
 BYTE   Cs2
 BYTE   N11  Gs2
 BYTE   N11  Cs3
 BYTE   N11  Bn3  v092
 BYTE   W12
 BYTE   Cs2  v036
 BYTE   N11  Gs2
 BYTE   N11  Cs3
 BYTE   N11  Cs4  v092
 BYTE   W12
 BYTE   Cs2  v036
 BYTE   N11  Gs2
 BYTE   N11  Cs3
 BYTE   N11  As3  v092
 BYTE   W12
 BYTE   PEND 
//  #06 //020   ----------------------------------------
Label_01841D95:
 BYTE   N11  As1  v036
 BYTE   N11  Fn2
 BYTE   N11  As2
 BYTE   N23  Gs4  v092
 BYTE   W12
 BYTE   N11  As1  v036
 BYTE   N11  Fn2
 BYTE   N11  As2
 BYTE   W12
 BYTE   As1
 BYTE   N11  Fn2
 BYTE   N11  As2
 BYTE   N11  Gs4  v092
 BYTE   W12
 BYTE   As1  v036
 BYTE   N11  Fn2
 BYTE   N11  As2
 BYTE   N23  Fn4  v092
 BYTE   W12
 BYTE   N11  As1  v036
 BYTE   N11  Fn2
 BYTE   N11  As2
 BYTE   W12
 BYTE   As1
 BYTE   N11  Fn2
 BYTE   N11  As2
 BYTE   N11  Fn4  v092
 BYTE   W12
 BYTE   As1  v036
 BYTE   N11  Fn2
 BYTE   N11  As2
 BYTE   N23  Cs4  v092
 BYTE   W12
 BYTE   N11  As1  v036
 BYTE   N11  Fn2
 BYTE   N11  As2
 BYTE   W12
 BYTE   PEND 
//  #06 //021   ----------------------------------------
Label_01841DDF:
 BYTE   N11  As1  v036
 BYTE   N11  Fn2
 BYTE   N11  As2
 BYTE   N11  Cs4  v092
 BYTE   W12
 BYTE   As1  v036
 BYTE   N11  Fn2
 BYTE   N11  As2
 BYTE   N23  Gs4  v092
 BYTE   W12
 BYTE   N11  As1  v036
 BYTE   N11  Fn2
 BYTE   N11  As2
 BYTE   W12
 BYTE   As1
 BYTE   N11  Fn2
 BYTE   N11  As2
 BYTE   N11  Gs4  v092
 BYTE   W12
 BYTE   As1  v036
 BYTE   N11  Fn2
 BYTE   N11  As2
 BYTE   N11  Gs4  v092
 BYTE   W12
 BYTE   BEND   c_v+2
 BYTE   N11  As1  v036
 BYTE   N11  Fn2
 BYTE   N11  As2
 BYTE   N11  Gs4  v092
 BYTE   W01
 BYTE   BEND   c_v+5
 BYTE   W01
 BYTE   BEND   c_v+8
 BYTE   W10
 BYTE   BEND   c_v+0
 BYTE   N11  As1  v036
 BYTE   N11  Fn2
 BYTE   N11  As2
 BYTE   N23  Gs4  v092
 BYTE   W12
 BYTE   N11  As1  v036
 BYTE   N11  Fn2
 BYTE   N11  As2
 BYTE   W12
 BYTE   PEND 
//  #06 //022   ----------------------------------------
 BYTE   Ds2
 BYTE   N11  As2
 BYTE   N11  Ds3
 BYTE   N23  Fn4  v092
 BYTE   W12
 BYTE   N11  Ds2  v036
 BYTE   N11  As2
 BYTE   N11  Ds3
 BYTE   W12
 BYTE   Ds2
 BYTE   N11  As2
 BYTE   N11  Ds3
 BYTE   N11  Fn4  v092
 BYTE   W12
 BYTE   Ds2  v036
 BYTE   N11  As2
 BYTE   N11  Ds3
 BYTE   N56  Fs4  v092
 BYTE   W12
 BYTE   N11  Ds2  v036
 BYTE   N11  As2
 BYTE   N11  Ds3
 BYTE   W12
 BYTE   Ds2
 BYTE   N11  As2
 BYTE   N11  Ds3
 BYTE   W12
 BYTE   Ds2
 BYTE   N11  As2
 BYTE   N11  Ds3
 BYTE   W12
 BYTE   Ds2
 BYTE   N11  As2
 BYTE   N11  Ds3
 BYTE   W12
//  #06 //023   ----------------------------------------
 BYTE   Ds2
 BYTE   N11  As2
 BYTE   N11  Ds3
 BYTE   N44  Gs4  v092
 BYTE   W12
 BYTE   N11  Ds2  v036
 BYTE   N11  As2
 BYTE   N11  Ds3
 BYTE   W12
 BYTE   Ds2
 BYTE   N11  As2
 BYTE   N11  Ds3
 BYTE   W12
 BYTE   Ds2
 BYTE   N11  As2
 BYTE   N11  Ds3
 BYTE   W12
 BYTE   BEND   c_v+26
 BYTE   N44  Ds2
 BYTE   N44  As2
 BYTE   N44  Ds3
 BYTE   N44  Fn4  v092
 BYTE   W36
 BYTE   BEND   c_v+24
 BYTE   W01
 BYTE   BEND   c_v+23
 BYTE   W01
 BYTE   BEND   c_v+21
 BYTE   W01
 BYTE   BEND   c_v+19
 BYTE   W01
 BYTE   BEND   c_v+16
 BYTE   W01
 BYTE   BEND   c_v+14
 BYTE   W01
 BYTE   BEND   c_v+12
 BYTE   W01
 BYTE   BEND   c_v+10
 BYTE   W01
 BYTE   BEND   c_v+7
 BYTE   W01
 BYTE   BEND   c_v+5
 BYTE   W01
 BYTE   BEND   c_v+3
 BYTE   W01
 BYTE   BEND   c_v+1
 BYTE   W01
//  #06 //024   ----------------------------------------
 BYTE   BEND   c_v+0
 BYTE   N32  Fs2  v036
 BYTE   N23  Cs3  v092
 BYTE   W24
 BYTE   N12
 BYTE   W12
 BYTE   N11  Cs3  v036
 BYTE   W12
 BYTE   N23  Cs3  v092
 BYTE   W24
 BYTE   Fs2  v036
 BYTE   N11  Cs3  v092
 BYTE   W12
 BYTE   Ds3
 BYTE   W12
//  #06 //025   ----------------------------------------
 BYTE   N32  Cs3  v036
 BYTE   W36
 BYTE   N12  Fs2
 BYTE   W12
 BYTE   N23  Fs2  v092
 BYTE   N23  As2
 BYTE   W24
 BYTE   Fs2  v036
 BYTE   N23  Gs2  v092
 BYTE   N23  Bn2
 BYTE   W24
//  #06 //026   ----------------------------------------
 BYTE   N68  As1  v036
 BYTE   N68  Cs2
 BYTE   N36  Fs2
 BYTE   N32  Gs2  v092
 BYTE   N36  As2  v036
 BYTE   N32  Bn2  v092
 BYTE   W36
 BYTE   N11  Fs2
 BYTE   N11  As2
 BYTE   W12
 BYTE   N23
 BYTE   N48  Cs3
 BYTE   W24
 BYTE   N23  Fs2  v036
 BYTE   W24
//  #06 //027   ----------------------------------------
 BYTE   N32  Cs3
 BYTE   W36
 BYTE   Fs2
 BYTE   W36
 BYTE   N23  Gs2
 BYTE   N23  Bn2  v092
 BYTE   W24
//  #06 //028   ----------------------------------------
 BYTE   N32  As2  v036
 BYTE   N23  Cs3  v092
 BYTE   W24
 BYTE   N11  Ds3
 BYTE   W12
 BYTE   N23  Cs3
 BYTE   N32  Fn3  v036
 BYTE   W24
 BYTE   N11  Cs3  v092
 BYTE   N11  Fs3
 BYTE   W12
 BYTE   N23  As2  v036
 BYTE   N11  Cs3  v092
 BYTE   N11  Fs3
 BYTE   W12
 BYTE   Cs3
 BYTE   N11  Fs3
 BYTE   W12
//  #06 //029   ----------------------------------------
 BYTE   N23  Cs3
 BYTE   N32  Fn3  v036
 BYTE   N23  Gs3  v092
 BYTE   W24
 BYTE   Cs3
 BYTE   N23  Fs3
 BYTE   W12
 BYTE   N32  As2  v036
 BYTE   W12
 BYTE   N23  Cs3  v092
 BYTE   N23  Fn3
 BYTE   W24
 BYTE   As2  v036
 BYTE   N11  Cs3  v092
 BYTE   N11  Fs3
 BYTE   W12
 BYTE   N80  Cs3
 BYTE   N80  Fs3
 BYTE   W12
//  #06 //030   ----------------------------------------
Label_01841F63:
 BYTE   N32  Ds3  v036
 BYTE   W36
 BYTE   As2
 BYTE   W36
 BYTE   N23
 BYTE   W24
 BYTE   PEND 
//  #06 //031   ----------------------------------------
 BYTE   PATT
  POIN2 Label_01841F63
//  #06 //032   ----------------------------------------
Label_01841F71:
 BYTE   N23  Cs3  v092
 BYTE   N23  Cs4
 BYTE   W24
 BYTE   Cs3
 BYTE   N23  Cs4
 BYTE   W24
 BYTE   Cs3
 BYTE   N23  Cs4
 BYTE   W24
 BYTE   N11  Cs3
 BYTE   N11  Cs4
 BYTE   W12
 BYTE   Ds3
 BYTE   N11  Ds4
 BYTE   W12
 BYTE   PEND 
//  #06 //033   ----------------------------------------
Label_01841F89:
 BYTE   N32  Cs3  v092
 BYTE   N32  Cs4
 BYTE   W48
 BYTE   N23  Cs3
 BYTE   N23  Cs4
 BYTE   W24
 BYTE   Fs3
 BYTE   N23  Fs4
 BYTE   W24
 BYTE   PEND 
//  #06 //034   ----------------------------------------
Label_01841F99:
 BYTE   N32  Gs3  v092
 BYTE   N32  Gs4
 BYTE   W36
 BYTE   N11  Fs3
 BYTE   N11  Fs4
 BYTE   W12
 BYTE   N92  As3
 BYTE   N92  As4
 BYTE   W48
 BYTE   PEND 
//  #06 //035   ----------------------------------------
Label_01841FAA:
 BYTE   W72
 BYTE   N11  Fs3  v092
 BYTE   N11  Fs4
 BYTE   W12
 BYTE   N23  Cs4
 BYTE   N23  Cs5
 BYTE   W12
 BYTE   PEND 
//  #06 //036   ----------------------------------------
 BYTE   W12
 BYTE   Fs3
 BYTE   N23  Fs4
 BYTE   W24
 BYTE   Fs3
 BYTE   N23  Fs4
 BYTE   W24
 BYTE   Fn3
 BYTE   N23  Fn4
 BYTE   W24
 BYTE   N44  Fn3
 BYTE   N44  Fn4
 BYTE   W12
//  #06 //037   ----------------------------------------
 BYTE   W36
 BYTE   N11  Cs3
 BYTE   N11  Cs4
 BYTE   W12
 BYTE   Cs3
 BYTE   N11  Cs4
 BYTE   W12
 BYTE   Bn2
 BYTE   N11  Bn3
 BYTE   W12
 BYTE   As2
 BYTE   N11  As3
 BYTE   W12
 BYTE   N23  Bn2
 BYTE   N23  Bn3
 BYTE   W12
//  #06 //038   ----------------------------------------
 BYTE   W12
 BYTE   N92  Fs3
 BYTE   N92  Fs4
 BYTE   W84
//  #06 //039   ----------------------------------------
 BYTE   W48
 BYTE   N32  Cs3
 BYTE   N32  Cs4
 BYTE   W36
 BYTE   N11  Fs3
 BYTE   N11  Fs4
 BYTE   W12
//  #06 //040   ----------------------------------------
Label_01841FF1:
 BYTE   N32  Gs3  v092
 BYTE   N32  Gs4
 BYTE   W36
 BYTE   N11  Fs3
 BYTE   N11  Fs4
 BYTE   W12
 BYTE   N32  Gs3
 BYTE   N32  Gs4
 BYTE   W36
 BYTE   N11  Fs3
 BYTE   N11  Fs4
 BYTE   W12
 BYTE   PEND 
//  #06 //041   ----------------------------------------
Label_01842007:
 BYTE   N23  Gs3  v092
 BYTE   N23  Gs4
 BYTE   W24
 BYTE   N11  Fs3
 BYTE   N11  Fs4
 BYTE   W12
 BYTE   N23  Cs3
 BYTE   N23  Cs4
 BYTE   W24
 BYTE   Fs3
 BYTE   N23  Fs4
 BYTE   W24
 BYTE   N32  Fs3
 BYTE   N32  Fs4
 BYTE   W12
 BYTE   PEND 
//  #06 //042   ----------------------------------------
 BYTE   W72
 BYTE   N11  Fs3
 BYTE   N11  Fs4
 BYTE   W12
 BYTE   N32  Fs3
 BYTE   N32  Fs4
 BYTE   W12
//  #06 //043   ----------------------------------------
 BYTE   W24
 BYTE   N23  As2
 BYTE   N23  As3
 BYTE   W24
 BYTE   Fn3
 BYTE   N23  Fn4
 BYTE   W24
 BYTE   N44  Fs3
 BYTE   N44  Fs4
 BYTE   W24
//  #06 //044   ----------------------------------------
Label_0184203B:
 BYTE   N11  Cs4  v036
 BYTE   W36
 BYTE   N11
 BYTE   W36
 BYTE   N23  Fs2  v092
 BYTE   N11  Cs4  v036
 BYTE   W24
 BYTE   PEND 
//  #06 //045   ----------------------------------------
Label_01842049:
 BYTE   N23  Fs2  v092
 BYTE   W12
 BYTE   N11  Cs4  v036
 BYTE   W12
 BYTE   N23  Gs2  v092
 BYTE   W24
 BYTE   Fs2
 BYTE   N11  Cs4  v036
 BYTE   W24
 BYTE   Ds3  v092
 BYTE   W12
 BYTE   N56
 BYTE   N11  Cs4  v036
 BYTE   W12
 BYTE   PEND 
//  #06 //046   ----------------------------------------
Label_01842063:
 BYTE   N11  Fs2  v036
 BYTE   N11  Fs3
 BYTE   W12
 BYTE   Fs2
 BYTE   N11  Fs3
 BYTE   W12
 BYTE   Fs2
 BYTE   N11  Fs3
 BYTE   W12
 BYTE   Fn2
 BYTE   N11  Fn3
 BYTE   W12
 BYTE   Fn2
 BYTE   N11  Fn3
 BYTE   W12
 BYTE   Fn2
 BYTE   N11  Fn3
 BYTE   W12
 BYTE   Fs2
 BYTE   N23  Ds3  v092
 BYTE   N11  Fs3  v036
 BYTE   N23  Ds4  v092
 BYTE   W12
 BYTE   N11  Fs2  v036
 BYTE   N11  Fs3
 BYTE   W12
 BYTE   PEND 
//  #06 //047   ----------------------------------------
Label_0184208F:
 BYTE   N11  Fs2  v036
 BYTE   N23  Cs3  v092
 BYTE   N11  Fs3  v036
 BYTE   N23  Cs4  v092
 BYTE   W12
 BYTE   N11  Fs2  v036
 BYTE   N11  Fs3
 BYTE   W12
 BYTE   Fs2
 BYTE   N11  Fs3
 BYTE   N23  Fs4  v092
 BYTE   W12
 BYTE   N11  Fs2  v036
 BYTE   N11  Fs3
 BYTE   W12
 BYTE   Cs3
 BYTE   N23  Gs3  v092
 BYTE   N11  Cs4  v036
 BYTE   N23  Gs4  v092
 BYTE   W12
 BYTE   N11  Cs3  v036
 BYTE   N11  Cs4
 BYTE   W12
 BYTE   Cs3
 BYTE   N32  Gs3  v092
 BYTE   N11  Cs4  v036
 BYTE   N32  Gs4  v092
 BYTE   W12
 BYTE   N11  Cs3  v036
 BYTE   N11  Cs4
 BYTE   W12
 BYTE   PEND 
//  #06 //048   ----------------------------------------
 BYTE   N05  Fs3
 BYTE   N05  Fs4
 BYTE   W06
 BYTE   Fs3
 BYTE   N05  Fs4
 BYTE   W06
 BYTE   Fs3
 BYTE   N05  Fs4
 BYTE   W06
 BYTE   Fs3
 BYTE   N05  Fs4
 BYTE   W06
 BYTE   N44  Fs3  v092
 BYTE   N05  Gs3  v036
 BYTE   N44  Fs4  v092
 BYTE   N05  Gs4  v036
 BYTE   W06
 BYTE   Gs3
 BYTE   N05  Gs4
 BYTE   W06
 BYTE   Gs3
 BYTE   N05  Gs4
 BYTE   W06
 BYTE   Gs3
 BYTE   N05  Gs4
 BYTE   W06
 BYTE   As3
 BYTE   N05  As4
 BYTE   W06
 BYTE   As3
 BYTE   N05  As4
 BYTE   W06
 BYTE   As3
 BYTE   N05  As4
 BYTE   W06
 BYTE   As3
 BYTE   N05  As4
 BYTE   W06
 BYTE   Fs3
 BYTE   N05  Fs4
 BYTE   W06
 BYTE   Fs3
 BYTE   N05  Fs4
 BYTE   W06
 BYTE   N11  Cs3  v092
 BYTE   N05  Fs3  v036
 BYTE   N11  Gs3  v092
 BYTE   N11  Cs4
 BYTE   N05  Fs4  v036
 BYTE   W06
 BYTE   Fs3
 BYTE   N05  Fs4
 BYTE   W06
//  #06 //049   ----------------------------------------
 BYTE   N36  Cs3  v092
 BYTE   N23  Gs3  v036
 BYTE   N36  Cs4  v092
 BYTE   N23  Gs4  v036
 BYTE   W24
 BYTE   N01  Gs3
 BYTE   N01  Gs4
 BYTE   W01
 BYTE   Gn3
 BYTE   N01  Gn4
 BYTE   W02
 BYTE   Fs3
 BYTE   N01  Fs4
 BYTE   W03
 BYTE   Fn3
 BYTE   N01  Fn4
 BYTE   W01
 BYTE   En3
 BYTE   N01  En4
 BYTE   W02
 BYTE   Ds3
 BYTE   N01  Ds4
 BYTE   W03
 BYTE   Dn3
 BYTE   N01  Dn4
 BYTE   W01
 BYTE   Cs3
 BYTE   N01  Cs4
 BYTE   W02
 BYTE   Cn3
 BYTE   N01  Cn4
 BYTE   W03
 BYTE   Bn2
 BYTE   N01  Bn3
 BYTE   W01
 BYTE   As2
 BYTE   N01  As3
 BYTE   W02
 BYTE   An2
 BYTE   N01  An3
 BYTE   W03
 BYTE   N05  Gs2
 BYTE   N44  Fs3  v092
 BYTE   N05  Gs3  v036
 BYTE   N44  Cs4  v092
 BYTE   N44  Fs4
 BYTE   W48
//  #06 //050   ----------------------------------------
 BYTE   N11  Bn1  v036
 BYTE   N11  Fs2
 BYTE   N11  Bn2
 BYTE   N23  As3  v092
 BYTE   N23  Cs4
 BYTE   N23  As4
 BYTE   W12
 BYTE   N11  Bn1  v036
 BYTE   N11  Fs2
 BYTE   N11  Bn2
 BYTE   W12
 BYTE   Bn1
 BYTE   N11  Fs2
 BYTE   N11  Bn2
 BYTE   N11  Gs3  v092
 BYTE   N11  Cs4
 BYTE   N11  Gs4
 BYTE   W12
 BYTE   Bn1  v036
 BYTE   N11  Fs2
 BYTE   N11  Bn2
 BYTE   N23  Gs3  v092
 BYTE   N23  Cs4
 BYTE   N23  Gs4
 BYTE   W12
 BYTE   N11  Bn1  v036
 BYTE   N11  Fs2
 BYTE   N11  Bn2
 BYTE   W12
 BYTE   Bn1
 BYTE   N11  Fs2
 BYTE   N11  Bn2
 BYTE   N11  Fs3  v092
 BYTE   N11  Cs4
 BYTE   N11  Fs4
 BYTE   W12
 BYTE   Bn1  v036
 BYTE   N11  Fs2
 BYTE   N11  Bn2
 BYTE   N44  Fs3  v092
 BYTE   N44  Cs4
 BYTE   N44  Fs4
 BYTE   W12
 BYTE   N11  Bn1  v036
 BYTE   N11  Fs2
 BYTE   N11  Bn2
 BYTE   W12
//  #06 //051   ----------------------------------------
 BYTE   Bn1
 BYTE   N11  Fs2
 BYTE   N11  Bn2
 BYTE   W12
 BYTE   Bn1
 BYTE   N11  Fs2
 BYTE   N11  Bn2
 BYTE   W12
 BYTE   Bn1
 BYTE   N11  Fs2
 BYTE   N11  Bn2
 BYTE   N23  Fs3  v092
 BYTE   N23  Bn3
 BYTE   N23  Fs4
 BYTE   W12
 BYTE   N11  Bn1  v036
 BYTE   N11  Fs2
 BYTE   N11  Bn2
 BYTE   W12
 BYTE   Bn1
 BYTE   N11  Fs2
 BYTE   N11  Bn2
 BYTE   N23  Cs4  v092
 BYTE   N23  Fs4
 BYTE   N23  Cs5
 BYTE   W12
 BYTE   N11  Bn1  v036
 BYTE   N11  Fs2
 BYTE   N11  Bn2
 BYTE   W12
 BYTE   Bn1
 BYTE   N11  Fs2
 BYTE   N11  Bn2
 BYTE   N68  Gs3  v092
 BYTE   N68  Cs4
 BYTE   N68  Gs4
 BYTE   W12
 BYTE   N11  Bn1  v036
 BYTE   N11  Fs2
 BYTE   N11  Bn2
 BYTE   W12
//  #06 //052   ----------------------------------------
 BYTE   Cs2
 BYTE   N11  Gs2
 BYTE   N11  Cs3
 BYTE   W12
 BYTE   Cs2
 BYTE   N11  Gs2
 BYTE   N11  Cs3
 BYTE   W12
 BYTE   Cs2
 BYTE   N11  Gs2
 BYTE   N11  Cs3
 BYTE   W12
 BYTE   Cs2
 BYTE   N11  Gs2
 BYTE   N11  Cs3
 BYTE   W12
 BYTE   Cs2
 BYTE   N11  Gs2
 BYTE   N11  Cs3
 BYTE   W12
 BYTE   Cs2
 BYTE   N11  Gs2
 BYTE   N11  Cs3
 BYTE   W12
 BYTE   Cs2
 BYTE   N11  Gs2
 BYTE   N11  Cs3
 BYTE   N23  Fn3  v092
 BYTE   N23  Cs4
 BYTE   N23  Fn4
 BYTE   W12
 BYTE   N11  Cs2  v036
 BYTE   N11  Gs2
 BYTE   N11  Cs3
 BYTE   W12
//  #06 //053   ----------------------------------------
 BYTE   Cs2
 BYTE   N11  Gs2
 BYTE   N11  Cs3
 BYTE   N23  Fs3  v092
 BYTE   N23  Cs4
 BYTE   N23  Fs4
 BYTE   W12
 BYTE   N11  Cs2  v036
 BYTE   N11  Gs2
 BYTE   N11  Cs3
 BYTE   W12
 BYTE   Cs2
 BYTE   N11  Gs2
 BYTE   N11  Cs3
 BYTE   N32  Gs3  v092
 BYTE   N32  Cs4
 BYTE   N32  Gs4
 BYTE   W12
 BYTE   N11  Cs2  v036
 BYTE   N11  Gs2
 BYTE   N11  Cs3
 BYTE   W12
 BYTE   Cs2
 BYTE   N11  Gs2
 BYTE   N11  Cs3
 BYTE   W12
 BYTE   Cs2
 BYTE   N11  Gs2
 BYTE   N11  Cs3
 BYTE   W12
 BYTE   Cs2
 BYTE   N11  Gs2
 BYTE   N11  Cs3
 BYTE   N11  Gs3  v092
 BYTE   N11  Cs4
 BYTE   W12
 BYTE   Cs2  v036
 BYTE   N11  Gs2
 BYTE   N11  Cs3
 BYTE   N11  Gs3  v092
 BYTE   N11  Cs4
 BYTE   W12
//  #06 //054   ----------------------------------------
 BYTE   As1  v036
 BYTE   N11  Fn2
 BYTE   N11  As2
 BYTE   N23  As3  v092
 BYTE   N23  Cs4
 BYTE   N23  As4
 BYTE   W12
 BYTE   N11  As1  v036
 BYTE   N11  Fn2
 BYTE   N11  As2
 BYTE   W12
 BYTE   As1
 BYTE   N11  Fn2
 BYTE   N11  As2
 BYTE   N11  Gs3  v092
 BYTE   N11  Cs4
 BYTE   N11  Gs4
 BYTE   W12
 BYTE   As1  v036
 BYTE   N11  Fn2
 BYTE   N11  As2
 BYTE   N32  Gs3  v092
 BYTE   N32  Cs4
 BYTE   N32  Gs4
 BYTE   W12
 BYTE   N11  As1  v036
 BYTE   N11  Fn2
 BYTE   N11  As2
 BYTE   W12
 BYTE   As1
 BYTE   N11  Fn2
 BYTE   N11  As2
 BYTE   W12
 BYTE   As1
 BYTE   N11  Fn2
 BYTE   N11  As2
 BYTE   N11  Gs3  v092
 BYTE   N11  Fn4
 BYTE   N11  Gs4
 BYTE   W12
 BYTE   As1  v036
 BYTE   N11  Fn2
 BYTE   N11  As2
 BYTE   N32  Bn3  v092
 BYTE   N32  Fn4
 BYTE   N32  Bn4
 BYTE   W12
//  #06 //055   ----------------------------------------
 BYTE   N11  As1  v036
 BYTE   N11  Fn2
 BYTE   N11  As2
 BYTE   W12
 BYTE   As1
 BYTE   N11  Fn2
 BYTE   N11  As2
 BYTE   W12
 BYTE   As1
 BYTE   N11  Fn2
 BYTE   N11  As2
 BYTE   N23  As3  v092
 BYTE   N23  Fn4
 BYTE   N23  As4
 BYTE   W12
 BYTE   N11  As1  v036
 BYTE   N11  Fn2
 BYTE   N11  As2
 BYTE   W12
 BYTE   As1
 BYTE   N11  Fn2
 BYTE   N11  As2
 BYTE   N23  Fn3  v092
 BYTE   N23  Cs4
 BYTE   N23  Fn4
 BYTE   W12
 BYTE   N11  As1  v036
 BYTE   N11  Fn2
 BYTE   N11  As2
 BYTE   W12
 BYTE   As1
 BYTE   N11  Fn2
 BYTE   N11  As2
 BYTE   N68  Fs3  v092
 BYTE   N68  Cs4
 BYTE   N68  Fs4
 BYTE   W12
 BYTE   N11  As1  v036
 BYTE   N11  Fn2
 BYTE   N11  As2
 BYTE   W12
//  #06 //056   ----------------------------------------
 BYTE   Ds2
 BYTE   N11  As2
 BYTE   N11  Ds3
 BYTE   W12
 BYTE   Ds2
 BYTE   N11  As2
 BYTE   N11  Ds3
 BYTE   W12
 BYTE   Ds2
 BYTE   N11  As2
 BYTE   N11  Ds3
 BYTE   W12
 BYTE   Ds2
 BYTE   N11  As2
 BYTE   N11  Ds3
 BYTE   W12
 BYTE   Ds2
 BYTE   N11  As2
 BYTE   N11  Ds3
 BYTE   W12
 BYTE   Ds2
 BYTE   N11  As2
 BYTE   N11  Ds3
 BYTE   W12
 BYTE   N23  Cs2
 BYTE   N23  As2
 BYTE   N23  Cs3
 BYTE   N23  Cs4  v092
 BYTE   W24
//  #06 //057   ----------------------------------------
Label_01842376:
 BYTE   N17  Gs2  v036
 BYTE   N17  Cs3
 BYTE   N17  Gs3
 BYTE   N17  Cs4  v092
 BYTE   N17  Gs4
 BYTE   W18
 BYTE   Fs2  v036
 BYTE   N17  Cs3
 BYTE   N17  Fs3
 BYTE   N17  Cs4  v092
 BYTE   N17  Fs4
 BYTE   W18
 BYTE   N11  Gs2  v036
 BYTE   N11  Cs3
 BYTE   N11  Gs3
 BYTE   N11  Cs4  v092
 BYTE   N11  Gs4
 BYTE   W24
 BYTE   As2  v036
 BYTE   N11  Cs3
 BYTE   N11  Fs3
 BYTE   N11  As3
 BYTE   N32  Cs4  v092
 BYTE   N32  As4
 BYTE   W12
 BYTE   N11  As2  v036
 BYTE   N11  Cs3
 BYTE   N11  Fs3
 BYTE   N11  As3
 BYTE   W12
 BYTE   As2
 BYTE   N11  Cs3
 BYTE   N11  Fs3
 BYTE   N11  As3
 BYTE   W12
 BYTE   PEND 
//  #06 //058   ----------------------------------------
Label_018423BD:
 BYTE   N11  Bn1  v036
 BYTE   N11  Cs2
 BYTE   N11  Fs2
 BYTE   N11  Bn2
 BYTE   N11  Cs3
 BYTE   N23  As3  v092
 BYTE   N23  Cs4
 BYTE   N23  As4
 BYTE   W12
 BYTE   N11  Bn1  v036
 BYTE   N11  Cs2
 BYTE   N11  Fs2
 BYTE   N11  Bn2
 BYTE   N11  Cs3
 BYTE   W12
 BYTE   Bn1
 BYTE   N11  Fs2
 BYTE   N11  Bn2
 BYTE   N11  Gs3  v092
 BYTE   N11  Cs4
 BYTE   N11  Gs4
 BYTE   W12
 BYTE   Bn1  v036
 BYTE   N23  Cs2
 BYTE   N11  Fs2
 BYTE   N11  Bn2
 BYTE   N23  Cs3
 BYTE   N23  Gs3  v092
 BYTE   N23  Cs4
 BYTE   N23  Gs4
 BYTE   W12
 BYTE   N11  Bn1  v036
 BYTE   N11  Fs2
 BYTE   N11  Bn2
 BYTE   W12
 BYTE   Bn1
 BYTE   N11  Cs2
 BYTE   N11  Fs2
 BYTE   N11  Bn2
 BYTE   N11  Cs3
 BYTE   N11  Fs3  v092
 BYTE   N11  Cs4
 BYTE   N11  Fs4
 BYTE   W12
 BYTE   Bn1  v036
 BYTE   N11  Cs2
 BYTE   N11  Fs2
 BYTE   N11  Bn2
 BYTE   N11  Cs3
 BYTE   N32  Fs3  v092
 BYTE   N32  Cs4
 BYTE   N32  Fs4
 BYTE   W12
 BYTE   N11  Bn1  v036
 BYTE   N11  Cs2
 BYTE   N11  Fs2
 BYTE   N11  Bn2
 BYTE   N11  Cs3
 BYTE   W12
 BYTE   PEND 
//  #06 //059   ----------------------------------------
Label_01842433:
 BYTE   N11  Bn1  v036
 BYTE   N11  Cs2
 BYTE   N11  Fs2
 BYTE   N11  Bn2
 BYTE   N11  Cs3
 BYTE   W12
 BYTE   Bn1
 BYTE   N11  Cs2
 BYTE   N11  Fs2
 BYTE   N11  Bn2
 BYTE   N11  Cs3
 BYTE   W12
 BYTE   Bn1
 BYTE   N11  Fs2
 BYTE   N11  Bn2
 BYTE   N23  Fs3  v092
 BYTE   N23  Ds4
 BYTE   N23  Fs4
 BYTE   W12
 BYTE   N11  Bn1  v036
 BYTE   N23  Cs2
 BYTE   N11  Fs2
 BYTE   N11  Bn2
 BYTE   N23  Cs3
 BYTE   W12
 BYTE   N11  Bn1
 BYTE   N11  Fs2
 BYTE   N11  Bn2
 BYTE   N23  Cs4  v092
 BYTE   N23  Fs4
 BYTE   N23  Cs5
 BYTE   W12
 BYTE   N11  Bn1  v036
 BYTE   N11  Cs2
 BYTE   N11  Fs2
 BYTE   N11  Bn2
 BYTE   N11  Cs3
 BYTE   W12
 BYTE   Bn1
 BYTE   N11  Cs2
 BYTE   N11  Fs2
 BYTE   N11  Bn2
 BYTE   N11  Cs3
 BYTE   N24  Gs3  v092
 BYTE   N68  Cs4
 BYTE   N68  Gs4
 BYTE   W12
 BYTE   N11  Bn1  v036
 BYTE   N11  Cs2
 BYTE   N11  Fs2
 BYTE   N11  Bn2
 BYTE   N11  Cs3
 BYTE   W12
 BYTE   PEND 
//  #06 //060   ----------------------------------------
Label_0184249A:
 BYTE   N11  Cs2  v036
 BYTE   N11  Gs2
 BYTE   N11  Cs3
 BYTE   N11  Gs3
 BYTE   W12
 BYTE   Cs2
 BYTE   N11  Gs2
 BYTE   N11  Cs3
 BYTE   N11  Gs3
 BYTE   W12
 BYTE   Cs2
 BYTE   N11  Gs2
 BYTE   N11  Cs3
 BYTE   W12
 BYTE   Cs2
 BYTE   N11  Gs2
 BYTE   N11  Cs3
 BYTE   N11  Gs3
 BYTE   W12
 BYTE   Cs2
 BYTE   N11  Gs2
 BYTE   N11  Cs3
 BYTE   W12
 BYTE   Cs2
 BYTE   N11  Gs2
 BYTE   N11  Cs3
 BYTE   N11  Gs3
 BYTE   W12
 BYTE   Cs2
 BYTE   N11  Gs2
 BYTE   N11  Cs3
 BYTE   N11  Gs3
 BYTE   N23  As3  v092
 BYTE   N23  Cs4
 BYTE   N23  As4
 BYTE   W12
 BYTE   N11  Cs2  v036
 BYTE   N11  Gs2
 BYTE   N11  Cs3
 BYTE   N11  Gs3
 BYTE   W12
 BYTE   PEND 
//  #06 //061   ----------------------------------------
Label_018424E2:
 BYTE   N11  Cs2  v036
 BYTE   N11  Gs2
 BYTE   N11  Cs3
 BYTE   N11  Gs3
 BYTE   N23  Cs4  v092
 BYTE   N23  Gs4
 BYTE   W12
 BYTE   N11  Cs2  v036
 BYTE   N11  Gs2
 BYTE   N11  Cs3
 BYTE   N11  Gs3
 BYTE   W12
 BYTE   Cs2
 BYTE   N11  Gs2
 BYTE   N11  Cs3
 BYTE   N23  Fs3  v092
 BYTE   N23  Cs4
 BYTE   N23  Fs4
 BYTE   W12
 BYTE   N11  Cs2  v036
 BYTE   N11  Gs2
 BYTE   N11  Cs3
 BYTE   N23  Gs3
 BYTE   W12
 BYTE   N11  Cs2
 BYTE   N11  Gs2
 BYTE   N11  Cs3
 BYTE   N23  Fn3  v092
 BYTE   N23  Cs4
 BYTE   N23  Fn4
 BYTE   W12
 BYTE   N11  Cs2  v036
 BYTE   N11  Gs2
 BYTE   N11  Cs3
 BYTE   N11  Gs3
 BYTE   W12
 BYTE   Cs2
 BYTE   N11  Gs2
 BYTE   N11  Cs3
 BYTE   N23  Fs3  v092
 BYTE   N11  Gs3  v036
 BYTE   N23  Cs4  v092
 BYTE   N23  Fs4
 BYTE   W12
 BYTE   N11  Cs2  v036
 BYTE   N11  Gs2
 BYTE   N11  Cs3
 BYTE   N11  Gs3
 BYTE   W12
 BYTE   PEND 
//  #06 //062   ----------------------------------------
Label_01842546:
 BYTE   N11  As1  v036
 BYTE   N11  Fn2
 BYTE   N11  As2
 BYTE   N11  Fn3
 BYTE   N23  Gs3  v092
 BYTE   N23  Cs4
 BYTE   N23  Gs4
 BYTE   W12
 BYTE   N11  As1  v036
 BYTE   N11  Fn2
 BYTE   N11  As2
 BYTE   N11  Fn3
 BYTE   W12
 BYTE   As1
 BYTE   N11  Cs2
 BYTE   N11  Fn2
 BYTE   N11  As2
 BYTE   N11  Cs3
 BYTE   N23  As3  v092
 BYTE   N23  Cs4
 BYTE   W12
 BYTE   N11  As1  v036
 BYTE   N11  Cs2
 BYTE   N11  Fn2
 BYTE   N11  As2
 BYTE   N11  Cs3
 BYTE   W12
 BYTE   As1
 BYTE   N11  Fn2
 BYTE   N11  As2
 BYTE   N11  Fn3
 BYTE   W12
 BYTE   As1
 BYTE   N11  Fn2
 BYTE   N11  As2
 BYTE   N11  Fn3
 BYTE   W12
 BYTE   As1
 BYTE   N11  Cs2
 BYTE   N11  Fn2
 BYTE   N11  As2
 BYTE   N11  Cs3
 BYTE   N11  As3  v092
 BYTE   N11  Cs4
 BYTE   W12
 BYTE   As1  v036
 BYTE   N11  Dn2
 BYTE   N11  Fn2
 BYTE   N11  As2
 BYTE   N11  Dn3
 BYTE   N32  Bn3  v092
 BYTE   N32  Fn4
 BYTE   N32  Bn4
 BYTE   W12
 BYTE   PEND 
//  #06 //063   ----------------------------------------
Label_018425AE:
 BYTE   N11  As1  v036
 BYTE   N05  Dn2
 BYTE   N11  Fn2
 BYTE   N11  As2
 BYTE   N05  Dn3
 BYTE   W06
 BYTE   Dn2
 BYTE   N05  Dn3
 BYTE   W06
 BYTE   N11  As1
 BYTE   N05  Dn2
 BYTE   N11  Fn2
 BYTE   N11  As2
 BYTE   N05  Dn3
 BYTE   W06
 BYTE   Dn2
 BYTE   N05  Dn3
 BYTE   W06
 BYTE   N11  As1
 BYTE   N05  Dn2
 BYTE   N11  Fn2
 BYTE   N11  As2
 BYTE   N05  Dn3
 BYTE   N23  As3  v092
 BYTE   N23  Dn4
 BYTE   N23  As4
 BYTE   W06
 BYTE   N05  Dn2  v036
 BYTE   N05  Dn3
 BYTE   W06
 BYTE   N11  As1
 BYTE   N05  Fn2
 BYTE   N11  As2
 BYTE   N05  Fn3
 BYTE   W06
 BYTE   Fn2
 BYTE   N05  Fn3
 BYTE   W06
 BYTE   N11  As1
 BYTE   N05  Fn2
 BYTE   N11  As2
 BYTE   N05  Fn3
 BYTE   N23  Gs3  v092
 BYTE   N23  Dn4
 BYTE   N23  Gs4
 BYTE   W06
 BYTE   N05  Fn2  v036
 BYTE   N05  Fn3
 BYTE   W06
 BYTE   N11  As1
 BYTE   N05  Fn2
 BYTE   N11  As2
 BYTE   N05  Fn3
 BYTE   W06
 BYTE   Fn2
 BYTE   N05  Fn3
 BYTE   W06
 BYTE   N11  As1
 BYTE   N05  Fn2
 BYTE   N11  As2
 BYTE   N05  Fn3
 BYTE   N11  Fs3  v092
 BYTE   N11  Dn4
 BYTE   N11  Fs4
 BYTE   W06
 BYTE   N05  Fn2  v036
 BYTE   N05  Fn3
 BYTE   W06
 BYTE   N11  As1
 BYTE   N05  Fn2
 BYTE   N11  As2
 BYTE   N05  Fn3
 BYTE   N23  Dn4  v092
 BYTE   N23  Fn4
 BYTE   W06
 BYTE   N05  Fn2  v036
 BYTE   N05  Fn3
 BYTE   W06
 BYTE   PEND 
//  #06 //064   ----------------------------------------
Label_01842640:
 BYTE   N92  Ds1  v036
 BYTE   N92  As1
 BYTE   N11  Ds2
 BYTE   N11  As2
 BYTE   N11  Ds3
 BYTE   W12
 BYTE   Ds2
 BYTE   N11  As2
 BYTE   N11  Ds3
 BYTE   N11  Fs3  v092
 BYTE   N11  Ds4
 BYTE   N11  Fs4
 BYTE   W12
 BYTE   Ds2  v036
 BYTE   N11  As2
 BYTE   N11  Ds3
 BYTE   N23  Fs3  v092
 BYTE   N23  Ds4
 BYTE   N23  Fs4
 BYTE   W12
 BYTE   N11  Ds2  v036
 BYTE   N11  As2
 BYTE   N11  Ds3
 BYTE   W12
 BYTE   Ds2
 BYTE   N11  As2
 BYTE   N11  Ds3
 BYTE   W12
 BYTE   Ds2
 BYTE   N11  As2
 BYTE   N11  Ds3
 BYTE   W12
 BYTE   Ds2
 BYTE   N11  As2
 BYTE   N11  Ds3
 BYTE   N11  Gs3  v092
 BYTE   N11  Cs4
 BYTE   N11  Fn4
 BYTE   N11  Gs4
 BYTE   W12
 BYTE   Ds2  v036
 BYTE   N11  As2
 BYTE   N11  Ds3
 BYTE   N12  Fs3  v092
 BYTE   N32  As3
 BYTE   N32  Cs4
 BYTE   N32  Fs4
 BYTE   W12
 BYTE   PEND 
//  #06 //065   ----------------------------------------
Label_0184269B:
 BYTE   N92  Fs1  v036
 BYTE   N92  Cs2
 BYTE   N11  Fs2
 BYTE   N11  Cs3
 BYTE   N11  Fs3
 BYTE   W12
 BYTE   Fs2
 BYTE   N11  Cs3
 BYTE   N11  Fs3
 BYTE   W12
 BYTE   Fs2
 BYTE   N11  Cs3
 BYTE   N11  Fs3
 BYTE   W12
 BYTE   Fs2
 BYTE   N11  Cs3
 BYTE   N11  Fs3
 BYTE   W12
 BYTE   Fs2
 BYTE   N11  Cs3
 BYTE   N11  Fs3
 BYTE   N11  Fs4  v092
 BYTE   W12
 BYTE   Fs2  v036
 BYTE   N11  Cs3
 BYTE   N11  Fn3  v092
 BYTE   N11  Fs3  v036
 BYTE   N11  Fn4  v092
 BYTE   W12
 BYTE   Fs2  v036
 BYTE   N11  Cs3
 BYTE   N11  Ds3  v092
 BYTE   N11  Fs3  v036
 BYTE   N11  Ds4  v092
 BYTE   W12
 BYTE   Fs2  v036
 BYTE   N11  Cs3
 BYTE   N11  Fs3
 BYTE   N11  Cs4  v092
 BYTE   W12
 BYTE   PEND 
//  #06 //066   ----------------------------------------
Label_018426E9:
 BYTE   N11  Bn1  v036
 BYTE   N23  Ds2
 BYTE   N11  Fs2
 BYTE   N11  Bn2
 BYTE   N23  Cs3  v092
 BYTE   N23  Ds3  v036
 BYTE   N23  Fs3  v092
 BYTE   N23  Cs4
 BYTE   W12
 BYTE   N11  Bn1  v036
 BYTE   N11  Fs2
 BYTE   N11  Bn2
 BYTE   W12
 BYTE   Gs1
 BYTE   N11  Ds2
 BYTE   N11  Gs2
 BYTE   N11  Ds3
 BYTE   N32  Fs3  v092
 BYTE   N32  Bn3
 BYTE   N32  Fs4
 BYTE   W12
 BYTE   N11  Gs1  v036
 BYTE   N11  Ds2
 BYTE   N11  Gs2
 BYTE   N11  Ds3
 BYTE   W12
 BYTE   As1
 BYTE   N23  Cs2
 BYTE   N11  Fn2
 BYTE   N11  As2
 BYTE   N23  Cs3
 BYTE   W12
 BYTE   N11  As1
 BYTE   N11  Fn2
 BYTE   N11  As2
 BYTE   W12
 BYTE   As1
 BYTE   N11  Cs2
 BYTE   N11  Fn2
 BYTE   N11  As2
 BYTE   N11  Cs3
 BYTE   N23  Fs3  v092
 BYTE   N23  As3
 BYTE   W12
 BYTE   N11  As1  v036
 BYTE   N11  Cs2
 BYTE   N11  Fn2
 BYTE   N11  As2
 BYTE   N11  Cs3
 BYTE   W12
 BYTE   PEND 
//  #06 //067   ----------------------------------------
Label_0184274C:
 BYTE   N11  Bn1  v036
 BYTE   N23  Ds2
 BYTE   N11  Fs2
 BYTE   N11  Bn2
 BYTE   N23  Ds3
 BYTE   N23  Fs3  v092
 BYTE   N23  Bn3
 BYTE   W12
 BYTE   N11  Bn1  v036
 BYTE   N11  Fs2
 BYTE   N11  Bn2
 BYTE   W12
 BYTE   Bn1
 BYTE   N11  Ds2
 BYTE   N11  Fs2
 BYTE   N11  Bn2
 BYTE   N11  Ds3
 BYTE   N32  Fs3  v092
 BYTE   N32  Bn3
 BYTE   N32  Fs4
 BYTE   W12
 BYTE   N11  Bn1  v036
 BYTE   N12  Fn2
 BYTE   N11  Fs2
 BYTE   N11  Bn2
 BYTE   N23  Fn3
 BYTE   W12
 BYTE   N11  As1
 BYTE   N11  Fn2
 BYTE   N11  As2
 BYTE   W12
 BYTE   As1
 BYTE   N11  Fn2
 BYTE   N11  As2
 BYTE   N11  Fn3
 BYTE   W12
 BYTE   As1
 BYTE   N11  Fn2
 BYTE   N11  As2
 BYTE   N11  Cs3  v092
 BYTE   N11  Fn3  v036
 BYTE   N11  As3  v092
 BYTE   N11  Cs4
 BYTE   W12
 BYTE   As1  v036
 BYTE   N11  Fn2
 BYTE   N11  As2
 BYTE   N11  Cs3  v092
 BYTE   N11  Fn3  v036
 BYTE   N11  As3  v092
 BYTE   N11  Cs4
 BYTE   W12
 BYTE   PEND 
//  #06 //068   ----------------------------------------
Label_018427B5:
 BYTE   N11  Gs1  v036
 BYTE   N11  Ds2
 BYTE   N23  Fs2
 BYTE   N11  Gs2
 BYTE   N23  Ds3  v092
 BYTE   N23  Fs3  v036
 BYTE   N23  Bn3  v092
 BYTE   N23  Ds4
 BYTE   W12
 BYTE   N11  Gs1  v036
 BYTE   N11  Ds2
 BYTE   N11  Gs2
 BYTE   W12
 BYTE   Gs1
 BYTE   N11  Ds2
 BYTE   N11  Fn2
 BYTE   N11  Gs2
 BYTE   N11  Cs3  v092
 BYTE   N11  Fn3  v036
 BYTE   N11  Gs3  v092
 BYTE   N11  Cs4
 BYTE   W12
 BYTE   Gs1  v036
 BYTE   N11  Ds2
 BYTE   N11  Fs2
 BYTE   N11  Gs2
 BYTE   N23  Ds3  v092
 BYTE   N11  Fs3  v036
 BYTE   N23  Bn3  v092
 BYTE   N23  Ds4
 BYTE   W12
 BYTE   N11  As1  v036
 BYTE   N11  Fn2
 BYTE   N11  As2
 BYTE   W12
 BYTE   As1
 BYTE   N11  Fn2
 BYTE   N11  Gs2
 BYTE   N11  As2
 BYTE   N23  Fn3  v092
 BYTE   N11  Gs3  v036
 BYTE   N23  As3  v092
 BYTE   N23  Fn4
 BYTE   W12
 BYTE   N11  As1  v036
 BYTE   N11  Fn2
 BYTE   N11  As2
 BYTE   W12
 BYTE   As1
 BYTE   N11  Fn2
 BYTE   N11  As2
 BYTE   N23  Fs3  v092
 BYTE   N11  As3  v036
 BYTE   N23  Bn3  v092
 BYTE   N23  Fs4
 BYTE   W12
 BYTE   PEND 
//  #06 //069   ----------------------------------------
Label_0184282E:
 BYTE   N11  Bn1  v036
 BYTE   N11  Fs2
 BYTE   N11  Bn2
 BYTE   W12
 BYTE   Bn1
 BYTE   N11  Fs2
 BYTE   N11  Gs2
 BYTE   N11  Bn2
 BYTE   N23  Fn3  v092
 BYTE   N11  Gs3  v036
 BYTE   N23  Bn3  v092
 BYTE   N23  Fn4
 BYTE   W12
 BYTE   N11  Bn1  v036
 BYTE   N11  Fs2
 BYTE   N11  Bn2
 BYTE   W12
 BYTE   Bn1
 BYTE   N11  Fs2
 BYTE   N11  As2
 BYTE   N11  Bn2
 BYTE   N32  Fs3  v092
 BYTE   N11  As3  v036
 BYTE   N32  Bn3  v092
 BYTE   N32  Fs4
 BYTE   W12
 BYTE   N11  Bn1  v036
 BYTE   N11  Fs2
 BYTE   N11  As2
 BYTE   N11  Bn2
 BYTE   N11  As3
 BYTE   W12
 BYTE   Bn1
 BYTE   N11  Fs2
 BYTE   N11  As2
 BYTE   N11  Bn2
 BYTE   N11  As3
 BYTE   W12
 BYTE   Bn1
 BYTE   N11  Fs2
 BYTE   N11  Bn2
 BYTE   N23  Gs3  v092
 BYTE   N11  Bn3  v036
 BYTE   N23  Gs4  v092
 BYTE   W12
 BYTE   N11  Bn1  v036
 BYTE   N11  Fs2
 BYTE   N11  Bn2
 BYTE   N11  Bn3
 BYTE   W12
 BYTE   PEND 
//  #06 //070   ----------------------------------------
 BYTE   Bn1
 BYTE   N11  Ds2
 BYTE   N11  Gs2
 BYTE   N23  As3  v092
 BYTE   N11  Cs4
 BYTE   N23  Ds4
 BYTE   N23  As4
 BYTE   W12
 BYTE   N11  Bn1  v036
 BYTE   N11  Ds2
 BYTE   N11  Gs2
 BYTE   N11  Fs4  v092
 BYTE   W12
 BYTE   Bn1  v036
 BYTE   N11  Ds2
 BYTE   N11  Gs2
 BYTE   N23  Fs3  v092
 BYTE   N11  Cs4
 BYTE   N23  Ds4
 BYTE   N23  Fs4
 BYTE   W12
 BYTE   N11  Cs2  v036
 BYTE   N11  Fn2
 BYTE   N11  As2
 BYTE   N23  Gs4  v092
 BYTE   W12
 BYTE   N11  Cs2  v036
 BYTE   N11  Fn2
 BYTE   N11  As2
 BYTE   W12
 BYTE   Cs2
 BYTE   N11  Fn2
 BYTE   N11  As2
 BYTE   N12  Fs4  v092
 BYTE   W12
 BYTE   N11  Ds2  v036
 BYTE   N11  Fs2
 BYTE   N11  Bn2
 BYTE   N23  Cs4  v092
 BYTE   N23  Fs4
 BYTE   N23  Cs5
 BYTE   W12
 BYTE   N11  Ds2  v036
 BYTE   N11  Fs2
 BYTE   N11  Bn2
 BYTE   W12
//  #06 //071   ----------------------------------------
 BYTE   Ds2
 BYTE   N11  Fs2
 BYTE   N11  Bn2
 BYTE   N23  Gs3  v092
 BYTE   N11  Bn3
 BYTE   N23  Gs4
 BYTE   W12
 BYTE   N11  Cs2  v036
 BYTE   N11  Fn2
 BYTE   N11  As2
 BYTE   N11  Cs4  v092
 BYTE   W12
 BYTE   Cs2  v036
 BYTE   N11  Fn2
 BYTE   N11  As2
 BYTE   N23  Fs3  v092
 BYTE   N23  As3
 BYTE   N11  Fs4
 BYTE   W12
 BYTE   Cs2  v036
 BYTE   N11  Fn2
 BYTE   N11  As2
 BYTE   N11  Cs4  v092
 BYTE   W12
 BYTE   Ds2  v036
 BYTE   N11  Ds3
 BYTE   N11  As4  v092
 BYTE   W12
 BYTE   Ds2  v036
 BYTE   N11  Ds3
 BYTE   N11  Fs4  v092
 BYTE   W12
 BYTE   Cs2  v036
 BYTE   N11  Cs3
 BYTE   N09  Gs3  v092
 BYTE   N01  Fn4
 BYTE   N01  Fs4
 BYTE   N11  Gs4
 BYTE   W01
 BYTE   N01  En4
 BYTE   W02
 BYTE   Dn4
 BYTE   N01  Ds4
 BYTE   W01
 BYTE   Cs4
 BYTE   W02
 BYTE   Bn3
 BYTE   N01  Cn4
 BYTE   W01
 BYTE   As3
 BYTE   W02
 BYTE   Gs3
 BYTE   N01  An3
 BYTE   W01
 BYTE   Gn3
 BYTE   W02
 BYTE   N11  Cs2  v036
 BYTE   N11  Cs3
 BYTE   N11  Fs3  v092
 BYTE   N11  As3
 BYTE   N11  As4
 BYTE   W12
//  #06 //072   ----------------------------------------
Label_01842961:
 BYTE   N23  Gs1  v036
 BYTE   N23  Ds2
 BYTE   N23  Fs2  v060
 BYTE   N23  Gs2  v036
 BYTE   N23  Fs3  v060
 BYTE   N23  Bn3  v092
 BYTE   N23  Ds4
 BYTE   N23  Bn4
 BYTE   W24
 BYTE   N11  Gs1  v036
 BYTE   N11  Ds2
 BYTE   N11  Fs2  v060
 BYTE   N11  Gs2  v036
 BYTE   N11  Fs3  v060
 BYTE   N11  As3  v092
 BYTE   N11  Ds4
 BYTE   N11  As4
 BYTE   W12
 BYTE   Gs1  v036
 BYTE   N11  Ds2
 BYTE   N11  Fs2  v060
 BYTE   N11  Gs2  v036
 BYTE   N11  Fs3  v060
 BYTE   N60  Cs4  v092
 BYTE   N68  Fs4
 BYTE   W12
 BYTE   N11  As1  v036
 BYTE   N11  Fn2
 BYTE   N11  Gs2  v060
 BYTE   N11  As2  v036
 BYTE   N11  Gs3  v060
 BYTE   W12
 BYTE   As1  v036
 BYTE   N11  Fn2
 BYTE   N11  Gs2  v060
 BYTE   N11  As2  v036
 BYTE   N11  Gs3  v060
 BYTE   W12
 BYTE   As1  v036
 BYTE   N11  Fn2
 BYTE   N11  As2
 BYTE   N11  As3  v060
 BYTE   W12
 BYTE   Bn1  v036
 BYTE   N11  Fs2
 BYTE   N11  Bn2
 BYTE   N11  Bn3  v060
 BYTE   W12
 BYTE   PEND 
//  #06 //073   ----------------------------------------
 BYTE   N23  Cs2  v036
 BYTE   N16  Gs2
 BYTE   N11  Cs3
 BYTE   N11  Cs4  v060
 BYTE   W12
 BYTE   N01  Cn3
 BYTE   N01  Cs3
 BYTE   N01  Cn4
 BYTE   N01  Cs4
 BYTE   W01
 BYTE   Bn2
 BYTE   N01  Bn3
 BYTE   W02
 BYTE   An2
 BYTE   N01  As2
 BYTE   N01  An3
 BYTE   N01  As3
 BYTE   W01
 BYTE   Gs2
 BYTE   N01  Gs3
 BYTE   W02
 BYTE   Fs2
 BYTE   N01  Gn2
 BYTE   N01  Fs3
 BYTE   N01  Gn3
 BYTE   W01
 BYTE   Fn2
 BYTE   N01  Fn3
 BYTE   W02
 BYTE   Ds2
 BYTE   N01  En2
 BYTE   N01  Ds3
 BYTE   N01  En3
 BYTE   W01
 BYTE   Dn2
 BYTE   N01  Dn3
 BYTE   W02
 BYTE   N05  Cs2
 BYTE   N05  Cs3
 BYTE   W12
 BYTE   N11  Fs3  v092
 BYTE   N11  Cs4
 BYTE   N11  Fs4
 BYTE   W12
 BYTE   N23  Fn3
 BYTE   N23  Cs4
 BYTE   N23  Fn4
 BYTE   W24
 BYTE   N11  Fs3
 BYTE   N11  Cs4
 BYTE   N11  Fs4
 BYTE   W12
 BYTE   TIE  Fs3
 BYTE   N84  Cs4
 BYTE   N12  Fs4
 BYTE   W12
//  #06 //074   ----------------------------------------
 BYTE   PATT
  POIN2 Label_01841C77
//  #06 //075   ----------------------------------------
 BYTE   N11  Bn1  v036
 BYTE   N11  Fs2
 BYTE   N11  Bn2
 BYTE   N11  Cs4  v092
 BYTE   W12
 BYTE   Bn1  v036
 BYTE   N11  Fs2
 BYTE   N11  Bn2
 BYTE   N23  Gs3  v092
 BYTE   W12
 BYTE   N11  Bn1  v036
 BYTE   N11  Fs2
 BYTE   N11  Bn2
 BYTE   W12
 BYTE   Bn1
 BYTE   N11  Fs2
 BYTE   N11  Bn2
 BYTE   N11  Gs3  v092
 BYTE   W12
 BYTE   EOT
 BYTE   Fs3
 BYTE   N11  Bn1  v036
 BYTE   N11  Fs2
 BYTE   N11  Bn2
 BYTE   N23  Fs3  v092
 BYTE   W12
 BYTE   N11  Bn1  v036
 BYTE   N11  Fs2
 BYTE   N11  Bn2
 BYTE   W12
 BYTE   Bn1
 BYTE   N11  Fs2
 BYTE   N11  Bn2
 BYTE   N23  Gs3  v092
 BYTE   W12
 BYTE   N11  Bn1  v036
 BYTE   N11  Fs2
 BYTE   N11  Bn2
 BYTE   W12
//  #06 //076   ----------------------------------------
 BYTE   PATT
  POIN2 Label_01841D08
//  #06 //077   ----------------------------------------
 BYTE   PATT
  POIN2 Label_01841D52
//  #06 //078   ----------------------------------------
 BYTE   PATT
  POIN2 Label_01841D95
//  #06 //079   ----------------------------------------
 BYTE   PATT
  POIN2 Label_01841DDF
//  #06 //080   ----------------------------------------
 BYTE   N11  Ds2  v036
 BYTE   N11  As2
 BYTE   N11  Ds3
 BYTE   N23  Fn4  v092
 BYTE   W12
 BYTE   N11  Ds2  v036
 BYTE   N11  As2
 BYTE   N11  Ds3
 BYTE   W12
 BYTE   Ds2
 BYTE   N11  As2
 BYTE   N11  Ds3
 BYTE   N11  Fn4  v092
 BYTE   W12
 BYTE   BEND   c_v+26
 BYTE   N11  Ds2  v036
 BYTE   N11  As2
 BYTE   N11  Ds3
 BYTE   N56  Cs4  v092
 BYTE   W12
 BYTE   N11  Ds2  v036
 BYTE   N11  As2
 BYTE   N11  Ds3
 BYTE   W12
 BYTE   Ds2
 BYTE   N11  As2
 BYTE   N11  Ds3
 BYTE   W12
 BYTE   Ds2
 BYTE   N11  As2
 BYTE   N11  Ds3
 BYTE   W09
 BYTE   BEND   c_v+25
 BYTE   W01
 BYTE   BEND   c_v+23
 BYTE   W01
 BYTE   BEND   c_v+22
 BYTE   W01
 BYTE   BEND   c_v+20
 BYTE   N11  Ds2
 BYTE   N11  As2
 BYTE   N11  Ds3
 BYTE   W01
 BYTE   BEND   c_v+18
 BYTE   W01
 BYTE   BEND   c_v+16
 BYTE   W01
 BYTE   BEND   c_v+15
 BYTE   W01
 BYTE   BEND   c_v+13
 BYTE   W01
 BYTE   BEND   c_v+10
 BYTE   W01
 BYTE   BEND   c_v+9
 BYTE   W01
 BYTE   BEND   c_v+8
 BYTE   W01
 BYTE   BEND   c_v+6
 BYTE   W01
 BYTE   BEND   c_v+3
 BYTE   W01
 BYTE   BEND   c_v+2
 BYTE   W01
 BYTE   BEND   c_v+1
 BYTE   W01
//  #06 //081   ----------------------------------------
 BYTE   BEND   c_v+0
 BYTE   W96
//  #06 //082   ----------------------------------------
 BYTE   N23  Cs3  v092
 BYTE   W24
 BYTE   N23
 BYTE   W24
 BYTE   N23
 BYTE   W24
 BYTE   N11
 BYTE   W12
 BYTE   Ds3
 BYTE   W12
//  #06 //083   ----------------------------------------
 BYTE   N23  Cs3
 BYTE   W48
 BYTE   Fs2
 BYTE   N23  As2
 BYTE   W24
 BYTE   Gs2
 BYTE   N23  Bn2
 BYTE   W24
//  #06 //084   ----------------------------------------
 BYTE   N32  Gs2
 BYTE   N32  Bn2
 BYTE   W36
 BYTE   N11  Fs2
 BYTE   N11  As2
 BYTE   W12
 BYTE   N92
 BYTE   N92  Cs3
 BYTE   W48
//  #06 //085   ----------------------------------------
 BYTE   W72
 BYTE   N23  Bn2
 BYTE   W24
//  #06 //086   ----------------------------------------
 BYTE   Cs3
 BYTE   W24
 BYTE   N11  Ds3
 BYTE   W12
 BYTE   N23  Cs3
 BYTE   W24
 BYTE   N11
 BYTE   N11  Fs3
 BYTE   W12
 BYTE   Cs3
 BYTE   N11  Fs3
 BYTE   W12
 BYTE   Cs3
 BYTE   N11  Fs3
 BYTE   W12
//  #06 //087   ----------------------------------------
 BYTE   N23  Cs3
 BYTE   N23  Gs3
 BYTE   W24
 BYTE   Cs3
 BYTE   N23  Fs3
 BYTE   W24
 BYTE   Cs3
 BYTE   N23  Fn3
 BYTE   W24
 BYTE   N11  Cs3
 BYTE   N11  Fs3
 BYTE   W12
 BYTE   N80  Cs3
 BYTE   N80  Fs3
 BYTE   W12
//  #06 //088   ----------------------------------------
 BYTE   W96
//  #06 //089   ----------------------------------------
 BYTE   W96
//  #06 //090   ----------------------------------------
 BYTE   PATT
  POIN2 Label_01841F71
//  #06 //091   ----------------------------------------
 BYTE   PATT
  POIN2 Label_01841F89
//  #06 //092   ----------------------------------------
 BYTE   PATT
  POIN2 Label_01841F99
//  #06 //093   ----------------------------------------
 BYTE   PATT
  POIN2 Label_01841FAA
//  #06 //094   ----------------------------------------
 BYTE   N11  As2  v036
 BYTE   N11  As3
 BYTE   W12
 BYTE   As2
 BYTE   N23  Fs3  v092
 BYTE   N11  As3  v036
 BYTE   N23  Fs4  v092
 BYTE   W12
 BYTE   N11  As2  v036
 BYTE   N11  As3
 BYTE   W12
 BYTE   As2
 BYTE   N23  Fs3  v092
 BYTE   N11  As3  v036
 BYTE   N23  Fs4  v092
 BYTE   W12
 BYTE   N11  As2  v036
 BYTE   N11  As3
 BYTE   W12
 BYTE   As2
 BYTE   N11  Gs3  v092
 BYTE   N11  As3  v036
 BYTE   N11  Gs4  v092
 BYTE   W12
 BYTE   As2  v036
 BYTE   N11  As3
 BYTE   N11  As4  v092
 BYTE   W12
 BYTE   Gs2  v036
 BYTE   N11  Gs3
 BYTE   N32  Gs4  v092
 BYTE   W12
//  #06 //095   ----------------------------------------
 BYTE   N11  Gs2  v036
 BYTE   N11  Gs3
 BYTE   W12
 BYTE   Gs2
 BYTE   N11  Gs3
 BYTE   W12
 BYTE   Gs2
 BYTE   N11  Gs3
 BYTE   W12
 BYTE   Gs2
 BYTE   N11  Cs3  v092
 BYTE   N11  Gs3  v036
 BYTE   N11  Cs4  v092
 BYTE   W12
 BYTE   Gs2  v036
 BYTE   N11  Cs3  v092
 BYTE   N11  Gs3  v036
 BYTE   N11  Cs4  v092
 BYTE   W12
 BYTE   Gs2  v036
 BYTE   N11  Cs3  v092
 BYTE   N11  Gs3  v036
 BYTE   N11  Cs4  v092
 BYTE   W12
 BYTE   Gs2  v036
 BYTE   N11  Gs3
 BYTE   N11  Bn3  v092
 BYTE   N11  Bn4
 BYTE   W12
 BYTE   Gs2  v036
 BYTE   N11  Gs3
 BYTE   N23  As3  v092
 BYTE   N23  As4
 BYTE   W12
//  #06 //096   ----------------------------------------
 BYTE   N11  Fs2  v036
 BYTE   N11  Fs3
 BYTE   W12
 BYTE   Fs2
 BYTE   N11  Fs3
 BYTE   N92  Fs4  v092
 BYTE   W24
 BYTE   N11  Cs2  v036
 BYTE   N11  Cs3
 BYTE   W12
 BYTE   Cs2
 BYTE   N11  Cs3
 BYTE   W36
 BYTE   N23
 BYTE   N23  Cs4
 BYTE   W12
//  #06 //097   ----------------------------------------
 BYTE   W12
 BYTE   N11  Cs3
 BYTE   N11  Cs4
 BYTE   W12
 BYTE   Cs3
 BYTE   N11  Cs4
 BYTE   W12
 BYTE   Cs3
 BYTE   N11  Cs4
 BYTE   W12
 BYTE   Cs3
 BYTE   N11  Cs4
 BYTE   W12
 BYTE   Cs3
 BYTE   N11  Cs4
 BYTE   W12
 BYTE   N01  Cn3
 BYTE   N01  Cs3
 BYTE   N01  Cn4
 BYTE   N01  Cs4
 BYTE   W01
 BYTE   Bn2
 BYTE   N01  Bn3
 BYTE   W02
 BYTE   An2
 BYTE   N01  As2
 BYTE   N01  An3
 BYTE   N01  As3
 BYTE   W01
 BYTE   Gs2
 BYTE   N01  Gs3
 BYTE   W02
 BYTE   Fs2
 BYTE   N01  Gn2
 BYTE   N01  Fs3
 BYTE   N01  Gn3
 BYTE   W01
 BYTE   Fn2
 BYTE   N01  Fn3
 BYTE   W02
 BYTE   Ds2
 BYTE   N01  En2
 BYTE   N01  Ds3
 BYTE   N01  En3
 BYTE   W01
 BYTE   Dn2
 BYTE   N01  Dn3
 BYTE   W02
 BYTE   N05  Cs2
 BYTE   N05  Cs3
 BYTE   N11  Fs3  v092
 BYTE   N11  Fs4
 BYTE   W12
//  #06 //098   ----------------------------------------
 BYTE   PATT
  POIN2 Label_01841FF1
//  #06 //099   ----------------------------------------
 BYTE   PATT
  POIN2 Label_01842007
//  #06 //100   ----------------------------------------
 BYTE   W72
 BYTE   N11  Fs3  v092
 BYTE   N11  Fs4
 BYTE   W12
 BYTE   Fs3
 BYTE   N11  Fs4
 BYTE   W12
//  #06 //101   ----------------------------------------
 BYTE   N23  Bn3
 BYTE   N23  Bn4
 BYTE   W24
 BYTE   Cs4
 BYTE   N23  Cs5
 BYTE   W24
 BYTE   Gs3
 BYTE   N23  Gs4
 BYTE   W24
 BYTE   N44  Fs3
 BYTE   N44  Fs4
 BYTE   W24
//  #06 //102   ----------------------------------------
 BYTE   PATT
  POIN2 Label_0184203B
//  #06 //103   ----------------------------------------
 BYTE   PATT
  POIN2 Label_01842049
//  #06 //104   ----------------------------------------
 BYTE   PATT
  POIN2 Label_01842063
//  #06 //105   ----------------------------------------
 BYTE   PATT
  POIN2 Label_0184208F
//  #06 //106   ----------------------------------------
 BYTE   N05  Fs3  v036
 BYTE   N05  Fs4
 BYTE   W06
 BYTE   Fs3
 BYTE   N05  Fs4
 BYTE   W06
 BYTE   Fs3
 BYTE   N05  Fs4
 BYTE   W06
 BYTE   Fs3
 BYTE   N05  Fs4
 BYTE   W06
 BYTE   N44  Fs3  v092
 BYTE   N05  Gs3  v036
 BYTE   N44  Fs4  v092
 BYTE   N05  Gs4  v036
 BYTE   W06
 BYTE   Gs3
 BYTE   N05  Gs4
 BYTE   W06
 BYTE   Gs3
 BYTE   N05  Gs4
 BYTE   W06
 BYTE   Gs3
 BYTE   N05  Gs4
 BYTE   W06
 BYTE   As3
 BYTE   N05  As4
 BYTE   W06
 BYTE   As3
 BYTE   N05  As4
 BYTE   W06
 BYTE   As3
 BYTE   N05  As4
 BYTE   W06
 BYTE   As3
 BYTE   N05  As4
 BYTE   W06
 BYTE   Fs3
 BYTE   N05  Fs4
 BYTE   W06
 BYTE   Fs3
 BYTE   N05  Fs4
 BYTE   W06
 BYTE   Fs3
 BYTE   N11  Cs4  v092
 BYTE   N05  Fs4  v036
 BYTE   W06
 BYTE   Fs3
 BYTE   N05  Fs4
 BYTE   W06
//  #06 //107   ----------------------------------------
 BYTE   N23  Fs3  v092
 BYTE   N23  Gs3  v036
 BYTE   N23  Cs4  v092
 BYTE   N23  Fs4
 BYTE   N23  Gs4  v036
 BYTE   W24
 BYTE   N01  Gs3
 BYTE   N13  Cs4  v092
 BYTE   N06  Fn4
 BYTE   N01  Gs4  v036
 BYTE   W01
 BYTE   Gn3
 BYTE   N01  Gn4
 BYTE   W02
 BYTE   Fs3
 BYTE   N01  Fs4
 BYTE   W03
 BYTE   Fn3
 BYTE   N01  Fn4
 BYTE   W01
 BYTE   En3
 BYTE   N01  En4
 BYTE   W02
 BYTE   Ds3
 BYTE   N01  Ds4
 BYTE   W03
 BYTE   Dn3
 BYTE   N01  Dn4
 BYTE   W01
 BYTE   Cs3
 BYTE   N01  Cs4
 BYTE   W02
 BYTE   Cn3
 BYTE   N01  Cn4
 BYTE   W03
 BYTE   Bn2
 BYTE   N01  Bn3
 BYTE   W01
 BYTE   As2
 BYTE   N01  As3
 BYTE   W02
 BYTE   An2
 BYTE   N01  An3
 BYTE   W03
 BYTE   N05  Gs2
 BYTE   N05  Gs3
 BYTE   W48
//  #06 //108   ----------------------------------------
 BYTE   N11  Bn1
 BYTE   N11  Fn2
 BYTE   N11  Fs2
 BYTE   N11  Bn2
 BYTE   N11  Fn3
 BYTE   N23  As3  v092
 BYTE   N23  Cs4
 BYTE   N23  As4
 BYTE   W12
 BYTE   N11  Bn1  v036
 BYTE   N11  Fs2
 BYTE   N11  Bn2
 BYTE   W12
 BYTE   Bn1
 BYTE   N11  Fs2
 BYTE   N11  Bn2
 BYTE   N11  Gs3  v092
 BYTE   N11  Cs4
 BYTE   N11  Gs4
 BYTE   W12
 BYTE   Bn1  v036
 BYTE   N11  Fn2
 BYTE   N11  Fs2
 BYTE   N11  Bn2
 BYTE   N11  Fn3
 BYTE   N23  Gs3  v092
 BYTE   N23  Cs4
 BYTE   N23  Gs4
 BYTE   W12
 BYTE   N11  Bn1  v036
 BYTE   N11  Fs2
 BYTE   N11  Bn2
 BYTE   W12
 BYTE   Bn1
 BYTE   N11  Fs2
 BYTE   N11  Bn2
 BYTE   N11  Fs3  v092
 BYTE   N11  Cs4
 BYTE   N11  Fs4
 BYTE   W12
 BYTE   Bn1  v036
 BYTE   N11  Fn2
 BYTE   N11  Fs2
 BYTE   N11  Bn2
 BYTE   N11  Fn3
 BYTE   N44  Fs3  v092
 BYTE   N44  Cs4
 BYTE   N44  Fs4
 BYTE   W12
 BYTE   N11  Bn1  v036
 BYTE   N11  Fs2
 BYTE   N11  Bn2
 BYTE   W12
//  #06 //109   ----------------------------------------
 BYTE   Bn1
 BYTE   N11  Fs2
 BYTE   N11  Bn2
 BYTE   W12
 BYTE   Bn1
 BYTE   N11  Fn2
 BYTE   N11  Fs2
 BYTE   N11  Bn2
 BYTE   N11  Fn3
 BYTE   W12
 BYTE   Bn1
 BYTE   N11  Fs2
 BYTE   N11  Bn2
 BYTE   N23  Fs3  v092
 BYTE   N23  Bn3
 BYTE   N23  Fs4
 BYTE   W12
 BYTE   N11  Bn1  v036
 BYTE   N11  Fs2
 BYTE   N11  Bn2
 BYTE   W12
 BYTE   Bn1
 BYTE   N11  Fn2
 BYTE   N11  Fs2
 BYTE   N11  Bn2
 BYTE   N11  Fn3
 BYTE   N23  Cs4  v092
 BYTE   N23  Fs4
 BYTE   N23  Cs5
 BYTE   W12
 BYTE   N11  Bn1  v036
 BYTE   N11  Fs2
 BYTE   N11  Bn2
 BYTE   W12
 BYTE   Bn1
 BYTE   N11  Fn2
 BYTE   N11  Fs2
 BYTE   N11  Bn2
 BYTE   N11  Fn3
 BYTE   N68  Gs3  v092
 BYTE   N68  Cs4
 BYTE   N68  Gs4
 BYTE   W12
 BYTE   N11  Bn1  v036
 BYTE   N11  Fs2
 BYTE   N11  Bn2
 BYTE   W12
//  #06 //110   ----------------------------------------
 BYTE   Cs2
 BYTE   N11  Fn2
 BYTE   N11  Gs2
 BYTE   N11  Cs3
 BYTE   N11  Fn3
 BYTE   W12
 BYTE   Cs2
 BYTE   N11  Gs2
 BYTE   N11  Cs3
 BYTE   W12
 BYTE   Cs2
 BYTE   N11  Gs2
 BYTE   N11  Cs3
 BYTE   W12
 BYTE   Cs2
 BYTE   N11  Fn2
 BYTE   N11  Gs2
 BYTE   N11  Cs3
 BYTE   N11  Fn3
 BYTE   W12
 BYTE   Cs2
 BYTE   N11  Gs2
 BYTE   N11  Cs3
 BYTE   W12
 BYTE   Cs2
 BYTE   N11  Gs2
 BYTE   N11  Cs3
 BYTE   W12
 BYTE   Cs2
 BYTE   N11  Fn2
 BYTE   N11  Gs2
 BYTE   N11  Cs3
 BYTE   N11  Fn3
 BYTE   N23  Cs4  v092
 BYTE   N23  Fn4
 BYTE   W12
 BYTE   N11  Cs2  v036
 BYTE   N11  Gs2
 BYTE   N11  Cs3
 BYTE   W12
//  #06 //111   ----------------------------------------
 BYTE   Cs2
 BYTE   N11  Gs2
 BYTE   N11  Cs3
 BYTE   N23  Fs3  v092
 BYTE   N23  Cs4
 BYTE   N23  Fs4
 BYTE   W12
 BYTE   N11  Cs2  v036
 BYTE   N11  Fn2
 BYTE   N11  Gs2
 BYTE   N11  Cs3
 BYTE   N11  Fn3
 BYTE   W12
 BYTE   Cs2
 BYTE   N11  Gs2
 BYTE   N11  Cs3
 BYTE   N32  Gs3  v092
 BYTE   N32  Cs4
 BYTE   N32  Gs4
 BYTE   W12
 BYTE   N11  Cs2  v036
 BYTE   N11  Gs2
 BYTE   N11  Cs3
 BYTE   W12
 BYTE   Cs2
 BYTE   N11  Fn2
 BYTE   N11  Gs2
 BYTE   N11  Cs3
 BYTE   N11  Fn3
 BYTE   W12
 BYTE   Cs2
 BYTE   N11  Fn2
 BYTE   N11  Gs2
 BYTE   N11  Cs3
 BYTE   N11  Fn3
 BYTE   W12
 BYTE   Cs3  v092
 BYTE   N11  Gs3
 BYTE   N11  Cs4
 BYTE   W12
 BYTE   Cs3
 BYTE   N11  Gs3
 BYTE   N11  Cs4
 BYTE   W12
//  #06 //112   ----------------------------------------
 BYTE   As1  v036
 BYTE   N11  Fn2
 BYTE   N11  As2
 BYTE   N11  Fn3
 BYTE   N23  As3  v092
 BYTE   N23  Cs4
 BYTE   N23  As4
 BYTE   W12
 BYTE   N11  As1  v036
 BYTE   N11  Fn2
 BYTE   N11  As2
 BYTE   W12
 BYTE   As1
 BYTE   N11  Cs2
 BYTE   N11  Fn2
 BYTE   N11  As2
 BYTE   N11  Cs3
 BYTE   N11  Gs3  v092
 BYTE   N11  Cs4
 BYTE   N11  Gs4
 BYTE   W12
 BYTE   As1  v036
 BYTE   N11  Fn2
 BYTE   N11  As2
 BYTE   N11  Fn3
 BYTE   N32  Gs3  v092
 BYTE   N32  Cs4
 BYTE   N32  Gs4
 BYTE   W12
 BYTE   N11  As1  v036
 BYTE   N11  Fn2
 BYTE   N11  As2
 BYTE   W12
 BYTE   As1
 BYTE   N11  Cs2
 BYTE   N11  Fn2
 BYTE   N11  As2
 BYTE   N11  Cs3
 BYTE   W12
 BYTE   As1
 BYTE   N11  Fn2
 BYTE   N11  As2
 BYTE   N32  Fn3
 BYTE   N11  Gs3  v092
 BYTE   N11  Fn4
 BYTE   N11  Gs4
 BYTE   W12
 BYTE   As1  v036
 BYTE   N11  Fn2
 BYTE   N11  As2
 BYTE   N32  Bn3  v092
 BYTE   N32  Fn4
 BYTE   N32  Bn4
 BYTE   W12
//  #06 //113   ----------------------------------------
 BYTE   N11  As1  v036
 BYTE   N11  Fn2
 BYTE   N11  As2
 BYTE   W12
 BYTE   As1
 BYTE   N11  Fn2
 BYTE   N11  As2
 BYTE   N11  Fn3
 BYTE   W12
 BYTE   As1
 BYTE   N11  Fn2
 BYTE   N11  As2
 BYTE   N11  Fn3
 BYTE   N23  As3  v092
 BYTE   N23  Fn4
 BYTE   N23  As4
 BYTE   W12
 BYTE   N11  As1  v036
 BYTE   N11  Fn2
 BYTE   N11  As2
 BYTE   N11  Fn3
 BYTE   W12
 BYTE   As1
 BYTE   N11  Fn2
 BYTE   N11  As2
 BYTE   N11  Fn3
 BYTE   N23  Cs4  v092
 BYTE   N23  Fn4
 BYTE   W12
 BYTE   N11  As1  v036
 BYTE   N11  Fn2
 BYTE   N11  As2
 BYTE   N11  Fn3
 BYTE   W12
 BYTE   As1
 BYTE   N11  Fn2
 BYTE   N11  As2
 BYTE   N11  Fn3
 BYTE   N24  Fs3  v092
 BYTE   N68  Cs4
 BYTE   N68  Fs4
 BYTE   W12
 BYTE   N11  As1  v036
 BYTE   N11  Fn2
 BYTE   N11  As2
 BYTE   N11  Fn3
 BYTE   W12
//  #06 //114   ----------------------------------------
 BYTE   Ds2
 BYTE   N11  Fs2
 BYTE   N11  As2
 BYTE   N11  Ds3
 BYTE   N11  Fs3
 BYTE   W12
 BYTE   Ds2
 BYTE   N11  Fs2
 BYTE   N11  As2
 BYTE   N11  Ds3
 BYTE   N11  Fs3
 BYTE   W12
 BYTE   Ds2
 BYTE   N11  As2
 BYTE   N11  Ds3
 BYTE   W12
 BYTE   Ds2
 BYTE   N23  Fs2
 BYTE   N11  As2
 BYTE   N11  Ds3
 BYTE   N11  Fs3
 BYTE   W12
 BYTE   Ds2
 BYTE   N11  As2
 BYTE   N11  Ds3
 BYTE   W12
 BYTE   Ds2
 BYTE   N11  Fs2
 BYTE   N11  As2
 BYTE   N11  Ds3
 BYTE   N11  Fs3
 BYTE   W12
 BYTE   N23  Cs2
 BYTE   N11  Fs2
 BYTE   N23  As2
 BYTE   N23  Cs3
 BYTE   N11  Fs3
 BYTE   N23  Cs4  v092
 BYTE   W12
 BYTE   N11  Fs2  v036
 BYTE   N11  Fs3
 BYTE   W12
//  #06 //115   ----------------------------------------
 BYTE   PATT
  POIN2 Label_01842376
//  #06 //116   ----------------------------------------
 BYTE   PATT
  POIN2 Label_018423BD
//  #06 //117   ----------------------------------------
 BYTE   PATT
  POIN2 Label_01842433
//  #06 //118   ----------------------------------------
 BYTE   PATT
  POIN2 Label_0184249A
//  #06 //119   ----------------------------------------
 BYTE   PATT
  POIN2 Label_018424E2
//  #06 //120   ----------------------------------------
 BYTE   PATT
  POIN2 Label_01842546
//  #06 //121   ----------------------------------------
 BYTE   PATT
  POIN2 Label_018425AE
//  #06 //122   ----------------------------------------
 BYTE   PATT
  POIN2 Label_01842640
//  #06 //123   ----------------------------------------
 BYTE   PATT
  POIN2 Label_0184269B
//  #06 //124   ----------------------------------------
 BYTE   PATT
  POIN2 Label_018426E9
//  #06 //125   ----------------------------------------
 BYTE   PATT
  POIN2 Label_0184274C
//  #06 //126   ----------------------------------------
 BYTE   PATT
  POIN2 Label_018427B5
//  #06 //127   ----------------------------------------
 BYTE   PATT
  POIN2 Label_0184282E
//  #06 //128   ----------------------------------------
 BYTE   N11  Bn1  v036
 BYTE   N11  Ds2
 BYTE   N11  Gs2
 BYTE   N23  As3  v092
 BYTE   N11  Cs4
 BYTE   N23  Ds4
 BYTE   N23  As4
 BYTE   W12
 BYTE   N11  Bn1  v036
 BYTE   N11  Ds2
 BYTE   N11  Gs2
 BYTE   N11  Fs4  v092
 BYTE   W12
 BYTE   Bn1  v036
 BYTE   N11  Ds2
 BYTE   N11  Gs2
 BYTE   N23  Fs3  v092
 BYTE   N11  Cs4
 BYTE   N23  Ds4
 BYTE   N23  Fs4
 BYTE   W12
 BYTE   N11  Cs2  v036
 BYTE   N11  Fn2
 BYTE   N11  As2
 BYTE   N23  Gs4  v092
 BYTE   W12
 BYTE   N11  Cs2  v036
 BYTE   N11  Fn2
 BYTE   N11  As2
 BYTE   W12
 BYTE   Cs2
 BYTE   N11  Fn2
 BYTE   N11  As2
 BYTE   N12  Fs4  v092
 BYTE   W12
 BYTE   N11  Ds2  v036
 BYTE   N11  Fs2
 BYTE   N11  Bn2
 BYTE   N23  Cs4  v092
 BYTE   N11  Fs4
 BYTE   N23  Cs5
 BYTE   W12
 BYTE   N11  Ds2  v036
 BYTE   N11  Fs2
 BYTE   N11  Bn2
 BYTE   N11  As3  v092
 BYTE   W12
//  #06 //129   ----------------------------------------
 BYTE   Ds2  v036
 BYTE   N11  Fs2
 BYTE   N11  Bn2
 BYTE   N23  Gs3  v092
 BYTE   N11  Bn3
 BYTE   N23  Gs4
 BYTE   W12
 BYTE   N11  Cs2  v036
 BYTE   N11  Fn2
 BYTE   N11  As2
 BYTE   N11  Cs4  v092
 BYTE   W12
 BYTE   Cs2  v036
 BYTE   N11  Fn2
 BYTE   N11  As2
 BYTE   N23  Fs3  v092
 BYTE   N23  As3
 BYTE   N11  Fs4
 BYTE   W12
 BYTE   Cs2  v036
 BYTE   N11  Fn2
 BYTE   N11  As2
 BYTE   N11  Cs4  v092
 BYTE   W12
 BYTE   Ds2  v036
 BYTE   N11  Ds3
 BYTE   N11  Cs5  v092
 BYTE   W12
 BYTE   Ds2  v036
 BYTE   N11  Ds3
 BYTE   N11  Fs4  v092
 BYTE   W12
 BYTE   Cs2  v036
 BYTE   N11  Cs3
 BYTE   N09  Gs3  v092
 BYTE   N01  Fn4
 BYTE   N01  Fs4
 BYTE   N11  Gs4
 BYTE   W01
 BYTE   N01  En4
 BYTE   W02
 BYTE   Dn4
 BYTE   N01  Ds4
 BYTE   W01
 BYTE   Cs4
 BYTE   W02
 BYTE   Bn3
 BYTE   N01  Cn4
 BYTE   W01
 BYTE   As3
 BYTE   W02
 BYTE   Gs3
 BYTE   N01  An3
 BYTE   W01
 BYTE   Gn3
 BYTE   W02
 BYTE   N11  Cs2  v036
 BYTE   N11  Cs3
 BYTE   N11  Fs3  v092
 BYTE   N11  As3
 BYTE   N11  As4
 BYTE   W12
//  #06 //130   ----------------------------------------
 BYTE   PATT
  POIN2 Label_01842961
//  #06 //131   ----------------------------------------
 BYTE   N23  Cs2  v036
 BYTE   N16  Gs2
 BYTE   N11  Cs3
 BYTE   N11  Cs4  v060
 BYTE   W12
 BYTE   N01  Cn3
 BYTE   N01  Cs3
 BYTE   N01  Cn4
 BYTE   N01  Cs4
 BYTE   W01
 BYTE   Bn2
 BYTE   N01  Bn3
 BYTE   W02
 BYTE   An2
 BYTE   N01  As2
 BYTE   N01  An3
 BYTE   N01  As3
 BYTE   W01
 BYTE   Gs2
 BYTE   N01  Gs3
 BYTE   W02
 BYTE   Fs2
 BYTE   N01  Gn2
 BYTE   N01  Fs3
 BYTE   N01  Gn3
 BYTE   W01
 BYTE   Fn2
 BYTE   N01  Fn3
 BYTE   W02
 BYTE   Ds2
 BYTE   N01  En2
 BYTE   N01  Ds3
 BYTE   N01  En3
 BYTE   W01
 BYTE   Dn2
 BYTE   N01  Dn3
 BYTE   W02
 BYTE   N05  Cs2
 BYTE   N05  Cs3
 BYTE   W12
 BYTE   N11  Cs3  v092
 BYTE   N11  Gs3
 BYTE   N11  Cs4
 BYTE   W12
 BYTE   N23  Gs3
 BYTE   N23  Cs4
 BYTE   N23  Gs4
 BYTE   W24
 BYTE   N11  As3
 BYTE   N11  Cs4
 BYTE   N11  As4
 BYTE   W12
 BYTE   TIE  As3
 BYTE   TIE  Cs4
 BYTE   TIE  As4
 BYTE   W12
//  #06 //132   ----------------------------------------
 BYTE   N32  Gs1  v036
 BYTE   N32  Ds2
 BYTE   N32  Gs2
 BYTE   W36
 BYTE   Gs1
 BYTE   N32  Ds2
 BYTE   N32  Gs2
 BYTE   W36
 BYTE   As1
 BYTE   N32  Fn2
 BYTE   N32  As2
 BYTE   W24
//  #06 //133   ----------------------------------------
 BYTE   W12
 BYTE   As1
 BYTE   N32  Fn2
 BYTE   N32  As2
 BYTE   W36
 BYTE   N23  Bn1
 BYTE   N23  Fs2
 BYTE   N23  Bn2
 BYTE   W24
 BYTE   As1
 BYTE   N23  Fn2
 BYTE   N23  As2
 BYTE   W23
 BYTE   EOT
 BYTE   As3  v073
 BYTE   As4
 BYTE   W01
//  #06 //134   ----------------------------------------
 BYTE   N32  Bn1
 BYTE   N32  Fs2
 BYTE   N32  Bn2
 BYTE   W36
 BYTE   Bn1
 BYTE   N32  Fs2
 BYTE   N32  Bn2
 BYTE   W36
 BYTE   Cs2
 BYTE   N32  Gs2
 BYTE   N32  Cs3
 BYTE   W24
//  #06 //135   ----------------------------------------
 BYTE   W12
 BYTE   Cs2
 BYTE   N32  Gs2
 BYTE   N32  Cs3
 BYTE   W24
 BYTE   N11  Fs4  v092
 BYTE   N11  Fs5
 BYTE   W12
 BYTE   N23  Cs2  v036
 BYTE   N23  Gs2
 BYTE   N23  Cs3
 BYTE   N23  Fn4  v092
 BYTE   N23  Fn5
 BYTE   W24
 BYTE   Cs2  v036
 BYTE   N23  Gs2
 BYTE   N23  Cs3
 BYTE   N23  Cs4  v092
 BYTE   N23  Cs5
 BYTE   W24
//  #06 //136   ----------------------------------------
 BYTE   N32  Gs1  v036
 BYTE   N32  Ds2
 BYTE   N32  Gs2
 BYTE   W36
 BYTE   Gs1
 BYTE   N32  Ds2
 BYTE   N32  Gs2
 BYTE   N11  Cs3  v092
 BYTE   N11  Gs3
 BYTE   N11  Cs4
 BYTE   W12
 BYTE   N17  Ds3
 BYTE   N17  Gs3
 BYTE   N17  Ds4
 BYTE   W18
 BYTE   Fn3
 BYTE   N17  Gs3
 BYTE   N17  Fn4
 BYTE   W06
 BYTE   N32  Gs1  v036
 BYTE   N32  Ds2
 BYTE   N32  Gs2
 BYTE   W12
 BYTE   N11  Fs3  v092
 BYTE   N11  Bn3
 BYTE   N11  Fs4
 BYTE   W12
//  #06 //137   ----------------------------------------
 BYTE   N17  Fn3
 BYTE   N17  As3
 BYTE   N17  Fn4
 BYTE   W12
 BYTE   N32  As1  v036
 BYTE   N32  Fn2
 BYTE   N32  As2
 BYTE   W06
 BYTE   N17  Cs3  v092
 BYTE   N17  As3
 BYTE   N17  Cs4
 BYTE   W18
 BYTE   N11  Cs3
 BYTE   N11  As3
 BYTE   N11  Cs4
 BYTE   W12
 BYTE   N23  As1  v036
 BYTE   N23  Fn2
 BYTE   N23  As2
 BYTE   N17  Gs3  v092
 BYTE   N17  Cs4
 BYTE   N17  Gs4
 BYTE   W18
 BYTE   Fs3
 BYTE   N17  Cs4
 BYTE   N17  Fs4
 BYTE   W06
 BYTE   N23  As1  v036
 BYTE   N23  Fn2
 BYTE   N23  As2
 BYTE   W12
 BYTE   N11  Bn3  v092
 BYTE   N11  Fn4
 BYTE   N11  Bn4
 BYTE   W12
//  #06 //138   ----------------------------------------
 BYTE   N32  Bn1  v036
 BYTE   N32  Fs2
 BYTE   N32  Bn2
 BYTE   TIE  As3  v092
 BYTE   TIE  Fs4
 BYTE   TIE  As4
 BYTE   W36
 BYTE   N32  Bn1  v036
 BYTE   N32  Fs2
 BYTE   N32  Bn2
 BYTE   W36
 BYTE   Bn1
 BYTE   N32  Fs2
 BYTE   N32  Bn2
 BYTE   W24
//  #06 //139   ----------------------------------------
 BYTE   N01  Fn3  v092
 BYTE   N01  Fn4
 BYTE   W01
 BYTE   En3
 BYTE   N01  En4
 BYTE   W02
 BYTE   Ds3
 BYTE   N01  Ds4
 BYTE   W03
 BYTE   Dn3
 BYTE   N01  Dn4
 BYTE   W01
 BYTE   Cs3
 BYTE   N01  Cs4
 BYTE   W02
 BYTE   Cn3
 BYTE   N01  Cn4
 BYTE   W03
 BYTE   N19  Cs2  v036
 BYTE   N06  Gs2
 BYTE   N01  Bn2  v092
 BYTE   N19  Cs3  v036
 BYTE   N01  Bn3  v092
 BYTE   W01
 BYTE   EOT
 BYTE   As3
 BYTE   N01  As2
 BYTE   N01  As3
 BYTE   W02
 BYTE   An2
 BYTE   N01  An3
 BYTE   W03
 BYTE   Gs2
 BYTE   N01  Gs3
 BYTE   W01
 BYTE   Gn2
 BYTE   N01  Gn3
 BYTE   W02
 BYTE   Fs2
 BYTE   N01  Fs3
 BYTE   W02
 BYTE   EOT
 BYTE   Fs4  v082
 BYTE   W01
 BYTE   N01  Fn2
 BYTE   N01  Fn3
 BYTE   W01
 BYTE   En2
 BYTE   N01  En3
 BYTE   W02
 BYTE   Ds2
 BYTE   N01  Ds3
 BYTE   W03
 BYTE   Dn2
 BYTE   N01  Dn3
 BYTE   W01
 BYTE   Cs2
 BYTE   N01  Cs3
 BYTE   W02
 BYTE   Cn2
 BYTE   N01  Cn3
 BYTE   W03
 BYTE   Bn1
 BYTE   N09  Fs2  v127
 BYTE   N01  Bn2  v092
 BYTE   N11  Fs3  v127
 BYTE   N11  Fs4
 BYTE   W01
 BYTE   N01  As1  v092
 BYTE   N01  As2
 BYTE   W02
 BYTE   An1
 BYTE   N01  An2
 BYTE   W03
 BYTE   Gs1
 BYTE   N01  Gs2
 BYTE   W01
 BYTE   Gn1
 BYTE   N01  Gn2
 BYTE   W02
 BYTE   Fs1
 BYTE   N01  Fs2
 BYTE   W03
 BYTE   BEND   c_v+0
 BYTE   N44  Fn1
 BYTE   N23  As1  v036
 BYTE   N23  Fn2
 BYTE   N23  As2
 BYTE   N23  As3  v127
 BYTE   N23  As4
 BYTE   W01
 BYTE   BEND   c_v+0
 BYTE   W01
 BYTE   BEND   c_v+0
 BYTE   W01
 BYTE   BEND   c_v+0
 BYTE   W01
 BYTE   BEND   c_v+0
 BYTE   W01
 BYTE   BEND   c_v+0
 BYTE   W01
 BYTE   BEND   c_v+1
 BYTE   W01
 BYTE   BEND   c_v+1
 BYTE   W01
 BYTE   BEND   c_v+1
 BYTE   W01
 BYTE   BEND   c_v+0
 BYTE   W01
 BYTE   BEND   c_v+0
 BYTE   W01
 BYTE   BEND   c_v+0
 BYTE   W01
 BYTE   BEND   c_v+0
 BYTE   W01
 BYTE   BEND   c_v+0
 BYTE   W01
 BYTE   BEND   c_v+0
 BYTE   W01
 BYTE   BEND   c_v+0
 BYTE   W01
 BYTE   BEND   c_v+0
 BYTE   W01
 BYTE   BEND   c_v+0
 BYTE   W01
 BYTE   BEND   c_v+1
 BYTE   W01
 BYTE   BEND   c_v+1
 BYTE   W01
 BYTE   BEND   c_v+1
 BYTE   W01
 BYTE   BEND   c_v+0
 BYTE   W01
 BYTE   BEND   c_v+0
 BYTE   W01
 BYTE   BEND   c_v+0
 BYTE   W01
 BYTE   BEND   c_v+0
 BYTE   N23  As1  v036
 BYTE   N23  Fn2
 BYTE   N23  As2
 BYTE   N28  Cs3  v127
 BYTE   N28  Cs4
 BYTE   N28  Cs5
 BYTE   W01
 BYTE   BEND   c_v+0
 BYTE   W01
 BYTE   BEND   c_v+0
 BYTE   W01
 BYTE   BEND   c_v+0
 BYTE   W01
 BYTE   BEND   c_v+0
 BYTE   W01
 BYTE   BEND   c_v+0
 BYTE   W01
 BYTE   BEND   c_v+1
 BYTE   W01
 BYTE   BEND   c_v+1
 BYTE   W01
 BYTE   BEND   c_v+1
 BYTE   W01
 BYTE   BEND   c_v+0
 BYTE   W01
 BYTE   BEND   c_v+0
 BYTE   W01
 BYTE   BEND   c_v+0
 BYTE   W01
 BYTE   BEND   c_v+0
 BYTE   W01
 BYTE   BEND   c_v+0
 BYTE   W01
 BYTE   BEND   c_v+0
 BYTE   W01
 BYTE   BEND   c_v+0
 BYTE   W01
 BYTE   BEND   c_v+0
 BYTE   W01
 BYTE   BEND   c_v+0
 BYTE   W01
 BYTE   BEND   c_v+1
 BYTE   W01
 BYTE   BEND   c_v+1
 BYTE   W01
 BYTE   BEND   c_v+1
 BYTE   W01
 BYTE   BEND   c_v+0
 BYTE   W01
 BYTE   BEND   c_v+0
 BYTE   W01
 BYTE   BEND   c_v+0
 BYTE   W01
//  #06 //140   ----------------------------------------
 BYTE   BEND   c_v+0
 BYTE   N11  Bn1  v036
 BYTE   N11  Fs2
 BYTE   N23  As2  v092
 BYTE   N11  Bn2  v036
 BYTE   N06  As3  v092
 BYTE   W06
 BYTE   N06
 BYTE   W06
 BYTE   N11  Bn1  v036
 BYTE   N11  Fs2
 BYTE   N11  Bn2
 BYTE   N06  As3  v092
 BYTE   W06
 BYTE   N05
 BYTE   W06
 BYTE   N11  Bn1  v036
 BYTE   N11  Fs2
 BYTE   N11  As2  v092
 BYTE   N11  Bn2  v036
 BYTE   N06  As3  v092
 BYTE   W06
 BYTE   N05
 BYTE   W06
 BYTE   N11  Bn1  v036
 BYTE   N11  Fs2
 BYTE   N23  As2  v092
 BYTE   N11  Bn2  v036
 BYTE   N06  As3  v092
 BYTE   W06
 BYTE   N06
 BYTE   W06
 BYTE   N11  Bn1  v036
 BYTE   N11  Fs2
 BYTE   N11  Bn2
 BYTE   N06  As3  v092
 BYTE   W06
 BYTE   N05
 BYTE   W06
 BYTE   N11  Bn1  v036
 BYTE   N11  Fs2
 BYTE   N11  As2  v092
 BYTE   N11  Bn2  v036
 BYTE   N06  As3  v092
 BYTE   W06
 BYTE   N05
 BYTE   W06
 BYTE   N11  Bn1  v036
 BYTE   N11  Fs2
 BYTE   N32  As2  v092
 BYTE   N11  Bn2  v036
 BYTE   N06  As3  v092
 BYTE   W06
 BYTE   N06
 BYTE   W06
 BYTE   N11  Bn1  v036
 BYTE   N11  Fs2
 BYTE   N11  Bn2
 BYTE   N06  As3  v092
 BYTE   W06
 BYTE   N06
 BYTE   W06
//  #06 //141   ----------------------------------------
 BYTE   N11  Cs2  v036
 BYTE   N11  Gs2
 BYTE   N11  Cs3
 BYTE   N06  As3  v092
 BYTE   W06
 BYTE   N05
 BYTE   W06
 BYTE   N11  Cs2  v036
 BYTE   N11  Gs2
 BYTE   N23  As2  v092
 BYTE   N11  Cs3  v036
 BYTE   N06  As3  v092
 BYTE   W06
 BYTE   N06
 BYTE   W06
 BYTE   N11  Cs2  v036
 BYTE   N11  Gs2
 BYTE   N11  Cs3
 BYTE   N06  As3  v092
 BYTE   W06
 BYTE   N05
 BYTE   W06
 BYTE   BEND   c_v+0
 BYTE   N11  Cs2  v036
 BYTE   N11  Gs2
 BYTE   N23  As2  v092
 BYTE   N11  Cs3  v036
 BYTE   N23  As3  v092
 BYTE   W01
 BYTE   BEND   c_v+0
 BYTE   W01
 BYTE   BEND   c_v+0
 BYTE   W01
 BYTE   BEND   c_v+0
 BYTE   W01
 BYTE   BEND   c_v+0
 BYTE   W01
 BYTE   BEND   c_v+0
 BYTE   W01
 BYTE   BEND   c_v+1
 BYTE   W01
 BYTE   BEND   c_v+1
 BYTE   W01
 BYTE   BEND   c_v+1
 BYTE   W01
 BYTE   BEND   c_v+0
 BYTE   W01
 BYTE   BEND   c_v+0
 BYTE   W01
 BYTE   BEND   c_v+0
 BYTE   W01
 BYTE   BEND   c_v+0
 BYTE   N11  Cs2  v036
 BYTE   N11  Gs2
 BYTE   N11  Cs3
 BYTE   W01
 BYTE   BEND   c_v+0
 BYTE   W01
 BYTE   BEND   c_v+0
 BYTE   W01
 BYTE   BEND   c_v+0
 BYTE   W01
 BYTE   BEND   c_v+0
 BYTE   W01
 BYTE   BEND   c_v+0
 BYTE   W01
 BYTE   BEND   c_v+1
 BYTE   W01
 BYTE   BEND   c_v+1
 BYTE   W01
 BYTE   BEND   c_v+1
 BYTE   W01
 BYTE   BEND   c_v+0
 BYTE   W01
 BYTE   BEND   c_v+0
 BYTE   W01
 BYTE   BEND   c_v+0
 BYTE   W01
 BYTE   BEND   c_v+0
 BYTE   N11  Cs2
 BYTE   N11  Gs2
 BYTE   N11  Cs3
 BYTE   N11  As3  v092
 BYTE   W12
 BYTE   Cs2  v036
 BYTE   N11  Gs2
 BYTE   N11  Cs3
 BYTE   N11  Bn3  v092
 BYTE   W12
 BYTE   Cs2  v036
 BYTE   N11  Gs2
 BYTE   N11  Cs3
 BYTE   N23  Cs4  v092
 BYTE   W12
//  #06 //142   ----------------------------------------
 BYTE   N11  As1  v036
 BYTE   N11  Fn2
 BYTE   N11  As2
 BYTE   W12
 BYTE   As1
 BYTE   N11  Fn2
 BYTE   N11  As2
 BYTE   N11  Cs4  v092
 BYTE   W12
 BYTE   As1  v036
 BYTE   N11  Fn2
 BYTE   N11  As2
 BYTE   N11  Bn3  v092
 BYTE   W12
 BYTE   As1  v036
 BYTE   N11  Fn2
 BYTE   N11  As2
 BYTE   N23  As3  v092
 BYTE   W12
 BYTE   N11  As1  v036
 BYTE   N11  Fn2
 BYTE   N11  As2
 BYTE   W12
 BYTE   As1
 BYTE   N11  Fn2
 BYTE   N11  As2
 BYTE   N11  As3  v092
 BYTE   W12
 BYTE   As1  v036
 BYTE   N11  Fn2
 BYTE   N11  As2
 BYTE   N11  Cs4  v092
 BYTE   W12
 BYTE   As1  v036
 BYTE   N11  Fn2
 BYTE   N11  As2
 BYTE   N23  Gs4  v092
 BYTE   W12
//  #06 //143   ----------------------------------------
 BYTE   N11  Ds2  v036
 BYTE   N11  As2
 BYTE   N11  Ds3
 BYTE   W12
 BYTE   Ds2
 BYTE   N11  As2
 BYTE   N11  Ds3
 BYTE   N11  Fs4  v092
 BYTE   W12
 BYTE   Ds2  v036
 BYTE   N11  As2
 BYTE   N11  Ds3
 BYTE   N11  Fn4  v092
 BYTE   W12
 BYTE   Ds2  v036
 BYTE   N11  As2
 BYTE   N11  Ds3
 BYTE   N11  Fs4  v092
 BYTE   W12
 BYTE   Ds2  v036
 BYTE   N09  As2
 BYTE   N07  Ds3
 BYTE   N01  En4  v092
 BYTE   N01  Fn4
 BYTE   N01  Fs4
 BYTE   W01
 BYTE   Dn4
 BYTE   N01  Ds4
 BYTE   W01
 BYTE   Cs4
 BYTE   W01
 BYTE   As3
 BYTE   N01  Bn3
 BYTE   N01  Cn4
 BYTE   W01
 BYTE   Gs3
 BYTE   N01  An3
 BYTE   W01
 BYTE   Gn3
 BYTE   W01
 BYTE   En3
 BYTE   N01  Fn3
 BYTE   N01  Fs3
 BYTE   W01
 BYTE   Dn3
 BYTE   N01  Ds3
 BYTE   W01
 BYTE   Cs3
 BYTE   W01
 BYTE   As2
 BYTE   N01  Bn2
 BYTE   N01  Cn3
 BYTE   W01
 BYTE   Gs2
 BYTE   N01  An2
 BYTE   W01
 BYTE   Gn2
 BYTE   W01
 BYTE   N11  Ds2  v036
 BYTE   N11  Fs2  v092
 BYTE   N11  As2  v036
 BYTE   N11  Ds3
 BYTE   W12
 BYTE   Ds2
 BYTE   N11  As2
 BYTE   N23  Cs3  v092
 BYTE   N11  Ds3  v036
 BYTE   N23  Cs4  v092
 BYTE   W12
 BYTE   N11  Ds2  v036
 BYTE   N11  As2
 BYTE   N11  Ds3
 BYTE   W12
//  #06 //144   ----------------------------------------
 BYTE   Gs1
 BYTE   N11  Ds2
 BYTE   N11  Gs2
 BYTE   N05  Bn2  v092
 BYTE   N05  Bn3
 BYTE   W06
 BYTE   Bn2
 BYTE   N05  Bn3
 BYTE   W06
 BYTE   N11  Gs1  v036
 BYTE   N11  Ds2
 BYTE   N11  Gs2
 BYTE   N05  Bn2  v092
 BYTE   N05  Bn3
 BYTE   W06
 BYTE   Bn2
 BYTE   N05  Bn3
 BYTE   W06
 BYTE   N11  As1  v036
 BYTE   N11  Fn2
 BYTE   N05  As2
 BYTE   N05  As3  v092
 BYTE   W06
 BYTE   As2
 BYTE   N05  As3
 BYTE   W06
 BYTE   N11  As1  v036
 BYTE   N11  Fn2
 BYTE   N05  As2
 BYTE   N05  As3  v092
 BYTE   W06
 BYTE   As2
 BYTE   N05  As3
 BYTE   W06
 BYTE   N11  Bn1  v036
 BYTE   N11  Fs2
 BYTE   N05  Gs2  v092
 BYTE   N11  Bn2  v036
 BYTE   N05  Gs3  v092
 BYTE   W06
 BYTE   Gs2
 BYTE   N05  Gs3
 BYTE   W06
 BYTE   N11  Bn1  v036
 BYTE   N11  Fs2
 BYTE   N05  Gs2  v092
 BYTE   N11  Bn2  v036
 BYTE   N05  Gs3  v092
 BYTE   W06
 BYTE   Gs2
 BYTE   N05  Gs3
 BYTE   W06
 BYTE   N11  As1  v036
 BYTE   N11  Fn2
 BYTE   N05  Fs2  v092
 BYTE   N11  As2  v036
 BYTE   N05  Fs3  v092
 BYTE   W06
 BYTE   Fs2
 BYTE   N05  Fs3
 BYTE   W06
 BYTE   N11  As1  v036
 BYTE   N11  Fn2
 BYTE   N05  Fs2  v092
 BYTE   N11  As2  v036
 BYTE   N05  Fs3  v092
 BYTE   W06
 BYTE   Fs2
 BYTE   N05  Fs3
 BYTE   W06
//  #06 //145   ----------------------------------------
 BYTE   N11  Gs1  v036
 BYTE   N11  Ds2
 BYTE   N05  Fn2  v092
 BYTE   N11  Gs2  v036
 BYTE   N05  Fn3  v092
 BYTE   W06
 BYTE   Fn2
 BYTE   N05  Fn3
 BYTE   W06
 BYTE   N11  Gs1  v036
 BYTE   N11  Ds2
 BYTE   N05  Fn2  v092
 BYTE   N11  Gs2  v036
 BYTE   N05  Fn3  v092
 BYTE   W06
 BYTE   Fn2
 BYTE   N05  Fn3
 BYTE   W06
 BYTE   N11  As1  v036
 BYTE   N11  Fn2
 BYTE   N05  Fs2  v092
 BYTE   N11  As2  v036
 BYTE   N05  Fs3  v092
 BYTE   W06
 BYTE   Fs2
 BYTE   N05  Fs3
 BYTE   W06
 BYTE   N11  As1  v036
 BYTE   N11  Fn2
 BYTE   N05  Fs2  v092
 BYTE   N11  As2  v036
 BYTE   N05  Fs3  v092
 BYTE   W06
 BYTE   Fs2
 BYTE   N05  Fs3
 BYTE   W06
 BYTE   N11  Gs1  v036
 BYTE   N11  Ds2
 BYTE   N05  Gs2
 BYTE   N05  Gs3  v092
 BYTE   W06
 BYTE   Gs2
 BYTE   N05  Gs3
 BYTE   W06
 BYTE   N11  Gs1  v036
 BYTE   N11  Ds2
 BYTE   N05  Gs2
 BYTE   N05  Gs3  v092
 BYTE   W06
 BYTE   Gs2
 BYTE   N05  Gs3
 BYTE   W06
 BYTE   N04  As1  v036
 BYTE   N01  Cs2  v092
 BYTE   N11  Fn2  v036
 BYTE   N04  As2
 BYTE   N01  Cs3  v092
 BYTE   W01
 BYTE   Cn2
 BYTE   N01  Cn3
 BYTE   W01
 BYTE   Bn1
 BYTE   N01  Bn2
 BYTE   W02
 BYTE   As1
 BYTE   N01  As2
 BYTE   W01
 BYTE   An1
 BYTE   N01  An2
 BYTE   W02
 BYTE   Gs1
 BYTE   N01  Gs2
 BYTE   W02
 BYTE   Gn1
 BYTE   N01  Gn2
 BYTE   W01
 BYTE   Fs1
 BYTE   N01  Fs2
 BYTE   W01
 BYTE   Fn1
 BYTE   W01
 BYTE   N11  As1  v036
 BYTE   N01  Fn2
 BYTE   N11  As2
 BYTE   W01
 BYTE   N01  En1  v092
 BYTE   N01  En2
 BYTE   W01
 BYTE   Ds1
 BYTE   N01  Ds2
 BYTE   W02
 BYTE   Dn1
 BYTE   N01  Dn2
 BYTE   W02
 BYTE   N05  Cs1
 BYTE   N05  Cs2
 BYTE   W06
//  #06 //146   ----------------------------------------
 BYTE   BEND   c_v+0
 BYTE   N44  Ds1
 BYTE   N11  Bn1  v036
 BYTE   N44  Ds2  v092
 BYTE   N11  Fs2  v036
 BYTE   N11  Bn2
 BYTE   W01
 BYTE   BEND   c_v+0
 BYTE   W01
 BYTE   BEND   c_v+0
 BYTE   W01
 BYTE   BEND   c_v+0
 BYTE   W01
 BYTE   BEND   c_v+1
 BYTE   W01
 BYTE   BEND   c_v+2
 BYTE   W01
 BYTE   BEND   c_v+2
 BYTE   W01
 BYTE   BEND   c_v+2
 BYTE   W01
 BYTE   BEND   c_v+2
 BYTE   W01
 BYTE   BEND   c_v+1
 BYTE   W01
 BYTE   BEND   c_v+1
 BYTE   W01
 BYTE   BEND   c_v+0
 BYTE   W01
 BYTE   BEND   c_v+0
 BYTE   N11  Bn1
 BYTE   N11  Fs2
 BYTE   N11  Bn2
 BYTE   W01
 BYTE   BEND   c_v+0
 BYTE   W01
 BYTE   BEND   c_v+0
 BYTE   W01
 BYTE   BEND   c_v+0
 BYTE   W01
 BYTE   BEND   c_v+1
 BYTE   W01
 BYTE   BEND   c_v+2
 BYTE   W01
 BYTE   BEND   c_v+2
 BYTE   W01
 BYTE   BEND   c_v+2
 BYTE   W01
 BYTE   BEND   c_v+2
 BYTE   W01
 BYTE   BEND   c_v+1
 BYTE   W01
 BYTE   BEND   c_v+1
 BYTE   W01
 BYTE   BEND   c_v+0
 BYTE   W01
 BYTE   BEND   c_v+0
 BYTE   N11  Bn1
 BYTE   N11  Fs2
 BYTE   N11  Bn2
 BYTE   W01
 BYTE   BEND   c_v+0
 BYTE   W01
 BYTE   BEND   c_v+0
 BYTE   W01
 BYTE   BEND   c_v+0
 BYTE   W01
 BYTE   BEND   c_v+1
 BYTE   W01
 BYTE   BEND   c_v+2
 BYTE   W01
 BYTE   BEND   c_v+2
 BYTE   W01
 BYTE   BEND   c_v+2
 BYTE   W01
 BYTE   BEND   c_v+2
 BYTE   W01
 BYTE   BEND   c_v+1
 BYTE   W01
 BYTE   BEND   c_v+1
 BYTE   W01
 BYTE   BEND   c_v+0
 BYTE   W01
 BYTE   BEND   c_v+0
 BYTE   N11  Bn1
 BYTE   N11  Fs2
 BYTE   N11  Bn2
 BYTE   W01
 BYTE   BEND   c_v+0
 BYTE   W01
 BYTE   BEND   c_v+0
 BYTE   W01
 BYTE   BEND   c_v+0
 BYTE   W01
 BYTE   BEND   c_v+1
 BYTE   W01
 BYTE   BEND   c_v+2
 BYTE   W01
 BYTE   BEND   c_v+2
 BYTE   W01
 BYTE   BEND   c_v+2
 BYTE   W01
 BYTE   BEND   c_v+2
 BYTE   W01
 BYTE   BEND   c_v+1
 BYTE   W01
 BYTE   BEND   c_v+1
 BYTE   W01
 BYTE   BEND   c_v+0
 BYTE   W01
 BYTE   BEND   c_v+0
 BYTE   N11  Bn1
 BYTE   N11  Fs2
 BYTE   N11  Bn2
 BYTE   W01
 BYTE   BEND   c_v+0
 BYTE   W01
 BYTE   BEND   c_v+0
 BYTE   W01
 BYTE   BEND   c_v+0
 BYTE   W01
 BYTE   BEND   c_v+1
 BYTE   W01
 BYTE   BEND   c_v+2
 BYTE   W01
 BYTE   BEND   c_v+2
 BYTE   W01
 BYTE   BEND   c_v+2
 BYTE   W01
 BYTE   BEND   c_v+2
 BYTE   W01
 BYTE   BEND   c_v+1
 BYTE   W01
 BYTE   BEND   c_v+1
 BYTE   W01
 BYTE   BEND   c_v+0
 BYTE   W01
 BYTE   BEND   c_v+0
 BYTE   N44  Fs1  v092
 BYTE   N11  Bn1  v036
 BYTE   N11  Fs2
 BYTE   N11  Bn2
 BYTE   W01
 BYTE   BEND   c_v+0
 BYTE   W01
 BYTE   BEND   c_v+0
 BYTE   W01
 BYTE   BEND   c_v+0
 BYTE   W01
 BYTE   BEND   c_v+1
 BYTE   W01
 BYTE   BEND   c_v+2
 BYTE   W01
 BYTE   BEND   c_v+2
 BYTE   W01
 BYTE   BEND   c_v+2
 BYTE   W01
 BYTE   BEND   c_v+2
 BYTE   W01
 BYTE   BEND   c_v+1
 BYTE   W01
 BYTE   BEND   c_v+1
 BYTE   W01
 BYTE   BEND   c_v+0
 BYTE   W01
 BYTE   BEND   c_v+0
 BYTE   N11  Bn1
 BYTE   N11  Fs2
 BYTE   N11  Bn2
 BYTE   W01
 BYTE   BEND   c_v+0
 BYTE   W01
 BYTE   BEND   c_v+0
 BYTE   W01
 BYTE   BEND   c_v+0
 BYTE   W01
 BYTE   BEND   c_v+1
 BYTE   W01
 BYTE   BEND   c_v+2
 BYTE   W01
 BYTE   BEND   c_v+2
 BYTE   W01
 BYTE   BEND   c_v+2
 BYTE   W01
 BYTE   BEND   c_v+2
 BYTE   W01
 BYTE   BEND   c_v+1
 BYTE   W01
 BYTE   BEND   c_v+1
 BYTE   W01
 BYTE   BEND   c_v+0
 BYTE   W01
 BYTE   BEND   c_v+0
 BYTE   N11  Bn1
 BYTE   N11  Fs2
 BYTE   N11  Bn2
 BYTE   W01
 BYTE   BEND   c_v+0
 BYTE   W01
 BYTE   BEND   c_v+0
 BYTE   W01
 BYTE   BEND   c_v+0
 BYTE   W01
 BYTE   BEND   c_v+1
 BYTE   W01
 BYTE   BEND   c_v+2
 BYTE   W01
 BYTE   BEND   c_v+2
 BYTE   W01
 BYTE   BEND   c_v+2
 BYTE   W01
 BYTE   BEND   c_v+2
 BYTE   W01
 BYTE   BEND   c_v+1
 BYTE   W01
 BYTE   BEND   c_v+1
 BYTE   W01
 BYTE   BEND   c_v+0
 BYTE   W01
//  #06 //147   ----------------------------------------
 BYTE   BEND   c_v+0
 BYTE   N11  Cs2
 BYTE   N11  Gs2
 BYTE   N11  Cs3
 BYTE   W01
 BYTE   BEND   c_v+0
 BYTE   W01
 BYTE   BEND   c_v+0
 BYTE   W01
 BYTE   BEND   c_v+0
 BYTE   W01
 BYTE   BEND   c_v+1
 BYTE   W01
 BYTE   BEND   c_v+2
 BYTE   W01
 BYTE   BEND   c_v+2
 BYTE   W01
 BYTE   BEND   c_v+2
 BYTE   W01
 BYTE   BEND   c_v+2
 BYTE   W01
 BYTE   BEND   c_v+1
 BYTE   W01
 BYTE   BEND   c_v+1
 BYTE   W01
 BYTE   BEND   c_v+0
 BYTE   W01
 BYTE   BEND   c_v+0
 BYTE   N44  As1  v092
 BYTE   N11  Cs2  v036
 BYTE   N11  Gs2
 BYTE   N44  As2  v092
 BYTE   N11  Cs3  v036
 BYTE   W01
 BYTE   BEND   c_v+0
 BYTE   W01
 BYTE   BEND   c_v+0
 BYTE   W01
 BYTE   BEND   c_v+0
 BYTE   W01
 BYTE   BEND   c_v+1
 BYTE   W01
 BYTE   BEND   c_v+2
 BYTE   W01
 BYTE   BEND   c_v+2
 BYTE   W01
 BYTE   BEND   c_v+2
 BYTE   W01
 BYTE   BEND   c_v+2
 BYTE   W01
 BYTE   BEND   c_v+1
 BYTE   W01
 BYTE   BEND   c_v+1
 BYTE   W01
 BYTE   BEND   c_v+0
 BYTE   W01
 BYTE   BEND   c_v+0
 BYTE   N11  Cs2
 BYTE   N11  Gs2
 BYTE   N11  Cs3
 BYTE   W01
 BYTE   BEND   c_v+0
 BYTE   W01
 BYTE   BEND   c_v+0
 BYTE   W01
 BYTE   BEND   c_v+0
 BYTE   W01
 BYTE   BEND   c_v+1
 BYTE   W01
 BYTE   BEND   c_v+2
 BYTE   W01
 BYTE   BEND   c_v+2
 BYTE   W01
 BYTE   BEND   c_v+2
 BYTE   W01
 BYTE   BEND   c_v+2
 BYTE   W01
 BYTE   BEND   c_v+1
 BYTE   W01
 BYTE   BEND   c_v+1
 BYTE   W01
 BYTE   BEND   c_v+0
 BYTE   W01
 BYTE   BEND   c_v+0
 BYTE   N11  Cs2
 BYTE   N11  Gs2
 BYTE   N11  Cs3
 BYTE   W01
 BYTE   BEND   c_v+0
 BYTE   W01
 BYTE   BEND   c_v+0
 BYTE   W01
 BYTE   BEND   c_v+0
 BYTE   W01
 BYTE   BEND   c_v+1
 BYTE   W01
 BYTE   BEND   c_v+2
 BYTE   W01
 BYTE   BEND   c_v+2
 BYTE   W01
 BYTE   BEND   c_v+2
 BYTE   W01
 BYTE   BEND   c_v+2
 BYTE   W01
 BYTE   BEND   c_v+1
 BYTE   W01
 BYTE   BEND   c_v+1
 BYTE   W01
 BYTE   BEND   c_v+0
 BYTE   W01
 BYTE   BEND   c_v+0
 BYTE   N11  Cs2
 BYTE   N11  Gs2
 BYTE   N11  Cs3
 BYTE   W01
 BYTE   BEND   c_v+0
 BYTE   W01
 BYTE   BEND   c_v+0
 BYTE   W01
 BYTE   BEND   c_v+0
 BYTE   W01
 BYTE   BEND   c_v+1
 BYTE   W01
 BYTE   BEND   c_v+2
 BYTE   W01
 BYTE   BEND   c_v+2
 BYTE   W01
 BYTE   BEND   c_v+2
 BYTE   W01
 BYTE   BEND   c_v+2
 BYTE   W01
 BYTE   BEND   c_v+1
 BYTE   W01
 BYTE   BEND   c_v+1
 BYTE   W01
 BYTE   BEND   c_v+0
 BYTE   W01
 BYTE   BEND   c_v+0
 BYTE   N11  Cs2
 BYTE   N11  Gs2
 BYTE   N11  Cs3
 BYTE   W12
 BYTE   Cs2
 BYTE   N11  Gs2
 BYTE   N11  Cs3
 BYTE   N05  Cs4  v092
 BYTE   W06
 BYTE   N05
 BYTE   W06
 BYTE   N11  Cs2  v036
 BYTE   N11  Gs2
 BYTE   N11  Cs3
 BYTE   N05  Cs4  v092
 BYTE   W06
 BYTE   N05
 BYTE   W06
//  #06 //148   ----------------------------------------
 BYTE   N11  Fs1  v036
 BYTE   N11  Cs2
 BYTE   N11  Fs2
 BYTE   N05  Cs3  v092
 BYTE   N05  Cs4
 BYTE   N11  Fs4
 BYTE   W06
 BYTE   N05  Cs3
 BYTE   N05  Cs4
 BYTE   W06
 BYTE   N11  Fs1  v036
 BYTE   N11  Cs2
 BYTE   N11  Fs2
 BYTE   N05  Cs3  v092
 BYTE   N05  Cs4
 BYTE   W06
 BYTE   Cs3
 BYTE   N05  Cs4
 BYTE   W06
 BYTE   N11  Fs1  v036
 BYTE   N11  Cs2
 BYTE   N11  Fs2
 BYTE   N05  Cs3  v092
 BYTE   N05  Cs4
 BYTE   N11  As4
 BYTE   W06
 BYTE   N05  Cs3
 BYTE   N05  Cs4
 BYTE   W06
 BYTE   N11  Fs1  v036
 BYTE   N11  Cs2
 BYTE   N11  Fs2
 BYTE   N05  Cs3  v092
 BYTE   N05  Cs4
 BYTE   W06
 BYTE   Cs3
 BYTE   N05  Cs4
 BYTE   W06
 BYTE   N11  Fs1  v036
 BYTE   N11  Cs2
 BYTE   N11  Fs2
 BYTE   N05  Cs3  v092
 BYTE   N05  Cs4
 BYTE   N11  Gs4
 BYTE   W06
 BYTE   N05  Cs3
 BYTE   N05  Cs4
 BYTE   W06
 BYTE   N11  Fs1  v036
 BYTE   N11  Cs2
 BYTE   N11  Fs2
 BYTE   N05  Cs3  v092
 BYTE   N05  Cs4
 BYTE   W06
 BYTE   Cs3
 BYTE   N05  Cs4
 BYTE   W06
 BYTE   N11  Fs1  v036
 BYTE   N11  Cs2
 BYTE   N11  Fs2
 BYTE   N05  Cs3  v092
 BYTE   N05  Cs4
 BYTE   N11  As4
 BYTE   W06
 BYTE   N05  Cs3
 BYTE   N05  Cs4
 BYTE   W06
 BYTE   N11  Fs1  v036
 BYTE   N11  Cs2
 BYTE   N11  Fs2
 BYTE   N05  Cs3  v092
 BYTE   N05  Cs4
 BYTE   W06
 BYTE   Cs3
 BYTE   N05  Cs4
 BYTE   W06
//  #06 //149   ----------------------------------------
 BYTE   N11  Fs1  v036
 BYTE   N11  Cs2
 BYTE   N11  Fs2
 BYTE   N05  Cs3  v092
 BYTE   N05  Cs4
 BYTE   N11  Gs4
 BYTE   W06
 BYTE   N05  Cs3
 BYTE   N05  Cs4
 BYTE   W06
 BYTE   N11  Fs1  v036
 BYTE   N11  Cs2
 BYTE   N11  Fs2
 BYTE   N05  Cs3  v092
 BYTE   N05  Cs4
 BYTE   W06
 BYTE   Cs3
 BYTE   N05  Cs4
 BYTE   W06
 BYTE   N11  Fs1  v036
 BYTE   N11  Cs2
 BYTE   N11  Fs2
 BYTE   N05  Cs3  v092
 BYTE   N05  Cs4
 BYTE   N11  As4
 BYTE   W06
 BYTE   N05  Cs3
 BYTE   N05  Cs4
 BYTE   W06
 BYTE   N11  Fs1  v036
 BYTE   N11  Cs2
 BYTE   N11  Fs2
 BYTE   N05  Cs3  v092
 BYTE   N05  Cs4
 BYTE   W06
 BYTE   Cs3
 BYTE   N05  Cs4
 BYTE   W06
 BYTE   N11  Fs1  v036
 BYTE   N11  Cs2
 BYTE   N11  Fs2
 BYTE   N05  Cs3  v092
 BYTE   N05  Cs4
 BYTE   N11  Fs4
 BYTE   W06
 BYTE   N05  Cs3
 BYTE   N05  Cs4
 BYTE   W06
 BYTE   N11  Fs1  v036
 BYTE   N11  Cs2
 BYTE   N11  Fs2
 BYTE   N05  Cs3  v092
 BYTE   N05  Cs4
 BYTE   W06
 BYTE   Cs3
 BYTE   N05  Cs4
 BYTE   W06
 BYTE   N11  Fs1  v036
 BYTE   N11  Cs2
 BYTE   N11  Fs2
 BYTE   N05  Cs3  v092
 BYTE   N05  Cs4
 BYTE   N11  As4
 BYTE   W06
 BYTE   N05  Cs3
 BYTE   N05  Cs4
 BYTE   W06
 BYTE   N11  Fs1  v036
 BYTE   N11  Cs2
 BYTE   N11  Fs2
 BYTE   N05  Cs3  v092
 BYTE   N05  Cs4
 BYTE   W06
 BYTE   Cs3
 BYTE   N05  Cs4
 BYTE   W06
//  #06 //150   ----------------------------------------
 BYTE   BEND   c_v+26
 BYTE   N92  Cs2  v036
 BYTE   N92  Gs2
 BYTE   N92  Cs3
 BYTE   TIE  Ds4  v092
 BYTE   W96
//  #06 //151   ----------------------------------------
 BYTE   W80
 BYTE   BEND   c_v+25
 BYTE   W01
 BYTE   BEND   c_v+24
 BYTE   W01
 BYTE   BEND   c_v+22
 BYTE   W01
 BYTE   BEND   c_v+21
 BYTE   W01
 BYTE   BEND   c_v+18
 BYTE   W01
 BYTE   BEND   c_v+17
 BYTE   W01
 BYTE   BEND   c_v+16
 BYTE   W01
 BYTE   BEND   c_v+14
 BYTE   W01
 BYTE   BEND   c_v+11
 BYTE   W01
 BYTE   BEND   c_v+10
 BYTE   W01
 BYTE   BEND   c_v+9
 BYTE   W01
 BYTE   BEND   c_v+8
 BYTE   W01
 BYTE   BEND   c_v+5
 BYTE   W01
 BYTE   BEND   c_v+3
 BYTE   W01
 BYTE   BEND   c_v+2
 BYTE   W01
 BYTE   EOT
 BYTE   BEND   c_v+1
 BYTE   W01
//  #06 //152   ----------------------------------------
 BYTE   BEND   c_v+0
 BYTE   N11  Ds2  v036
 BYTE   W12
 BYTE   As2
 BYTE   W12
 BYTE   Ds3
 BYTE   W12
 BYTE   N12  Fn3
 BYTE   W12
 BYTE   N11  Fn3  v092
 BYTE   W12
 BYTE   N23  Ds3  v036
 BYTE   W12
 BYTE   N11  Fs3  v092
 BYTE   W12
 BYTE   N23  Fn3
 BYTE   N23  Gs3  v036
 BYTE   W12
//  #06 //153   ----------------------------------------
 BYTE   W12
 BYTE   N11  Cs3
 BYTE   W12
 BYTE   Cs3  v092
 BYTE   W12
 BYTE   N56  Fn3  v036
 BYTE   W36
 BYTE   N11  As2  v092
 BYTE   W12
 BYTE   Bn2
 BYTE   W12
//  #06 //154   ----------------------------------------
 BYTE   Bn1  v036
 BYTE   N23  Cs3  v092
 BYTE   W12
 BYTE   N11  Fs2  v036
 BYTE   W12
 BYTE   Bn2
 BYTE   N11  Ds3  v092
 BYTE   W12
 BYTE   N23  Cs3  v036
 BYTE   W24
 BYTE   N11  Fs2  v092
 BYTE   N23  Bn2  v036
 BYTE   W12
 BYTE   N44  Fs2  v092
 BYTE   W12
 BYTE   N23  Ds3  v036
 BYTE   W12
//  #06 //155   ----------------------------------------
 BYTE   W12
 BYTE   N32  Cs3
 BYTE   W36
 BYTE   N23  Bn2  v092
 BYTE   W24
 BYTE   As2
 BYTE   W24
//  #06 //156   ----------------------------------------
 BYTE   N11  Cs2  v036
 BYTE   W12
 BYTE   Gs2
 BYTE   W12
 BYTE   As2
 BYTE   W12
 BYTE   As2  v092
 BYTE   N12  Cs3  v036
 BYTE   W12
 BYTE   N11  Cs3  v092
 BYTE   W12
 BYTE   N23  As2  v036
 BYTE   W12
 BYTE   N11  Cs3  v092
 BYTE   W12
 BYTE   N23  Dn3  v036
 BYTE   N32  Gs3  v092
 BYTE   W12
//  #06 //157   ----------------------------------------
 BYTE   W12
 BYTE   N23  As2  v036
 BYTE   W12
 BYTE   N11  Fs3  v092
 BYTE   W12
 BYTE   N23  Dn3  v036
 BYTE   N32  Fn3  v092
 BYTE   W24
 BYTE   As2  v036
 BYTE   W12
 BYTE   N11  Fs3  v092
 BYTE   W12
 BYTE   N48  Fn3
 BYTE   W12
//  #06 //158   ----------------------------------------
 BYTE   N11  Ds2  v036
 BYTE   W12
 BYTE   As2
 BYTE   W12
 BYTE   Ds3
 BYTE   W12
 BYTE   N32  Fn3
 BYTE   W36
 BYTE   N11  Ds3  v092
 BYTE   W12
 BYTE   N56  Fs3
 BYTE   W12
//  #06 //159   ----------------------------------------
 BYTE   N44  Cs3  v036
 BYTE   W84
 BYTE   N11  As2  v092
 BYTE   N11  As3
 BYTE   W12
//  #06 //160   ----------------------------------------
 BYTE   N05  Gs1  v036
 BYTE   N05  Ds2
 BYTE   N05  Gs2
 BYTE   N32  Cs3
 BYTE   N17  Fn3  v092
 BYTE   N17  Fn4
 BYTE   W12
 BYTE   N05  Gs1  v036
 BYTE   N05  Ds2
 BYTE   N05  Gs2
 BYTE   W06
 BYTE   N17  Fs3  v092
 BYTE   N17  Fs4
 BYTE   W06
 BYTE   N05  Gs1  v036
 BYTE   N05  Ds2
 BYTE   N05  Gs2
 BYTE   W12
 BYTE   Gs1
 BYTE   N05  Ds2
 BYTE   TIE  Fs2
 BYTE   N05  Gs2
 BYTE   N11  As2  v092
 BYTE   N11  As3
 BYTE   W12
 BYTE   N05  Gs1  v036
 BYTE   N05  Ds2
 BYTE   N05  Gs2
 BYTE   N17  Fn3  v092
 BYTE   N17  Fn4
 BYTE   W12
 BYTE   N05  Gs1  v036
 BYTE   N05  Ds2
 BYTE   N05  Gs2
 BYTE   W06
 BYTE   N17  Fs3  v092
 BYTE   N17  Fs4
 BYTE   W06
 BYTE   N05  Gs1  v036
 BYTE   N05  Ds2
 BYTE   N05  Gs2
 BYTE   W12
 BYTE   Gs1
 BYTE   N05  Ds2
 BYTE   N05  Gs2
 BYTE   N11  Fs3  v092
 BYTE   N11  Fs4
 BYTE   W12
//  #06 //161   ----------------------------------------
 BYTE   N05  As1  v036
 BYTE   N05  Fn2
 BYTE   N05  As2
 BYTE   N17  Gs3  v092
 BYTE   N17  Gs4
 BYTE   W12
 BYTE   N05  As1  v036
 BYTE   N05  Fn2
 BYTE   N05  As2
 BYTE   W06
 BYTE   N17  Fs3  v092
 BYTE   N17  Fs4
 BYTE   W06
 BYTE   N05  As1  v036
 BYTE   N05  Fn2
 BYTE   N05  As2
 BYTE   W12
 BYTE   As1
 BYTE   N05  Fn2
 BYTE   N05  As2
 BYTE   N11  Fs3  v092
 BYTE   N11  Fs4
 BYTE   W12
 BYTE   N05  As1  v036
 BYTE   N05  Fn2
 BYTE   N05  As2
 BYTE   N17  Fn3  v092
 BYTE   N17  Fn4
 BYTE   W12
 BYTE   N05  As1  v036
 BYTE   N05  Fn2
 BYTE   N05  As2
 BYTE   W06
 BYTE   N17  Fs3  v092
 BYTE   N17  Fs4
 BYTE   W05
 BYTE   EOT
 BYTE   Fs2
 BYTE   W01
 BYTE   N05  As1  v036
 BYTE   N05  Fn2
 BYTE   N05  As2
 BYTE   N23  Ds3
 BYTE   W12
 BYTE   N05  As1
 BYTE   N05  Fn2
 BYTE   N05  As2
 BYTE   N11  Cs3  v092
 BYTE   N11  Cs4
 BYTE   W12
//  #06 //162   ----------------------------------------
 BYTE   N05  Bn1  v036
 BYTE   N05  Fs2
 BYTE   N05  Bn2
 BYTE   N32  Cs3
 BYTE   N23  Bn3  v092
 BYTE   N23  Bn4
 BYTE   W12
 BYTE   N05  Bn1  v036
 BYTE   N05  Fs2
 BYTE   N05  Bn2
 BYTE   W12
 BYTE   Bn1
 BYTE   N05  Fs2
 BYTE   N05  Bn2
 BYTE   N11  As3  v092
 BYTE   N11  As4
 BYTE   W12
 BYTE   N05  Bn1  v036
 BYTE   N05  Fs2
 BYTE   N05  Bn2
 BYTE   N32  As3  v092
 BYTE   N32  As4
 BYTE   W12
 BYTE   N05  Bn1  v036
 BYTE   N05  Fs2
 BYTE   N05  Bn2
 BYTE   W12
 BYTE   Bn1
 BYTE   N05  Fs2
 BYTE   N05  Bn2
 BYTE   W12
 BYTE   Bn1
 BYTE   N05  Fs2
 BYTE   N05  Bn2
 BYTE   N11  Fs3  v092
 BYTE   N11  Fs4
 BYTE   W12
 BYTE   N05  Bn1  v036
 BYTE   N05  Fs2
 BYTE   N05  Bn2
 BYTE   N11  Fs3  v092
 BYTE   N11  Fs4
 BYTE   W12
//  #06 //163   ----------------------------------------
 BYTE   N05  As1  v036
 BYTE   N05  Fn2
 BYTE   N05  As2
 BYTE   N23  Cs4  v092
 BYTE   N23  Cs5
 BYTE   W12
 BYTE   N05  As1  v036
 BYTE   N05  Fn2
 BYTE   N05  As2
 BYTE   W12
 BYTE   As1
 BYTE   N05  Fn2
 BYTE   N05  As2
 BYTE   N23  Bn3  v092
 BYTE   N23  Bn4
 BYTE   W12
 BYTE   N05  As1  v036
 BYTE   N05  Fn2
 BYTE   N05  As2
 BYTE   W12
 BYTE   An1
 BYTE   N05  En2
 BYTE   N05  An2
 BYTE   N17  An3  v092
 BYTE   N17  An4
 BYTE   W12
 BYTE   N05  An1  v036
 BYTE   N05  En2
 BYTE   N05  An2
 BYTE   W06
 BYTE   N17  Gs3  v092
 BYTE   N17  Gs4
 BYTE   W06
 BYTE   N05  An1  v036
 BYTE   N05  En2
 BYTE   N05  An2
 BYTE   W12
 BYTE   An1
 BYTE   N05  En2
 BYTE   N05  An2
 BYTE   TIE  Fs3  v092
 BYTE   TIE  Fs4
 BYTE   W12
//  #06 //164   ----------------------------------------
 BYTE   N11  Gs1  v036
 BYTE   N11  Ds2
 BYTE   N11  Gs2
 BYTE   W12
 BYTE   Gs1
 BYTE   N11  Ds2
 BYTE   N11  Gs2
 BYTE   W12
 BYTE   Gs1
 BYTE   N11  Ds2
 BYTE   N11  Gs2
 BYTE   W12
 BYTE   Gs1
 BYTE   N11  Ds2
 BYTE   N11  Gs2
 BYTE   W12
 BYTE   Gs1
 BYTE   N11  Ds2
 BYTE   N11  Gs2
 BYTE   W12
 BYTE   Gs1
 BYTE   N11  Ds2
 BYTE   N11  Gs2
 BYTE   W12
 BYTE   Gs1
 BYTE   N11  Ds2
 BYTE   N11  Gs2
 BYTE   W12
 BYTE   Gs1
 BYTE   N11  Ds2
 BYTE   N11  Gs2
 BYTE   W11
 BYTE   EOT
 BYTE   Fs3  v078
 BYTE   W01
//  #06 //165   ----------------------------------------
 BYTE   N11  Gs1
 BYTE   N11  Ds2
 BYTE   N11  Gs2
 BYTE   W12
 BYTE   Gs1
 BYTE   N11  Ds2
 BYTE   N11  Gs2
 BYTE   W12
 BYTE   Gs1
 BYTE   N11  Ds2
 BYTE   N11  Gs2
 BYTE   W12
 BYTE   Gs1
 BYTE   N11  Ds2
 BYTE   N11  Gs2
 BYTE   N11  Cs4  v092
 BYTE   N11  Cs5
 BYTE   W12
 BYTE   Gs1  v036
 BYTE   N11  Ds2
 BYTE   N11  Gs2
 BYTE   N11  Cs4  v092
 BYTE   N11  Cs5
 BYTE   W12
 BYTE   Gs1  v036
 BYTE   N11  Ds2
 BYTE   N11  Gs2
 BYTE   N11  Bn3  v092
 BYTE   N11  Bn4
 BYTE   W12
 BYTE   Gs1  v036
 BYTE   N11  Ds2
 BYTE   N11  Gs2
 BYTE   N11  As3  v092
 BYTE   N11  As4
 BYTE   W12
 BYTE   Gs1  v036
 BYTE   N11  Ds2
 BYTE   N11  Gs2
 BYTE   N23  Bn3  v092
 BYTE   N23  Bn4
 BYTE   W12
//  #06 //166   ----------------------------------------
 BYTE   N11  Bn1  v036
 BYTE   N32  Ds2
 BYTE   N11  Fs2
 BYTE   N11  Bn2
 BYTE   N32  Ds3
 BYTE   W12
 BYTE   N11  Bn1
 BYTE   N11  Fs2
 BYTE   N11  Bn2
 BYTE   N11  Fs4  v092
 BYTE   N11  Ds5
 BYTE   N11  Fs5
 BYTE   W12
 BYTE   Bn1  v036
 BYTE   N11  Fs2
 BYTE   N11  Bn2
 BYTE   N23  Fs4  v092
 BYTE   N23  Ds5
 BYTE   N23  Fs5
 BYTE   W12
 BYTE   N11  Bn1  v036
 BYTE   N32  Ds2
 BYTE   N11  Fs2
 BYTE   N11  Bn2
 BYTE   N32  Ds3
 BYTE   W12
 BYTE   N11  Bn1
 BYTE   N11  Fs2
 BYTE   N11  Bn2
 BYTE   W12
 BYTE   Bn1
 BYTE   N11  Fs2
 BYTE   N11  Bn2
 BYTE   W12
 BYTE   Bn1
 BYTE   N32  Ds2
 BYTE   N11  Fs2
 BYTE   N11  Bn2
 BYTE   N32  Ds3
 BYTE   W12
 BYTE   N11  Bn1
 BYTE   N11  Fs2
 BYTE   N11  Bn2
 BYTE   N11  Fs3  v092
 BYTE   N11  Fs4
 BYTE   W12
//  #06 //167   ----------------------------------------
 BYTE   Bn1  v036
 BYTE   N11  Fs2
 BYTE   N11  Bn2
 BYTE   N23  As3  v092
 BYTE   N23  As4
 BYTE   W12
 BYTE   N11  Bn1  v036
 BYTE   N11  Fs2
 BYTE   N11  Bn2
 BYTE   N32  Fs3
 BYTE   W12
 BYTE   N11  Bn1
 BYTE   N11  Fs2
 BYTE   N11  Bn2
 BYTE   N23  Gs3  v092
 BYTE   N23  Gs4
 BYTE   W12
 BYTE   N11  Bn1  v036
 BYTE   N11  Fs2
 BYTE   N11  Bn2
 BYTE   W12
 BYTE   Bn1
 BYTE   N11  Fs2
 BYTE   N44  Gs2
 BYTE   N11  Bn2
 BYTE   N11  Fs3  v092
 BYTE   N44  Gs3  v036
 BYTE   N11  Fs4  v092
 BYTE   W12
 BYTE   Bn1  v036
 BYTE   N11  Fs2
 BYTE   N11  Bn2
 BYTE   N11  Fs3  v092
 BYTE   N11  Fs4
 BYTE   W12
 BYTE   Bn1  v036
 BYTE   N11  Fs2
 BYTE   N11  Bn2
 BYTE   N32  Fs3  v092
 BYTE   N32  Ds4
 BYTE   N32  Fs4
 BYTE   W12
 BYTE   N11  Bn1  v036
 BYTE   N11  Fs2
 BYTE   N11  Bn2
 BYTE   W12
//  #06 //168   ----------------------------------------
 BYTE   Cs2
 BYTE   N05  Gs2
 BYTE   N11  Cs3
 BYTE   N05  Gs3
 BYTE   W06
 BYTE   Gs2
 BYTE   N05  Gs3
 BYTE   W06
 BYTE   N11  Cs2
 BYTE   N05  Gs2
 BYTE   N11  Cs3
 BYTE   N05  Gs3
 BYTE   N11  Fn4  v092
 BYTE   N11  Gs4
 BYTE   W06
 BYTE   N05  Gs2  v036
 BYTE   N05  Gs3
 BYTE   W06
 BYTE   N11  Cs2
 BYTE   N05  Gs2
 BYTE   N11  Cs3
 BYTE   N05  Gs3
 BYTE   TIE  Fn4  v092
 BYTE   TIE  Gs4
 BYTE   W06
 BYTE   N05  Gs2  v036
 BYTE   N05  Gs3
 BYTE   W06
 BYTE   N11  Cs2
 BYTE   N05  Gs2
 BYTE   N11  Cs3
 BYTE   N05  Gs3
 BYTE   W06
 BYTE   Gs2
 BYTE   N05  Gs3
 BYTE   W06
 BYTE   N11  Cs2
 BYTE   N05  Gs2
 BYTE   N11  Cs3
 BYTE   N05  Gs3
 BYTE   W06
 BYTE   Gs2
 BYTE   N05  Gs3
 BYTE   W06
 BYTE   N11  Cs2
 BYTE   N05  Gs2
 BYTE   N11  Cs3
 BYTE   N05  Gs3
 BYTE   W06
 BYTE   Gs2
 BYTE   N05  Gs3
 BYTE   W06
 BYTE   N11  Cs2
 BYTE   N05  Gs2
 BYTE   N11  Cs3
 BYTE   N05  Gs3
 BYTE   W06
 BYTE   Gs2
 BYTE   N05  Gs3
 BYTE   W06
 BYTE   N11  Cs2
 BYTE   N05  Gs2
 BYTE   N11  Cs3
 BYTE   N05  Gs3
 BYTE   W06
 BYTE   Gs2
 BYTE   N05  Gs3
 BYTE   W06
//  #06 //169   ----------------------------------------
 BYTE   N11  Cs2
 BYTE   N05  Gs2
 BYTE   N11  Cs3
 BYTE   N05  Gs3
 BYTE   W06
 BYTE   Gs2
 BYTE   N05  Gs3
 BYTE   W06
 BYTE   N11  Cs2
 BYTE   N05  Gs2
 BYTE   N11  Cs3
 BYTE   N05  Gs3
 BYTE   W06
 BYTE   Gs2
 BYTE   N05  Gs3
 BYTE   W06
 BYTE   N11  Cs2
 BYTE   N05  Gs2
 BYTE   N11  Cs3
 BYTE   N05  Gs3
 BYTE   W06
 BYTE   Gs2
 BYTE   N05  Gs3
 BYTE   W06
 BYTE   N11  Cs2
 BYTE   N05  Gs2
 BYTE   N11  Cs3
 BYTE   N05  Gs3
 BYTE   W06
 BYTE   Gs2
 BYTE   N05  Gs3
 BYTE   W05
 BYTE   EOT
 BYTE   Fn4  v080
 BYTE   W01
 BYTE   N11  Cs2
 BYTE   N05  Gs2
 BYTE   N11  Cs3
 BYTE   N05  Gs3
 BYTE   W06
 BYTE   Gs2
 BYTE   N05  Gs3
 BYTE   W06
 BYTE   N11  Cs2
 BYTE   N05  Gs2
 BYTE   N11  Cs3
 BYTE   N05  Gs3
 BYTE   W06
 BYTE   Gs2
 BYTE   N05  Gs3
 BYTE   W06
 BYTE   N11  Cs2
 BYTE   N05  Gs2
 BYTE   N11  Cs3
 BYTE   N05  Gs3
 BYTE   W06
 BYTE   Gs2
 BYTE   N05  Gs3
 BYTE   W06
 BYTE   N11  Cs2
 BYTE   N05  Gs2
 BYTE   N11  Cs3
 BYTE   N11  Fs3  v092
 BYTE   N05  Gs3  v036
 BYTE   N11  Fs4  v092
 BYTE   W06
 BYTE   N05  Gs2  v036
 BYTE   N05  Gs3
 BYTE   W06
//  #06 //170   ----------------------------------------
 BYTE   N11  As1
 BYTE   N05  Dn2
 BYTE   N11  Fn2
 BYTE   N11  As2
 BYTE   N05  Dn3
 BYTE   N32  Cs4  v092
 BYTE   N32  Cs5
 BYTE   W06
 BYTE   N05  Dn2  v036
 BYTE   N05  Dn3
 BYTE   W06
 BYTE   N11  As1
 BYTE   N05  Dn2
 BYTE   N11  Fn2
 BYTE   N11  As2
 BYTE   N05  Dn3
 BYTE   W06
 BYTE   Dn2
 BYTE   N05  Dn3
 BYTE   W06
 BYTE   N11  As1
 BYTE   N05  Dn2
 BYTE   N11  Fn2
 BYTE   N11  As2
 BYTE   N05  Dn3
 BYTE   W06
 BYTE   Dn2
 BYTE   N05  Dn3
 BYTE   W06
 BYTE   N11  As1
 BYTE   N05  Dn2
 BYTE   N11  Fn2
 BYTE   N11  As2
 BYTE   N05  Dn3
 BYTE   N11  Bn3  v092
 BYTE   N11  Bn4
 BYTE   W06
 BYTE   N05  Dn2  v036
 BYTE   N05  Dn3
 BYTE   W06
 BYTE   N11  As1
 BYTE   N05  Dn2
 BYTE   N11  Fn2
 BYTE   N11  As2
 BYTE   N05  Dn3
 BYTE   N32  Bn3  v092
 BYTE   N32  Bn4
 BYTE   W06
 BYTE   N05  Dn2  v036
 BYTE   N05  Dn3
 BYTE   W06
 BYTE   N11  As1
 BYTE   N05  Dn2
 BYTE   N11  Fn2
 BYTE   N11  As2
 BYTE   N05  Dn3
 BYTE   W06
 BYTE   Dn2
 BYTE   N05  Dn3
 BYTE   W06
 BYTE   N11  As1
 BYTE   N05  Dn2
 BYTE   N11  Fn2
 BYTE   N11  As2
 BYTE   N05  Dn3
 BYTE   W06
 BYTE   Dn2
 BYTE   N05  Dn3
 BYTE   W06
 BYTE   N11  As1
 BYTE   N05  Dn2
 BYTE   N11  Fn2
 BYTE   N11  As2
 BYTE   N05  Dn3
 BYTE   N11  As3  v092
 BYTE   N11  As4
 BYTE   W06
 BYTE   N05  Dn2  v036
 BYTE   N05  Dn3
 BYTE   W06
//  #06 //171   ----------------------------------------
 BYTE   N11  As1
 BYTE   N05  Dn2
 BYTE   N11  Fn2
 BYTE   N11  As2
 BYTE   N05  Dn3
 BYTE   N23  As3  v092
 BYTE   N23  As4
 BYTE   W06
 BYTE   N05  Dn2  v036
 BYTE   N05  Dn3
 BYTE   W06
 BYTE   N11  As1
 BYTE   N05  Dn2
 BYTE   N11  Fn2
 BYTE   N11  As2
 BYTE   N05  Dn3
 BYTE   W06
 BYTE   Dn2
 BYTE   N05  Dn3
 BYTE   W06
 BYTE   N11  As1
 BYTE   N05  Dn2
 BYTE   N11  Fn2
 BYTE   N11  As2
 BYTE   N05  Dn3
 BYTE   N23  Gs3  v092
 BYTE   N23  Gs4
 BYTE   W06
 BYTE   N05  Dn2  v036
 BYTE   N05  Dn3
 BYTE   W06
 BYTE   N11  As1
 BYTE   N05  Dn2
 BYTE   N11  Fn2
 BYTE   N11  As2
 BYTE   N05  Dn3
 BYTE   W06
 BYTE   Dn2
 BYTE   N05  Dn3
 BYTE   W06
 BYTE   N11  As1
 BYTE   N05  Dn2
 BYTE   N11  Fn2
 BYTE   N11  As2
 BYTE   N05  Dn3
 BYTE   N23  Bn3  v092
 BYTE   N23  Bn4
 BYTE   W06
 BYTE   N05  Dn2  v036
 BYTE   N05  Dn3
 BYTE   W06
 BYTE   N11  As1
 BYTE   N05  Dn2
 BYTE   N11  Fn2
 BYTE   N11  As2
 BYTE   N05  Dn3
 BYTE   W06
 BYTE   Dn2
 BYTE   N05  Dn3
 BYTE   W06
 BYTE   N11  As1
 BYTE   N05  Dn2
 BYTE   N11  Fn2
 BYTE   N11  As2
 BYTE   N05  Dn3
 BYTE   N23  As3  v092
 BYTE   N23  As4
 BYTE   W06
 BYTE   N05  Dn2  v036
 BYTE   N05  Dn3
 BYTE   W06
 BYTE   N11  As1
 BYTE   N11  Dn2
 BYTE   N11  Fn2
 BYTE   N11  As2
 BYTE   N11  Dn3
 BYTE   W12
//  #06 //172   ----------------------------------------
 BYTE   W96
//  #06 //173   ----------------------------------------
 BYTE   W96
//  #06 //174   ----------------------------------------
 BYTE   N23  As2  v092
 BYTE   N23  As3
 BYTE   N23  As4
 BYTE   W24
 BYTE   N11  Gs2
 BYTE   N11  Gs3
 BYTE   N11  Gs4
 BYTE   W12
 BYTE   N23  Gs2
 BYTE   N23  Gs3
 BYTE   N23  Gs4
 BYTE   W24
 BYTE   N11  Fs2
 BYTE   N11  Fs3
 BYTE   N11  Fs4
 BYTE   W12
 BYTE   N44  Fs2
 BYTE   N44  Fs3
 BYTE   N44  Fs4
 BYTE   W24
//  #06 //175   ----------------------------------------
 BYTE   W24
 BYTE   N23  Fs2
 BYTE   N23  Fs3
 BYTE   N23  Fs4
 BYTE   W24
 BYTE   N11  Bn1  v036
 BYTE   N11  Fs2
 BYTE   N11  Bn2
 BYTE   N23  Cs4  v092
 BYTE   N23  Fs4
 BYTE   N23  Cs5
 BYTE   W12
 BYTE   N11  Bn1  v036
 BYTE   N11  Fs2
 BYTE   N11  Bn2
 BYTE   W12
 BYTE   Bn1
 BYTE   N11  Fs2
 BYTE   N11  Bn2
 BYTE   N68  Gs3  v092
 BYTE   N68  Cs4
 BYTE   N68  Gs4
 BYTE   W12
 BYTE   N11  Bn1  v036
 BYTE   N11  Fs2
 BYTE   N11  Bn2
 BYTE   W12
//  #06 //176   ----------------------------------------
 BYTE   BEND   c_v+0
 BYTE   N11  Cs2
 BYTE   N11  Gs2
 BYTE   N32  Bn2  v060
 BYTE   N11  Cs3  v036
 BYTE   N32  Bn3  v060
 BYTE   W01
 BYTE   BEND   c_v+1
 BYTE   W01
 BYTE   BEND   c_v+2
 BYTE   W01
 BYTE   BEND   c_v+3
 BYTE   W01
 BYTE   BEND   c_v+5
 BYTE   W01
 BYTE   BEND   c_v+6
 BYTE   W01
 BYTE   BEND   c_v+7
 BYTE   W01
 BYTE   BEND   c_v+8
 BYTE   W01
 BYTE   BEND   c_v+10
 BYTE   W04
 BYTE   N11  Cs2  v036
 BYTE   N11  Gs2
 BYTE   N11  Cs3
 BYTE   W12
 BYTE   Cs2
 BYTE   N11  Gs2
 BYTE   N11  Cs3
 BYTE   W12
 BYTE   BEND   c_v+0
 BYTE   N11  Cs2
 BYTE   N11  Gs2
 BYTE   N32  Bn2  v060
 BYTE   N11  Cs3  v036
 BYTE   N32  Bn3  v060
 BYTE   W01
 BYTE   BEND   c_v+1
 BYTE   W01
 BYTE   BEND   c_v+2
 BYTE   W01
 BYTE   BEND   c_v+3
 BYTE   W01
 BYTE   BEND   c_v+5
 BYTE   W01
 BYTE   BEND   c_v+6
 BYTE   W01
 BYTE   BEND   c_v+7
 BYTE   W01
 BYTE   BEND   c_v+8
 BYTE   W01
 BYTE   BEND   c_v+10
 BYTE   W04
 BYTE   N11  Cs2  v036
 BYTE   N11  Gs2
 BYTE   N11  Cs3
 BYTE   W12
 BYTE   Cs2
 BYTE   N11  Gs2
 BYTE   N11  Cs3
 BYTE   W12
 BYTE   BEND   c_v+0
 BYTE   N11  Cs2
 BYTE   N11  Gs2
 BYTE   N32  Bn2  v060
 BYTE   N11  Cs3  v036
 BYTE   N23  Fn3  v092
 BYTE   N32  Bn3  v060
 BYTE   N23  Cs4  v092
 BYTE   N23  Fn4
 BYTE   W01
 BYTE   BEND   c_v+1
 BYTE   W01
 BYTE   BEND   c_v+2
 BYTE   W01
 BYTE   BEND   c_v+3
 BYTE   W01
 BYTE   BEND   c_v+5
 BYTE   W01
 BYTE   BEND   c_v+6
 BYTE   W01
 BYTE   BEND   c_v+7
 BYTE   W01
 BYTE   BEND   c_v+8
 BYTE   W01
 BYTE   BEND   c_v+10
 BYTE   W04
 BYTE   N11  Cs2  v036
 BYTE   N11  Gs2
 BYTE   N11  Cs3
 BYTE   W12
//  #06 //177   ----------------------------------------
 BYTE   Cs2
 BYTE   N11  Gs2
 BYTE   N11  Cs3
 BYTE   N23  Fs3  v092
 BYTE   N23  Cs4
 BYTE   N23  Fs4
 BYTE   W12
 BYTE   BEND   c_v+0
 BYTE   N11  Cs2  v036
 BYTE   N11  Gs2
 BYTE   N32  Bn2  v060
 BYTE   N11  Cs3  v036
 BYTE   N32  Bn3  v060
 BYTE   W01
 BYTE   BEND   c_v+1
 BYTE   W01
 BYTE   BEND   c_v+2
 BYTE   W01
 BYTE   BEND   c_v+3
 BYTE   W01
 BYTE   BEND   c_v+5
 BYTE   W01
 BYTE   BEND   c_v+6
 BYTE   W01
 BYTE   BEND   c_v+7
 BYTE   W01
 BYTE   BEND   c_v+8
 BYTE   W01
 BYTE   BEND   c_v+10
 BYTE   W04
 BYTE   N11  Cs2  v036
 BYTE   N11  Gs2
 BYTE   N11  Cs3
 BYTE   N32  Gs3  v092
 BYTE   N32  Cs4
 BYTE   N32  Gs4
 BYTE   W12
 BYTE   N11  Cs2  v036
 BYTE   N11  Gs2
 BYTE   N11  Cs3
 BYTE   W12
 BYTE   BEND   c_v+1
 BYTE   N11  Cs2
 BYTE   N11  Gs2
 BYTE   N23  Bn2  v060
 BYTE   N11  Cs3  v036
 BYTE   N23  Bn3  v060
 BYTE   W01
 BYTE   BEND   c_v+2
 BYTE   W01
 BYTE   BEND   c_v+4
 BYTE   W01
 BYTE   BEND   c_v+5
 BYTE   W01
 BYTE   BEND   c_v+8
 BYTE   W01
 BYTE   BEND   c_v+9
 BYTE   W07
 BYTE   N11  Cs2  v036
 BYTE   N11  Gs2
 BYTE   N11  Cs3
 BYTE   W12
 BYTE   BEND   c_v+1
 BYTE   N11  Cs2
 BYTE   N11  Gs2
 BYTE   N23  Bn2  v060
 BYTE   N11  Cs3  v036
 BYTE   N11  Gs3  v092
 BYTE   N23  Bn3  v060
 BYTE   N11  Cs4  v092
 BYTE   W01
 BYTE   BEND   c_v+2
 BYTE   W01
 BYTE   BEND   c_v+4
 BYTE   W01
 BYTE   BEND   c_v+5
 BYTE   W01
 BYTE   BEND   c_v+8
 BYTE   W01
 BYTE   BEND   c_v+9
 BYTE   W07
 BYTE   N11  Cs2  v036
 BYTE   N11  Gs2
 BYTE   N11  Cs3
 BYTE   N11  Gs3  v092
 BYTE   N11  Cs4
 BYTE   W12
//  #06 //178   ----------------------------------------
 BYTE   BEND   c_v+0
 BYTE   N11  As1  v036
 BYTE   N32  Ds2  v060
 BYTE   N11  Fn2  v036
 BYTE   N11  As2
 BYTE   N32  Ds3  v060
 BYTE   N23  As3  v092
 BYTE   N23  Cs4
 BYTE   N23  As4
 BYTE   W01
 BYTE   BEND   c_v+1
 BYTE   W01
 BYTE   BEND   c_v+2
 BYTE   W01
 BYTE   BEND   c_v+3
 BYTE   W01
 BYTE   BEND   c_v+5
 BYTE   W01
 BYTE   BEND   c_v+6
 BYTE   W01
 BYTE   BEND   c_v+7
 BYTE   W01
 BYTE   BEND   c_v+8
 BYTE   W01
 BYTE   BEND   c_v+10
 BYTE   W04
 BYTE   N11  As1  v036
 BYTE   N11  Fn2
 BYTE   N11  As2
 BYTE   W12
 BYTE   As1
 BYTE   N11  Fn2
 BYTE   N11  As2
 BYTE   N11  Gs3  v092
 BYTE   N11  Cs4
 BYTE   N11  Gs4
 BYTE   W12
 BYTE   BEND   c_v+0
 BYTE   N11  As1  v036
 BYTE   N32  Ds2  v060
 BYTE   N11  Fn2  v036
 BYTE   N11  As2
 BYTE   N32  Ds3  v060
 BYTE   N32  Gs3  v092
 BYTE   N32  Cs4
 BYTE   N32  Gs4
 BYTE   W01
 BYTE   BEND   c_v+1
 BYTE   W01
 BYTE   BEND   c_v+2
 BYTE   W01
 BYTE   BEND   c_v+3
 BYTE   W01
 BYTE   BEND   c_v+5
 BYTE   W01
 BYTE   BEND   c_v+6
 BYTE   W01
 BYTE   BEND   c_v+7
 BYTE   W01
 BYTE   BEND   c_v+8
 BYTE   W01
 BYTE   BEND   c_v+10
 BYTE   W04
 BYTE   N11  As1  v036
 BYTE   N11  Fn2
 BYTE   N11  As2
 BYTE   W12
 BYTE   As1
 BYTE   N11  Fn2
 BYTE   N11  As2
 BYTE   W12
 BYTE   BEND   c_v+0
 BYTE   N11  As1
 BYTE   N32  Ds2  v060
 BYTE   N11  Fn2  v036
 BYTE   N11  As2
 BYTE   N32  Ds3  v060
 BYTE   N11  Gs3  v092
 BYTE   N11  Fn4
 BYTE   N11  Gs4
 BYTE   W01
 BYTE   BEND   c_v+1
 BYTE   W01
 BYTE   BEND   c_v+2
 BYTE   W01
 BYTE   BEND   c_v+3
 BYTE   W01
 BYTE   BEND   c_v+5
 BYTE   W01
 BYTE   BEND   c_v+6
 BYTE   W01
 BYTE   BEND   c_v+7
 BYTE   W01
 BYTE   BEND   c_v+8
 BYTE   W01
 BYTE   BEND   c_v+10
 BYTE   W04
 BYTE   N11  As1  v036
 BYTE   N11  Fn2
 BYTE   N11  As2
 BYTE   N32  Bn3  v092
 BYTE   N32  Fn4
 BYTE   N32  Bn4
 BYTE   W12
//  #06 //179   ----------------------------------------
 BYTE   N11  As1  v036
 BYTE   N11  Fn2
 BYTE   N11  As2
 BYTE   W12
 BYTE   BEND   c_v+0
 BYTE   N11  As1
 BYTE   N32  Ds2  v060
 BYTE   N11  Fn2  v036
 BYTE   N11  As2
 BYTE   N32  Ds3  v060
 BYTE   W01
 BYTE   BEND   c_v+1
 BYTE   W01
 BYTE   BEND   c_v+2
 BYTE   W01
 BYTE   BEND   c_v+3
 BYTE   W01
 BYTE   BEND   c_v+5
 BYTE   W01
 BYTE   BEND   c_v+6
 BYTE   W01
 BYTE   BEND   c_v+7
 BYTE   W01
 BYTE   BEND   c_v+8
 BYTE   W01
 BYTE   BEND   c_v+10
 BYTE   W04
 BYTE   N11  As1  v036
 BYTE   N11  Fn2
 BYTE   N11  As2
 BYTE   N23  As3  v092
 BYTE   N23  Fn4
 BYTE   N23  As4
 BYTE   W12
 BYTE   N11  As1  v036
 BYTE   N11  Fn2
 BYTE   N11  As2
 BYTE   W12
 BYTE   BEND   c_v+1
 BYTE   N11  As1
 BYTE   N23  Ds2  v060
 BYTE   N11  Fn2  v036
 BYTE   N11  As2
 BYTE   N23  Ds3  v060
 BYTE   N23  Fn3  v092
 BYTE   N23  Cs4
 BYTE   N23  Fn4
 BYTE   W01
 BYTE   BEND   c_v+2
 BYTE   W01
 BYTE   BEND   c_v+4
 BYTE   W01
 BYTE   BEND   c_v+5
 BYTE   W01
 BYTE   BEND   c_v+8
 BYTE   W01
 BYTE   BEND   c_v+9
 BYTE   W07
 BYTE   N11  As1  v036
 BYTE   N11  Fn2
 BYTE   N11  As2
 BYTE   W12
 BYTE   BEND   c_v+1
 BYTE   N11  As1
 BYTE   N23  Ds2  v060
 BYTE   N11  Fn2  v036
 BYTE   N11  As2
 BYTE   N23  Ds3  v060
 BYTE   N68  Fs3  v092
 BYTE   N68  Cs4
 BYTE   N68  Fs4
 BYTE   W01
 BYTE   BEND   c_v+2
 BYTE   W01
 BYTE   BEND   c_v+4
 BYTE   W01
 BYTE   BEND   c_v+5
 BYTE   W01
 BYTE   BEND   c_v+8
 BYTE   W01
 BYTE   BEND   c_v+9
 BYTE   W07
 BYTE   N11  As1  v036
 BYTE   N11  Fn2
 BYTE   N11  As2
 BYTE   W12
//  #06 //180   ----------------------------------------
 BYTE   BEND   c_v+0
 BYTE   N11  Ds2
 BYTE   N32  En2  v060
 BYTE   N11  As2  v036
 BYTE   N11  Ds3
 BYTE   N32  En3  v060
 BYTE   W01
 BYTE   BEND   c_v+1
 BYTE   W01
 BYTE   BEND   c_v+2
 BYTE   W01
 BYTE   BEND   c_v+3
 BYTE   W01
 BYTE   BEND   c_v+5
 BYTE   W01
 BYTE   BEND   c_v+6
 BYTE   W01
 BYTE   BEND   c_v+7
 BYTE   W01
 BYTE   BEND   c_v+8
 BYTE   W01
 BYTE   BEND   c_v+10
 BYTE   W04
 BYTE   N11  Ds2  v036
 BYTE   N11  As2
 BYTE   N11  Ds3
 BYTE   W12
 BYTE   Ds2
 BYTE   N11  As2
 BYTE   N11  Ds3
 BYTE   W12
 BYTE   BEND   c_v+0
 BYTE   N11  Ds2
 BYTE   N32  En2  v060
 BYTE   N11  As2  v036
 BYTE   N11  Ds3
 BYTE   N32  En3  v060
 BYTE   W01
 BYTE   BEND   c_v+1
 BYTE   W01
 BYTE   BEND   c_v+2
 BYTE   W01
 BYTE   BEND   c_v+3
 BYTE   W01
 BYTE   BEND   c_v+5
 BYTE   W01
 BYTE   BEND   c_v+6
 BYTE   W01
 BYTE   BEND   c_v+7
 BYTE   W01
 BYTE   BEND   c_v+8
 BYTE   W01
 BYTE   BEND   c_v+10
 BYTE   W04
 BYTE   N11  Ds2  v036
 BYTE   N11  As2
 BYTE   N11  Ds3
 BYTE   W12
 BYTE   Ds2
 BYTE   N11  As2
 BYTE   N11  Ds3
 BYTE   W12
 BYTE   BEND   c_v+0
 BYTE   N23  Cs2
 BYTE   N23  As2
 BYTE   N23  Cs3
 BYTE   N23  Cs4  v092
 BYTE   W24
//  #06 //181   ----------------------------------------
 BYTE   N17  Gs2  v036
 BYTE   N17  Cs3
 BYTE   N17  Gs3
 BYTE   N17  Cs4  v092
 BYTE   N17  Gs4
 BYTE   W18
 BYTE   Fs2  v036
 BYTE   N17  Cs3
 BYTE   N17  Fs3
 BYTE   N17  Cs4  v092
 BYTE   N17  Fs4
 BYTE   W18
 BYTE   N11  Gs2  v036
 BYTE   N11  Cs3
 BYTE   N11  Gs3
 BYTE   N11  Cs4  v092
 BYTE   N11  Gs4
 BYTE   W24
 BYTE   As2  v036
 BYTE   N11  Cs3
 BYTE   N11  Fs3
 BYTE   N11  As3
 BYTE   N32  Cs4  v092
 BYTE   N32  As4
 BYTE   W12
 BYTE   N11  As2  v036
 BYTE   N11  Cs3
 BYTE   N11  Fs3
 BYTE   N11  As3
 BYTE   W12
 BYTE   N01  An2  v060
 BYTE   N01  As2  v036
 BYTE   N06  Cs3
 BYTE   N02  Fs3
 BYTE   N01  An3  v060
 BYTE   N01  As3  v036
 BYTE   W01
 BYTE   Gs2  v060
 BYTE   N01  Gs3
 BYTE   W01
 BYTE   Fs2
 BYTE   N01  Gn2
 BYTE   N01  Fs3
 BYTE   N01  Gn3
 BYTE   W01
 BYTE   Fn2
 BYTE   N01  Fn3
 BYTE   W01
 BYTE   En2
 BYTE   N01  En3
 BYTE   W01
 BYTE   Dn2
 BYTE   N01  Ds2
 BYTE   N01  Dn3
 BYTE   N01  Ds3
 BYTE   W01
 BYTE   Cs2
 BYTE   N01  Cs3
 BYTE   W01
 BYTE   Cn2
 BYTE   N01  Cn3
 BYTE   W01
 BYTE   Bn1
 BYTE   N01  Bn2
 BYTE   W01
 BYTE   N02  As1
 BYTE   N02  As2
 BYTE   W03
//  #06 //182   ----------------------------------------
 BYTE   PATT
  POIN2 Label_018423BD
//  #06 //183   ----------------------------------------
 BYTE   PATT
  POIN2 Label_01842433
//  #06 //184   ----------------------------------------
 BYTE   PATT
  POIN2 Label_0184249A
//  #06 //185   ----------------------------------------
 BYTE   PATT
  POIN2 Label_018424E2
//  #06 //186   ----------------------------------------
 BYTE   PATT
  POIN2 Label_01842546
//  #06 //187   ----------------------------------------
 BYTE   PATT
  POIN2 Label_018425AE
//  #06 //188   ----------------------------------------
 BYTE   PATT
  POIN2 Label_01842640
//  #06 //189   ----------------------------------------
 BYTE   PATT
  POIN2 Label_0184269B
//  #06 //190   ----------------------------------------
 BYTE   N11  Bn1  v036
 BYTE   N23  Ds2
 BYTE   N11  Fs2
 BYTE   N11  Bn2
 BYTE   N23  Cs3  v092
 BYTE   N23  Ds3  v036
 BYTE   N23  Fs3  v092
 BYTE   N23  Cs4
 BYTE   W12
 BYTE   N11  Bn1  v036
 BYTE   N11  Fs2
 BYTE   N11  Bn2
 BYTE   W12
 BYTE   Gs1
 BYTE   N11  Ds2
 BYTE   N11  Gs2
 BYTE   N11  Ds3
 BYTE   N32  Fs3  v092
 BYTE   N32  Bn3
 BYTE   N32  Fs4
 BYTE   W12
 BYTE   N11  Gs1  v036
 BYTE   N11  Ds2
 BYTE   N11  Gs2
 BYTE   N11  Ds3
 BYTE   W12
 BYTE   As1
 BYTE   N11  Fn2
 BYTE   N11  As2
 BYTE   N23  Fn3
 BYTE   W12
 BYTE   N11  As1
 BYTE   N11  Fn2
 BYTE   N11  As2
 BYTE   W12
 BYTE   As1
 BYTE   N11  Fn2
 BYTE   N11  As2
 BYTE   N11  Fn3
 BYTE   N23  Fs3  v092
 BYTE   N23  As3
 BYTE   W12
 BYTE   N11  As1  v036
 BYTE   N11  Fn2
 BYTE   N11  As2
 BYTE   N11  Fn3
 BYTE   W12
//  #06 //191   ----------------------------------------
 BYTE   Bn1
 BYTE   N11  Fs2
 BYTE   N11  Bn2
 BYTE   N23  Fs3
 BYTE   N23  Bn3  v092
 BYTE   W12
 BYTE   N11  Bn1  v036
 BYTE   N11  Fs2
 BYTE   N11  Bn2
 BYTE   W12
 BYTE   Bn1
 BYTE   N11  Fs2
 BYTE   N11  Bn2
 BYTE   N11  Fs3
 BYTE   N32  Bn3  v092
 BYTE   N32  Fs4
 BYTE   W12
 BYTE   N11  Bn1  v036
 BYTE   N11  Fs2
 BYTE   N11  Bn2
 BYTE   N11  Fs3
 BYTE   W12
 BYTE   As1
 BYTE   N11  Fn2
 BYTE   N11  As2
 BYTE   N23  Fn3
 BYTE   W12
 BYTE   N11  As1
 BYTE   N11  Fn2
 BYTE   N11  As2
 BYTE   W12
 BYTE   As1
 BYTE   N11  Fn2
 BYTE   N11  As2
 BYTE   N11  Cs3  v092
 BYTE   N11  Fn3  v036
 BYTE   N11  As3  v092
 BYTE   N11  Cs4
 BYTE   W12
 BYTE   As1  v036
 BYTE   N11  Fn2
 BYTE   N11  As2
 BYTE   N11  Cs3  v092
 BYTE   N11  Fn3  v036
 BYTE   N11  As3  v092
 BYTE   N11  Cs4
 BYTE   W12
//  #06 //192   ----------------------------------------
 BYTE   PATT
  POIN2 Label_018427B5
//  #06 //193   ----------------------------------------
 BYTE   PATT
  POIN2 Label_0184282E
//  #06 //194   ----------------------------------------
 BYTE   N11  Bn1  v036
 BYTE   N11  Ds2
 BYTE   N23  Fs2
 BYTE   N11  Gs2
 BYTE   N23  Fs3
 BYTE   N23  As3  v092
 BYTE   N23  Ds4
 BYTE   N23  As4
 BYTE   W12
 BYTE   N11  Bn1  v036
 BYTE   N11  Ds2
 BYTE   N11  Gs2
 BYTE   W12
 BYTE   Bn1
 BYTE   N11  Ds2
 BYTE   N11  Gs2
 BYTE   N11  Ds3
 BYTE   N23  Fs3  v092
 BYTE   N23  Ds4
 BYTE   N23  Fs4
 BYTE   W12
 BYTE   N11  Cs2  v036
 BYTE   N11  Fn2
 BYTE   N11  As2
 BYTE   N32  Fn3
 BYTE   W12
 BYTE   N11  Cs2
 BYTE   N11  Fn2
 BYTE   N11  As2
 BYTE   W12
 BYTE   Cs2
 BYTE   N11  Fn2
 BYTE   N11  As2
 BYTE   W12
 BYTE   Ds2
 BYTE   N11  Fs2
 BYTE   N11  Bn2
 BYTE   N32  Fs3
 BYTE   N23  Cs4  v092
 BYTE   N23  Fs4
 BYTE   N23  Cs5
 BYTE   W12
 BYTE   N11  Ds2  v036
 BYTE   N11  Fs2
 BYTE   N11  Bn2
 BYTE   W12
//  #06 //195   ----------------------------------------
 BYTE   Ds2
 BYTE   N11  Fs2
 BYTE   N11  Bn2
 BYTE   N23  Gs3  v092
 BYTE   N23  Bn3
 BYTE   N23  Gs4
 BYTE   W12
 BYTE   N11  Cs2  v036
 BYTE   N11  Fn2
 BYTE   N11  Fs2
 BYTE   N11  As2
 BYTE   N11  Fs3
 BYTE   W12
 BYTE   Cs2
 BYTE   N11  Fn2
 BYTE   N11  Fs2
 BYTE   N11  As2
 BYTE   N11  Fs3
 BYTE   N23  As3  v092
 BYTE   N23  Fs4
 BYTE   W12
 BYTE   N11  Cs2  v036
 BYTE   N11  Fn2
 BYTE   N11  As2
 BYTE   N11  Cs3
 BYTE   N11  Cs4
 BYTE   W12
 BYTE   Ds2
 BYTE   N11  Cs3
 BYTE   N11  Ds3
 BYTE   N11  Cs4
 BYTE   W12
 BYTE   Ds2
 BYTE   N11  Cs3
 BYTE   N11  Ds3
 BYTE   N11  Cs4
 BYTE   W12
 BYTE   Cs2
 BYTE   N11  Cs3
 BYTE   N11  Gs3  v092
 BYTE   N11  Cs4  v036
 BYTE   N11  Gs4  v092
 BYTE   W12
 BYTE   Cs2  v036
 BYTE   N11  Cs3
 BYTE   N11  As3  v092
 BYTE   N11  Cs4  v036
 BYTE   N11  As4  v092
 BYTE   W12
//  #06 //196   ----------------------------------------
 BYTE   PATT
  POIN2 Label_01842961
//  #06 //197   ----------------------------------------
 BYTE   N23  Cs2  v036
 BYTE   N16  Gs2
 BYTE   N11  Cs3
 BYTE   N11  Cs4  v060
 BYTE   W12
 BYTE   N01  Cn3
 BYTE   N01  Cs3
 BYTE   N01  Cn4
 BYTE   N01  Cs4
 BYTE   W01
 BYTE   Bn2
 BYTE   N01  Bn3
 BYTE   W02
 BYTE   An2
 BYTE   N01  As2
 BYTE   N01  An3
 BYTE   N01  As3
 BYTE   W01
 BYTE   Gs2
 BYTE   N01  Gs3
 BYTE   W02
 BYTE   Fs2
 BYTE   N01  Gn2
 BYTE   N01  Fs3
 BYTE   N01  Gn3
 BYTE   W01
 BYTE   Fn2
 BYTE   N01  Fn3
 BYTE   W02
 BYTE   Ds2
 BYTE   N01  En2
 BYTE   N01  Ds3
 BYTE   N01  En3
 BYTE   W01
 BYTE   Dn2
 BYTE   N01  Dn3
 BYTE   W02
 BYTE   N05  Cs2
 BYTE   N05  Cs3
 BYTE   W12
 BYTE   N11  Cs3  v092
 BYTE   N11  Gs3
 BYTE   N11  Cs4
 BYTE   W12
 BYTE   N32  Bn3
 BYTE   N32  Gs4
 BYTE   N32  Bn4
 BYTE   W36
 BYTE   TIE  As3
 BYTE   N84  Cs4
 BYTE   TIE  As4
 BYTE   W12
//  #06 //198   ----------------------------------------
 BYTE   PATT
  POIN2 Label_01841C77
//  #06 //199   ----------------------------------------
 BYTE   N11  Bn1  v036
 BYTE   N11  Fs2
 BYTE   N11  Bn2
 BYTE   N11  Cs4  v092
 BYTE   W12
 BYTE   Bn1  v036
 BYTE   N11  Fs2
 BYTE   N11  Bn2
 BYTE   N23  Gs3  v092
 BYTE   W12
 BYTE   N11  Bn1  v036
 BYTE   N11  Fs2
 BYTE   N11  Bn2
 BYTE   W12
 BYTE   Bn1
 BYTE   N11  Fs2
 BYTE   N11  Bn2
 BYTE   N11  Gs3  v092
 BYTE   W12
 BYTE   Bn1  v036
 BYTE   N11  Fs2
 BYTE   N11  Bn2
 BYTE   N23  Fs3  v092
 BYTE   W12
 BYTE   N11  Bn1  v036
 BYTE   N11  Fs2
 BYTE   N11  Bn2
 BYTE   W12
 BYTE   Bn1
 BYTE   N11  Fs2
 BYTE   N11  Bn2
 BYTE   N23  Gs3  v092
 BYTE   W12
 BYTE   N11  Bn1  v036
 BYTE   N11  Fs2
 BYTE   N11  Bn2
 BYTE   W11
 BYTE   EOT
 BYTE   As3  v082
 BYTE   W01
//  #06 //200   ----------------------------------------
 BYTE   N11  Cs2
 BYTE   N11  Gs2
 BYTE   N11  Cs3
 BYTE   N23  Fn3  v092
 BYTE   W12
 BYTE   N11  Cs2  v036
 BYTE   N11  Gs2
 BYTE   N11  Cs3
 BYTE   W12
 BYTE   Cs2
 BYTE   N11  Gs2
 BYTE   N11  Cs3
 BYTE   N11  Fn3  v092
 BYTE   W12
 BYTE   Cs2  v036
 BYTE   N11  Gs2
 BYTE   N11  Cs3
 BYTE   N23  Fs3  v092
 BYTE   W12
 BYTE   N11  Cs2  v036
 BYTE   N11  Gs2
 BYTE   N11  Cs3
 BYTE   W12
 BYTE   Cs2
 BYTE   N11  Gs2
 BYTE   N11  Cs3
 BYTE   N11  Fs3  v092
 BYTE   W12
 BYTE   Cs2  v036
 BYTE   N11  Gs2
 BYTE   N11  Cs3
 BYTE   N68  Cs4  v092
 BYTE   W12
 BYTE   N11  Cs2  v036
 BYTE   N11  Gs2
 BYTE   N11  Cs3
 BYTE   W12
//  #06 //201   ----------------------------------------
 BYTE   Cs2
 BYTE   N11  Gs2
 BYTE   N11  Cs3
 BYTE   W12
 BYTE   Cs2
 BYTE   N11  Gs2
 BYTE   N11  Cs3
 BYTE   W12
 BYTE   Cs2
 BYTE   N11  Gs2
 BYTE   N11  Cs3
 BYTE   W12
 BYTE   Cs2
 BYTE   N11  Gs2
 BYTE   N11  Cs3
 BYTE   N23  Gs3  v092
 BYTE   N12  Gs4
 BYTE   W12
 BYTE   N11  Cs2  v036
 BYTE   N11  Gs2
 BYTE   N11  Cs3
 BYTE   N11  Gs4  v092
 BYTE   W12
 BYTE   Cs2  v036
 BYTE   N11  Gs2
 BYTE   N11  Cs3
 BYTE   N32  Fs3  v092
 BYTE   N11  Fs4
 BYTE   W12
 BYTE   Cs2  v036
 BYTE   N11  Gs2
 BYTE   N11  Cs3
 BYTE   N11  Fn4  v092
 BYTE   W12
 BYTE   Cs2  v036
 BYTE   N11  Gs2
 BYTE   N11  Cs3
 BYTE   N11  Fs4  v092
 BYTE   W12
//  #06 //202   ----------------------------------------
 BYTE   Gs1  v036
 BYTE   N11  Ds2
 BYTE   N11  Gs2
 BYTE   N23  As4  v092
 BYTE   W12
 BYTE   N11  Gs1  v036
 BYTE   N11  Ds2
 BYTE   N11  Gs2
 BYTE   W12
 BYTE   Gs1
 BYTE   N11  Ds2
 BYTE   N11  Gs2
 BYTE   N11  As4  v092
 BYTE   W12
 BYTE   Gs1  v036
 BYTE   N11  Ds2
 BYTE   N11  Gs2
 BYTE   N23  Gs4  v092
 BYTE   W12
 BYTE   N11  Gs1  v036
 BYTE   N11  Ds2
 BYTE   N11  Gs2
 BYTE   W12
 BYTE   Gs1
 BYTE   N11  Ds2
 BYTE   N11  Gs2
 BYTE   N11  Gs4  v092
 BYTE   W12
 BYTE   Gs1  v036
 BYTE   N11  Ds2
 BYTE   N11  Gs2
 BYTE   N23  Cs5  v092
 BYTE   W12
 BYTE   N11  As1  v036
 BYTE   N11  Fn2
 BYTE   N11  As2
 BYTE   W12
//  #06 //203   ----------------------------------------
 BYTE   As1
 BYTE   N11  Fn2
 BYTE   N11  As2
 BYTE   N11  Cs5  v092
 BYTE   W12
 BYTE   As1  v036
 BYTE   N11  Fn2
 BYTE   N11  As2
 BYTE   N23  Fs4  v092
 BYTE   W12
 BYTE   N11  As1  v036
 BYTE   N11  Fn2
 BYTE   N11  As2
 BYTE   W12
 BYTE   As1
 BYTE   N11  Fn2
 BYTE   N11  As2
 BYTE   N11  Fs4  v092
 BYTE   W12
 BYTE   As1  v036
 BYTE   N11  Fn2
 BYTE   N11  As2
 BYTE   N23  Fn4  v092
 BYTE   W12
 BYTE   N11  As1  v036
 BYTE   N11  Fn2
 BYTE   N11  As2
 BYTE   W12
 BYTE   Cs2
 BYTE   N11  Gs2
 BYTE   N11  Cs3
 BYTE   N23  Gs4  v092
 BYTE   W12
 BYTE   N11  Cs2  v036
 BYTE   N11  Gs2
 BYTE   N11  Cs3
 BYTE   W12
//  #06 //204   ----------------------------------------
 BYTE   Ds2
 BYTE   N11  As2
 BYTE   N11  Ds3
 BYTE   N68  Fs4  v092
 BYTE   W12
 BYTE   N11  Ds2  v036
 BYTE   N11  As2
 BYTE   N11  Ds3
 BYTE   W12
 BYTE   Ds2
 BYTE   N11  As2
 BYTE   N11  Ds3
 BYTE   W12
 BYTE   Ds2
 BYTE   N11  As2
 BYTE   N11  Ds3
 BYTE   W12
 BYTE   Ds2
 BYTE   N11  As2
 BYTE   N11  Ds3
 BYTE   W12
 BYTE   Ds2
 BYTE   N11  As2
 BYTE   N11  Ds3
 BYTE   W12
 BYTE   Ds2
 BYTE   N11  As2
 BYTE   N11  Ds3
 BYTE   N23  Cs4  v092
 BYTE   W12
 BYTE   N11  Ds2  v036
 BYTE   N11  As2
 BYTE   N11  Ds3
 BYTE   W12
//  #06 //205   ----------------------------------------
 BYTE   Cs2
 BYTE   N11  Gs2
 BYTE   N11  Cs3
 BYTE   N44  As4  v092
 BYTE   W18
 BYTE   N11  Cs2  v036
 BYTE   N11  Gs2
 BYTE   N11  Cs3
 BYTE   W18
 BYTE   Cs2
 BYTE   N11  Gs2
 BYTE   N11  Cs3
 BYTE   W12
 BYTE   BEND   c_v+16
 BYTE   N11  Cs2
 BYTE   N11  Gs2
 BYTE   N11  Cs3
 BYTE   N68  Fn4  v092
 BYTE   W18
 BYTE   N11  Cs2  v036
 BYTE   N11  Gs2
 BYTE   N11  Cs3
 BYTE   W18
 BYTE   Cs2
 BYTE   N11  Gs2
 BYTE   N11  Cs3
 BYTE   W12
//  #06 //206   ----------------------------------------
 BYTE   W12
 BYTE   BEND   c_v+14
 BYTE   W01
 BYTE   BEND   c_v+13
 BYTE   W01
 BYTE   BEND   c_v+12
 BYTE   W01
 BYTE   BEND   c_v+11
 BYTE   W01
 BYTE   BEND   c_v+9
 BYTE   W01
 BYTE   BEND   c_v+8
 BYTE   W01
 BYTE   BEND   c_v+7
 BYTE   W01
 BYTE   BEND   c_v+6
 BYTE   W01
 BYTE   BEND   c_v+4
 BYTE   W01
 BYTE   BEND   c_v+3
 BYTE   W01
 BYTE   BEND   c_v+2
 BYTE   W01
 BYTE   BEND   c_v+1
 BYTE   W01
 BYTE   BEND   c_v+0
 BYTE   W72
//  #06 //207   ----------------------------------------
 BYTE   W96
//  #06 //208   ----------------------------------------
 BYTE   W96
//  #06 //209   ----------------------------------------
 BYTE   W96
//  #06 //210   ----------------------------------------
 BYTE   W96
//  #06 //211   ----------------------------------------
 BYTE   W96
//  #06 //212   ----------------------------------------
 BYTE   W96
//  #06 //213   ----------------------------------------
 BYTE   W76
 BYTE   FINE

//**************** Track 7 (Midi-Chn.6) ****************//

song38_007:
//  #07 //000   ----------------------------------------
 BYTE   KEYSH   song38_key+0
 BYTE   VOICE   89
 BYTE   MODT 0
 BYTE   LFOS 44
 BYTE   VOL   54*song38_mvl/mxv
 BYTE   MODT 0
 BYTE   LFOS 44
 BYTE   PAN   c_v+0
 BYTE   TIE  Bn0  v036
 BYTE   TIE  Bn1
 BYTE   TIE  Bn2
 BYTE   W96
//  #07 //001   ----------------------------------------
 BYTE   W92
 BYTE   W03
 BYTE   EOT
 BYTE   Bn0  v047
 BYTE   Bn2
 BYTE   W01
//  #07 //002   ----------------------------------------
 BYTE   TIE  Cs1
 BYTE   TIE  Cs2
 BYTE   TIE  Cs3
 BYTE   W96
//  #07 //003   ----------------------------------------
 BYTE   W92
 BYTE   W03
 BYTE   EOT
 BYTE   Cs1  v049
 BYTE   Cs3
 BYTE   W01
//  #07 //004   ----------------------------------------
 BYTE   TIE  Ds1
 BYTE   TIE  Ds2
 BYTE   TIE  Ds3
 BYTE   W96
//  #07 //005   ----------------------------------------
 BYTE   W92
 BYTE   W03
 BYTE   EOT
 BYTE   Ds1  v051
 BYTE   Ds3
 BYTE   W01
//  #07 //006   ----------------------------------------
 BYTE   N96  Fs1
 BYTE   TIE  Fs2
 BYTE   TIE  Fs3
 BYTE   W96
//  #07 //007   ----------------------------------------
 BYTE   N44  Fs1
 BYTE   W48
 BYTE   Ds2
 BYTE   W44
 BYTE   W03
 BYTE   EOT
 BYTE   Fs2  v066
 BYTE   W01
//  #07 //008   ----------------------------------------
 BYTE   TIE  Bn0
 BYTE   TIE  Bn1
 BYTE   N11  Ds2
 BYTE   TIE  Bn2
 BYTE   W12
 BYTE   N23  Fs2
 BYTE   W24
 BYTE   Cs3
 BYTE   W24
 BYTE   Gs2
 BYTE   W24
 BYTE   N60  Fs2
 BYTE   W12
//  #07 //009   ----------------------------------------
 BYTE   W44
 BYTE   W03
 BYTE   EOT
 BYTE   Bn1
 BYTE   W01
 BYTE   N44  Fs2
 BYTE   W44
 BYTE   W03
 BYTE   EOT
 BYTE   Bn0  v059
 BYTE   W01
//  #07 //010   ----------------------------------------
 BYTE   TIE  Cs1
 BYTE   N68  Cs2
 BYTE   N11  Fs2
 BYTE   N60  Cs3
 BYTE   W12
 BYTE   N23  Gs2
 BYTE   W24
 BYTE   Ds3
 BYTE   W24
 BYTE   Cs3
 BYTE   W12
 BYTE   Cs2
 BYTE   W12
 BYTE   TIE  Cs3
 BYTE   W12
//  #07 //011   ----------------------------------------
 BYTE   N92  Fn2
 BYTE   W92
 BYTE   W03
 BYTE   EOT
 BYTE   Cs1  v061
 BYTE   W01
//  #07 //012   ----------------------------------------
 BYTE   TIE  Ds1
 BYTE   N11  Ds2
 BYTE   TIE  Ds3
 BYTE   W12
 BYTE   N23  Fs2
 BYTE   W24
 BYTE   Cs3
 BYTE   W24
 BYTE   Gs2
 BYTE   W12
 BYTE   Cs2
 BYTE   W12
 BYTE   N12  Fs2
 BYTE   W12
//  #07 //013   ----------------------------------------
 BYTE   N44
 BYTE   W48
 BYTE   Gs2
 BYTE   W44
 BYTE   W03
 BYTE   EOT
 BYTE   Ds1  v063
 BYTE   W01
//  #07 //014   ----------------------------------------
 BYTE   TIE  Fs1
 BYTE   N11  Ds2
 BYTE   N12  Fs2
 BYTE   N92  As2
 BYTE   TIE  Fs3
 BYTE   W12
 BYTE   N23  Fs2
 BYTE   W24
 BYTE   Cs3
 BYTE   W24
 BYTE   Gs2
 BYTE   W24
 BYTE   N12  Fs2
 BYTE   W12
//  #07 //015   ----------------------------------------
 BYTE   N92
 BYTE   W92
 BYTE   W03
 BYTE   EOT
 BYTE   Fs1  v066
 BYTE   W01
//  #07 //016   ----------------------------------------
Label_01844845:
 BYTE   N11  Bn0  v036
 BYTE   N11  Fs3
 BYTE   W12
 BYTE   Ds1
 BYTE   N11  Ds3
 BYTE   W12
 BYTE   Fs1
 BYTE   N11  Bn2
 BYTE   W12
 BYTE   Bn0
 BYTE   N11  Fs3
 BYTE   W12
 BYTE   Ds1
 BYTE   N11  Ds3
 BYTE   W12
 BYTE   Fs1
 BYTE   N11  Bn2
 BYTE   W12
 BYTE   Bn0
 BYTE   N11  Fs3
 BYTE   W12
 BYTE   Ds1
 BYTE   N11  Ds3
 BYTE   W12
 BYTE   PEND 
//  #07 //017   ----------------------------------------
Label_01844868:
 BYTE   N11  Fs1  v036
 BYTE   N11  Bn2
 BYTE   W12
 BYTE   Bn0
 BYTE   N11  Fs3
 BYTE   W12
 BYTE   Ds1
 BYTE   N11  Ds3
 BYTE   W12
 BYTE   Fs1
 BYTE   N11  Bn2
 BYTE   W12
 BYTE   Bn0
 BYTE   N11  Fs3
 BYTE   W12
 BYTE   Bn0
 BYTE   N11  Bn2
 BYTE   W12
 BYTE   Bn0
 BYTE   N11  Fs3
 BYTE   W12
 BYTE   Bn0
 BYTE   N11  Bn2
 BYTE   W12
 BYTE   PEND 
//  #07 //018   ----------------------------------------
Label_0184488B:
 BYTE   N11  Cs1  v036
 BYTE   N11  Gs3
 BYTE   W12
 BYTE   Fn1
 BYTE   N11  Fn3
 BYTE   W12
 BYTE   Gs1
 BYTE   N11  Cs3
 BYTE   W12
 BYTE   Cs1
 BYTE   N11  Gs3
 BYTE   W12
 BYTE   Fn1
 BYTE   N11  Fn3
 BYTE   W12
 BYTE   Gs1
 BYTE   N11  Cs3
 BYTE   W12
 BYTE   Cs1
 BYTE   N11  Gs3
 BYTE   W12
 BYTE   Fn1
 BYTE   N11  Fn3
 BYTE   W12
 BYTE   PEND 
//  #07 //019   ----------------------------------------
Label_018448AE:
 BYTE   N11  Gs1  v036
 BYTE   N11  Cs3
 BYTE   W12
 BYTE   Cs1
 BYTE   N11  Gs3
 BYTE   W12
 BYTE   Fn1
 BYTE   N11  Fn3
 BYTE   W12
 BYTE   Gs1
 BYTE   N11  Cs3
 BYTE   W12
 BYTE   Cs1
 BYTE   N11  Gs3
 BYTE   W12
 BYTE   Cs1
 BYTE   N11  Cs3
 BYTE   W12
 BYTE   Cs1
 BYTE   N11  Gs3
 BYTE   W12
 BYTE   Cs1
 BYTE   N11  Cs3
 BYTE   W12
 BYTE   PEND 
//  #07 //020   ----------------------------------------
 BYTE   As0
 BYTE   N11  Fn3
 BYTE   W12
 BYTE   Cs1
 BYTE   N11  Cs3
 BYTE   W12
 BYTE   Fn1
 BYTE   N11  As2
 BYTE   W12
 BYTE   As0
 BYTE   N11  Fn3
 BYTE   W12
 BYTE   Cs1
 BYTE   N11  Cs3
 BYTE   W12
 BYTE   Fn1
 BYTE   N11  As2
 BYTE   W12
 BYTE   As0
 BYTE   N11  Fn3
 BYTE   W12
 BYTE   Cs1
 BYTE   N11  Cs3
 BYTE   W12
//  #07 //021   ----------------------------------------
 BYTE   Fn1
 BYTE   N11  As2
 BYTE   W12
 BYTE   As0
 BYTE   N11  Fn3
 BYTE   W12
 BYTE   Cs1
 BYTE   N11  Cs3
 BYTE   W12
 BYTE   Fn1
 BYTE   N11  As2
 BYTE   W12
 BYTE   As0
 BYTE   N11  Fn3
 BYTE   W12
 BYTE   As0
 BYTE   N11  As2
 BYTE   W12
 BYTE   As0
 BYTE   N11  Fn3
 BYTE   W12
 BYTE   As0
 BYTE   N11  As2
 BYTE   W12
//  #07 //022   ----------------------------------------
 BYTE   Ds1
 BYTE   N11  As3
 BYTE   W12
 BYTE   Fs1
 BYTE   N11  Fs3
 BYTE   W12
 BYTE   As1
 BYTE   N11  Ds3
 BYTE   W12
 BYTE   Ds1
 BYTE   N11  As3
 BYTE   W12
 BYTE   Fs1
 BYTE   N11  Fs3
 BYTE   W12
 BYTE   As1
 BYTE   N11  Ds3
 BYTE   W12
 BYTE   Ds1
 BYTE   N11  As3
 BYTE   W12
 BYTE   Fs1
 BYTE   N11  Fs3
 BYTE   W12
//  #07 //023   ----------------------------------------
 BYTE   As1
 BYTE   N11  Ds3
 BYTE   W12
 BYTE   Ds1
 BYTE   N11  As3
 BYTE   W12
 BYTE   Fs1
 BYTE   N11  Fs3
 BYTE   W12
 BYTE   As1
 BYTE   N11  Ds3
 BYTE   W12
 BYTE   N02  Ds1
 BYTE   N11  As3
 BYTE   W02
 BYTE   N02  Dn1
 BYTE   W03
 BYTE   Cs1
 BYTE   W04
 BYTE   Cn1
 BYTE   W02
 BYTE   Bn0
 BYTE   W01
 BYTE   N11  Ds3
 BYTE   W02
 BYTE   N02  As0
 BYTE   W04
 BYTE   An0
 BYTE   W02
 BYTE   Gs0
 BYTE   W03
 BYTE   Gn0
 BYTE   W01
 BYTE   N11  As3
 BYTE   W03
 BYTE   N02  Fs0
 BYTE   W02
 BYTE   Fn0
 BYTE   W03
 BYTE   En0
 BYTE   W04
 BYTE   N11  Ds0
 BYTE   N11  Ds3
 BYTE   W12
//  #07 //024   ----------------------------------------
 BYTE   TIE  Bn0
 BYTE   W96
//  #07 //025   ----------------------------------------
 BYTE   W44
 BYTE   W03
 BYTE   EOT
 BYTE   W01
 BYTE   N44  Fs1
 BYTE   W48
//  #07 //026   ----------------------------------------
 BYTE   TIE  As0
 BYTE   W72
 BYTE   N23  Fs3
 BYTE   W24
//  #07 //027   ----------------------------------------
 BYTE   N32  Fn3
 BYTE   W36
 BYTE   Cs3
 BYTE   W11
 BYTE   EOT
 BYTE   As0
 BYTE   W01
 BYTE   N23
 BYTE   W24
 BYTE   Fn1
 BYTE   N23  Gs2
 BYTE   W24
//  #07 //028   ----------------------------------------
 BYTE   N68  Ds1
 BYTE   N32  As2
 BYTE   W36
 BYTE   Cs3
 BYTE   W36
 BYTE   N23  As1
 BYTE   N23  Gs3
 BYTE   W24
//  #07 //029   ----------------------------------------
 BYTE   N32  Cs1
 BYTE   N32  Fn3
 BYTE   W36
 BYTE   Gs1
 BYTE   N56  Cs3
 BYTE   W36
 BYTE   N23  Cs1
 BYTE   W24
//  #07 //030   ----------------------------------------
 BYTE   N68  Cn1
 BYTE   N32  Ds3
 BYTE   W36
 BYTE   Fs3
 BYTE   W36
 BYTE   N23  Fs1
 BYTE   N44  Ds4
 BYTE   W24
//  #07 //031   ----------------------------------------
 BYTE   Cn2
 BYTE   W24
 BYTE   N23  As3
 BYTE   W24
 BYTE   N02  Cn2
 BYTE   N23  Fs3
 BYTE   W02
 BYTE   N02  Bn1
 BYTE   W03
 BYTE   As1
 BYTE   W04
 BYTE   An1
 BYTE   W02
 BYTE   Gs1
 BYTE   W03
 BYTE   Gn1
 BYTE   W04
 BYTE   Fs1
 BYTE   W02
 BYTE   Fn1
 BYTE   W03
 BYTE   En1
 BYTE   W01
 BYTE   N23  Ds3
 BYTE   W03
 BYTE   N02  Ds1
 BYTE   W02
 BYTE   Dn1
 BYTE   W03
 BYTE   Cs1
 BYTE   W04
 BYTE   N11  Cn1
 BYTE   W12
//  #07 //032   ----------------------------------------
 BYTE   Bn0
 BYTE   W12
 BYTE   Fs1
 BYTE   W12
 BYTE   Bn0
 BYTE   W12
 BYTE   Bn1
 BYTE   W12
 BYTE   Bn0
 BYTE   W12
 BYTE   Bn1
 BYTE   W24
 BYTE   Bn0
 BYTE   W12
//  #07 //033   ----------------------------------------
 BYTE   W12
 BYTE   Bn1
 BYTE   W12
 BYTE   Bn0
 BYTE   W24
 BYTE   N11
 BYTE   W12
 BYTE   Fs1
 BYTE   W12
 BYTE   Bn0
 BYTE   W12
 BYTE   Bn1
 BYTE   W12
//  #07 //034   ----------------------------------------
 BYTE   Cs1
 BYTE   W12
 BYTE   Gs1
 BYTE   W12
 BYTE   Cs1
 BYTE   W12
 BYTE   Cs2
 BYTE   W12
 BYTE   Cs1
 BYTE   W12
 BYTE   Cs2
 BYTE   W24
 BYTE   Cs1
 BYTE   W12
//  #07 //035   ----------------------------------------
 BYTE   W12
 BYTE   Cs2
 BYTE   W12
 BYTE   Cs1
 BYTE   W24
 BYTE   N11
 BYTE   W12
 BYTE   Gs1
 BYTE   W12
 BYTE   Cs1
 BYTE   W12
 BYTE   Cs2
 BYTE   W12
//  #07 //036   ----------------------------------------
 BYTE   Gs1
 BYTE   N11  Fs2
 BYTE   N11  Fs3
 BYTE   W12
 BYTE   Bn0
 BYTE   N11  Fs2
 BYTE   N11  Fs3
 BYTE   W12
 BYTE   Ds1
 BYTE   N11  Fs2
 BYTE   N11  Fs3
 BYTE   W12
 BYTE   Gs1
 BYTE   N11  Fs2
 BYTE   N11  Fs3
 BYTE   W12
 BYTE   Ds1
 BYTE   N11  Fs2
 BYTE   N11  Fs3
 BYTE   W12
 BYTE   Bn0
 BYTE   N11  Fs2
 BYTE   N11  Fs3
 BYTE   W12
 BYTE   Gs0
 BYTE   N11  Fs2
 BYTE   N11  Fs3
 BYTE   W12
 BYTE   As0
 BYTE   N11  Gs2
 BYTE   N11  Gs3
 BYTE   W12
//  #07 //037   ----------------------------------------
 BYTE   Cs1
 BYTE   N11  Gs2
 BYTE   N11  Gs3
 BYTE   W12
 BYTE   Fn1
 BYTE   N11  Gs2
 BYTE   N11  Gs3
 BYTE   W12
 BYTE   As1
 BYTE   N11  Gs2
 BYTE   N11  Gs3
 BYTE   W12
 BYTE   Fn1
 BYTE   N11  Gs2
 BYTE   N11  Gs3
 BYTE   W12
 BYTE   Cs1
 BYTE   N11  Gs2
 BYTE   N11  Gs3
 BYTE   W12
 BYTE   As0
 BYTE   N11  Gs2
 BYTE   N11  Gs3
 BYTE   W12
 BYTE   Cs1
 BYTE   N11  Gs2
 BYTE   N11  Gs3
 BYTE   W12
 BYTE   Fn1
 BYTE   N11  Gs2
 BYTE   N11  Gs3
 BYTE   W12
//  #07 //038   ----------------------------------------
 BYTE   Bn0
 BYTE   N11  Ds2
 BYTE   N11  Ds3
 BYTE   W12
 BYTE   Ds1
 BYTE   N11  Ds2
 BYTE   N11  Ds3
 BYTE   W12
 BYTE   Fs1
 BYTE   W12
 BYTE   Bn1
 BYTE   N11  Cs2
 BYTE   N11  Cs3
 BYTE   W12
 BYTE   Fs1
 BYTE   N11  Cs2
 BYTE   N11  Cs3
 BYTE   W12
 BYTE   Ds1
 BYTE   W12
 BYTE   Bn0
 BYTE   W12
 BYTE   Bn1
 BYTE   N23  Ds2
 BYTE   N23  Ds3
 BYTE   W12
//  #07 //039   ----------------------------------------
 BYTE   N11  Ds1
 BYTE   W12
 BYTE   Fs1
 BYTE   N11  Ds2
 BYTE   N11  Ds3
 BYTE   W12
 BYTE   Bn1
 BYTE   N11  Fn2
 BYTE   N11  Fn3
 BYTE   W12
 BYTE   Fs1
 BYTE   N11  Fn2
 BYTE   N11  Fn3
 BYTE   W12
 BYTE   Ds1
 BYTE   N11  Fs2
 BYTE   N11  Fs3
 BYTE   W12
 BYTE   Bn0
 BYTE   N11  Fs2
 BYTE   N11  Fs3
 BYTE   W12
 BYTE   Ds1
 BYTE   N11  Gs2
 BYTE   N11  Gs3
 BYTE   W12
 BYTE   Fs1
 BYTE   N11  Fs2
 BYTE   N11  Fs3
 BYTE   W12
//  #07 //040   ----------------------------------------
 BYTE   Cs1
 BYTE   N11  Fn3
 BYTE   W12
 BYTE   Cs1
 BYTE   N11  Fn3
 BYTE   W12
 BYTE   Gs1
 BYTE   N11  Fn3
 BYTE   W12
 BYTE   Cs1
 BYTE   W12
 BYTE   Gs0
 BYTE   N11  Ds3
 BYTE   W12
 BYTE   Cs1
 BYTE   N11  Fn3
 BYTE   W12
 BYTE   Gs1
 BYTE   N11  Fn3
 BYTE   W12
 BYTE   Cs1
 BYTE   N11  Fn3
 BYTE   W12
//  #07 //041   ----------------------------------------
 BYTE   Cs1
 BYTE   N11  Ds3
 BYTE   W12
 BYTE   Cs1
 BYTE   N11  Fn3
 BYTE   W12
 BYTE   Gs1
 BYTE   N11  Fn3
 BYTE   W12
 BYTE   Cs1
 BYTE   W12
 BYTE   Gs0
 BYTE   W12
 BYTE   Cs1
 BYTE   N11  Ds3
 BYTE   W12
 BYTE   Gs1
 BYTE   N11  Fn3
 BYTE   W12
 BYTE   Cs1
 BYTE   N11  Fn3
 BYTE   W12
//  #07 //042   ----------------------------------------
 BYTE   Bn0
 BYTE   N11  Fs3
 BYTE   W12
 BYTE   Bn0
 BYTE   N11  Fs3
 BYTE   W12
 BYTE   Fs1
 BYTE   N11  Fs3
 BYTE   W12
 BYTE   Bn0
 BYTE   W12
 BYTE   Fs0
 BYTE   N11  Fn3
 BYTE   W12
 BYTE   Bn0
 BYTE   N11  Fs3
 BYTE   W12
 BYTE   Fs1
 BYTE   N11  Fs3
 BYTE   W12
 BYTE   Bn0
 BYTE   N11  Fs3
 BYTE   W12
//  #07 //043   ----------------------------------------
 BYTE   As0
 BYTE   N11  Bn2
 BYTE   N11  Bn3
 BYTE   W12
 BYTE   As0
 BYTE   N11  Bn2
 BYTE   N11  Bn3
 BYTE   W12
 BYTE   Fn1
 BYTE   N11  As2
 BYTE   N11  As3
 BYTE   W12
 BYTE   As0
 BYTE   N11  As2
 BYTE   N11  As3
 BYTE   W12
 BYTE   Fn0
 BYTE   N11  Gs2
 BYTE   N11  Gs3
 BYTE   W12
 BYTE   As0
 BYTE   N11  Gs2
 BYTE   N11  Gs3
 BYTE   W12
 BYTE   Fn1
 BYTE   N11  Fs2
 BYTE   N11  Fs3
 BYTE   W12
 BYTE   As0
 BYTE   N11  Fs2
 BYTE   N11  Fs3
 BYTE   W12
//  #07 //044   ----------------------------------------
 BYTE   N23  Gs0
 BYTE   N05  Fs3  v012
 BYTE   W12
 BYTE   Fn3
 BYTE   W12
 BYTE   N01  Gs0  v036
 BYTE   N05  Ds3  v012
 BYTE   W01
 BYTE   N01  Gn0  v036
 BYTE   W02
 BYTE   Fs0
 BYTE   W03
 BYTE   Fn0
 BYTE   W01
 BYTE   En0
 BYTE   W02
 BYTE   Ds0
 BYTE   W03
 BYTE   Dn0
 BYTE   N05  Fs3  v012
 BYTE   W01
 BYTE   N01  Cs0  v036
 BYTE   W02
 BYTE   Cn0
 BYTE   W03
 BYTE   BnM1
 BYTE   W01
 BYTE   AsM1
 BYTE   W02
 BYTE   AnM1
 BYTE   W03
 BYTE   N11  GsM1
 BYTE   N05  Fn3  v012
 BYTE   W12
 BYTE   Ds3
 BYTE   W12
 BYTE   Fs3
 BYTE   W12
 BYTE   Fn3
 BYTE   W12
//  #07 //045   ----------------------------------------
 BYTE   Ds3
 BYTE   W12
 BYTE   Fs3
 BYTE   W12
 BYTE   Fn3
 BYTE   W12
 BYTE   Ds3
 BYTE   W12
 BYTE   Fs3
 BYTE   W12
 BYTE   Fn3
 BYTE   W12
 BYTE   N01  Ds1  v036
 BYTE   N05  Ds3  v012
 BYTE   W01
 BYTE   N01  Dn1  v036
 BYTE   W01
 BYTE   Cs1
 BYTE   W02
 BYTE   Cn1
 BYTE   W01
 BYTE   Bn0
 BYTE   W02
 BYTE   As0
 BYTE   W02
 BYTE   An0
 BYTE   W01
 BYTE   Gs0
 BYTE   W01
 BYTE   Gn0
 BYTE   W01
 BYTE   N05  Fs3  v012
 BYTE   W01
 BYTE   N01  Fs0  v036
 BYTE   W01
 BYTE   Fn0
 BYTE   W02
 BYTE   En0
 BYTE   W02
 BYTE   N05  Ds0
 BYTE   W06
//  #07 //046   ----------------------------------------
Label_01844BAF:
 BYTE   N11  Bn0  v036
 BYTE   W12
 BYTE   N11
 BYTE   W12
 BYTE   N11
 BYTE   W12
 BYTE   N11
 BYTE   W12
 BYTE   N11
 BYTE   W12
 BYTE   N11
 BYTE   W12
 BYTE   N11
 BYTE   W12
 BYTE   N11
 BYTE   W12
 BYTE   PEND 
//  #07 //047   ----------------------------------------
Label_01844BC2:
 BYTE   N11  As0  v036
 BYTE   W12
 BYTE   N11
 BYTE   W12
 BYTE   N11
 BYTE   W12
 BYTE   N11
 BYTE   W12
 BYTE   An0
 BYTE   W12
 BYTE   N11
 BYTE   W12
 BYTE   N11
 BYTE   W12
 BYTE   N11
 BYTE   W12
 BYTE   PEND 
//  #07 //048   ----------------------------------------
Label_01844BD5:
 BYTE   N23  Gs0  v036
 BYTE   W24
 BYTE   N23
 BYTE   W24
 BYTE   N23
 BYTE   W24
 BYTE   N23
 BYTE   W24
 BYTE   PEND 
//  #07 //049   ----------------------------------------
 BYTE   N44  Cs0
 BYTE   W96
//  #07 //050   ----------------------------------------
 BYTE   PATT
  POIN2 Label_01844BAF
//  #07 //051   ----------------------------------------
 BYTE   PATT
  POIN2 Label_01844BAF
//  #07 //052   ----------------------------------------
Label_01844BED:
 BYTE   N11  Cs1  v036
 BYTE   W12
 BYTE   N11
 BYTE   W12
 BYTE   N11
 BYTE   W12
 BYTE   N11
 BYTE   W12
 BYTE   N11
 BYTE   W12
 BYTE   N11
 BYTE   W12
 BYTE   N11
 BYTE   W12
 BYTE   N11
 BYTE   W12
 BYTE   PEND 
//  #07 //053   ----------------------------------------
 BYTE   PATT
  POIN2 Label_01844BED
//  #07 //054   ----------------------------------------
Label_01844C05:
 BYTE   N11  As0  v036
 BYTE   W12
 BYTE   N11
 BYTE   W12
 BYTE   N11
 BYTE   W12
 BYTE   N11
 BYTE   W12
 BYTE   N11
 BYTE   W12
 BYTE   N11
 BYTE   W12
 BYTE   N11
 BYTE   W12
 BYTE   N11
 BYTE   W12
 BYTE   PEND 
//  #07 //055   ----------------------------------------
 BYTE   PATT
  POIN2 Label_01844C05
//  #07 //056   ----------------------------------------
 BYTE   N11  Ds1  v036
 BYTE   W12
 BYTE   N11
 BYTE   W12
 BYTE   N11
 BYTE   W12
 BYTE   N11
 BYTE   W12
 BYTE   N11
 BYTE   W12
 BYTE   N11
 BYTE   W12
 BYTE   N23  Cs1
 BYTE   W24
//  #07 //057   ----------------------------------------
Label_01844C2E:
 BYTE   N17  Gs0  v036
 BYTE   W18
 BYTE   Fs0
 BYTE   W18
 BYTE   N11  Gs0
 BYTE   W24
 BYTE   As0
 BYTE   W12
 BYTE   N11
 BYTE   W12
 BYTE   N11
 BYTE   W12
 BYTE   PEND 
//  #07 //058   ----------------------------------------
Label_01844C3E:
 BYTE   N11  Bn0  v036
 BYTE   W12
 BYTE   N11
 BYTE   W12
 BYTE   N11
 BYTE   W12
 BYTE   N11
 BYTE   W12
 BYTE   Fs1
 BYTE   W12
 BYTE   N11
 BYTE   W12
 BYTE   N11
 BYTE   W12
 BYTE   N11
 BYTE   W12
 BYTE   PEND 
//  #07 //059   ----------------------------------------
 BYTE   PATT
  POIN2 Label_01844C3E
//  #07 //060   ----------------------------------------
Label_01844C56:
 BYTE   N11  Cs1  v036
 BYTE   W12
 BYTE   N11
 BYTE   W12
 BYTE   N11
 BYTE   W12
 BYTE   N11
 BYTE   W12
 BYTE   Gs1
 BYTE   W12
 BYTE   N11
 BYTE   W12
 BYTE   N11
 BYTE   W12
 BYTE   N11
 BYTE   W12
 BYTE   PEND 
//  #07 //061   ----------------------------------------
 BYTE   PATT
  POIN2 Label_01844C56
//  #07 //062   ----------------------------------------
Label_01844C6E:
 BYTE   N11  As0  v036
 BYTE   W12
 BYTE   N11
 BYTE   W12
 BYTE   N11
 BYTE   W12
 BYTE   N11
 BYTE   W12
 BYTE   Fn1
 BYTE   W12
 BYTE   N11
 BYTE   W12
 BYTE   N11
 BYTE   W12
 BYTE   N11
 BYTE   W12
 BYTE   PEND 
//  #07 //063   ----------------------------------------
 BYTE   PATT
  POIN2 Label_01844C6E
//  #07 //064   ----------------------------------------
Label_01844C86:
 BYTE   N11  Ds1  v036
 BYTE   W12
 BYTE   N11
 BYTE   W12
 BYTE   N11
 BYTE   W12
 BYTE   N11
 BYTE   W12
 BYTE   N11
 BYTE   W12
 BYTE   N11
 BYTE   W12
 BYTE   N11
 BYTE   W12
 BYTE   N11
 BYTE   W12
 BYTE   PEND 
//  #07 //065   ----------------------------------------
Label_01844C99:
 BYTE   N11  Fs0  v036
 BYTE   W12
 BYTE   N11
 BYTE   W12
 BYTE   N11
 BYTE   W12
 BYTE   N11
 BYTE   W12
 BYTE   N11
 BYTE   W12
 BYTE   N11
 BYTE   W12
 BYTE   N11
 BYTE   W12
 BYTE   N11
 BYTE   W12
 BYTE   PEND 
//  #07 //066   ----------------------------------------
Label_01844CAC:
 BYTE   N11  Bn0  v036
 BYTE   W12
 BYTE   N11
 BYTE   W12
 BYTE   Gs0
 BYTE   W12
 BYTE   N11
 BYTE   W12
 BYTE   As0
 BYTE   W12
 BYTE   N11
 BYTE   W12
 BYTE   N11
 BYTE   W12
 BYTE   N11
 BYTE   W12
 BYTE   PEND 
//  #07 //067   ----------------------------------------
Label_01844CBF:
 BYTE   N11  Bn0  v036
 BYTE   W12
 BYTE   N11
 BYTE   W12
 BYTE   N11
 BYTE   W12
 BYTE   N11
 BYTE   W12
 BYTE   As0
 BYTE   W12
 BYTE   N11
 BYTE   W12
 BYTE   N11
 BYTE   W12
 BYTE   N11
 BYTE   W12
 BYTE   PEND 
//  #07 //068   ----------------------------------------
Label_01844CD2:
 BYTE   N11  Gs0  v036
 BYTE   W12
 BYTE   N11
 BYTE   W12
 BYTE   N11
 BYTE   W12
 BYTE   N11
 BYTE   W12
 BYTE   As0
 BYTE   W12
 BYTE   N11
 BYTE   W12
 BYTE   N11
 BYTE   W12
 BYTE   N11
 BYTE   W12
 BYTE   PEND 
//  #07 //069   ----------------------------------------
 BYTE   PATT
  POIN2 Label_01844BAF
//  #07 //070   ----------------------------------------
Label_01844CEA:
 BYTE   N11  Gs0  v036
 BYTE   W12
 BYTE   N11
 BYTE   W12
 BYTE   N11
 BYTE   W12
 BYTE   As0
 BYTE   W12
 BYTE   N11
 BYTE   W12
 BYTE   N11
 BYTE   W12
 BYTE   Bn0
 BYTE   W12
 BYTE   N11
 BYTE   W12
 BYTE   PEND 
//  #07 //071   ----------------------------------------
Label_01844CFD:
 BYTE   N11  Bn0  v036
 BYTE   W12
 BYTE   As0
 BYTE   W12
 BYTE   N11
 BYTE   W12
 BYTE   N11
 BYTE   W12
 BYTE   Ds1
 BYTE   W12
 BYTE   N11
 BYTE   W12
 BYTE   Cs1
 BYTE   W12
 BYTE   N11
 BYTE   W12
 BYTE   PEND 
//  #07 //072   ----------------------------------------
Label_01844D10:
 BYTE   N23  Gs0  v036
 BYTE   W24
 BYTE   N11
 BYTE   W12
 BYTE   N11
 BYTE   W12
 BYTE   As0
 BYTE   W12
 BYTE   N11
 BYTE   W12
 BYTE   N11
 BYTE   W12
 BYTE   Bn0
 BYTE   W12
 BYTE   PEND 
//  #07 //073   ----------------------------------------
Label_01844D21:
 BYTE   N11  Cs1  v036
 BYTE   W12
 BYTE   N01  Cn1
 BYTE   N01  Cs1
 BYTE   W01
 BYTE   Bn0
 BYTE   W02
 BYTE   An0
 BYTE   N01  As0
 BYTE   W01
 BYTE   Gs0
 BYTE   W02
 BYTE   Fs0
 BYTE   N01  Gn0
 BYTE   W01
 BYTE   Fn0
 BYTE   W02
 BYTE   Ds0
 BYTE   N01  En0
 BYTE   W01
 BYTE   Dn0
 BYTE   W02
 BYTE   N05  Cs0
 BYTE   W72
 BYTE   PEND 
//  #07 //074   ----------------------------------------
 BYTE   N11  Bn0
 BYTE   N11  Fs3  v012
 BYTE   W12
 BYTE   Ds1  v036
 BYTE   N11  Ds3  v012
 BYTE   W12
 BYTE   Fs1  v036
 BYTE   N11  Bn2  v012
 BYTE   W12
 BYTE   Bn0  v036
 BYTE   N11  Fs3  v012
 BYTE   W12
 BYTE   Ds1  v036
 BYTE   N11  Ds3  v012
 BYTE   W12
 BYTE   Fs1  v036
 BYTE   N11  Bn2  v012
 BYTE   W12
 BYTE   Bn0  v036
 BYTE   N11  Fs3  v012
 BYTE   W12
 BYTE   Ds1  v036
 BYTE   N11  Ds3  v012
 BYTE   W12
//  #07 //075   ----------------------------------------
 BYTE   Fs1  v036
 BYTE   N11  Bn2  v012
 BYTE   W12
 BYTE   Bn0  v036
 BYTE   N11  Fs3  v012
 BYTE   W12
 BYTE   Ds1  v036
 BYTE   N11  Ds3  v012
 BYTE   W12
 BYTE   Fs1  v036
 BYTE   N11  Bn2  v012
 BYTE   W12
 BYTE   Bn0  v036
 BYTE   N11  Fs3  v012
 BYTE   W12
 BYTE   Bn0  v036
 BYTE   N11  Bn2  v012
 BYTE   W12
 BYTE   Bn0  v036
 BYTE   N11  Fs3  v012
 BYTE   W12
 BYTE   Bn0  v036
 BYTE   N11  Bn2  v012
 BYTE   W12
//  #07 //076   ----------------------------------------
 BYTE   Cs1  v036
 BYTE   N11  Gs3  v012
 BYTE   W12
 BYTE   Fn1  v036
 BYTE   N11  Fn3  v012
 BYTE   W12
 BYTE   Gs1  v036
 BYTE   N11  Cs3  v012
 BYTE   W12
 BYTE   Cs1  v036
 BYTE   N11  Gs3  v012
 BYTE   W12
 BYTE   Fn1  v036
 BYTE   N11  Fn3  v012
 BYTE   W12
 BYTE   Gs1  v036
 BYTE   N11  Cs3  v012
 BYTE   W12
 BYTE   Cs1  v036
 BYTE   N11  Gs3  v012
 BYTE   W12
 BYTE   Fn1  v036
 BYTE   N11  Fn3  v012
 BYTE   W12
//  #07 //077   ----------------------------------------
 BYTE   Gs1  v036
 BYTE   N11  Cs3  v012
 BYTE   W12
 BYTE   Cs1  v036
 BYTE   N11  Gs3  v012
 BYTE   W12
 BYTE   Fn1  v036
 BYTE   N11  Fn3  v012
 BYTE   W12
 BYTE   Gs1  v036
 BYTE   N11  Cs3  v012
 BYTE   W12
 BYTE   Cs1  v036
 BYTE   N11  Gs3  v012
 BYTE   W12
 BYTE   Cs1  v036
 BYTE   N11  Cs3  v012
 BYTE   W12
 BYTE   Cs1  v036
 BYTE   N11  Gs3  v012
 BYTE   W12
 BYTE   Cs1  v036
 BYTE   N11  Cs3  v012
 BYTE   W12
//  #07 //078   ----------------------------------------
 BYTE   As0  v036
 BYTE   N11  Fn3  v012
 BYTE   W12
 BYTE   Cs1  v036
 BYTE   N11  Cs3  v012
 BYTE   W12
 BYTE   Fn1  v036
 BYTE   N11  As2  v012
 BYTE   W12
 BYTE   As0  v036
 BYTE   N11  Fn3  v012
 BYTE   W12
 BYTE   Cs1  v036
 BYTE   N11  Cs3  v012
 BYTE   W12
 BYTE   Fn1  v036
 BYTE   N11  As2  v012
 BYTE   W12
 BYTE   As0  v036
 BYTE   N11  Fn3  v012
 BYTE   W12
 BYTE   Cs1  v036
 BYTE   N11  Cs3  v012
 BYTE   W12
//  #07 //079   ----------------------------------------
 BYTE   Fn1  v036
 BYTE   N11  As2  v012
 BYTE   W12
 BYTE   As0  v036
 BYTE   N11  Fn3  v012
 BYTE   W12
 BYTE   Cs1  v036
 BYTE   N11  Cs3  v012
 BYTE   W12
 BYTE   Fn1  v036
 BYTE   N11  As2  v012
 BYTE   W12
 BYTE   As0  v036
 BYTE   N11  Fn3  v012
 BYTE   W12
 BYTE   As0  v036
 BYTE   N11  As2  v012
 BYTE   W12
 BYTE   As0  v036
 BYTE   N11  Fn3  v012
 BYTE   W12
 BYTE   As0  v036
 BYTE   N11  As2  v012
 BYTE   W12
//  #07 //080   ----------------------------------------
 BYTE   Ds1  v036
 BYTE   N11  As3  v012
 BYTE   W12
 BYTE   Fs1  v036
 BYTE   N11  Fs3  v012
 BYTE   W12
 BYTE   As1  v036
 BYTE   N11  Ds3  v012
 BYTE   W12
 BYTE   Ds1  v036
 BYTE   N11  As3  v012
 BYTE   W12
 BYTE   Fs1  v036
 BYTE   N11  Fs3  v012
 BYTE   W12
 BYTE   As1  v036
 BYTE   N11  Ds3  v012
 BYTE   W12
 BYTE   Ds1  v036
 BYTE   N11  As3  v012
 BYTE   W12
 BYTE   Fs1  v036
 BYTE   N11  Fs3  v012
 BYTE   W12
//  #07 //081   ----------------------------------------
 BYTE   N32  Ds2  v036
 BYTE   W36
 BYTE   Fn2
 BYTE   W36
 BYTE   N23  Fs2
 BYTE   W24
//  #07 //082   ----------------------------------------
 BYTE   W96
//  #07 //083   ----------------------------------------
 BYTE   W48
 BYTE   N01  BnM1
 BYTE   N01  Cn0
 BYTE   W01
 BYTE   Cs0
 BYTE   W02
 BYTE   Dn0
 BYTE   N01  Ds0
 BYTE   W01
 BYTE   En0
 BYTE   W02
 BYTE   Fn0
 BYTE   N01  Fs0
 BYTE   W01
 BYTE   Gn0
 BYTE   W02
 BYTE   Gs0
 BYTE   N01  An0
 BYTE   W01
 BYTE   As0
 BYTE   W02
 BYTE   Bn0
 BYTE   W01
 BYTE   As0
 BYTE   W02
 BYTE   An0
 BYTE   W03
 BYTE   Gs0
 BYTE   W01
 BYTE   Gn0
 BYTE   W02
 BYTE   Fs0
 BYTE   W03
 BYTE   Fn0
 BYTE   W01
 BYTE   En0
 BYTE   W02
 BYTE   Ds0
 BYTE   W03
 BYTE   Dn0
 BYTE   W01
 BYTE   Cs0
 BYTE   W02
 BYTE   Cn0
 BYTE   W03
 BYTE   N11  BnM1
 BYTE   W12
//  #07 //084   ----------------------------------------
 BYTE   As1  v012
 BYTE   N11  Fn2
 BYTE   N11  As2
 BYTE   W12
 BYTE   Gs1  v036
 BYTE   N11  As1  v012
 BYTE   N11  Fn2
 BYTE   N11  As2
 BYTE   W12
 BYTE   Fs1  v036
 BYTE   W36
 BYTE   Cs1
 BYTE   W12
 BYTE   Gs1
 BYTE   W12
 BYTE   N44  Fs1
 BYTE   W12
//  #07 //085   ----------------------------------------
 BYTE   N11  As1  v012
 BYTE   N11  Fn2
 BYTE   N11  As2
 BYTE   W12
 BYTE   As1
 BYTE   N11  Fn2
 BYTE   N11  As2
 BYTE   W24
 BYTE   N05  Fn2  v036
 BYTE   W06
 BYTE   Fs2
 BYTE   W06
 BYTE   N11  Fn2
 BYTE   W12
 BYTE   Cs2
 BYTE   W12
 BYTE   As1
 BYTE   W12
 BYTE   As0
 BYTE   W12
//  #07 //086   ----------------------------------------
 BYTE   Fs0
 BYTE   N11  Ds2  v012
 BYTE   N11  As2
 BYTE   N11  Ds3
 BYTE   W12
 BYTE   Fs0  v036
 BYTE   N11  Ds2  v012
 BYTE   N11  As2
 BYTE   N11  Ds3
 BYTE   W12
 BYTE   Fs0  v036
 BYTE   W12
 BYTE   Ds1
 BYTE   W12
 BYTE   N11
 BYTE   W12
 BYTE   N11
 BYTE   W12
 BYTE   N11
 BYTE   W12
 BYTE   N11
 BYTE   W12
//  #07 //087   ----------------------------------------
 BYTE   Cs1
 BYTE   N11  Cs2  v012
 BYTE   N11  Gs2
 BYTE   N11  Cs3
 BYTE   W12
 BYTE   Cs1  v036
 BYTE   N11  Cs2  v012
 BYTE   N11  Gs2
 BYTE   N11  Cs3
 BYTE   W12
 BYTE   Cs1  v036
 BYTE   W12
 BYTE   Gs1
 BYTE   W12
 BYTE   N11
 BYTE   W12
 BYTE   N01
 BYTE   W01
 BYTE   Gn1
 BYTE   W02
 BYTE   Fs1
 BYTE   W03
 BYTE   Fn1
 BYTE   W01
 BYTE   En1
 BYTE   W02
 BYTE   Ds1
 BYTE   W03
 BYTE   Dn1
 BYTE   W01
 BYTE   Cs1
 BYTE   W02
 BYTE   Cn1
 BYTE   W03
 BYTE   Bn0
 BYTE   W01
 BYTE   As0
 BYTE   W02
 BYTE   An0
 BYTE   W03
 BYTE   N11  Gs0
 BYTE   W12
//  #07 //088   ----------------------------------------
 BYTE   Cn1
 BYTE   N11  Cn2  v012
 BYTE   N11  Gn2
 BYTE   N11  Cn3
 BYTE   W12
 BYTE   Cn1  v036
 BYTE   N11  Cn2  v012
 BYTE   N11  Gn2
 BYTE   N11  Cn3
 BYTE   W12
 BYTE   Cn1  v036
 BYTE   W12
 BYTE   Cn2
 BYTE   W12
 BYTE   N11
 BYTE   W12
 BYTE   N11
 BYTE   W12
 BYTE   N11
 BYTE   W12
 BYTE   N11
 BYTE   W12
//  #07 //089   ----------------------------------------
 BYTE   Fs1
 BYTE   N11  Cn2  v012
 BYTE   N11  Gn2
 BYTE   N11  Cn3
 BYTE   W12
 BYTE   Fs1  v036
 BYTE   N11  Cn2  v012
 BYTE   N11  Gn2
 BYTE   N11  Cn3
 BYTE   W12
 BYTE   Fs1  v036
 BYTE   W12
 BYTE   N11
 BYTE   W36
 BYTE   N01  Cn2
 BYTE   W01
 BYTE   Bn1
 BYTE   W01
 BYTE   As1
 BYTE   W02
 BYTE   An1
 BYTE   W01
 BYTE   Gs1
 BYTE   W02
 BYTE   Gn1
 BYTE   W02
 BYTE   Fs1
 BYTE   W01
 BYTE   Fn1
 BYTE   W01
 BYTE   En1
 BYTE   W02
 BYTE   Ds1
 BYTE   W01
 BYTE   Dn1
 BYTE   W02
 BYTE   Cs1
 BYTE   W02
 BYTE   N05  Cn1
 BYTE   W06
//  #07 //090   ----------------------------------------
Label_01844FB2:
 BYTE   N23  Cs2  v036
 BYTE   N23  Cs3
 BYTE   W24
 BYTE   Cs2
 BYTE   N23  Cs3
 BYTE   W24
 BYTE   N11  Fs2
 BYTE   N11  Fs3
 BYTE   W12
 BYTE   Fs2
 BYTE   N11  Fs3
 BYTE   W24
 BYTE   N23  Cs2
 BYTE   N23  Cs3
 BYTE   W12
 BYTE   PEND 
//  #07 //091   ----------------------------------------
 BYTE   W12
 BYTE   N11  Cs2
 BYTE   N11  Cs3
 BYTE   W12
 BYTE   Fs2
 BYTE   N11  Fs3
 BYTE   W12
 BYTE   Fs2
 BYTE   N11  Fs3
 BYTE   W60
//  #07 //092   ----------------------------------------
 BYTE   PATT
  POIN2 Label_01844FB2
//  #07 //093   ----------------------------------------
 BYTE   W12
 BYTE   N11  Cs2  v036
 BYTE   N11  Cs3
 BYTE   W12
 BYTE   Fs2
 BYTE   N11  Fs3
 BYTE   W12
 BYTE   Fs2
 BYTE   N11  Fs3
 BYTE   W12
 BYTE   Fs2
 BYTE   N11  Fs3
 BYTE   W12
 BYTE   Fs2
 BYTE   N11  Fs3
 BYTE   W12
 BYTE   Fs2
 BYTE   N11  Fs3
 BYTE   W12
 BYTE   Fs2
 BYTE   N11  Fs3
 BYTE   W12
//  #07 //094   ----------------------------------------
 BYTE   W96
//  #07 //095   ----------------------------------------
 BYTE   W96
//  #07 //096   ----------------------------------------
 BYTE   W96
//  #07 //097   ----------------------------------------
 BYTE   W96
//  #07 //098   ----------------------------------------
 BYTE   Fn2
 BYTE   W12
 BYTE   N11
 BYTE   W12
 BYTE   N11
 BYTE   W24
 BYTE   Ds2
 BYTE   W12
 BYTE   Fn2
 BYTE   W12
 BYTE   N11
 BYTE   W12
 BYTE   N11
 BYTE   W12
//  #07 //099   ----------------------------------------
 BYTE   Ds2
 BYTE   W12
 BYTE   Fn2
 BYTE   W12
 BYTE   N11
 BYTE   W36
 BYTE   Ds2
 BYTE   W12
 BYTE   Fn2
 BYTE   W12
 BYTE   N11
 BYTE   W12
//  #07 //100   ----------------------------------------
 BYTE   Fs2
 BYTE   W12
 BYTE   N11
 BYTE   W12
 BYTE   N11
 BYTE   W24
 BYTE   Fn2
 BYTE   W12
 BYTE   Fs2
 BYTE   W12
 BYTE   N11
 BYTE   W12
 BYTE   N11
 BYTE   W12
//  #07 //101   ----------------------------------------
 BYTE   Bn2
 BYTE   N11  Bn3
 BYTE   W12
 BYTE   Bn2
 BYTE   N11  Bn3
 BYTE   W12
 BYTE   As2
 BYTE   N11  As3
 BYTE   W12
 BYTE   As2
 BYTE   N11  As3
 BYTE   W12
 BYTE   Gs2
 BYTE   N11  Gs3
 BYTE   W12
 BYTE   Gs2
 BYTE   N11  Gs3
 BYTE   W12
 BYTE   Fs2
 BYTE   N11  Fs3
 BYTE   W12
 BYTE   Fs2
 BYTE   N11  Fs3
 BYTE   W12
//  #07 //102   ----------------------------------------
 BYTE   N01  Gs0
 BYTE   N05  Fs3  v012
 BYTE   W01
 BYTE   N01  Gn0  v036
 BYTE   W02
 BYTE   Fs0
 BYTE   W03
 BYTE   Fn0
 BYTE   W01
 BYTE   En0
 BYTE   W02
 BYTE   Ds0
 BYTE   W03
 BYTE   Dn0
 BYTE   N05  Fn3  v012
 BYTE   W01
 BYTE   N01  Cs0  v036
 BYTE   W02
 BYTE   Cn0
 BYTE   W03
 BYTE   BnM1
 BYTE   W01
 BYTE   AsM1
 BYTE   W02
 BYTE   AnM1
 BYTE   W03
 BYTE   N11  GsM1
 BYTE   N05  Ds3  v012
 BYTE   W12
 BYTE   N11  Ds1  v036
 BYTE   N05  Fs3  v012
 BYTE   W12
 BYTE   N17  Gs1  v036
 BYTE   N05  Fn3  v012
 BYTE   W12
 BYTE   Ds3
 BYTE   W06
 BYTE   Ds1  v036
 BYTE   W06
 BYTE   N23  Fs1
 BYTE   N05  Fs3  v012
 BYTE   W12
 BYTE   Fn3
 BYTE   W12
//  #07 //103   ----------------------------------------
 BYTE   N44  As1  v036
 BYTE   N05  Ds3  v012
 BYTE   W12
 BYTE   Fs3
 BYTE   W12
 BYTE   Fn3
 BYTE   W12
 BYTE   Ds3
 BYTE   W12
 BYTE   N23  Fs1  v036
 BYTE   N05  Fs3  v012
 BYTE   W12
 BYTE   Fn3
 BYTE   W12
 BYTE   N01  Ds1  v036
 BYTE   N05  Ds3  v012
 BYTE   W01
 BYTE   N01  Dn1  v036
 BYTE   W01
 BYTE   Cs1
 BYTE   W02
 BYTE   Cn1
 BYTE   W01
 BYTE   Bn0
 BYTE   W02
 BYTE   As0
 BYTE   W02
 BYTE   An0
 BYTE   W01
 BYTE   Gs0
 BYTE   W01
 BYTE   Gn0
 BYTE   W01
 BYTE   N05  Fs3  v012
 BYTE   W01
 BYTE   N01  Fs0  v036
 BYTE   W01
 BYTE   Fn0
 BYTE   W02
 BYTE   En0
 BYTE   W02
 BYTE   N05  Ds0
 BYTE   W06
//  #07 //104   ----------------------------------------
 BYTE   PATT
  POIN2 Label_01844BAF
//  #07 //105   ----------------------------------------
 BYTE   PATT
  POIN2 Label_01844BC2
//  #07 //106   ----------------------------------------
 BYTE   PATT
  POIN2 Label_01844BD5
//  #07 //107   ----------------------------------------
 BYTE   N44  Cs0  v036
 BYTE   W96
//  #07 //108   ----------------------------------------
 BYTE   PATT
  POIN2 Label_01844BAF
//  #07 //109   ----------------------------------------
 BYTE   PATT
  POIN2 Label_01844BAF
//  #07 //110   ----------------------------------------
 BYTE   PATT
  POIN2 Label_01844BED
//  #07 //111   ----------------------------------------
 BYTE   N11  Cs1  v036
 BYTE   W12
 BYTE   N11
 BYTE   W12
 BYTE   N11
 BYTE   W12
 BYTE   N11
 BYTE   W12
 BYTE   N11
 BYTE   W12
 BYTE   N11
 BYTE   W36
//  #07 //112   ----------------------------------------
 BYTE   PATT
  POIN2 Label_01844C05
//  #07 //113   ----------------------------------------
 BYTE   PATT
  POIN2 Label_01844C05
//  #07 //114   ----------------------------------------
 BYTE   N32  Ds1  v036
 BYTE   W36
 BYTE   As1
 BYTE   W36
 BYTE   N23  Cs1
 BYTE   W24
//  #07 //115   ----------------------------------------
 BYTE   PATT
  POIN2 Label_01844C2E
//  #07 //116   ----------------------------------------
 BYTE   PATT
  POIN2 Label_01844C3E
//  #07 //117   ----------------------------------------
 BYTE   PATT
  POIN2 Label_01844C3E
//  #07 //118   ----------------------------------------
 BYTE   PATT
  POIN2 Label_01844C56
//  #07 //119   ----------------------------------------
 BYTE   PATT
  POIN2 Label_01844C56
//  #07 //120   ----------------------------------------
 BYTE   PATT
  POIN2 Label_01844C6E
//  #07 //121   ----------------------------------------
 BYTE   PATT
  POIN2 Label_01844C6E
//  #07 //122   ----------------------------------------
 BYTE   PATT
  POIN2 Label_01844C86
//  #07 //123   ----------------------------------------
 BYTE   PATT
  POIN2 Label_01844C99
//  #07 //124   ----------------------------------------
 BYTE   PATT
  POIN2 Label_01844CAC
//  #07 //125   ----------------------------------------
 BYTE   PATT
  POIN2 Label_01844CBF
//  #07 //126   ----------------------------------------
 BYTE   PATT
  POIN2 Label_01844CD2
//  #07 //127   ----------------------------------------
 BYTE   PATT
  POIN2 Label_01844BAF
//  #07 //128   ----------------------------------------
 BYTE   PATT
  POIN2 Label_01844CEA
//  #07 //129   ----------------------------------------
 BYTE   PATT
  POIN2 Label_01844CFD
//  #07 //130   ----------------------------------------
 BYTE   PATT
  POIN2 Label_01844D10
//  #07 //131   ----------------------------------------
 BYTE   PATT
  POIN2 Label_01844D21
//  #07 //132   ----------------------------------------
 BYTE   N11  Gs0  v036
 BYTE   N06  As2  v092
 BYTE   N05  As3
 BYTE   W06
 BYTE   N06  As2
 BYTE   N05  As3
 BYTE   W06
 BYTE   N11  Gs0  v036
 BYTE   N06  As2  v092
 BYTE   N05  As3
 BYTE   W06
 BYTE   N06  As2
 BYTE   N05  As3
 BYTE   W06
 BYTE   N11  Gs0  v036
 BYTE   N06  As2  v092
 BYTE   N05  As3
 BYTE   W06
 BYTE   As2
 BYTE   N05  As3
 BYTE   W06
 BYTE   N11  Gs0  v036
 BYTE   N06  Gs2  v092
 BYTE   N05  Gs3
 BYTE   W06
 BYTE   N06  Gs2
 BYTE   N05  Gs3
 BYTE   W06
 BYTE   N11  Gs0  v036
 BYTE   N06  Gs2  v092
 BYTE   N05  Gs3
 BYTE   W06
 BYTE   N06  Gs2
 BYTE   N05  Gs3
 BYTE   W06
 BYTE   N11  Gs0  v036
 BYTE   N06  Gs2  v092
 BYTE   N05  Gs3
 BYTE   W06
 BYTE   Gs2
 BYTE   N05  Gs3
 BYTE   W06
 BYTE   N11  As0  v036
 BYTE   N06  As2  v092
 BYTE   N05  As3
 BYTE   W06
 BYTE   N06  As2
 BYTE   N05  As3
 BYTE   W06
 BYTE   N11  As0  v036
 BYTE   N06  As2  v092
 BYTE   N05  As3
 BYTE   W06
 BYTE   As2
 BYTE   N05  As3
 BYTE   W06
//  #07 //133   ----------------------------------------
 BYTE   N11  As0  v036
 BYTE   N06  Gs2  v092
 BYTE   N05  Gs3
 BYTE   W06
 BYTE   N06  Gs2
 BYTE   N05  Gs3
 BYTE   W06
 BYTE   N11  As0  v036
 BYTE   N06  Gs2  v092
 BYTE   N05  Gs3
 BYTE   W06
 BYTE   N06  Gs2
 BYTE   N05  Gs3
 BYTE   W06
 BYTE   N11  As0  v036
 BYTE   N06  Gs2  v092
 BYTE   N05  Gs3
 BYTE   W06
 BYTE   N06  Gs2
 BYTE   N05  Gs3
 BYTE   W06
 BYTE   N11  As0  v036
 BYTE   N06  Gs2  v092
 BYTE   N05  Gs3
 BYTE   W06
 BYTE   Gs2
 BYTE   N05  Gs3
 BYTE   W06
 BYTE   N11  Bn0  v036
 BYTE   N06  As2  v092
 BYTE   N05  As3
 BYTE   W06
 BYTE   N06  As2
 BYTE   N05  As3
 BYTE   W06
 BYTE   N11  Bn0  v036
 BYTE   N06  As2  v092
 BYTE   N05  As3
 BYTE   W06
 BYTE   As2
 BYTE   N05  As3
 BYTE   W06
 BYTE   N11  As0  v036
 BYTE   N06  Bn2  v092
 BYTE   N05  Bn3
 BYTE   W06
 BYTE   N06  Bn2
 BYTE   N05  Bn3
 BYTE   W06
 BYTE   N11  As0  v036
 BYTE   N06  Bn2  v092
 BYTE   N05  Bn3
 BYTE   W06
 BYTE   Bn2
 BYTE   N05  Bn3
 BYTE   W06
//  #07 //134   ----------------------------------------
 BYTE   N11  Bn0  v036
 BYTE   N06  Cs3  v092
 BYTE   N05  Cs4
 BYTE   W06
 BYTE   N06  Cs3
 BYTE   N05  Cs4
 BYTE   W06
 BYTE   N11  Bn0  v036
 BYTE   N06  Cs3  v092
 BYTE   N05  Cs4
 BYTE   W06
 BYTE   N06  Cs3
 BYTE   N05  Cs4
 BYTE   W06
 BYTE   N11  Bn0  v036
 BYTE   N06  Cs3  v092
 BYTE   N05  Cs4
 BYTE   W06
 BYTE   Cs3
 BYTE   N05  Cs4
 BYTE   W06
 BYTE   N11  Bn0  v036
 BYTE   N06  Cs3  v092
 BYTE   N05  Cs4
 BYTE   W06
 BYTE   N06  Cs3
 BYTE   N05  Cs4
 BYTE   W06
 BYTE   N11  Bn0  v036
 BYTE   N06  Cs3  v092
 BYTE   N05  Cs4
 BYTE   W06
 BYTE   N06  Cs3
 BYTE   N05  Cs4
 BYTE   W06
 BYTE   N11  Bn0  v036
 BYTE   N06  Cs3  v092
 BYTE   N05  Cs4
 BYTE   W06
 BYTE   Cs3
 BYTE   N05  Cs4
 BYTE   W06
 BYTE   N11  Cs1  v036
 BYTE   N06  Cs3  v092
 BYTE   N05  Cs4
 BYTE   W06
 BYTE   N06  Cs3
 BYTE   N05  Cs4
 BYTE   W06
 BYTE   N11  Cs1  v036
 BYTE   N06  Cs3  v092
 BYTE   N05  Cs4
 BYTE   W06
 BYTE   N06  Cs3
 BYTE   N05  Cs4
 BYTE   W06
//  #07 //135   ----------------------------------------
 BYTE   N11  Cs1  v036
 BYTE   N06  Cs3  v092
 BYTE   N05  Cs4
 BYTE   W06
 BYTE   Cs3
 BYTE   N05  Cs4
 BYTE   W06
 BYTE   N11  Cs1  v036
 BYTE   N05  Fs2  v092
 BYTE   N05  Fs3
 BYTE   W06
 BYTE   Fs2
 BYTE   N05  Fs3
 BYTE   W06
 BYTE   N11  Cs1  v036
 BYTE   N05  Fs2  v092
 BYTE   N05  Fs3
 BYTE   W06
 BYTE   Fs2
 BYTE   N05  Fs3
 BYTE   W06
 BYTE   N11  Cs1  v036
 BYTE   N05  Fs2  v092
 BYTE   N05  Fs3
 BYTE   W06
 BYTE   Fs2
 BYTE   N05  Fs3
 BYTE   W06
 BYTE   N11  Cs1  v036
 BYTE   N05  Fn2  v092
 BYTE   N05  Fn3
 BYTE   W06
 BYTE   Fn2
 BYTE   N05  Fn3
 BYTE   W06
 BYTE   N11  Cs1  v036
 BYTE   N05  Fn2  v092
 BYTE   N05  Fn3
 BYTE   W06
 BYTE   Fn2
 BYTE   N05  Fn3
 BYTE   W06
 BYTE   N11  Cs1  v036
 BYTE   N05  Fn2  v092
 BYTE   N05  Fn3
 BYTE   W06
 BYTE   Fn2
 BYTE   N05  Fn3
 BYTE   W06
 BYTE   N11  Cs1  v036
 BYTE   N05  Fn2  v092
 BYTE   N05  Fn3
 BYTE   W06
 BYTE   Fn2
 BYTE   N05  Fn3
 BYTE   W06
//  #07 //136   ----------------------------------------
 BYTE   N11  Gs0  v036
 BYTE   N05  Cs2  v092
 BYTE   N05  Cs3
 BYTE   W06
 BYTE   Cs2
 BYTE   N05  Cs3
 BYTE   W06
 BYTE   N11  Gs0  v036
 BYTE   N05  Cs2  v092
 BYTE   N05  Cs3
 BYTE   W06
 BYTE   Cs2
 BYTE   N05  Cs3
 BYTE   W06
 BYTE   N11  Gs0  v036
 BYTE   N05  Cs2  v092
 BYTE   N05  Cs3
 BYTE   W06
 BYTE   Cs2
 BYTE   N05  Cs3
 BYTE   W06
 BYTE   N11  Gs0  v036
 BYTE   N05  Cs2  v092
 BYTE   N05  Cs3
 BYTE   W06
 BYTE   Cs2
 BYTE   N05  Cs3
 BYTE   W06
 BYTE   N11  Gs0  v036
 BYTE   N05  Cs2  v092
 BYTE   N05  Cs3
 BYTE   W06
 BYTE   Cs2
 BYTE   N05  Cs3
 BYTE   W06
 BYTE   N11  Gs0  v036
 BYTE   N05  Cs2  v092
 BYTE   N05  Cs3
 BYTE   W06
 BYTE   Cs2
 BYTE   N05  Cs3
 BYTE   W06
 BYTE   N11  Gs0  v036
 BYTE   N05  Cs2  v092
 BYTE   N05  Cs3
 BYTE   W06
 BYTE   Cs2
 BYTE   N05  Cs3
 BYTE   W06
 BYTE   N11  Gs0  v036
 BYTE   N05  Cs2  v092
 BYTE   N05  Cs3
 BYTE   W06
 BYTE   Cs2
 BYTE   N05  Cs3
 BYTE   W06
//  #07 //137   ----------------------------------------
 BYTE   N11  As0  v036
 BYTE   N05  Ds3  v092
 BYTE   N05  Ds4
 BYTE   W06
 BYTE   Ds3
 BYTE   N05  Ds4
 BYTE   W06
 BYTE   N11  As0  v036
 BYTE   N05  Ds3  v092
 BYTE   N05  Ds4
 BYTE   W06
 BYTE   Ds3
 BYTE   N05  Ds4
 BYTE   W06
 BYTE   N11  As0  v036
 BYTE   N05  Ds3  v092
 BYTE   N05  Ds4
 BYTE   W06
 BYTE   Ds3
 BYTE   N05  Ds4
 BYTE   W06
 BYTE   N11  As0  v036
 BYTE   N05  Fn3  v092
 BYTE   N05  Fn4
 BYTE   W06
 BYTE   Fn3
 BYTE   N05  Fn4
 BYTE   W06
 BYTE   N11  As0  v036
 BYTE   N05  Fn3  v092
 BYTE   N05  Fn4
 BYTE   W06
 BYTE   Fn3
 BYTE   N05  Fn4
 BYTE   W06
 BYTE   N11  As0  v036
 BYTE   N05  Fn3  v092
 BYTE   N05  Fn4
 BYTE   W06
 BYTE   Fn3
 BYTE   N05  Fn4
 BYTE   W06
 BYTE   N11  As0  v036
 BYTE   N05  Fn3  v092
 BYTE   N05  Fn4
 BYTE   W06
 BYTE   Fn3
 BYTE   N05  Fn4
 BYTE   W06
 BYTE   N11  As0  v036
 BYTE   N05  Fn3  v092
 BYTE   N05  Fn4
 BYTE   W06
 BYTE   Fn3
 BYTE   N05  Fn4
 BYTE   W06
//  #07 //138   ----------------------------------------
 BYTE   N11  Bn0  v036
 BYTE   N05  Fs3  v092
 BYTE   N05  Fs4
 BYTE   W06
 BYTE   Fs3
 BYTE   N05  Fs4
 BYTE   W06
 BYTE   N11  Bn0  v036
 BYTE   N05  Fs3  v092
 BYTE   N05  Fs4
 BYTE   W06
 BYTE   Fs3
 BYTE   N05  Fs4
 BYTE   W06
 BYTE   N11  Bn0  v036
 BYTE   N05  Fs3  v092
 BYTE   N05  Fs4
 BYTE   W06
 BYTE   Fs3
 BYTE   N05  Fs4
 BYTE   W06
 BYTE   N11  Bn0  v036
 BYTE   N05  Fs3  v092
 BYTE   N05  Fs4
 BYTE   W06
 BYTE   Fs3
 BYTE   N05  Fs4
 BYTE   W06
 BYTE   N11  Bn0  v036
 BYTE   N05  Fs3  v092
 BYTE   N05  Fs4
 BYTE   W06
 BYTE   Fs3
 BYTE   N05  Fs4
 BYTE   W06
 BYTE   N11  Bn0  v036
 BYTE   N05  Fs3  v092
 BYTE   N05  Fs4
 BYTE   W06
 BYTE   Fs3
 BYTE   N05  Fs4
 BYTE   W06
 BYTE   N11  Bn0  v036
 BYTE   N05  Fs3  v092
 BYTE   N05  Fs4
 BYTE   W06
 BYTE   Fs3
 BYTE   N05  Fs4
 BYTE   W06
 BYTE   N11  Bn0  v036
 BYTE   N05  Fs3  v092
 BYTE   N05  Fs4
 BYTE   W06
 BYTE   Fs3
 BYTE   N05  Fs4
 BYTE   W06
//  #07 //139   ----------------------------------------
 BYTE   N11  Cs1  v036
 BYTE   N05  Gs3  v092
 BYTE   N05  Gs4
 BYTE   W06
 BYTE   Gs3
 BYTE   N05  Gs4
 BYTE   W06
 BYTE   N11  Cs1  v036
 BYTE   N05  Gs3  v092
 BYTE   N05  Gs4
 BYTE   W06
 BYTE   Gs3
 BYTE   N05  Gs4
 BYTE   W06
 BYTE   N11  Cs1  v036
 BYTE   N05  Gs3  v092
 BYTE   N05  Gs4
 BYTE   W06
 BYTE   Gs3
 BYTE   N05  Gs4
 BYTE   W06
 BYTE   N11  Cs1  v036
 BYTE   N05  Gs3  v092
 BYTE   N05  Gs4
 BYTE   W06
 BYTE   Gs3
 BYTE   N05  Gs4
 BYTE   W06
 BYTE   N11  Cs1  v036
 BYTE   N05  Gs3  v092
 BYTE   N05  Gs4
 BYTE   W06
 BYTE   Gs3
 BYTE   N05  Gs4
 BYTE   W06
 BYTE   N11  Cs1  v036
 BYTE   N05  Gs3  v092
 BYTE   N05  Gs4
 BYTE   W06
 BYTE   Gs3
 BYTE   N05  Gs4
 BYTE   W06
 BYTE   N11  Cs1  v036
 BYTE   N05  Gs3  v092
 BYTE   N05  Gs4
 BYTE   W06
 BYTE   Gs3
 BYTE   N05  Gs4
 BYTE   W06
 BYTE   N11  Cs1  v036
 BYTE   N05  Gs3  v092
 BYTE   N05  Gs4
 BYTE   W06
 BYTE   Gs3
 BYTE   N05  Gs4
 BYTE   W06
//  #07 //140   ----------------------------------------
 BYTE   N11  Bn0  v036
 BYTE   N23  Fs2
 BYTE   N23  Fs3
 BYTE   W12
 BYTE   N11  Bn0
 BYTE   W12
 BYTE   N11
 BYTE   N11  Fs2
 BYTE   N11  Fs3
 BYTE   W12
 BYTE   Bn0
 BYTE   N23  Fs2
 BYTE   N23  Fs3
 BYTE   W12
 BYTE   N11  Bn0
 BYTE   W12
 BYTE   N11
 BYTE   N11  Fs2
 BYTE   N11  Fs3
 BYTE   W12
 BYTE   Bn0
 BYTE   N11  Fs2
 BYTE   N11  Fs3
 BYTE   W12
 BYTE   Bn0
 BYTE   N32  Fn2
 BYTE   N32  Fn3
 BYTE   W12
//  #07 //141   ----------------------------------------
 BYTE   N11  Cs1
 BYTE   W12
 BYTE   N11
 BYTE   W12
 BYTE   N11
 BYTE   N23  Gs2
 BYTE   N23  Gs3
 BYTE   W12
 BYTE   N11  Cs1
 BYTE   W12
 BYTE   N11
 BYTE   N23  As2
 BYTE   N23  As3
 BYTE   W12
 BYTE   N11  Cs1
 BYTE   W12
 BYTE   N11
 BYTE   N23  Bn2
 BYTE   N23  Bn3
 BYTE   W12
 BYTE   N11  Cs1
 BYTE   W12
//  #07 //142   ----------------------------------------
 BYTE   As0
 BYTE   N44  Cs3
 BYTE   N44  Cs4
 BYTE   W12
 BYTE   N11  As0
 BYTE   W12
 BYTE   N11
 BYTE   W12
 BYTE   N11
 BYTE   W12
 BYTE   N11
 BYTE   N44  Dn3
 BYTE   N44  Dn4
 BYTE   W12
 BYTE   N11  As0
 BYTE   W12
 BYTE   N11
 BYTE   W12
 BYTE   N11
 BYTE   W12
//  #07 //143   ----------------------------------------
 BYTE   Ds1
 BYTE   N23  Ds3
 BYTE   N23  Ds4
 BYTE   W12
 BYTE   N11  Ds1
 BYTE   W12
 BYTE   N11
 BYTE   N23  Fn3
 BYTE   N23  Fn4
 BYTE   W12
 BYTE   N11  Ds1
 BYTE   W12
 BYTE   N11
 BYTE   N06  Fs3
 BYTE   W12
 BYTE   N11  Ds1
 BYTE   W12
 BYTE   N11
 BYTE   N01  Fs3
 BYTE   N01  Fs4
 BYTE   W01
 BYTE   Fn3
 BYTE   N01  Fn4
 BYTE   W01
 BYTE   En3
 BYTE   N01  En4
 BYTE   W01
 BYTE   Ds3
 BYTE   N01  Ds4
 BYTE   W01
 BYTE   Dn3
 BYTE   N01  Dn4
 BYTE   W01
 BYTE   Cs3
 BYTE   N01  Cs4
 BYTE   W02
 BYTE   Cn3
 BYTE   N01  Cn4
 BYTE   W01
 BYTE   Bn2
 BYTE   N01  Bn3
 BYTE   W01
 BYTE   As2
 BYTE   N01  As3
 BYTE   W01
 BYTE   An2
 BYTE   N01  An3
 BYTE   W01
 BYTE   Gs2
 BYTE   N01  Gs3
 BYTE   W01
 BYTE   N11  Ds1
 BYTE   W01
 BYTE   N01  Gn2
 BYTE   N01  Gn3
 BYTE   W01
 BYTE   Fs2
 BYTE   N01  Fs3
 BYTE   W01
 BYTE   Fn2
 BYTE   N01  Fn3
 BYTE   W01
 BYTE   En2
 BYTE   N01  En3
 BYTE   W02
 BYTE   N05  Ds2
 BYTE   N05  Ds3
 BYTE   W06
//  #07 //144   ----------------------------------------
 BYTE   N11  Gs0
 BYTE   N23  Ds2
 BYTE   N23  Ds3
 BYTE   W12
 BYTE   N11  Gs0
 BYTE   W12
 BYTE   As0
 BYTE   N23  Fn2
 BYTE   N23  Fn3
 BYTE   W12
 BYTE   N11  As0
 BYTE   W12
 BYTE   Bn0
 BYTE   N23  Fs2
 BYTE   N23  Fs3
 BYTE   W12
 BYTE   N11  Bn0
 BYTE   W12
 BYTE   As0
 BYTE   N23  Fn2
 BYTE   N23  Fn3
 BYTE   W12
 BYTE   N11  As0
 BYTE   W12
//  #07 //145   ----------------------------------------
 BYTE   Gs0
 BYTE   N23  Ds2
 BYTE   N23  Ds3
 BYTE   W12
 BYTE   N11  Gs0
 BYTE   W12
 BYTE   As0
 BYTE   N23  Fn2
 BYTE   N23  Fn3
 BYTE   W12
 BYTE   N11  As0
 BYTE   W12
 BYTE   Gs0
 BYTE   N23  Ds2
 BYTE   N23  Ds3
 BYTE   W12
 BYTE   N11  Gs0
 BYTE   W12
 BYTE   As0
 BYTE   N23  Fn2
 BYTE   N23  Fn3
 BYTE   W12
 BYTE   N11  As0
 BYTE   W12
//  #07 //146   ----------------------------------------
 BYTE   Bn0
 BYTE   N11  Ds2
 BYTE   N11  Ds3
 BYTE   W12
 BYTE   Bn0
 BYTE   N11  Ds2
 BYTE   N11  Ds3
 BYTE   W12
 BYTE   Bn0
 BYTE   W12
 BYTE   N11
 BYTE   N11  Fs2
 BYTE   N11  Fs3
 BYTE   W12
 BYTE   Bn0
 BYTE   N11  Fs2
 BYTE   N11  Fs3
 BYTE   W12
 BYTE   Bn0
 BYTE   W12
 BYTE   N11
 BYTE   N11  Bn2
 BYTE   N11  Bn3
 BYTE   W12
 BYTE   Bn0
 BYTE   N11  Bn2
 BYTE   N11  Bn3
 BYTE   W12
//  #07 //147   ----------------------------------------
 BYTE   Cs1
 BYTE   W12
 BYTE   N11
 BYTE   N11  Fs2
 BYTE   N11  Fs3
 BYTE   W12
 BYTE   Cs1
 BYTE   N11  Fs2
 BYTE   N11  Fs3
 BYTE   W12
 BYTE   Cs1
 BYTE   W12
 BYTE   N11
 BYTE   N11  Ds2
 BYTE   N11  Ds3
 BYTE   W12
 BYTE   Cs1
 BYTE   N11  Ds2
 BYTE   N11  Ds3
 BYTE   W12
 BYTE   Cs1
 BYTE   W12
 BYTE   N11
 BYTE   W12
//  #07 //148   ----------------------------------------
 BYTE   PATT
  POIN2 Label_01844C99
//  #07 //149   ----------------------------------------
 BYTE   PATT
  POIN2 Label_01844C99
//  #07 //150   ----------------------------------------
 BYTE   N92  Cs1  v036
 BYTE   W96
//  #07 //151   ----------------------------------------
 BYTE   Cs2
 BYTE   W96
//  #07 //152   ----------------------------------------
 BYTE   N32  Ds1
 BYTE   N11  Ds2  v024
 BYTE   W12
 BYTE   As2
 BYTE   W12
 BYTE   Ds3
 BYTE   W12
 BYTE   N32  As1  v036
 BYTE   N23  Fn3  v024
 BYTE   W24
 BYTE   Ds3
 BYTE   W12
 BYTE   N32  Ds1  v036
 BYTE   W12
 BYTE   N23  Gs3  v024
 BYTE   W12
//  #07 //153   ----------------------------------------
 BYTE   W12
 BYTE   N32  As1  v036
 BYTE   N23  Cs3  v024
 BYTE   W24
 BYTE   N56  Fn3
 BYTE   W12
 BYTE   N44  Ds1  v036
 BYTE   W48
//  #07 //154   ----------------------------------------
 BYTE   N32  Bn0
 BYTE   N11  Bn1  v024
 BYTE   W12
 BYTE   Fs2
 BYTE   W12
 BYTE   Bn2
 BYTE   W12
 BYTE   N32  Fs1  v036
 BYTE   N23  Cs3  v024
 BYTE   W24
 BYTE   Bn2
 BYTE   W12
 BYTE   N32  Bn0  v036
 BYTE   W12
 BYTE   N23  Ds3  v024
 BYTE   W12
//  #07 //155   ----------------------------------------
 BYTE   W12
 BYTE   N32  Fs1  v036
 BYTE   N32  Cs3  v024
 BYTE   W84
//  #07 //156   ----------------------------------------
 BYTE   N11  Cs2  v036
 BYTE   W12
 BYTE   Gs2  v024
 BYTE   W12
 BYTE   As2
 BYTE   W12
 BYTE   N23  Cs3
 BYTE   W24
 BYTE   As2
 BYTE   W24
 BYTE   N56  Dn2  v036
 BYTE   N23  Dn3  v024
 BYTE   W12
//  #07 //157   ----------------------------------------
 BYTE   W12
 BYTE   As2
 BYTE   W24
 BYTE   Dn3
 BYTE   W12
 BYTE   N44  As1  v036
 BYTE   W12
 BYTE   N32  As2  v024
 BYTE   W36
//  #07 //158   ----------------------------------------
 BYTE   N11  Ds2  v036
 BYTE   W12
 BYTE   As2  v024
 BYTE   W12
 BYTE   Ds3
 BYTE   W12
 BYTE   N56  Fn3
 BYTE   W60
//  #07 //159   ----------------------------------------
 BYTE   N36  As2  v036
 BYTE   N23  Cs3  v024
 BYTE   W36
 BYTE   N05  As1  v036
 BYTE   N05  As2
 BYTE   W06
 BYTE   As1
 BYTE   N05  As2
 BYTE   W06
 BYTE   N44  As0
 BYTE   N32  Fn2
 BYTE   N32  Fn3
 BYTE   W36
 BYTE   N01  Ds2
 BYTE   N01  En2
 BYTE   N01  Fn2
 BYTE   N01  Ds3
 BYTE   N01  En3
 BYTE   N01  Fn3
 BYTE   W01
 BYTE   Cs2
 BYTE   N01  Dn2
 BYTE   N01  Cs3
 BYTE   N01  Dn3
 BYTE   W01
 BYTE   Cn2
 BYTE   N01  Cn3
 BYTE   W01
 BYTE   An1
 BYTE   N01  As1
 BYTE   N01  Bn1
 BYTE   N01  An2
 BYTE   N01  As2
 BYTE   N01  Bn2
 BYTE   W01
 BYTE   Gn1
 BYTE   N01  Gs1
 BYTE   N01  Gn2
 BYTE   N01  Gs2
 BYTE   W01
 BYTE   Fs1
 BYTE   N01  Fs2
 BYTE   W01
 BYTE   N05  Fn1
 BYTE   N05  Fn2
 BYTE   W06
//  #07 //160   ----------------------------------------
 BYTE   Gs0
 BYTE   W12
 BYTE   N05
 BYTE   W12
 BYTE   N05
 BYTE   W12
 BYTE   N05
 BYTE   W12
 BYTE   N05
 BYTE   W12
 BYTE   N05
 BYTE   W12
 BYTE   N05
 BYTE   W12
 BYTE   N05
 BYTE   W12
//  #07 //161   ----------------------------------------
 BYTE   As0
 BYTE   W12
 BYTE   N05
 BYTE   W12
 BYTE   N05
 BYTE   W12
 BYTE   N05
 BYTE   W12
 BYTE   N05
 BYTE   W12
 BYTE   N05
 BYTE   W12
 BYTE   N05
 BYTE   W12
 BYTE   N05
 BYTE   W12
//  #07 //162   ----------------------------------------
 BYTE   Bn0
 BYTE   W12
 BYTE   N05
 BYTE   W12
 BYTE   N05
 BYTE   W12
 BYTE   N05
 BYTE   W12
 BYTE   N05
 BYTE   W12
 BYTE   N05
 BYTE   W12
 BYTE   N05
 BYTE   W12
 BYTE   N05
 BYTE   W12
//  #07 //163   ----------------------------------------
 BYTE   As0
 BYTE   W12
 BYTE   N05
 BYTE   W12
 BYTE   N05
 BYTE   W12
 BYTE   N05
 BYTE   W12
 BYTE   An0
 BYTE   N44  An1
 BYTE   N44  En2
 BYTE   N44  An2
 BYTE   W12
 BYTE   N05  An0
 BYTE   W12
 BYTE   N05
 BYTE   W12
 BYTE   N05
 BYTE   W12
//  #07 //164   ----------------------------------------
 BYTE   N11  Gs0
 BYTE   N11  Cs4  v060
 BYTE   W12
 BYTE   Gs0  v036
 BYTE   N11  Fn3  v060
 BYTE   W12
 BYTE   Gs0  v036
 BYTE   N11  Fs3  v060
 BYTE   W12
 BYTE   Gs0  v036
 BYTE   N11  Cs4  v060
 BYTE   W12
 BYTE   Gs0  v036
 BYTE   N11  Fn3  v060
 BYTE   W12
 BYTE   Gs0  v036
 BYTE   N11  Fs3  v060
 BYTE   W12
 BYTE   Gs0  v036
 BYTE   N11  Cs4  v060
 BYTE   W12
 BYTE   Gs0  v036
 BYTE   N11  Fn3  v060
 BYTE   W12
//  #07 //165   ----------------------------------------
 BYTE   Gs0  v036
 BYTE   N11  Fs3  v060
 BYTE   W12
 BYTE   Gs0  v036
 BYTE   N11  Cs4  v060
 BYTE   W12
 BYTE   Gs0  v036
 BYTE   N11  Fn3  v060
 BYTE   W12
 BYTE   Gs0  v036
 BYTE   N11  Fs3  v060
 BYTE   W12
 BYTE   Gs0  v036
 BYTE   N11  Cs4  v060
 BYTE   W12
 BYTE   Gs0  v036
 BYTE   N11  Fn3  v060
 BYTE   W12
 BYTE   Gs0  v036
 BYTE   N01  Fs3  v060
 BYTE   W01
 BYTE   Fn3
 BYTE   W01
 BYTE   En3
 BYTE   W02
 BYTE   Ds3
 BYTE   W01
 BYTE   Dn3
 BYTE   W02
 BYTE   Cs3
 BYTE   W02
 BYTE   Cn3
 BYTE   W01
 BYTE   Bn2
 BYTE   W01
 BYTE   As2
 BYTE   W01
 BYTE   N11  Gs0  v036
 BYTE   W01
 BYTE   N01  An2  v060
 BYTE   W01
 BYTE   Gs2
 BYTE   W02
 BYTE   Gn2
 BYTE   W02
 BYTE   N05  Fs2
 BYTE   W06
//  #07 //166   ----------------------------------------
 BYTE   PATT
  POIN2 Label_01844BAF
//  #07 //167   ----------------------------------------
 BYTE   PATT
  POIN2 Label_01844BAF
//  #07 //168   ----------------------------------------
 BYTE   PATT
  POIN2 Label_01844BED
//  #07 //169   ----------------------------------------
 BYTE   PATT
  POIN2 Label_01844BED
//  #07 //170   ----------------------------------------
 BYTE   PATT
  POIN2 Label_01844C05
//  #07 //171   ----------------------------------------
 BYTE   PATT
  POIN2 Label_01844C05
//  #07 //172   ----------------------------------------
 BYTE   W96
//  #07 //173   ----------------------------------------
 BYTE   W96
//  #07 //174   ----------------------------------------
 BYTE   W96
//  #07 //175   ----------------------------------------
 BYTE   W48
 BYTE   N11  Bn0  v036
 BYTE   N05  Cs2  v060
 BYTE   N05  Cs3
 BYTE   W06
 BYTE   Cs2
 BYTE   N05  Cs3
 BYTE   W06
 BYTE   N11  Bn0  v036
 BYTE   N05  Cs2  v060
 BYTE   N05  Cs3
 BYTE   W06
 BYTE   Cs2
 BYTE   N05  Cs3
 BYTE   W06
 BYTE   N11  Bn0  v036
 BYTE   N05  Cs2  v060
 BYTE   N05  Cs3
 BYTE   W06
 BYTE   Cs2
 BYTE   N05  Cs3
 BYTE   W06
 BYTE   N11  Bn0  v036
 BYTE   N05  Cs2  v060
 BYTE   N05  Cs3
 BYTE   W06
 BYTE   Cs2
 BYTE   N05  Cs3
 BYTE   W06
//  #07 //176   ----------------------------------------
Label_018457F9:
 BYTE   N11  Cs1  v036
 BYTE   N05  Cs3  v060
 BYTE   N05  Cs4
 BYTE   W06
 BYTE   Cs3
 BYTE   N05  Cs4
 BYTE   W06
 BYTE   N11  Cs1  v036
 BYTE   N05  Cs3  v060
 BYTE   N05  Cs4
 BYTE   W06
 BYTE   Cs3
 BYTE   N05  Cs4
 BYTE   W06
 BYTE   N11  Cs1  v036
 BYTE   N05  Cs3  v060
 BYTE   N05  Cs4
 BYTE   W06
 BYTE   Cs3
 BYTE   N05  Cs4
 BYTE   W06
 BYTE   N11  Cs1  v036
 BYTE   N05  Cs3  v060
 BYTE   N05  Cs4
 BYTE   W06
 BYTE   Cs3
 BYTE   N05  Cs4
 BYTE   W06
 BYTE   N11  Cs1  v036
 BYTE   N05  Cs3  v060
 BYTE   N05  Cs4
 BYTE   W06
 BYTE   Cs3
 BYTE   N05  Cs4
 BYTE   W06
 BYTE   N11  Cs1  v036
 BYTE   N05  Cs3  v060
 BYTE   N05  Cs4
 BYTE   W06
 BYTE   Cs3
 BYTE   N05  Cs4
 BYTE   W06
 BYTE   N11  Cs1  v036
 BYTE   N05  Cs3  v060
 BYTE   N05  Cs4
 BYTE   W06
 BYTE   Cs3
 BYTE   N05  Cs4
 BYTE   W06
 BYTE   N11  Cs1  v036
 BYTE   N05  Cs3  v060
 BYTE   N05  Cs4
 BYTE   W06
 BYTE   Cs3
 BYTE   N05  Cs4
 BYTE   W06
 BYTE   PEND 
//  #07 //177   ----------------------------------------
 BYTE   PATT
  POIN2 Label_018457F9
//  #07 //178   ----------------------------------------
Label_01845867:
 BYTE   N11  As0  v036
 BYTE   N05  Fn2  v060
 BYTE   N05  Fn3
 BYTE   W06
 BYTE   Fn2
 BYTE   N05  Fn3
 BYTE   W06
 BYTE   N11  As0  v036
 BYTE   N05  Fn2  v060
 BYTE   N05  Fn3
 BYTE   W06
 BYTE   Fn2
 BYTE   N05  Fn3
 BYTE   W06
 BYTE   N11  As0  v036
 BYTE   N05  Fn2  v060
 BYTE   N05  Fn3
 BYTE   W06
 BYTE   Fn2
 BYTE   N05  Fn3
 BYTE   W06
 BYTE   N11  As0  v036
 BYTE   N05  Fn2  v060
 BYTE   N05  Fn3
 BYTE   W06
 BYTE   Fn2
 BYTE   N05  Fn3
 BYTE   W06
 BYTE   N11  As0  v036
 BYTE   N05  Fn2  v060
 BYTE   N05  Fn3
 BYTE   W06
 BYTE   Fn2
 BYTE   N05  Fn3
 BYTE   W06
 BYTE   N11  As0  v036
 BYTE   N05  Fn2  v060
 BYTE   N05  Fn3
 BYTE   W06
 BYTE   Fn2
 BYTE   N05  Fn3
 BYTE   W06
 BYTE   N11  As0  v036
 BYTE   N05  Fn2  v060
 BYTE   N05  Fn3
 BYTE   W06
 BYTE   Fn2
 BYTE   N05  Fn3
 BYTE   W06
 BYTE   N11  As0  v036
 BYTE   N05  Fn2  v060
 BYTE   N05  Fn3
 BYTE   W06
 BYTE   Fn2
 BYTE   N05  Fn3
 BYTE   W06
 BYTE   PEND 
//  #07 //179   ----------------------------------------
 BYTE   PATT
  POIN2 Label_01845867
//  #07 //180   ----------------------------------------
 BYTE   N11  Ds1  v036
 BYTE   N05  Fs2  v060
 BYTE   N05  Fs3
 BYTE   W06
 BYTE   Fs2
 BYTE   N05  Fs3
 BYTE   W06
 BYTE   N11  Ds1  v036
 BYTE   N05  Fs2  v060
 BYTE   N05  Fs3
 BYTE   W06
 BYTE   Fs2
 BYTE   N05  Fs3
 BYTE   W06
 BYTE   N11  Ds1  v036
 BYTE   N05  Fs2  v060
 BYTE   N05  Fs3
 BYTE   W06
 BYTE   Fs2
 BYTE   N05  Fs3
 BYTE   W06
 BYTE   N11  Ds1  v036
 BYTE   N05  Fs2  v060
 BYTE   N05  Fs3
 BYTE   W06
 BYTE   Fs2
 BYTE   N05  Fs3
 BYTE   W06
 BYTE   N11  Ds1  v036
 BYTE   N05  Fs2  v060
 BYTE   N05  Fs3
 BYTE   W06
 BYTE   Fs2
 BYTE   N05  Fs3
 BYTE   W06
 BYTE   N11  Ds1  v036
 BYTE   W12
 BYTE   N23  Cs1
 BYTE   W24
//  #07 //181   ----------------------------------------
 BYTE   PATT
  POIN2 Label_01844C2E
//  #07 //182   ----------------------------------------
 BYTE   PATT
  POIN2 Label_01844C3E
//  #07 //183   ----------------------------------------
 BYTE   PATT
  POIN2 Label_01844C3E
//  #07 //184   ----------------------------------------
 BYTE   PATT
  POIN2 Label_01844C56
//  #07 //185   ----------------------------------------
 BYTE   PATT
  POIN2 Label_01844C56
//  #07 //186   ----------------------------------------
 BYTE   PATT
  POIN2 Label_01844C6E
//  #07 //187   ----------------------------------------
 BYTE   PATT
  POIN2 Label_01844C6E
//  #07 //188   ----------------------------------------
 BYTE   PATT
  POIN2 Label_01844C86
//  #07 //189   ----------------------------------------
 BYTE   PATT
  POIN2 Label_01844C99
//  #07 //190   ----------------------------------------
 BYTE   PATT
  POIN2 Label_01844CAC
//  #07 //191   ----------------------------------------
 BYTE   PATT
  POIN2 Label_01844CBF
//  #07 //192   ----------------------------------------
 BYTE   PATT
  POIN2 Label_01844CD2
//  #07 //193   ----------------------------------------
 BYTE   PATT
  POIN2 Label_01844BAF
//  #07 //194   ----------------------------------------
 BYTE   PATT
  POIN2 Label_01844CEA
//  #07 //195   ----------------------------------------
 BYTE   PATT
  POIN2 Label_01844CFD
//  #07 //196   ----------------------------------------
 BYTE   PATT
  POIN2 Label_01844D10
//  #07 //197   ----------------------------------------
 BYTE   PATT
  POIN2 Label_01844D21
//  #07 //198   ----------------------------------------
 BYTE   PATT
  POIN2 Label_01844845
//  #07 //199   ----------------------------------------
 BYTE   PATT
  POIN2 Label_01844868
//  #07 //200   ----------------------------------------
 BYTE   PATT
  POIN2 Label_0184488B
//  #07 //201   ----------------------------------------
 BYTE   PATT
  POIN2 Label_018448AE
//  #07 //202   ----------------------------------------
 BYTE   N11  Gs0  v036
 BYTE   N11  Ds3
 BYTE   W12
 BYTE   Gs0
 BYTE   N11  Bn2
 BYTE   W12
 BYTE   Gs0
 BYTE   N11  Gs2
 BYTE   W12
 BYTE   Gs0
 BYTE   N11  Ds3
 BYTE   W12
 BYTE   Gs0
 BYTE   N11  Bn2
 BYTE   W12
 BYTE   Gs0
 BYTE   N11  Gs2
 BYTE   W12
 BYTE   Gs0
 BYTE   N11  Ds3
 BYTE   W12
 BYTE   As0
 BYTE   N11  Fn3
 BYTE   W12
//  #07 //203   ----------------------------------------
 BYTE   As0
 BYTE   N11  Cs3
 BYTE   W12
 BYTE   As0
 BYTE   N11  As2
 BYTE   W12
 BYTE   As0
 BYTE   N11  Fn3
 BYTE   W12
 BYTE   As0
 BYTE   N11  Cs3
 BYTE   W12
 BYTE   As0
 BYTE   N11  As2
 BYTE   W12
 BYTE   As0
 BYTE   N11  Fn3
 BYTE   W12
 BYTE   Cs1
 BYTE   N11  Cs3
 BYTE   W12
 BYTE   Cs1
 BYTE   N11  Cs3
 BYTE   W12
//  #07 //204   ----------------------------------------
 BYTE   Ds1
 BYTE   N11  Ds3
 BYTE   W12
 BYTE   Ds1
 BYTE   N11  As2
 BYTE   W12
 BYTE   Ds1
 BYTE   N11  Ds2
 BYTE   W12
 BYTE   Ds1
 BYTE   N11  As2
 BYTE   W12
 BYTE   Ds1
 BYTE   N11  Ds3
 BYTE   W12
 BYTE   Ds1
 BYTE   N11  As2
 BYTE   W12
 BYTE   Ds1
 BYTE   N11  Ds2
 BYTE   W12
 BYTE   Ds1
 BYTE   N11  As2
 BYTE   W12
//  #07 //205   ----------------------------------------
 BYTE   Cs1
 BYTE   N11  Cs2
 BYTE   N11  Gs2
 BYTE   N11  Cs3
 BYTE   W18
 BYTE   Cs1
 BYTE   N11  Cs2
 BYTE   N11  Gs2
 BYTE   N11  Cs3
 BYTE   W18
 BYTE   Cs1
 BYTE   N11  Cs2
 BYTE   N11  Gs2
 BYTE   N11  Cs3
 BYTE   W12
 BYTE   Cs2
 BYTE   N11  Cs3
 BYTE   N11  Gs3
 BYTE   N11  Cs4
 BYTE   W18
 BYTE   Cs2
 BYTE   N11  Cs3
 BYTE   N11  Gs3
 BYTE   N11  Cs4
 BYTE   W18
 BYTE   Cs2
 BYTE   N11  Cs3
 BYTE   N11  Gs3
 BYTE   N11  Cs4
 BYTE   W12
//  #07 //206   ----------------------------------------
 BYTE   W96
//  #07 //207   ----------------------------------------
 BYTE   W96
//  #07 //208   ----------------------------------------
 BYTE   W48
 BYTE   TIE  Bn0
 BYTE   TIE  Bn1
 BYTE   W48
//  #07 //209   ----------------------------------------
 BYTE   W96
//  #07 //210   ----------------------------------------
 BYTE   W96
//  #07 //211   ----------------------------------------
 BYTE   W96
//  #07 //212   ----------------------------------------
 BYTE   W92
 BYTE   W03
 BYTE   EOT
 BYTE   Bn0  v047
 BYTE   W01
//  #07 //213   ----------------------------------------
 BYTE   W76
 BYTE   FINE

//**************** Track 8 (Midi-Chn.7) ****************//

song38_008:
//  #08 //000   ----------------------------------------
 BYTE   KEYSH   song38_key+0
 BYTE   VOICE   0
 BYTE   MODT 0
 BYTE   LFOS 44
 BYTE   VOL   53*song38_mvl/mxv
 BYTE   PAN   c_v+0
 BYTE   W96
//  #08 //001   ----------------------------------------
 BYTE   W96
//  #08 //002   ----------------------------------------
 BYTE   W96
//  #08 //003   ----------------------------------------
 BYTE   W96
//  #08 //004   ----------------------------------------
 BYTE   W96
//  #08 //005   ----------------------------------------
 BYTE   W96
//  #08 //006   ----------------------------------------
 BYTE   W96
//  #08 //007   ----------------------------------------
 BYTE   W96
//  #08 //008   ----------------------------------------
 BYTE   N11  Fs2  v060
 BYTE   W12
 BYTE   Gs2
 BYTE   W24
 BYTE   N22  Cs3
 BYTE   W24
 BYTE   Gs2
 BYTE   W24
 BYTE   Fs2
 BYTE   W12
//  #08 //009   ----------------------------------------
 BYTE   W96
//  #08 //010   ----------------------------------------
 BYTE   N11
 BYTE   W12
 BYTE   Gs2
 BYTE   W24
 BYTE   N22  Ds3
 BYTE   W24
 BYTE   Cs3
 BYTE   W24
 BYTE   N22
 BYTE   W12
//  #08 //011   ----------------------------------------
 BYTE   W96
//  #08 //012   ----------------------------------------
 BYTE   N11  Fs2
 BYTE   N11  Fs3
 BYTE   W12
 BYTE   Gs2
 BYTE   N11  Gs3
 BYTE   W24
 BYTE   N22  Cs3  v064
 BYTE   N22  Cs4
 BYTE   W24
 BYTE   Gs2  v068
 BYTE   N22  Gs3
 BYTE   W24
 BYTE   N12  Fs2  v072
 BYTE   N22  Fs3
 BYTE   W12
//  #08 //013   ----------------------------------------
 BYTE   W96
//  #08 //014   ----------------------------------------
 BYTE   N11  Fs2  v084
 BYTE   N11  Fs3
 BYTE   W12
 BYTE   Gs2  v088
 BYTE   N11  Gs3
 BYTE   W24
 BYTE   N22  Cs3
 BYTE   N22  Cs4
 BYTE   W24
 BYTE   Gs2  v092
 BYTE   N22  Gs3
 BYTE   W24
 BYTE   N12  Fs2  v096
 BYTE   N22  Fs3
 BYTE   W12
//  #08 //015   ----------------------------------------
 BYTE   W36
 BYTE   N11  Cs4  v104
 BYTE   N11  Fs4
 BYTE   N11  As4
 BYTE   N11  Cs5
 BYTE   W12
 BYTE   Cs4
 BYTE   N11  Fs4
 BYTE   N11  As4
 BYTE   N11  Cs5
 BYTE   W12
 BYTE   Cs4
 BYTE   N11  Fs4
 BYTE   N11  As4
 BYTE   N11  Cs5
 BYTE   W12
 BYTE   N22  Cs4
 BYTE   N22  Fs4
 BYTE   N22  As4
 BYTE   N22  Cs5
 BYTE   W24
//  #08 //016   ----------------------------------------
 BYTE   N11  Fs3
 BYTE   N11  Bn3
 BYTE   N11  Ds4
 BYTE   N11  Fs4
 BYTE   W12
 BYTE   Fs3
 BYTE   N11  Bn3
 BYTE   W12
 BYTE   Fs3
 BYTE   N11  Bn3
 BYTE   W12
 BYTE   Fn3
 BYTE   N11  Bn3
 BYTE   N11  Ds4
 BYTE   N11  Fn4
 BYTE   W12
 BYTE   Fn3
 BYTE   N11  Bn3
 BYTE   W12
 BYTE   Fn3
 BYTE   N11  Bn3
 BYTE   W12
 BYTE   Cs3
 BYTE   N11  Ds3
 BYTE   N11  Fs3
 BYTE   N11  Cs4
 BYTE   W12
 BYTE   Cs3
 BYTE   N11  Ds3
 BYTE   W12
//  #08 //017   ----------------------------------------
Label_010DF5B5:
 BYTE   N11  Cs3  v104
 BYTE   N11  Ds3
 BYTE   W12
 BYTE   Gs2
 BYTE   N11  Cs3
 BYTE   N11  Gs3
 BYTE   W12
 BYTE   Gs2
 BYTE   N11  Cs3
 BYTE   W12
 BYTE   Gs2
 BYTE   N11  Cs3
 BYTE   W12
 BYTE   Fs2
 BYTE   N11  Cs3
 BYTE   N11  Fs3
 BYTE   W12
 BYTE   Fs2
 BYTE   N11  Cs3
 BYTE   W12
 BYTE   Gs2
 BYTE   N11  Cs3
 BYTE   N11  Gs3
 BYTE   W12
 BYTE   Gs2
 BYTE   N11  Cs3
 BYTE   W12
 BYTE   PEND 
//  #08 //018   ----------------------------------------
Label_010DF5DE:
 BYTE   N11  Fn2  v104
 BYTE   N11  Gs2
 BYTE   N11  Cs3
 BYTE   N11  Fn3
 BYTE   W12
 BYTE   Fn2
 BYTE   N11  Gs2
 BYTE   W12
 BYTE   Fn2
 BYTE   N11  Gs2
 BYTE   W12
 BYTE   Fs2
 BYTE   N11  Cs3
 BYTE   N11  Fs3
 BYTE   W12
 BYTE   Fs2
 BYTE   N11  Cs3
 BYTE   W12
 BYTE   Fs2
 BYTE   N11  Cs3
 BYTE   W12
 BYTE   N11
 BYTE   N11  Fs3
 BYTE   N11  Cs4
 BYTE   W12
 BYTE   Cs3
 BYTE   N11  Fs3
 BYTE   W12
 BYTE   PEND 
//  #08 //019   ----------------------------------------
Label_010DF609:
 BYTE   N11  Cs3  v104
 BYTE   N11  Fs3
 BYTE   W12
 BYTE   Cs3
 BYTE   N11  Fs3
 BYTE   W12
 BYTE   Cs3
 BYTE   N11  Fs3
 BYTE   W12
 BYTE   N22  As3
 BYTE   N22  Cs4
 BYTE   N22  Fs4
 BYTE   N22  As4
 BYTE   W24
 BYTE   N11  Bn3
 BYTE   N11  Bn4
 BYTE   W12
 BYTE   Cs4
 BYTE   N11  Cs5
 BYTE   W12
 BYTE   As3
 BYTE   N11  As4
 BYTE   W12
 BYTE   PEND 
//  #08 //020   ----------------------------------------
Label_010DF62E:
 BYTE   N22  Gs3  v104
 BYTE   N22  Cs4
 BYTE   N22  Fn4
 BYTE   N22  Gs4
 BYTE   W24
 BYTE   N11  Gs3
 BYTE   N11  Cs4
 BYTE   N11  Fn4
 BYTE   N11  Gs4
 BYTE   W12
 BYTE   N22  Fn3
 BYTE   N22  As3
 BYTE   N22  Cs4
 BYTE   N22  Fn4
 BYTE   W24
 BYTE   N11  Fn3
 BYTE   N11  As3
 BYTE   N11  Cs4
 BYTE   N11  Fn4
 BYTE   W12
 BYTE   N22  Cs3
 BYTE   N22  Fn3
 BYTE   N22  As3
 BYTE   N22  Cs4
 BYTE   W24
 BYTE   PEND 
//  #08 //021   ----------------------------------------
Label_010DF65D:
 BYTE   N11  Cs3  v104
 BYTE   N11  Fn3
 BYTE   N11  As3
 BYTE   N11  Cs4
 BYTE   W12
 BYTE   N22  Gs3
 BYTE   N22  Cs4
 BYTE   N22  Fn4
 BYTE   N22  Gs4
 BYTE   W24
 BYTE   N11  Gs3
 BYTE   N11  Cs4
 BYTE   N11  Fn4
 BYTE   N11  Gs4
 BYTE   W12
 BYTE   N22  As3
 BYTE   N22  Cs4
 BYTE   N22  Fn4
 BYTE   N22  As4
 BYTE   W24
 BYTE   Gs3
 BYTE   N22  Cs4
 BYTE   N22  Fn4
 BYTE   N22  Gs4
 BYTE   W24
 BYTE   PEND 
//  #08 //022   ----------------------------------------
 BYTE   Fn3
 BYTE   N22  As3
 BYTE   N22  Cs4
 BYTE   N22  Fn4
 BYTE   W24
 BYTE   N11  Fn3
 BYTE   N11  As3
 BYTE   N11  Cs4
 BYTE   N11  Fn4
 BYTE   W12
 BYTE   N32  Fs3
 BYTE   N32  As3
 BYTE   N32  Ds4
 BYTE   N32  Fs4
 BYTE   W36
 BYTE   N22  Fs3
 BYTE   N22  As3
 BYTE   N22  Ds4
 BYTE   N22  Fs4
 BYTE   W24
//  #08 //023   ----------------------------------------
 BYTE   N44  Gs3
 BYTE   N44  As3
 BYTE   N44  Ds4
 BYTE   N44  Gs4
 BYTE   W48
 BYTE   As3
 BYTE   N44  Ds4
 BYTE   N44  Fs4
 BYTE   N44  As4
 BYTE   W48
//  #08 //024   ----------------------------------------
Label_010DF6BF:
 BYTE   N32  Fs2  v028
 BYTE   W36
 BYTE   Cs3
 BYTE   W36
 BYTE   N22  Fs2
 BYTE   W24
 BYTE   PEND 
//  #08 //025   ----------------------------------------
 BYTE   PATT
  POIN2 Label_010DF6BF
//  #08 //026   ----------------------------------------
 BYTE   W72
 BYTE   N23  Fs3  v052
 BYTE   W24
//  #08 //027   ----------------------------------------
 BYTE   N32  Fn3
 BYTE   W36
 BYTE   Cs3
 BYTE   W36
 BYTE   N23  Gs2
 BYTE   W24
//  #08 //028   ----------------------------------------
 BYTE   N32  As2  v028
 BYTE   W36
 BYTE   Cs3
 BYTE   W36
 BYTE   N22  Gs3
 BYTE   W24
//  #08 //029   ----------------------------------------
 BYTE   N32  Fn3
 BYTE   W36
 BYTE   N56  Cs3
 BYTE   W60
//  #08 //030   ----------------------------------------
 BYTE   N32  Ds3  v052
 BYTE   W36
 BYTE   Fs3
 BYTE   W36
 BYTE   N44  Ds4
 BYTE   W24
//  #08 //031   ----------------------------------------
 BYTE   W24
 BYTE   N23  As3
 BYTE   W24
 BYTE   Fs3
 BYTE   W24
 BYTE   Ds3
 BYTE   W24
//  #08 //032   ----------------------------------------
 BYTE   W96
//  #08 //033   ----------------------------------------
 BYTE   W96
//  #08 //034   ----------------------------------------
 BYTE   W96
//  #08 //035   ----------------------------------------
 BYTE   W96
//  #08 //036   ----------------------------------------
 BYTE   W96
//  #08 //037   ----------------------------------------
 BYTE   W96
//  #08 //038   ----------------------------------------
 BYTE   W96
//  #08 //039   ----------------------------------------
Label_010DF702:
 BYTE   W48
 BYTE   N32  Cs3  v060
 BYTE   W36
 BYTE   N11  Fs3
 BYTE   W12
 BYTE   PEND 
//  #08 //040   ----------------------------------------
Label_010DF70B:
 BYTE   N32  Cs3  v060
 BYTE   N32  Gs3
 BYTE   W36
 BYTE   N11  Cs3
 BYTE   N11  Fs3
 BYTE   W12
 BYTE   N32  Cs3
 BYTE   N32  Gs3
 BYTE   W36
 BYTE   N11  Cs3
 BYTE   N11  Fs3
 BYTE   W12
 BYTE   PEND 
//  #08 //041   ----------------------------------------
Label_010DF721:
 BYTE   N22  Cs3  v060
 BYTE   N22  Gs3
 BYTE   W24
 BYTE   N11  Cs3
 BYTE   N11  Fs3
 BYTE   W12
 BYTE   N22  Cs3
 BYTE   W24
 BYTE   N22
 BYTE   N22  Fs3
 BYTE   W24
 BYTE   N56  Cs3
 BYTE   N56  Fs3
 BYTE   W12
 BYTE   PEND 
//  #08 //042   ----------------------------------------
Label_010DF739:
 BYTE   W72
 BYTE   N11  Fs3  v060
 BYTE   W12
 BYTE   N32
 BYTE   W12
 BYTE   PEND 
//  #08 //043   ----------------------------------------
Label_010DF741:
 BYTE   W24
 BYTE   N22  As2  v060
 BYTE   W24
 BYTE   Fn3
 BYTE   W24
 BYTE   Fs3
 BYTE   W24
 BYTE   PEND 
//  #08 //044   ----------------------------------------
 BYTE   W96
//  #08 //045   ----------------------------------------
 BYTE   W96
//  #08 //046   ----------------------------------------
Label_010DF74D:
 BYTE   N11  Fs3  v060
 BYTE   N11  Fs4
 BYTE   W12
 BYTE   Fs3
 BYTE   N11  Fs4
 BYTE   W12
 BYTE   Fs3
 BYTE   N11  Fs4
 BYTE   W12
 BYTE   Fn3
 BYTE   N11  Fn4
 BYTE   W12
 BYTE   Fn3
 BYTE   N11  Fn4
 BYTE   W12
 BYTE   Fn3
 BYTE   N11  Fn4
 BYTE   W12
 BYTE   Fs3
 BYTE   N11  Fs4
 BYTE   W12
 BYTE   Fs3
 BYTE   N11  Fs4
 BYTE   W12
 BYTE   PEND 
//  #08 //047   ----------------------------------------
Label_010DF770:
 BYTE   N11  Fs3  v060
 BYTE   N11  Fs4
 BYTE   W12
 BYTE   Fs3
 BYTE   N11  Fs4
 BYTE   W12
 BYTE   Fs3
 BYTE   N11  Fs4
 BYTE   W12
 BYTE   Fs3
 BYTE   N11  Fs4
 BYTE   W12
 BYTE   Cs4
 BYTE   N11  Cs5
 BYTE   W12
 BYTE   Cs4
 BYTE   N11  Cs5
 BYTE   W12
 BYTE   Cs4
 BYTE   N11  Cs5
 BYTE   W12
 BYTE   Cs4
 BYTE   N11  Cs5
 BYTE   W12
 BYTE   PEND 
//  #08 //048   ----------------------------------------
 BYTE   N22  Fs3
 BYTE   N22  Fs4
 BYTE   W24
 BYTE   Gs3
 BYTE   N22  Gs4
 BYTE   W24
 BYTE   As3
 BYTE   N22  As4
 BYTE   W24
 BYTE   N11  Fs3
 BYTE   N11  Fs4
 BYTE   W12
 BYTE   Cs3  v104
 BYTE   N11  Gs3
 BYTE   N11  Cs4
 BYTE   W12
//  #08 //049   ----------------------------------------
 BYTE   N44  Cs3
 BYTE   N44  Gs3
 BYTE   N44  Cs4
 BYTE   W48
 BYTE   Fs3
 BYTE   N44  Cs4
 BYTE   N44  Fs4
 BYTE   W48
//  #08 //050   ----------------------------------------
Label_010DF7B9:
 BYTE   N22  As3  v104
 BYTE   N22  Cs4
 BYTE   N22  Fs4
 BYTE   N22  As4
 BYTE   W24
 BYTE   N11  Gs3
 BYTE   N11  Cs4
 BYTE   N11  Fn4
 BYTE   N11  Gs4
 BYTE   W12
 BYTE   N22  Gs3
 BYTE   N22  Cs4
 BYTE   N22  Fn4
 BYTE   N22  Gs4
 BYTE   W24
 BYTE   N11  Fs3
 BYTE   N11  Cs4
 BYTE   N11  Ds4
 BYTE   N11  Fs4
 BYTE   W12
 BYTE   N44  Fs3
 BYTE   N44  Cs4
 BYTE   N44  Ds4
 BYTE   N44  Fs4
 BYTE   W24
 BYTE   PEND 
//  #08 //051   ----------------------------------------
Label_010DF7E8:
 BYTE   W24
 BYTE   N22  Fs3  v104
 BYTE   N22  Bn3
 BYTE   N22  Ds4
 BYTE   N22  Fs4
 BYTE   W24
 BYTE   Cs4
 BYTE   N22  Fs4
 BYTE   N22  As4
 BYTE   N22  Cs5
 BYTE   W24
 BYTE   N32  Gs3
 BYTE   N32  Cs4
 BYTE   N32  Fn4
 BYTE   N32  Gs4
 BYTE   W24
 BYTE   PEND 
//  #08 //052   ----------------------------------------
Label_010DF805:
 BYTE   W24
 BYTE   N11  Fn2  v104
 BYTE   N11  Gs2
 BYTE   N11  Cs3
 BYTE   W12
 BYTE   N06  Fn2
 BYTE   N11  Gs2
 BYTE   N11  Cs3
 BYTE   W36
 BYTE   N22  Fn3
 BYTE   N22  As3
 BYTE   N22  Cs4
 BYTE   N22  Fn4
 BYTE   W24
 BYTE   PEND 
//  #08 //053   ----------------------------------------
Label_010DF81F:
 BYTE   N22  Fs3  v104
 BYTE   N22  As3
 BYTE   N22  Cs4
 BYTE   N22  Fs4
 BYTE   W24
 BYTE   Gs3
 BYTE   N22  Cs4
 BYTE   N22  Fn4
 BYTE   N22  Gs4
 BYTE   W48
 BYTE   N11  Cs3
 BYTE   N11  Fn3
 BYTE   N11  Gs3
 BYTE   N11  Cs4
 BYTE   W12
 BYTE   Cs3
 BYTE   N11  Fn3
 BYTE   N11  Gs3
 BYTE   N11  Cs4
 BYTE   W12
 BYTE   PEND 
//  #08 //054   ----------------------------------------
Label_010DF843:
 BYTE   N22  As3  v104
 BYTE   N22  Cs4
 BYTE   N22  Fn4
 BYTE   N22  As4
 BYTE   W24
 BYTE   N11  Gs3
 BYTE   N11  Cs4
 BYTE   N11  Fn4
 BYTE   N11  Gs4
 BYTE   W12
 BYTE   N32  Gs3
 BYTE   N32  Cs4
 BYTE   N32  Fn4
 BYTE   N32  Gs4
 BYTE   W36
 BYTE   N11  Gs3
 BYTE   N11  Cs4
 BYTE   N11  Fn4
 BYTE   N11  Gs4
 BYTE   W12
 BYTE   N32  Bn3
 BYTE   N32  Cs4
 BYTE   N32  Fn4
 BYTE   N32  Bn4
 BYTE   W12
 BYTE   PEND 
//  #08 //055   ----------------------------------------
Label_010DF872:
 BYTE   W24
 BYTE   N22  As3  v104
 BYTE   N22  Cs4
 BYTE   N22  Fn4
 BYTE   N22  As4
 BYTE   W24
 BYTE   Fn3
 BYTE   N22  As3
 BYTE   N22  Cs4
 BYTE   N22  Fn4
 BYTE   W24
 BYTE   N32  Fs3
 BYTE   N32  As3
 BYTE   N32  Cs4
 BYTE   N32  Fs4
 BYTE   W24
 BYTE   PEND 
//  #08 //056   ----------------------------------------
Label_010DF88F:
 BYTE   W12
 BYTE   N11  Fs4  v104
 BYTE   N11  Fs5
 BYTE   W12
 BYTE   Fn4
 BYTE   N11  Fn5
 BYTE   W12
 BYTE   Cs4
 BYTE   N11  Cs5
 BYTE   W12
 BYTE   Gs3
 BYTE   N11  Gs4
 BYTE   W12
 BYTE   Fs3
 BYTE   N11  Fs4
 BYTE   W12
 BYTE   N22  Cs3
 BYTE   N22  Cs4
 BYTE   W24
 BYTE   PEND 
//  #08 //057   ----------------------------------------
Label_010DF8AC:
 BYTE   N17  Gs3  v104
 BYTE   N17  Cs4
 BYTE   N17  Fn4
 BYTE   N17  Gs4
 BYTE   W18
 BYTE   Fs3
 BYTE   N17  As3
 BYTE   N17  Cs4
 BYTE   N17  Fs4
 BYTE   W18
 BYTE   N11  Gs3
 BYTE   N11  Cs4
 BYTE   N11  Fn4
 BYTE   N11  Gs4
 BYTE   W24
 BYTE   N32  As3
 BYTE   N32  Cs4
 BYTE   N32  Fs4
 BYTE   N32  As4
 BYTE   W36
 BYTE   PEND 
//  #08 //058   ----------------------------------------
Label_010DF8D1:
 BYTE   N22  As3  v104
 BYTE   N22  Cs4
 BYTE   N22  Fs4
 BYTE   N22  As4
 BYTE   W24
 BYTE   N11  Gs3
 BYTE   N11  Cs4
 BYTE   N11  Fn4
 BYTE   N11  Gs4
 BYTE   W12
 BYTE   N22  Gs3
 BYTE   N22  Cs4
 BYTE   N22  Fn4
 BYTE   N22  Gs4
 BYTE   W24
 BYTE   N11  Fs3
 BYTE   N11  As3
 BYTE   N11  Cs4
 BYTE   N11  Fs4
 BYTE   W12
 BYTE   N44  Fs3
 BYTE   N44  As3
 BYTE   N44  Cs4
 BYTE   N44  Fs4
 BYTE   W24
 BYTE   PEND 
//  #08 //059   ----------------------------------------
Label_010DF900:
 BYTE   W24
 BYTE   N22  Fs3  v104
 BYTE   N22  Bn3
 BYTE   N22  Ds4
 BYTE   N22  Fs4
 BYTE   W24
 BYTE   Cs4
 BYTE   N22  Fs4
 BYTE   N22  As4
 BYTE   N22  Cs5
 BYTE   W24
 BYTE   N68  Gs3
 BYTE   N68  Cs4
 BYTE   N68  Fn4
 BYTE   N68  Gs4
 BYTE   W24
 BYTE   PEND 
//  #08 //060   ----------------------------------------
Label_010DF91D:
 BYTE   W72
 BYTE   N22  As3  v104
 BYTE   N22  Cs4
 BYTE   N22  Fn4
 BYTE   N22  As4
 BYTE   W24
 BYTE   PEND 
//  #08 //061   ----------------------------------------
Label_010DF929:
 BYTE   N22  Gs3  v104
 BYTE   N22  Cs4
 BYTE   N22  Fn4
 BYTE   N22  Gs4
 BYTE   W24
 BYTE   Fs3
 BYTE   N22  Gs3
 BYTE   N22  Cs4
 BYTE   N22  Fs4
 BYTE   W24
 BYTE   Fn3
 BYTE   N22  Gs3
 BYTE   N22  Cs4
 BYTE   N22  Fn4
 BYTE   W24
 BYTE   Fs3
 BYTE   N22  Gs3
 BYTE   N22  Cs4
 BYTE   N22  Fs4
 BYTE   W24
 BYTE   PEND 
//  #08 //062   ----------------------------------------
Label_010DF94C:
 BYTE   N22  Gs3  v104
 BYTE   N22  Cs4
 BYTE   N22  Fn4
 BYTE   N22  Gs4
 BYTE   W24
 BYTE   Cs3
 BYTE   N22  Fn3
 BYTE   N22  As3
 BYTE   N22  Cs4
 BYTE   W48
 BYTE   N11  Cs3
 BYTE   N11  Fn3
 BYTE   N11  As3
 BYTE   N11  Cs4
 BYTE   W12
 BYTE   N32  Bn3
 BYTE   N32  Dn4
 BYTE   N32  Fn4
 BYTE   N32  Bn4
 BYTE   W12
 BYTE   PEND 
//  #08 //063   ----------------------------------------
Label_010DF971:
 BYTE   W24
 BYTE   N22  As3  v104
 BYTE   N22  Dn4
 BYTE   N22  Fn4
 BYTE   N22  As4
 BYTE   W24
 BYTE   Gs3
 BYTE   N22  Dn4
 BYTE   N22  Fn4
 BYTE   N22  Gs4
 BYTE   W24
 BYTE   N11  Fs3
 BYTE   N11  As3
 BYTE   N11  Dn4
 BYTE   N11  Fs4
 BYTE   W12
 BYTE   N22  Fn3
 BYTE   N22  As3
 BYTE   N22  Dn4
 BYTE   N22  Fn4
 BYTE   W12
 BYTE   PEND 
//  #08 //064   ----------------------------------------
Label_010DF997:
 BYTE   W12
 BYTE   N11  Fs3  v104
 BYTE   N11  As3
 BYTE   N11  Ds4
 BYTE   N11  Fs4
 BYTE   W12
 BYTE   N22  Fs3
 BYTE   N22  As3
 BYTE   N22  Ds4
 BYTE   N22  Fs4
 BYTE   W48
 BYTE   N11  Gs3
 BYTE   N11  Cs4
 BYTE   N11  Fn4
 BYTE   N11  Gs4
 BYTE   W12
 BYTE   N32  Fs3
 BYTE   N32  As3
 BYTE   N32  Cs4
 BYTE   N32  Fs4
 BYTE   W12
 BYTE   PEND 
//  #08 //065   ----------------------------------------
Label_010DF9BE:
 BYTE   W48
 BYTE   N11  Fs3  v104
 BYTE   N11  Fs4
 BYTE   W12
 BYTE   Fn3
 BYTE   N11  Fn4
 BYTE   W12
 BYTE   Ds3
 BYTE   N11  Ds4
 BYTE   W12
 BYTE   Cs3
 BYTE   N11  Cs4
 BYTE   W12
 BYTE   PEND 
//  #08 //066   ----------------------------------------
Label_010DF9D2:
 BYTE   N22  Cs3  v104
 BYTE   N22  Fs3
 BYTE   N22  Cs4
 BYTE   W24
 BYTE   Fs3
 BYTE   N22  Bn3
 BYTE   N22  Fs4
 BYTE   W48
 BYTE   As2
 BYTE   N22  Fs3
 BYTE   N22  As3
 BYTE   W24
 BYTE   PEND 
//  #08 //067   ----------------------------------------
 BYTE   Bn2
 BYTE   N22  Fs3
 BYTE   N22  Bn3
 BYTE   W24
 BYTE   Fs3
 BYTE   N22  Bn3
 BYTE   N22  Fs4
 BYTE   W48
 BYTE   N11  Cs3
 BYTE   N11  As3
 BYTE   N11  Cs4
 BYTE   W12
 BYTE   Cs3
 BYTE   N11  As3
 BYTE   N11  Cs4
 BYTE   W12
//  #08 //068   ----------------------------------------
Label_010DFA00:
 BYTE   N22  Ds3  v104
 BYTE   N22  Bn3
 BYTE   N22  Ds4
 BYTE   W24
 BYTE   N11  Cs3
 BYTE   N11  Gs3
 BYTE   N11  Cs4
 BYTE   W12
 BYTE   N22  Ds3
 BYTE   N22  Bn3
 BYTE   N22  Ds4
 BYTE   W24
 BYTE   Fn3
 BYTE   N22  As3
 BYTE   N22  Fn4
 BYTE   W24
 BYTE   Fs3
 BYTE   N22  Bn3
 BYTE   N22  Fs4
 BYTE   W12
 BYTE   PEND 
//  #08 //069   ----------------------------------------
Label_010DFA23:
 BYTE   W12
 BYTE   N22  Fn3  v104
 BYTE   N22  Bn3
 BYTE   N22  Fn4
 BYTE   W24
 BYTE   N32  Fs3
 BYTE   N32  Bn3
 BYTE   N32  Fs4
 BYTE   W36
 BYTE   N22  Gs3
 BYTE   N22  Bn3
 BYTE   N22  Gs4
 BYTE   W24
 BYTE   PEND 
//  #08 //070   ----------------------------------------
Label_010DFA3B:
 BYTE   N22  As3  v104
 BYTE   N22  Ds4
 BYTE   N22  Fs4
 BYTE   N22  As4
 BYTE   W24
 BYTE   Fs3
 BYTE   N22  Bn3
 BYTE   N22  Ds4
 BYTE   N22  Fs4
 BYTE   W48
 BYTE   Cs4
 BYTE   N22  Fs4
 BYTE   N22  Bn4
 BYTE   N22  Cs5
 BYTE   W24
 BYTE   PEND 
//  #08 //071   ----------------------------------------
Label_010DFA56:
 BYTE   N22  Gs3  v104
 BYTE   N22  Bn3
 BYTE   N22  Fn4
 BYTE   N22  Gs4
 BYTE   W24
 BYTE   Fs3
 BYTE   N22  As3
 BYTE   N22  Cs4
 BYTE   N22  Fs4
 BYTE   W48
 BYTE   N11  Gs3
 BYTE   N11  Gs4
 BYTE   W12
 BYTE   As3
 BYTE   N11  As4
 BYTE   W12
 BYTE   PEND 
//  #08 //072   ----------------------------------------
Label_010DFA72:
 BYTE   N22  Bn3  v104
 BYTE   N22  Ds4
 BYTE   N22  Gs4
 BYTE   N22  Bn4
 BYTE   W24
 BYTE   N11  As3
 BYTE   N11  Ds4
 BYTE   N11  Fs4
 BYTE   N11  As4
 BYTE   W12
 BYTE   N90  Fs3
 BYTE   N90  As3
 BYTE   N90  Cs4
 BYTE   N90  Fs4
 BYTE   W60
 BYTE   PEND 
//  #08 //073   ----------------------------------------
 BYTE   W36
 BYTE   N11
 BYTE   N11  Fs5
 BYTE   W12
 BYTE   N22  Fn4
 BYTE   N22  Fn5
 BYTE   W24
 BYTE   N11  Fs4
 BYTE   N11  Fs5
 BYTE   W12
 BYTE   N12  Fs4
 BYTE   TIE  Fs5
 BYTE   W12
//  #08 //074   ----------------------------------------
 BYTE   N11  Fs3
 BYTE   N11  Bn3
 BYTE   N11  Ds4
 BYTE   N90  Fs4
 BYTE   W12
 BYTE   N11  Fs3
 BYTE   N11  Bn3
 BYTE   W12
 BYTE   Fs3
 BYTE   N11  Bn3
 BYTE   W12
 BYTE   Fn3
 BYTE   N11  Bn3
 BYTE   N11  Ds4
 BYTE   N11  Fn4
 BYTE   W12
 BYTE   Fn3
 BYTE   N11  Bn3
 BYTE   W12
 BYTE   Fn3
 BYTE   N11  Bn3
 BYTE   W12
 BYTE   Cs3
 BYTE   N11  Ds3
 BYTE   N11  Fs3
 BYTE   N11  Cs4
 BYTE   W12
 BYTE   Cs3
 BYTE   N11  Ds3
 BYTE   W06
 BYTE   EOT
 BYTE   Fs5
 BYTE   W06
//  #08 //075   ----------------------------------------
 BYTE   PATT
  POIN2 Label_010DF5B5
//  #08 //076   ----------------------------------------
 BYTE   PATT
  POIN2 Label_010DF5DE
//  #08 //077   ----------------------------------------
 BYTE   PATT
  POIN2 Label_010DF609
//  #08 //078   ----------------------------------------
 BYTE   PATT
  POIN2 Label_010DF62E
//  #08 //079   ----------------------------------------
 BYTE   PATT
  POIN2 Label_010DF65D
//  #08 //080   ----------------------------------------
 BYTE   N22  Fn3  v104
 BYTE   N22  As3
 BYTE   N22  Cs4
 BYTE   N22  Fn4
 BYTE   W24
 BYTE   N11  Fn3
 BYTE   N11  As3
 BYTE   N11  Cs4
 BYTE   N11  Fn4
 BYTE   W12
 BYTE   N56  Fs3
 BYTE   N56  As3
 BYTE   N56  Ds4
 BYTE   N56  Fs4
 BYTE   W60
//  #08 //081   ----------------------------------------
 BYTE   W96
//  #08 //082   ----------------------------------------
 BYTE   TIE  Cs5  v028
 BYTE   TIE  Fs5
 BYTE   W96
//  #08 //083   ----------------------------------------
 BYTE   W06
 BYTE   EOT
 BYTE   Cs5  v090
 BYTE   W06
 BYTE   N11  Cs5
 BYTE   N11  Fs5
 BYTE   W24
 BYTE   Cs5
 BYTE   N11  Fs5
 BYTE   W12
 BYTE   Cs5
 BYTE   N11  Fs5
 BYTE   W12
 BYTE   Cs5
 BYTE   N11  Fs5
 BYTE   W12
 BYTE   Cs5
 BYTE   N11  Fs5
 BYTE   W12
 BYTE   Cs5
 BYTE   N11  Fs5
 BYTE   W12
//  #08 //084   ----------------------------------------
 BYTE   W36
 BYTE   N17  Gs4
 BYTE   W18
 BYTE   N05
 BYTE   W18
 BYTE   N11
 BYTE   W24
//  #08 //085   ----------------------------------------
 BYTE   W12
 BYTE   N17  Cs5
 BYTE   W18
 BYTE   N05
 BYTE   W18
 BYTE   N11
 BYTE   W48
//  #08 //086   ----------------------------------------
 BYTE   W12
 BYTE   N17
 BYTE   W18
 BYTE   N05
 BYTE   W18
 BYTE   N11
 BYTE   W36
 BYTE   Gs4
 BYTE   W12
//  #08 //087   ----------------------------------------
 BYTE   W06
 BYTE   N11
 BYTE   W18
 BYTE   N11
 BYTE   W72
//  #08 //088   ----------------------------------------
 BYTE   W12
 BYTE   Fs3
 BYTE   W18
 BYTE   N11
 BYTE   W18
 BYTE   N11
 BYTE   W36
 BYTE   Cs3
 BYTE   W12
//  #08 //089   ----------------------------------------
 BYTE   W06
 BYTE   Fs3
 BYTE   W18
 BYTE   N11
 BYTE   W24
 BYTE   N11
 BYTE   W12
 BYTE   N11
 BYTE   W12
 BYTE   Fn3
 BYTE   W12
 BYTE   Cs3
 BYTE   W12
//  #08 //090   ----------------------------------------
 BYTE   N22  Cs3  v060
 BYTE   N22  Cs4
 BYTE   W24
 BYTE   Cs3
 BYTE   N22  Cs4
 BYTE   W24
 BYTE   Cs3
 BYTE   N22  Cs4
 BYTE   W24
 BYTE   N11  Cs3
 BYTE   N11  Cs4
 BYTE   W12
 BYTE   Ds3
 BYTE   N11  Ds4
 BYTE   W12
//  #08 //091   ----------------------------------------
 BYTE   N22  Cs3
 BYTE   N22  Cs4
 BYTE   W48
 BYTE   Cs3
 BYTE   N22  Cs4
 BYTE   W24
 BYTE   Fs3
 BYTE   N22  Fs4
 BYTE   W24
//  #08 //092   ----------------------------------------
 BYTE   N32  Gs3
 BYTE   N32  Gs4
 BYTE   W36
 BYTE   N11  Fs3
 BYTE   N11  Fs4
 BYTE   W12
 BYTE   N44  As3
 BYTE   N44  As4
 BYTE   W48
//  #08 //093   ----------------------------------------
 BYTE   W72
 BYTE   N11  Fs4
 BYTE   N11  Fs5
 BYTE   W12
 BYTE   N22  Cs5
 BYTE   N22  Cs6
 BYTE   W12
//  #08 //094   ----------------------------------------
 BYTE   W12
 BYTE   Fs4
 BYTE   N22  Fs5
 BYTE   W24
 BYTE   Fs4
 BYTE   N22  Fs5
 BYTE   W24
 BYTE   N11  Gs4
 BYTE   N11  Gs5
 BYTE   W12
 BYTE   As4
 BYTE   N11  As5
 BYTE   W12
 BYTE   N32  Gs4
 BYTE   N32  Gs5
 BYTE   W12
//  #08 //095   ----------------------------------------
 BYTE   W36
 BYTE   N11  Cs4
 BYTE   N11  Cs5
 BYTE   W12
 BYTE   Cs4
 BYTE   N11  Cs5
 BYTE   W12
 BYTE   Cs4
 BYTE   N11  Cs5
 BYTE   W12
 BYTE   Bn4
 BYTE   N11  Bn5
 BYTE   W12
 BYTE   N22  As4
 BYTE   N22  As5
 BYTE   W12
//  #08 //096   ----------------------------------------
 BYTE   W12
 BYTE   N44  Fs4
 BYTE   N44  Fs5
 BYTE   W84
//  #08 //097   ----------------------------------------
 BYTE   PATT
  POIN2 Label_010DF702
//  #08 //098   ----------------------------------------
 BYTE   PATT
  POIN2 Label_010DF70B
//  #08 //099   ----------------------------------------
 BYTE   PATT
  POIN2 Label_010DF721
//  #08 //100   ----------------------------------------
 BYTE   PATT
  POIN2 Label_010DF739
//  #08 //101   ----------------------------------------
 BYTE   PATT
  POIN2 Label_010DF741
//  #08 //102   ----------------------------------------
 BYTE   W96
//  #08 //103   ----------------------------------------
 BYTE   W96
//  #08 //104   ----------------------------------------
 BYTE   PATT
  POIN2 Label_010DF74D
//  #08 //105   ----------------------------------------
 BYTE   PATT
  POIN2 Label_010DF770
//  #08 //106   ----------------------------------------
 BYTE   N22  Fs3  v060
 BYTE   N22  Fs4
 BYTE   W24
 BYTE   Gs3
 BYTE   N22  Gs4
 BYTE   W24
 BYTE   As3
 BYTE   N22  As4
 BYTE   W24
 BYTE   N11  Fs3
 BYTE   N11  Fs4
 BYTE   W12
 BYTE   Fs3  v104
 BYTE   N11  Cs4
 BYTE   N11  Fs4
 BYTE   W12
//  #08 //107   ----------------------------------------
 BYTE   N22  Fs3
 BYTE   N22  Cs4
 BYTE   N22  Fs4
 BYTE   W24
 BYTE   Gs3
 BYTE   N22  Cs4
 BYTE   N22  Fn4
 BYTE   N22  Gs4
 BYTE   W72
//  #08 //108   ----------------------------------------
 BYTE   PATT
  POIN2 Label_010DF7B9
//  #08 //109   ----------------------------------------
 BYTE   PATT
  POIN2 Label_010DF7E8
//  #08 //110   ----------------------------------------
 BYTE   PATT
  POIN2 Label_010DF805
//  #08 //111   ----------------------------------------
 BYTE   PATT
  POIN2 Label_010DF81F
//  #08 //112   ----------------------------------------
 BYTE   PATT
  POIN2 Label_010DF843
//  #08 //113   ----------------------------------------
 BYTE   PATT
  POIN2 Label_010DF872
//  #08 //114   ----------------------------------------
 BYTE   PATT
  POIN2 Label_010DF88F
//  #08 //115   ----------------------------------------
 BYTE   PATT
  POIN2 Label_010DF8AC
//  #08 //116   ----------------------------------------
 BYTE   PATT
  POIN2 Label_010DF8D1
//  #08 //117   ----------------------------------------
 BYTE   PATT
  POIN2 Label_010DF900
//  #08 //118   ----------------------------------------
 BYTE   PATT
  POIN2 Label_010DF91D
//  #08 //119   ----------------------------------------
 BYTE   PATT
  POIN2 Label_010DF929
//  #08 //120   ----------------------------------------
 BYTE   PATT
  POIN2 Label_010DF94C
//  #08 //121   ----------------------------------------
 BYTE   PATT
  POIN2 Label_010DF971
//  #08 //122   ----------------------------------------
 BYTE   PATT
  POIN2 Label_010DF997
//  #08 //123   ----------------------------------------
 BYTE   PATT
  POIN2 Label_010DF9BE
//  #08 //124   ----------------------------------------
 BYTE   PATT
  POIN2 Label_010DF9D2
//  #08 //125   ----------------------------------------
Label_010DFC77:
 BYTE   N22  Bn2  v104
 BYTE   N22  Fs3
 BYTE   N22  Bn3
 BYTE   W24
 BYTE   Fs3
 BYTE   N22  Bn3
 BYTE   N22  Fs4
 BYTE   W48
 BYTE   Cs3
 BYTE   N22  As3
 BYTE   N22  Cs4
 BYTE   W24
 BYTE   PEND 
//  #08 //126   ----------------------------------------
 BYTE   PATT
  POIN2 Label_010DFA00
//  #08 //127   ----------------------------------------
 BYTE   PATT
  POIN2 Label_010DFA23
//  #08 //128   ----------------------------------------
 BYTE   PATT
  POIN2 Label_010DFA3B
//  #08 //129   ----------------------------------------
 BYTE   PATT
  POIN2 Label_010DFA56
//  #08 //130   ----------------------------------------
 BYTE   PATT
  POIN2 Label_010DFA72
//  #08 //131   ----------------------------------------
 BYTE   W36
 BYTE   N11  Cs4  v104
 BYTE   N11  Cs5
 BYTE   W12
 BYTE   N22  Gs4
 BYTE   N22  Gs5
 BYTE   W24
 BYTE   N11  As4
 BYTE   N11  As5
 BYTE   W12
 BYTE   As4
 BYTE   N11  As5
 BYTE   W12
//  #08 //132   ----------------------------------------
 BYTE   Bn2
 BYTE   N11  Ds3
 BYTE   N11  As3
 BYTE   W12
 BYTE   Bn2
 BYTE   N11  Ds3
 BYTE   N11  As3
 BYTE   W12
 BYTE   Bn2
 BYTE   N11  Ds3
 BYTE   N11  As3
 BYTE   W12
 BYTE   Bn2
 BYTE   N11  Ds3
 BYTE   N11  Gs3
 BYTE   W12
 BYTE   Bn2
 BYTE   N11  Ds3
 BYTE   N11  Gs3
 BYTE   W12
 BYTE   Bn2
 BYTE   N11  Ds3
 BYTE   N11  Gs3
 BYTE   W12
 BYTE   Cs3
 BYTE   N11  Fn3
 BYTE   N11  As3
 BYTE   W12
 BYTE   Cs3
 BYTE   N11  Fn3
 BYTE   N11  As3
 BYTE   W12
//  #08 //133   ----------------------------------------
 BYTE   Cs3
 BYTE   N11  Fn3
 BYTE   N11  As3
 BYTE   W12
 BYTE   Cs3
 BYTE   N11  Fn3
 BYTE   N11  Gs3
 BYTE   W12
 BYTE   Cs3
 BYTE   N11  Fn3
 BYTE   N11  Gs3
 BYTE   W12
 BYTE   Cs3
 BYTE   N11  Fn3
 BYTE   N11  Gs3
 BYTE   W12
 BYTE   Ds3
 BYTE   N11  Fs3
 BYTE   N11  As3
 BYTE   W12
 BYTE   Ds3
 BYTE   N11  Fs3
 BYTE   N11  As3
 BYTE   W12
 BYTE   Cs3
 BYTE   N11  Fn3
 BYTE   N11  Bn3
 BYTE   W12
 BYTE   Cs3
 BYTE   N11  Fn3
 BYTE   N11  Bn3
 BYTE   W12
//  #08 //134   ----------------------------------------
 BYTE   Ds3
 BYTE   N11  Fs3
 BYTE   N11  Cs4
 BYTE   W12
 BYTE   Ds3
 BYTE   N11  Fs3
 BYTE   N11  Cs4
 BYTE   W12
 BYTE   Ds3
 BYTE   N11  Fs3
 BYTE   N11  Cs4
 BYTE   W12
 BYTE   Ds3
 BYTE   N11  Fs3
 BYTE   N11  Cs4
 BYTE   W12
 BYTE   Ds3
 BYTE   N11  Fs3
 BYTE   N11  Cs4
 BYTE   W12
 BYTE   Ds3
 BYTE   N11  Fs3
 BYTE   N11  Cs4
 BYTE   W12
 BYTE   Fn3
 BYTE   N11  Gs3
 BYTE   N11  Cs4
 BYTE   W12
 BYTE   Fn3
 BYTE   N11  Gs3
 BYTE   N11  Cs4
 BYTE   W12
//  #08 //135   ----------------------------------------
 BYTE   Fn3
 BYTE   N11  Gs3
 BYTE   N11  Cs4
 BYTE   W12
 BYTE   Fs3
 BYTE   N11  Cs4
 BYTE   N11  Fs4
 BYTE   W12
 BYTE   Fs3
 BYTE   N11  Cs4
 BYTE   N11  Fs4
 BYTE   W12
 BYTE   N11
 BYTE   N11  Fs5
 BYTE   W12
 BYTE   N22  Fn4
 BYTE   N22  Fn5
 BYTE   W24
 BYTE   Cs4
 BYTE   N22  Cs5
 BYTE   W24
//  #08 //136   ----------------------------------------
 BYTE   W36
 BYTE   N11  Cs3
 BYTE   N11  Gs3
 BYTE   N11  Cs4
 BYTE   W12
 BYTE   N17  Ds3
 BYTE   N17  Gs3
 BYTE   N17  Ds4
 BYTE   W18
 BYTE   Fn3
 BYTE   N17  Gs3
 BYTE   N17  Fn4
 BYTE   W18
 BYTE   N11  Fs3
 BYTE   N11  Bn3
 BYTE   N11  Fs4
 BYTE   W12
//  #08 //137   ----------------------------------------
 BYTE   N17  Fn3
 BYTE   N17  As3
 BYTE   N17  Fn4
 BYTE   W18
 BYTE   Cs3
 BYTE   N17  As3
 BYTE   N17  Cs4
 BYTE   W18
 BYTE   N11  Cs3
 BYTE   N11  As3
 BYTE   N11  Cs4
 BYTE   W12
 BYTE   N17  Gs3
 BYTE   N17  Cs4
 BYTE   N17  Gs4
 BYTE   W18
 BYTE   Fs3
 BYTE   N17  Cs4
 BYTE   N17  Fs4
 BYTE   W18
 BYTE   N11  Bn3
 BYTE   N11  Fn4
 BYTE   N11  Bn4
 BYTE   W12
//  #08 //138   ----------------------------------------
 BYTE   As3
 BYTE   N11  Cs4
 BYTE   N11  Fs4
 BYTE   N11  As4
 BYTE   W12
 BYTE   As3
 BYTE   N11  Cs4
 BYTE   N11  Fs4
 BYTE   N11  As4
 BYTE   W12
 BYTE   As3
 BYTE   N11  Cs4
 BYTE   N11  Fs4
 BYTE   N11  As4
 BYTE   W12
 BYTE   As3
 BYTE   N11  Cs4
 BYTE   N11  Fs4
 BYTE   N11  As4
 BYTE   W12
 BYTE   As3
 BYTE   N11  Cs4
 BYTE   N11  Fs4
 BYTE   N11  As4
 BYTE   W12
 BYTE   As3
 BYTE   N11  Cs4
 BYTE   N11  Fs4
 BYTE   N11  As4
 BYTE   W12
 BYTE   As3
 BYTE   N11  Cs4
 BYTE   N11  Fs4
 BYTE   N11  As4
 BYTE   W12
 BYTE   As3
 BYTE   N11  Cs4
 BYTE   N11  Fs4
 BYTE   N11  As4
 BYTE   W12
//  #08 //139   ----------------------------------------
 BYTE   N01  Cn7
 BYTE   W01
 BYTE   Bn6
 BYTE   W02
 BYTE   An6
 BYTE   W01
 BYTE   Gn6
 BYTE   W02
 BYTE   Fn6
 BYTE   W01
 BYTE   En6
 BYTE   W02
 BYTE   Dn6
 BYTE   W01
 BYTE   Cn6
 BYTE   W02
 BYTE   Bn5
 BYTE   W01
 BYTE   An5
 BYTE   W02
 BYTE   Gn5
 BYTE   W01
 BYTE   Fn5
 BYTE   W02
 BYTE   En5
 BYTE   W01
 BYTE   Dn5
 BYTE   W02
 BYTE   Cn5
 BYTE   W01
 BYTE   Bn4
 BYTE   W02
 BYTE   An4
 BYTE   W01
 BYTE   Gn4
 BYTE   W02
 BYTE   Fn4
 BYTE   W01
 BYTE   En4
 BYTE   W02
 BYTE   Dn4
 BYTE   W01
 BYTE   Cn4
 BYTE   W05
 BYTE   N11  Fs3  v127
 BYTE   N11  Cs4
 BYTE   N11  Fs4
 BYTE   W12
 BYTE   N23  As3
 BYTE   N23  Fn4
 BYTE   N23  As4
 BYTE   W24
 BYTE   Cs4
 BYTE   N23  Gs4
 BYTE   N23  Cs5
 BYTE   W24
//  #08 //140   ----------------------------------------
 BYTE   N22  As3  v104
 BYTE   N22  Ds4
 BYTE   N22  Fs4
 BYTE   N22  As4
 BYTE   W24
 BYTE   N11  As3
 BYTE   N11  Ds4
 BYTE   N11  Fs4
 BYTE   N11  As4
 BYTE   W12
 BYTE   N22  As3
 BYTE   N22  Ds4
 BYTE   N22  Fs4
 BYTE   N22  As4
 BYTE   W24
 BYTE   N11  As3
 BYTE   N11  Ds4
 BYTE   N11  Fs4
 BYTE   N11  As4
 BYTE   W12
 BYTE   As3
 BYTE   N11  Ds4
 BYTE   N11  Fs4
 BYTE   N11  As4
 BYTE   W12
 BYTE   As3
 BYTE   N11  Ds4
 BYTE   N11  Fs4
 BYTE   N11  As4
 BYTE   W12
//  #08 //141   ----------------------------------------
 BYTE   As3
 BYTE   N11  Cs4
 BYTE   N11  Fn4
 BYTE   N11  As4
 BYTE   W12
 BYTE   As3
 BYTE   N11  Cs4
 BYTE   N11  Fn4
 BYTE   N11  As4
 BYTE   W12
 BYTE   As3
 BYTE   N11  Cs4
 BYTE   N11  Fn4
 BYTE   N11  As4
 BYTE   W12
 BYTE   N22  As3
 BYTE   N22  Cs4
 BYTE   N22  Fn4
 BYTE   N22  As4
 BYTE   W24
 BYTE   N11
 BYTE   N11  As5
 BYTE   W12
 BYTE   Bn4
 BYTE   N11  Bn5
 BYTE   W12
 BYTE   N22  Cs5
 BYTE   N22  Cs6
 BYTE   W12
//  #08 //142   ----------------------------------------
 BYTE   W12
 BYTE   N11  Cs5
 BYTE   N11  Cs6
 BYTE   W12
 BYTE   Bn4
 BYTE   N11  Bn5
 BYTE   W12
 BYTE   N22  As4
 BYTE   N22  As5
 BYTE   W24
 BYTE   N11  As4
 BYTE   N11  As5
 BYTE   W12
 BYTE   Cs5
 BYTE   N11  Cs6
 BYTE   W12
 BYTE   N22  Gs5
 BYTE   N22  Gs6
 BYTE   W12
//  #08 //143   ----------------------------------------
 BYTE   W12
 BYTE   N11  Fs5
 BYTE   N11  Fs6
 BYTE   W12
 BYTE   Fn5
 BYTE   N11  Fn6
 BYTE   W12
 BYTE   Fs5
 BYTE   N11  Fs6
 BYTE   W12
 BYTE   N01  Fn6
 BYTE   W01
 BYTE   En6
 BYTE   W02
 BYTE   Dn6
 BYTE   W01
 BYTE   Cn6
 BYTE   W02
 BYTE   Bn5
 BYTE   W01
 BYTE   An5
 BYTE   W02
 BYTE   Gn5
 BYTE   W01
 BYTE   Fn5
 BYTE   W02
 BYTE   En5
 BYTE   W01
 BYTE   Dn5
 BYTE   W02
 BYTE   Cn5
 BYTE   W01
 BYTE   Bn4
 BYTE   W02
 BYTE   An4
 BYTE   W01
 BYTE   Gn4
 BYTE   W02
 BYTE   Fn4
 BYTE   W01
 BYTE   En4
 BYTE   W02
 BYTE   N22  Fs3
 BYTE   N22  As3
 BYTE   N22  Cs4
 BYTE   W24
//  #08 //144   ----------------------------------------
 BYTE   N11  Fn3
 BYTE   N11  Gs3
 BYTE   N11  Cs4
 BYTE   W12
 BYTE   Fn3
 BYTE   N11  Gs3
 BYTE   N11  Cs4
 BYTE   W12
 BYTE   Cs3
 BYTE   N11  Fn3
 BYTE   N11  Bn3
 BYTE   W12
 BYTE   Cs3
 BYTE   N11  Fn3
 BYTE   N11  Bn3
 BYTE   W12
 BYTE   Ds3
 BYTE   N11  Fs3
 BYTE   N11  As3
 BYTE   W12
 BYTE   Ds3
 BYTE   N11  Fs3
 BYTE   N11  As3
 BYTE   W12
 BYTE   Cs3
 BYTE   N11  Fn3
 BYTE   N11  Gs3
 BYTE   W12
 BYTE   Cs3
 BYTE   N11  Fn3
 BYTE   N11  Gs3
 BYTE   W12
//  #08 //145   ----------------------------------------
 BYTE   Bn2
 BYTE   N11  Ds3
 BYTE   N11  Fs3
 BYTE   W12
 BYTE   Bn2
 BYTE   N11  Ds3
 BYTE   N11  Fs3
 BYTE   W12
 BYTE   Cs3
 BYTE   N11  Fn3
 BYTE   N11  Gs3
 BYTE   W12
 BYTE   Cs3
 BYTE   N11  Fn3
 BYTE   N11  Gs3
 BYTE   W12
 BYTE   Bn2
 BYTE   N11  Ds3
 BYTE   N11  As3
 BYTE   W12
 BYTE   Bn2
 BYTE   N11  Ds3
 BYTE   N11  As3
 BYTE   W12
 BYTE   Fn2
 BYTE   N11  As2
 BYTE   N11  Cs3
 BYTE   W12
 BYTE   Fn2
 BYTE   N11  As2
 BYTE   N11  Cs3
 BYTE   W12
//  #08 //146   ----------------------------------------
 BYTE   N14  Ds3
 BYTE   W15
 BYTE   N02  Cs3
 BYTE   W03
 BYTE   As2
 BYTE   W03
 BYTE   Gs2
 BYTE   W03
 BYTE   Fs2
 BYTE   W03
 BYTE   N02
 BYTE   W03
 BYTE   Ds2
 BYTE   W03
 BYTE   Cs2
 BYTE   W24
 BYTE   W03
 BYTE   N14  Fs3
 BYTE   W15
 BYTE   N02  Ds3
 BYTE   W03
 BYTE   Cs3
 BYTE   W03
 BYTE   As2
 BYTE   W03
 BYTE   Gs2
 BYTE   W03
 BYTE   Fs2
 BYTE   W03
 BYTE   Ds2
 BYTE   W03
 BYTE   Cs2
 BYTE   W03
//  #08 //147   ----------------------------------------
 BYTE   W12
 BYTE   N14  As3
 BYTE   W15
 BYTE   N02  Gs3
 BYTE   W03
 BYTE   Fs3
 BYTE   W03
 BYTE   Ds3
 BYTE   W03
 BYTE   Cs3
 BYTE   W03
 BYTE   As2
 BYTE   W03
 BYTE   Gs2
 BYTE   W03
 BYTE   Fs2
 BYTE   W24
 BYTE   W03
 BYTE   N22  Fn2
 BYTE   N22  Gs2
 BYTE   N22  Cs3
 BYTE   W24
//  #08 //148   ----------------------------------------
Label_010DFF86:
 BYTE   N11  As2  v104
 BYTE   N11  Cs3
 BYTE   N11  Fs3
 BYTE   W12
 BYTE   As2
 BYTE   N11  Cs3
 BYTE   N11  Fs3
 BYTE   W12
 BYTE   Cs3
 BYTE   N11  Fs3
 BYTE   N11  As3
 BYTE   W12
 BYTE   Cs3
 BYTE   N11  Fs3
 BYTE   N11  As3
 BYTE   W12
 BYTE   As2
 BYTE   N11  Cs3
 BYTE   N11  Gs3
 BYTE   W12
 BYTE   As2
 BYTE   N11  Cs3
 BYTE   N11  Gs3
 BYTE   W12
 BYTE   Cs3
 BYTE   N11  Fs3
 BYTE   N11  As3
 BYTE   W12
 BYTE   Cs3
 BYTE   N11  Fs3
 BYTE   N11  As3
 BYTE   W12
 BYTE   PEND 
//  #08 //149   ----------------------------------------
 BYTE   PATT
  POIN2 Label_010DFF86
//  #08 //150   ----------------------------------------
 BYTE   N90  Cs3  v104
 BYTE   N90  Fn3
 BYTE   N90  Gs3
 BYTE   W96
//  #08 //151   ----------------------------------------
 BYTE   N22  Cs4  v028
 BYTE   W36
 BYTE   N22
 BYTE   W36
 BYTE   N22
 BYTE   W24
//  #08 //152   ----------------------------------------
 BYTE   W96
//  #08 //153   ----------------------------------------
 BYTE   W96
//  #08 //154   ----------------------------------------
 BYTE   W96
//  #08 //155   ----------------------------------------
 BYTE   W48
 BYTE   Bn2
 BYTE   W24
 BYTE   As2
 BYTE   W24
//  #08 //156   ----------------------------------------
 BYTE   W96
//  #08 //157   ----------------------------------------
 BYTE   W96
//  #08 //158   ----------------------------------------
 BYTE   W96
//  #08 //159   ----------------------------------------
 BYTE   W48
 BYTE   N32  Fn3  v080
 BYTE   N32  As3
 BYTE   N32  Fn4
 BYTE   W48
//  #08 //160   ----------------------------------------
 BYTE   N17  Fn3
 BYTE   N17  Fn4
 BYTE   W18
 BYTE   Fs3
 BYTE   N17  Fs4
 BYTE   W18
 BYTE   N11  As2
 BYTE   N11  As3
 BYTE   W12
 BYTE   N17  Fn3
 BYTE   N17  Fn4
 BYTE   W18
 BYTE   Fs3
 BYTE   N17  Fs4
 BYTE   W18
 BYTE   N11  Fs3
 BYTE   N11  Fs4
 BYTE   W12
//  #08 //161   ----------------------------------------
 BYTE   N17  Gs3
 BYTE   N17  Gs4
 BYTE   W18
 BYTE   Fs3
 BYTE   N17  Fs4
 BYTE   W18
 BYTE   N11  Fs3
 BYTE   N11  Fs4
 BYTE   W12
 BYTE   N17  Fn3
 BYTE   N17  Fn4
 BYTE   W18
 BYTE   Fs3
 BYTE   N17  Fs4
 BYTE   W18
 BYTE   N11  Cs3
 BYTE   N11  Cs4
 BYTE   W12
//  #08 //162   ----------------------------------------
 BYTE   N22  Bn3
 BYTE   N22  Bn4
 BYTE   W24
 BYTE   N11  As3
 BYTE   N11  As4
 BYTE   W12
 BYTE   N32  As3
 BYTE   N32  As4
 BYTE   W36
 BYTE   N11  Fs3
 BYTE   N11  Fs4
 BYTE   W12
 BYTE   Fs3
 BYTE   N11  Fs4
 BYTE   W12
//  #08 //163   ----------------------------------------
 BYTE   N22  Cs4
 BYTE   N22  Cs5
 BYTE   W24
 BYTE   Bn3
 BYTE   N22  Bn4
 BYTE   W24
 BYTE   N17  An3
 BYTE   N17  An4
 BYTE   W18
 BYTE   Gs3
 BYTE   N17  Gs4
 BYTE   W18
 BYTE   N11  Fs3
 BYTE   N11  Fs4
 BYTE   W12
//  #08 //164   ----------------------------------------
 BYTE   Cs4
 BYTE   N11  Cs5
 BYTE   W12
 BYTE   Fn3
 BYTE   N11  Fn4
 BYTE   W12
 BYTE   Fs3
 BYTE   N11  Fs4
 BYTE   W12
 BYTE   Cs4
 BYTE   N11  Cs5
 BYTE   W12
 BYTE   Fn3
 BYTE   N11  Fn4
 BYTE   W12
 BYTE   Fs3
 BYTE   N11  Fs4
 BYTE   W12
 BYTE   Cs4
 BYTE   N11  Cs5
 BYTE   W12
 BYTE   Fn3
 BYTE   N11  Fn4
 BYTE   W12
//  #08 //165   ----------------------------------------
 BYTE   Fs3
 BYTE   N11  Fs4
 BYTE   W12
 BYTE   Cs4
 BYTE   N11  Cs5
 BYTE   W12
 BYTE   Fn3
 BYTE   N11  Fn4
 BYTE   W12
 BYTE   Cs4
 BYTE   N11  Cs5
 BYTE   W12
 BYTE   Cs4
 BYTE   N11  Cs5
 BYTE   W12
 BYTE   Bn3
 BYTE   N11  Bn4
 BYTE   W12
 BYTE   As3
 BYTE   N11  As4
 BYTE   W12
 BYTE   N22  Bn3
 BYTE   N22  Bn4
 BYTE   W12
//  #08 //166   ----------------------------------------
 BYTE   W12
 BYTE   N11  Fs4
 BYTE   N11  Fs5
 BYTE   W12
 BYTE   N22  Fs4
 BYTE   N22  Fs5
 BYTE   W60
 BYTE   N11  Fs3
 BYTE   N11  Fs4
 BYTE   W12
//  #08 //167   ----------------------------------------
 BYTE   N22  As3
 BYTE   N22  As4
 BYTE   W24
 BYTE   Gs3
 BYTE   N22  Gs4
 BYTE   W24
 BYTE   N11  Fs3
 BYTE   N11  Fs4
 BYTE   W12
 BYTE   Fs3
 BYTE   N11  Fs4
 BYTE   W12
 BYTE   N32  Fs3
 BYTE   N32  Fs4
 BYTE   W24
//  #08 //168   ----------------------------------------
 BYTE   W12
 BYTE   N11  Gs3
 BYTE   N11  Gs4
 BYTE   W12
 BYTE   TIE  Gs3
 BYTE   TIE  Gs4
 BYTE   W72
//  #08 //169   ----------------------------------------
 BYTE   W40
 BYTE   W01
 BYTE   EOT
 BYTE   Gs3  v080
 BYTE   W42
 BYTE   W01
 BYTE   N11  Fs4  v104
 BYTE   N11  Fs5
 BYTE   W12
//  #08 //170   ----------------------------------------
 BYTE   N32  Cs5
 BYTE   N32  Cs6
 BYTE   W36
 BYTE   N11  Bn4
 BYTE   N11  Bn5
 BYTE   W12
 BYTE   N32  Bn4
 BYTE   N32  Bn5
 BYTE   W36
 BYTE   N11  As4
 BYTE   N11  As5
 BYTE   W12
//  #08 //171   ----------------------------------------
 BYTE   N22  As4
 BYTE   N22  As5
 BYTE   W24
 BYTE   Gs4
 BYTE   N22  Gs5
 BYTE   W24
 BYTE   Bn4
 BYTE   N22  Bn5
 BYTE   W24
 BYTE   As4
 BYTE   N22  As5
 BYTE   W24
//  #08 //172   ----------------------------------------
 BYTE   W96
//  #08 //173   ----------------------------------------
 BYTE   W96
//  #08 //174   ----------------------------------------
 BYTE   As3
 BYTE   N22  As4
 BYTE   W24
 BYTE   N11  Gs3
 BYTE   N11  Gs4
 BYTE   W12
 BYTE   N22  Gs3
 BYTE   N22  Gs4
 BYTE   W24
 BYTE   N11  Fs3
 BYTE   N11  Fs4
 BYTE   W12
 BYTE   N44  Fs3
 BYTE   N44  Fs4
 BYTE   W24
//  #08 //175   ----------------------------------------
 BYTE   W24
 BYTE   N22  Fs3
 BYTE   N22  Fs4
 BYTE   W24
 BYTE   Cs4
 BYTE   N22  Fs4
 BYTE   N22  As4
 BYTE   N22  Cs5
 BYTE   W24
 BYTE   N32  Gs3
 BYTE   N32  Cs4
 BYTE   N32  Fn4
 BYTE   N32  Gs4
 BYTE   W24
//  #08 //176   ----------------------------------------
 BYTE   PATT
  POIN2 Label_010DF805
//  #08 //177   ----------------------------------------
 BYTE   PATT
  POIN2 Label_010DF81F
//  #08 //178   ----------------------------------------
 BYTE   PATT
  POIN2 Label_010DF843
//  #08 //179   ----------------------------------------
 BYTE   PATT
  POIN2 Label_010DF872
//  #08 //180   ----------------------------------------
 BYTE   PATT
  POIN2 Label_010DF88F
//  #08 //181   ----------------------------------------
 BYTE   PATT
  POIN2 Label_010DF8AC
//  #08 //182   ----------------------------------------
 BYTE   PATT
  POIN2 Label_010DF8D1
//  #08 //183   ----------------------------------------
 BYTE   PATT
  POIN2 Label_010DF900
//  #08 //184   ----------------------------------------
 BYTE   PATT
  POIN2 Label_010DF91D
//  #08 //185   ----------------------------------------
 BYTE   PATT
  POIN2 Label_010DF929
//  #08 //186   ----------------------------------------
 BYTE   PATT
  POIN2 Label_010DF94C
//  #08 //187   ----------------------------------------
 BYTE   PATT
  POIN2 Label_010DF971
//  #08 //188   ----------------------------------------
 BYTE   PATT
  POIN2 Label_010DF997
//  #08 //189   ----------------------------------------
 BYTE   PATT
  POIN2 Label_010DF9BE
//  #08 //190   ----------------------------------------
 BYTE   PATT
  POIN2 Label_010DF9D2
//  #08 //191   ----------------------------------------
 BYTE   PATT
  POIN2 Label_010DFC77
//  #08 //192   ----------------------------------------
 BYTE   PATT
  POIN2 Label_010DFA00
//  #08 //193   ----------------------------------------
 BYTE   PATT
  POIN2 Label_010DFA23
//  #08 //194   ----------------------------------------
 BYTE   PATT
  POIN2 Label_010DFA3B
//  #08 //195   ----------------------------------------
 BYTE   PATT
  POIN2 Label_010DFA56
//  #08 //196   ----------------------------------------
 BYTE   PATT
  POIN2 Label_010DFA72
//  #08 //197   ----------------------------------------
 BYTE   W36
 BYTE   N11  Cs4  v127
 BYTE   N11  Cs5
 BYTE   W12
 BYTE   N32  Bn4
 BYTE   N32  Bn5
 BYTE   W36
 BYTE   TIE  As4
 BYTE   TIE  As5
 BYTE   W12
//  #08 //198   ----------------------------------------
 BYTE   N11  Fs3  v104
 BYTE   N11  Bn3
 BYTE   N11  Ds4
 BYTE   N11  Fs4
 BYTE   W12
 BYTE   Fs3
 BYTE   N11  Bn3
 BYTE   W12
 BYTE   Fs3
 BYTE   N11  Bn3
 BYTE   W12
 BYTE   Fn3
 BYTE   N11  Bn3
 BYTE   N11  Ds4
 BYTE   N11  Fn4
 BYTE   W12
 BYTE   Fn3
 BYTE   N11  Bn3
 BYTE   W12
 BYTE   Fn3
 BYTE   N11  Bn3
 BYTE   W12
 BYTE   Cs3
 BYTE   N11  Ds3
 BYTE   N11  Fs3
 BYTE   N11  Cs4
 BYTE   W12
 BYTE   Cs3
 BYTE   N11  Ds3
 BYTE   W07
 BYTE   EOT
 BYTE   As4  v094
 BYTE   W05
//  #08 //199   ----------------------------------------
 BYTE   PATT
  POIN2 Label_010DF5B5
//  #08 //200   ----------------------------------------
 BYTE   PATT
  POIN2 Label_010DF5DE
//  #08 //201   ----------------------------------------
 BYTE   N11  Cs3  v104
 BYTE   N11  Fs3
 BYTE   W12
 BYTE   Cs3
 BYTE   N11  Fs3
 BYTE   W12
 BYTE   Cs3
 BYTE   N11  Fs3
 BYTE   W12
 BYTE   N22  Gs3
 BYTE   N22  Cs4
 BYTE   N22  Fn4
 BYTE   N22  Gs4
 BYTE   W24
 BYTE   N32  Fs3
 BYTE   N32  Gs3
 BYTE   N32  Cs4
 BYTE   N32  Fs4
 BYTE   W36
//  #08 //202   ----------------------------------------
 BYTE   N22  As3
 BYTE   N22  Cs4
 BYTE   N22  Fn4
 BYTE   N22  As4
 BYTE   W24
 BYTE   N11  As3
 BYTE   N11  Cs4
 BYTE   N11  Fn4
 BYTE   N11  As4
 BYTE   W12
 BYTE   N22  Gs3
 BYTE   N22  Cs4
 BYTE   N22  Fn4
 BYTE   N22  Gs4
 BYTE   W24
 BYTE   N11  Gs3
 BYTE   N11  Cs4
 BYTE   N11  Fn4
 BYTE   N11  Gs4
 BYTE   W12
 BYTE   N22  Cs4
 BYTE   N22  Fn4
 BYTE   N22  As4
 BYTE   N22  Cs5
 BYTE   W24
//  #08 //203   ----------------------------------------
 BYTE   N11  Cs4
 BYTE   N11  Fn4
 BYTE   N11  As4
 BYTE   N11  Cs5
 BYTE   W12
 BYTE   N22  Fs3
 BYTE   N22  As3
 BYTE   N22  Cs4
 BYTE   N22  Fs4
 BYTE   W24
 BYTE   N11  Fs3
 BYTE   N11  As3
 BYTE   N11  Cs4
 BYTE   N11  Fs4
 BYTE   W12
 BYTE   N22  Fn3
 BYTE   N22  Gs3
 BYTE   N22  Cs4
 BYTE   N22  Fn4
 BYTE   W24
 BYTE   Gs3
 BYTE   N22  Cs4
 BYTE   N22  Fn4
 BYTE   N22  Gs4
 BYTE   W24
//  #08 //204   ----------------------------------------
 BYTE   N44  Fs3
 BYTE   N44  As3
 BYTE   N44  Cs4
 BYTE   N44  Fs4
 BYTE   W72
 BYTE   N22  Cs3
 BYTE   N22  Fs3
 BYTE   N22  As3
 BYTE   N22  Cs4
 BYTE   W24
//  #08 //205   ----------------------------------------
 BYTE   N44  As3
 BYTE   N44  Ds4
 BYTE   N44  Fs4
 BYTE   N44  As4
 BYTE   W48
 BYTE   Gs3
 BYTE   N44  Cs4
 BYTE   N44  Fn4
 BYTE   N44  Gs4
 BYTE   W48
//  #08 //206   ----------------------------------------
 BYTE   W24
 BYTE   TIE  Fn5
 BYTE   W01
 BYTE   Cs5
 BYTE   W68
 BYTE   W03
//  #08 //207   ----------------------------------------
 BYTE   W96
//  #08 //208   ----------------------------------------
 BYTE   W17
 BYTE   EOT
 BYTE   EOT
 BYTE   Fn5
 BYTE   W78
 BYTE   W01
//  #08 //209   ----------------------------------------
 BYTE   W96
//  #08 //210   ----------------------------------------
 BYTE   W96
//  #08 //211   ----------------------------------------
 BYTE   W96
//  #08 //212   ----------------------------------------
 BYTE   W96
//  #08 //213   ----------------------------------------
 BYTE   W76
 BYTE   FINE

//******************************************************//
	ALIGN 4

song38:
	BYTE	8	// NumTrks
	BYTE	0	// NumBlks
	BYTE	song38_pri	// Priority
	BYTE	song38_rev	// Reverb.
    
	POIN2	song38_grp
    
	POIN2	song38_001
	POIN2	song38_002
	POIN2	song38_003
	POIN2	song38_004
	POIN2	song38_005
	POIN2	song38_006
	POIN2	song38_007
	POIN2	song38_008

	
