//Event file generated from Sappy .s format.
	#include "MPlayDef.event"

	#define	Identity_grp  voicegroup000
	#define	Identity_pri  0
	#define	Identity_rev  0
	#define	Identity_mvl  127
	#define	Identity_key  0
	#define	Identity_tbs  1
	#define	Identity_exg  0
	#define	Identity_cmp  1

	// .rodata
	//	Identity
	ALIGN 4


//**************** Track 1 (Midi-Chn.0) ****************//

Identity_001:
//  #01 //000   ----------------------------------------
 BYTE   KEYSH   Identity_key+0
 BYTE   TEMPO   168*Identity_tbs/2
 BYTE   VOICE   52
 BYTE   MODT 0
 BYTE   LFOS 44
 BYTE   VOL   51*Identity_mvl/mxv
 BYTE   PAN   c_v+0
 BYTE   N22  Bn3  v064
 BYTE   W24
 BYTE   N11  Fs3
 BYTE   W12
 BYTE   Fs3  v080
 BYTE   W12
 BYTE   N22  Bn3  v064
 BYTE   N11  Ds4  v080
 BYTE   W12
 BYTE   N23  En4
 BYTE   W12
 BYTE   N22  Fs3  v064
 BYTE   W12
 BYTE   N44  Fs4  v080
 BYTE   W12
//  #01 //001   ----------------------------------------
 BYTE   N22  Bn3  v064
 BYTE   W24
 BYTE   N11  Fs3
 BYTE   W12
 BYTE   Bn3
 BYTE   N11  Bn4  v092
 BYTE   W12
 BYTE   N22  Bn3  v064
 BYTE   N23  As4  v092
 BYTE   W24
 BYTE   N11  Bn3  v064
 BYTE   N11  Bn4  v092
 BYTE   W12
 BYTE   N22  Fs3  v064
 BYTE   N32  An3  v080
 BYTE   N32  Dn4
 BYTE   N32  Fs4  v092
 BYTE   W12
//  #01 //002   ----------------------------------------
 BYTE   W12
 BYTE   N11  En3  v080
 BYTE   W12
 BYTE   Fs3  v044
 BYTE   W12
 BYTE   N11
 BYTE   N11  Bn3
 BYTE   W12
 BYTE   Fs3  v048
 BYTE   N11  Dn4
 BYTE   W12
 BYTE   Fs3  v056
 BYTE   N11  Fs4
 BYTE   W12
 BYTE   Bn3  v064
 BYTE   N11  Bn4
 BYTE   W12
 BYTE   Dn4  v072
 BYTE   N11  Dn5
 BYTE   W12
//  #01 //003   ----------------------------------------
 BYTE   N22  Fs4  v080
 BYTE   N22  Fs5
 BYTE   W36
 BYTE   N11  Fs3
 BYTE   N11  Fs4
 BYTE   W12
 BYTE   N22  En3
 BYTE   N22  En4
 BYTE   W24
 BYTE   N11  Dn3
 BYTE   N11  Dn4
 BYTE   W12
 BYTE   N32  Fs3
 BYTE   N32  Bn3
 BYTE   N32  Fs4
 BYTE   W12
//  #01 //004   ----------------------------------------
Label_01A4F5A4:
 BYTE   W36
 BYTE   N11  Fs3  v068
 BYTE   W12
 BYTE   Bn3
 BYTE   N11  Ds4
 BYTE   W12
 BYTE   N22  Cs4
 BYTE   N22  En4
 BYTE   W24
 BYTE   N32  Ds4
 BYTE   N32  Fs4
 BYTE   W12
 BYTE   PEND 
//  #01 //005   ----------------------------------------
 BYTE   PATT
  POIN2 Label_01A4F5A4
//  #01 //006   ----------------------------------------
Label_01A4F5BD:
 BYTE   W36
 BYTE   N11  Fs3  v068
 BYTE   W12
 BYTE   N11
 BYTE   N11  Bn3
 BYTE   W12
 BYTE   N22  Fs3
 BYTE   N22  Fs4
 BYTE   W24
 BYTE   En3
 BYTE   N22  En4
 BYTE   W12
 BYTE   PEND 
//  #01 //007   ----------------------------------------
Label_01A4F5D0:
 BYTE   W12
 BYTE   N11  Ds3  v068
 BYTE   N11  Ds4
 BYTE   W12
 BYTE   Cs3
 BYTE   N11  Cs4
 BYTE   W12
 BYTE   Bn2
 BYTE   N11  Bn3
 BYTE   W24
 BYTE   N32  Cs3
 BYTE   N32  As3
 BYTE   N32  Cs4
 BYTE   W36
 BYTE   PEND 
//  #01 //008   ----------------------------------------
 BYTE   N07  En3  v088
 BYTE   W12
 BYTE   Bn2
 BYTE   W12
 BYTE   N11  Gs3  v084
 BYTE   N11  Bn3
 BYTE   W12
 BYTE   Fs3  v068
 BYTE   W12
 BYTE   Bn3  v084
 BYTE   N11  Ds4
 BYTE   W12
 BYTE   N22  Cs4
 BYTE   N22  En4
 BYTE   W24
 BYTE   N32  Ds4
 BYTE   N32  Fs4
 BYTE   W12
//  #01 //009   ----------------------------------------
Label_01A4F605:
 BYTE   W36
 BYTE   N11  Fs3  v076
 BYTE   W12
 BYTE   Ds3
 BYTE   N11  Bn3
 BYTE   W12
 BYTE   N22  Fs3
 BYTE   N22  Fs4
 BYTE   W24
 BYTE   En3
 BYTE   N22  En4
 BYTE   W12
 BYTE   PEND 
//  #01 //010   ----------------------------------------
Label_01A4F618:
 BYTE   W12
 BYTE   N11  Dn3  v076
 BYTE   N11  Dn4
 BYTE   W12
 BYTE   Cs3  v072
 BYTE   N11  Cs4
 BYTE   W12
 BYTE   N22  Bn2
 BYTE   N22  Bn3
 BYTE   W24
 BYTE   N11  An3  v080
 BYTE   N11  An4
 BYTE   W12
 BYTE   N68  Fs3
 BYTE   N68  Fs4
 BYTE   W24
 BYTE   PEND 
//  #01 //011   ----------------------------------------
 BYTE   W48
 BYTE   N44  Fs2
 BYTE   N44  Cs3
 BYTE   N44  Fs3
 BYTE   W48
//  #01 //012   ----------------------------------------
 BYTE   W14
Label_01A4F63E:
 BYTE   W10
 BYTE   N11  Ds3  v080
 BYTE   W12
 BYTE   N11
 BYTE   W12
 BYTE   N11
 BYTE   W12
 BYTE   En3
 BYTE   W12
 BYTE   Fs3
 BYTE   W12
 BYTE   N32
 BYTE   W12
//  #01 //013   ----------------------------------------
 BYTE   W24
 BYTE   N22  Gs3
 BYTE   W24
 BYTE   Fs3
 BYTE   W24
 BYTE   Bn2
 BYTE   W24
//  #01 //014   ----------------------------------------
 BYTE   As2
 BYTE   N22  Cs3
 BYTE   W24
 BYTE   N11  Bn2
 BYTE   W12
 BYTE   N22  As2
 BYTE   N22  Cs3
 BYTE   W24
 BYTE   Fs3
 BYTE   W24
 BYTE   Bn2
 BYTE   N22  Ds3
 BYTE   W12
//  #01 //015   ----------------------------------------
 BYTE   W12
 BYTE   N11  En3
 BYTE   W12
 BYTE   Ds3
 BYTE   W12
 BYTE   Bn2
 BYTE   W24
 BYTE   N11
 BYTE   W12
 BYTE   Cs3
 BYTE   W12
 BYTE   Bn2
 BYTE   N11  Ds3
 BYTE   W12
//  #01 //016   ----------------------------------------
 BYTE   W12
 BYTE   Bn2
 BYTE   W12
 BYTE   Cs3
 BYTE   W12
 BYTE   Bn2
 BYTE   N11  Ds3
 BYTE   W24
 BYTE   N11
 BYTE   W12
 BYTE   Fs3
 BYTE   W12
 BYTE   N32  Cs3
 BYTE   N32  En3
 BYTE   W12
//  #01 //017   ----------------------------------------
 BYTE   W24
 BYTE   N22  Ds3
 BYTE   W24
 BYTE   Cs3
 BYTE   W24
 BYTE   Bn2
 BYTE   W24
//  #01 //018   ----------------------------------------
 BYTE   As2
 BYTE   W24
 BYTE   N11  Bn2
 BYTE   W12
 BYTE   N22  As2
 BYTE   N22  Cs3
 BYTE   W24
 BYTE   En3
 BYTE   N22  Gs3
 BYTE   W24
 BYTE   N56  An2
 BYTE   N56  Cs3
 BYTE   N56  Fs3
 BYTE   W12
//  #01 //019   ----------------------------------------
 BYTE   W60
 BYTE   N11  Ds3
 BYTE   W12
 BYTE   En3
 BYTE   W12
 BYTE   Fs3
 BYTE   W12
//  #01 //020   ----------------------------------------
 BYTE   N22  Bn2
 BYTE   N22  Gs3
 BYTE   W36
 BYTE   N11  Ds3
 BYTE   W12
 BYTE   N22  Cs3
 BYTE   W24
 BYTE   N11  Bn2
 BYTE   W12
 BYTE   N22  As2
 BYTE   N22  Ds3
 BYTE   W12
//  #01 //021   ----------------------------------------
 BYTE   W12
 BYTE   N32  Cs3
 BYTE   W48
 BYTE   N11
 BYTE   W12
 BYTE   Ds3
 BYTE   W12
 BYTE   En3
 BYTE   W12
//  #01 //022   ----------------------------------------
 BYTE   N22  Bn2
 BYTE   N22  Fs3
 BYTE   W24
 BYTE   N11  Ds3
 BYTE   W12
 BYTE   N22  Bn2
 BYTE   N22  Cs3
 BYTE   W24
 BYTE   Bn2
 BYTE   W24
 BYTE   Ds3
 BYTE   N22  Gs3
 BYTE   W12
//  #01 //023   ----------------------------------------
 BYTE   W12
 BYTE   N11  Ds3
 BYTE   W12
 BYTE   Cs3
 BYTE   W12
 BYTE   N32  Bn2
 BYTE   W60
//  #01 //024   ----------------------------------------
 BYTE   N22
 BYTE   N22  En3
 BYTE   W24
 BYTE   Ds3
 BYTE   W24
 BYTE   Bn2
 BYTE   W24
 BYTE   N11  Gs2
 BYTE   W12
 BYTE   N22  Bn2
 BYTE   N22  En3
 BYTE   W12
//  #01 //025   ----------------------------------------
 BYTE   W12
 BYTE   Ds3
 BYTE   W24
 BYTE   Bn2
 BYTE   W24
 BYTE   N11  Cs3
 BYTE   N11  Cs4
 BYTE   W12
 BYTE   Dn3
 BYTE   N11  Dn4
 BYTE   W12
 BYTE   N32  An3
 BYTE   N32  An4
 BYTE   W12
//  #01 //026   ----------------------------------------
 BYTE   W24
 BYTE   N22  Gn3
 BYTE   N22  Gn4
 BYTE   W24
 BYTE   N11  Bn2
 BYTE   N11  Bn3
 BYTE   W12
 BYTE   N22  Dn3
 BYTE   N22  Dn4
 BYTE   W24
 BYTE   Fs3
 BYTE   N22  Fs4
 BYTE   W12
//  #01 //027   ----------------------------------------
 BYTE   W12
 BYTE   N11  Gn3
 BYTE   N11  Gn4
 BYTE   W12
 BYTE   Fs3
 BYTE   N11  Fs4
 BYTE   W12
 BYTE   N56  En3
 BYTE   N56  En4
 BYTE   W60
//  #01 //028   ----------------------------------------
 BYTE   W24
 BYTE   N11  Ds4  v072
 BYTE   W12
 BYTE   N11
 BYTE   W12
 BYTE   N11
 BYTE   W12
 BYTE   En4
 BYTE   W12
 BYTE   Fs4
 BYTE   W12
 BYTE   N32
 BYTE   W12
//  #01 //029   ----------------------------------------
 BYTE   W24
 BYTE   N22  Gs4
 BYTE   W24
 BYTE   Fs4
 BYTE   W24
 BYTE   Bn3
 BYTE   W24
//  #01 //030   ----------------------------------------
 BYTE   Cs4
 BYTE   W24
 BYTE   N11  Bn3
 BYTE   W12
 BYTE   N22  Cs4
 BYTE   W24
 BYTE   Fs4
 BYTE   W24
 BYTE   N56  Ds4
 BYTE   W12
//  #01 //031   ----------------------------------------
 BYTE   W60
 BYTE   N11  Bn3
 BYTE   W12
 BYTE   Cs4
 BYTE   W12
 BYTE   Ds4
 BYTE   W12
//  #01 //032   ----------------------------------------
 BYTE   W12
 BYTE   Bn3
 BYTE   W12
 BYTE   Cs4
 BYTE   W12
 BYTE   Ds4
 BYTE   W24
 BYTE   N11
 BYTE   W12
 BYTE   Fs4
 BYTE   W12
 BYTE   N32  En4
 BYTE   W12
//  #01 //033   ----------------------------------------
 BYTE   W24
 BYTE   N22  Ds4
 BYTE   W24
 BYTE   Cs4
 BYTE   W24
 BYTE   Bn3
 BYTE   W24
//  #01 //034   ----------------------------------------
 BYTE   As3
 BYTE   W24
 BYTE   N11  Bn3
 BYTE   W12
 BYTE   N22  Cs4
 BYTE   W24
 BYTE   Gs4
 BYTE   W24
 BYTE   N56  Fs4
 BYTE   W12
//  #01 //035   ----------------------------------------
 BYTE   W60
 BYTE   N11  Ds4
 BYTE   N11  Fs4
 BYTE   W12
 BYTE   Ds4
 BYTE   N11  Gs4
 BYTE   W12
 BYTE   N32  En4
 BYTE   N32  Bn4
 BYTE   W12
//  #01 //036   ----------------------------------------
 BYTE   W36
 BYTE   N11  Bn3
 BYTE   N11  Ds4
 BYTE   W12
 BYTE   N22  Bn3
 BYTE   N22  Cs4
 BYTE   W24
 BYTE   N11  Bn3
 BYTE   W12
 BYTE   N22
 BYTE   N22  Ds4
 BYTE   W12
//  #01 //037   ----------------------------------------
 BYTE   W12
 BYTE   N32  Bn3
 BYTE   N32  Cs4
 BYTE   W48
 BYTE   N11  Bn3
 BYTE   N11  Cs4
 BYTE   W12
 BYTE   Bn3
 BYTE   N11  Ds4
 BYTE   W12
 BYTE   Bn3
 BYTE   N11  En4
 BYTE   W12
//  #01 //038   ----------------------------------------
 BYTE   N22  As3
 BYTE   N22  Fs4
 BYTE   W24
 BYTE   N11  As3
 BYTE   N11  Ds4
 BYTE   W12
 BYTE   N22  As3
 BYTE   N22  Cs4
 BYTE   W24
 BYTE   Bn3
 BYTE   W24
 BYTE   As3
 BYTE   N22  As4
 BYTE   W12
//  #01 //039   ----------------------------------------
 BYTE   W12
 BYTE   N11  Bn3
 BYTE   N11  Bn4
 BYTE   W12
 BYTE   As3
 BYTE   N11  As4
 BYTE   W12
 BYTE   N32  Gs3
 BYTE   N32  Gs4
 BYTE   W36
 BYTE   N11  Cs4
 BYTE   W12
 BYTE   Ds4
 BYTE   W12
//  #01 //040   ----------------------------------------
 BYTE   N32  Cs4
 BYTE   N32  En4
 BYTE   W36
 BYTE   N11  Cs4
 BYTE   N11  Ds4
 BYTE   W12
 BYTE   N32  Cs4
 BYTE   N32  En4
 BYTE   W36
 BYTE   N11  Cs4
 BYTE   N11  Ds4
 BYTE   W12
//  #01 //041   ----------------------------------------
 BYTE   Cs4
 BYTE   N11  En4
 BYTE   W12
 BYTE   Cs4
 BYTE   N11  Ds4
 BYTE   W24
 BYTE   N22  Bn3
 BYTE   W24
 BYTE   N07  Cs3  v092
 BYTE   N07  Cs4
 BYTE   W12
 BYTE   N11  Dn3  v072
 BYTE   N11  Dn4
 BYTE   W12
 BYTE   N32  An3  v080
 BYTE   N32  An4
 BYTE   W12
//  #01 //042   ----------------------------------------
 BYTE   W24
 BYTE   N22  Gn3
 BYTE   N22  Gn4
 BYTE   W24
 BYTE   N11  Bn2
 BYTE   N11  Bn3
 BYTE   W12
 BYTE   N22  Dn3  v092
 BYTE   N22  Dn4
 BYTE   W24
 BYTE   N32  Fs3
 BYTE   N32  Fs4
 BYTE   W12
//  #01 //043   ----------------------------------------
 BYTE   W24
 BYTE   N11  Gn3
 BYTE   N11  Gn4
 BYTE   W12
 BYTE   N56  En3
 BYTE   N56  En4
 BYTE   W60
//  #01 //044   ----------------------------------------
 BYTE   W24
 BYTE   N22  Bn3  v068
 BYTE   W24
 BYTE   An4
 BYTE   W24
 BYTE   Gn4
 BYTE   W24
//  #01 //045   ----------------------------------------
 BYTE   Fs4
 BYTE   W24
 BYTE   N11  Gn4
 BYTE   W12
 BYTE   N56  En4
 BYTE   W60
//  #01 //046   ----------------------------------------
 BYTE   W24
 BYTE   N22  Bn4
 BYTE   W24
 BYTE   An4
 BYTE   W24
 BYTE   Cs4
 BYTE   W24
//  #01 //047   ----------------------------------------
 BYTE   Gs4
 BYTE   W24
 BYTE   N11  An4
 BYTE   W12
 BYTE   N56  Fs4
 BYTE   W60
//  #01 //048   ----------------------------------------
 BYTE   W24
 BYTE   N22  Cs5  v060
 BYTE   W24
 BYTE   N17  Bn4  v064
 BYTE   W18
 BYTE   As4
 BYTE   W18
 BYTE   N11  Bn4  v068
 BYTE   W12
//  #01 //049   ----------------------------------------
 BYTE   N32  Cs5
 BYTE   W36
 BYTE   N11  Dn5  v072
 BYTE   W12
 BYTE   N22  Bn4  v076
 BYTE   W24
 BYTE   N11  Cs5
 BYTE   W12
 BYTE   TIE  An4  v080
 BYTE   W12
//  #01 //050   ----------------------------------------
 BYTE   W90
 BYTE   EOT
 BYTE   W06
//  #01 //051   ----------------------------------------
 BYTE   N68  Fn3  v068
 BYTE   W04
 BYTE   N66  An3  v064
 BYTE   W04
 BYTE   N60  Cs4
 BYTE   W05
 BYTE   N56  En4
 BYTE   W56
 BYTE   W03
 BYTE   N11  Fs4  v080
 BYTE   W12
 BYTE   Gn4
 BYTE   W12
//  #01 //052   ----------------------------------------
 BYTE   N44  Dn4
 BYTE   N44  An4
 BYTE   W48
 BYTE   Dn4
 BYTE   N44  Dn5
 BYTE   W48
//  #01 //053   ----------------------------------------
 BYTE   N22  Cs4
 BYTE   N22  Cs5
 BYTE   W24
 BYTE   Dn4
 BYTE   N22  Dn5
 BYTE   W24
 BYTE   Cs4
 BYTE   N22  Cs5
 BYTE   W24
 BYTE   Bn3
 BYTE   N22  Bn4
 BYTE   W24
//  #01 //054   ----------------------------------------
 BYTE   An3
 BYTE   N22  An4
 BYTE   W24
 BYTE   Gn3
 BYTE   N22  Gn4
 BYTE   W24
 BYTE   Fs3
 BYTE   N22  Fs4
 BYTE   W24
 BYTE   Gn3
 BYTE   N22  Gn4
 BYTE   W24
//  #01 //055   ----------------------------------------
 BYTE   Fs3
 BYTE   N22  Fs4
 BYTE   W24
 BYTE   N11  Gn3
 BYTE   N11  Gn4
 BYTE   W12
 BYTE   N56  En3
 BYTE   N56  En4
 BYTE   W60
//  #01 //056   ----------------------------------------
 BYTE   N44  An3
 BYTE   N44  An4
 BYTE   W48
 BYTE   Dn4
 BYTE   N44  Dn5
 BYTE   W48
//  #01 //057   ----------------------------------------
 BYTE   N22  En4
 BYTE   N22  En5
 BYTE   W24
 BYTE   N11  Dn4
 BYTE   N11  Dn5
 BYTE   W12
 BYTE   N22  Cs4
 BYTE   N22  Cs5
 BYTE   W24
 BYTE   N11  Dn4
 BYTE   N11  Dn5
 BYTE   W24
 BYTE   N32  An3
 BYTE   N32  An4
 BYTE   W12
//  #01 //058   ----------------------------------------
 BYTE   W24
 BYTE   N22  Gn3
 BYTE   N22  Gn4
 BYTE   W24
 BYTE   Fs3
 BYTE   N22  Fs4
 BYTE   W24
 BYTE   Gn3
 BYTE   N22  Gn4
 BYTE   W24
//  #01 //059   ----------------------------------------
 BYTE   An3
 BYTE   N22  An4
 BYTE   W24
 BYTE   N11  Dn4
 BYTE   N11  Fs4
 BYTE   W12
 BYTE   N22  En4
 BYTE   N22  Gn4
 BYTE   W24
 BYTE   Fs4
 BYTE   N22  An4
 BYTE   W24
 BYTE   N56  Bn3
 BYTE   N56  Gn4
 BYTE   N56  Bn4
 BYTE   W12
//  #01 //060   ----------------------------------------
 BYTE   W48
 BYTE   N17  Bn3
 BYTE   N17  Gn4
 BYTE   N17  Bn4
 BYTE   W18
 BYTE   Cs4
 BYTE   N17  Gn4
 BYTE   N17  Cs5
 BYTE   W18
 BYTE   N11  Dn4
 BYTE   N11  Gn4
 BYTE   N11  Dn5
 BYTE   W12
//  #01 //061   ----------------------------------------
 BYTE   N68  Cs4
 BYTE   N68  Gn4
 BYTE   N68  Cs5
 BYTE   W72
 BYTE   N22  Bn3
 BYTE   N22  Bn4
 BYTE   W24
//  #01 //062   ----------------------------------------
 BYTE   An3
 BYTE   N22  An4
 BYTE   W24
 BYTE   N11  Fs3
 BYTE   N11  Fs4
 BYTE   W12
 BYTE   An3
 BYTE   N11  An4
 BYTE   W24
 BYTE   Cs4
 BYTE   N11  Cs5
 BYTE   W24
 BYTE   N22  Bn3
 BYTE   N22  Bn4
 BYTE   W12
//  #01 //063   ----------------------------------------
 BYTE   W12
 BYTE   N11  Bn3
 BYTE   N11  Fs4
 BYTE   W12
 BYTE   Bn3
 BYTE   N11  En4
 BYTE   W12
 BYTE   N32  Bn3
 BYTE   N32  Ds4
 BYTE   W36
 BYTE   N22  Bn3
 BYTE   W24
//  #01 //064   ----------------------------------------
 BYTE   N22
 BYTE   N22  Gn4
 BYTE   W24
 BYTE   Bn3
 BYTE   N22  Fs4
 BYTE   W24
 BYTE   N11  Bn3
 BYTE   N11  En4
 BYTE   W12
 BYTE   Bn3
 BYTE   N11  Dn4
 BYTE   W24
 BYTE   N32  An4
 BYTE   W12
//  #01 //065   ----------------------------------------
 BYTE   W36
 BYTE   N11  Fs4
 BYTE   W12
 BYTE   N22  En4
 BYTE   W24
 BYTE   N11  Dn4
 BYTE   W12
 BYTE   N04  En4
 BYTE   W04
 BYTE   N07  Fs4
 BYTE   W08
//  #01 //066   ----------------------------------------
 BYTE   N22  Fs3  v068
 BYTE   N22  Bn3
 BYTE   N22  Fs4
 BYTE   W36
 BYTE   N11  Fs3
 BYTE   W12
 BYTE   Bn3
 BYTE   N11  Ds4
 BYTE   W12
 BYTE   N22  Cs4
 BYTE   N22  En4
 BYTE   W24
 BYTE   N32  Ds4
 BYTE   N32  Fs4
 BYTE   W12
//  #01 //067   ----------------------------------------
 BYTE   PATT
  POIN2 Label_01A4F5A4
//  #01 //068   ----------------------------------------
 BYTE   PATT
  POIN2 Label_01A4F5BD
//  #01 //069   ----------------------------------------
 BYTE   PATT
  POIN2 Label_01A4F5D0
//  #01 //070   ----------------------------------------
 BYTE   N05  En3  v068
 BYTE   W06
 BYTE   Gs3
 BYTE   W06
 BYTE   Bn3
 BYTE   W06
 BYTE   En4
 BYTE   W06
 BYTE   N11  Bn3  v084
 BYTE   N11  Fs4
 BYTE   W12
 BYTE   Fs3  v068
 BYTE   W12
 BYTE   Bn3  v084
 BYTE   N11  Ds4
 BYTE   W12
 BYTE   N22  Cs4
 BYTE   N22  En4
 BYTE   W24
 BYTE   N32  Ds4
 BYTE   N32  Fs4
 BYTE   W12
//  #01 //071   ----------------------------------------
 BYTE   PATT
  POIN2 Label_01A4F605
//  #01 //072   ----------------------------------------
 BYTE   PATT
  POIN2 Label_01A4F618
//  #01 //073   ----------------------------------------
 BYTE   W48
 BYTE   N36  Fs3  v080
 BYTE   W12
 BYTE   N11  As2  v076
 BYTE   W12
 BYTE   Cs3  v072
 BYTE   W12
 BYTE   Fs3  v064
 BYTE   W12
//  #01 //074   ----------------------------------------
 BYTE   GoTo
  POIN2 Label_01A4F63E
//  #01 //075   ----------------------------------------
 BYTE   N22  Gs3  v060
 BYTE   N22  En4
 BYTE   W96
//  #01 //076   ----------------------------------------
 BYTE   W96
//  #01 //077   ----------------------------------------
 BYTE   W96
//  #01 //078   ----------------------------------------
 BYTE   W96
//  #01 //079   ----------------------------------------
 BYTE   W96
//  #01 //080   ----------------------------------------
 BYTE   W96
//  #01 //081   ----------------------------------------
 BYTE   W96
//  #01 //082   ----------------------------------------
 BYTE   W96
//  #01 //083   ----------------------------------------
 BYTE   W96
//  #01 //084   ----------------------------------------
 BYTE   W96
//  #01 //085   ----------------------------------------
 BYTE   W96
//  #01 //086   ----------------------------------------
 BYTE   W96
//  #01 //087   ----------------------------------------
 BYTE   W96
//  #01 //088   ----------------------------------------
 BYTE   W96
//  #01 //089   ----------------------------------------
 BYTE   W96
//  #01 //090   ----------------------------------------
 BYTE   W96
//  #01 //091   ----------------------------------------
 BYTE   W96
//  #01 //092   ----------------------------------------
 BYTE   W96
//  #01 //093   ----------------------------------------
 BYTE   W96
//  #01 //094   ----------------------------------------
 BYTE   W96
//  #01 //095   ----------------------------------------
 BYTE   W96
//  #01 //096   ----------------------------------------
 BYTE   W96
//  #01 //097   ----------------------------------------
 BYTE   W96
//  #01 //098   ----------------------------------------
 BYTE   W96
//  #01 //099   ----------------------------------------
 BYTE   W96
//  #01 //100   ----------------------------------------
 BYTE   W96
//  #01 //101   ----------------------------------------
 BYTE   W96
//  #01 //102   ----------------------------------------
 BYTE   W96
//  #01 //103   ----------------------------------------
 BYTE   W96
//  #01 //104   ----------------------------------------
 BYTE   W96
//  #01 //105   ----------------------------------------
 BYTE   W96
//  #01 //106   ----------------------------------------
 BYTE   W96
//  #01 //107   ----------------------------------------
 BYTE   W96
//  #01 //108   ----------------------------------------
 BYTE   W96
//  #01 //109   ----------------------------------------
 BYTE   W96
//  #01 //110   ----------------------------------------
 BYTE   W96
//  #01 //111   ----------------------------------------
 BYTE   W96
//  #01 //112   ----------------------------------------
 BYTE   W96
//  #01 //113   ----------------------------------------
 BYTE   W96
//  #01 //114   ----------------------------------------
 BYTE   W96
//  #01 //115   ----------------------------------------
 BYTE   W96
//  #01 //116   ----------------------------------------
 BYTE   W96
//  #01 //117   ----------------------------------------
 BYTE   W96
//  #01 //118   ----------------------------------------
 BYTE   W96
//  #01 //119   ----------------------------------------
 BYTE   W96
//  #01 //120   ----------------------------------------
 BYTE   W96
//  #01 //121   ----------------------------------------
 BYTE   W96
//  #01 //122   ----------------------------------------
 BYTE   W96
//  #01 //123   ----------------------------------------
 BYTE   W96
//  #01 //124   ----------------------------------------
 BYTE   W96
//  #01 //125   ----------------------------------------
 BYTE   W96
//  #01 //126   ----------------------------------------
 BYTE   W96
//  #01 //127   ----------------------------------------
 BYTE   W96
//  #01 //128   ----------------------------------------
 BYTE   W96
//  #01 //129   ----------------------------------------
 BYTE   W96
//  #01 //130   ----------------------------------------
 BYTE   W96
//  #01 //131   ----------------------------------------
 BYTE   W96
//  #01 //132   ----------------------------------------
 BYTE   W96
//  #01 //133   ----------------------------------------
 BYTE   W96
//  #01 //134   ----------------------------------------
 BYTE   W96
//  #01 //135   ----------------------------------------
 BYTE   W96
//  #01 //136   ----------------------------------------
 BYTE   W96
//  #01 //137   ----------------------------------------
 BYTE   W96
//  #01 //138   ----------------------------------------
 BYTE   W96
//  #01 //139   ----------------------------------------
 BYTE   W96
//  #01 //140   ----------------------------------------
 BYTE   W96
//  #01 //141   ----------------------------------------
 BYTE   W96
//  #01 //142   ----------------------------------------
 BYTE   W96
//  #01 //143   ----------------------------------------
 BYTE   W96
//  #01 //144   ----------------------------------------
 BYTE   W96
//  #01 //145   ----------------------------------------
 BYTE   W96
//  #01 //146   ----------------------------------------
 BYTE   W96
//  #01 //147   ----------------------------------------
 BYTE   W96
//  #01 //148   ----------------------------------------
 BYTE   W96
//  #01 //149   ----------------------------------------
 BYTE   W96
//  #01 //150   ----------------------------------------
 BYTE   W96
//  #01 //151   ----------------------------------------
 BYTE   W96
//  #01 //152   ----------------------------------------
 BYTE   W96
//  #01 //153   ----------------------------------------
 BYTE   W96
//  #01 //154   ----------------------------------------
 BYTE   W96
//  #01 //155   ----------------------------------------
 BYTE   W96
//  #01 //156   ----------------------------------------
 BYTE   W96
//  #01 //157   ----------------------------------------
 BYTE   W96
//  #01 //158   ----------------------------------------
 BYTE   W96
//  #01 //159   ----------------------------------------
 BYTE   W96
//  #01 //160   ----------------------------------------
 BYTE   W96
//  #01 //161   ----------------------------------------
 BYTE   W96
//  #01 //162   ----------------------------------------
 BYTE   W96
//  #01 //163   ----------------------------------------
 BYTE   W96
//  #01 //164   ----------------------------------------
 BYTE   W96
//  #01 //165   ----------------------------------------
 BYTE   W96
//  #01 //166   ----------------------------------------
 BYTE   W96
//  #01 //167   ----------------------------------------
 BYTE   TEMPO   150*Identity_tbs/2
 BYTE   W72
 BYTE   TEMPO   120*Identity_tbs/2
 BYTE   W12
 BYTE   TEMPO   78*Identity_tbs/2
 BYTE   FINE

//**************** Track 2 (Midi-Chn.1) ****************//

Identity_002:
//  #02 //000   ----------------------------------------
 BYTE   KEYSH   Identity_key+0
 BYTE   VOICE   104
 BYTE   MODT 0
 BYTE   LFOS 44
 BYTE   VOL   40*Identity_mvl/mxv
 BYTE   N22  Cs2  v080
 BYTE   N22  En2
 BYTE   N22  Gs2
 BYTE   N22  Bn2
 BYTE   W24
 BYTE   N11  Cs2  v068
 BYTE   W12
 BYTE   Cs3
 BYTE   W12
 BYTE   Cs2
 BYTE   W12
 BYTE   Cs3
 BYTE   W12
 BYTE   Cs2
 BYTE   W12
 BYTE   Cs3
 BYTE   W12
//  #02 //001   ----------------------------------------
 BYTE   N22  Ds2  v080
 BYTE   N22  Fs2
 BYTE   N22  Bn2
 BYTE   N22  Ds3
 BYTE   W24
 BYTE   N11  Ds2  v068
 BYTE   W12
 BYTE   Ds3
 BYTE   W12
 BYTE   Ds2
 BYTE   W12
 BYTE   Ds3
 BYTE   W12
 BYTE   Ds2
 BYTE   W12
 BYTE   Ds3
 BYTE   W12
//  #02 //002   ----------------------------------------
 BYTE   N22  En2  v080
 BYTE   N22  Gn2
 BYTE   N22  Bn2
 BYTE   N22  Dn3
 BYTE   W24
 BYTE   N11  En1  v044
 BYTE   N11  En2
 BYTE   W12
 BYTE   En1
 BYTE   N11  En2
 BYTE   W12
 BYTE   En1  v048
 BYTE   N11  En2
 BYTE   W12
 BYTE   En1  v056
 BYTE   N11  En2
 BYTE   W12
 BYTE   En1  v064
 BYTE   N11  En2
 BYTE   W12
 BYTE   En1  v072
 BYTE   N11  En2
 BYTE   W12
//  #02 //003   ----------------------------------------
 BYTE   N44  Fs1  v080
 BYTE   N44  Fs2
 BYTE   W96
//  #02 //004   ----------------------------------------
Label_01A4FD94:
 BYTE   N23  En1  v068
 BYTE   N23  Bn1
 BYTE   N23  En2
 BYTE   W24
 BYTE   N11  En1
 BYTE   W12
 BYTE   En2
 BYTE   W12
 BYTE   En1
 BYTE   W12
 BYTE   En2
 BYTE   W12
 BYTE   En1
 BYTE   W12
 BYTE   En2
 BYTE   W12
 BYTE   PEND 
//  #02 //005   ----------------------------------------
Label_01A4FDAA:
 BYTE   N23  Ds1  v068
 BYTE   N23  Bn1
 BYTE   N23  Ds2
 BYTE   W24
 BYTE   N11  Ds1
 BYTE   W12
 BYTE   Ds2
 BYTE   W12
 BYTE   Ds1
 BYTE   W12
 BYTE   Ds2
 BYTE   W12
 BYTE   Ds1
 BYTE   W12
 BYTE   Ds2
 BYTE   W12
 BYTE   PEND 
//  #02 //006   ----------------------------------------
Label_01A4FDC0:
 BYTE   N23  Dn1  v068
 BYTE   N23  An1
 BYTE   N23  Dn2
 BYTE   W24
 BYTE   N11  Dn1
 BYTE   W12
 BYTE   Dn2
 BYTE   W12
 BYTE   Dn1
 BYTE   W12
 BYTE   Dn2
 BYTE   W12
 BYTE   Dn1
 BYTE   W12
 BYTE   Dn2
 BYTE   W12
 BYTE   PEND 
//  #02 //007   ----------------------------------------
Label_01A4FDD6:
 BYTE   N23  Cs1  v068
 BYTE   N23  Gs1
 BYTE   N23  Cs2
 BYTE   W24
 BYTE   N11  Cs1
 BYTE   W12
 BYTE   Cs2
 BYTE   W12
 BYTE   Fs1
 BYTE   W12
 BYTE   Fs2
 BYTE   W12
 BYTE   Fs1
 BYTE   W12
 BYTE   Fs2
 BYTE   W12
 BYTE   PEND 
//  #02 //008   ----------------------------------------
 BYTE   N07  En2  v088
 BYTE   W12
 BYTE   Bn1
 BYTE   W12
 BYTE   N22  En1  v084
 BYTE   N22  Bn1
 BYTE   N22  En2
 BYTE   W24
 BYTE   N11  En1
 BYTE   N11  En2
 BYTE   W12
 BYTE   En1
 BYTE   N11  En2
 BYTE   W24
 BYTE   N32  Ds1
 BYTE   N32  Bn1
 BYTE   N32  Ds2
 BYTE   W12
//  #02 //009   ----------------------------------------
Label_01A4FE0A:
 BYTE   W24
 BYTE   N11  Ds1  v076
 BYTE   W12
 BYTE   Ds2
 BYTE   W12
 BYTE   Ds1
 BYTE   W12
 BYTE   Ds2
 BYTE   W12
 BYTE   Ds1
 BYTE   W12
 BYTE   Ds2
 BYTE   W12
 BYTE   PEND 
//  #02 //010   ----------------------------------------
Label_01A4FE1A:
 BYTE   N23  Dn1  v076
 BYTE   N23  Dn2
 BYTE   W24
 BYTE   N05  An1  v072
 BYTE   W12
 BYTE   N23  Dn1
 BYTE   N23  Dn2
 BYTE   W24
 BYTE   N05  An1  v080
 BYTE   W12
 BYTE   N23  Cs1
 BYTE   N23  Gs1
 BYTE   N23  Cs2
 BYTE   W24
 BYTE   PEND 
//  #02 //011   ----------------------------------------
 BYTE   N11  Cs1
 BYTE   W12
 BYTE   Gs1
 BYTE   W12
 BYTE   Cs2
 BYTE   W12
 BYTE   En2
 BYTE   W12
 BYTE   W12
 BYTE   Cs2
 BYTE   W12
 BYTE   As1
 BYTE   W12
 BYTE   Fs1
 BYTE   W12
//  #02 //012   ----------------------------------------
 BYTE   N22  En1
 BYTE   N22  Bn1
 BYTE   N22  En2
 BYTE   W14
Label_01A4FE4C:
 BYTE   W44
 BYTE   W02
 BYTE   N11  En1  v068
 BYTE   N11  Gs1
 BYTE   N11  Bn1
 BYTE   W24
 BYTE   N32  Fs1
 BYTE   N32  As1
 BYTE   N32  Cs2
 BYTE   W12
//  #02 //013   ----------------------------------------
Label_01A4FE5D:
 BYTE   W48
 BYTE   N44  Fs1  v068
 BYTE   W04
 BYTE   N42  Cs2
 BYTE   W05
 BYTE   N36  Fs2
 BYTE   W36
 BYTE   W03
 BYTE   PEND 
//  #02 //014   ----------------------------------------
 BYTE   N22  Ds1
 BYTE   N22  As1
 BYTE   N22  Ds2
 BYTE   W60
 BYTE   N11  Ds1
 BYTE   N11  Fs1
 BYTE   N11  As1
 BYTE   W24
 BYTE   N32  Gs1
 BYTE   N32  Bn1
 BYTE   N32  Ds2
 BYTE   W12
//  #02 //015   ----------------------------------------
 BYTE   W48
 BYTE   N44  Gs1
 BYTE   W04
 BYTE   N42  Ds2
 BYTE   W05
 BYTE   N36  Gs2
 BYTE   W36
 BYTE   W03
//  #02 //016   ----------------------------------------
 BYTE   N22  En1
 BYTE   N22  Bn1
 BYTE   N22  En2
 BYTE   W60
 BYTE   N11  En1
 BYTE   N11  Gs1
 BYTE   N11  Bn1
 BYTE   W24
 BYTE   N32  Fs1
 BYTE   N32  As1
 BYTE   N32  Cs2
 BYTE   W12
//  #02 //017   ----------------------------------------
 BYTE   PATT
  POIN2 Label_01A4FE5D
//  #02 //018   ----------------------------------------
 BYTE   N22  Ds1  v068
 BYTE   N22  As1
 BYTE   N22  Ds2
 BYTE   W60
 BYTE   N32  Ds1
 BYTE   N32  Fs1
 BYTE   N32  As1
 BYTE   W36
//  #02 //019   ----------------------------------------
 BYTE   N11  Fs1
 BYTE   N11  An1
 BYTE   N11  Fs2
 BYTE   W12
 BYTE   Cs2
 BYTE   W12
 BYTE   Fs2
 BYTE   W12
 BYTE   N22  Bn1
 BYTE   N22  Ds2
 BYTE   N22  Bn2
 BYTE   W24
 BYTE   N11  Fs2
 BYTE   W12
 BYTE   N22  Bn2
 BYTE   W24
//  #02 //020   ----------------------------------------
 BYTE   En1
 BYTE   N22  Bn1
 BYTE   N22  En2
 BYTE   W60
 BYTE   N11  En1
 BYTE   N11  Gs1
 BYTE   N11  Bn1
 BYTE   W24
 BYTE   N32  Fs1
 BYTE   N32  As1
 BYTE   N32  Cs2
 BYTE   W12
//  #02 //021   ----------------------------------------
 BYTE   PATT
  POIN2 Label_01A4FE5D
//  #02 //022   ----------------------------------------
 BYTE   N22  Gs1  v068
 BYTE   N22  Ds2
 BYTE   N22  Gs2
 BYTE   W60
 BYTE   N11  Gs1
 BYTE   N11  Bn1
 BYTE   N11  Ds2
 BYTE   W24
 BYTE   N32  Cs1
 BYTE   N32  Fn1
 BYTE   N32  Gs1
 BYTE   W12
//  #02 //023   ----------------------------------------
 BYTE   W48
 BYTE   N44  Cs1
 BYTE   W04
 BYTE   N42  Gs1
 BYTE   W05
 BYTE   N36  Cs2
 BYTE   W36
 BYTE   W03
//  #02 //024   ----------------------------------------
 BYTE   N22  En1
 BYTE   N22  Bn1
 BYTE   N22  En2
 BYTE   W60
 BYTE   N11  En1
 BYTE   N11  Gs1
 BYTE   N11  Bn1
 BYTE   W24
 BYTE   N32  Cs1
 BYTE   N32  En1
 BYTE   N32  Gs1
 BYTE   W12
//  #02 //025   ----------------------------------------
 BYTE   W48
 BYTE   N44  Dn1
 BYTE   W04
 BYTE   N42  An1
 BYTE   W05
 BYTE   N36  Dn2
 BYTE   W36
 BYTE   W03
//  #02 //026   ----------------------------------------
 BYTE   N22  En1
 BYTE   N22  Bn1
 BYTE   N22  En2
 BYTE   W36
 BYTE   N11
 BYTE   W12
 BYTE   N32  Gn2
 BYTE   W36
 BYTE   An1
 BYTE   N32  En2
 BYTE   N32  An2
 BYTE   W12
//  #02 //027   ----------------------------------------
 BYTE   W48
 BYTE   N44  An1
 BYTE   W04
 BYTE   N42  En2
 BYTE   W05
 BYTE   N36  An2
 BYTE   W36
 BYTE   W03
//  #02 //028   ----------------------------------------
Label_01A4FF42:
 BYTE   N22  En2  v072
 BYTE   N22  Gs2
 BYTE   N90  Bn2
 BYTE   N90  Ds3
 BYTE   W24
 BYTE   N22  En2  v056
 BYTE   N22  Gs2
 BYTE   W24
 BYTE   En2
 BYTE   N22  Gs2
 BYTE   W24
 BYTE   En2
 BYTE   N22  Gs2
 BYTE   W24
 BYTE   PEND 
//  #02 //029   ----------------------------------------
Label_01A4FF5B:
 BYTE   N22  Fs2  v072
 BYTE   N22  As2
 BYTE   N90  Cs3
 BYTE   N90  Fs3
 BYTE   W24
 BYTE   N22  Fs2  v056
 BYTE   N22  As2
 BYTE   W24
 BYTE   Fs2
 BYTE   N22  As2
 BYTE   W24
 BYTE   Fs2
 BYTE   N22  As2
 BYTE   W24
 BYTE   PEND 
//  #02 //030   ----------------------------------------
Label_01A4FF74:
 BYTE   N22  Ds2  v072
 BYTE   N22  Fs2
 BYTE   N90  As2
 BYTE   N90  Cs3
 BYTE   W24
 BYTE   N22  Ds2  v056
 BYTE   N22  Fs2
 BYTE   W24
 BYTE   Ds2
 BYTE   N22  Fs2
 BYTE   W24
 BYTE   Ds2
 BYTE   N22  Fs2
 BYTE   W24
 BYTE   PEND 
//  #02 //031   ----------------------------------------
 BYTE   Gs2  v072
 BYTE   N90  Bn2
 BYTE   N90  Ds3
 BYTE   W24
 BYTE   N22  Gs2  v056
 BYTE   W24
 BYTE   N22
 BYTE   W24
 BYTE   N22
 BYTE   W24
//  #02 //032   ----------------------------------------
 BYTE   PATT
  POIN2 Label_01A4FF42
//  #02 //033   ----------------------------------------
 BYTE   PATT
  POIN2 Label_01A4FF5B
//  #02 //034   ----------------------------------------
 BYTE   PATT
  POIN2 Label_01A4FF74
//  #02 //035   ----------------------------------------
 BYTE   N22  Ds2  v072
 BYTE   N22  Fs2
 BYTE   N44  An2
 BYTE   N44  Cs3
 BYTE   W24
 BYTE   N22  Ds2  v056
 BYTE   N22  Fs2
 BYTE   W24
 BYTE   Bn1  v072
 BYTE   N44  Ds2
 BYTE   N44  Fs2
 BYTE   W24
 BYTE   N22  Bn1  v056
 BYTE   W24
//  #02 //036   ----------------------------------------
 BYTE   En1  v072
 BYTE   N90  Gs1
 BYTE   N90  Bn1
 BYTE   N32  En2
 BYTE   W24
 BYTE   N22  En1  v056
 BYTE   W12
 BYTE   N56  En2  v072
 BYTE   W12
 BYTE   N22  En1  v056
 BYTE   W24
 BYTE   N22
 BYTE   W24
//  #02 //037   ----------------------------------------
 BYTE   Fs1  v072
 BYTE   N90  As1
 BYTE   N90  Cs2
 BYTE   N32  Fs2
 BYTE   W24
 BYTE   N22  Fs1  v056
 BYTE   W12
 BYTE   N56  Fs2  v072
 BYTE   W12
 BYTE   N22  Fs1  v056
 BYTE   W24
 BYTE   N22
 BYTE   W24
//  #02 //038   ----------------------------------------
 BYTE   Ds1  v072
 BYTE   N90  Fs1
 BYTE   N90  As1
 BYTE   N32  Ds2
 BYTE   W24
 BYTE   N22  Ds1  v056
 BYTE   W12
 BYTE   N56  Ds2  v072
 BYTE   W12
 BYTE   N22  Ds1  v056
 BYTE   W24
 BYTE   N22
 BYTE   W24
//  #02 //039   ----------------------------------------
 BYTE   Cs1  v072
 BYTE   N90  Fn1
 BYTE   N90  Gs1
 BYTE   N32  Cs2
 BYTE   W24
 BYTE   N22  Cs1
 BYTE   W12
 BYTE   N32  Cs2
 BYTE   W12
 BYTE   N22  Cs1
 BYTE   W24
 BYTE   N22
 BYTE   N22  Cs2
 BYTE   W24
//  #02 //040   ----------------------------------------
 BYTE   Cs1
 BYTE   N22  Gs1
 BYTE   N22  Cs2
 BYTE   W24
 BYTE   N11  Cs1
 BYTE   W12
 BYTE   Cs2
 BYTE   W12
 BYTE   Cs1
 BYTE   W12
 BYTE   Cs2
 BYTE   W12
 BYTE   Cs1
 BYTE   W12
 BYTE   Cs2
 BYTE   W12
//  #02 //041   ----------------------------------------
 BYTE   N22  Cs1
 BYTE   N22  Gs1
 BYTE   N22  Cs2
 BYTE   W24
 BYTE   N11  Cs1
 BYTE   W12
 BYTE   Cs2
 BYTE   W12
 BYTE   Cs1
 BYTE   W12
 BYTE   N16  Dn1  v092
 BYTE   N16  Dn2
 BYTE   W24
 BYTE   N32  Dn1  v100
 BYTE   N32  An1
 BYTE   N32  Dn2
 BYTE   W12
//  #02 //042   ----------------------------------------
 BYTE   W24
 BYTE   N11  Dn1  v080
 BYTE   W12
 BYTE   Dn2
 BYTE   W12
 BYTE   Gn1
 BYTE   N11  Gn2
 BYTE   W12
 BYTE   An1
 BYTE   N11  An2
 BYTE   W12
 BYTE   N05  Dn1  v108
 BYTE   N05  Dn2
 BYTE   W12
 BYTE   N32  An1  v080
 BYTE   N32  En2
 BYTE   N32  An2
 BYTE   W12
//  #02 //043   ----------------------------------------
 BYTE   W24
 BYTE   N11  An1
 BYTE   W12
 BYTE   An2
 BYTE   W12
 BYTE   An1
 BYTE   W12
 BYTE   An2
 BYTE   W12
 BYTE   An1
 BYTE   W12
 BYTE   An2
 BYTE   W12
//  #02 //044   ----------------------------------------
 BYTE   N22  Gn1  v056
 BYTE   W24
 BYTE   Dn3
 BYTE   W24
 BYTE   Gn3
 BYTE   W24
 BYTE   Dn3
 BYTE   W24
//  #02 //045   ----------------------------------------
 BYTE   An2
 BYTE   W24
 BYTE   En3
 BYTE   W24
 BYTE   Gn2
 BYTE   W24
 BYTE   En3
 BYTE   W24
//  #02 //046   ----------------------------------------
 BYTE   Fs2
 BYTE   W24
 BYTE   Cs3
 BYTE   W24
 BYTE   En3
 BYTE   W24
 BYTE   Cs3
 BYTE   W24
//  #02 //047   ----------------------------------------
 BYTE   Bn1
 BYTE   W24
 BYTE   Fs2
 BYTE   W24
 BYTE   Bn2
 BYTE   N22  Ds3
 BYTE   W24
 BYTE   Fs2
 BYTE   W24
//  #02 //048   ----------------------------------------
 BYTE   N11  Gn1
 BYTE   W12
 BYTE   Bn1  v060
 BYTE   W12
 BYTE   N22  En2
 BYTE   W24
 BYTE   Bn2  v064
 BYTE   N22  En3
 BYTE   W24
 BYTE   En2
 BYTE   W24
//  #02 //049   ----------------------------------------
 BYTE   N11  Cs2  v068
 BYTE   W12
 BYTE   Fn2  v072
 BYTE   W12
 BYTE   N22  Gs2
 BYTE   W24
 BYTE   Cs3  v076
 BYTE   N22  Fn3
 BYTE   W24
 BYTE   Gs2
 BYTE   W24
//  #02 //050   ----------------------------------------
 BYTE   N92  En1  v080
 BYTE   W04
 BYTE   N90  Gn1
 BYTE   W04
 BYTE   N84  Bn1
 BYTE   W05
 BYTE   N80  Dn2
 BYTE   W05
 BYTE   N76  Fs2
 BYTE   W04
 BYTE   N72  An2
 BYTE   W72
 BYTE   W02
//  #02 //051   ----------------------------------------
 BYTE   N92  Bn2  v088
 BYTE   N92  Dn3
 BYTE   W96
//  #02 //052   ----------------------------------------
Label_01A500DA:
 BYTE   N23  Fs1  v080
 BYTE   N23  Fs2
 BYTE   W24
 BYTE   N11  Dn2
 BYTE   W12
 BYTE   An2
 BYTE   W12
 BYTE   Dn3
 BYTE   W12
 BYTE   An2
 BYTE   W12
 BYTE   Fs2
 BYTE   W12
 BYTE   Dn2
 BYTE   W12
 BYTE   PEND 
//  #02 //053   ----------------------------------------
 BYTE   Fn1
 BYTE   W12
 BYTE   Fn2
 BYTE   W12
 BYTE   Gs2
 BYTE   W12
 BYTE   Cs3
 BYTE   W12
 BYTE   Fn3
 BYTE   W12
 BYTE   Cs3
 BYTE   W12
 BYTE   Gs2
 BYTE   W12
 BYTE   Fn2
 BYTE   W12
//  #02 //054   ----------------------------------------
 BYTE   En1
 BYTE   W12
 BYTE   En2
 BYTE   W12
 BYTE   Gn2
 BYTE   W12
 BYTE   Bn2
 BYTE   W12
 BYTE   En3
 BYTE   W12
 BYTE   Bn2
 BYTE   W12
 BYTE   Gn2
 BYTE   W12
 BYTE   En2
 BYTE   W12
//  #02 //055   ----------------------------------------
 BYTE   An1
 BYTE   N11  An2
 BYTE   W12
 BYTE   An1
 BYTE   N11  An2
 BYTE   W12
 BYTE   En2
 BYTE   W12
 BYTE   N32  An1
 BYTE   N32  An2
 BYTE   W36
 BYTE   N22  Gn1
 BYTE   N22  Gn2
 BYTE   W24
//  #02 //056   ----------------------------------------
 BYTE   PATT
  POIN2 Label_01A500DA
//  #02 //057   ----------------------------------------
 BYTE   N23  Bn1  v080
 BYTE   N23  Bn2
 BYTE   W24
 BYTE   N11  Gn2
 BYTE   N11  Bn2
 BYTE   W12
 BYTE   Dn3
 BYTE   W12
 BYTE   Dn2
 BYTE   W12
 BYTE   N11
 BYTE   N11  Gn2
 BYTE   N11  Bn2
 BYTE   N11  Dn3
 BYTE   W12
 BYTE   W12
 BYTE   N32  An1
 BYTE   N32  En2
 BYTE   N32  An2
 BYTE   W12
//  #02 //058   ----------------------------------------
 BYTE   W24
 BYTE   N11  An1
 BYTE   W12
 BYTE   En2
 BYTE   W12
 BYTE   An2
 BYTE   W12
 BYTE   En2
 BYTE   W12
 BYTE   Cs2
 BYTE   W12
 BYTE   An1
 BYTE   W12
//  #02 //059   ----------------------------------------
 BYTE   Dn1
 BYTE   N11  An1
 BYTE   N11  Dn2
 BYTE   W12
 BYTE   Dn1
 BYTE   N11  An1
 BYTE   N11  Dn2
 BYTE   W24
 BYTE   En1
 BYTE   N11  An1
 BYTE   N11  En2
 BYTE   W24
 BYTE   N22  Fs1
 BYTE   N22  An1
 BYTE   N22  Fs2
 BYTE   W36
//  #02 //060   ----------------------------------------
 BYTE   Gn1
 BYTE   N22  Gn2
 BYTE   W24
 BYTE   N11  Dn2
 BYTE   N11  Gn2
 BYTE   W12
 BYTE   Bn2
 BYTE   W12
 BYTE   Bn1
 BYTE   N11  Gn2
 BYTE   W12
 BYTE   Bn2
 BYTE   W12
 BYTE   Bn1
 BYTE   N11  Gn2
 BYTE   W12
 BYTE   Bn2
 BYTE   W12
//  #02 //061   ----------------------------------------
 BYTE   N22  Gs1
 BYTE   N22  Gs2
 BYTE   W24
 BYTE   N11  Bn1
 BYTE   N11  Gs2
 BYTE   W12
 BYTE   Bn2
 BYTE   W12
 BYTE   Bn1
 BYTE   N11  Dn2
 BYTE   W12
 BYTE   Gs2
 BYTE   W12
 BYTE   N22  Gs1
 BYTE   N22  Gs2
 BYTE   W24
//  #02 //062   ----------------------------------------
 BYTE   An1
 BYTE   N22  An2
 BYTE   W24
 BYTE   N11  An1
 BYTE   N11  An2
 BYTE   W12
 BYTE   Fs1
 BYTE   N11  Fs2
 BYTE   W24
 BYTE   N22  Fs1
 BYTE   N22  Fs2
 BYTE   W24
 BYTE   Bn1
 BYTE   N22  Bn2
 BYTE   W12
//  #02 //063   ----------------------------------------
 BYTE   W12
 BYTE   N11  Bn1
 BYTE   W12
 BYTE   Fs2
 BYTE   W12
 BYTE   Bn2
 BYTE   W12
 BYTE   Ds3
 BYTE   W12
 BYTE   Fs2
 BYTE   W12
 BYTE   N22  Bn1
 BYTE   W24
//  #02 //064   ----------------------------------------
 BYTE   N05  En1
 BYTE   W06
 BYTE   En2  v068
 BYTE   W06
 BYTE   En1
 BYTE   W06
 BYTE   En2
 BYTE   W06
 BYTE   Fs1  v080
 BYTE   W06
 BYTE   Fs2  v068
 BYTE   W06
 BYTE   Fs1
 BYTE   W06
 BYTE   Fs2
 BYTE   W06
 BYTE   N11  Gn1  v080
 BYTE   N11  Gn2
 BYTE   W12
 BYTE   Gs1
 BYTE   N11  Gs2
 BYTE   W24
 BYTE   N32  An1
 BYTE   N32  An2
 BYTE   W12
//  #02 //065   ----------------------------------------
 BYTE   W36
 BYTE   N11  Fs3
 BYTE   W12
 BYTE   N22  En3
 BYTE   W24
 BYTE   N11  Bn2
 BYTE   W12
 BYTE   Fs2
 BYTE   W12
//  #02 //066   ----------------------------------------
 BYTE   PATT
  POIN2 Label_01A4FD94
//  #02 //067   ----------------------------------------
 BYTE   PATT
  POIN2 Label_01A4FDAA
//  #02 //068   ----------------------------------------
 BYTE   PATT
  POIN2 Label_01A4FDC0
//  #02 //069   ----------------------------------------
 BYTE   PATT
  POIN2 Label_01A4FDD6
//  #02 //070   ----------------------------------------
 BYTE   N05  En1  v068
 BYTE   W06
 BYTE   Gs1
 BYTE   W06
 BYTE   Bn1
 BYTE   W06
 BYTE   En2
 BYTE   W06
 BYTE   N22  En1  v084
 BYTE   N22  Bn1
 BYTE   N22  En2
 BYTE   W24
 BYTE   N11  En1
 BYTE   N11  En2
 BYTE   W12
 BYTE   En1
 BYTE   N11  En2
 BYTE   W24
 BYTE   N32  Ds1
 BYTE   N32  Bn1
 BYTE   N32  Ds2
 BYTE   W12
//  #02 //071   ----------------------------------------
 BYTE   PATT
  POIN2 Label_01A4FE0A
//  #02 //072   ----------------------------------------
 BYTE   PATT
  POIN2 Label_01A4FE1A
//  #02 //073   ----------------------------------------
 BYTE   N11  Cs1  v080
 BYTE   W12
 BYTE   Gs1
 BYTE   W12
 BYTE   Cs2
 BYTE   W12
 BYTE   En2
 BYTE   W12
 BYTE   N44  Fs2
 BYTE   W48
//  #02 //074   ----------------------------------------
 BYTE   GoTo
  POIN2 Label_01A4FE4C
//  #02 //075   ----------------------------------------
 BYTE   N22  En2  v060
 BYTE   W24
 BYTE   W72
//  #02 //076   ----------------------------------------
 BYTE   W96
//  #02 //077   ----------------------------------------
 BYTE   W96
//  #02 //078   ----------------------------------------
 BYTE   W96
//  #02 //079   ----------------------------------------
 BYTE   W96
//  #02 //080   ----------------------------------------
 BYTE   W96
//  #02 //081   ----------------------------------------
 BYTE   W96
//  #02 //082   ----------------------------------------
 BYTE   W96
//  #02 //083   ----------------------------------------
 BYTE   W96
//  #02 //084   ----------------------------------------
 BYTE   W96
//  #02 //085   ----------------------------------------
 BYTE   W96
//  #02 //086   ----------------------------------------
 BYTE   W96
//  #02 //087   ----------------------------------------
 BYTE   W96
//  #02 //088   ----------------------------------------
 BYTE   W96
//  #02 //089   ----------------------------------------
 BYTE   W96
//  #02 //090   ----------------------------------------
 BYTE   W96
//  #02 //091   ----------------------------------------
 BYTE   W96
//  #02 //092   ----------------------------------------
 BYTE   W96
//  #02 //093   ----------------------------------------
 BYTE   W96
//  #02 //094   ----------------------------------------
 BYTE   W96
//  #02 //095   ----------------------------------------
 BYTE   W96
//  #02 //096   ----------------------------------------
 BYTE   W96
//  #02 //097   ----------------------------------------
 BYTE   W96
//  #02 //098   ----------------------------------------
 BYTE   W96
//  #02 //099   ----------------------------------------
 BYTE   W96
//  #02 //100   ----------------------------------------
 BYTE   W96
//  #02 //101   ----------------------------------------
 BYTE   W96
//  #02 //102   ----------------------------------------
 BYTE   W96
//  #02 //103   ----------------------------------------
 BYTE   W96
//  #02 //104   ----------------------------------------
 BYTE   W96
//  #02 //105   ----------------------------------------
 BYTE   W96
//  #02 //106   ----------------------------------------
 BYTE   W96
//  #02 //107   ----------------------------------------
 BYTE   W96
//  #02 //108   ----------------------------------------
 BYTE   W96
//  #02 //109   ----------------------------------------
 BYTE   W96
//  #02 //110   ----------------------------------------
 BYTE   W96
//  #02 //111   ----------------------------------------
 BYTE   W96
//  #02 //112   ----------------------------------------
 BYTE   W96
//  #02 //113   ----------------------------------------
 BYTE   W96
//  #02 //114   ----------------------------------------
 BYTE   W96
//  #02 //115   ----------------------------------------
 BYTE   W96
//  #02 //116   ----------------------------------------
 BYTE   W96
//  #02 //117   ----------------------------------------
 BYTE   W96
//  #02 //118   ----------------------------------------
 BYTE   W96
//  #02 //119   ----------------------------------------
 BYTE   W96
//  #02 //120   ----------------------------------------
 BYTE   W96
//  #02 //121   ----------------------------------------
 BYTE   W96
//  #02 //122   ----------------------------------------
 BYTE   W96
//  #02 //123   ----------------------------------------
 BYTE   W96
//  #02 //124   ----------------------------------------
 BYTE   W96
//  #02 //125   ----------------------------------------
 BYTE   W96
//  #02 //126   ----------------------------------------
 BYTE   W96
//  #02 //127   ----------------------------------------
 BYTE   W96
//  #02 //128   ----------------------------------------
 BYTE   W96
//  #02 //129   ----------------------------------------
 BYTE   W96
//  #02 //130   ----------------------------------------
 BYTE   W96
//  #02 //131   ----------------------------------------
 BYTE   W96
//  #02 //132   ----------------------------------------
 BYTE   W96
//  #02 //133   ----------------------------------------
 BYTE   W96
//  #02 //134   ----------------------------------------
 BYTE   W96
//  #02 //135   ----------------------------------------
 BYTE   W96
//  #02 //136   ----------------------------------------
 BYTE   W96
//  #02 //137   ----------------------------------------
 BYTE   W96
//  #02 //138   ----------------------------------------
 BYTE   W96
//  #02 //139   ----------------------------------------
 BYTE   W96
//  #02 //140   ----------------------------------------
 BYTE   W96
//  #02 //141   ----------------------------------------
 BYTE   W96
//  #02 //142   ----------------------------------------
 BYTE   W96
//  #02 //143   ----------------------------------------
 BYTE   W96
//  #02 //144   ----------------------------------------
 BYTE   W96
//  #02 //145   ----------------------------------------
 BYTE   W96
//  #02 //146   ----------------------------------------
 BYTE   W96
//  #02 //147   ----------------------------------------
 BYTE   W96
//  #02 //148   ----------------------------------------
 BYTE   W96
//  #02 //149   ----------------------------------------
 BYTE   W96
//  #02 //150   ----------------------------------------
 BYTE   W96
//  #02 //151   ----------------------------------------
 BYTE   W96
//  #02 //152   ----------------------------------------
 BYTE   W96
//  #02 //153   ----------------------------------------
 BYTE   W96
//  #02 //154   ----------------------------------------
 BYTE   W96
//  #02 //155   ----------------------------------------
 BYTE   W96
//  #02 //156   ----------------------------------------
 BYTE   W96
//  #02 //157   ----------------------------------------
 BYTE   W96
//  #02 //158   ----------------------------------------
 BYTE   W96
//  #02 //159   ----------------------------------------
 BYTE   W96
//  #02 //160   ----------------------------------------
 BYTE   W96
//  #02 //161   ----------------------------------------
 BYTE   W96
//  #02 //162   ----------------------------------------
 BYTE   W96
//  #02 //163   ----------------------------------------
 BYTE   W96
//  #02 //164   ----------------------------------------
 BYTE   W96
//  #02 //165   ----------------------------------------
 BYTE   W96
//  #02 //166   ----------------------------------------
 BYTE   W96
//  #02 //167   ----------------------------------------
 BYTE   W84
 BYTE   FINE

//**************** Track 3 (Midi-Chn.2) ****************//

Identity_003:
//  #03 //000   ----------------------------------------
 BYTE   KEYSH   Identity_key+0
 BYTE   VOICE   48
 BYTE   MODT 0
 BYTE   LFOS 44
 BYTE   VOL   33*Identity_mvl/mxv
 BYTE   PAN   c_v+0
 BYTE   N22  Bn4  v064
 BYTE   W24
 BYTE   N11  Fs4
 BYTE   W12
 BYTE   Fs4  v080
 BYTE   W12
 BYTE   N22  Bn4  v064
 BYTE   N11  Ds5  v080
 BYTE   W12
 BYTE   N23  En5
 BYTE   W12
 BYTE   N22  Fs4  v064
 BYTE   W12
 BYTE   N44  Fs5  v080
 BYTE   W12
//  #03 //001   ----------------------------------------
 BYTE   N22  Bn4  v064
 BYTE   W24
 BYTE   N11  Fs4
 BYTE   W12
 BYTE   Bn4
 BYTE   N11  Bn5  v092
 BYTE   W12
 BYTE   N22  Bn4  v064
 BYTE   N23  As5  v092
 BYTE   W24
 BYTE   N11  Bn4  v064
 BYTE   N11  Bn5  v092
 BYTE   W12
 BYTE   N22  Fs4  v064
 BYTE   N32  An4  v080
 BYTE   N32  Dn5
 BYTE   N32  Fs5  v092
 BYTE   W12
//  #03 //002   ----------------------------------------
 BYTE   W12
 BYTE   N11  En4  v080
 BYTE   W12
 BYTE   Fs4  v044
 BYTE   W12
 BYTE   N11
 BYTE   N11  Bn4
 BYTE   W12
 BYTE   Fs4  v048
 BYTE   N11  Dn5
 BYTE   W12
 BYTE   Fs4  v056
 BYTE   N11  Fs5
 BYTE   W12
 BYTE   Bn4  v064
 BYTE   N11  Bn5
 BYTE   W12
 BYTE   Dn5  v072
 BYTE   N11  Dn6
 BYTE   W12
//  #03 //003   ----------------------------------------
 BYTE   N22  Fs5  v080
 BYTE   N22  Fs6
 BYTE   W36
 BYTE   N11  Fs4
 BYTE   N11  Fs5
 BYTE   W12
 BYTE   N22  En4
 BYTE   N22  En5
 BYTE   W24
 BYTE   N11  Dn4
 BYTE   N11  Dn5
 BYTE   W12
 BYTE   N32  Fs4
 BYTE   N32  Bn4
 BYTE   N32  Fs5
 BYTE   W12
//  #03 //004   ----------------------------------------
Label_01A505AE:
 BYTE   W36
 BYTE   N11  Fs4  v068
 BYTE   W12
 BYTE   Bn4
 BYTE   N11  Ds5
 BYTE   W12
 BYTE   N22  Cs5
 BYTE   N22  En5
 BYTE   W24
 BYTE   N32  Ds5
 BYTE   N32  Fs5
 BYTE   W12
 BYTE   PEND 
//  #03 //005   ----------------------------------------
 BYTE   PATT
  POIN2 Label_01A505AE
//  #03 //006   ----------------------------------------
Label_01A505C7:
 BYTE   W36
 BYTE   N11  Fs4  v068
 BYTE   W12
 BYTE   N11
 BYTE   N11  Bn4
 BYTE   W12
 BYTE   N22  Fs4
 BYTE   N22  Fs5
 BYTE   W24
 BYTE   En4
 BYTE   N22  En5
 BYTE   W12
 BYTE   PEND 
//  #03 //007   ----------------------------------------
Label_01A505DA:
 BYTE   W12
 BYTE   N11  Ds4  v068
 BYTE   N11  Ds5
 BYTE   W12
 BYTE   Cs4
 BYTE   N11  Cs5
 BYTE   W12
 BYTE   Bn3
 BYTE   N11  Bn4
 BYTE   W24
 BYTE   N32  Cs4
 BYTE   N32  As4
 BYTE   N32  Cs5
 BYTE   W36
 BYTE   PEND 
//  #03 //008   ----------------------------------------
 BYTE   N07  En4  v088
 BYTE   W12
 BYTE   Bn3
 BYTE   W12
 BYTE   N11  Gs4  v084
 BYTE   N11  Bn4
 BYTE   W12
 BYTE   Fs4  v068
 BYTE   W12
 BYTE   Bn4  v084
 BYTE   N11  Ds5
 BYTE   W12
 BYTE   N22  Cs5
 BYTE   N22  En5
 BYTE   W24
 BYTE   N32  Ds5
 BYTE   N32  Fs5
 BYTE   W12
//  #03 //009   ----------------------------------------
Label_01A5060F:
 BYTE   W36
 BYTE   N11  Fs4  v076
 BYTE   W12
 BYTE   Ds4
 BYTE   N11  Bn4
 BYTE   W12
 BYTE   N22  Fs4
 BYTE   N22  Fs5
 BYTE   W24
 BYTE   En4
 BYTE   N22  En5
 BYTE   W12
 BYTE   PEND 
//  #03 //010   ----------------------------------------
Label_01A50622:
 BYTE   W12
 BYTE   N11  Dn4  v076
 BYTE   N11  Dn5
 BYTE   W12
 BYTE   Cs4  v072
 BYTE   N11  Cs5
 BYTE   W12
 BYTE   N22  Bn3
 BYTE   N22  Bn4
 BYTE   W24
 BYTE   N11  An4  v080
 BYTE   N11  An5
 BYTE   W12
 BYTE   N68  Fs4
 BYTE   N68  Fs5
 BYTE   W24
 BYTE   PEND 
//  #03 //011   ----------------------------------------
 BYTE   W48
 BYTE   N44  Fs3
 BYTE   N44  Cs4
 BYTE   N44  Fs4
 BYTE   W48
//  #03 //012   ----------------------------------------
 BYTE   W14
Label_01A50648:
 BYTE   W10
 BYTE   N11  Ds4  v080
 BYTE   W12
 BYTE   N11
 BYTE   W12
 BYTE   N11
 BYTE   W12
 BYTE   En4
 BYTE   W12
 BYTE   Fs4
 BYTE   W12
 BYTE   N32
 BYTE   W12
//  #03 //013   ----------------------------------------
 BYTE   W24
 BYTE   N22  Gs4
 BYTE   W24
 BYTE   Fs4
 BYTE   W24
 BYTE   Bn3
 BYTE   W24
//  #03 //014   ----------------------------------------
 BYTE   As3
 BYTE   N22  Cs4
 BYTE   W24
 BYTE   N11  Bn3
 BYTE   W12
 BYTE   N22  As3
 BYTE   N22  Cs4
 BYTE   W24
 BYTE   Fs4
 BYTE   W24
 BYTE   Bn3
 BYTE   N22  Ds4
 BYTE   W12
//  #03 //015   ----------------------------------------
 BYTE   W12
 BYTE   N11  En4
 BYTE   W12
 BYTE   Ds4
 BYTE   W12
 BYTE   Bn3
 BYTE   W24
 BYTE   N11
 BYTE   W12
 BYTE   Cs4
 BYTE   W12
 BYTE   Bn3
 BYTE   N11  Ds4
 BYTE   W12
//  #03 //016   ----------------------------------------
 BYTE   W12
 BYTE   Bn3
 BYTE   W12
 BYTE   Cs4
 BYTE   W12
 BYTE   Bn3
 BYTE   N11  Ds4
 BYTE   W24
 BYTE   N11
 BYTE   W12
 BYTE   Fs4
 BYTE   W12
 BYTE   N32  Cs4
 BYTE   N32  En4
 BYTE   W12
//  #03 //017   ----------------------------------------
 BYTE   W24
 BYTE   N22  Ds4
 BYTE   W24
 BYTE   Cs4
 BYTE   W24
 BYTE   Bn3
 BYTE   W24
//  #03 //018   ----------------------------------------
 BYTE   As3
 BYTE   W24
 BYTE   N11  Bn3
 BYTE   W12
 BYTE   N22  As3
 BYTE   N22  Cs4
 BYTE   W24
 BYTE   En4
 BYTE   N22  Gs4
 BYTE   W24
 BYTE   N56  An3
 BYTE   N56  Cs4
 BYTE   N56  Fs4
 BYTE   W12
//  #03 //019   ----------------------------------------
 BYTE   W60
 BYTE   N11  Ds4
 BYTE   W12
 BYTE   En4
 BYTE   W12
 BYTE   Fs4
 BYTE   W12
//  #03 //020   ----------------------------------------
 BYTE   N22  Bn3
 BYTE   N22  Gs4
 BYTE   W36
 BYTE   N11  Ds4
 BYTE   W12
 BYTE   N22  Cs4
 BYTE   W24
 BYTE   N11  Bn3
 BYTE   W12
 BYTE   N22  As3
 BYTE   N22  Ds4
 BYTE   W12
//  #03 //021   ----------------------------------------
 BYTE   W12
 BYTE   N32  Cs4
 BYTE   W48
 BYTE   N11
 BYTE   W12
 BYTE   Ds4
 BYTE   W12
 BYTE   En4
 BYTE   W12
//  #03 //022   ----------------------------------------
 BYTE   N22  Bn3
 BYTE   N22  Fs4
 BYTE   W24
 BYTE   N11  Ds4
 BYTE   W12
 BYTE   N22  Bn3
 BYTE   N22  Cs4
 BYTE   W24
 BYTE   Bn3
 BYTE   W24
 BYTE   Ds4
 BYTE   N22  Gs4
 BYTE   W12
//  #03 //023   ----------------------------------------
 BYTE   W12
 BYTE   N11  Ds4
 BYTE   W12
 BYTE   Cs4
 BYTE   W12
 BYTE   N32  Bn3
 BYTE   W60
//  #03 //024   ----------------------------------------
 BYTE   N22
 BYTE   N22  En4
 BYTE   W24
 BYTE   Ds4
 BYTE   W24
 BYTE   Bn3
 BYTE   W24
 BYTE   N11  Gs3
 BYTE   W12
 BYTE   N22  Bn3
 BYTE   N22  En4
 BYTE   W12
//  #03 //025   ----------------------------------------
 BYTE   W12
 BYTE   Ds4
 BYTE   W24
 BYTE   Bn3
 BYTE   W24
 BYTE   N11  Cs4
 BYTE   N11  Cs5
 BYTE   W12
 BYTE   Dn4
 BYTE   N11  Dn5
 BYTE   W12
 BYTE   N32  An4
 BYTE   N32  An5
 BYTE   W12
//  #03 //026   ----------------------------------------
 BYTE   W24
 BYTE   N22  Gn4
 BYTE   N22  Gn5
 BYTE   W24
 BYTE   N11  Bn3
 BYTE   N11  Bn4
 BYTE   W12
 BYTE   N22  Dn4
 BYTE   N22  Dn5
 BYTE   W24
 BYTE   Fs4
 BYTE   N22  Fs5
 BYTE   W12
//  #03 //027   ----------------------------------------
 BYTE   W12
 BYTE   N11  Gn4
 BYTE   N11  Gn5
 BYTE   W12
 BYTE   Fs4
 BYTE   N11  Fs5
 BYTE   W12
 BYTE   N56  En4
 BYTE   N56  En5
 BYTE   W60
//  #03 //028   ----------------------------------------
 BYTE   W24
 BYTE   N11  Ds5  v072
 BYTE   W12
 BYTE   N11
 BYTE   W12
 BYTE   N11
 BYTE   W12
 BYTE   En5
 BYTE   W12
 BYTE   Fs5
 BYTE   W12
 BYTE   N32
 BYTE   W12
//  #03 //029   ----------------------------------------
 BYTE   W24
 BYTE   N22  Gs5
 BYTE   W24
 BYTE   Fs5
 BYTE   W24
 BYTE   Bn4
 BYTE   W24
//  #03 //030   ----------------------------------------
 BYTE   Cs5
 BYTE   W24
 BYTE   N11  Bn4
 BYTE   W12
 BYTE   N22  Cs5
 BYTE   W24
 BYTE   Fs5
 BYTE   W24
 BYTE   N56  Ds5
 BYTE   W12
//  #03 //031   ----------------------------------------
 BYTE   W60
 BYTE   N11  Bn4
 BYTE   W12
 BYTE   Cs5
 BYTE   W12
 BYTE   Ds5
 BYTE   W12
//  #03 //032   ----------------------------------------
 BYTE   W12
 BYTE   Bn4
 BYTE   W12
 BYTE   Cs5
 BYTE   W12
 BYTE   Ds5
 BYTE   W24
 BYTE   N11
 BYTE   W12
 BYTE   Fs5
 BYTE   W12
 BYTE   N32  En5
 BYTE   W12
//  #03 //033   ----------------------------------------
 BYTE   W24
 BYTE   N22  Ds5
 BYTE   W24
 BYTE   Cs5
 BYTE   W24
 BYTE   Bn4
 BYTE   W24
//  #03 //034   ----------------------------------------
 BYTE   As4
 BYTE   W24
 BYTE   N11  Bn4
 BYTE   W12
 BYTE   N22  Cs5
 BYTE   W24
 BYTE   Gs5
 BYTE   W24
 BYTE   N56  Fs5
 BYTE   W12
//  #03 //035   ----------------------------------------
 BYTE   W60
 BYTE   N11  Ds5
 BYTE   N11  Fs5
 BYTE   W12
 BYTE   Ds5
 BYTE   N11  Gs5
 BYTE   W12
 BYTE   N32  En5
 BYTE   N32  Bn5
 BYTE   W12
//  #03 //036   ----------------------------------------
 BYTE   W36
 BYTE   N11  Bn4
 BYTE   N11  Ds5
 BYTE   W12
 BYTE   N22  Bn4
 BYTE   N22  Cs5
 BYTE   W24
 BYTE   N11  Bn4
 BYTE   W12
 BYTE   N22
 BYTE   N22  Ds5
 BYTE   W12
//  #03 //037   ----------------------------------------
 BYTE   W12
 BYTE   N32  Bn4
 BYTE   N32  Cs5
 BYTE   W48
 BYTE   N11  Bn4
 BYTE   N11  Cs5
 BYTE   W12
 BYTE   Bn4
 BYTE   N11  Ds5
 BYTE   W12
 BYTE   Bn4
 BYTE   N11  En5
 BYTE   W12
//  #03 //038   ----------------------------------------
 BYTE   N22  As4
 BYTE   N22  Fs5
 BYTE   W24
 BYTE   N11  As4
 BYTE   N11  Ds5
 BYTE   W12
 BYTE   N22  As4
 BYTE   N22  Cs5
 BYTE   W24
 BYTE   Bn4
 BYTE   W24
 BYTE   As4
 BYTE   N22  As5
 BYTE   W12
//  #03 //039   ----------------------------------------
 BYTE   W12
 BYTE   N11  Bn4
 BYTE   N11  Bn5
 BYTE   W12
 BYTE   As4
 BYTE   N11  As5
 BYTE   W12
 BYTE   N32  Gs4
 BYTE   N32  Gs5
 BYTE   W36
 BYTE   N11  Cs5
 BYTE   W12
 BYTE   Ds5
 BYTE   W12
//  #03 //040   ----------------------------------------
 BYTE   N32  Cs5
 BYTE   N32  En5
 BYTE   W36
 BYTE   N11  Cs5
 BYTE   N11  Ds5
 BYTE   W12
 BYTE   N32  Cs5
 BYTE   N32  En5
 BYTE   W36
 BYTE   N11  Cs5
 BYTE   N11  Ds5
 BYTE   W12
//  #03 //041   ----------------------------------------
 BYTE   Cs5
 BYTE   N11  En5
 BYTE   W12
 BYTE   Cs5
 BYTE   N11  Ds5
 BYTE   W24
 BYTE   N22  Bn4
 BYTE   W24
 BYTE   N07  Cs4  v092
 BYTE   N07  Cs5
 BYTE   W12
 BYTE   N11  Dn4  v072
 BYTE   N11  Dn5
 BYTE   W12
 BYTE   N32  An4  v080
 BYTE   N32  An5
 BYTE   W12
//  #03 //042   ----------------------------------------
 BYTE   W24
 BYTE   N22  Gn4
 BYTE   N22  Gn5
 BYTE   W24
 BYTE   N11  Bn3
 BYTE   N11  Bn4
 BYTE   W12
 BYTE   N22  Dn4  v092
 BYTE   N22  Dn5
 BYTE   W24
 BYTE   N32  Fs4
 BYTE   N32  Fs5
 BYTE   W12
//  #03 //043   ----------------------------------------
 BYTE   W24
 BYTE   N11  Gn4
 BYTE   N11  Gn5
 BYTE   W12
 BYTE   N56  En4
 BYTE   N56  En5
 BYTE   W60
//  #03 //044   ----------------------------------------
 BYTE   W24
 BYTE   N22  Bn4  v068
 BYTE   W24
 BYTE   An5
 BYTE   W24
 BYTE   Gn5
 BYTE   W24
//  #03 //045   ----------------------------------------
 BYTE   Fs5
 BYTE   W24
 BYTE   N11  Gn5
 BYTE   W12
 BYTE   N56  En5
 BYTE   W60
//  #03 //046   ----------------------------------------
 BYTE   W24
 BYTE   N22  Bn5
 BYTE   W24
 BYTE   An5
 BYTE   W24
 BYTE   Cs5
 BYTE   W24
//  #03 //047   ----------------------------------------
 BYTE   Gs5
 BYTE   W24
 BYTE   N11  An5
 BYTE   W12
 BYTE   N56  Fs5
 BYTE   W60
//  #03 //048   ----------------------------------------
 BYTE   W24
 BYTE   N22  Cs6  v060
 BYTE   W24
 BYTE   N17  Bn5  v064
 BYTE   W18
 BYTE   As5
 BYTE   W18
 BYTE   N11  Bn5  v068
 BYTE   W12
//  #03 //049   ----------------------------------------
 BYTE   N32  Cs6
 BYTE   W36
 BYTE   N11  Dn6  v072
 BYTE   W12
 BYTE   N22  Bn5  v076
 BYTE   W24
 BYTE   N11  Cs6
 BYTE   W12
 BYTE   TIE  An5  v080
 BYTE   W12
//  #03 //050   ----------------------------------------
 BYTE   W90
 BYTE   EOT
 BYTE   W06
//  #03 //051   ----------------------------------------
 BYTE   N68  Fn4  v068
 BYTE   W04
 BYTE   N66  An4  v064
 BYTE   W04
 BYTE   N60  Cs5
 BYTE   W05
 BYTE   N56  En5
 BYTE   W56
 BYTE   W03
 BYTE   N11  Fs5  v080
 BYTE   W12
 BYTE   Gn5
 BYTE   W12
//  #03 //052   ----------------------------------------
 BYTE   N44  Dn5
 BYTE   N44  An5
 BYTE   W48
 BYTE   Dn5
 BYTE   N44  Dn6
 BYTE   W48
//  #03 //053   ----------------------------------------
 BYTE   N22  Cs5
 BYTE   N22  Cs6
 BYTE   W24
 BYTE   Dn5
 BYTE   N22  Dn6
 BYTE   W24
 BYTE   Cs5
 BYTE   N22  Cs6
 BYTE   W24
 BYTE   Bn4
 BYTE   N22  Bn5
 BYTE   W24
//  #03 //054   ----------------------------------------
 BYTE   An4
 BYTE   N22  An5
 BYTE   W24
 BYTE   Gn4
 BYTE   N22  Gn5
 BYTE   W24
 BYTE   Fs4
 BYTE   N22  Fs5
 BYTE   W24
 BYTE   Gn4
 BYTE   N22  Gn5
 BYTE   W24
//  #03 //055   ----------------------------------------
 BYTE   Fs4
 BYTE   N22  Fs5
 BYTE   W24
 BYTE   N11  Gn4
 BYTE   N11  Gn5
 BYTE   W12
 BYTE   N56  En4
 BYTE   N56  En5
 BYTE   W60
//  #03 //056   ----------------------------------------
 BYTE   N44  An4
 BYTE   N44  An5
 BYTE   W48
 BYTE   Dn5
 BYTE   N44  Dn6
 BYTE   W48
//  #03 //057   ----------------------------------------
 BYTE   N22  En5
 BYTE   N22  En6
 BYTE   W24
 BYTE   N11  Dn5
 BYTE   N11  Dn6
 BYTE   W12
 BYTE   N22  Cs5
 BYTE   N22  Cs6
 BYTE   W24
 BYTE   N11  Dn5
 BYTE   N11  Dn6
 BYTE   W24
 BYTE   N32  An4
 BYTE   N32  An5
 BYTE   W12
//  #03 //058   ----------------------------------------
 BYTE   W24
 BYTE   N22  Gn4
 BYTE   N22  Gn5
 BYTE   W24
 BYTE   Fs4
 BYTE   N22  Fs5
 BYTE   W24
 BYTE   Gn4
 BYTE   N22  Gn5
 BYTE   W24
//  #03 //059   ----------------------------------------
 BYTE   An4
 BYTE   N22  An5
 BYTE   W24
 BYTE   N11  Dn5
 BYTE   N11  Fs5
 BYTE   W12
 BYTE   N22  En5
 BYTE   N22  Gn5
 BYTE   W24
 BYTE   Fs5
 BYTE   N22  An5
 BYTE   W24
 BYTE   N56  Bn4
 BYTE   N56  Gn5
 BYTE   N56  Bn5
 BYTE   W12
//  #03 //060   ----------------------------------------
 BYTE   W48
 BYTE   N17  Bn4
 BYTE   N17  Gn5
 BYTE   N17  Bn5
 BYTE   W18
 BYTE   Cs5
 BYTE   N17  Gn5
 BYTE   N17  Cs6
 BYTE   W18
 BYTE   N11  Dn5
 BYTE   N11  Gn5
 BYTE   N11  Dn6
 BYTE   W12
//  #03 //061   ----------------------------------------
 BYTE   N68  Cs5
 BYTE   N68  Gn5
 BYTE   N68  Cs6
 BYTE   W72
 BYTE   N22  Bn4
 BYTE   N22  Bn5
 BYTE   W24
//  #03 //062   ----------------------------------------
 BYTE   An4
 BYTE   N22  An5
 BYTE   W24
 BYTE   N11  Fs4
 BYTE   N11  Fs5
 BYTE   W12
 BYTE   An4
 BYTE   N11  An5
 BYTE   W24
 BYTE   Cs5
 BYTE   N11  Cs6
 BYTE   W24
 BYTE   N22  Bn4
 BYTE   N22  Bn5
 BYTE   W12
//  #03 //063   ----------------------------------------
 BYTE   W12
 BYTE   N11  Bn4
 BYTE   N11  Fs5
 BYTE   W12
 BYTE   Bn4
 BYTE   N11  En5
 BYTE   W12
 BYTE   N32  Bn4
 BYTE   N32  Ds5
 BYTE   W36
 BYTE   N22  Bn4
 BYTE   W24
//  #03 //064   ----------------------------------------
 BYTE   N22
 BYTE   N22  Gn5
 BYTE   W24
 BYTE   Bn4
 BYTE   N22  Fs5
 BYTE   W24
 BYTE   N11  Bn4
 BYTE   N11  En5
 BYTE   W12
 BYTE   Bn4
 BYTE   N11  Dn5
 BYTE   W24
 BYTE   N32  An5
 BYTE   W12
//  #03 //065   ----------------------------------------
 BYTE   W36
 BYTE   N11  Fs5
 BYTE   W12
 BYTE   N22  En5
 BYTE   W24
 BYTE   N11  Dn5
 BYTE   W12
 BYTE   N04  En5
 BYTE   W04
 BYTE   N07  Fs5
 BYTE   W08
//  #03 //066   ----------------------------------------
 BYTE   N22  Fs4  v068
 BYTE   N22  Bn4
 BYTE   N22  Fs5
 BYTE   W36
 BYTE   N11  Fs4
 BYTE   W12
 BYTE   Bn4
 BYTE   N11  Ds5
 BYTE   W12
 BYTE   N22  Cs5
 BYTE   N22  En5
 BYTE   W24
 BYTE   N32  Ds5
 BYTE   N32  Fs5
 BYTE   W12
//  #03 //067   ----------------------------------------
 BYTE   PATT
  POIN2 Label_01A505AE
//  #03 //068   ----------------------------------------
 BYTE   PATT
  POIN2 Label_01A505C7
//  #03 //069   ----------------------------------------
 BYTE   PATT
  POIN2 Label_01A505DA
//  #03 //070   ----------------------------------------
 BYTE   N05  En4  v068
 BYTE   W06
 BYTE   Gs4
 BYTE   W06
 BYTE   Bn4
 BYTE   W06
 BYTE   En5
 BYTE   W06
 BYTE   N11  Bn4  v084
 BYTE   N11  Fs5
 BYTE   W12
 BYTE   Fs4  v068
 BYTE   W12
 BYTE   Bn4  v084
 BYTE   N11  Ds5
 BYTE   W12
 BYTE   N22  Cs5
 BYTE   N22  En5
 BYTE   W24
 BYTE   N32  Ds5
 BYTE   N32  Fs5
 BYTE   W12
//  #03 //071   ----------------------------------------
 BYTE   PATT
  POIN2 Label_01A5060F
//  #03 //072   ----------------------------------------
 BYTE   PATT
  POIN2 Label_01A50622
//  #03 //073   ----------------------------------------
 BYTE   W48
 BYTE   N36  Fs4  v080
 BYTE   W12
 BYTE   N11  As3  v076
 BYTE   W12
 BYTE   Cs4  v072
 BYTE   W12
 BYTE   Fs4  v064
 BYTE   W12
//  #03 //074   ----------------------------------------
 BYTE   GoTo
  POIN2 Label_01A50648
//  #03 //075   ----------------------------------------
 BYTE   N22  Gs4  v060
 BYTE   N22  En5
 BYTE   W96
//  #03 //076   ----------------------------------------
 BYTE   W96
//  #03 //077   ----------------------------------------
 BYTE   W96
//  #03 //078   ----------------------------------------
 BYTE   W96
//  #03 //079   ----------------------------------------
 BYTE   W96
//  #03 //080   ----------------------------------------
 BYTE   W96
//  #03 //081   ----------------------------------------
 BYTE   W96
//  #03 //082   ----------------------------------------
 BYTE   W96
//  #03 //083   ----------------------------------------
 BYTE   W96
//  #03 //084   ----------------------------------------
 BYTE   W96
//  #03 //085   ----------------------------------------
 BYTE   W96
//  #03 //086   ----------------------------------------
 BYTE   W96
//  #03 //087   ----------------------------------------
 BYTE   W96
//  #03 //088   ----------------------------------------
 BYTE   W96
//  #03 //089   ----------------------------------------
 BYTE   W96
//  #03 //090   ----------------------------------------
 BYTE   W96
//  #03 //091   ----------------------------------------
 BYTE   W96
//  #03 //092   ----------------------------------------
 BYTE   W96
//  #03 //093   ----------------------------------------
 BYTE   W96
//  #03 //094   ----------------------------------------
 BYTE   W96
//  #03 //095   ----------------------------------------
 BYTE   W96
//  #03 //096   ----------------------------------------
 BYTE   W96
//  #03 //097   ----------------------------------------
 BYTE   W96
//  #03 //098   ----------------------------------------
 BYTE   W96
//  #03 //099   ----------------------------------------
 BYTE   W96
//  #03 //100   ----------------------------------------
 BYTE   W96
//  #03 //101   ----------------------------------------
 BYTE   W96
//  #03 //102   ----------------------------------------
 BYTE   W96
//  #03 //103   ----------------------------------------
 BYTE   W96
//  #03 //104   ----------------------------------------
 BYTE   W96
//  #03 //105   ----------------------------------------
 BYTE   W96
//  #03 //106   ----------------------------------------
 BYTE   W96
//  #03 //107   ----------------------------------------
 BYTE   W96
//  #03 //108   ----------------------------------------
 BYTE   W96
//  #03 //109   ----------------------------------------
 BYTE   W96
//  #03 //110   ----------------------------------------
 BYTE   W96
//  #03 //111   ----------------------------------------
 BYTE   W96
//  #03 //112   ----------------------------------------
 BYTE   W96
//  #03 //113   ----------------------------------------
 BYTE   W96
//  #03 //114   ----------------------------------------
 BYTE   W96
//  #03 //115   ----------------------------------------
 BYTE   W96
//  #03 //116   ----------------------------------------
 BYTE   W96
//  #03 //117   ----------------------------------------
 BYTE   W96
//  #03 //118   ----------------------------------------
 BYTE   W96
//  #03 //119   ----------------------------------------
 BYTE   W96
//  #03 //120   ----------------------------------------
 BYTE   W96
//  #03 //121   ----------------------------------------
 BYTE   W96
//  #03 //122   ----------------------------------------
 BYTE   W96
//  #03 //123   ----------------------------------------
 BYTE   W96
//  #03 //124   ----------------------------------------
 BYTE   W96
//  #03 //125   ----------------------------------------
 BYTE   W96
//  #03 //126   ----------------------------------------
 BYTE   W96
//  #03 //127   ----------------------------------------
 BYTE   W96
//  #03 //128   ----------------------------------------
 BYTE   W96
//  #03 //129   ----------------------------------------
 BYTE   W96
//  #03 //130   ----------------------------------------
 BYTE   W96
//  #03 //131   ----------------------------------------
 BYTE   W96
//  #03 //132   ----------------------------------------
 BYTE   W96
//  #03 //133   ----------------------------------------
 BYTE   W96
//  #03 //134   ----------------------------------------
 BYTE   W96
//  #03 //135   ----------------------------------------
 BYTE   W96
//  #03 //136   ----------------------------------------
 BYTE   W96
//  #03 //137   ----------------------------------------
 BYTE   W96
//  #03 //138   ----------------------------------------
 BYTE   W96
//  #03 //139   ----------------------------------------
 BYTE   W96
//  #03 //140   ----------------------------------------
 BYTE   W96
//  #03 //141   ----------------------------------------
 BYTE   W96
//  #03 //142   ----------------------------------------
 BYTE   W96
//  #03 //143   ----------------------------------------
 BYTE   W96
//  #03 //144   ----------------------------------------
 BYTE   W96
//  #03 //145   ----------------------------------------
 BYTE   W96
//  #03 //146   ----------------------------------------
 BYTE   W96
//  #03 //147   ----------------------------------------
 BYTE   W96
//  #03 //148   ----------------------------------------
 BYTE   W96
//  #03 //149   ----------------------------------------
 BYTE   W96
//  #03 //150   ----------------------------------------
 BYTE   W96
//  #03 //151   ----------------------------------------
 BYTE   W96
//  #03 //152   ----------------------------------------
 BYTE   W96
//  #03 //153   ----------------------------------------
 BYTE   W96
//  #03 //154   ----------------------------------------
 BYTE   W96
//  #03 //155   ----------------------------------------
 BYTE   W96
//  #03 //156   ----------------------------------------
 BYTE   W96
//  #03 //157   ----------------------------------------
 BYTE   W96
//  #03 //158   ----------------------------------------
 BYTE   W96
//  #03 //159   ----------------------------------------
 BYTE   W96
//  #03 //160   ----------------------------------------
 BYTE   W96
//  #03 //161   ----------------------------------------
 BYTE   W96
//  #03 //162   ----------------------------------------
 BYTE   W96
//  #03 //163   ----------------------------------------
 BYTE   W96
//  #03 //164   ----------------------------------------
 BYTE   W96
//  #03 //165   ----------------------------------------
 BYTE   W96
//  #03 //166   ----------------------------------------
 BYTE   W96
//  #03 //167   ----------------------------------------
 BYTE   W84
 BYTE   FINE

//**************** Track 4 (Midi-Chn.3) ****************//

Identity_004:
//  #04 //000   ----------------------------------------
 BYTE   KEYSH   Identity_key+0
 BYTE   VOICE   81
 BYTE   MODT 0
 BYTE   LFOS 44
 BYTE   VOL   33*Identity_mvl/mxv
 BYTE   N22  Cs1  v080
 BYTE   N22  En1
 BYTE   N22  Gs1
 BYTE   N22  Bn1
 BYTE   W24
 BYTE   N11  Cs1  v068
 BYTE   W12
 BYTE   Cs2
 BYTE   W12
 BYTE   Cs1
 BYTE   W12
 BYTE   Cs2
 BYTE   W12
 BYTE   Cs1
 BYTE   W12
 BYTE   Cs2
 BYTE   W12
//  #04 //001   ----------------------------------------
 BYTE   N22  Ds1  v080
 BYTE   N22  Fs1
 BYTE   N22  Bn1
 BYTE   N22  Ds2
 BYTE   W24
 BYTE   N11  Ds1  v068
 BYTE   W12
 BYTE   Ds2
 BYTE   W12
 BYTE   Ds1
 BYTE   W12
 BYTE   Ds2
 BYTE   W12
 BYTE   Ds1
 BYTE   W12
 BYTE   Ds2
 BYTE   W12
//  #04 //002   ----------------------------------------
 BYTE   N22  En1  v080
 BYTE   N22  Gn1
 BYTE   N22  Bn1
 BYTE   N22  Dn2
 BYTE   W24
 BYTE   N11  En0  v044
 BYTE   N11  En1
 BYTE   W12
 BYTE   En0
 BYTE   N11  En1
 BYTE   W12
 BYTE   En0  v048
 BYTE   N11  En1
 BYTE   W12
 BYTE   En0  v056
 BYTE   N11  En1
 BYTE   W12
 BYTE   En0  v064
 BYTE   N11  En1
 BYTE   W12
 BYTE   En0  v072
 BYTE   N11  En1
 BYTE   W12
//  #04 //003   ----------------------------------------
 BYTE   N44  Fs0  v080
 BYTE   N44  Fs1
 BYTE   W96
//  #04 //004   ----------------------------------------
Label_01A4B904:
 BYTE   N23  En0  v068
 BYTE   N23  Bn0
 BYTE   N23  En1
 BYTE   W24
 BYTE   N11  En0
 BYTE   W12
 BYTE   En1
 BYTE   W12
 BYTE   En0
 BYTE   W12
 BYTE   En1
 BYTE   W12
 BYTE   En0
 BYTE   W12
 BYTE   En1
 BYTE   W12
 BYTE   PEND 
//  #04 //005   ----------------------------------------
Label_01A4B91A:
 BYTE   N23  Ds0  v068
 BYTE   N23  Bn0
 BYTE   N23  Ds1
 BYTE   W24
 BYTE   N11  Ds0
 BYTE   W12
 BYTE   Ds1
 BYTE   W12
 BYTE   Ds0
 BYTE   W12
 BYTE   Ds1
 BYTE   W12
 BYTE   Ds0
 BYTE   W12
 BYTE   Ds1
 BYTE   W12
 BYTE   PEND 
//  #04 //006   ----------------------------------------
Label_01A4B930:
 BYTE   N23  Dn0  v068
 BYTE   N23  An0
 BYTE   N23  Dn1
 BYTE   W24
 BYTE   N11  Dn0
 BYTE   W12
 BYTE   Dn1
 BYTE   W12
 BYTE   Dn0
 BYTE   W12
 BYTE   Dn1
 BYTE   W12
 BYTE   Dn0
 BYTE   W12
 BYTE   Dn1
 BYTE   W12
 BYTE   PEND 
//  #04 //007   ----------------------------------------
Label_01A4B946:
 BYTE   N23  Cs0  v068
 BYTE   N23  Gs0
 BYTE   N23  Cs1
 BYTE   W24
 BYTE   N11  Cs0
 BYTE   W12
 BYTE   Cs1
 BYTE   W12
 BYTE   Fs0
 BYTE   W12
 BYTE   Fs1
 BYTE   W12
 BYTE   Fs0
 BYTE   W12
 BYTE   Fs1
 BYTE   W12
 BYTE   PEND 
//  #04 //008   ----------------------------------------
 BYTE   N07  En1  v088
 BYTE   W12
 BYTE   Bn0
 BYTE   W12
 BYTE   N22  En0  v084
 BYTE   N22  Bn0
 BYTE   N22  En1
 BYTE   W24
 BYTE   N11  En0
 BYTE   N11  En1
 BYTE   W12
 BYTE   En0
 BYTE   N11  En1
 BYTE   W24
 BYTE   N32  Ds0
 BYTE   N32  Bn0
 BYTE   N32  Ds1
 BYTE   W12
//  #04 //009   ----------------------------------------
Label_01A4B97A:
 BYTE   W24
 BYTE   N11  Ds0  v076
 BYTE   W12
 BYTE   Ds1
 BYTE   W12
 BYTE   Ds0
 BYTE   W12
 BYTE   Ds1
 BYTE   W12
 BYTE   Ds0
 BYTE   W12
 BYTE   Ds1
 BYTE   W12
 BYTE   PEND 
//  #04 //010   ----------------------------------------
Label_01A4B98A:
 BYTE   N23  Dn0  v076
 BYTE   N23  Dn1
 BYTE   W24
 BYTE   N05  An0  v072
 BYTE   W12
 BYTE   N23  Dn0
 BYTE   N23  Dn1
 BYTE   W24
 BYTE   N05  An0  v080
 BYTE   W12
 BYTE   N23  Cs0
 BYTE   N23  Gs0
 BYTE   N23  Cs1
 BYTE   W24
 BYTE   PEND 
//  #04 //011   ----------------------------------------
 BYTE   N11  Cs0
 BYTE   W12
 BYTE   Gs0
 BYTE   W12
 BYTE   Cs1
 BYTE   W12
 BYTE   En1
 BYTE   W12
 BYTE   W12
 BYTE   Cs1
 BYTE   W12
 BYTE   As0
 BYTE   W12
 BYTE   Fs0
 BYTE   W12
//  #04 //012   ----------------------------------------
 BYTE   N22  En0
 BYTE   N22  Bn0
 BYTE   N22  En1
 BYTE   W14
Label_01A4B9BC:
 BYTE   W44
 BYTE   W02
 BYTE   N11  En0  v068
 BYTE   N11  Gs0
 BYTE   N11  Bn0
 BYTE   W24
 BYTE   N32  Fs0
 BYTE   N32  As0
 BYTE   N32  Cs1
 BYTE   W12
//  #04 //013   ----------------------------------------
Label_01A4B9CD:
 BYTE   W48
 BYTE   N44  Fs0  v068
 BYTE   W04
 BYTE   N42  Cs1
 BYTE   W05
 BYTE   N36  Fs1
 BYTE   W36
 BYTE   W03
 BYTE   PEND 
//  #04 //014   ----------------------------------------
 BYTE   N22  Ds0
 BYTE   N22  As0
 BYTE   N22  Ds1
 BYTE   W60
 BYTE   N11  Ds0
 BYTE   N11  Fs0
 BYTE   N11  As0
 BYTE   W24
 BYTE   N32  Gs0
 BYTE   N32  Bn0
 BYTE   N32  Ds1
 BYTE   W12
//  #04 //015   ----------------------------------------
 BYTE   W48
 BYTE   N44  Gs0
 BYTE   W04
 BYTE   N42  Ds1
 BYTE   W05
 BYTE   N36  Gs1
 BYTE   W36
 BYTE   W03
//  #04 //016   ----------------------------------------
 BYTE   N22  En0
 BYTE   N22  Bn0
 BYTE   N22  En1
 BYTE   W60
 BYTE   N11  En0
 BYTE   N11  Gs0
 BYTE   N11  Bn0
 BYTE   W24
 BYTE   N32  Fs0
 BYTE   N32  As0
 BYTE   N32  Cs1
 BYTE   W12
//  #04 //017   ----------------------------------------
 BYTE   PATT
  POIN2 Label_01A4B9CD
//  #04 //018   ----------------------------------------
 BYTE   N22  Ds0  v068
 BYTE   N22  As0
 BYTE   N22  Ds1
 BYTE   W60
 BYTE   N32  Ds0
 BYTE   N32  Fs0
 BYTE   N32  As0
 BYTE   W36
//  #04 //019   ----------------------------------------
 BYTE   N11  Fs0
 BYTE   N11  An0
 BYTE   N11  Fs1
 BYTE   W12
 BYTE   Cs1
 BYTE   W12
 BYTE   Fs1
 BYTE   W12
 BYTE   N22  Bn0
 BYTE   N22  Ds1
 BYTE   N22  Bn1
 BYTE   W24
 BYTE   N11  Fs1
 BYTE   W12
 BYTE   N22  Bn1
 BYTE   W24
//  #04 //020   ----------------------------------------
 BYTE   En0
 BYTE   N22  Bn0
 BYTE   N22  En1
 BYTE   W60
 BYTE   N11  En0
 BYTE   N11  Gs0
 BYTE   N11  Bn0
 BYTE   W24
 BYTE   N32  Fs0
 BYTE   N32  As0
 BYTE   N32  Cs1
 BYTE   W12
//  #04 //021   ----------------------------------------
 BYTE   PATT
  POIN2 Label_01A4B9CD
//  #04 //022   ----------------------------------------
 BYTE   N22  Gs0  v068
 BYTE   N22  Ds1
 BYTE   N22  Gs1
 BYTE   W60
 BYTE   N11  Gs0
 BYTE   N11  Bn0
 BYTE   N11  Ds1
 BYTE   W24
 BYTE   N32  Cs0
 BYTE   N32  Fn0
 BYTE   N32  Gs0
 BYTE   W12
//  #04 //023   ----------------------------------------
 BYTE   W48
 BYTE   N44  Cs0
 BYTE   W04
 BYTE   N42  Gs0
 BYTE   W05
 BYTE   N36  Cs1
 BYTE   W36
 BYTE   W03
//  #04 //024   ----------------------------------------
 BYTE   N22  En0
 BYTE   N22  Bn0
 BYTE   N22  En1
 BYTE   W60
 BYTE   N11  En0
 BYTE   N11  Gs0
 BYTE   N11  Bn0
 BYTE   W24
 BYTE   N32  Cs0
 BYTE   N32  En0
 BYTE   N32  Gs0
 BYTE   W12
//  #04 //025   ----------------------------------------
 BYTE   W48
 BYTE   N44  Dn0
 BYTE   W04
 BYTE   N42  An0
 BYTE   W05
 BYTE   N36  Dn1
 BYTE   W36
 BYTE   W03
//  #04 //026   ----------------------------------------
 BYTE   N22  En0
 BYTE   N22  Bn0
 BYTE   N22  En1
 BYTE   W36
 BYTE   N11
 BYTE   W12
 BYTE   N32  Gn1
 BYTE   W36
 BYTE   An0
 BYTE   N32  En1
 BYTE   N32  An1
 BYTE   W12
//  #04 //027   ----------------------------------------
 BYTE   W48
 BYTE   N44  An0
 BYTE   W04
 BYTE   N42  En1
 BYTE   W05
 BYTE   N36  An1
 BYTE   W36
 BYTE   W03
//  #04 //028   ----------------------------------------
Label_01A4BAB2:
 BYTE   N22  En1  v072
 BYTE   N22  Gs1
 BYTE   N90  Bn1
 BYTE   N90  Ds2
 BYTE   W24
 BYTE   N22  En1  v056
 BYTE   N22  Gs1
 BYTE   W24
 BYTE   En1
 BYTE   N22  Gs1
 BYTE   W24
 BYTE   En1
 BYTE   N22  Gs1
 BYTE   W24
 BYTE   PEND 
//  #04 //029   ----------------------------------------
Label_01A4BACB:
 BYTE   N22  Fs1  v072
 BYTE   N22  As1
 BYTE   N90  Cs2
 BYTE   N90  Fs2
 BYTE   W24
 BYTE   N22  Fs1  v056
 BYTE   N22  As1
 BYTE   W24
 BYTE   Fs1
 BYTE   N22  As1
 BYTE   W24
 BYTE   Fs1
 BYTE   N22  As1
 BYTE   W24
 BYTE   PEND 
//  #04 //030   ----------------------------------------
Label_01A4BAE4:
 BYTE   N22  Ds1  v072
 BYTE   N22  Fs1
 BYTE   N90  As1
 BYTE   N90  Cs2
 BYTE   W24
 BYTE   N22  Ds1  v056
 BYTE   N22  Fs1
 BYTE   W24
 BYTE   Ds1
 BYTE   N22  Fs1
 BYTE   W24
 BYTE   Ds1
 BYTE   N22  Fs1
 BYTE   W24
 BYTE   PEND 
//  #04 //031   ----------------------------------------
 BYTE   Gs1  v072
 BYTE   N90  Bn1
 BYTE   N90  Ds2
 BYTE   W24
 BYTE   N22  Gs1  v056
 BYTE   W24
 BYTE   N22
 BYTE   W24
 BYTE   N22
 BYTE   W24
//  #04 //032   ----------------------------------------
 BYTE   PATT
  POIN2 Label_01A4BAB2
//  #04 //033   ----------------------------------------
 BYTE   PATT
  POIN2 Label_01A4BACB
//  #04 //034   ----------------------------------------
 BYTE   PATT
  POIN2 Label_01A4BAE4
//  #04 //035   ----------------------------------------
 BYTE   N22  Ds1  v072
 BYTE   N22  Fs1
 BYTE   N44  An1
 BYTE   N44  Cs2
 BYTE   W24
 BYTE   N22  Ds1  v056
 BYTE   N22  Fs1
 BYTE   W24
 BYTE   Bn0  v072
 BYTE   N44  Ds1
 BYTE   N44  Fs1
 BYTE   W24
 BYTE   N22  Bn0  v056
 BYTE   W24
//  #04 //036   ----------------------------------------
 BYTE   En0  v072
 BYTE   N90  Gs0
 BYTE   N90  Bn0
 BYTE   N32  En1
 BYTE   W24
 BYTE   N22  En0  v056
 BYTE   W12
 BYTE   N56  En1  v072
 BYTE   W12
 BYTE   N22  En0  v056
 BYTE   W24
 BYTE   N22
 BYTE   W24
//  #04 //037   ----------------------------------------
 BYTE   Fs0  v072
 BYTE   N90  As0
 BYTE   N90  Cs1
 BYTE   N32  Fs1
 BYTE   W24
 BYTE   N22  Fs0  v056
 BYTE   W12
 BYTE   N56  Fs1  v072
 BYTE   W12
 BYTE   N22  Fs0  v056
 BYTE   W24
 BYTE   N22
 BYTE   W24
//  #04 //038   ----------------------------------------
 BYTE   Ds0  v072
 BYTE   N90  Fs0
 BYTE   N90  As0
 BYTE   N32  Ds1
 BYTE   W24
 BYTE   N22  Ds0  v056
 BYTE   W12
 BYTE   N56  Ds1  v072
 BYTE   W12
 BYTE   N22  Ds0  v056
 BYTE   W24
 BYTE   N22
 BYTE   W24
//  #04 //039   ----------------------------------------
 BYTE   Cs0  v072
 BYTE   N90  Fn0
 BYTE   N90  Gs0
 BYTE   N32  Cs1
 BYTE   W24
 BYTE   N22  Cs0
 BYTE   W12
 BYTE   N32  Cs1
 BYTE   W12
 BYTE   N22  Cs0
 BYTE   W24
 BYTE   N22
 BYTE   N22  Cs1
 BYTE   W24
//  #04 //040   ----------------------------------------
 BYTE   Cs0
 BYTE   N22  Gs0
 BYTE   N22  Cs1
 BYTE   W24
 BYTE   N11  Cs0
 BYTE   W12
 BYTE   Cs1
 BYTE   W12
 BYTE   Cs0
 BYTE   W12
 BYTE   Cs1
 BYTE   W12
 BYTE   Cs0
 BYTE   W12
 BYTE   Cs1
 BYTE   W12
//  #04 //041   ----------------------------------------
 BYTE   N22  Cs0
 BYTE   N22  Gs0
 BYTE   N22  Cs1
 BYTE   W24
 BYTE   N11  Cs0
 BYTE   W12
 BYTE   Cs1
 BYTE   W12
 BYTE   Cs0
 BYTE   W12
 BYTE   N16  Dn0  v092
 BYTE   N16  Dn1
 BYTE   W24
 BYTE   N32  Dn0  v100
 BYTE   N32  An0
 BYTE   N32  Dn1
 BYTE   W12
//  #04 //042   ----------------------------------------
 BYTE   W24
 BYTE   N11  Dn0  v080
 BYTE   W12
 BYTE   Dn1
 BYTE   W12
 BYTE   Gn0
 BYTE   N11  Gn1
 BYTE   W12
 BYTE   An0
 BYTE   N11  An1
 BYTE   W12
 BYTE   N05  Dn0  v108
 BYTE   N05  Dn1
 BYTE   W12
 BYTE   N32  An0  v080
 BYTE   N32  En1
 BYTE   N32  An1
 BYTE   W12
//  #04 //043   ----------------------------------------
 BYTE   W24
 BYTE   N11  An0
 BYTE   W12
 BYTE   An1
 BYTE   W12
 BYTE   An0
 BYTE   W12
 BYTE   An1
 BYTE   W12
 BYTE   An0
 BYTE   W12
 BYTE   An1
 BYTE   W12
//  #04 //044   ----------------------------------------
 BYTE   N22  Gn0  v056
 BYTE   W24
 BYTE   Dn2
 BYTE   W24
 BYTE   Gn2
 BYTE   W24
 BYTE   Dn2
 BYTE   W24
//  #04 //045   ----------------------------------------
 BYTE   An1
 BYTE   W24
 BYTE   En2
 BYTE   W24
 BYTE   Gn1
 BYTE   W24
 BYTE   En2
 BYTE   W24
//  #04 //046   ----------------------------------------
 BYTE   Fs1
 BYTE   W24
 BYTE   Cs2
 BYTE   W24
 BYTE   En2
 BYTE   W24
 BYTE   Cs2
 BYTE   W24
//  #04 //047   ----------------------------------------
 BYTE   Bn0
 BYTE   W24
 BYTE   Fs1
 BYTE   W24
 BYTE   Bn1
 BYTE   N22  Ds2
 BYTE   W24
 BYTE   Fs1
 BYTE   W24
//  #04 //048   ----------------------------------------
 BYTE   N11  Gn0
 BYTE   W12
 BYTE   Bn0  v060
 BYTE   W12
 BYTE   N22  En1
 BYTE   W24
 BYTE   Bn1  v064
 BYTE   N22  En2
 BYTE   W24
 BYTE   En1
 BYTE   W24
//  #04 //049   ----------------------------------------
 BYTE   N11  Cs1  v068
 BYTE   W12
 BYTE   Fn1  v072
 BYTE   W12
 BYTE   N22  Gs1
 BYTE   W24
 BYTE   Cs2  v076
 BYTE   N22  Fn2
 BYTE   W24
 BYTE   Gs1
 BYTE   W24
//  #04 //050   ----------------------------------------
 BYTE   N92  En0  v080
 BYTE   W04
 BYTE   N90  Gn0
 BYTE   W04
 BYTE   N84  Bn0
 BYTE   W05
 BYTE   N80  Dn1
 BYTE   W05
 BYTE   N76  Fs1
 BYTE   W04
 BYTE   N72  An1
 BYTE   W72
 BYTE   W02
//  #04 //051   ----------------------------------------
 BYTE   N92  Bn1  v088
 BYTE   N92  Dn2
 BYTE   W96
//  #04 //052   ----------------------------------------
Label_01A4BC4A:
 BYTE   N23  Fs0  v080
 BYTE   N23  Fs1
 BYTE   W24
 BYTE   N11  Dn1
 BYTE   W12
 BYTE   An1
 BYTE   W12
 BYTE   Dn2
 BYTE   W12
 BYTE   An1
 BYTE   W12
 BYTE   Fs1
 BYTE   W12
 BYTE   Dn1
 BYTE   W12
 BYTE   PEND 
//  #04 //053   ----------------------------------------
 BYTE   Fn0
 BYTE   W12
 BYTE   Fn1
 BYTE   W12
 BYTE   Gs1
 BYTE   W12
 BYTE   Cs2
 BYTE   W12
 BYTE   Fn2
 BYTE   W12
 BYTE   Cs2
 BYTE   W12
 BYTE   Gs1
 BYTE   W12
 BYTE   Fn1
 BYTE   W12
//  #04 //054   ----------------------------------------
 BYTE   En0
 BYTE   W12
 BYTE   En1
 BYTE   W12
 BYTE   Gn1
 BYTE   W12
 BYTE   Bn1
 BYTE   W12
 BYTE   En2
 BYTE   W12
 BYTE   Bn1
 BYTE   W12
 BYTE   Gn1
 BYTE   W12
 BYTE   En1
 BYTE   W12
//  #04 //055   ----------------------------------------
 BYTE   An0
 BYTE   N11  An1
 BYTE   W12
 BYTE   An0
 BYTE   N11  An1
 BYTE   W12
 BYTE   En1
 BYTE   W12
 BYTE   N32  An0
 BYTE   N32  An1
 BYTE   W36
 BYTE   N22  Gn0
 BYTE   N22  Gn1
 BYTE   W24
//  #04 //056   ----------------------------------------
 BYTE   PATT
  POIN2 Label_01A4BC4A
//  #04 //057   ----------------------------------------
 BYTE   N23  Bn0  v080
 BYTE   N23  Bn1
 BYTE   W24
 BYTE   N11  Gn1
 BYTE   N11  Bn1
 BYTE   W12
 BYTE   Dn2
 BYTE   W12
 BYTE   Dn1
 BYTE   W12
 BYTE   N11
 BYTE   N11  Gn1
 BYTE   N11  Bn1
 BYTE   N11  Dn2
 BYTE   W12
 BYTE   W12
 BYTE   N32  An0
 BYTE   N32  En1
 BYTE   N32  An1
 BYTE   W12
//  #04 //058   ----------------------------------------
 BYTE   W24
 BYTE   N11  An0
 BYTE   W12
 BYTE   En1
 BYTE   W12
 BYTE   An1
 BYTE   W12
 BYTE   En1
 BYTE   W12
 BYTE   Cs1
 BYTE   W12
 BYTE   An0
 BYTE   W12
//  #04 //059   ----------------------------------------
 BYTE   Dn0
 BYTE   N11  An0
 BYTE   N11  Dn1
 BYTE   W12
 BYTE   Dn0
 BYTE   N11  An0
 BYTE   N11  Dn1
 BYTE   W24
 BYTE   En0
 BYTE   N11  An0
 BYTE   N11  En1
 BYTE   W24
 BYTE   N22  Fs0
 BYTE   N22  An0
 BYTE   N22  Fs1
 BYTE   W36
//  #04 //060   ----------------------------------------
 BYTE   Gn0
 BYTE   N22  Gn1
 BYTE   W24
 BYTE   N11  Dn1
 BYTE   N11  Gn1
 BYTE   W12
 BYTE   Bn1
 BYTE   W12
 BYTE   Bn0
 BYTE   N11  Gn1
 BYTE   W12
 BYTE   Bn1
 BYTE   W12
 BYTE   Bn0
 BYTE   N11  Gn1
 BYTE   W12
 BYTE   Bn1
 BYTE   W12
//  #04 //061   ----------------------------------------
 BYTE   N22  Gs0
 BYTE   N22  Gs1
 BYTE   W24
 BYTE   N11  Bn0
 BYTE   N11  Gs1
 BYTE   W12
 BYTE   Bn1
 BYTE   W12
 BYTE   Bn0
 BYTE   N11  Dn1
 BYTE   W12
 BYTE   Gs1
 BYTE   W12
 BYTE   N22  Gs0
 BYTE   N22  Gs1
 BYTE   W24
//  #04 //062   ----------------------------------------
 BYTE   An0
 BYTE   N22  An1
 BYTE   W24
 BYTE   N11  An0
 BYTE   N11  An1
 BYTE   W12
 BYTE   Fs0
 BYTE   N11  Fs1
 BYTE   W24
 BYTE   N22  Fs0
 BYTE   N22  Fs1
 BYTE   W24
 BYTE   Bn0
 BYTE   N22  Bn1
 BYTE   W12
//  #04 //063   ----------------------------------------
 BYTE   W12
 BYTE   N11  Bn0
 BYTE   W12
 BYTE   Fs1
 BYTE   W12
 BYTE   Bn1
 BYTE   W12
 BYTE   Ds2
 BYTE   W12
 BYTE   Fs1
 BYTE   W12
 BYTE   N22  Bn0
 BYTE   W24
//  #04 //064   ----------------------------------------
 BYTE   N05  En0
 BYTE   W06
 BYTE   En1  v068
 BYTE   W06
 BYTE   En0
 BYTE   W06
 BYTE   En1
 BYTE   W06
 BYTE   Fs0  v080
 BYTE   W06
 BYTE   Fs1  v068
 BYTE   W06
 BYTE   Fs0
 BYTE   W06
 BYTE   Fs1
 BYTE   W06
 BYTE   N11  Gn0  v080
 BYTE   N11  Gn1
 BYTE   W12
 BYTE   Gs0
 BYTE   N11  Gs1
 BYTE   W24
 BYTE   N32  An0
 BYTE   N32  An1
 BYTE   W12
//  #04 //065   ----------------------------------------
 BYTE   W36
 BYTE   N11  Fs2
 BYTE   W12
 BYTE   N22  En2
 BYTE   W24
 BYTE   N11  Bn1
 BYTE   W12
 BYTE   Fs1
 BYTE   W12
//  #04 //066   ----------------------------------------
 BYTE   PATT
  POIN2 Label_01A4B904
//  #04 //067   ----------------------------------------
 BYTE   PATT
  POIN2 Label_01A4B91A
//  #04 //068   ----------------------------------------
 BYTE   PATT
  POIN2 Label_01A4B930
//  #04 //069   ----------------------------------------
 BYTE   PATT
  POIN2 Label_01A4B946
//  #04 //070   ----------------------------------------
 BYTE   N05  En0  v068
 BYTE   W06
 BYTE   Gs0
 BYTE   W06
 BYTE   Bn0
 BYTE   W06
 BYTE   En1
 BYTE   W06
 BYTE   N22  En0  v084
 BYTE   N22  Bn0
 BYTE   N22  En1
 BYTE   W24
 BYTE   N11  En0
 BYTE   N11  En1
 BYTE   W12
 BYTE   En0
 BYTE   N11  En1
 BYTE   W24
 BYTE   N32  Ds0
 BYTE   N32  Bn0
 BYTE   N32  Ds1
 BYTE   W12
//  #04 //071   ----------------------------------------
 BYTE   PATT
  POIN2 Label_01A4B97A
//  #04 //072   ----------------------------------------
 BYTE   PATT
  POIN2 Label_01A4B98A
//  #04 //073   ----------------------------------------
 BYTE   N11  Cs0  v080
 BYTE   W12
 BYTE   Gs0
 BYTE   W12
 BYTE   Cs1
 BYTE   W12
 BYTE   En1
 BYTE   W12
 BYTE   N44  Fs1
 BYTE   W48
//  #04 //074   ----------------------------------------
 BYTE   GoTo
  POIN2 Label_01A4B9BC
//  #04 //075   ----------------------------------------
 BYTE   N22  En1  v060
 BYTE   W24
 BYTE   W72
//  #04 //076   ----------------------------------------
 BYTE   W96
//  #04 //077   ----------------------------------------
 BYTE   W96
//  #04 //078   ----------------------------------------
 BYTE   W96
//  #04 //079   ----------------------------------------
 BYTE   W96
//  #04 //080   ----------------------------------------
 BYTE   W96
//  #04 //081   ----------------------------------------
 BYTE   W96
//  #04 //082   ----------------------------------------
 BYTE   W96
//  #04 //083   ----------------------------------------
 BYTE   W96
//  #04 //084   ----------------------------------------
 BYTE   W96
//  #04 //085   ----------------------------------------
 BYTE   W96
//  #04 //086   ----------------------------------------
 BYTE   W96
//  #04 //087   ----------------------------------------
 BYTE   W96
//  #04 //088   ----------------------------------------
 BYTE   W96
//  #04 //089   ----------------------------------------
 BYTE   W96
//  #04 //090   ----------------------------------------
 BYTE   W96
//  #04 //091   ----------------------------------------
 BYTE   W96
//  #04 //092   ----------------------------------------
 BYTE   W96
//  #04 //093   ----------------------------------------
 BYTE   W96
//  #04 //094   ----------------------------------------
 BYTE   W96
//  #04 //095   ----------------------------------------
 BYTE   W96
//  #04 //096   ----------------------------------------
 BYTE   W96
//  #04 //097   ----------------------------------------
 BYTE   W96
//  #04 //098   ----------------------------------------
 BYTE   W96
//  #04 //099   ----------------------------------------
 BYTE   W96
//  #04 //100   ----------------------------------------
 BYTE   W96
//  #04 //101   ----------------------------------------
 BYTE   W96
//  #04 //102   ----------------------------------------
 BYTE   W96
//  #04 //103   ----------------------------------------
 BYTE   W96
//  #04 //104   ----------------------------------------
 BYTE   W96
//  #04 //105   ----------------------------------------
 BYTE   W96
//  #04 //106   ----------------------------------------
 BYTE   W96
//  #04 //107   ----------------------------------------
 BYTE   W96
//  #04 //108   ----------------------------------------
 BYTE   W96
//  #04 //109   ----------------------------------------
 BYTE   W96
//  #04 //110   ----------------------------------------
 BYTE   W96
//  #04 //111   ----------------------------------------
 BYTE   W96
//  #04 //112   ----------------------------------------
 BYTE   W96
//  #04 //113   ----------------------------------------
 BYTE   W96
//  #04 //114   ----------------------------------------
 BYTE   W96
//  #04 //115   ----------------------------------------
 BYTE   W96
//  #04 //116   ----------------------------------------
 BYTE   W96
//  #04 //117   ----------------------------------------
 BYTE   W96
//  #04 //118   ----------------------------------------
 BYTE   W96
//  #04 //119   ----------------------------------------
 BYTE   W96
//  #04 //120   ----------------------------------------
 BYTE   W96
//  #04 //121   ----------------------------------------
 BYTE   W96
//  #04 //122   ----------------------------------------
 BYTE   W96
//  #04 //123   ----------------------------------------
 BYTE   W96
//  #04 //124   ----------------------------------------
 BYTE   W96
//  #04 //125   ----------------------------------------
 BYTE   W96
//  #04 //126   ----------------------------------------
 BYTE   W96
//  #04 //127   ----------------------------------------
 BYTE   W96
//  #04 //128   ----------------------------------------
 BYTE   W96
//  #04 //129   ----------------------------------------
 BYTE   W96
//  #04 //130   ----------------------------------------
 BYTE   W96
//  #04 //131   ----------------------------------------
 BYTE   W96
//  #04 //132   ----------------------------------------
 BYTE   W96
//  #04 //133   ----------------------------------------
 BYTE   W96
//  #04 //134   ----------------------------------------
 BYTE   W96
//  #04 //135   ----------------------------------------
 BYTE   W96
//  #04 //136   ----------------------------------------
 BYTE   W96
//  #04 //137   ----------------------------------------
 BYTE   W96
//  #04 //138   ----------------------------------------
 BYTE   W96
//  #04 //139   ----------------------------------------
 BYTE   W96
//  #04 //140   ----------------------------------------
 BYTE   W96
//  #04 //141   ----------------------------------------
 BYTE   W96
//  #04 //142   ----------------------------------------
 BYTE   W96
//  #04 //143   ----------------------------------------
 BYTE   W96
//  #04 //144   ----------------------------------------
 BYTE   W96
//  #04 //145   ----------------------------------------
 BYTE   W96
//  #04 //146   ----------------------------------------
 BYTE   W96
//  #04 //147   ----------------------------------------
 BYTE   W96
//  #04 //148   ----------------------------------------
 BYTE   W96
//  #04 //149   ----------------------------------------
 BYTE   W96
//  #04 //150   ----------------------------------------
 BYTE   W96
//  #04 //151   ----------------------------------------
 BYTE   W96
//  #04 //152   ----------------------------------------
 BYTE   W96
//  #04 //153   ----------------------------------------
 BYTE   W96
//  #04 //154   ----------------------------------------
 BYTE   W96
//  #04 //155   ----------------------------------------
 BYTE   W96
//  #04 //156   ----------------------------------------
 BYTE   W96
//  #04 //157   ----------------------------------------
 BYTE   W96
//  #04 //158   ----------------------------------------
 BYTE   W96
//  #04 //159   ----------------------------------------
 BYTE   W96
//  #04 //160   ----------------------------------------
 BYTE   W96
//  #04 //161   ----------------------------------------
 BYTE   W96
//  #04 //162   ----------------------------------------
 BYTE   W96
//  #04 //163   ----------------------------------------
 BYTE   W96
//  #04 //164   ----------------------------------------
 BYTE   W96
//  #04 //165   ----------------------------------------
 BYTE   W96
//  #04 //166   ----------------------------------------
 BYTE   W96
//  #04 //167   ----------------------------------------
 BYTE   W84
 BYTE   FINE

//**************** Track 5 (Midi-Chn.4) ****************//

Identity_005:
//  #05 //000   ----------------------------------------
 BYTE   KEYSH   Identity_key+0
 BYTE   VOICE   124
 BYTE   MODT 0
 BYTE   LFOS 44
 BYTE   VOL   80*Identity_mvl/mxv
 BYTE   W96
//  #05 //001   ----------------------------------------
 BYTE   W96
//  #05 //002   ----------------------------------------
 BYTE   W96
//  #05 //003   ----------------------------------------
 BYTE   W96
//  #05 //004   ----------------------------------------
Label_01A50D2A:
 BYTE   N24  Fn1  v044
 BYTE   W24
 BYTE   Dn1
 BYTE   W24
 BYTE   Fn1
 BYTE   W24
 BYTE   Dn1
 BYTE   W24
 BYTE   PEND 
//  #05 //005   ----------------------------------------
 BYTE   PATT
  POIN2 Label_01A50D2A
//  #05 //006   ----------------------------------------
 BYTE   PATT
  POIN2 Label_01A50D2A
//  #05 //007   ----------------------------------------
 BYTE   N24  Fn1  v044
 BYTE   W24
 BYTE   Dn1
 BYTE   W24
 BYTE   Fn1
 BYTE   N12  Cn2
 BYTE   W12
 BYTE   N12
 BYTE   W12
 BYTE   Bn1
 BYTE   W12
 BYTE   N12
 BYTE   W12
//  #05 //008   ----------------------------------------
 BYTE   N24  Fn1
 BYTE   N12  An1
 BYTE   W12
 BYTE   N12
 BYTE   W12
 BYTE   N24  Dn1
 BYTE   W24
 BYTE   Fn1
 BYTE   W24
 BYTE   Dn1
 BYTE   W24
//  #05 //009   ----------------------------------------
 BYTE   PATT
  POIN2 Label_01A50D2A
//  #05 //010   ----------------------------------------
 BYTE   W24
 BYTE   N12  Dn1  v044
 BYTE   N12  Fn1
 BYTE   W12
 BYTE   Dn1
 BYTE   N12  Fn1
 BYTE   W36
 BYTE   Dn1
 BYTE   N12  Fn1
 BYTE   W12
 BYTE   Dn1
 BYTE   N12  Fn1
 BYTE   W12
//  #05 //011   ----------------------------------------
 BYTE   W96
//  #05 //012   ----------------------------------------
 BYTE   N24  Cn1
 BYTE   W14
Label_01A50D79:
 BYTE   W10
 BYTE   N24  Ds1  v044
 BYTE   W24
 BYTE   Cn1
 BYTE   W24
 BYTE   Ds1
 BYTE   N12  Fs1
 BYTE   W12
 BYTE   N12
 BYTE   W12
//  #05 //013   ----------------------------------------
Label_01A50D86:
 BYTE   N24  Cn1  v044
 BYTE   W24
 BYTE   Ds1
 BYTE   W24
 BYTE   Cn1
 BYTE   W24
 BYTE   Ds1
 BYTE   N12  Fs1
 BYTE   W12
 BYTE   N12
 BYTE   W12
 BYTE   PEND 
//  #05 //014   ----------------------------------------
 BYTE   PATT
  POIN2 Label_01A50D86
//  #05 //015   ----------------------------------------
 BYTE   PATT
  POIN2 Label_01A50D86
//  #05 //016   ----------------------------------------
 BYTE   PATT
  POIN2 Label_01A50D86
//  #05 //017   ----------------------------------------
 BYTE   PATT
  POIN2 Label_01A50D86
//  #05 //018   ----------------------------------------
 BYTE   N24  Cn1  v044
 BYTE   W24
 BYTE   Ds1
 BYTE   W24
 BYTE   Cn1
 BYTE   W24
 BYTE   N12  Fs1
 BYTE   W12
 BYTE   Cn1
 BYTE   N12  Ds1
 BYTE   N12  Fs1
 BYTE   W12
//  #05 //019   ----------------------------------------
 BYTE   Cn1
 BYTE   N12  Ds1
 BYTE   W12
 BYTE   Cn1
 BYTE   N12  Ds1
 BYTE   W24
 BYTE   Cn1
 BYTE   N12  Ds1
 BYTE   W12
 BYTE   N24  Cn1
 BYTE   W24
 BYTE   Ds1
 BYTE   N12  Fs1
 BYTE   W12
 BYTE   N12
 BYTE   W12
//  #05 //020   ----------------------------------------
 BYTE   PATT
  POIN2 Label_01A50D86
//  #05 //021   ----------------------------------------
 BYTE   PATT
  POIN2 Label_01A50D86
//  #05 //022   ----------------------------------------
 BYTE   PATT
  POIN2 Label_01A50D86
//  #05 //023   ----------------------------------------
 BYTE   PATT
  POIN2 Label_01A50D86
//  #05 //024   ----------------------------------------
 BYTE   PATT
  POIN2 Label_01A50D86
//  #05 //025   ----------------------------------------
 BYTE   PATT
  POIN2 Label_01A50D86
//  #05 //026   ----------------------------------------
 BYTE   PATT
  POIN2 Label_01A50D86
//  #05 //027   ----------------------------------------
 BYTE   N24  Cn1  v044
 BYTE   N12  Fn1
 BYTE   N12  An1
 BYTE   W12
 BYTE   Fn1
 BYTE   N12  An1
 BYTE   N12  Bn1
 BYTE   W12
 BYTE   N24  Ds1
 BYTE   N12  An1
 BYTE   N12  Bn1
 BYTE   W12
 BYTE   N12
 BYTE   N12  Cn2
 BYTE   W12
 BYTE   N24  Cn1
 BYTE   N12  Fn1
 BYTE   N12  Bn1
 BYTE   N12  Cn2
 BYTE   W12
 BYTE   Fn1
 BYTE   N12  Cn2
 BYTE   N12  Dn2
 BYTE   W12
 BYTE   N24  Ds1
 BYTE   N12  Fn1
 BYTE   N12  Fs1
 BYTE   N12  Cn2
 BYTE   N12  Dn2
 BYTE   W12
 BYTE   Fn1
 BYTE   N12  Fs1
 BYTE   N12  Dn2
 BYTE   W12
//  #05 //028   ----------------------------------------
 BYTE   N24  Cn1
 BYTE   N48  Cs2
 BYTE   W24
 BYTE   N24  Dn1
 BYTE   W24
 BYTE   Cn1
 BYTE   W24
 BYTE   Dn1
 BYTE   N12  Fs1
 BYTE   W12
 BYTE   Ds1
 BYTE   N12  Fs1
 BYTE   W12
//  #05 //029   ----------------------------------------
Label_01A50E3D:
 BYTE   N24  Cn1  v044
 BYTE   W24
 BYTE   Dn1
 BYTE   W12
 BYTE   N12  Ds1
 BYTE   W12
 BYTE   N24  Cn1
 BYTE   N12  Ds1
 BYTE   W24
 BYTE   N24  Dn1
 BYTE   N12  Fs1
 BYTE   W12
 BYTE   Ds1
 BYTE   N12  Fs1
 BYTE   W12
 BYTE   PEND 
//  #05 //030   ----------------------------------------
 BYTE   PATT
  POIN2 Label_01A50E3D
//  #05 //031   ----------------------------------------
 BYTE   PATT
  POIN2 Label_01A50E3D
//  #05 //032   ----------------------------------------
 BYTE   PATT
  POIN2 Label_01A50E3D
//  #05 //033   ----------------------------------------
 BYTE   PATT
  POIN2 Label_01A50E3D
//  #05 //034   ----------------------------------------
 BYTE   PATT
  POIN2 Label_01A50E3D
//  #05 //035   ----------------------------------------
 BYTE   PATT
  POIN2 Label_01A50E3D
//  #05 //036   ----------------------------------------
 BYTE   PATT
  POIN2 Label_01A50E3D
//  #05 //037   ----------------------------------------
 BYTE   PATT
  POIN2 Label_01A50E3D
//  #05 //038   ----------------------------------------
 BYTE   PATT
  POIN2 Label_01A50E3D
//  #05 //039   ----------------------------------------
 BYTE   PATT
  POIN2 Label_01A50E3D
//  #05 //040   ----------------------------------------
 BYTE   PATT
  POIN2 Label_01A50E3D
//  #05 //041   ----------------------------------------
 BYTE   PATT
  POIN2 Label_01A50E3D
//  #05 //042   ----------------------------------------
 BYTE   PATT
  POIN2 Label_01A50E3D
//  #05 //043   ----------------------------------------
 BYTE   PATT
  POIN2 Label_01A50E3D
//  #05 //044   ----------------------------------------
Label_01A50E9B:
 BYTE   N48  Fs2  v044
 BYTE   W12
 BYTE   N12  Fs1
 BYTE   W24
 BYTE   N12
 BYTE   W12
 BYTE   N24  Fs2
 BYTE   W12
 BYTE   N12  Fs1
 BYTE   W12
 BYTE   N24  Fs2
 BYTE   W12
 BYTE   N12  Fs1
 BYTE   W12
 BYTE   PEND 
//  #05 //045   ----------------------------------------
 BYTE   PATT
  POIN2 Label_01A50E9B
//  #05 //046   ----------------------------------------
 BYTE   PATT
  POIN2 Label_01A50E9B
//  #05 //047   ----------------------------------------
 BYTE   PATT
  POIN2 Label_01A50E9B
//  #05 //048   ----------------------------------------
 BYTE   PATT
  POIN2 Label_01A50E9B
//  #05 //049   ----------------------------------------
 BYTE   PATT
  POIN2 Label_01A50E9B
//  #05 //050   ----------------------------------------
 BYTE   N48  Fs2  v044
 BYTE   W12
 BYTE   N12  Fs1
 BYTE   W24
 BYTE   N12
 BYTE   W12
 BYTE   N24  Fs2
 BYTE   W12
 BYTE   N12  Fs1
 BYTE   W12
 BYTE   Ds1
 BYTE   N24  Fs2
 BYTE   W12
 BYTE   N12  Ds1
 BYTE   N12  Fs1
 BYTE   W12
//  #05 //051   ----------------------------------------
 BYTE   Cn1
 BYTE   N12  Ds1
 BYTE   N12  An1
 BYTE   N48  Fs2
 BYTE   W12
 BYTE   N12  Cn1
 BYTE   N12  Ds1
 BYTE   N12  An1
 BYTE   W12
 BYTE   N12
 BYTE   N12  Bn1
 BYTE   W12
 BYTE   An1
 BYTE   N12  Bn1
 BYTE   W12
 BYTE   Cn1
 BYTE   N12  An1
 BYTE   N12  Bn1
 BYTE   N12  Cn2
 BYTE   N24  Fs2
 BYTE   W12
 BYTE   N12  Cn1
 BYTE   N12  Bn1
 BYTE   N12  Cn2
 BYTE   W12
 BYTE   Bn1
 BYTE   N12  Cn2
 BYTE   N24  Fs2
 BYTE   W12
 BYTE   N12  Cn1
 BYTE   N12  Cn2
 BYTE   W12
//  #05 //052   ----------------------------------------
 BYTE   Cn1
 BYTE   N12  Dn1
 BYTE   N12  Cn2
 BYTE   N48  Cs2
 BYTE   N24  Dn2
 BYTE   W24
 BYTE   Cn1
 BYTE   N12  Dn1
 BYTE   N24  Bn1
 BYTE   W24
 BYTE   Cn1
 BYTE   N12  Dn1
 BYTE   N24  Dn2
 BYTE   W24
 BYTE   Cn1
 BYTE   N12  Dn1
 BYTE   N24  Bn1
 BYTE   W24
//  #05 //053   ----------------------------------------
Label_01A50F31:
 BYTE   N24  Cn1  v044
 BYTE   N12  Dn1
 BYTE   N24  Dn2
 BYTE   W24
 BYTE   Cn1
 BYTE   N12  Dn1
 BYTE   N24  Bn1
 BYTE   W24
 BYTE   Cn1
 BYTE   N12  Dn1
 BYTE   N24  Dn2
 BYTE   W24
 BYTE   Cn1
 BYTE   N12  Dn1
 BYTE   N24  Bn1
 BYTE   W24
 BYTE   PEND 
//  #05 //054   ----------------------------------------
 BYTE   PATT
  POIN2 Label_01A50F31
//  #05 //055   ----------------------------------------
 BYTE   N24  Bn0  v044
 BYTE   N12  Dn1
 BYTE   N12  Fn1
 BYTE   N12  Gn1
 BYTE   N24  Dn2
 BYTE   W12
 BYTE   N12  Fn1
 BYTE   N12  Gn1
 BYTE   N12  An1
 BYTE   W12
 BYTE   Dn1
 BYTE   N12  Gn1
 BYTE   N12  An1
 BYTE   N12  Bn1
 BYTE   W12
 BYTE   An1
 BYTE   N12  Bn1
 BYTE   N12  Cn2
 BYTE   W12
 BYTE   N24  Bn0
 BYTE   N12  Dn1
 BYTE   N12  Fn1
 BYTE   N12  Bn1
 BYTE   N12  Cn2
 BYTE   N12  Dn2
 BYTE   W12
 BYTE   Fn1
 BYTE   N12  Cn2
 BYTE   N12  Dn2
 BYTE   W12
 BYTE   Dn1
 BYTE   N12  Dn2
 BYTE   W24
//  #05 //056   ----------------------------------------
 BYTE   N24  Cn1
 BYTE   N12  Dn1
 BYTE   N24  Cn2
 BYTE   N48  Cs2
 BYTE   W24
 BYTE   N24  Cn1
 BYTE   N12  Dn1
 BYTE   N24  Gn1
 BYTE   W24
 BYTE   Cn1
 BYTE   N12  Dn1
 BYTE   N24  Cn2
 BYTE   W24
 BYTE   Cn1
 BYTE   N12  Dn1
 BYTE   N24  Gn1
 BYTE   W24
//  #05 //057   ----------------------------------------
Label_01A50FA5:
 BYTE   N24  Cn1  v044
 BYTE   N12  Dn1
 BYTE   N24  Cn2
 BYTE   W24
 BYTE   Cn1
 BYTE   N12  Dn1
 BYTE   N24  Gn1
 BYTE   W24
 BYTE   Cn1
 BYTE   N12  Dn1
 BYTE   N24  Cn2
 BYTE   W24
 BYTE   Cn1
 BYTE   N12  Dn1
 BYTE   N24  Gn1
 BYTE   W24
 BYTE   PEND 
//  #05 //058   ----------------------------------------
 BYTE   PATT
  POIN2 Label_01A50FA5
//  #05 //059   ----------------------------------------
 BYTE   N24  Cn1  v044
 BYTE   N12  Dn1
 BYTE   N24  Cn2
 BYTE   W24
 BYTE   Cn1
 BYTE   N12  Dn1
 BYTE   N24  Gn1
 BYTE   W24
 BYTE   Cn1
 BYTE   N12  Dn1
 BYTE   N24  Cn2
 BYTE   W24
 BYTE   N12  Dn1
 BYTE   N12  Ds1
 BYTE   N24  Gn1
 BYTE   W12
 BYTE   N12  Ds1
 BYTE   W12
//  #05 //060   ----------------------------------------
 BYTE   N48  Cn1
 BYTE   N24  Dn1
 BYTE   N12  Ds1
 BYTE   W12
 BYTE   N12
 BYTE   N84  Cs2
 BYTE   W12
 BYTE   N24  Bn1
 BYTE   W24
 BYTE   N48  Cn1
 BYTE   N24  Dn1
 BYTE   W24
 BYTE   Bn1
 BYTE   W24
//  #05 //061   ----------------------------------------
Label_01A50FF8:
 BYTE   N48  Cn1  v044
 BYTE   N24  Dn1
 BYTE   N36  Ds1
 BYTE   W24
 BYTE   N24  Bn1
 BYTE   W24
 BYTE   N48  Cn1
 BYTE   N24  Dn1
 BYTE   N12  Ds1
 BYTE   W12
 BYTE   N12
 BYTE   W12
 BYTE   N24  Bn1
 BYTE   W24
 BYTE   PEND 
//  #05 //062   ----------------------------------------
 BYTE   PATT
  POIN2 Label_01A50FF8
//  #05 //063   ----------------------------------------
Label_01A51015:
 BYTE   N48  Cn1  v044
 BYTE   N24  Dn1
 BYTE   W24
 BYTE   Bn1
 BYTE   W24
 BYTE   N48  Cn1
 BYTE   N24  Dn1
 BYTE   W24
 BYTE   Bn1
 BYTE   W24
 BYTE   PEND 
//  #05 //064   ----------------------------------------
 BYTE   PATT
  POIN2 Label_01A51015
//  #05 //065   ----------------------------------------
 BYTE   PATT
  POIN2 Label_01A51015
//  #05 //066   ----------------------------------------
 BYTE   PATT
  POIN2 Label_01A50D2A
//  #05 //067   ----------------------------------------
 BYTE   PATT
  POIN2 Label_01A50D2A
//  #05 //068   ----------------------------------------
 BYTE   PATT
  POIN2 Label_01A50D2A
//  #05 //069   ----------------------------------------
 BYTE   N24  Fn1  v044
 BYTE   W24
 BYTE   Dn1
 BYTE   W24
 BYTE   Fn1
 BYTE   W24
 BYTE   Dn1
 BYTE   W12
 BYTE   N12  Cn2
 BYTE   W12
//  #05 //070   ----------------------------------------
 BYTE   N24  Fn1
 BYTE   N12  Bn1
 BYTE   N12  Cn2
 BYTE   W12
 BYTE   An1
 BYTE   N12  Bn1
 BYTE   W12
 BYTE   N24  Dn1
 BYTE   N12  An1
 BYTE   W24
 BYTE   N24  Fn1
 BYTE   W24
 BYTE   Dn1
 BYTE   W24
//  #05 //071   ----------------------------------------
 BYTE   PATT
  POIN2 Label_01A50D2A
//  #05 //072   ----------------------------------------
 BYTE   PATT
  POIN2 Label_01A50D2A
//  #05 //073   ----------------------------------------
 BYTE   N24  Fn1  v044
 BYTE   W24
 BYTE   Dn1
 BYTE   W24
 BYTE   Fn1
 BYTE   W24
 BYTE   Dn1
 BYTE   N24  Bn1
 BYTE   W24
//  #05 //074   ----------------------------------------
 BYTE   GoTo
  POIN2 Label_01A50D79
//  #05 //075   ----------------------------------------
 BYTE   W96
//  #05 //076   ----------------------------------------
 BYTE   W96
//  #05 //077   ----------------------------------------
 BYTE   W96
//  #05 //078   ----------------------------------------
 BYTE   W96
//  #05 //079   ----------------------------------------
 BYTE   W96
//  #05 //080   ----------------------------------------
 BYTE   W96
//  #05 //081   ----------------------------------------
 BYTE   W96
//  #05 //082   ----------------------------------------
 BYTE   W96
//  #05 //083   ----------------------------------------
 BYTE   W96
//  #05 //084   ----------------------------------------
 BYTE   W96
//  #05 //085   ----------------------------------------
 BYTE   W96
//  #05 //086   ----------------------------------------
 BYTE   W96
//  #05 //087   ----------------------------------------
 BYTE   W96
//  #05 //088   ----------------------------------------
 BYTE   W96
//  #05 //089   ----------------------------------------
 BYTE   W96
//  #05 //090   ----------------------------------------
 BYTE   W96
//  #05 //091   ----------------------------------------
 BYTE   W96
//  #05 //092   ----------------------------------------
 BYTE   W96
//  #05 //093   ----------------------------------------
 BYTE   W96
//  #05 //094   ----------------------------------------
 BYTE   W96
//  #05 //095   ----------------------------------------
 BYTE   W96
//  #05 //096   ----------------------------------------
 BYTE   W96
//  #05 //097   ----------------------------------------
 BYTE   W96
//  #05 //098   ----------------------------------------
 BYTE   W96
//  #05 //099   ----------------------------------------
 BYTE   W96
//  #05 //100   ----------------------------------------
 BYTE   W96
//  #05 //101   ----------------------------------------
 BYTE   W96
//  #05 //102   ----------------------------------------
 BYTE   W96
//  #05 //103   ----------------------------------------
 BYTE   W96
//  #05 //104   ----------------------------------------
 BYTE   W96
//  #05 //105   ----------------------------------------
 BYTE   W96
//  #05 //106   ----------------------------------------
 BYTE   W96
//  #05 //107   ----------------------------------------
 BYTE   W96
//  #05 //108   ----------------------------------------
 BYTE   W96
//  #05 //109   ----------------------------------------
 BYTE   W96
//  #05 //110   ----------------------------------------
 BYTE   W96
//  #05 //111   ----------------------------------------
 BYTE   W96
//  #05 //112   ----------------------------------------
 BYTE   W96
//  #05 //113   ----------------------------------------
 BYTE   W96
//  #05 //114   ----------------------------------------
 BYTE   W96
//  #05 //115   ----------------------------------------
 BYTE   W96
//  #05 //116   ----------------------------------------
 BYTE   W96
//  #05 //117   ----------------------------------------
 BYTE   W96
//  #05 //118   ----------------------------------------
 BYTE   W96
//  #05 //119   ----------------------------------------
 BYTE   W96
//  #05 //120   ----------------------------------------
 BYTE   W96
//  #05 //121   ----------------------------------------
 BYTE   W96
//  #05 //122   ----------------------------------------
 BYTE   W96
//  #05 //123   ----------------------------------------
 BYTE   W96
//  #05 //124   ----------------------------------------
 BYTE   W96
//  #05 //125   ----------------------------------------
 BYTE   W96
//  #05 //126   ----------------------------------------
 BYTE   W96
//  #05 //127   ----------------------------------------
 BYTE   W96
//  #05 //128   ----------------------------------------
 BYTE   W96
//  #05 //129   ----------------------------------------
 BYTE   W96
//  #05 //130   ----------------------------------------
 BYTE   W96
//  #05 //131   ----------------------------------------
 BYTE   W96
//  #05 //132   ----------------------------------------
 BYTE   W96
//  #05 //133   ----------------------------------------
 BYTE   W96
//  #05 //134   ----------------------------------------
 BYTE   W96
//  #05 //135   ----------------------------------------
 BYTE   W96
//  #05 //136   ----------------------------------------
 BYTE   W96
//  #05 //137   ----------------------------------------
 BYTE   W96
//  #05 //138   ----------------------------------------
 BYTE   W96
//  #05 //139   ----------------------------------------
 BYTE   W96
//  #05 //140   ----------------------------------------
 BYTE   W96
//  #05 //141   ----------------------------------------
 BYTE   W96
//  #05 //142   ----------------------------------------
 BYTE   W96
//  #05 //143   ----------------------------------------
 BYTE   W96
//  #05 //144   ----------------------------------------
 BYTE   W96
//  #05 //145   ----------------------------------------
 BYTE   W96
//  #05 //146   ----------------------------------------
 BYTE   W96
//  #05 //147   ----------------------------------------
 BYTE   W96
//  #05 //148   ----------------------------------------
 BYTE   W96
//  #05 //149   ----------------------------------------
 BYTE   W96
//  #05 //150   ----------------------------------------
 BYTE   W96
//  #05 //151   ----------------------------------------
 BYTE   W96
//  #05 //152   ----------------------------------------
 BYTE   W96
//  #05 //153   ----------------------------------------
 BYTE   W96
//  #05 //154   ----------------------------------------
 BYTE   W96
//  #05 //155   ----------------------------------------
 BYTE   W96
//  #05 //156   ----------------------------------------
 BYTE   W96
//  #05 //157   ----------------------------------------
 BYTE   W96
//  #05 //158   ----------------------------------------
 BYTE   W96
//  #05 //159   ----------------------------------------
 BYTE   W96
//  #05 //160   ----------------------------------------
 BYTE   W96
//  #05 //161   ----------------------------------------
 BYTE   W96
//  #05 //162   ----------------------------------------
 BYTE   W96
//  #05 //163   ----------------------------------------
 BYTE   W96
//  #05 //164   ----------------------------------------
 BYTE   W96
//  #05 //165   ----------------------------------------
 BYTE   W96
//  #05 //166   ----------------------------------------
 BYTE   W96
//  #05 //167   ----------------------------------------
 BYTE   W84
 BYTE   FINE

//******************************************************//
	ALIGN 4

Identity:
	BYTE	5	// NumTrks
	BYTE	0	// NumBlks
	BYTE	Identity_pri	// Priority
	BYTE	Identity_rev	// Reverb.
    
	POIN2	Identity_grp
    
	POIN2	Identity_001
	POIN2	Identity_002
	POIN2	Identity_003
	POIN2	Identity_004
	POIN2	Identity_005

	
