//Event file generated from Sappy .s format.
	#include "MPlayDef.event"

	#define	song03DF_grp  voicegroup000
	#define	song03DF_pri  0
	#define	song03DF_rev  0
	#define	song03DF_mvl  127
	#define	song03DF_key  0
	#define	song03DF_tbs  1
	#define	song03DF_exg  0
	#define	song03DF_cmp  1

	// .rodata
	//	song03DF
	ALIGN 4


//**************** Track 1 (Midi-Chn.0) ****************//

song03DF_001:
//  #01 //000   ----------------------------------------
 BYTE   KEYSH   song03DF_key+0
 BYTE   TEMPO   144*song03DF_tbs/2
 BYTE   VOICE   10
 BYTE   MODT 0
 BYTE   LFOS 44
 BYTE   VOL   80*song03DF_mvl/mxv
 BYTE   PAN   c_v+0
 BYTE   N11  Dn4  v052
 BYTE   W12
 BYTE   As3
 BYTE   W12
 BYTE   Fn4
 BYTE   W24
 BYTE   Dn4
 BYTE   W12
 BYTE   As3
 BYTE   W12
 BYTE   Cn4
 BYTE   W12
 BYTE   As3
 BYTE   W12
//  #01 //001   ----------------------------------------
Label_0112025E:
 BYTE   N11  As3  v052
 BYTE   W12
 BYTE   Dn3
 BYTE   W12
 BYTE   N05  Dn4
 BYTE   W12
 BYTE   Fn4
 BYTE   W12
 BYTE   N11  Dn4
 BYTE   W12
 BYTE   Cn4
 BYTE   W12
 BYTE   N22  As3
 BYTE   W24
 BYTE   PEND 
//  #01 //002   ----------------------------------------
Label_01120272:
 BYTE   N11  Dn4  v052
 BYTE   W12
 BYTE   As3
 BYTE   W12
 BYTE   Fn4
 BYTE   W24
 BYTE   Dn4
 BYTE   W12
 BYTE   As3
 BYTE   W12
 BYTE   Cn4
 BYTE   W12
 BYTE   As3
 BYTE   W12
 BYTE   PEND 
//  #01 //003   ----------------------------------------
 BYTE   N11
 BYTE   W12
 BYTE   Dn3
 BYTE   W12
 BYTE   N05  Fn4
 BYTE   W12
 BYTE   Dn4
 BYTE   W12
 BYTE   As3
 BYTE   W12
 BYTE   Cn4
 BYTE   W12
Label_01120290:
 BYTE   N22  As3  v052
 BYTE   W23
 BYTE   TEMPO   144*song03DF_tbs/2
 BYTE   W01
//  #01 //004   ----------------------------------------
 BYTE   TEMPO   144*song03DF_tbs/2
 BYTE   N11  Dn4
 BYTE   W12
 BYTE   As3
 BYTE   W12
 BYTE   Fn4
 BYTE   W24
 BYTE   Dn4
 BYTE   W12
 BYTE   As3
 BYTE   W12
 BYTE   Cn4
 BYTE   W12
 BYTE   As3
 BYTE   W12
//  #01 //005   ----------------------------------------
 BYTE   PATT
  POIN2 Label_0112025E
//  #01 //006   ----------------------------------------
 BYTE   PATT
  POIN2 Label_01120272
//  #01 //007   ----------------------------------------
 BYTE   N11  As3  v052
 BYTE   W12
 BYTE   Dn3
 BYTE   W12
 BYTE   N05  Fn4
 BYTE   W12
 BYTE   Dn4  v056
 BYTE   W12
 BYTE   As3
 BYTE   W12
 BYTE   Cn4
 BYTE   W12
 BYTE   N22  As3
 BYTE   W24
//  #01 //008   ----------------------------------------
 BYTE   W48
 BYTE   Fn3  v064
 BYTE   W24
 BYTE   As2
 BYTE   W24
//  #01 //009   ----------------------------------------
 BYTE   An2
 BYTE   N22  Cn3
 BYTE   W48
 BYTE   Dn3
 BYTE   W24
 BYTE   Fn3
 BYTE   W24
//  #01 //010   ----------------------------------------
Label_011202D3:
 BYTE   N22  As2  v064
 BYTE   W36
 BYTE   N11  Cn3
 BYTE   W12
 BYTE   N22  As2
 BYTE   W24
 BYTE   N11  Fn2
 BYTE   W12
 BYTE   As2
 BYTE   W12
 BYTE   PEND 
//  #01 //011   ----------------------------------------
 BYTE   Cn3
 BYTE   W12
 BYTE   As2
 BYTE   W12
 BYTE   Cn3
 BYTE   W12
 BYTE   As2
 BYTE   W12
 BYTE   N22
 BYTE   W48
//  #01 //012   ----------------------------------------
 BYTE   W36
 BYTE   N11
 BYTE   W12
 BYTE   N22  Fn3
 BYTE   W24
 BYTE   As2
 BYTE   W24
//  #01 //013   ----------------------------------------
 BYTE   An2
 BYTE   N22  Cn3
 BYTE   W36
 BYTE   N11
 BYTE   W12
 BYTE   N22  Dn3
 BYTE   W24
 BYTE   Fn3
 BYTE   W24
//  #01 //014   ----------------------------------------
 BYTE   PATT
  POIN2 Label_011202D3
//  #01 //015   ----------------------------------------
 BYTE   N11  Cn3  v064
 BYTE   W12
 BYTE   As2
 BYTE   W12
 BYTE   Cn3
 BYTE   W12
 BYTE   Fn3
 BYTE   W12
 BYTE   N22  As2
 BYTE   W24
 BYTE   An2
 BYTE   W24
//  #01 //016   ----------------------------------------
Label_01120314:
 BYTE   N22  As2  v060
 BYTE   W48
 BYTE   Fn3
 BYTE   W24
 BYTE   Dn3
 BYTE   W24
 BYTE   PEND 
//  #01 //017   ----------------------------------------
 BYTE   W24
 BYTE   As2
 BYTE   W24
 BYTE   Cn3
 BYTE   W24
 BYTE   Fn3
 BYTE   W24
//  #01 //018   ----------------------------------------
 BYTE   PATT
  POIN2 Label_01120314
//  #01 //019   ----------------------------------------
 BYTE   W24
 BYTE   N22  Dn3  v060
 BYTE   W24
 BYTE   Cn3
 BYTE   W24
 BYTE   As2
 BYTE   W24
//  #01 //020   ----------------------------------------
 BYTE   PATT
  POIN2 Label_01120314
//  #01 //021   ----------------------------------------
 BYTE   W24
 BYTE   N22  As2  v060
 BYTE   W24
 BYTE   Cn3
 BYTE   W24
 BYTE   As2
 BYTE   W24
//  #01 //022   ----------------------------------------
 BYTE   N22
 BYTE   W36
 BYTE   N11
 BYTE   W12
 BYTE   N11
 BYTE   W12
 BYTE   N22
 BYTE   W24
 BYTE   Cn3
 BYTE   W12
//  #01 //023   ----------------------------------------
 BYTE   N11  Fn3
 BYTE   W12
 BYTE   As2
 BYTE   W12
 BYTE   Cn3
 BYTE   W12
 BYTE   As2
 BYTE   W12
 BYTE   N22
 BYTE   N22  Dn3
 BYTE   W24
 BYTE   An2
 BYTE   W24
//  #01 //024   ----------------------------------------
 BYTE   As2  v052
 BYTE   N22  Ds3  v044
 BYTE   W24
 BYTE   As3
 BYTE   W24
 BYTE   Cn4
 BYTE   W24
 BYTE   Dn4
 BYTE   W24
//  #01 //025   ----------------------------------------
 BYTE   N22
 BYTE   W24
 BYTE   Cn4
 BYTE   W24
 BYTE   As3
 BYTE   W24
 BYTE   An3
 BYTE   N22  Cn4
 BYTE   W24
//  #01 //026   ----------------------------------------
 BYTE   As3
 BYTE   W24
 BYTE   N68
 BYTE   N68  Cn4
 BYTE   W72
//  #01 //027   ----------------------------------------
 BYTE   W12
 BYTE   N11  Gn4
 BYTE   W12
 BYTE   As4
 BYTE   W12
 BYTE   Gn4
 BYTE   W12
 BYTE   Fn4
 BYTE   W12
 BYTE   Dn4
 BYTE   W12
 BYTE   An3
 BYTE   N11  Fn4
 BYTE   W12
 BYTE   Dn4
 BYTE   W12
//  #01 //028   ----------------------------------------
 BYTE   N22  As3
 BYTE   N22  Cn4
 BYTE   W24
 BYTE   As3
 BYTE   W24
 BYTE   Cn4
 BYTE   W24
 BYTE   As3
 BYTE   W24
//  #01 //029   ----------------------------------------
 BYTE   Gn3
 BYTE   W24
 BYTE   As3
 BYTE   W24
 BYTE   Cn4
 BYTE   N22  Cs4
 BYTE   W24
 BYTE   Cn4
 BYTE   W24
//  #01 //030   ----------------------------------------
 BYTE   As3  v052
 BYTE   W36
 BYTE   N11  As3  v060
 BYTE   W12
 BYTE   N22  As3  v064
 BYTE   W24
 BYTE   N11  Gn3  v068
 BYTE   W12
 BYTE   As3  v072
 BYTE   W12
//  #01 //031   ----------------------------------------
 BYTE   Cn4  v076
 BYTE   W12
 BYTE   As3
 BYTE   W12
 BYTE   Cn4
 BYTE   W12
 BYTE   As3
 BYTE   W12
 BYTE   N22
 BYTE   W48
//  #01 //032   ----------------------------------------
Label_011203B9:
 BYTE   N11  Dn4  v076
 BYTE   W12
 BYTE   As3
 BYTE   W12
 BYTE   N22  Fn4
 BYTE   W24
 BYTE   N11  Dn4
 BYTE   W12
 BYTE   As3
 BYTE   W12
 BYTE   Cn4
 BYTE   W12
 BYTE   As3
 BYTE   W12
 BYTE   PEND 
//  #01 //033   ----------------------------------------
Label_011203CC:
 BYTE   N11  As3  v076
 BYTE   W12
 BYTE   Dn3
 BYTE   W12
 BYTE   Dn4
 BYTE   W12
 BYTE   Fn4
 BYTE   W12
 BYTE   Dn4
 BYTE   W12
 BYTE   Cn4
 BYTE   W12
 BYTE   N22  As3
 BYTE   W24
 BYTE   PEND 
//  #01 //034   ----------------------------------------
 BYTE   PATT
  POIN2 Label_011203B9
//  #01 //035   ----------------------------------------
Label_011203E3:
 BYTE   N11  As3  v076
 BYTE   W12
 BYTE   Dn3
 BYTE   W12
 BYTE   Fn4
 BYTE   W12
 BYTE   Dn4
 BYTE   W12
 BYTE   As3
 BYTE   W12
 BYTE   Cn4
 BYTE   W12
 BYTE   N22  As3
 BYTE   W24
 BYTE   PEND 
//  #01 //036   ----------------------------------------
 BYTE   PATT
  POIN2 Label_011203B9
//  #01 //037   ----------------------------------------
 BYTE   PATT
  POIN2 Label_011203CC
//  #01 //038   ----------------------------------------
 BYTE   PATT
  POIN2 Label_011203B9
//  #01 //039   ----------------------------------------
 BYTE   PATT
  POIN2 Label_011203E3
//  #01 //040   ----------------------------------------
Label_01120409:
 BYTE   N11  As3  v060
 BYTE   W12
 BYTE   Fn3
 BYTE   W12
 BYTE   N22  As3
 BYTE   N22  Cn4
 BYTE   N22  Cs4
 BYTE   W24
 BYTE   Cn4
 BYTE   N22  Cs4
 BYTE   W24
 BYTE   N11  Cn4
 BYTE   W12
 BYTE   As3
 BYTE   W12
 BYTE   PEND 
//  #01 //041   ----------------------------------------
Label_01120420:
 BYTE   W12
 BYTE   N11  Dn3  v076
 BYTE   W12
 BYTE   Cn4  v060
 BYTE   N11  Cs4
 BYTE   W12
 BYTE   Fn4  v076
 BYTE   W12
 BYTE   Cs4  v060
 BYTE   N11  Dn4
 BYTE   W12
 BYTE   Cn4  v076
 BYTE   W12
 BYTE   N22  As3
 BYTE   W24
 BYTE   PEND 
//  #01 //042   ----------------------------------------
Label_01120439:
 BYTE   N11  Cs4  v076
 BYTE   N11  Dn4  v060
 BYTE   W12
 BYTE   As3  v076
 BYTE   W12
 BYTE   N22  Fn4
 BYTE   W24
 BYTE   N11  Cs4
 BYTE   N11  Dn4  v060
 BYTE   W12
 BYTE   As3  v076
 BYTE   W12
 BYTE   Cn4
 BYTE   W12
 BYTE   As3
 BYTE   W12
 BYTE   PEND 
//  #01 //043   ----------------------------------------
 BYTE   W12
 BYTE   Dn3
 BYTE   W12
 BYTE   Fn4
 BYTE   W12
 BYTE   Cs4
 BYTE   N11  Dn4  v060
 BYTE   W12
 BYTE   As3  v076
 BYTE   W12
 BYTE   Cn4
 BYTE   W12
 BYTE   N22  As3
 BYTE   W23
 BYTE   TEMPO   144*song03DF_tbs/2
 BYTE   W01
//  #01 //044   ----------------------------------------
 BYTE   PATT
  POIN2 Label_01120409
//  #01 //045   ----------------------------------------
 BYTE   PATT
  POIN2 Label_01120420
//  #01 //046   ----------------------------------------
 BYTE   PATT
  POIN2 Label_01120439
//  #01 //047   ----------------------------------------
 BYTE   W12
 BYTE   N11  Fn3  v060
 BYTE   W12
 BYTE   Fn4
 BYTE   W12
 BYTE   Dn4
 BYTE   W12
 BYTE   As3
 BYTE   W12
 BYTE   Cn4
 BYTE   W12
 BYTE   N22  As3
 BYTE   W24
//  #01 //048   ----------------------------------------
Label_01120488:
 BYTE   N11  Ds4  v060
 BYTE   N11  Fn4
 BYTE   N11  As4
 BYTE   W60
 BYTE   N17  Ds4
 BYTE   N17  Fn4
 BYTE   N17  As4
 BYTE   W36
 BYTE   PEND 
//  #01 //049   ----------------------------------------
Label_01120498:
 BYTE   N11  Fn4  v060
 BYTE   N11  An4
 BYTE   N11  Cn5
 BYTE   W60
 BYTE   N17  Fn4
 BYTE   N17  An4
 BYTE   N17  Cn5
 BYTE   W36
 BYTE   PEND 
//  #01 //050   ----------------------------------------
Label_011204A8:
 BYTE   N11  Dn4  v060
 BYTE   N11  Gn4
 BYTE   N11  As4
 BYTE   W60
 BYTE   N17  Dn4
 BYTE   N17  Gn4
 BYTE   N17  As4
 BYTE   W36
 BYTE   PEND 
//  #01 //051   ----------------------------------------
 BYTE   N11  As3
 BYTE   N11  Dn4
 BYTE   N11  Fn4
 BYTE   W60
 BYTE   N17  As3
 BYTE   N17  Dn4
 BYTE   N17  Fn4
 BYTE   W36
//  #01 //052   ----------------------------------------
 BYTE   PATT
  POIN2 Label_01120488
//  #01 //053   ----------------------------------------
 BYTE   PATT
  POIN2 Label_01120498
//  #01 //054   ----------------------------------------
 BYTE   PATT
  POIN2 Label_011204A8
//  #01 //055   ----------------------------------------
 BYTE   N11  Dn4  v060
 BYTE   N11  Fn4
 BYTE   N11  As4
 BYTE   W96
//  #01 //056   ----------------------------------------
 BYTE   W48
 BYTE   N22  Fn3
 BYTE   W24
 BYTE   As2
 BYTE   W24
//  #01 //057   ----------------------------------------
Label_011204E3:
 BYTE   N22  Cn3  v060
 BYTE   W36
 BYTE   N11
 BYTE   W12
 BYTE   N22  Dn3
 BYTE   W24
 BYTE   Fn3
 BYTE   W24
 BYTE   PEND 
//  #01 //058   ----------------------------------------
 BYTE   As2
 BYTE   W36
 BYTE   N11
 BYTE   W12
 BYTE   N22
 BYTE   W24
 BYTE   N11  Fn2
 BYTE   W12
 BYTE   As2
 BYTE   W12
//  #01 //059   ----------------------------------------
 BYTE   Dn3
 BYTE   W12
 BYTE   N11
 BYTE   W12
 BYTE   N11
 BYTE   W12
 BYTE   Cn3
 BYTE   W12
 BYTE   N44  As2
 BYTE   W48
//  #01 //060   ----------------------------------------
 BYTE   W36
 BYTE   N11
 BYTE   W12
 BYTE   N22  Fn3
 BYTE   W24
 BYTE   As2
 BYTE   W24
//  #01 //061   ----------------------------------------
 BYTE   PATT
  POIN2 Label_011204E3
//  #01 //062   ----------------------------------------
 BYTE   N22  As2  v060
 BYTE   W36
 BYTE   N11  An2
 BYTE   W12
 BYTE   N22  As2
 BYTE   W24
 BYTE   N11  Fn2
 BYTE   W12
 BYTE   As2
 BYTE   W12
//  #01 //063   ----------------------------------------
 BYTE   Cn3
 BYTE   W12
 BYTE   As2
 BYTE   W12
 BYTE   Cn3
 BYTE   W12
 BYTE   Fn3
 BYTE   W12
 BYTE   N22  As2
 BYTE   N22  As3
 BYTE   W24
 BYTE   An2
 BYTE   N22  An3
 BYTE   W24
//  #01 //064   ----------------------------------------
 BYTE   As2
 BYTE   N22  As3
 BYTE   W48
 BYTE   Fn3  v076
 BYTE   W24
 BYTE   Dn3
 BYTE   W24
//  #01 //065   ----------------------------------------
 BYTE   W24
 BYTE   As2
 BYTE   W24
 BYTE   Cn3
 BYTE   W24
 BYTE   Fn3
 BYTE   W24
//  #01 //066   ----------------------------------------
Label_01120542:
 BYTE   N22  As2  v076
 BYTE   W48
 BYTE   Fn3
 BYTE   W24
 BYTE   Dn3
 BYTE   W24
 BYTE   PEND 
//  #01 //067   ----------------------------------------
 BYTE   W24
 BYTE   N22
 BYTE   W24
 BYTE   Cn3
 BYTE   W24
 BYTE   As2
 BYTE   W24
//  #01 //068   ----------------------------------------
 BYTE   PATT
  POIN2 Label_01120542
//  #01 //069   ----------------------------------------
 BYTE   W24
 BYTE   N22  As2  v076
 BYTE   W24
 BYTE   Cn3
 BYTE   W24
 BYTE   As2
 BYTE   W24
//  #01 //070   ----------------------------------------
 BYTE   N22
 BYTE   W36
 BYTE   N11
 BYTE   W12
 BYTE   N11
 BYTE   W12
 BYTE   N22
 BYTE   W24
 BYTE   Cn3
 BYTE   W12
//  #01 //071   ----------------------------------------
 BYTE   W12
 BYTE   N11  As2
 BYTE   W12
 BYTE   Cn3
 BYTE   W12
 BYTE   As2
 BYTE   W12
 BYTE   N22
 BYTE   W24
 BYTE   An2
 BYTE   W24
//  #01 //072   ----------------------------------------
 BYTE   As2
 BYTE   W48
 BYTE   Fn4  v056
 BYTE   W24
 BYTE   Dn4
 BYTE   W24
//  #01 //073   ----------------------------------------
 BYTE   W24
 BYTE   As3
 BYTE   W24
 BYTE   Cn4
 BYTE   W24
 BYTE   As3
 BYTE   W24
//  #01 //074   ----------------------------------------
 BYTE   N22
 BYTE   W48
 BYTE   Fn4
 BYTE   W24
 BYTE   Dn4
 BYTE   W24
//  #01 //075   ----------------------------------------
 BYTE   W24
 BYTE   N23  As3  v092
 BYTE   N23  As4
 BYTE   W24
 BYTE   An3
 BYTE   N23  An4
 BYTE   W24
 BYTE   Fn3  v080
 BYTE   N23  Fn4
 BYTE   W24
//  #01 //076   ----------------------------------------
 BYTE   N44  Cn3  v088
 BYTE   N44  Cn4
 BYTE   W72
 BYTE   N22  As3  v048
 BYTE   W24
//  #01 //077   ----------------------------------------
 BYTE   Dn4
 BYTE   W24
 BYTE   Fn4
 BYTE   W24
 BYTE   Cn4
 BYTE   W24
 BYTE   Dn4
 BYTE   W24
//  #01 //078   ----------------------------------------
 BYTE   N44  As3
 BYTE   W96
//  #01 //079   ----------------------------------------
 BYTE   W48
 BYTE   N44
 BYTE   W48
//  #01 //080   ----------------------------------------
Label_011205B2:
 BYTE   N68  Fn4  v048
 BYTE   W72
 BYTE   N22  Dn4
 BYTE   W24
 BYTE   PEND 
//  #01 //081   ----------------------------------------
 BYTE   N11  Cn4
 BYTE   W12
 BYTE   Fn3
 BYTE   W12
 BYTE   N22
 BYTE   N22  Dn4
 BYTE   W48
 BYTE   Fn3
 BYTE   W24
//  #01 //082   ----------------------------------------
 BYTE   As3
 BYTE   W24
 BYTE   N22
 BYTE   W24
 BYTE   An3
 BYTE   W24
 BYTE   As3
 BYTE   W24
//  #01 //083   ----------------------------------------
 BYTE   N22
 BYTE   W48
 BYTE   An3
 BYTE   W24
 BYTE   As3
 BYTE   W24
//  #01 //084   ----------------------------------------
 BYTE   PATT
  POIN2 Label_011205B2
//  #01 //085   ----------------------------------------
 BYTE   N22  Cn4  v048
 BYTE   W24
 BYTE   Dn4
 BYTE   W24
 BYTE   Cn4
 BYTE   W24
 BYTE   As3
 BYTE   W24
//  #01 //086   ----------------------------------------
 BYTE   N44  Cn4
 BYTE   W48
 BYTE   N22  An3
 BYTE   W24
 BYTE   As3
 BYTE   W24
//  #01 //087   ----------------------------------------
 BYTE   W24
 BYTE   N11  Dn4  v032
 BYTE   W24
 BYTE   N22  Cn4
 BYTE   W24
 BYTE   As3
 BYTE   W24
//  #01 //088   ----------------------------------------
Label_011205F4:
 BYTE   N11  As3  v060
 BYTE   W12
 BYTE   N05  Fn4
 BYTE   W12
 BYTE   N22
 BYTE   W24
 BYTE   N11  Dn4
 BYTE   W12
 BYTE   As3
 BYTE   W12
 BYTE   Cn4
 BYTE   W12
 BYTE   As3
 BYTE   W12
 BYTE   PEND 
//  #01 //089   ----------------------------------------
Label_01120607:
 BYTE   N11  Cn4  v060
 BYTE   W12
 BYTE   N05  Dn4
 BYTE   W12
 BYTE   N11
 BYTE   W12
 BYTE   N05  Fn4
 BYTE   W12
 BYTE   N11  Dn4
 BYTE   W12
 BYTE   Cn4
 BYTE   W12
 BYTE   As3
 BYTE   W12
 BYTE   Cn4
 BYTE   W12
 BYTE   PEND 
//  #01 //090   ----------------------------------------
 BYTE   PATT
  POIN2 Label_011205F4
//  #01 //091   ----------------------------------------
 BYTE   N05  Fn4  v060
 BYTE   W12
 BYTE   Dn4
 BYTE   W12
 BYTE   N11  Fn4
 BYTE   W12
 BYTE   Dn4
 BYTE   W12
 BYTE   N05  As3
 BYTE   W12
 BYTE   Cn4
 BYTE   W12
 BYTE   N22  As3
 BYTE   W23
 BYTE   TEMPO   144*song03DF_tbs/2
 BYTE   W01
//  #01 //092   ----------------------------------------
 BYTE   PATT
  POIN2 Label_011205F4
//  #01 //093   ----------------------------------------
 BYTE   PATT
  POIN2 Label_01120607
//  #01 //094   ----------------------------------------
 BYTE   PATT
  POIN2 Label_011205F4
//  #01 //095   ----------------------------------------
 BYTE   N11  Fn4  v060
 BYTE   W12
 BYTE   N05  Dn4
 BYTE   W12
 BYTE   N11
 BYTE   W12
 BYTE   N05  As3
 BYTE   W12
 BYTE   N05
 BYTE   W12
 BYTE   Fn4
 BYTE   W12
 BYTE   N22  As3
 BYTE   W24
//  #01 //096   ----------------------------------------
Label_0112065A:
 BYTE   TIE  Fn3  v060
 BYTE   TIE  As3  v076
 BYTE   W96
 BYTE   PEND 
//  #01 //097   ----------------------------------------
 BYTE   W40
 BYTE   EOT
 BYTE   Fn3  v070
 BYTE   W32
 BYTE   N22  Dn3  v060
 BYTE   N22  An3  v076
 BYTE   W24
//  #01 //098   ----------------------------------------
 BYTE   PATT
  POIN2 Label_0112065A
//  #01 //099   ----------------------------------------
 BYTE   W40
 BYTE   EOT
 BYTE   Fn3  v070
 BYTE   W32
 BYTE   N22  Cn3  v060
 BYTE   N22  An3  v076
 BYTE   W24
//  #01 //100   ----------------------------------------
 BYTE   Dn3  v060
 BYTE   N22  As3  v076
 BYTE   W24
 BYTE   N11  Fn3  v060
 BYTE   W12
 BYTE   N32  As3
 BYTE   W36
 BYTE   N22  Cn4
 BYTE   W24
//  #01 //101   ----------------------------------------
 BYTE   As3
 BYTE   W48
 BYTE   N22
 BYTE   W24
 BYTE   Cn3  v088
 BYTE   N22  Cn4
 BYTE   W24
//  #01 //102   ----------------------------------------
 BYTE   As2
 BYTE   N22  As3
 BYTE   W36
 BYTE   N11  Cn4  v092
 BYTE   W12
 BYTE   N22  As3  v096
 BYTE   W24
 BYTE   N11  An3  v100
 BYTE   W12
 BYTE   As3
 BYTE   W12
//  #01 //103   ----------------------------------------
 BYTE   Cn4  v104
 BYTE   W12
 BYTE   As3
 BYTE   W12
 BYTE   Cn4
 BYTE   W12
 BYTE   As3
 BYTE   W12
 BYTE   N22
 BYTE   W48
//  #01 //104   ----------------------------------------
 BYTE   N32  Gn3  v092
 BYTE   N32  As3
 BYTE   N32  Dn4
 BYTE   W36
 BYTE   N22  Gn3
 BYTE   N22  As3
 BYTE   N22  Dn4
 BYTE   N22  Fn4
 BYTE   W24
 BYTE   N11  Fn3
 BYTE   W12
 BYTE   As3
 BYTE   W12
 BYTE   Fn4
 BYTE   W12
//  #01 //105   ----------------------------------------
 BYTE   Cn4
 BYTE   W12
 BYTE   Fn3
 BYTE   W12
 BYTE   As3
 BYTE   W12
 BYTE   N22  Cn4
 BYTE   N22  Cs4
 BYTE   W24
 BYTE   Cn4
 BYTE   W24
 BYTE   N56  As3
 BYTE   W12
//  #01 //106   ----------------------------------------
 BYTE   W60
 BYTE   N17  Gn3
 BYTE   N17  As3
 BYTE   W18
 BYTE   Gn3
 BYTE   N17  As3
 BYTE   W18
//  #01 //107   ----------------------------------------
 BYTE   W12
 BYTE   N11  Gn3
 BYTE   W12
 BYTE   As3
 BYTE   W12
 BYTE   N22  Cn4
 BYTE   N22  Cs4
 BYTE   W24
 BYTE   N11  Dn4
 BYTE   W12
 BYTE   Fn4
 BYTE   W12
 BYTE   Dn4
 BYTE   W12
//  #01 //108   ----------------------------------------
 BYTE   N32  Gs4
 BYTE   N32  An4
 BYTE   W01
 BYTE   As4
 BYTE   W32
 BYTE   W03
 BYTE   Gs4
 BYTE   N32  An4
 BYTE   W01
 BYTE   As4
 BYTE   W32
 BYTE   W03
 BYTE   N11  Fn4
 BYTE   W12
 BYTE   Dn4
 BYTE   W12
//  #01 //109   ----------------------------------------
 BYTE   N23  As3
 BYTE   N23  Cn4
 BYTE   W24
 BYTE   N22  Dn4
 BYTE   W24
 BYTE   N23  As3
 BYTE   N23  Dn4
 BYTE   W24
 BYTE   Cn4
 BYTE   N23  Cs4
 BYTE   W24
//  #01 //110   ----------------------------------------
 BYTE   N90  As3
 BYTE   W96
//  #01 //111   ----------------------------------------
 BYTE   W12
 BYTE   N11  Fn3
 BYTE   W12
 BYTE   As3
 BYTE   W12
 BYTE   N22  Cn4
 BYTE   N22  Cs4
 BYTE   W24
 BYTE   Cn4
 BYTE   W24
 BYTE   N11  As3
 BYTE   W12
//  #01 //112   ----------------------------------------
Label_01120731:
 BYTE   N11  Dn4  v092
 BYTE   W12
 BYTE   As3
 BYTE   W12
 BYTE   N22  Fn4
 BYTE   W24
 BYTE   N11  Dn4
 BYTE   W12
 BYTE   As3
 BYTE   W12
 BYTE   Cn4
 BYTE   W12
 BYTE   As3
 BYTE   W12
 BYTE   PEND 
//  #01 //113   ----------------------------------------
Label_01120744:
 BYTE   N11  As3  v092
 BYTE   W12
 BYTE   Dn3
 BYTE   W12
 BYTE   Dn4
 BYTE   W12
 BYTE   Fn4
 BYTE   W12
 BYTE   Dn4
 BYTE   W12
 BYTE   Cn4
 BYTE   W12
 BYTE   N22  As3
 BYTE   W24
 BYTE   PEND 
//  #01 //114   ----------------------------------------
 BYTE   PATT
  POIN2 Label_01120731
//  #01 //115   ----------------------------------------
Label_0112075B:
 BYTE   N11  As3  v092
 BYTE   W12
 BYTE   Dn3
 BYTE   W12
 BYTE   Fn4
 BYTE   W12
 BYTE   Dn4
 BYTE   W12
 BYTE   As3
 BYTE   W12
 BYTE   Cn4
 BYTE   W12
 BYTE   N22  As3
 BYTE   W24
 BYTE   PEND 
//  #01 //116   ----------------------------------------
 BYTE   PATT
  POIN2 Label_01120731
//  #01 //117   ----------------------------------------
 BYTE   PATT
  POIN2 Label_01120744
//  #01 //118   ----------------------------------------
 BYTE   PATT
  POIN2 Label_01120731
//  #01 //119   ----------------------------------------
 BYTE   PATT
  POIN2 Label_0112075B
//  #01 //120   ----------------------------------------
 BYTE   W48
 BYTE   N22  Fn3  v048
 BYTE   W24
 BYTE   Dn3
 BYTE   W24
//  #01 //121   ----------------------------------------
 BYTE   W24
 BYTE   As2
 BYTE   W24
 BYTE   Cn3
 BYTE   W24
 BYTE   As2
 BYTE   W24
//  #01 //122   ----------------------------------------
 BYTE   N22
 BYTE   W48
 BYTE   Fn3
 BYTE   W24
 BYTE   Dn3
 BYTE   W24
//  #01 //123   ----------------------------------------
 BYTE   W24
 BYTE   As3
 BYTE   W24
 BYTE   An3
 BYTE   W24
 BYTE   Fn3  v040
 BYTE   W24
//  #01 //124   ----------------------------------------
 BYTE   N44  Cn3  v044
 BYTE   W72
 BYTE   N22  As2  v048
 BYTE   W24
//  #01 //125   ----------------------------------------
 BYTE   Dn3
 BYTE   W24
 BYTE   Fn3
 BYTE   W24
 BYTE   Cn3
 BYTE   W24
 BYTE   Dn3
 BYTE   W24
//  #01 //126   ----------------------------------------
 BYTE   N44  As2
 BYTE   W60
 BYTE   N17
 BYTE   W18
 BYTE   N17
 BYTE   W18
//  #01 //127   ----------------------------------------
 BYTE   W48
 BYTE   N44  As2  v064
 BYTE   N44  Fn3
 BYTE   W48
//  #01 //128   ----------------------------------------
 BYTE   N44
 BYTE   N44  As3
 BYTE   W72
 BYTE   N22  As2
 BYTE   N22  Fn3
 BYTE   W24
//  #01 //129   ----------------------------------------
 BYTE   Cn3
 BYTE   W24
 BYTE   Fn2
 BYTE   N22  Dn3
 BYTE   W48
 BYTE   Fn2
 BYTE   W24
//  #01 //130   ----------------------------------------
 BYTE   As2
 BYTE   N22  Dn3
 BYTE   W24
 BYTE   As2
 BYTE   N22  Dn3
 BYTE   W24
 BYTE   An2
 BYTE   N22  Cn3
 BYTE   W24
 BYTE   As2
 BYTE   N22  Dn3
 BYTE   W24
//  #01 //131   ----------------------------------------
 BYTE   As2
 BYTE   N22  Dn3
 BYTE   W48
 BYTE   An2
 BYTE   N22  Dn3
 BYTE   W24
 BYTE   As2
 BYTE   N22  Dn3
 BYTE   W24
//  #01 //132   ----------------------------------------
 BYTE   N44  Fn3
 BYTE   N44  As3
 BYTE   W72
 BYTE   N22  Dn3
 BYTE   N22  Fn3
 BYTE   W24
//  #01 //133   ----------------------------------------
 BYTE   Cn3
 BYTE   N22  Ds3
 BYTE   W24
 BYTE   Dn3
 BYTE   N22  Fn3
 BYTE   W24
 BYTE   Cn3
 BYTE   N22  Ds3
 BYTE   W24
 BYTE   As2
 BYTE   N22  Dn3
 BYTE   W24
//  #01 //134   ----------------------------------------
 BYTE   N44  Cn3
 BYTE   N44  Ds3
 BYTE   W48
 BYTE   N22  An2
 BYTE   N22  Cn3
 BYTE   W24
 BYTE   As2
 BYTE   N22  Dn3
 BYTE   W24
//  #01 //135   ----------------------------------------
 BYTE   W24
 BYTE   N23  Dn3  v080
 BYTE   N23  Dn4
 BYTE   W24
 BYTE   Cn3
 BYTE   N23  Cn4
 BYTE   W24
 BYTE   As2
 BYTE   N23  As3
 BYTE   W24
//  #01 //136   ----------------------------------------
 BYTE   PATT
  POIN2 Label_01120272
//  #01 //137   ----------------------------------------
 BYTE   PATT
  POIN2 Label_0112025E
//  #01 //138   ----------------------------------------
 BYTE   PATT
  POIN2 Label_01120272
//  #01 //139   ----------------------------------------
 BYTE   N11  As3  v052
 BYTE   W12
 BYTE   Dn3
 BYTE   W12
 BYTE   N05  Fn4
 BYTE   W12
 BYTE   Dn4
 BYTE   W12
 BYTE   As3
 BYTE   W12
 BYTE   Cn4
 BYTE   W12
 BYTE   N22  As3
 BYTE   W23
 BYTE   TEMPO   144*song03DF_tbs/2
 BYTE   W01
//  #01 //140   ----------------------------------------
 BYTE   GoTo
  POIN2 Label_01120290
//  #01 //141   ----------------------------------------
 BYTE   PATT
  POIN2 Label_01120272
//  #01 //142   ----------------------------------------
 BYTE   PATT
  POIN2 Label_0112025E
//  #01 //143   ----------------------------------------
 BYTE   PATT
  POIN2 Label_01120272
//  #01 //144   ----------------------------------------
 BYTE   N11  As3  v052
 BYTE   W12
 BYTE   Dn3
 BYTE   W12
 BYTE   N05  Fn4
 BYTE   W12
 BYTE   Dn4
 BYTE   W12
 BYTE   As3
 BYTE   W12
 BYTE   Cn4
 BYTE   W12
 BYTE   N22  As3
 BYTE   W22
 BYTE   FINE

//**************** Track 2 (Midi-Chn.1) ****************//

song03DF_002:
//  #02 //000   ----------------------------------------
 BYTE   KEYSH   song03DF_key+0
 BYTE   VOICE   1
 BYTE   MODT 0
 BYTE   LFOS 44
 BYTE   VOL   43*song03DF_mvl/mxv
 BYTE   PAN   c_v+0
 BYTE   W96
//  #02 //001   ----------------------------------------
 BYTE   W96
//  #02 //002   ----------------------------------------
 BYTE   W96
//  #02 //003   ----------------------------------------
 BYTE   W72
Label_01120888:
 BYTE   W24
//  #02 //004   ----------------------------------------
 BYTE   W96
//  #02 //005   ----------------------------------------
 BYTE   W96
//  #02 //006   ----------------------------------------
 BYTE   W96
//  #02 //007   ----------------------------------------
 BYTE   W96
//  #02 //008   ----------------------------------------
 BYTE   W48
 BYTE   N22  Fn2  v064
 BYTE   W24
 BYTE   As1
 BYTE   W24
//  #02 //009   ----------------------------------------
 BYTE   An1
 BYTE   N22  Cn2
 BYTE   W48
 BYTE   Dn2
 BYTE   W24
 BYTE   Fn2
 BYTE   W24
//  #02 //010   ----------------------------------------
Label_0112089C:
 BYTE   N22  As1  v064
 BYTE   W36
 BYTE   N11  Cn2
 BYTE   W12
 BYTE   N22  As1
 BYTE   W24
 BYTE   N11  Fn1
 BYTE   W12
 BYTE   As1
 BYTE   W12
 BYTE   PEND 
//  #02 //011   ----------------------------------------
 BYTE   Cn2
 BYTE   W12
 BYTE   As1
 BYTE   W12
 BYTE   Cn2
 BYTE   W12
 BYTE   As1
 BYTE   W12
 BYTE   N22
 BYTE   W48
//  #02 //012   ----------------------------------------
 BYTE   W36
 BYTE   N11
 BYTE   W12
 BYTE   N22  Fn2
 BYTE   W24
 BYTE   As1
 BYTE   W24
//  #02 //013   ----------------------------------------
 BYTE   An1
 BYTE   N22  Cn2
 BYTE   W36
 BYTE   N11
 BYTE   W12
 BYTE   N22  Dn2
 BYTE   W24
 BYTE   Fn2
 BYTE   W24
//  #02 //014   ----------------------------------------
 BYTE   PATT
  POIN2 Label_0112089C
//  #02 //015   ----------------------------------------
 BYTE   N11  Cn2  v064
 BYTE   W12
 BYTE   As1
 BYTE   W12
 BYTE   Cn2
 BYTE   W12
 BYTE   Fn2
 BYTE   W12
 BYTE   N22  As1
 BYTE   W24
 BYTE   An1
 BYTE   W24
//  #02 //016   ----------------------------------------
Label_011208DD:
 BYTE   N22  As1  v060
 BYTE   W48
 BYTE   Fn2
 BYTE   W24
 BYTE   Dn2
 BYTE   W24
 BYTE   PEND 
//  #02 //017   ----------------------------------------
 BYTE   W24
 BYTE   As1
 BYTE   W24
 BYTE   Cn2
 BYTE   W24
 BYTE   Fn2
 BYTE   W24
//  #02 //018   ----------------------------------------
 BYTE   PATT
  POIN2 Label_011208DD
//  #02 //019   ----------------------------------------
 BYTE   W24
 BYTE   N22  Dn2  v060
 BYTE   W24
 BYTE   Cn2
 BYTE   W24
 BYTE   As1
 BYTE   W24
//  #02 //020   ----------------------------------------
 BYTE   PATT
  POIN2 Label_011208DD
//  #02 //021   ----------------------------------------
 BYTE   W24
 BYTE   N22  As1  v060
 BYTE   W24
 BYTE   Cn2
 BYTE   W24
 BYTE   As1
 BYTE   W24
//  #02 //022   ----------------------------------------
 BYTE   N22
 BYTE   W36
 BYTE   N11
 BYTE   W12
 BYTE   N11
 BYTE   W12
 BYTE   N22
 BYTE   W24
 BYTE   Cn2
 BYTE   W12
//  #02 //023   ----------------------------------------
 BYTE   N11  Fn2
 BYTE   W12
 BYTE   As1
 BYTE   W12
 BYTE   Cn2
 BYTE   W12
 BYTE   As1
 BYTE   W12
 BYTE   N22
 BYTE   N22  Dn2
 BYTE   W24
 BYTE   An1
 BYTE   W24
//  #02 //024   ----------------------------------------
 BYTE   As1  v052
 BYTE   N22  Ds2  v044
 BYTE   W24
 BYTE   As2
 BYTE   W24
 BYTE   Cn3
 BYTE   W24
 BYTE   Dn3
 BYTE   W24
//  #02 //025   ----------------------------------------
 BYTE   N22
 BYTE   W24
 BYTE   Cn3
 BYTE   W24
 BYTE   As2
 BYTE   W24
 BYTE   An2
 BYTE   N22  Cn3
 BYTE   W24
//  #02 //026   ----------------------------------------
 BYTE   As2
 BYTE   W24
 BYTE   N68
 BYTE   N68  Cn3
 BYTE   W72
//  #02 //027   ----------------------------------------
 BYTE   W12
 BYTE   N11  Gn3
 BYTE   W12
 BYTE   As3
 BYTE   W12
 BYTE   Gn3
 BYTE   W12
 BYTE   Fn3
 BYTE   W12
 BYTE   Dn3
 BYTE   W12
 BYTE   An2
 BYTE   N11  Fn3
 BYTE   W12
 BYTE   Dn3
 BYTE   W12
//  #02 //028   ----------------------------------------
 BYTE   N22  As2
 BYTE   N22  Cn3
 BYTE   W24
 BYTE   As2
 BYTE   W24
 BYTE   Cn3
 BYTE   W24
 BYTE   As2
 BYTE   W24
//  #02 //029   ----------------------------------------
 BYTE   Gn2
 BYTE   W24
 BYTE   As2
 BYTE   W24
 BYTE   Cn3
 BYTE   N22  Cs3
 BYTE   W24
 BYTE   Cn3
 BYTE   W24
//  #02 //030   ----------------------------------------
 BYTE   As2  v052
 BYTE   W36
 BYTE   N11  As2  v060
 BYTE   W12
 BYTE   N22  As2  v064
 BYTE   W24
 BYTE   N11  Gn2  v068
 BYTE   W12
 BYTE   As2  v072
 BYTE   W12
//  #02 //031   ----------------------------------------
 BYTE   Cn3  v076
 BYTE   W12
 BYTE   As2
 BYTE   W12
 BYTE   Cn3
 BYTE   W12
 BYTE   As2
 BYTE   W12
 BYTE   N22
 BYTE   W48
//  #02 //032   ----------------------------------------
Label_01120982:
 BYTE   N11  Dn3  v076
 BYTE   W12
 BYTE   As2
 BYTE   W12
 BYTE   N22  Fn3
 BYTE   W24
 BYTE   N11  Dn3
 BYTE   W12
 BYTE   As2
 BYTE   W12
 BYTE   Cn3
 BYTE   W12
 BYTE   As2
 BYTE   W12
 BYTE   PEND 
//  #02 //033   ----------------------------------------
Label_01120995:
 BYTE   N11  As2  v076
 BYTE   W12
 BYTE   Dn2
 BYTE   W12
 BYTE   Dn3
 BYTE   W12
 BYTE   Fn3
 BYTE   W12
 BYTE   Dn3
 BYTE   W12
 BYTE   Cn3
 BYTE   W12
 BYTE   N22  As2
 BYTE   W24
 BYTE   PEND 
//  #02 //034   ----------------------------------------
 BYTE   PATT
  POIN2 Label_01120982
//  #02 //035   ----------------------------------------
Label_011209AC:
 BYTE   N11  As2  v076
 BYTE   W12
 BYTE   Dn2
 BYTE   W12
 BYTE   Fn3
 BYTE   W12
 BYTE   Dn3
 BYTE   W12
 BYTE   As2
 BYTE   W12
 BYTE   Cn3
 BYTE   W12
 BYTE   N22  As2
 BYTE   W24
 BYTE   PEND 
//  #02 //036   ----------------------------------------
 BYTE   PATT
  POIN2 Label_01120982
//  #02 //037   ----------------------------------------
 BYTE   PATT
  POIN2 Label_01120995
//  #02 //038   ----------------------------------------
 BYTE   PATT
  POIN2 Label_01120982
//  #02 //039   ----------------------------------------
 BYTE   PATT
  POIN2 Label_011209AC
//  #02 //040   ----------------------------------------
Label_011209D2:
 BYTE   N11  As2  v060
 BYTE   W12
 BYTE   Fn2
 BYTE   W12
 BYTE   N22  As2
 BYTE   N22  Cn3
 BYTE   N22  Cs3
 BYTE   W24
 BYTE   Cn3
 BYTE   N22  Cs3
 BYTE   W24
 BYTE   N11  Cn3
 BYTE   W12
 BYTE   As2
 BYTE   W12
 BYTE   PEND 
//  #02 //041   ----------------------------------------
Label_011209E9:
 BYTE   W12
 BYTE   N11  Dn2  v076
 BYTE   W12
 BYTE   Cn3  v060
 BYTE   N11  Cs3
 BYTE   W12
 BYTE   Fn3  v076
 BYTE   W12
 BYTE   Cs3  v060
 BYTE   N11  Dn3
 BYTE   W12
 BYTE   Cn3  v076
 BYTE   W12
 BYTE   N22  As2
 BYTE   W24
 BYTE   PEND 
//  #02 //042   ----------------------------------------
Label_01120A02:
 BYTE   N11  Cs3  v076
 BYTE   N11  Dn3  v060
 BYTE   W12
 BYTE   As2  v076
 BYTE   W12
 BYTE   N22  Fn3
 BYTE   W24
 BYTE   N11  Cs3
 BYTE   N11  Dn3  v060
 BYTE   W12
 BYTE   As2  v076
 BYTE   W12
 BYTE   Cn3
 BYTE   W12
 BYTE   As2
 BYTE   W12
 BYTE   PEND 
//  #02 //043   ----------------------------------------
 BYTE   W12
 BYTE   Dn2
 BYTE   W12
 BYTE   Fn3
 BYTE   W12
 BYTE   Cs3
 BYTE   N11  Dn3  v060
 BYTE   W12
 BYTE   As2  v076
 BYTE   W12
 BYTE   Cn3
 BYTE   W12
 BYTE   N22  As2
 BYTE   W24
//  #02 //044   ----------------------------------------
 BYTE   PATT
  POIN2 Label_011209D2
//  #02 //045   ----------------------------------------
 BYTE   PATT
  POIN2 Label_011209E9
//  #02 //046   ----------------------------------------
 BYTE   PATT
  POIN2 Label_01120A02
//  #02 //047   ----------------------------------------
 BYTE   W12
 BYTE   N11  Fn2  v060
 BYTE   W12
 BYTE   Fn3
 BYTE   W12
 BYTE   Dn3
 BYTE   W12
 BYTE   As2
 BYTE   W12
 BYTE   Cn3
 BYTE   W12
 BYTE   N22  As2
 BYTE   W24
//  #02 //048   ----------------------------------------
Label_01120A4E:
 BYTE   N11  Ds3  v060
 BYTE   N11  Fn3
 BYTE   N11  As3
 BYTE   W60
 BYTE   N17  Ds3
 BYTE   N17  Fn3
 BYTE   N17  As3
 BYTE   W36
 BYTE   PEND 
//  #02 //049   ----------------------------------------
Label_01120A5E:
 BYTE   N11  Fn3  v060
 BYTE   N11  An3
 BYTE   N11  Cn4
 BYTE   W60
 BYTE   N17  Fn3
 BYTE   N17  An3
 BYTE   N17  Cn4
 BYTE   W36
 BYTE   PEND 
//  #02 //050   ----------------------------------------
Label_01120A6E:
 BYTE   N11  Dn3  v060
 BYTE   N11  Gn3
 BYTE   N11  As3
 BYTE   W60
 BYTE   N17  Dn3
 BYTE   N17  Gn3
 BYTE   N17  As3
 BYTE   W36
 BYTE   PEND 
//  #02 //051   ----------------------------------------
 BYTE   N11  As2
 BYTE   N11  Dn3
 BYTE   N11  Fn3
 BYTE   W60
 BYTE   N17  As2
 BYTE   N17  Dn3
 BYTE   N17  Fn3
 BYTE   W36
//  #02 //052   ----------------------------------------
 BYTE   PATT
  POIN2 Label_01120A4E
//  #02 //053   ----------------------------------------
 BYTE   PATT
  POIN2 Label_01120A5E
//  #02 //054   ----------------------------------------
 BYTE   PATT
  POIN2 Label_01120A6E
//  #02 //055   ----------------------------------------
 BYTE   N11  Dn3  v060
 BYTE   N11  Fn3
 BYTE   N11  As3
 BYTE   W96
//  #02 //056   ----------------------------------------
 BYTE   W48
 BYTE   N22  Fn2
 BYTE   W24
 BYTE   As1
 BYTE   W24
//  #02 //057   ----------------------------------------
Label_01120AA9:
 BYTE   N22  Cn2  v060
 BYTE   W36
 BYTE   N11
 BYTE   W12
 BYTE   N22  Dn2
 BYTE   W24
 BYTE   Fn2
 BYTE   W24
 BYTE   PEND 
//  #02 //058   ----------------------------------------
 BYTE   As1
 BYTE   W36
 BYTE   N11
 BYTE   W12
 BYTE   N22
 BYTE   W24
 BYTE   N11  Fn1
 BYTE   W12
 BYTE   As1
 BYTE   W12
//  #02 //059   ----------------------------------------
 BYTE   Dn2
 BYTE   W12
 BYTE   N11
 BYTE   W12
 BYTE   N11
 BYTE   W12
 BYTE   Cn2
 BYTE   W12
 BYTE   N44  As1
 BYTE   W48
//  #02 //060   ----------------------------------------
 BYTE   W36
 BYTE   N11
 BYTE   W12
 BYTE   N22  Fn2
 BYTE   W24
 BYTE   As1
 BYTE   W24
//  #02 //061   ----------------------------------------
 BYTE   PATT
  POIN2 Label_01120AA9
//  #02 //062   ----------------------------------------
 BYTE   N22  As1  v060
 BYTE   W36
 BYTE   N11  An1
 BYTE   W12
 BYTE   N22  As1
 BYTE   W24
 BYTE   N11  Fn1
 BYTE   W12
 BYTE   As1
 BYTE   W12
//  #02 //063   ----------------------------------------
 BYTE   Cn2
 BYTE   W12
 BYTE   As1
 BYTE   W12
 BYTE   Cn2
 BYTE   W12
 BYTE   Fn2
 BYTE   W12
 BYTE   N22  As1
 BYTE   N22  As2
 BYTE   W24
 BYTE   An1
 BYTE   N22  An2
 BYTE   W24
//  #02 //064   ----------------------------------------
 BYTE   As1
 BYTE   N22  As2
 BYTE   W48
 BYTE   Fn2  v076
 BYTE   W24
 BYTE   Dn2
 BYTE   W24
//  #02 //065   ----------------------------------------
 BYTE   W24
 BYTE   As1
 BYTE   W24
 BYTE   Cn2
 BYTE   W24
 BYTE   Fn2
 BYTE   W24
//  #02 //066   ----------------------------------------
Label_01120B08:
 BYTE   N22  As1  v076
 BYTE   W48
 BYTE   Fn2
 BYTE   W24
 BYTE   Dn2
 BYTE   W24
 BYTE   PEND 
//  #02 //067   ----------------------------------------
 BYTE   W24
 BYTE   N22
 BYTE   W24
 BYTE   Cn2
 BYTE   W24
 BYTE   As1
 BYTE   W24
//  #02 //068   ----------------------------------------
 BYTE   PATT
  POIN2 Label_01120B08
//  #02 //069   ----------------------------------------
 BYTE   W24
 BYTE   N22  As1  v076
 BYTE   W24
 BYTE   Cn2
 BYTE   W24
 BYTE   As1
 BYTE   W24
//  #02 //070   ----------------------------------------
 BYTE   N22
 BYTE   W36
 BYTE   N11
 BYTE   W12
 BYTE   N11
 BYTE   W12
 BYTE   N22
 BYTE   W24
 BYTE   Cn2
 BYTE   W12
//  #02 //071   ----------------------------------------
 BYTE   W12
 BYTE   N11  As1
 BYTE   W12
 BYTE   Cn2
 BYTE   W12
 BYTE   As1
 BYTE   W12
 BYTE   N22
 BYTE   W24
 BYTE   An1
 BYTE   W24
//  #02 //072   ----------------------------------------
 BYTE   As1
 BYTE   W48
 BYTE   Fn3  v056
 BYTE   W24
 BYTE   Dn3
 BYTE   W24
//  #02 //073   ----------------------------------------
 BYTE   W24
 BYTE   As2
 BYTE   W24
 BYTE   Cn3
 BYTE   W24
 BYTE   As2
 BYTE   W24
//  #02 //074   ----------------------------------------
 BYTE   N22
 BYTE   W48
 BYTE   Fn3
 BYTE   W24
 BYTE   Dn3
 BYTE   W24
//  #02 //075   ----------------------------------------
 BYTE   W24
 BYTE   N23  As2  v092
 BYTE   N23  As3
 BYTE   W24
 BYTE   An2
 BYTE   N23  An3
 BYTE   W24
 BYTE   Fn2  v080
 BYTE   N23  Fn3
 BYTE   W24
//  #02 //076   ----------------------------------------
 BYTE   N44  Cn2  v088
 BYTE   N44  Cn3
 BYTE   W72
 BYTE   N22  As2  v048
 BYTE   W24
//  #02 //077   ----------------------------------------
 BYTE   Dn3
 BYTE   W24
 BYTE   Fn3
 BYTE   W24
 BYTE   Cn3
 BYTE   W24
 BYTE   Dn3
 BYTE   W24
//  #02 //078   ----------------------------------------
 BYTE   N44  As2
 BYTE   W96
//  #02 //079   ----------------------------------------
 BYTE   W48
 BYTE   N44
 BYTE   W48
//  #02 //080   ----------------------------------------
Label_01120B78:
 BYTE   N68  Fn3  v048
 BYTE   W72
 BYTE   N22  Dn3
 BYTE   W24
 BYTE   PEND 
//  #02 //081   ----------------------------------------
 BYTE   N11  Cn3
 BYTE   W12
 BYTE   Fn2
 BYTE   W12
 BYTE   N22
 BYTE   N22  Dn3
 BYTE   W48
 BYTE   Fn2
 BYTE   W24
//  #02 //082   ----------------------------------------
 BYTE   As2
 BYTE   W24
 BYTE   N22
 BYTE   W24
 BYTE   An2
 BYTE   W24
 BYTE   As2
 BYTE   W24
//  #02 //083   ----------------------------------------
 BYTE   N22
 BYTE   W48
 BYTE   An2
 BYTE   W24
 BYTE   As2
 BYTE   W24
//  #02 //084   ----------------------------------------
 BYTE   PATT
  POIN2 Label_01120B78
//  #02 //085   ----------------------------------------
 BYTE   N22  Cn3  v048
 BYTE   W24
 BYTE   Dn3
 BYTE   W24
 BYTE   Cn3
 BYTE   W24
 BYTE   As2
 BYTE   W24
//  #02 //086   ----------------------------------------
 BYTE   N44  Cn3
 BYTE   W48
 BYTE   N22  An2
 BYTE   W24
 BYTE   As2
 BYTE   W24
//  #02 //087   ----------------------------------------
 BYTE   W24
 BYTE   N11  Dn3  v032
 BYTE   W24
 BYTE   N22  Cn3
 BYTE   W24
 BYTE   As2
 BYTE   W24
//  #02 //088   ----------------------------------------
Label_01120BBA:
 BYTE   N11  As2  v060
 BYTE   W12
 BYTE   N05  Fn3
 BYTE   W12
 BYTE   N22
 BYTE   W24
 BYTE   N11  Dn3
 BYTE   W12
 BYTE   As2
 BYTE   W12
 BYTE   Cn3
 BYTE   W12
 BYTE   As2
 BYTE   W12
 BYTE   PEND 
//  #02 //089   ----------------------------------------
Label_01120BCD:
 BYTE   N11  Cn3  v060
 BYTE   W12
 BYTE   N05  Dn3
 BYTE   W12
 BYTE   N11
 BYTE   W12
 BYTE   N05  Fn3
 BYTE   W12
 BYTE   N11  Dn3
 BYTE   W12
 BYTE   Cn3
 BYTE   W12
 BYTE   As2
 BYTE   W12
 BYTE   Cn3
 BYTE   W12
 BYTE   PEND 
//  #02 //090   ----------------------------------------
 BYTE   PATT
  POIN2 Label_01120BBA
//  #02 //091   ----------------------------------------
 BYTE   N05  Fn3  v060
 BYTE   W12
 BYTE   Dn3
 BYTE   W12
 BYTE   N11  Fn3
 BYTE   W12
 BYTE   Dn3
 BYTE   W12
 BYTE   N05  As2
 BYTE   W12
 BYTE   Cn3
 BYTE   W12
 BYTE   N22  As2
 BYTE   W24
//  #02 //092   ----------------------------------------
 BYTE   PATT
  POIN2 Label_01120BBA
//  #02 //093   ----------------------------------------
 BYTE   PATT
  POIN2 Label_01120BCD
//  #02 //094   ----------------------------------------
 BYTE   PATT
  POIN2 Label_01120BBA
//  #02 //095   ----------------------------------------
 BYTE   N11  Fn3  v060
 BYTE   W12
 BYTE   N05  Dn3
 BYTE   W12
 BYTE   N11
 BYTE   W12
 BYTE   N05  As2
 BYTE   W12
 BYTE   N05
 BYTE   W12
 BYTE   Fn3
 BYTE   W12
 BYTE   N22  As2
 BYTE   W24
//  #02 //096   ----------------------------------------
Label_01120C1D:
 BYTE   TIE  Fn2  v060
 BYTE   TIE  As2  v076
 BYTE   W96
 BYTE   PEND 
//  #02 //097   ----------------------------------------
 BYTE   W40
 BYTE   EOT
 BYTE   Fn2  v058
 BYTE   W32
 BYTE   N22  Dn2  v060
 BYTE   N22  An2  v076
 BYTE   W24
//  #02 //098   ----------------------------------------
 BYTE   PATT
  POIN2 Label_01120C1D
//  #02 //099   ----------------------------------------
 BYTE   W40
 BYTE   EOT
 BYTE   Fn2  v058
 BYTE   W32
 BYTE   N22  Cn2  v060
 BYTE   N22  An2  v076
 BYTE   W24
//  #02 //100   ----------------------------------------
 BYTE   Dn2  v060
 BYTE   N22  As2  v076
 BYTE   W24
 BYTE   N11  Fn2  v060
 BYTE   W12
 BYTE   N32  As2
 BYTE   W36
 BYTE   N22  Cn3
 BYTE   W24
//  #02 //101   ----------------------------------------
 BYTE   As2
 BYTE   W48
 BYTE   N22
 BYTE   W24
 BYTE   Cn2  v088
 BYTE   N22  Cn3
 BYTE   W24
//  #02 //102   ----------------------------------------
 BYTE   As1
 BYTE   N22  As2
 BYTE   W36
 BYTE   N11  Cn3  v092
 BYTE   W12
 BYTE   N22  As2  v096
 BYTE   W24
 BYTE   N11  An2  v100
 BYTE   W12
 BYTE   As2
 BYTE   W12
//  #02 //103   ----------------------------------------
 BYTE   Cn3  v104
 BYTE   W12
 BYTE   As2
 BYTE   W12
 BYTE   Cn3
 BYTE   W12
 BYTE   As2
 BYTE   W12
 BYTE   N22
 BYTE   W48
//  #02 //104   ----------------------------------------
 BYTE   N32  Gn2  v092
 BYTE   N32  As2
 BYTE   N32  Dn3
 BYTE   W36
 BYTE   N22  Gn2
 BYTE   N22  As2
 BYTE   N22  Dn3
 BYTE   N22  Fn3
 BYTE   W24
 BYTE   N11  Fn2
 BYTE   W12
 BYTE   As2
 BYTE   W12
 BYTE   Fn3
 BYTE   W12
//  #02 //105   ----------------------------------------
 BYTE   Cn3
 BYTE   W12
 BYTE   Fn2
 BYTE   W12
 BYTE   As2
 BYTE   W12
 BYTE   N22  Cn3
 BYTE   N22  Cs3
 BYTE   W24
 BYTE   Cn3
 BYTE   W24
 BYTE   N56  As2
 BYTE   W12
//  #02 //106   ----------------------------------------
 BYTE   W60
 BYTE   N17  Gn2
 BYTE   N17  As2
 BYTE   W18
 BYTE   Gn2
 BYTE   N17  As2
 BYTE   W18
//  #02 //107   ----------------------------------------
 BYTE   W12
 BYTE   N11  Gn2
 BYTE   W12
 BYTE   As2
 BYTE   W12
 BYTE   N22  Cn3
 BYTE   N22  Cs3
 BYTE   W24
 BYTE   N11  Dn3
 BYTE   W12
 BYTE   Fn3
 BYTE   W12
 BYTE   Dn3
 BYTE   W12
//  #02 //108   ----------------------------------------
 BYTE   N32  Gs3
 BYTE   N32  An3
 BYTE   W01
 BYTE   As3
 BYTE   W32
 BYTE   W03
 BYTE   Gs3
 BYTE   N32  An3
 BYTE   W01
 BYTE   As3
 BYTE   W32
 BYTE   W03
 BYTE   N11  Fn3
 BYTE   W12
 BYTE   Dn3
 BYTE   W12
//  #02 //109   ----------------------------------------
 BYTE   N23  As2
 BYTE   N23  Cn3
 BYTE   W24
 BYTE   N22  Dn3
 BYTE   W24
 BYTE   N23  As2
 BYTE   N23  Dn3
 BYTE   W24
 BYTE   Cn3
 BYTE   N23  Cs3
 BYTE   W24
//  #02 //110   ----------------------------------------
 BYTE   N90  As2
 BYTE   W96
//  #02 //111   ----------------------------------------
 BYTE   W12
 BYTE   N11  Fn2
 BYTE   W12
 BYTE   As2
 BYTE   W12
 BYTE   N22  Cn3
 BYTE   N22  Cs3
 BYTE   W24
 BYTE   Cn3
 BYTE   W24
 BYTE   N11  As2
 BYTE   W12
//  #02 //112   ----------------------------------------
Label_01120CF4:
 BYTE   N11  Dn3  v092
 BYTE   W12
 BYTE   As2
 BYTE   W12
 BYTE   N22  Fn3
 BYTE   W24
 BYTE   N11  Dn3
 BYTE   W12
 BYTE   As2
 BYTE   W12
 BYTE   Cn3
 BYTE   W12
 BYTE   As2
 BYTE   W12
 BYTE   PEND 
//  #02 //113   ----------------------------------------
Label_01120D07:
 BYTE   N11  As2  v092
 BYTE   W12
 BYTE   Dn2
 BYTE   W12
 BYTE   Dn3
 BYTE   W12
 BYTE   Fn3
 BYTE   W12
 BYTE   Dn3
 BYTE   W12
 BYTE   Cn3
 BYTE   W12
 BYTE   N22  As2
 BYTE   W24
 BYTE   PEND 
//  #02 //114   ----------------------------------------
 BYTE   PATT
  POIN2 Label_01120CF4
//  #02 //115   ----------------------------------------
Label_01120D1E:
 BYTE   N11  As2  v092
 BYTE   W12
 BYTE   Dn2
 BYTE   W12
 BYTE   Fn3
 BYTE   W12
 BYTE   Dn3
 BYTE   W12
 BYTE   As2
 BYTE   W12
 BYTE   Cn3
 BYTE   W12
 BYTE   N22  As2
 BYTE   W24
 BYTE   PEND 
//  #02 //116   ----------------------------------------
 BYTE   PATT
  POIN2 Label_01120CF4
//  #02 //117   ----------------------------------------
 BYTE   PATT
  POIN2 Label_01120D07
//  #02 //118   ----------------------------------------
 BYTE   PATT
  POIN2 Label_01120CF4
//  #02 //119   ----------------------------------------
 BYTE   PATT
  POIN2 Label_01120D1E
//  #02 //120   ----------------------------------------
 BYTE   W48
 BYTE   N22  Fn2  v048
 BYTE   W24
 BYTE   Dn2
 BYTE   W24
//  #02 //121   ----------------------------------------
 BYTE   W24
 BYTE   As1
 BYTE   W24
 BYTE   Cn2
 BYTE   W24
 BYTE   As1
 BYTE   W24
//  #02 //122   ----------------------------------------
 BYTE   N22
 BYTE   W48
 BYTE   Fn2
 BYTE   W24
 BYTE   Dn2
 BYTE   W24
//  #02 //123   ----------------------------------------
 BYTE   W24
 BYTE   As2
 BYTE   W24
 BYTE   An2
 BYTE   W24
 BYTE   Fn2  v040
 BYTE   W24
//  #02 //124   ----------------------------------------
 BYTE   N44  Cn2  v044
 BYTE   W72
 BYTE   N22  As1  v048
 BYTE   W24
//  #02 //125   ----------------------------------------
 BYTE   Dn2
 BYTE   W24
 BYTE   Fn2
 BYTE   W24
 BYTE   Cn2
 BYTE   W24
 BYTE   Dn2
 BYTE   W24
//  #02 //126   ----------------------------------------
 BYTE   N44  As1
 BYTE   W60
 BYTE   N17
 BYTE   W18
 BYTE   N17
 BYTE   W18
//  #02 //127   ----------------------------------------
 BYTE   W48
 BYTE   N44  As1  v064
 BYTE   N44  Fn2
 BYTE   W48
//  #02 //128   ----------------------------------------
 BYTE   N44
 BYTE   N44  As2
 BYTE   W72
 BYTE   N22  As1
 BYTE   N22  Fn2
 BYTE   W24
//  #02 //129   ----------------------------------------
 BYTE   Cn2
 BYTE   W24
 BYTE   Fn1
 BYTE   N22  Dn2
 BYTE   W48
 BYTE   Fn1
 BYTE   W24
//  #02 //130   ----------------------------------------
 BYTE   As1
 BYTE   N22  Dn2
 BYTE   W24
 BYTE   As1
 BYTE   N22  Dn2
 BYTE   W24
 BYTE   An1
 BYTE   N22  Cn2
 BYTE   W24
 BYTE   As1
 BYTE   N22  Dn2
 BYTE   W24
//  #02 //131   ----------------------------------------
 BYTE   As1
 BYTE   N22  Dn2
 BYTE   W48
 BYTE   An1
 BYTE   N22  Dn2
 BYTE   W24
 BYTE   As1
 BYTE   N22  Dn2
 BYTE   W24
//  #02 //132   ----------------------------------------
 BYTE   N44  Fn2
 BYTE   N44  As2
 BYTE   W72
 BYTE   N22  Dn2
 BYTE   N22  Fn2
 BYTE   W24
//  #02 //133   ----------------------------------------
 BYTE   Cn2
 BYTE   N22  Ds2
 BYTE   W24
 BYTE   Dn2
 BYTE   N22  Fn2
 BYTE   W24
 BYTE   Cn2
 BYTE   N22  Ds2
 BYTE   W24
 BYTE   As1
 BYTE   N22  Dn2
 BYTE   W24
//  #02 //134   ----------------------------------------
 BYTE   N44  Cn2
 BYTE   N44  Ds2
 BYTE   W48
 BYTE   N22  An1
 BYTE   N22  Cn2
 BYTE   W24
 BYTE   As1
 BYTE   N22  Dn2
 BYTE   W24
//  #02 //135   ----------------------------------------
 BYTE   W24
 BYTE   N23  Dn2  v080
 BYTE   N23  Dn3
 BYTE   W24
 BYTE   Cn2
 BYTE   N23  Cn3
 BYTE   W24
 BYTE   As1
 BYTE   N23  As2
 BYTE   W24
//  #02 //136   ----------------------------------------
Label_01120DE2:
 BYTE   N11  Dn3  v052
 BYTE   W12
 BYTE   As2
 BYTE   W12
 BYTE   Fn3
 BYTE   W24
 BYTE   Dn3
 BYTE   W12
 BYTE   As2
 BYTE   W12
 BYTE   Cn3
 BYTE   W12
 BYTE   As2
 BYTE   W12
 BYTE   PEND 
//  #02 //137   ----------------------------------------
Label_01120DF3:
 BYTE   N11  As2  v052
 BYTE   W12
 BYTE   Dn2
 BYTE   W12
 BYTE   N05  Dn3
 BYTE   W12
 BYTE   Fn3
 BYTE   W12
 BYTE   N11  Dn3
 BYTE   W12
 BYTE   Cn3
 BYTE   W12
 BYTE   N22  As2
 BYTE   W24
 BYTE   PEND 
//  #02 //138   ----------------------------------------
 BYTE   PATT
  POIN2 Label_01120DE2
//  #02 //139   ----------------------------------------
 BYTE   N11  As2  v052
 BYTE   W12
 BYTE   Dn2
 BYTE   W12
 BYTE   N05  Fn3
 BYTE   W12
 BYTE   Dn3
 BYTE   W12
 BYTE   As2
 BYTE   W12
 BYTE   Cn3
 BYTE   W12
 BYTE   N22  As2
 BYTE   W24
//  #02 //140   ----------------------------------------
 BYTE   GoTo
  POIN2 Label_01120888
//  #02 //141   ----------------------------------------
 BYTE   PATT
  POIN2 Label_01120DE2
//  #02 //142   ----------------------------------------
 BYTE   PATT
  POIN2 Label_01120DF3
//  #02 //143   ----------------------------------------
 BYTE   PATT
  POIN2 Label_01120DE2
//  #02 //144   ----------------------------------------
 BYTE   N11  As2  v052
 BYTE   W12
 BYTE   Dn2
 BYTE   W12
 BYTE   N05  Fn3
 BYTE   W12
 BYTE   Dn3
 BYTE   W12
 BYTE   As2
 BYTE   W12
 BYTE   Cn3
 BYTE   W12
 BYTE   N22  As2
 BYTE   W22
 BYTE   FINE

//**************** Track 3 (Midi-Chn.2) ****************//

song03DF_003:
//  #03 //000   ----------------------------------------
 BYTE   KEYSH   song03DF_key+0
 BYTE   VOICE   54
 BYTE   MODT 0
 BYTE   LFOS 44
 BYTE   VOL   61*song03DF_mvl/mxv
 BYTE   PAN   c_v+0
 BYTE   W96
//  #03 //001   ----------------------------------------
 BYTE   W96
//  #03 //002   ----------------------------------------
 BYTE   W96
//  #03 //003   ----------------------------------------
 BYTE   W72
Label_01120E58:
 BYTE   W24
//  #03 //004   ----------------------------------------
 BYTE   W96
//  #03 //005   ----------------------------------------
 BYTE   W96
//  #03 //006   ----------------------------------------
 BYTE   W96
//  #03 //007   ----------------------------------------
 BYTE   W96
//  #03 //008   ----------------------------------------
 BYTE   W48
 BYTE   N22  Fn4  v064
 BYTE   W24
 BYTE   As3
 BYTE   W24
//  #03 //009   ----------------------------------------
 BYTE   An3
 BYTE   N22  Cn4
 BYTE   W48
 BYTE   Dn4
 BYTE   W24
 BYTE   Fn4
 BYTE   W24
//  #03 //010   ----------------------------------------
Label_01120E6C:
 BYTE   N22  As3  v064
 BYTE   W36
 BYTE   N11  Cn4
 BYTE   W12
 BYTE   N22  As3
 BYTE   W24
 BYTE   N11  Fn3
 BYTE   W12
 BYTE   As3
 BYTE   W12
 BYTE   PEND 
//  #03 //011   ----------------------------------------
 BYTE   Cn4
 BYTE   W12
 BYTE   As3
 BYTE   W12
 BYTE   Cn4
 BYTE   W12
 BYTE   As3
 BYTE   W12
 BYTE   N22
 BYTE   W48
//  #03 //012   ----------------------------------------
 BYTE   W36
 BYTE   N11
 BYTE   W12
 BYTE   N22  Fn4
 BYTE   W24
 BYTE   As3
 BYTE   W24
//  #03 //013   ----------------------------------------
 BYTE   An3
 BYTE   N22  Cn4
 BYTE   W36
 BYTE   N11
 BYTE   W12
 BYTE   N22  Dn4
 BYTE   W24
 BYTE   Fn4
 BYTE   W24
//  #03 //014   ----------------------------------------
 BYTE   PATT
  POIN2 Label_01120E6C
//  #03 //015   ----------------------------------------
 BYTE   N11  Cn4  v064
 BYTE   W12
 BYTE   As3
 BYTE   W12
 BYTE   Cn4
 BYTE   W12
 BYTE   Fn4
 BYTE   W12
 BYTE   N22  As3
 BYTE   W24
 BYTE   An3
 BYTE   W24
//  #03 //016   ----------------------------------------
Label_01120EAD:
 BYTE   N22  As3  v060
 BYTE   W48
 BYTE   Fn4
 BYTE   W24
 BYTE   Dn4
 BYTE   W24
 BYTE   PEND 
//  #03 //017   ----------------------------------------
 BYTE   W24
 BYTE   As3
 BYTE   W24
 BYTE   Cn4
 BYTE   W24
 BYTE   Fn4
 BYTE   W24
//  #03 //018   ----------------------------------------
 BYTE   PATT
  POIN2 Label_01120EAD
//  #03 //019   ----------------------------------------
 BYTE   W24
 BYTE   N22  Dn4  v060
 BYTE   W24
 BYTE   Cn4
 BYTE   W24
 BYTE   As3
 BYTE   W24
//  #03 //020   ----------------------------------------
 BYTE   PATT
  POIN2 Label_01120EAD
//  #03 //021   ----------------------------------------
 BYTE   W24
 BYTE   N22  As3  v060
 BYTE   W24
 BYTE   Cn4
 BYTE   W24
 BYTE   As3
 BYTE   W24
//  #03 //022   ----------------------------------------
 BYTE   N22
 BYTE   W36
 BYTE   N11
 BYTE   W12
 BYTE   N11
 BYTE   W12
 BYTE   N22
 BYTE   W24
 BYTE   Cn4
 BYTE   W12
//  #03 //023   ----------------------------------------
 BYTE   N11  Fn4
 BYTE   W12
 BYTE   As3
 BYTE   W12
 BYTE   Cn4
 BYTE   W12
 BYTE   As3
 BYTE   W12
 BYTE   N22
 BYTE   N22  Dn4
 BYTE   W24
 BYTE   An3
 BYTE   W24
//  #03 //024   ----------------------------------------
 BYTE   W96
//  #03 //025   ----------------------------------------
 BYTE   W96
//  #03 //026   ----------------------------------------
 BYTE   W96
//  #03 //027   ----------------------------------------
 BYTE   W96
//  #03 //028   ----------------------------------------
 BYTE   W96
//  #03 //029   ----------------------------------------
 BYTE   W96
//  #03 //030   ----------------------------------------
 BYTE   W96
//  #03 //031   ----------------------------------------
 BYTE   W96
//  #03 //032   ----------------------------------------
 BYTE   W96
//  #03 //033   ----------------------------------------
 BYTE   W96
//  #03 //034   ----------------------------------------
 BYTE   W96
//  #03 //035   ----------------------------------------
 BYTE   W96
//  #03 //036   ----------------------------------------
 BYTE   W96
//  #03 //037   ----------------------------------------
 BYTE   W96
//  #03 //038   ----------------------------------------
 BYTE   W96
//  #03 //039   ----------------------------------------
 BYTE   W96
//  #03 //040   ----------------------------------------
 BYTE   W96
//  #03 //041   ----------------------------------------
 BYTE   W96
//  #03 //042   ----------------------------------------
 BYTE   W96
//  #03 //043   ----------------------------------------
 BYTE   W96
//  #03 //044   ----------------------------------------
 BYTE   W96
//  #03 //045   ----------------------------------------
 BYTE   W96
//  #03 //046   ----------------------------------------
 BYTE   W96
//  #03 //047   ----------------------------------------
 BYTE   W96
//  #03 //048   ----------------------------------------
 BYTE   W96
//  #03 //049   ----------------------------------------
 BYTE   W96
//  #03 //050   ----------------------------------------
 BYTE   W96
//  #03 //051   ----------------------------------------
 BYTE   W96
//  #03 //052   ----------------------------------------
 BYTE   W96
//  #03 //053   ----------------------------------------
 BYTE   W96
//  #03 //054   ----------------------------------------
 BYTE   W96
//  #03 //055   ----------------------------------------
 BYTE   W96
//  #03 //056   ----------------------------------------
 BYTE   W96
//  #03 //057   ----------------------------------------
 BYTE   W96
//  #03 //058   ----------------------------------------
 BYTE   W96
//  #03 //059   ----------------------------------------
 BYTE   W96
//  #03 //060   ----------------------------------------
 BYTE   W96
//  #03 //061   ----------------------------------------
 BYTE   W96
//  #03 //062   ----------------------------------------
 BYTE   W96
//  #03 //063   ----------------------------------------
 BYTE   W24
 BYTE   N11  Cn4
 BYTE   W12
 BYTE   Fn4
 BYTE   W12
 BYTE   N22  As3
 BYTE   N22  As4
 BYTE   W24
 BYTE   An3
 BYTE   N22  An4
 BYTE   W24
//  #03 //064   ----------------------------------------
 BYTE   As3
 BYTE   N22  As4
 BYTE   W48
 BYTE   Fn4  v076
 BYTE   W24
 BYTE   Dn4
 BYTE   W24
//  #03 //065   ----------------------------------------
 BYTE   W24
 BYTE   As3
 BYTE   W24
 BYTE   Cn4
 BYTE   W24
 BYTE   Fn4
 BYTE   W24
//  #03 //066   ----------------------------------------
Label_01120F38:
 BYTE   N22  As3  v076
 BYTE   W48
 BYTE   Fn4
 BYTE   W24
 BYTE   Dn4
 BYTE   W24
 BYTE   PEND 
//  #03 //067   ----------------------------------------
 BYTE   W24
 BYTE   N22
 BYTE   W24
 BYTE   Cn4
 BYTE   W24
 BYTE   As3
 BYTE   W24
//  #03 //068   ----------------------------------------
 BYTE   PATT
  POIN2 Label_01120F38
//  #03 //069   ----------------------------------------
 BYTE   W24
 BYTE   N22  As3  v076
 BYTE   W24
 BYTE   Cn4
 BYTE   W24
 BYTE   As3
 BYTE   W24
//  #03 //070   ----------------------------------------
 BYTE   N22
 BYTE   W36
 BYTE   N11
 BYTE   W12
 BYTE   N11
 BYTE   W12
 BYTE   N22
 BYTE   W24
 BYTE   Cn4
 BYTE   W12
//  #03 //071   ----------------------------------------
 BYTE   W12
 BYTE   N11  As3
 BYTE   W12
 BYTE   Cn4
 BYTE   W12
 BYTE   As3
 BYTE   W12
 BYTE   N22
 BYTE   W24
 BYTE   An3
 BYTE   W24
//  #03 //072   ----------------------------------------
 BYTE   As3
 BYTE   W96
//  #03 //073   ----------------------------------------
 BYTE   W96
//  #03 //074   ----------------------------------------
 BYTE   W96
//  #03 //075   ----------------------------------------
 BYTE   W24
 BYTE   N23  As4  v092
 BYTE   N23  As5
 BYTE   W24
 BYTE   An4
 BYTE   N23  An5
 BYTE   W24
 BYTE   Fn4  v080
 BYTE   N23  Fn5
 BYTE   W24
//  #03 //076   ----------------------------------------
 BYTE   N44  Cn4  v088
 BYTE   N44  Cn5
 BYTE   W72
 BYTE   N22  As4  v048
 BYTE   W24
//  #03 //077   ----------------------------------------
 BYTE   Dn5
 BYTE   W24
 BYTE   Fn5
 BYTE   W24
 BYTE   Cn5
 BYTE   W24
 BYTE   Dn5
 BYTE   W24
//  #03 //078   ----------------------------------------
 BYTE   N44  As4
 BYTE   W96
//  #03 //079   ----------------------------------------
 BYTE   W48
 BYTE   N44
 BYTE   W48
//  #03 //080   ----------------------------------------
Label_01120F98:
 BYTE   N68  Fn5  v048
 BYTE   W72
 BYTE   N22  Dn5
 BYTE   W24
 BYTE   PEND 
//  #03 //081   ----------------------------------------
 BYTE   N11  Cn5
 BYTE   W12
 BYTE   Fn4
 BYTE   W12
 BYTE   N22
 BYTE   N22  Dn5
 BYTE   W48
 BYTE   Fn4
 BYTE   W24
//  #03 //082   ----------------------------------------
 BYTE   As4
 BYTE   W24
 BYTE   N22
 BYTE   W24
 BYTE   An4
 BYTE   W24
 BYTE   As4
 BYTE   W24
//  #03 //083   ----------------------------------------
 BYTE   N22
 BYTE   W48
 BYTE   An4
 BYTE   W24
 BYTE   As4
 BYTE   W24
//  #03 //084   ----------------------------------------
 BYTE   PATT
  POIN2 Label_01120F98
//  #03 //085   ----------------------------------------
 BYTE   N22  Cn5  v048
 BYTE   W24
 BYTE   Dn5
 BYTE   W24
 BYTE   Cn5
 BYTE   W24
 BYTE   As4
 BYTE   W24
//  #03 //086   ----------------------------------------
 BYTE   N44  Cn5
 BYTE   W48
 BYTE   N22  An4
 BYTE   W24
 BYTE   As4
 BYTE   W24
//  #03 //087   ----------------------------------------
 BYTE   W24
 BYTE   N11  Dn5  v032
 BYTE   W24
 BYTE   N22  Cn5
 BYTE   W24
 BYTE   As4
 BYTE   W24
//  #03 //088   ----------------------------------------
 BYTE   W96
//  #03 //089   ----------------------------------------
 BYTE   W96
//  #03 //090   ----------------------------------------
 BYTE   W96
//  #03 //091   ----------------------------------------
 BYTE   W96
//  #03 //092   ----------------------------------------
 BYTE   W96
//  #03 //093   ----------------------------------------
 BYTE   W96
//  #03 //094   ----------------------------------------
 BYTE   W96
//  #03 //095   ----------------------------------------
 BYTE   W96
//  #03 //096   ----------------------------------------
Label_01120FE2:
 BYTE   TIE  Fn4  v060
 BYTE   TIE  As4  v076
 BYTE   W96
 BYTE   PEND 
//  #03 //097   ----------------------------------------
 BYTE   W40
 BYTE   EOT
 BYTE   Fn4  v082
 BYTE   W32
 BYTE   N22  Dn4  v060
 BYTE   N22  An4  v076
 BYTE   W24
//  #03 //098   ----------------------------------------
 BYTE   PATT
  POIN2 Label_01120FE2
//  #03 //099   ----------------------------------------
 BYTE   W40
 BYTE   EOT
 BYTE   Fn4  v082
 BYTE   W32
 BYTE   N22  Cn4  v060
 BYTE   N22  An4  v076
 BYTE   W24
//  #03 //100   ----------------------------------------
 BYTE   Dn4  v060
 BYTE   N22  As4  v076
 BYTE   W24
 BYTE   N11  Fn4  v060
 BYTE   W12
 BYTE   N32  As4
 BYTE   W36
 BYTE   N22  Cn5
 BYTE   W24
//  #03 //101   ----------------------------------------
 BYTE   As4
 BYTE   W48
 BYTE   N22
 BYTE   W24
 BYTE   Cn4  v088
 BYTE   N22  Cn5
 BYTE   W24
//  #03 //102   ----------------------------------------
 BYTE   As3
 BYTE   N22  As4
 BYTE   W36
 BYTE   N11  Cn5  v092
 BYTE   W12
 BYTE   N22  As4  v096
 BYTE   W24
 BYTE   N11  An4  v100
 BYTE   W12
 BYTE   As4
 BYTE   W12
//  #03 //103   ----------------------------------------
 BYTE   Cn5  v104
 BYTE   W12
 BYTE   As4
 BYTE   W12
 BYTE   Cn5
 BYTE   W12
 BYTE   As4
 BYTE   W12
 BYTE   N22
 BYTE   W48
//  #03 //104   ----------------------------------------
 BYTE   W96
//  #03 //105   ----------------------------------------
 BYTE   W96
//  #03 //106   ----------------------------------------
 BYTE   W96
//  #03 //107   ----------------------------------------
 BYTE   W96
//  #03 //108   ----------------------------------------
 BYTE   W96
//  #03 //109   ----------------------------------------
 BYTE   W96
//  #03 //110   ----------------------------------------
 BYTE   W96
//  #03 //111   ----------------------------------------
 BYTE   W96
//  #03 //112   ----------------------------------------
 BYTE   W96
//  #03 //113   ----------------------------------------
 BYTE   W96
//  #03 //114   ----------------------------------------
 BYTE   W96
//  #03 //115   ----------------------------------------
 BYTE   W96
//  #03 //116   ----------------------------------------
 BYTE   W96
//  #03 //117   ----------------------------------------
 BYTE   W96
//  #03 //118   ----------------------------------------
 BYTE   W96
//  #03 //119   ----------------------------------------
 BYTE   W96
//  #03 //120   ----------------------------------------
 BYTE   W48
 BYTE   Fn4  v048
 BYTE   W24
 BYTE   Dn4
 BYTE   W24
//  #03 //121   ----------------------------------------
 BYTE   W24
 BYTE   As3
 BYTE   W24
 BYTE   Cn4
 BYTE   W24
 BYTE   As3
 BYTE   W24
//  #03 //122   ----------------------------------------
 BYTE   N22
 BYTE   W48
 BYTE   Fn4
 BYTE   W24
 BYTE   Dn4
 BYTE   W24
//  #03 //123   ----------------------------------------
 BYTE   W24
 BYTE   As4
 BYTE   W24
 BYTE   An4
 BYTE   W24
 BYTE   Fn4  v040
 BYTE   W24
//  #03 //124   ----------------------------------------
 BYTE   N44  Cn4  v044
 BYTE   W72
 BYTE   N22  As3  v048
 BYTE   W24
//  #03 //125   ----------------------------------------
 BYTE   Dn4
 BYTE   W24
 BYTE   Fn4
 BYTE   W24
 BYTE   Cn4
 BYTE   W24
 BYTE   Dn4
 BYTE   W24
//  #03 //126   ----------------------------------------
 BYTE   N44  As3
 BYTE   W60
 BYTE   N17
 BYTE   W18
 BYTE   N17
 BYTE   W18
//  #03 //127   ----------------------------------------
 BYTE   W48
 BYTE   N44  As3  v064
 BYTE   N44  Fn4
 BYTE   W48
//  #03 //128   ----------------------------------------
 BYTE   N44
 BYTE   N44  As4
 BYTE   W72
 BYTE   N22  As3
 BYTE   N22  Fn4
 BYTE   W24
//  #03 //129   ----------------------------------------
 BYTE   Cn4
 BYTE   W24
 BYTE   Fn3
 BYTE   N22  Dn4
 BYTE   W48
 BYTE   Fn3
 BYTE   W24
//  #03 //130   ----------------------------------------
 BYTE   As3
 BYTE   N22  Dn4
 BYTE   W24
 BYTE   As3
 BYTE   N22  Dn4
 BYTE   W24
 BYTE   An3
 BYTE   N22  Cn4
 BYTE   W24
 BYTE   As3
 BYTE   N22  Dn4
 BYTE   W24
//  #03 //131   ----------------------------------------
 BYTE   As3
 BYTE   N22  Dn4
 BYTE   W48
 BYTE   An3
 BYTE   N22  Dn4
 BYTE   W24
 BYTE   As3
 BYTE   N22  Dn4
 BYTE   W24
//  #03 //132   ----------------------------------------
 BYTE   N44  Fn4
 BYTE   N44  As4
 BYTE   W72
 BYTE   N22  Dn4
 BYTE   N22  Fn4
 BYTE   W24
//  #03 //133   ----------------------------------------
 BYTE   Cn4
 BYTE   N22  Ds4
 BYTE   W24
 BYTE   Dn4
 BYTE   N22  Fn4
 BYTE   W24
 BYTE   Cn4
 BYTE   N22  Ds4
 BYTE   W24
 BYTE   As3
 BYTE   N22  Dn4
 BYTE   W24
//  #03 //134   ----------------------------------------
 BYTE   N44  Cn4
 BYTE   N44  Ds4
 BYTE   W48
 BYTE   N22  An3
 BYTE   N22  Cn4
 BYTE   W24
 BYTE   As3
 BYTE   N22  Dn4
 BYTE   W24
//  #03 //135   ----------------------------------------
 BYTE   W24
 BYTE   N23  Dn4  v080
 BYTE   N23  Dn5
 BYTE   W24
 BYTE   Cn4
 BYTE   N23  Cn5
 BYTE   W24
 BYTE   As3
 BYTE   N23  As4
 BYTE   W24
//  #03 //136   ----------------------------------------
 BYTE   W96
//  #03 //137   ----------------------------------------
 BYTE   W96
//  #03 //138   ----------------------------------------
 BYTE   W96
//  #03 //139   ----------------------------------------
 BYTE   W96
//  #03 //140   ----------------------------------------
 BYTE   GoTo
  POIN2 Label_01120E58
//  #03 //141   ----------------------------------------
 BYTE   W96
//  #03 //142   ----------------------------------------
 BYTE   W96
//  #03 //143   ----------------------------------------
 BYTE   W96
//  #03 //144   ----------------------------------------
 BYTE   W92
 BYTE   W02
 BYTE   FINE

//**************** Track 4 (Midi-Chn.3) ****************//

song03DF_004:
//  #04 //000   ----------------------------------------
 BYTE   KEYSH   song03DF_key+0
 BYTE   VOICE   48
 BYTE   MODT 0
 BYTE   LFOS 44
 BYTE   VOL   59*song03DF_mvl/mxv
 BYTE   PAN   c_v+0
 BYTE   W96
//  #04 //001   ----------------------------------------
 BYTE   W96
//  #04 //002   ----------------------------------------
 BYTE   W96
//  #04 //003   ----------------------------------------
 BYTE   W72
Label_0112110C:
 BYTE   W24
//  #04 //004   ----------------------------------------
 BYTE   W96
//  #04 //005   ----------------------------------------
 BYTE   W96
//  #04 //006   ----------------------------------------
 BYTE   W96
//  #04 //007   ----------------------------------------
 BYTE   W96
//  #04 //008   ----------------------------------------
 BYTE   W96
//  #04 //009   ----------------------------------------
 BYTE   W96
//  #04 //010   ----------------------------------------
 BYTE   W96
//  #04 //011   ----------------------------------------
 BYTE   W96
//  #04 //012   ----------------------------------------
 BYTE   W96
//  #04 //013   ----------------------------------------
 BYTE   W96
//  #04 //014   ----------------------------------------
 BYTE   W96
//  #04 //015   ----------------------------------------
 BYTE   W96
//  #04 //016   ----------------------------------------
 BYTE   W96
//  #04 //017   ----------------------------------------
 BYTE   W96
//  #04 //018   ----------------------------------------
 BYTE   W96
//  #04 //019   ----------------------------------------
 BYTE   W96
//  #04 //020   ----------------------------------------
 BYTE   W96
//  #04 //021   ----------------------------------------
 BYTE   W96
//  #04 //022   ----------------------------------------
 BYTE   W96
//  #04 //023   ----------------------------------------
 BYTE   W96
//  #04 //024   ----------------------------------------
 BYTE   N22  As2  v052
 BYTE   N22  Ds3  v044
 BYTE   W24
 BYTE   As3
 BYTE   W24
 BYTE   Cn4
 BYTE   W24
 BYTE   Dn4
 BYTE   W24
//  #04 //025   ----------------------------------------
 BYTE   N22
 BYTE   W24
 BYTE   Cn4
 BYTE   W24
 BYTE   As3
 BYTE   W24
 BYTE   An3
 BYTE   N22  Cn4
 BYTE   W24
//  #04 //026   ----------------------------------------
 BYTE   As3
 BYTE   W24
 BYTE   N68
 BYTE   N68  Cn4
 BYTE   W72
//  #04 //027   ----------------------------------------
 BYTE   W12
 BYTE   N11  Gn4
 BYTE   W12
 BYTE   As4
 BYTE   W12
 BYTE   Gn4
 BYTE   W12
 BYTE   Fn4
 BYTE   W12
 BYTE   Dn4
 BYTE   W12
 BYTE   An3
 BYTE   N11  Fn4
 BYTE   W12
 BYTE   Dn4
 BYTE   W12
//  #04 //028   ----------------------------------------
 BYTE   N22  As3
 BYTE   N22  Cn4
 BYTE   W24
 BYTE   As3
 BYTE   W24
 BYTE   Cn4
 BYTE   W24
 BYTE   As3
 BYTE   W24
//  #04 //029   ----------------------------------------
 BYTE   Gn3
 BYTE   W24
 BYTE   As3
 BYTE   W24
 BYTE   Cn4
 BYTE   N22  Cs4
 BYTE   W24
 BYTE   Cn4
 BYTE   W24
//  #04 //030   ----------------------------------------
 BYTE   As3  v052
 BYTE   W36
 BYTE   N11  As3  v060
 BYTE   W12
 BYTE   N22  As3  v064
 BYTE   W24
 BYTE   N11  Gn3  v068
 BYTE   W12
 BYTE   As3  v072
 BYTE   W12
//  #04 //031   ----------------------------------------
 BYTE   Cn4  v076
 BYTE   W12
 BYTE   As3
 BYTE   W12
 BYTE   Cn4
 BYTE   W12
 BYTE   As3
 BYTE   W12
 BYTE   N22
 BYTE   W48
//  #04 //032   ----------------------------------------
 BYTE   W96
//  #04 //033   ----------------------------------------
 BYTE   W96
//  #04 //034   ----------------------------------------
 BYTE   W96
//  #04 //035   ----------------------------------------
 BYTE   W96
//  #04 //036   ----------------------------------------
 BYTE   W96
//  #04 //037   ----------------------------------------
 BYTE   W96
//  #04 //038   ----------------------------------------
 BYTE   W96
//  #04 //039   ----------------------------------------
 BYTE   W96
//  #04 //040   ----------------------------------------
 BYTE   W96
//  #04 //041   ----------------------------------------
 BYTE   W96
//  #04 //042   ----------------------------------------
 BYTE   W96
//  #04 //043   ----------------------------------------
 BYTE   W96
//  #04 //044   ----------------------------------------
 BYTE   W96
//  #04 //045   ----------------------------------------
 BYTE   W96
//  #04 //046   ----------------------------------------
 BYTE   W96
//  #04 //047   ----------------------------------------
 BYTE   W96
//  #04 //048   ----------------------------------------
 BYTE   W96
//  #04 //049   ----------------------------------------
 BYTE   W96
//  #04 //050   ----------------------------------------
 BYTE   W96
//  #04 //051   ----------------------------------------
 BYTE   W96
//  #04 //052   ----------------------------------------
 BYTE   W96
//  #04 //053   ----------------------------------------
 BYTE   W96
//  #04 //054   ----------------------------------------
 BYTE   W96
//  #04 //055   ----------------------------------------
 BYTE   W96
//  #04 //056   ----------------------------------------
 BYTE   W48
 BYTE   Fn3  v060
 BYTE   W24
 BYTE   As2
 BYTE   W24
//  #04 //057   ----------------------------------------
Label_011211A0:
 BYTE   N22  Cn3  v060
 BYTE   W36
 BYTE   N11
 BYTE   W12
 BYTE   N22  Dn3
 BYTE   W24
 BYTE   Fn3
 BYTE   W24
 BYTE   PEND 
//  #04 //058   ----------------------------------------
 BYTE   As2
 BYTE   W36
 BYTE   N11
 BYTE   W12
 BYTE   N22
 BYTE   W24
 BYTE   N11  Fn2
 BYTE   W12
 BYTE   As2
 BYTE   W12
//  #04 //059   ----------------------------------------
 BYTE   Dn3
 BYTE   W12
 BYTE   N11
 BYTE   W12
 BYTE   N11
 BYTE   W12
 BYTE   Cn3
 BYTE   W12
 BYTE   N44  As2
 BYTE   W48
//  #04 //060   ----------------------------------------
 BYTE   W36
 BYTE   N11
 BYTE   W12
 BYTE   N22  Fn3
 BYTE   W24
 BYTE   As2
 BYTE   W24
//  #04 //061   ----------------------------------------
 BYTE   PATT
  POIN2 Label_011211A0
//  #04 //062   ----------------------------------------
 BYTE   N22  As2  v060
 BYTE   W36
 BYTE   N11  An2
 BYTE   W12
 BYTE   N22  As2
 BYTE   W24
 BYTE   N11  Fn2
 BYTE   W12
 BYTE   As2
 BYTE   W12
//  #04 //063   ----------------------------------------
 BYTE   Cn3
 BYTE   W12
 BYTE   As2
 BYTE   W12
 BYTE   Cn3
 BYTE   W12
 BYTE   Fn3
 BYTE   W12
 BYTE   N22  As2
 BYTE   N22  As3
 BYTE   W24
 BYTE   An2
 BYTE   N22  An3
 BYTE   W24
//  #04 //064   ----------------------------------------
 BYTE   As2
 BYTE   N22  As3
 BYTE   W48
 BYTE   Fn3  v076
 BYTE   W24
 BYTE   Dn3
 BYTE   W24
//  #04 //065   ----------------------------------------
 BYTE   W24
 BYTE   As2
 BYTE   W24
 BYTE   Cn3
 BYTE   W24
 BYTE   Fn3
 BYTE   W24
//  #04 //066   ----------------------------------------
Label_011211FF:
 BYTE   N22  As2  v076
 BYTE   W48
 BYTE   Fn3
 BYTE   W24
 BYTE   Dn3
 BYTE   W24
 BYTE   PEND 
//  #04 //067   ----------------------------------------
 BYTE   W24
 BYTE   N22
 BYTE   W24
 BYTE   Cn3
 BYTE   W24
 BYTE   As2
 BYTE   W24
//  #04 //068   ----------------------------------------
 BYTE   PATT
  POIN2 Label_011211FF
//  #04 //069   ----------------------------------------
 BYTE   W24
 BYTE   N22  As2  v076
 BYTE   W24
 BYTE   Cn3
 BYTE   W24
 BYTE   As2
 BYTE   W24
//  #04 //070   ----------------------------------------
 BYTE   N22
 BYTE   W36
 BYTE   N11
 BYTE   W12
 BYTE   N11
 BYTE   W12
 BYTE   N22
 BYTE   W24
 BYTE   Cn3
 BYTE   W12
//  #04 //071   ----------------------------------------
 BYTE   W12
 BYTE   N11  As2
 BYTE   W12
 BYTE   Cn3
 BYTE   W12
 BYTE   As2
 BYTE   W12
 BYTE   N22
 BYTE   W24
 BYTE   An2
 BYTE   W24
//  #04 //072   ----------------------------------------
 BYTE   As2
 BYTE   W48
 BYTE   Fn4  v056
 BYTE   W24
 BYTE   Dn4
 BYTE   W24
//  #04 //073   ----------------------------------------
 BYTE   W24
 BYTE   As3
 BYTE   W24
 BYTE   Cn4
 BYTE   W24
 BYTE   As3
 BYTE   W24
//  #04 //074   ----------------------------------------
 BYTE   N22
 BYTE   W48
 BYTE   Fn4
 BYTE   W24
 BYTE   Dn4
 BYTE   W24
//  #04 //075   ----------------------------------------
 BYTE   W24
 BYTE   N23  As3  v092
 BYTE   N23  As4
 BYTE   W24
 BYTE   An3
 BYTE   N23  An4
 BYTE   W24
 BYTE   Fn3  v080
 BYTE   N23  Fn4
 BYTE   W24
//  #04 //076   ----------------------------------------
 BYTE   N44  Cn3  v088
 BYTE   N44  Cn4
 BYTE   W72
 BYTE   N22  As3  v048
 BYTE   W24
//  #04 //077   ----------------------------------------
 BYTE   Dn4
 BYTE   W24
 BYTE   Fn4
 BYTE   W24
 BYTE   Cn4
 BYTE   W24
 BYTE   Dn4
 BYTE   W24
//  #04 //078   ----------------------------------------
 BYTE   N44  As3
 BYTE   W96
//  #04 //079   ----------------------------------------
 BYTE   W48
 BYTE   N44
 BYTE   W48
//  #04 //080   ----------------------------------------
Label_0112126F:
 BYTE   N68  Fn4  v048
 BYTE   W72
 BYTE   N22  Dn4
 BYTE   W24
 BYTE   PEND 
//  #04 //081   ----------------------------------------
 BYTE   N11  Cn4
 BYTE   W12
 BYTE   Fn3
 BYTE   W12
 BYTE   N22
 BYTE   N22  Dn4
 BYTE   W48
 BYTE   Fn3
 BYTE   W24
//  #04 //082   ----------------------------------------
 BYTE   As3
 BYTE   W24
 BYTE   N22
 BYTE   W24
 BYTE   An3
 BYTE   W24
 BYTE   As3
 BYTE   W24
//  #04 //083   ----------------------------------------
 BYTE   N22
 BYTE   W48
 BYTE   An3
 BYTE   W24
 BYTE   As3
 BYTE   W24
//  #04 //084   ----------------------------------------
 BYTE   PATT
  POIN2 Label_0112126F
//  #04 //085   ----------------------------------------
 BYTE   N22  Cn4  v048
 BYTE   W24
 BYTE   Dn4
 BYTE   W24
 BYTE   Cn4
 BYTE   W24
 BYTE   As3
 BYTE   W24
//  #04 //086   ----------------------------------------
 BYTE   N44  Cn4
 BYTE   W48
 BYTE   N22  An3
 BYTE   W24
 BYTE   As3
 BYTE   W24
//  #04 //087   ----------------------------------------
 BYTE   W24
 BYTE   N11  Dn4  v032
 BYTE   W24
 BYTE   N22  Cn4
 BYTE   W24
 BYTE   As3
 BYTE   W24
//  #04 //088   ----------------------------------------
 BYTE   W96
//  #04 //089   ----------------------------------------
 BYTE   W96
//  #04 //090   ----------------------------------------
 BYTE   W96
//  #04 //091   ----------------------------------------
 BYTE   W96
//  #04 //092   ----------------------------------------
 BYTE   W96
//  #04 //093   ----------------------------------------
 BYTE   W96
//  #04 //094   ----------------------------------------
 BYTE   W96
//  #04 //095   ----------------------------------------
 BYTE   W96
//  #04 //096   ----------------------------------------
Label_011212B9:
 BYTE   TIE  Fn3  v060
 BYTE   TIE  As3  v076
 BYTE   W96
 BYTE   PEND 
//  #04 //097   ----------------------------------------
 BYTE   W40
 BYTE   EOT
 BYTE   Fn3  v070
 BYTE   W32
 BYTE   N22  Dn3  v060
 BYTE   N22  An3  v076
 BYTE   W24
//  #04 //098   ----------------------------------------
 BYTE   PATT
  POIN2 Label_011212B9
//  #04 //099   ----------------------------------------
 BYTE   W40
 BYTE   EOT
 BYTE   Fn3  v070
 BYTE   W32
 BYTE   N22  Cn3  v060
 BYTE   N22  An3  v076
 BYTE   W24
//  #04 //100   ----------------------------------------
 BYTE   Dn3  v060
 BYTE   N22  As3  v076
 BYTE   W24
 BYTE   N11  Fn3  v060
 BYTE   W12
 BYTE   N32  As3
 BYTE   W36
 BYTE   N22  Cn4
 BYTE   W24
//  #04 //101   ----------------------------------------
 BYTE   As3
 BYTE   W48
 BYTE   N22
 BYTE   W24
 BYTE   Cn3  v088
 BYTE   N22  Cn4
 BYTE   W24
//  #04 //102   ----------------------------------------
 BYTE   As2
 BYTE   N22  As3
 BYTE   W36
 BYTE   N11  Cn4  v092
 BYTE   W12
 BYTE   N22  As3  v096
 BYTE   W24
 BYTE   N11  An3  v100
 BYTE   W12
 BYTE   As3
 BYTE   W12
//  #04 //103   ----------------------------------------
 BYTE   Cn4  v104
 BYTE   W12
 BYTE   As3
 BYTE   W12
 BYTE   Cn4
 BYTE   W12
 BYTE   As3
 BYTE   W12
 BYTE   N22
 BYTE   W48
//  #04 //104   ----------------------------------------
 BYTE   W96
//  #04 //105   ----------------------------------------
 BYTE   W96
//  #04 //106   ----------------------------------------
 BYTE   W96
//  #04 //107   ----------------------------------------
 BYTE   W96
//  #04 //108   ----------------------------------------
 BYTE   W96
//  #04 //109   ----------------------------------------
 BYTE   W96
//  #04 //110   ----------------------------------------
 BYTE   W96
//  #04 //111   ----------------------------------------
 BYTE   W96
//  #04 //112   ----------------------------------------
 BYTE   W96
//  #04 //113   ----------------------------------------
 BYTE   W96
//  #04 //114   ----------------------------------------
 BYTE   W96
//  #04 //115   ----------------------------------------
 BYTE   W96
//  #04 //116   ----------------------------------------
 BYTE   W96
//  #04 //117   ----------------------------------------
 BYTE   W96
//  #04 //118   ----------------------------------------
 BYTE   W96
//  #04 //119   ----------------------------------------
 BYTE   W96
//  #04 //120   ----------------------------------------
 BYTE   W48
 BYTE   Fn3  v048
 BYTE   W24
 BYTE   Dn3
 BYTE   W24
//  #04 //121   ----------------------------------------
 BYTE   W24
 BYTE   As2
 BYTE   W24
 BYTE   Cn3
 BYTE   W24
 BYTE   As2
 BYTE   W24
//  #04 //122   ----------------------------------------
 BYTE   N22
 BYTE   W48
 BYTE   Fn3
 BYTE   W24
 BYTE   Dn3
 BYTE   W24
//  #04 //123   ----------------------------------------
 BYTE   W24
 BYTE   As3
 BYTE   W24
 BYTE   An3
 BYTE   W24
 BYTE   Fn3  v040
 BYTE   W24
//  #04 //124   ----------------------------------------
 BYTE   N44  Cn3  v044
 BYTE   W72
 BYTE   N22  As2  v048
 BYTE   W24
//  #04 //125   ----------------------------------------
 BYTE   Dn3
 BYTE   W24
 BYTE   Fn3
 BYTE   W24
 BYTE   Cn3
 BYTE   W24
 BYTE   Dn3
 BYTE   W24
//  #04 //126   ----------------------------------------
 BYTE   N44  As2
 BYTE   W60
 BYTE   N17
 BYTE   W18
 BYTE   N17
 BYTE   W18
//  #04 //127   ----------------------------------------
 BYTE   W48
 BYTE   N44  As2  v064
 BYTE   N44  Fn3
 BYTE   W48
//  #04 //128   ----------------------------------------
 BYTE   N44
 BYTE   N44  As3
 BYTE   W72
 BYTE   N22  As2
 BYTE   N22  Fn3
 BYTE   W24
//  #04 //129   ----------------------------------------
 BYTE   Cn3
 BYTE   W24
 BYTE   Fn2
 BYTE   N22  Dn3
 BYTE   W48
 BYTE   Fn2
 BYTE   W24
//  #04 //130   ----------------------------------------
 BYTE   As2
 BYTE   N22  Dn3
 BYTE   W24
 BYTE   As2
 BYTE   N22  Dn3
 BYTE   W24
 BYTE   An2
 BYTE   N22  Cn3
 BYTE   W24
 BYTE   As2
 BYTE   N22  Dn3
 BYTE   W24
//  #04 //131   ----------------------------------------
 BYTE   As2
 BYTE   N22  Dn3
 BYTE   W48
 BYTE   An2
 BYTE   N22  Dn3
 BYTE   W24
 BYTE   As2
 BYTE   N22  Dn3
 BYTE   W24
//  #04 //132   ----------------------------------------
 BYTE   N44  Fn3
 BYTE   N44  As3
 BYTE   W72
 BYTE   N22  Dn3
 BYTE   N22  Fn3
 BYTE   W24
//  #04 //133   ----------------------------------------
 BYTE   Cn3
 BYTE   N22  Ds3
 BYTE   W24
 BYTE   Dn3
 BYTE   N22  Fn3
 BYTE   W24
 BYTE   Cn3
 BYTE   N22  Ds3
 BYTE   W24
 BYTE   As2
 BYTE   N22  Dn3
 BYTE   W24
//  #04 //134   ----------------------------------------
 BYTE   N44  Cn3
 BYTE   N44  Ds3
 BYTE   W48
 BYTE   N22  An2
 BYTE   N22  Cn3
 BYTE   W24
 BYTE   As2
 BYTE   N22  Dn3
 BYTE   W24
//  #04 //135   ----------------------------------------
 BYTE   W24
 BYTE   N23  Dn3  v080
 BYTE   N23  Dn4
 BYTE   W24
 BYTE   Cn3
 BYTE   N23  Cn4
 BYTE   W24
 BYTE   As2
 BYTE   N23  As3
 BYTE   W24
//  #04 //136   ----------------------------------------
 BYTE   W96
//  #04 //137   ----------------------------------------
 BYTE   W96
//  #04 //138   ----------------------------------------
 BYTE   W96
//  #04 //139   ----------------------------------------
 BYTE   W96
//  #04 //140   ----------------------------------------
 BYTE   GoTo
  POIN2 Label_0112110C
//  #04 //141   ----------------------------------------
 BYTE   W96
//  #04 //142   ----------------------------------------
 BYTE   W96
//  #04 //143   ----------------------------------------
 BYTE   W96
//  #04 //144   ----------------------------------------
 BYTE   W92
 BYTE   W02
 BYTE   FINE

//**************** Track 5 (Midi-Chn.4) ****************//

song03DF_005:
//  #05 //000   ----------------------------------------
 BYTE   KEYSH   song03DF_key+0
 BYTE   VOICE   38
 BYTE   MODT 0
 BYTE   LFOS 44
 BYTE   VOL   73*song03DF_mvl/mxv
 BYTE   N22  Ds2  v044
 BYTE   N22  Gn2
 BYTE   N22  As2
 BYTE   W60
 BYTE   N32  Ds2
 BYTE   N32  Gn2
 BYTE   N32  As2
 BYTE   W36
//  #05 //001   ----------------------------------------
Label_011213ED:
 BYTE   N22  Fn2  v044
 BYTE   N22  An2
 BYTE   N22  Cn3
 BYTE   W60
 BYTE   N17  Fn2
 BYTE   N17  An2
 BYTE   N17  Cn3
 BYTE   W18
 BYTE   Fn2
 BYTE   N17  An2
 BYTE   N17  Cn3
 BYTE   W18
 BYTE   PEND 
//  #05 //002   ----------------------------------------
Label_01121403:
 BYTE   N22  Gn2  v044
 BYTE   N22  As2
 BYTE   N22  Dn3
 BYTE   W60
 BYTE   N32  Gn2
 BYTE   N32  As2
 BYTE   N32  Dn3
 BYTE   W36
 BYTE   PEND 
//  #05 //003   ----------------------------------------
 BYTE   N22  Dn2
 BYTE   N22  Fn2
 BYTE   N22  An2
 BYTE   W60
 BYTE   N32  Dn2
 BYTE   N32  Fn2
 BYTE   N32  An2
 BYTE   W12
Label_01121421:
 BYTE   W24
//  #05 //004   ----------------------------------------
Label_01121422:
 BYTE   N22  Ds2  v044
 BYTE   N22  Gn2
 BYTE   N22  As2
 BYTE   W60
 BYTE   N32  Ds2
 BYTE   N32  Gn2
 BYTE   N32  As2
 BYTE   W36
 BYTE   PEND 
//  #05 //005   ----------------------------------------
 BYTE   PATT
  POIN2 Label_011213ED
//  #05 //006   ----------------------------------------
 BYTE   PATT
  POIN2 Label_01121403
//  #05 //007   ----------------------------------------
 BYTE   N22  Dn2  v044
 BYTE   N22  Fn2
 BYTE   N22  As2
 BYTE   W60
 BYTE   N32  Fn2
 BYTE   N32  As2
 BYTE   N32  Dn3
 BYTE   W36
//  #05 //008   ----------------------------------------
 BYTE   N22  Ds1  v048
 BYTE   N22  As1
 BYTE   W60
 BYTE   N32  Ds1
 BYTE   W12
 BYTE   N22  As1
 BYTE   W24
//  #05 //009   ----------------------------------------
Label_01121457:
 BYTE   N22  Fn1  v048
 BYTE   N22  Cn2
 BYTE   W60
 BYTE   N32  Fn1
 BYTE   W12
 BYTE   N22  Cn2
 BYTE   W24
 BYTE   PEND 
//  #05 //010   ----------------------------------------
Label_01121464:
 BYTE   N22  Gn1  v048
 BYTE   N22  Dn2
 BYTE   W60
 BYTE   N32  Gn1
 BYTE   W12
 BYTE   N22  Dn2
 BYTE   W24
 BYTE   PEND 
//  #05 //011   ----------------------------------------
 BYTE   N44  Fn1
 BYTE   N22  Cn2  v056
 BYTE   W24
 BYTE   As1
 BYTE   W24
 BYTE   Cn2
 BYTE   W12
 BYTE   N11  Fn1  v048
 BYTE   W12
 BYTE   N22  As1
 BYTE   N22  Dn2  v056
 BYTE   W24
//  #05 //012   ----------------------------------------
 BYTE   Ds1  v048
 BYTE   N22  As1  v056
 BYTE   W60
 BYTE   N32  Ds1  v048
 BYTE   W12
 BYTE   N11  As1
 BYTE   W12
 BYTE   Dn2
 BYTE   W12
//  #05 //013   ----------------------------------------
 BYTE   PATT
  POIN2 Label_01121457
//  #05 //014   ----------------------------------------
 BYTE   PATT
  POIN2 Label_01121464
//  #05 //015   ----------------------------------------
 BYTE   N22  Fn1  v048
 BYTE   N22  Cn2
 BYTE   W48
 BYTE   N44  Fn1
 BYTE   N44  Cn2
 BYTE   N44  Fn2
 BYTE   W48
//  #05 //016   ----------------------------------------
Label_011214AB:
 BYTE   N22  Ds1  v048
 BYTE   N22  As1
 BYTE   N22  Ds2
 BYTE   W24
 BYTE   N11  Ds1  v040
 BYTE   W12
 BYTE   Ds2  v048
 BYTE   W12
 BYTE   N22  Ds1  v040
 BYTE   W24
 BYTE   N22
 BYTE   W24
 BYTE   PEND 
//  #05 //017   ----------------------------------------
Label_011214C1:
 BYTE   N22  Fn1  v048
 BYTE   N22  Cn2
 BYTE   N22  Fn2
 BYTE   W24
 BYTE   Fn1  v040
 BYTE   W24
 BYTE   N22
 BYTE   W24
 BYTE   N22
 BYTE   W24
 BYTE   PEND 
//  #05 //018   ----------------------------------------
Label_011214D1:
 BYTE   N22  Gn1  v048
 BYTE   N22  Dn2
 BYTE   N22  Gn2
 BYTE   W24
 BYTE   N11  Gn1  v040
 BYTE   W12
 BYTE   Gn2  v048
 BYTE   W12
 BYTE   N22  Gn1  v040
 BYTE   W24
 BYTE   N22
 BYTE   W24
 BYTE   PEND 
//  #05 //019   ----------------------------------------
 BYTE   Dn1  v048
 BYTE   N22  An1
 BYTE   N22  Dn2
 BYTE   W24
 BYTE   Dn1  v040
 BYTE   W24
 BYTE   N22
 BYTE   W24
 BYTE   N22
 BYTE   W24
//  #05 //020   ----------------------------------------
 BYTE   PATT
  POIN2 Label_011214AB
//  #05 //021   ----------------------------------------
 BYTE   PATT
  POIN2 Label_011214C1
//  #05 //022   ----------------------------------------
 BYTE   PATT
  POIN2 Label_011214D1
//  #05 //023   ----------------------------------------
 BYTE   N11  Dn1  v048
 BYTE   N11  Dn2
 BYTE   W12
 BYTE   Gn2
 BYTE   W12
 BYTE   As2
 BYTE   W12
 BYTE   Gn2
 BYTE   W12
 BYTE   Fn2
 BYTE   W12
 BYTE   Dn2
 BYTE   W12
 BYTE   Fn2
 BYTE   W12
 BYTE   Dn2
 BYTE   W12
//  #05 //024   ----------------------------------------
Label_01121518:
 BYTE   N22  Ds2  v044
 BYTE   W60
 BYTE   N32
 BYTE   N32  Gn2
 BYTE   W36
 BYTE   PEND 
//  #05 //025   ----------------------------------------
Label_01121521:
 BYTE   N22  Fn2  v044
 BYTE   N22  An2
 BYTE   W60
 BYTE   N32  Fn2
 BYTE   N32  Cn3
 BYTE   W36
 BYTE   PEND 
//  #05 //026   ----------------------------------------
 BYTE   N22  Gn2
 BYTE   N22  Dn3
 BYTE   W60
 BYTE   N32  Gn2
 BYTE   N32  Dn3
 BYTE   W36
//  #05 //027   ----------------------------------------
 BYTE   N22  Dn2
 BYTE   N22  An2
 BYTE   W60
 BYTE   N32  Dn2
 BYTE   N32  Fn2
 BYTE   W36
//  #05 //028   ----------------------------------------
 BYTE   PATT
  POIN2 Label_01121518
//  #05 //029   ----------------------------------------
 BYTE   PATT
  POIN2 Label_01121521
//  #05 //030   ----------------------------------------
 BYTE   N44  Gn2  v044
 BYTE   N44  As2
 BYTE   N44  Dn3
 BYTE   W72
 BYTE   N22  Gn2  v056
 BYTE   N22  Dn3
 BYTE   W24
//  #05 //031   ----------------------------------------
 BYTE   N11  Fn2  v060
 BYTE   N11  Cn3  v076
 BYTE   W12
 BYTE   As2
 BYTE   W12
 BYTE   Cn3
 BYTE   W12
 BYTE   As2
 BYTE   W12
 BYTE   N22
 BYTE   W48
//  #05 //032   ----------------------------------------
Label_01121568:
 BYTE   N22  Ds1  v060
 BYTE   N22  As1
 BYTE   N22  Ds2
 BYTE   W60
 BYTE   N17  Ds2  v056
 BYTE   N17  As2
 BYTE   N17  Dn3
 BYTE   W18
 BYTE   Ds2  v048
 BYTE   N17  As2
 BYTE   N17  Dn3
 BYTE   W18
 BYTE   PEND 
//  #05 //033   ----------------------------------------
Label_01121580:
 BYTE   N22  Fn1  v060
 BYTE   N22  Cn2
 BYTE   N22  Fn2
 BYTE   W60
 BYTE   N17  Fn2  v056
 BYTE   N17  Cn3
 BYTE   N17  Ds3
 BYTE   W18
 BYTE   Fn2  v048
 BYTE   N17  Cn3
 BYTE   N17  Ds3
 BYTE   W18
 BYTE   PEND 
//  #05 //034   ----------------------------------------
Label_01121598:
 BYTE   N22  Gn1  v060
 BYTE   N22  Dn2
 BYTE   N22  Gn2
 BYTE   W60
 BYTE   N17  Gn2  v056
 BYTE   N17  As2
 BYTE   N17  Dn3
 BYTE   W18
 BYTE   Gn2  v048
 BYTE   N17  As2
 BYTE   N17  Dn3
 BYTE   W18
 BYTE   PEND 
//  #05 //035   ----------------------------------------
Label_011215B0:
 BYTE   N22  Fn1  v060
 BYTE   N22  Cn2
 BYTE   N22  Fn2
 BYTE   W60
 BYTE   N17  Fn2  v056
 BYTE   N17  An2
 BYTE   N17  Cn3
 BYTE   W18
 BYTE   Fn2  v048
 BYTE   N17  An2
 BYTE   N17  Cn3
 BYTE   W18
 BYTE   PEND 
//  #05 //036   ----------------------------------------
 BYTE   PATT
  POIN2 Label_01121568
//  #05 //037   ----------------------------------------
 BYTE   PATT
  POIN2 Label_01121580
//  #05 //038   ----------------------------------------
 BYTE   PATT
  POIN2 Label_01121598
//  #05 //039   ----------------------------------------
 BYTE   PATT
  POIN2 Label_011215B0
//  #05 //040   ----------------------------------------
 BYTE   PATT
  POIN2 Label_01121568
//  #05 //041   ----------------------------------------
 BYTE   PATT
  POIN2 Label_01121580
//  #05 //042   ----------------------------------------
 BYTE   PATT
  POIN2 Label_01121598
//  #05 //043   ----------------------------------------
 BYTE   PATT
  POIN2 Label_011215B0
//  #05 //044   ----------------------------------------
 BYTE   PATT
  POIN2 Label_01121568
//  #05 //045   ----------------------------------------
 BYTE   PATT
  POIN2 Label_01121580
//  #05 //046   ----------------------------------------
 BYTE   PATT
  POIN2 Label_01121598
//  #05 //047   ----------------------------------------
 BYTE   N22  Dn1  v060
 BYTE   N22  An1
 BYTE   N22  Dn2
 BYTE   W36
 BYTE   N11  Fn2
 BYTE   W12
 BYTE   Dn3
 BYTE   W12
 BYTE   Ds3
 BYTE   W12
 BYTE   N22  Dn3
 BYTE   W24
//  #05 //048   ----------------------------------------
 BYTE   N90  Ds1
 BYTE   W96
//  #05 //049   ----------------------------------------
 BYTE   Fn1
 BYTE   W96
//  #05 //050   ----------------------------------------
 BYTE   Gn1
 BYTE   W96
//  #05 //051   ----------------------------------------
 BYTE   Dn1
 BYTE   W96
//  #05 //052   ----------------------------------------
 BYTE   Ds1
 BYTE   W36
 BYTE   N32  Dn3
 BYTE   W36
 BYTE   N22
 BYTE   W24
//  #05 //053   ----------------------------------------
 BYTE   N90  Fn1
 BYTE   W48
 BYTE   N44  Cn3
 BYTE   W48
//  #05 //054   ----------------------------------------
 BYTE   N90  Gn1
 BYTE   W24
 BYTE   N32  Dn3
 BYTE   W36
 BYTE   An2
 BYTE   W36
//  #05 //055   ----------------------------------------
 BYTE   N90  As1
 BYTE   W48
 BYTE   N44  As2
 BYTE   W48
//  #05 //056   ----------------------------------------
 BYTE   Ds1
 BYTE   W48
 BYTE   N11  As1  v052
 BYTE   W12
 BYTE   N32  Ds1  v060
 BYTE   W36
//  #05 //057   ----------------------------------------
 BYTE   N44  Fn1
 BYTE   W48
 BYTE   N11  Cn2  v052
 BYTE   W12
 BYTE   N32  Fn1  v060
 BYTE   W36
//  #05 //058   ----------------------------------------
 BYTE   N44  Gn1
 BYTE   W48
 BYTE   N11  Dn2  v052
 BYTE   W12
 BYTE   N32  Gn1  v060
 BYTE   W36
//  #05 //059   ----------------------------------------
 BYTE   N44  Dn1
 BYTE   W48
 BYTE   N11  As1
 BYTE   W12
 BYTE   Fn1  v052
 BYTE   W12
 BYTE   N22  As1  v060
 BYTE   W24
//  #05 //060   ----------------------------------------
 BYTE   N44  Ds1
 BYTE   W48
 BYTE   N11  As1
 BYTE   W12
 BYTE   Ds1  v052
 BYTE   W12
 BYTE   N22  As1  v060
 BYTE   W24
//  #05 //061   ----------------------------------------
 BYTE   N44  Fn1
 BYTE   W48
 BYTE   N11  Cn2
 BYTE   W12
 BYTE   Fn1  v052
 BYTE   W12
 BYTE   N22  Cn2  v060
 BYTE   W24
//  #05 //062   ----------------------------------------
 BYTE   N44  Gn1
 BYTE   W48
 BYTE   N11  Dn2
 BYTE   W12
 BYTE   Gn1  v052
 BYTE   W12
 BYTE   N22  Dn2  v060
 BYTE   W24
//  #05 //063   ----------------------------------------
 BYTE   N44  Fn1
 BYTE   W48
 BYTE   Dn2  v052
 BYTE   W48
//  #05 //064   ----------------------------------------
 BYTE   N90  Ds2  v060
 BYTE   W48
 BYTE   N44  Gn2  v052
 BYTE   W48
//  #05 //065   ----------------------------------------
 BYTE   N22  Fn2  v060
 BYTE   W24
 BYTE   N11  An2  v056
 BYTE   W12
 BYTE   Gn2  v052
 BYTE   W12
 BYTE   N22  An2  v056
 BYTE   W24
 BYTE   Fn2  v060
 BYTE   W24
//  #05 //066   ----------------------------------------
 BYTE   N44  Gn2
 BYTE   W48
 BYTE   N22  Dn2
 BYTE   W24
 BYTE   Gn2
 BYTE   W24
//  #05 //067   ----------------------------------------
 BYTE   N90  Dn2
 BYTE   N44  Fn2
 BYTE   W48
 BYTE   An2
 BYTE   W48
//  #05 //068   ----------------------------------------
 BYTE   N90  Ds2
 BYTE   N44  Fn2
 BYTE   W48
 BYTE   As2
 BYTE   W48
//  #05 //069   ----------------------------------------
 BYTE   N90  Fn2
 BYTE   N44  An2
 BYTE   W48
 BYTE   N44
 BYTE   W48
//  #05 //070   ----------------------------------------
 BYTE   N22  Gn2
 BYTE   W24
 BYTE   N11  Dn2
 BYTE   W12
 BYTE   Ds2
 BYTE   W12
 BYTE   Fn2
 BYTE   W12
 BYTE   Ds2
 BYTE   W12
 BYTE   Dn2
 BYTE   W12
 BYTE   Cn2
 BYTE   W12
//  #05 //071   ----------------------------------------
 BYTE   N22  Dn2
 BYTE   W24
 BYTE   Ds2
 BYTE   W24
 BYTE   N11  Fn2
 BYTE   W12
 BYTE   Ds2
 BYTE   W12
 BYTE   Fn2
 BYTE   W12
 BYTE   Dn2
 BYTE   W12
//  #05 //072   ----------------------------------------
 BYTE   N90  Ds2
 BYTE   N90  Gn2
 BYTE   W96
//  #05 //073   ----------------------------------------
 BYTE   Fn2  v048
 BYTE   N44  An2
 BYTE   W48
 BYTE   Cn3
 BYTE   W48
//  #05 //074   ----------------------------------------
 BYTE   N90  Gn2
 BYTE   N44  Dn3
 BYTE   W48
 BYTE   Gn3
 BYTE   W48
//  #05 //075   ----------------------------------------
 BYTE   Dn2
 BYTE   N44  Fn3
 BYTE   W48
 BYTE   Dn1  v092
 BYTE   N44  An1
 BYTE   N44  Dn2
 BYTE   W48
//  #05 //076   ----------------------------------------
 BYTE   N90  Ds1  v048
 BYTE   N90  As1
 BYTE   N90  Ds2
 BYTE   W96
//  #05 //077   ----------------------------------------
 BYTE   Fn1
 BYTE   N90  Cn2
 BYTE   W96
//  #05 //078   ----------------------------------------
 BYTE   Gn1
 BYTE   N68  Dn2
 BYTE   W72
 BYTE   N22  Gn2
 BYTE   W24
//  #05 //079   ----------------------------------------
 BYTE   N44  Fn2
 BYTE   N44  An2
 BYTE   W48
 BYTE   Fn2  v040
 BYTE   W48
//  #05 //080   ----------------------------------------
 BYTE   N90  As1  v036
 BYTE   N90  Ds2
 BYTE   N90  Gn2
 BYTE   W96
//  #05 //081   ----------------------------------------
 BYTE   N44  Cn2  v056
 BYTE   N44  Fn2
 BYTE   N44  An2
 BYTE   W48
 BYTE   W48
//  #05 //082   ----------------------------------------
 BYTE   N90  Dn2  v044
 BYTE   N90  Gn2
 BYTE   W96
//  #05 //083   ----------------------------------------
 BYTE   As1
 BYTE   N90  Fn2
 BYTE   N90  As2
 BYTE   W96
//  #05 //084   ----------------------------------------
 BYTE   N44  Ds2  v048
 BYTE   W48
 BYTE   N22  As2
 BYTE   W24
 BYTE   Gn2
 BYTE   W24
//  #05 //085   ----------------------------------------
 BYTE   N44  Fn2
 BYTE   N44  An2
 BYTE   W48
 BYTE   Fn2
 BYTE   W48
//  #05 //086   ----------------------------------------
 BYTE   Cn3
 BYTE   N44  Ds3
 BYTE   W48
 BYTE   N22  Fn3
 BYTE   W24
 BYTE   W24
//  #05 //087   ----------------------------------------
 BYTE   W24
 BYTE   N11  Fn3  v032
 BYTE   W24
 BYTE   N22  Ds3
 BYTE   W24
 BYTE   Dn3
 BYTE   W24
//  #05 //088   ----------------------------------------
Label_0112175C:
 BYTE   N11  Ds2  v060
 BYTE   W24
 BYTE   N32  Gn2
 BYTE   N32  As2
 BYTE   W36
 BYTE   N11  Ds2
 BYTE   W12
 BYTE   N22  Gn2
 BYTE   N22  As2
 BYTE   W24
 BYTE   PEND 
//  #05 //089   ----------------------------------------
Label_0112176E:
 BYTE   N11  Fn2  v060
 BYTE   W24
 BYTE   N32  An2
 BYTE   N32  Cn3
 BYTE   W36
 BYTE   N11  Fn2
 BYTE   W12
 BYTE   N22  An2
 BYTE   N22  Cn3
 BYTE   W24
 BYTE   PEND 
//  #05 //090   ----------------------------------------
Label_01121780:
 BYTE   N11  Gn2  v060
 BYTE   W24
 BYTE   N32  As2
 BYTE   N32  Dn3
 BYTE   W36
 BYTE   N11  Gn2
 BYTE   W12
 BYTE   N22  As2
 BYTE   N22  Dn3
 BYTE   W24
 BYTE   PEND 
//  #05 //091   ----------------------------------------
 BYTE   N11  Dn2
 BYTE   W24
 BYTE   N32  Fn2
 BYTE   N32  An2
 BYTE   W36
 BYTE   N11  Dn2
 BYTE   W12
 BYTE   N22  Fn2
 BYTE   N22  An2
 BYTE   W24
//  #05 //092   ----------------------------------------
 BYTE   PATT
  POIN2 Label_0112175C
//  #05 //093   ----------------------------------------
 BYTE   PATT
  POIN2 Label_0112176E
//  #05 //094   ----------------------------------------
 BYTE   PATT
  POIN2 Label_01121780
//  #05 //095   ----------------------------------------
 BYTE   N44  As2  v060
 BYTE   N44  Dn3
 BYTE   N44  Fn3
 BYTE   W60
 BYTE   N32  As2
 BYTE   N32  Fn3
 BYTE   W36
//  #05 //096   ----------------------------------------
 BYTE   N44  Ds2  v048
 BYTE   N22  Cn3  v060
 BYTE   W24
 BYTE   As2  v044
 BYTE   W24
 BYTE   Cn3
 BYTE   W12
 BYTE   N32  Ds2  v048
 BYTE   W12
 BYTE   N22  As2  v044
 BYTE   W24
//  #05 //097   ----------------------------------------
 BYTE   N44  Fn2  v048
 BYTE   N22  Cn3  v044
 BYTE   W24
 BYTE   As2
 BYTE   W24
 BYTE   Cn3
 BYTE   W12
 BYTE   N32  Fn2  v048
 BYTE   W12
 BYTE   N22  As2  v044
 BYTE   W24
//  #05 //098   ----------------------------------------
 BYTE   N44  Gn2  v048
 BYTE   N22  Cn3  v060
 BYTE   W24
 BYTE   As2  v044
 BYTE   W24
 BYTE   Cn3
 BYTE   W12
 BYTE   N32  Gn2  v048
 BYTE   W12
 BYTE   N22  As2  v044
 BYTE   W24
//  #05 //099   ----------------------------------------
 BYTE   N44  Dn2  v048
 BYTE   N22  Cn3  v044
 BYTE   W24
 BYTE   Dn3
 BYTE   W24
 BYTE   As2
 BYTE   W12
 BYTE   N32  Dn2  v048
 BYTE   W12
 BYTE   N22  Fn2  v044
 BYTE   W24
//  #05 //100   ----------------------------------------
 BYTE   Ds2  v048
 BYTE   N22  Fn2
 BYTE   N22  As2
 BYTE   W24
 BYTE   N11  Ds2
 BYTE   W12
 BYTE   N22  Fn2
 BYTE   N22  As2
 BYTE   W24
 BYTE   N11  Ds2
 BYTE   W12
 BYTE   N22  Fn2
 BYTE   N22  As2
 BYTE   W24
//  #05 //101   ----------------------------------------
 BYTE   Fn2
 BYTE   N22  An2
 BYTE   N22  Cn3
 BYTE   W24
 BYTE   N11  Fn2
 BYTE   W12
 BYTE   N22  An2
 BYTE   N22  Cn3
 BYTE   W24
 BYTE   N32  Fn2
 BYTE   W36
//  #05 //102   ----------------------------------------
 BYTE   N23  Gn2  v060
 BYTE   W24
 BYTE   N11  Gn2  v064
 BYTE   N11  Dn3
 BYTE   W12
 BYTE   N22  Gn2  v056
 BYTE   N22  Dn3
 BYTE   W24
 BYTE   N11  Gn2  v068
 BYTE   N11  Dn3
 BYTE   N11  Gn3
 BYTE   W12
 BYTE   N22  Gn2  v060
 BYTE   N22  Dn3
 BYTE   N22  Gn3
 BYTE   W24
//  #05 //103   ----------------------------------------
 BYTE   N11  Fn3  v072
 BYTE   W24
 BYTE   N23  Fn1  v127
 BYTE   N23  Fn2
 BYTE   W24
 BYTE   As1  v108
 BYTE   N23  As2
 BYTE   W24
 BYTE   N22  Cn2  v092
 BYTE   N22  Cn3  v072
 BYTE   W24
//  #05 //104   ----------------------------------------
Label_0112186A:
 BYTE   N23  Ds2  v088
 BYTE   N23  Gn2
 BYTE   W24
 BYTE   N22  Fn3  v072
 BYTE   W24
 BYTE   Dn3
 BYTE   W24
 BYTE   As2
 BYTE   W24
 BYTE   PEND 
//  #05 //105   ----------------------------------------
Label_01121879:
 BYTE   N11  Fn2  v088
 BYTE   W12
 BYTE   Cn3  v072
 BYTE   W12
 BYTE   Dn3
 BYTE   W12
 BYTE   Fn3
 BYTE   W12
 BYTE   N22  Dn3
 BYTE   W24
 BYTE   As2
 BYTE   W24
 BYTE   PEND 
//  #05 //106   ----------------------------------------
Label_0112188A:
 BYTE   N11  Gn2  v088
 BYTE   W12
 BYTE   Fn2  v072
 BYTE   W12
 BYTE   N22  Fn3
 BYTE   W24
 BYTE   N11  Dn3
 BYTE   W12
 BYTE   As2
 BYTE   W12
 BYTE   Cn3
 BYTE   W12
 BYTE   As2
 BYTE   W12
 BYTE   PEND 
//  #05 //107   ----------------------------------------
Label_0112189E:
 BYTE   N11  As2  v088
 BYTE   W12
 BYTE   Fn2  v072
 BYTE   W12
 BYTE   Fn3
 BYTE   W12
 BYTE   Dn3
 BYTE   W12
 BYTE   As2
 BYTE   W12
 BYTE   Cn3
 BYTE   W12
 BYTE   N22  As2
 BYTE   W24
 BYTE   PEND 
//  #05 //108   ----------------------------------------
 BYTE   PATT
  POIN2 Label_0112186A
//  #05 //109   ----------------------------------------
 BYTE   PATT
  POIN2 Label_01121879
//  #05 //110   ----------------------------------------
 BYTE   PATT
  POIN2 Label_0112188A
//  #05 //111   ----------------------------------------
 BYTE   PATT
  POIN2 Label_0112189E
//  #05 //112   ----------------------------------------
Label_011218C5:
 BYTE   N22  Ds2  v072
 BYTE   W24
 BYTE   N32  Gn2  v060
 BYTE   N32  As2
 BYTE   W36
 BYTE   N11  Ds2
 BYTE   W12
 BYTE   N22  Gn2
 BYTE   N22  As2
 BYTE   W24
 BYTE   PEND 
//  #05 //113   ----------------------------------------
Label_011218D8:
 BYTE   N22  Fn2  v072
 BYTE   W24
 BYTE   N32  An2  v060
 BYTE   N32  Cn3
 BYTE   W36
 BYTE   N11  Fn2
 BYTE   W12
 BYTE   N22  An2
 BYTE   N22  Cn3
 BYTE   W24
 BYTE   PEND 
//  #05 //114   ----------------------------------------
Label_011218EB:
 BYTE   N22  Gn2  v072
 BYTE   W24
 BYTE   N32  As2  v060
 BYTE   N32  Dn3
 BYTE   W36
 BYTE   N11  Gn2
 BYTE   W12
 BYTE   N22  As2
 BYTE   N22  Dn3
 BYTE   W24
 BYTE   PEND 
//  #05 //115   ----------------------------------------
Label_011218FE:
 BYTE   N22  Dn2  v072
 BYTE   W24
 BYTE   N32  Fn2  v060
 BYTE   N32  An2
 BYTE   W36
 BYTE   N11  Dn2
 BYTE   W12
 BYTE   N22  Fn2
 BYTE   N22  An2
 BYTE   W24
 BYTE   PEND 
//  #05 //116   ----------------------------------------
 BYTE   PATT
  POIN2 Label_011218C5
//  #05 //117   ----------------------------------------
 BYTE   PATT
  POIN2 Label_011218D8
//  #05 //118   ----------------------------------------
 BYTE   PATT
  POIN2 Label_011218EB
//  #05 //119   ----------------------------------------
 BYTE   PATT
  POIN2 Label_011218FE
//  #05 //120   ----------------------------------------
 BYTE   N22  Ds2  v048
 BYTE   N90  Gn2
 BYTE   N90  As2
 BYTE   W24
 BYTE   N22  Ds2  v036
 BYTE   W24
 BYTE   N22
 BYTE   W24
 BYTE   N22
 BYTE   W24
//  #05 //121   ----------------------------------------
 BYTE   Fn2  v048
 BYTE   N90  An2
 BYTE   W24
 BYTE   N22  Fn2  v036
 BYTE   W24
 BYTE   N22
 BYTE   W24
 BYTE   N22
 BYTE   W24
//  #05 //122   ----------------------------------------
Label_01121942:
 BYTE   N22  Gn2  v048
 BYTE   W24
 BYTE   Gn2  v036
 BYTE   W24
 BYTE   N22
 BYTE   W24
 BYTE   N22
 BYTE   W24
 BYTE   PEND 
//  #05 //123   ----------------------------------------
 BYTE   Dn2  v048
 BYTE   N44  Fn2
 BYTE   W24
 BYTE   N22  Dn2  v036
 BYTE   W24
 BYTE   N22
 BYTE   N44  An2  v048
 BYTE   W24
 BYTE   N22  Dn2  v036
 BYTE   W24
//  #05 //124   ----------------------------------------
 BYTE   Ds2  v048
 BYTE   N32  Gn2
 BYTE   W24
 BYTE   N22  Ds2  v036
 BYTE   W12
 BYTE   N32  As2  v048
 BYTE   W12
 BYTE   N22  Ds2  v036
 BYTE   W24
 BYTE   N22
 BYTE   N22  Gn2  v048
 BYTE   W24
//  #05 //125   ----------------------------------------
 BYTE   Fn2
 BYTE   N44  An2
 BYTE   W24
 BYTE   N22  Fn2  v036
 BYTE   W24
 BYTE   N22
 BYTE   N44  An2  v048
 BYTE   W24
 BYTE   N22  Fn2  v036
 BYTE   W24
//  #05 //126   ----------------------------------------
 BYTE   PATT
  POIN2 Label_01121942
//  #05 //127   ----------------------------------------
 BYTE   N22  Dn2  v048
 BYTE   W24
 BYTE   N22
 BYTE   W24
 BYTE   N44  Dn1  v060
 BYTE   N44  An1
 BYTE   N22  Dn2  v032
 BYTE   W24
 BYTE   Dn2  v048
 BYTE   W24
//  #05 //128   ----------------------------------------
Label_0112199E:
 BYTE   N22  Ds1  v048
 BYTE   N44  As1
 BYTE   N44  Ds2
 BYTE   W24
 BYTE   N22  Ds1  v036
 BYTE   W24
 BYTE   N22
 BYTE   W12
 BYTE   N17  Ds2  v048
 BYTE   W12
 BYTE   N22  Ds1  v036
 BYTE   W06
 BYTE   N17  Ds2  v048
 BYTE   W18
 BYTE   PEND 
//  #05 //129   ----------------------------------------
 BYTE   N22  As1
 BYTE   N44  Dn2
 BYTE   N24  Fn2
 BYTE   W24
 BYTE   N22  As1  v036
 BYTE   W24
 BYTE   N22
 BYTE   W12
 BYTE   N17  Dn2  v048
 BYTE   W12
 BYTE   N22  As1  v036
 BYTE   W06
 BYTE   N17  Dn2  v048
 BYTE   W18
//  #05 //130   ----------------------------------------
Label_011219D2:
 BYTE   N22  Fn1  v048
 BYTE   N44  Cn2
 BYTE   N44  Fn2
 BYTE   W24
 BYTE   N22  Fn1  v036
 BYTE   W24
 BYTE   N22
 BYTE   W12
 BYTE   N17  Fn2  v048
 BYTE   W12
 BYTE   N22  Fn1  v036
 BYTE   W06
 BYTE   N17  Fn2  v048
 BYTE   W18
 BYTE   PEND 
//  #05 //131   ----------------------------------------
 BYTE   N22  Gn1
 BYTE   N44  Dn2
 BYTE   N44  Gn2
 BYTE   W24
 BYTE   N22  Gn1  v036
 BYTE   W24
 BYTE   N22
 BYTE   W12
 BYTE   N17  Gn2  v048
 BYTE   W12
 BYTE   N22  Gn1  v036
 BYTE   W06
 BYTE   N17  Gn2  v048
 BYTE   W18
//  #05 //132   ----------------------------------------
 BYTE   PATT
  POIN2 Label_0112199E
//  #05 //133   ----------------------------------------
 BYTE   N22  As1  v048
 BYTE   N44  Dn2
 BYTE   N44  Fn2
 BYTE   W24
 BYTE   N22  As1  v036
 BYTE   W24
 BYTE   N22
 BYTE   W12
 BYTE   N17  Dn2  v048
 BYTE   W12
 BYTE   N22  As1  v036
 BYTE   W06
 BYTE   N17  Dn2  v048
 BYTE   W18
//  #05 //134   ----------------------------------------
 BYTE   PATT
  POIN2 Label_011219D2
//  #05 //135   ----------------------------------------
 BYTE   N22  Fn1  v048
 BYTE   N22  Cn2
 BYTE   N22  Fn2
 BYTE   W48
 BYTE   N44  Fn1  v080
 BYTE   N44  Cn2
 BYTE   N44  Fn2
 BYTE   W48
//  #05 //136   ----------------------------------------
 BYTE   N22  Ds2  v044
 BYTE   N22  Gn2
 BYTE   N22  As2
 BYTE   W60
 BYTE   N32  Ds2
 BYTE   N32  Gn2
 BYTE   N32  As2
 BYTE   W36
//  #05 //137   ----------------------------------------
 BYTE   PATT
  POIN2 Label_011213ED
//  #05 //138   ----------------------------------------
 BYTE   PATT
  POIN2 Label_01121403
//  #05 //139   ----------------------------------------
 BYTE   N22  Dn2  v044
 BYTE   N22  Fn2
 BYTE   N22  An2
 BYTE   W60
 BYTE   N32  Dn2
 BYTE   N32  Fn2
 BYTE   N32  An2
 BYTE   W36
//  #05 //140   ----------------------------------------
 BYTE   GoTo
  POIN2 Label_01121421
//  #05 //141   ----------------------------------------
 BYTE   PATT
  POIN2 Label_01121422
//  #05 //142   ----------------------------------------
 BYTE   PATT
  POIN2 Label_011213ED
//  #05 //143   ----------------------------------------
 BYTE   PATT
  POIN2 Label_01121403
//  #05 //144   ----------------------------------------
 BYTE   N22  Dn2  v044
 BYTE   N22  Fn2
 BYTE   N22  As2
 BYTE   W60
 BYTE   N17
 BYTE   N17  Dn3
 BYTE   N17  Fn3
 BYTE   W18
 BYTE   As2
 BYTE   N17  Dn3
 BYTE   N17  Fn3
 BYTE   W17
 BYTE   FINE

//**************** Track 6 (Midi-Chn.5) ****************//

song03DF_006:
//  #06 //000   ----------------------------------------
 BYTE   VOL   80*song03DF_mvl/mxv
 BYTE   KEYSH   song03DF_key+0
 BYTE   VOICE   124
 BYTE   MODT 0
 BYTE   LFOS 44
 BYTE   N96  Cn1  v044
 BYTE   N24  Fs1
 BYTE   W24
 BYTE   N24
 BYTE   W24
 BYTE   N48
 BYTE   N24  Fs2
 BYTE   W24
 BYTE   N24
 BYTE   W24
//  #06 //001   ----------------------------------------
Label_01A1681C:
 BYTE   N96  Cn1  v044
 BYTE   N24  Fs1
 BYTE   W24
 BYTE   N24
 BYTE   W24
 BYTE   N48
 BYTE   N24  Fs2
 BYTE   W24
 BYTE   N24
 BYTE   W24
 BYTE   PEND 
//  #06 //002   ----------------------------------------
 BYTE   PATT
  POIN2 Label_01A1681C
//  #06 //003   ----------------------------------------
 BYTE   N96  Cn1  v044
 BYTE   N24  Fs1
 BYTE   W24
 BYTE   N24
 BYTE   W24
 BYTE   N48
 BYTE   N24  Fs2
 BYTE   W24
Label_01A1683C:
 BYTE   N24  Bn0  v044
 BYTE   N24  Fs2
 BYTE   W24
//  #06 //004   ----------------------------------------
 BYTE   PATT
  POIN2 Label_01A1681C
//  #06 //005   ----------------------------------------
 BYTE   PATT
  POIN2 Label_01A1681C
//  #06 //006   ----------------------------------------
 BYTE   PATT
  POIN2 Label_01A1681C
//  #06 //007   ----------------------------------------
 BYTE   N48  Cn1  v044
 BYTE   N24  Fs1
 BYTE   W24
 BYTE   N24
 BYTE   W24
 BYTE   N48  Cn1
 BYTE   N48  Fs1
 BYTE   N24  Fs2
 BYTE   W24
 BYTE   Bn0
 BYTE   N24  Fs2
 BYTE   W24
//  #06 //008   ----------------------------------------
 BYTE   N96  Cn1
 BYTE   W96
//  #06 //009   ----------------------------------------
 BYTE   N96
 BYTE   W96
//  #06 //010   ----------------------------------------
 BYTE   N96
 BYTE   W96
//  #06 //011   ----------------------------------------
Label_01A1686B:
 BYTE   N48  Cn1  v044
 BYTE   W48
 BYTE   N48
 BYTE   W48
 BYTE   PEND 
//  #06 //012   ----------------------------------------
Label_01A16872:
 BYTE   N48  Cn1  v044
 BYTE   N24  Gs2
 BYTE   W48
 BYTE   N48  Cn1
 BYTE   W48
 BYTE   PEND 
//  #06 //013   ----------------------------------------
 BYTE   PATT
  POIN2 Label_01A16872
//  #06 //014   ----------------------------------------
 BYTE   PATT
  POIN2 Label_01A16872
//  #06 //015   ----------------------------------------
 BYTE   N48  Cn1  v044
 BYTE   N24  Gs2
 BYTE   W60
 BYTE   N12  Cn1
 BYTE   W24
 BYTE   N12
 BYTE   W12
//  #06 //016   ----------------------------------------
Label_01A16891:
 BYTE   N24  Cn1  v044
 BYTE   N12  Fs2
 BYTE   N12  Gs2
 BYTE   W12
 BYTE   Fs2
 BYTE   W12
 BYTE   N24  Cn1
 BYTE   N24  Fs2
 BYTE   N12  Gs2
 BYTE   W24
 BYTE   N24  Cn1
 BYTE   N24  Fs1
 BYTE   W24
 BYTE   Cn1
 BYTE   N24  Ds2
 BYTE   W24
 BYTE   PEND 
//  #06 //017   ----------------------------------------
 BYTE   PATT
  POIN2 Label_01A16891
//  #06 //018   ----------------------------------------
 BYTE   PATT
  POIN2 Label_01A16891
//  #06 //019   ----------------------------------------
 BYTE   N24  Cn1  v044
 BYTE   N12  Fs2
 BYTE   N12  Gs2
 BYTE   W12
 BYTE   Fs2
 BYTE   W12
 BYTE   N24  Cn1
 BYTE   N24  Fs2
 BYTE   N12  Gs2
 BYTE   W24
 BYTE   N24  Cn1
 BYTE   N24  Fs1
 BYTE   W24
 BYTE   Cn1
 BYTE   W24
//  #06 //020   ----------------------------------------
 BYTE   PATT
  POIN2 Label_01A16891
//  #06 //021   ----------------------------------------
 BYTE   PATT
  POIN2 Label_01A16891
//  #06 //022   ----------------------------------------
 BYTE   PATT
  POIN2 Label_01A16891
//  #06 //023   ----------------------------------------
 BYTE   N24  Cn1  v044
 BYTE   N12  Fs2
 BYTE   N12  Gs2
 BYTE   W12
 BYTE   Bn0
 BYTE   N12  Fs2
 BYTE   W12
 BYTE   N24  Cn1
 BYTE   N24  Fs2
 BYTE   N12  Gs2
 BYTE   W24
 BYTE   N24  Cn1
 BYTE   N24  Fs1
 BYTE   W24
 BYTE   Cn1
 BYTE   N24  Ds2
 BYTE   N12  Gs2
 BYTE   W12
 BYTE   Bn0
 BYTE   W12
//  #06 //024   ----------------------------------------
 BYTE   N48  An2
 BYTE   W96
//  #06 //025   ----------------------------------------
 BYTE   W96
//  #06 //026   ----------------------------------------
 BYTE   W96
//  #06 //027   ----------------------------------------
 BYTE   W96
//  #06 //028   ----------------------------------------
 BYTE   W96
//  #06 //029   ----------------------------------------
 BYTE   W96
//  #06 //030   ----------------------------------------
 BYTE   W96
//  #06 //031   ----------------------------------------
 BYTE   W36
 BYTE   N12  Cn1
 BYTE   N12  Fs1
 BYTE   N12  Gs1
 BYTE   N12  Fs2
 BYTE   W12
 BYTE   Cn1
 BYTE   N12  Gs2
 BYTE   W12
 BYTE   Bn0
 BYTE   N12  Cn1
 BYTE   N12  Fs1
 BYTE   N12  Gs1
 BYTE   W12
 BYTE   Cn1
 BYTE   W12
 BYTE   N12
 BYTE   N12  Fs1
 BYTE   N12  Gs1
 BYTE   N12  Fs2
 BYTE   W12
//  #06 //032   ----------------------------------------
Label_01A16926:
 BYTE   N24  Cn1  v044
 BYTE   N12  Gs1
 BYTE   N12  Fs2
 BYTE   N24  An2
 BYTE   W12
 BYTE   N12  Gs1
 BYTE   W12
 BYTE   N24  Cn1
 BYTE   N12  Fs1
 BYTE   N12  Fs2
 BYTE   W12
 BYTE   Fs1
 BYTE   W12
 BYTE   N24  Cn1
 BYTE   N12  Gs1
 BYTE   N12  Fs2
 BYTE   W12
 BYTE   Fs1
 BYTE   N12  Gs1
 BYTE   W12
 BYTE   N24  Cn1
 BYTE   N12  Fs1
 BYTE   N12  Fs2
 BYTE   W12
 BYTE   Gs1
 BYTE   W12
 BYTE   PEND 
//  #06 //033   ----------------------------------------
Label_01A16951:
 BYTE   N24  Cn1  v044
 BYTE   N12  Gs1
 BYTE   N12  Fs2
 BYTE   W12
 BYTE   Gs1
 BYTE   W12
 BYTE   N24  Cn1
 BYTE   N12  Fs1
 BYTE   N12  Fs2
 BYTE   W12
 BYTE   Fs1
 BYTE   W12
 BYTE   N24  Cn1
 BYTE   N12  Gs1
 BYTE   N12  Fs2
 BYTE   W12
 BYTE   Fs1
 BYTE   N12  Gs1
 BYTE   W12
 BYTE   N24  Cn1
 BYTE   N12  Fs1
 BYTE   N12  Fs2
 BYTE   W12
 BYTE   Gs1
 BYTE   W12
 BYTE   PEND 
//  #06 //034   ----------------------------------------
 BYTE   PATT
  POIN2 Label_01A16951
//  #06 //035   ----------------------------------------
 BYTE   PATT
  POIN2 Label_01A16951
//  #06 //036   ----------------------------------------
 BYTE   PATT
  POIN2 Label_01A16951
//  #06 //037   ----------------------------------------
 BYTE   PATT
  POIN2 Label_01A16951
//  #06 //038   ----------------------------------------
 BYTE   PATT
  POIN2 Label_01A16951
//  #06 //039   ----------------------------------------
 BYTE   PATT
  POIN2 Label_01A16951
//  #06 //040   ----------------------------------------
Label_01A16997:
 BYTE   N24  Cn1  v044
 BYTE   N12  Gs1
 BYTE   N12  Ds2
 BYTE   N12  Fs2
 BYTE   W12
 BYTE   Gs1
 BYTE   W12
 BYTE   N24  Cn1
 BYTE   N12  Fs1
 BYTE   N12  Ds2
 BYTE   N12  Fs2
 BYTE   W12
 BYTE   Fs1
 BYTE   W12
 BYTE   N24  Cn1
 BYTE   N12  Gs1
 BYTE   N12  Fs2
 BYTE   W12
 BYTE   Fs1
 BYTE   N12  Gs1
 BYTE   W12
 BYTE   N24  Cn1
 BYTE   N12  Fs1
 BYTE   N12  Fs2
 BYTE   W12
 BYTE   Gs1
 BYTE   W12
 BYTE   PEND 
//  #06 //041   ----------------------------------------
 BYTE   PATT
  POIN2 Label_01A16951
//  #06 //042   ----------------------------------------
 BYTE   PATT
  POIN2 Label_01A16951
//  #06 //043   ----------------------------------------
 BYTE   PATT
  POIN2 Label_01A16951
//  #06 //044   ----------------------------------------
 BYTE   PATT
  POIN2 Label_01A16997
//  #06 //045   ----------------------------------------
 BYTE   PATT
  POIN2 Label_01A16951
//  #06 //046   ----------------------------------------
 BYTE   PATT
  POIN2 Label_01A16951
//  #06 //047   ----------------------------------------
 BYTE   N24  Cn1  v044
 BYTE   N12  Gs1
 BYTE   N12  Fs2
 BYTE   W12
 BYTE   Gs1
 BYTE   W12
 BYTE   N24  Cn1
 BYTE   N12  Fs1
 BYTE   N12  Ds2
 BYTE   N12  Fs2
 BYTE   W12
 BYTE   Fs1
 BYTE   W12
 BYTE   N24  Cn1
 BYTE   N12  Fs1
 BYTE   N12  Gs1
 BYTE   N12  Ds2
 BYTE   N12  Fs2
 BYTE   W12
 BYTE   Bn0
 BYTE   N12  Fs1
 BYTE   N12  Gs1
 BYTE   N12  Gs2
 BYTE   W12
 BYTE   Bn0
 BYTE   N24  Cn1
 BYTE   N12  Fs1
 BYTE   N12  Ds2
 BYTE   N12  Fs2
 BYTE   W12
 BYTE   Bn0
 BYTE   N12  Fs1
 BYTE   N12  Gs1
 BYTE   N12  Fs2
 BYTE   N12  Gs2
 BYTE   W12
//  #06 //048   ----------------------------------------
 BYTE   N96  An2
 BYTE   W96
//  #06 //049   ----------------------------------------
 BYTE   W96
//  #06 //050   ----------------------------------------
 BYTE   W96
//  #06 //051   ----------------------------------------
 BYTE   W96
//  #06 //052   ----------------------------------------
 BYTE   W96
//  #06 //053   ----------------------------------------
 BYTE   W96
//  #06 //054   ----------------------------------------
 BYTE   W96
//  #06 //055   ----------------------------------------
 BYTE   W96
//  #06 //056   ----------------------------------------
 BYTE   W96
//  #06 //057   ----------------------------------------
 BYTE   W96
//  #06 //058   ----------------------------------------
 BYTE   W96
//  #06 //059   ----------------------------------------
 BYTE   W96
//  #06 //060   ----------------------------------------
 BYTE   W96
//  #06 //061   ----------------------------------------
 BYTE   W96
//  #06 //062   ----------------------------------------
 BYTE   W96
//  #06 //063   ----------------------------------------
 BYTE   W48
 BYTE   N12  Cn1
 BYTE   N12  Fs1
 BYTE   N12  Gs1
 BYTE   W12
 BYTE   Cn1
 BYTE   N12  Fs1
 BYTE   N12  Ds2
 BYTE   N12  Gs2
 BYTE   W12
 BYTE   Bn0
 BYTE   N12  Cn1
 BYTE   N12  Fs1
 BYTE   N12  Gs1
 BYTE   W12
 BYTE   Cn1
 BYTE   N12  Fs1
 BYTE   N12  Ds2
 BYTE   N12  Fs2
 BYTE   W12
//  #06 //064   ----------------------------------------
 BYTE   N24  Cn1
 BYTE   N12  Gs1
 BYTE   N48  An2
 BYTE   W12
 BYTE   N12  Gs1
 BYTE   W12
 BYTE   N24  Cn1
 BYTE   N12  Fs1
 BYTE   W12
 BYTE   N12
 BYTE   N12  Gs2
 BYTE   W12
 BYTE   Bn0
 BYTE   N24  Cn1
 BYTE   N12  Gs1
 BYTE   W12
 BYTE   N12
 BYTE   N12  Fs2
 BYTE   W12
 BYTE   N24  Cn1
 BYTE   N12  Fs1
 BYTE   W12
 BYTE   N12
 BYTE   W12
//  #06 //065   ----------------------------------------
Label_01A16A72:
 BYTE   N24  Cn1  v044
 BYTE   N12  Gs1
 BYTE   W12
 BYTE   N12
 BYTE   W12
 BYTE   N24  Cn1
 BYTE   N12  Fs1
 BYTE   W12
 BYTE   N12
 BYTE   W12
 BYTE   N24  Cn1
 BYTE   N12  Gs1
 BYTE   W12
 BYTE   N12
 BYTE   W12
 BYTE   N24  Cn1
 BYTE   N12  Fs1
 BYTE   W12
 BYTE   N12
 BYTE   W12
 BYTE   PEND 
//  #06 //066   ----------------------------------------
 BYTE   PATT
  POIN2 Label_01A16A72
//  #06 //067   ----------------------------------------
 BYTE   PATT
  POIN2 Label_01A16A72
//  #06 //068   ----------------------------------------
 BYTE   PATT
  POIN2 Label_01A16A72
//  #06 //069   ----------------------------------------
 BYTE   PATT
  POIN2 Label_01A16A72
//  #06 //070   ----------------------------------------
 BYTE   PATT
  POIN2 Label_01A16A72
//  #06 //071   ----------------------------------------
 BYTE   N24  Cn1  v044
 BYTE   N12  Gs1
 BYTE   W12
 BYTE   N12
 BYTE   W12
 BYTE   N24  Cn1
 BYTE   N12  Fs1
 BYTE   W12
 BYTE   N12
 BYTE   W12
 BYTE   N24  Cn1
 BYTE   N12  Fs1
 BYTE   N12  Gs1
 BYTE   W12
 BYTE   Fs1
 BYTE   N12  Gs1
 BYTE   N12  Gs2
 BYTE   W12
 BYTE   Bn0
 BYTE   N24  Cn1
 BYTE   N12  Fs1
 BYTE   W12
 BYTE   N12
 BYTE   N12  Fs2
 BYTE   W12
//  #06 //072   ----------------------------------------
 BYTE   N24  An2
 BYTE   W96
//  #06 //073   ----------------------------------------
 BYTE   W96
//  #06 //074   ----------------------------------------
 BYTE   W96
//  #06 //075   ----------------------------------------
 BYTE   Cn1
 BYTE   W24
 BYTE   N24
 BYTE   N24  Fs1
 BYTE   N12  Ds2
 BYTE   N12  Gs2
 BYTE   W12
 BYTE   N24  Bn0
 BYTE   N12  Fs2
 BYTE   W12
 BYTE   N24  Cn1
 BYTE   N24  Fs1
 BYTE   N12  Ds2
 BYTE   N12  Gs2
 BYTE   W12
 BYTE   N24  Bn0
 BYTE   N12  Gs1
 BYTE   N12  Fs2
 BYTE   W12
 BYTE   N24  Cn1
 BYTE   N12  Ds2
 BYTE   N12  Gs2
 BYTE   W12
 BYTE   Gs1
 BYTE   N12  Fs2
 BYTE   W12
//  #06 //076   ----------------------------------------
 BYTE   N48  An2
 BYTE   W96
//  #06 //077   ----------------------------------------
 BYTE   N48
 BYTE   W96
//  #06 //078   ----------------------------------------
 BYTE   N48
 BYTE   W96
//  #06 //079   ----------------------------------------
 BYTE   W96
//  #06 //080   ----------------------------------------
 BYTE   PATT
  POIN2 Label_01A1686B
//  #06 //081   ----------------------------------------
 BYTE   PATT
  POIN2 Label_01A1686B
//  #06 //082   ----------------------------------------
 BYTE   PATT
  POIN2 Label_01A1686B
//  #06 //083   ----------------------------------------
 BYTE   PATT
  POIN2 Label_01A1686B
//  #06 //084   ----------------------------------------
 BYTE   PATT
  POIN2 Label_01A1686B
//  #06 //085   ----------------------------------------
 BYTE   PATT
  POIN2 Label_01A1686B
//  #06 //086   ----------------------------------------
 BYTE   PATT
  POIN2 Label_01A1686B
//  #06 //087   ----------------------------------------
 BYTE   N48  Cn1  v044
 BYTE   W48
 BYTE   N12
 BYTE   W18
 BYTE   N12
 BYTE   W18
 BYTE   N12
 BYTE   W12
//  #06 //088   ----------------------------------------
Label_01A16B33:
 BYTE   N24  Cn1  v044
 BYTE   N12  Gs1
 BYTE   W12
 BYTE   N12
 BYTE   W12
 BYTE   N24  Cn1
 BYTE   N12  Fs2
 BYTE   W12
 BYTE   N12
 BYTE   W12
 BYTE   N24  Cn1
 BYTE   N12  Gs1
 BYTE   W12
 BYTE   N12
 BYTE   W12
 BYTE   N24  Cn1
 BYTE   N24  Ds2
 BYTE   N12  Fs2
 BYTE   W12
 BYTE   N12
 BYTE   W12
 BYTE   PEND 
//  #06 //089   ----------------------------------------
 BYTE   PATT
  POIN2 Label_01A16B33
//  #06 //090   ----------------------------------------
 BYTE   PATT
  POIN2 Label_01A16B33
//  #06 //091   ----------------------------------------
 BYTE   PATT
  POIN2 Label_01A16B33
//  #06 //092   ----------------------------------------
 BYTE   PATT
  POIN2 Label_01A16B33
//  #06 //093   ----------------------------------------
 BYTE   PATT
  POIN2 Label_01A16B33
//  #06 //094   ----------------------------------------
 BYTE   PATT
  POIN2 Label_01A16B33
//  #06 //095   ----------------------------------------
 BYTE   N24  Cn1  v044
 BYTE   N12  Gs1
 BYTE   W12
 BYTE   N12
 BYTE   W12
 BYTE   N24  Cn1
 BYTE   N12  Fs1
 BYTE   N12  Fs2
 BYTE   W12
 BYTE   Fs1
 BYTE   N12  Fs2
 BYTE   W12
 BYTE   Bn0
 BYTE   N12  Cn1
 BYTE   N12  Gs1
 BYTE   W12
 BYTE   Cn1
 BYTE   N12  Gs1
 BYTE   N12  Gs2
 BYTE   W12
 BYTE   Bn0
 BYTE   N12  Cn1
 BYTE   N24  Ds2
 BYTE   N12  Fs2
 BYTE   W12
 BYTE   Cn1
 BYTE   N12  Fs1
 BYTE   N12  Fs2
 BYTE   W12
//  #06 //096   ----------------------------------------
 BYTE   N24  Ds2
 BYTE   W96
//  #06 //097   ----------------------------------------
 BYTE   N96  Cn1
 BYTE   W96
//  #06 //098   ----------------------------------------
 BYTE   N96
 BYTE   W96
//  #06 //099   ----------------------------------------
 BYTE   N96
 BYTE   W96
//  #06 //100   ----------------------------------------
 BYTE   N48
 BYTE   W48
 BYTE   N24
 BYTE   W24
 BYTE   N24
 BYTE   W24
//  #06 //101   ----------------------------------------
Label_01A16BAE:
 BYTE   N24  Cn1  v044
 BYTE   W24
 BYTE   N24
 BYTE   W24
 BYTE   N24
 BYTE   W24
 BYTE   N24
 BYTE   W24
 BYTE   PEND 
//  #06 //102   ----------------------------------------
 BYTE   PATT
  POIN2 Label_01A16BAE
//  #06 //103   ----------------------------------------
 BYTE   N24  Cn1  v044
 BYTE   W24
 BYTE   N12  Bn0
 BYTE   N12  Cn1
 BYTE   N12  Fs1
 BYTE   W12
 BYTE   Cn1
 BYTE   N12  Fs1
 BYTE   N12  Gs1
 BYTE   N12  Gs2
 BYTE   W12
 BYTE   Bn0
 BYTE   N12  Cn1
 BYTE   N12  Fs1
 BYTE   N12  Ds2
 BYTE   W12
 BYTE   Cn1
 BYTE   N12  Fs1
 BYTE   N12  Gs1
 BYTE   W12
 BYTE   Bn0
 BYTE   N12  Cn1
 BYTE   N12  Fs1
 BYTE   N12  Ds2
 BYTE   W12
 BYTE   Cn1
 BYTE   N12  Fs1
 BYTE   N12  Gs1
 BYTE   N12  Gs2
 BYTE   W12
//  #06 //104   ----------------------------------------
 BYTE   N24  Cn1
 BYTE   N12  Fs2
 BYTE   N24  An2
 BYTE   W12
 BYTE   N12  Gs1
 BYTE   W12
 BYTE   N24  Cn1
 BYTE   N12  Fs2
 BYTE   W12
 BYTE   Gs1
 BYTE   W12
 BYTE   N24  Cn1
 BYTE   N12  Fs2
 BYTE   W12
 BYTE   Gs1
 BYTE   W12
 BYTE   N24  Cn1
 BYTE   N12  Fs2
 BYTE   W12
 BYTE   Gs1
 BYTE   W12
//  #06 //105   ----------------------------------------
Label_01A16C0E:
 BYTE   N24  Cn1  v044
 BYTE   N12  Fs2
 BYTE   W12
 BYTE   Gs1
 BYTE   W12
 BYTE   N24  Cn1
 BYTE   N12  Fs2
 BYTE   W12
 BYTE   Gs1
 BYTE   W12
 BYTE   N24  Cn1
 BYTE   N12  Fs2
 BYTE   W12
 BYTE   Gs1
 BYTE   W12
 BYTE   N24  Cn1
 BYTE   N12  Fs2
 BYTE   W12
 BYTE   Gs1
 BYTE   W12
 BYTE   PEND 
//  #06 //106   ----------------------------------------
 BYTE   PATT
  POIN2 Label_01A16C0E
//  #06 //107   ----------------------------------------
 BYTE   PATT
  POIN2 Label_01A16C0E
//  #06 //108   ----------------------------------------
 BYTE   PATT
  POIN2 Label_01A16C0E
//  #06 //109   ----------------------------------------
 BYTE   PATT
  POIN2 Label_01A16C0E
//  #06 //110   ----------------------------------------
 BYTE   PATT
  POIN2 Label_01A16C0E
//  #06 //111   ----------------------------------------
 BYTE   N24  Cn1  v044
 BYTE   N12  Fs2
 BYTE   W12
 BYTE   Gs1
 BYTE   W12
 BYTE   Cn1
 BYTE   W12
 BYTE   N12
 BYTE   N12  Fs1
 BYTE   N12  Gs1
 BYTE   N12  Fs2
 BYTE   W12
 BYTE   Cn1
 BYTE   N12  Gs2
 BYTE   W12
 BYTE   Bn0
 BYTE   N12  Cn1
 BYTE   N12  Fs1
 BYTE   N12  Gs1
 BYTE   W12
 BYTE   Cn1
 BYTE   W12
 BYTE   N12
 BYTE   N12  Fs1
 BYTE   N12  Gs1
 BYTE   N12  Fs2
 BYTE   W12
//  #06 //112   ----------------------------------------
 BYTE   PATT
  POIN2 Label_01A16926
//  #06 //113   ----------------------------------------
 BYTE   PATT
  POIN2 Label_01A16926
//  #06 //114   ----------------------------------------
 BYTE   PATT
  POIN2 Label_01A16926
//  #06 //115   ----------------------------------------
 BYTE   PATT
  POIN2 Label_01A16926
//  #06 //116   ----------------------------------------
 BYTE   PATT
  POIN2 Label_01A16926
//  #06 //117   ----------------------------------------
 BYTE   PATT
  POIN2 Label_01A16926
//  #06 //118   ----------------------------------------
 BYTE   PATT
  POIN2 Label_01A16926
//  #06 //119   ----------------------------------------
 BYTE   PATT
  POIN2 Label_01A16926
//  #06 //120   ----------------------------------------
 BYTE   N96  Cn1  v044
 BYTE   W96
//  #06 //121   ----------------------------------------
 BYTE   N96
 BYTE   W96
//  #06 //122   ----------------------------------------
 BYTE   N96
 BYTE   W96
//  #06 //123   ----------------------------------------
 BYTE   N96
 BYTE   W96
//  #06 //124   ----------------------------------------
 BYTE   N96
 BYTE   W96
//  #06 //125   ----------------------------------------
 BYTE   N96
 BYTE   W96
//  #06 //126   ----------------------------------------
 BYTE   N96
 BYTE   W96
//  #06 //127   ----------------------------------------
 BYTE   N96
 BYTE   W96
//  #06 //128   ----------------------------------------
 BYTE   N96
 BYTE   W96
//  #06 //129   ----------------------------------------
 BYTE   N96
 BYTE   W96
//  #06 //130   ----------------------------------------
 BYTE   N96
 BYTE   W96
//  #06 //131   ----------------------------------------
 BYTE   PATT
  POIN2 Label_01A1686B
//  #06 //132   ----------------------------------------
 BYTE   PATT
  POIN2 Label_01A1686B
//  #06 //133   ----------------------------------------
 BYTE   PATT
  POIN2 Label_01A1686B
//  #06 //134   ----------------------------------------
 BYTE   PATT
  POIN2 Label_01A1686B
//  #06 //135   ----------------------------------------
 BYTE   PATT
  POIN2 Label_01A1686B
//  #06 //136   ----------------------------------------
 BYTE   PATT
  POIN2 Label_01A1681C
//  #06 //137   ----------------------------------------
 BYTE   PATT
  POIN2 Label_01A1681C
//  #06 //138   ----------------------------------------
 BYTE   PATT
  POIN2 Label_01A1681C
//  #06 //139   ----------------------------------------
 BYTE   PATT
  POIN2 Label_01A1681C
//  #06 //140   ----------------------------------------
 BYTE   GoTo
  POIN2 Label_01A1683C
//  #06 //141   ----------------------------------------
 BYTE   W96
//  #06 //142   ----------------------------------------
 BYTE   W96
//  #06 //143   ----------------------------------------
 BYTE   W96
//  #06 //144   ----------------------------------------
 BYTE   W92
 BYTE   W02
 BYTE   FINE

//******************************************************//
	ALIGN 4

song03DF:
	BYTE	6	// NumTrks
	BYTE	0	// NumBlks
	BYTE	song03DF_pri	// Priority
	BYTE	song03DF_rev	// Reverb.
    
	POIN2	song03DF_grp
    
	POIN2	song03DF_001
	POIN2	song03DF_002
	POIN2	song03DF_003
	POIN2	song03DF_004
	POIN2	song03DF_005
	POIN2	song03DF_006

	
