//Event file generated from Sappy .s format.
	#include "MPlayDef.event"

	#define	kawaikutegomen_FINAL_grp  voicegroup000
	#define	kawaikutegomen_FINAL_pri  0
	#define	kawaikutegomen_FINAL_rev  0
	#define	kawaikutegomen_FINAL_mvl  80
	#define	kawaikutegomen_FINAL_key  0
	#define	kawaikutegomen_FINAL_tbs  1
	#define	kawaikutegomen_FINAL_exg  0
	#define	kawaikutegomen_FINAL_cmp  1

	// .rodata
	//	kawaikutegomen_FINAL
	ALIGN 4

//**************** Track 1 (Midi-Chn.4) ****************//

kawaikutegomen_FINAL_1:
	BYTE	KEYSH   kawaikutegomen_FINAL_key+0
// 000   ----------------------------------------
	BYTE	TEMPO   155*kawaikutegomen_FINAL_tbs/2
	BYTE		MODT    0
	BYTE		LFOS    44
	BYTE	W03
	BYTE		VOICE   0
	BYTE	W24
	BYTE	W01
	BYTE		PAN     c_v+0
	BYTE		VOL     85*kawaikutegomen_FINAL_mvl/mxv
	BYTE		BENDR   64
	BYTE	W01
	BYTE		        64
	BYTE		        64
	BYTE	W01
	BYTE		VOL     85*kawaikutegomen_FINAL_mvl/mxv
	BYTE		MOD     0
	BYTE	MEMACC  mem_set  0x00  0
kawaikutegomen_FINAL_1_L0:
	BYTE		BENDR   12
	BYTE		BEND    c_v+0
	BYTE	W66
// 001   ----------------------------------------
	BYTE	TEMPO   160*kawaikutegomen_FINAL_tbs/2
	BYTE		N12     Gn0   v088
	BYTE		N12     Gn1 
	BYTE		N06     Dn5 
	BYTE		N06     Dn6 
	BYTE	W36
	BYTE		        Dn4 
	BYTE		N06     Dn5 
	BYTE	W10
	BYTE	W02
	BYTE		N12     An0 
	BYTE		N12     An1 
	BYTE		N06     En4 
	BYTE		N06     En5 
	BYTE	W12
	BYTE		        En4 
	BYTE		N06     En5 
	BYTE	W12
	BYTE		        Dn4 
	BYTE		N06     Dn5 
	BYTE	W12
	BYTE		        En4 
	BYTE		N06     En5 
	BYTE	W10
	BYTE	W02
// 002   ----------------------------------------
	BYTE		N12     Fs0 
	BYTE		N12     Fs1 
	BYTE		N06     Fs4 
	BYTE		N06     Fs5 
	BYTE	W24
	BYTE		        Cs5 
	BYTE		N06     Cs6 
	BYTE	W22
	BYTE	W02
	BYTE		N12     Bn0 
	BYTE		N12     Bn1 
	BYTE		N06     Dn5 
	BYTE		N06     Dn6 
	BYTE	W24
	BYTE		        An4 
	BYTE		N06     An5 
	BYTE	W12
	BYTE		        Fs4 
	BYTE		N06     Fs5 
	BYTE	W10
	BYTE	W02
// 003   ----------------------------------------
	BYTE		N12     Gn0 
	BYTE		N12     Gn1 
	BYTE		N06     Dn4 
	BYTE		N06     Dn5 
	BYTE	W36
	BYTE		        Dn4 
	BYTE		N06     Dn5 
	BYTE	W10
	BYTE	W02
	BYTE		N12     An0 
	BYTE		N12     An1 
	BYTE		N06     En4 
	BYTE		N06     En5 
	BYTE	W12
	BYTE		        En4 
	BYTE		N06     En5 
	BYTE	W12
	BYTE		        Dn4 
	BYTE		N06     Dn5 
	BYTE	W12
	BYTE		        En4 
	BYTE		N06     En5 
	BYTE	W10
	BYTE	W02
// 004   ----------------------------------------
	BYTE		N42     Dn0 
	BYTE		N42     Dn1 
	BYTE		N06     Fs4 
	BYTE		N06     Fs5 
	BYTE	W24
	BYTE		        Gn4 
	BYTE		N06     Gn5 
	BYTE	W24
	BYTE		        An4 
	BYTE		N06     An5 
	BYTE	W44
	BYTE	W02
	BYTE	W02
// 005   ----------------------------------------
	BYTE		N12     Gn0 
	BYTE		N12     Gn1 
	BYTE		N06     Dn5 
	BYTE		N06     Dn6 
	BYTE	W36
	BYTE		        Dn4 
	BYTE		N06     Dn5 
	BYTE	W10
	BYTE	W02
	BYTE		N12     An0 
	BYTE		N12     An1 
	BYTE		N06     En4 
	BYTE		N06     En5 
	BYTE	W12
	BYTE		        En4 
	BYTE		N06     En5 
	BYTE	W12
	BYTE		        Dn4 
	BYTE		N06     Dn5 
	BYTE	W12
	BYTE		        En4 
	BYTE		N06     En5 
	BYTE	W10
	BYTE	W02
// 006   ----------------------------------------
	BYTE		N12     As0 
	BYTE		N12     As1 
	BYTE		N06     Fs4 
	BYTE		N06     Fs5 
	BYTE	W24
	BYTE		        Cs5 
	BYTE		N06     Cs6 
	BYTE	W22
	BYTE	W02
	BYTE		N12     Bn0 
	BYTE		N12     Bn1 
	BYTE		N06     Dn5 
	BYTE		N06     Dn6 
	BYTE	W24
	BYTE		        An5 
	BYTE	W12
	BYTE		        Fs5 
	BYTE	W10
	BYTE	W02
// 007   ----------------------------------------
	BYTE		N48     Gn3 
	BYTE		N48     Dn4 
	BYTE		N24     Gn4 
	BYTE		N24     Dn5 
	BYTE	W36
	BYTE		N12   
	BYTE	W10
	BYTE	W02
	BYTE		N48     An3 
	BYTE		N48     En4 
	BYTE		N24     An4 
	BYTE		N12     En5 
	BYTE	W12
	BYTE		N12   
	BYTE	W12
	BYTE		        Dn5 
	BYTE	W12
	BYTE		        Cs5 
	BYTE	W10
	BYTE	W02
// 008   ----------------------------------------
	BYTE		        Dn4 
	BYTE		N12     Fs4 
	BYTE		N12     Dn5 
	BYTE	W24
	BYTE		        An3 
	BYTE		N12     Gn4 
	BYTE		N12     En5 
	BYTE	W24
	BYTE		        Dn4 
	BYTE		N12     Fs4 
	BYTE		N12     Dn5 
	BYTE	W06
	BYTE	W03
	BYTE		N01     Gn7   v060
	BYTE	W01
	BYTE		        Fn7 
	BYTE	W02
	BYTE		        En7 
	BYTE	W01
	BYTE		        Dn7 
	BYTE	W02
	BYTE		        Cn7 
	BYTE	W01
	BYTE		        Bn6 
	BYTE	W02
	BYTE		        An6 
	BYTE	W01
	BYTE		        Gn6 
	BYTE	W02
	BYTE		        Fn6 
	BYTE	W01
	BYTE		        En6 
	BYTE	W02
	BYTE		        Dn6 
	BYTE	W01
	BYTE		        Cn6 
	BYTE	W02
	BYTE		        Bn5 
	BYTE	W01
	BYTE		        An5 
	BYTE	W02
	BYTE		        Gn5 
	BYTE	W01
	BYTE		        Fn5 
	BYTE	W02
	BYTE		        En5 
	BYTE	W01
	BYTE		        Dn5 
	BYTE	W02
	BYTE		        Cn5 
	BYTE	W01
	BYTE		        Bn4 
	BYTE	W09
	BYTE	W02
// 009   ----------------------------------------
	BYTE		N18     Dn3   v088
	BYTE		N12     Fs4 
	BYTE	W12
	BYTE		N06     Fs3   v044
	BYTE		N12     An3   v088
	BYTE	W12
	BYTE		        Dn4 
	BYTE	W10
	BYTE	W02
	BYTE		        Fs4 
	BYTE	W12
	BYTE		N18     An2 
	BYTE		N12     En4 
	BYTE	W12
	BYTE		N06     En3   v044
	BYTE		N12     Cs4   v088
	BYTE	W10
	BYTE	W24
	BYTE	W02
// 010   ----------------------------------------
	BYTE		N18     Bn2 
	BYTE		N12     Dn4 
	BYTE	W12
	BYTE		        Fs3 
	BYTE	W12
	BYTE		        An3 
	BYTE	W10
	BYTE	W02
	BYTE		        Dn4 
	BYTE	W12
	BYTE		N18     Fs2 
	BYTE		N12     Cs4 
	BYTE	W12
	BYTE		N06     Dn3   v044
	BYTE		N12     An3   v088
	BYTE	W10
	BYTE	W24
	BYTE	W02
// 011   ----------------------------------------
	BYTE		N18     Gn2 
	BYTE		N12     Bn3 
	BYTE	W12
	BYTE		        Dn3 
	BYTE	W12
	BYTE		        Gn3 
	BYTE	W10
	BYTE	W02
	BYTE		        Bn3 
	BYTE	W12
	BYTE		N18     Dn2 
	BYTE		N24     An3 
	BYTE	W12
	BYTE		N06     Dn3 
	BYTE	W12
	BYTE		N24     Dn4 
	BYTE	W10
	BYTE	W14
// 012   ----------------------------------------
	BYTE		N18     En2 
	BYTE		N48     Gn3 
	BYTE		N24     Bn3 
	BYTE	W12
	BYTE		N06     Dn3 
	BYTE	W12
	BYTE		N24     Dn4 
	BYTE	W10
	BYTE	W14
	BYTE		        An2 
	BYTE		N48     An3 
	BYTE		N24     En4 
	BYTE	W12
	BYTE		N12     En3 
	BYTE	W12
	BYTE		        An4 
	BYTE	W10
	BYTE	W08
	BYTE		N06     Dn4 
	BYTE		N06     En4 
	BYTE	W06
// 013   ----------------------------------------
	BYTE		N24     Dn3 
	BYTE		N12     Fs4 
	BYTE	W12
	BYTE		        Fs3 
	BYTE		N12     An3 
	BYTE	W12
	BYTE		N06   
	BYTE		N12     Dn4 
	BYTE	W10
	BYTE	W02
	BYTE		        Fs4 
	BYTE	W12
	BYTE		        Cs3 
	BYTE		N12     En4 
	BYTE	W12
	BYTE		        An4 
	BYTE	W10
	BYTE	W24
	BYTE	W02
// 014   ----------------------------------------
	BYTE		N24     Bn2 
	BYTE		N12     Dn4 
	BYTE	W12
	BYTE		        Fs3 
	BYTE	W12
	BYTE		N06     An3 
	BYTE	W10
	BYTE	W02
	BYTE		N12     Dn4 
	BYTE	W12
	BYTE		        An2 
	BYTE		N12     Cs4 
	BYTE	W12
	BYTE		        Fs4 
	BYTE	W10
	BYTE	W24
	BYTE	W02
// 015   ----------------------------------------
	BYTE		N24     Gn2 
	BYTE		N24     Gn3 
	BYTE		N36     Bn3 
	BYTE	W12
	BYTE		N12     Bn2 
	BYTE	W12
	BYTE		N06     Dn3 
	BYTE	W10
	BYTE	W02
	BYTE		        Cs4 
	BYTE	W06
	BYTE		        Dn4 
	BYTE	W06
	BYTE		N12     Fs2 
	BYTE		N12     En4 
	BYTE	W12
	BYTE		        Fs4 
	BYTE	W12
	BYTE		        Dn4 
	BYTE	W10
	BYTE	W02
	BYTE		        An3 
	BYTE	W12
// 016   ----------------------------------------
	BYTE		        En2 
	BYTE		N12     An3 
	BYTE		N12     Dn4 
	BYTE	W24
	BYTE		        An2 
	BYTE		N12     An3 
	BYTE		N12     Cs4 
	BYTE	W24
	BYTE		N24     Dn2 
	BYTE		N30     An3 
	BYTE		N30     Dn4 
	BYTE	W12
	BYTE		N12     An1 
	BYTE	W12
	BYTE		        Dn1 
	BYTE	W10
	BYTE	W14
// 017   ----------------------------------------
kawaikutegomen_FINAL_1_017:
	BYTE		N24     Gn1   v088
	BYTE		N12     Bn4 
	BYTE	W12
	BYTE		        Dn2 
	BYTE		N12     Gn4 
	BYTE	W12
	BYTE		        Gn2 
	BYTE		N12     Bn4 
	BYTE	W12
	BYTE		        Dn5 
	BYTE	W10
	BYTE	W02
	BYTE		N24     An1 
	BYTE		N12     Cs5 
	BYTE	W12
	BYTE		        En2 
	BYTE		N12     An4 
	BYTE	W12
	BYTE		        An2 
	BYTE		N12     Cs5 
	BYTE	W12
	BYTE		        En5 
	BYTE	W10
	BYTE	W02
	BYTE	PEND
// 018   ----------------------------------------
kawaikutegomen_FINAL_1_018:
	BYTE		N24     Dn2   v088
	BYTE		N12     Dn5 
	BYTE	W12
	BYTE		        An2 
	BYTE		N12     An4 
	BYTE	W12
	BYTE		N24     Dn3 
	BYTE		N12     Dn5 
	BYTE	W12
	BYTE		        Fs3 
	BYTE		N06     Fs5 
	BYTE	W06
	BYTE		        Gn5 
	BYTE	W06
	BYTE		N12     An5 
	BYTE	W12
	BYTE		        Fs5 
	BYTE	W12
	BYTE		        En5 
	BYTE	W12
	BYTE		        Fs5 
	BYTE	W10
	BYTE	W02
	BYTE	PEND
// 019   ----------------------------------------
	BYTE	PATT
	 POIN2	kawaikutegomen_FINAL_1_017
// 020   ----------------------------------------
kawaikutegomen_FINAL_1_020:
	BYTE		N48     Dn2   v088
	BYTE		N12     Fs4 
	BYTE		N12     Fs5 
	BYTE	W12
	BYTE		N36     An2 
	BYTE		N12     Gn4 
	BYTE		N12     Gn5 
	BYTE	W12
	BYTE		        Gs4 
	BYTE		N12     Gs5 
	BYTE	W12
	BYTE		        An4 
	BYTE		N12     An5 
	BYTE	W12
	BYTE		        As4 
	BYTE		N12     As5 
	BYTE	W12
	BYTE		        An4 
	BYTE		N12     An5 
	BYTE	W12
	BYTE		        Gs4 
	BYTE		N12     Gs5 
	BYTE	W12
	BYTE		        Gn4 
	BYTE		N12     Gn5 
	BYTE	W10
	BYTE	W02
	BYTE	PEND
// 021   ----------------------------------------
	BYTE		N36     Gn1 
	BYTE		N36     Dn2 
	BYTE		N36     Gn4 
	BYTE		N36     Bn4 
	BYTE		N36     Dn5 
	BYTE	W36
	BYTE		N12     En4 
	BYTE		N12     An4 
	BYTE		N12     Cs5 
	BYTE	W10
	BYTE	W02
	BYTE		N36     An1 
	BYTE		N36     En2 
	BYTE		N12     En4 
	BYTE		N12     An4 
	BYTE		N12     Cs5 
	BYTE	W44
	BYTE	W02
	BYTE	W02
// 022   ----------------------------------------
	BYTE		N36     Fs1 
	BYTE		N36     Cs2 
	BYTE		N36     As3 
	BYTE		N36     Cs4 
	BYTE		N36     En4 
	BYTE	W36
	BYTE		N12     An3 
	BYTE		N12     Dn4 
	BYTE	W10
	BYTE	W02
	BYTE		N36     Bn1 
	BYTE		N36     Fs2 
	BYTE		N12     An3 
	BYTE		N12     Dn4 
	BYTE	W36
	BYTE		N06     Bn3 
	BYTE	W06
	BYTE		        An3 
	BYTE	W04
	BYTE	W02
// 023   ----------------------------------------
	BYTE		N24     Gn0 
	BYTE		N24     Gn1 
	BYTE	W24
	BYTE		N24   
	BYTE	W12
	BYTE		        Dn2 
	BYTE	W12
	BYTE		        Gn2 
	BYTE	W12
	BYTE		        An2 
	BYTE	W12
	BYTE		        Bn2 
	BYTE	W12
	BYTE		N12     Dn3 
	BYTE	W10
	BYTE	W02
// 024   ----------------------------------------
	BYTE		N24     Gn1 
	BYTE		N24     Dn2 
	BYTE		N12     Dn3 
	BYTE		N24     Gn3 
	BYTE	W36
	BYTE		        Gn1 
	BYTE		N24     Gn2 
	BYTE		N24     Bn3 
	BYTE		N24     Dn4 
	BYTE	W36
	BYTE		        Gn1 
	BYTE		N24     Gn2 
	BYTE		N24     Bn3 
	BYTE		N24     Dn4 
	BYTE		N24     Gn4 
	BYTE	W22
	BYTE	W02
// 025   ----------------------------------------
	BYTE		        An1 
	BYTE		N24     An3 
	BYTE		N24     Cs4 
	BYTE		N24     Fs4 
	BYTE	W36
	BYTE		        An2 
	BYTE		N12     An3 
	BYTE		N12     Cs4 
	BYTE		N12     En4 
	BYTE	W12
	BYTE		        An3 
	BYTE		N12     Cs4 
	BYTE		N12     En4 
	BYTE	W24
	BYTE		N24     An1 
	BYTE	W18
	BYTE		        An4 
	BYTE		N24     En5 
	BYTE	W04
	BYTE	W02
// 026   ----------------------------------------
	BYTE		        An0 
	BYTE		N24     An5 
	BYTE	W36
	BYTE		N12     En4 
	BYTE		N12     En5 
	BYTE	W12
	BYTE		        En4 
	BYTE		N12     En5 
	BYTE	W24
	BYTE		N24     An0 
	BYTE	W22
	BYTE	W02
// 027   ----------------------------------------
kawaikutegomen_FINAL_1_027:
	BYTE		N24     As0   v088
	BYTE		N24     As1 
	BYTE		N24     Fn4 
	BYTE		N24     As4 
	BYTE		N24     Fn5 
	BYTE	W24
	BYTE		        Fn4 
	BYTE		N24     Fn5 
	BYTE	W24
	BYTE		        Gn4 
	BYTE		N24     Gn5 
	BYTE	W24
	BYTE		        An4 
	BYTE		N24     An5 
	BYTE	W22
	BYTE	W02
	BYTE	PEND
// 028   ----------------------------------------
	BYTE		        An0 
	BYTE		N24     An1 
	BYTE		N24     An4 
	BYTE		N24     Cs5 
	BYTE		N24     En5 
	BYTE	W24
	BYTE		N01     An0   v060
	BYTE	W01
	BYTE		        Bn0 
	BYTE	W02
	BYTE		        Cn1 
	BYTE	W01
	BYTE		        Dn1 
	BYTE	W01
	BYTE		        En1 
	BYTE	W01
	BYTE		        Fn1 
	BYTE	W02
	BYTE		        Gn1 
	BYTE	W01
	BYTE		        Bn1 
	BYTE	W01
	BYTE		        Cn2 
	BYTE	W01
	BYTE		        Dn2 
	BYTE	W02
	BYTE		        En2 
	BYTE	W01
	BYTE		        Fn2 
	BYTE	W02
	BYTE		        Gn2 
	BYTE	W08
	BYTE		N02     Dn6 
	BYTE	W02
	BYTE		        Cs6 
	BYTE	W02
	BYTE		        Cn6 
	BYTE	W02
	BYTE		        Bn5 
	BYTE	W02
	BYTE		        As5 
	BYTE	W02
	BYTE		        An5 
	BYTE	W02
	BYTE		        Gs5 
	BYTE	W02
	BYTE		        Gn5 
	BYTE	W02
	BYTE		        Fs5 
	BYTE	W02
	BYTE		        Fn5 
	BYTE	W02
	BYTE		N01     En5 
	BYTE	W01
	BYTE		        Ds5 
	BYTE	W01
	BYTE		        Dn5 
	BYTE	W02
	BYTE		        Cs5 
	BYTE	W01
	BYTE		        Cn5 
	BYTE	W02
	BYTE		        Bn4 
	BYTE	W01
	BYTE		        As4 
	BYTE	W02
	BYTE		        An4 
	BYTE	W01
	BYTE		        Gs4 
	BYTE	W02
	BYTE		        Gn4 
	BYTE	W01
	BYTE		        Fs4 
	BYTE	W02
	BYTE		        Fn4 
	BYTE	W01
	BYTE		        En4 
	BYTE	W11
// 029   ----------------------------------------
kawaikutegomen_FINAL_1_029:
	BYTE		N12     Gn0   v088
	BYTE		N12     Bn3 
	BYTE		N12     Bn4 
	BYTE	W04
	BYTE	W02
	BYTE	W06
	BYTE		        Gn1 
	BYTE	W12
	BYTE		        Gn0 
	BYTE		N12     Dn4 
	BYTE		N12     Dn5 
	BYTE	W12
	BYTE		        Gn1 
	BYTE	W12
	BYTE		        An0 
	BYTE		N12     Cs4 
	BYTE		N12     Cs5 
	BYTE	W01
	BYTE	W11
	BYTE		        An1 
	BYTE	W12
	BYTE		        An0 
	BYTE		N12     Dn4 
	BYTE		N12     Dn5 
	BYTE	W12
	BYTE		        An1 
	BYTE	W12
	BYTE	PEND
// 030   ----------------------------------------
kawaikutegomen_FINAL_1_030:
	BYTE		N12     Fs0   v088
	BYTE		N12     En4 
	BYTE		N12     En5 
	BYTE	W01
	BYTE	W11
	BYTE		        Fs1 
	BYTE	W12
	BYTE		        Fs0 
	BYTE		N12     Cs4 
	BYTE		N12     Cs5 
	BYTE	W12
	BYTE		        Fs1 
	BYTE	W12
	BYTE		        Bn0 
	BYTE		N12     Dn4 
	BYTE		N12     Dn5 
	BYTE	W01
	BYTE	W11
	BYTE		        Bn1 
	BYTE	W12
	BYTE		        Bn0 
	BYTE		N12     An3 
	BYTE		N12     An4 
	BYTE	W12
	BYTE		        Bn1 
	BYTE	W12
	BYTE	PEND
// 031   ----------------------------------------
kawaikutegomen_FINAL_1_031:
	BYTE		N12     Gn0   v088
	BYTE		N12     Bn3 
	BYTE		N12     Bn4 
	BYTE	W01
	BYTE	W11
	BYTE		        Gn1 
	BYTE	W12
	BYTE		        Gn0 
	BYTE		N12     Dn4 
	BYTE		N12     Dn5 
	BYTE	W12
	BYTE		        Gn1 
	BYTE	W12
	BYTE		        An0 
	BYTE		N12     Cs4 
	BYTE		N12     Cs5 
	BYTE	W01
	BYTE	W11
	BYTE		        An1 
	BYTE	W12
	BYTE		        An0 
	BYTE		N12     En4 
	BYTE		N12     En5 
	BYTE	W12
	BYTE		        An1 
	BYTE	W09
	BYTE		N15     Fs4 
	BYTE	W03
	BYTE	PEND
// 032   ----------------------------------------
kawaikutegomen_FINAL_1_032:
	BYTE		N12     Dn1   v088
	BYTE		N12     Fs5 
	BYTE	W01
	BYTE	W11
	BYTE		        Dn2 
	BYTE	W12
	BYTE		        Dn1 
	BYTE		N12     En4 
	BYTE		N12     En5 
	BYTE	W12
	BYTE		        Dn2 
	BYTE	W12
	BYTE		        Dn1 
	BYTE		N12     Gn4 
	BYTE		N12     Gn5 
	BYTE	W01
	BYTE	W11
	BYTE		        Dn2 
	BYTE	W12
	BYTE		        Dn1 
	BYTE		N12     Fs4 
	BYTE		N12     Fs5 
	BYTE	W12
	BYTE		        Dn2 
	BYTE	W12
	BYTE	PEND
// 033   ----------------------------------------
kawaikutegomen_FINAL_1_033:
	BYTE		N12     Gn0   v088
	BYTE		N12     Bn3 
	BYTE		N12     Bn4 
	BYTE	W01
	BYTE	W11
	BYTE		        Gn1 
	BYTE	W12
	BYTE		        Gn0 
	BYTE		N12     Dn4 
	BYTE		N12     Dn5 
	BYTE	W12
	BYTE		        Gn1 
	BYTE	W12
	BYTE		        An0 
	BYTE		N12     Cs4 
	BYTE		N12     Cs5 
	BYTE	W01
	BYTE	W11
	BYTE		        An1 
	BYTE	W12
	BYTE		        An0 
	BYTE		N12     En4 
	BYTE		N12     En5 
	BYTE	W12
	BYTE		        An1 
	BYTE	W12
	BYTE	PEND
// 034   ----------------------------------------
kawaikutegomen_FINAL_1_034:
	BYTE		N12     As0   v088
	BYTE		N12     Fs4 
	BYTE		N12     Fs5 
	BYTE	W01
	BYTE	W11
	BYTE		        As1 
	BYTE	W12
	BYTE		        As0 
	BYTE		N12     Cs5 
	BYTE		N12     Cs6 
	BYTE	W12
	BYTE		        As1 
	BYTE	W12
	BYTE		        Bn0 
	BYTE		N12     Dn5 
	BYTE		N12     Dn6 
	BYTE	W01
	BYTE	W11
	BYTE		        Bn1 
	BYTE	W12
	BYTE		        Bn0 
	BYTE		N12     An4 
	BYTE		N12     An5 
	BYTE	W12
	BYTE		        Bn1 
	BYTE	W12
	BYTE	PEND
// 035   ----------------------------------------
kawaikutegomen_FINAL_1_035:
	BYTE		N12     Gn0   v088
	BYTE		N12     Dn4 
	BYTE		N12     Dn5 
	BYTE	W01
	BYTE	W11
	BYTE		        Gn1 
	BYTE	W12
	BYTE		        Gn0 
	BYTE		N12     Fs4 
	BYTE		N12     Fs5 
	BYTE	W12
	BYTE		        Gn1 
	BYTE	W12
	BYTE		        An0 
	BYTE		N12     En4 
	BYTE		N12     En5 
	BYTE	W01
	BYTE	W11
	BYTE		        An1 
	BYTE	W12
	BYTE		        An0 
	BYTE		N12     An4 
	BYTE		N12     An5 
	BYTE	W12
	BYTE		        An1 
	BYTE	W12
	BYTE	PEND
// 036   ----------------------------------------
	BYTE		        Dn1 
	BYTE		N12     Dn3 
	BYTE		N12     Dn4 
	BYTE	W01
	BYTE	W11
	BYTE		        Dn2 
	BYTE		N12     En3 
	BYTE		N12     En4 
	BYTE	W12
	BYTE		        Dn1 
	BYTE		N12     Fs3 
	BYTE		N12     Fs4 
	BYTE	W12
	BYTE		        Dn2 
	BYTE		N12     Gn3 
	BYTE		N12     Gn4 
	BYTE	W12
	BYTE		        Dn1 
	BYTE		N12     Gs3 
	BYTE		N12     Gs4 
	BYTE	W12
	BYTE		        Dn2 
	BYTE		N12     An3 
	BYTE		N12     An4 
	BYTE	W12
	BYTE		        Dn1 
	BYTE		N12     Bn3 
	BYTE		N12     Bn4 
	BYTE	W12
	BYTE		        Dn2 
	BYTE		N12     Cs4 
	BYTE		N12     Cs5 
	BYTE	W12
// 037   ----------------------------------------
kawaikutegomen_FINAL_1_037:
	BYTE		N12     Gn0   v088
	BYTE		N12     Dn4 
	BYTE		N12     An4 
	BYTE		N12     Dn5 
	BYTE	W01
	BYTE	W11
	BYTE		        Gn1 
	BYTE	W12
	BYTE		        Gn0 
	BYTE		N12     Dn4 
	BYTE		N12     An4 
	BYTE	W12
	BYTE		        Gn1 
	BYTE	W12
	BYTE		        An0 
	BYTE		N12     En4 
	BYTE		N12     An4 
	BYTE		N12     Cs5 
	BYTE		N12     En5 
	BYTE	W01
	BYTE	W11
	BYTE		        An1 
	BYTE	W12
	BYTE		        An0 
	BYTE		N12     En4 
	BYTE		N12     An4 
	BYTE	W12
	BYTE		        An1 
	BYTE	W12
	BYTE	PEND
// 038   ----------------------------------------
kawaikutegomen_FINAL_1_038:
	BYTE		N12     Fs0   v088
	BYTE		N12     En4 
	BYTE		N12     An4 
	BYTE		N12     Cs5 
	BYTE		N12     En5 
	BYTE	W01
	BYTE	W11
	BYTE		        Fs1 
	BYTE	W12
	BYTE		        Fs0 
	BYTE		N12     En4 
	BYTE		N12     An4 
	BYTE		N12     Cs5 
	BYTE	W12
	BYTE		        Fs1 
	BYTE	W12
	BYTE		        Bn0 
	BYTE		N12     Dn4 
	BYTE		N12     An4 
	BYTE		N12     Dn5 
	BYTE	W01
	BYTE	W11
	BYTE		        Bn1 
	BYTE	W12
	BYTE		        Bn0 
	BYTE		N12     Dn4 
	BYTE		N12     An4 
	BYTE	W12
	BYTE		        Bn1 
	BYTE	W12
	BYTE	PEND
// 039   ----------------------------------------
kawaikutegomen_FINAL_1_039:
	BYTE		N12     Gn0   v088
	BYTE		N12     Dn4 
	BYTE		N12     An4 
	BYTE		N12     Dn5 
	BYTE	W01
	BYTE	W11
	BYTE		        Gn1 
	BYTE	W12
	BYTE		        Gn0 
	BYTE		N12     Dn4 
	BYTE		N12     An4 
	BYTE	W12
	BYTE		        Gn1 
	BYTE	W12
	BYTE		        An0 
	BYTE		N12     An4 
	BYTE		N12     Cs5 
	BYTE		N12     En5 
	BYTE	W01
	BYTE	W11
	BYTE		        An1 
	BYTE	W12
	BYTE		        An0 
	BYTE		N12     An4 
	BYTE		N12     Cs5 
	BYTE	W12
	BYTE		        An1 
	BYTE	W12
	BYTE	PEND
// 040   ----------------------------------------
kawaikutegomen_FINAL_1_040:
	BYTE		N12     Dn1   v088
	BYTE		N12     An4 
	BYTE		N12     Dn5 
	BYTE		N12     Fs5 
	BYTE	W01
	BYTE	W11
	BYTE		        Dn2 
	BYTE	W12
	BYTE		        Dn1 
	BYTE		N12     An4 
	BYTE		N12     Dn5 
	BYTE	W12
	BYTE		        Dn2 
	BYTE	W12
	BYTE		        Dn1 
	BYTE		N12     Bn4 
	BYTE		N12     Dn5 
	BYTE		N12     Gn5 
	BYTE	W01
	BYTE	W11
	BYTE		        Dn2 
	BYTE	W12
	BYTE		        Dn1 
	BYTE		N12     An4 
	BYTE		N12     Dn5 
	BYTE		N12     Fs5 
	BYTE	W12
	BYTE		        Dn2 
	BYTE	W12
	BYTE	PEND
// 041   ----------------------------------------
	BYTE	PATT
	 POIN2	kawaikutegomen_FINAL_1_037
// 042   ----------------------------------------
kawaikutegomen_FINAL_1_042:
	BYTE		N12     As0   v088
	BYTE		N12     En4 
	BYTE		N12     As4 
	BYTE		N12     Cs5 
	BYTE		N12     En5 
	BYTE	W01
	BYTE	W11
	BYTE		        As1 
	BYTE	W12
	BYTE		        As0 
	BYTE		N12     En4 
	BYTE		N12     As4 
	BYTE		N12     Cs5 
	BYTE	W12
	BYTE		        As1 
	BYTE	W12
	BYTE		        Bn0 
	BYTE		N12     Dn4 
	BYTE		N12     An4 
	BYTE		N12     Dn5 
	BYTE	W01
	BYTE	W11
	BYTE		        Bn1 
	BYTE	W12
	BYTE		        Bn0 
	BYTE		N12     Dn4 
	BYTE		N12     An4 
	BYTE	W12
	BYTE		        Bn1 
	BYTE	W12
	BYTE	PEND
// 043   ----------------------------------------
	BYTE	PATT
	 POIN2	kawaikutegomen_FINAL_1_039
// 044   ----------------------------------------
kawaikutegomen_FINAL_1_044:
	BYTE		N12     Dn1   v088
	BYTE		N12     An4 
	BYTE		N12     Dn5 
	BYTE		N12     Fs5 
	BYTE	W01
	BYTE	W11
	BYTE		        Dn2 
	BYTE	W12
	BYTE		        Dn1 
	BYTE		N12     An4 
	BYTE		N12     Dn5 
	BYTE	W12
	BYTE		        Dn2 
	BYTE	W08
	BYTE		N02     Gn7 
	BYTE	W02
	BYTE		        Fn7 
	BYTE	W02
	BYTE		        En7 
	BYTE	W02
	BYTE		        Dn7 
	BYTE	W02
	BYTE		        Cn7 
	BYTE	W02
	BYTE		        Bn6 
	BYTE	W02
	BYTE		        An6 
	BYTE	W02
	BYTE		        Gn6 
	BYTE	W02
	BYTE		        Fn6 
	BYTE	W02
	BYTE		        En6 
	BYTE	W02
	BYTE		        Dn6 
	BYTE	W02
	BYTE		        Cn6 
	BYTE	W02
	BYTE		        Bn5 
	BYTE	W02
	BYTE		        An5 
	BYTE	W02
	BYTE		        Gn5 
	BYTE	W02
	BYTE		        Fn5 
	BYTE	W02
	BYTE		        En5 
	BYTE	W02
	BYTE		        Dn5 
	BYTE	W02
	BYTE		        Cn5 
	BYTE	W02
	BYTE		        Bn4 
	BYTE	W02
	BYTE		        An4 
	BYTE	W02
	BYTE		        Gn4 
	BYTE	W10
	BYTE	PEND
// 045   ----------------------------------------
kawaikutegomen_FINAL_1_045:
	BYTE		N12     Gn3   v088
	BYTE		N12     Dn4 
	BYTE		N06     Gn4   v024
	BYTE		N15     Dn5   v088
	BYTE	W01
	BYTE		N06     An4   v024
	BYTE	W44
	BYTE	W03
	BYTE		N12     An3   v088
	BYTE		N12     En4 
	BYTE		N12     Cs5 
	BYTE	W01
	BYTE	W44
	BYTE	W03
	BYTE	PEND
// 046   ----------------------------------------
kawaikutegomen_FINAL_1_046:
	BYTE		N12     Dn4   v088
	BYTE		N12     Fs4 
	BYTE		N12     Dn5 
	BYTE	W24
	BYTE		        An3 
	BYTE		N12     Gn4 
	BYTE		N12     En5 
	BYTE	W24
	BYTE		        Dn4 
	BYTE		N12     Fs4 
	BYTE		N12     Dn5 
	BYTE	W48
	BYTE	PEND
// 047   ----------------------------------------
kawaikutegomen_FINAL_1_047:
	BYTE		N12     Gn0   v088
	BYTE		N06     Dn5 
	BYTE		N06     Dn6 
	BYTE	W01
	BYTE	W11
	BYTE		N12     Gn1 
	BYTE	W12
	BYTE		        Gn0 
	BYTE	W12
	BYTE		        Gn1 
	BYTE		N06     Dn4 
	BYTE		N06     Dn5 
	BYTE	W12
	BYTE		N12     An0 
	BYTE		N06     En4 
	BYTE		N06     En5 
	BYTE	W01
	BYTE	W11
	BYTE		N12     An1 
	BYTE		N06     En4 
	BYTE		N06     En5 
	BYTE	W12
	BYTE		N12     An0 
	BYTE		N06     Dn4 
	BYTE		N06     Dn5 
	BYTE	W12
	BYTE		N12     An1 
	BYTE		N06     En4 
	BYTE		N06     En5 
	BYTE	W12
	BYTE	PEND
// 048   ----------------------------------------
kawaikutegomen_FINAL_1_048:
	BYTE		N12     Fs0   v088
	BYTE		N06     Fs4 
	BYTE		N06     Fs5 
	BYTE	W01
	BYTE	W11
	BYTE		N12     Fs1 
	BYTE	W12
	BYTE		        Fs0 
	BYTE		N06     Cs5 
	BYTE		N06     Cs6 
	BYTE	W12
	BYTE		N12     Fs1 
	BYTE	W12
	BYTE		        Bn0 
	BYTE		N06     Dn5 
	BYTE		N06     Dn6 
	BYTE	W01
	BYTE	W11
	BYTE		N12     Bn1 
	BYTE	W12
	BYTE		        Bn0 
	BYTE		N06     An4 
	BYTE		N06     An5 
	BYTE	W12
	BYTE		N12     Bn1 
	BYTE		N06     Fs4 
	BYTE		N06     Fs5 
	BYTE	W12
	BYTE	PEND
// 049   ----------------------------------------
kawaikutegomen_FINAL_1_049:
	BYTE		N12     Gn0   v088
	BYTE		N06     Dn4 
	BYTE		N06     Dn5 
	BYTE	W01
	BYTE	W11
	BYTE		N12     Gn1 
	BYTE	W12
	BYTE		        Gn0 
	BYTE	W12
	BYTE		        Gn1 
	BYTE		N06     Dn4 
	BYTE		N06     Dn5 
	BYTE	W12
	BYTE		N12     An0 
	BYTE		N06     En4 
	BYTE		N06     En5 
	BYTE	W01
	BYTE	W11
	BYTE		N12     An1 
	BYTE		N06     En4 
	BYTE		N06     En5 
	BYTE	W12
	BYTE		N12     An0 
	BYTE		N06     Dn4 
	BYTE		N06     Dn5 
	BYTE	W12
	BYTE		N12     An1 
	BYTE		N06     En4 
	BYTE		N06     En5 
	BYTE	W12
	BYTE	PEND
// 050   ----------------------------------------
kawaikutegomen_FINAL_1_050:
	BYTE		N12     Dn0   v088
	BYTE		N06     Fs4 
	BYTE		N06     Fs5 
	BYTE	W01
	BYTE	W11
	BYTE		N12     Dn1 
	BYTE	W12
	BYTE		        Dn0 
	BYTE		N06     Gn4 
	BYTE		N06     Gn5 
	BYTE	W12
	BYTE		N12     Dn1 
	BYTE	W12
	BYTE		        Dn0 
	BYTE		N06     An4 
	BYTE		N06     An5 
	BYTE	W12
	BYTE		N12     Dn1 
	BYTE	W12
	BYTE		        Dn0 
	BYTE	W12
	BYTE		        Dn1 
	BYTE	W12
	BYTE	PEND
// 051   ----------------------------------------
	BYTE	PATT
	 POIN2	kawaikutegomen_FINAL_1_047
// 052   ----------------------------------------
kawaikutegomen_FINAL_1_052:
	BYTE		N12     As0   v088
	BYTE		N06     Fs4 
	BYTE		N06     Fs5 
	BYTE	W01
	BYTE	W11
	BYTE		N12     As1 
	BYTE	W12
	BYTE		        As0 
	BYTE		N06     Cs5 
	BYTE		N06     Cs6 
	BYTE	W12
	BYTE		N12     As1 
	BYTE	W12
	BYTE		        Bn0 
	BYTE		N06     Dn5 
	BYTE		N06     Dn6 
	BYTE	W01
	BYTE	W11
	BYTE		N12     Bn1 
	BYTE	W12
	BYTE		        Bn0 
	BYTE		N06     An4 
	BYTE		N06     An5 
	BYTE	W12
	BYTE		N12     Bn1 
	BYTE		N06     Fs4 
	BYTE		N06     Fs5 
	BYTE	W12
	BYTE	PEND
// 053   ----------------------------------------
kawaikutegomen_FINAL_1_053:
	BYTE		N12     Gn0   v088
	BYTE		N06     Dn4 
	BYTE		N06     Dn5 
	BYTE	W01
	BYTE	W11
	BYTE		N12     Gn1 
	BYTE	W12
	BYTE		        Gn0 
	BYTE	W12
	BYTE		        Gn1 
	BYTE		N06     Dn4 
	BYTE		N06     Dn5 
	BYTE	W12
	BYTE		N12     An0 
	BYTE		N06     En4 
	BYTE		N06     En5 
	BYTE	W01
	BYTE	W11
	BYTE		N12     An1 
	BYTE		N06     En4 
	BYTE		N06     En5 
	BYTE	W12
	BYTE		N12     An0 
	BYTE		N06     Dn4 
	BYTE		N06     Dn5 
	BYTE	W12
	BYTE		N12     An1 
	BYTE		N06     Cs4 
	BYTE		N06     Cs5 
	BYTE	W12
	BYTE	PEND
// 054   ----------------------------------------
	BYTE		N12     Dn0 
	BYTE		N06     Dn4 
	BYTE		N06     Dn5 
	BYTE	W01
	BYTE	W11
	BYTE		N12     Dn1 
	BYTE	W12
	BYTE		        An0 
	BYTE		N06     En4 
	BYTE		N06     An4 
	BYTE		N06     En5 
	BYTE	W12
	BYTE		N12     An1 
	BYTE	W12
	BYTE		        Dn0 
	BYTE		N06     Dn4 
	BYTE		N06     An4 
	BYTE		N06     Dn5 
	BYTE	W01
	BYTE	W09
	BYTE		N02     Dn7 
	BYTE	W02
	BYTE		N12     Dn1 
	BYTE		N02     Cn7 
	BYTE	W02
	BYTE		        Bn6 
	BYTE	W02
	BYTE		        An6 
	BYTE	W02
	BYTE		        Gn6 
	BYTE	W02
	BYTE		        Fn6 
	BYTE	W02
	BYTE		        En6 
	BYTE	W02
	BYTE		N12     Dn0 
	BYTE		N02     Dn6 
	BYTE	W02
	BYTE		        Cn6 
	BYTE	W02
	BYTE		        Bn5 
	BYTE	W02
	BYTE		        An5 
	BYTE	W02
	BYTE		        Gn5 
	BYTE	W02
	BYTE		        Fn5 
	BYTE	W02
	BYTE		N12     Dn1 
	BYTE		N02     En5 
	BYTE	W02
	BYTE		        Dn5 
	BYTE	W02
	BYTE		        Cn5 
	BYTE	W02
	BYTE		        Bn4 
	BYTE	W06
// 055   ----------------------------------------
	BYTE		N09     Dn1 
	BYTE		N12     Fs4 
	BYTE	W12
	BYTE		N09     Dn2 
	BYTE		N06     An3 
	BYTE	W06
	BYTE		        Dn4 
	BYTE	W06
	BYTE		N09     Dn1 
	BYTE		N12     En4 
	BYTE	W12
	BYTE		N09     Dn2 
	BYTE		N12     Fs4 
	BYTE	W12
	BYTE		N09     An0 
	BYTE		N06     An3 
	BYTE		N06     En4 
	BYTE	W12
	BYTE		N09     An1 
	BYTE		N06     Cs4 
	BYTE	W12
	BYTE		N09     An0 
	BYTE	W12
	BYTE		        An1 
	BYTE	W12
// 056   ----------------------------------------
	BYTE		        Bn0 
	BYTE		N12     Dn4 
	BYTE	W12
	BYTE		N09     Bn1 
	BYTE		N06     Fs3 
	BYTE	W06
	BYTE		        Bn3 
	BYTE	W06
	BYTE		N09     Bn0 
	BYTE		N12     Cs4 
	BYTE	W12
	BYTE		N09     Bn1 
	BYTE		N12     Dn4 
	BYTE	W12
	BYTE		N09     Fs0 
	BYTE		N06     Fs3 
	BYTE		N06     Cs4 
	BYTE	W12
	BYTE		N09     Fs1 
	BYTE		N06     An3 
	BYTE	W12
	BYTE		N09     Fs0 
	BYTE	W12
	BYTE		        Fs1 
	BYTE	W12
// 057   ----------------------------------------
	BYTE		        Gn0 
	BYTE		N12     Bn3 
	BYTE	W12
	BYTE		N09     Gn1 
	BYTE		N06     Dn3 
	BYTE	W06
	BYTE		        Gn3 
	BYTE	W06
	BYTE		N09     Gn0 
	BYTE		N12     An3 
	BYTE	W12
	BYTE		N09     Gn1 
	BYTE		N12     Bn3 
	BYTE	W12
	BYTE		N09     Dn1 
	BYTE		N12     Dn3 
	BYTE		N12     An3 
	BYTE	W12
	BYTE		N09     Dn2 
	BYTE	W12
	BYTE		        Dn1 
	BYTE		N12     An3 
	BYTE		N12     Dn4 
	BYTE	W12
	BYTE		N09     Dn2 
	BYTE	W12
// 058   ----------------------------------------
	BYTE		        En0 
	BYTE		N06     Bn3 
	BYTE		N06     Bn4 
	BYTE	W12
	BYTE		N09     En1 
	BYTE		N06     Cs4 
	BYTE		N06     Cs5 
	BYTE	W12
	BYTE		N09     En0 
	BYTE		N06     Dn4 
	BYTE		N06     Dn5 
	BYTE	W12
	BYTE		N09     En1 
	BYTE		N06     Fs4 
	BYTE		N06     Fs5 
	BYTE	W12
	BYTE		N09     An0 
	BYTE		N06     En4 
	BYTE		N06     En5 
	BYTE	W12
	BYTE		N09     An1 
	BYTE	W12
	BYTE		        An0 
	BYTE		N06     Cs4 
	BYTE		N06     Cs5 
	BYTE	W12
	BYTE		N09     An1 
	BYTE	W12
// 059   ----------------------------------------
	BYTE		        Dn1 
	BYTE		N12     Fs5 
	BYTE	W12
	BYTE		N09     Dn2 
	BYTE		N06     An4 
	BYTE	W06
	BYTE		        Dn5 
	BYTE	W06
	BYTE		N09     Dn1 
	BYTE		N12     En5 
	BYTE	W12
	BYTE		N09     Dn2 
	BYTE		N12     Fs5 
	BYTE	W12
	BYTE		N09     Cs1 
	BYTE		N06     An4 
	BYTE		N06     En5 
	BYTE	W12
	BYTE		N09     Cs2 
	BYTE		N06     Cs5 
	BYTE	W12
	BYTE		N09     Cs1 
	BYTE	W12
	BYTE		        Cs2 
	BYTE	W12
// 060   ----------------------------------------
	BYTE		        Bn0 
	BYTE		N12     Dn5 
	BYTE	W12
	BYTE		N09     Bn1 
	BYTE		N06     Fs4 
	BYTE	W06
	BYTE		        Bn4 
	BYTE	W06
	BYTE		N09     Bn0 
	BYTE		N12     Cs5 
	BYTE	W12
	BYTE		N09     Bn1 
	BYTE		N12     Dn5 
	BYTE	W12
	BYTE		N09     An0 
	BYTE		N06     Fs4 
	BYTE		N06     Cs5 
	BYTE	W12
	BYTE		N09     An1 
	BYTE		N06     An4 
	BYTE	W12
	BYTE		N09     An0 
	BYTE	W12
	BYTE		        An1 
	BYTE	W12
// 061   ----------------------------------------
	BYTE		        Gn0 
	BYTE		N12     Bn4 
	BYTE	W12
	BYTE		N09     Gn1 
	BYTE		N06     Dn4 
	BYTE	W06
	BYTE		        Gn4 
	BYTE	W06
	BYTE		N09     Gn0 
	BYTE		N12     An4 
	BYTE	W12
	BYTE		N09     Gn1 
	BYTE		N12     Bn4 
	BYTE	W12
	BYTE		N09     Fs0 
	BYTE		N12     Dn4 
	BYTE		N12     An4 
	BYTE	W12
	BYTE		N09     Fs1 
	BYTE	W12
	BYTE		        Fs0 
	BYTE		N12     An4 
	BYTE		N12     Dn5 
	BYTE	W12
	BYTE		N09     Fs1 
	BYTE	W12
// 062   ----------------------------------------
	BYTE		        En0 
	BYTE		N06     Gn4 
	BYTE		N06     Gn5 
	BYTE	W12
	BYTE		N09     En1 
	BYTE		N06     Fs4 
	BYTE		N06     Fs5 
	BYTE	W12
	BYTE		N09     An0 
	BYTE		N06     En4 
	BYTE		N06     En5 
	BYTE	W12
	BYTE		N09     An1 
	BYTE		N06     Dn4 
	BYTE		N06     Dn5 
	BYTE	W12
	BYTE		N12     Dn1 
	BYTE		N12     Dn2 
	BYTE		N12     Dn4 
	BYTE		N12     Dn5 
	BYTE	W44
	BYTE	W02
	BYTE	W02
// 063   ----------------------------------------
	BYTE	PATT
	 POIN2	kawaikutegomen_FINAL_1_017
// 064   ----------------------------------------
	BYTE	PATT
	 POIN2	kawaikutegomen_FINAL_1_018
// 065   ----------------------------------------
	BYTE	PATT
	 POIN2	kawaikutegomen_FINAL_1_017
// 066   ----------------------------------------
	BYTE	PATT
	 POIN2	kawaikutegomen_FINAL_1_020
// 067   ----------------------------------------
	BYTE		N36     Gn1   v088
	BYTE		N36     Dn2 
	BYTE		N36     Gn4 
	BYTE		N36     Bn4 
	BYTE	W36
	BYTE		N12     En4 
	BYTE		N12     An4 
	BYTE		N12     Cs5 
	BYTE	W10
	BYTE	W02
	BYTE		N36     An1 
	BYTE		N36     En2 
	BYTE		N12     En4 
	BYTE		N12     An4 
	BYTE		N12     Cs5 
	BYTE	W44
	BYTE	W02
	BYTE	W02
// 068   ----------------------------------------
	BYTE		N36     Fs1 
	BYTE		N36     Cs2 
	BYTE		N36     As3 
	BYTE		N36     Cs4 
	BYTE		N36     En4 
	BYTE	W36
	BYTE		N12     An3 
	BYTE		N12     Dn4 
	BYTE		N12     Fs4 
	BYTE	W10
	BYTE	W02
	BYTE		N36     Bn1 
	BYTE		N36     Fs2 
	BYTE		N12     An3 
	BYTE		N12     Dn4 
	BYTE		N12     Fs4 
	BYTE	W36
	BYTE		N06     Bn3 
	BYTE	W06
	BYTE		        An3 
	BYTE	W04
	BYTE	W02
// 069   ----------------------------------------
	BYTE		N24     Gn0 
	BYTE		N24     Gn1 
	BYTE		N24     Gn3 
	BYTE	W24
	BYTE		        Gn1 
	BYTE	W12
	BYTE		        Dn2 
	BYTE	W12
	BYTE		        Gn2 
	BYTE	W12
	BYTE		        An2 
	BYTE	W12
	BYTE		        Bn2 
	BYTE	W12
	BYTE		N12     Dn3 
	BYTE	W10
	BYTE	W02
// 070   ----------------------------------------
	BYTE		N60     Gn1 
	BYTE		N60     Dn2 
	BYTE		N12     Dn3 
	BYTE		N12     An3 
	BYTE	W12
	BYTE		        Bn3 
	BYTE	W12
	BYTE		        Gn3 
	BYTE		N12     Dn4 
	BYTE	W12
	BYTE		N24     Gn3 
	BYTE		N24     Dn4 
	BYTE	W24
	BYTE		N12     Dn3 
	BYTE	W12
	BYTE		        Dn2 
	BYTE		N12     Bn2 
	BYTE	W12
	BYTE		        An1 
	BYTE		N12     An2 
	BYTE	W10
	BYTE	W02
// 071   ----------------------------------------
	BYTE		N24     An0 
	BYTE		N24     An1 
	BYTE	W24
	BYTE		N12   
	BYTE	W12
	BYTE		        En2 
	BYTE	W12
	BYTE		        An2 
	BYTE	W12
	BYTE		        Cs3 
	BYTE		N12     An3 
	BYTE	W12
	BYTE		        En4 
	BYTE	W12
	BYTE		N36     An1 
	BYTE		N12     An3 
	BYTE	W10
	BYTE	W02
// 072   ----------------------------------------
	BYTE		N60     An0 
	BYTE		N24     An3 
	BYTE		N24     En4 
	BYTE		N24     An4 
	BYTE	W24
	BYTE		N48     An1 
	BYTE	W12
	BYTE		N12     En3 
	BYTE		N12     An3 
	BYTE		N12     En4 
	BYTE	W12
	BYTE		        En3 
	BYTE		N24     An3 
	BYTE		N12     En4 
	BYTE	W12
	BYTE		N24     An0 
	BYTE	W12
	BYTE		        An1 
	BYTE		N24     En3 
	BYTE	W22
	BYTE	W02
// 073   ----------------------------------------
	BYTE	PATT
	 POIN2	kawaikutegomen_FINAL_1_027
// 074   ----------------------------------------
	BYTE		N36     An0   v088
	BYTE		N36     An1 
	BYTE		N36     En4 
	BYTE		N36     An4 
	BYTE		N36     En5 
	BYTE	W24
	BYTE	W12
	BYTE		N12     An0 
	BYTE		N12     An1 
	BYTE		N12     En4 
	BYTE		N12     An4 
	BYTE		N12     En5 
	BYTE	W60
// 075   ----------------------------------------
	BYTE	PATT
	 POIN2	kawaikutegomen_FINAL_1_029
// 076   ----------------------------------------
	BYTE	PATT
	 POIN2	kawaikutegomen_FINAL_1_030
// 077   ----------------------------------------
	BYTE	PATT
	 POIN2	kawaikutegomen_FINAL_1_031
// 078   ----------------------------------------
	BYTE	PATT
	 POIN2	kawaikutegomen_FINAL_1_032
// 079   ----------------------------------------
	BYTE	PATT
	 POIN2	kawaikutegomen_FINAL_1_033
// 080   ----------------------------------------
	BYTE	PATT
	 POIN2	kawaikutegomen_FINAL_1_034
// 081   ----------------------------------------
	BYTE	PATT
	 POIN2	kawaikutegomen_FINAL_1_035
// 082   ----------------------------------------
	BYTE		N12     Dn1   v088
	BYTE		N12     Fs3 
	BYTE		N12     Fs4 
	BYTE	W01
	BYTE	W11
	BYTE		        Dn2 
	BYTE	W12
	BYTE		        Dn1 
	BYTE		N12     Fs3 
	BYTE		N12     Fs4 
	BYTE	W12
	BYTE		        Dn2 
	BYTE		N12     Gn3 
	BYTE		N12     Gn4 
	BYTE	W12
	BYTE		        Dn1 
	BYTE		N12     Gs3 
	BYTE		N12     Gs4 
	BYTE	W12
	BYTE		        Dn2 
	BYTE		N12     An3 
	BYTE		N12     An4 
	BYTE	W12
	BYTE		        Dn1 
	BYTE		N12     Bn3 
	BYTE		N12     Bn4 
	BYTE	W12
	BYTE		        Dn2 
	BYTE		N12     Cs4 
	BYTE		N12     Cs5 
	BYTE	W12
// 083   ----------------------------------------
	BYTE	PATT
	 POIN2	kawaikutegomen_FINAL_1_037
// 084   ----------------------------------------
	BYTE	PATT
	 POIN2	kawaikutegomen_FINAL_1_038
// 085   ----------------------------------------
	BYTE	PATT
	 POIN2	kawaikutegomen_FINAL_1_039
// 086   ----------------------------------------
	BYTE	PATT
	 POIN2	kawaikutegomen_FINAL_1_040
// 087   ----------------------------------------
	BYTE	PATT
	 POIN2	kawaikutegomen_FINAL_1_037
// 088   ----------------------------------------
	BYTE	PATT
	 POIN2	kawaikutegomen_FINAL_1_042
// 089   ----------------------------------------
	BYTE	PATT
	 POIN2	kawaikutegomen_FINAL_1_039
// 090   ----------------------------------------
	BYTE	PATT
	 POIN2	kawaikutegomen_FINAL_1_044
// 091   ----------------------------------------
	BYTE	PATT
	 POIN2	kawaikutegomen_FINAL_1_045
// 092   ----------------------------------------
	BYTE	PATT
	 POIN2	kawaikutegomen_FINAL_1_046
// 093   ----------------------------------------
kawaikutegomen_FINAL_1_093:
	BYTE		N60     Gn2   v088
	BYTE		N36     Dn3 
	BYTE		N24     An3 
	BYTE	W01
	BYTE	W23
	BYTE		N12     Dn4 
	BYTE	W12
	BYTE		N24     Dn3 
	BYTE		N24     An4 
	BYTE	W60
	BYTE	PEND
// 094   ----------------------------------------
kawaikutegomen_FINAL_1_094:
	BYTE		N60     Fs2   v088
	BYTE		N60     Dn3 
	BYTE		N24     An3 
	BYTE	W01
	BYTE	W23
	BYTE		N12     Dn4 
	BYTE	W12
	BYTE		N24     An4 
	BYTE	W60
	BYTE	PEND
// 095   ----------------------------------------
	BYTE		N60     An2 
	BYTE		N60     En3 
	BYTE		N24     An3 
	BYTE	W01
	BYTE	W23
	BYTE		N12     En4 
	BYTE	W12
	BYTE		N24     An4 
	BYTE	W60
// 096   ----------------------------------------
	BYTE		N60     Bn2 
	BYTE		N60     Fs3 
	BYTE		N12     An3 
	BYTE	W01
	BYTE	W11
	BYTE		        Cs4 
	BYTE	W12
	BYTE		        Dn4 
	BYTE	W12
	BYTE		N24     An4 
	BYTE	W24
	BYTE		N12     Gn4 
	BYTE	W12
	BYTE		        Fs4 
	BYTE	W24
// 097   ----------------------------------------
	BYTE	PATT
	 POIN2	kawaikutegomen_FINAL_1_093
// 098   ----------------------------------------
	BYTE	PATT
	 POIN2	kawaikutegomen_FINAL_1_094
// 099   ----------------------------------------
	BYTE		N60     An2   v088
	BYTE		N60     En3 
	BYTE		N24     An3 
	BYTE	W01
	BYTE	W23
	BYTE		N12     En4 
	BYTE	W12
	BYTE		N24     An4 
	BYTE	W48
	BYTE		N06     Gn4 
	BYTE	W06
	BYTE		        Fs4 
	BYTE	W06
// 100   ----------------------------------------
	BYTE		N12     Dn2 
	BYTE		N24     Dn4 
	BYTE	W01
	BYTE	W11
	BYTE		N12     An2 
	BYTE	W12
	BYTE		        Dn3 
	BYTE	W12
	BYTE		        En3 
	BYTE	W12
	BYTE		        Fs3 
	BYTE	W12
	BYTE		        An3 
	BYTE	W12
	BYTE		        Dn4 
	BYTE	W12
	BYTE		N36     Fs2 
	BYTE		N12     Cs4 
	BYTE	W12
// 101   ----------------------------------------
	BYTE		N48     Fs1 
	BYTE		N24     An3 
	BYTE		N24     Dn4 
	BYTE	W01
	BYTE	W23
	BYTE		        Fs2 
	BYTE	W12
	BYTE		N06     Cs5 
	BYTE	W06
	BYTE		        Dn5 
	BYTE	W06
	BYTE		N12     Cs5 
	BYTE	W12
	BYTE		        An4 
	BYTE	W12
	BYTE		        En4 
	BYTE	W12
	BYTE		        An4 
	BYTE	W12
// 102   ----------------------------------------
	BYTE		N24     Gn1 
	BYTE		N12     An4 
	BYTE	W01
	BYTE	W11
	BYTE		        Dn4 
	BYTE	W12
	BYTE		N24     Dn2 
	BYTE		N12     An3 
	BYTE	W12
	BYTE		        Gn4 
	BYTE	W12
	BYTE		N24     Bn2 
	BYTE		N12     Fs4 
	BYTE	W12
	BYTE		        Dn4 
	BYTE	W12
	BYTE		N24     Gn2 
	BYTE		N12     Gn3 
	BYTE	W12
	BYTE		        En4 
	BYTE	W12
// 103   ----------------------------------------
	BYTE		N24     An1 
	BYTE		N24     En3 
	BYTE		N24     Cs4 
	BYTE	W01
	BYTE	W23
	BYTE		N12     En2 
	BYTE		N24     Fs3 
	BYTE		N24     Dn4 
	BYTE	W12
	BYTE		        An2 
	BYTE	W12
	BYTE		        Gn3 
	BYTE		N24     En4 
	BYTE	W12
	BYTE		        An2 
	BYTE	W12
	BYTE		        An3 
	BYTE		N24     An4 
	BYTE	W12
	BYTE		N12     Fs2 
	BYTE	W12
// 104   ----------------------------------------
	BYTE		N24     Bn1 
	BYTE		N24     Fs3 
	BYTE		N24     Fs4 
	BYTE	W01
	BYTE	W23
	BYTE		N12     Fs2 
	BYTE		N24     An3 
	BYTE		N24     An4 
	BYTE	W12
	BYTE		        An2 
	BYTE	W12
	BYTE		        Dn4 
	BYTE		N24     Dn5 
	BYTE	W12
	BYTE		        An2 
	BYTE	W12
	BYTE		        En4 
	BYTE		N24     En5 
	BYTE	W24
// 105   ----------------------------------------
	BYTE		        Fs1 
	BYTE		N08     Fs5 
	BYTE	W01
	BYTE	W07
	BYTE		        Gn5 
	BYTE	W08
	BYTE		        An5 
	BYTE	W08
	BYTE		N24     Dn2 
	BYTE		N08     Dn5 
	BYTE	W08
	BYTE		        En5 
	BYTE	W08
	BYTE		        Fs5 
	BYTE	W08
	BYTE		N24     An2 
	BYTE		N08     An4 
	BYTE	W08
	BYTE		        Bn4 
	BYTE	W08
	BYTE		        Dn5 
	BYTE	W08
	BYTE		N24     Dn2 
	BYTE		N08     An4 
	BYTE	W08
	BYTE		        Dn4 
	BYTE	W08
	BYTE		        Gn4 
	BYTE	W08
// 106   ----------------------------------------
	BYTE		N24     Gn1 
	BYTE		N16     Fs4 
	BYTE	W01
	BYTE	W15
	BYTE		        Gn4 
	BYTE	W08
	BYTE		N24     Dn2 
	BYTE	W08
	BYTE		N16     An4 
	BYTE	W16
	BYTE		N24     An2 
	BYTE		N16     An3 
	BYTE		N16     Dn4 
	BYTE	W16
	BYTE		        An3 
	BYTE	W08
	BYTE		N24     An2 
	BYTE	W08
	BYTE		N16     Gn3 
	BYTE	W16
// 107   ----------------------------------------
	BYTE		N24     An1 
	BYTE		N24     En2 
	BYTE		N08     Fs3 
	BYTE	W01
	BYTE	W07
	BYTE		        Dn3 
	BYTE	W08
	BYTE		        An2 
	BYTE	W08
	BYTE		N24     An1 
	BYTE		N24     En2 
	BYTE		N08     Gn3 
	BYTE	W08
	BYTE		        Dn3 
	BYTE	W08
	BYTE		        An2 
	BYTE	W08
	BYTE		N24     An1 
	BYTE		N24     En2 
	BYTE		N08     An3 
	BYTE	W08
	BYTE		        Dn3 
	BYTE	W08
	BYTE		        Cs3 
	BYTE	W08
	BYTE		N24     An1 
	BYTE		N24     En2 
	BYTE		N08     Bn3 
	BYTE	W08
	BYTE		        An3 
	BYTE	W08
	BYTE		        Dn3 
	BYTE	W08
// 108   ----------------------------------------
	BYTE		N24     An1 
	BYTE		N24     En2 
	BYTE		N08     En4 
	BYTE	W01
	BYTE	W07
	BYTE		        Dn4 
	BYTE	W08
	BYTE		        An3 
	BYTE	W08
	BYTE		N24     An1 
	BYTE		N24     En2 
	BYTE		N08     An4 
	BYTE	W08
	BYTE		        En4 
	BYTE	W08
	BYTE		        Dn4 
	BYTE	W08
	BYTE		N24     An1 
	BYTE		N24     En2 
	BYTE		N08     Dn5 
	BYTE	W08
	BYTE		        An4 
	BYTE	W08
	BYTE		        En4 
	BYTE	W08
	BYTE		N24     An1 
	BYTE		N24     En2 
	BYTE		N08     En5 
	BYTE	W08
	BYTE		        Dn5 
	BYTE	W08
	BYTE		        An4 
	BYTE	W08
// 109   ----------------------------------------
	BYTE		N48     Gn2 
	BYTE		N48     Bn2 
	BYTE		N48     Dn3 
	BYTE		N48     Fs3 
	BYTE		N12     Fs4 
	BYTE		N12     Fs5 
	BYTE	W01
	BYTE	W11
	BYTE		        Gn4 
	BYTE		N12     Gn5 
	BYTE	W12
	BYTE		        Fs4 
	BYTE		N12     Fs5 
	BYTE	W12
	BYTE		N24     An4 
	BYTE		N24     An5 
	BYTE	W01
	BYTE	W11
	BYTE		N48     An2 
	BYTE		N48     Cs3 
	BYTE		N48     En3 
	BYTE	W12
	BYTE		N12     Fs4 
	BYTE		N12     Fs5 
	BYTE	W01
	BYTE	W11
	BYTE		        Gn4 
	BYTE		N12     Gn5 
	BYTE	W12
	BYTE		        Fs4 
	BYTE		N12     Fs5 
	BYTE	W01
	BYTE	W11
// 110   ----------------------------------------
	BYTE		N48     Fs2 
	BYTE		N48     An2 
	BYTE		N48     Cs3 
	BYTE		N48     En3 
	BYTE		N24     An4 
	BYTE		N24     An5 
	BYTE	W01
	BYTE	W23
	BYTE		N12     Dn4 
	BYTE		N12     Dn5 
	BYTE	W01
	BYTE	W11
	BYTE		        En4 
	BYTE		N12     En5 
	BYTE	W12
	BYTE		N48     Fs2 
	BYTE		N48     An2 
	BYTE		N48     Bn2 
	BYTE		N48     Dn3 
	BYTE		N12     Fs4 
	BYTE		N12     Fs5 
	BYTE	W01
	BYTE	W11
	BYTE		        Gn4 
	BYTE		N12     Gn5 
	BYTE	W12
	BYTE		N24     Fs4 
	BYTE		N24     Fs5 
	BYTE	W24
// 111   ----------------------------------------
	BYTE		N48     Gn2 
	BYTE		N48     Dn3 
	BYTE		N12     Dn5 
	BYTE	W01
	BYTE	W11
	BYTE		        Dn4 
	BYTE	W12
	BYTE		        An4 
	BYTE	W12
	BYTE		N24     Dn4 
	BYTE		N24     An4 
	BYTE		N24     Dn5 
	BYTE	W01
	BYTE	W11
	BYTE		N48     An2 
	BYTE		N48     En3 
	BYTE	W12
	BYTE		N24     Bn4 
	BYTE		N24     Bn5 
	BYTE	W24
	BYTE		        An4 
	BYTE		N24     An5 
	BYTE	W01
	BYTE	W11
// 112   ----------------------------------------
	BYTE		N96     Fs2 
	BYTE		N96     An2 
	BYTE		N96     Dn3 
	BYTE	W12
	BYTE		N12     Fs4 
	BYTE		N12     Fs5 
	BYTE	W12
	BYTE		        Gn4 
	BYTE		N12     Gn5 
	BYTE	W01
	BYTE	W11
	BYTE		N04     An4 
	BYTE	W04
	BYTE		        An5 
	BYTE	W05
	BYTE		        An4 
	BYTE	W04
	BYTE		        An5 
	BYTE	W05
	BYTE		        An4 
	BYTE	W04
	BYTE		        An5 
	BYTE	W05
	BYTE		N22     An4 
	BYTE	W04
	BYTE		N18     An5 
	BYTE	W28
	BYTE	W01
// 113   ----------------------------------------
	BYTE		N48     Gn2 
	BYTE		N48     Bn2 
	BYTE		N48     Dn3 
	BYTE		N36     Dn4 
	BYTE		N36     Dn5 
	BYTE	W01
	BYTE	W32
	BYTE	W03
	BYTE		N12     Dn4 
	BYTE		N12     Dn5 
	BYTE	W12
	BYTE		N48     An2 
	BYTE		N48     Cs3 
	BYTE		N48     En3 
	BYTE		N12     En4 
	BYTE		N12     En5 
	BYTE	W01
	BYTE	W11
	BYTE		        En4 
	BYTE		N12     En5 
	BYTE	W12
	BYTE		        Dn4 
	BYTE		N12     Dn5 
	BYTE	W12
	BYTE		        En4 
	BYTE		N12     En5 
	BYTE	W12
// 114   ----------------------------------------
	BYTE		N48     Fs2 
	BYTE		N48     As2 
	BYTE		N48     Cs3 
	BYTE		N48     En3 
	BYTE		N12     Fs4 
	BYTE		N12     Fs5 
	BYTE	W01
	BYTE	W23
	BYTE		        Cs5 
	BYTE		N12     Cs6 
	BYTE	W24
	BYTE		N48     Fs2 
	BYTE		N48     An2 
	BYTE		N48     Bn2 
	BYTE		N48     Dn3 
	BYTE		N12     Dn5 
	BYTE		N12     Dn6 
	BYTE	W01
	BYTE	W23
	BYTE		        An4 
	BYTE		N12     An5 
	BYTE	W12
	BYTE		        Fs4 
	BYTE		N12     Fs5 
	BYTE	W12
// 115   ----------------------------------------
	BYTE		N48     Gn2 
	BYTE		N48     Bn2 
	BYTE		N48     Dn3 
	BYTE		N12     Dn4 
	BYTE		N12     Dn5 
	BYTE	W01
	BYTE	W23
	BYTE		        Fs4 
	BYTE		N12     Fs5 
	BYTE	W24
	BYTE		N48     An2 
	BYTE		N48     Cs3 
	BYTE		N48     En3 
	BYTE		N12     An4 
	BYTE		N12     An5 
	BYTE	W01
	BYTE	W23
	BYTE		        Cs4 
	BYTE		N12     Cs5 
	BYTE	W24
// 116   ----------------------------------------
	BYTE		N32     Dn2 
	BYTE		N48     An2 
	BYTE		N12     Dn4 
	BYTE		N12     An4 
	BYTE		N12     Dn5 
	BYTE	W01
	BYTE	W23
	BYTE		N01     An0   v060
	BYTE	W01
	BYTE		        Bn0 
	BYTE	W02
	BYTE		        Cn1 
	BYTE	W01
	BYTE		        Dn1 
	BYTE	W01
	BYTE		        En1 
	BYTE	W01
	BYTE		        Fn1 
	BYTE	W02
	BYTE		        Gn1 
	BYTE	W01
	BYTE		        Bn1 
	BYTE	W01
	BYTE		        Cn2 
	BYTE	W01
	BYTE		        Dn2 
	BYTE	W02
	BYTE		        En2 
	BYTE	W01
	BYTE		        Fn2 
	BYTE	W02
	BYTE		        Gn2 
	BYTE	W08
	BYTE		N02     Dn6 
	BYTE	W02
	BYTE		        Cs6 
	BYTE	W02
	BYTE		        Cn6 
	BYTE	W02
	BYTE		        Bn5 
	BYTE	W02
	BYTE		        As5 
	BYTE	W02
	BYTE		        An5 
	BYTE	W02
	BYTE		        Gs5 
	BYTE	W02
	BYTE		        Gn5 
	BYTE	W02
	BYTE		        Fs5 
	BYTE	W02
	BYTE		        Fn5 
	BYTE	W02
	BYTE		N01     En5 
	BYTE	W01
	BYTE		        Ds5 
	BYTE	W01
	BYTE		        Dn5 
	BYTE	W02
	BYTE		        Cs5 
	BYTE	W01
	BYTE		        Cn5 
	BYTE	W02
	BYTE		        Bn4 
	BYTE	W01
	BYTE		        As4 
	BYTE	W02
	BYTE		        An4 
	BYTE	W01
	BYTE		        Gs4 
	BYTE	W02
	BYTE		        Gn4 
	BYTE	W01
	BYTE		        Fs4 
	BYTE	W02
	BYTE		        Fn4 
	BYTE	W01
	BYTE		        En4 
	BYTE	W11
// 117   ----------------------------------------
	BYTE		N48     Gn3   v044
	BYTE		N48     Dn4 
	BYTE		N48     Bn4 
	BYTE		N48     Dn5 
	BYTE	W01
	BYTE	W44
	BYTE	W03
	BYTE		        An3 
	BYTE		N48     En4 
	BYTE		N48     An4 
	BYTE		N48     Cs5 
	BYTE	W01
	BYTE	W44
	BYTE	W03
// 118   ----------------------------------------
	BYTE		        Fs3 
	BYTE		N48     Cs4 
	BYTE		N48     En4 
	BYTE		N24     Cs5 
	BYTE	W01
	BYTE	W23
	BYTE		        En5 
	BYTE	W24
	BYTE		N48     Bn3 
	BYTE		N48     Fs4 
	BYTE		N48     An4 
	BYTE		N48     Dn5 
	BYTE	W01
	BYTE	W44
	BYTE	W03
// 119   ----------------------------------------
	BYTE		        Gn3 
	BYTE		N48     Dn4 
	BYTE		N48     Bn4 
	BYTE		N48     Dn5 
	BYTE	W01
	BYTE	W44
	BYTE	W03
	BYTE		        An3 
	BYTE		N48     En4 
	BYTE		N48     An4 
	BYTE		N48     En5 
	BYTE	W01
	BYTE	W44
	BYTE	W03
// 120   ----------------------------------------
	BYTE		        Dn4 
	BYTE		N48     An4 
	BYTE		N48     Fs5 
	BYTE	W01
	BYTE		        Dn5 
	BYTE	W44
	BYTE	W03
	BYTE		N12     Dn4   v052
	BYTE	W12
	BYTE		        En4 
	BYTE	W12
	BYTE		        Fs4   v056
	BYTE	W12
	BYTE		        An3 
	BYTE	W12
// 121   ----------------------------------------
	BYTE		N48     Bn2   v060
	BYTE		N48     Fs3 
	BYTE		N48     Dn4 
	BYTE	W01
	BYTE	W44
	BYTE	W03
	BYTE		        As2 
	BYTE		N48     Fs3 
	BYTE		N24     Cs4 
	BYTE	W01
	BYTE	W23
	BYTE		        En4 
	BYTE	W24
// 122   ----------------------------------------
	BYTE		N48     An2 
	BYTE		N48     Fs3 
	BYTE		N24     Dn4 
	BYTE	W01
	BYTE	W23
	BYTE		        Fs4 
	BYTE	W24
	BYTE		N84     Gs2 
	BYTE		N84     Fs3 
	BYTE		N84     Dn4 
	BYTE		N84     Bn4 
	BYTE	W01
	BYTE	W44
	BYTE	W03
// 123   ----------------------------------------
	BYTE	W40
	BYTE	W08
	BYTE	W02
	BYTE	W05
	BYTE	W02
	BYTE	W03
	BYTE	W02
	BYTE	W02
	BYTE	W03
	BYTE	W02
	BYTE	W03
	BYTE	W02
	BYTE	W02
	BYTE	W03
	BYTE	W02
	BYTE	W03
	BYTE	W02
	BYTE	W02
	BYTE	W03
	BYTE	W02
	BYTE	W03
	BYTE	W48
// 124   ----------------------------------------
	BYTE		N48     Gn3   v056
	BYTE		N48     An3 
	BYTE		N48     Dn4 
	BYTE		N48     Fs4 
	BYTE	W01
	BYTE	W44
	BYTE	W03
	BYTE		        An3 
	BYTE		N48     Cs4 
	BYTE		N48     En4 
	BYTE	W01
	BYTE	W44
	BYTE	W03
// 125   ----------------------------------------
	BYTE		N12     Dn3 
	BYTE		N12     An3 
	BYTE		N12     Fs4 
	BYTE	W24
	BYTE		        Gn3 
	BYTE		N12     En4 
	BYTE	W24
	BYTE		        Dn3 
	BYTE		N12     An3 
	BYTE		N12     Fs4 
	BYTE	W02
	BYTE		N02     Gn7   v088
	BYTE	W01
	BYTE	W01
	BYTE		        Fn7 
	BYTE	W02
	BYTE		        En7 
	BYTE	W02
	BYTE		        Dn7 
	BYTE	W02
	BYTE		        Cn7 
	BYTE	W02
	BYTE		        Bn6 
	BYTE	W02
	BYTE		        An6 
	BYTE	W02
	BYTE		        Gn6 
	BYTE	W02
	BYTE		        Fn6 
	BYTE	W02
	BYTE		        En6 
	BYTE	W02
	BYTE		        Dn6 
	BYTE	W02
	BYTE		        Cn6 
	BYTE	W02
	BYTE		        Bn5 
	BYTE	W02
	BYTE		        An5 
	BYTE	W02
	BYTE		        Gn5 
	BYTE	W02
	BYTE		        Fn5 
	BYTE	W02
	BYTE		        En5 
	BYTE	W02
	BYTE		        Dn5 
	BYTE	W02
	BYTE		        Cn5 
	BYTE	W02
	BYTE		        Bn4 
	BYTE	W02
	BYTE		        An4 
	BYTE	W02
	BYTE		        Gn4 
	BYTE	W04
// 126   ----------------------------------------
	BYTE		N12     Gn0 
	BYTE		N12     Bn3 
	BYTE		N12     Bn4 
	BYTE	W06
	BYTE	W03
	BYTE	W03
	BYTE		        Gn1 
	BYTE	W12
	BYTE		        Gn0 
	BYTE		N12     Dn4 
	BYTE		N12     Dn5 
	BYTE	W12
	BYTE		        Gn1 
	BYTE	W12
	BYTE		        An0 
	BYTE		N12     Cs4 
	BYTE		N12     Cs5 
	BYTE	W01
	BYTE	W11
	BYTE		        An1 
	BYTE	W12
	BYTE		        An0 
	BYTE		N12     Dn4 
	BYTE		N12     Dn5 
	BYTE	W12
	BYTE		        An1 
	BYTE	W12
// 127   ----------------------------------------
	BYTE	PATT
	 POIN2	kawaikutegomen_FINAL_1_030
// 128   ----------------------------------------
	BYTE	PATT
	 POIN2	kawaikutegomen_FINAL_1_031
// 129   ----------------------------------------
	BYTE	PATT
	 POIN2	kawaikutegomen_FINAL_1_032
// 130   ----------------------------------------
	BYTE	PATT
	 POIN2	kawaikutegomen_FINAL_1_037
// 131   ----------------------------------------
	BYTE	PATT
	 POIN2	kawaikutegomen_FINAL_1_042
// 132   ----------------------------------------
	BYTE	PATT
	 POIN2	kawaikutegomen_FINAL_1_039
// 133   ----------------------------------------
	BYTE	PATT
	 POIN2	kawaikutegomen_FINAL_1_044
// 134   ----------------------------------------
	BYTE	PATT
	 POIN2	kawaikutegomen_FINAL_1_045
// 135   ----------------------------------------
	BYTE	PATT
	 POIN2	kawaikutegomen_FINAL_1_046
// 136   ----------------------------------------
	BYTE	PATT
	 POIN2	kawaikutegomen_FINAL_1_047
// 137   ----------------------------------------
	BYTE	PATT
	 POIN2	kawaikutegomen_FINAL_1_048
// 138   ----------------------------------------
	BYTE	PATT
	 POIN2	kawaikutegomen_FINAL_1_049
// 139   ----------------------------------------
	BYTE	PATT
	 POIN2	kawaikutegomen_FINAL_1_050
// 140   ----------------------------------------
	BYTE	PATT
	 POIN2	kawaikutegomen_FINAL_1_047
// 141   ----------------------------------------
	BYTE	PATT
	 POIN2	kawaikutegomen_FINAL_1_052
// 142   ----------------------------------------
	BYTE	PATT
	 POIN2	kawaikutegomen_FINAL_1_053
// 143   ----------------------------------------
	BYTE		N12     Dn1   v088
	BYTE		N12     Dn2 
	BYTE		N12     Dn4 
	BYTE		N12     Dn5 
	BYTE	W24
	BYTE		        An0 
	BYTE		N12     An1 
	BYTE		N12     En4 
	BYTE		N12     An4 
	BYTE		N12     En5 
	BYTE	W24
	BYTE		N18     Dn0 
	BYTE		N12     Dn1 
	BYTE		N12     Dn4 
	BYTE		N12     An4 
	BYTE		N12     Dn5 
	BYTE	W18
	BYTE	FINE

//**************** Track 2 (Midi-Chn.2) ****************//

kawaikutegomen_FINAL_2:
	BYTE	KEYSH   kawaikutegomen_FINAL_key+0
// 000   ----------------------------------------
	BYTE		MODT    0
	BYTE		LFOS    44
	BYTE	W28
	BYTE		VOICE   34
	BYTE		PAN     c_v+0
	BYTE		VOL     85*kawaikutegomen_FINAL_mvl/mxv
	BYTE		BENDR   64
	BYTE	W01
	BYTE		        64
	BYTE		        64
	BYTE	W01
	BYTE		VOL     85*kawaikutegomen_FINAL_mvl/mxv
	BYTE		MOD     0
	BYTE	MEMACC  mem_set  0x00  0
kawaikutegomen_FINAL_2_L0:
	BYTE		BENDR   12
	BYTE		BEND    c_v+0
	BYTE	W66
// 001   ----------------------------------------
kawaikutegomen_FINAL_2_001:
	BYTE		N48     Gn0   v088
	BYTE	W48
	BYTE		        An0 
	BYTE	W48
	BYTE	PEND
// 002   ----------------------------------------
	BYTE		        Fs0 
	BYTE	W48
	BYTE		        Bn0 
	BYTE	W48
// 003   ----------------------------------------
	BYTE	PATT
	 POIN2	kawaikutegomen_FINAL_2_001
// 004   ----------------------------------------
	BYTE		N96     Dn1   v088
	BYTE	W96
// 005   ----------------------------------------
	BYTE	PATT
	 POIN2	kawaikutegomen_FINAL_2_001
// 006   ----------------------------------------
kawaikutegomen_FINAL_2_006:
	BYTE		N48     As0   v088
	BYTE	W48
	BYTE		        Bn0 
	BYTE	W48
	BYTE	PEND
// 007   ----------------------------------------
	BYTE	W96
// 008   ----------------------------------------
	BYTE		N12     Dn2 
	BYTE	W12
	BYTE		        An1 
	BYTE	W12
	BYTE		        Dn2 
	BYTE	W12
	BYTE		        An1 
	BYTE	W12
	BYTE		N06     Fs2 
	BYTE	W06
	BYTE		        En2 
	BYTE	W06
	BYTE		        Dn2 
	BYTE	W06
	BYTE		        Cs2 
	BYTE	W06
	BYTE		        Dn2 
	BYTE	W24
// 009   ----------------------------------------
	BYTE		N12     Dn1 
	BYTE	W24
	BYTE		N12   
	BYTE	W24
	BYTE		        An0 
	BYTE	W24
	BYTE		        Cs1 
	BYTE	W24
// 010   ----------------------------------------
	BYTE		        Bn0 
	BYTE	W24
	BYTE		        Dn1 
	BYTE	W24
	BYTE		        Fs0 
	BYTE	W24
	BYTE		        An0 
	BYTE	W24
// 011   ----------------------------------------
	BYTE		        Gn0 
	BYTE	W24
	BYTE		        Gn1 
	BYTE	W24
	BYTE		        Dn1 
	BYTE	W24
	BYTE		        An0 
	BYTE	W24
// 012   ----------------------------------------
	BYTE		        En0 
	BYTE	W24
	BYTE		        Bn0 
	BYTE	W24
	BYTE		        An0 
	BYTE	W24
	BYTE		        Bn0 
	BYTE	W12
	BYTE		        Cs1 
	BYTE	W12
// 013   ----------------------------------------
	BYTE		        Dn1 
	BYTE	W24
	BYTE		        An0 
	BYTE	W24
	BYTE		        Cs1 
	BYTE	W24
	BYTE		        An1 
	BYTE	W24
// 014   ----------------------------------------
	BYTE		        Bn0 
	BYTE	W24
	BYTE		        Fs0 
	BYTE	W24
	BYTE		        An0 
	BYTE	W24
	BYTE		        Fs0 
	BYTE	W24
// 015   ----------------------------------------
	BYTE		        Gn0 
	BYTE	W24
	BYTE		        Bn0 
	BYTE	W24
	BYTE		        Dn1 
	BYTE	W24
	BYTE		        Fs1 
	BYTE	W24
// 016   ----------------------------------------
	BYTE		        En0 
	BYTE	W24
	BYTE		        An0 
	BYTE	W24
	BYTE		        Dn1 
	BYTE	W48
// 017   ----------------------------------------
	BYTE	PATT
	 POIN2	kawaikutegomen_FINAL_2_001
// 018   ----------------------------------------
	BYTE		N84     Dn1   v088
	BYTE	W96
// 019   ----------------------------------------
	BYTE	PATT
	 POIN2	kawaikutegomen_FINAL_2_001
// 020   ----------------------------------------
	BYTE		N84     Dn1   v088
	BYTE	W96
// 021   ----------------------------------------
	BYTE	PATT
	 POIN2	kawaikutegomen_FINAL_2_001
// 022   ----------------------------------------
	BYTE	PATT
	 POIN2	kawaikutegomen_FINAL_2_006
// 023   ----------------------------------------
	BYTE		TIE     Gn0   v088
	BYTE	W96
// 024   ----------------------------------------
	BYTE	W96
	BYTE		EOT   
// 025   ----------------------------------------
	BYTE		TIE     An0 
	BYTE	W96
// 026   ----------------------------------------
	BYTE	W96
	BYTE		EOT   
// 027   ----------------------------------------
	BYTE		N96     As0 
	BYTE	W96
// 028   ----------------------------------------
	BYTE		N24     An1 
	BYTE	W24
	BYTE		        An0 
	BYTE	W72
// 029   ----------------------------------------
kawaikutegomen_FINAL_2_029:
	BYTE		N24     Gn0   v088
	BYTE	W24
	BYTE		N24   
	BYTE	W24
	BYTE		        An0 
	BYTE	W24
	BYTE		N24   
	BYTE	W24
	BYTE	PEND
// 030   ----------------------------------------
kawaikutegomen_FINAL_2_030:
	BYTE		N24     Fs0   v088
	BYTE	W24
	BYTE		N24   
	BYTE	W24
	BYTE		        Bn0 
	BYTE	W24
	BYTE		N24   
	BYTE	W24
	BYTE	PEND
// 031   ----------------------------------------
	BYTE	PATT
	 POIN2	kawaikutegomen_FINAL_2_029
// 032   ----------------------------------------
kawaikutegomen_FINAL_2_032:
	BYTE		N12     Dn1   v088
	BYTE	W12
	BYTE		        An0 
	BYTE	W12
	BYTE		N24     Dn1 
	BYTE	W24
	BYTE		N24   
	BYTE	W24
	BYTE		N24   
	BYTE	W24
	BYTE	PEND
// 033   ----------------------------------------
	BYTE	PATT
	 POIN2	kawaikutegomen_FINAL_2_029
// 034   ----------------------------------------
kawaikutegomen_FINAL_2_034:
	BYTE		N12     As0   v088
	BYTE	W12
	BYTE		        Fs1 
	BYTE	W12
	BYTE		N24     As1 
	BYTE	W24
	BYTE		        Bn1 
	BYTE	W24
	BYTE		        Fs1 
	BYTE	W24
	BYTE	PEND
// 035   ----------------------------------------
	BYTE	PATT
	 POIN2	kawaikutegomen_FINAL_2_029
// 036   ----------------------------------------
kawaikutegomen_FINAL_2_036:
	BYTE		N24     Dn1   v088
	BYTE	W24
	BYTE		N24   
	BYTE	W24
	BYTE		N24   
	BYTE	W24
	BYTE		N24   
	BYTE	W24
	BYTE	PEND
// 037   ----------------------------------------
kawaikutegomen_FINAL_2_037:
	BYTE		N24     Gn0   v088
	BYTE	W24
	BYTE		N12     Dn1 
	BYTE	W12
	BYTE		        Gn0 
	BYTE	W12
	BYTE		N24     An0 
	BYTE	W24
	BYTE		N12     Ds1 
	BYTE	W12
	BYTE		        An0 
	BYTE	W12
	BYTE	PEND
// 038   ----------------------------------------
kawaikutegomen_FINAL_2_038:
	BYTE		N24     Fs0   v088
	BYTE	W24
	BYTE		N12     Cs1 
	BYTE	W12
	BYTE		        Fs0 
	BYTE	W12
	BYTE		        Bn0 
	BYTE	W12
	BYTE		        Cs1 
	BYTE	W12
	BYTE		        Dn1 
	BYTE	W12
	BYTE		        Bn0 
	BYTE	W12
	BYTE	PEND
// 039   ----------------------------------------
	BYTE	PATT
	 POIN2	kawaikutegomen_FINAL_2_029
// 040   ----------------------------------------
	BYTE	PATT
	 POIN2	kawaikutegomen_FINAL_2_032
// 041   ----------------------------------------
	BYTE	PATT
	 POIN2	kawaikutegomen_FINAL_2_029
// 042   ----------------------------------------
kawaikutegomen_FINAL_2_042:
	BYTE		N24     As0   v088
	BYTE	W24
	BYTE		N12   
	BYTE	W12
	BYTE		        Cs1 
	BYTE	W12
	BYTE		        Bn0 
	BYTE	W12
	BYTE		        Cs1 
	BYTE	W12
	BYTE		        Dn1 
	BYTE	W12
	BYTE		        Bn0 
	BYTE	W12
	BYTE	PEND
// 043   ----------------------------------------
kawaikutegomen_FINAL_2_043:
	BYTE		N24     Gn0   v088
	BYTE	W24
	BYTE		        Dn1 
	BYTE	W24
	BYTE		        An0 
	BYTE	W24
	BYTE		        En1 
	BYTE	W24
	BYTE	PEND
// 044   ----------------------------------------
kawaikutegomen_FINAL_2_044:
	BYTE		N24     Dn1   v088
	BYTE	W24
	BYTE		N24   
	BYTE	W72
	BYTE	PEND
// 045   ----------------------------------------
	BYTE	W96
// 046   ----------------------------------------
	BYTE	W96
// 047   ----------------------------------------
	BYTE	PATT
	 POIN2	kawaikutegomen_FINAL_2_029
// 048   ----------------------------------------
	BYTE	PATT
	 POIN2	kawaikutegomen_FINAL_2_030
// 049   ----------------------------------------
	BYTE	PATT
	 POIN2	kawaikutegomen_FINAL_2_029
// 050   ----------------------------------------
	BYTE	PATT
	 POIN2	kawaikutegomen_FINAL_2_036
// 051   ----------------------------------------
	BYTE	PATT
	 POIN2	kawaikutegomen_FINAL_2_029
// 052   ----------------------------------------
	BYTE		N24     As0   v088
	BYTE	W24
	BYTE		N24   
	BYTE	W24
	BYTE		        Bn0 
	BYTE	W24
	BYTE		N24   
	BYTE	W24
// 053   ----------------------------------------
	BYTE	W96
// 054   ----------------------------------------
	BYTE	W96
// 055   ----------------------------------------
	BYTE	W96
// 056   ----------------------------------------
	BYTE	W96
// 057   ----------------------------------------
	BYTE	W96
// 058   ----------------------------------------
	BYTE	W96
// 059   ----------------------------------------
	BYTE		N18     Dn1 
	BYTE	W24
	BYTE		N12     Fs1 
	BYTE	W12
	BYTE		        Gn1 
	BYTE	W12
	BYTE		N18     An1 
	BYTE	W24
	BYTE		        En1 
	BYTE	W24
// 060   ----------------------------------------
	BYTE		        Bn0 
	BYTE	W24
	BYTE		N12     Fs1 
	BYTE	W12
	BYTE		        Bn1 
	BYTE	W12
	BYTE		        An1 
	BYTE	W12
	BYTE		        Gn1 
	BYTE	W12
	BYTE		        Fs1 
	BYTE	W12
	BYTE		        Dn1 
	BYTE	W12
// 061   ----------------------------------------
	BYTE		        Gn0 
	BYTE	W24
	BYTE		N24     Gn1 
	BYTE	W24
	BYTE		N12     Fs0 
	BYTE	W24
	BYTE		N24     Fs1 
	BYTE	W24
// 062   ----------------------------------------
	BYTE		N12     En0 
	BYTE	W24
	BYTE		        An0 
	BYTE	W24
	BYTE		N48     Dn1 
	BYTE	W48
// 063   ----------------------------------------
	BYTE	PATT
	 POIN2	kawaikutegomen_FINAL_2_001
// 064   ----------------------------------------
	BYTE		N84     Dn1   v088
	BYTE	W96
// 065   ----------------------------------------
	BYTE	PATT
	 POIN2	kawaikutegomen_FINAL_2_001
// 066   ----------------------------------------
	BYTE		N84     Dn1   v088
	BYTE	W96
// 067   ----------------------------------------
	BYTE	PATT
	 POIN2	kawaikutegomen_FINAL_2_001
// 068   ----------------------------------------
	BYTE	PATT
	 POIN2	kawaikutegomen_FINAL_2_006
// 069   ----------------------------------------
	BYTE		TIE     Gn0   v088
	BYTE	W96
// 070   ----------------------------------------
	BYTE	W96
	BYTE		EOT   
// 071   ----------------------------------------
	BYTE		TIE     An0 
	BYTE	W96
// 072   ----------------------------------------
	BYTE	W96
	BYTE		EOT   
// 073   ----------------------------------------
	BYTE		N96     As0 
	BYTE	W96
// 074   ----------------------------------------
	BYTE		N30     An0 
	BYTE	W36
	BYTE		BEND    c_v+0
	BYTE		N12   
	BYTE	W24
	BYTE		BEND    c_v+19
	BYTE		N30     An1 
	BYTE	W01
	BYTE		BEND    c_v+19
	BYTE	W01
	BYTE		        c_v+19
	BYTE	W02
	BYTE		        c_v+18
	BYTE	W01
	BYTE		        c_v+16
	BYTE	W02
	BYTE		        c_v+14
	BYTE	W01
	BYTE		        c_v+10
	BYTE	W01
	BYTE		        c_v+6
	BYTE	W02
	BYTE		        c_v+1
	BYTE	W01
	BYTE		        c_v-4
	BYTE	W02
	BYTE		        c_v-9
	BYTE	W01
	BYTE		        c_v-15
	BYTE	W01
	BYTE		        c_v-21
	BYTE	W02
	BYTE		        c_v-26
	BYTE	W01
	BYTE		        c_v-31
	BYTE	W02
	BYTE		        c_v-35
	BYTE	W01
	BYTE		        c_v-39
	BYTE	W01
	BYTE		        c_v-42
	BYTE	W02
	BYTE		        c_v-44
	BYTE	W01
	BYTE		        c_v-45
	BYTE	W02
	BYTE		        c_v-46
	BYTE	W01
	BYTE		        c_v-46
	BYTE	W07
// 075   ----------------------------------------
	BYTE		        c_v+0
	BYTE		N24     Gn0 
	BYTE	W24
	BYTE		N24   
	BYTE	W24
	BYTE		        An0 
	BYTE	W24
	BYTE		N24   
	BYTE	W24
// 076   ----------------------------------------
	BYTE	PATT
	 POIN2	kawaikutegomen_FINAL_2_030
// 077   ----------------------------------------
	BYTE	PATT
	 POIN2	kawaikutegomen_FINAL_2_029
// 078   ----------------------------------------
	BYTE	PATT
	 POIN2	kawaikutegomen_FINAL_2_032
// 079   ----------------------------------------
	BYTE	PATT
	 POIN2	kawaikutegomen_FINAL_2_029
// 080   ----------------------------------------
	BYTE	PATT
	 POIN2	kawaikutegomen_FINAL_2_034
// 081   ----------------------------------------
	BYTE	PATT
	 POIN2	kawaikutegomen_FINAL_2_029
// 082   ----------------------------------------
	BYTE	PATT
	 POIN2	kawaikutegomen_FINAL_2_036
// 083   ----------------------------------------
	BYTE	PATT
	 POIN2	kawaikutegomen_FINAL_2_037
// 084   ----------------------------------------
	BYTE	PATT
	 POIN2	kawaikutegomen_FINAL_2_038
// 085   ----------------------------------------
	BYTE	PATT
	 POIN2	kawaikutegomen_FINAL_2_029
// 086   ----------------------------------------
	BYTE	PATT
	 POIN2	kawaikutegomen_FINAL_2_032
// 087   ----------------------------------------
	BYTE	PATT
	 POIN2	kawaikutegomen_FINAL_2_029
// 088   ----------------------------------------
	BYTE	PATT
	 POIN2	kawaikutegomen_FINAL_2_042
// 089   ----------------------------------------
	BYTE	PATT
	 POIN2	kawaikutegomen_FINAL_2_043
// 090   ----------------------------------------
	BYTE	PATT
	 POIN2	kawaikutegomen_FINAL_2_044
// 091   ----------------------------------------
	BYTE	W96
// 092   ----------------------------------------
	BYTE	W96
// 093   ----------------------------------------
kawaikutegomen_FINAL_2_093:
	BYTE		N12     Gn0   v088
	BYTE	W36
	BYTE		        Dn1 
	BYTE	W24
	BYTE		        Gn0 
	BYTE	W12
	BYTE		N24   
	BYTE	W24
	BYTE	PEND
// 094   ----------------------------------------
kawaikutegomen_FINAL_2_094:
	BYTE		N12     Fs0   v088
	BYTE	W36
	BYTE		        Dn1 
	BYTE	W24
	BYTE		        Fs0 
	BYTE	W12
	BYTE		N24   
	BYTE	W24
	BYTE	PEND
// 095   ----------------------------------------
	BYTE		N12     An0 
	BYTE	W36
	BYTE		        Cs1 
	BYTE	W24
	BYTE		        An0 
	BYTE	W12
	BYTE		N24   
	BYTE	W24
// 096   ----------------------------------------
	BYTE		N12     Bn0 
	BYTE	W36
	BYTE		N24     An0 
	BYTE	W24
	BYTE		N12     Dn1 
	BYTE	W12
	BYTE		        En1 
	BYTE	W12
	BYTE		        Dn1 
	BYTE	W12
// 097   ----------------------------------------
	BYTE	PATT
	 POIN2	kawaikutegomen_FINAL_2_093
// 098   ----------------------------------------
	BYTE	PATT
	 POIN2	kawaikutegomen_FINAL_2_094
// 099   ----------------------------------------
	BYTE		N12     An0   v088
	BYTE	W36
	BYTE		        Cs1 
	BYTE	W36
	BYTE		N24     An0 
	BYTE	W24
// 100   ----------------------------------------
	BYTE		N12     Dn1 
	BYTE	W36
	BYTE		        An0 
	BYTE	W12
	BYTE		        Dn1 
	BYTE	W12
	BYTE		        Cs1 
	BYTE	W12
	BYTE		N24     An0 
	BYTE	W24
// 101   ----------------------------------------
	BYTE		N12     Fs0 
	BYTE	W12
	BYTE		N12   
	BYTE	W12
	BYTE		N12   
	BYTE	W12
	BYTE		N12   
	BYTE	W12
	BYTE		N12   
	BYTE	W12
	BYTE		N12   
	BYTE	W12
	BYTE		N12   
	BYTE	W12
	BYTE		N12   
	BYTE	W12
// 102   ----------------------------------------
	BYTE		        Gn0 
	BYTE	W12
	BYTE		N12   
	BYTE	W12
	BYTE		N12   
	BYTE	W12
	BYTE		N12   
	BYTE	W12
	BYTE		N12   
	BYTE	W12
	BYTE		N12   
	BYTE	W12
	BYTE		N12   
	BYTE	W12
	BYTE		N12   
	BYTE	W12
// 103   ----------------------------------------
kawaikutegomen_FINAL_2_103:
	BYTE		N12     An0   v088
	BYTE	W12
	BYTE		N12   
	BYTE	W12
	BYTE		N12   
	BYTE	W12
	BYTE		N12   
	BYTE	W12
	BYTE		N12   
	BYTE	W12
	BYTE		N12   
	BYTE	W12
	BYTE		N12   
	BYTE	W12
	BYTE		N12   
	BYTE	W12
	BYTE	PEND
// 104   ----------------------------------------
	BYTE		        Bn0 
	BYTE	W12
	BYTE		N12   
	BYTE	W12
	BYTE		N12   
	BYTE	W12
	BYTE		N12   
	BYTE	W12
	BYTE		N12   
	BYTE	W12
	BYTE		N12   
	BYTE	W12
	BYTE		N12   
	BYTE	W12
	BYTE		N12   
	BYTE	W12
// 105   ----------------------------------------
	BYTE		        Fs1 
	BYTE	W12
	BYTE		N12   
	BYTE	W12
	BYTE		N12   
	BYTE	W12
	BYTE		N12   
	BYTE	W12
	BYTE		N12   
	BYTE	W12
	BYTE		N12   
	BYTE	W12
	BYTE		N12   
	BYTE	W12
	BYTE		N12   
	BYTE	W12
// 106   ----------------------------------------
	BYTE		        Gn1 
	BYTE	W12
	BYTE		N12   
	BYTE	W12
	BYTE		N12   
	BYTE	W12
	BYTE		N12   
	BYTE	W12
	BYTE		N12   
	BYTE	W12
	BYTE		N12   
	BYTE	W12
	BYTE		N12   
	BYTE	W12
	BYTE		N12   
	BYTE	W12
// 107   ----------------------------------------
	BYTE		        An1 
	BYTE	W12
	BYTE		N12   
	BYTE	W12
	BYTE		N12   
	BYTE	W12
	BYTE		N12   
	BYTE	W12
	BYTE		N12   
	BYTE	W12
	BYTE		N12   
	BYTE	W12
	BYTE		N12   
	BYTE	W12
	BYTE		N12   
	BYTE	W12
// 108   ----------------------------------------
	BYTE	PATT
	 POIN2	kawaikutegomen_FINAL_2_103
// 109   ----------------------------------------
kawaikutegomen_FINAL_2_109:
	BYTE		N24     Gn0   v088
	BYTE	W24
	BYTE		N24   
	BYTE	W24
	BYTE		        An0 
	BYTE	W24
	BYTE		N12     En1 
	BYTE	W12
	BYTE		        An0 
	BYTE	W12
	BYTE	PEND
// 110   ----------------------------------------
	BYTE		N24     Fs0 
	BYTE	W24
	BYTE		N12     An0 
	BYTE	W12
	BYTE		        As0 
	BYTE	W12
	BYTE		N24     Bn0 
	BYTE	W24
	BYTE		N12     Fs0 
	BYTE	W12
	BYTE		        Bn0 
	BYTE	W12
// 111   ----------------------------------------
	BYTE	PATT
	 POIN2	kawaikutegomen_FINAL_2_109
// 112   ----------------------------------------
	BYTE		N24     Dn1   v088
	BYTE	W24
	BYTE		        Cs1 
	BYTE	W24
	BYTE		        Bn0 
	BYTE	W24
	BYTE		        An0 
	BYTE	W24
// 113   ----------------------------------------
	BYTE	PATT
	 POIN2	kawaikutegomen_FINAL_2_109
// 114   ----------------------------------------
	BYTE		N24     As0   v088
	BYTE	W24
	BYTE		N12     Fs1 
	BYTE	W12
	BYTE		        As1 
	BYTE	W12
	BYTE		N24     Bn1 
	BYTE	W24
	BYTE		        Fs1 
	BYTE	W24
// 115   ----------------------------------------
	BYTE		        Gn0 
	BYTE	W24
	BYTE		N12     Dn1 
	BYTE	W12
	BYTE		        Gn0 
	BYTE	W12
	BYTE		N24     An0 
	BYTE	W24
	BYTE		N12     En1 
	BYTE	W12
	BYTE		        An0 
	BYTE	W12
// 116   ----------------------------------------
	BYTE		N48     Dn1 
	BYTE	W96
// 117   ----------------------------------------
	BYTE	W96
// 118   ----------------------------------------
	BYTE	W96
// 119   ----------------------------------------
	BYTE	W96
// 120   ----------------------------------------
	BYTE	W96
// 121   ----------------------------------------
	BYTE	W96
// 122   ----------------------------------------
	BYTE	W96
// 123   ----------------------------------------
	BYTE	W96
	BYTE	W48
// 124   ----------------------------------------
	BYTE	W96
// 125   ----------------------------------------
	BYTE	W96
// 126   ----------------------------------------
	BYTE	PATT
	 POIN2	kawaikutegomen_FINAL_2_029
// 127   ----------------------------------------
	BYTE	PATT
	 POIN2	kawaikutegomen_FINAL_2_030
// 128   ----------------------------------------
	BYTE	PATT
	 POIN2	kawaikutegomen_FINAL_2_029
// 129   ----------------------------------------
	BYTE	PATT
	 POIN2	kawaikutegomen_FINAL_2_032
// 130   ----------------------------------------
	BYTE	PATT
	 POIN2	kawaikutegomen_FINAL_2_029
// 131   ----------------------------------------
	BYTE	PATT
	 POIN2	kawaikutegomen_FINAL_2_042
// 132   ----------------------------------------
	BYTE	PATT
	 POIN2	kawaikutegomen_FINAL_2_043
// 133   ----------------------------------------
	BYTE	PATT
	 POIN2	kawaikutegomen_FINAL_2_044
// 134   ----------------------------------------
	BYTE	W96
// 135   ----------------------------------------
	BYTE	W96
// 136   ----------------------------------------
kawaikutegomen_FINAL_2_136:
	BYTE		N12     Gn0   v088
	BYTE	W12
	BYTE		N12   
	BYTE	W12
	BYTE		        Dn1 
	BYTE	W12
	BYTE		        Gn0 
	BYTE	W12
	BYTE		        An0 
	BYTE	W12
	BYTE		N12   
	BYTE	W12
	BYTE		        En1 
	BYTE	W12
	BYTE		        An0 
	BYTE	W12
	BYTE	PEND
// 137   ----------------------------------------
	BYTE		        Fs0 
	BYTE	W12
	BYTE		N12   
	BYTE	W12
	BYTE		        An0 
	BYTE	W12
	BYTE		        As0 
	BYTE	W12
	BYTE		        Bn0 
	BYTE	W12
	BYTE		N12   
	BYTE	W12
	BYTE		N12   
	BYTE	W12
	BYTE		N12   
	BYTE	W12
// 138   ----------------------------------------
	BYTE	PATT
	 POIN2	kawaikutegomen_FINAL_2_136
// 139   ----------------------------------------
	BYTE		N12     Dn1   v088
	BYTE	W12
	BYTE		N12   
	BYTE	W12
	BYTE		        En1 
	BYTE	W12
	BYTE		N12   
	BYTE	W12
	BYTE		        Fs1 
	BYTE	W12
	BYTE		        Gn1 
	BYTE	W12
	BYTE		        An1 
	BYTE	W12
	BYTE		        Fs1 
	BYTE	W12
// 140   ----------------------------------------
	BYTE	PATT
	 POIN2	kawaikutegomen_FINAL_2_136
// 141   ----------------------------------------
	BYTE		N12     As0   v088
	BYTE	W12
	BYTE		N12   
	BYTE	W12
	BYTE		        Fs1 
	BYTE	W12
	BYTE		        As1 
	BYTE	W12
	BYTE		        Bn1 
	BYTE	W12
	BYTE		N12   
	BYTE	W12
	BYTE		        Fs1 
	BYTE	W12
	BYTE		        Bn0 
	BYTE	W12
// 142   ----------------------------------------
	BYTE	PATT
	 POIN2	kawaikutegomen_FINAL_2_136
// 143   ----------------------------------------
	BYTE		N18     Dn1   v088
	BYTE	W24
	BYTE		        An0 
	BYTE	W24
	BYTE		N24     Dn1 
	BYTE	W24
	BYTE	FINE

//**************** Track 3 (Midi-Chn.9) ****************//

kawaikutegomen_FINAL_3:
	BYTE	KEYSH   kawaikutegomen_FINAL_key+0
// 000   ----------------------------------------
	BYTE		MODT    0
	BYTE		LFOS    44
	BYTE	W28
	BYTE		VOICE   9
	BYTE		PAN     c_v+0
	BYTE		VOL     85*kawaikutegomen_FINAL_mvl/mxv
	BYTE		BENDR   64
	BYTE	W01
	BYTE		        64
	BYTE		        64
	BYTE	W01
	BYTE		VOL     56*kawaikutegomen_FINAL_mvl/mxv
	BYTE		MOD     0
	BYTE	MEMACC  mem_set  0x00  0
kawaikutegomen_FINAL_3_L0:
	BYTE		BENDR   12
	BYTE		BEND    c_v+0
	BYTE	W66
// 001   ----------------------------------------
kawaikutegomen_FINAL_3_001:
	BYTE		N24     Dn6   v088
	BYTE	W36
	BYTE		N12     Dn5 
	BYTE	W12
	BYTE		        En5 
	BYTE	W12
	BYTE		N12   
	BYTE	W12
	BYTE		        Dn5 
	BYTE	W12
	BYTE		        En5 
	BYTE	W12
	BYTE	PEND
// 002   ----------------------------------------
kawaikutegomen_FINAL_3_002:
	BYTE		N24     Fs5   v088
	BYTE	W24
	BYTE		        Cs6 
	BYTE	W24
	BYTE		N12     Dn6 
	BYTE	W24
	BYTE		        An5 
	BYTE	W12
	BYTE		        Fs5 
	BYTE	W12
	BYTE	PEND
// 003   ----------------------------------------
kawaikutegomen_FINAL_3_003:
	BYTE		N24     Dn5   v088
	BYTE	W36
	BYTE		N12   
	BYTE	W12
	BYTE		        En5 
	BYTE	W12
	BYTE		N12   
	BYTE	W12
	BYTE		        Dn5 
	BYTE	W12
	BYTE		        En5 
	BYTE	W12
	BYTE	PEND
// 004   ----------------------------------------
kawaikutegomen_FINAL_3_004:
	BYTE		N24     Fs5   v088
	BYTE	W24
	BYTE		        Gn5 
	BYTE	W24
	BYTE		        An5 
	BYTE	W48
	BYTE	PEND
// 005   ----------------------------------------
	BYTE	PATT
	 POIN2	kawaikutegomen_FINAL_3_001
// 006   ----------------------------------------
	BYTE	PATT
	 POIN2	kawaikutegomen_FINAL_3_002
// 007   ----------------------------------------
kawaikutegomen_FINAL_3_007:
	BYTE		N24     Dn5   v088
	BYTE	W36
	BYTE		N12   
	BYTE	W12
	BYTE		        En5 
	BYTE	W12
	BYTE		N12   
	BYTE	W12
	BYTE		        Dn5 
	BYTE	W12
	BYTE		        Cs5 
	BYTE	W12
	BYTE	PEND
// 008   ----------------------------------------
kawaikutegomen_FINAL_3_008:
	BYTE		N12     Dn5   v088
	BYTE	W24
	BYTE		        En5 
	BYTE	W24
	BYTE		        Dn5 
	BYTE	W48
	BYTE	PEND
// 009   ----------------------------------------
kawaikutegomen_FINAL_3_009:
	BYTE		N12     Dn6   v088
	BYTE	W24
	BYTE		        An5 
	BYTE	W24
	BYTE		        En6 
	BYTE	W24
	BYTE		        Dn6 
	BYTE	W24
	BYTE	PEND
// 010   ----------------------------------------
kawaikutegomen_FINAL_3_010:
	BYTE		N12     Fs6   v088
	BYTE	W24
	BYTE		        Dn6 
	BYTE	W24
	BYTE		        En6 
	BYTE	W24
	BYTE		        Dn6 
	BYTE	W24
	BYTE	PEND
// 011   ----------------------------------------
kawaikutegomen_FINAL_3_011:
	BYTE		N12     Bn5   v088
	BYTE	W24
	BYTE		        Dn6 
	BYTE	W24
	BYTE		        An5 
	BYTE	W24
	BYTE		        Dn6 
	BYTE	W24
	BYTE	PEND
// 012   ----------------------------------------
	BYTE	PATT
	 POIN2	kawaikutegomen_FINAL_3_010
// 013   ----------------------------------------
	BYTE	PATT
	 POIN2	kawaikutegomen_FINAL_3_009
// 014   ----------------------------------------
	BYTE	PATT
	 POIN2	kawaikutegomen_FINAL_3_010
// 015   ----------------------------------------
	BYTE	PATT
	 POIN2	kawaikutegomen_FINAL_3_011
// 016   ----------------------------------------
	BYTE	W96
// 017   ----------------------------------------
kawaikutegomen_FINAL_3_017:
	BYTE		N06     Bn5   v088
	BYTE	W12
	BYTE		        Gn5 
	BYTE	W12
	BYTE		        Bn5 
	BYTE	W12
	BYTE		        Dn6 
	BYTE	W12
	BYTE		        Cs6 
	BYTE	W12
	BYTE		        An5 
	BYTE	W12
	BYTE		        Cs6 
	BYTE	W12
	BYTE		        En6 
	BYTE	W12
	BYTE	PEND
// 018   ----------------------------------------
kawaikutegomen_FINAL_3_018:
	BYTE		N06     Dn6   v088
	BYTE	W12
	BYTE		        An5 
	BYTE	W12
	BYTE		        Dn6 
	BYTE	W12
	BYTE		        Fs6 
	BYTE	W06
	BYTE		        Gn6 
	BYTE	W06
	BYTE		        An6 
	BYTE	W12
	BYTE		        Fs6 
	BYTE	W12
	BYTE		        En6 
	BYTE	W12
	BYTE		        Fs6 
	BYTE	W12
	BYTE	PEND
// 019   ----------------------------------------
	BYTE	PATT
	 POIN2	kawaikutegomen_FINAL_3_017
// 020   ----------------------------------------
kawaikutegomen_FINAL_3_020:
	BYTE		N06     Fs5   v088
	BYTE	W12
	BYTE		        Gn5 
	BYTE	W12
	BYTE		        Gs5 
	BYTE	W12
	BYTE		        An5 
	BYTE	W12
	BYTE		        As5 
	BYTE	W12
	BYTE		        An5 
	BYTE	W12
	BYTE		        Gs5 
	BYTE	W12
	BYTE		        Gn5 
	BYTE	W12
	BYTE	PEND
// 021   ----------------------------------------
kawaikutegomen_FINAL_3_021:
	BYTE		N06     Bn5   v088
	BYTE	W36
	BYTE		        An5 
	BYTE	W12
	BYTE		N06   
	BYTE	W48
	BYTE	PEND
// 022   ----------------------------------------
kawaikutegomen_FINAL_3_022:
	BYTE		N06     Cs6   v088
	BYTE	W36
	BYTE		        Bn5 
	BYTE	W12
	BYTE		N06   
	BYTE	W48
	BYTE	PEND
// 023   ----------------------------------------
	BYTE		N06   
	BYTE	W96
// 024   ----------------------------------------
kawaikutegomen_FINAL_3_024:
	BYTE		N06     Bn5   v088
	BYTE	W36
	BYTE		        Dn6 
	BYTE	W36
	BYTE		        Gn6 
	BYTE	W24
	BYTE	PEND
// 025   ----------------------------------------
kawaikutegomen_FINAL_3_025:
	BYTE		N06     Bn5   v088
	BYTE	W36
	BYTE		        An5 
	BYTE	W12
	BYTE		N06   
	BYTE	W24
	BYTE		N06   
	BYTE	W24
	BYTE	PEND
// 026   ----------------------------------------
kawaikutegomen_FINAL_3_026:
	BYTE		N06     An6   v088
	BYTE	W36
	BYTE		        En6 
	BYTE	W12
	BYTE		N06   
	BYTE	W48
	BYTE	PEND
// 027   ----------------------------------------
kawaikutegomen_FINAL_3_027:
	BYTE		N06     Fn6   v088
	BYTE	W24
	BYTE		N06   
	BYTE	W24
	BYTE		        Gn6 
	BYTE	W24
	BYTE		        An6 
	BYTE	W24
	BYTE	PEND
// 028   ----------------------------------------
	BYTE		N06   
	BYTE	W96
// 029   ----------------------------------------
	BYTE		N24     Bn5 
	BYTE	W24
	BYTE		        Dn6 
	BYTE	W24
	BYTE		        Cs6 
	BYTE	W24
	BYTE		        Dn6 
	BYTE	W24
// 030   ----------------------------------------
kawaikutegomen_FINAL_3_030:
	BYTE		N24     En6   v088
	BYTE	W24
	BYTE		        Cs6 
	BYTE	W24
	BYTE		        Dn6 
	BYTE	W24
	BYTE		        An5 
	BYTE	W24
	BYTE	PEND
// 031   ----------------------------------------
kawaikutegomen_FINAL_3_031:
	BYTE		N24     Bn5   v088
	BYTE	W24
	BYTE		        Dn6 
	BYTE	W24
	BYTE		        Cs6 
	BYTE	W24
	BYTE		        En6 
	BYTE	W24
	BYTE	PEND
// 032   ----------------------------------------
	BYTE		        Fs6 
	BYTE	W24
	BYTE		        En6 
	BYTE	W24
	BYTE		        Gn6 
	BYTE	W24
	BYTE		        Fs6 
	BYTE	W24
// 033   ----------------------------------------
	BYTE	PATT
	 POIN2	kawaikutegomen_FINAL_3_031
// 034   ----------------------------------------
	BYTE		N24     Fs6   v088
	BYTE	W24
	BYTE		        Cs7 
	BYTE	W24
	BYTE		        Dn7 
	BYTE	W24
	BYTE		        An6 
	BYTE	W24
// 035   ----------------------------------------
	BYTE		        Dn6 
	BYTE	W24
	BYTE		        Fs6 
	BYTE	W24
	BYTE		        En6 
	BYTE	W24
	BYTE		        An6 
	BYTE	W24
// 036   ----------------------------------------
	BYTE		N12     Dn5 
	BYTE	W12
	BYTE		        En5 
	BYTE	W12
	BYTE		        Fs5 
	BYTE	W12
	BYTE		        Gn5 
	BYTE	W12
	BYTE		        Gs5 
	BYTE	W12
	BYTE		        An5 
	BYTE	W12
	BYTE		        Bn5 
	BYTE	W12
	BYTE		        Cs6 
	BYTE	W12
// 037   ----------------------------------------
kawaikutegomen_FINAL_3_037:
	BYTE		N24     Dn6   v088
	BYTE	W24
	BYTE		        An5 
	BYTE	W24
	BYTE		        En6 
	BYTE	W24
	BYTE		        An5 
	BYTE	W24
	BYTE	PEND
// 038   ----------------------------------------
	BYTE	PATT
	 POIN2	kawaikutegomen_FINAL_3_030
// 039   ----------------------------------------
kawaikutegomen_FINAL_3_039:
	BYTE		N24     Dn6   v088
	BYTE	W24
	BYTE		        An5 
	BYTE	W24
	BYTE		        En6 
	BYTE	W24
	BYTE		        Cs6 
	BYTE	W24
	BYTE	PEND
// 040   ----------------------------------------
	BYTE		        Fs6 
	BYTE	W24
	BYTE		        Dn6 
	BYTE	W24
	BYTE		        Gn6 
	BYTE	W24
	BYTE		        Fs6 
	BYTE	W24
// 041   ----------------------------------------
	BYTE	PATT
	 POIN2	kawaikutegomen_FINAL_3_037
// 042   ----------------------------------------
	BYTE	PATT
	 POIN2	kawaikutegomen_FINAL_3_030
// 043   ----------------------------------------
	BYTE	PATT
	 POIN2	kawaikutegomen_FINAL_3_039
// 044   ----------------------------------------
	BYTE		N24     Fs6   v088
	BYTE	W24
	BYTE		        Dn6 
	BYTE	W72
// 045   ----------------------------------------
	BYTE		        Dn5 
	BYTE	W48
	BYTE		        Cs5 
	BYTE	W48
// 046   ----------------------------------------
	BYTE	PATT
	 POIN2	kawaikutegomen_FINAL_3_008
// 047   ----------------------------------------
	BYTE	PATT
	 POIN2	kawaikutegomen_FINAL_3_001
// 048   ----------------------------------------
	BYTE	PATT
	 POIN2	kawaikutegomen_FINAL_3_002
// 049   ----------------------------------------
	BYTE	PATT
	 POIN2	kawaikutegomen_FINAL_3_003
// 050   ----------------------------------------
	BYTE	PATT
	 POIN2	kawaikutegomen_FINAL_3_004
// 051   ----------------------------------------
	BYTE	PATT
	 POIN2	kawaikutegomen_FINAL_3_001
// 052   ----------------------------------------
	BYTE	PATT
	 POIN2	kawaikutegomen_FINAL_3_002
// 053   ----------------------------------------
	BYTE	PATT
	 POIN2	kawaikutegomen_FINAL_3_007
// 054   ----------------------------------------
	BYTE	PATT
	 POIN2	kawaikutegomen_FINAL_3_008
// 055   ----------------------------------------
	BYTE	W96
// 056   ----------------------------------------
	BYTE	W96
// 057   ----------------------------------------
	BYTE	W96
// 058   ----------------------------------------
	BYTE	W96
// 059   ----------------------------------------
	BYTE	W96
// 060   ----------------------------------------
	BYTE	W96
// 061   ----------------------------------------
	BYTE	W96
// 062   ----------------------------------------
	BYTE	W96
// 063   ----------------------------------------
	BYTE	PATT
	 POIN2	kawaikutegomen_FINAL_3_017
// 064   ----------------------------------------
	BYTE	PATT
	 POIN2	kawaikutegomen_FINAL_3_018
// 065   ----------------------------------------
	BYTE	PATT
	 POIN2	kawaikutegomen_FINAL_3_017
// 066   ----------------------------------------
	BYTE	PATT
	 POIN2	kawaikutegomen_FINAL_3_020
// 067   ----------------------------------------
	BYTE	PATT
	 POIN2	kawaikutegomen_FINAL_3_021
// 068   ----------------------------------------
	BYTE	PATT
	 POIN2	kawaikutegomen_FINAL_3_022
// 069   ----------------------------------------
	BYTE		N06     Bn5   v088
	BYTE	W96
// 070   ----------------------------------------
	BYTE	PATT
	 POIN2	kawaikutegomen_FINAL_3_024
// 071   ----------------------------------------
	BYTE	PATT
	 POIN2	kawaikutegomen_FINAL_3_025
// 072   ----------------------------------------
	BYTE	PATT
	 POIN2	kawaikutegomen_FINAL_3_026
// 073   ----------------------------------------
	BYTE	PATT
	 POIN2	kawaikutegomen_FINAL_3_027
// 074   ----------------------------------------
	BYTE		N06     An6   v088
	BYTE	W36
	BYTE		N06   
	BYTE	W60
// 075   ----------------------------------------
	BYTE	W96
// 076   ----------------------------------------
	BYTE	W96
// 077   ----------------------------------------
	BYTE	W96
// 078   ----------------------------------------
	BYTE	W96
// 079   ----------------------------------------
	BYTE	W96
// 080   ----------------------------------------
	BYTE	W96
// 081   ----------------------------------------
	BYTE	W96
// 082   ----------------------------------------
	BYTE	W96
// 083   ----------------------------------------
	BYTE	W96
// 084   ----------------------------------------
	BYTE	W96
// 085   ----------------------------------------
	BYTE	W96
// 086   ----------------------------------------
	BYTE	W96
// 087   ----------------------------------------
	BYTE	W96
// 088   ----------------------------------------
	BYTE	W96
// 089   ----------------------------------------
	BYTE	W96
// 090   ----------------------------------------
	BYTE	W96
// 091   ----------------------------------------
	BYTE	W96
// 092   ----------------------------------------
	BYTE	W96
// 093   ----------------------------------------
kawaikutegomen_FINAL_3_093:
	BYTE		N24     An5   v088
	BYTE	W36
	BYTE		        An6 
	BYTE	W60
	BYTE	PEND
// 094   ----------------------------------------
	BYTE	PATT
	 POIN2	kawaikutegomen_FINAL_3_093
// 095   ----------------------------------------
	BYTE	PATT
	 POIN2	kawaikutegomen_FINAL_3_093
// 096   ----------------------------------------
	BYTE		N12     An5   v088
	BYTE	W12
	BYTE		        Cs6 
	BYTE	W12
	BYTE		        Dn6 
	BYTE	W12
	BYTE		N24     An6 
	BYTE	W60
// 097   ----------------------------------------
	BYTE	PATT
	 POIN2	kawaikutegomen_FINAL_3_093
// 098   ----------------------------------------
	BYTE	PATT
	 POIN2	kawaikutegomen_FINAL_3_093
// 099   ----------------------------------------
	BYTE	PATT
	 POIN2	kawaikutegomen_FINAL_3_093
// 100   ----------------------------------------
	BYTE		N12     An5   v088
	BYTE	W12
	BYTE		        Cs6 
	BYTE	W12
	BYTE		        Dn6 
	BYTE	W12
	BYTE		        En6 
	BYTE	W12
	BYTE		        Fs6 
	BYTE	W12
	BYTE		        En6 
	BYTE	W12
	BYTE		        Dn6 
	BYTE	W12
	BYTE		        Fs6 
	BYTE	W12
// 101   ----------------------------------------
	BYTE	W96
// 102   ----------------------------------------
	BYTE	W96
// 103   ----------------------------------------
	BYTE	W96
// 104   ----------------------------------------
	BYTE	W96
// 105   ----------------------------------------
	BYTE	W96
// 106   ----------------------------------------
	BYTE	W96
// 107   ----------------------------------------
	BYTE	W96
// 108   ----------------------------------------
	BYTE	W96
// 109   ----------------------------------------
	BYTE		N12   
	BYTE	W12
	BYTE		        Gn6 
	BYTE	W12
	BYTE		        Fs6 
	BYTE	W12
	BYTE		N24     An6 
	BYTE	W24
	BYTE		N12     Fs6 
	BYTE	W12
	BYTE		        Gn6 
	BYTE	W12
	BYTE		        Fs6 
	BYTE	W12
// 110   ----------------------------------------
	BYTE		N24     An6 
	BYTE	W24
	BYTE		N12     Dn6 
	BYTE	W12
	BYTE		        En6 
	BYTE	W12
	BYTE		        Fs6 
	BYTE	W12
	BYTE		        Gn6 
	BYTE	W12
	BYTE		N24     Fs6 
	BYTE	W24
// 111   ----------------------------------------
	BYTE		N12     Dn6 
	BYTE	W36
	BYTE		N24   
	BYTE	W24
	BYTE		        Bn6 
	BYTE	W24
	BYTE		        An6 
	BYTE	W12
// 112   ----------------------------------------
	BYTE	W12
	BYTE		N12     Fs6 
	BYTE	W12
	BYTE		        Gn6 
	BYTE	W12
	BYTE		        An6 
	BYTE	W60
// 113   ----------------------------------------
	BYTE		N36     Dn6 
	BYTE	W36
	BYTE		N12   
	BYTE	W12
	BYTE		        En6 
	BYTE	W12
	BYTE		N12   
	BYTE	W12
	BYTE		        Dn6 
	BYTE	W12
	BYTE		        En6 
	BYTE	W12
// 114   ----------------------------------------
	BYTE		        Fs6 
	BYTE	W24
	BYTE		        Cs7 
	BYTE	W24
	BYTE		        Dn7 
	BYTE	W24
	BYTE		        An6 
	BYTE	W12
	BYTE		        Fs6 
	BYTE	W12
// 115   ----------------------------------------
	BYTE		        Dn6 
	BYTE	W24
	BYTE		        Fs6 
	BYTE	W24
	BYTE		        An6 
	BYTE	W24
	BYTE		        Cs6 
	BYTE	W24
// 116   ----------------------------------------
	BYTE		        Dn6 
	BYTE	W96
// 117   ----------------------------------------
	BYTE	W96
// 118   ----------------------------------------
	BYTE	W96
// 119   ----------------------------------------
	BYTE	W96
// 120   ----------------------------------------
	BYTE	W96
// 121   ----------------------------------------
	BYTE	W96
// 122   ----------------------------------------
	BYTE	W96
// 123   ----------------------------------------
	BYTE	W96
	BYTE	W48
// 124   ----------------------------------------
	BYTE		        An6   v024
	BYTE	W48
	BYTE		        Gn6 
	BYTE	W48
// 125   ----------------------------------------
	BYTE		        An6 
	BYTE	W24
	BYTE		        Gn6 
	BYTE	W24
	BYTE		        An6 
	BYTE	W48
// 126   ----------------------------------------
	BYTE	W96
// 127   ----------------------------------------
	BYTE	W96
// 128   ----------------------------------------
	BYTE	W96
// 129   ----------------------------------------
	BYTE	W96
// 130   ----------------------------------------
	BYTE	W96
// 131   ----------------------------------------
	BYTE	W96
// 132   ----------------------------------------
	BYTE	W96
// 133   ----------------------------------------
	BYTE	W96
// 134   ----------------------------------------
	BYTE	W96
// 135   ----------------------------------------
	BYTE	W96
// 136   ----------------------------------------
	BYTE	PATT
	 POIN2	kawaikutegomen_FINAL_3_001
// 137   ----------------------------------------
	BYTE	PATT
	 POIN2	kawaikutegomen_FINAL_3_002
// 138   ----------------------------------------
	BYTE	PATT
	 POIN2	kawaikutegomen_FINAL_3_003
// 139   ----------------------------------------
	BYTE	PATT
	 POIN2	kawaikutegomen_FINAL_3_004
// 140   ----------------------------------------
	BYTE	PATT
	 POIN2	kawaikutegomen_FINAL_3_001
// 141   ----------------------------------------
	BYTE	PATT
	 POIN2	kawaikutegomen_FINAL_3_002
// 142   ----------------------------------------
	BYTE	PATT
	 POIN2	kawaikutegomen_FINAL_3_007
// 143   ----------------------------------------
	BYTE		N12     Dn5   v088
	BYTE	W24
	BYTE		        En5 
	BYTE	W24
	BYTE		N24     Dn5 
	BYTE	W24
	BYTE	FINE

//**************** Track 4 (Midi-Chn.1) ****************//

kawaikutegomen_FINAL_4:
	BYTE	KEYSH   kawaikutegomen_FINAL_key+0
// 000   ----------------------------------------
	BYTE		MODT    0
	BYTE		LFOS    44
	BYTE	W28
	BYTE		VOICE   30
	BYTE		PAN     c_v+50
	BYTE		VOL     85*kawaikutegomen_FINAL_mvl/mxv
	BYTE		BENDR   64
	BYTE	W01
	BYTE		        64
	BYTE		        64
	BYTE	W01
	BYTE		VOL     24*kawaikutegomen_FINAL_mvl/mxv
	BYTE		MOD     0
	BYTE	MEMACC  mem_set  0x00  0
kawaikutegomen_FINAL_4_L0:
	BYTE		BENDR   24
	BYTE		BEND    c_v+0
	BYTE	W66
// 001   ----------------------------------------
	BYTE		N48     Gn2   v088
	BYTE	W48
	BYTE		N24     An2 
	BYTE	W24
	BYTE		        En3 
	BYTE	W24
// 002   ----------------------------------------
	BYTE		N96     Dn3 
	BYTE	W96
// 003   ----------------------------------------
	BYTE		N48     Gn3 
	BYTE	W48
	BYTE		N24     Fs3 
	BYTE	W24
	BYTE		        En3 
	BYTE	W24
// 004   ----------------------------------------
	BYTE		N84     Fs3 
	BYTE	W96
// 005   ----------------------------------------
	BYTE		N48     Bn2 
	BYTE		N48     Bn3 
	BYTE	W48
	BYTE		N24     Cs3 
	BYTE		N24     Cs4 
	BYTE	W24
	BYTE		        Bn2 
	BYTE		N24     Bn3 
	BYTE	W24
// 006   ----------------------------------------
	BYTE		        As2 
	BYTE		N24     As3 
	BYTE	W24
	BYTE		        En3 
	BYTE		N24     En4 
	BYTE	W24
	BYTE		        Dn3 
	BYTE		N24     Dn4 
	BYTE	W24
	BYTE		        Cs3 
	BYTE		N24     Cs4 
	BYTE	W24
// 007   ----------------------------------------
	BYTE	W96
// 008   ----------------------------------------
	BYTE		N12     Dn3 
	BYTE	W24
	BYTE		N12   
	BYTE	W24
	BYTE		N06     Fs4 
	BYTE	W06
	BYTE		        En4 
	BYTE	W06
	BYTE		        Dn4 
	BYTE	W06
	BYTE		        Cs4 
	BYTE	W06
	BYTE		N12     Dn4 
	BYTE	W24
// 009   ----------------------------------------
kawaikutegomen_FINAL_4_009:
	BYTE	W12
	BYTE		N06     Dn3   v036
	BYTE		N06     Fs3 
	BYTE		N06     An3 
	BYTE	W24
	BYTE		        Dn3 
	BYTE		N06     Fs3 
	BYTE		N06     An3 
	BYTE	W24
	BYTE		        Cs3 
	BYTE		N06     En3 
	BYTE		N06     An3 
	BYTE	W24
	BYTE		        Cs3 
	BYTE		N06     En3 
	BYTE		N06     An3 
	BYTE	W12
	BYTE	PEND
// 010   ----------------------------------------
kawaikutegomen_FINAL_4_010:
	BYTE	W12
	BYTE		N06     Bn2   v036
	BYTE		N06     Dn3 
	BYTE		N06     Fs3 
	BYTE	W24
	BYTE		        Bn2 
	BYTE		N06     Dn3 
	BYTE		N06     Fs3 
	BYTE	W24
	BYTE		        An2 
	BYTE		N06     Cs3 
	BYTE		N06     Fs3 
	BYTE	W24
	BYTE		        An2 
	BYTE		N06     Cs3 
	BYTE		N06     Fs3 
	BYTE	W12
	BYTE	PEND
// 011   ----------------------------------------
kawaikutegomen_FINAL_4_011:
	BYTE	W12
	BYTE		N06     Bn2   v036
	BYTE		N06     Dn3 
	BYTE		N06     Gn3 
	BYTE	W24
	BYTE		        Bn2 
	BYTE		N06     Dn3 
	BYTE		N06     Gn3 
	BYTE	W24
	BYTE		        An2 
	BYTE		N06     Dn3 
	BYTE		N06     Fs3 
	BYTE	W24
	BYTE		        An2 
	BYTE		N06     Dn3 
	BYTE		N06     Fs3 
	BYTE	W12
	BYTE	PEND
// 012   ----------------------------------------
	BYTE	W12
	BYTE		        Bn3 
	BYTE	W01
	BYTE		        En3 
	BYTE		N06     Gn3 
	BYTE	W23
	BYTE		        Bn3 
	BYTE	W01
	BYTE		        En3 
	BYTE		N06     Gn3 
	BYTE	W23
	BYTE		        Cs3 
	BYTE		N06     En3 
	BYTE		N06     An3 
	BYTE	W24
	BYTE		        Cs3 
	BYTE		N06     En3 
	BYTE		N06     An3 
	BYTE	W12
// 013   ----------------------------------------
	BYTE	PATT
	 POIN2	kawaikutegomen_FINAL_4_009
// 014   ----------------------------------------
	BYTE	PATT
	 POIN2	kawaikutegomen_FINAL_4_010
// 015   ----------------------------------------
	BYTE	PATT
	 POIN2	kawaikutegomen_FINAL_4_011
// 016   ----------------------------------------
	BYTE	W12
	BYTE		N06     An2   v036
	BYTE		N06     Cs3 
	BYTE		N06     Gn3 
	BYTE	W24
	BYTE		        An2 
	BYTE		N06     Cs3 
	BYTE		N06     Gn3 
	BYTE	W12
	BYTE		N24     An2 
	BYTE		N24     Dn3 
	BYTE		N24     Fs3 
	BYTE	W48
// 017   ----------------------------------------
kawaikutegomen_FINAL_4_017:
	BYTE		N48     Gn1   v088
	BYTE		N48     Gn2 
	BYTE	W48
	BYTE		N24     An1 
	BYTE		N24     An2 
	BYTE	W24
	BYTE		        En2 
	BYTE		N24     En3 
	BYTE	W24
	BYTE	PEND
// 018   ----------------------------------------
kawaikutegomen_FINAL_4_018:
	BYTE		N48     Dn2   v088
	BYTE		N48     Dn3 
	BYTE	W96
	BYTE	PEND
// 019   ----------------------------------------
kawaikutegomen_FINAL_4_019:
	BYTE		N48     Gn2   v088
	BYTE		N48     Gn3 
	BYTE	W48
	BYTE		N24     Fs2 
	BYTE		N24     Fs3 
	BYTE	W24
	BYTE		        En2 
	BYTE		N24     En3 
	BYTE	W24
	BYTE	PEND
// 020   ----------------------------------------
kawaikutegomen_FINAL_4_020:
	BYTE		N48     Fs2   v088
	BYTE		N48     Fs3 
	BYTE	W96
	BYTE	PEND
// 021   ----------------------------------------
kawaikutegomen_FINAL_4_021:
	BYTE		N48     Bn2   v088
	BYTE		N48     Bn3 
	BYTE	W48
	BYTE		N24     Cs3 
	BYTE		N24     Cs4 
	BYTE	W24
	BYTE		        Bn2 
	BYTE		N24     Bn3 
	BYTE	W24
	BYTE	PEND
// 022   ----------------------------------------
kawaikutegomen_FINAL_4_022:
	BYTE		N24     As2   v088
	BYTE		N24     As3 
	BYTE	W24
	BYTE		        En3 
	BYTE		N24     En4 
	BYTE	W01
	BYTE	W23
	BYTE		N42     Dn3 
	BYTE		N42     Dn4 
	BYTE	W48
	BYTE	PEND
// 023   ----------------------------------------
kawaikutegomen_FINAL_4_023:
	BYTE		N12     Dn3   v088
	BYTE		N12     Dn4 
	BYTE	W12
	BYTE		        Dn3 
	BYTE		N12     Dn4 
	BYTE	W24
	BYTE		        En3 
	BYTE		N12     En4 
	BYTE	W24
	BYTE		        Dn3 
	BYTE		N12     Dn4 
	BYTE	W24
	BYTE		        Fs3 
	BYTE		N12     Fs4 
	BYTE	W12
	BYTE	PEND
// 024   ----------------------------------------
kawaikutegomen_FINAL_4_024:
	BYTE	W12
	BYTE		N12     En3   v088
	BYTE		N12     En4 
	BYTE	W24
	BYTE		        Dn3 
	BYTE		N12     Dn4 
	BYTE	W36
	BYTE		N24     Dn3 
	BYTE		N24     Dn4 
	BYTE	W24
	BYTE	PEND
// 025   ----------------------------------------
kawaikutegomen_FINAL_4_025:
	BYTE		N36     Cs3   v088
	BYTE	W10
	BYTE		        An3   v044
	BYTE	W24
	BYTE	W02
	BYTE		        Dn3   v088
	BYTE	W10
	BYTE		        Bn3   v044
	BYTE	W24
	BYTE	W02
	BYTE		        En3   v088
	BYTE	W10
	BYTE		        Cs4   v044
	BYTE	W14
	BYTE	PEND
// 026   ----------------------------------------
kawaikutegomen_FINAL_4_026:
	BYTE	W12
	BYTE		N36     An3   v088
	BYTE	W10
	BYTE		        En4   v044
	BYTE	W24
	BYTE	W02
	BYTE		N48     Cs4   v088
	BYTE		N48     An4   v064
	BYTE	W48
	BYTE	PEND
// 027   ----------------------------------------
kawaikutegomen_FINAL_4_027:
	BYTE	W12
	BYTE		N06     Dn3   v088
	BYTE		N06     Fn3 
	BYTE	W06
	BYTE		        Gn3 
	BYTE	W06
	BYTE		        Dn3 
	BYTE		N06     Fn3 
	BYTE	W12
	BYTE		N03     Dn3   v032
	BYTE		N03     Fn3 
	BYTE	W06
	BYTE		        Dn3 
	BYTE		N03     Fn3 
	BYTE	W06
	BYTE		N06     Dn3   v088
	BYTE		N06     Fn3 
	BYTE	W06
	BYTE		N03     Dn3   v032
	BYTE		N03     Fn3 
	BYTE	W06
	BYTE		        Dn3 
	BYTE		N03     Fn3 
	BYTE	W06
	BYTE		N06     Dn3   v088
	BYTE		N06     Fn3 
	BYTE	W06
	BYTE		N03     Dn3   v032
	BYTE		N03     Fn3 
	BYTE	W06
	BYTE		        Dn3 
	BYTE		N03     Fn3 
	BYTE	W06
	BYTE		N06     Dn3   v088
	BYTE		N06     Fn3 
	BYTE	W06
	BYTE		N03     Dn3   v032
	BYTE		N03     Fn3 
	BYTE	W06
	BYTE	PEND
// 028   ----------------------------------------
	BYTE		N15     An2   v088
	BYTE		N15     En3 
	BYTE		N24     An4 
	BYTE	W48
	BYTE		N06   
	BYTE	W06
	BYTE		        Fs4 
	BYTE	W06
	BYTE		        En4 
	BYTE	W06
	BYTE		        Dn4 
	BYTE	W06
	BYTE		        An4 
	BYTE	W06
	BYTE		        Fs4 
	BYTE	W06
	BYTE		        En4 
	BYTE	W06
	BYTE		        Dn4 
	BYTE	W06
// 029   ----------------------------------------
kawaikutegomen_FINAL_4_029:
	BYTE		N12     An3   v088
	BYTE		N12     Fs4 
	BYTE	W12
	BYTE		        An3 
	BYTE		N12     Fs4 
	BYTE	W24
	BYTE		        An3 
	BYTE		N12     En4 
	BYTE	W24
	BYTE		        An3 
	BYTE	W24
	BYTE		N12   
	BYTE		N12     En4 
	BYTE	W12
	BYTE	PEND
// 030   ----------------------------------------
kawaikutegomen_FINAL_4_030:
	BYTE	W12
	BYTE		N12     En4   v088
	BYTE	W24
	BYTE		        Bn3 
	BYTE		N12     Dn4 
	BYTE	W24
	BYTE		        Bn3 
	BYTE		N12     Dn4 
	BYTE	W24
	BYTE		        Dn3 
	BYTE	W12
	BYTE	PEND
// 031   ----------------------------------------
kawaikutegomen_FINAL_4_031:
	BYTE		N24     Gn3   v088
	BYTE	W12
	BYTE		N12     Bn3 
	BYTE	W24
	BYTE		N36     En3 
	BYTE	W12
	BYTE		N24     An3 
	BYTE	W12
	BYTE		N12     Cs4 
	BYTE	W24
	BYTE		N06     Dn4 
	BYTE	W06
	BYTE		        En4 
	BYTE	W06
	BYTE	PEND
// 032   ----------------------------------------
kawaikutegomen_FINAL_4_032:
	BYTE		N12     Fs4   v088
	BYTE	W12
	BYTE		        Dn4 
	BYTE	W12
	BYTE		        Bn3 
	BYTE	W12
	BYTE		        An3 
	BYTE	W12
	BYTE		        Fs3 
	BYTE	W12
	BYTE		        Gn3 
	BYTE	W12
	BYTE		N24     An3 
	BYTE	W12
	BYTE		N12     Dn4 
	BYTE	W12
	BYTE	PEND
// 033   ----------------------------------------
kawaikutegomen_FINAL_4_033:
	BYTE		N12     An3   v088
	BYTE		N12     Fs4 
	BYTE	W12
	BYTE		        An3 
	BYTE		N12     Fs4 
	BYTE	W24
	BYTE		        An3 
	BYTE		N12     En4 
	BYTE	W24
	BYTE		        An3 
	BYTE		N12     Dn4 
	BYTE	W24
	BYTE		        As3 
	BYTE		N12     Cs4 
	BYTE	W12
	BYTE	PEND
// 034   ----------------------------------------
kawaikutegomen_FINAL_4_034:
	BYTE	W12
	BYTE		N12     As3   v088
	BYTE		N12     En4 
	BYTE	W24
	BYTE		        Bn3 
	BYTE		N12     Dn4 
	BYTE	W24
	BYTE		        Bn3 
	BYTE		N12     Dn4 
	BYTE	W24
	BYTE		N24     Fs3 
	BYTE	W12
	BYTE	PEND
// 035   ----------------------------------------
kawaikutegomen_FINAL_4_035:
	BYTE		N24     Gn3   v088
	BYTE	W12
	BYTE		        An3 
	BYTE	W12
	BYTE		N12     Dn4 
	BYTE	W12
	BYTE		        An3 
	BYTE	W12
	BYTE		N03     Fs3 
	BYTE	W03
	BYTE		N09     Gn3 
	BYTE	W09
	BYTE		N12     Fs3 
	BYTE	W12
	BYTE		        Dn3 
	BYTE	W12
	BYTE		        En3 
	BYTE	W12
	BYTE	PEND
// 036   ----------------------------------------
	BYTE		N96     Dn3 
	BYTE	W96
// 037   ----------------------------------------
kawaikutegomen_FINAL_4_037:
	BYTE		N12     An3   v088
	BYTE		N12     Fs4 
	BYTE	W12
	BYTE		        An3 
	BYTE		N12     Fs4 
	BYTE	W24
	BYTE		        An3 
	BYTE		N12     En4 
	BYTE	W24
	BYTE		        An3 
	BYTE		N12     Dn4 
	BYTE	W24
	BYTE		        Gn4 
	BYTE	W12
	BYTE	PEND
// 038   ----------------------------------------
kawaikutegomen_FINAL_4_038:
	BYTE	W12
	BYTE		N12     Fs4   v088
	BYTE	W24
	BYTE		        Bn3 
	BYTE		N12     Dn4 
	BYTE	W24
	BYTE		        Bn3 
	BYTE		N12     Dn4 
	BYTE	W24
	BYTE		        Dn3 
	BYTE	W12
	BYTE	PEND
// 039   ----------------------------------------
	BYTE	PATT
	 POIN2	kawaikutegomen_FINAL_4_031
// 040   ----------------------------------------
	BYTE	PATT
	 POIN2	kawaikutegomen_FINAL_4_032
// 041   ----------------------------------------
	BYTE	PATT
	 POIN2	kawaikutegomen_FINAL_4_033
// 042   ----------------------------------------
	BYTE	PATT
	 POIN2	kawaikutegomen_FINAL_4_034
// 043   ----------------------------------------
	BYTE	PATT
	 POIN2	kawaikutegomen_FINAL_4_035
// 044   ----------------------------------------
kawaikutegomen_FINAL_4_044:
	BYTE	W12
	BYTE		N06     An2   v060
	BYTE		N06     Dn3 
	BYTE		N06     Fs3 
	BYTE	W24
	BYTE		        An2 
	BYTE		N06     Dn3 
	BYTE		N06     Fs3 
	BYTE	W06
	BYTE		        An2 
	BYTE		N06     Dn3 
	BYTE		N06     Fs3 
	BYTE	W18
	BYTE		        An2 
	BYTE		N06     Dn3 
	BYTE		N06     Fs3 
	BYTE	W12
	BYTE		N12     An2 
	BYTE		N12     Dn3 
	BYTE		N12     Fs3 
	BYTE	W24
	BYTE	PEND
// 045   ----------------------------------------
	BYTE	W96
// 046   ----------------------------------------
kawaikutegomen_FINAL_4_046:
	BYTE		N12     Dn4   v088
	BYTE	W24
	BYTE		        En4 
	BYTE	W24
	BYTE		        Dn4 
	BYTE	W48
	BYTE	PEND
// 047   ----------------------------------------
kawaikutegomen_FINAL_4_047:
	BYTE		N12     An3   v088
	BYTE		N12     Fs4 
	BYTE	W12
	BYTE		        An3 
	BYTE		N12     Fs4 
	BYTE	W24
	BYTE		        An3 
	BYTE		N12     En4 
	BYTE	W24
	BYTE		        An3 
	BYTE		N12     Dn4 
	BYTE	W24
	BYTE		        An3 
	BYTE		N12     Cs4 
	BYTE	W12
	BYTE	PEND
// 048   ----------------------------------------
	BYTE	PATT
	 POIN2	kawaikutegomen_FINAL_4_030
// 049   ----------------------------------------
kawaikutegomen_FINAL_4_049:
	BYTE		N48     Dn3   v088
	BYTE	W12
	BYTE		N24     Gn3   v068
	BYTE	W12
	BYTE		        Bn3   v064
	BYTE	W12
	BYTE		N12     Gn3   v088
	BYTE	W12
	BYTE		N36     En3 
	BYTE	W12
	BYTE		N24     An3 
	BYTE	W12
	BYTE		N18     Cs4 
	BYTE	W18
	BYTE		N06     En4 
	BYTE	W06
	BYTE	PEND
// 050   ----------------------------------------
	BYTE	PATT
	 POIN2	kawaikutegomen_FINAL_4_032
// 051   ----------------------------------------
kawaikutegomen_FINAL_4_051:
	BYTE		N12     An3   v088
	BYTE		N12     Fs4 
	BYTE	W12
	BYTE		        An3 
	BYTE		N12     Fs4 
	BYTE	W24
	BYTE		        En4 
	BYTE	W24
	BYTE		        An3 
	BYTE		N12     Dn4 
	BYTE	W24
	BYTE		        As3 
	BYTE		N12     Cs4 
	BYTE	W12
	BYTE	PEND
// 052   ----------------------------------------
kawaikutegomen_FINAL_4_052:
	BYTE	W12
	BYTE		N12     En4   v088
	BYTE	W24
	BYTE		        Bn3 
	BYTE		N12     Dn4 
	BYTE	W24
	BYTE		        Bn3 
	BYTE		N12     Dn4 
	BYTE	W24
	BYTE		        Fs3 
	BYTE	W12
	BYTE	PEND
// 053   ----------------------------------------
kawaikutegomen_FINAL_4_053:
	BYTE		N48     Dn3   v088
	BYTE	W12
	BYTE		N24     Gn3   v068
	BYTE	W12
	BYTE		        Bn3   v064
	BYTE	W12
	BYTE		N12     Gn3   v088
	BYTE	W12
	BYTE		N48     En3 
	BYTE	W12
	BYTE		N36     An3 
	BYTE	W12
	BYTE		N24     Cs4 
	BYTE	W24
	BYTE	PEND
// 054   ----------------------------------------
	BYTE		N06     Fs3 
	BYTE	W12
	BYTE		N06   
	BYTE	W06
	BYTE		        Gn3 
	BYTE	W06
	BYTE		        An3 
	BYTE	W12
	BYTE		        Dn4 
	BYTE	W12
	BYTE		        An3 
	BYTE	W12
	BYTE		        Fs3 
	BYTE	W12
	BYTE		N12     Dn3 
	BYTE	W24
// 055   ----------------------------------------
kawaikutegomen_FINAL_4_055:
	BYTE	W12
	BYTE		N06     Dn3   v088
	BYTE		N06     Fs3 
	BYTE		N06     An3 
	BYTE	W24
	BYTE		        Dn3 
	BYTE		N06     Fs3 
	BYTE		N06     An3 
	BYTE	W24
	BYTE		        Cs3 
	BYTE		N06     En3 
	BYTE		N06     An3 
	BYTE	W24
	BYTE		        Cs3 
	BYTE		N06     En3 
	BYTE		N06     An3 
	BYTE	W12
	BYTE	PEND
// 056   ----------------------------------------
kawaikutegomen_FINAL_4_056:
	BYTE	W12
	BYTE		N06     Bn2   v088
	BYTE		N06     Dn3 
	BYTE		N06     Fs3 
	BYTE	W24
	BYTE		        Bn2 
	BYTE		N06     Dn3 
	BYTE		N06     Fs3 
	BYTE	W24
	BYTE		        An2 
	BYTE		N06     Cs3 
	BYTE		N06     Fs3 
	BYTE	W24
	BYTE		        An2 
	BYTE		N06     Cs3 
	BYTE		N06     Fs3 
	BYTE	W12
	BYTE	PEND
// 057   ----------------------------------------
kawaikutegomen_FINAL_4_057:
	BYTE	W12
	BYTE		N06     Bn2   v088
	BYTE		N06     Dn3 
	BYTE		N06     Gn3 
	BYTE	W24
	BYTE		        Bn2 
	BYTE		N06     Dn3 
	BYTE		N06     Gn3 
	BYTE	W24
	BYTE		        An2 
	BYTE		N06     Dn3 
	BYTE		N06     Fs3 
	BYTE	W24
	BYTE		        An2 
	BYTE		N06     Dn3 
	BYTE		N06     Fs3 
	BYTE	W12
	BYTE	PEND
// 058   ----------------------------------------
	BYTE	W12
	BYTE		        En3 
	BYTE		N06     Gn3 
	BYTE		N06     Bn3 
	BYTE	W24
	BYTE		        En3 
	BYTE		N06     Gn3 
	BYTE		N06     Bn3 
	BYTE	W24
	BYTE		        Cs3 
	BYTE		N06     En3 
	BYTE		N06     An3 
	BYTE	W24
	BYTE		        Cs3 
	BYTE		N06     En3 
	BYTE		N06     An3 
	BYTE	W12
// 059   ----------------------------------------
	BYTE	PATT
	 POIN2	kawaikutegomen_FINAL_4_055
// 060   ----------------------------------------
	BYTE	PATT
	 POIN2	kawaikutegomen_FINAL_4_056
// 061   ----------------------------------------
	BYTE	PATT
	 POIN2	kawaikutegomen_FINAL_4_057
// 062   ----------------------------------------
	BYTE	W12
	BYTE		N06     Bn2   v088
	BYTE		N06     Dn3 
	BYTE		N06     Gn3 
	BYTE	W24
	BYTE		        Bn2 
	BYTE		N06     Dn3 
	BYTE		N06     Gn3 
	BYTE	W12
	BYTE		N24     An2 
	BYTE		N24     Dn3 
	BYTE		N24     Fs3 
	BYTE	W48
// 063   ----------------------------------------
	BYTE	PATT
	 POIN2	kawaikutegomen_FINAL_4_017
// 064   ----------------------------------------
	BYTE	PATT
	 POIN2	kawaikutegomen_FINAL_4_018
// 065   ----------------------------------------
	BYTE	PATT
	 POIN2	kawaikutegomen_FINAL_4_019
// 066   ----------------------------------------
	BYTE	PATT
	 POIN2	kawaikutegomen_FINAL_4_020
// 067   ----------------------------------------
	BYTE	PATT
	 POIN2	kawaikutegomen_FINAL_4_021
// 068   ----------------------------------------
	BYTE	PATT
	 POIN2	kawaikutegomen_FINAL_4_022
// 069   ----------------------------------------
	BYTE	PATT
	 POIN2	kawaikutegomen_FINAL_4_023
// 070   ----------------------------------------
	BYTE	PATT
	 POIN2	kawaikutegomen_FINAL_4_024
// 071   ----------------------------------------
	BYTE	PATT
	 POIN2	kawaikutegomen_FINAL_4_025
// 072   ----------------------------------------
	BYTE	PATT
	 POIN2	kawaikutegomen_FINAL_4_026
// 073   ----------------------------------------
	BYTE	PATT
	 POIN2	kawaikutegomen_FINAL_4_027
// 074   ----------------------------------------
	BYTE		N54     An2   v088
	BYTE		N54     En3 
	BYTE	W96
// 075   ----------------------------------------
	BYTE	PATT
	 POIN2	kawaikutegomen_FINAL_4_029
// 076   ----------------------------------------
	BYTE	PATT
	 POIN2	kawaikutegomen_FINAL_4_030
// 077   ----------------------------------------
	BYTE	PATT
	 POIN2	kawaikutegomen_FINAL_4_031
// 078   ----------------------------------------
	BYTE	PATT
	 POIN2	kawaikutegomen_FINAL_4_032
// 079   ----------------------------------------
	BYTE	PATT
	 POIN2	kawaikutegomen_FINAL_4_033
// 080   ----------------------------------------
	BYTE	PATT
	 POIN2	kawaikutegomen_FINAL_4_034
// 081   ----------------------------------------
	BYTE	PATT
	 POIN2	kawaikutegomen_FINAL_4_035
// 082   ----------------------------------------
	BYTE		N96     Dn3   v088
	BYTE	W96
// 083   ----------------------------------------
	BYTE	PATT
	 POIN2	kawaikutegomen_FINAL_4_037
// 084   ----------------------------------------
	BYTE	PATT
	 POIN2	kawaikutegomen_FINAL_4_038
// 085   ----------------------------------------
	BYTE	PATT
	 POIN2	kawaikutegomen_FINAL_4_031
// 086   ----------------------------------------
	BYTE	PATT
	 POIN2	kawaikutegomen_FINAL_4_032
// 087   ----------------------------------------
	BYTE	PATT
	 POIN2	kawaikutegomen_FINAL_4_033
// 088   ----------------------------------------
	BYTE	PATT
	 POIN2	kawaikutegomen_FINAL_4_034
// 089   ----------------------------------------
	BYTE	PATT
	 POIN2	kawaikutegomen_FINAL_4_035
// 090   ----------------------------------------
	BYTE	PATT
	 POIN2	kawaikutegomen_FINAL_4_044
// 091   ----------------------------------------
	BYTE	W96
// 092   ----------------------------------------
	BYTE	W96
// 093   ----------------------------------------
	BYTE	W96
// 094   ----------------------------------------
	BYTE	W96
// 095   ----------------------------------------
	BYTE	W96
// 096   ----------------------------------------
	BYTE	W96
// 097   ----------------------------------------
	BYTE	W96
// 098   ----------------------------------------
	BYTE	W96
// 099   ----------------------------------------
	BYTE	W96
// 100   ----------------------------------------
	BYTE	W96
// 101   ----------------------------------------
	BYTE	W96
// 102   ----------------------------------------
	BYTE	W96
// 103   ----------------------------------------
	BYTE	W96
// 104   ----------------------------------------
	BYTE	W96
// 105   ----------------------------------------
	BYTE	W96
// 106   ----------------------------------------
	BYTE	W96
// 107   ----------------------------------------
	BYTE	W96
// 108   ----------------------------------------
	BYTE	W96
// 109   ----------------------------------------
	BYTE	PATT
	 POIN2	kawaikutegomen_FINAL_4_047
// 110   ----------------------------------------
	BYTE	W12
	BYTE		N12     Cs4   v088
	BYTE		N12     En4 
	BYTE	W24
	BYTE		        Bn3 
	BYTE		N12     Dn4 
	BYTE	W24
	BYTE		        Bn3 
	BYTE		N12     Dn4 
	BYTE	W24
	BYTE		        Dn3 
	BYTE	W12
// 111   ----------------------------------------
	BYTE		N24   
	BYTE	W12
	BYTE		        Gn3 
	BYTE	W12
	BYTE		        Bn3 
	BYTE	W12
	BYTE		N12     Gn3 
	BYTE	W12
	BYTE		N24     En3 
	BYTE	W12
	BYTE		        An3 
	BYTE	W12
	BYTE		        Cs4 
	BYTE	W12
	BYTE		N12     En4 
	BYTE	W12
// 112   ----------------------------------------
	BYTE		N06     Fn4 
	BYTE		N12     Fs4 
	BYTE	W12
	BYTE		        Dn4 
	BYTE	W12
	BYTE		        Bn3 
	BYTE	W12
	BYTE		        An3 
	BYTE	W12
	BYTE		        Fs3 
	BYTE	W12
	BYTE		        Gn3 
	BYTE	W12
	BYTE		        An3 
	BYTE	W12
	BYTE		        Dn4 
	BYTE	W12
// 113   ----------------------------------------
	BYTE	PATT
	 POIN2	kawaikutegomen_FINAL_4_033
// 114   ----------------------------------------
	BYTE	W12
	BYTE		N12     As3   v088
	BYTE		N12     En4 
	BYTE	W24
	BYTE		        Bn3 
	BYTE		N12     Dn4 
	BYTE	W24
	BYTE		        Bn3 
	BYTE		N12     Dn4 
	BYTE	W24
	BYTE		        Fs3 
	BYTE	W12
// 115   ----------------------------------------
	BYTE		N24     Dn3 
	BYTE	W12
	BYTE		        Gn3 
	BYTE	W12
	BYTE		        Bn3 
	BYTE	W12
	BYTE		N12     Gn3 
	BYTE	W12
	BYTE		N24     En3 
	BYTE	W12
	BYTE		        An3 
	BYTE	W12
	BYTE		        Cs4 
	BYTE	W12
	BYTE		N12     An3 
	BYTE	W12
// 116   ----------------------------------------
	BYTE		        Fs3 
	BYTE	W12
	BYTE		N06   
	BYTE	W06
	BYTE		        Gn3 
	BYTE	W06
	BYTE		        An3 
	BYTE	W12
	BYTE		        Dn4 
	BYTE	W12
	BYTE		        An3 
	BYTE	W12
	BYTE		        Fs3 
	BYTE	W12
	BYTE		N24     Dn3 
	BYTE	W24
// 117   ----------------------------------------
	BYTE	W96
// 118   ----------------------------------------
	BYTE	W96
// 119   ----------------------------------------
	BYTE	W96
// 120   ----------------------------------------
	BYTE	W96
// 121   ----------------------------------------
	BYTE	W96
// 122   ----------------------------------------
	BYTE	W96
// 123   ----------------------------------------
	BYTE	W96
	BYTE	W48
// 124   ----------------------------------------
	BYTE	W96
// 125   ----------------------------------------
	BYTE	W96
// 126   ----------------------------------------
	BYTE	PATT
	 POIN2	kawaikutegomen_FINAL_4_037
// 127   ----------------------------------------
	BYTE	PATT
	 POIN2	kawaikutegomen_FINAL_4_038
// 128   ----------------------------------------
	BYTE	PATT
	 POIN2	kawaikutegomen_FINAL_4_031
// 129   ----------------------------------------
	BYTE	PATT
	 POIN2	kawaikutegomen_FINAL_4_032
// 130   ----------------------------------------
	BYTE	PATT
	 POIN2	kawaikutegomen_FINAL_4_051
// 131   ----------------------------------------
	BYTE	PATT
	 POIN2	kawaikutegomen_FINAL_4_034
// 132   ----------------------------------------
	BYTE	PATT
	 POIN2	kawaikutegomen_FINAL_4_035
// 133   ----------------------------------------
	BYTE	PATT
	 POIN2	kawaikutegomen_FINAL_4_044
// 134   ----------------------------------------
	BYTE	W96
// 135   ----------------------------------------
	BYTE	PATT
	 POIN2	kawaikutegomen_FINAL_4_046
// 136   ----------------------------------------
	BYTE	PATT
	 POIN2	kawaikutegomen_FINAL_4_047
// 137   ----------------------------------------
	BYTE	PATT
	 POIN2	kawaikutegomen_FINAL_4_030
// 138   ----------------------------------------
	BYTE	PATT
	 POIN2	kawaikutegomen_FINAL_4_049
// 139   ----------------------------------------
	BYTE	PATT
	 POIN2	kawaikutegomen_FINAL_4_032
// 140   ----------------------------------------
	BYTE	PATT
	 POIN2	kawaikutegomen_FINAL_4_051
// 141   ----------------------------------------
	BYTE	PATT
	 POIN2	kawaikutegomen_FINAL_4_052
// 142   ----------------------------------------
	BYTE	PATT
	 POIN2	kawaikutegomen_FINAL_4_053
// 143   ----------------------------------------
	BYTE		N06     Fs3   v088
	BYTE		N06     Dn4 
	BYTE	W12
	BYTE		        An3   v052
	BYTE	W12
	BYTE		        Gn3   v088
	BYTE		N06     En4 
	BYTE	W12
	BYTE		        Cs4   v052
	BYTE	W12
	BYTE		N12     Fs3   v088
	BYTE		N12     Dn4 
	BYTE	W12
	BYTE	FINE

//**************** Track 5 (Midi-Chn.5) ****************//

kawaikutegomen_FINAL_5:
	BYTE	KEYSH   kawaikutegomen_FINAL_key+0
// 000   ----------------------------------------
	BYTE		MODT    0
	BYTE		LFOS    44
	BYTE	W28
	BYTE		VOICE   30
	BYTE		PAN     c_v-50
	BYTE		VOL     85*kawaikutegomen_FINAL_mvl/mxv
	BYTE		BENDR   64
	BYTE	W01
	BYTE		        64
	BYTE		        64
	BYTE	W01
	BYTE		VOL     21*kawaikutegomen_FINAL_mvl/mxv
	BYTE		MOD     0
	BYTE	MEMACC  mem_set  0x00  0
kawaikutegomen_FINAL_5_L0:
	BYTE		BENDR   12
	BYTE		BEND    c_v+0
	BYTE	W66
// 001   ----------------------------------------
	BYTE	W12
	BYTE		N12     An2   v088
	BYTE	W12
	BYTE		        Dn3 
	BYTE	W12
	BYTE		        An2 
	BYTE	W12
	BYTE		        En3 
	BYTE	W12
	BYTE		        Dn3 
	BYTE	W12
	BYTE		        An2 
	BYTE	W12
	BYTE		        Dn3 
	BYTE	W12
// 002   ----------------------------------------
	BYTE	W12
	BYTE		        En3 
	BYTE	W12
	BYTE		        Dn3 
	BYTE	W12
	BYTE		        An2 
	BYTE	W12
	BYTE		        Dn3 
	BYTE	W12
	BYTE		        En3 
	BYTE	W12
	BYTE		        Dn3 
	BYTE	W12
	BYTE		        An2 
	BYTE	W12
// 003   ----------------------------------------
	BYTE		        Gn2 
	BYTE	W12
	BYTE		        An2 
	BYTE	W12
	BYTE		        Dn3 
	BYTE	W12
	BYTE		        An2 
	BYTE	W12
	BYTE		        Gn2 
	BYTE	W12
	BYTE		        An2 
	BYTE	W12
	BYTE		        Dn3 
	BYTE	W12
	BYTE		        An2 
	BYTE	W12
// 004   ----------------------------------------
	BYTE		        Gn2 
	BYTE	W12
	BYTE		        An2 
	BYTE	W12
	BYTE		        Dn3 
	BYTE	W12
	BYTE		        An2 
	BYTE	W12
	BYTE		        Dn3 
	BYTE	W12
	BYTE		        En3 
	BYTE	W12
	BYTE		        Dn3 
	BYTE	W12
	BYTE		        An2 
	BYTE	W12
// 005   ----------------------------------------
	BYTE	W24
	BYTE		        Dn3 
	BYTE	W12
	BYTE		        An2 
	BYTE	W36
	BYTE		        Dn3 
	BYTE	W12
	BYTE		        An2 
	BYTE	W12
// 006   ----------------------------------------
	BYTE	W12
	BYTE		        As2 
	BYTE	W12
	BYTE		        Cs3 
	BYTE	W12
	BYTE		        En3 
	BYTE	W12
	BYTE		        Dn3 
	BYTE	W12
	BYTE		        En3 
	BYTE	W12
	BYTE		        Dn3 
	BYTE	W12
	BYTE		        An2 
	BYTE	W12
// 007   ----------------------------------------
	BYTE	W96
// 008   ----------------------------------------
	BYTE		        Dn3 
	BYTE	W24
	BYTE		N12   
	BYTE	W24
	BYTE		N06     Fs3 
	BYTE	W06
	BYTE		        En3 
	BYTE	W06
	BYTE		        Dn3 
	BYTE	W06
	BYTE		        Cs3 
	BYTE	W06
	BYTE		N12     Dn3 
	BYTE	W24
// 009   ----------------------------------------
	BYTE		N06     Dn2 
	BYTE	W12
	BYTE		N06   
	BYTE	W12
	BYTE		N06   
	BYTE	W12
	BYTE		N06   
	BYTE	W12
	BYTE		        An1 
	BYTE	W12
	BYTE		N06   
	BYTE	W12
	BYTE		N06   
	BYTE	W12
	BYTE		N06   
	BYTE	W12
// 010   ----------------------------------------
	BYTE		        Bn1 
	BYTE	W12
	BYTE		N06   
	BYTE	W12
	BYTE		N06   
	BYTE	W12
	BYTE		N06   
	BYTE	W12
	BYTE		        Fs1 
	BYTE	W12
	BYTE		N06   
	BYTE	W12
	BYTE		N06   
	BYTE	W12
	BYTE		N06   
	BYTE	W12
// 011   ----------------------------------------
kawaikutegomen_FINAL_5_011:
	BYTE		N06     Gn1   v088
	BYTE	W12
	BYTE		N06   
	BYTE	W12
	BYTE		N06   
	BYTE	W12
	BYTE		N06   
	BYTE	W12
	BYTE		        Fs1 
	BYTE	W12
	BYTE		N06   
	BYTE	W12
	BYTE		N06   
	BYTE	W12
	BYTE		N06   
	BYTE	W12
	BYTE	PEND
// 012   ----------------------------------------
	BYTE		        En1 
	BYTE	W12
	BYTE		N06   
	BYTE	W12
	BYTE		N06   
	BYTE	W12
	BYTE		N06   
	BYTE	W12
	BYTE		        An1 
	BYTE	W12
	BYTE		N06   
	BYTE	W12
	BYTE		N06   
	BYTE	W12
	BYTE		N06   
	BYTE	W12
// 013   ----------------------------------------
	BYTE		        Dn2 
	BYTE	W12
	BYTE		N06   
	BYTE	W12
	BYTE		N06   
	BYTE	W12
	BYTE		N06   
	BYTE	W12
	BYTE		        Cs2 
	BYTE	W12
	BYTE		N06   
	BYTE	W12
	BYTE		N06   
	BYTE	W12
	BYTE		N06   
	BYTE	W12
// 014   ----------------------------------------
	BYTE		        Bn1 
	BYTE	W12
	BYTE		N06   
	BYTE	W12
	BYTE		N06   
	BYTE	W12
	BYTE		N06   
	BYTE	W12
	BYTE		        An1 
	BYTE	W12
	BYTE		N06   
	BYTE	W12
	BYTE		N06   
	BYTE	W12
	BYTE		N06   
	BYTE	W12
// 015   ----------------------------------------
	BYTE	PATT
	 POIN2	kawaikutegomen_FINAL_5_011
// 016   ----------------------------------------
	BYTE		N06     En1   v088
	BYTE	W12
	BYTE		N06   
	BYTE	W12
	BYTE		        An1 
	BYTE	W12
	BYTE		N06   
	BYTE	W12
	BYTE		        Dn2 
	BYTE	W12
	BYTE		        An1 
	BYTE	W12
	BYTE		        Dn2 
	BYTE	W24
// 017   ----------------------------------------
kawaikutegomen_FINAL_5_017:
	BYTE		N48     Gn1   v088
	BYTE		N48     Dn2 
	BYTE		N48     Gn2 
	BYTE		N48     Dn3 
	BYTE	W48
	BYTE		        An1 
	BYTE		N48     En2 
	BYTE		N48     An2 
	BYTE	W48
	BYTE	PEND
// 018   ----------------------------------------
kawaikutegomen_FINAL_5_018:
	BYTE		N96     Dn2   v088
	BYTE		N96     An2 
	BYTE		N96     Dn3 
	BYTE		N96     Fs3 
	BYTE	W96
	BYTE	PEND
// 019   ----------------------------------------
	BYTE	PATT
	 POIN2	kawaikutegomen_FINAL_5_017
// 020   ----------------------------------------
	BYTE	PATT
	 POIN2	kawaikutegomen_FINAL_5_018
// 021   ----------------------------------------
kawaikutegomen_FINAL_5_021:
	BYTE		N48     Gn1   v088
	BYTE		N48     Dn2 
	BYTE		N48     Gn2 
	BYTE		N48     Dn3 
	BYTE	W48
	BYTE		        An1 
	BYTE		N48     En2 
	BYTE		N48     An2 
	BYTE		N48     Cs3 
	BYTE	W48
	BYTE	PEND
// 022   ----------------------------------------
	BYTE		        As1 
	BYTE		N48     Fs2 
	BYTE		N48     Cs3 
	BYTE		N48     En3 
	BYTE	W48
	BYTE		        Bn1 
	BYTE		N48     Fs2 
	BYTE		N48     Bn2 
	BYTE		N48     Dn3 
	BYTE		N48     Fs3 
	BYTE	W48
// 023   ----------------------------------------
kawaikutegomen_FINAL_5_023:
	BYTE		TIE     Gn1   v088
	BYTE		TIE     Dn2 
	BYTE		TIE     Gn2 
	BYTE		TIE     Bn2 
	BYTE		N96     Dn3 
	BYTE	W96
	BYTE	PEND
// 024   ----------------------------------------
kawaikutegomen_FINAL_5_024:
	BYTE		N36     En3   v088
	BYTE	W36
	BYTE		N60     Dn3 
	BYTE	W60
	BYTE	PEND
	BYTE		EOT     Gn1 
	BYTE		        Dn2 
	BYTE		        Gn2 
	BYTE		        Bn2 
// 025   ----------------------------------------
kawaikutegomen_FINAL_5_025:
	BYTE		N24     An1   v088
	BYTE		N24     En2 
	BYTE		TIE     An2 
	BYTE		TIE     Cs3 
	BYTE	W24
	BYTE		N06     An1 
	BYTE		N06     En2 
	BYTE	W12
	BYTE		        An1 
	BYTE		N06     En2 
	BYTE	W12
	BYTE		        An1 
	BYTE		N06     En2 
	BYTE	W12
	BYTE		        An1 
	BYTE		N06     En2 
	BYTE	W12
	BYTE		        An1 
	BYTE		N06     En2 
	BYTE	W12
	BYTE		        An1 
	BYTE		N06     En2 
	BYTE	W12
	BYTE	PEND
// 026   ----------------------------------------
kawaikutegomen_FINAL_5_026:
	BYTE		N06     An1   v088
	BYTE		N06     En2 
	BYTE	W12
	BYTE		        An1 
	BYTE		N06     En2 
	BYTE	W12
	BYTE		        An1 
	BYTE		N06     En2 
	BYTE	W12
	BYTE		        An1 
	BYTE		N06     En2 
	BYTE	W12
	BYTE		        An1 
	BYTE		N06     En2 
	BYTE	W12
	BYTE		        An1 
	BYTE		N06     En2 
	BYTE	W12
	BYTE		        An1 
	BYTE		N06     En2 
	BYTE	W12
	BYTE		        An1 
	BYTE		N06     En2 
	BYTE	W12
	BYTE	PEND
	BYTE		EOT     An2 
	BYTE		        Cs3 
// 027   ----------------------------------------
kawaikutegomen_FINAL_5_027:
	BYTE		N96     As1   v088
	BYTE		N96     Fn2 
	BYTE		N96     As2 
	BYTE		N96     Dn3 
	BYTE		N96     Fn3 
	BYTE	W96
	BYTE	PEND
// 028   ----------------------------------------
	BYTE		N72     An2 
	BYTE		N72     Cs3 
	BYTE		N72     En3 
	BYTE	W06
	BYTE		        En2 
	BYTE	W90
// 029   ----------------------------------------
kawaikutegomen_FINAL_5_029:
	BYTE	W12
	BYTE		N12     Dn3   v088
	BYTE		N12     Gn3 
	BYTE	W24
	BYTE		        Dn3 
	BYTE		N12     Gn3 
	BYTE	W24
	BYTE		        En3 
	BYTE		N12     An3 
	BYTE	W24
	BYTE		        En3 
	BYTE		N12     An3 
	BYTE	W12
	BYTE	PEND
// 030   ----------------------------------------
kawaikutegomen_FINAL_5_030:
	BYTE	W12
	BYTE		N12     An3   v088
	BYTE		N12     Cs4 
	BYTE	W24
	BYTE		        An3 
	BYTE		N12     Cs4 
	BYTE	W24
	BYTE		        An3 
	BYTE		N12     Dn4 
	BYTE	W24
	BYTE		        An3 
	BYTE		N12     Dn4 
	BYTE	W12
	BYTE	PEND
// 031   ----------------------------------------
	BYTE	PATT
	 POIN2	kawaikutegomen_FINAL_5_029
// 032   ----------------------------------------
kawaikutegomen_FINAL_5_032:
	BYTE	W12
	BYTE		N12     An3   v088
	BYTE		N12     Dn4 
	BYTE	W24
	BYTE		        An3 
	BYTE		N12     Dn4 
	BYTE	W24
	BYTE		        An3 
	BYTE		N12     Dn4 
	BYTE	W24
	BYTE		        An3 
	BYTE		N12     Dn4 
	BYTE	W12
	BYTE	PEND
// 033   ----------------------------------------
	BYTE	PATT
	 POIN2	kawaikutegomen_FINAL_5_029
// 034   ----------------------------------------
kawaikutegomen_FINAL_5_034:
	BYTE	W12
	BYTE		N12     As3   v088
	BYTE		N12     Cs4 
	BYTE	W24
	BYTE		        As3 
	BYTE		N12     Cs4 
	BYTE	W24
	BYTE		        Bn3 
	BYTE		N12     Dn4 
	BYTE	W24
	BYTE		        Bn3 
	BYTE		N12     Dn4 
	BYTE	W12
	BYTE	PEND
// 035   ----------------------------------------
	BYTE	PATT
	 POIN2	kawaikutegomen_FINAL_5_029
// 036   ----------------------------------------
kawaikutegomen_FINAL_5_036:
	BYTE	W12
	BYTE		N12     Dn3   v088
	BYTE		N12     An3 
	BYTE	W24
	BYTE		        Dn3 
	BYTE		N12     An3 
	BYTE	W24
	BYTE		        Dn3 
	BYTE		N12     An3 
	BYTE	W24
	BYTE		        Dn3 
	BYTE		N12     An3 
	BYTE	W12
	BYTE	PEND
// 037   ----------------------------------------
	BYTE	PATT
	 POIN2	kawaikutegomen_FINAL_5_029
// 038   ----------------------------------------
	BYTE	PATT
	 POIN2	kawaikutegomen_FINAL_5_030
// 039   ----------------------------------------
	BYTE	PATT
	 POIN2	kawaikutegomen_FINAL_5_029
// 040   ----------------------------------------
	BYTE	PATT
	 POIN2	kawaikutegomen_FINAL_5_032
// 041   ----------------------------------------
	BYTE	PATT
	 POIN2	kawaikutegomen_FINAL_5_029
// 042   ----------------------------------------
	BYTE	PATT
	 POIN2	kawaikutegomen_FINAL_5_034
// 043   ----------------------------------------
	BYTE	PATT
	 POIN2	kawaikutegomen_FINAL_5_029
// 044   ----------------------------------------
kawaikutegomen_FINAL_5_044:
	BYTE	W12
	BYTE		N12     Dn3   v088
	BYTE		N12     An3 
	BYTE	W24
	BYTE		        Dn3 
	BYTE		N12     An3 
	BYTE	W24
	BYTE		N12   
	BYTE		N12     Dn4 
	BYTE	W24
	BYTE		        An3 
	BYTE		N12     Dn4 
	BYTE	W12
	BYTE	PEND
// 045   ----------------------------------------
	BYTE	W96
// 046   ----------------------------------------
	BYTE	W96
// 047   ----------------------------------------
kawaikutegomen_FINAL_5_047:
	BYTE	W12
	BYTE		N12     Bn2   v088
	BYTE		N12     Dn3 
	BYTE		N12     Gn3 
	BYTE	W24
	BYTE		        Bn2 
	BYTE		N12     Dn3 
	BYTE		N12     Gn3 
	BYTE	W24
	BYTE		        Cs3 
	BYTE		N12     En3 
	BYTE		N12     An3 
	BYTE	W24
	BYTE		        Cs3 
	BYTE		N12     En3 
	BYTE		N12     An3 
	BYTE	W12
	BYTE	PEND
// 048   ----------------------------------------
kawaikutegomen_FINAL_5_048:
	BYTE	W12
	BYTE		N12     As2   v088
	BYTE		N12     Cs3 
	BYTE		N12     Fs3 
	BYTE	W24
	BYTE		        As2 
	BYTE		N12     Cs3 
	BYTE		N12     Fs3 
	BYTE	W24
	BYTE		        Bn2 
	BYTE		N12     Dn3 
	BYTE		N12     Fs3 
	BYTE	W24
	BYTE		        Bn2 
	BYTE		N12     Dn3 
	BYTE		N12     Fs3 
	BYTE	W12
	BYTE	PEND
// 049   ----------------------------------------
	BYTE	PATT
	 POIN2	kawaikutegomen_FINAL_5_047
// 050   ----------------------------------------
kawaikutegomen_FINAL_5_050:
	BYTE	W12
	BYTE		N12     An2   v088
	BYTE		N12     Dn3 
	BYTE		N12     Fs3 
	BYTE	W24
	BYTE		        An2 
	BYTE		N12     Dn3 
	BYTE		N12     Fs3 
	BYTE	W24
	BYTE		        An2 
	BYTE		N12     Dn3 
	BYTE		N12     Fs3 
	BYTE	W24
	BYTE		        An2 
	BYTE		N12     Dn3 
	BYTE		N12     Fs3 
	BYTE	W12
	BYTE	PEND
// 051   ----------------------------------------
	BYTE	PATT
	 POIN2	kawaikutegomen_FINAL_5_047
// 052   ----------------------------------------
	BYTE	PATT
	 POIN2	kawaikutegomen_FINAL_5_048
// 053   ----------------------------------------
	BYTE	PATT
	 POIN2	kawaikutegomen_FINAL_5_047
// 054   ----------------------------------------
	BYTE	PATT
	 POIN2	kawaikutegomen_FINAL_5_050
// 055   ----------------------------------------
	BYTE		N54     Dn3   v088
	BYTE		N54     An3 
	BYTE		N54     Dn4 
	BYTE	W96
// 056   ----------------------------------------
	BYTE	W96
// 057   ----------------------------------------
	BYTE	W96
// 058   ----------------------------------------
	BYTE	W96
// 059   ----------------------------------------
	BYTE	W96
// 060   ----------------------------------------
	BYTE	W96
// 061   ----------------------------------------
	BYTE	W96
// 062   ----------------------------------------
	BYTE	W96
// 063   ----------------------------------------
	BYTE	PATT
	 POIN2	kawaikutegomen_FINAL_5_017
// 064   ----------------------------------------
	BYTE		N96     Dn2   v088
	BYTE		N96     An2 
	BYTE		N24     Dn3 
	BYTE	W24
	BYTE		        En3 
	BYTE	W24
	BYTE		N48     Dn3 
	BYTE	W48
// 065   ----------------------------------------
	BYTE		        Gn1 
	BYTE		N48     Dn2 
	BYTE		N48     Gn2 
	BYTE		N48     En3 
	BYTE	W48
	BYTE		        An1 
	BYTE		N48     En2 
	BYTE		N48     An2 
	BYTE		N48     Cs3 
	BYTE	W48
// 066   ----------------------------------------
	BYTE		N96     Dn2 
	BYTE		N96     An2 
	BYTE		N96     Cs3 
	BYTE		N96     En3 
	BYTE	W96
// 067   ----------------------------------------
	BYTE	PATT
	 POIN2	kawaikutegomen_FINAL_5_021
// 068   ----------------------------------------
	BYTE		N48     As1   v088
	BYTE		N48     Fs2 
	BYTE		N48     Cs3 
	BYTE		N48     En3 
	BYTE	W48
	BYTE		        Bn1 
	BYTE		N48     Fs2 
	BYTE		N48     Bn2 
	BYTE		N48     Dn3 
	BYTE	W48
// 069   ----------------------------------------
	BYTE	PATT
	 POIN2	kawaikutegomen_FINAL_5_023
// 070   ----------------------------------------
	BYTE	PATT
	 POIN2	kawaikutegomen_FINAL_5_024
	BYTE		EOT     Gn1 
	BYTE		        Dn2 
	BYTE		        Gn2 
	BYTE		        Bn2 
// 071   ----------------------------------------
	BYTE	PATT
	 POIN2	kawaikutegomen_FINAL_5_025
// 072   ----------------------------------------
	BYTE	PATT
	 POIN2	kawaikutegomen_FINAL_5_026
	BYTE		EOT     An2 
	BYTE		        Cs3 
// 073   ----------------------------------------
	BYTE	PATT
	 POIN2	kawaikutegomen_FINAL_5_027
// 074   ----------------------------------------
	BYTE		N42     En2   v088
	BYTE		N42     An2 
	BYTE		N42     Cs3 
	BYTE		N42     En3 
	BYTE	W42
	BYTE		N06     En2 
	BYTE		N06     An2 
	BYTE		N06     Cs3 
	BYTE		N06     En3 
	BYTE	W54
// 075   ----------------------------------------
	BYTE	PATT
	 POIN2	kawaikutegomen_FINAL_5_029
// 076   ----------------------------------------
	BYTE	PATT
	 POIN2	kawaikutegomen_FINAL_5_030
// 077   ----------------------------------------
	BYTE	PATT
	 POIN2	kawaikutegomen_FINAL_5_029
// 078   ----------------------------------------
	BYTE	PATT
	 POIN2	kawaikutegomen_FINAL_5_032
// 079   ----------------------------------------
	BYTE	PATT
	 POIN2	kawaikutegomen_FINAL_5_029
// 080   ----------------------------------------
	BYTE	PATT
	 POIN2	kawaikutegomen_FINAL_5_034
// 081   ----------------------------------------
	BYTE	PATT
	 POIN2	kawaikutegomen_FINAL_5_029
// 082   ----------------------------------------
	BYTE	PATT
	 POIN2	kawaikutegomen_FINAL_5_036
// 083   ----------------------------------------
	BYTE	PATT
	 POIN2	kawaikutegomen_FINAL_5_029
// 084   ----------------------------------------
	BYTE	PATT
	 POIN2	kawaikutegomen_FINAL_5_030
// 085   ----------------------------------------
	BYTE	PATT
	 POIN2	kawaikutegomen_FINAL_5_029
// 086   ----------------------------------------
	BYTE	PATT
	 POIN2	kawaikutegomen_FINAL_5_032
// 087   ----------------------------------------
	BYTE	PATT
	 POIN2	kawaikutegomen_FINAL_5_029
// 088   ----------------------------------------
	BYTE	PATT
	 POIN2	kawaikutegomen_FINAL_5_034
// 089   ----------------------------------------
	BYTE	PATT
	 POIN2	kawaikutegomen_FINAL_5_029
// 090   ----------------------------------------
	BYTE	PATT
	 POIN2	kawaikutegomen_FINAL_5_044
// 091   ----------------------------------------
	BYTE	W96
// 092   ----------------------------------------
kawaikutegomen_FINAL_5_092:
	BYTE		N12     Dn3   v088
	BYTE	W24
	BYTE		        En3 
	BYTE	W24
	BYTE		        Dn3 
	BYTE	W48
	BYTE	PEND
// 093   ----------------------------------------
	BYTE	W96
// 094   ----------------------------------------
	BYTE	W96
// 095   ----------------------------------------
	BYTE	W96
// 096   ----------------------------------------
	BYTE	W96
// 097   ----------------------------------------
	BYTE	W96
// 098   ----------------------------------------
	BYTE	W96
// 099   ----------------------------------------
	BYTE	W96
// 100   ----------------------------------------
	BYTE	W96
// 101   ----------------------------------------
	BYTE	W96
// 102   ----------------------------------------
	BYTE	W96
// 103   ----------------------------------------
	BYTE	W96
// 104   ----------------------------------------
	BYTE	W96
// 105   ----------------------------------------
	BYTE	W96
// 106   ----------------------------------------
	BYTE	W96
// 107   ----------------------------------------
	BYTE	W96
// 108   ----------------------------------------
	BYTE	W96
// 109   ----------------------------------------
	BYTE	W12
	BYTE		        Bn2 
	BYTE		N12     Dn3 
	BYTE		N12     Gn3 
	BYTE	W24
	BYTE		        Bn2 
	BYTE		N12     Dn3 
	BYTE		N12     Gn3 
	BYTE	W24
	BYTE		        An2 
	BYTE		N12     Cs3 
	BYTE		N12     En3 
	BYTE	W24
	BYTE		        An2 
	BYTE		N12     Cs3 
	BYTE		N12     En3 
	BYTE	W12
// 110   ----------------------------------------
	BYTE	W12
	BYTE		        An2 
	BYTE		N12     Cs3 
	BYTE		N12     Fs3 
	BYTE	W24
	BYTE		        An2 
	BYTE		N12     Cs3 
	BYTE		N12     Fs3 
	BYTE	W24
	BYTE		        Bn2 
	BYTE		N12     Dn3 
	BYTE		N12     Fs3 
	BYTE	W24
	BYTE		        Bn2 
	BYTE		N12     Dn3 
	BYTE		N12     Fs3 
	BYTE	W12
// 111   ----------------------------------------
	BYTE	W12
	BYTE		        Bn2 
	BYTE		N12     Dn3 
	BYTE		N12     Fs3 
	BYTE	W24
	BYTE		        Bn2 
	BYTE		N12     Dn3 
	BYTE		N12     Fs3 
	BYTE	W24
	BYTE		        An2 
	BYTE		N12     Cs3 
	BYTE		N12     En3 
	BYTE	W24
	BYTE		        An2 
	BYTE		N12     Cs3 
	BYTE		N12     En3 
	BYTE	W12
// 112   ----------------------------------------
	BYTE	PATT
	 POIN2	kawaikutegomen_FINAL_5_050
// 113   ----------------------------------------
	BYTE	W12
	BYTE		N12     Bn2   v088
	BYTE		N12     Dn3 
	BYTE		N12     Gn3 
	BYTE	W24
	BYTE		        Bn2 
	BYTE		N12     Dn3 
	BYTE		N12     Gn3 
	BYTE	W24
	BYTE		        En3 
	BYTE		N12     An3 
	BYTE	W24
	BYTE		        En3 
	BYTE		N12     An3 
	BYTE	W12
// 114   ----------------------------------------
	BYTE	PATT
	 POIN2	kawaikutegomen_FINAL_5_048
// 115   ----------------------------------------
	BYTE	PATT
	 POIN2	kawaikutegomen_FINAL_5_047
// 116   ----------------------------------------
	BYTE	W12
	BYTE		N12     Dn3   v088
	BYTE		N12     Fs3 
	BYTE		N12     An3 
	BYTE	W24
	BYTE		        Dn3 
	BYTE		N12     Fs3 
	BYTE		N12     An3 
	BYTE	W24
	BYTE		        Dn3 
	BYTE		N12     Fs3 
	BYTE		N12     An3 
	BYTE	W24
	BYTE		        Dn3 
	BYTE		N12     Fs3 
	BYTE		N12     An3 
	BYTE	W12
// 117   ----------------------------------------
	BYTE	W96
// 118   ----------------------------------------
	BYTE	W96
// 119   ----------------------------------------
	BYTE	W96
// 120   ----------------------------------------
	BYTE	W96
// 121   ----------------------------------------
	BYTE	W96
// 122   ----------------------------------------
	BYTE	W96
// 123   ----------------------------------------
	BYTE	W96
	BYTE	W48
// 124   ----------------------------------------
	BYTE	W96
// 125   ----------------------------------------
	BYTE	W96
// 126   ----------------------------------------
	BYTE	PATT
	 POIN2	kawaikutegomen_FINAL_5_029
// 127   ----------------------------------------
	BYTE	PATT
	 POIN2	kawaikutegomen_FINAL_5_030
// 128   ----------------------------------------
	BYTE	PATT
	 POIN2	kawaikutegomen_FINAL_5_029
// 129   ----------------------------------------
	BYTE	PATT
	 POIN2	kawaikutegomen_FINAL_5_032
// 130   ----------------------------------------
	BYTE	PATT
	 POIN2	kawaikutegomen_FINAL_5_029
// 131   ----------------------------------------
	BYTE	PATT
	 POIN2	kawaikutegomen_FINAL_5_034
// 132   ----------------------------------------
	BYTE	PATT
	 POIN2	kawaikutegomen_FINAL_5_029
// 133   ----------------------------------------
	BYTE	PATT
	 POIN2	kawaikutegomen_FINAL_5_044
// 134   ----------------------------------------
	BYTE	W96
// 135   ----------------------------------------
	BYTE	PATT
	 POIN2	kawaikutegomen_FINAL_5_092
// 136   ----------------------------------------
	BYTE	PATT
	 POIN2	kawaikutegomen_FINAL_5_029
// 137   ----------------------------------------
kawaikutegomen_FINAL_5_137:
	BYTE	W12
	BYTE		N12     Cs3   v088
	BYTE		N12     Fs3 
	BYTE	W24
	BYTE		        Cs3 
	BYTE		N12     Fs3 
	BYTE	W24
	BYTE		        Bn2 
	BYTE		N12     Fs3 
	BYTE	W24
	BYTE		        Bn2 
	BYTE		N12     Fs3 
	BYTE	W12
	BYTE	PEND
// 138   ----------------------------------------
	BYTE	PATT
	 POIN2	kawaikutegomen_FINAL_5_029
// 139   ----------------------------------------
	BYTE	W12
	BYTE		N12     Dn3   v088
	BYTE		N12     Fs3 
	BYTE	W24
	BYTE		        Dn3 
	BYTE		N12     Fs3 
	BYTE	W24
	BYTE		        Dn3 
	BYTE		N12     Fs3 
	BYTE	W24
	BYTE		        Dn3 
	BYTE		N12     Fs3 
	BYTE	W12
// 140   ----------------------------------------
	BYTE	PATT
	 POIN2	kawaikutegomen_FINAL_5_029
// 141   ----------------------------------------
	BYTE	PATT
	 POIN2	kawaikutegomen_FINAL_5_137
// 142   ----------------------------------------
	BYTE	PATT
	 POIN2	kawaikutegomen_FINAL_5_029
// 143   ----------------------------------------
	BYTE		N18     Dn3   v088
	BYTE	W24
	BYTE		        An2 
	BYTE	W24
	BYTE		        Dn3 
	BYTE	W18
	BYTE	FINE

//**************** Track 6 (Midi-Chn.6) ****************//

kawaikutegomen_FINAL_6:
	BYTE	KEYSH   kawaikutegomen_FINAL_key+0
// 000   ----------------------------------------
	BYTE		MODT    0
	BYTE		LFOS    44
	BYTE	W28
	BYTE		VOICE   46
	BYTE		PAN     c_v+0
	BYTE		VOL     85*kawaikutegomen_FINAL_mvl/mxv
	BYTE		BENDR   64
	BYTE	W01
	BYTE		        64
	BYTE		        64
	BYTE	W01
	BYTE		VOL     85*kawaikutegomen_FINAL_mvl/mxv
	BYTE		MOD     0
	BYTE	MEMACC  mem_set  0x00  0
kawaikutegomen_FINAL_6_L0:
	BYTE		BENDR   12
	BYTE		BEND    c_v+0
	BYTE	W66
// 001   ----------------------------------------
	BYTE	W96
// 002   ----------------------------------------
	BYTE	W96
// 003   ----------------------------------------
	BYTE	W96
// 004   ----------------------------------------
	BYTE	W96
// 005   ----------------------------------------
	BYTE	W96
// 006   ----------------------------------------
	BYTE	W96
// 007   ----------------------------------------
	BYTE	W96
// 008   ----------------------------------------
	BYTE	W96
// 009   ----------------------------------------
	BYTE	W96
// 010   ----------------------------------------
	BYTE	W96
// 011   ----------------------------------------
	BYTE	W96
// 012   ----------------------------------------
	BYTE	W96
// 013   ----------------------------------------
	BYTE	W96
// 014   ----------------------------------------
	BYTE	W96
// 015   ----------------------------------------
kawaikutegomen_FINAL_6_015:
	BYTE	W84
	BYTE	W10
	BYTE	W02
	BYTE	PEND
// 016   ----------------------------------------
kawaikutegomen_FINAL_6_016:
	BYTE	W01
	BYTE		N01     Dn6   v032
	BYTE	W02
	BYTE		        Cs6 
	BYTE	W01
	BYTE		        Cn6 
	BYTE	W02
	BYTE		        Bn5 
	BYTE	W01
	BYTE		        As5 
	BYTE	W02
	BYTE		        An5 
	BYTE	W01
	BYTE		        Gs5 
	BYTE	W02
	BYTE		        Gn5 
	BYTE	W01
	BYTE		        Fs5 
	BYTE	W02
	BYTE		        Fn5 
	BYTE	W01
	BYTE		        En5 
	BYTE	W02
	BYTE		        Ds5 
	BYTE	W01
	BYTE		        Dn5 
	BYTE	W02
	BYTE		        Cs5 
	BYTE	W01
	BYTE		        Cn5 
	BYTE	W02
	BYTE		        Bn4 
	BYTE	W01
	BYTE		        As4 
	BYTE	W02
	BYTE		        An4 
	BYTE	W01
	BYTE		        Gs4 
	BYTE	W02
	BYTE		        Gn4 
	BYTE	W01
	BYTE		        Fs4 
	BYTE	W02
	BYTE		        Fn4 
	BYTE	W01
	BYTE		        En4 
	BYTE	W02
	BYTE		        Ds4 
	BYTE	W01
	BYTE		        Dn4 
	BYTE	W02
	BYTE		        Cs4 
	BYTE	W01
	BYTE		        Cn4 
	BYTE	W02
	BYTE		        Bn3 
	BYTE	W01
	BYTE		        As3 
	BYTE	W02
	BYTE		        An3 
	BYTE	W01
	BYTE		        Fn3 
	BYTE	W02
	BYTE		        Ds3 
	BYTE	W01
	BYTE		        En3 
	BYTE	W02
	BYTE		        Fn3 
	BYTE	W01
	BYTE		        Fs3 
	BYTE	W02
	BYTE		        Gn3 
	BYTE	W01
	BYTE		        Gs3 
	BYTE	W02
	BYTE		        An3 
	BYTE	W01
	BYTE		        As3 
	BYTE	W02
	BYTE		        Bn3 
	BYTE	W01
	BYTE		        Cn4 
	BYTE	W02
	BYTE		        Cs4 
	BYTE	W01
	BYTE		        Dn4 
	BYTE	W02
	BYTE		        Ds4 
	BYTE	W01
	BYTE		        En4 
	BYTE	W02
	BYTE		        Fn4 
	BYTE	W01
	BYTE		        Fs4 
	BYTE	W02
	BYTE		        Gn4 
	BYTE	W01
	BYTE		        Gs4 
	BYTE	W02
	BYTE		        An4 
	BYTE	W01
	BYTE		        As4 
	BYTE	W02
	BYTE		        Bn4 
	BYTE	W01
	BYTE		        Cn5 
	BYTE	W02
	BYTE		        Cs5 
	BYTE	W01
	BYTE		        Dn5 
	BYTE	W02
	BYTE		        Ds5 
	BYTE	W01
	BYTE		        En5 
	BYTE	W02
	BYTE		        Fn5 
	BYTE	W01
	BYTE		        Fs5 
	BYTE	W02
	BYTE		        Gn5 
	BYTE	W01
	BYTE		        Gs5 
	BYTE	W05
	BYTE	PEND
// 017   ----------------------------------------
	BYTE	W06
	BYTE	W90
// 018   ----------------------------------------
	BYTE	W96
// 019   ----------------------------------------
	BYTE	W96
// 020   ----------------------------------------
	BYTE	W96
// 021   ----------------------------------------
	BYTE	W96
// 022   ----------------------------------------
	BYTE	W96
// 023   ----------------------------------------
	BYTE	W96
// 024   ----------------------------------------
	BYTE	W96
// 025   ----------------------------------------
	BYTE	W96
// 026   ----------------------------------------
	BYTE	W96
// 027   ----------------------------------------
	BYTE	W96
// 028   ----------------------------------------
	BYTE	W96
// 029   ----------------------------------------
	BYTE	W96
// 030   ----------------------------------------
	BYTE	W96
// 031   ----------------------------------------
	BYTE	W96
// 032   ----------------------------------------
	BYTE	W96
// 033   ----------------------------------------
	BYTE	W96
// 034   ----------------------------------------
	BYTE	W96
// 035   ----------------------------------------
	BYTE	W96
// 036   ----------------------------------------
	BYTE	W96
// 037   ----------------------------------------
	BYTE	W96
// 038   ----------------------------------------
	BYTE	W96
// 039   ----------------------------------------
	BYTE	W96
// 040   ----------------------------------------
	BYTE	W96
// 041   ----------------------------------------
	BYTE	W96
// 042   ----------------------------------------
	BYTE	W96
// 043   ----------------------------------------
	BYTE	W96
// 044   ----------------------------------------
	BYTE	W96
// 045   ----------------------------------------
	BYTE	W96
// 046   ----------------------------------------
	BYTE	W96
// 047   ----------------------------------------
	BYTE	W96
// 048   ----------------------------------------
	BYTE	W96
// 049   ----------------------------------------
	BYTE	W96
// 050   ----------------------------------------
	BYTE	W96
// 051   ----------------------------------------
	BYTE	W96
// 052   ----------------------------------------
	BYTE	W96
// 053   ----------------------------------------
	BYTE	W96
// 054   ----------------------------------------
	BYTE	W96
// 055   ----------------------------------------
	BYTE	W96
// 056   ----------------------------------------
	BYTE	W96
// 057   ----------------------------------------
	BYTE	W96
// 058   ----------------------------------------
	BYTE	W96
// 059   ----------------------------------------
	BYTE	W96
// 060   ----------------------------------------
	BYTE	W96
// 061   ----------------------------------------
	BYTE	PATT
	 POIN2	kawaikutegomen_FINAL_6_015
// 062   ----------------------------------------
	BYTE	PATT
	 POIN2	kawaikutegomen_FINAL_6_016
// 063   ----------------------------------------
	BYTE	W06
	BYTE	W90
// 064   ----------------------------------------
	BYTE	W96
// 065   ----------------------------------------
	BYTE	W96
// 066   ----------------------------------------
	BYTE	W96
// 067   ----------------------------------------
	BYTE	W96
// 068   ----------------------------------------
	BYTE	W96
// 069   ----------------------------------------
	BYTE	W96
// 070   ----------------------------------------
	BYTE	W96
// 071   ----------------------------------------
	BYTE	W96
// 072   ----------------------------------------
	BYTE	W96
// 073   ----------------------------------------
	BYTE	W96
// 074   ----------------------------------------
	BYTE	W96
// 075   ----------------------------------------
	BYTE	W96
// 076   ----------------------------------------
	BYTE	W96
// 077   ----------------------------------------
	BYTE	W96
// 078   ----------------------------------------
	BYTE	W96
// 079   ----------------------------------------
	BYTE	W96
// 080   ----------------------------------------
	BYTE	W96
// 081   ----------------------------------------
	BYTE	W96
// 082   ----------------------------------------
	BYTE	W96
// 083   ----------------------------------------
	BYTE	W96
// 084   ----------------------------------------
	BYTE	W96
// 085   ----------------------------------------
	BYTE	W96
// 086   ----------------------------------------
	BYTE	W96
// 087   ----------------------------------------
	BYTE	W96
// 088   ----------------------------------------
	BYTE	W96
// 089   ----------------------------------------
	BYTE	W96
// 090   ----------------------------------------
	BYTE	W96
// 091   ----------------------------------------
	BYTE	W96
// 092   ----------------------------------------
	BYTE	W96
// 093   ----------------------------------------
	BYTE	W96
// 094   ----------------------------------------
	BYTE	W96
// 095   ----------------------------------------
	BYTE	W96
// 096   ----------------------------------------
	BYTE	W96
// 097   ----------------------------------------
	BYTE	W96
// 098   ----------------------------------------
	BYTE	W96
// 099   ----------------------------------------
	BYTE	W96
// 100   ----------------------------------------
	BYTE	W96
// 101   ----------------------------------------
	BYTE	W96
// 102   ----------------------------------------
	BYTE	W96
// 103   ----------------------------------------
	BYTE	W96
// 104   ----------------------------------------
	BYTE	W96
// 105   ----------------------------------------
	BYTE	W96
// 106   ----------------------------------------
	BYTE	W96
// 107   ----------------------------------------
	BYTE	W96
// 108   ----------------------------------------
	BYTE	W96
// 109   ----------------------------------------
	BYTE	W96
// 110   ----------------------------------------
	BYTE	W96
// 111   ----------------------------------------
	BYTE	W96
// 112   ----------------------------------------
	BYTE	W96
// 113   ----------------------------------------
	BYTE	W96
// 114   ----------------------------------------
	BYTE	W96
// 115   ----------------------------------------
	BYTE	W96
// 116   ----------------------------------------
	BYTE	W96
// 117   ----------------------------------------
	BYTE	W96
// 118   ----------------------------------------
	BYTE	W96
// 119   ----------------------------------------
	BYTE	W96
// 120   ----------------------------------------
	BYTE	W96
// 121   ----------------------------------------
	BYTE	W96
// 122   ----------------------------------------
	BYTE	W96
// 123   ----------------------------------------
	BYTE	W96
	BYTE	W48
// 124   ----------------------------------------
	BYTE	FINE

//**************** Track 7 (Midi-Chn.7) ****************//

kawaikutegomen_FINAL_7:
	BYTE	KEYSH   kawaikutegomen_FINAL_key+0
// 000   ----------------------------------------
	BYTE		MODT    0
	BYTE		LFOS    44
	BYTE	W28
	BYTE		VOICE   13
	BYTE		PAN     c_v+0
	BYTE		VOL     85*kawaikutegomen_FINAL_mvl/mxv
	BYTE		BENDR   64
	BYTE	W01
	BYTE		        64
	BYTE		        64
	BYTE	W01
	BYTE		VOL     56*kawaikutegomen_FINAL_mvl/mxv
	BYTE		MOD     0
	BYTE	MEMACC  mem_set  0x00  0
kawaikutegomen_FINAL_7_L0:
	BYTE		BENDR   12
	BYTE		BEND    c_v+0
	BYTE	W66
// 001   ----------------------------------------
	BYTE	W96
// 002   ----------------------------------------
	BYTE	W96
// 003   ----------------------------------------
	BYTE	W96
// 004   ----------------------------------------
	BYTE	W96
// 005   ----------------------------------------
	BYTE	W96
// 006   ----------------------------------------
	BYTE	W96
// 007   ----------------------------------------
	BYTE	W96
// 008   ----------------------------------------
	BYTE	W96
// 009   ----------------------------------------
	BYTE	W96
// 010   ----------------------------------------
	BYTE	W96
// 011   ----------------------------------------
	BYTE	W96
// 012   ----------------------------------------
	BYTE	W96
// 013   ----------------------------------------
	BYTE	W96
// 014   ----------------------------------------
	BYTE	W96
// 015   ----------------------------------------
	BYTE	W96
// 016   ----------------------------------------
	BYTE	W96
// 017   ----------------------------------------
	BYTE	W96
// 018   ----------------------------------------
	BYTE	W96
// 019   ----------------------------------------
	BYTE	W96
// 020   ----------------------------------------
	BYTE	W96
// 021   ----------------------------------------
	BYTE	W96
// 022   ----------------------------------------
	BYTE	W96
// 023   ----------------------------------------
	BYTE	W96
// 024   ----------------------------------------
	BYTE	W96
// 025   ----------------------------------------
	BYTE	W96
// 026   ----------------------------------------
	BYTE	W96
// 027   ----------------------------------------
	BYTE	W96
// 028   ----------------------------------------
	BYTE	W96
// 029   ----------------------------------------
	BYTE	W96
// 030   ----------------------------------------
	BYTE	W96
// 031   ----------------------------------------
	BYTE	W96
// 032   ----------------------------------------
	BYTE	W96
// 033   ----------------------------------------
	BYTE	W96
// 034   ----------------------------------------
	BYTE	W96
// 035   ----------------------------------------
	BYTE	W96
// 036   ----------------------------------------
	BYTE	W96
// 037   ----------------------------------------
	BYTE	W96
// 038   ----------------------------------------
	BYTE	W96
// 039   ----------------------------------------
	BYTE	W96
// 040   ----------------------------------------
	BYTE	W96
// 041   ----------------------------------------
	BYTE	W96
// 042   ----------------------------------------
	BYTE	W96
// 043   ----------------------------------------
	BYTE	W96
// 044   ----------------------------------------
	BYTE	W96
// 045   ----------------------------------------
	BYTE	W96
// 046   ----------------------------------------
	BYTE	W96
// 047   ----------------------------------------
	BYTE	W96
// 048   ----------------------------------------
	BYTE	W96
// 049   ----------------------------------------
	BYTE	W96
// 050   ----------------------------------------
	BYTE	W96
// 051   ----------------------------------------
	BYTE	W96
// 052   ----------------------------------------
	BYTE	W96
// 053   ----------------------------------------
	BYTE	W96
// 054   ----------------------------------------
	BYTE	W96
// 055   ----------------------------------------
	BYTE		N12     Fs4   v048
	BYTE	W12
	BYTE		N06     An3 
	BYTE	W06
	BYTE		        Dn4 
	BYTE	W06
	BYTE		N12     En4 
	BYTE	W12
	BYTE		        Fs4 
	BYTE	W12
	BYTE		N06     En4 
	BYTE	W12
	BYTE		        Cs4 
	BYTE	W36
// 056   ----------------------------------------
	BYTE		N12     Dn4 
	BYTE	W12
	BYTE		N06     Fs3 
	BYTE	W06
	BYTE		        Bn3 
	BYTE	W06
	BYTE		N12     Cs4 
	BYTE	W12
	BYTE		        Dn4 
	BYTE	W12
	BYTE		N06     Cs4 
	BYTE	W12
	BYTE		        An3 
	BYTE	W36
// 057   ----------------------------------------
	BYTE		N12     Bn3 
	BYTE	W12
	BYTE		N06     Dn3 
	BYTE	W06
	BYTE		        Gn3 
	BYTE	W06
	BYTE		N12     An3 
	BYTE	W12
	BYTE		        Bn3 
	BYTE	W12
	BYTE		        An3 
	BYTE	W24
	BYTE		        Dn4 
	BYTE	W24
// 058   ----------------------------------------
	BYTE		N06     Bn3 
	BYTE	W12
	BYTE		        Cs4 
	BYTE	W12
	BYTE		        Dn4 
	BYTE	W12
	BYTE		        Fs4 
	BYTE	W12
	BYTE		        En4 
	BYTE	W24
	BYTE		        Cs4 
	BYTE	W24
// 059   ----------------------------------------
	BYTE		N12     Fs5   v088
	BYTE	W12
	BYTE		N06     An4 
	BYTE	W06
	BYTE		        Dn5 
	BYTE	W06
	BYTE		N12     En5 
	BYTE	W12
	BYTE		        Fs5 
	BYTE	W12
	BYTE		N06     An4   v100
	BYTE		N06     En5   v088
	BYTE	W12
	BYTE		        An4   v100
	BYTE		N06     Cs5   v088
	BYTE	W36
// 060   ----------------------------------------
	BYTE		N12     Dn5 
	BYTE	W12
	BYTE		N06     Fs4 
	BYTE	W06
	BYTE		        Bn4 
	BYTE	W06
	BYTE		N12     Cs5 
	BYTE	W12
	BYTE		        Dn5 
	BYTE	W12
	BYTE		N06     En4   v100
	BYTE		N06     Cs5   v088
	BYTE	W12
	BYTE		        En4   v100
	BYTE		N06     An4   v088
	BYTE	W36
// 061   ----------------------------------------
	BYTE		        Dn4   v100
	BYTE		N12     Bn4   v088
	BYTE	W12
	BYTE		N06     Dn4 
	BYTE	W06
	BYTE		        Gn4 
	BYTE	W06
	BYTE		N12     An4 
	BYTE	W12
	BYTE		        Bn4 
	BYTE	W12
	BYTE		        An4 
	BYTE	W12
	BYTE		N06     Dn4   v100
	BYTE	W12
	BYTE		N12     Dn5   v088
	BYTE	W24
// 062   ----------------------------------------
	BYTE		        Gn4   v100
	BYTE	W12
	BYTE		        Fs4 
	BYTE	W12
	BYTE		        En4 
	BYTE	W12
	BYTE		        Dn4 
	BYTE	W12
	BYTE		N12   
	BYTE	W48
// 063   ----------------------------------------
	BYTE	W96
// 064   ----------------------------------------
	BYTE	W96
// 065   ----------------------------------------
	BYTE	W96
// 066   ----------------------------------------
	BYTE	W96
// 067   ----------------------------------------
	BYTE	W96
// 068   ----------------------------------------
	BYTE	W96
// 069   ----------------------------------------
	BYTE	W96
// 070   ----------------------------------------
	BYTE	W96
// 071   ----------------------------------------
	BYTE	W96
// 072   ----------------------------------------
	BYTE	W96
// 073   ----------------------------------------
	BYTE	W96
// 074   ----------------------------------------
	BYTE	W96
// 075   ----------------------------------------
	BYTE	W96
// 076   ----------------------------------------
	BYTE	W96
// 077   ----------------------------------------
	BYTE	W96
// 078   ----------------------------------------
	BYTE	W96
// 079   ----------------------------------------
	BYTE	W96
// 080   ----------------------------------------
	BYTE	W96
// 081   ----------------------------------------
	BYTE	W96
// 082   ----------------------------------------
	BYTE	W96
// 083   ----------------------------------------
	BYTE	W96
// 084   ----------------------------------------
	BYTE	W96
// 085   ----------------------------------------
	BYTE	W96
// 086   ----------------------------------------
	BYTE	W96
// 087   ----------------------------------------
	BYTE	W96
// 088   ----------------------------------------
	BYTE	W96
// 089   ----------------------------------------
	BYTE	W96
// 090   ----------------------------------------
	BYTE	W96
// 091   ----------------------------------------
	BYTE	W96
// 092   ----------------------------------------
	BYTE	W96
// 093   ----------------------------------------
	BYTE	W96
// 094   ----------------------------------------
	BYTE	W96
// 095   ----------------------------------------
	BYTE	W96
// 096   ----------------------------------------
	BYTE	W96
// 097   ----------------------------------------
	BYTE	W96
// 098   ----------------------------------------
	BYTE	W96
// 099   ----------------------------------------
	BYTE	W96
// 100   ----------------------------------------
	BYTE	W96
// 101   ----------------------------------------
	BYTE	W96
// 102   ----------------------------------------
	BYTE	W96
// 103   ----------------------------------------
	BYTE	W96
// 104   ----------------------------------------
	BYTE	W96
// 105   ----------------------------------------
	BYTE	W96
// 106   ----------------------------------------
	BYTE	W96
// 107   ----------------------------------------
	BYTE	W96
// 108   ----------------------------------------
	BYTE	W96
// 109   ----------------------------------------
	BYTE	W96
// 110   ----------------------------------------
	BYTE	W96
// 111   ----------------------------------------
	BYTE	W96
// 112   ----------------------------------------
	BYTE	W96
// 113   ----------------------------------------
	BYTE	W96
// 114   ----------------------------------------
	BYTE	W96
// 115   ----------------------------------------
	BYTE	W96
// 116   ----------------------------------------
	BYTE	W96
// 117   ----------------------------------------
	BYTE	W96
// 118   ----------------------------------------
	BYTE	W96
// 119   ----------------------------------------
	BYTE	W96
// 120   ----------------------------------------
	BYTE	W96
// 121   ----------------------------------------
	BYTE	W96
// 122   ----------------------------------------
	BYTE	W96
// 123   ----------------------------------------
	BYTE	W96
	BYTE	W48
// 124   ----------------------------------------
	BYTE	FINE

//**************** Track 8 (Midi-Chn.8) ****************//

kawaikutegomen_FINAL_8:
	BYTE	KEYSH   kawaikutegomen_FINAL_key+0
// 000   ----------------------------------------
	BYTE		MODT    0
	BYTE		LFOS    44
	BYTE	W28
	BYTE		VOICE   26
	BYTE		PAN     c_v+40
	BYTE		VOL     85*kawaikutegomen_FINAL_mvl/mxv
	BYTE		BENDR   64
	BYTE	W01
	BYTE		        64
	BYTE		        64
	BYTE	W01
	BYTE		VOL     24*kawaikutegomen_FINAL_mvl/mxv
	BYTE		MOD     0
	BYTE	MEMACC  mem_set  0x00  0
kawaikutegomen_FINAL_8_L0:
	BYTE		BENDR   12
	BYTE		BEND    c_v+0
	BYTE	W66
// 001   ----------------------------------------
	BYTE	W96
// 002   ----------------------------------------
	BYTE	W96
// 003   ----------------------------------------
	BYTE	W96
// 004   ----------------------------------------
	BYTE	W96
// 005   ----------------------------------------
	BYTE	W96
// 006   ----------------------------------------
	BYTE	W96
// 007   ----------------------------------------
	BYTE	W96
// 008   ----------------------------------------
	BYTE	W96
// 009   ----------------------------------------
	BYTE	W96
// 010   ----------------------------------------
	BYTE	W96
// 011   ----------------------------------------
	BYTE	W96
// 012   ----------------------------------------
	BYTE	W96
// 013   ----------------------------------------
	BYTE	W96
// 014   ----------------------------------------
	BYTE	W96
// 015   ----------------------------------------
	BYTE	W96
// 016   ----------------------------------------
	BYTE	W96
// 017   ----------------------------------------
	BYTE	W96
// 018   ----------------------------------------
	BYTE	W96
// 019   ----------------------------------------
	BYTE	W96
// 020   ----------------------------------------
	BYTE	W96
// 021   ----------------------------------------
	BYTE	W96
// 022   ----------------------------------------
	BYTE	W96
// 023   ----------------------------------------
	BYTE	W96
// 024   ----------------------------------------
	BYTE	W96
// 025   ----------------------------------------
	BYTE	W96
// 026   ----------------------------------------
	BYTE	W96
// 027   ----------------------------------------
	BYTE	W96
// 028   ----------------------------------------
	BYTE	W96
// 029   ----------------------------------------
	BYTE	W96
// 030   ----------------------------------------
	BYTE	W96
// 031   ----------------------------------------
	BYTE	W96
// 032   ----------------------------------------
	BYTE	W96
// 033   ----------------------------------------
	BYTE	W96
// 034   ----------------------------------------
	BYTE	W96
// 035   ----------------------------------------
	BYTE	W96
// 036   ----------------------------------------
	BYTE	W96
// 037   ----------------------------------------
	BYTE	W96
// 038   ----------------------------------------
	BYTE	W96
// 039   ----------------------------------------
	BYTE	W96
// 040   ----------------------------------------
	BYTE	W96
// 041   ----------------------------------------
	BYTE	W96
// 042   ----------------------------------------
	BYTE	W96
// 043   ----------------------------------------
	BYTE	W96
// 044   ----------------------------------------
	BYTE	W96
// 045   ----------------------------------------
	BYTE	W96
// 046   ----------------------------------------
	BYTE	W96
// 047   ----------------------------------------
	BYTE	W96
// 048   ----------------------------------------
	BYTE	W96
// 049   ----------------------------------------
	BYTE	W96
// 050   ----------------------------------------
	BYTE	W96
// 051   ----------------------------------------
	BYTE	W96
// 052   ----------------------------------------
	BYTE	W96
// 053   ----------------------------------------
	BYTE	W96
// 054   ----------------------------------------
	BYTE	W96
// 055   ----------------------------------------
	BYTE	W96
// 056   ----------------------------------------
	BYTE	W96
// 057   ----------------------------------------
	BYTE	W96
// 058   ----------------------------------------
	BYTE	W96
// 059   ----------------------------------------
	BYTE	W96
// 060   ----------------------------------------
	BYTE	W96
// 061   ----------------------------------------
	BYTE	W96
// 062   ----------------------------------------
	BYTE	W96
// 063   ----------------------------------------
	BYTE	W96
// 064   ----------------------------------------
	BYTE	W96
// 065   ----------------------------------------
	BYTE	W96
// 066   ----------------------------------------
	BYTE	W96
// 067   ----------------------------------------
	BYTE	W96
// 068   ----------------------------------------
	BYTE	W96
// 069   ----------------------------------------
	BYTE	W96
// 070   ----------------------------------------
	BYTE	W96
// 071   ----------------------------------------
	BYTE	W96
// 072   ----------------------------------------
	BYTE	W96
// 073   ----------------------------------------
	BYTE	W96
// 074   ----------------------------------------
	BYTE	W96
// 075   ----------------------------------------
	BYTE	W96
// 076   ----------------------------------------
	BYTE	W96
// 077   ----------------------------------------
	BYTE	W96
// 078   ----------------------------------------
	BYTE	W96
// 079   ----------------------------------------
	BYTE	W96
// 080   ----------------------------------------
	BYTE	W96
// 081   ----------------------------------------
	BYTE	W96
// 082   ----------------------------------------
	BYTE	W96
// 083   ----------------------------------------
	BYTE	W96
// 084   ----------------------------------------
	BYTE	W96
// 085   ----------------------------------------
	BYTE	W96
// 086   ----------------------------------------
	BYTE	W96
// 087   ----------------------------------------
	BYTE	W96
// 088   ----------------------------------------
	BYTE	W96
// 089   ----------------------------------------
	BYTE	W96
// 090   ----------------------------------------
	BYTE	W96
// 091   ----------------------------------------
	BYTE	W96
// 092   ----------------------------------------
	BYTE	W96
// 093   ----------------------------------------
kawaikutegomen_FINAL_8_093:
	BYTE	W12
	BYTE		N06     An2   v076
	BYTE	W12
	BYTE		        Cs3 
	BYTE	W12
	BYTE		        Dn3 
	BYTE	W24
	BYTE		        An2 
	BYTE	W12
	BYTE		        Cs3 
	BYTE	W12
	BYTE		        Dn3 
	BYTE	W12
	BYTE	PEND
// 094   ----------------------------------------
	BYTE	PATT
	 POIN2	kawaikutegomen_FINAL_8_093
// 095   ----------------------------------------
	BYTE	PATT
	 POIN2	kawaikutegomen_FINAL_8_093
// 096   ----------------------------------------
	BYTE	W12
	BYTE		N06     An2   v076
	BYTE	W12
	BYTE		        Cs3 
	BYTE	W12
	BYTE		        Dn3 
	BYTE	W12
	BYTE		N03     Fn3 
	BYTE	W01
	BYTE	W02
	BYTE		N09     Fs3 
	BYTE	W09
	BYTE		N12     En3 
	BYTE	W12
	BYTE		        Dn3 
	BYTE	W12
	BYTE		        En3 
	BYTE	W12
// 097   ----------------------------------------
	BYTE	W12
	BYTE		N06     An2 
	BYTE	W12
	BYTE		        Cs3 
	BYTE	W12
	BYTE		        Dn3 
	BYTE	W24
	BYTE		        An2 
	BYTE	W12
	BYTE		        Bn2 
	BYTE	W12
	BYTE		        Dn3 
	BYTE	W12
// 098   ----------------------------------------
	BYTE	W12
	BYTE		        An2 
	BYTE	W12
	BYTE		        Bn2 
	BYTE	W12
	BYTE		        Dn3 
	BYTE	W24
	BYTE		        An2 
	BYTE	W12
	BYTE		        Bn2 
	BYTE	W12
	BYTE		        Dn3 
	BYTE	W12
// 099   ----------------------------------------
	BYTE	PATT
	 POIN2	kawaikutegomen_FINAL_8_093
// 100   ----------------------------------------
	BYTE	W12
	BYTE		N06     An2   v076
	BYTE	W12
	BYTE		        Bn2 
	BYTE	W12
	BYTE		        Dn3 
	BYTE	W12
	BYTE		N03     Fn3 
	BYTE	W01
	BYTE	W02
	BYTE		N09     Fs3 
	BYTE	W09
	BYTE		N12     En3 
	BYTE	W12
	BYTE		        Dn3 
	BYTE	W12
	BYTE		        En3 
	BYTE	W12
// 101   ----------------------------------------
kawaikutegomen_FINAL_8_101:
	BYTE		N24     Dn4   v088
	BYTE	W01
	BYTE	W23
	BYTE		N12     An4 
	BYTE	W12
	BYTE		N24     Dn4 
	BYTE	W24
	BYTE		        An4 
	BYTE	W24
	BYTE		N12     Dn4 
	BYTE	W12
	BYTE	PEND
// 102   ----------------------------------------
kawaikutegomen_FINAL_8_102:
	BYTE		N24     Dn4   v088
	BYTE	W24
	BYTE		N12     An4 
	BYTE	W12
	BYTE		N24     Dn4 
	BYTE	W24
	BYTE		        An4 
	BYTE	W24
	BYTE		N12     Dn4 
	BYTE	W12
	BYTE	PEND
// 103   ----------------------------------------
	BYTE	PATT
	 POIN2	kawaikutegomen_FINAL_8_102
// 104   ----------------------------------------
	BYTE	PATT
	 POIN2	kawaikutegomen_FINAL_8_102
// 105   ----------------------------------------
	BYTE	PATT
	 POIN2	kawaikutegomen_FINAL_8_101
// 106   ----------------------------------------
	BYTE	PATT
	 POIN2	kawaikutegomen_FINAL_8_102
// 107   ----------------------------------------
	BYTE	PATT
	 POIN2	kawaikutegomen_FINAL_8_102
// 108   ----------------------------------------
	BYTE	PATT
	 POIN2	kawaikutegomen_FINAL_8_102
// 109   ----------------------------------------
	BYTE	W96
// 110   ----------------------------------------
	BYTE	W96
// 111   ----------------------------------------
	BYTE	W96
// 112   ----------------------------------------
	BYTE	W96
// 113   ----------------------------------------
	BYTE	W96
// 114   ----------------------------------------
	BYTE	W96
// 115   ----------------------------------------
	BYTE	W96
// 116   ----------------------------------------
	BYTE	W96
// 117   ----------------------------------------
	BYTE		N48     Gn2   v088
	BYTE		N48     Dn3 
	BYTE		N48     Gn3 
	BYTE		N48     An3 
	BYTE	W01
	BYTE	W44
	BYTE	W03
	BYTE		        An2 
	BYTE		N48     Cs3 
	BYTE		N48     En3 
	BYTE		N48     An3 
	BYTE	W01
	BYTE	W44
	BYTE	W03
// 118   ----------------------------------------
	BYTE		        Fs2 
	BYTE		N48     En3 
	BYTE		N48     Fs3 
	BYTE		N48     Cs4 
	BYTE	W01
	BYTE	W44
	BYTE	W03
	BYTE		        Bn2 
	BYTE		N48     Fs3 
	BYTE		N48     Dn4 
	BYTE	W01
	BYTE	W44
	BYTE	W03
// 119   ----------------------------------------
	BYTE		        Gn2 
	BYTE		N48     Dn3 
	BYTE		N48     An3 
	BYTE	W01
	BYTE	W44
	BYTE	W03
	BYTE		        An2 
	BYTE		N48     Cs3 
	BYTE		N48     En3 
	BYTE		N48     An3 
	BYTE	W01
	BYTE	W44
	BYTE	W03
// 120   ----------------------------------------
	BYTE		N36     Dn2 
	BYTE		N36     An2 
	BYTE		N36     Dn3 
	BYTE		N36     Fs3 
	BYTE		N36     An3 
	BYTE	W01
	BYTE	W23
	BYTE	W28
	BYTE	W05
	BYTE	W01
	BYTE	W01
	BYTE	W02
	BYTE	W01
	BYTE	W02
	BYTE	W01
	BYTE	W01
	BYTE	W02
	BYTE	W01
	BYTE	W02
	BYTE	W01
	BYTE	W01
	BYTE	W02
	BYTE	W01
	BYTE	W02
	BYTE	W01
	BYTE	W01
	BYTE	W02
	BYTE	W01
	BYTE	W01
	BYTE	W12
// 121   ----------------------------------------
	BYTE		N12     Bn2 
	BYTE	W01
	BYTE	W11
	BYTE		        Dn3 
	BYTE	W12
	BYTE		        Fs3 
	BYTE	W12
	BYTE		        Dn3 
	BYTE	W12
	BYTE		        As2 
	BYTE	W01
	BYTE	W11
	BYTE		        Dn3 
	BYTE	W12
	BYTE		        Fs3 
	BYTE	W12
	BYTE		        Dn3 
	BYTE	W12
// 122   ----------------------------------------
	BYTE		        An2 
	BYTE	W01
	BYTE	W11
	BYTE		        Dn3 
	BYTE	W12
	BYTE		        Fs3 
	BYTE	W12
	BYTE		        Dn3 
	BYTE	W12
	BYTE		N84     Gs2 
	BYTE	W01
	BYTE	W02
	BYTE		N80     Dn3 
	BYTE		N80     Fs3 
	BYTE	W03
	BYTE		N78     Bn3 
	BYTE	W42
// 123   ----------------------------------------
	BYTE	W28
	BYTE	W08
	BYTE	W02
	BYTE	W05
	BYTE	W02
	BYTE	W03
	BYTE	W02
	BYTE	W02
	BYTE	W03
	BYTE	W02
	BYTE	W03
	BYTE	W02
	BYTE	W02
	BYTE	W03
	BYTE	W02
	BYTE	W03
	BYTE	W02
	BYTE	W02
	BYTE	W03
	BYTE	W02
	BYTE	W03
	BYTE	W60
// 124   ----------------------------------------
	BYTE	FINE

//**************** Track 9 (Midi-Chn.3) ****************//

kawaikutegomen_FINAL_9:
	BYTE	KEYSH   kawaikutegomen_FINAL_key+0
// 000   ----------------------------------------
	BYTE		MODT    0
	BYTE		LFOS    44
	BYTE	W28
	BYTE		VOICE   80
	BYTE		PAN     c_v+0
	BYTE		VOL     85*kawaikutegomen_FINAL_mvl/mxv
	BYTE		BENDR   64
	BYTE	W01
	BYTE		        64
	BYTE		        64
	BYTE	W01
	BYTE		VOL     85*kawaikutegomen_FINAL_mvl/mxv
	BYTE		MOD     0
	BYTE	MEMACC  mem_set  0x00  0
kawaikutegomen_FINAL_9_L0:
	BYTE		BENDR   12
	BYTE		BEND    c_v+0
	BYTE	W66
// 001   ----------------------------------------
	BYTE	W96
// 002   ----------------------------------------
	BYTE	W96
// 003   ----------------------------------------
	BYTE	W96
// 004   ----------------------------------------
	BYTE	W96
// 005   ----------------------------------------
	BYTE	W96
// 006   ----------------------------------------
	BYTE	W96
// 007   ----------------------------------------
	BYTE	W96
// 008   ----------------------------------------
kawaikutegomen_FINAL_9_008:
	BYTE	W72
	BYTE		N12     Dn3   v088
	BYTE	W12
	BYTE		N12   
	BYTE	W12
	BYTE	PEND
// 009   ----------------------------------------
kawaikutegomen_FINAL_9_009:
	BYTE		N12     Fs3   v088
	BYTE	W12
	BYTE		N12   
	BYTE	W12
	BYTE		N12   
	BYTE	W12
	BYTE		        En3 
	BYTE	W12
	BYTE		N12   
	BYTE	W12
	BYTE		        An3 
	BYTE	W24
	BYTE		        Bn2 
	BYTE	W12
	BYTE	PEND
// 010   ----------------------------------------
kawaikutegomen_FINAL_9_010:
	BYTE		N12     Dn3   v088
	BYTE	W12
	BYTE		N12   
	BYTE	W12
	BYTE		N12   
	BYTE	W12
	BYTE		        Cs3 
	BYTE	W12
	BYTE		N12   
	BYTE	W12
	BYTE		        Fs3 
	BYTE	W24
	BYTE		        An2 
	BYTE	W12
	BYTE	PEND
// 011   ----------------------------------------
kawaikutegomen_FINAL_9_011:
	BYTE		N12     Bn2   v088
	BYTE	W12
	BYTE		N12   
	BYTE	W12
	BYTE		N12   
	BYTE	W12
	BYTE		        An2 
	BYTE	W12
	BYTE		N12   
	BYTE	W12
	BYTE		        Dn3 
	BYTE	W24
	BYTE		N12   
	BYTE	W12
	BYTE	PEND
// 012   ----------------------------------------
kawaikutegomen_FINAL_9_012:
	BYTE		N12     Gn3   v088
	BYTE	W12
	BYTE		        Fs3 
	BYTE	W12
	BYTE		        En3 
	BYTE	W12
	BYTE		        Dn3 
	BYTE	W12
	BYTE		N24   
	BYTE	W24
	BYTE		N12     En3 
	BYTE	W24
	BYTE	PEND
// 013   ----------------------------------------
kawaikutegomen_FINAL_9_013:
	BYTE		N12     Fs3   v088
	BYTE	W12
	BYTE		N12   
	BYTE	W12
	BYTE		N12   
	BYTE	W12
	BYTE		        En3 
	BYTE	W12
	BYTE		N12   
	BYTE	W12
	BYTE		        An3 
	BYTE	W24
	BYTE		N12   
	BYTE	W12
	BYTE	PEND
// 014   ----------------------------------------
	BYTE		        Bn3 
	BYTE	W12
	BYTE		        Dn3 
	BYTE	W12
	BYTE		N12   
	BYTE	W12
	BYTE		N12   
	BYTE	W12
	BYTE		        Cs3 
	BYTE	W12
	BYTE		        Fs3 
	BYTE	W24
	BYTE		        An2 
	BYTE	W12
// 015   ----------------------------------------
	BYTE	PATT
	 POIN2	kawaikutegomen_FINAL_9_011
// 016   ----------------------------------------
	BYTE		N12     Gn3   v088
	BYTE	W12
	BYTE		        Fs3 
	BYTE	W12
	BYTE		        En3 
	BYTE	W12
	BYTE		        Dn3 
	BYTE	W12
	BYTE		N24   
	BYTE	W36
	BYTE		N12     An2 
	BYTE	W12
// 017   ----------------------------------------
kawaikutegomen_FINAL_9_017:
	BYTE		N12     Dn3   v088
	BYTE	W12
	BYTE		N12   
	BYTE	W12
	BYTE		N12   
	BYTE	W12
	BYTE		N12   
	BYTE	W12
	BYTE		        Cs3 
	BYTE	W12
	BYTE		        Dn3 
	BYTE	W12
	BYTE		        Cs3 
	BYTE	W12
	BYTE		        Bn2 
	BYTE	W12
	BYTE	PEND
// 018   ----------------------------------------
kawaikutegomen_FINAL_9_018:
	BYTE		N24     An2   v088
	BYTE	W84
	BYTE		N12   
	BYTE	W12
	BYTE	PEND
// 019   ----------------------------------------
kawaikutegomen_FINAL_9_019:
	BYTE		N12     Bn2   v088
	BYTE	W12
	BYTE		N12   
	BYTE	W12
	BYTE		N12   
	BYTE	W12
	BYTE		N12   
	BYTE	W12
	BYTE		        An2 
	BYTE	W12
	BYTE		        Bn2 
	BYTE	W12
	BYTE		        An2 
	BYTE	W12
	BYTE		        Gn2 
	BYTE	W12
	BYTE	PEND
// 020   ----------------------------------------
	BYTE	PATT
	 POIN2	kawaikutegomen_FINAL_9_018
// 021   ----------------------------------------
	BYTE	PATT
	 POIN2	kawaikutegomen_FINAL_9_017
// 022   ----------------------------------------
kawaikutegomen_FINAL_9_022:
	BYTE		N24     As2   v088
	BYTE	W24
	BYTE		        En3 
	BYTE	W24
	BYTE		        Dn3 
	BYTE	W24
	BYTE		N12     Cs3 
	BYTE	W12
	BYTE		        Dn3 
	BYTE	W12
	BYTE	PEND
// 023   ----------------------------------------
kawaikutegomen_FINAL_9_023:
	BYTE		N48     Dn3   v088
	BYTE	W72
	BYTE		N12     Bn2 
	BYTE	W12
	BYTE		        Dn3 
	BYTE	W12
	BYTE	PEND
// 024   ----------------------------------------
kawaikutegomen_FINAL_9_024:
	BYTE		N12     En3   v088
	BYTE	W12
	BYTE		        Dn3 
	BYTE	W12
	BYTE		        Bn2 
	BYTE	W12
	BYTE		        Dn3 
	BYTE	W36
	BYTE		        Bn2 
	BYTE	W12
	BYTE		        Dn3 
	BYTE	W12
	BYTE	PEND
// 025   ----------------------------------------
kawaikutegomen_FINAL_9_025:
	BYTE		N12     Fs3   v088
	BYTE	W12
	BYTE		        En3 
	BYTE	W12
	BYTE		        Dn3 
	BYTE	W12
	BYTE		        En3 
	BYTE	W36
	BYTE		        Bn2 
	BYTE	W12
	BYTE		        Dn3 
	BYTE	W12
	BYTE	PEND
// 026   ----------------------------------------
	BYTE	PATT
	 POIN2	kawaikutegomen_FINAL_9_025
// 027   ----------------------------------------
kawaikutegomen_FINAL_9_027:
	BYTE		N24     Fn3   v088
	BYTE	W24
	BYTE		N24   
	BYTE	W24
	BYTE		        En3 
	BYTE	W24
	BYTE		        Dn3 
	BYTE	W24
	BYTE	PEND
// 028   ----------------------------------------
	BYTE		N36     En3 
	BYTE	W96
// 029   ----------------------------------------
kawaikutegomen_FINAL_9_029:
	BYTE		N18     Dn4   v088
	BYTE	W36
	BYTE		N12     Dn3 
	BYTE	W12
	BYTE		        En3 
	BYTE	W12
	BYTE		N12   
	BYTE	W12
	BYTE		        Dn3 
	BYTE	W12
	BYTE		        En3 
	BYTE	W12
	BYTE	PEND
// 030   ----------------------------------------
kawaikutegomen_FINAL_9_030:
	BYTE		N12     Fs3   v088
	BYTE	W24
	BYTE		N24     Cs4 
	BYTE	W24
	BYTE		N12     Dn4 
	BYTE	W24
	BYTE		        An3 
	BYTE	W12
	BYTE		        Fs3 
	BYTE	W12
	BYTE	PEND
// 031   ----------------------------------------
kawaikutegomen_FINAL_9_031:
	BYTE		N24     Dn3   v088
	BYTE	W36
	BYTE		N12   
	BYTE	W12
	BYTE		        En3 
	BYTE	W12
	BYTE		N12   
	BYTE	W12
	BYTE		        Dn3 
	BYTE	W12
	BYTE		        En3 
	BYTE	W12
	BYTE	PEND
// 032   ----------------------------------------
kawaikutegomen_FINAL_9_032:
	BYTE		N24     Fs3   v088
	BYTE	W24
	BYTE		        Gn3 
	BYTE	W24
	BYTE		        An3 
	BYTE	W48
	BYTE	PEND
// 033   ----------------------------------------
	BYTE	PATT
	 POIN2	kawaikutegomen_FINAL_9_029
// 034   ----------------------------------------
	BYTE	PATT
	 POIN2	kawaikutegomen_FINAL_9_030
// 035   ----------------------------------------
kawaikutegomen_FINAL_9_035:
	BYTE		N24     Dn3   v088
	BYTE	W36
	BYTE		N12   
	BYTE	W12
	BYTE		        En3 
	BYTE	W12
	BYTE		N12   
	BYTE	W12
	BYTE		        Dn3 
	BYTE	W12
	BYTE		        Cs3 
	BYTE	W12
	BYTE	PEND
// 036   ----------------------------------------
kawaikutegomen_FINAL_9_036:
	BYTE		N12     Dn3   v088
	BYTE	W24
	BYTE		N24     En3 
	BYTE	W24
	BYTE		N12     Dn3 
	BYTE	W48
	BYTE	PEND
// 037   ----------------------------------------
	BYTE	PATT
	 POIN2	kawaikutegomen_FINAL_9_029
// 038   ----------------------------------------
kawaikutegomen_FINAL_9_038:
	BYTE		N24     Fs3   v088
	BYTE	W24
	BYTE		        Cs4 
	BYTE	W24
	BYTE		N12     Dn4 
	BYTE	W24
	BYTE		        An3 
	BYTE	W12
	BYTE		        Fs3 
	BYTE	W12
	BYTE	PEND
// 039   ----------------------------------------
	BYTE	PATT
	 POIN2	kawaikutegomen_FINAL_9_031
// 040   ----------------------------------------
	BYTE	PATT
	 POIN2	kawaikutegomen_FINAL_9_032
// 041   ----------------------------------------
	BYTE	PATT
	 POIN2	kawaikutegomen_FINAL_9_029
// 042   ----------------------------------------
	BYTE	PATT
	 POIN2	kawaikutegomen_FINAL_9_038
// 043   ----------------------------------------
	BYTE	PATT
	 POIN2	kawaikutegomen_FINAL_9_035
// 044   ----------------------------------------
kawaikutegomen_FINAL_9_044:
	BYTE		N12     Dn3   v088
	BYTE	W24
	BYTE		N24     En3 
	BYTE	W24
	BYTE		N12     Dn3 
	BYTE	W24
	BYTE		        An3 
	BYTE	W12
	BYTE		        Fs3 
	BYTE	W12
	BYTE	PEND
// 045   ----------------------------------------
	BYTE	PATT
	 POIN2	kawaikutegomen_FINAL_9_035
// 046   ----------------------------------------
kawaikutegomen_FINAL_9_046:
	BYTE		N12     Dn3   v088
	BYTE	W24
	BYTE		        En3 
	BYTE	W24
	BYTE		        Dn3 
	BYTE	W48
	BYTE	PEND
// 047   ----------------------------------------
	BYTE	W96
// 048   ----------------------------------------
	BYTE	W96
// 049   ----------------------------------------
	BYTE	W96
// 050   ----------------------------------------
	BYTE	W96
// 051   ----------------------------------------
	BYTE	W96
// 052   ----------------------------------------
	BYTE	W96
// 053   ----------------------------------------
	BYTE	W96
// 054   ----------------------------------------
	BYTE	PATT
	 POIN2	kawaikutegomen_FINAL_9_008
// 055   ----------------------------------------
	BYTE	PATT
	 POIN2	kawaikutegomen_FINAL_9_009
// 056   ----------------------------------------
	BYTE	PATT
	 POIN2	kawaikutegomen_FINAL_9_010
// 057   ----------------------------------------
	BYTE	PATT
	 POIN2	kawaikutegomen_FINAL_9_011
// 058   ----------------------------------------
	BYTE	PATT
	 POIN2	kawaikutegomen_FINAL_9_012
// 059   ----------------------------------------
	BYTE	PATT
	 POIN2	kawaikutegomen_FINAL_9_013
// 060   ----------------------------------------
	BYTE		N12     Bn3   v088
	BYTE	W12
	BYTE		        Dn3 
	BYTE	W12
	BYTE		N12   
	BYTE	W12
	BYTE		        Cs3 
	BYTE	W12
	BYTE		N12   
	BYTE	W12
	BYTE		        Fs3 
	BYTE	W24
	BYTE		        An2 
	BYTE	W12
// 061   ----------------------------------------
	BYTE	PATT
	 POIN2	kawaikutegomen_FINAL_9_011
// 062   ----------------------------------------
	BYTE		N12     Gn3   v088
	BYTE	W12
	BYTE		        Fs3 
	BYTE	W12
	BYTE		        En3 
	BYTE	W12
	BYTE		        Dn3 
	BYTE	W12
	BYTE		N24   
	BYTE	W36
	BYTE		N12     Bn2 
	BYTE	W12
// 063   ----------------------------------------
	BYTE		N24     Dn3 
	BYTE	W24
	BYTE		N12   
	BYTE	W12
	BYTE		N12   
	BYTE	W12
	BYTE		        Cs3 
	BYTE	W12
	BYTE		        Dn3 
	BYTE	W12
	BYTE		        Cs3 
	BYTE	W12
	BYTE		        Bn2 
	BYTE	W12
// 064   ----------------------------------------
	BYTE	PATT
	 POIN2	kawaikutegomen_FINAL_9_018
// 065   ----------------------------------------
	BYTE	PATT
	 POIN2	kawaikutegomen_FINAL_9_019
// 066   ----------------------------------------
	BYTE	PATT
	 POIN2	kawaikutegomen_FINAL_9_018
// 067   ----------------------------------------
	BYTE	PATT
	 POIN2	kawaikutegomen_FINAL_9_017
// 068   ----------------------------------------
	BYTE	PATT
	 POIN2	kawaikutegomen_FINAL_9_022
// 069   ----------------------------------------
	BYTE	PATT
	 POIN2	kawaikutegomen_FINAL_9_023
// 070   ----------------------------------------
	BYTE	PATT
	 POIN2	kawaikutegomen_FINAL_9_024
// 071   ----------------------------------------
	BYTE		N12     Fs3   v088
	BYTE	W12
	BYTE		        En3 
	BYTE	W12
	BYTE		        Dn3 
	BYTE	W12
	BYTE		        En3 
	BYTE	W36
	BYTE		N24     Bn2 
	BYTE	W24
// 072   ----------------------------------------
	BYTE	PATT
	 POIN2	kawaikutegomen_FINAL_9_025
// 073   ----------------------------------------
	BYTE	PATT
	 POIN2	kawaikutegomen_FINAL_9_027
// 074   ----------------------------------------
	BYTE		N36     En3   v088
	BYTE	W96
// 075   ----------------------------------------
	BYTE	PATT
	 POIN2	kawaikutegomen_FINAL_9_029
// 076   ----------------------------------------
	BYTE	PATT
	 POIN2	kawaikutegomen_FINAL_9_030
// 077   ----------------------------------------
	BYTE	PATT
	 POIN2	kawaikutegomen_FINAL_9_031
// 078   ----------------------------------------
	BYTE	PATT
	 POIN2	kawaikutegomen_FINAL_9_032
// 079   ----------------------------------------
	BYTE	PATT
	 POIN2	kawaikutegomen_FINAL_9_029
// 080   ----------------------------------------
	BYTE	PATT
	 POIN2	kawaikutegomen_FINAL_9_030
// 081   ----------------------------------------
	BYTE	PATT
	 POIN2	kawaikutegomen_FINAL_9_035
// 082   ----------------------------------------
	BYTE	PATT
	 POIN2	kawaikutegomen_FINAL_9_036
// 083   ----------------------------------------
	BYTE	PATT
	 POIN2	kawaikutegomen_FINAL_9_029
// 084   ----------------------------------------
	BYTE	PATT
	 POIN2	kawaikutegomen_FINAL_9_038
// 085   ----------------------------------------
	BYTE	PATT
	 POIN2	kawaikutegomen_FINAL_9_031
// 086   ----------------------------------------
	BYTE	PATT
	 POIN2	kawaikutegomen_FINAL_9_032
// 087   ----------------------------------------
	BYTE	PATT
	 POIN2	kawaikutegomen_FINAL_9_029
// 088   ----------------------------------------
	BYTE	PATT
	 POIN2	kawaikutegomen_FINAL_9_038
// 089   ----------------------------------------
	BYTE	PATT
	 POIN2	kawaikutegomen_FINAL_9_035
// 090   ----------------------------------------
	BYTE	PATT
	 POIN2	kawaikutegomen_FINAL_9_044
// 091   ----------------------------------------
	BYTE	PATT
	 POIN2	kawaikutegomen_FINAL_9_035
// 092   ----------------------------------------
	BYTE		N12     Dn3   v088
	BYTE	W24
	BYTE		        En3 
	BYTE	W24
	BYTE		        Dn3 
	BYTE	W36
	BYTE		N12   
	BYTE	W12
// 093   ----------------------------------------
kawaikutegomen_FINAL_9_093:
	BYTE		N12     Dn3   v088
	BYTE	W12
	BYTE		N12   
	BYTE	W12
	BYTE		N12   
	BYTE	W12
	BYTE		        En3 
	BYTE	W12
	BYTE		N24     Fs3 
	BYTE	W36
	BYTE		N12     Dn3 
	BYTE	W12
	BYTE	PEND
// 094   ----------------------------------------
kawaikutegomen_FINAL_9_094:
	BYTE		N12     Dn3   v088
	BYTE	W12
	BYTE		N12   
	BYTE	W12
	BYTE		N12   
	BYTE	W12
	BYTE		        En3 
	BYTE	W12
	BYTE		        Fs3 
	BYTE	W24
	BYTE		        Dn3 
	BYTE	W12
	BYTE		N12   
	BYTE	W12
	BYTE	PEND
// 095   ----------------------------------------
kawaikutegomen_FINAL_9_095:
	BYTE		N12     En3   v088
	BYTE	W24
	BYTE		N24     Fs3 
	BYTE	W24
	BYTE		        En3 
	BYTE	W24
	BYTE		        Dn3 
	BYTE	W24
	BYTE	PEND
// 096   ----------------------------------------
	BYTE		N24   
	BYTE	W84
	BYTE		N12   
	BYTE	W12
// 097   ----------------------------------------
	BYTE	PATT
	 POIN2	kawaikutegomen_FINAL_9_093
// 098   ----------------------------------------
	BYTE	PATT
	 POIN2	kawaikutegomen_FINAL_9_094
// 099   ----------------------------------------
	BYTE	PATT
	 POIN2	kawaikutegomen_FINAL_9_095
// 100   ----------------------------------------
	BYTE		N24     Dn3   v088
	BYTE	W72
	BYTE		N12   
	BYTE	W12
	BYTE		N12   
	BYTE	W12
// 101   ----------------------------------------
kawaikutegomen_FINAL_9_101:
	BYTE		N12     An3   v088
	BYTE	W12
	BYTE		N12   
	BYTE	W12
	BYTE		N12   
	BYTE	W12
	BYTE		N12   
	BYTE	W12
	BYTE		        Fs3 
	BYTE	W12
	BYTE		        En3 
	BYTE	W12
	BYTE		N12   
	BYTE	W12
	BYTE		        Dn3 
	BYTE	W12
	BYTE	PEND
// 102   ----------------------------------------
	BYTE		N12   
	BYTE	W12
	BYTE		N12   
	BYTE	W12
	BYTE		        En3 
	BYTE	W12
	BYTE		        Dn3 
	BYTE	W12
	BYTE		N12   
	BYTE	W36
	BYTE		        Bn2 
	BYTE	W12
// 103   ----------------------------------------
	BYTE		        Dn3 
	BYTE	W12
	BYTE		N12   
	BYTE	W12
	BYTE		N12   
	BYTE	W12
	BYTE		N12   
	BYTE	W12
	BYTE		        Fs3 
	BYTE	W12
	BYTE		        En3 
	BYTE	W12
	BYTE		N12   
	BYTE	W12
	BYTE		        Dn3 
	BYTE	W12
// 104   ----------------------------------------
	BYTE		N12   
	BYTE	W12
	BYTE		N12   
	BYTE	W12
	BYTE		        En3 
	BYTE	W12
	BYTE		N12   
	BYTE	W12
	BYTE		        Dn3 
	BYTE	W36
	BYTE		N12   
	BYTE	W12
// 105   ----------------------------------------
	BYTE	PATT
	 POIN2	kawaikutegomen_FINAL_9_101
// 106   ----------------------------------------
	BYTE		N12     An3   v088
	BYTE	W12
	BYTE		N12   
	BYTE	W12
	BYTE		        Bn3 
	BYTE	W12
	BYTE		        An3 
	BYTE	W12
	BYTE		N12   
	BYTE	W36
	BYTE		        Dn3 
	BYTE	W12
// 107   ----------------------------------------
	BYTE		N48   
	BYTE	W48
	BYTE		        En3 
	BYTE	W48
// 108   ----------------------------------------
	BYTE		        Fs3 
	BYTE	W48
	BYTE		        Gn3 
	BYTE	W48
// 109   ----------------------------------------
	BYTE		TIE     An3 
	BYTE	W96
// 110   ----------------------------------------
	BYTE	W12
	BYTE		EOT   
	BYTE	W84
// 111   ----------------------------------------
	BYTE	W96
// 112   ----------------------------------------
	BYTE	W96
// 113   ----------------------------------------
	BYTE	W96
// 114   ----------------------------------------
	BYTE	W96
// 115   ----------------------------------------
	BYTE	W96
// 116   ----------------------------------------
	BYTE	W96
// 117   ----------------------------------------
	BYTE	PATT
	 POIN2	kawaikutegomen_FINAL_9_029
// 118   ----------------------------------------
	BYTE	PATT
	 POIN2	kawaikutegomen_FINAL_9_030
// 119   ----------------------------------------
	BYTE	PATT
	 POIN2	kawaikutegomen_FINAL_9_031
// 120   ----------------------------------------
	BYTE	PATT
	 POIN2	kawaikutegomen_FINAL_9_032
// 121   ----------------------------------------
	BYTE	PATT
	 POIN2	kawaikutegomen_FINAL_9_029
// 122   ----------------------------------------
	BYTE		N24     Fs3   v088
	BYTE	W24
	BYTE		        Cs4 
	BYTE	W24
	BYTE		TIE     Dn4 
	BYTE	W48
// 123   ----------------------------------------
	BYTE	W60
	BYTE		EOT   
	BYTE	W60
	BYTE		N12     An3 
	BYTE	W12
	BYTE		        Fs3 
	BYTE	W12
// 124   ----------------------------------------
	BYTE	PATT
	 POIN2	kawaikutegomen_FINAL_9_035
// 125   ----------------------------------------
	BYTE	PATT
	 POIN2	kawaikutegomen_FINAL_9_046
// 126   ----------------------------------------
	BYTE	PATT
	 POIN2	kawaikutegomen_FINAL_9_029
// 127   ----------------------------------------
	BYTE	PATT
	 POIN2	kawaikutegomen_FINAL_9_030
// 128   ----------------------------------------
	BYTE		N24     Dn3   v088
	BYTE	W36
	BYTE		N12   
	BYTE	W12
	BYTE		        En3 
	BYTE	W12
	BYTE		N12   
	BYTE	W12
	BYTE		        Fs3 
	BYTE	W12
	BYTE		        Gn3 
	BYTE	W12
// 129   ----------------------------------------
	BYTE		N24     Bn3 
	BYTE	W24
	BYTE		        An3 
	BYTE	W24
	BYTE		N24   
	BYTE	W48
// 130   ----------------------------------------
	BYTE	PATT
	 POIN2	kawaikutegomen_FINAL_9_029
// 131   ----------------------------------------
	BYTE	PATT
	 POIN2	kawaikutegomen_FINAL_9_038
// 132   ----------------------------------------
	BYTE	PATT
	 POIN2	kawaikutegomen_FINAL_9_035
// 133   ----------------------------------------
	BYTE	PATT
	 POIN2	kawaikutegomen_FINAL_9_044
// 134   ----------------------------------------
	BYTE	PATT
	 POIN2	kawaikutegomen_FINAL_9_035
// 135   ----------------------------------------
	BYTE		N12     Dn3   v088
	BYTE	W24
	BYTE		        En3 
	BYTE	W24
	BYTE		        Dn3 
	BYTE	W12
	BYTE	FINE

//**************** Track 10 (Midi-Chn.10) ****************//

kawaikutegomen_FINAL_10:
	BYTE	KEYSH   kawaikutegomen_FINAL_key+0
// 000   ----------------------------------------
	BYTE		MODT    0
	BYTE		LFOS    44
	BYTE	W28
	BYTE		VOICE   0
	BYTE		PAN     c_v+0
	BYTE		VOL     85*kawaikutegomen_FINAL_mvl/mxv
	BYTE		BENDR   64
	BYTE	W01
	BYTE		        64
	BYTE		        64
	BYTE	W01
	BYTE		VOL     66*kawaikutegomen_FINAL_mvl/mxv
	BYTE		MOD     0
	BYTE	MEMACC  mem_set  0x00  0
kawaikutegomen_FINAL_10_L0:
	BYTE		BENDR   12
	BYTE		BEND    c_v+0
	BYTE	W66
// 001   ----------------------------------------
	BYTE		N01     Cn1   v088
	BYTE		N01     An2 
	BYTE		N01     Cn5 
	BYTE	W48
	BYTE		        Cn1 
	BYTE		N01     Cs2 
	BYTE		N01     Cn5 
	BYTE	W48
// 002   ----------------------------------------
	BYTE		        Cn1 
	BYTE		N01     An2 
	BYTE		N01     Cn5 
	BYTE	W48
	BYTE		        Cn1 
	BYTE		N01     Cs2 
	BYTE		N01     Cn5 
	BYTE	W36
	BYTE		        Dn1 
	BYTE	W06
	BYTE		N01   
	BYTE	W06
// 003   ----------------------------------------
	BYTE		        Cn1 
	BYTE		N01     An2 
	BYTE	W24
	BYTE		        As1 
	BYTE	W24
	BYTE		        Cn1 
	BYTE		N01     An2 
	BYTE	W18
	BYTE		        Cn2 
	BYTE	W06
	BYTE		        An1 
	BYTE	W12
	BYTE		        Gn1 
	BYTE	W12
// 004   ----------------------------------------
	BYTE		        Cn1 
	BYTE		N01     Gn1 
	BYTE		N01     Cs2 
	BYTE	W36
	BYTE		        Dn1 
	BYTE	W06
	BYTE		N01   
	BYTE	W06
	BYTE		        Cn2 
	BYTE	W18
	BYTE		        An1 
	BYTE	W18
	BYTE		        Gn1 
	BYTE	W12
// 005   ----------------------------------------
	BYTE		        Cn1 
	BYTE		N01     An2 
	BYTE	W12
	BYTE		        Fs1 
	BYTE	W06
	BYTE		N01   
	BYTE	W06
	BYTE		        Cn1 
	BYTE		N01     Fs1 
	BYTE	W12
	BYTE		N01   
	BYTE	W06
	BYTE		N01   
	BYTE	W06
	BYTE		        Cn1 
	BYTE		N01     Cs2 
	BYTE	W12
	BYTE		        Fs1 
	BYTE	W06
	BYTE		N01   
	BYTE	W06
	BYTE		        Cn1 
	BYTE		N01     Fs1 
	BYTE	W12
	BYTE		N01   
	BYTE	W06
	BYTE		N01   
	BYTE	W06
// 006   ----------------------------------------
	BYTE		        Cn1 
	BYTE		N01     Cs2 
	BYTE	W24
	BYTE		        Cn1 
	BYTE		N01     Fs1 
	BYTE	W24
	BYTE		        Cs2 
	BYTE	W12
	BYTE		        Dn1 
	BYTE		N01     Cn2 
	BYTE	W12
	BYTE		        Dn1 
	BYTE		N01     Cn2 
	BYTE	W12
	BYTE		        Dn1 
	BYTE		N01     Cn2 
	BYTE	W12
// 007   ----------------------------------------
	BYTE	W96
// 008   ----------------------------------------
	BYTE		        Cn1 
	BYTE		N01     Dn1 
	BYTE	W06
	BYTE		        Cn2 
	BYTE	W06
	BYTE		        Gn1 
	BYTE	W06
	BYTE		        Cn2 
	BYTE	W06
	BYTE		        Cn1 
	BYTE		N01     Dn1 
	BYTE	W06
	BYTE		        Cn2 
	BYTE	W06
	BYTE		        Gn1 
	BYTE	W06
	BYTE		        Cn2 
	BYTE	W06
	BYTE		        Cn1 
	BYTE		N01     Dn1 
	BYTE	W06
	BYTE		        Cn2 
	BYTE	W06
	BYTE		        Gn1 
	BYTE	W06
	BYTE		        Cn2 
	BYTE	W06
	BYTE		        Cn1 
	BYTE		N01     An2 
	BYTE	W24
// 009   ----------------------------------------
kawaikutegomen_FINAL_10_009:
	BYTE		N01     Cn1   v088
	BYTE		N01     Cs2 
	BYTE	W24
	BYTE		        Cn1 
	BYTE		N01     Dn1 
	BYTE	W12
	BYTE		        Fs1 
	BYTE	W12
	BYTE		        Cn1 
	BYTE	W12
	BYTE		        Fs1 
	BYTE	W12
	BYTE		        Cn1 
	BYTE		N01     Dn1 
	BYTE	W12
	BYTE		        Fs1 
	BYTE	W12
	BYTE	PEND
// 010   ----------------------------------------
kawaikutegomen_FINAL_10_010:
	BYTE		N01     Cn1   v088
	BYTE	W12
	BYTE		        Fs1 
	BYTE	W12
	BYTE		        Cn1 
	BYTE		N01     Dn1 
	BYTE	W12
	BYTE		        Fs1 
	BYTE	W12
	BYTE		        Cn1 
	BYTE	W06
	BYTE		        Dn1 
	BYTE	W06
	BYTE		        Fs1 
	BYTE	W12
	BYTE		        Cn1 
	BYTE		N01     Dn1 
	BYTE	W12
	BYTE		        Fs1 
	BYTE	W12
	BYTE	PEND
// 011   ----------------------------------------
kawaikutegomen_FINAL_10_011:
	BYTE		N01     Cn1   v088
	BYTE	W12
	BYTE		        Fs1 
	BYTE	W12
	BYTE		        Cn1 
	BYTE		N01     Dn1 
	BYTE	W12
	BYTE		        Fs1 
	BYTE	W12
	BYTE		        Cn1 
	BYTE	W12
	BYTE		        Fs1 
	BYTE	W12
	BYTE		        Cn1 
	BYTE		N01     Dn1 
	BYTE	W12
	BYTE		        Fs1 
	BYTE	W12
	BYTE	PEND
// 012   ----------------------------------------
	BYTE	PATT
	 POIN2	kawaikutegomen_FINAL_10_010
// 013   ----------------------------------------
	BYTE	PATT
	 POIN2	kawaikutegomen_FINAL_10_011
// 014   ----------------------------------------
	BYTE	PATT
	 POIN2	kawaikutegomen_FINAL_10_010
// 015   ----------------------------------------
	BYTE		N01     Cn1   v088
	BYTE	W12
	BYTE		        Fs1 
	BYTE	W12
	BYTE		        Cn1 
	BYTE		N01     Dn1 
	BYTE	W12
	BYTE		        Fs1 
	BYTE	W12
	BYTE		        Cn1 
	BYTE	W12
	BYTE		        Fs1 
	BYTE	W12
	BYTE		        Cn1 
	BYTE		N01     Dn1 
	BYTE		N01     Cn5 
	BYTE	W12
	BYTE		        Fs1 
	BYTE	W12
// 016   ----------------------------------------
	BYTE		        Cn1 
	BYTE		N01     Dn1 
	BYTE	W06
	BYTE		        Cn2 
	BYTE	W06
	BYTE		N01   
	BYTE	W06
	BYTE		        Fn1 
	BYTE	W06
	BYTE		        Cn1 
	BYTE		N01     An2 
	BYTE		N01     Cn5 
	BYTE	W24
	BYTE		        Cn1 
	BYTE		N01     Cs2 
	BYTE	W12
	BYTE		        Cn2 
	BYTE	W06
	BYTE		N01   
	BYTE	W06
	BYTE		        An1 
	BYTE		N01     Fn2 
	BYTE		N01     Cn5 
	BYTE	W06
	BYTE		        An1 
	BYTE	W06
	BYTE		        Gn1 
	BYTE	W06
	BYTE		N01   
	BYTE	W06
// 017   ----------------------------------------
kawaikutegomen_FINAL_10_017:
	BYTE		N01     Cn1   v088
	BYTE		N01     Dn1 
	BYTE		N01     An2 
	BYTE	W24
	BYTE		        Dn1 
	BYTE		N01     Cs2   v056
	BYTE	W12
	BYTE		        Dn1   v088
	BYTE	W12
	BYTE		        Cs2   v056
	BYTE	W24
	BYTE		        Cn1   v088
	BYTE		N01     Dn1 
	BYTE		N01     Cs2   v056
	BYTE	W24
	BYTE	PEND
// 018   ----------------------------------------
kawaikutegomen_FINAL_10_018:
	BYTE		N01     Cn1   v088
	BYTE		N01     Cs2   v056
	BYTE	W24
	BYTE		        Dn1   v088
	BYTE		N01     Cs2   v056
	BYTE	W12
	BYTE		        Dn1   v088
	BYTE	W12
	BYTE		        Cs2   v056
	BYTE	W24
	BYTE		        Cn1   v088
	BYTE		N01     Dn1 
	BYTE		N01     Cs2   v056
	BYTE	W24
	BYTE	PEND
// 019   ----------------------------------------
	BYTE	PATT
	 POIN2	kawaikutegomen_FINAL_10_018
// 020   ----------------------------------------
kawaikutegomen_FINAL_10_020:
	BYTE		N01     Cn1   v088
	BYTE		N01     Cs2   v056
	BYTE	W24
	BYTE		        Dn1   v088
	BYTE		N01     Cs2   v056
	BYTE	W12
	BYTE		        Dn1   v088
	BYTE	W12
	BYTE		        Cn1 
	BYTE	W12
	BYTE		        Dn1 
	BYTE	W06
	BYTE		N01   
	BYTE	W06
	BYTE		        Cn1 
	BYTE		N01     Dn1 
	BYTE	W12
	BYTE		        Gn1 
	BYTE	W06
	BYTE		N01   
	BYTE	W06
	BYTE	PEND
// 021   ----------------------------------------
kawaikutegomen_FINAL_10_021:
	BYTE		N01     Cn1   v088
	BYTE		N01     Fs1 
	BYTE	W12
	BYTE		N01   
	BYTE	W06
	BYTE		N01   
	BYTE	W06
	BYTE		        Cn1 
	BYTE		N01     Fs1 
	BYTE	W12
	BYTE		N01   
	BYTE	W06
	BYTE		N01   
	BYTE	W06
	BYTE		        Cn1 
	BYTE		N01     Fs1 
	BYTE	W12
	BYTE		N01   
	BYTE	W06
	BYTE		N01   
	BYTE	W06
	BYTE		        Cn1 
	BYTE		N01     Fs1 
	BYTE	W12
	BYTE		N01   
	BYTE	W06
	BYTE		N01   
	BYTE	W06
	BYTE	PEND
// 022   ----------------------------------------
kawaikutegomen_FINAL_10_022:
	BYTE		N01     Cn1   v088
	BYTE		N01     Fs1 
	BYTE	W12
	BYTE		N01   
	BYTE	W06
	BYTE		N01   
	BYTE	W06
	BYTE		        Cn1 
	BYTE		N01     Fs1 
	BYTE	W12
	BYTE		N01   
	BYTE	W06
	BYTE		N01   
	BYTE	W06
	BYTE		        Cn1 
	BYTE		N01     Fs1 
	BYTE	W12
	BYTE		        Cn2 
	BYTE	W06
	BYTE		N01   
	BYTE	W06
	BYTE		        An1 
	BYTE	W06
	BYTE		N01   
	BYTE	W06
	BYTE		        Gn1 
	BYTE	W06
	BYTE		N01   
	BYTE	W06
	BYTE	PEND
// 023   ----------------------------------------
kawaikutegomen_FINAL_10_023:
	BYTE		N01     Cn1   v088
	BYTE		N01     Gn1 
	BYTE		N01     Cs2 
	BYTE	W24
	BYTE		        Dn1 
	BYTE		N01     Gn1 
	BYTE	W12
	BYTE		N01   
	BYTE	W06
	BYTE		N01   
	BYTE	W06
	BYTE		        Cn1 
	BYTE		N01     Gn1 
	BYTE		N01     Bn1 
	BYTE	W12
	BYTE		        Cn1 
	BYTE		N01     Gn1 
	BYTE	W12
	BYTE		        Dn1 
	BYTE		N01     Gn1 
	BYTE	W12
	BYTE		N01   
	BYTE	W12
	BYTE	PEND
// 024   ----------------------------------------
kawaikutegomen_FINAL_10_024:
	BYTE		N01     Cn1   v088
	BYTE		N01     Gn1 
	BYTE	W12
	BYTE		N01   
	BYTE	W12
	BYTE		        Dn1 
	BYTE		N01     Gn1 
	BYTE	W12
	BYTE		N01   
	BYTE	W12
	BYTE		        Cn1 
	BYTE		N01     Gn1 
	BYTE		N01     Bn1 
	BYTE	W12
	BYTE		        Cn1 
	BYTE		N01     Gn1 
	BYTE	W12
	BYTE		        Dn1 
	BYTE		N01     Gn1 
	BYTE	W12
	BYTE		N01   
	BYTE	W12
	BYTE	PEND
// 025   ----------------------------------------
kawaikutegomen_FINAL_10_025:
	BYTE		N01     Cn1   v088
	BYTE		N01     An2 
	BYTE	W24
	BYTE		        Cn1 
	BYTE		N01     Dn1 
	BYTE		N01     Gn1 
	BYTE	W12
	BYTE		        Dn1 
	BYTE		N01     Gn1 
	BYTE	W12
	BYTE		        Cn1 
	BYTE		N01     Dn1 
	BYTE		N01     Gn1 
	BYTE	W12
	BYTE		        Dn1 
	BYTE		N01     Gn1 
	BYTE	W12
	BYTE		        Cn1 
	BYTE		N01     Dn1 
	BYTE		N01     Gn1 
	BYTE	W12
	BYTE		        Dn1 
	BYTE		N01     Gn1 
	BYTE	W12
	BYTE	PEND
// 026   ----------------------------------------
kawaikutegomen_FINAL_10_026:
	BYTE		N01     Cn1   v088
	BYTE		N01     Dn1 
	BYTE		N01     Gn1 
	BYTE	W12
	BYTE		        Dn1 
	BYTE		N01     Gn1 
	BYTE	W12
	BYTE		        Cn1 
	BYTE		N01     Dn1 
	BYTE		N01     Gn1 
	BYTE	W12
	BYTE		        Dn1 
	BYTE		N01     Gn1 
	BYTE	W12
	BYTE		        Cn1 
	BYTE		N01     Dn1 
	BYTE		N01     Gn1 
	BYTE	W12
	BYTE		        Dn1 
	BYTE		N01     Gn1 
	BYTE	W12
	BYTE		        Cn1 
	BYTE		N01     Dn1 
	BYTE		N01     Gn1 
	BYTE	W12
	BYTE		        Dn1 
	BYTE		N01     Gn1 
	BYTE	W12
	BYTE	PEND
// 027   ----------------------------------------
kawaikutegomen_FINAL_10_027:
	BYTE		N01     Cn1   v088
	BYTE		N01     Dn1 
	BYTE		N01     An2 
	BYTE	W96
	BYTE	PEND
// 028   ----------------------------------------
	BYTE		        Cn1 
	BYTE		N01     Dn1 
	BYTE	W06
	BYTE		N01   
	BYTE	W06
	BYTE		N01   
	BYTE	W06
	BYTE		N01   
	BYTE	W06
	BYTE		        Cn1 
	BYTE		N01     Dn1 
	BYTE	W06
	BYTE		N01   
	BYTE	W06
	BYTE		N01   
	BYTE	W06
	BYTE		N01   
	BYTE	W06
	BYTE		        Cn1 
	BYTE		N01     Dn1 
	BYTE	W06
	BYTE		        Bn1 
	BYTE	W06
	BYTE		        Gn1 
	BYTE	W12
	BYTE		        Dn1 
	BYTE		N01     Gn1 
	BYTE	W24
// 029   ----------------------------------------
	BYTE		        Cn1 
	BYTE		N01     Cs2 
	BYTE		N01     An2 
	BYTE	W24
	BYTE		        Cn1 
	BYTE		N01     Dn1 
	BYTE	W12
	BYTE		        Fs1 
	BYTE	W12
	BYTE		        Cn1 
	BYTE	W12
	BYTE		        Fs1 
	BYTE	W12
	BYTE		        Cn1 
	BYTE		N01     Dn1 
	BYTE	W12
	BYTE		        Fs1 
	BYTE	W12
// 030   ----------------------------------------
	BYTE	PATT
	 POIN2	kawaikutegomen_FINAL_10_010
// 031   ----------------------------------------
	BYTE	PATT
	 POIN2	kawaikutegomen_FINAL_10_011
// 032   ----------------------------------------
	BYTE	PATT
	 POIN2	kawaikutegomen_FINAL_10_010
// 033   ----------------------------------------
	BYTE	PATT
	 POIN2	kawaikutegomen_FINAL_10_011
// 034   ----------------------------------------
	BYTE	PATT
	 POIN2	kawaikutegomen_FINAL_10_010
// 035   ----------------------------------------
	BYTE	PATT
	 POIN2	kawaikutegomen_FINAL_10_011
// 036   ----------------------------------------
kawaikutegomen_FINAL_10_036:
	BYTE		N01     Cn1   v088
	BYTE		N01     Dn1 
	BYTE	W06
	BYTE		        Bn1 
	BYTE	W06
	BYTE		        Gn1 
	BYTE	W12
	BYTE		        Cn1 
	BYTE		N01     Cs2 
	BYTE	W24
	BYTE		        Cn1 
	BYTE		N01     An2 
	BYTE	W12
	BYTE		        Dn1 
	BYTE	W06
	BYTE		N01   
	BYTE	W06
	BYTE		N01   
	BYTE	W06
	BYTE		N01   
	BYTE	W06
	BYTE		N01   
	BYTE	W06
	BYTE		N01   
	BYTE	W06
	BYTE	PEND
// 037   ----------------------------------------
	BYTE	PATT
	 POIN2	kawaikutegomen_FINAL_10_009
// 038   ----------------------------------------
	BYTE	PATT
	 POIN2	kawaikutegomen_FINAL_10_010
// 039   ----------------------------------------
	BYTE	PATT
	 POIN2	kawaikutegomen_FINAL_10_011
// 040   ----------------------------------------
kawaikutegomen_FINAL_10_040:
	BYTE		N01     Cn1   v088
	BYTE	W12
	BYTE		        Fs1 
	BYTE	W12
	BYTE		        Cn1 
	BYTE		N01     Dn1 
	BYTE	W12
	BYTE		        Fs1 
	BYTE	W12
	BYTE		        Cn1 
	BYTE	W12
	BYTE		        Dn1 
	BYTE	W06
	BYTE		N01   
	BYTE	W06
	BYTE		        Cn1 
	BYTE		N01     Dn1 
	BYTE	W06
	BYTE		N01   
	BYTE	W06
	BYTE		N01   
	BYTE	W06
	BYTE		N01   
	BYTE	W06
	BYTE	PEND
// 041   ----------------------------------------
kawaikutegomen_FINAL_10_041:
	BYTE		N01     Cn1   v088
	BYTE		N01     An2 
	BYTE	W24
	BYTE		        Cn1 
	BYTE		N01     Dn1 
	BYTE	W12
	BYTE		        Fs1 
	BYTE	W12
	BYTE		        Cn1 
	BYTE	W12
	BYTE		        Fs1 
	BYTE	W12
	BYTE		        Cn1 
	BYTE		N01     Dn1 
	BYTE	W12
	BYTE		        Fs1 
	BYTE	W12
	BYTE	PEND
// 042   ----------------------------------------
	BYTE	PATT
	 POIN2	kawaikutegomen_FINAL_10_010
// 043   ----------------------------------------
kawaikutegomen_FINAL_10_043:
	BYTE		N01     Cn1   v088
	BYTE	W12
	BYTE		        Fs1 
	BYTE	W12
	BYTE		        Cn1 
	BYTE		N01     Dn1 
	BYTE	W12
	BYTE		        Fs1 
	BYTE	W12
	BYTE		        Cn1 
	BYTE	W12
	BYTE		        Fs1 
	BYTE	W12
	BYTE		        Cn1 
	BYTE		N01     Dn1 
	BYTE	W12
	BYTE		N01   
	BYTE	W06
	BYTE		N01   
	BYTE	W06
	BYTE	PEND
// 044   ----------------------------------------
kawaikutegomen_FINAL_10_044:
	BYTE		N01     Cn1   v088
	BYTE		N01     Cs2 
	BYTE	W12
	BYTE		        Dn1 
	BYTE	W06
	BYTE		N01   
	BYTE	W06
	BYTE		        Cn1 
	BYTE		N01     Dn1 
	BYTE	W06
	BYTE		N01   
	BYTE	W06
	BYTE		N01   
	BYTE	W06
	BYTE		N01   
	BYTE	W06
	BYTE		        Cn1 
	BYTE		N01     Dn1 
	BYTE		N01     Cn2 
	BYTE	W06
	BYTE		        Dn1 
	BYTE		N01     Cn2 
	BYTE	W06
	BYTE		        An1 
	BYTE	W06
	BYTE		        Gn1 
	BYTE	W06
	BYTE		        Cn1 
	BYTE		N01     An2 
	BYTE	W24
	BYTE	PEND
// 045   ----------------------------------------
	BYTE	W96
// 046   ----------------------------------------
	BYTE	W96
// 047   ----------------------------------------
	BYTE	PATT
	 POIN2	kawaikutegomen_FINAL_10_009
// 048   ----------------------------------------
	BYTE	PATT
	 POIN2	kawaikutegomen_FINAL_10_010
// 049   ----------------------------------------
	BYTE	PATT
	 POIN2	kawaikutegomen_FINAL_10_011
// 050   ----------------------------------------
kawaikutegomen_FINAL_10_050:
	BYTE		N01     Cn1   v088
	BYTE		N01     Fs1 
	BYTE	W06
	BYTE		        Dn1 
	BYTE	W06
	BYTE		        Fs1 
	BYTE	W12
	BYTE		        Cn1 
	BYTE		N01     Dn1 
	BYTE		N01     Cs2 
	BYTE	W24
	BYTE		        Cn1 
	BYTE		N01     Dn1 
	BYTE	W12
	BYTE		N01   
	BYTE	W06
	BYTE		N01   
	BYTE	W06
	BYTE		        Cn1 
	BYTE		N01     Dn1 
	BYTE	W12
	BYTE		N01   
	BYTE	W06
	BYTE		N01   
	BYTE	W06
	BYTE	PEND
// 051   ----------------------------------------
	BYTE	PATT
	 POIN2	kawaikutegomen_FINAL_10_041
// 052   ----------------------------------------
	BYTE	PATT
	 POIN2	kawaikutegomen_FINAL_10_010
// 053   ----------------------------------------
	BYTE	PATT
	 POIN2	kawaikutegomen_FINAL_10_043
// 054   ----------------------------------------
	BYTE		N01     Cn1   v088
	BYTE		N01     Cs2 
	BYTE	W12
	BYTE		        Dn1 
	BYTE	W06
	BYTE		N01   
	BYTE	W06
	BYTE		        Cn1 
	BYTE		N01     Dn1 
	BYTE	W12
	BYTE		N01   
	BYTE	W06
	BYTE		N01   
	BYTE	W06
	BYTE		        Cn1 
	BYTE		N01     Fs1 
	BYTE	W12
	BYTE		        Dn1 
	BYTE	W06
	BYTE		N01   
	BYTE	W06
	BYTE		        Cn1 
	BYTE	W12
	BYTE		        Dn1 
	BYTE	W12
// 055   ----------------------------------------
	BYTE		        Cn1 
	BYTE	W12
	BYTE		        Fs1 
	BYTE	W12
	BYTE		        Cn1 
	BYTE	W12
	BYTE		        Fs1 
	BYTE	W12
	BYTE		        Cn1 
	BYTE	W12
	BYTE		        Fs1 
	BYTE	W12
	BYTE		        Cn1 
	BYTE	W12
	BYTE		        Fs1 
	BYTE	W06
	BYTE		N01   
	BYTE	W06
// 056   ----------------------------------------
	BYTE		        Cn1 
	BYTE	W12
	BYTE		        Fs1 
	BYTE	W12
	BYTE		        Cn1 
	BYTE	W12
	BYTE		        Fs1 
	BYTE	W12
	BYTE		        Cn1 
	BYTE	W12
	BYTE		        As1 
	BYTE	W12
	BYTE		        Cn1 
	BYTE	W12
	BYTE		        Fs1 
	BYTE	W12
// 057   ----------------------------------------
	BYTE		        Cn1 
	BYTE	W12
	BYTE		        Fs1 
	BYTE	W12
	BYTE		        Cn1 
	BYTE	W12
	BYTE		        Fs1 
	BYTE	W06
	BYTE		N01   
	BYTE	W06
	BYTE		        Cn1 
	BYTE	W12
	BYTE		        Fs1 
	BYTE	W12
	BYTE		        Cn1 
	BYTE	W12
	BYTE		        Fs1 
	BYTE	W12
// 058   ----------------------------------------
	BYTE		        Cn1 
	BYTE	W12
	BYTE		        Fs1 
	BYTE	W12
	BYTE		        Cn1 
	BYTE	W06
	BYTE		        Fs1 
	BYTE	W06
	BYTE		        As1 
	BYTE	W12
	BYTE		        Cn1 
	BYTE		N01     Gn2 
	BYTE	W18
	BYTE		        Dn1 
	BYTE	W06
	BYTE		        Cn1 
	BYTE		N01     Dn1 
	BYTE	W06
	BYTE		N01   
	BYTE	W06
	BYTE		        Gn1 
	BYTE	W12
// 059   ----------------------------------------
	BYTE		        Cn1 
	BYTE		N01     An2 
	BYTE	W12
	BYTE		        Fs1 
	BYTE	W12
	BYTE		        Cn1 
	BYTE		N01     Dn1 
	BYTE	W12
	BYTE		        Fs1 
	BYTE	W12
	BYTE		        Cn1 
	BYTE	W12
	BYTE		        Fs1 
	BYTE	W12
	BYTE		        Cn1 
	BYTE		N01     Dn1 
	BYTE	W12
	BYTE		        Fs1 
	BYTE	W12
// 060   ----------------------------------------
	BYTE	PATT
	 POIN2	kawaikutegomen_FINAL_10_010
// 061   ----------------------------------------
	BYTE	PATT
	 POIN2	kawaikutegomen_FINAL_10_011
// 062   ----------------------------------------
	BYTE		N01     Cn1   v088
	BYTE		N01     Fs1 
	BYTE	W12
	BYTE		N01   
	BYTE	W12
	BYTE		        Cn1 
	BYTE		N01     Cs2 
	BYTE	W24
	BYTE		        Cn1 
	BYTE		N01     Dn1 
	BYTE	W12
	BYTE		        Cn2 
	BYTE	W06
	BYTE		N01   
	BYTE	W06
	BYTE		        Cn1 
	BYTE		N01     An1 
	BYTE	W06
	BYTE		N01   
	BYTE	W06
	BYTE		        Gn1 
	BYTE	W06
	BYTE		N01   
	BYTE	W06
// 063   ----------------------------------------
	BYTE	PATT
	 POIN2	kawaikutegomen_FINAL_10_017
// 064   ----------------------------------------
	BYTE	PATT
	 POIN2	kawaikutegomen_FINAL_10_018
// 065   ----------------------------------------
	BYTE	PATT
	 POIN2	kawaikutegomen_FINAL_10_018
// 066   ----------------------------------------
	BYTE	PATT
	 POIN2	kawaikutegomen_FINAL_10_020
// 067   ----------------------------------------
	BYTE	PATT
	 POIN2	kawaikutegomen_FINAL_10_021
// 068   ----------------------------------------
	BYTE	PATT
	 POIN2	kawaikutegomen_FINAL_10_022
// 069   ----------------------------------------
	BYTE	PATT
	 POIN2	kawaikutegomen_FINAL_10_023
// 070   ----------------------------------------
	BYTE	PATT
	 POIN2	kawaikutegomen_FINAL_10_024
// 071   ----------------------------------------
	BYTE	PATT
	 POIN2	kawaikutegomen_FINAL_10_025
// 072   ----------------------------------------
	BYTE	PATT
	 POIN2	kawaikutegomen_FINAL_10_026
// 073   ----------------------------------------
	BYTE	PATT
	 POIN2	kawaikutegomen_FINAL_10_027
// 074   ----------------------------------------
	BYTE		N01     Cn1   v088
	BYTE		N01     Cn2 
	BYTE	W06
	BYTE		        Dn1 
	BYTE	W06
	BYTE		        Cn2 
	BYTE	W06
	BYTE		        Dn1 
	BYTE	W06
	BYTE		        Cn1 
	BYTE		N01     Cn2 
	BYTE	W06
	BYTE		        Dn1 
	BYTE	W06
	BYTE		        As1 
	BYTE	W12
	BYTE		        Cn1 
	BYTE	W12
	BYTE		        Gn1 
	BYTE	W06
	BYTE		N01   
	BYTE	W06
	BYTE		        Cn1 
	BYTE		N01     An2 
	BYTE	W24
// 075   ----------------------------------------
	BYTE	PATT
	 POIN2	kawaikutegomen_FINAL_10_009
// 076   ----------------------------------------
	BYTE	PATT
	 POIN2	kawaikutegomen_FINAL_10_010
// 077   ----------------------------------------
	BYTE	PATT
	 POIN2	kawaikutegomen_FINAL_10_011
// 078   ----------------------------------------
	BYTE	PATT
	 POIN2	kawaikutegomen_FINAL_10_010
// 079   ----------------------------------------
	BYTE	PATT
	 POIN2	kawaikutegomen_FINAL_10_011
// 080   ----------------------------------------
	BYTE	PATT
	 POIN2	kawaikutegomen_FINAL_10_010
// 081   ----------------------------------------
	BYTE	PATT
	 POIN2	kawaikutegomen_FINAL_10_011
// 082   ----------------------------------------
	BYTE	PATT
	 POIN2	kawaikutegomen_FINAL_10_036
// 083   ----------------------------------------
	BYTE	PATT
	 POIN2	kawaikutegomen_FINAL_10_009
// 084   ----------------------------------------
	BYTE	PATT
	 POIN2	kawaikutegomen_FINAL_10_010
// 085   ----------------------------------------
	BYTE	PATT
	 POIN2	kawaikutegomen_FINAL_10_011
// 086   ----------------------------------------
	BYTE	PATT
	 POIN2	kawaikutegomen_FINAL_10_040
// 087   ----------------------------------------
	BYTE	PATT
	 POIN2	kawaikutegomen_FINAL_10_041
// 088   ----------------------------------------
	BYTE	PATT
	 POIN2	kawaikutegomen_FINAL_10_010
// 089   ----------------------------------------
	BYTE	PATT
	 POIN2	kawaikutegomen_FINAL_10_043
// 090   ----------------------------------------
	BYTE	PATT
	 POIN2	kawaikutegomen_FINAL_10_044
// 091   ----------------------------------------
	BYTE	W96
// 092   ----------------------------------------
	BYTE	W96
// 093   ----------------------------------------
	BYTE		N01     Cn1   v088
	BYTE		N01     Cs2 
	BYTE	W24
	BYTE		        Cn1 
	BYTE		N01     Dn1 
	BYTE		N01     Fs1 
	BYTE	W12
	BYTE		        Dn1 
	BYTE	W12
	BYTE		        Cn1 
	BYTE		N01     Fs1 
	BYTE	W24
	BYTE		        Cn1 
	BYTE		N01     Dn1 
	BYTE		N01     Fs1 
	BYTE	W24
// 094   ----------------------------------------
kawaikutegomen_FINAL_10_094:
	BYTE		N01     Cn1   v088
	BYTE		N01     Fs1 
	BYTE	W24
	BYTE		        Cn1 
	BYTE		N01     Dn1 
	BYTE		N01     Fs1 
	BYTE	W12
	BYTE		        Dn1 
	BYTE	W12
	BYTE		        Cn1 
	BYTE		N01     Fs1 
	BYTE	W24
	BYTE		        Cn1 
	BYTE		N01     Dn1 
	BYTE		N01     Fs1 
	BYTE	W24
	BYTE	PEND
// 095   ----------------------------------------
	BYTE	PATT
	 POIN2	kawaikutegomen_FINAL_10_094
// 096   ----------------------------------------
	BYTE		N01     Cn1   v088
	BYTE		N01     Fs1 
	BYTE	W24
	BYTE		        Cn1 
	BYTE		N01     Dn1 
	BYTE		N01     Fs1 
	BYTE	W12
	BYTE		        Dn1 
	BYTE	W12
	BYTE		        Cn1 
	BYTE		N01     Fs1 
	BYTE	W24
	BYTE		        Cn1 
	BYTE		N01     Fs1 
	BYTE	W12
	BYTE		N01   
	BYTE	W06
	BYTE		N01   
	BYTE	W06
// 097   ----------------------------------------
	BYTE		        Cn1 
	BYTE		N01     An2 
	BYTE	W24
	BYTE		        Cn1 
	BYTE		N01     Dn1 
	BYTE		N01     Fs1 
	BYTE	W12
	BYTE		        Dn1 
	BYTE	W12
	BYTE		        Cn1 
	BYTE		N01     Fs1 
	BYTE	W24
	BYTE		        Cn1 
	BYTE		N01     Dn1 
	BYTE		N01     Fs1 
	BYTE	W24
// 098   ----------------------------------------
	BYTE	PATT
	 POIN2	kawaikutegomen_FINAL_10_094
// 099   ----------------------------------------
	BYTE	PATT
	 POIN2	kawaikutegomen_FINAL_10_094
// 100   ----------------------------------------
	BYTE		N01     Cn1   v088
	BYTE	W12
	BYTE		        Dn1 
	BYTE	W06
	BYTE		N01   
	BYTE	W06
	BYTE		        Cn1 
	BYTE		N01     Dn1 
	BYTE	W12
	BYTE		        Bn1 
	BYTE	W06
	BYTE		N01   
	BYTE	W06
	BYTE		        Cn1 
	BYTE		N01     Bn1 
	BYTE	W12
	BYTE		        An1 
	BYTE	W06
	BYTE		N01   
	BYTE	W06
	BYTE		        Cn1 
	BYTE		N01     An1 
	BYTE	W12
	BYTE		        Gn1 
	BYTE	W12
// 101   ----------------------------------------
	BYTE		        Cn1 
	BYTE		N01     An2 
	BYTE	W24
	BYTE		        Cn1 
	BYTE		N01     Fs1 
	BYTE	W12
	BYTE		N01   
	BYTE	W06
	BYTE		N01   
	BYTE	W06
	BYTE		        Cn1 
	BYTE		N01     Fs1 
	BYTE	W12
	BYTE		N01   
	BYTE	W06
	BYTE		N01   
	BYTE	W06
	BYTE		        Cn1 
	BYTE		N01     Fs1 
	BYTE	W12
	BYTE		N01   
	BYTE	W06
	BYTE		N01   
	BYTE	W06
// 102   ----------------------------------------
	BYTE	PATT
	 POIN2	kawaikutegomen_FINAL_10_021
// 103   ----------------------------------------
	BYTE	PATT
	 POIN2	kawaikutegomen_FINAL_10_021
// 104   ----------------------------------------
	BYTE		N01     Cn1   v088
	BYTE		N01     Fs1 
	BYTE	W12
	BYTE		N01   
	BYTE	W06
	BYTE		N01   
	BYTE	W06
	BYTE		        Cn1 
	BYTE		N01     Fs1 
	BYTE	W12
	BYTE		N01   
	BYTE	W06
	BYTE		N01   
	BYTE	W06
	BYTE		        Cn1 
	BYTE		N01     Fs1 
	BYTE	W12
	BYTE		N01   
	BYTE	W06
	BYTE		N01   
	BYTE	W06
	BYTE		        Cn1 
	BYTE		N01     Fs1 
	BYTE	W12
	BYTE		N01   
	BYTE	W12
// 105   ----------------------------------------
	BYTE		        Cn1 
	BYTE		N01     Cs2 
	BYTE	W12
	BYTE		        Fs1 
	BYTE	W06
	BYTE		N01   
	BYTE	W06
	BYTE		        Cn1 
	BYTE		N01     Fs1 
	BYTE	W12
	BYTE		N01   
	BYTE	W06
	BYTE		N01   
	BYTE	W06
	BYTE		        Cn1 
	BYTE		N01     Fs1 
	BYTE	W12
	BYTE		N01   
	BYTE	W06
	BYTE		N01   
	BYTE	W06
	BYTE		        Cn1 
	BYTE		N01     Fs1 
	BYTE	W12
	BYTE		N01   
	BYTE	W06
	BYTE		N01   
	BYTE	W06
// 106   ----------------------------------------
	BYTE	PATT
	 POIN2	kawaikutegomen_FINAL_10_021
// 107   ----------------------------------------
	BYTE		N01     Cn1   v088
	BYTE		N01     Cs2 
	BYTE	W24
	BYTE		        Cn1 
	BYTE		N01     Dn1 
	BYTE		N01     Gn1 
	BYTE	W12
	BYTE		        Dn1 
	BYTE		N01     Gn1 
	BYTE	W12
	BYTE		        Cn1 
	BYTE		N01     Dn1 
	BYTE		N01     Gn1 
	BYTE	W12
	BYTE		        Dn1 
	BYTE		N01     Gn1 
	BYTE	W12
	BYTE		        Cn1 
	BYTE		N01     Dn1 
	BYTE		N01     Gn1 
	BYTE	W12
	BYTE		        Dn1 
	BYTE		N01     Gn1 
	BYTE	W12
// 108   ----------------------------------------
	BYTE		        Cn1 
	BYTE		N01     Dn1 
	BYTE	W12
	BYTE		N01   
	BYTE	W06
	BYTE		N01   
	BYTE	W06
	BYTE		        Cn1 
	BYTE		N01     Dn1 
	BYTE	W06
	BYTE		N01   
	BYTE	W06
	BYTE		N01   
	BYTE	W06
	BYTE		N01   
	BYTE	W06
	BYTE		        Cn1 
	BYTE		N01     Dn1 
	BYTE	W06
	BYTE		N01   
	BYTE	W06
	BYTE		N01   
	BYTE	W06
	BYTE		N01   
	BYTE	W06
	BYTE		        Cn1 
	BYTE		N01     Dn1 
	BYTE	W06
	BYTE		N01   
	BYTE	W06
	BYTE		N01   
	BYTE	W06
	BYTE		N01   
	BYTE	W06
// 109   ----------------------------------------
	BYTE	PATT
	 POIN2	kawaikutegomen_FINAL_10_041
// 110   ----------------------------------------
	BYTE	PATT
	 POIN2	kawaikutegomen_FINAL_10_010
// 111   ----------------------------------------
	BYTE	PATT
	 POIN2	kawaikutegomen_FINAL_10_011
// 112   ----------------------------------------
	BYTE		N01     Cn1   v088
	BYTE		N01     Fs1 
	BYTE	W12
	BYTE		N01   
	BYTE	W12
	BYTE		        Cn1 
	BYTE		N01     Dn1 
	BYTE		N01     Cs2 
	BYTE	W24
	BYTE		        Cn1 
	BYTE		N01     Dn1 
	BYTE	W12
	BYTE		        Bn1 
	BYTE	W06
	BYTE		N01   
	BYTE	W06
	BYTE		        Cn1 
	BYTE		N01     An1 
	BYTE	W06
	BYTE		N01   
	BYTE	W06
	BYTE		        Gn1 
	BYTE	W06
	BYTE		N01   
	BYTE	W06
// 113   ----------------------------------------
	BYTE	PATT
	 POIN2	kawaikutegomen_FINAL_10_041
// 114   ----------------------------------------
	BYTE	PATT
	 POIN2	kawaikutegomen_FINAL_10_010
// 115   ----------------------------------------
	BYTE	PATT
	 POIN2	kawaikutegomen_FINAL_10_043
// 116   ----------------------------------------
	BYTE		N01     Cn1   v088
	BYTE		N01     An2 
	BYTE	W12
	BYTE		        Dn1 
	BYTE	W06
	BYTE		N01   
	BYTE	W06
	BYTE		        Cn1 
	BYTE		N01     Dn1 
	BYTE	W06
	BYTE		N01   
	BYTE	W06
	BYTE		N01   
	BYTE	W06
	BYTE		N01   
	BYTE	W06
	BYTE		        Cn1 
	BYTE		N01     Bn1 
	BYTE	W06
	BYTE		N01   
	BYTE	W06
	BYTE		        An1 
	BYTE	W06
	BYTE		        Gn1 
	BYTE	W06
	BYTE		        Cn1 
	BYTE		N01     An2 
	BYTE	W12
	BYTE		        Cn5 
	BYTE	W12
// 117   ----------------------------------------
	BYTE	W96
// 118   ----------------------------------------
	BYTE	W96
// 119   ----------------------------------------
	BYTE	W96
// 120   ----------------------------------------
	BYTE	W96
// 121   ----------------------------------------
	BYTE	W96
// 122   ----------------------------------------
	BYTE	W96
// 123   ----------------------------------------
	BYTE	W96
	BYTE	W48
// 124   ----------------------------------------
	BYTE	W96
// 125   ----------------------------------------
	BYTE	W96
// 126   ----------------------------------------
	BYTE	PATT
	 POIN2	kawaikutegomen_FINAL_10_009
// 127   ----------------------------------------
	BYTE	PATT
	 POIN2	kawaikutegomen_FINAL_10_010
// 128   ----------------------------------------
	BYTE	PATT
	 POIN2	kawaikutegomen_FINAL_10_011
// 129   ----------------------------------------
	BYTE	PATT
	 POIN2	kawaikutegomen_FINAL_10_040
// 130   ----------------------------------------
	BYTE	PATT
	 POIN2	kawaikutegomen_FINAL_10_041
// 131   ----------------------------------------
	BYTE	PATT
	 POIN2	kawaikutegomen_FINAL_10_010
// 132   ----------------------------------------
	BYTE	PATT
	 POIN2	kawaikutegomen_FINAL_10_043
// 133   ----------------------------------------
	BYTE	PATT
	 POIN2	kawaikutegomen_FINAL_10_044
// 134   ----------------------------------------
	BYTE	W96
// 135   ----------------------------------------
	BYTE	W96
// 136   ----------------------------------------
	BYTE	PATT
	 POIN2	kawaikutegomen_FINAL_10_009
// 137   ----------------------------------------
	BYTE	PATT
	 POIN2	kawaikutegomen_FINAL_10_010
// 138   ----------------------------------------
	BYTE	PATT
	 POIN2	kawaikutegomen_FINAL_10_011
// 139   ----------------------------------------
	BYTE	PATT
	 POIN2	kawaikutegomen_FINAL_10_050
// 140   ----------------------------------------
	BYTE	PATT
	 POIN2	kawaikutegomen_FINAL_10_041
// 141   ----------------------------------------
	BYTE	PATT
	 POIN2	kawaikutegomen_FINAL_10_010
// 142   ----------------------------------------
	BYTE	PATT
	 POIN2	kawaikutegomen_FINAL_10_043
// 143   ----------------------------------------
	BYTE		N01     Cn1   v088
	BYTE		N01     Cs2 
	BYTE	W24
	BYTE		        Cn1 
	BYTE		N01     Cs2 
	BYTE	W24
	BYTE		        Cn1 
	BYTE		N01     Cs2 
	BYTE	FINE

//******************************************************//
	ALIGN 4

kawaikutegomen_FINAL:
	BYTE	10	// NumTrks
	BYTE	0	// NumBlks
	BYTE	kawaikutegomen_FINAL_pri	// Priority
	BYTE	kawaikutegomen_FINAL_rev	// Reverb.

	POIN2	kawaikutegomen_FINAL_grp

	POIN2	kawaikutegomen_FINAL_1
	POIN2	kawaikutegomen_FINAL_2
	POIN2	kawaikutegomen_FINAL_3
	POIN2	kawaikutegomen_FINAL_4
	POIN2	kawaikutegomen_FINAL_5
	POIN2	kawaikutegomen_FINAL_6
	POIN2	kawaikutegomen_FINAL_7
	POIN2	kawaikutegomen_FINAL_8
	POIN2	kawaikutegomen_FINAL_9
	POIN2	kawaikutegomen_FINAL_10

	
