//Event file generated from Sappy .s format.
	#include "MPlayDef.event"

	#define	Kawanabe_grp  voicegroup000
	#define	Kawanabe_pri  0
	#define	Kawanabe_rev  0
	#define	Kawanabe_mvl  127
	#define	Kawanabe_key  0
	#define	Kawanabe_tbs  1
	#define	Kawanabe_exg  0
	#define	Kawanabe_cmp  1

	// .rodata
	//	Kawanabe
	ALIGN 4


//**************** Track 1 (Midi-Chn.0) ****************//

Kawanabe_001:
//  #01 //000   ----------------------------------------
 BYTE   KEYSH   Kawanabe_key+0
 BYTE   TEMPO   138*Kawanabe_tbs/2
 BYTE   VOICE   100
 BYTE   MODT 0
 BYTE   LFOS 44
 BYTE   BENDR  12
 BYTE   VOL   57*Kawanabe_mvl/mxv
 BYTE   N06  An2  v068
 BYTE   W02
 BYTE   Bn2
 BYTE   W02
 BYTE   Cs3
 BYTE   W01
 BYTE   Dn3
 BYTE   W02
 BYTE   En3
 BYTE   W02
 BYTE   Fs3
 BYTE   W02
 BYTE   Gn3
 BYTE   W01
 BYTE   An3
 BYTE   W02
 BYTE   Bn3
 BYTE   W02
 BYTE   Cs4
 BYTE   W02
 BYTE   Dn4
 BYTE   W01
 BYTE   En4
 BYTE   W02
 BYTE   N08  Fs4
 BYTE   W05
 BYTE   TIE  An4
 BYTE   W68
 BYTE   W02
//  #01 //001   ----------------------------------------
 BYTE   W72
 BYTE   W02
 BYTE   EOT
 BYTE   N24  Cs5
 BYTE   W22
//  #01 //002   ----------------------------------------
Label_D11879:
 BYTE   W02
 BYTE   N24  Dn5  v068
 BYTE   W24
 BYTE   N72  An4
 BYTE   W68
 BYTE   W02
//  #01 //003   ----------------------------------------
 BYTE   W02
 BYTE   N24  Gn4
 BYTE   W24
 BYTE   N36  Fs4
 BYTE   W36
 BYTE   N06  Gn4
 BYTE   W06
 BYTE   Fs4
 BYTE   W06
 BYTE   N48  En4
 BYTE   W22
//  #01 //004   ----------------------------------------
 BYTE   W24
 BYTE   W02
 BYTE   N72  Fs4
 BYTE   W68
 BYTE   W02
//  #01 //005   ----------------------------------------
 BYTE   W02
 BYTE   N12  Cs4
 BYTE   W12
 BYTE   N72  Dn4
 BYTE   W72
 BYTE   N12  Bn3
 BYTE   W10
//  #01 //006   ----------------------------------------
 BYTE   W02
 BYTE   Cs4
 BYTE   W12
 BYTE   Dn4
 BYTE   W12
 BYTE   N60  En4
 BYTE   W60
 BYTE   N12
 BYTE   W10
//  #01 //007   ----------------------------------------
 BYTE   W02
 BYTE   Bn4
 BYTE   W12
 BYTE   TIE  An4
 BYTE   W80
 BYTE   W02
//  #01 //008   ----------------------------------------
 BYTE   W24
 BYTE   W02
 BYTE   EOT
 BYTE   W68
 BYTE   W02
//  #01 //009   ----------------------------------------
 BYTE   W96
//  #01 //010   ----------------------------------------
 BYTE   W96
//  #01 //011   ----------------------------------------
 BYTE   W96
//  #01 //012   ----------------------------------------
 BYTE   W96
//  #01 //013   ----------------------------------------
 BYTE   W96
//  #01 //014   ----------------------------------------
 BYTE   W96
//  #01 //015   ----------------------------------------
 BYTE   W96
//  #01 //016   ----------------------------------------
 BYTE   W96
//  #01 //017   ----------------------------------------
 BYTE   W96
//  #01 //018   ----------------------------------------
 BYTE   W96
//  #01 //019   ----------------------------------------
 BYTE   W96
//  #01 //020   ----------------------------------------
 BYTE   W96
//  #01 //021   ----------------------------------------
 BYTE   W96
//  #01 //022   ----------------------------------------
 BYTE   W96
//  #01 //023   ----------------------------------------
 BYTE   W96
//  #01 //024   ----------------------------------------
 BYTE   W96
//  #01 //025   ----------------------------------------
 BYTE   W96
//  #01 //026   ----------------------------------------
 BYTE   W96
//  #01 //027   ----------------------------------------
 BYTE   W96
//  #01 //028   ----------------------------------------
 BYTE   W96
//  #01 //029   ----------------------------------------
 BYTE   W96
//  #01 //030   ----------------------------------------
 BYTE   W96
//  #01 //031   ----------------------------------------
 BYTE   W96
//  #01 //032   ----------------------------------------
 BYTE   W96
//  #01 //033   ----------------------------------------
 BYTE   W96
//  #01 //034   ----------------------------------------
 BYTE   W96
//  #01 //035   ----------------------------------------
 BYTE   W96
//  #01 //036   ----------------------------------------
 BYTE   W96
//  #01 //037   ----------------------------------------
 BYTE   W96
//  #01 //038   ----------------------------------------
 BYTE   W96
//  #01 //039   ----------------------------------------
 BYTE   W96
//  #01 //040   ----------------------------------------
 BYTE   W96
//  #01 //041   ----------------------------------------
 BYTE   W96
//  #01 //042   ----------------------------------------
 BYTE   W96
//  #01 //043   ----------------------------------------
 BYTE   W96
//  #01 //044   ----------------------------------------
 BYTE   W96
//  #01 //045   ----------------------------------------
 BYTE   W96
//  #01 //046   ----------------------------------------
 BYTE   W96
//  #01 //047   ----------------------------------------
 BYTE   W96
//  #01 //048   ----------------------------------------
 BYTE   W96
//  #01 //049   ----------------------------------------
 BYTE   N06  An2
 BYTE   W02
 BYTE   Bn2
 BYTE   W02
 BYTE   Cs3
 BYTE   W01
 BYTE   Dn3
 BYTE   W02
 BYTE   En3
 BYTE   W02
 BYTE   Fs3
 BYTE   W02
 BYTE   Gn3
 BYTE   W01
 BYTE   An3
 BYTE   W02
 BYTE   Bn3
 BYTE   W02
 BYTE   Cs4
 BYTE   W02
 BYTE   Dn4
 BYTE   W01
 BYTE   En4
 BYTE   W02
 BYTE   N08  Fs4
 BYTE   W05
 BYTE   TIE  An4
 BYTE   W68
 BYTE   W02
//  #01 //050   ----------------------------------------
 BYTE   W72
 BYTE   W02
 BYTE   EOT
 BYTE   N24  Cs5
 BYTE   W22
//  #01 //051   ----------------------------------------
 BYTE   GoTo
  POIN2 Label_D11879
//  #01 //052   ----------------------------------------
 BYTE   W02
 BYTE   FINE

//**************** Track 2 (Midi-Chn.1) ****************//

Kawanabe_002:
//  #02 //000   ----------------------------------------
 BYTE   KEYSH   Kawanabe_key+0
 BYTE   VOICE   75
 BYTE   MODT 0
 BYTE   LFOS 44
 BYTE   BENDR  12
 BYTE   PAN   c_v-13
 BYTE   VOL   53*Kawanabe_mvl/mxv
 BYTE   W96
//  #02 //001   ----------------------------------------
 BYTE   W96
//  #02 //002   ----------------------------------------
Label_402268:
 BYTE   W96
//  #02 //003   ----------------------------------------
 BYTE   W96
//  #02 //004   ----------------------------------------
 BYTE   W96
//  #02 //005   ----------------------------------------
 BYTE   W96
//  #02 //006   ----------------------------------------
 BYTE   W96
//  #02 //007   ----------------------------------------
 BYTE   W96
//  #02 //008   ----------------------------------------
Label_40226E:
 BYTE   W24
 BYTE   W02
 BYTE   N24  Fs4  v068
 BYTE   W24
 BYTE   N12  Gn4
 BYTE   W12
 BYTE   Fs4
 BYTE   W32
 BYTE   W02
 BYTE   PEND 
//  #02 //009   ----------------------------------------
Label_40227B:
 BYTE   W60
 BYTE   W02
 BYTE   N12  An4  v068
 BYTE   W12
 BYTE   Gn4
 BYTE   W12
 BYTE   Fs4
 BYTE   W10
 BYTE   PEND 
//  #02 //010   ----------------------------------------
Label_402286:
 BYTE   W02
 BYTE   N12  Dn4  v068
 BYTE   W12
 BYTE   En4
 BYTE   W12
 BYTE   N24  Fs4
 BYTE   W24
 BYTE   N12  Gn4
 BYTE   W12
 BYTE   Fs4
 BYTE   W32
 BYTE   W02
 BYTE   PEND 
//  #02 //011   ----------------------------------------
Label_402297:
 BYTE   W60
 BYTE   W02
 BYTE   N12  Gn4  v068
 BYTE   W12
 BYTE   Fs4
 BYTE   W12
 BYTE   En4
 BYTE   W10
 BYTE   PEND 
//  #02 //012   ----------------------------------------
Label_4022A2:
 BYTE   W02
 BYTE   N12  Dn4  v068
 BYTE   W12
 BYTE   An3
 BYTE   W12
 BYTE   Bn3
 BYTE   W48
 BYTE   N12
 BYTE   W12
 BYTE   Cs4
 BYTE   W10
 BYTE   PEND 
//  #02 //013   ----------------------------------------
Label_4022B0:
 BYTE   W02
 BYTE   N12  Dn4  v068
 BYTE   W12
 BYTE   N48  An3
 BYTE   W48
 BYTE   N06  Dn4
 BYTE   W06
 BYTE   Cs4
 BYTE   W06
 BYTE   N12  Dn4
 BYTE   W22
 BYTE   PEND 
//  #02 //014   ----------------------------------------
 BYTE   W14
 BYTE   N12
 BYTE   W12
 BYTE   Gn4
 BYTE   W36
 BYTE   Fs4
 BYTE   W12
 BYTE   Gn4
 BYTE   W22
//  #02 //015   ----------------------------------------
 BYTE   W14
 BYTE   An4
 BYTE   W12
 BYTE   Fs4
 BYTE   W12
 BYTE   N06  Dn4
 BYTE   W12
 BYTE   Fs4
 BYTE   W12
 BYTE   N12  En4
 BYTE   W32
 BYTE   W02
//  #02 //016   ----------------------------------------
 BYTE   PATT
  POIN2 Label_40226E
//  #02 //017   ----------------------------------------
 BYTE   PATT
  POIN2 Label_40227B
//  #02 //018   ----------------------------------------
 BYTE   PATT
  POIN2 Label_402286
//  #02 //019   ----------------------------------------
 BYTE   PATT
  POIN2 Label_402297
//  #02 //020   ----------------------------------------
 BYTE   PATT
  POIN2 Label_4022A2
//  #02 //021   ----------------------------------------
 BYTE   PATT
  POIN2 Label_4022B0
//  #02 //022   ----------------------------------------
 BYTE   W14
 BYTE   N12  Dn4  v068
 BYTE   W12
 BYTE   Gn4
 BYTE   W36
 BYTE   Fs4
 BYTE   W12
 BYTE   En4
 BYTE   W22
//  #02 //023   ----------------------------------------
 BYTE   W14
 BYTE   Fs4
 BYTE   W12
 BYTE   En4
 BYTE   W12
 BYTE   N06  Dn4
 BYTE   W12
 BYTE   Cs4
 BYTE   W12
 BYTE   N12  Dn4
 BYTE   W32
 BYTE   W02
//  #02 //024   ----------------------------------------
 BYTE   W02
 BYTE   An3
 BYTE   W12
 BYTE   Bn3
 BYTE   W12
 BYTE   Cn4
 BYTE   W36
 BYTE   N36  Gn4
 BYTE   W32
 BYTE   W02
//  #02 //025   ----------------------------------------
 BYTE   W14
 BYTE   N12
 BYTE   W12
 BYTE   Fs4
 BYTE   W48
 BYTE   N12
 BYTE   W12
 BYTE   Gn4
 BYTE   W10
//  #02 //026   ----------------------------------------
 BYTE   W02
 BYTE   Fs4
 BYTE   W12
 BYTE   En4
 BYTE   W12
 BYTE   N24  Fs4
 BYTE   W24
 BYTE   N09  Bn3
 BYTE   W12
 BYTE   N48  Dn4
 BYTE   W32
 BYTE   W02
//  #02 //027   ----------------------------------------
 BYTE   W72
 BYTE   W02
 BYTE   N24  Bn3
 BYTE   W22
//  #02 //028   ----------------------------------------
 BYTE   W02
 BYTE   Cs4
 BYTE   W24
 BYTE   N48  Dn4
 BYTE   W60
 BYTE   N12  Bn3
 BYTE   W10
//  #02 //029   ----------------------------------------
 BYTE   W02
 BYTE   Dn4
 BYTE   W12
 BYTE   Fs4
 BYTE   W12
 BYTE   N24  En4
 BYTE   W24
 BYTE   N24
 BYTE   W24
 BYTE   Gs4
 BYTE   W22
//  #02 //030   ----------------------------------------
 BYTE   W02
 BYTE   An4
 BYTE   W48
 BYTE   Bn4
 BYTE   W24
 BYTE   N12
 BYTE   W12
 BYTE   Cs5
 BYTE   W10
//  #02 //031   ----------------------------------------
 BYTE   W02
 BYTE   Bn4
 BYTE   W12
 BYTE   N48  An4
 BYTE   W60
 BYTE   N24  Fs4
 BYTE   W22
//  #02 //032   ----------------------------------------
Label_40235E:
 BYTE   W02
 BYTE   N24  Gn4  v068
 BYTE   W24
 BYTE   N90  An4
 BYTE   W68
 BYTE   W02
 BYTE   PEND 
//  #02 //033   ----------------------------------------
Label_402368:
 BYTE   W48
 BYTE   W02
 BYTE   N24  Dn5  v068
 BYTE   W24
 BYTE   Cs5
 BYTE   W22
 BYTE   PEND 
//  #02 //034   ----------------------------------------
Label_402371:
 BYTE   W02
 BYTE   N12  Dn5  v068
 BYTE   W24
 BYTE   N24  An4
 BYTE   W36
 BYTE   N06  Gn4
 BYTE   W06
 BYTE   Fs4
 BYTE   W06
 BYTE   N48  Gn4
 BYTE   W22
 BYTE   PEND 
//  #02 //035   ----------------------------------------
Label_402382:
 BYTE   W48
 BYTE   W02
 BYTE   N24  En4  v068
 BYTE   W24
 BYTE   Fs4
 BYTE   W22
 BYTE   PEND 
//  #02 //036   ----------------------------------------
Label_40238B:
 BYTE   W02
 BYTE   N24  Gn4  v068
 BYTE   W24
 BYTE   N60  An4
 BYTE   W68
 BYTE   W02
 BYTE   PEND 
//  #02 //037   ----------------------------------------
Label_402395:
 BYTE   W02
 BYTE   N12  Cs4  v068
 BYTE   W12
 BYTE   N60  Dn4
 BYTE   W72
 BYTE   N12  Bn3
 BYTE   W10
 BYTE   PEND 
//  #02 //038   ----------------------------------------
Label_4023A1:
 BYTE   W02
 BYTE   N12  Cs4  v068
 BYTE   W12
 BYTE   Dn4
 BYTE   W12
 BYTE   N72  En4
 BYTE   W68
 BYTE   W02
 BYTE   PEND 
//  #02 //039   ----------------------------------------
 BYTE   W72
 BYTE   W02
 BYTE   N24  Fs4
 BYTE   W22
//  #02 //040   ----------------------------------------
 BYTE   PATT
  POIN2 Label_40235E
//  #02 //041   ----------------------------------------
 BYTE   PATT
  POIN2 Label_402368
//  #02 //042   ----------------------------------------
 BYTE   PATT
  POIN2 Label_402371
//  #02 //043   ----------------------------------------
 BYTE   PATT
  POIN2 Label_402382
//  #02 //044   ----------------------------------------
 BYTE   PATT
  POIN2 Label_40238B
//  #02 //045   ----------------------------------------
 BYTE   PATT
  POIN2 Label_402395
//  #02 //046   ----------------------------------------
 BYTE   PATT
  POIN2 Label_4023A1
//  #02 //047   ----------------------------------------
 BYTE   W24
 BYTE   W02
 BYTE   N24  Cs4  v068
 BYTE   W24
 BYTE   N12  Dn4
 BYTE   W12
 BYTE   En4
 BYTE   W24
 BYTE   Dn4
 BYTE   W10
//  #02 //048   ----------------------------------------
 BYTE   W02
 BYTE   Cs4
 BYTE   W12
 BYTE   N84  Dn4
 BYTE   W80
 BYTE   W02
//  #02 //049   ----------------------------------------
 BYTE   W96
//  #02 //050   ----------------------------------------
 BYTE   W96
//  #02 //051   ----------------------------------------
 BYTE   GoTo
  POIN2 Label_402268
 BYTE   FINE

//**************** Track 3 (Midi-Chn.2) ****************//

Kawanabe_003:
//  #03 //000   ----------------------------------------
 BYTE   KEYSH   Kawanabe_key+0
 BYTE   VOICE   11
 BYTE   MODT 0
 BYTE   LFOS 44
 BYTE   BENDR  12
 BYTE   PAN   c_v+55
 BYTE   VOL   33*Kawanabe_mvl/mxv
 BYTE   W96
//  #03 //001   ----------------------------------------
 BYTE   W96
//  #03 //002   ----------------------------------------
Label_AB073C:
 BYTE   W96
//  #03 //003   ----------------------------------------
 BYTE   W96
//  #03 //004   ----------------------------------------
 BYTE   W96
//  #03 //005   ----------------------------------------
 BYTE   W96
//  #03 //006   ----------------------------------------
 BYTE   W96
//  #03 //007   ----------------------------------------
 BYTE   W96
//  #03 //008   ----------------------------------------
Label_AB0742:
 BYTE   W24
 BYTE   W02
 BYTE   N24  Fs5  v068
 BYTE   W24
 BYTE   N12  Gn5
 BYTE   W12
 BYTE   Fs5
 BYTE   W32
 BYTE   W02
 BYTE   PEND 
//  #03 //009   ----------------------------------------
Label_AB074F:
 BYTE   W60
 BYTE   W02
 BYTE   N12  An5  v068
 BYTE   W12
 BYTE   Gn5
 BYTE   W12
 BYTE   Fs5
 BYTE   W10
 BYTE   PEND 
//  #03 //010   ----------------------------------------
Label_AB075A:
 BYTE   W02
 BYTE   N12  Dn5  v068
 BYTE   W12
 BYTE   En5
 BYTE   W12
 BYTE   N24  Fs5
 BYTE   W24
 BYTE   N12  Gn5
 BYTE   W12
 BYTE   Fs5
 BYTE   W32
 BYTE   W02
 BYTE   PEND 
//  #03 //011   ----------------------------------------
Label_AB076B:
 BYTE   W60
 BYTE   W02
 BYTE   N12  Gn5  v068
 BYTE   W12
 BYTE   Fs5
 BYTE   W12
 BYTE   En5
 BYTE   W10
 BYTE   PEND 
//  #03 //012   ----------------------------------------
Label_AB0776:
 BYTE   W02
 BYTE   N12  Dn5  v068
 BYTE   W12
 BYTE   An4
 BYTE   W12
 BYTE   Bn4
 BYTE   W48
 BYTE   N12
 BYTE   W12
 BYTE   Cs5
 BYTE   W10
 BYTE   PEND 
//  #03 //013   ----------------------------------------
Label_AB0784:
 BYTE   W02
 BYTE   N12  Dn5  v068
 BYTE   W12
 BYTE   N48  An4
 BYTE   W48
 BYTE   N06  Dn5
 BYTE   W06
 BYTE   Cs5
 BYTE   W06
 BYTE   N12  Dn5
 BYTE   W22
 BYTE   PEND 
//  #03 //014   ----------------------------------------
 BYTE   W14
 BYTE   N12
 BYTE   W12
 BYTE   Gn5
 BYTE   W36
 BYTE   Fs5
 BYTE   W12
 BYTE   Gn5
 BYTE   W22
//  #03 //015   ----------------------------------------
 BYTE   W14
 BYTE   An5
 BYTE   W12
 BYTE   Fs5
 BYTE   W12
 BYTE   N06  Dn5
 BYTE   W12
 BYTE   Fs5
 BYTE   W12
 BYTE   N12  En5
 BYTE   W32
 BYTE   W02
//  #03 //016   ----------------------------------------
 BYTE   PATT
  POIN2 Label_AB0742
//  #03 //017   ----------------------------------------
 BYTE   PATT
  POIN2 Label_AB074F
//  #03 //018   ----------------------------------------
 BYTE   PATT
  POIN2 Label_AB075A
//  #03 //019   ----------------------------------------
 BYTE   PATT
  POIN2 Label_AB076B
//  #03 //020   ----------------------------------------
 BYTE   PATT
  POIN2 Label_AB0776
//  #03 //021   ----------------------------------------
 BYTE   PATT
  POIN2 Label_AB0784
//  #03 //022   ----------------------------------------
 BYTE   W14
 BYTE   N12  Dn5  v068
 BYTE   W12
 BYTE   Gn5
 BYTE   W36
 BYTE   Fs5
 BYTE   W12
 BYTE   En5
 BYTE   W22
//  #03 //023   ----------------------------------------
 BYTE   W14
 BYTE   Fs5
 BYTE   W12
 BYTE   En5
 BYTE   W12
 BYTE   N06  Dn5
 BYTE   W12
 BYTE   Cs5
 BYTE   W12
 BYTE   N12  Dn5
 BYTE   W32
 BYTE   W02
//  #03 //024   ----------------------------------------
 BYTE   W02
 BYTE   An4
 BYTE   W12
 BYTE   Bn4
 BYTE   W12
 BYTE   Cn5
 BYTE   W36
 BYTE   N36  Gn5
 BYTE   W32
 BYTE   W02
//  #03 //025   ----------------------------------------
 BYTE   W14
 BYTE   N12
 BYTE   W12
 BYTE   Fs5
 BYTE   W48
 BYTE   N12
 BYTE   W12
 BYTE   Gn5
 BYTE   W10
//  #03 //026   ----------------------------------------
 BYTE   W02
 BYTE   Fs5
 BYTE   W12
 BYTE   En5
 BYTE   W12
 BYTE   N24  Fs5
 BYTE   W24
 BYTE   N09  Bn4
 BYTE   W12
 BYTE   N48  Dn5
 BYTE   W32
 BYTE   W02
//  #03 //027   ----------------------------------------
 BYTE   W72
 BYTE   W02
 BYTE   N24  Bn4
 BYTE   W22
//  #03 //028   ----------------------------------------
 BYTE   W02
 BYTE   Cs5
 BYTE   W24
 BYTE   N48  Dn5
 BYTE   W60
 BYTE   N12  Bn4
 BYTE   W10
//  #03 //029   ----------------------------------------
 BYTE   W02
 BYTE   Dn5
 BYTE   W12
 BYTE   Fs5
 BYTE   W12
 BYTE   N24  En5
 BYTE   W24
 BYTE   N24
 BYTE   W24
 BYTE   Gs5
 BYTE   W22
//  #03 //030   ----------------------------------------
 BYTE   W02
 BYTE   An5
 BYTE   W48
 BYTE   Bn5
 BYTE   W24
 BYTE   N12
 BYTE   W12
 BYTE   Cs6
 BYTE   W10
//  #03 //031   ----------------------------------------
 BYTE   W02
 BYTE   Bn5
 BYTE   W12
 BYTE   N48  An5
 BYTE   W60
 BYTE   N24  Fs5
 BYTE   W22
//  #03 //032   ----------------------------------------
Label_AB0832:
 BYTE   W02
 BYTE   N24  Gn5  v068
 BYTE   W24
 BYTE   N90  An5
 BYTE   W68
 BYTE   W02
 BYTE   PEND 
//  #03 //033   ----------------------------------------
Label_AB083C:
 BYTE   W48
 BYTE   W02
 BYTE   N24  Dn6  v068
 BYTE   W24
 BYTE   Cs6
 BYTE   W22
 BYTE   PEND 
//  #03 //034   ----------------------------------------
Label_AB0845:
 BYTE   W02
 BYTE   N12  Dn6  v068
 BYTE   W24
 BYTE   N24  An5
 BYTE   W36
 BYTE   N06  Gn5
 BYTE   W06
 BYTE   Fs5
 BYTE   W06
 BYTE   N48  Gn5
 BYTE   W22
 BYTE   PEND 
//  #03 //035   ----------------------------------------
Label_AB0856:
 BYTE   W48
 BYTE   W02
 BYTE   N24  En5  v068
 BYTE   W24
 BYTE   Fs5
 BYTE   W22
 BYTE   PEND 
//  #03 //036   ----------------------------------------
Label_AB085F:
 BYTE   W02
 BYTE   N24  Gn5  v068
 BYTE   W24
 BYTE   N60  An5
 BYTE   W68
 BYTE   W02
 BYTE   PEND 
//  #03 //037   ----------------------------------------
Label_AB0869:
 BYTE   W02
 BYTE   N12  Cs5  v068
 BYTE   W12
 BYTE   N60  Dn5
 BYTE   W72
 BYTE   N12  Bn4
 BYTE   W10
 BYTE   PEND 
//  #03 //038   ----------------------------------------
Label_AB0875:
 BYTE   W02
 BYTE   N12  Cs5  v068
 BYTE   W12
 BYTE   Dn5
 BYTE   W12
 BYTE   N72  En5
 BYTE   W68
 BYTE   W02
 BYTE   PEND 
//  #03 //039   ----------------------------------------
 BYTE   W72
 BYTE   W02
 BYTE   N24  Fs5
 BYTE   W22
//  #03 //040   ----------------------------------------
 BYTE   PATT
  POIN2 Label_AB0832
//  #03 //041   ----------------------------------------
 BYTE   PATT
  POIN2 Label_AB083C
//  #03 //042   ----------------------------------------
 BYTE   PATT
  POIN2 Label_AB0845
//  #03 //043   ----------------------------------------
 BYTE   PATT
  POIN2 Label_AB0856
//  #03 //044   ----------------------------------------
 BYTE   PATT
  POIN2 Label_AB085F
//  #03 //045   ----------------------------------------
 BYTE   PATT
  POIN2 Label_AB0869
//  #03 //046   ----------------------------------------
 BYTE   PATT
  POIN2 Label_AB0875
//  #03 //047   ----------------------------------------
 BYTE   W24
 BYTE   W02
 BYTE   N24  Cs5  v068
 BYTE   W24
 BYTE   N12  Dn5
 BYTE   W12
 BYTE   En5
 BYTE   W24
 BYTE   Dn5
 BYTE   W10
//  #03 //048   ----------------------------------------
 BYTE   W02
 BYTE   Cs5
 BYTE   W12
 BYTE   N84  Dn5
 BYTE   W80
 BYTE   W02
//  #03 //049   ----------------------------------------
 BYTE   W96
//  #03 //050   ----------------------------------------
 BYTE   W96
//  #03 //051   ----------------------------------------
 BYTE   GoTo
  POIN2 Label_AB073C
 BYTE   FINE

//**************** Track 4 (Midi-Chn.3) ****************//

Kawanabe_004:
//  #04 //000   ----------------------------------------
 BYTE   KEYSH   Kawanabe_key+0
 BYTE   VOICE   100
 BYTE   MODT 0
 BYTE   LFOS 44
 BYTE   BENDR  12
 BYTE   VOL   48*Kawanabe_mvl/mxv
 BYTE   W96
//  #04 //001   ----------------------------------------
 BYTE   W96
//  #04 //002   ----------------------------------------
Label_C174BA:
 BYTE   W96
//  #04 //003   ----------------------------------------
 BYTE   W96
//  #04 //004   ----------------------------------------
 BYTE   W96
//  #04 //005   ----------------------------------------
 BYTE   W96
//  #04 //006   ----------------------------------------
 BYTE   W96
//  #04 //007   ----------------------------------------
 BYTE   W36
 BYTE   W02
 BYTE   N12  An2  v068
 BYTE   W12
 BYTE   N12
 BYTE   N12  Dn3
 BYTE   W12
 BYTE   N12
 BYTE   N12  Fs3
 BYTE   W12
 BYTE   Gn3
 BYTE   N12  Bn3
 BYTE   W22
//  #04 //008   ----------------------------------------
 BYTE   W02
 BYTE   Gn3
 BYTE   N12  As3
 BYTE   W24
 BYTE   An3
 BYTE   W68
 BYTE   W02
//  #04 //009   ----------------------------------------
 BYTE   W96
//  #04 //010   ----------------------------------------
 BYTE   W96
//  #04 //011   ----------------------------------------
 BYTE   W96
//  #04 //012   ----------------------------------------
 BYTE   W96
//  #04 //013   ----------------------------------------
 BYTE   W96
//  #04 //014   ----------------------------------------
 BYTE   W96
//  #04 //015   ----------------------------------------
 BYTE   W84
 BYTE   W02
 BYTE   Dn4
 BYTE   N12  Dn5
 BYTE   W10
//  #04 //016   ----------------------------------------
 BYTE   W02
 BYTE   Cs4
 BYTE   N12  Cs5
 BYTE   W12
 BYTE   An3
 BYTE   N12  An4
 BYTE   W12
 BYTE   Fs3
 BYTE   N12  Fs4
 BYTE   W68
 BYTE   W02
//  #04 //017   ----------------------------------------
 BYTE   W96
//  #04 //018   ----------------------------------------
 BYTE   W96
//  #04 //019   ----------------------------------------
 BYTE   W96
//  #04 //020   ----------------------------------------
 BYTE   W96
//  #04 //021   ----------------------------------------
 BYTE   W96
//  #04 //022   ----------------------------------------
 BYTE   W24
 BYTE   W02
 BYTE   Gn3
 BYTE   N12  Gn4  v024
 BYTE   W36
 BYTE   Fs3  v068
 BYTE   N12  Fs4  v024
 BYTE   W12
 BYTE   En3  v068
 BYTE   N12  En4  v024
 BYTE   W22
//  #04 //023   ----------------------------------------
 BYTE   W14
 BYTE   Fs3  v068
 BYTE   N12  Fs4  v024
 BYTE   W12
 BYTE   En3  v068
 BYTE   N12  En4  v024
 BYTE   W12
 BYTE   Dn3  v068
 BYTE   N12  Dn4  v024
 BYTE   W12
 BYTE   Cs3  v068
 BYTE   N12  Cs4  v024
 BYTE   W12
 BYTE   Dn3  v068
 BYTE   N12  Dn4  v024
 BYTE   W32
 BYTE   W02
//  #04 //024   ----------------------------------------
 BYTE   W96
//  #04 //025   ----------------------------------------
 BYTE   W96
//  #04 //026   ----------------------------------------
 BYTE   W84
 BYTE   W02
 BYTE   Bn2  v068
 BYTE   N12  Bn3  v024
 BYTE   W10
//  #04 //027   ----------------------------------------
 BYTE   W02
 BYTE   Dn3  v068
 BYTE   N12  Dn4  v024
 BYTE   W12
 BYTE   En3  v068
 BYTE   N12  En4  v024
 BYTE   W12
 BYTE   Fs3  v068
 BYTE   N12  Fs4  v024
 BYTE   W12
 BYTE   Gn3  v068
 BYTE   N12  Gn4  v024
 BYTE   W12
 BYTE   Fs3  v068
 BYTE   N12  Fs4  v024
 BYTE   W12
 BYTE   En3  v068
 BYTE   N12  En4  v024
 BYTE   W12
 BYTE   Dn3  v068
 BYTE   N12  Dn4  v024
 BYTE   W22
//  #04 //028   ----------------------------------------
 BYTE   W02
 BYTE   En3  v068
 BYTE   N12  En4  v024
 BYTE   W24
 BYTE   Dn3  v068
 BYTE   N12  Dn4  v024
 BYTE   W68
 BYTE   W02
//  #04 //029   ----------------------------------------
 BYTE   W96
//  #04 //030   ----------------------------------------
 BYTE   W96
//  #04 //031   ----------------------------------------
 BYTE   W84
 BYTE   W02
 BYTE   En3  v068
 BYTE   N12  En4  v024
 BYTE   W10
//  #04 //032   ----------------------------------------
 BYTE   W02
 BYTE   Fs3  v068
 BYTE   N12  Fs4  v024
 BYTE   W12
 BYTE   Gn3  v068
 BYTE   N12  Gn4  v024
 BYTE   W12
 BYTE   An3  v068
 BYTE   N12  An4  v024
 BYTE   W68
 BYTE   W02
//  #04 //033   ----------------------------------------
 BYTE   W96
//  #04 //034   ----------------------------------------
 BYTE   W96
//  #04 //035   ----------------------------------------
 BYTE   W96
//  #04 //036   ----------------------------------------
 BYTE   W96
//  #04 //037   ----------------------------------------
 BYTE   W96
//  #04 //038   ----------------------------------------
 BYTE   W96
//  #04 //039   ----------------------------------------
 BYTE   W36
 BYTE   W02
 BYTE   An2  v068
 BYTE   W12
 BYTE   Dn3
 BYTE   W12
 BYTE   Fs3
 BYTE   W12
 BYTE   Bn3
 BYTE   W22
//  #04 //040   ----------------------------------------
 BYTE   W02
 BYTE   As3
 BYTE   W24
 BYTE   An3
 BYTE   W68
 BYTE   W02
//  #04 //041   ----------------------------------------
 BYTE   W96
//  #04 //042   ----------------------------------------
 BYTE   W96
//  #04 //043   ----------------------------------------
 BYTE   W96
//  #04 //044   ----------------------------------------
 BYTE   W96
//  #04 //045   ----------------------------------------
 BYTE   W96
//  #04 //046   ----------------------------------------
 BYTE   W84
 BYTE   W02
 BYTE   En3
 BYTE   W10
//  #04 //047   ----------------------------------------
 BYTE   W02
 BYTE   Fs3
 BYTE   W12
 BYTE   Gn3
 BYTE   W12
 BYTE   An3
 BYTE   W68
 BYTE   W02
//  #04 //048   ----------------------------------------
 BYTE   W96
//  #04 //049   ----------------------------------------
 BYTE   W96
//  #04 //050   ----------------------------------------
 BYTE   W96
//  #04 //051   ----------------------------------------
 BYTE   GoTo
  POIN2 Label_C174BA
 BYTE   FINE

//**************** Track 5 (Midi-Chn.4) ****************//

Kawanabe_005:
//  #05 //000   ----------------------------------------
 BYTE   KEYSH   Kawanabe_key+0
 BYTE   VOICE   41
 BYTE   MODT 0
 BYTE   LFOS 44
 BYTE   BENDR  12
 BYTE   PAN   c_v-44
 BYTE   VOL   45*Kawanabe_mvl/mxv
 BYTE   W24
 BYTE   W01
 BYTE   N12  Fs3  v068
 BYTE   N12  An3
 BYTE   W12
 BYTE   Dn3
 BYTE   W12
 BYTE   Fs3
 BYTE   N12  Bn3
 BYTE   W12
 BYTE   Fs3
 BYTE   N12  An3
 BYTE   W32
 BYTE   W03
//  #05 //001   ----------------------------------------
Label_01F4CFE5:
 BYTE   W24
 BYTE   W01
 BYTE   N12  Fs3  v068
 BYTE   N12  An3
 BYTE   W12
 BYTE   Dn3
 BYTE   W12
 BYTE   Fs3
 BYTE   N12  Bn3
 BYTE   W12
 BYTE   Fs3
 BYTE   N12  An3
 BYTE   W32
 BYTE   W03
 BYTE   PEND 
//  #05 //002   ----------------------------------------
Label_01F4CFF9:
 BYTE   W24
 BYTE   W01
 BYTE   N12  En3  v068
 BYTE   N12  Gn3
 BYTE   W12
 BYTE   Bn2
 BYTE   N12  Dn3
 BYTE   W12
 BYTE   En3
 BYTE   N12  An3
 BYTE   W12
 BYTE   En3
 BYTE   N12  Gn3
 BYTE   W24
 BYTE   En3
 BYTE   N12  Gn3  v036
 BYTE   W11
 BYTE   PEND 
//  #05 //003   ----------------------------------------
Label_01F4D013:
 BYTE   W01
 BYTE   N12  Bn3  v068
 BYTE   W12
 BYTE   Dn4
 BYTE   W12
 BYTE   An3
 BYTE   N12  Cs4
 BYTE   W24
 BYTE   An3
 BYTE   N12  Dn4
 BYTE   W12
 BYTE   An3
 BYTE   N12  Cs4
 BYTE   W24
 BYTE   Gn3
 BYTE   N12  Bn3
 BYTE   W11
 BYTE   PEND 
//  #05 //004   ----------------------------------------
Label_01F4D02B:
 BYTE   W01
 BYTE   N12  Fs3  v068
 BYTE   N12  An3
 BYTE   W12
 BYTE   Gn3
 BYTE   N12  Bn3
 BYTE   W12
 BYTE   Fs3
 BYTE   N12  An3
 BYTE   W24
 BYTE   N24  An2
 BYTE   N24  Cs3
 BYTE   W24
 BYTE   N24
 BYTE   N24  Fs3
 BYTE   W23
 BYTE   PEND 
//  #05 //005   ----------------------------------------
Label_01F4D044:
 BYTE   W01
 BYTE   N24  Fs3  v068
 BYTE   N24  An3
 BYTE   W24
 BYTE   N12  En3
 BYTE   N12  Gn3
 BYTE   W12
 BYTE   Dn3
 BYTE   N12  Fs3
 BYTE   W12
 BYTE   Bn2
 BYTE   N12  En3
 BYTE   W12
 BYTE   Bn2
 BYTE   N12  Dn3
 BYTE   W24
 BYTE   Bn2
 BYTE   W11
 BYTE   PEND 
//  #05 //006   ----------------------------------------
 BYTE   W01
 BYTE   Dn3
 BYTE   W12
 BYTE   Fs3
 BYTE   W12
 BYTE   En3
 BYTE   N12  An3
 BYTE   W12
 BYTE   En3
 BYTE   N12  Gn3
 BYTE   W12
 BYTE   Dn3
 BYTE   N12  Fs3
 BYTE   W12
 BYTE   En3
 BYTE   N12  Gn3
 BYTE   W24
 BYTE   En3
 BYTE   W11
//  #05 //007   ----------------------------------------
 BYTE   W01
 BYTE   Gn3
 BYTE   W12
 BYTE   En3
 BYTE   W12
 BYTE   N24  An3
 BYTE   W12
 BYTE   N12  An2
 BYTE   W12
 BYTE   Dn3
 BYTE   W12
 BYTE   Fs3
 BYTE   W12
 BYTE   N24  Bn3
 BYTE   W23
//  #05 //008   ----------------------------------------
 BYTE   W01
 BYTE   As3
 BYTE   W24
 BYTE   N12  An3
 BYTE   W24
 BYTE   N12
 BYTE   N12  Cs4
 BYTE   W36
 BYTE   Fs3
 BYTE   N12  An3
 BYTE   W11
//  #05 //009   ----------------------------------------
Label_01F4D096:
 BYTE   W48
 BYTE   W01
 BYTE   N12  An3  v068
 BYTE   N12  Cs4
 BYTE   W36
 BYTE   Fs3
 BYTE   N12  An3
 BYTE   W11
 BYTE   PEND 
//  #05 //010   ----------------------------------------
Label_01F4D0A3:
 BYTE   W48
 BYTE   W01
 BYTE   N12  Fs3  v068
 BYTE   N12  Bn3
 BYTE   W36
 BYTE   Dn3
 BYTE   N12  Fs3
 BYTE   W11
 BYTE   PEND 
//  #05 //011   ----------------------------------------
Label_01F4D0B0:
 BYTE   W48
 BYTE   W01
 BYTE   N12  Fs3  v068
 BYTE   N12  An3
 BYTE   W36
 BYTE   Fs3
 BYTE   N12  An3
 BYTE   W11
 BYTE   PEND 
//  #05 //012   ----------------------------------------
Label_01F4D0BD:
 BYTE   W48
 BYTE   W01
 BYTE   N12  Bn3  v068
 BYTE   N12  Dn4
 BYTE   W36
 BYTE   Gn3
 BYTE   N12  Bn3
 BYTE   W11
 BYTE   PEND 
//  #05 //013   ----------------------------------------
Label_01F4D0CA:
 BYTE   W48
 BYTE   W01
 BYTE   N12  An3  v068
 BYTE   N12  Dn4
 BYTE   W36
 BYTE   Fs3
 BYTE   N12  An3
 BYTE   W11
 BYTE   PEND 
//  #05 //014   ----------------------------------------
 BYTE   W24
 BYTE   W01
 BYTE   Gn3
 BYTE   N12  Bn3
 BYTE   W68
 BYTE   W03
//  #05 //015   ----------------------------------------
 BYTE   W24
 BYTE   W01
 BYTE   An3
 BYTE   N12  Dn4
 BYTE   W12
 BYTE   An3
 BYTE   N12  Dn4
 BYTE   W12
 BYTE   An3
 BYTE   N12  Dn4
 BYTE   W12
 BYTE   An3
 BYTE   N12  Cs4
 BYTE   W24
 BYTE   Dn4
 BYTE   W11
//  #05 //016   ----------------------------------------
 BYTE   W01
 BYTE   Cs4
 BYTE   W12
 BYTE   An3
 BYTE   W12
 BYTE   Fs3
 BYTE   N12  An3
 BYTE   W24
 BYTE   N12
 BYTE   N12  Cs4
 BYTE   W36
 BYTE   Fs3
 BYTE   N12  An3
 BYTE   W11
//  #05 //017   ----------------------------------------
 BYTE   PATT
  POIN2 Label_01F4D096
//  #05 //018   ----------------------------------------
 BYTE   PATT
  POIN2 Label_01F4D0A3
//  #05 //019   ----------------------------------------
 BYTE   PATT
  POIN2 Label_01F4D0B0
//  #05 //020   ----------------------------------------
 BYTE   PATT
  POIN2 Label_01F4D0BD
//  #05 //021   ----------------------------------------
 BYTE   PATT
  POIN2 Label_01F4D0CA
//  #05 //022   ----------------------------------------
 BYTE   W24
 BYTE   W01
 BYTE   N12  Gn3  v068
 BYTE   N12  Bn3
 BYTE   W12
 BYTE   Gn3
 BYTE   N12  Bn3
 BYTE   W36
 BYTE   An3
 BYTE   N12  Cs4
 BYTE   W12
 BYTE   An3
 BYTE   N12  Cs4
 BYTE   W11
//  #05 //023   ----------------------------------------
 BYTE   W24
 BYTE   W01
 BYTE   An3
 BYTE   N12  Cs4
 BYTE   W36
 BYTE   An3
 BYTE   N12  Dn4
 BYTE   W32
 BYTE   W03
//  #05 //024   ----------------------------------------
 BYTE   W24
 BYTE   W01
 BYTE   N06  An3
 BYTE   W12
 BYTE   En4
 BYTE   W12
 BYTE   An4
 BYTE   W12
 BYTE   Cn4
 BYTE   W12
 BYTE   En4
 BYTE   W12
 BYTE   Cn4
 BYTE   W11
//  #05 //025   ----------------------------------------
 BYTE   W01
 BYTE   An4
 BYTE   W12
 BYTE   En4
 BYTE   W12
 BYTE   Cn4
 BYTE   W12
 BYTE   Dn4
 BYTE   W12
 BYTE   An4
 BYTE   W12
 BYTE   Cn4
 BYTE   W12
 BYTE   Dn4
 BYTE   W12
 BYTE   Cn4
 BYTE   W11
//  #05 //026   ----------------------------------------
 BYTE   W01
 BYTE   An4
 BYTE   W12
 BYTE   Gn4
 BYTE   W12
 BYTE   Bn3
 BYTE   W12
 BYTE   Dn4
 BYTE   W12
 BYTE   Fs4
 BYTE   W12
 BYTE   Bn3
 BYTE   W12
 BYTE   Dn4
 BYTE   W12
 BYTE   Bn3
 BYTE   W11
//  #05 //027   ----------------------------------------
 BYTE   W01
 BYTE   Dn4
 BYTE   W12
 BYTE   En4
 BYTE   W12
 BYTE   Fs4
 BYTE   W12
 BYTE   Gn4
 BYTE   W12
 BYTE   Fs4
 BYTE   W12
 BYTE   En4
 BYTE   W12
 BYTE   Dn4
 BYTE   W12
 BYTE   Bn3
 BYTE   W11
//  #05 //028   ----------------------------------------
 BYTE   W01
 BYTE   Cs4
 BYTE   W12
 BYTE   En4
 BYTE   W12
 BYTE   Bn3
 BYTE   W12
 BYTE   Dn4
 BYTE   W12
 BYTE   Fs4
 BYTE   W12
 BYTE   Bn3
 BYTE   W12
 BYTE   Dn4
 BYTE   W12
 BYTE   Bn3
 BYTE   W11
//  #05 //029   ----------------------------------------
 BYTE   W01
 BYTE   Fs4
 BYTE   W12
 BYTE   An4
 BYTE   W12
 BYTE   Gs4
 BYTE   W12
 BYTE   En4
 BYTE   W12
 BYTE   Bn3
 BYTE   W12
 BYTE   En4
 BYTE   W12
 BYTE   Bn3
 BYTE   W12
 BYTE   Gs3
 BYTE   W11
//  #05 //030   ----------------------------------------
 BYTE   W01
 BYTE   Dn4
 BYTE   W12
 BYTE   En4
 BYTE   W12
 BYTE   Bn3
 BYTE   W12
 BYTE   En4
 BYTE   W12
 BYTE   Gn4
 BYTE   W12
 BYTE   Bn3
 BYTE   W12
 BYTE   En4
 BYTE   W12
 BYTE   Bn3
 BYTE   W11
//  #05 //031   ----------------------------------------
 BYTE   W01
 BYTE   En4
 BYTE   W12
 BYTE   Dn4
 BYTE   W12
 BYTE   Cs4
 BYTE   W12
 BYTE   En4
 BYTE   W12
 BYTE   Gn4
 BYTE   W12
 BYTE   Cs4
 BYTE   W12
 BYTE   An4
 BYTE   W12
 BYTE   Dn4
 BYTE   W11
//  #05 //032   ----------------------------------------
 BYTE   W01
 BYTE   Cs4
 BYTE   W12
 BYTE   En4
 BYTE   W12
 BYTE   N12  Fs3
 BYTE   N12  An3
 BYTE   N06  Fs4
 BYTE   W12
 BYTE   N12  Dn3
 BYTE   W12
 BYTE   Fs3
 BYTE   N12  Bn3
 BYTE   W12
 BYTE   N18  Fs3
 BYTE   N18  An3
 BYTE   W32
 BYTE   W03
//  #05 //033   ----------------------------------------
Label_01F4D1DA:
 BYTE   W24
 BYTE   W01
 BYTE   N12  Fs3  v068
 BYTE   N12  An3
 BYTE   W12
 BYTE   Dn3
 BYTE   W12
 BYTE   Fs3
 BYTE   N12  Bn3
 BYTE   W12
 BYTE   N18  Fs3
 BYTE   N18  An3
 BYTE   W32
 BYTE   W03
 BYTE   PEND 
//  #05 //034   ----------------------------------------
 BYTE   PATT
  POIN2 Label_01F4CFF9
//  #05 //035   ----------------------------------------
 BYTE   PATT
  POIN2 Label_01F4D013
//  #05 //036   ----------------------------------------
 BYTE   PATT
  POIN2 Label_01F4D02B
//  #05 //037   ----------------------------------------
 BYTE   PATT
  POIN2 Label_01F4D044
//  #05 //038   ----------------------------------------
 BYTE   W01
 BYTE   N12  Dn3  v068
 BYTE   W12
 BYTE   Fs3
 BYTE   W12
 BYTE   En3
 BYTE   N12  An3
 BYTE   W12
 BYTE   En3
 BYTE   N12  Gn3
 BYTE   W12
 BYTE   Dn3
 BYTE   N12  Fs3
 BYTE   W12
 BYTE   En3
 BYTE   N12  Gn3
 BYTE   W24
 BYTE   En3
 BYTE   N12  En4
 BYTE   W11
//  #05 //039   ----------------------------------------
 BYTE   W01
 BYTE   Gn3
 BYTE   N12  Gn4
 BYTE   W12
 BYTE   En3
 BYTE   N12  En4
 BYTE   W12
 BYTE   En3
 BYTE   N12  An3
 BYTE   N12  An4
 BYTE   W12
 BYTE   An2
 BYTE   W12
 BYTE   Dn3
 BYTE   W12
 BYTE   Fs3
 BYTE   W12
 BYTE   N24  Bn3
 BYTE   W23
//  #05 //040   ----------------------------------------
 BYTE   W01
 BYTE   As3
 BYTE   W24
 BYTE   N12  Fs3
 BYTE   N12  An3
 BYTE   W12
 BYTE   Dn3
 BYTE   W12
 BYTE   Fs3
 BYTE   N12  Bn3
 BYTE   W12
 BYTE   N18  Fs3
 BYTE   N18  An3
 BYTE   W32
 BYTE   W03
//  #05 //041   ----------------------------------------
 BYTE   PATT
  POIN2 Label_01F4D1DA
//  #05 //042   ----------------------------------------
 BYTE   PATT
  POIN2 Label_01F4CFF9
//  #05 //043   ----------------------------------------
 BYTE   PATT
  POIN2 Label_01F4D013
//  #05 //044   ----------------------------------------
 BYTE   PATT
  POIN2 Label_01F4D02B
//  #05 //045   ----------------------------------------
 BYTE   PATT
  POIN2 Label_01F4D044
//  #05 //046   ----------------------------------------
 BYTE   W01
 BYTE   N12  Dn3  v068
 BYTE   W12
 BYTE   Fs3
 BYTE   W12
 BYTE   En3
 BYTE   N12  An3
 BYTE   W12
 BYTE   En3
 BYTE   N12  Gn3
 BYTE   W12
 BYTE   Dn3
 BYTE   N12  Fs3
 BYTE   W12
 BYTE   En3
 BYTE   N12  Gn3
 BYTE   W24
 BYTE   Bn2
 BYTE   N12  En3
 BYTE   W11
//  #05 //047   ----------------------------------------
 BYTE   W01
 BYTE   Dn3
 BYTE   N12  Fs3
 BYTE   W12
 BYTE   En3
 BYTE   N12  Gn3
 BYTE   W12
 BYTE   N48  Cs3
 BYTE   N48  En3
 BYTE   N48  An3
 BYTE   W60
 BYTE   N12  Cs3
 BYTE   N12  Gn3
 BYTE   W11
//  #05 //048   ----------------------------------------
 BYTE   W01
 BYTE   An2
 BYTE   N12  Cs3
 BYTE   N12  En3
 BYTE   W12
 BYTE   Cs3
 BYTE   N12  Gn3
 BYTE   W12
 BYTE   N60  An2  v024
 BYTE   N60  Dn3  v068
 BYTE   N60  Fs3
 BYTE   W68
 BYTE   W03
//  #05 //049   ----------------------------------------
 BYTE   PATT
  POIN2 Label_01F4CFE5
//  #05 //050   ----------------------------------------
 BYTE   PATT
  POIN2 Label_01F4CFE5
//  #05 //051   ----------------------------------------
 BYTE   GoTo
  POIN2 Label_01F4CFF9
 BYTE   FINE

//**************** Track 6 (Midi-Chn.5) ****************//

Kawanabe_006:
//  #06 //000   ----------------------------------------
 BYTE   KEYSH   Kawanabe_key+0
 BYTE   VOICE   41
 BYTE   MODT 0
 BYTE   LFOS 44
 BYTE   BENDR  12
 BYTE   PAN   c_v+9
 BYTE   VOL   29*Kawanabe_mvl/mxv
 BYTE   W36
 BYTE   W01
 BYTE   N12  Fs3  v068
 BYTE   N12  An3
 BYTE   W12
 BYTE   Dn3
 BYTE   W12
 BYTE   Fs3
 BYTE   N12  Bn3
 BYTE   W12
 BYTE   Fs3
 BYTE   N12  An3
 BYTE   W23
//  #06 //001   ----------------------------------------
Label_01F4D2D8:
 BYTE   W36
 BYTE   W01
 BYTE   N12  Fs3  v068
 BYTE   N12  An3
 BYTE   W12
 BYTE   Dn3
 BYTE   W12
 BYTE   Fs3
 BYTE   N12  Bn3
 BYTE   W12
 BYTE   Fs3
 BYTE   N12  An3
 BYTE   W23
 BYTE   PEND 
//  #06 //002   ----------------------------------------
Label_01F4D2EB:
 BYTE   W36
 BYTE   W01
 BYTE   N12  En3  v068
 BYTE   N12  Gn3
 BYTE   W12
 BYTE   Bn2
 BYTE   N12  Dn3
 BYTE   W12
 BYTE   En3
 BYTE   N12  An3
 BYTE   W12
 BYTE   En3
 BYTE   N12  Gn3
 BYTE   W23
 BYTE   PEND 
//  #06 //003   ----------------------------------------
Label_01F4D300:
 BYTE   W01
 BYTE   N12  En3  v068
 BYTE   N12  Gn3  v036
 BYTE   W12
 BYTE   Bn3  v068
 BYTE   W12
 BYTE   Dn4
 BYTE   W12
 BYTE   An3
 BYTE   N12  Cs4
 BYTE   W24
 BYTE   An3
 BYTE   N12  Dn4
 BYTE   W12
 BYTE   An3
 BYTE   N12  Cs4
 BYTE   W23
 BYTE   PEND 
//  #06 //004   ----------------------------------------
Label_01F4D31A:
 BYTE   W01
 BYTE   N12  Gn3  v068
 BYTE   N12  Bn3
 BYTE   W12
 BYTE   Fs3
 BYTE   N12  An3
 BYTE   W12
 BYTE   Gn3
 BYTE   N12  Bn3
 BYTE   W12
 BYTE   Fs3
 BYTE   N12  An3
 BYTE   W24
 BYTE   N24  An2
 BYTE   N24  Cs3
 BYTE   W24
 BYTE   N24
 BYTE   N24  Fs3
 BYTE   W11
 BYTE   PEND 
//  #06 //005   ----------------------------------------
Label_01F4D337:
 BYTE   W13
 BYTE   N24  Fs3  v068
 BYTE   N24  An3
 BYTE   W24
 BYTE   N12  En3
 BYTE   N12  Gn3
 BYTE   W12
 BYTE   Dn3
 BYTE   N12  Fs3
 BYTE   W12
 BYTE   Bn2
 BYTE   N12  En3
 BYTE   W12
 BYTE   Bn2
 BYTE   N12  Dn3
 BYTE   W23
 BYTE   PEND 
//  #06 //006   ----------------------------------------
Label_01F4D350:
 BYTE   W01
 BYTE   N12  Bn2  v068
 BYTE   W12
 BYTE   Dn3
 BYTE   W12
 BYTE   Fs3
 BYTE   W12
 BYTE   En3
 BYTE   N12  An3
 BYTE   W12
 BYTE   En3
 BYTE   N12  Gn3
 BYTE   W12
 BYTE   Dn3
 BYTE   N12  Fs3
 BYTE   W12
 BYTE   En3
 BYTE   N12  Gn3
 BYTE   W23
 BYTE   PEND 
//  #06 //007   ----------------------------------------
 BYTE   W01
 BYTE   En3
 BYTE   W12
 BYTE   Gn3
 BYTE   W12
 BYTE   En3
 BYTE   W12
 BYTE   N24  An3
 BYTE   W12
 BYTE   N12  An2
 BYTE   W12
 BYTE   Dn3
 BYTE   W12
 BYTE   Fs3
 BYTE   W12
 BYTE   N24  Bn3
 BYTE   W11
//  #06 //008   ----------------------------------------
 BYTE   W13
 BYTE   As3
 BYTE   W24
 BYTE   N12  An3
 BYTE   W24
 BYTE   N12
 BYTE   N12  Cs4
 BYTE   W32
 BYTE   W03
//  #06 //009   ----------------------------------------
Label_01F4D389:
 BYTE   W01
 BYTE   N12  Fs3  v068
 BYTE   N12  An3
 BYTE   W60
 BYTE   N12
 BYTE   N12  Cs4
 BYTE   W32
 BYTE   W03
 BYTE   PEND 
//  #06 //010   ----------------------------------------
Label_01F4D396:
 BYTE   W01
 BYTE   N12  Fs3  v068
 BYTE   N12  An3
 BYTE   W60
 BYTE   Fs3
 BYTE   N12  Bn3
 BYTE   W32
 BYTE   W03
 BYTE   PEND 
//  #06 //011   ----------------------------------------
Label_01F4D3A3:
 BYTE   W01
 BYTE   N12  Dn3  v068
 BYTE   N12  Fs3
 BYTE   W60
 BYTE   N12
 BYTE   N12  An3
 BYTE   W32
 BYTE   W03
 BYTE   PEND 
//  #06 //012   ----------------------------------------
Label_01F4D3B0:
 BYTE   W01
 BYTE   N12  Fs3  v068
 BYTE   N12  An3
 BYTE   W60
 BYTE   Bn3
 BYTE   N12  Dn4
 BYTE   W32
 BYTE   W03
 BYTE   PEND 
//  #06 //013   ----------------------------------------
Label_01F4D3BD:
 BYTE   W01
 BYTE   N12  Gn3  v068
 BYTE   N12  Bn3
 BYTE   W60
 BYTE   An3
 BYTE   N12  Dn4
 BYTE   W32
 BYTE   W03
 BYTE   PEND 
//  #06 //014   ----------------------------------------
 BYTE   W01
 BYTE   Fs3
 BYTE   N12  An3
 BYTE   W36
 BYTE   Gn3
 BYTE   N12  Bn3
 BYTE   W56
 BYTE   W03
//  #06 //015   ----------------------------------------
 BYTE   W36
 BYTE   W01
 BYTE   An3
 BYTE   N12  Dn4
 BYTE   W12
 BYTE   An3
 BYTE   N12  Dn4
 BYTE   W12
 BYTE   An3
 BYTE   N12  Dn4
 BYTE   W12
 BYTE   An3
 BYTE   N12  Cs4
 BYTE   W23
//  #06 //016   ----------------------------------------
 BYTE   W01
 BYTE   Dn4
 BYTE   W12
 BYTE   Cs4
 BYTE   W12
 BYTE   An3
 BYTE   W12
 BYTE   Fs3
 BYTE   N12  An3
 BYTE   W24
 BYTE   N12
 BYTE   N12  Cs4
 BYTE   W32
 BYTE   W03
//  #06 //017   ----------------------------------------
 BYTE   PATT
  POIN2 Label_01F4D389
//  #06 //018   ----------------------------------------
 BYTE   PATT
  POIN2 Label_01F4D396
//  #06 //019   ----------------------------------------
 BYTE   PATT
  POIN2 Label_01F4D3A3
//  #06 //020   ----------------------------------------
 BYTE   PATT
  POIN2 Label_01F4D3B0
//  #06 //021   ----------------------------------------
 BYTE   PATT
  POIN2 Label_01F4D3BD
//  #06 //022   ----------------------------------------
 BYTE   W01
 BYTE   N12  Fs3  v068
 BYTE   N12  An3
 BYTE   W36
 BYTE   Gn3
 BYTE   N12  Bn3
 BYTE   W12
 BYTE   Gn3
 BYTE   N12  Bn3
 BYTE   W36
 BYTE   An3
 BYTE   N12  Cs4
 BYTE   W11
//  #06 //023   ----------------------------------------
 BYTE   W01
 BYTE   An3
 BYTE   N12  Cs4
 BYTE   W36
 BYTE   An3
 BYTE   N12  Cs4
 BYTE   W36
 BYTE   An3
 BYTE   N12  Dn4
 BYTE   W23
//  #06 //024   ----------------------------------------
 BYTE   W36
 BYTE   W01
 BYTE   N06  An3
 BYTE   W12
 BYTE   En4
 BYTE   W12
 BYTE   An4
 BYTE   W12
 BYTE   Cn4
 BYTE   W12
 BYTE   En4
 BYTE   W11
//  #06 //025   ----------------------------------------
 BYTE   W01
 BYTE   Cn4
 BYTE   W12
 BYTE   An4
 BYTE   W12
 BYTE   En4
 BYTE   W12
 BYTE   Cn4
 BYTE   W12
 BYTE   Dn4
 BYTE   W12
 BYTE   An4
 BYTE   W12
 BYTE   Cn4
 BYTE   W12
 BYTE   Dn4
 BYTE   W11
//  #06 //026   ----------------------------------------
 BYTE   W01
 BYTE   Cn4
 BYTE   W12
 BYTE   An4
 BYTE   W12
 BYTE   Gn4
 BYTE   W12
 BYTE   Bn3
 BYTE   W12
 BYTE   Dn4
 BYTE   W12
 BYTE   Fs4
 BYTE   W12
 BYTE   Bn3
 BYTE   W12
 BYTE   Dn4
 BYTE   W11
//  #06 //027   ----------------------------------------
 BYTE   W01
 BYTE   Bn3
 BYTE   W12
 BYTE   Dn4
 BYTE   W12
 BYTE   En4
 BYTE   W12
 BYTE   Fs4
 BYTE   W12
 BYTE   Gn4
 BYTE   W12
 BYTE   Fs4
 BYTE   W12
 BYTE   En4
 BYTE   W12
 BYTE   Dn4
 BYTE   W11
//  #06 //028   ----------------------------------------
 BYTE   W01
 BYTE   Bn3
 BYTE   W12
 BYTE   Cs4
 BYTE   W12
 BYTE   En4
 BYTE   W12
 BYTE   Bn3
 BYTE   W12
 BYTE   Dn4
 BYTE   W12
 BYTE   Fs4
 BYTE   W12
 BYTE   Bn3
 BYTE   W12
 BYTE   Dn4
 BYTE   W11
//  #06 //029   ----------------------------------------
 BYTE   W01
 BYTE   Bn3
 BYTE   W12
 BYTE   Fs4
 BYTE   W12
 BYTE   An4
 BYTE   W12
 BYTE   Gs4
 BYTE   W12
 BYTE   En4
 BYTE   W12
 BYTE   Bn3
 BYTE   W12
 BYTE   En4
 BYTE   W12
 BYTE   Bn3
 BYTE   W11
//  #06 //030   ----------------------------------------
 BYTE   W01
 BYTE   Gs3
 BYTE   W12
 BYTE   Dn4
 BYTE   W12
 BYTE   En4
 BYTE   W12
 BYTE   Bn3
 BYTE   W12
 BYTE   En4
 BYTE   W12
 BYTE   Gn4
 BYTE   W12
 BYTE   Bn3
 BYTE   W12
 BYTE   En4
 BYTE   W11
//  #06 //031   ----------------------------------------
 BYTE   W01
 BYTE   Bn3
 BYTE   W12
 BYTE   En4
 BYTE   W12
 BYTE   Dn4
 BYTE   W12
 BYTE   Cs4
 BYTE   W12
 BYTE   En4
 BYTE   W12
 BYTE   Gn4
 BYTE   W12
 BYTE   Cs4
 BYTE   W12
 BYTE   An4
 BYTE   W11
//  #06 //032   ----------------------------------------
 BYTE   W01
 BYTE   Dn4
 BYTE   W12
 BYTE   Cs4
 BYTE   W12
 BYTE   En4
 BYTE   W12
 BYTE   N12  Fs3
 BYTE   N12  An3
 BYTE   N06  Fs4
 BYTE   W12
 BYTE   N12  Dn3
 BYTE   W12
 BYTE   Fs3
 BYTE   N12  Bn3
 BYTE   W12
 BYTE   N18  Fs3
 BYTE   N18  An3
 BYTE   W23
//  #06 //033   ----------------------------------------
Label_01F4D4CD:
 BYTE   W36
 BYTE   W01
 BYTE   N12  Fs3  v068
 BYTE   N12  An3
 BYTE   W12
 BYTE   Dn3
 BYTE   W12
 BYTE   Fs3
 BYTE   N12  Bn3
 BYTE   W12
 BYTE   N18  Fs3
 BYTE   N18  An3
 BYTE   W23
 BYTE   PEND 
//  #06 //034   ----------------------------------------
 BYTE   PATT
  POIN2 Label_01F4D2EB
//  #06 //035   ----------------------------------------
 BYTE   PATT
  POIN2 Label_01F4D300
//  #06 //036   ----------------------------------------
 BYTE   PATT
  POIN2 Label_01F4D31A
//  #06 //037   ----------------------------------------
 BYTE   PATT
  POIN2 Label_01F4D337
//  #06 //038   ----------------------------------------
 BYTE   PATT
  POIN2 Label_01F4D350
//  #06 //039   ----------------------------------------
 BYTE   W01
 BYTE   N12  En3  v068
 BYTE   N12  En4
 BYTE   W12
 BYTE   Gn3
 BYTE   N12  Gn4
 BYTE   W12
 BYTE   En3
 BYTE   N12  En4
 BYTE   W12
 BYTE   En3
 BYTE   N12  An3
 BYTE   N12  An4
 BYTE   W12
 BYTE   An2
 BYTE   W12
 BYTE   Dn3
 BYTE   W12
 BYTE   Fs3
 BYTE   W12
 BYTE   N24  Bn3
 BYTE   W11
//  #06 //040   ----------------------------------------
 BYTE   W13
 BYTE   As3
 BYTE   W24
 BYTE   N12  Fs3
 BYTE   N12  An3
 BYTE   W12
 BYTE   Dn3
 BYTE   W12
 BYTE   Fs3
 BYTE   N12  Bn3
 BYTE   W12
 BYTE   N18  Fs3
 BYTE   N18  An3
 BYTE   W23
//  #06 //041   ----------------------------------------
 BYTE   PATT
  POIN2 Label_01F4D4CD
//  #06 //042   ----------------------------------------
 BYTE   PATT
  POIN2 Label_01F4D2EB
//  #06 //043   ----------------------------------------
 BYTE   PATT
  POIN2 Label_01F4D300
//  #06 //044   ----------------------------------------
 BYTE   PATT
  POIN2 Label_01F4D31A
//  #06 //045   ----------------------------------------
 BYTE   PATT
  POIN2 Label_01F4D337
//  #06 //046   ----------------------------------------
 BYTE   PATT
  POIN2 Label_01F4D350
//  #06 //047   ----------------------------------------
 BYTE   W01
 BYTE   N12  Bn2  v068
 BYTE   N12  En3
 BYTE   W12
 BYTE   Dn3
 BYTE   N12  Fs3
 BYTE   W12
 BYTE   En3
 BYTE   N12  Gn3
 BYTE   W12
 BYTE   N48  Cs3
 BYTE   N48  En3
 BYTE   N48  An3
 BYTE   W56
 BYTE   W03
//  #06 //048   ----------------------------------------
 BYTE   W01
 BYTE   N12  Cs3
 BYTE   N12  Gn3
 BYTE   W12
 BYTE   An2
 BYTE   N12  Cs3
 BYTE   N12  En3
 BYTE   W12
 BYTE   Cs3
 BYTE   N12  Gn3
 BYTE   W12
 BYTE   N60  An2  v024
 BYTE   N60  Dn3  v068
 BYTE   N60  Fs3
 BYTE   W56
 BYTE   W03
//  #06 //049   ----------------------------------------
 BYTE   PATT
  POIN2 Label_01F4D2D8
//  #06 //050   ----------------------------------------
 BYTE   PATT
  POIN2 Label_01F4D2D8
//  #06 //051   ----------------------------------------
 BYTE   GoTo
  POIN2 Label_01F4D2EB
 BYTE   FINE

//**************** Track 7 (Midi-Chn.6) ****************//

Kawanabe_007:
//  #07 //000   ----------------------------------------
 BYTE   KEYSH   Kawanabe_key+0
 BYTE   VOICE   36
 BYTE   MODT 0
 BYTE   LFOS 44
 BYTE   BENDR  12
 BYTE   VOL   109*Kawanabe_mvl/mxv
 BYTE   W24
 BYTE   W02
 BYTE   N18  Dn1  v068
 BYTE   W68
 BYTE   W02
//  #07 //001   ----------------------------------------
Label_01F4D59F:
 BYTE   W14
 BYTE   N12  An0  v068
 BYTE   W12
 BYTE   N18  Bn0
 BYTE   W68
 BYTE   W02
 BYTE   PEND 
//  #07 //002   ----------------------------------------
Label_01F4D5A9:
 BYTE   W14
 BYTE   N12  En0  v068
 BYTE   W12
 BYTE   N18  En1
 BYTE   W68
 BYTE   W02
//  #07 //003   ----------------------------------------
 BYTE   W14
 BYTE   N12  Bn0
 BYTE   W12
 BYTE   N30  An1
 BYTE   W48
 BYTE   N24  En1
 BYTE   W22
//  #07 //004   ----------------------------------------
 BYTE   W14
 BYTE   N12
 BYTE   W12
 BYTE   N24  Fs1
 BYTE   W36
 BYTE   N12  Cs1
 BYTE   W12
 BYTE   Fs1
 BYTE   W12
 BYTE   N24
 BYTE   W10
//  #07 //005   ----------------------------------------
 BYTE   W14
 BYTE   N12  Cs1
 BYTE   W12
 BYTE   N24  Bn0
 BYTE   W36
 BYTE   N12  Fs1
 BYTE   W24
 BYTE   Bn0
 BYTE   W10
//  #07 //006   ----------------------------------------
 BYTE   W02
 BYTE   Bn1
 BYTE   W12
 BYTE   Fs1
 BYTE   W12
 BYTE   N24  En1
 BYTE   W36
 BYTE   N12  Bn0
 BYTE   W12
 BYTE   En1
 BYTE   W12
 BYTE   Bn0
 BYTE   W10
//  #07 //007   ----------------------------------------
 BYTE   W02
 BYTE   En0
 BYTE   W12
 BYTE   Gn0
 BYTE   W12
 BYTE   N24  An0
 BYTE   W36
 BYTE   N12
 BYTE   W24
 BYTE   N12
 BYTE   W10
//  #07 //008   ----------------------------------------
Label_01F4D5F0:
 BYTE   W02
 BYTE   N12  An1  v068
 BYTE   W12
 BYTE   An0
 BYTE   W12
 BYTE   N24  Dn1
 BYTE   W36
 BYTE   N12  An0
 BYTE   W12
 BYTE   N24  Dn1
 BYTE   W22
 BYTE   PEND 
//  #07 //009   ----------------------------------------
Label_01F4D601:
 BYTE   W14
 BYTE   N12  An0  v068
 BYTE   W12
 BYTE   N24  Cs1
 BYTE   W36
 BYTE   N12  Gs0
 BYTE   W24
 BYTE   N12
 BYTE   W10
 BYTE   PEND 
//  #07 //010   ----------------------------------------
Label_01F4D60F:
 BYTE   W02
 BYTE   N12  Cs1  v068
 BYTE   W12
 BYTE   Gs0
 BYTE   W12
 BYTE   N24  Bn0
 BYTE   W36
 BYTE   N12  Fs0
 BYTE   W12
 BYTE   N24  Bn0
 BYTE   W22
 BYTE   PEND 
//  #07 //011   ----------------------------------------
Label_01F4D620:
 BYTE   W14
 BYTE   N12  Fs0  v068
 BYTE   W12
 BYTE   N24  An0
 BYTE   W36
 BYTE   N12  En1
 BYTE   W24
 BYTE   An0
 BYTE   W10
 BYTE   PEND 
//  #07 //012   ----------------------------------------
Label_01F4D62E:
 BYTE   W02
 BYTE   N12  An1  v068
 BYTE   W12
 BYTE   Gs1  v028
 BYTE   W12
 BYTE   N24  Gn1  v068
 BYTE   W36
 BYTE   N12  Dn1
 BYTE   W12
 BYTE   N24  Gn1
 BYTE   W22
 BYTE   PEND 
//  #07 //013   ----------------------------------------
Label_01F4D641:
 BYTE   W14
 BYTE   N12  Dn1  v068
 BYTE   W12
 BYTE   N24  Fs1
 BYTE   W36
 BYTE   N12  Fs0
 BYTE   W24
 BYTE   Cs1
 BYTE   W10
 BYTE   PEND 
//  #07 //014   ----------------------------------------
 BYTE   W02
 BYTE   En1
 BYTE   W12
 BYTE   Fs1
 BYTE   W12
 BYTE   En1
 BYTE   W60
 BYTE   N24
 BYTE   W10
//  #07 //015   ----------------------------------------
 BYTE   W14
 BYTE   N12  En0
 BYTE   W12
 BYTE   N36  An0
 BYTE   W36
 BYTE   N24  An1
 BYTE   W24
 BYTE   N12  An0
 BYTE   W10
//  #07 //016   ----------------------------------------
 BYTE   PATT
  POIN2 Label_01F4D5F0
//  #07 //017   ----------------------------------------
 BYTE   PATT
  POIN2 Label_01F4D601
//  #07 //018   ----------------------------------------
 BYTE   PATT
  POIN2 Label_01F4D60F
//  #07 //019   ----------------------------------------
 BYTE   PATT
  POIN2 Label_01F4D620
//  #07 //020   ----------------------------------------
 BYTE   PATT
  POIN2 Label_01F4D62E
//  #07 //021   ----------------------------------------
 BYTE   PATT
  POIN2 Label_01F4D641
//  #07 //022   ----------------------------------------
 BYTE   W02
 BYTE   N12  En1  v068
 BYTE   W12
 BYTE   Fs1
 BYTE   W12
 BYTE   N24  En1
 BYTE   W36
 BYTE   N12
 BYTE   W12
 BYTE   N24  An0
 BYTE   W22
//  #07 //023   ----------------------------------------
 BYTE   W02
 BYTE   Cs1
 BYTE   W24
 BYTE   Dn1
 BYTE   W36
 BYTE   N24
 BYTE   W32
 BYTE   W02
//  #07 //024   ----------------------------------------
 BYTE   W24
 BYTE   W02
 BYTE   N12  An1
 BYTE   W36
 BYTE   N36
 BYTE   W32
 BYTE   W02
//  #07 //025   ----------------------------------------
 BYTE   W14
 BYTE   N12  En1
 BYTE   W12
 BYTE   Dn1
 BYTE   W48
 BYTE   N24
 BYTE   W22
//  #07 //026   ----------------------------------------
 BYTE   W02
 BYTE   An0
 BYTE   W24
 BYTE   N12  Gn1
 BYTE   W36
 BYTE   N36
 BYTE   W32
 BYTE   W02
//  #07 //027   ----------------------------------------
 BYTE   W14
 BYTE   N12  Dn1
 BYTE   W12
 BYTE   Gn0
 BYTE   W36
 BYTE   N24
 BYTE   W24
 BYTE   N12
 BYTE   W10
//  #07 //028   ----------------------------------------
 BYTE   W02
 BYTE   An0
 BYTE   W12
 BYTE   As0
 BYTE   W12
 BYTE   N24  Bn0
 BYTE   W36
 BYTE   N12
 BYTE   W12
 BYTE   N24
 BYTE   W22
//  #07 //029   ----------------------------------------
 BYTE   W24
 BYTE   W02
 BYTE   En1
 BYTE   W36
 BYTE   N12
 BYTE   W12
 BYTE   N24
 BYTE   W22
//  #07 //030   ----------------------------------------
 BYTE   W24
 BYTE   W02
 BYTE   N24
 BYTE   W36
 BYTE   N12
 BYTE   W12
 BYTE   N12
 BYTE   W12
 BYTE   Bn0
 BYTE   W10
//  #07 //031   ----------------------------------------
 BYTE   W02
 BYTE   En1
 BYTE   W12
 BYTE   Gn1
 BYTE   W12
 BYTE   N06  An1
 BYTE   W12
 BYTE   N24  An0
 BYTE   W24
 BYTE   Bn0
 BYTE   W24
 BYTE   N30  Cs1
 BYTE   W10
//  #07 //032   ----------------------------------------
 BYTE   W24
 BYTE   W02
 BYTE   N24  Dn1
 BYTE   W36
 BYTE   N12  An0
 BYTE   W12
 BYTE   Dn1
 BYTE   W12
 BYTE   N24
 BYTE   W10
//  #07 //033   ----------------------------------------
Label_01F4D6F7:
 BYTE   W14
 BYTE   N12  An0  v068
 BYTE   W12
 BYTE   N24  Bn0
 BYTE   W36
 BYTE   N12  Fs0
 BYTE   W12
 BYTE   Bn0
 BYTE   W12
 BYTE   N12
 BYTE   W10
 BYTE   PEND 
//  #07 //034   ----------------------------------------
Label_01F4D707:
 BYTE   W02
 BYTE   N12  Fs0  v068
 BYTE   W12
 BYTE   Bn0
 BYTE   W12
 BYTE   N24  En1
 BYTE   W36
 BYTE   N12  Bn0
 BYTE   W12
 BYTE   En1
 BYTE   W12
 BYTE   N24
 BYTE   W10
 BYTE   PEND 
//  #07 //035   ----------------------------------------
Label_01F4D719:
 BYTE   W14
 BYTE   N12  Bn0  v068
 BYTE   W12
 BYTE   N24  An1
 BYTE   W36
 BYTE   N12  En1
 BYTE   W12
 BYTE   An1
 BYTE   W12
 BYTE   An0
 BYTE   W10
 BYTE   PEND 
//  #07 //036   ----------------------------------------
Label_01F4D729:
 BYTE   W02
 BYTE   N12  An1  v068
 BYTE   W12
 BYTE   Gn1
 BYTE   W12
 BYTE   N24  Fs1
 BYTE   W36
 BYTE   N12  Cs1
 BYTE   W12
 BYTE   Fs1
 BYTE   W12
 BYTE   N24
 BYTE   W10
 BYTE   PEND 
//  #07 //037   ----------------------------------------
Label_01F4D73B:
 BYTE   W14
 BYTE   N12  Cs1  v068
 BYTE   W12
 BYTE   N24  Bn1
 BYTE   W36
 BYTE   N12  Fs1
 BYTE   W12
 BYTE   Bn1
 BYTE   W12
 BYTE   Cs1
 BYTE   W10
 BYTE   PEND 
//  #07 //038   ----------------------------------------
Label_01F4D74B:
 BYTE   W02
 BYTE   N12  Dn1  v068
 BYTE   W12
 BYTE   Ds1
 BYTE   W12
 BYTE   N24  En1
 BYTE   W36
 BYTE   N12  Bn0
 BYTE   W12
 BYTE   En1
 BYTE   W12
 BYTE   N24
 BYTE   W10
 BYTE   PEND 
//  #07 //039   ----------------------------------------
 BYTE   W14
 BYTE   N12  Bn0
 BYTE   W12
 BYTE   N24  An1
 BYTE   W36
 BYTE   N12  An0
 BYTE   W12
 BYTE   An1
 BYTE   W12
 BYTE   En1
 BYTE   W10
//  #07 //040   ----------------------------------------
 BYTE   W02
 BYTE   An1
 BYTE   W12
 BYTE   An0
 BYTE   W12
 BYTE   N24  Dn1
 BYTE   W36
 BYTE   N12  An0
 BYTE   W12
 BYTE   Dn1
 BYTE   W12
 BYTE   N24
 BYTE   W10
//  #07 //041   ----------------------------------------
 BYTE   PATT
  POIN2 Label_01F4D6F7
//  #07 //042   ----------------------------------------
 BYTE   PATT
  POIN2 Label_01F4D707
//  #07 //043   ----------------------------------------
 BYTE   PATT
  POIN2 Label_01F4D719
//  #07 //044   ----------------------------------------
 BYTE   PATT
  POIN2 Label_01F4D729
//  #07 //045   ----------------------------------------
 BYTE   PATT
  POIN2 Label_01F4D73B
//  #07 //046   ----------------------------------------
 BYTE   PATT
  POIN2 Label_01F4D74B
//  #07 //047   ----------------------------------------
 BYTE   PATT
  POIN2 Label_01F4D719
//  #07 //048   ----------------------------------------
 BYTE   W02
 BYTE   N12  Cs1  v068
 BYTE   W12
 BYTE   En1
 BYTE   W12
 BYTE   N24  Dn1
 BYTE   W36
 BYTE   N12  An0
 BYTE   W12
 BYTE   Dn1
 BYTE   W12
 BYTE   N24
 BYTE   W10
//  #07 //049   ----------------------------------------
 BYTE   W14
 BYTE   N12  An0
 BYTE   W12
 BYTE   N18  Dn1
 BYTE   W68
 BYTE   W02
//  #07 //050   ----------------------------------------
 BYTE   PATT
  POIN2 Label_01F4D59F
//  #07 //051   ----------------------------------------
 BYTE   GoTo
  POIN2 Label_01F4D5A9
 BYTE   FINE

//**************** Track 8 (Midi-Chn.7) ****************//

Kawanabe_008:
//  #08 //000   ----------------------------------------
 BYTE   KEYSH   Kawanabe_key+0
 BYTE   VOICE   124
 BYTE   MODT 0
 BYTE   LFOS 44
 BYTE   BENDR  12
 BYTE   VOL   68*Kawanabe_mvl/mxv
 BYTE   W24
 BYTE   W02
 BYTE   N12  Cn1  v127
 BYTE   W68
 BYTE   W02
//  #08 //001   ----------------------------------------
Label_01F4D7D7:
 BYTE   W14
 BYTE   N12  Cn1  v068
 BYTE   W12
 BYTE   Cn1  v127
 BYTE   W68
 BYTE   W02
 BYTE   PEND 
//  #08 //002   ----------------------------------------
Label_01F4D7E1:
//  #08 //003   ----------------------------------------
 BYTE   PATT
  POIN2 Label_01F4D7D7
//  #08 //004   ----------------------------------------
 BYTE   W14
 BYTE   N12  Cn1  v068
 BYTE   W12
 BYTE   Cn1  v127
 BYTE   W48
 BYTE   N12
 BYTE   N12  Gn1
 BYTE   W18
 BYTE   N06  En1  v068
 BYTE   W04
//  #08 //005   ----------------------------------------
 BYTE   W02
 BYTE   N06
 BYTE   W06
 BYTE   N06
 BYTE   W06
 BYTE   N12  Cn1
 BYTE   N12  Fn1  v127
 BYTE   W12
 BYTE   Cn1
 BYTE   W24
 BYTE   En1  v068
 BYTE   W12
 BYTE   Cn1
 BYTE   W12
 BYTE   Cn1  v127
 BYTE   W22
//  #08 //006   ----------------------------------------
 BYTE   W02
 BYTE   En1  v068
 BYTE   W24
 BYTE   Cn1  v127
 BYTE   W24
 BYTE   En1  v068
 BYTE   W12
 BYTE   Cn1
 BYTE   W24
 BYTE   N12
 BYTE   W10
//  #08 //007   ----------------------------------------
Label_01F4D819:
 BYTE   W02
 BYTE   N12  En1  v068
 BYTE   W24
 BYTE   Cn1  v127
 BYTE   W24
 BYTE   En1  v068
 BYTE   W12
 BYTE   Cn1
 BYTE   W12
 BYTE   Cn1  v127
 BYTE   W22
 BYTE   PEND 
//  #08 //008   ----------------------------------------
 BYTE   W02
 BYTE   En1  v068
 BYTE   W24
 BYTE   Cn1  v127
 BYTE   W24
 BYTE   En1  v068
 BYTE   W12
 BYTE   Cn1
 BYTE   W12
 BYTE   N18  Bn2  v012
 BYTE   W12
 BYTE   N12  Cn1  v068
 BYTE   W10
//  #08 //009   ----------------------------------------
 BYTE   W02
 BYTE   N06  En1
 BYTE   N18  Bn2  v012
 BYTE   W06
 BYTE   N06  En1  v068
 BYTE   W06
 BYTE   N12  Fn1  v127
 BYTE   W12
 BYTE   Cn1
 BYTE   N18  Bn2  v012
 BYTE   W24
 BYTE   N12  En1  v068
 BYTE   W12
 BYTE   Cn1
 BYTE   W12
 BYTE   Cn1  v127
 BYTE   W22
//  #08 //010   ----------------------------------------
Label_01F4D85B:
 BYTE   W02
 BYTE   N12  En1  v068
 BYTE   W12
 BYTE   Cn1
 BYTE   W12
 BYTE   Cn1  v127
 BYTE   W24
 BYTE   En1  v068
 BYTE   W12
 BYTE   Cn1
 BYTE   W24
 BYTE   N12
 BYTE   W10
 BYTE   PEND 
//  #08 //011   ----------------------------------------
 BYTE   PATT
  POIN2 Label_01F4D819
//  #08 //012   ----------------------------------------
Label_01F4D872:
 BYTE   W02
 BYTE   N12  En1  v068
 BYTE   W12
 BYTE   Cn1
 BYTE   W12
 BYTE   Cn1  v127
 BYTE   W24
 BYTE   En1  v068
 BYTE   W12
 BYTE   Cn1
 BYTE   W32
 BYTE   W02
 BYTE   PEND 
//  #08 //013   ----------------------------------------
 BYTE   PATT
  POIN2 Label_01F4D819
//  #08 //014   ----------------------------------------
 BYTE   PATT
  POIN2 Label_01F4D85B
//  #08 //015   ----------------------------------------
 BYTE   W02
 BYTE   N06  En1  v068
 BYTE   W06
 BYTE   N06
 BYTE   W06
 BYTE   N12  Cn1
 BYTE   N12  Fn1
 BYTE   W12
 BYTE   Cn1  v127
 BYTE   W24
 BYTE   En1  v068
 BYTE   W36
 BYTE   Cn1
 BYTE   N12  Gn1
 BYTE   W10
//  #08 //016   ----------------------------------------
 BYTE   N02  En1  v024
 BYTE   W02
 BYTE   N06  En1  v088
 BYTE   W12
 BYTE   N12  Cn1  v068
 BYTE   N12  Fn1
 BYTE   W24
 BYTE   Cn1  v127
 BYTE   N12  Gn1  v068
 BYTE   W12
 BYTE   En1
 BYTE   W12
 BYTE   Cn1
 BYTE   W24
 BYTE   Bn2  v012
 BYTE   W10
//  #08 //017   ----------------------------------------
 BYTE   W02
 BYTE   N06  En1  v068
 BYTE   N06  Bn2  v012
 BYTE   W06
 BYTE   En1  v068
 BYTE   W06
 BYTE   N06
 BYTE   N06  Bn2  v012
 BYTE   W12
 BYTE   N12  Cn1  v127
 BYTE   N06  Bn2  v012
 BYTE   W24
 BYTE   N12  En1  v068
 BYTE   W12
 BYTE   Cn1
 BYTE   W12
 BYTE   Cn1  v127
 BYTE   W22
//  #08 //018   ----------------------------------------
 BYTE   PATT
  POIN2 Label_01F4D85B
//  #08 //019   ----------------------------------------
 BYTE   PATT
  POIN2 Label_01F4D819
//  #08 //020   ----------------------------------------
 BYTE   PATT
  POIN2 Label_01F4D872
//  #08 //021   ----------------------------------------
 BYTE   PATT
  POIN2 Label_01F4D819
//  #08 //022   ----------------------------------------
 BYTE   PATT
  POIN2 Label_01F4D85B
//  #08 //023   ----------------------------------------
 BYTE   PATT
  POIN2 Label_01F4D819
//  #08 //024   ----------------------------------------
 BYTE   W02
 BYTE   N12  Cn1  v068
 BYTE   N12  En1
 BYTE   W24
 BYTE   N12
 BYTE   W12
 BYTE   Cn1  v127
 BYTE   N12  Gn1  v068
 BYTE   W12
 BYTE   En1
 BYTE   W12
 BYTE   Cn1
 BYTE   N12  Fn1
 BYTE   W22
 BYTE   Gn1
 BYTE   W02
 BYTE   An1
 BYTE   W10
//  #08 //025   ----------------------------------------
 BYTE   W02
 BYTE   Gn1
 BYTE   W12
 BYTE   Fn1
 BYTE   W12
 BYTE   Cn1  v127
 BYTE   W36
 BYTE   Cn1  v068
 BYTE   W32
 BYTE   W02
//  #08 //026   ----------------------------------------
 BYTE   W02
 BYTE   Cs1
 BYTE   N12  As1
 BYTE   W12
 BYTE   Cn1
 BYTE   W12
 BYTE   Cn1  v127
 BYTE   W36
 BYTE   Cn1  v068
 BYTE   W12
 BYTE   Cn1  v127
 BYTE   W22
//  #08 //027   ----------------------------------------
 BYTE   W02
 BYTE   En1  v068
 BYTE   W12
 BYTE   Cn1
 BYTE   W12
 BYTE   Cn1  v127
 BYTE   W36
 BYTE   Cn1  v068
 BYTE   W32
 BYTE   W02
//  #08 //028   ----------------------------------------
 BYTE   W02
 BYTE   Cs1
 BYTE   N12  As1
 BYTE   W12
 BYTE   Cn1
 BYTE   W12
 BYTE   Cn1  v127
 BYTE   W36
 BYTE   Cn1  v068
 BYTE   W32
 BYTE   W02
//  #08 //029   ----------------------------------------
 BYTE   W02
 BYTE   En1
 BYTE   W12
 BYTE   Cn1
 BYTE   W12
 BYTE   Cn1  v127
 BYTE   W24
 BYTE   En1  v068
 BYTE   W12
 BYTE   Cn1
 BYTE   W12
 BYTE   Cn1  v127
 BYTE   W22
//  #08 //030   ----------------------------------------
 BYTE   PATT
  POIN2 Label_01F4D819
//  #08 //031   ----------------------------------------
 BYTE   PATT
  POIN2 Label_01F4D819
//  #08 //032   ----------------------------------------
 BYTE   W02
 BYTE   N12  En1  v068
 BYTE   W24
 BYTE   N12
 BYTE   W12
 BYTE   Bn1  v127
 BYTE   W24
 BYTE   Gn1
 BYTE   W24
 BYTE   Bn0  v068
 BYTE   W10
//  #08 //033   ----------------------------------------
 BYTE   W02
 BYTE   N01  En1  v024
 BYTE   W01
 BYTE   N06  En1  v068
 BYTE   W11
 BYTE   N12  Cn1  v052
 BYTE   W12
 BYTE   Cn1  v127
 BYTE   W24
 BYTE   En1  v068
 BYTE   W12
 BYTE   Cn1
 BYTE   W12
 BYTE   Cn1  v127
 BYTE   W22
//  #08 //034   ----------------------------------------
 BYTE   PATT
  POIN2 Label_01F4D819
//  #08 //035   ----------------------------------------
 BYTE   PATT
  POIN2 Label_01F4D819
//  #08 //036   ----------------------------------------
 BYTE   PATT
  POIN2 Label_01F4D819
//  #08 //037   ----------------------------------------
 BYTE   PATT
  POIN2 Label_01F4D819
//  #08 //038   ----------------------------------------
 BYTE   PATT
  POIN2 Label_01F4D819
//  #08 //039   ----------------------------------------
 BYTE   PATT
  POIN2 Label_01F4D819
//  #08 //040   ----------------------------------------
 BYTE   W02
 BYTE   N12  En1  v068
 BYTE   W24
 BYTE   Cn1  v127
 BYTE   W24
 BYTE   En1  v068
 BYTE   W12
 BYTE   Cn1
 BYTE   W12
 BYTE   En1
 BYTE   N18  Bn2  v012
 BYTE   W18
 BYTE   N06  En1  v068
 BYTE   W04
//  #08 //041   ----------------------------------------
 BYTE   W02
 BYTE   N06
 BYTE   N18  Bn2  v012
 BYTE   W12
 BYTE   N12  Gn1  v068
 BYTE   W12
 BYTE   Cn1  v127
 BYTE   N18  Bn2  v012
 BYTE   W24
 BYTE   N12  En1  v068
 BYTE   W12
 BYTE   Cn1
 BYTE   W12
 BYTE   Cn1  v127
 BYTE   W22
//  #08 //042   ----------------------------------------
 BYTE   PATT
  POIN2 Label_01F4D819
//  #08 //043   ----------------------------------------
 BYTE   PATT
  POIN2 Label_01F4D819
//  #08 //044   ----------------------------------------
 BYTE   PATT
  POIN2 Label_01F4D819
//  #08 //045   ----------------------------------------
 BYTE   PATT
  POIN2 Label_01F4D819
//  #08 //046   ----------------------------------------
 BYTE   PATT
  POIN2 Label_01F4D819
//  #08 //047   ----------------------------------------
 BYTE   PATT
  POIN2 Label_01F4D819
//  #08 //048   ----------------------------------------
 BYTE   PATT
  POIN2 Label_01F4D819
//  #08 //049   ----------------------------------------
 BYTE   W02
 BYTE   N12  En1  v068
 BYTE   W24
 BYTE   Cn1  v127
 BYTE   W24
 BYTE   En1  v068
 BYTE   W12
 BYTE   Cn1
 BYTE   W32
 BYTE   W02
//  #08 //050   ----------------------------------------
 BYTE   W02
 BYTE   N06  En1
 BYTE   W06
 BYTE   N06
 BYTE   W06
 BYTE   N12  Cn1
 BYTE   N12  Fn1
 BYTE   W12
 BYTE   Cn1  v127
 BYTE   W68
 BYTE   W02
//  #08 //051   ----------------------------------------
 BYTE   PATT
  POIN2 Label_01F4D7D7
//  #08 //052   ----------------------------------------
 BYTE   GoTo
  POIN2 Label_01F4D7E1
 BYTE   FINE

//**************** Track 9 (Midi-Chn.8) ****************//

Kawanabe_009:
//  #09 //000   ----------------------------------------
 BYTE   KEYSH   Kawanabe_key+0
 BYTE   VOICE   124
 BYTE   MODT 0
 BYTE   LFOS 44
 BYTE   BENDR  12
 BYTE   VOL   68*Kawanabe_mvl/mxv
 BYTE   W24
 BYTE   W02
 BYTE   N06  Fs1  v028
 BYTE   W12
 BYTE   Fs1  v008
 BYTE   W12
 BYTE   Fs1  v024
 BYTE   W12
 BYTE   Fs1  v008
 BYTE   W12
 BYTE   Fs1  v028
 BYTE   W12
 BYTE   Fs1  v008
 BYTE   W10
//  #09 //001   ----------------------------------------
Label_01F4DA49:
 BYTE   W02
 BYTE   N06  Fs1  v024
 BYTE   W12
 BYTE   Fs1  v008
 BYTE   W12
 BYTE   Fs1  v028
 BYTE   W12
 BYTE   Fs1  v008
 BYTE   W12
 BYTE   Fs1  v024
 BYTE   W12
 BYTE   Fs1  v008
 BYTE   W12
 BYTE   Fs1  v028
 BYTE   W12
 BYTE   Fs1  v008
 BYTE   W10
 BYTE   PEND 
//  #09 //002   ----------------------------------------
Label_01F4DA64:
//  #09 //003   ----------------------------------------
 BYTE   PATT
  POIN2 Label_01F4DA49
//  #09 //004   ----------------------------------------
Label_01F4DA69:
 BYTE   W02
 BYTE   N06  Fs1  v024
 BYTE   W12
 BYTE   Fs1  v008
 BYTE   W12
 BYTE   Fs1  v028
 BYTE   W12
 BYTE   Fs1  v008
 BYTE   W12
 BYTE   Fs1  v024
 BYTE   W12
 BYTE   Fs1  v008
 BYTE   W32
 BYTE   W02
 BYTE   PEND 
//  #09 //005   ----------------------------------------
Label_01F4DA7F:
 BYTE   W24
 BYTE   W02
 BYTE   N06  Fs1  v028
 BYTE   W12
 BYTE   Fs1  v008
 BYTE   W12
 BYTE   Fs1  v024
 BYTE   W12
 BYTE   Fs1  v008
 BYTE   W12
 BYTE   Fs1  v028
 BYTE   W12
 BYTE   Fs1  v008
 BYTE   W10
 BYTE   PEND 
//  #09 //006   ----------------------------------------
 BYTE   PATT
  POIN2 Label_01F4DA49
//  #09 //007   ----------------------------------------
 BYTE   PATT
  POIN2 Label_01F4DA49
//  #09 //008   ----------------------------------------
Label_01F4DA9F:
 BYTE   W02
 BYTE   N06  Fs1  v024
 BYTE   W12
 BYTE   Fs1  v008
 BYTE   W12
 BYTE   Fs1  v028
 BYTE   W12
 BYTE   Fs1  v008
 BYTE   W12
 BYTE   Fs1  v024
 BYTE   W12
 BYTE   N06
 BYTE   W06
 BYTE   Fs1  v012
 BYTE   W06
 BYTE   Fs1  v032
 BYTE   W06
 BYTE   Fs1  v012
 BYTE   W06
 BYTE   As1  v024
 BYTE   W10
 BYTE   PEND 
//  #09 //009   ----------------------------------------
 BYTE   PATT
  POIN2 Label_01F4DA7F
//  #09 //010   ----------------------------------------
 BYTE   PATT
  POIN2 Label_01F4DA49
//  #09 //011   ----------------------------------------
 BYTE   PATT
  POIN2 Label_01F4DA49
//  #09 //012   ----------------------------------------
 BYTE   PATT
  POIN2 Label_01F4DA49
//  #09 //013   ----------------------------------------
 BYTE   PATT
  POIN2 Label_01F4DA49
//  #09 //014   ----------------------------------------
 BYTE   W02
 BYTE   N06  Fs1  v024
 BYTE   W12
 BYTE   Fs1  v008
 BYTE   W12
 BYTE   Fs1  v028
 BYTE   W12
 BYTE   Fs1  v008
 BYTE   W12
 BYTE   Fs1  v024
 BYTE   W12
 BYTE   Fs1  v008
 BYTE   W12
 BYTE   Fs1  v028
 BYTE   W12
 BYTE   As1
 BYTE   W10
//  #09 //015   ----------------------------------------
 BYTE   W24
 BYTE   W02
 BYTE   Fs1  v044
 BYTE   W24
 BYTE   Fs1  v036
 BYTE   W12
 BYTE   Fs1  v024
 BYTE   W12
 BYTE   Fs1  v040
 BYTE   W22
//  #09 //016   ----------------------------------------
 BYTE   W02
 BYTE   Fs1  v028
 BYTE   W12
 BYTE   Fs1  v024
 BYTE   W12
 BYTE   Fs1  v044
 BYTE   W24
 BYTE   Fs1  v036
 BYTE   W12
 BYTE   As1  v024
 BYTE   W24
 BYTE   Fs1  v008
 BYTE   W10
//  #09 //017   ----------------------------------------
 BYTE   W02
 BYTE   N06
 BYTE   W12
 BYTE   N06
 BYTE   W12
 BYTE   Fs1  v028
 BYTE   W12
 BYTE   Fs1  v008
 BYTE   W12
 BYTE   Fs1  v024
 BYTE   W12
 BYTE   Fs1  v008
 BYTE   W12
 BYTE   Fs1  v028
 BYTE   W12
 BYTE   Fs1  v008
 BYTE   W10
//  #09 //018   ----------------------------------------
 BYTE   PATT
  POIN2 Label_01F4DA49
//  #09 //019   ----------------------------------------
 BYTE   PATT
  POIN2 Label_01F4DA49
//  #09 //020   ----------------------------------------
 BYTE   PATT
  POIN2 Label_01F4DA49
//  #09 //021   ----------------------------------------
 BYTE   PATT
  POIN2 Label_01F4DA49
//  #09 //022   ----------------------------------------
 BYTE   PATT
  POIN2 Label_01F4DA49
//  #09 //023   ----------------------------------------
 BYTE   PATT
  POIN2 Label_01F4DA49
//  #09 //024   ----------------------------------------
 BYTE   W02
 BYTE   N06  Fs1  v024
 BYTE   W12
 BYTE   Fs1  v008
 BYTE   W12
 BYTE   Fs1  v028
 BYTE   W24
 BYTE   Fs1  v024
 BYTE   W44
 BYTE   W02
//  #09 //025   ----------------------------------------
 BYTE   W24
 BYTE   W02
 BYTE   Fs1  v036
 BYTE   W12
 BYTE   Fs1  v032
 BYTE   W12
 BYTE   Fs1  v012
 BYTE   W12
 BYTE   Fs1  v036
 BYTE   W12
 BYTE   Fs1  v028
 BYTE   W12
 BYTE   Fs1  v008
 BYTE   W10
//  #09 //026   ----------------------------------------
 BYTE   W14
 BYTE   As1  v020
 BYTE   W12
 BYTE   Fs1  v028
 BYTE   W12
 BYTE   Fs1  v020
 BYTE   W12
 BYTE   Fs1  v016
 BYTE   W12
 BYTE   As1  v024
 BYTE   W12
 BYTE   Fs1  v032
 BYTE   W12
 BYTE   Fs1  v024
 BYTE   W10
//  #09 //027   ----------------------------------------
 BYTE   W02
 BYTE   Fs1  v036
 BYTE   W12
 BYTE   Fs1  v016
 BYTE   W12
 BYTE   Fs1  v036
 BYTE   W12
 BYTE   Fs1  v032
 BYTE   W12
 BYTE   Fs1  v012
 BYTE   W12
 BYTE   Fs1  v036
 BYTE   W12
 BYTE   Fs1  v028
 BYTE   W12
 BYTE   Fs1  v008
 BYTE   W10
//  #09 //028   ----------------------------------------
 BYTE   W14
 BYTE   As1  v020
 BYTE   W12
 BYTE   Fs1  v028
 BYTE   W12
 BYTE   Fs1  v020
 BYTE   W12
 BYTE   Fs1  v016
 BYTE   W12
 BYTE   Fs1  v024
 BYTE   W12
 BYTE   Fs1  v032
 BYTE   W12
 BYTE   Fs1  v024
 BYTE   W10
//  #09 //029   ----------------------------------------
 BYTE   W02
 BYTE   Fs1  v036
 BYTE   W12
 BYTE   Fs1  v016
 BYTE   W12
 BYTE   Fs1  v028
 BYTE   W12
 BYTE   Fs1  v008
 BYTE   W12
 BYTE   Fs1  v024
 BYTE   W12
 BYTE   Fs1  v008
 BYTE   W12
 BYTE   Fs1  v028
 BYTE   W12
 BYTE   Fs1  v008
 BYTE   W10
//  #09 //030   ----------------------------------------
 BYTE   PATT
  POIN2 Label_01F4DA49
//  #09 //031   ----------------------------------------
 BYTE   PATT
  POIN2 Label_01F4DA49
//  #09 //032   ----------------------------------------
 BYTE   W02
 BYTE   N06  Fs1  v024
 BYTE   W12
 BYTE   Fs1  v008
 BYTE   W12
 BYTE   Fs1  v068
 BYTE   W60
 BYTE   Fs1  v028
 BYTE   W10
//  #09 //033   ----------------------------------------
 BYTE   W02
 BYTE   Fs1  v020
 BYTE   W12
 BYTE   Fs1  v024
 BYTE   W12
 BYTE   Fs1  v028
 BYTE   W12
 BYTE   Fs1  v008
 BYTE   W12
 BYTE   Fs1  v024
 BYTE   W12
 BYTE   Fs1  v008
 BYTE   W12
 BYTE   Fs1  v028
 BYTE   W12
 BYTE   Fs1  v008
 BYTE   W10
//  #09 //034   ----------------------------------------
 BYTE   PATT
  POIN2 Label_01F4DA49
//  #09 //035   ----------------------------------------
 BYTE   PATT
  POIN2 Label_01F4DA49
//  #09 //036   ----------------------------------------
 BYTE   PATT
  POIN2 Label_01F4DA49
//  #09 //037   ----------------------------------------
 BYTE   PATT
  POIN2 Label_01F4DA49
//  #09 //038   ----------------------------------------
 BYTE   PATT
  POIN2 Label_01F4DA49
//  #09 //039   ----------------------------------------
 BYTE   PATT
  POIN2 Label_01F4DA49
//  #09 //040   ----------------------------------------
 BYTE   PATT
  POIN2 Label_01F4DA69
//  #09 //041   ----------------------------------------
 BYTE   PATT
  POIN2 Label_01F4DA7F
//  #09 //042   ----------------------------------------
 BYTE   PATT
  POIN2 Label_01F4DA49
//  #09 //043   ----------------------------------------
 BYTE   PATT
  POIN2 Label_01F4DA49
//  #09 //044   ----------------------------------------
 BYTE   PATT
  POIN2 Label_01F4DA49
//  #09 //045   ----------------------------------------
 BYTE   PATT
  POIN2 Label_01F4DA49
//  #09 //046   ----------------------------------------
 BYTE   PATT
  POIN2 Label_01F4DA49
//  #09 //047   ----------------------------------------
 BYTE   PATT
  POIN2 Label_01F4DA49
//  #09 //048   ----------------------------------------
 BYTE   PATT
  POIN2 Label_01F4DA49
//  #09 //049   ----------------------------------------
 BYTE   PATT
  POIN2 Label_01F4DA9F
//  #09 //050   ----------------------------------------
 BYTE   PATT
  POIN2 Label_01F4DA7F
//  #09 //051   ----------------------------------------
 BYTE   PATT
  POIN2 Label_01F4DA49
//  #09 //052   ----------------------------------------
 BYTE   GoTo
  POIN2 Label_01F4DA64
 BYTE   FINE

//******************************************************//
	ALIGN 4

Kawanabe:
	BYTE	9	// NumTrks
	BYTE	0	// NumBlks
	BYTE	Kawanabe_pri	// Priority
	BYTE	Kawanabe_rev	// Reverb.
    
	POIN2	Kawanabe_grp
    
	POIN2	Kawanabe_001
	POIN2	Kawanabe_002
	POIN2	Kawanabe_003
	POIN2	Kawanabe_004
	POIN2	Kawanabe_005
	POIN2	Kawanabe_006
	POIN2	Kawanabe_007
	POIN2	Kawanabe_008
	POIN2	Kawanabe_009

	
