//Event file generated from Sappy .s format.
	#include "MPlayDef.event"

	#define	KiramekiRider_grp  voicegroup000
	#define	KiramekiRider_pri  0
	#define	KiramekiRider_rev  0
	#define	KiramekiRider_mvl  127
	#define	KiramekiRider_key  0
	#define	KiramekiRider_tbs  1
	#define	KiramekiRider_exg  0
	#define	KiramekiRider_cmp  1

	// .rodata
	//	KiramekiRider
	ALIGN 4


//**************** Track 1 (Midi-Chn.0) ****************//

KiramekiRider_001:
//  #01 //000   ----------------------------------------
 BYTE   KEYSH   KiramekiRider_key+0
 BYTE   TEMPO   140*KiramekiRider_tbs/2
 BYTE   VOICE   75
 BYTE   MODT 0
 BYTE   LFOS 44
 BYTE   VOL   88*KiramekiRider_mvl/mxv
 BYTE   PAN   c_v+0
 BYTE   W24
 BYTE   W96
//  #01 //001   ----------------------------------------
 BYTE   W96
//  #01 //002   ----------------------------------------
 BYTE   W96
//  #01 //003   ----------------------------------------
 BYTE   W96
//  #01 //004   ----------------------------------------
 BYTE   W96
//  #01 //005   ----------------------------------------
 BYTE   W96
//  #01 //006   ----------------------------------------
 BYTE   W96
//  #01 //007   ----------------------------------------
 BYTE   W96
//  #01 //008   ----------------------------------------
 BYTE   TEMPO   68*KiramekiRider_tbs/2
 BYTE   W96
//  #01 //009   ----------------------------------------
 BYTE   W96
//  #01 //010   ----------------------------------------
 BYTE   TEMPO   160*KiramekiRider_tbs/2
 BYTE   W96
//  #01 //011   ----------------------------------------
Label_0183B7C6:
 BYTE   N90  Gs3  v060
 BYTE   W96
 BYTE   PEND 
//  #01 //012   ----------------------------------------
Label_0183B7CB:
 BYTE   N44  Fs3  v060
 BYTE   W48
 BYTE   N22  Fn3
 BYTE   W24
 BYTE   Cs3
 BYTE   W24
 BYTE   PEND 
//  #01 //013   ----------------------------------------
 BYTE   PATT
  POIN2 Label_0183B7C6
//  #01 //014   ----------------------------------------
 BYTE   PATT
  POIN2 Label_0183B7CB
//  #01 //015   ----------------------------------------
Label_0183B7DF:
 BYTE   N78  Gs3  v060
 BYTE   W48
 BYTE   W36
 BYTE   N22
 BYTE   W12
 BYTE   PEND 
//  #01 //016   ----------------------------------------
Label_0183B7E7:
 BYTE   W12
 BYTE   N22  As3  v060
 BYTE   W24
 BYTE   Cs4
 BYTE   W24
 BYTE   N32  Ds4
 BYTE   W36
 BYTE   PEND 
//  #01 //017   ----------------------------------------
Label_0183B7F2:
 BYTE   N32  Fn4  v060
 BYTE   W36
 BYTE   En4
 BYTE   W36
 BYTE   Ds4
 BYTE   W24
 BYTE   PEND 
//  #01 //018   ----------------------------------------
 BYTE   W12
 BYTE   Dn4
 BYTE   W36
 BYTE   N44  Cs4
 BYTE   W48
//  #01 //019   ----------------------------------------
 BYTE   W08
Label_0183B802:
 BYTE   W88
//  #01 //020   ----------------------------------------
 BYTE   W96
//  #01 //021   ----------------------------------------
 BYTE   W96
//  #01 //022   ----------------------------------------
 BYTE   W96
//  #01 //023   ----------------------------------------
 BYTE   W96
//  #01 //024   ----------------------------------------
 BYTE   W96
//  #01 //025   ----------------------------------------
 BYTE   W96
//  #01 //026   ----------------------------------------
 BYTE   W96
//  #01 //027   ----------------------------------------
 BYTE   W24
 BYTE   N22  Cs4  v080
 BYTE   W24
 BYTE   Ds4
 BYTE   W24
 BYTE   Cs4
 BYTE   W24
//  #01 //028   ----------------------------------------
 BYTE   Fn4
 BYTE   W24
 BYTE   N11  Fs4
 BYTE   W12
 BYTE   N22  Fn4
 BYTE   W24
 BYTE   As4
 BYTE   W24
 BYTE   N32  Gs4
 BYTE   W12
//  #01 //029   ----------------------------------------
 BYTE   W24
 BYTE   N11  Cs4
 BYTE   W12
 BYTE   N22
 BYTE   W24
 BYTE   Ds4
 BYTE   W24
 BYTE   N78  Fn4
 BYTE   W12
//  #01 //030   ----------------------------------------
 BYTE   W96
//  #01 //031   ----------------------------------------
 BYTE   W24
 BYTE   N22  As4
 BYTE   W24
 BYTE   Gs4
 BYTE   W24
 BYTE   Fs4
 BYTE   W24
//  #01 //032   ----------------------------------------
 BYTE   Fn4
 BYTE   W24
 BYTE   N11  Fs4
 BYTE   W12
 BYTE   N22  Fn4
 BYTE   W24
 BYTE   Cs4
 BYTE   W24
 BYTE   Ds4
 BYTE   W12
//  #01 //033   ----------------------------------------
 BYTE   W12
 BYTE   N11  Cs4
 BYTE   W12
 BYTE   N90
 BYTE   W72
//  #01 //034   ----------------------------------------
 BYTE   W96
//  #01 //035   ----------------------------------------
 BYTE   N22  Gn3  v044
 BYTE   W24
 BYTE   Bn3
 BYTE   W24
 BYTE   N44  Dn4
 BYTE   W48
//  #01 //036   ----------------------------------------
 BYTE   N22  Fs3
 BYTE   W24
 BYTE   As3
 BYTE   W24
 BYTE   N44  Cs4
 BYTE   W48
//  #01 //037   ----------------------------------------
 BYTE   N22  Fn3
 BYTE   W24
 BYTE   Gs3
 BYTE   W24
 BYTE   N44  Cn4
 BYTE   W48
//  #01 //038   ----------------------------------------
 BYTE   N22
 BYTE   W24
 BYTE   Ds4
 BYTE   W24
 BYTE   N32  Fs4
 BYTE   W36
 BYTE   N22  Ds4  v080
 BYTE   W12
//  #01 //039   ----------------------------------------
 BYTE   W12
 BYTE   N05
 BYTE   W12
 BYTE   N05
 BYTE   W72
//  #01 //040   ----------------------------------------
 BYTE   W84
 BYTE   N22  Fn4
 BYTE   W12
//  #01 //041   ----------------------------------------
 BYTE   W12
 BYTE   N05
 BYTE   W12
 BYTE   N05
 BYTE   W60
 BYTE   N22
 BYTE   W12
//  #01 //042   ----------------------------------------
 BYTE   W12
 BYTE   Fs4
 BYTE   W24
 BYTE   N44  Gs4
 BYTE   W60
//  #01 //043   ----------------------------------------
 BYTE   N22  Ds3  v044
 BYTE   W24
 BYTE   As3
 BYTE   W24
 BYTE   Cs3
 BYTE   W24
 BYTE   Gs3
 BYTE   W24
//  #01 //044   ----------------------------------------
 BYTE   Fs3
 BYTE   W24
 BYTE   As3
 BYTE   W24
 BYTE   Cs4
 BYTE   W24
 BYTE   As3
 BYTE   W24
//  #01 //045   ----------------------------------------
 BYTE   Gs3
 BYTE   W24
 BYTE   Cn4
 BYTE   W24
 BYTE   Ds4
 BYTE   W24
 BYTE   Cn4
 BYTE   W24
//  #01 //046   ----------------------------------------
 BYTE   Gs3
 BYTE   W24
 BYTE   Cn4
 BYTE   W24
 BYTE   Ds4
 BYTE   W24
 BYTE   Cn4
 BYTE   W24
//  #01 //047   ----------------------------------------
Label_0183B8A3:
 BYTE   N11  Gn3  v080
 BYTE   W12
 BYTE   N11
 BYTE   W24
 BYTE   N11
 BYTE   W24
 BYTE   N11
 BYTE   W24
 BYTE   N22
 BYTE   W12
 BYTE   PEND 
//  #01 //048   ----------------------------------------
Label_0183B8B0:
 BYTE   W06
 BYTE   W06
 BYTE   W12
 BYTE   N44  An3  v088
 BYTE   W06
 BYTE   W06
 BYTE   W06
 BYTE   W06
 BYTE   W06
 BYTE   W06
 BYTE   W06
 BYTE   W06
 BYTE   N11  Fn3  v100
 BYTE   W06
 BYTE   W06
 BYTE   Fs3
 BYTE   W06
 BYTE   W06
 BYTE   PEND 
//  #01 //049   ----------------------------------------
Label_0183B8C7:
 BYTE   N22  Gs3  v104
 BYTE   W24
 BYTE   N11  Fn3
 BYTE   W12
 BYTE   Fs3
 BYTE   W12
 BYTE   N22  Gs3
 BYTE   W24
 BYTE   N11  Fn3
 BYTE   W12
 BYTE   Fs3
 BYTE   W12
 BYTE   PEND 
//  #01 //050   ----------------------------------------
Label_0183B8D9:
 BYTE   N22  Gs3  v104
 BYTE   W24
 BYTE   Cs4
 BYTE   W24
 BYTE   Cn4
 BYTE   W24
 BYTE   As3
 BYTE   W24
 BYTE   PEND 
//  #01 //051   ----------------------------------------
Label_0183B8E4:
 BYTE   N22  Gs3  v104
 BYTE   W24
 BYTE   N11  Cs3
 BYTE   W12
 BYTE   N22
 BYTE   W24
 BYTE   Ds3
 BYTE   W24
 BYTE   N56  Fn3
 BYTE   W12
 BYTE   PEND 
//  #01 //052   ----------------------------------------
Label_0183B8F3:
 BYTE   W72
 BYTE   N11  Cs3  v104
 BYTE   W12
 BYTE   Ds3
 BYTE   W12
 BYTE   PEND 
//  #01 //053   ----------------------------------------
Label_0183B8FB:
 BYTE   N22  Fn3  v104
 BYTE   W24
 BYTE   N11  Cs3
 BYTE   W12
 BYTE   Ds3
 BYTE   W12
 BYTE   N22  Fn3
 BYTE   W24
 BYTE   N11  Cs3
 BYTE   W12
 BYTE   Ds3
 BYTE   W12
 BYTE   PEND 
//  #01 //054   ----------------------------------------
Label_0183B90D:
 BYTE   N22  Fn3  v104
 BYTE   W24
 BYTE   N11  Fs3
 BYTE   W12
 BYTE   N22  Fn3
 BYTE   W24
 BYTE   N11  Cs3
 BYTE   W12
 BYTE   As3
 BYTE   W12
 BYTE   TIE  Gs3
 BYTE   W12
 BYTE   PEND 
//  #01 //055   ----------------------------------------
 BYTE   W90
 BYTE   EOT
 BYTE   W06
//  #01 //056   ----------------------------------------
Label_0183B923:
 BYTE   W72
 BYTE   N11  Fn3  v104
 BYTE   W12
 BYTE   Fs3
 BYTE   W12
 BYTE   PEND 
//  #01 //057   ----------------------------------------
 BYTE   PATT
  POIN2 Label_0183B8C7
//  #01 //058   ----------------------------------------
 BYTE   PATT
  POIN2 Label_0183B8D9
//  #01 //059   ----------------------------------------
Label_0183B935:
 BYTE   N44  An3  v104
 BYTE   W48
 BYTE   N32  Cn4
 BYTE   W36
 BYTE   TIE  Cs4
 BYTE   W12
 BYTE   PEND 
//  #01 //060   ----------------------------------------
 BYTE   W90
 BYTE   EOT
 BYTE   W06
//  #01 //061   ----------------------------------------
Label_0183B943:
 BYTE   W60
 BYTE   N11  As2  v104
 BYTE   W12
 BYTE   Cs3
 BYTE   W12
 BYTE   As2
 BYTE   W12
 BYTE   PEND 
//  #01 //062   ----------------------------------------
Label_0183B94D:
 BYTE   N22  Cs3  v104
 BYTE   W24
 BYTE   N11  Ds3
 BYTE   W12
 BYTE   N22  Cs3
 BYTE   W24
 BYTE   Ds3
 BYTE   W24
 BYTE   Fn3
 BYTE   W12
 BYTE   PEND 
//  #01 //063   ----------------------------------------
Label_0183B95C:
 BYTE   W12
 BYTE   N11  Fs3  v104
 BYTE   W12
 BYTE   Fn3
 BYTE   W12
 BYTE   N22  Ds3
 BYTE   W24
 BYTE   Cs3
 BYTE   W24
 BYTE   As3
 BYTE   W12
 BYTE   PEND 
//  #01 //064   ----------------------------------------
Label_0183B96B:
 BYTE   W12
 BYTE   N11  Gs3  v104
 BYTE   W12
 BYTE   Fn3
 BYTE   W12
 BYTE   N22  Gs3
 BYTE   W24
 BYTE   As3
 BYTE   W24
 BYTE   N56  Cs3
 BYTE   W12
 BYTE   PEND 
//  #01 //065   ----------------------------------------
Label_0183B97B:
 BYTE   W60
 BYTE   N11  Fn3  v104
 BYTE   W12
 BYTE   Fs3
 BYTE   W12
 BYTE   Gs3
 BYTE   W12
 BYTE   PEND 
//  #01 //066   ----------------------------------------
Label_0183B985:
 BYTE   N22  Gs3  v104
 BYTE   W24
 BYTE   N11  Fn3
 BYTE   W12
 BYTE   N22  Gs3
 BYTE   W24
 BYTE   Ds4
 BYTE   W24
 BYTE   N56  Cs4
 BYTE   W12
 BYTE   PEND 
//  #01 //067   ----------------------------------------
Label_0183B995:
 BYTE   W72
 BYTE   N11  Cs3  v104
 BYTE   W12
 BYTE   N11
 BYTE   W12
 BYTE   PEND 
//  #01 //068   ----------------------------------------
Label_0183B99D:
 BYTE   N11  Fs3  v104
 BYTE   W12
 BYTE   Fn3
 BYTE   W12
 BYTE   Cs3
 BYTE   W12
 BYTE   N22  Ds3
 BYTE   W24
 BYTE   N11  Fn3
 BYTE   W12
 BYTE   N90  Cs3
 BYTE   W24
 BYTE   PEND 
//  #01 //069   ----------------------------------------
 BYTE   W96
//  #01 //070   ----------------------------------------
 BYTE   W96
//  #01 //071   ----------------------------------------
 BYTE   W96
//  #01 //072   ----------------------------------------
 BYTE   W96
//  #01 //073   ----------------------------------------
 BYTE   W96
//  #01 //074   ----------------------------------------
 BYTE   W24
 BYTE   N22  En3
 BYTE   W24
 BYTE   N32
 BYTE   W36
 BYTE   N22
 BYTE   W12
//  #01 //075   ----------------------------------------
 BYTE   W12
 BYTE   Bn3
 BYTE   W24
 BYTE   An3
 BYTE   W24
 BYTE   Gs3
 BYTE   W24
 BYTE   N11
 BYTE   W12
//  #01 //076   ----------------------------------------
 BYTE   N32
 BYTE   W36
 BYTE   N11  An3
 BYTE   W12
 BYTE   N44
 BYTE   W48
//  #01 //077   ----------------------------------------
 BYTE   N32  Cs4
 BYTE   W36
 BYTE   N11  An3
 BYTE   W12
 BYTE   N44
 BYTE   W48
//  #01 //078   ----------------------------------------
 BYTE   W36
 BYTE   N22  En3
 BYTE   W24
 BYTE   N11  Dn3
 BYTE   W12
 BYTE   Cs3
 BYTE   W12
 BYTE   Dn3
 BYTE   W12
//  #01 //079   ----------------------------------------
 BYTE   N22  En3
 BYTE   W24
 BYTE   N11  An3
 BYTE   W12
 BYTE   N22  Gs3
 BYTE   W24
 BYTE   N32  An3
 BYTE   W36
//  #01 //080   ----------------------------------------
 BYTE   N22  Bn3
 BYTE   W24
 BYTE   N11  An3
 BYTE   W12
 BYTE   N22  Gs3
 BYTE   W24
 BYTE   An3
 BYTE   W24
 BYTE   N56  En3
 BYTE   W12
//  #01 //081   ----------------------------------------
 BYTE   W60
 BYTE   N11
 BYTE   W12
 BYTE   N22
 BYTE   W24
//  #01 //082   ----------------------------------------
 BYTE   N22
 BYTE   W24
 BYTE   N11  Cs3
 BYTE   W12
 BYTE   N22  En3
 BYTE   W24
 BYTE   An3
 BYTE   W24
 BYTE   N32
 BYTE   W12
//  #01 //083   ----------------------------------------
 BYTE   W24
 BYTE   N22  Fs3
 BYTE   W24
 BYTE   Gs3
 BYTE   W24
 BYTE   An3
 BYTE   W24
//  #01 //084   ----------------------------------------
 BYTE   Cs4
 BYTE   W24
 BYTE   N11  Bn3
 BYTE   W12
 BYTE   TIE
 BYTE   W12
 BYTE   W48
//  #01 //085   ----------------------------------------
 BYTE   W48
 BYTE   W05
 BYTE   EOT
 BYTE   W07
 BYTE   N11  Fs3
 BYTE   W12
 BYTE   Cs4
 BYTE   W12
 BYTE   TIE  Bn3
 BYTE   W12
//  #01 //086   ----------------------------------------
 BYTE   W96
//  #01 //087   ----------------------------------------
 BYTE   W84
 BYTE   W01
 BYTE   EOT
 BYTE   W11
//  #01 //088   ----------------------------------------
 BYTE   W96
//  #01 //089   ----------------------------------------
 BYTE   W96
//  #01 //090   ----------------------------------------
 BYTE   W96
//  #01 //091   ----------------------------------------
 BYTE   W96
//  #01 //092   ----------------------------------------
 BYTE   W96
//  #01 //093   ----------------------------------------
 BYTE   W96
//  #01 //094   ----------------------------------------
 BYTE   W96
//  #01 //095   ----------------------------------------
 BYTE   W96
//  #01 //096   ----------------------------------------
 BYTE   W96
//  #01 //097   ----------------------------------------
 BYTE   W96
//  #01 //098   ----------------------------------------
 BYTE   W96
//  #01 //099   ----------------------------------------
 BYTE   W96
//  #01 //100   ----------------------------------------
 BYTE   W96
//  #01 //101   ----------------------------------------
 BYTE   W96
//  #01 //102   ----------------------------------------
 BYTE   W96
//  #01 //103   ----------------------------------------
 BYTE   W96
//  #01 //104   ----------------------------------------
 BYTE   W96
//  #01 //105   ----------------------------------------
 BYTE   W96
//  #01 //106   ----------------------------------------
 BYTE   W96
//  #01 //107   ----------------------------------------
 BYTE   W96
//  #01 //108   ----------------------------------------
 BYTE   W96
//  #01 //109   ----------------------------------------
 BYTE   W96
//  #01 //110   ----------------------------------------
 BYTE   N68  En3  v044
 BYTE   W72
 BYTE   N22  Fs3
 BYTE   W24
//  #01 //111   ----------------------------------------
 BYTE   N90  En3
 BYTE   W96
//  #01 //112   ----------------------------------------
 BYTE   N68  Gn3
 BYTE   W72
 BYTE   N22  As3
 BYTE   W24
//  #01 //113   ----------------------------------------
 BYTE   N90  Bn3
 BYTE   W96
//  #01 //114   ----------------------------------------
 BYTE   W24
 BYTE   N22  Bn2  v060
 BYTE   W24
 BYTE   Cs3
 BYTE   W24
 BYTE   Ds3
 BYTE   W24
//  #01 //115   ----------------------------------------
 BYTE   En3
 BYTE   W24
 BYTE   Ds3
 BYTE   W24
 BYTE   En3
 BYTE   W24
 BYTE   Gs3
 BYTE   W24
//  #01 //116   ----------------------------------------
 BYTE   N22
 BYTE   W24
 BYTE   N11  Fs3
 BYTE   W12
 BYTE   N78
 BYTE   W12
 BYTE   W48
//  #01 //117   ----------------------------------------
 BYTE   W48
 BYTE   N22  Cs3
 BYTE   W24
 BYTE   Cs4
 BYTE   W24
//  #01 //118   ----------------------------------------
 BYTE   N90
 BYTE   W12
 BYTE   W12
 BYTE   W12
 BYTE   W12
 BYTE   W12
 BYTE   W12
 BYTE   W12
 BYTE   W12
//  #01 //119   ----------------------------------------
 BYTE   Cn4  v072
 BYTE   W12
 BYTE   W12
 BYTE   W12
 BYTE   W12
 BYTE   W12
 BYTE   W12
 BYTE   W12
 BYTE   W12
//  #01 //120   ----------------------------------------
 BYTE   PATT
  POIN2 Label_0183B8A3
//  #01 //121   ----------------------------------------
 BYTE   PATT
  POIN2 Label_0183B8B0
//  #01 //122   ----------------------------------------
 BYTE   PATT
  POIN2 Label_0183B8C7
//  #01 //123   ----------------------------------------
 BYTE   PATT
  POIN2 Label_0183B8D9
//  #01 //124   ----------------------------------------
 BYTE   PATT
  POIN2 Label_0183B8E4
//  #01 //125   ----------------------------------------
 BYTE   PATT
  POIN2 Label_0183B8F3
//  #01 //126   ----------------------------------------
 BYTE   PATT
  POIN2 Label_0183B8FB
//  #01 //127   ----------------------------------------
 BYTE   PATT
  POIN2 Label_0183B90D
//  #01 //128   ----------------------------------------
 BYTE   W90
 BYTE   EOT
 BYTE   Gs3
 BYTE   W06
//  #01 //129   ----------------------------------------
 BYTE   PATT
  POIN2 Label_0183B923
//  #01 //130   ----------------------------------------
 BYTE   PATT
  POIN2 Label_0183B8C7
//  #01 //131   ----------------------------------------
 BYTE   PATT
  POIN2 Label_0183B8D9
//  #01 //132   ----------------------------------------
 BYTE   PATT
  POIN2 Label_0183B935
//  #01 //133   ----------------------------------------
 BYTE   W90
 BYTE   EOT
 BYTE   Cs4
 BYTE   W06
//  #01 //134   ----------------------------------------
 BYTE   PATT
  POIN2 Label_0183B943
//  #01 //135   ----------------------------------------
 BYTE   PATT
  POIN2 Label_0183B94D
//  #01 //136   ----------------------------------------
 BYTE   PATT
  POIN2 Label_0183B95C
//  #01 //137   ----------------------------------------
 BYTE   PATT
  POIN2 Label_0183B96B
//  #01 //138   ----------------------------------------
 BYTE   PATT
  POIN2 Label_0183B97B
//  #01 //139   ----------------------------------------
 BYTE   PATT
  POIN2 Label_0183B985
//  #01 //140   ----------------------------------------
 BYTE   PATT
  POIN2 Label_0183B995
//  #01 //141   ----------------------------------------
 BYTE   PATT
  POIN2 Label_0183B99D
//  #01 //142   ----------------------------------------
 BYTE   W96
//  #01 //143   ----------------------------------------
 BYTE   W96
//  #01 //144   ----------------------------------------
 BYTE   W96
//  #01 //145   ----------------------------------------
 BYTE   PATT
  POIN2 Label_0183B7C6
//  #01 //146   ----------------------------------------
 BYTE   PATT
  POIN2 Label_0183B7CB
//  #01 //147   ----------------------------------------
 BYTE   PATT
  POIN2 Label_0183B7C6
//  #01 //148   ----------------------------------------
 BYTE   PATT
  POIN2 Label_0183B7CB
//  #01 //149   ----------------------------------------
 BYTE   PATT
  POIN2 Label_0183B7DF
//  #01 //150   ----------------------------------------
 BYTE   PATT
  POIN2 Label_0183B7E7
//  #01 //151   ----------------------------------------
 BYTE   PATT
  POIN2 Label_0183B7F2
//  #01 //152   ----------------------------------------
 BYTE   W12
 BYTE   N32  Dn4  v060
 BYTE   W36
 BYTE   N44  Cs4
 BYTE   W24
 BYTE   W02
 BYTE   GoTo
  POIN2 Label_0183B802
//  #01 //153   ----------------------------------------
 BYTE   TEMPO   160*KiramekiRider_tbs/2
 BYTE   W21
 BYTE   TEMPO   160*KiramekiRider_tbs/2
 BYTE   FINE

//**************** Track 2 (Midi-Chn.1) ****************//

KiramekiRider_002:
//  #02 //000   ----------------------------------------
 BYTE   KEYSH   KiramekiRider_key+0
 BYTE   VOICE   1
 BYTE   MODT 0
 BYTE   LFOS 44
 BYTE   VOL   94*KiramekiRider_mvl/mxv
 BYTE   PAN   c_v+0
 BYTE   N11  Fn4  v028
 BYTE   W12
 BYTE   Fs4  v036
 BYTE   W12
 BYTE   TIE  Fs2  v044
 BYTE   TIE  Cs3
 BYTE   N96  Fs3
 BYTE   N23  Gs4
 BYTE   W24
 BYTE   N11  Fn4  v028
 BYTE   W12
 BYTE   Fs4  v036
 BYTE   W12
 BYTE   N23  Gs4  v044
 BYTE   W24
//  #02 //001   ----------------------------------------
 BYTE   N11  Fn4  v028
 BYTE   W12
 BYTE   Fs4  v036
 BYTE   W12
 BYTE   N92  Fs3  v016
 BYTE   N92  Cs4
 BYTE   N23  Gs4  v044
 BYTE   W24
 BYTE   Cs5  v056
 BYTE   W24
 BYTE   Cn5
 BYTE   W24
//  #02 //002   ----------------------------------------
 BYTE   As4  v048
 BYTE   W14
 BYTE   EOT
 BYTE   Fs2  v061
 BYTE   W10
 BYTE   N90  Cs2  v044
 BYTE   N90  Gs2
 BYTE   N90  Cs3
 BYTE   N23  Gs4
 BYTE   W24
 BYTE   N11  Cs4  v028
 BYTE   W12
 BYTE   N23
 BYTE   W24
 BYTE   Ds4  v036
 BYTE   W24
//  #02 //003   ----------------------------------------
 BYTE   N56  Fn4  v044
 BYTE   W12
 BYTE   N90  As1
 BYTE   N90  Fn2
 BYTE   N90  As2
 BYTE   W72
 BYTE   N11  Cs4  v028
 BYTE   W12
//  #02 //004   ----------------------------------------
 BYTE   Ds4  v036
 BYTE   W12
 BYTE   N90  Ds2  v044
 BYTE   N90  As2
 BYTE   N90  Ds3
 BYTE   N23  Fn4
 BYTE   W24
 BYTE   N11  Cs4  v028
 BYTE   W12
 BYTE   Ds4  v036
 BYTE   W12
 BYTE   N23  Fn4  v044
 BYTE   W24
 BYTE   N11  Cs4  v028
 BYTE   W12
//  #02 //005   ----------------------------------------
 BYTE   Ds4  v036
 BYTE   W12
 BYTE   N90  Fn2  v044
 BYTE   N90  Cn3
 BYTE   N90  Fn3
 BYTE   N23  Fn4
 BYTE   W24
 BYTE   N11  Fs4  v048
 BYTE   W12
 BYTE   N23  Fn4  v044
 BYTE   W24
 BYTE   N11  Cs4  v028
 BYTE   W12
 BYTE   As4  v048
 BYTE   W12
//  #02 //006   ----------------------------------------
 BYTE   N56  Gs4  v044
 BYTE   W12
 BYTE   N90  Fs2
 BYTE   N90  Cs3
 BYTE   N90  Fs3
 BYTE   W72
 BYTE   N11  Cs4  v028
 BYTE   W12
//  #02 //007   ----------------------------------------
 BYTE   N11
 BYTE   W12
 BYTE   N32  Ds2  v044
 BYTE   N32  Gs2
 BYTE   N32  Ds3
 BYTE   N11  Fs4
 BYTE   W12
 BYTE   Fn4
 BYTE   W12
 BYTE   Cs4  v028
 BYTE   W12
 BYTE   N32  Cs2  v044
 BYTE   N32  Gs2
 BYTE   N32  Cs3
 BYTE   N23  Ds4  v036
 BYTE   W24
 BYTE   N11  Fn4  v044
 BYTE   W12
 BYTE   TIE  Cs2
 BYTE   TIE  Fs2
 BYTE   TIE  Cs3
 BYTE   TIE  Cs4  v028
 BYTE   W24
//  #02 //008   ----------------------------------------
 BYTE   W96
//  #02 //009   ----------------------------------------
 BYTE   W84
 BYTE   W01
 BYTE   EOT
 BYTE   Cs2  v054
 BYTE   Cs3
 BYTE   W06
 BYTE   Cs4
 BYTE   W05
//  #02 //010   ----------------------------------------
 BYTE   W72
 BYTE   N05  Cs4  v044
 BYTE   W06
 BYTE   Ds4  v052
 BYTE   W06
 BYTE   Fn4  v060
 BYTE   W06
 BYTE   Fs4  v072
 BYTE   W06
//  #02 //011   ----------------------------------------
 BYTE   N22  Fn1  v080
 BYTE   N22  Cn2
 BYTE   N22  Fn2
 BYTE   N11  Gs4
 BYTE   W12
 BYTE   Cs4  v052
 BYTE   W12
 BYTE   Fn1  v080
 BYTE   N11  Ds4  v060
 BYTE   W12
 BYTE   Cn2  v080
 BYTE   N23  Gs4
 BYTE   W12
 BYTE   N11  Fn2
 BYTE   W12
 BYTE   Cn2
 BYTE   N11  Cs4  v052
 BYTE   W12
 BYTE   Fn1  v080
 BYTE   N11  Ds4  v060
 BYTE   W12
 BYTE   Cn2  v080
 BYTE   N23  Gs4
 BYTE   W12
//  #02 //012   ----------------------------------------
 BYTE   N11  Fn2
 BYTE   W12
 BYTE   Cn2
 BYTE   N11  Cs4  v052
 BYTE   W12
 BYTE   Fn1  v080
 BYTE   N11  Ds4  v060
 BYTE   W12
 BYTE   Cn2  v080
 BYTE   N23  Gs4
 BYTE   W12
 BYTE   N11  Fn2
 BYTE   W12
 BYTE   Cn2
 BYTE   N11  Cs4  v052
 BYTE   W12
 BYTE   N22  Fn1  v080
 BYTE   N11  Ds4  v060
 BYTE   W12
 BYTE   Cs4  v052
 BYTE   W12
//  #02 //013   ----------------------------------------
 BYTE   N22  Fs1  v080
 BYTE   N22  Cs2
 BYTE   N22  Fs2
 BYTE   N11  Gs4
 BYTE   W12
 BYTE   Cs4  v052
 BYTE   W12
 BYTE   Fs1  v080
 BYTE   N11  Ds4  v060
 BYTE   W12
 BYTE   Cs2  v080
 BYTE   N23  Gs4
 BYTE   W12
 BYTE   N11  Fs2
 BYTE   W12
 BYTE   Cs2
 BYTE   N11  Cs4  v052
 BYTE   W12
 BYTE   Fs1  v080
 BYTE   N11  Ds4  v060
 BYTE   W12
 BYTE   Cs2  v080
 BYTE   N23  Gs4
 BYTE   W12
//  #02 //014   ----------------------------------------
 BYTE   N11  Fs2
 BYTE   W12
 BYTE   Cs2
 BYTE   N11  Cs4  v052
 BYTE   W12
 BYTE   Fs1  v080
 BYTE   N11  Ds4  v060
 BYTE   W12
 BYTE   Cs2  v080
 BYTE   N23  Gs4
 BYTE   W12
 BYTE   N11  Fs2
 BYTE   W12
 BYTE   Cs2
 BYTE   N11  Fs4  v072
 BYTE   W12
 BYTE   N22  Fs1  v080
 BYTE   N11  Fn4  v072
 BYTE   W12
 BYTE   Cs4  v052
 BYTE   W12
//  #02 //015   ----------------------------------------
 BYTE   N22  Gs1  v080
 BYTE   N22  Ds2
 BYTE   N22  Gs2
 BYTE   N11  Gs4
 BYTE   W12
 BYTE   Cs4  v052
 BYTE   W12
 BYTE   Gs1  v080
 BYTE   N11  Ds4  v060
 BYTE   W12
 BYTE   Ds2  v080
 BYTE   N23  Gs4
 BYTE   W12
 BYTE   N11  Gs2
 BYTE   W12
 BYTE   Ds2
 BYTE   N11  Cs4  v052
 BYTE   W12
 BYTE   Gs1  v080
 BYTE   N11  Ds4  v060
 BYTE   W12
 BYTE   Ds2  v080
 BYTE   N23  Gs4
 BYTE   W12
//  #02 //016   ----------------------------------------
 BYTE   N11  Gs2
 BYTE   W12
 BYTE   Ds2
 BYTE   N11  Cs4  v052
 BYTE   W12
 BYTE   Gs1  v080
 BYTE   N11  Ds4  v060
 BYTE   W12
 BYTE   Ds2  v080
 BYTE   N23  Gs4
 BYTE   W12
 BYTE   N11  Gs2
 BYTE   W12
 BYTE   Ds2
 BYTE   N11  Cs4  v052
 BYTE   W12
 BYTE   N22  Gs1  v080
 BYTE   N11  Ds4  v060
 BYTE   W12
 BYTE   Cs4  v052
 BYTE   W12
//  #02 //017   ----------------------------------------
Label_0183BD0B:
 BYTE   N32  As1  v080
 BYTE   N32  As2
 BYTE   N32  Fn3  v060
 BYTE   N32  As3
 BYTE   W36
 BYTE   An1  v080
 BYTE   N32  An2
 BYTE   N32  En3  v060
 BYTE   N32  An3
 BYTE   W36
 BYTE   Gs1  v080
 BYTE   N32  Gs2
 BYTE   N32  Ds3  v060
 BYTE   N32  Gs3
 BYTE   W24
 BYTE   PEND 
//  #02 //018   ----------------------------------------
 BYTE   W12
 BYTE   Gn1  v080
 BYTE   N32  Gn2
 BYTE   N32  Dn3  v060
 BYTE   N32  Gn3
 BYTE   W84
//  #02 //019   ----------------------------------------
 BYTE   N22  Fs1  v044
 BYTE   W08
Label_0183BD3A:
 BYTE   W16
 BYTE   N22  Cs2  v044
 BYTE   N22  Fs2
 BYTE   N36  Ds3
 BYTE   N44  Fs3
 BYTE   W24
 BYTE   N22  Fs1
 BYTE   N11  Cs3  v048
 BYTE   W12
 BYTE   Ds3
 BYTE   W12
 BYTE   N22  Cs2  v044
 BYTE   N22  Fs2
 BYTE   N44  Ds3
 BYTE   N44  Fs3  v060
 BYTE   W24
//  #02 //020   ----------------------------------------
 BYTE   N22  Fs1  v044
 BYTE   N22  Fn3  v048
 BYTE   W24
 BYTE   Cs2  v044
 BYTE   N22  Fs2
 BYTE   N24  Cs3  v048
 BYTE   N44  Fs3  v044
 BYTE   W24
 BYTE   N22  Fs1
 BYTE   N24  Cs3  v052
 BYTE   W24
 BYTE   N22  Cs2  v044
 BYTE   N22  Fs2
 BYTE   N44  Cs3
 BYTE   N44  Fs3
 BYTE   W24
//  #02 //021   ----------------------------------------
 BYTE   N22  Fs1
 BYTE   W24
 BYTE   Cs2
 BYTE   N22  Fs2
 BYTE   N36  Ds3  v048
 BYTE   N44  Fs3  v044
 BYTE   W24
 BYTE   N22  Fs1
 BYTE   N11  Cs3  v048
 BYTE   W12
 BYTE   Ds3
 BYTE   W12
 BYTE   N22  Cs2  v044
 BYTE   N22  Fs2
 BYTE   N44  Ds3
 BYTE   N44  Fs3  v060
 BYTE   W12
 BYTE   N11  Cs4  v080
 BYTE   W12
//  #02 //022   ----------------------------------------
 BYTE   N22  Fs1  v044
 BYTE   N23  Gs4  v080
 BYTE   W24
 BYTE   N22  Cs2  v044
 BYTE   N22  Fs2
 BYTE   N44  Cs3
 BYTE   N44  Fs3
 BYTE   N11  Gs4  v080
 BYTE   W12
 BYTE   N23
 BYTE   W12
 BYTE   N22  Fs1  v044
 BYTE   W12
 BYTE   N11  Cs4  v080
 BYTE   W12
 BYTE   N22  Cs2  v044
 BYTE   N22  Fs2
 BYTE   N44  Cs3
 BYTE   N44  Fs3
 BYTE   N22  Cs4  v080
 BYTE   W24
//  #02 //023   ----------------------------------------
 BYTE   Fn1  v044
 BYTE   W24
 BYTE   Cn2
 BYTE   N22  Fn2
 BYTE   N44  Fn3
 BYTE   N24  Gs3
 BYTE   W24
 BYTE   N22  Fn1
 BYTE   N21  Gs3  v052
 BYTE   W12
 BYTE   N11  Cn4  v060
 BYTE   W12
 BYTE   N22  Cn2  v044
 BYTE   N22  Fn2
 BYTE   N44  Fn3
 BYTE   N44  Gs3
 BYTE   N22  Ds4  v060
 BYTE   W24
//  #02 //024   ----------------------------------------
 BYTE   Fn1  v044
 BYTE   N22  Gs4  v068
 BYTE   W24
 BYTE   Cn2  v044
 BYTE   N22  Fn2
 BYTE   N44  Cs3
 BYTE   N44  Fn3
 BYTE   N22  Cs4  v048
 BYTE   W24
 BYTE   Fn1  v044
 BYTE   N22  Cs4  v048
 BYTE   W24
 BYTE   Cn2  v044
 BYTE   N22  Fn2
 BYTE   N44  Cs3
 BYTE   N44  Fn3
 BYTE   W24
//  #02 //025   ----------------------------------------
 BYTE   N22  As1
 BYTE   W24
 BYTE   Fn2
 BYTE   N22  As2
 BYTE   N44  Ds3
 BYTE   N44  Fs3
 BYTE   N11  Cs4  v048
 BYTE   W12
 BYTE   Ds4
 BYTE   W12
 BYTE   N22  As1  v044
 BYTE   N11  Fn4  v060
 BYTE   W12
 BYTE   Fs4
 BYTE   W12
 BYTE   N22  Fn2  v044
 BYTE   N22  As2
 BYTE   N44  Ds3
 BYTE   N44  Fs3
 BYTE   N11  Fn4  v060
 BYTE   W12
 BYTE   Cs4  v080
 BYTE   W12
//  #02 //026   ----------------------------------------
 BYTE   N22  Gs1  v044
 BYTE   N23  Ds4  v080
 BYTE   W24
 BYTE   N22  Ds2  v044
 BYTE   N22  Gs2
 BYTE   N44  Cs3
 BYTE   N44  Fn3
 BYTE   N11  Fn4  v080
 BYTE   W12
 BYTE   N23  Ds4
 BYTE   W12
 BYTE   N22  Gs1  v044
 BYTE   W12
 BYTE   N11  Cs4  v080
 BYTE   W12
 BYTE   N22  Ds2  v044
 BYTE   N22  Gs2
 BYTE   N44  Cs3
 BYTE   N44  Fn3
 BYTE   N22  Cs4  v080
 BYTE   W24
//  #02 //027   ----------------------------------------
 BYTE   Ds1  v044
 BYTE   W24
 BYTE   As1
 BYTE   N22  Ds2
 BYTE   N44  Cs3
 BYTE   N44  Ds3
 BYTE   N22  As3  v052
 BYTE   W24
 BYTE   Ds1  v044
 BYTE   N22  Cs4  v060
 BYTE   W24
 BYTE   As1  v044
 BYTE   N22  Ds2
 BYTE   N44  Cs3
 BYTE   N44  Ds3
 BYTE   N22  Ds4  v060
 BYTE   W24
//  #02 //028   ----------------------------------------
 BYTE   Ds1  v044
 BYTE   N22  Fn4  v068
 BYTE   W24
 BYTE   As1  v044
 BYTE   N22  Ds2
 BYTE   N44  Ds3
 BYTE   N44  Fn3
 BYTE   N22  Fs4  v068
 BYTE   W24
 BYTE   Ds1  v044
 BYTE   N22  Fn4  v068
 BYTE   W24
 BYTE   As1  v044
 BYTE   N22  Ds2
 BYTE   N44  Ds3
 BYTE   N44  Fn3
 BYTE   N22  Cs4  v060
 BYTE   W24
//  #02 //029   ----------------------------------------
 BYTE   Fn1  v044
 BYTE   N44  Gs4  v072
 BYTE   W24
 BYTE   N22  Cn2  v044
 BYTE   N22  Fn2
 BYTE   N44  Cs3
 BYTE   N44  Fn3
 BYTE   W24
 BYTE   N22  Fn1
 BYTE   N22  Cs4  v060
 BYTE   W24
 BYTE   Cn2  v044
 BYTE   N22  Fn2
 BYTE   N44  Cs3
 BYTE   N44  Fn3
 BYTE   N22  Ds4  v060
 BYTE   W24
//  #02 //030   ----------------------------------------
 BYTE   As1  v044
 BYTE   N22  Fn4  v068
 BYTE   W24
 BYTE   Fn2  v044
 BYTE   N22  As2
 BYTE   N44  Ds3
 BYTE   N44  Fn3
 BYTE   N22  Fs4  v068
 BYTE   W24
 BYTE   As1  v044
 BYTE   N22  Fn4  v068
 BYTE   W24
 BYTE   Fn2  v044
 BYTE   N22  As2
 BYTE   N44  Ds3
 BYTE   N44  Fn3
 BYTE   N22  Ds4  v060
 BYTE   W24
//  #02 //031   ----------------------------------------
 BYTE   Ds1  v044
 BYTE   W24
 BYTE   As1
 BYTE   N22  Ds2
 BYTE   N44  Ds3
 BYTE   N44  As3  v060
 BYTE   W24
 BYTE   N22  Ds1  v044
 BYTE   N22  Gs3  v060
 BYTE   W24
 BYTE   As1  v044
 BYTE   N22  Ds2
 BYTE   N44  Ds3
 BYTE   N22  Fs3  v048
 BYTE   N44  As3  v044
 BYTE   W24
//  #02 //032   ----------------------------------------
 BYTE   N22  Gs1
 BYTE   N22  Fn3  v048
 BYTE   W24
 BYTE   Ds2  v044
 BYTE   N22  Gs2
 BYTE   N24  Ds3
 BYTE   N11  Fs3  v048
 BYTE   N44  Gs3  v044
 BYTE   W12
 BYTE   N11  Fn3  v048
 BYTE   W12
 BYTE   N22  Gs1  v044
 BYTE   N22  Ds3
 BYTE   W24
 BYTE   Ds2
 BYTE   N22  Gs2
 BYTE   N22  Cs3
 BYTE   N24  Ds3
 BYTE   N44  Gs3
 BYTE   W24
//  #02 //033   ----------------------------------------
 BYTE   N22  Cs2
 BYTE   N22  Ds3
 BYTE   W24
 BYTE   Gs2
 BYTE   N44  Fn3
 BYTE   W24
 BYTE   N22  Cs2
 BYTE   W24
 BYTE   Gs2
 BYTE   N44  Fn3
 BYTE   W24
//  #02 //034   ----------------------------------------
 BYTE   N22  Cs2
 BYTE   W24
 BYTE   Gs2
 BYTE   N44  Fn3
 BYTE   W24
 BYTE   N22  Cs2
 BYTE   W24
 BYTE   Gs2
 BYTE   N22  Fn3
 BYTE   W24
//  #02 //035   ----------------------------------------
 BYTE   N11  Gn1
 BYTE   W12
 BYTE   Dn2
 BYTE   W12
 BYTE   Gn2
 BYTE   W12
 BYTE   Bn2
 BYTE   W12
 BYTE   N22  Dn3
 BYTE   N11  Gn3
 BYTE   W12
 BYTE   Bn3  v048
 BYTE   W12
 BYTE   N22  Gn2  v044
 BYTE   N11  Dn4  v060
 BYTE   W12
 BYTE   Gn4  v068
 BYTE   W12
//  #02 //036   ----------------------------------------
 BYTE   Fs1  v044
 BYTE   W12
 BYTE   Cs2
 BYTE   W12
 BYTE   Fs2
 BYTE   W12
 BYTE   As2
 BYTE   W12
 BYTE   N22  Cs3
 BYTE   N11  Fs3
 BYTE   W12
 BYTE   As3  v048
 BYTE   W12
 BYTE   N22  Fs2  v044
 BYTE   N11  Cs4  v060
 BYTE   W12
 BYTE   Fs4  v068
 BYTE   W12
//  #02 //037   ----------------------------------------
 BYTE   Fn1  v044
 BYTE   W12
 BYTE   Cn2
 BYTE   W12
 BYTE   Fn2
 BYTE   W12
 BYTE   Gs2
 BYTE   W12
 BYTE   N22  Cn3
 BYTE   N11  Fn3
 BYTE   W12
 BYTE   Gs3  v048
 BYTE   W12
 BYTE   N22  Fn2  v044
 BYTE   N11  Cn4  v060
 BYTE   W12
 BYTE   Fn4  v068
 BYTE   W12
//  #02 //038   ----------------------------------------
 BYTE   As1  v044
 BYTE   W12
 BYTE   Fn2
 BYTE   W12
 BYTE   As2
 BYTE   W12
 BYTE   Cs3
 BYTE   W12
 BYTE   N22  Fn3
 BYTE   N11  As3  v052
 BYTE   W12
 BYTE   Cs4  v060
 BYTE   W12
 BYTE   As2  v044
 BYTE   N11  Fn4  v072
 BYTE   W12
 BYTE   N22  Ds2  v080
 BYTE   N22  Ds3
 BYTE   N22  Ds4
 BYTE   W12
//  #02 //039   ----------------------------------------
 BYTE   W12
 BYTE   N05  Ds2
 BYTE   N05  Ds3
 BYTE   N05  Ds4
 BYTE   W12
 BYTE   Ds2
 BYTE   N05  Ds3
 BYTE   N05  Ds4
 BYTE   W24
 BYTE   N11  As3  v056
 BYTE   W12
 BYTE   Cs4  v060
 BYTE   W12
 BYTE   As3  v056
 BYTE   W12
 BYTE   N23  Cs4  v060
 BYTE   W12
//  #02 //040   ----------------------------------------
 BYTE   W12
 BYTE   N11
 BYTE   W12
 BYTE   N23  Ds4
 BYTE   W24
 BYTE   Fn4  v072
 BYTE   W24
 BYTE   N11  Fs4
 BYTE   W12
 BYTE   N22  Cs2  v080
 BYTE   N22  Cs3
 BYTE   N22  Fn4
 BYTE   W12
//  #02 //041   ----------------------------------------
 BYTE   W12
 BYTE   N05  Cs2
 BYTE   N05  Cs3
 BYTE   N05  Fn4
 BYTE   W12
 BYTE   Cs2
 BYTE   N05  Cs3
 BYTE   N05  Fn4
 BYTE   W24
 BYTE   N11  Cs4  v060
 BYTE   W12
 BYTE   Fn4  v072
 BYTE   W12
 BYTE   Cs4  v060
 BYTE   W12
 BYTE   N44  As1  v080
 BYTE   N44  As2
 BYTE   N23  Fn4
 BYTE   W12
//  #02 //042   ----------------------------------------
 BYTE   W12
 BYTE   Fs4
 BYTE   W24
 BYTE   N22  As1
 BYTE   N56  Gs4
 BYTE   W24
 BYTE   N11  As1
 BYTE   W12
 BYTE   Fn2
 BYTE   W12
 BYTE   As2
 BYTE   W12
//  #02 //043   ----------------------------------------
 BYTE   Ds2  v060
 BYTE   N11  Ds3
 BYTE   N44  Fs3
 BYTE   N44  As3
 BYTE   W12
 BYTE   N11  As2
 BYTE   W12
 BYTE   N22  Ds3
 BYTE   W24
 BYTE   N11  Cs2
 BYTE   N11  Cs3
 BYTE   N44  Fn3
 BYTE   N44  Gs3
 BYTE   W12
 BYTE   N11  Gs2
 BYTE   W12
 BYTE   N22  Cs3
 BYTE   W24
//  #02 //044   ----------------------------------------
 BYTE   N11  Fs1
 BYTE   N11  Fs2
 BYTE   N90  Fs3
 BYTE   W12
 BYTE   N11  Cs2
 BYTE   W12
 BYTE   Fs2
 BYTE   N22  As3
 BYTE   W12
 BYTE   N11  Cs2
 BYTE   W12
 BYTE   Fs1
 BYTE   N22  Cs4  v064
 BYTE   W12
 BYTE   N11  Cs2  v060
 BYTE   W12
 BYTE   N22  Fs2
 BYTE   N22  Fs4  v072
 BYTE   W24
//  #02 //045   ----------------------------------------
 BYTE   N11  Gs1  v060
 BYTE   N11  Gs2
 BYTE   N96  Gs3
 BYTE   W12
 BYTE   N11  Ds2
 BYTE   W12
 BYTE   Gs2
 BYTE   N22  Cn4
 BYTE   W12
 BYTE   N11  Ds2
 BYTE   W12
 BYTE   Gs1
 BYTE   N22  Ds4  v064
 BYTE   W12
 BYTE   N11  Ds2  v060
 BYTE   W12
 BYTE   N22  Gs2
 BYTE   N22  Gs4  v072
 BYTE   W24
//  #02 //046   ----------------------------------------
 BYTE   N11  Gs1  v060
 BYTE   N11  Gs2
 BYTE   N84  Gs3  v052
 BYTE   W12
 BYTE   N11  Ds2  v060
 BYTE   W12
 BYTE   Gs2
 BYTE   N22  Cn4
 BYTE   W12
 BYTE   N11  Ds2
 BYTE   W12
 BYTE   Gs1
 BYTE   N22  Ds4  v064
 BYTE   W12
 BYTE   N11  Ds2  v060
 BYTE   W12
 BYTE   N22  Gs2
 BYTE   N22  Gs4  v072
 BYTE   W24
//  #02 //047   ----------------------------------------
 BYTE   N11  Gn1  v060
 BYTE   N11  Gn2
 BYTE   N11  Gn3  v080
 BYTE   N11  Bn3
 BYTE   W12
 BYTE   Gn1  v060
 BYTE   N11  Gn2
 BYTE   N11  Gn3  v080
 BYTE   N11  Bn3
 BYTE   W24
 BYTE   Gn1  v060
 BYTE   N11  Gn2
 BYTE   N11  Gn3  v080
 BYTE   N11  Bn3
 BYTE   W24
 BYTE   Gn1  v060
 BYTE   N11  Gn2
 BYTE   N11  Gn3  v080
 BYTE   N11  Bn3
 BYTE   W24
 BYTE   N22  Gn1  v060
 BYTE   N22  Gn2
 BYTE   N22  Gn3  v080
 BYTE   N22  Bn3
 BYTE   W12
//  #02 //048   ----------------------------------------
 BYTE   W24
 BYTE   N68  An1  v060
 BYTE   N68  An2
 BYTE   N68  An3  v104
 BYTE   N68  Cs4
 BYTE   W72
//  #02 //049   ----------------------------------------
Label_0183C0E2:
 BYTE   N11  Fs1  v060
 BYTE   N11  Fs2
 BYTE   N68  Cs3
 BYTE   N68  Gs3
 BYTE   W12
 BYTE   N11  Cs2
 BYTE   W12
 BYTE   Fs2
 BYTE   W12
 BYTE   Cs2
 BYTE   W12
 BYTE   Fs1
 BYTE   W12
 BYTE   Cs2
 BYTE   W12
 BYTE   Fs2
 BYTE   N11  Fn3
 BYTE   W12
 BYTE   Cs2
 BYTE   N11  Fs3
 BYTE   W12
 BYTE   PEND 
//  #02 //050   ----------------------------------------
Label_0183C100:
 BYTE   N11  Fs1  v060
 BYTE   N22  Gs3
 BYTE   W12
 BYTE   N11  Cs2
 BYTE   W12
 BYTE   Fs2
 BYTE   N22  As3
 BYTE   N22  Cs4
 BYTE   W12
 BYTE   N11  Cs2
 BYTE   W12
 BYTE   Fs1
 BYTE   N22  Gs3
 BYTE   N22  Cn4
 BYTE   W12
 BYTE   N11  Cs2
 BYTE   W12
 BYTE   N22  Fs2
 BYTE   N22  Fs3
 BYTE   N22  As3
 BYTE   W24
 BYTE   PEND 
//  #02 //051   ----------------------------------------
 BYTE   N11  Cs2
 BYTE   N11  Cs3
 BYTE   N44  Fn3
 BYTE   N44  Gs3
 BYTE   W12
 BYTE   N11  Gs2
 BYTE   W12
 BYTE   Cs3
 BYTE   W12
 BYTE   Gs2
 BYTE   W12
 BYTE   Cs2
 BYTE   N22  Cs3
 BYTE   N22  Gs3
 BYTE   W12
 BYTE   N11  Gs2
 BYTE   W12
 BYTE   N22  Cs3
 BYTE   N22  Ds3
 BYTE   N22  As3
 BYTE   W24
//  #02 //052   ----------------------------------------
 BYTE   N11  As1
 BYTE   N11  As2
 BYTE   N90  Fn3
 BYTE   N90  Cn4
 BYTE   W12
 BYTE   N11  Fn2
 BYTE   W12
 BYTE   As2
 BYTE   W12
 BYTE   Fn2
 BYTE   W12
 BYTE   As1
 BYTE   W12
 BYTE   Fn2
 BYTE   W12
 BYTE   N22  As2
 BYTE   W24
//  #02 //053   ----------------------------------------
 BYTE   N11  Ds1
 BYTE   N11  Ds2
 BYTE   N68  Cs3
 BYTE   N68  Fn3
 BYTE   W12
 BYTE   N11  As1
 BYTE   W12
 BYTE   Ds2
 BYTE   W12
 BYTE   As1
 BYTE   W12
 BYTE   Ds1
 BYTE   W12
 BYTE   As1
 BYTE   W12
 BYTE   N22  Ds2
 BYTE   N11  Cs3
 BYTE   W12
 BYTE   Ds3
 BYTE   W12
//  #02 //054   ----------------------------------------
 BYTE   Fn1
 BYTE   N11  Fn2
 BYTE   N22  Cs3
 BYTE   N22  Fn3
 BYTE   W12
 BYTE   N11  Cn2
 BYTE   W12
 BYTE   Fn2
 BYTE   N22  Ds3
 BYTE   N22  Fs3
 BYTE   W12
 BYTE   N11  Cn2
 BYTE   W12
 BYTE   Fn1
 BYTE   N22  Cs3
 BYTE   N22  Fn3
 BYTE   W12
 BYTE   N11  Cn2
 BYTE   W12
 BYTE   N22  Fn2
 BYTE   N22  Fs3
 BYTE   N22  As3
 BYTE   W24
//  #02 //055   ----------------------------------------
 BYTE   N11  Gs1
 BYTE   N11  Gs2
 BYTE   TIE  Fn3
 BYTE   TIE  Gs3
 BYTE   W12
 BYTE   N11  Ds2
 BYTE   N23  Bn3
 BYTE   W12
 BYTE   N11  Gs2
 BYTE   W12
 BYTE   Ds2
 BYTE   N23  Cs4
 BYTE   W12
 BYTE   N11  Gs1
 BYTE   W12
 BYTE   Ds2
 BYTE   N23  Ds4
 BYTE   W12
 BYTE   N22  Gs2
 BYTE   W12
 BYTE   N23  Fn4
 BYTE   W12
//  #02 //056   ----------------------------------------
 BYTE   N11  Cs2
 BYTE   N11  Cs3
 BYTE   W12
 BYTE   Gs2
 BYTE   N23  Fs4
 BYTE   W12
 BYTE   N11  Cs3
 BYTE   W12
 BYTE   Gs2
 BYTE   N22  Gs4
 BYTE   W12
 BYTE   N11  Cs2
 BYTE   W12
 BYTE   Gs2
 BYTE   W12
 BYTE   N22  Cs3
 BYTE   W19
 BYTE   EOT
 BYTE   Fn3  v068
 BYTE   W05
//  #02 //057   ----------------------------------------
 BYTE   PATT
  POIN2 Label_0183C0E2
//  #02 //058   ----------------------------------------
 BYTE   PATT
  POIN2 Label_0183C100
//  #02 //059   ----------------------------------------
 BYTE   N11  Fn1  v060
 BYTE   N11  Fn2
 BYTE   N44  Fn3
 BYTE   N44  An3
 BYTE   W12
 BYTE   N11  Cn2
 BYTE   W12
 BYTE   Fn2
 BYTE   W12
 BYTE   Cn2
 BYTE   W12
 BYTE   Fn1
 BYTE   N32  Ds3
 BYTE   N32  Cn4
 BYTE   W12
 BYTE   N11  Cn2
 BYTE   W12
 BYTE   Fn2
 BYTE   W12
 BYTE   N22  As1
 BYTE   N22  As2
 BYTE   N48  Cs3
 BYTE   TIE  Cs4
 BYTE   W12
//  #02 //060   ----------------------------------------
 BYTE   W12
 BYTE   N11  Fn2
 BYTE   W24
 BYTE   N11
 BYTE   N54  Cs3  v052
 BYTE   W12
 BYTE   N11  As1  v060
 BYTE   N11  Fn3
 BYTE   W12
 BYTE   Fn2
 BYTE   N11  As3
 BYTE   W12
 BYTE   N22  As2
 BYTE   N11  Fn4  v072
 BYTE   W12
 BYTE   As4  v080
 BYTE   W06
 BYTE   EOT
 BYTE   Cs4
 BYTE   W06
//  #02 //061   ----------------------------------------
 BYTE   N11  Ds1  v060
 BYTE   N11  Ds2
 BYTE   W12
 BYTE   As1
 BYTE   W12
 BYTE   Ds2
 BYTE   W12
 BYTE   As1
 BYTE   W12
 BYTE   Ds1
 BYTE   W12
 BYTE   As1
 BYTE   W12
 BYTE   N22  Ds2
 BYTE   W24
//  #02 //062   ----------------------------------------
 BYTE   N11  Cs1
 BYTE   N11  Cs2
 BYTE   W12
 BYTE   Gs1
 BYTE   W12
 BYTE   Cs2
 BYTE   W12
 BYTE   Gs1
 BYTE   W12
 BYTE   Cs1
 BYTE   W12
 BYTE   Gs1
 BYTE   W12
 BYTE   N22  Cs2
 BYTE   W24
//  #02 //063   ----------------------------------------
 BYTE   N11  Fs1
 BYTE   N11  Fs2
 BYTE   W12
 BYTE   Cs2
 BYTE   W12
 BYTE   Fs2
 BYTE   W12
 BYTE   Cs2
 BYTE   W12
 BYTE   Fs1
 BYTE   W12
 BYTE   Cs2
 BYTE   W12
 BYTE   N22  Fs2
 BYTE   W24
//  #02 //064   ----------------------------------------
 BYTE   N11  Gs1
 BYTE   N11  Gs2
 BYTE   W12
 BYTE   Ds2
 BYTE   W12
 BYTE   Gs2
 BYTE   W12
 BYTE   Ds2
 BYTE   W12
 BYTE   Gs1
 BYTE   W12
 BYTE   Ds2
 BYTE   W12
 BYTE   N22  Gs2
 BYTE   W24
//  #02 //065   ----------------------------------------
 BYTE   N11  Ds1
 BYTE   N11  Ds2
 BYTE   N90  As2
 BYTE   N90  Cs3
 BYTE   W12
 BYTE   N11  As1
 BYTE   W12
 BYTE   Ds2
 BYTE   W12
 BYTE   As1
 BYTE   W12
 BYTE   Ds1
 BYTE   W12
 BYTE   As1
 BYTE   W12
 BYTE   N22  Ds2
 BYTE   W24
//  #02 //066   ----------------------------------------
 BYTE   N11  Fn1
 BYTE   N11  Fn2
 BYTE   N68  Fn3
 BYTE   N68  Gs3
 BYTE   W12
 BYTE   N11  Cn2
 BYTE   W12
 BYTE   Fn2
 BYTE   W12
 BYTE   Cn2
 BYTE   W12
 BYTE   Fn1
 BYTE   W12
 BYTE   Cn2
 BYTE   W12
 BYTE   N22  Fn2
 BYTE   N22  Cn4  v080
 BYTE   N22  Ds4
 BYTE   W24
//  #02 //067   ----------------------------------------
 BYTE   N11  Fs1  v060
 BYTE   N11  Fs2
 BYTE   N90  Fs3  v072
 BYTE   N90  Cs4
 BYTE   W12
 BYTE   N11  Cs2  v060
 BYTE   W12
 BYTE   Fs2
 BYTE   W12
 BYTE   Cs2
 BYTE   W12
 BYTE   Fs1
 BYTE   W12
 BYTE   Cs2
 BYTE   W12
 BYTE   N22  Fs2
 BYTE   W24
//  #02 //068   ----------------------------------------
 BYTE   N32  Ds2
 BYTE   N32  Gs2
 BYTE   N32  Fs3
 BYTE   N32  As3
 BYTE   W36
 BYTE   Cs2
 BYTE   N32  Gs2
 BYTE   N32  Fn3
 BYTE   N32  Gs3
 BYTE   W36
 BYTE   N22  Cs2
 BYTE   N22  Fs2
 BYTE   N22  As2
 BYTE   N22  Fs3
 BYTE   W24
//  #02 //069   ----------------------------------------
 BYTE   N92  En1  v116
 BYTE   N92  Bn1
 BYTE   N92  En2
 BYTE   N32  En3  v092
 BYTE   N32  En4
 BYTE   W36
 BYTE   N56  Dn3
 BYTE   N56  Dn4
 BYTE   W60
//  #02 //070   ----------------------------------------
Label_0183C2E7:
 BYTE   N11  Dn1  v080
 BYTE   N11  Dn2
 BYTE   W12
 BYTE   An1
 BYTE   W12
 BYTE   Dn2
 BYTE   N11  Dn3
 BYTE   N11  An3
 BYTE   W12
 BYTE   An1
 BYTE   N11  Dn3
 BYTE   N11  An3
 BYTE   W12
 BYTE   Dn1
 BYTE   N22  Dn3
 BYTE   N22  An3
 BYTE   W12
 BYTE   N11  An1
 BYTE   W12
 BYTE   Dn2
 BYTE   N11  Dn3
 BYTE   N11  An3
 BYTE   W12
 BYTE   An1
 BYTE   N22  Dn3
 BYTE   N22  An3
 BYTE   W12
 BYTE   PEND 
//  #02 //071   ----------------------------------------
 BYTE   N11  Dn1
 BYTE   N11  Dn2
 BYTE   W12
 BYTE   An1
 BYTE   N22  En3
 BYTE   N22  Gs3
 BYTE   W12
 BYTE   N11  Dn2
 BYTE   W12
 BYTE   An1
 BYTE   N22  En3
 BYTE   N22  An3
 BYTE   W12
 BYTE   N11  Dn1
 BYTE   W12
 BYTE   An1
 BYTE   N32  En3
 BYTE   N32  Bn3
 BYTE   W12
 BYTE   N22  Dn2
 BYTE   W24
//  #02 //072   ----------------------------------------
 BYTE   PATT
  POIN2 Label_0183C2E7
//  #02 //073   ----------------------------------------
 BYTE   N11  Dn1  v080
 BYTE   N11  Dn2
 BYTE   W12
 BYTE   An1
 BYTE   N22  En3
 BYTE   N22  Gs3
 BYTE   W12
 BYTE   N11  Dn2
 BYTE   W12
 BYTE   An1
 BYTE   N22  En3
 BYTE   N22  An3
 BYTE   W12
 BYTE   N11  Dn1
 BYTE   W12
 BYTE   An1
 BYTE   N32  Cs3
 BYTE   N32  En3
 BYTE   W12
 BYTE   N22  Dn2
 BYTE   W24
//  #02 //074   ----------------------------------------
 BYTE   N11  Cs1
 BYTE   N11  Cs2
 BYTE   W12
 BYTE   Gs1
 BYTE   W12
 BYTE   Cs2
 BYTE   N22  Cs3
 BYTE   N22  En3
 BYTE   W12
 BYTE   N11  Gs1
 BYTE   W12
 BYTE   Cs1
 BYTE   N22  Cs3
 BYTE   N22  En3
 BYTE   W12
 BYTE   N11  Gs1
 BYTE   W12
 BYTE   Cs2
 BYTE   N11  Cs3
 BYTE   N11  En3
 BYTE   W12
 BYTE   Gs1
 BYTE   N22  Cs3
 BYTE   N22  En3
 BYTE   W12
//  #02 //075   ----------------------------------------
 BYTE   N11  Cs1
 BYTE   N11  Cs2
 BYTE   W12
 BYTE   Gs1
 BYTE   N22  En3
 BYTE   N22  Bn3
 BYTE   W12
 BYTE   N11  Cs2
 BYTE   W12
 BYTE   Gs1
 BYTE   N22  En3
 BYTE   N22  An3
 BYTE   W12
 BYTE   N11  Cs1
 BYTE   W12
 BYTE   Gs1
 BYTE   N22  En3
 BYTE   N22  Gs3
 BYTE   W12
 BYTE   Cs2
 BYTE   W12
 BYTE   N11  En3
 BYTE   N11  Gs3
 BYTE   W12
//  #02 //076   ----------------------------------------
 BYTE   Fs1
 BYTE   N11  Fs2
 BYTE   N32  Cs3
 BYTE   N32  Gs3
 BYTE   W12
 BYTE   N11  Cs2
 BYTE   W12
 BYTE   Fs2
 BYTE   W12
 BYTE   Cs2
 BYTE   N11  Cs3
 BYTE   N11  An3
 BYTE   W12
 BYTE   Fs1
 BYTE   N44  Cs3
 BYTE   N44  An3
 BYTE   W12
 BYTE   N11  Cs2
 BYTE   W12
 BYTE   N22  Fs2
 BYTE   W24
//  #02 //077   ----------------------------------------
 BYTE   N11  En1
 BYTE   N11  En2
 BYTE   N32  En3
 BYTE   N32  Cs4
 BYTE   W12
 BYTE   N11  Bn1
 BYTE   W12
 BYTE   En2
 BYTE   W12
 BYTE   Bn1
 BYTE   N11  En3
 BYTE   N11  An3
 BYTE   W12
 BYTE   En1
 BYTE   N44  En3
 BYTE   N44  An3
 BYTE   W12
 BYTE   N11  Bn1
 BYTE   W12
 BYTE   N22  En2
 BYTE   W24
//  #02 //078   ----------------------------------------
 BYTE   N11  Bn0
 BYTE   N11  Bn1
 BYTE   W12
 BYTE   Fs1
 BYTE   W12
 BYTE   Bn1
 BYTE   W12
 BYTE   Fs1
 BYTE   N22  Cs3
 BYTE   N22  En3
 BYTE   W12
 BYTE   N11  Bn0
 BYTE   W12
 BYTE   Fs1
 BYTE   N11  Bn2
 BYTE   N11  Dn3
 BYTE   W12
 BYTE   Bn1
 BYTE   N11  An2
 BYTE   N11  Cs3
 BYTE   W12
 BYTE   Fs1
 BYTE   N11  Bn2
 BYTE   N11  Dn3
 BYTE   W12
//  #02 //079   ----------------------------------------
 BYTE   Bn0
 BYTE   N11  Bn1
 BYTE   N22  Cs3
 BYTE   N22  En3
 BYTE   W12
 BYTE   N11  Fs1
 BYTE   W12
 BYTE   Bn1
 BYTE   N11  Fs3
 BYTE   N11  An3
 BYTE   W12
 BYTE   Fs1
 BYTE   N22  En3
 BYTE   N22  Gs3
 BYTE   W12
 BYTE   N11  Bn0
 BYTE   W12
 BYTE   Fs1
 BYTE   N32  Fs3
 BYTE   N32  An3
 BYTE   W12
 BYTE   N22  Bn1
 BYTE   W24
//  #02 //080   ----------------------------------------
 BYTE   N11  Cs1
 BYTE   N11  Cs2
 BYTE   N22  Gs3
 BYTE   N22  Bn3
 BYTE   W12
 BYTE   N11  Gs1
 BYTE   W12
 BYTE   Cs2
 BYTE   N11  Fs3
 BYTE   N11  An3
 BYTE   W12
 BYTE   Gs1
 BYTE   N22  En3
 BYTE   N22  Gs3
 BYTE   W12
 BYTE   N11  Cs1
 BYTE   W12
 BYTE   Gs1
 BYTE   N22  Fs3
 BYTE   N22  An3
 BYTE   W12
 BYTE   N11  Cs2
 BYTE   W12
 BYTE   Gs1
 BYTE   N56  Cs3
 BYTE   N56  En3
 BYTE   W12
//  #02 //081   ----------------------------------------
 BYTE   N11  Cs1
 BYTE   N11  Cs2
 BYTE   W12
 BYTE   Gs1
 BYTE   W12
 BYTE   Cs2
 BYTE   W12
 BYTE   Gs1
 BYTE   W12
 BYTE   Cs1
 BYTE   W12
 BYTE   Gs1
 BYTE   N11  Cs3
 BYTE   N11  En3
 BYTE   W12
 BYTE   N22  Cs2
 BYTE   N11  Cs3
 BYTE   N11  En3
 BYTE   W12
 BYTE   Cs3
 BYTE   N11  En3
 BYTE   W12
//  #02 //082   ----------------------------------------
 BYTE   Dn1
 BYTE   N11  Dn2
 BYTE   N22  Cs3
 BYTE   N22  En3
 BYTE   W12
 BYTE   N11  An1
 BYTE   W12
 BYTE   Dn2
 BYTE   N11  An2
 BYTE   N11  Cs3
 BYTE   W12
 BYTE   An1
 BYTE   N22  Cs3
 BYTE   N22  En3
 BYTE   W12
 BYTE   N11  Dn1
 BYTE   W12
 BYTE   An1
 BYTE   N22  Fs3
 BYTE   N22  An3
 BYTE   W12
 BYTE   Dn2
 BYTE   W12
 BYTE   N32  Fs3
 BYTE   N32  An3
 BYTE   W12
//  #02 //083   ----------------------------------------
 BYTE   N11  Ds1
 BYTE   N11  Ds2
 BYTE   W12
 BYTE   As1
 BYTE   W12
 BYTE   Ds2
 BYTE   N22  Ds3
 BYTE   N22  Fs3
 BYTE   W12
 BYTE   N11  As1
 BYTE   W12
 BYTE   Ds1
 BYTE   N22  En3
 BYTE   N22  Gs3
 BYTE   W12
 BYTE   N11  As1
 BYTE   W12
 BYTE   N22  Ds2
 BYTE   N22  Fs3
 BYTE   N22  An3
 BYTE   W24
//  #02 //084   ----------------------------------------
 BYTE   N11  En1
 BYTE   N11  En2
 BYTE   N22  An3
 BYTE   N22  Cs4
 BYTE   W12
 BYTE   N11  Bn1
 BYTE   W12
 BYTE   En2
 BYTE   N11  Gs3
 BYTE   N11  Bn3
 BYTE   W12
 BYTE   Bn1
 BYTE   TIE  Gs3
 BYTE   TIE  Bn3
 BYTE   W12
 BYTE   N11  En1
 BYTE   W12
 BYTE   Bn1
 BYTE   W12
 BYTE   N22  En2
 BYTE   W24
//  #02 //085   ----------------------------------------
 BYTE   N11  Fs1
 BYTE   N11  Fs2
 BYTE   W12
 BYTE   Cs2  v084
 BYTE   W12
 BYTE   Fs2  v088
 BYTE   W12
 BYTE   Cs2
 BYTE   W12
 BYTE   Fs1  v092
 BYTE   W12
 BYTE   Cs2  v096
 BYTE   W12
 BYTE   N22  Fs2  v100
 BYTE   W16
 BYTE   EOT
 BYTE   Gs3  v071
 BYTE   W08
//  #02 //086   ----------------------------------------
 BYTE   N11  Bn1  v104
 BYTE   N11  Bn3
 BYTE   W12
 BYTE   Fs2
 BYTE   N11  Fs3  v084
 BYTE   W12
 BYTE   Bn2  v104
 BYTE   N11  Bn3
 BYTE   W12
 BYTE   Fs2
 BYTE   N11  As3
 BYTE   W12
 BYTE   Ds3
 BYTE   N11  Bn3
 BYTE   W12
 BYTE   Fs2
 BYTE   N11  Fs3  v084
 BYTE   W12
 BYTE   Bn2  v104
 BYTE   N11  Bn3
 BYTE   W12
 BYTE   Fs2
 BYTE   N11  As3
 BYTE   W12
//  #02 //087   ----------------------------------------
 BYTE   Bn1
 BYTE   N11  Bn3
 BYTE   W12
 BYTE   Fs2
 BYTE   N11  As3
 BYTE   W12
 BYTE   Bn2
 BYTE   N11  Gs3  v092
 BYTE   W12
 BYTE   Fs2  v104
 BYTE   N11  Fs3  v092
 BYTE   W24
 BYTE   Fs2  v104
 BYTE   N11  En3  v084
 BYTE   W12
 BYTE   Bn2  v104
 BYTE   N11  Fs3  v092
 BYTE   W12
 BYTE   Fs2  v104
 BYTE   N11  Gs3  v092
 BYTE   W12
//  #02 //088   ----------------------------------------
 BYTE   En1  v104
 BYTE   N11  En3  v092
 BYTE   W12
 BYTE   Bn1  v104
 BYTE   N11  Fs3  v092
 BYTE   W12
 BYTE   En2  v104
 BYTE   N11  Gs3  v100
 BYTE   W12
 BYTE   Bn1  v104
 BYTE   N11  Fs3  v092
 BYTE   W12
 BYTE   Gs2  v104
 BYTE   N11  As3
 BYTE   W12
 BYTE   Bn1
 BYTE   N11  Bn3
 BYTE   W12
 BYTE   En2
 BYTE   N11  Cs4  v112
 BYTE   W12
 BYTE   Bn1  v104
 BYTE   N11  Bn3
 BYTE   W12
//  #02 //089   ----------------------------------------
 BYTE   En1
 BYTE   N11  Cs4  v112
 BYTE   W12
 BYTE   Bn1  v104
 BYTE   N11  Ds4  v116
 BYTE   W12
 BYTE   En2  v104
 BYTE   N11  En4  v116
 BYTE   W12
 BYTE   Bn1  v104
 BYTE   N11  Ds4  v116
 BYTE   W12
 BYTE   Gs2  v104
 BYTE   N11  Bn3
 BYTE   W12
 BYTE   Bn1
 BYTE   N11  En3  v084
 BYTE   W12
 BYTE   En2  v104
 BYTE   N11  Fs3  v088
 BYTE   W12
 BYTE   Bn1  v104
 BYTE   N11  Gs3  v092
 BYTE   W12
//  #02 //090   ----------------------------------------
 BYTE   Fs1  v104
 BYTE   N05  Fs3  v092
 BYTE   W06
 BYTE   Gs3
 BYTE   W06
 BYTE   N11  Cs2  v104
 BYTE   N05  As3  v100
 BYTE   W06
 BYTE   Bn3
 BYTE   W06
 BYTE   N11  Fs2  v104
 BYTE   N05  Cs4
 BYTE   W06
 BYTE   Ds4
 BYTE   W06
 BYTE   N11  Cs2
 BYTE   N05  En4  v108
 BYTE   W06
 BYTE   Fs4
 BYTE   W06
 BYTE   N11  As2  v104
 BYTE   N05  En4  v108
 BYTE   W06
 BYTE   Fs4
 BYTE   W06
 BYTE   N11  Cs2  v104
 BYTE   N05  En4  v108
 BYTE   W06
 BYTE   Ds4  v104
 BYTE   W06
 BYTE   N11  Fs2
 BYTE   N05  Cs4
 BYTE   W06
 BYTE   Bn3  v100
 BYTE   W06
 BYTE   N11  Cs2  v104
 BYTE   N05  As3  v100
 BYTE   W06
 BYTE   Gs3  v092
 BYTE   W06
//  #02 //091   ----------------------------------------
 BYTE   N11  Fs1  v104
 BYTE   N05  As3  v100
 BYTE   W06
 BYTE   Bn3
 BYTE   W06
 BYTE   N11  Cs2  v104
 BYTE   N05  Cs4
 BYTE   W06
 BYTE   Bn3  v100
 BYTE   W06
 BYTE   N11  Fs2  v104
 BYTE   N05  As3  v100
 BYTE   W06
 BYTE   Gs3  v092
 BYTE   W06
 BYTE   N11  Cs2  v104
 BYTE   N05  Fs3  v092
 BYTE   W06
 BYTE   En3  v084
 BYTE   W06
 BYTE   N11  As2  v104
 BYTE   N05  Ds3  v084
 BYTE   W06
 BYTE   Cs3
 BYTE   W06
 BYTE   N11  Cs2  v104
 BYTE   N05  Ds3  v084
 BYTE   W06
 BYTE   En3
 BYTE   W06
 BYTE   N11  Fs2  v104
 BYTE   N05  Fs3  v092
 BYTE   W06
 BYTE   Gs3
 BYTE   W06
 BYTE   N11  Cs2  v104
 BYTE   N05  As3  v100
 BYTE   W06
 BYTE   Bn3
 BYTE   W06
//  #02 //092   ----------------------------------------
 BYTE   N11  Gs1  v104
 BYTE   N11  Cs4
 BYTE   W12
 BYTE   Ds2
 BYTE   N11  Bn3
 BYTE   W12
 BYTE   Gs2
 BYTE   N05  Gs3  v092
 BYTE   W06
 BYTE   As3
 BYTE   W06
 BYTE   N11  Ds2  v104
 BYTE   N05  Bn3  v100
 BYTE   W06
 BYTE   Cs4
 BYTE   W06
 BYTE   N11  Bn2  v104
 BYTE   N05  Bn3  v100
 BYTE   W06
 BYTE   As3  v092
 BYTE   W06
 BYTE   N11  Ds2  v104
 BYTE   N05  Gs3  v092
 BYTE   W06
 BYTE   Fs3  v088
 BYTE   W06
 BYTE   N11  Gs2  v104
 BYTE   N05  En3  v088
 BYTE   W06
 BYTE   Fs3
 BYTE   W06
 BYTE   N11  Ds2  v104
 BYTE   N05  Gs3  v092
 BYTE   W06
 BYTE   As3
 BYTE   W06
//  #02 //093   ----------------------------------------
 BYTE   N11  Gs1  v104
 BYTE   N11  Bn3
 BYTE   W12
 BYTE   Ds2
 BYTE   N11  Gs3
 BYTE   W12
 BYTE   Gs2
 BYTE   N05  En3  v092
 BYTE   W06
 BYTE   Fs3
 BYTE   W06
 BYTE   N11  Ds2  v104
 BYTE   N05  Gs3  v092
 BYTE   W06
 BYTE   As3  v100
 BYTE   W06
 BYTE   N11  Bn2  v104
 BYTE   N05  Bn3  v100
 BYTE   W06
 BYTE   Cs4
 BYTE   W06
 BYTE   N11  Ds2  v104
 BYTE   N05  Ds4
 BYTE   W06
 BYTE   En4
 BYTE   W06
 BYTE   N11  Gs2
 BYTE   N05  Ds4
 BYTE   W06
 BYTE   Cs4  v100
 BYTE   W06
 BYTE   N11  Ds2  v104
 BYTE   N05  Bn3  v100
 BYTE   W06
 BYTE   Cs4
 BYTE   W06
//  #02 //094   ----------------------------------------
 BYTE   N11  Bn1  v104
 BYTE   N11  Bn3
 BYTE   W12
 BYTE   Fs2
 BYTE   N11  En3  v084
 BYTE   W12
 BYTE   Bn2  v104
 BYTE   N11  Gs3  v092
 BYTE   W12
 BYTE   Fs2  v104
 BYTE   N11  As3  v100
 BYTE   W12
 BYTE   Ds3  v104
 BYTE   N11  Bn3
 BYTE   W12
 BYTE   Fs2
 BYTE   N11  En3  v084
 BYTE   W12
 BYTE   Bn2  v104
 BYTE   N11  Gs3  v092
 BYTE   W12
 BYTE   Fs2  v104
 BYTE   N11  As3  v100
 BYTE   W12
//  #02 //095   ----------------------------------------
 BYTE   Bn1  v104
 BYTE   N11  Bn3
 BYTE   W12
 BYTE   Fs2
 BYTE   N11  Ds4  v108
 BYTE   W12
 BYTE   Bn2  v104
 BYTE   N11  En4  v108
 BYTE   W12
 BYTE   Fs2  v104
 BYTE   N11  Fs4  v108
 BYTE   W12
 BYTE   Ds3  v104
 BYTE   N11  En4  v108
 BYTE   W12
 BYTE   Fs2  v104
 BYTE   N11  Ds4  v108
 BYTE   W12
 BYTE   Bn2  v104
 BYTE   N11  Cs4
 BYTE   W12
 BYTE   Fs2
 BYTE   N11  Bn3
 BYTE   W12
//  #02 //096   ----------------------------------------
 BYTE   En1
 BYTE   N11  Gs3  v100
 BYTE   W12
 BYTE   Bn1  v104
 BYTE   N11  En3  v092
 BYTE   W12
 BYTE   En2  v104
 BYTE   N11  Fs3  v092
 BYTE   W12
 BYTE   Bn1  v104
 BYTE   N11  Gs3  v100
 BYTE   W12
 BYTE   Gs2  v104
 BYTE   N11  Bn3
 BYTE   W12
 BYTE   Bn1
 BYTE   N11  As3
 BYTE   W12
 BYTE   En2
 BYTE   N11  Bn3
 BYTE   W12
 BYTE   Bn1
 BYTE   N11  Cs4  v108
 BYTE   W12
//  #02 //097   ----------------------------------------
 BYTE   En1  v104
 BYTE   N11  Cs4  v108
 BYTE   W12
 BYTE   Bn1  v104
 BYTE   N05  Bn3
 BYTE   W06
 BYTE   Cs4  v108
 BYTE   W06
 BYTE   N11  En2  v104
 BYTE   N11  Ds4  v108
 BYTE   W12
 BYTE   Bn1  v104
 BYTE   N11  En4  v108
 BYTE   W12
 BYTE   Gs2  v104
 BYTE   N11  Ds4  v108
 BYTE   W12
 BYTE   Bn1  v104
 BYTE   N05  Cs4  v108
 BYTE   W06
 BYTE   Ds4  v112
 BYTE   W06
 BYTE   N11  En2  v104
 BYTE   N11  En4  v116
 BYTE   W12
 BYTE   Bn1  v104
 BYTE   N11  Fs4  v116
 BYTE   W12
//  #02 //098   ----------------------------------------
 BYTE   Fs1  v104
 BYTE   N05  Bn4  v127
 BYTE   W06
 BYTE   As4
 BYTE   W06
 BYTE   N11  Cs2  v104
 BYTE   N05  Gs4  v120
 BYTE   W06
 BYTE   Fs4
 BYTE   W06
 BYTE   N11  Fs2  v104
 BYTE   N05  En4  v116
 BYTE   W06
 BYTE   Ds4
 BYTE   W06
 BYTE   N11  Cs2  v104
 BYTE   N05  Cs4  v116
 BYTE   W06
 BYTE   Bn3  v108
 BYTE   W06
 BYTE   N11  As2  v104
 BYTE   N05  As3  v108
 BYTE   W06
 BYTE   Gs3  v104
 BYTE   W06
 BYTE   N11  Cs2
 BYTE   N05  Fs3
 BYTE   W06
 BYTE   En3  v100
 BYTE   W06
 BYTE   N11  Fs2  v104
 BYTE   N05  Ds3  v100
 BYTE   W06
 BYTE   Cs3
 BYTE   W06
 BYTE   N11  Cs2  v104
 BYTE   N05  Bn2  v092
 BYTE   W06
 BYTE   As2
 BYTE   W06
//  #02 //099   ----------------------------------------
 BYTE   N11  Fs1  v104
 BYTE   N05  Fs2  v088
 BYTE   W06
 BYTE   Gs2  v092
 BYTE   W06
 BYTE   N11  Cs2  v104
 BYTE   N05  As2  v092
 BYTE   W06
 BYTE   Bn2  v100
 BYTE   W06
 BYTE   N11  Fs2  v104
 BYTE   N05  Cs3  v100
 BYTE   W06
 BYTE   Ds3  v104
 BYTE   W06
 BYTE   N11  Cs2
 BYTE   N05  En3
 BYTE   W06
 BYTE   Fs3  v108
 BYTE   W06
 BYTE   N11  As2  v104
 BYTE   N05  Gs3  v108
 BYTE   W06
 BYTE   As3  v116
 BYTE   W06
 BYTE   N11  Cs2  v104
 BYTE   N05  Bn3  v116
 BYTE   W06
 BYTE   Cs4  v120
 BYTE   W06
 BYTE   N11  Fs2  v104
 BYTE   N05  Ds4  v120
 BYTE   W06
 BYTE   En4
 BYTE   W06
 BYTE   N11  Cs2  v104
 BYTE   N11  Fs4  v127
 BYTE   W12
//  #02 //100   ----------------------------------------
 BYTE   N32  Gs1  v104
 BYTE   N32  Ds2
 BYTE   N32  Gs2
 BYTE   N32  Ds4
 BYTE   W36
 BYTE   Gn1  v092
 BYTE   N32  Dn2
 BYTE   N32  Gn2
 BYTE   N32  Dn4
 BYTE   W36
 BYTE   Fs1  v080
 BYTE   N32  Cs2
 BYTE   N32  Fs2
 BYTE   N32  Cs4
 BYTE   W24
//  #02 //101   ----------------------------------------
 BYTE   W12
 BYTE   N78  Fn1  v072
 BYTE   N78  Cn2
 BYTE   N78  Fn2
 BYTE   N32  Cn4
 BYTE   W36
 BYTE   N22  Bn3  v060
 BYTE   W24
 BYTE   N11  Ds4
 BYTE   W12
 BYTE   En4
 BYTE   W12
//  #02 //102   ----------------------------------------
Label_0183C81A:
 BYTE   TIE  En3  v060
 BYTE   TIE  Gs3
 BYTE   TIE  Bn3
 BYTE   N23  Fs4
 BYTE   W24
 BYTE   N11  Ds4
 BYTE   W12
 BYTE   En4
 BYTE   W12
 BYTE   N23  Fs4
 BYTE   W24
 BYTE   N11  Ds4
 BYTE   W12
 BYTE   En4
 BYTE   W12
 BYTE   PEND 
//  #02 //103   ----------------------------------------
Label_0183C832:
 BYTE   N23  Fs4  v060
 BYTE   W24
 BYTE   Bn4
 BYTE   W24
 BYTE   As4
 BYTE   W24
 BYTE   Gs4
 BYTE   W14
 BYTE   PEND 
 BYTE   EOT
 BYTE   En3  v068
 BYTE   Bn3
 BYTE   W10
//  #02 //104   ----------------------------------------
 BYTE   N90  Ds3
 BYTE   N90  Fs3
 BYTE   N90  As3
 BYTE   N23  Fs4
 BYTE   W24
 BYTE   N11  Bn3
 BYTE   W12
 BYTE   N23
 BYTE   W24
 BYTE   Cs4
 BYTE   W24
 BYTE   N56  Ds4
 BYTE   W12
//  #02 //105   ----------------------------------------
 BYTE   N90  Gs2
 BYTE   N90  Bn2
 BYTE   N90  Ds3
 BYTE   W72
 BYTE   N11  Bn3
 BYTE   W12
 BYTE   Cs4
 BYTE   W12
//  #02 //106   ----------------------------------------
 BYTE   N90  Cs3
 BYTE   N90  En3
 BYTE   N90  Gs3
 BYTE   N23  Ds4
 BYTE   W24
 BYTE   N11  Bn3
 BYTE   W12
 BYTE   Cs4
 BYTE   W12
 BYTE   N23  Ds4
 BYTE   W24
 BYTE   N11  Bn3
 BYTE   W12
 BYTE   Cs4
 BYTE   W12
//  #02 //107   ----------------------------------------
 BYTE   N90  Ds3
 BYTE   N90  Fs3
 BYTE   N90  As3
 BYTE   N23  Ds4
 BYTE   W24
 BYTE   N11  En4
 BYTE   W12
 BYTE   N23  Ds4
 BYTE   W24
 BYTE   N11  Bn3
 BYTE   W12
 BYTE   Gs4
 BYTE   W12
 BYTE   TIE  Fs4
 BYTE   W12
//  #02 //108   ----------------------------------------
 BYTE   N90  Fs3
 BYTE   N90  As3
 BYTE   N90  Cs4
 BYTE   W92
 BYTE   W02
 BYTE   EOT
 BYTE   Fs4
 BYTE   W02
//  #02 //109   ----------------------------------------
 BYTE   N90  Bn2
 BYTE   N90  Ds3
 BYTE   N90  Fs3
 BYTE   W72
 BYTE   N11  Ds4
 BYTE   W12
 BYTE   En4
 BYTE   W12
//  #02 //110   ----------------------------------------
 BYTE   PATT
  POIN2 Label_0183C81A
//  #02 //111   ----------------------------------------
 BYTE   PATT
  POIN2 Label_0183C832
//  #02 //112   ----------------------------------------
 BYTE   EOT
 BYTE   En3  v068
 BYTE   Bn3
 BYTE   W10
 BYTE   N78  Ds3  v060
 BYTE   N78  Gn3
 BYTE   N78  As3
 BYTE   N44  Gn4
 BYTE   W48
 BYTE   N32  As4
 BYTE   W36
 BYTE   TIE  Gs3
 BYTE   TIE  Bn3
 BYTE   TIE  Ds4
 BYTE   TIE  Bn4
 BYTE   W12
//  #02 //113   ----------------------------------------
 BYTE   W90
 BYTE   EOT
 BYTE   Gs3  v071
 BYTE   Ds4
 BYTE   W04
 BYTE   Bn4
 BYTE   W02
//  #02 //114   ----------------------------------------
 BYTE   N22  Cs1  v080
 BYTE   N22  Cs2
 BYTE   W24
 BYTE   Gs1
 BYTE   N22  Bn2
 BYTE   N22  Bn3
 BYTE   W24
 BYTE   Cs2
 BYTE   N22  En2
 BYTE   N22  Cs3
 BYTE   N22  Cs4
 BYTE   W24
 BYTE   Gs1
 BYTE   N22  Ds3
 BYTE   N22  Ds4
 BYTE   W24
//  #02 //115   ----------------------------------------
 BYTE   Cs1
 BYTE   N22  Cs2
 BYTE   N22  En3
 BYTE   N22  En4
 BYTE   W24
 BYTE   Gs1
 BYTE   N22  Ds3
 BYTE   N22  Ds4
 BYTE   W24
 BYTE   Cs2
 BYTE   N22  En2
 BYTE   N22  En3
 BYTE   N22  En4
 BYTE   W24
 BYTE   Gs1
 BYTE   N22  Gs3
 BYTE   N22  Gs4
 BYTE   W24
//  #02 //116   ----------------------------------------
 BYTE   Fs1
 BYTE   N22  Fs2
 BYTE   N22  Gs3
 BYTE   N22  Gs4
 BYTE   W24
 BYTE   Cs2
 BYTE   N11  Fs3
 BYTE   N11  Fs4
 BYTE   W12
 BYTE   TIE  Fs3
 BYTE   TIE  Fs4
 BYTE   W12
 BYTE   N22  Fs2
 BYTE   N22  As2
 BYTE   W24
 BYTE   Cs2
 BYTE   W24
//  #02 //117   ----------------------------------------
 BYTE   Fs1
 BYTE   N22  Fs2
 BYTE   W24
 BYTE   Cs2
 BYTE   W18
 BYTE   EOT
 BYTE   Fs3  v078
 BYTE   W06
 BYTE   N22  Fs2
 BYTE   N22  As2
 BYTE   N22  Cs3
 BYTE   N22  Cs4
 BYTE   W24
 BYTE   Cs2
 BYTE   N22  Cs4
 BYTE   N22  Cs5
 BYTE   W24
//  #02 //118   ----------------------------------------
 BYTE   Gs1
 BYTE   N22  Ds2
 BYTE   N22  Gs2
 BYTE   N90  Cs4
 BYTE   N90  Cs5
 BYTE   W24
 BYTE   N11  Gs1
 BYTE   W12
 BYTE   Ds2
 BYTE   W12
 BYTE   N22  Gs2
 BYTE   N22  Cn3
 BYTE   W24
 BYTE   Ds2
 BYTE   W24
//  #02 //119   ----------------------------------------
 BYTE   Gs1
 BYTE   N22  Ds2
 BYTE   N22  Gs2
 BYTE   N90  Cn4
 BYTE   N90  Cn5
 BYTE   W24
 BYTE   N11  Gs1
 BYTE   W12
 BYTE   Ds2
 BYTE   W12
 BYTE   Gs2
 BYTE   N11  Cn3
 BYTE   W12
 BYTE   Ds2
 BYTE   W12
 BYTE   N22  Gs1
 BYTE   N22  Gs2
 BYTE   W24
//  #02 //120   ----------------------------------------
 BYTE   N11  Gn1
 BYTE   N11  Gn2
 BYTE   N11  Gn3
 BYTE   N11  Bn3
 BYTE   W12
 BYTE   Gn1
 BYTE   N11  Gn2
 BYTE   N11  Gn3
 BYTE   N11  Bn3
 BYTE   W24
 BYTE   Gn1
 BYTE   N11  Gn2
 BYTE   N11  Gn3
 BYTE   N11  Bn3
 BYTE   W24
 BYTE   Gn1
 BYTE   N11  Gn2
 BYTE   N11  Gn3
 BYTE   N11  Bn3
 BYTE   W24
 BYTE   N22  Gn1
 BYTE   N22  Gn2
 BYTE   N22  Gn3
 BYTE   N22  Bn3
 BYTE   W12
//  #02 //121   ----------------------------------------
 BYTE   W24
 BYTE   N68  An1
 BYTE   N68  An2
 BYTE   N68  An3
 BYTE   N68  Cs4
 BYTE   W72
//  #02 //122   ----------------------------------------
 BYTE   N22  Fs1
 BYTE   N22  Cs2
 BYTE   N22  Fs2
 BYTE   N44  Cs3  v104
 BYTE   N44  Gs3
 BYTE   W72
 BYTE   N22  Gs3  v080
 BYTE   W24
//  #02 //123   ----------------------------------------
 BYTE   Fs1
 BYTE   N22  Cs2
 BYTE   N22  Fs2
 BYTE   N44  Cs3  v104
 BYTE   N44  Fs3
 BYTE   W72
 BYTE   N22  Fs3  v080
 BYTE   W24
//  #02 //124   ----------------------------------------
 BYTE   N44  Cs1
 BYTE   N44  Gs1
 BYTE   N44  Cs2
 BYTE   N44  Cs3  v104
 BYTE   N44  Fn3
 BYTE   N44  Gs3
 BYTE   W48
 BYTE   Cs1  v080
 BYTE   N44  Gs1
 BYTE   N44  Cs2
 BYTE   N44  Ds3  v104
 BYTE   N44  Gs3
 BYTE   N44  Cn4
 BYTE   W48
//  #02 //125   ----------------------------------------
 BYTE   N11  As1  v080
 BYTE   N11  As2
 BYTE   N90  Fn3  v104
 BYTE   N90  Gs3
 BYTE   N90  Cn4
 BYTE   W12
 BYTE   N11  Fn2  v080
 BYTE   W12
 BYTE   As2
 BYTE   W12
 BYTE   Fn2
 BYTE   W12
 BYTE   As1
 BYTE   W12
 BYTE   Fn2
 BYTE   W12
 BYTE   N22  As2
 BYTE   W24
//  #02 //126   ----------------------------------------
 BYTE   N11  Ds1
 BYTE   N11  Ds2
 BYTE   N68  Cs3
 BYTE   N68  Fn3
 BYTE   W12
 BYTE   N11  As1
 BYTE   W12
 BYTE   Ds2
 BYTE   W12
 BYTE   As1
 BYTE   W12
 BYTE   Ds1
 BYTE   W12
 BYTE   As1
 BYTE   W12
 BYTE   N22  Ds2
 BYTE   N11  Cs3
 BYTE   W12
 BYTE   Ds3
 BYTE   W12
//  #02 //127   ----------------------------------------
 BYTE   Fn1
 BYTE   N11  Fn2
 BYTE   N22  Cs3
 BYTE   N22  Fn3
 BYTE   W12
 BYTE   N11  Cn2
 BYTE   W12
 BYTE   Fn2
 BYTE   N22  Ds3
 BYTE   N22  Fs3
 BYTE   W12
 BYTE   N11  Cn2
 BYTE   W12
 BYTE   Fn1
 BYTE   N22  Cs3
 BYTE   N22  Fn3
 BYTE   W12
 BYTE   N11  Cn2
 BYTE   W12
 BYTE   N22  Fn2
 BYTE   N22  Fs3
 BYTE   N22  As3
 BYTE   W24
//  #02 //128   ----------------------------------------
 BYTE   N11  Gs1
 BYTE   N11  Gs2
 BYTE   TIE  Fn3
 BYTE   TIE  Gs3
 BYTE   W12
 BYTE   N11  Ds2
 BYTE   N23  Bn3
 BYTE   W12
 BYTE   N11  Gs2
 BYTE   W12
 BYTE   Ds2
 BYTE   N23  Cs4
 BYTE   W12
 BYTE   N11  Gs1
 BYTE   W12
 BYTE   Ds2
 BYTE   N23  Ds4
 BYTE   W12
 BYTE   N22  Gs2
 BYTE   W12
 BYTE   N23  Fn4
 BYTE   W12
//  #02 //129   ----------------------------------------
 BYTE   N11  Cs2
 BYTE   N11  Cs3
 BYTE   W12
 BYTE   Gs2
 BYTE   N23  Fs4
 BYTE   W12
 BYTE   N11  Cs3
 BYTE   W12
 BYTE   Gs2
 BYTE   N22  Gs4
 BYTE   W12
 BYTE   N11  Cs2
 BYTE   W12
 BYTE   Gs2
 BYTE   W12
 BYTE   N22  Cs3
 BYTE   W19
 BYTE   EOT
 BYTE   Fn3  v068
 BYTE   W05
//  #02 //130   ----------------------------------------
 BYTE   N11  Fs1
 BYTE   N11  Fs2
 BYTE   N68  Cs3
 BYTE   N68  Gs3
 BYTE   W12
 BYTE   N11  Cs2
 BYTE   W12
 BYTE   Fs2
 BYTE   W12
 BYTE   Cs2
 BYTE   W12
 BYTE   Fs1
 BYTE   W12
 BYTE   Cs2
 BYTE   W12
 BYTE   Fs2
 BYTE   N11  Fn3
 BYTE   W12
 BYTE   Cs2
 BYTE   N11  Fs3
 BYTE   W12
//  #02 //131   ----------------------------------------
 BYTE   Fs1
 BYTE   N22  Gs3
 BYTE   W12
 BYTE   N11  Cs2
 BYTE   W12
 BYTE   Fs2
 BYTE   N22  As3
 BYTE   N22  Cs4
 BYTE   W12
 BYTE   N11  Cs2
 BYTE   W12
 BYTE   Fs1
 BYTE   N22  Gs3
 BYTE   N22  Cn4
 BYTE   W12
 BYTE   N11  Cs2
 BYTE   W12
 BYTE   N22  Fs2
 BYTE   N22  Fs3
 BYTE   N22  As3
 BYTE   W24
//  #02 //132   ----------------------------------------
 BYTE   N11  Fn1
 BYTE   N11  Fn2
 BYTE   N44  Fn3
 BYTE   N44  An3
 BYTE   W12
 BYTE   N11  Cn2
 BYTE   W12
 BYTE   Fn2
 BYTE   W12
 BYTE   Cn2
 BYTE   W12
 BYTE   Fn1
 BYTE   N32  Ds3
 BYTE   N32  Cn4
 BYTE   W12
 BYTE   N11  Cn2
 BYTE   W12
 BYTE   Fn2
 BYTE   W12
 BYTE   N22  As1
 BYTE   N22  As2
 BYTE   N48  Cs3
 BYTE   TIE  Cs4
 BYTE   W12
//  #02 //133   ----------------------------------------
 BYTE   W12
 BYTE   N11  Fn2
 BYTE   W24
 BYTE   N11
 BYTE   N54  Cs3  v072
 BYTE   W12
 BYTE   N11  As1  v080
 BYTE   N11  Fn3
 BYTE   W12
 BYTE   Fn2
 BYTE   N11  As3
 BYTE   W12
 BYTE   N22  As2
 BYTE   N11  Fn4  v092
 BYTE   W12
 BYTE   As4  v112
 BYTE   W06
 BYTE   EOT
 BYTE   Cs4
 BYTE   W06
//  #02 //134   ----------------------------------------
 BYTE   N11  Ds1  v080
 BYTE   N11  Ds2
 BYTE   W12
 BYTE   As1
 BYTE   W12
 BYTE   Ds2
 BYTE   W12
 BYTE   As1
 BYTE   W12
 BYTE   Ds1
 BYTE   W12
 BYTE   As1
 BYTE   W12
 BYTE   N22  Ds2
 BYTE   W24
//  #02 //135   ----------------------------------------
 BYTE   N11  Cs1
 BYTE   N11  Cs2
 BYTE   W12
 BYTE   Gs1
 BYTE   W12
 BYTE   Cs2
 BYTE   W12
 BYTE   Gs1
 BYTE   W12
 BYTE   Cs1
 BYTE   W12
 BYTE   Gs1
 BYTE   W12
 BYTE   N22  Cs2
 BYTE   W24
//  #02 //136   ----------------------------------------
 BYTE   N11  Fs1
 BYTE   N11  Fs2
 BYTE   W12
 BYTE   Cs2
 BYTE   W12
 BYTE   Fs2
 BYTE   W12
 BYTE   Cs2
 BYTE   W12
 BYTE   Fs1
 BYTE   W12
 BYTE   Cs2
 BYTE   W12
 BYTE   N22  Fs2
 BYTE   W24
//  #02 //137   ----------------------------------------
 BYTE   N11  Gs1
 BYTE   N11  Gs2
 BYTE   W12
 BYTE   Ds2
 BYTE   W12
 BYTE   Gs2
 BYTE   W12
 BYTE   Ds2
 BYTE   W12
 BYTE   Gs1
 BYTE   W12
 BYTE   Ds2
 BYTE   W12
 BYTE   N22  Gs2
 BYTE   W24
//  #02 //138   ----------------------------------------
 BYTE   N11  Ds1
 BYTE   N11  Ds2
 BYTE   N90  As2
 BYTE   N90  Cs3
 BYTE   W12
 BYTE   N11  As1
 BYTE   W12
 BYTE   Ds2
 BYTE   W12
 BYTE   As1
 BYTE   W12
 BYTE   Ds1
 BYTE   W12
 BYTE   As1
 BYTE   W12
 BYTE   N22  Ds2
 BYTE   W24
//  #02 //139   ----------------------------------------
 BYTE   N11  Fn1
 BYTE   N11  Fn2
 BYTE   N68  Fn3
 BYTE   N68  Gs3
 BYTE   W12
 BYTE   N11  Cn2
 BYTE   W12
 BYTE   Fn2
 BYTE   W12
 BYTE   Cn2
 BYTE   W12
 BYTE   Fn1
 BYTE   W12
 BYTE   Cn2
 BYTE   W12
 BYTE   N22  Fn2
 BYTE   N22  Cn4  v108
 BYTE   N22  Ds4
 BYTE   W24
//  #02 //140   ----------------------------------------
 BYTE   N11  Fs1  v080
 BYTE   N11  Fs2
 BYTE   N90  Fs3  v092
 BYTE   N90  Cs4
 BYTE   W12
 BYTE   N11  Cs2  v080
 BYTE   W12
 BYTE   Fs2
 BYTE   W12
 BYTE   Cs2
 BYTE   W12
 BYTE   Fs1
 BYTE   W12
 BYTE   Cs2
 BYTE   W12
 BYTE   N22  Fs2
 BYTE   W24
//  #02 //141   ----------------------------------------
 BYTE   N32  Ds2
 BYTE   N32  Gs2
 BYTE   N32  Fs3
 BYTE   N32  As3
 BYTE   W36
 BYTE   Cs2
 BYTE   N32  Gs2
 BYTE   N32  Fn3
 BYTE   N32  Gs3
 BYTE   W36
 BYTE   N22  Cs2
 BYTE   N22  Fs2
 BYTE   N90  As2
 BYTE   N90  Fs3
 BYTE   W24
//  #02 //142   ----------------------------------------
 BYTE   N11  Fs1
 BYTE   W12
 BYTE   Cs2
 BYTE   W12
 BYTE   Fs2
 BYTE   W12
 BYTE   Cs2
 BYTE   W12
 BYTE   N22  Fs2
 BYTE   W24
 BYTE   N11  Cs3
 BYTE   W12
 BYTE   N11
 BYTE   W12
//  #02 //143   ----------------------------------------
 BYTE   N32  As1
 BYTE   N32  Ds2
 BYTE   N11  Fs3  v092
 BYTE   W12
 BYTE   Fn3
 BYTE   W12
 BYTE   Fs3
 BYTE   W12
 BYTE   N32  Ds2  v080
 BYTE   N32  Gs2
 BYTE   N23  Gs3  v092
 BYTE   W24
 BYTE   N11  Cs4  v108
 BYTE   W12
 BYTE   TIE  Gs2  v080
 BYTE   TIE  Cs3
 BYTE   N92  Cs4  v108
 BYTE   W24
//  #02 //144   ----------------------------------------
 BYTE   W72
 BYTE   N05  Cs4  v080
 BYTE   W06
 BYTE   Ds4
 BYTE   W06
 BYTE   Fn4
 BYTE   W05
 BYTE   EOT
 BYTE   Gs2  v061
 BYTE   W01
 BYTE   N05  Fs4
 BYTE   W06
//  #02 //145   ----------------------------------------
 BYTE   N22  Fn1
 BYTE   N22  Cn2
 BYTE   N22  Fn2
 BYTE   N11  Gs4
 BYTE   W12
 BYTE   Cs4  v052
 BYTE   W12
 BYTE   Fn1  v080
 BYTE   N11  Ds4  v060
 BYTE   W12
 BYTE   Cn2  v080
 BYTE   N22  Gs4
 BYTE   W12
 BYTE   N11  Fn2
 BYTE   W12
 BYTE   Cn2
 BYTE   N11  Cs4  v052
 BYTE   W12
 BYTE   Fn1  v080
 BYTE   N11  Ds4  v060
 BYTE   W12
 BYTE   Cn2  v080
 BYTE   N22  Gs4
 BYTE   W12
//  #02 //146   ----------------------------------------
 BYTE   N11  Fn2
 BYTE   W12
 BYTE   Cn2
 BYTE   N11  Cs4  v052
 BYTE   W12
 BYTE   Fn1  v080
 BYTE   N11  Ds4  v060
 BYTE   W12
 BYTE   Cn2  v080
 BYTE   N22  Gs4
 BYTE   W12
 BYTE   N11  Fn2
 BYTE   W12
 BYTE   Cn2
 BYTE   N11  Cs4  v052
 BYTE   W12
 BYTE   N22  Fn1  v080
 BYTE   N11  Ds4  v060
 BYTE   W12
 BYTE   Cs4  v052
 BYTE   W12
//  #02 //147   ----------------------------------------
 BYTE   N22  Fs1  v080
 BYTE   N22  Cs2
 BYTE   N22  Fs2
 BYTE   N11  Gs4
 BYTE   W12
 BYTE   Cs4  v052
 BYTE   W12
 BYTE   Fs1  v080
 BYTE   N11  Ds4  v060
 BYTE   W12
 BYTE   Cs2  v080
 BYTE   N22  Gs4
 BYTE   W12
 BYTE   N11  Fs2
 BYTE   W12
 BYTE   Cs2
 BYTE   N11  Cs4  v052
 BYTE   W12
 BYTE   Fs1  v080
 BYTE   N11  Ds4  v060
 BYTE   W12
 BYTE   Cs2  v080
 BYTE   N22  Gs4
 BYTE   W12
//  #02 //148   ----------------------------------------
 BYTE   N11  Fs2
 BYTE   W12
 BYTE   Cs2
 BYTE   N11  Cs4  v052
 BYTE   W12
 BYTE   Fs1  v080
 BYTE   N11  Ds4  v060
 BYTE   W12
 BYTE   Cs2  v080
 BYTE   N22  Gs4
 BYTE   W12
 BYTE   N11  Fs2
 BYTE   W12
 BYTE   Cs2
 BYTE   N11  Fs4  v072
 BYTE   W12
 BYTE   N22  Fs1  v080
 BYTE   N11  Fn4  v072
 BYTE   W12
 BYTE   Cs4  v052
 BYTE   W12
//  #02 //149   ----------------------------------------
 BYTE   N22  Gs1  v080
 BYTE   N22  Ds2
 BYTE   N22  Gs2
 BYTE   N11  Gs4
 BYTE   W12
 BYTE   Cs4  v052
 BYTE   W12
 BYTE   Gs1  v080
 BYTE   N11  Ds4  v060
 BYTE   W12
 BYTE   Ds2  v080
 BYTE   N22  Gs4
 BYTE   W12
 BYTE   N11  Gs2
 BYTE   W12
 BYTE   Ds2
 BYTE   N11  Cs4  v052
 BYTE   W12
 BYTE   Gs1  v080
 BYTE   N11  Ds4  v060
 BYTE   W12
 BYTE   Ds2  v080
 BYTE   N22  Gs4
 BYTE   W12
//  #02 //150   ----------------------------------------
 BYTE   N11  Gs2
 BYTE   W12
 BYTE   Ds2
 BYTE   N11  Cs4  v052
 BYTE   W12
 BYTE   Gs1  v080
 BYTE   N11  Ds4  v060
 BYTE   W12
 BYTE   Ds2  v080
 BYTE   N22  Gs4
 BYTE   W12
 BYTE   N11  Gs2
 BYTE   W12
 BYTE   Ds2
 BYTE   N11  Cs4  v052
 BYTE   W12
 BYTE   N22  Gs1  v080
 BYTE   N11  Ds4  v060
 BYTE   W12
 BYTE   Cs4  v052
 BYTE   W12
//  #02 //151   ----------------------------------------
 BYTE   PATT
  POIN2 Label_0183BD0B
//  #02 //152   ----------------------------------------
 BYTE   W12
 BYTE   N32  Gn1  v080
 BYTE   N32  Gn2
 BYTE   N32  Dn3  v060
 BYTE   N32  Gn3
 BYTE   W36
 BYTE   N44  Cs4  v080
 BYTE   W24
 BYTE   W02
 BYTE   GoTo
  POIN2 Label_0183BD3A
//  #02 //153   ----------------------------------------
 BYTE   W22
 BYTE   N92  Fs2  v060
 BYTE   W08
 BYTE   N84  Cs3
 BYTE   W08
 BYTE   N78  Fs3
 BYTE   W09
 BYTE   N68  Cs4
 BYTE   W08
 BYTE   N60  Fs4
 BYTE   W60
//  #02 //154   ----------------------------------------
 BYTE   W03
 BYTE   W96
//  #02 //155   ----------------------------------------
 BYTE   W96
//  #02 //156   ----------------------------------------
 BYTE   W96
 BYTE   FINE

//**************** Track 3 (Midi-Chn.2) ****************//

KiramekiRider_003:
//  #03 //000   ----------------------------------------
 BYTE   KEYSH   KiramekiRider_key+0
 BYTE   VOICE   52
 BYTE   MODT 0
 BYTE   LFOS 44
 BYTE   VOL   88*KiramekiRider_mvl/mxv
 BYTE   PAN   c_v+0
 BYTE   W24
 BYTE   W96
//  #03 //001   ----------------------------------------
 BYTE   W96
//  #03 //002   ----------------------------------------
 BYTE   W96
//  #03 //003   ----------------------------------------
 BYTE   W96
//  #03 //004   ----------------------------------------
 BYTE   W96
//  #03 //005   ----------------------------------------
 BYTE   W96
//  #03 //006   ----------------------------------------
 BYTE   W96
//  #03 //007   ----------------------------------------
 BYTE   W96
//  #03 //008   ----------------------------------------
 BYTE   W96
//  #03 //009   ----------------------------------------
 BYTE   W96
//  #03 //010   ----------------------------------------
 BYTE   W96
//  #03 //011   ----------------------------------------
Label_0183CD20:
 BYTE   N92  Gs1  v060
 BYTE   W96
 BYTE   PEND 
//  #03 //012   ----------------------------------------
 BYTE   PATT
  POIN2 Label_0183CD20
//  #03 //013   ----------------------------------------
Label_0183CD2A:
 BYTE   N92  As1  v060
 BYTE   W96
 BYTE   PEND 
//  #03 //014   ----------------------------------------
 BYTE   PATT
  POIN2 Label_0183CD2A
//  #03 //015   ----------------------------------------
Label_0183CD34:
 BYTE   N92  Cn2  v060
 BYTE   W96
 BYTE   PEND 
//  #03 //016   ----------------------------------------
 BYTE   PATT
  POIN2 Label_0183CD34
//  #03 //017   ----------------------------------------
Label_0183CD3E:
 BYTE   N32  As1  v060
 BYTE   W36
 BYTE   An1
 BYTE   W36
 BYTE   Gs1
 BYTE   W24
 BYTE   PEND 
//  #03 //018   ----------------------------------------
 BYTE   W12
 BYTE   Gn1
 BYTE   W84
//  #03 //019   ----------------------------------------
 BYTE   N92  Fs1  v044
 BYTE   W08
Label_0183CD4E:
 BYTE   W88
//  #03 //020   ----------------------------------------
Label_0183CD4F:
 BYTE   N92  Fs1  v044
 BYTE   W96
 BYTE   PEND 
//  #03 //021   ----------------------------------------
 BYTE   PATT
  POIN2 Label_0183CD4F
//  #03 //022   ----------------------------------------
 BYTE   PATT
  POIN2 Label_0183CD4F
//  #03 //023   ----------------------------------------
Label_0183CD5E:
 BYTE   N92  Fn1  v044
 BYTE   W96
 BYTE   PEND 
//  #03 //024   ----------------------------------------
 BYTE   PATT
  POIN2 Label_0183CD5E
//  #03 //025   ----------------------------------------
Label_0183CD68:
 BYTE   N92  As1  v044
 BYTE   W96
 BYTE   PEND 
//  #03 //026   ----------------------------------------
Label_0183CD6D:
 BYTE   N92  Gs1  v044
 BYTE   W96
 BYTE   PEND 
//  #03 //027   ----------------------------------------
Label_0183CD72:
 BYTE   N92  Ds1  v044
 BYTE   W96
 BYTE   PEND 
//  #03 //028   ----------------------------------------
 BYTE   PATT
  POIN2 Label_0183CD72
//  #03 //029   ----------------------------------------
 BYTE   PATT
  POIN2 Label_0183CD5E
//  #03 //030   ----------------------------------------
 BYTE   PATT
  POIN2 Label_0183CD68
//  #03 //031   ----------------------------------------
 BYTE   PATT
  POIN2 Label_0183CD72
//  #03 //032   ----------------------------------------
 BYTE   PATT
  POIN2 Label_0183CD6D
//  #03 //033   ----------------------------------------
Label_0183CD90:
 BYTE   N92  Cs2  v044
 BYTE   W96
 BYTE   PEND 
//  #03 //034   ----------------------------------------
 BYTE   PATT
  POIN2 Label_0183CD90
//  #03 //035   ----------------------------------------
 BYTE   N92  Gn1  v044
 BYTE   W96
//  #03 //036   ----------------------------------------
 BYTE   PATT
  POIN2 Label_0183CD4F
//  #03 //037   ----------------------------------------
 BYTE   PATT
  POIN2 Label_0183CD5E
//  #03 //038   ----------------------------------------
 BYTE   N80  As1  v044
 BYTE   W48
 BYTE   W36
 BYTE   N23  Ds2
 BYTE   W12
//  #03 //039   ----------------------------------------
 BYTE   W12
 BYTE   N05
 BYTE   W12
 BYTE   N05
 BYTE   W72
//  #03 //040   ----------------------------------------
 BYTE   W84
 BYTE   N23  Cs2
 BYTE   W12
//  #03 //041   ----------------------------------------
 BYTE   W12
 BYTE   N05
 BYTE   W12
 BYTE   N05
 BYTE   W60
 BYTE   N80  As1
 BYTE   W12
//  #03 //042   ----------------------------------------
 BYTE   W72
 BYTE   N23
 BYTE   W24
//  #03 //043   ----------------------------------------
 BYTE   N44  Cn2
 BYTE   W48
 BYTE   As1
 BYTE   W48
//  #03 //044   ----------------------------------------
Label_0183CDC9:
 BYTE   N44  Fs1  v044
 BYTE   W48
 BYTE   N44
 BYTE   W48
 BYTE   PEND 
//  #03 //045   ----------------------------------------
 BYTE   Gs1
 BYTE   W48
 BYTE   N44
 BYTE   W48
//  #03 //046   ----------------------------------------
 BYTE   N23
 BYTE   W24
 BYTE   Ds2
 BYTE   W24
 BYTE   N44  Gs1
 BYTE   W48
//  #03 //047   ----------------------------------------
 BYTE   W96
//  #03 //048   ----------------------------------------
 BYTE   W96
//  #03 //049   ----------------------------------------
Label_0183CDDD:
 BYTE   N92  Fs1  v060
 BYTE   W96
 BYTE   PEND 
//  #03 //050   ----------------------------------------
 BYTE   PATT
  POIN2 Label_0183CDDD
//  #03 //051   ----------------------------------------
Label_0183CDE7:
 BYTE   N92  Cs2  v060
 BYTE   W96
 BYTE   PEND 
//  #03 //052   ----------------------------------------
 BYTE   PATT
  POIN2 Label_0183CD2A
//  #03 //053   ----------------------------------------
Label_0183CDF1:
 BYTE   N92  Ds1  v060
 BYTE   W96
 BYTE   PEND 
//  #03 //054   ----------------------------------------
Label_0183CDF6:
 BYTE   N92  Fn1  v060
 BYTE   W96
 BYTE   PEND 
//  #03 //055   ----------------------------------------
 BYTE   PATT
  POIN2 Label_0183CD20
//  #03 //056   ----------------------------------------
 BYTE   PATT
  POIN2 Label_0183CDE7
//  #03 //057   ----------------------------------------
 BYTE   PATT
  POIN2 Label_0183CDDD
//  #03 //058   ----------------------------------------
 BYTE   PATT
  POIN2 Label_0183CDDD
//  #03 //059   ----------------------------------------
 BYTE   PATT
  POIN2 Label_0183CDF6
//  #03 //060   ----------------------------------------
 BYTE   PATT
  POIN2 Label_0183CD2A
//  #03 //061   ----------------------------------------
 BYTE   PATT
  POIN2 Label_0183CDF1
//  #03 //062   ----------------------------------------
 BYTE   PATT
  POIN2 Label_0183CDF6
//  #03 //063   ----------------------------------------
 BYTE   PATT
  POIN2 Label_0183CDDD
//  #03 //064   ----------------------------------------
 BYTE   PATT
  POIN2 Label_0183CD20
//  #03 //065   ----------------------------------------
 BYTE   PATT
  POIN2 Label_0183CDF1
//  #03 //066   ----------------------------------------
 BYTE   PATT
  POIN2 Label_0183CDF6
//  #03 //067   ----------------------------------------
 BYTE   PATT
  POIN2 Label_0183CDDD
//  #03 //068   ----------------------------------------
 BYTE   N32  Ds1  v060
 BYTE   W36
 BYTE   Gs1
 BYTE   W36
 BYTE   N23  Cs1
 BYTE   W24
//  #03 //069   ----------------------------------------
 BYTE   W96
//  #03 //070   ----------------------------------------
Label_0183CE46:
 BYTE   N23  Dn1  v044
 BYTE   W48
 BYTE   N23
 BYTE   W48
 BYTE   PEND 
//  #03 //071   ----------------------------------------
 BYTE   PATT
  POIN2 Label_0183CE46
//  #03 //072   ----------------------------------------
 BYTE   PATT
  POIN2 Label_0183CE46
//  #03 //073   ----------------------------------------
 BYTE   PATT
  POIN2 Label_0183CE46
//  #03 //074   ----------------------------------------
Label_0183CE5C:
 BYTE   N23  Cs1  v044
 BYTE   W48
 BYTE   N23
 BYTE   W48
 BYTE   PEND 
//  #03 //075   ----------------------------------------
 BYTE   PATT
  POIN2 Label_0183CE5C
//  #03 //076   ----------------------------------------
Label_0183CE68:
 BYTE   N23  Fs1  v044
 BYTE   W48
 BYTE   N23
 BYTE   W48
 BYTE   PEND 
//  #03 //077   ----------------------------------------
Label_0183CE6F:
 BYTE   N23  En1  v044
 BYTE   W48
 BYTE   N23
 BYTE   W48
 BYTE   PEND 
//  #03 //078   ----------------------------------------
 BYTE   Bn0
 BYTE   W48
 BYTE   N23
 BYTE   W48
//  #03 //079   ----------------------------------------
 BYTE   N23
 BYTE   W48
 BYTE   N23
 BYTE   W48
//  #03 //080   ----------------------------------------
 BYTE   PATT
  POIN2 Label_0183CE5C
//  #03 //081   ----------------------------------------
 BYTE   PATT
  POIN2 Label_0183CE5C
//  #03 //082   ----------------------------------------
 BYTE   PATT
  POIN2 Label_0183CE46
//  #03 //083   ----------------------------------------
 BYTE   N23  Ds1  v044
 BYTE   W48
 BYTE   N23
 BYTE   W48
//  #03 //084   ----------------------------------------
 BYTE   PATT
  POIN2 Label_0183CE6F
//  #03 //085   ----------------------------------------
 BYTE   PATT
  POIN2 Label_0183CE68
//  #03 //086   ----------------------------------------
Label_0183CE9D:
 BYTE   N92  Bn1  v044
 BYTE   W96
 BYTE   PEND 
//  #03 //087   ----------------------------------------
 BYTE   PATT
  POIN2 Label_0183CE9D
//  #03 //088   ----------------------------------------
Label_0183CEA7:
 BYTE   N92  En1  v044
 BYTE   W96
 BYTE   PEND 
//  #03 //089   ----------------------------------------
 BYTE   PATT
  POIN2 Label_0183CEA7
//  #03 //090   ----------------------------------------
 BYTE   PATT
  POIN2 Label_0183CDC9
//  #03 //091   ----------------------------------------
Label_0183CEB6:
 BYTE   N44  Fs1  v044
 BYTE   W48
 BYTE   N44
 BYTE   W48
 BYTE   PEND 
//  #03 //092   ----------------------------------------
Label_0183CEBD:
 BYTE   N44  Gs1  v044
 BYTE   W48
 BYTE   N44
 BYTE   W48
 BYTE   PEND 
//  #03 //093   ----------------------------------------
 BYTE   PATT
  POIN2 Label_0183CEBD
//  #03 //094   ----------------------------------------
 BYTE   N92  Bn1  v044
 BYTE   W96
//  #03 //095   ----------------------------------------
 BYTE   PATT
  POIN2 Label_0183CE9D
//  #03 //096   ----------------------------------------
 BYTE   PATT
  POIN2 Label_0183CEA7
//  #03 //097   ----------------------------------------
 BYTE   PATT
  POIN2 Label_0183CEA7
//  #03 //098   ----------------------------------------
 BYTE   PATT
  POIN2 Label_0183CDC9
//  #03 //099   ----------------------------------------
 BYTE   PATT
  POIN2 Label_0183CEB6
//  #03 //100   ----------------------------------------
 BYTE   N32  Gs1  v044
 BYTE   W36
 BYTE   Gn1
 BYTE   W36
 BYTE   Fs1
 BYTE   W24
//  #03 //101   ----------------------------------------
 BYTE   W12
 BYTE   Fn1
 BYTE   W84
//  #03 //102   ----------------------------------------
 BYTE   W96
//  #03 //103   ----------------------------------------
 BYTE   W96
//  #03 //104   ----------------------------------------
 BYTE   W96
//  #03 //105   ----------------------------------------
 BYTE   W96
//  #03 //106   ----------------------------------------
 BYTE   W96
//  #03 //107   ----------------------------------------
 BYTE   W96
//  #03 //108   ----------------------------------------
 BYTE   W96
//  #03 //109   ----------------------------------------
 BYTE   W96
//  #03 //110   ----------------------------------------
 BYTE   W96
//  #03 //111   ----------------------------------------
 BYTE   W96
//  #03 //112   ----------------------------------------
 BYTE   W96
//  #03 //113   ----------------------------------------
 BYTE   W96
//  #03 //114   ----------------------------------------
 BYTE   W96
//  #03 //115   ----------------------------------------
 BYTE   W96
//  #03 //116   ----------------------------------------
 BYTE   W96
//  #03 //117   ----------------------------------------
 BYTE   W96
//  #03 //118   ----------------------------------------
 BYTE   W96
//  #03 //119   ----------------------------------------
 BYTE   W96
//  #03 //120   ----------------------------------------
 BYTE   W96
//  #03 //121   ----------------------------------------
 BYTE   W96
//  #03 //122   ----------------------------------------
 BYTE   PATT
  POIN2 Label_0183CDDD
//  #03 //123   ----------------------------------------
 BYTE   PATT
  POIN2 Label_0183CDDD
//  #03 //124   ----------------------------------------
 BYTE   PATT
  POIN2 Label_0183CDE7
//  #03 //125   ----------------------------------------
 BYTE   PATT
  POIN2 Label_0183CD2A
//  #03 //126   ----------------------------------------
 BYTE   PATT
  POIN2 Label_0183CDF1
//  #03 //127   ----------------------------------------
 BYTE   PATT
  POIN2 Label_0183CDF6
//  #03 //128   ----------------------------------------
 BYTE   PATT
  POIN2 Label_0183CD20
//  #03 //129   ----------------------------------------
 BYTE   PATT
  POIN2 Label_0183CDE7
//  #03 //130   ----------------------------------------
 BYTE   PATT
  POIN2 Label_0183CDDD
//  #03 //131   ----------------------------------------
 BYTE   PATT
  POIN2 Label_0183CDDD
//  #03 //132   ----------------------------------------
 BYTE   PATT
  POIN2 Label_0183CDF6
//  #03 //133   ----------------------------------------
 BYTE   PATT
  POIN2 Label_0183CD2A
//  #03 //134   ----------------------------------------
 BYTE   PATT
  POIN2 Label_0183CDF1
//  #03 //135   ----------------------------------------
 BYTE   PATT
  POIN2 Label_0183CDF6
//  #03 //136   ----------------------------------------
 BYTE   PATT
  POIN2 Label_0183CDDD
//  #03 //137   ----------------------------------------
 BYTE   PATT
  POIN2 Label_0183CD20
//  #03 //138   ----------------------------------------
 BYTE   PATT
  POIN2 Label_0183CDF1
//  #03 //139   ----------------------------------------
 BYTE   PATT
  POIN2 Label_0183CDF6
//  #03 //140   ----------------------------------------
 BYTE   PATT
  POIN2 Label_0183CDDD
//  #03 //141   ----------------------------------------
 BYTE   N32  Ds1  v060
 BYTE   W36
 BYTE   Gs1
 BYTE   W36
 BYTE   N92  Cs1
 BYTE   W24
//  #03 //142   ----------------------------------------
 BYTE   W96
//  #03 //143   ----------------------------------------
 BYTE   W96
//  #03 //144   ----------------------------------------
 BYTE   W96
//  #03 //145   ----------------------------------------
 BYTE   PATT
  POIN2 Label_0183CD20
//  #03 //146   ----------------------------------------
 BYTE   PATT
  POIN2 Label_0183CD20
//  #03 //147   ----------------------------------------
 BYTE   PATT
  POIN2 Label_0183CD2A
//  #03 //148   ----------------------------------------
 BYTE   PATT
  POIN2 Label_0183CD2A
//  #03 //149   ----------------------------------------
 BYTE   PATT
  POIN2 Label_0183CD34
//  #03 //150   ----------------------------------------
 BYTE   PATT
  POIN2 Label_0183CD34
//  #03 //151   ----------------------------------------
 BYTE   PATT
  POIN2 Label_0183CD3E
//  #03 //152   ----------------------------------------
 BYTE   W12
 BYTE   N32  Gn1  v060
 BYTE   W60
 BYTE   W02
 BYTE   GoTo
  POIN2 Label_0183CD4E
//  #03 //153   ----------------------------------------
 BYTE   W22
 BYTE   TIE  Fs1  v060
 BYTE   W03
 BYTE   W04
 BYTE   W04
 BYTE   W04
 BYTE   W04
 BYTE   W04
 BYTE   W04
 BYTE   W04
 BYTE   W04
 BYTE   W03
 BYTE   W04
 BYTE   W04
 BYTE   W04
 BYTE   W04
 BYTE   W04
 BYTE   W04
 BYTE   W04
 BYTE   W04
 BYTE   W03
 BYTE   W04
//  #03 //154   ----------------------------------------
 BYTE   W04
 BYTE   W04
 BYTE   W04
 BYTE   W04
 BYTE   W03
 BYTE   W01
 BYTE   W04
 BYTE   W04
 BYTE   W04
 BYTE   W03
 BYTE   W04
 BYTE   W04
 BYTE   W04
 BYTE   W04
 BYTE   W04
 BYTE   W04
 BYTE   W04
 BYTE   W04
 BYTE   W03
 BYTE   W04
 BYTE   W04
 BYTE   W04
 BYTE   W04
 BYTE   W04
 BYTE   W04
 BYTE   W04
//  #03 //155   ----------------------------------------
 BYTE   W04
 BYTE   W03
 BYTE   W04
 BYTE   W04
 BYTE   W02
 BYTE   W02
 BYTE   W04
 BYTE   W04
 BYTE   W04
 BYTE   W04
 BYTE   W04
 BYTE   W03
 BYTE   W04
 BYTE   W04
 BYTE   W04
 BYTE   W04
 BYTE   W04
 BYTE   W04
 BYTE   W04
 BYTE   W04
 BYTE   W04
 BYTE   W03
 BYTE   W04
 BYTE   W04
 BYTE   W04
 BYTE   W04
//  #03 //156   ----------------------------------------
 BYTE   W04
 BYTE   W04
 BYTE   W04
 BYTE   W04
 BYTE   W92
//  #03 //157   ----------------------------------------
 BYTE   W03
 BYTE   EOT
 BYTE   FINE

//**************** Track 4 (Midi-Chn.3) ****************//

KiramekiRider_004:
//  #04 //000   ----------------------------------------
 BYTE   KEYSH   KiramekiRider_key+0
 BYTE   VOICE   48
 BYTE   MODT 0
 BYTE   LFOS 44
 BYTE   VOL   88*KiramekiRider_mvl/mxv
 BYTE   PAN   c_v+0
 BYTE   W24
 BYTE   N68  Fs3  v016
 BYTE   W72
//  #04 //001   ----------------------------------------
 BYTE   N23  Gs3
 BYTE   W24
 BYTE   N92  Fs3
 BYTE   W96
//  #04 //002   ----------------------------------------
 BYTE   N44  Gs3
 BYTE   W48
 BYTE   N23  Cs3
 BYTE   W24
 BYTE   Ds3
 BYTE   W24
//  #04 //003   ----------------------------------------
 BYTE   N92  Fn3
 BYTE   W96
//  #04 //004   ----------------------------------------
 BYTE   N44
 BYTE   W48
 BYTE   N23  Cs3
 BYTE   W24
 BYTE   Ds3
 BYTE   W24
//  #04 //005   ----------------------------------------
 BYTE   N68  Fn3
 BYTE   W72
 BYTE   N23  Gs3
 BYTE   W24
//  #04 //006   ----------------------------------------
 BYTE   N92  Fs3
 BYTE   W96
//  #04 //007   ----------------------------------------
 BYTE   N32  Ds3
 BYTE   W36
 BYTE   Fn3
 BYTE   W36
 BYTE   TIE  Cs3
 BYTE   W24
//  #04 //008   ----------------------------------------
 BYTE   W03
 BYTE   W04
 BYTE   W04
 BYTE   W04
 BYTE   W04
 BYTE   W04
 BYTE   W03
 BYTE   W04
 BYTE   W04
 BYTE   W04
 BYTE   W04
 BYTE   W04
 BYTE   W03
 BYTE   W04
 BYTE   W04
 BYTE   W04
 BYTE   W04
 BYTE   W04
 BYTE   W04
 BYTE   W03
 BYTE   W04
 BYTE   W04
 BYTE   W04
 BYTE   W04
 BYTE   W04
//  #04 //009   ----------------------------------------
 BYTE   W03
 BYTE   W04
 BYTE   W04
 BYTE   W04
 BYTE   W04
 BYTE   W04
 BYTE   W03
 BYTE   W04
 BYTE   W64
 BYTE   W01
 BYTE   EOT
 BYTE   W01
//  #04 //010   ----------------------------------------
 BYTE   W96
//  #04 //011   ----------------------------------------
Label_0183D054:
 BYTE   N92  Gs3  v044
 BYTE   W96
 BYTE   PEND 
//  #04 //012   ----------------------------------------
Label_0183D059:
 BYTE   N44  Fs3  v044
 BYTE   W48
 BYTE   N23  Fn3
 BYTE   W24
 BYTE   Cs3
 BYTE   W24
 BYTE   PEND 
//  #04 //013   ----------------------------------------
 BYTE   PATT
  POIN2 Label_0183D054
//  #04 //014   ----------------------------------------
 BYTE   PATT
  POIN2 Label_0183D059
//  #04 //015   ----------------------------------------
Label_0183D06D:
 BYTE   N80  Gs3  v044
 BYTE   W48
 BYTE   W36
 BYTE   N23
 BYTE   W12
 BYTE   PEND 
//  #04 //016   ----------------------------------------
Label_0183D075:
 BYTE   W12
 BYTE   N23  As3  v044
 BYTE   W24
 BYTE   Cs4
 BYTE   W24
 BYTE   N32  Ds4
 BYTE   W36
 BYTE   PEND 
//  #04 //017   ----------------------------------------
Label_0183D080:
 BYTE   N32  Fn4  v044
 BYTE   W36
 BYTE   En4
 BYTE   W36
 BYTE   Ds4
 BYTE   W24
 BYTE   PEND 
//  #04 //018   ----------------------------------------
 BYTE   W12
 BYTE   Dn4
 BYTE   W36
 BYTE   N44  Cs4
 BYTE   W48
//  #04 //019   ----------------------------------------
 BYTE   W08
Label_0183D090:
 BYTE   W16
 BYTE   N23  Ds4  v060
 BYTE   W24
 BYTE   N23
 BYTE   W24
 BYTE   N05
 BYTE   W12
 BYTE   N23
 BYTE   W12
//  #04 //020   ----------------------------------------
Label_0183D09B:
 BYTE   W12
 BYTE   N11  Cs4  v060
 BYTE   W24
 BYTE   N32
 BYTE   W48
 BYTE   N11
 BYTE   W12
 BYTE   PEND 
//  #04 //021   ----------------------------------------
 BYTE   N23  Ds4
 BYTE   W24
 BYTE   N11  Cs4
 BYTE   W12
 BYTE   N23  Ds4
 BYTE   W24
 BYTE   N11  Cs4
 BYTE   W12
 BYTE   N92  Fn4
 BYTE   W24
//  #04 //022   ----------------------------------------
 BYTE   W96
//  #04 //023   ----------------------------------------
 BYTE   W24
 BYTE   N23  Gs4
 BYTE   W24
 BYTE   N23
 BYTE   W24
 BYTE   N05
 BYTE   W12
 BYTE   N23
 BYTE   W12
//  #04 //024   ----------------------------------------
 BYTE   PATT
  POIN2 Label_0183D09B
//  #04 //025   ----------------------------------------
 BYTE   N23  Ds4  v060
 BYTE   W24
 BYTE   N11  Fn4
 BYTE   W12
 BYTE   N23  Ds4
 BYTE   W24
 BYTE   N11  Cs4
 BYTE   W12
 BYTE   N92
 BYTE   W24
//  #04 //026   ----------------------------------------
 BYTE   W96
//  #04 //027   ----------------------------------------
 BYTE   W96
//  #04 //028   ----------------------------------------
 BYTE   W96
//  #04 //029   ----------------------------------------
 BYTE   W96
//  #04 //030   ----------------------------------------
 BYTE   W96
//  #04 //031   ----------------------------------------
 BYTE   W96
//  #04 //032   ----------------------------------------
 BYTE   W96
//  #04 //033   ----------------------------------------
 BYTE   W96
//  #04 //034   ----------------------------------------
 BYTE   W48
 BYTE   N23
 BYTE   W24
 BYTE   Ds4
 BYTE   W24
//  #04 //035   ----------------------------------------
 BYTE   Fn4
 BYTE   W24
 BYTE   N11  Fs4
 BYTE   W12
 BYTE   N23  Fn4
 BYTE   W24
 BYTE   Fs4
 BYTE   W24
 BYTE   Fn4
 BYTE   W12
//  #04 //036   ----------------------------------------
 BYTE   W12
 BYTE   N11  Cs4
 BYTE   W12
 BYTE   N32
 BYTE   W48
 BYTE   N23
 BYTE   W24
//  #04 //037   ----------------------------------------
 BYTE   Gs4
 BYTE   W24
 BYTE   N11  Fs4
 BYTE   W12
 BYTE   N23  Fn4
 BYTE   W24
 BYTE   Fs4
 BYTE   W24
 BYTE   Fn4
 BYTE   W12
//  #04 //038   ----------------------------------------
 BYTE   W12
 BYTE   N11  Dn4
 BYTE   W12
 BYTE   N44
 BYTE   W60
 BYTE   N23  Ds4
 BYTE   W12
//  #04 //039   ----------------------------------------
 BYTE   W12
 BYTE   N05
 BYTE   W12
 BYTE   N05
 BYTE   W72
//  #04 //040   ----------------------------------------
 BYTE   W84
 BYTE   N23  Fn4
 BYTE   W12
//  #04 //041   ----------------------------------------
 BYTE   W12
 BYTE   N05
 BYTE   W12
 BYTE   N05
 BYTE   W60
 BYTE   N23
 BYTE   W12
//  #04 //042   ----------------------------------------
 BYTE   W12
 BYTE   Fs4
 BYTE   W24
 BYTE   N44  Gs4
 BYTE   W60
//  #04 //043   ----------------------------------------
 BYTE   W24
 BYTE   N23  As3
 BYTE   W24
 BYTE   Cs4
 BYTE   W24
 BYTE   Ds4
 BYTE   W24
//  #04 //044   ----------------------------------------
 BYTE   Fn4
 BYTE   W24
 BYTE   As4
 BYTE   W24
 BYTE   Fn4
 BYTE   W24
 BYTE   Cs4
 BYTE   W24
//  #04 //045   ----------------------------------------
 BYTE   As4
 BYTE   W24
 BYTE   N11  Gs4
 BYTE   W12
 BYTE   TIE
 BYTE   W12
 BYTE   W48
//  #04 //046   ----------------------------------------
 BYTE   W68
 BYTE   W03
 BYTE   EOT
 BYTE   W24
 BYTE   W01
//  #04 //047   ----------------------------------------
 BYTE   N11  Bn3
 BYTE   W12
 BYTE   N11
 BYTE   W24
 BYTE   N11
 BYTE   W24
 BYTE   N11
 BYTE   W24
 BYTE   N23
 BYTE   W12
//  #04 //048   ----------------------------------------
 BYTE   W03
 BYTE   W03
 BYTE   W03
 BYTE   W03
 BYTE   W12
 BYTE   N44  Cs4  v072
 BYTE   W03
 BYTE   W03
 BYTE   W03
 BYTE   W03
 BYTE   W03
 BYTE   W03
 BYTE   W03
 BYTE   W03
 BYTE   W03
 BYTE   W03
 BYTE   W03
 BYTE   W03
 BYTE   W03
 BYTE   W03
 BYTE   W03
 BYTE   W03
 BYTE   N11  Fn3  v092
 BYTE   W03
 BYTE   W03
 BYTE   W03
 BYTE   W03
 BYTE   Fs3  v100
 BYTE   W03
 BYTE   W03
 BYTE   W03
 BYTE   W03
//  #04 //049   ----------------------------------------
Label_0183D16C:
 BYTE   N23  Gs3  v104
 BYTE   W24
 BYTE   N11  Fn3
 BYTE   W12
 BYTE   Fs3
 BYTE   W12
 BYTE   N23  Gs3
 BYTE   W24
 BYTE   N11  Fn3
 BYTE   W12
 BYTE   Fs3
 BYTE   W12
 BYTE   PEND 
//  #04 //050   ----------------------------------------
Label_0183D17E:
 BYTE   N23  Gs3  v104
 BYTE   W24
 BYTE   Cs4
 BYTE   W24
 BYTE   Cn4
 BYTE   W24
 BYTE   As3
 BYTE   W24
 BYTE   PEND 
//  #04 //051   ----------------------------------------
Label_0183D189:
 BYTE   N23  Gs3  v104
 BYTE   W24
 BYTE   N11  Cs3
 BYTE   W12
 BYTE   N23
 BYTE   W24
 BYTE   Ds3
 BYTE   W24
 BYTE   N56  Fn3
 BYTE   W12
 BYTE   PEND 
//  #04 //052   ----------------------------------------
Label_0183D198:
 BYTE   W72
 BYTE   N11  Cs3  v104
 BYTE   W12
 BYTE   Ds3
 BYTE   W12
 BYTE   PEND 
//  #04 //053   ----------------------------------------
Label_0183D1A0:
 BYTE   N23  Fn3  v104
 BYTE   W24
 BYTE   N11  Cs3
 BYTE   W12
 BYTE   Ds3
 BYTE   W12
 BYTE   N23  Fn3
 BYTE   W24
 BYTE   N11  Cs3
 BYTE   W12
 BYTE   Ds3
 BYTE   W12
 BYTE   PEND 
//  #04 //054   ----------------------------------------
Label_0183D1B2:
 BYTE   N23  Fn3  v104
 BYTE   W24
 BYTE   N11  Fs3
 BYTE   W12
 BYTE   N23  Fn3
 BYTE   W24
 BYTE   N11  Cs3
 BYTE   W12
 BYTE   As3
 BYTE   W12
 BYTE   TIE  Gs3
 BYTE   W12
 BYTE   PEND 
//  #04 //055   ----------------------------------------
Label_0183D1C5:
 BYTE   W92
 BYTE   W03
 BYTE   PEND 
 BYTE   EOT
 BYTE   Gs3
 BYTE   W01
//  #04 //056   ----------------------------------------
Label_0183D1CB:
 BYTE   W72
 BYTE   N11  Fn3  v104
 BYTE   W12
 BYTE   Fs3
 BYTE   W12
 BYTE   PEND 
//  #04 //057   ----------------------------------------
 BYTE   PATT
  POIN2 Label_0183D16C
//  #04 //058   ----------------------------------------
 BYTE   PATT
  POIN2 Label_0183D17E
//  #04 //059   ----------------------------------------
Label_0183D1DD:
 BYTE   N44  An3  v104
 BYTE   W48
 BYTE   N32  Cn4
 BYTE   W36
 BYTE   TIE  Cs4
 BYTE   W12
 BYTE   PEND 
//  #04 //060   ----------------------------------------
 BYTE   PATT
  POIN2 Label_0183D1C5
//  #04 //061   ----------------------------------------
 BYTE   EOT
 BYTE   Cs4
 BYTE   W01
Label_0183D1F0:
 BYTE   W60
 BYTE   N11  As2  v104
 BYTE   W12
 BYTE   Cs3
 BYTE   W12
 BYTE   As2
 BYTE   W12
 BYTE   PEND 
//  #04 //062   ----------------------------------------
Label_0183D1FA:
 BYTE   N23  Cs3  v104
 BYTE   W24
 BYTE   N11  Ds3
 BYTE   W12
 BYTE   N23  Cs3
 BYTE   W24
 BYTE   Ds3
 BYTE   W24
 BYTE   Fn3
 BYTE   W12
 BYTE   PEND 
//  #04 //063   ----------------------------------------
Label_0183D209:
 BYTE   W12
 BYTE   N11  Fs3  v104
 BYTE   W12
 BYTE   Fn3
 BYTE   W12
 BYTE   N23  Ds3
 BYTE   W24
 BYTE   Cs3
 BYTE   W24
 BYTE   As3
 BYTE   W12
 BYTE   PEND 
//  #04 //064   ----------------------------------------
Label_0183D218:
 BYTE   W12
 BYTE   N11  Gs3  v104
 BYTE   W12
 BYTE   Fn3
 BYTE   W12
 BYTE   N23  Gs3
 BYTE   W24
 BYTE   As3
 BYTE   W24
 BYTE   N56  Cs3
 BYTE   W12
 BYTE   PEND 
//  #04 //065   ----------------------------------------
Label_0183D228:
 BYTE   W60
 BYTE   N11  Fn3  v104
 BYTE   W12
 BYTE   Fs3
 BYTE   W12
 BYTE   Gs3
 BYTE   W12
 BYTE   PEND 
//  #04 //066   ----------------------------------------
Label_0183D232:
 BYTE   N23  Gs3  v104
 BYTE   W24
 BYTE   N11  Fn3
 BYTE   W12
 BYTE   N23  Gs3
 BYTE   W24
 BYTE   Ds4
 BYTE   W24
 BYTE   N56  Cs4
 BYTE   W12
 BYTE   PEND 
//  #04 //067   ----------------------------------------
Label_0183D242:
 BYTE   W72
 BYTE   N11  Cs3  v104
 BYTE   W12
 BYTE   N11
 BYTE   W12
 BYTE   PEND 
//  #04 //068   ----------------------------------------
Label_0183D24A:
 BYTE   N11  Fs3  v104
 BYTE   W12
 BYTE   Fn3
 BYTE   W12
 BYTE   Cs3
 BYTE   W12
 BYTE   N23  Ds3
 BYTE   W24
 BYTE   N11  Fn3
 BYTE   W12
 BYTE   N92  Cs3
 BYTE   W24
 BYTE   PEND 
//  #04 //069   ----------------------------------------
 BYTE   W96
//  #04 //070   ----------------------------------------
Label_0183D25D:
 BYTE   W24
 BYTE   N23  An3  v080
 BYTE   W24
 BYTE   N32
 BYTE   W36
 BYTE   N23
 BYTE   W12
 BYTE   PEND 
//  #04 //071   ----------------------------------------
 BYTE   W12
 BYTE   Gs3
 BYTE   W24
 BYTE   An3
 BYTE   W24
 BYTE   N32  Bn3
 BYTE   W36
//  #04 //072   ----------------------------------------
 BYTE   PATT
  POIN2 Label_0183D25D
//  #04 //073   ----------------------------------------
 BYTE   W12
 BYTE   N23  Gs3  v080
 BYTE   W24
 BYTE   An3
 BYTE   W24
 BYTE   N32  En3
 BYTE   W36
//  #04 //074   ----------------------------------------
 BYTE   W96
//  #04 //075   ----------------------------------------
 BYTE   W96
//  #04 //076   ----------------------------------------
 BYTE   W96
//  #04 //077   ----------------------------------------
 BYTE   W96
//  #04 //078   ----------------------------------------
 BYTE   W36
 BYTE   N23
 BYTE   W24
 BYTE   N11  Dn3
 BYTE   W12
 BYTE   Cs3
 BYTE   W12
 BYTE   Dn3
 BYTE   W12
//  #04 //079   ----------------------------------------
 BYTE   N23  En3
 BYTE   W24
 BYTE   N11  An3
 BYTE   W12
 BYTE   N23  Gs3
 BYTE   W24
 BYTE   N32  An3
 BYTE   W36
//  #04 //080   ----------------------------------------
 BYTE   N23  Bn3
 BYTE   W24
 BYTE   N11  An3
 BYTE   W12
 BYTE   N23  Gs3
 BYTE   W24
 BYTE   An3
 BYTE   W24
 BYTE   N56  En3
 BYTE   W12
//  #04 //081   ----------------------------------------
 BYTE   W60
 BYTE   N11
 BYTE   W12
 BYTE   N23
 BYTE   W24
//  #04 //082   ----------------------------------------
 BYTE   N23
 BYTE   W24
 BYTE   N11  Cs3
 BYTE   W12
 BYTE   N23  En3
 BYTE   W24
 BYTE   An3
 BYTE   W24
 BYTE   N32
 BYTE   W12
//  #04 //083   ----------------------------------------
 BYTE   W24
 BYTE   N23  Fs3
 BYTE   W24
 BYTE   Gs3
 BYTE   W24
 BYTE   An3
 BYTE   W24
//  #04 //084   ----------------------------------------
 BYTE   Cs4
 BYTE   W24
 BYTE   N11  Bn3
 BYTE   W12
 BYTE   TIE
 BYTE   W12
 BYTE   W48
//  #04 //085   ----------------------------------------
 BYTE   W48
 BYTE   W11
 BYTE   EOT
 BYTE   W01
 BYTE   N11  Fs3
 BYTE   W12
 BYTE   Cs4
 BYTE   W12
 BYTE   TIE  Bn3
 BYTE   W12
//  #04 //086   ----------------------------------------
 BYTE   W96
//  #04 //087   ----------------------------------------
 BYTE   W92
 BYTE   W03
 BYTE   EOT
 BYTE   W01
//  #04 //088   ----------------------------------------
 BYTE   W96
//  #04 //089   ----------------------------------------
 BYTE   W96
//  #04 //090   ----------------------------------------
 BYTE   W96
//  #04 //091   ----------------------------------------
 BYTE   W96
//  #04 //092   ----------------------------------------
 BYTE   W96
//  #04 //093   ----------------------------------------
 BYTE   W96
//  #04 //094   ----------------------------------------
 BYTE   W96
//  #04 //095   ----------------------------------------
 BYTE   W96
//  #04 //096   ----------------------------------------
 BYTE   W96
//  #04 //097   ----------------------------------------
 BYTE   W96
//  #04 //098   ----------------------------------------
 BYTE   W96
//  #04 //099   ----------------------------------------
 BYTE   W96
//  #04 //100   ----------------------------------------
 BYTE   W96
//  #04 //101   ----------------------------------------
 BYTE   W96
//  #04 //102   ----------------------------------------
 BYTE   N68  En3  v016
 BYTE   W72
 BYTE   N23  Fs3
 BYTE   W24
//  #04 //103   ----------------------------------------
 BYTE   N92  En3
 BYTE   W96
//  #04 //104   ----------------------------------------
 BYTE   N44  Gs3
 BYTE   W48
 BYTE   N23  Bn2
 BYTE   W24
 BYTE   Cs3
 BYTE   W24
//  #04 //105   ----------------------------------------
 BYTE   N92  Ds3
 BYTE   W96
//  #04 //106   ----------------------------------------
 BYTE   N44
 BYTE   W48
 BYTE   N23  Bn2
 BYTE   W24
 BYTE   Cs3
 BYTE   W24
//  #04 //107   ----------------------------------------
 BYTE   N68  Ds3
 BYTE   W72
 BYTE   N23  En3
 BYTE   W24
//  #04 //108   ----------------------------------------
 BYTE   TIE  Fs3
 BYTE   W05
 BYTE   W06
 BYTE   W05
 BYTE   W06
 BYTE   W06
 BYTE   W05
 BYTE   W06
 BYTE   W06
 BYTE   W05
 BYTE   W06
 BYTE   W06
 BYTE   W05
 BYTE   W06
 BYTE   W06
 BYTE   W05
 BYTE   W06
 BYTE   W06
//  #04 //109   ----------------------------------------
 BYTE   W92
 BYTE   W03
 BYTE   EOT
 BYTE   W01
//  #04 //110   ----------------------------------------
 BYTE   W96
//  #04 //111   ----------------------------------------
 BYTE   W96
//  #04 //112   ----------------------------------------
 BYTE   W96
//  #04 //113   ----------------------------------------
 BYTE   W96
//  #04 //114   ----------------------------------------
 BYTE   W24
 BYTE   N23  Bn2  v060
 BYTE   W24
 BYTE   Cs3
 BYTE   W24
 BYTE   Ds3
 BYTE   W24
//  #04 //115   ----------------------------------------
 BYTE   En3
 BYTE   W24
 BYTE   Ds3
 BYTE   W24
 BYTE   En3
 BYTE   W24
 BYTE   Gs3
 BYTE   W24
//  #04 //116   ----------------------------------------
 BYTE   N23
 BYTE   W24
 BYTE   N11  Fs3
 BYTE   W12
 BYTE   N80
 BYTE   W12
 BYTE   W48
//  #04 //117   ----------------------------------------
 BYTE   W48
 BYTE   N23  Cs3
 BYTE   W24
 BYTE   Cs4
 BYTE   W24
//  #04 //118   ----------------------------------------
 BYTE   N92
 BYTE   W12
 BYTE   W12
 BYTE   W12
 BYTE   W12
 BYTE   W12
 BYTE   W12
 BYTE   W12
 BYTE   W12
//  #04 //119   ----------------------------------------
 BYTE   Cn4  v072
 BYTE   W12
 BYTE   W12
 BYTE   W12
 BYTE   W12
 BYTE   W12
 BYTE   W12
 BYTE   W12
 BYTE   W12
//  #04 //120   ----------------------------------------
 BYTE   N11  Bn3  v080
 BYTE   W12
 BYTE   N11
 BYTE   W24
 BYTE   N11
 BYTE   W24
 BYTE   N11
 BYTE   W24
 BYTE   N23
 BYTE   W12
//  #04 //121   ----------------------------------------
 BYTE   W06
 BYTE   W06
 BYTE   W12
 BYTE   N44  Cs4  v088
 BYTE   W06
 BYTE   W06
 BYTE   W06
 BYTE   W06
 BYTE   W06
 BYTE   W06
 BYTE   W06
 BYTE   W06
 BYTE   N11  Fn3  v100
 BYTE   W06
 BYTE   W06
 BYTE   Fs3
 BYTE   W06
 BYTE   W06
//  #04 //122   ----------------------------------------
 BYTE   PATT
  POIN2 Label_0183D16C
//  #04 //123   ----------------------------------------
 BYTE   PATT
  POIN2 Label_0183D17E
//  #04 //124   ----------------------------------------
 BYTE   PATT
  POIN2 Label_0183D189
//  #04 //125   ----------------------------------------
 BYTE   PATT
  POIN2 Label_0183D198
//  #04 //126   ----------------------------------------
 BYTE   PATT
  POIN2 Label_0183D1A0
//  #04 //127   ----------------------------------------
 BYTE   PATT
  POIN2 Label_0183D1B2
//  #04 //128   ----------------------------------------
 BYTE   PATT
  POIN2 Label_0183D1C5
//  #04 //129   ----------------------------------------
 BYTE   EOT
 BYTE   Gs3
 BYTE   W01
//  #04 //130   ----------------------------------------
 BYTE   PATT
  POIN2 Label_0183D1CB
//  #04 //131   ----------------------------------------
 BYTE   PATT
  POIN2 Label_0183D16C
//  #04 //132   ----------------------------------------
 BYTE   PATT
  POIN2 Label_0183D17E
//  #04 //133   ----------------------------------------
 BYTE   PATT
  POIN2 Label_0183D1DD
//  #04 //134   ----------------------------------------
 BYTE   PATT
  POIN2 Label_0183D1C5
//  #04 //135   ----------------------------------------
 BYTE   EOT
 BYTE   Cs4
 BYTE   W01
//  #04 //136   ----------------------------------------
 BYTE   PATT
  POIN2 Label_0183D1F0
//  #04 //137   ----------------------------------------
 BYTE   PATT
  POIN2 Label_0183D1FA
//  #04 //138   ----------------------------------------
 BYTE   PATT
  POIN2 Label_0183D209
//  #04 //139   ----------------------------------------
 BYTE   PATT
  POIN2 Label_0183D218
//  #04 //140   ----------------------------------------
 BYTE   PATT
  POIN2 Label_0183D228
//  #04 //141   ----------------------------------------
 BYTE   PATT
  POIN2 Label_0183D232
//  #04 //142   ----------------------------------------
 BYTE   PATT
  POIN2 Label_0183D242
//  #04 //143   ----------------------------------------
 BYTE   PATT
  POIN2 Label_0183D24A
//  #04 //144   ----------------------------------------
 BYTE   W96
//  #04 //145   ----------------------------------------
 BYTE   W96
//  #04 //146   ----------------------------------------
 BYTE   W96
//  #04 //147   ----------------------------------------
 BYTE   PATT
  POIN2 Label_0183D054
//  #04 //148   ----------------------------------------
 BYTE   PATT
  POIN2 Label_0183D059
//  #04 //149   ----------------------------------------
 BYTE   PATT
  POIN2 Label_0183D054
//  #04 //150   ----------------------------------------
 BYTE   PATT
  POIN2 Label_0183D059
//  #04 //151   ----------------------------------------
 BYTE   PATT
  POIN2 Label_0183D06D
//  #04 //152   ----------------------------------------
 BYTE   PATT
  POIN2 Label_0183D075
//  #04 //153   ----------------------------------------
 BYTE   PATT
  POIN2 Label_0183D080
//  #04 //154   ----------------------------------------
 BYTE   W12
 BYTE   N32  Dn4  v044
 BYTE   W36
 BYTE   N44  Cs4
 BYTE   W24
 BYTE   W02
 BYTE   GoTo
  POIN2 Label_0183D090
//  #04 //155   ----------------------------------------
 BYTE   W22
 BYTE   TIE  Fs3  v060
 BYTE   W03
 BYTE   W04
 BYTE   W04
 BYTE   W04
 BYTE   W04
 BYTE   W04
 BYTE   W04
 BYTE   W04
 BYTE   W04
 BYTE   W03
 BYTE   W04
 BYTE   W04
 BYTE   W04
 BYTE   W04
 BYTE   W04
 BYTE   W04
 BYTE   W04
 BYTE   W04
 BYTE   W03
 BYTE   W04
//  #04 //156   ----------------------------------------
 BYTE   W04
 BYTE   W04
 BYTE   W04
 BYTE   W04
 BYTE   W03
 BYTE   W01
 BYTE   W04
 BYTE   W04
 BYTE   W04
 BYTE   W03
 BYTE   W04
 BYTE   W04
 BYTE   W04
 BYTE   W04
 BYTE   W04
 BYTE   W04
 BYTE   W04
 BYTE   W04
 BYTE   W03
 BYTE   W04
 BYTE   W04
 BYTE   W04
 BYTE   W04
 BYTE   W04
 BYTE   W04
 BYTE   W04
//  #04 //157   ----------------------------------------
 BYTE   W04
 BYTE   W03
 BYTE   W04
 BYTE   W04
 BYTE   W02
 BYTE   W02
 BYTE   W04
 BYTE   W04
 BYTE   W04
 BYTE   W04
 BYTE   W04
 BYTE   W03
 BYTE   W04
 BYTE   W04
 BYTE   W04
 BYTE   W04
 BYTE   W04
 BYTE   W04
 BYTE   W04
 BYTE   W04
 BYTE   W04
 BYTE   W03
 BYTE   W04
 BYTE   W04
 BYTE   W04
 BYTE   W04
//  #04 //158   ----------------------------------------
 BYTE   W04
 BYTE   W04
 BYTE   W04
 BYTE   W04
 BYTE   W92
//  #04 //159   ----------------------------------------
 BYTE   W03
 BYTE   EOT
 BYTE   FINE

//**************** Track 5 (Midi-Chn.4) ****************//

KiramekiRider_005:
//  #05 //000   ----------------------------------------
 BYTE   KEYSH   KiramekiRider_key+0
 BYTE   VOICE   121
 BYTE   MODT 0
 BYTE   LFOS 44
 BYTE   VOL   88*KiramekiRider_mvl/mxv
 BYTE   PAN   c_v+0
 BYTE   W24
 BYTE   W96
//  #05 //001   ----------------------------------------
 BYTE   W96
//  #05 //002   ----------------------------------------
 BYTE   W96
//  #05 //003   ----------------------------------------
 BYTE   W96
//  #05 //004   ----------------------------------------
 BYTE   W96
//  #05 //005   ----------------------------------------
 BYTE   W96
//  #05 //006   ----------------------------------------
 BYTE   W96
//  #05 //007   ----------------------------------------
 BYTE   W96
//  #05 //008   ----------------------------------------
 BYTE   W96
//  #05 //009   ----------------------------------------
 BYTE   W96
//  #05 //010   ----------------------------------------
Label_0183D483:
 BYTE   N23  Fs1  v044
 BYTE   W24
 BYTE   N23
 BYTE   W24
 BYTE   N23
 BYTE   W24
 BYTE   N23
 BYTE   W24
 BYTE   PEND 
//  #05 //011   ----------------------------------------
Label_0183D48E:
 BYTE   N23  An1  v080
 BYTE   N92  An2
 BYTE   W24
 BYTE   N11  En1
 BYTE   W12
 BYTE   N23  An1
 BYTE   W24
 BYTE   N11
 BYTE   W12
 BYTE   N23  En1
 BYTE   W24
 BYTE   PEND 
//  #05 //012   ----------------------------------------
Label_0183D4A0:
 BYTE   N23  An1  v080
 BYTE   W24
 BYTE   N11  En1
 BYTE   W12
 BYTE   N23  An1
 BYTE   W24
 BYTE   N11
 BYTE   W12
 BYTE   En1
 BYTE   W12
 BYTE   N11
 BYTE   W12
 BYTE   PEND 
//  #05 //013   ----------------------------------------
Label_0183D4B1:
 BYTE   N23  An1  v080
 BYTE   W24
 BYTE   N11  En1
 BYTE   W12
 BYTE   N23  An1
 BYTE   W24
 BYTE   N11
 BYTE   W12
 BYTE   N23  En1
 BYTE   W24
 BYTE   PEND 
//  #05 //014   ----------------------------------------
Label_0183D4C1:
 BYTE   N23  An1  v080
 BYTE   W24
 BYTE   N11  En1
 BYTE   W12
 BYTE   N23  An1
 BYTE   W24
 BYTE   N11
 BYTE   W12
 BYTE   En1
 BYTE   W12
 BYTE   N05
 BYTE   W06
 BYTE   N05
 BYTE   W06
 BYTE   PEND 
//  #05 //015   ----------------------------------------
 BYTE   PATT
  POIN2 Label_0183D48E
//  #05 //016   ----------------------------------------
 BYTE   PATT
  POIN2 Label_0183D4B1
//  #05 //017   ----------------------------------------
Label_0183D4DE:
 BYTE   N23  An1  v080
 BYTE   W36
 BYTE   N23
 BYTE   W36
 BYTE   N23
 BYTE   W24
 BYTE   PEND 
//  #05 //018   ----------------------------------------
 BYTE   W12
 BYTE   N23
 BYTE   W84
//  #05 //019   ----------------------------------------
 BYTE   N23
 BYTE   N92  An2
 BYTE   W08
Label_0183D4EE:
 BYTE   W16
 BYTE   N23  En1  v080
 BYTE   W24
 BYTE   N11  An1
 BYTE   W12
 BYTE   N11
 BYTE   W12
 BYTE   N23  En1
 BYTE   W24
//  #05 //020   ----------------------------------------
 BYTE   PATT
  POIN2 Label_0183D4B1
//  #05 //021   ----------------------------------------
Label_0183D500:
 BYTE   N23  An1  v080
 BYTE   W24
 BYTE   En1
 BYTE   W24
 BYTE   N11  An1
 BYTE   W12
 BYTE   N11
 BYTE   W12
 BYTE   N23  En1
 BYTE   W24
 BYTE   PEND 
//  #05 //022   ----------------------------------------
 BYTE   PATT
  POIN2 Label_0183D4A0
//  #05 //023   ----------------------------------------
Label_0183D514:
 BYTE   N23  An1  v080
 BYTE   N92  An2
 BYTE   W24
 BYTE   N23  En1
 BYTE   W24
 BYTE   N11  An1
 BYTE   W12
 BYTE   N11
 BYTE   W12
 BYTE   N23  En1
 BYTE   W24
 BYTE   PEND 
//  #05 //024   ----------------------------------------
 BYTE   PATT
  POIN2 Label_0183D4B1
//  #05 //025   ----------------------------------------
 BYTE   PATT
  POIN2 Label_0183D500
//  #05 //026   ----------------------------------------
 BYTE   PATT
  POIN2 Label_0183D4A0
//  #05 //027   ----------------------------------------
 BYTE   PATT
  POIN2 Label_0183D514
//  #05 //028   ----------------------------------------
 BYTE   PATT
  POIN2 Label_0183D4B1
//  #05 //029   ----------------------------------------
 BYTE   PATT
  POIN2 Label_0183D500
//  #05 //030   ----------------------------------------
 BYTE   PATT
  POIN2 Label_0183D4A0
//  #05 //031   ----------------------------------------
 BYTE   PATT
  POIN2 Label_0183D514
//  #05 //032   ----------------------------------------
 BYTE   PATT
  POIN2 Label_0183D4B1
//  #05 //033   ----------------------------------------
 BYTE   PATT
  POIN2 Label_0183D500
//  #05 //034   ----------------------------------------
 BYTE   PATT
  POIN2 Label_0183D4A0
//  #05 //035   ----------------------------------------
Label_0183D55D:
 BYTE   N23  Gs1  v044
 BYTE   N32  An1  v080
 BYTE   W36
 BYTE   N11
 BYTE   W12
 BYTE   N23  En1
 BYTE   W24
 BYTE   An1
 BYTE   W24
 BYTE   PEND 
//  #05 //036   ----------------------------------------
 BYTE   Gs1  v044
 BYTE   W24
 BYTE   An1  v080
 BYTE   W24
 BYTE   En1
 BYTE   W24
 BYTE   N11
 BYTE   W12
 BYTE   N11
 BYTE   W12
//  #05 //037   ----------------------------------------
 BYTE   PATT
  POIN2 Label_0183D55D
//  #05 //038   ----------------------------------------
 BYTE   N23  Gs1  v044
 BYTE   W24
 BYTE   An1  v080
 BYTE   W24
 BYTE   En1
 BYTE   W24
 BYTE   N11
 BYTE   W12
 BYTE   Cn1  v127
 BYTE   N23  En1  v080
 BYTE   W12
//  #05 //039   ----------------------------------------
 BYTE   W12
 BYTE   N11
 BYTE   W12
 BYTE   Cn1  v127
 BYTE   N11  En1  v080
 BYTE   W72
//  #05 //040   ----------------------------------------
 BYTE   W84
 BYTE   Cn1  v127
 BYTE   N23  En1  v080
 BYTE   W12
//  #05 //041   ----------------------------------------
 BYTE   W12
 BYTE   N11
 BYTE   W12
 BYTE   Cn1  v127
 BYTE   N11  En1  v080
 BYTE   W60
 BYTE   N23
 BYTE   W12
//  #05 //042   ----------------------------------------
 BYTE   W36
 BYTE   N11
 BYTE   W36
 BYTE   Cs1
 BYTE   W12
 BYTE   N11
 BYTE   W12
//  #05 //043   ----------------------------------------
Label_0183D5B0:
 BYTE   N23  An1  v080
 BYTE   N92  Cs2
 BYTE   W24
 BYTE   N23  En1
 BYTE   W24
 BYTE   N11  An1
 BYTE   W12
 BYTE   N11
 BYTE   W12
 BYTE   N23  En1
 BYTE   W24
 BYTE   PEND 
//  #05 //044   ----------------------------------------
 BYTE   PATT
  POIN2 Label_0183D500
//  #05 //045   ----------------------------------------
 BYTE   PATT
  POIN2 Label_0183D5B0
//  #05 //046   ----------------------------------------
 BYTE   N11  An1  v080
 BYTE   W12
 BYTE   N11
 BYTE   W12
 BYTE   En1
 BYTE   W12
 BYTE   An1
 BYTE   W12
 BYTE   N11
 BYTE   W12
 BYTE   N11
 BYTE   W12
 BYTE   En1
 BYTE   W12
 BYTE   An1
 BYTE   W12
//  #05 //047   ----------------------------------------
Label_0183D5DE:
 BYTE   N11  Dn1  v080
 BYTE   W12
 BYTE   N11
 BYTE   W24
 BYTE   N11
 BYTE   W24
 BYTE   N11
 BYTE   W24
 BYTE   N11
 BYTE   W12
 BYTE   PEND 
//  #05 //048   ----------------------------------------
Label_0183D5EB:
 BYTE   W24
 BYTE   N11  An2  v127
 BYTE   W48
 BYTE   Dn1  v080
 BYTE   W12
 BYTE   N11
 BYTE   W12
 BYTE   PEND 
//  #05 //049   ----------------------------------------
Label_0183D5F6:
 BYTE   N23  An1  v080
 BYTE   N92  Cs2
 BYTE   W24
 BYTE   N11  En1
 BYTE   W12
 BYTE   N23  An1
 BYTE   W24
 BYTE   N11
 BYTE   W12
 BYTE   En1
 BYTE   W12
 BYTE   An1
 BYTE   W12
 BYTE   PEND 
//  #05 //050   ----------------------------------------
Label_0183D609:
 BYTE   N23  An1  v080
 BYTE   W24
 BYTE   N11  En1
 BYTE   W12
 BYTE   An1
 BYTE   W12
 BYTE   N11
 BYTE   W12
 BYTE   Bn1
 BYTE   W12
 BYTE   N23  En1
 BYTE   W24
 BYTE   PEND 
//  #05 //051   ----------------------------------------
 BYTE   An1
 BYTE   W24
 BYTE   N11  En1
 BYTE   W12
 BYTE   N23  An1
 BYTE   W24
 BYTE   N11
 BYTE   W12
 BYTE   En1
 BYTE   W12
 BYTE   An1
 BYTE   W12
//  #05 //052   ----------------------------------------
 BYTE   PATT
  POIN2 Label_0183D609
//  #05 //053   ----------------------------------------
 BYTE   PATT
  POIN2 Label_0183D5F6
//  #05 //054   ----------------------------------------
 BYTE   PATT
  POIN2 Label_0183D609
//  #05 //055   ----------------------------------------
 BYTE   N23  An1  v080
 BYTE   W24
 BYTE   N11  En1
 BYTE   W12
 BYTE   An1
 BYTE   W12
 BYTE   Bn1
 BYTE   W12
 BYTE   An1
 BYTE   W12
 BYTE   N23  En1
 BYTE   W24
//  #05 //056   ----------------------------------------
 BYTE   N11  An1
 BYTE   W12
 BYTE   N11
 BYTE   W12
 BYTE   En1
 BYTE   W12
 BYTE   An1
 BYTE   W12
 BYTE   Bn1
 BYTE   W12
 BYTE   An1
 BYTE   W12
 BYTE   En1
 BYTE   W12
 BYTE   An1
 BYTE   W12
//  #05 //057   ----------------------------------------
 BYTE   PATT
  POIN2 Label_0183D5F6
//  #05 //058   ----------------------------------------
 BYTE   PATT
  POIN2 Label_0183D609
//  #05 //059   ----------------------------------------
 BYTE   N23  An1  v080
 BYTE   N11  Cs2
 BYTE   W24
 BYTE   En1
 BYTE   W12
 BYTE   N11
 BYTE   W12
 BYTE   N23  An1
 BYTE   W24
 BYTE   N11  En1
 BYTE   W12
 BYTE   N23  An1
 BYTE   N11  Cs2
 BYTE   W12
//  #05 //060   ----------------------------------------
 BYTE   W12
 BYTE   An1
 BYTE   W12
 BYTE   En1
 BYTE   W12
 BYTE   An1
 BYTE   W12
 BYTE   Bn1
 BYTE   W12
 BYTE   An1
 BYTE   W12
 BYTE   En1
 BYTE   W12
 BYTE   N11
 BYTE   W12
//  #05 //061   ----------------------------------------
 BYTE   N23  An1
 BYTE   N92  An2
 BYTE   W36
 BYTE   N11  An1
 BYTE   W12
 BYTE   En1
 BYTE   W36
 BYTE   An1
 BYTE   W12
//  #05 //062   ----------------------------------------
Label_0183D692:
 BYTE   W12
 BYTE   N11  An1  v080
 BYTE   W24
 BYTE   N11
 BYTE   W12
 BYTE   En1
 BYTE   W24
 BYTE   N11
 BYTE   W24
 BYTE   PEND 
//  #05 //063   ----------------------------------------
 BYTE   N23  An1
 BYTE   W36
 BYTE   N11
 BYTE   W12
 BYTE   En1
 BYTE   W36
 BYTE   An1
 BYTE   W12
//  #05 //064   ----------------------------------------
 BYTE   PATT
  POIN2 Label_0183D692
//  #05 //065   ----------------------------------------
 BYTE   PATT
  POIN2 Label_0183D5B0
//  #05 //066   ----------------------------------------
Label_0183D6B1:
 BYTE   N23  An1  v080
 BYTE   W24
 BYTE   N11  En1
 BYTE   W12
 BYTE   An1
 BYTE   W12
 BYTE   N11
 BYTE   W12
 BYTE   N11
 BYTE   W12
 BYTE   N23  En1
 BYTE   W24
 BYTE   PEND 
//  #05 //067   ----------------------------------------
 BYTE   PATT
  POIN2 Label_0183D500
//  #05 //068   ----------------------------------------
Label_0183D6C7:
 BYTE   N23  An1  v080
 BYTE   N11  Cs2
 BYTE   W24
 BYTE   En1
 BYTE   W12
 BYTE   N23  An1
 BYTE   W24
 BYTE   N11  En1
 BYTE   W12
 BYTE   N23  An1
 BYTE   N23  Cs2
 BYTE   W24
 BYTE   PEND 
//  #05 //069   ----------------------------------------
Label_0183D6DB:
 BYTE   N23  En1  v080
 BYTE   W24
 BYTE   N11  An1
 BYTE   W12
 BYTE   N23  En1
 BYTE   W24
 BYTE   N11  An1
 BYTE   W12
 BYTE   N23  En1
 BYTE   W24
 BYTE   PEND 
//  #05 //070   ----------------------------------------
Label_0183D6EC:
 BYTE   N23  An1  v080
 BYTE   N92  Cs2
 BYTE   W24
 BYTE   N11  En1
 BYTE   W12
 BYTE   An1
 BYTE   W12
 BYTE   N11
 BYTE   W12
 BYTE   N11
 BYTE   W12
 BYTE   N23  En1
 BYTE   W24
 BYTE   PEND 
//  #05 //071   ----------------------------------------
 BYTE   PATT
  POIN2 Label_0183D6B1
//  #05 //072   ----------------------------------------
 BYTE   PATT
  POIN2 Label_0183D6B1
//  #05 //073   ----------------------------------------
Label_0183D709:
 BYTE   N23  An1  v080
 BYTE   W24
 BYTE   N11  En1
 BYTE   W12
 BYTE   An1
 BYTE   W12
 BYTE   N11
 BYTE   W12
 BYTE   N11
 BYTE   W12
 BYTE   En1
 BYTE   W12
 BYTE   N11
 BYTE   W12
 BYTE   PEND 
//  #05 //074   ----------------------------------------
 BYTE   PATT
  POIN2 Label_0183D6EC
//  #05 //075   ----------------------------------------
 BYTE   PATT
  POIN2 Label_0183D6B1
//  #05 //076   ----------------------------------------
 BYTE   PATT
  POIN2 Label_0183D6B1
//  #05 //077   ----------------------------------------
 BYTE   PATT
  POIN2 Label_0183D709
//  #05 //078   ----------------------------------------
 BYTE   PATT
  POIN2 Label_0183D6EC
//  #05 //079   ----------------------------------------
Label_0183D734:
 BYTE   N11  An1  v080
 BYTE   W12
 BYTE   N11
 BYTE   W12
 BYTE   En1
 BYTE   W12
 BYTE   An1
 BYTE   W12
 BYTE   N11
 BYTE   W12
 BYTE   N11
 BYTE   W12
 BYTE   N23  En1
 BYTE   W24
 BYTE   PEND 
//  #05 //080   ----------------------------------------
 BYTE   PATT
  POIN2 Label_0183D6EC
//  #05 //081   ----------------------------------------
 BYTE   PATT
  POIN2 Label_0183D734
//  #05 //082   ----------------------------------------
Label_0183D750:
 BYTE   N23  An1  v080
 BYTE   N92  Cs2
 BYTE   W24
 BYTE   N11  En1
 BYTE   W12
 BYTE   An1
 BYTE   W12
 BYTE   N11
 BYTE   W12
 BYTE   N11
 BYTE   W12
 BYTE   En1
 BYTE   W12
 BYTE   N11
 BYTE   W12
 BYTE   PEND 
//  #05 //083   ----------------------------------------
 BYTE   An1
 BYTE   N92  Cs2
 BYTE   W12
 BYTE   N11  An1
 BYTE   W12
 BYTE   En1
 BYTE   W12
 BYTE   An1
 BYTE   W12
 BYTE   N11
 BYTE   W12
 BYTE   N11
 BYTE   W12
 BYTE   En1
 BYTE   W12
 BYTE   N11
 BYTE   W12
//  #05 //084   ----------------------------------------
 BYTE   PATT
  POIN2 Label_0183D750
//  #05 //085   ----------------------------------------
 BYTE   N11  An1  v080
 BYTE   W12
 BYTE   N11
 BYTE   W12
 BYTE   En1
 BYTE   W12
 BYTE   An1
 BYTE   W12
 BYTE   N11
 BYTE   W12
 BYTE   N11
 BYTE   W12
 BYTE   En1
 BYTE   W12
 BYTE   N11
 BYTE   W12
//  #05 //086   ----------------------------------------
Label_0183D78E:
 BYTE   N92  Cn1  v080
 BYTE   N11  An1
 BYTE   N92  An2
 BYTE   W12
 BYTE   N11  An1
 BYTE   W12
 BYTE   En1
 BYTE   W12
 BYTE   An1
 BYTE   W12
 BYTE   N11
 BYTE   W12
 BYTE   N05  Bn1
 BYTE   W06
 BYTE   N05
 BYTE   W06
 BYTE   N11  En1
 BYTE   W12
 BYTE   An1
 BYTE   W12
 BYTE   PEND 
//  #05 //087   ----------------------------------------
Label_0183D7AA:
 BYTE   N92  Cn1  v080
 BYTE   N11  An1
 BYTE   W12
 BYTE   N11
 BYTE   W12
 BYTE   En1
 BYTE   W12
 BYTE   An1
 BYTE   W12
 BYTE   N05  Bn1
 BYTE   W06
 BYTE   N05
 BYTE   W06
 BYTE   N11  An1
 BYTE   W12
 BYTE   N11
 BYTE   W12
 BYTE   N05  En1
 BYTE   W06
 BYTE   N05
 BYTE   W06
 BYTE   PEND 
//  #05 //088   ----------------------------------------
Label_0183D7C6:
 BYTE   N92  Cn1  v080
 BYTE   N11  An1
 BYTE   N92  An2
 BYTE   W12
 BYTE   N05  An1
 BYTE   W06
 BYTE   N05
 BYTE   W06
 BYTE   N11  En1
 BYTE   W12
 BYTE   An1
 BYTE   W12
 BYTE   Bn1
 BYTE   W12
 BYTE   An1
 BYTE   W12
 BYTE   En1
 BYTE   W12
 BYTE   N05  Bn1
 BYTE   W06
 BYTE   N05
 BYTE   W06
 BYTE   PEND 
//  #05 //089   ----------------------------------------
Label_0183D7E4:
 BYTE   N92  Cn1  v080
 BYTE   N11  An1
 BYTE   W12
 BYTE   N11
 BYTE   W12
 BYTE   En1
 BYTE   W12
 BYTE   An1
 BYTE   W12
 BYTE   N11
 BYTE   W12
 BYTE   N05  Bn1
 BYTE   W06
 BYTE   N05
 BYTE   W06
 BYTE   N11  An1
 BYTE   W12
 BYTE   N05  En1
 BYTE   W06
 BYTE   N05
 BYTE   W06
 BYTE   PEND 
//  #05 //090   ----------------------------------------
 BYTE   PATT
  POIN2 Label_0183D78E
//  #05 //091   ----------------------------------------
 BYTE   PATT
  POIN2 Label_0183D7AA
//  #05 //092   ----------------------------------------
 BYTE   PATT
  POIN2 Label_0183D7C6
//  #05 //093   ----------------------------------------
 BYTE   PATT
  POIN2 Label_0183D7E4
//  #05 //094   ----------------------------------------
 BYTE   PATT
  POIN2 Label_0183D78E
//  #05 //095   ----------------------------------------
 BYTE   PATT
  POIN2 Label_0183D7AA
//  #05 //096   ----------------------------------------
 BYTE   PATT
  POIN2 Label_0183D7C6
//  #05 //097   ----------------------------------------
 BYTE   PATT
  POIN2 Label_0183D7E4
//  #05 //098   ----------------------------------------
 BYTE   PATT
  POIN2 Label_0183D78E
//  #05 //099   ----------------------------------------
 BYTE   PATT
  POIN2 Label_0183D7AA
//  #05 //100   ----------------------------------------
 BYTE   N92  Cn1  v060
 BYTE   N44  En1
 BYTE   N92  An2
 BYTE   W48
 BYTE   N44  En1
 BYTE   W48
//  #05 //101   ----------------------------------------
 BYTE   N44
 BYTE   W48
 BYTE   N44
 BYTE   W48
//  #05 //102   ----------------------------------------
 BYTE   N92  As1  v044
 BYTE   W96
//  #05 //103   ----------------------------------------
 BYTE   W96
//  #05 //104   ----------------------------------------
 BYTE   W96
//  #05 //105   ----------------------------------------
 BYTE   W96
//  #05 //106   ----------------------------------------
 BYTE   W96
//  #05 //107   ----------------------------------------
 BYTE   W96
//  #05 //108   ----------------------------------------
 BYTE   W96
//  #05 //109   ----------------------------------------
 BYTE   W96
//  #05 //110   ----------------------------------------
 BYTE   N92
 BYTE   W96
//  #05 //111   ----------------------------------------
 BYTE   W96
//  #05 //112   ----------------------------------------
 BYTE   Ds2
 BYTE   W96
//  #05 //113   ----------------------------------------
 BYTE   N44  Fs1
 BYTE   W48
 BYTE   N44
 BYTE   W48
//  #05 //114   ----------------------------------------
Label_0183D856:
 BYTE   N23  An1  v060
 BYTE   N92  Cs2
 BYTE   W24
 BYTE   N23  An1
 BYTE   W24
 BYTE   En1
 BYTE   W24
 BYTE   An1
 BYTE   W24
 BYTE   PEND 
//  #05 //115   ----------------------------------------
Label_0183D864:
 BYTE   N23  An1  v060
 BYTE   W24
 BYTE   N23
 BYTE   W24
 BYTE   En1
 BYTE   W24
 BYTE   N11  An1
 BYTE   W12
 BYTE   N11
 BYTE   W12
 BYTE   PEND 
//  #05 //116   ----------------------------------------
 BYTE   PATT
  POIN2 Label_0183D856
//  #05 //117   ----------------------------------------
 BYTE   PATT
  POIN2 Label_0183D864
//  #05 //118   ----------------------------------------
 BYTE   N23  An1  v060
 BYTE   N92  Cs2
 BYTE   W24
 BYTE   N11  An1
 BYTE   W12
 BYTE   N11
 BYTE   W12
 BYTE   N23  En1
 BYTE   W24
 BYTE   An1
 BYTE   W24
//  #05 //119   ----------------------------------------
 BYTE   N11
 BYTE   W12
 BYTE   N11
 BYTE   W12
 BYTE   En1
 BYTE   W12
 BYTE   An1
 BYTE   W12
 BYTE   N23
 BYTE   W24
 BYTE   N11  En1
 BYTE   W12
 BYTE   An1
 BYTE   W12
//  #05 //120   ----------------------------------------
 BYTE   PATT
  POIN2 Label_0183D5DE
//  #05 //121   ----------------------------------------
 BYTE   PATT
  POIN2 Label_0183D5EB
//  #05 //122   ----------------------------------------
Label_0183D8A5:
 BYTE   N23  Cs2  v080
 BYTE   W48
 BYTE   Fs1
 BYTE   W24
 BYTE   N11  En1
 BYTE   W12
 BYTE   N11
 BYTE   W12
 BYTE   PEND 
//  #05 //123   ----------------------------------------
 BYTE   PATT
  POIN2 Label_0183D8A5
//  #05 //124   ----------------------------------------
 BYTE   N23  An2  v080
 BYTE   W24
 BYTE   N11  Dn1
 BYTE   W12
 BYTE   N11
 BYTE   W12
 BYTE   N23  An2
 BYTE   W24
 BYTE   N11  Dn1
 BYTE   W12
 BYTE   N11
 BYTE   W12
//  #05 //125   ----------------------------------------
 BYTE   An1
 BYTE   N92  An2
 BYTE   W12
 BYTE   N11  An1
 BYTE   W12
 BYTE   En1
 BYTE   W12
 BYTE   An1
 BYTE   W12
 BYTE   N11
 BYTE   W12
 BYTE   N11
 BYTE   W12
 BYTE   N05  En1
 BYTE   W06
 BYTE   N05
 BYTE   W06
 BYTE   N11  An1
 BYTE   W12
//  #05 //126   ----------------------------------------
Label_0183D8DE:
 BYTE   N11  An1  v080
 BYTE   N92  Cs2
 BYTE   W12
 BYTE   N11  An1
 BYTE   W12
 BYTE   En1
 BYTE   W12
 BYTE   N05  An1
 BYTE   W06
 BYTE   N05
 BYTE   W06
 BYTE   N11
 BYTE   W12
 BYTE   Bn1
 BYTE   W12
 BYTE   En1
 BYTE   W12
 BYTE   An1
 BYTE   W12
 BYTE   PEND 
//  #05 //127   ----------------------------------------
Label_0183D8F7:
 BYTE   N11  An1  v080
 BYTE   W12
 BYTE   N11
 BYTE   W12
 BYTE   En1
 BYTE   W12
 BYTE   An1
 BYTE   W12
 BYTE   N11
 BYTE   W12
 BYTE   N05  Bn1
 BYTE   W06
 BYTE   N05
 BYTE   W06
 BYTE   N11  En1
 BYTE   W12
 BYTE   An1
 BYTE   W12
 BYTE   PEND 
//  #05 //128   ----------------------------------------
 BYTE   N11
 BYTE   W12
 BYTE   N11
 BYTE   W12
 BYTE   En1
 BYTE   W12
 BYTE   N05  An1
 BYTE   W06
 BYTE   N05
 BYTE   W06
 BYTE   N11
 BYTE   W12
 BYTE   Bn1
 BYTE   W12
 BYTE   En1
 BYTE   W12
 BYTE   An1
 BYTE   W12
//  #05 //129   ----------------------------------------
 BYTE   PATT
  POIN2 Label_0183D8F7
//  #05 //130   ----------------------------------------
 BYTE   PATT
  POIN2 Label_0183D8DE
//  #05 //131   ----------------------------------------
 BYTE   PATT
  POIN2 Label_0183D8F7
//  #05 //132   ----------------------------------------
 BYTE   N11  An1  v080
 BYTE   N23  Cs2
 BYTE   W12
 BYTE   N05  En1
 BYTE   W06
 BYTE   N05
 BYTE   W06
 BYTE   N11
 BYTE   W12
 BYTE   An1
 BYTE   W12
 BYTE   N11
 BYTE   W12
 BYTE   N05  En1
 BYTE   W06
 BYTE   N05
 BYTE   W06
 BYTE   N11
 BYTE   W12
 BYTE   An1
 BYTE   N11  Cs2
 BYTE   W12
//  #05 //133   ----------------------------------------
 BYTE   An1
 BYTE   W12
 BYTE   N05  En1
 BYTE   W06
 BYTE   N05
 BYTE   W06
 BYTE   N11
 BYTE   W12
 BYTE   An1
 BYTE   W12
 BYTE   N11
 BYTE   W12
 BYTE   N05  En1
 BYTE   W06
 BYTE   N05
 BYTE   W06
 BYTE   N11
 BYTE   W12
 BYTE   An1
 BYTE   W12
//  #05 //134   ----------------------------------------
 BYTE   N23
 BYTE   N92  An2
 BYTE   W36
 BYTE   N11  An1
 BYTE   W12
 BYTE   En1
 BYTE   W24
 BYTE   N11
 BYTE   W12
 BYTE   N05  An1
 BYTE   W06
 BYTE   N05
 BYTE   W06
//  #05 //135   ----------------------------------------
 BYTE   N11
 BYTE   W18
 BYTE   N11
 BYTE   W18
 BYTE   N11
 BYTE   W12
 BYTE   En1
 BYTE   W24
 BYTE   N11
 BYTE   W24
//  #05 //136   ----------------------------------------
 BYTE   N23  An1
 BYTE   W36
 BYTE   N11
 BYTE   W12
 BYTE   En1
 BYTE   W24
 BYTE   N11
 BYTE   W12
 BYTE   N05  An1
 BYTE   W06
 BYTE   N05
 BYTE   W06
//  #05 //137   ----------------------------------------
 BYTE   N11
 BYTE   W18
 BYTE   N11
 BYTE   W18
 BYTE   N11
 BYTE   W12
 BYTE   En1
 BYTE   W24
 BYTE   N11
 BYTE   W12
 BYTE   N05  An1
 BYTE   W06
 BYTE   N05
 BYTE   W06
//  #05 //138   ----------------------------------------
 BYTE   PATT
  POIN2 Label_0183D5B0
//  #05 //139   ----------------------------------------
 BYTE   PATT
  POIN2 Label_0183D6B1
//  #05 //140   ----------------------------------------
 BYTE   PATT
  POIN2 Label_0183D500
//  #05 //141   ----------------------------------------
 BYTE   PATT
  POIN2 Label_0183D6C7
//  #05 //142   ----------------------------------------
 BYTE   PATT
  POIN2 Label_0183D6DB
//  #05 //143   ----------------------------------------
 BYTE   W96
//  #05 //144   ----------------------------------------
 BYTE   PATT
  POIN2 Label_0183D483
//  #05 //145   ----------------------------------------
 BYTE   PATT
  POIN2 Label_0183D48E
//  #05 //146   ----------------------------------------
 BYTE   PATT
  POIN2 Label_0183D4A0
//  #05 //147   ----------------------------------------
 BYTE   PATT
  POIN2 Label_0183D4B1
//  #05 //148   ----------------------------------------
 BYTE   PATT
  POIN2 Label_0183D4C1
//  #05 //149   ----------------------------------------
 BYTE   PATT
  POIN2 Label_0183D48E
//  #05 //150   ----------------------------------------
 BYTE   PATT
  POIN2 Label_0183D4B1
//  #05 //151   ----------------------------------------
 BYTE   PATT
  POIN2 Label_0183D4DE
//  #05 //152   ----------------------------------------
 BYTE   W12
 BYTE   N23  An1  v080
 BYTE   W60
 BYTE   W02
 BYTE   GoTo
  POIN2 Label_0183D4EE
//  #05 //153   ----------------------------------------
 BYTE   W22
 BYTE   N92  Cs2  v080
 BYTE   W92
//  #05 //154   ----------------------------------------
 BYTE   W03
 BYTE   FINE

//******************************************************//
	ALIGN 4

KiramekiRider:
	BYTE	5	// NumTrks
	BYTE	0	// NumBlks
	BYTE	KiramekiRider_pri	// Priority
	BYTE	KiramekiRider_rev	// Reverb.
    
	POIN2	KiramekiRider_grp
    
	POIN2	KiramekiRider_001
	POIN2	KiramekiRider_002
	POIN2	KiramekiRider_003
	POIN2	KiramekiRider_004
	POIN2	KiramekiRider_005

	
