//Event file generated from Sappy .s format.
	#include "MPlayDef.event"

	#define	Konpeko_grp  voicegroup000
	#define	Konpeko_pri  10
	#define	Konpeko_rev  0
	#define	Konpeko_mvl  127
	#define	Konpeko_key  0
	#define	Konpeko_tbs  1
	#define	Konpeko_exg  0
	#define	Konpeko_cmp  1

	// .rodata
	//	Konpeko
	ALIGN 4


//**************** Track 1 (Midi-Chn.0) ****************//

Konpeko_001:
//  #01 //000   ----------------------------------------
Label_01847468:
 BYTE   VOL   100*Konpeko_mvl/mxv
 BYTE   KEYSH   Konpeko_key+0
 BYTE   VOICE   24
 BYTE   PAN   c_v+15
 BYTE   LFOS 44
 BYTE   MODT 0
 BYTE   N12  Gs2  v041
 BYTE   TEMPO   120*Konpeko_tbs/2
 BYTE   W12
 BYTE   N12  Bn2  v041
 BYTE   W12
 BYTE   Gs2
 BYTE   W12
 BYTE   Ds3
 BYTE   W12
 BYTE   En3
 BYTE   W12
 BYTE   Ds3
 BYTE   W12
 BYTE   Cs3
 BYTE   W12
 BYTE   Bn2
 BYTE   W12
//  #01 //001   ----------------------------------------
Label_0184748A:
 BYTE   N12  Gs2  v041
 BYTE   W12
 BYTE   Bn2
 BYTE   W12
 BYTE   Gs2
 BYTE   W12
 BYTE   Ds3
 BYTE   W12
 BYTE   En3
 BYTE   W12
 BYTE   Ds3
 BYTE   W12
 BYTE   As2
 BYTE   W12
 BYTE   Fs2
 BYTE   W12
 BYTE   PEND 
//  #01 //002   ----------------------------------------
Label_0184749D:
 BYTE   N12  En2  v041
 BYTE   W12
 BYTE   Gs2
 BYTE   W12
 BYTE   En2
 BYTE   W12
 BYTE   Bn2
 BYTE   W12
 BYTE   Cs3
 BYTE   W12
 BYTE   Bn2
 BYTE   W12
 BYTE   Fs2
 BYTE   W12
 BYTE   En2
 BYTE   W12
 BYTE   PEND 
//  #01 //003   ----------------------------------------
Label_018474B0:
 BYTE   N12  Ds2  v041
 BYTE   W12
 BYTE   Fs2
 BYTE   W12
 BYTE   Ds2
 BYTE   W12
 BYTE   As2
 BYTE   W12
 BYTE   Bn2
 BYTE   W12
 BYTE   As2
 BYTE   W12
 BYTE   Gs2
 BYTE   W12
 BYTE   Fs2
 BYTE   W12
 BYTE   PEND 
//  #01 //004   ----------------------------------------
 BYTE   N12  Gs2  v041
 BYTE   W12
 BYTE   Bn2
 BYTE   W12
 BYTE   Gs2
 BYTE   W12
 BYTE   Ds3
 BYTE   W12
 BYTE   En3
 BYTE   W12
 BYTE   Ds3
 BYTE   W12
 BYTE   Cs3
 BYTE   W12
 BYTE   Bn2
 BYTE   W12
//  #01 //005   ----------------------------------------
 BYTE   PATT
  POIN2 Label_0184748A
//  #01 //006   ----------------------------------------
 BYTE   PATT
  POIN2 Label_0184749D
//  #01 //007   ----------------------------------------
 BYTE   PATT
  POIN2 Label_018474B0
//  #01 //008   ----------------------------------------
Label_018474E4:
 BYTE   N12  Gs3  v041
 BYTE   W12
 BYTE   N06  Cs3
 BYTE   W12
 BYTE   En3
 BYTE   W12
 BYTE   Gs3
 BYTE   W12
 BYTE   N24  Bn3
 BYTE   W24
 BYTE   N12  Gs3
 BYTE   W24
 BYTE   PEND 
//  #01 //009   ----------------------------------------
Label_018474F6:
 BYTE   N12  As3  v041
 BYTE   W12
 BYTE   N06  Fs3
 BYTE   W12
 BYTE   Gs3
 BYTE   W12
 BYTE   As3
 BYTE   W12
 BYTE   N24  Cs4
 BYTE   W24
 BYTE   N06  Fs3
 BYTE   W24
 BYTE   PEND 
//  #01 //010   ----------------------------------------
Label_01847508:
 BYTE   N12  Ds4  v041
 BYTE   W12
 BYTE   N06  Cs4
 BYTE   W12
 BYTE   Bn3
 BYTE   W12
 BYTE   As3
 BYTE   W12
 BYTE   N24  Bn3
 BYTE   W24
 BYTE   N06  Fs3
 BYTE   W24
 BYTE   PEND 
//  #01 //011   ----------------------------------------
Label_0184751A:
 BYTE   N12  Bn3  v041
 BYTE   W12
 BYTE   N06  As3
 BYTE   W12
 BYTE   Gs3
 BYTE   W12
 BYTE   Fs3
 BYTE   W12
 BYTE   N24  Gs3
 BYTE   W24
 BYTE   N06  Ds3
 BYTE   W24
 BYTE   PEND 
//  #01 //012   ----------------------------------------
Label_0184752C:
 BYTE   N06  En3  v041
 BYTE   W12
 BYTE   Fs3
 BYTE   W12
 BYTE   Gs3
 BYTE   W24
 BYTE   Gs3
 BYTE   W12
 BYTE   As3
 BYTE   W12
 BYTE   Bn3
 BYTE   W24
 BYTE   PEND 
//  #01 //013   ----------------------------------------
 BYTE   N06  Cs4  v041
 BYTE   W12
 BYTE   Bn3
 BYTE   W12
 BYTE   As3
 BYTE   W12
 BYTE   Bn3
 BYTE   W12
 BYTE   N24  Cs4
 BYTE   W24
 BYTE   N06  Fs3
 BYTE   W24
//  #01 //014   ----------------------------------------
 BYTE   Bn3
 BYTE   W12
 BYTE   Cs4
 BYTE   W12
 BYTE   Ds4
 BYTE   W12
 BYTE   En4
 BYTE   W12
 BYTE   Fs4
 BYTE   W12
 BYTE   En4
 BYTE   W12
 BYTE   Ds4
 BYTE   W12
 BYTE   Cs4
 BYTE   W12
//  #01 //015   ----------------------------------------
 BYTE   Gs3
 BYTE   W12
 BYTE   As3
 BYTE   W12
 BYTE   Bn3
 BYTE   W12
 BYTE   Cs4
 BYTE   W12
 BYTE   Ds4
 BYTE   W12
 BYTE   Gs3
 BYTE   W12
 BYTE   N24  Ds4
 BYTE   W24
//  #01 //016   ----------------------------------------
 BYTE   PATT
  POIN2 Label_018474E4
//  #01 //017   ----------------------------------------
 BYTE   PATT
  POIN2 Label_018474F6
//  #01 //018   ----------------------------------------
 BYTE   PATT
  POIN2 Label_01847508
//  #01 //019   ----------------------------------------
 BYTE   PATT
  POIN2 Label_0184751A
//  #01 //020   ----------------------------------------
 BYTE   PATT
  POIN2 Label_0184752C
//  #01 //021   ----------------------------------------
 BYTE   N06  Cs4  v041
 BYTE   W12
 BYTE   Bn3
 BYTE   W12
 BYTE   As3
 BYTE   W12
 BYTE   Bn3
 BYTE   W12
 BYTE   Cs4
 BYTE   W12
 BYTE   Fs3
 BYTE   W12
 BYTE   As3
 BYTE   W12
 BYTE   Cs4
 BYTE   W12
//  #01 //022   ----------------------------------------
 BYTE   Bn3
 BYTE   W24
 BYTE   Fs3
 BYTE   W24
 BYTE   N36  Bn3
 BYTE   W48
//  #01 //023   ----------------------------------------
 BYTE   N06
 BYTE   W24
 BYTE   Ds4
 BYTE   W24
 BYTE   N48  Bn3
 BYTE   W96
//  #01 //024   ----------------------------------------
 BYTE   W96
//  #01 //025   ----------------------------------------
 BYTE   W96
//  #01 //026   ----------------------------------------
 BYTE   W96
//  #01 //027   ----------------------------------------
 BYTE   W96
//  #01 //028   ----------------------------------------
 BYTE   W96
//  #01 //029   ----------------------------------------
 BYTE   W96
//  #01 //030   ----------------------------------------
 BYTE   W96
//  #01 //031   ----------------------------------------
 BYTE   W48
Label_018475AB:
 BYTE   N06  Gs3  v041
 BYTE   W06
 BYTE   Bn3
 BYTE   W06
 BYTE   Ds4
 BYTE   W06
 BYTE   Fs4
 BYTE   W06
 BYTE   Gs3
 BYTE   W06
 BYTE   Bn3
 BYTE   W06
 BYTE   Fs4
 BYTE   W06
 BYTE   Gs4
 BYTE   W06
//  #01 //032   ----------------------------------------
 BYTE   Bn4
 BYTE   W06
 BYTE   Gs4
 BYTE   W06
 BYTE   Fs4
 BYTE   W06
 BYTE   Ds4
 BYTE   W06
 BYTE   Fs4
 BYTE   W06
 BYTE   Ds4
 BYTE   W06
 BYTE   Bn3
 BYTE   W06
 BYTE   Gs3
 BYTE   W06
 BYTE   PEND 
//  #01 //033   ----------------------------------------
 BYTE   PATT
  POIN2 Label_018475AB
//  #01 //034   ----------------------------------------
 BYTE   PATT
  POIN2 Label_018475AB
//  #01 //035   ----------------------------------------
 BYTE   PATT
  POIN2 Label_018475AB
//  #01 //036   ----------------------------------------
 BYTE   N24  Ds3  v041
 BYTE   W24
 BYTE   N12  Cs3
 BYTE   W12
 BYTE   Cs3
 BYTE   W12
 BYTE   Ds3
 BYTE   W12
 BYTE   Cs3
 BYTE   W12
 BYTE   N24  Fs3
 BYTE   W24
//  #01 //037   ----------------------------------------
 BYTE   N12  Gs3
 BYTE   W12
 BYTE   N24
 BYTE   W24
 BYTE   N12  Cs4
 BYTE   W12
 BYTE   N24  Bn3
 BYTE   W24
 BYTE   N12  As3
 BYTE   W12
 BYTE   Gs3
 BYTE   W12
//  #01 //038   ----------------------------------------
 BYTE   N18  Fs3
 BYTE   W18
 BYTE   N06  Ds3
 BYTE   W06
 BYTE   Cs3
 BYTE   W06
 BYTE   N18
 BYTE   W18
 BYTE   N12  Ds3
 BYTE   W12
 BYTE   Fs3
 BYTE   W12
 BYTE   N24  Ds3
 BYTE   W24
//  #01 //039   ----------------------------------------
 BYTE   N12  Cs3
 BYTE   W12
 BYTE   Ds3
 BYTE   W12
 BYTE   Bn2
 BYTE   W12
 BYTE   As2
 BYTE   W12
 BYTE   Bn2
 BYTE   W12
 BYTE   Fs2
 BYTE   W12
 BYTE   N24  Gs2
 BYTE   W36
//  #01 //040   ----------------------------------------
Label_0184761F:
 BYTE   N06  Gs3  v041
 BYTE   W24
 BYTE   Gs3
 BYTE   W36
 BYTE   Gs3
 BYTE   W12
 BYTE   Gs3
 BYTE   W24
 BYTE   PEND 
//  #01 //041   ----------------------------------------
 BYTE   PATT
  POIN2 Label_0184761F
//  #01 //042   ----------------------------------------
 BYTE   N06  Gs3  v041
 BYTE   W24
 BYTE   Gs3
 BYTE   W36
 BYTE   Gs3
 BYTE   W12
 BYTE   Gs3
 BYTE   W12
 BYTE   N12  Cs3
 BYTE   W12
//  #01 //043   ----------------------------------------
 BYTE   N06  Gs3
 BYTE   W12
 BYTE   Cs3
 BYTE   W12
 BYTE   Gs3
 BYTE   W12
 BYTE   N24  Cs3
 BYTE   W24
 BYTE   N06  Gs3
 BYTE   W12
 BYTE   Gs3
 BYTE   W12
 BYTE   N12
 BYTE   W12
//  #01 //044   ----------------------------------------
Label_0184764D:
 BYTE   N06  Cs3  v041
 BYTE   W12
 BYTE   En3
 BYTE   W12
 BYTE   Gs3
 BYTE   W12
 BYTE   N24  Bn3
 BYTE   W24
 BYTE   N12  Gs3
 BYTE   W24
 BYTE   As3
 BYTE   W12
 BYTE   PEND 
//  #01 //045   ----------------------------------------
Label_0184765E:
 BYTE   N06  Fs3  v041
 BYTE   W12
 BYTE   Gs3
 BYTE   W12
 BYTE   As3
 BYTE   W12
 BYTE   N24  Cs4
 BYTE   W24
 BYTE   N06  Fs3
 BYTE   W24
 BYTE   N12  Ds4
 BYTE   W12
 BYTE   PEND 
//  #01 //046   ----------------------------------------
Label_01847670:
 BYTE   N06  Cs4  v041
 BYTE   W12
 BYTE   Bn3
 BYTE   W12
 BYTE   As3
 BYTE   W12
 BYTE   N24  Bn3
 BYTE   W24
 BYTE   N06  Fs3
 BYTE   W24
 BYTE   N12  Bn3
 BYTE   W12
 BYTE   PEND 
//  #01 //047   ----------------------------------------
Label_01847682:
 BYTE   N06  As3  v041
 BYTE   W12
 BYTE   Gs3
 BYTE   W12
 BYTE   Fs3
 BYTE   W12
 BYTE   N24  Gs3
 BYTE   W24
 BYTE   N06  Ds3
 BYTE   W24
 BYTE   En3
 BYTE   W12
 BYTE   PEND 
//  #01 //048   ----------------------------------------
Label_01847693:
 BYTE   N06  Fs3  v041
 BYTE   W12
 BYTE   Gs3
 BYTE   W24
 BYTE   Gs3
 BYTE   W12
 BYTE   As3
 BYTE   W12
 BYTE   Bn3
 BYTE   W24
 BYTE   Cs4
 BYTE   W12
 BYTE   PEND 
//  #01 //049   ----------------------------------------
 BYTE   N06  Bn3  v041
 BYTE   W12
 BYTE   As3
 BYTE   W12
 BYTE   Bn3
 BYTE   W12
 BYTE   N24  Cs4
 BYTE   W24
 BYTE   N06  Fs3
 BYTE   W24
 BYTE   Bn3
 BYTE   W12
//  #01 //050   ----------------------------------------
 BYTE   Cs4
 BYTE   W12
 BYTE   Ds4
 BYTE   W12
 BYTE   En4
 BYTE   W12
 BYTE   Fs4
 BYTE   W12
 BYTE   En4
 BYTE   W12
 BYTE   Ds4
 BYTE   W12
 BYTE   Cs4
 BYTE   W12
 BYTE   Gs3
 BYTE   W12
//  #01 //051   ----------------------------------------
 BYTE   As3
 BYTE   W12
 BYTE   Bn3
 BYTE   W12
 BYTE   Cs4
 BYTE   W12
 BYTE   Ds4
 BYTE   W12
 BYTE   Gs3
 BYTE   W12
 BYTE   N24  Ds4
 BYTE   W24
 BYTE   N12  Gs3
 BYTE   W12
//  #01 //052   ----------------------------------------
 BYTE   PATT
  POIN2 Label_0184764D
//  #01 //053   ----------------------------------------
 BYTE   PATT
  POIN2 Label_0184765E
//  #01 //054   ----------------------------------------
 BYTE   PATT
  POIN2 Label_01847670
//  #01 //055   ----------------------------------------
 BYTE   PATT
  POIN2 Label_01847682
//  #01 //056   ----------------------------------------
 BYTE   PATT
  POIN2 Label_01847693
//  #01 //057   ----------------------------------------
 BYTE   N06  Bn3  v041
 BYTE   W12
 BYTE   As3
 BYTE   W12
 BYTE   Bn3
 BYTE   W12
 BYTE   Cs4
 BYTE   W12
 BYTE   Fs3
 BYTE   W12
 BYTE   As3
 BYTE   W12
 BYTE   Cs4
 BYTE   W12
 BYTE   Bn3
 BYTE   W24
//  #01 //058   ----------------------------------------
 BYTE   Fs3
 BYTE   W24
 BYTE   N36  Bn3
 BYTE   W48
 BYTE   N06
 BYTE   W24
//  #01 //059   ----------------------------------------
 BYTE   Ds4
 BYTE   W24
 BYTE   N48  Bn3
 BYTE   W48
 BYTE   N12  Ds2
 BYTE   W12
 BYTE   Fs2
 BYTE   W12
//  #01 //060   ----------------------------------------
 BYTE   As2
 BYTE   W12
 BYTE   Ds3
 BYTE   W12
 BYTE   Fs3
 BYTE   W12
 BYTE   Ds3
 BYTE   W12
 BYTE   As2
 BYTE   W12
 BYTE   Fs2
 BYTE   W12
 BYTE   Gs2
 BYTE   W12
 BYTE   Bn2
 BYTE   W12
//  #01 //061   ----------------------------------------
 BYTE   Ds3
 BYTE   W12
 BYTE   Gs3
 BYTE   W12
 BYTE   N24
 BYTE   W24
 BYTE   Gs3
 BYTE   W24
 BYTE   PAN   c_v+15
 BYTE   N12  Gs2  v041
 BYTE   W12
 BYTE   N12  Bn2  v041
 BYTE   W12
//  #01 //062   ----------------------------------------
 BYTE   Cs3
 BYTE   W12
 BYTE   Bn2
 BYTE   W12
 BYTE   Gs2
 BYTE   W12
 BYTE   Bn2
 BYTE   W12
 BYTE   Cs3
 BYTE   W12
 BYTE   Bn2
 BYTE   W12
 BYTE   Cs3
 BYTE   W12
 BYTE   Ds3
 BYTE   W12
//  #01 //063   ----------------------------------------
 BYTE   Fs3
 BYTE   W12
 BYTE   Ds3
 BYTE   W12
 BYTE   Cs3
 BYTE   W12
 BYTE   Ds3
 BYTE   W12
 BYTE   Fs3
 BYTE   W06
 BYTE   W06
 BYTE   N12  Ds3  v041
 BYTE   W12
 BYTE   GoTo
  POIN2 Label_01847468
 BYTE   FINE

//**************** Track 2 (Midi-Chn.1) ****************//

Konpeko_002:
//  #02 //000   ----------------------------------------
Label_01847758:
 BYTE   VOL   70*Konpeko_mvl/mxv
 BYTE   KEYSH   Konpeko_key+0
 BYTE   VOICE   1
 BYTE   PAN   c_v-14
 BYTE   LFOS 44
 BYTE   MODT 0
 BYTE   N12  Gs3  v041
 BYTE   TEMPO   120*Konpeko_tbs/2
 BYTE   W12
 BYTE   N12  Bn3  v041
 BYTE   W12
 BYTE   Gs3
 BYTE   W12
 BYTE   Ds4
 BYTE   W12
 BYTE   En4
 BYTE   W12
 BYTE   Ds4
 BYTE   W12
 BYTE   Cs4
 BYTE   W12
 BYTE   Bn3
 BYTE   W12
//  #02 //001   ----------------------------------------
Label_0184777A:
 BYTE   N12  Gs3  v041
 BYTE   W12
 BYTE   Bn3
 BYTE   W12
 BYTE   Gs3
 BYTE   W12
 BYTE   Ds4
 BYTE   W12
 BYTE   En4
 BYTE   W12
 BYTE   Ds4
 BYTE   W12
 BYTE   As3
 BYTE   W12
 BYTE   Fs3
 BYTE   W12
 BYTE   PEND 
//  #02 //002   ----------------------------------------
Label_0184778D:
 BYTE   N12  En3  v041
 BYTE   W12
 BYTE   Gs3
 BYTE   W12
 BYTE   En3
 BYTE   W12
 BYTE   Bn3
 BYTE   W12
 BYTE   Cs4
 BYTE   W12
 BYTE   Bn3
 BYTE   W12
 BYTE   Fs3
 BYTE   W12
 BYTE   En3
 BYTE   W12
 BYTE   PEND 
//  #02 //003   ----------------------------------------
Label_018477A0:
 BYTE   N12  Ds3  v041
 BYTE   W12
 BYTE   Fs3
 BYTE   W12
 BYTE   Ds3
 BYTE   W12
 BYTE   As3
 BYTE   W12
 BYTE   Bn3
 BYTE   W12
 BYTE   As3
 BYTE   W12
 BYTE   Gs3
 BYTE   W12
 BYTE   Fs3
 BYTE   W12
 BYTE   PEND 
//  #02 //004   ----------------------------------------
 BYTE   N12  Gs3  v041
 BYTE   W12
 BYTE   Bn3
 BYTE   W12
 BYTE   Gs3
 BYTE   W12
 BYTE   Ds4
 BYTE   W12
 BYTE   En4
 BYTE   W12
 BYTE   Ds4
 BYTE   W12
 BYTE   Cs4
 BYTE   W12
 BYTE   Bn3
 BYTE   W12
//  #02 //005   ----------------------------------------
 BYTE   PATT
  POIN2 Label_0184777A
//  #02 //006   ----------------------------------------
 BYTE   PATT
  POIN2 Label_0184778D
//  #02 //007   ----------------------------------------
 BYTE   PATT
  POIN2 Label_018477A0
//  #02 //008   ----------------------------------------
Label_018477D4:
 BYTE   N12  Gs3  v041
 BYTE   W24
 BYTE   Ds3
 BYTE   W24
 BYTE   Gs3
 BYTE   W24
 BYTE   Ds3
 BYTE   W24
 BYTE   PEND 
//  #02 //009   ----------------------------------------
 BYTE   PATT
  POIN2 Label_018477D4
//  #02 //010   ----------------------------------------
Label_018477E4:
 BYTE   N12  En3  v041
 BYTE   W24
 BYTE   Bn2
 BYTE   W24
 BYTE   En3
 BYTE   W24
 BYTE   Bn2
 BYTE   W24
 BYTE   PEND 
//  #02 //011   ----------------------------------------
 BYTE   N12  Ds3  v041
 BYTE   W24
 BYTE   As2
 BYTE   W24
 BYTE   Ds3
 BYTE   W24
 BYTE   As2
 BYTE   W24
//  #02 //012   ----------------------------------------
 BYTE   PATT
  POIN2 Label_018477D4
//  #02 //013   ----------------------------------------
 BYTE   PATT
  POIN2 Label_018477D4
//  #02 //014   ----------------------------------------
 BYTE   PATT
  POIN2 Label_018477E4
//  #02 //015   ----------------------------------------
 BYTE   N12  Ds3  v041
 BYTE   W24
 BYTE   As2
 BYTE   W24
 BYTE   Ds3
 BYTE   W24
 BYTE   As2
 BYTE   W24
//  #02 //016   ----------------------------------------
 BYTE   PAN   c_v-14
 BYTE   N12  Gs3  v041
 BYTE   W12
 BYTE   Bn3
 BYTE   W12
 BYTE   Gs3
 BYTE   W12
 BYTE   Ds4
 BYTE   W12
 BYTE   En4
 BYTE   W12
 BYTE   Ds4
 BYTE   W12
 BYTE   Cs4
 BYTE   W12
 BYTE   Bn3
 BYTE   W12
//  #02 //017   ----------------------------------------
 BYTE   Gs3
 BYTE   W12
 BYTE   Bn3
 BYTE   W12
 BYTE   Gs3
 BYTE   W12
 BYTE   Ds4
 BYTE   W12
 BYTE   En4
 BYTE   W12
 BYTE   Ds4
 BYTE   W12
 BYTE   As3
 BYTE   W12
 BYTE   Fs3
 BYTE   W12
//  #02 //018   ----------------------------------------
 BYTE   En3
 BYTE   W12
 BYTE   Gs3
 BYTE   W12
 BYTE   En3
 BYTE   W12
 BYTE   Bn3
 BYTE   W12
 BYTE   Cs4
 BYTE   W12
 BYTE   Bn3
 BYTE   W12
 BYTE   Fs3
 BYTE   W12
 BYTE   En3
 BYTE   W12
//  #02 //019   ----------------------------------------
 BYTE   Ds3
 BYTE   W12
 BYTE   Fs3
 BYTE   W12
 BYTE   Ds3
 BYTE   W12
 BYTE   As3
 BYTE   W12
 BYTE   Bn3
 BYTE   W12
 BYTE   As3
 BYTE   W12
 BYTE   Gs3
 BYTE   W12
 BYTE   Fs3
 BYTE   W12
//  #02 //020   ----------------------------------------
 BYTE   PAN   c_v-14
 BYTE   N12  Gs3  v041
 BYTE   W12
 BYTE   Bn3
 BYTE   W12
 BYTE   Gs3
 BYTE   W12
 BYTE   Ds4
 BYTE   W12
 BYTE   En4
 BYTE   W12
 BYTE   Ds4
 BYTE   W12
 BYTE   Cs4
 BYTE   W12
 BYTE   Bn3
 BYTE   W12
//  #02 //021   ----------------------------------------
 BYTE   Gs3
 BYTE   W12
 BYTE   Bn3
 BYTE   W12
 BYTE   Gs3
 BYTE   W12
 BYTE   Ds4
 BYTE   W12
 BYTE   En4
 BYTE   W12
 BYTE   Ds4
 BYTE   W12
 BYTE   As3
 BYTE   W12
 BYTE   Fs3
 BYTE   W12
//  #02 //022   ----------------------------------------
 BYTE   En3
 BYTE   W12
 BYTE   Gs3
 BYTE   W12
 BYTE   En3
 BYTE   W12
 BYTE   Bn3
 BYTE   W12
 BYTE   Cs4
 BYTE   W12
 BYTE   Bn3
 BYTE   W12
 BYTE   Fs3
 BYTE   W12
 BYTE   En3
 BYTE   W12
//  #02 //023   ----------------------------------------
 BYTE   Ds3
 BYTE   W12
 BYTE   Fs3
 BYTE   W12
 BYTE   Ds3
 BYTE   W12
 BYTE   As3
 BYTE   W12
 BYTE   Bn3
 BYTE   W12
 BYTE   As3
 BYTE   W12
 BYTE   Gs3
 BYTE   W12
 BYTE   Fs3
 BYTE   W12
//  #02 //024   ----------------------------------------
 BYTE   Gs2
 BYTE   W12
 BYTE   Gs2
 BYTE   W12
 BYTE   Gs2
 BYTE   W12
 BYTE   Gs2
 BYTE   W12
 BYTE   Gs2
 BYTE   W12
 BYTE   Gs2
 BYTE   W12
 BYTE   Gs1
 BYTE   W12
 BYTE   Gs1
 BYTE   W12
//  #02 //025   ----------------------------------------
 BYTE   Gs2
 BYTE   W12
 BYTE   Gs2
 BYTE   W12
 BYTE   Gs2
 BYTE   W12
 BYTE   Gs2
 BYTE   W12
 BYTE   Gs2
 BYTE   W12
 BYTE   Gs2
 BYTE   W12
 BYTE   Gs1
 BYTE   W12
 BYTE   Gs1
 BYTE   W12
//  #02 //026   ----------------------------------------
 BYTE   En2
 BYTE   W12
 BYTE   En2
 BYTE   W12
 BYTE   En2
 BYTE   W12
 BYTE   En2
 BYTE   W12
 BYTE   En2
 BYTE   W12
 BYTE   En2
 BYTE   W12
 BYTE   En1
 BYTE   W12
 BYTE   En1
 BYTE   W12
//  #02 //027   ----------------------------------------
 BYTE   Ds2
 BYTE   W12
 BYTE   Ds2
 BYTE   W12
 BYTE   Ds2
 BYTE   W12
 BYTE   Ds2
 BYTE   W12
 BYTE   Ds2
 BYTE   W24
 BYTE   Ds1
 BYTE   W12
 BYTE   Ds1
 BYTE   W12
//  #02 //028   ----------------------------------------
 BYTE   Gs2
 BYTE   W12
 BYTE   Gs2
 BYTE   W12
 BYTE   Gs2
 BYTE   W12
 BYTE   Gs2
 BYTE   W12
 BYTE   Gs2
 BYTE   W12
 BYTE   Gs2
 BYTE   W12
 BYTE   Gs1
 BYTE   W12
 BYTE   Gs1
 BYTE   W12
//  #02 //029   ----------------------------------------
 BYTE   Gs2
 BYTE   W12
 BYTE   Gs2
 BYTE   W12
 BYTE   Gs2
 BYTE   W12
 BYTE   Gs2
 BYTE   W12
 BYTE   Gs2
 BYTE   W12
 BYTE   Gs2
 BYTE   W12
 BYTE   Gs1
 BYTE   W12
 BYTE   Gs1
 BYTE   W12
//  #02 //030   ----------------------------------------
 BYTE   En2
 BYTE   W12
 BYTE   En2
 BYTE   W12
 BYTE   En2
 BYTE   W12
 BYTE   En2
 BYTE   W12
 BYTE   En2
 BYTE   W12
 BYTE   En2
 BYTE   W12
 BYTE   En1
 BYTE   W12
 BYTE   En1
 BYTE   W12
//  #02 //031   ----------------------------------------
 BYTE   Ds2
 BYTE   W12
 BYTE   Ds2
 BYTE   W12
 BYTE   Ds2
 BYTE   W12
 BYTE   Ds2
 BYTE   W12
 BYTE   Ds2
 BYTE   W24
 BYTE   Ds1
 BYTE   W12
 BYTE   Ds1
 BYTE   W12
//  #02 //032   ----------------------------------------
 BYTE   N06  Gs3
 BYTE   W06
 BYTE   Bn3
 BYTE   W06
 BYTE   Ds4
 BYTE   W06
 BYTE   Fs4
 BYTE   W06
 BYTE   Gs3
 BYTE   W06
 BYTE   Bn3
 BYTE   W06
 BYTE   Fs4
 BYTE   W06
 BYTE   Gs4
 BYTE   W06
 BYTE   Bn4
 BYTE   W06
 BYTE   Gs4
 BYTE   W06
 BYTE   Fs4
 BYTE   W06
 BYTE   Ds4
 BYTE   W06
 BYTE   Fs4
 BYTE   W06
 BYTE   Ds4
 BYTE   W06
 BYTE   Bn3
 BYTE   W06
 BYTE   Gs3
 BYTE   W06
//  #02 //033   ----------------------------------------
 BYTE   Gs3
 BYTE   W06
 BYTE   Bn3
 BYTE   W06
 BYTE   Ds4
 BYTE   W06
 BYTE   Fs4
 BYTE   W06
 BYTE   Gs3
 BYTE   W06
 BYTE   Bn3
 BYTE   W06
 BYTE   Fs4
 BYTE   W06
 BYTE   Gs4
 BYTE   W06
 BYTE   Bn4
 BYTE   W06
 BYTE   Gs4
 BYTE   W06
 BYTE   Fs4
 BYTE   W06
 BYTE   Ds4
 BYTE   W06
 BYTE   Fs4
 BYTE   W06
 BYTE   Ds4
 BYTE   W06
 BYTE   Bn3
 BYTE   W06
 BYTE   Gs3
 BYTE   W06
//  #02 //034   ----------------------------------------
 BYTE   Gs3
 BYTE   W06
 BYTE   Bn3
 BYTE   W06
 BYTE   Ds4
 BYTE   W06
 BYTE   Fs4
 BYTE   W06
 BYTE   Gs3
 BYTE   W06
 BYTE   Bn3
 BYTE   W06
 BYTE   Fs4
 BYTE   W06
 BYTE   Gs4
 BYTE   W06
 BYTE   Bn4
 BYTE   W06
 BYTE   Gs4
 BYTE   W06
 BYTE   Fs4
 BYTE   W06
 BYTE   Ds4
 BYTE   W06
 BYTE   Fs4
 BYTE   W06
 BYTE   Ds4
 BYTE   W06
 BYTE   Bn3
 BYTE   W06
 BYTE   Gs3
 BYTE   W06
//  #02 //035   ----------------------------------------
 BYTE   Gs3
 BYTE   W06
 BYTE   Bn3
 BYTE   W06
 BYTE   Ds4
 BYTE   W06
 BYTE   Fs4
 BYTE   W06
 BYTE   Gs3
 BYTE   W06
 BYTE   Bn3
 BYTE   W06
 BYTE   Fs4
 BYTE   W06
 BYTE   Gs4
 BYTE   W06
 BYTE   Bn4
 BYTE   W06
 BYTE   Gs4
 BYTE   W06
 BYTE   Fs4
 BYTE   W06
 BYTE   Ds4
 BYTE   W06
 BYTE   Fs4
 BYTE   W06
 BYTE   Ds4
 BYTE   W06
 BYTE   Bn3
 BYTE   W06
 BYTE   Gs3
 BYTE   W06
//  #02 //036   ----------------------------------------
 BYTE   N12
 BYTE   W24
 BYTE   Ds3
 BYTE   W24
 BYTE   Gs3
 BYTE   W24
 BYTE   Ds3
 BYTE   W24
//  #02 //037   ----------------------------------------
 BYTE   Fs3
 BYTE   W24
 BYTE   Cs3
 BYTE   W24
 BYTE   Fs3
 BYTE   W24
 BYTE   Cs3
 BYTE   W24
//  #02 //038   ----------------------------------------
 BYTE   Fs3
 BYTE   W24
 BYTE   Cs3
 BYTE   W24
 BYTE   Fs3
 BYTE   W24
 BYTE   Cs3
 BYTE   W24
//  #02 //039   ----------------------------------------
 BYTE   En3
 BYTE   W24
 BYTE   Bn2
 BYTE   W24
 BYTE   En3
 BYTE   W24
 BYTE   Bn2
 BYTE   W24
//  #02 //040   ----------------------------------------
 BYTE   Gs3
 BYTE   W24
 BYTE   Ds3
 BYTE   W24
 BYTE   Gs3
 BYTE   W24
 BYTE   Ds3
 BYTE   W24
//  #02 //041   ----------------------------------------
 BYTE   Fs3
 BYTE   W24
 BYTE   Cs3
 BYTE   W24
 BYTE   Fs3
 BYTE   W24
 BYTE   Cs3
 BYTE   W24
//  #02 //042   ----------------------------------------
 BYTE   Fs3
 BYTE   W24
 BYTE   Cs3
 BYTE   W24
 BYTE   Fs3
 BYTE   W24
 BYTE   Cs3
 BYTE   W24
//  #02 //043   ----------------------------------------
 BYTE   En3
 BYTE   W24
 BYTE   Bn2
 BYTE   W24
 BYTE   En3
 BYTE   W24
 BYTE   Bn2
 BYTE   W24
//  #02 //044   ----------------------------------------
 BYTE   Gs3
 BYTE   W24
 BYTE   Ds3
 BYTE   W24
 BYTE   Gs3
 BYTE   W24
 BYTE   Ds3
 BYTE   W24
//  #02 //045   ----------------------------------------
 BYTE   Gs3
 BYTE   W24
 BYTE   Ds3
 BYTE   W24
 BYTE   Gs3
 BYTE   W24
 BYTE   Ds3
 BYTE   W24
//  #02 //046   ----------------------------------------
 BYTE   En3
 BYTE   W24
 BYTE   Bn2
 BYTE   W24
 BYTE   En3
 BYTE   W24
 BYTE   Bn2
 BYTE   W24
//  #02 //047   ----------------------------------------
 BYTE   Ds3
 BYTE   W24
 BYTE   As2
 BYTE   W24
 BYTE   Ds3
 BYTE   W24
 BYTE   As2
 BYTE   W24
//  #02 //048   ----------------------------------------
 BYTE   Gs3
 BYTE   W24
 BYTE   Ds3
 BYTE   W24
 BYTE   Gs3
 BYTE   W24
 BYTE   Ds3
 BYTE   W24
//  #02 //049   ----------------------------------------
 BYTE   Gs3
 BYTE   W24
 BYTE   Ds3
 BYTE   W24
 BYTE   Gs3
 BYTE   W24
 BYTE   Ds3
 BYTE   W24
//  #02 //050   ----------------------------------------
 BYTE   En3
 BYTE   W24
 BYTE   Bn2
 BYTE   W24
 BYTE   En3
 BYTE   W24
 BYTE   Bn2
 BYTE   W24
//  #02 //051   ----------------------------------------
 BYTE   Ds3
 BYTE   W24
 BYTE   As2
 BYTE   W24
 BYTE   Ds3
 BYTE   W24
 BYTE   As2
 BYTE   W24
//  #02 //052   ----------------------------------------
 BYTE   Gs2
 BYTE   W12
 BYTE   Gs3
 BYTE   W12
 BYTE   Gs2
 BYTE   W12
 BYTE   Gs3
 BYTE   W12
 BYTE   Gs2
 BYTE   W12
 BYTE   Gs3
 BYTE   W12
 BYTE   Gs2
 BYTE   W12
 BYTE   Gs3
 BYTE   W12
//  #02 //053   ----------------------------------------
 BYTE   Gs2
 BYTE   W12
 BYTE   Gs3
 BYTE   W12
 BYTE   Gs2
 BYTE   W12
 BYTE   Gs3
 BYTE   W12
 BYTE   Gs2
 BYTE   W12
 BYTE   Gs3
 BYTE   W12
 BYTE   Gs2
 BYTE   W12
 BYTE   Gs3
 BYTE   W12
//  #02 //054   ----------------------------------------
 BYTE   En2
 BYTE   W12
 BYTE   En3
 BYTE   W12
 BYTE   En2
 BYTE   W12
 BYTE   En3
 BYTE   W12
 BYTE   En2
 BYTE   W12
 BYTE   En3
 BYTE   W12
 BYTE   En2
 BYTE   W12
 BYTE   En3
 BYTE   W12
//  #02 //055   ----------------------------------------
 BYTE   Ds2
 BYTE   W12
 BYTE   Ds3
 BYTE   W12
 BYTE   Ds2
 BYTE   W12
 BYTE   Ds3
 BYTE   W12
 BYTE   Ds2
 BYTE   W12
 BYTE   Ds3
 BYTE   W12
 BYTE   Ds2
 BYTE   W12
 BYTE   Ds3
 BYTE   W12
//  #02 //056   ----------------------------------------
 BYTE   Gs2
 BYTE   W12
 BYTE   Gs3
 BYTE   W12
 BYTE   Gs2
 BYTE   W12
 BYTE   Gs3
 BYTE   W12
 BYTE   Gs2
 BYTE   W12
 BYTE   Gs3
 BYTE   W12
 BYTE   Gs2
 BYTE   W12
 BYTE   Gs3
 BYTE   W12
//  #02 //057   ----------------------------------------
 BYTE   Gs2
 BYTE   W12
 BYTE   Gs3
 BYTE   W12
 BYTE   Gs2
 BYTE   W12
 BYTE   Gs3
 BYTE   W12
 BYTE   Gs2
 BYTE   W12
 BYTE   Gs3
 BYTE   W12
 BYTE   Gs2
 BYTE   W12
 BYTE   Gs3
 BYTE   W12
//  #02 //058   ----------------------------------------
 BYTE   En2
 BYTE   W12
 BYTE   En3
 BYTE   W12
 BYTE   En2
 BYTE   W12
 BYTE   En3
 BYTE   W12
 BYTE   En2
 BYTE   W12
 BYTE   En3
 BYTE   W12
 BYTE   En2
 BYTE   W12
 BYTE   En3
 BYTE   W12
//  #02 //059   ----------------------------------------
 BYTE   Ds2
 BYTE   W12
 BYTE   Ds3
 BYTE   W12
 BYTE   Ds2
 BYTE   W12
 BYTE   Ds3
 BYTE   W12
 BYTE   Ds2
 BYTE   W12
 BYTE   Ds3
 BYTE   W12
 BYTE   Ds2
 BYTE   W12
 BYTE   Ds3
 BYTE   W12
//  #02 //060   ----------------------------------------
 BYTE   Ds2
 BYTE   W12
 BYTE   Fs2
 BYTE   W12
 BYTE   As2
 BYTE   W12
 BYTE   Ds3
 BYTE   W12
 BYTE   Fs3
 BYTE   W12
 BYTE   Ds3
 BYTE   W12
 BYTE   As2
 BYTE   W12
 BYTE   Fs2
 BYTE   W12
//  #02 //061   ----------------------------------------
 BYTE   Gs2
 BYTE   W12
 BYTE   Bn2
 BYTE   W12
 BYTE   Ds3
 BYTE   W12
 BYTE   Gs3
 BYTE   W12
 BYTE   N24
 BYTE   W24
 BYTE   Gs3
 BYTE   W24
//  #02 //062   ----------------------------------------
 BYTE   PAN   c_v+15
 BYTE   N12  Gs2  v041
 BYTE   W12
 BYTE   N12  Bn2  v041
 BYTE   W12
 BYTE   Cs3
 BYTE   W12
 BYTE   Bn2
 BYTE   W12
 BYTE   Gs2
 BYTE   W12
 BYTE   Bn2
 BYTE   W12
 BYTE   Cs3
 BYTE   W12
 BYTE   Bn2
 BYTE   W12
//  #02 //063   ----------------------------------------
 BYTE   Cs3
 BYTE   W12
 BYTE   Ds3
 BYTE   W12
 BYTE   Fs3
 BYTE   W12
 BYTE   Ds3
 BYTE   W12
 BYTE   Cs3
 BYTE   W12
 BYTE   Ds3
 BYTE   W12
 BYTE   Fs3
 BYTE   W06
 BYTE   W06
 BYTE   N12  Ds3  v041
 BYTE   W12
//  #02 //064   ----------------------------------------
 BYTE   GoTo
  POIN2 Label_01847758
 BYTE   FINE

//**************** Track 3 (Midi-Chn.2) ****************//

Konpeko_003:
//  #03 //000   ----------------------------------------
Label_5697DC:
 BYTE   VOL   85*Konpeko_mvl/mxv
 BYTE   KEYSH   Konpeko_key+0
 BYTE   VOICE   34
 BYTE   LFOS 44
 BYTE   MODT 0
 BYTE   N96  Gs2  v041
 BYTE   TEMPO   120*Konpeko_tbs/2
 BYTE   W96
//  #03 //001   ----------------------------------------
 BYTE   N48  Gs2  v041
 BYTE   W48
 BYTE   Gs2
 BYTE   W48
//  #03 //002   ----------------------------------------
 BYTE   En2
 BYTE   W48
 BYTE   En2
 BYTE   W48
//  #03 //003   ----------------------------------------
 BYTE   N72  Ds2
 BYTE   W72
 BYTE   N24  Fs2
 BYTE   W24
//  #03 //004   ----------------------------------------
Label_5697FC:
 BYTE   N12  Gs2  v041
 BYTE   W12
 BYTE   Gs2
 BYTE   W12
 BYTE   Gs2
 BYTE   W12
 BYTE   Gs2
 BYTE   W12
 BYTE   Gs2
 BYTE   W12
 BYTE   Gs2
 BYTE   W12
 BYTE   Gs2
 BYTE   W12
 BYTE   Gs2
 BYTE   W12
 BYTE   PEND 
//  #03 //005   ----------------------------------------
 BYTE   PATT
  POIN2 Label_5697FC
//  #03 //006   ----------------------------------------
 BYTE   N12  En2  v041
 BYTE   W12
 BYTE   En2
 BYTE   W12
 BYTE   En2
 BYTE   W12
 BYTE   En2
 BYTE   W12
 BYTE   En2
 BYTE   W12
 BYTE   En2
 BYTE   W12
 BYTE   En2
 BYTE   W12
 BYTE   En2
 BYTE   W12
//  #03 //007   ----------------------------------------
 BYTE   Ds2
 BYTE   W12
 BYTE   Ds2
 BYTE   W12
 BYTE   Ds2
 BYTE   W12
 BYTE   Ds2
 BYTE   W12
 BYTE   Ds2
 BYTE   W12
 BYTE   Ds2
 BYTE   W12
 BYTE   Ds2
 BYTE   W12
 BYTE   Ds2
 BYTE   W12
//  #03 //008   ----------------------------------------
Label_569836:
 BYTE   N12  Gs2  v041
 BYTE   W24
 BYTE   Ds2
 BYTE   W24
 BYTE   Gs2
 BYTE   W24
 BYTE   Ds2
 BYTE   W24
 BYTE   PEND 
//  #03 //009   ----------------------------------------
 BYTE   PATT
  POIN2 Label_569836
//  #03 //010   ----------------------------------------
Label_569846:
 BYTE   N12  En2  v041
 BYTE   W24
 BYTE   Bn1
 BYTE   W24
 BYTE   En2
 BYTE   W24
 BYTE   Bn1
 BYTE   W24
 BYTE   PEND 
//  #03 //011   ----------------------------------------
Label_569851:
 BYTE   N12  Ds2  v041
 BYTE   W24
 BYTE   As1
 BYTE   W24
 BYTE   Ds2
 BYTE   W24
 BYTE   As1
 BYTE   W24
 BYTE   PEND 
//  #03 //012   ----------------------------------------
 BYTE   PATT
  POIN2 Label_569836
//  #03 //013   ----------------------------------------
 BYTE   PATT
  POIN2 Label_569836
//  #03 //014   ----------------------------------------
 BYTE   PATT
  POIN2 Label_569846
//  #03 //015   ----------------------------------------
 BYTE   PATT
  POIN2 Label_569851
//  #03 //016   ----------------------------------------
Label_569870:
 BYTE   N12  Gs1  v041
 BYTE   W12
 BYTE   Gs2
 BYTE   W12
 BYTE   Gs1
 BYTE   W12
 BYTE   Gs2
 BYTE   W12
 BYTE   Gs1
 BYTE   W12
 BYTE   Gs2
 BYTE   W12
 BYTE   Gs1
 BYTE   W12
 BYTE   Gs2
 BYTE   W12
 BYTE   PEND 
//  #03 //017   ----------------------------------------
 BYTE   PATT
  POIN2 Label_569870
//  #03 //018   ----------------------------------------
Label_569888:
 BYTE   N12  En1  v041
 BYTE   W12
 BYTE   En2
 BYTE   W12
 BYTE   En1
 BYTE   W12
 BYTE   En2
 BYTE   W12
 BYTE   En1
 BYTE   W12
 BYTE   En2
 BYTE   W12
 BYTE   En1
 BYTE   W12
 BYTE   En2
 BYTE   W12
 BYTE   PEND 
//  #03 //019   ----------------------------------------
Label_56989B:
 BYTE   N12  Ds1  v041
 BYTE   W12
 BYTE   Ds2
 BYTE   W12
 BYTE   Ds1
 BYTE   W12
 BYTE   Ds2
 BYTE   W12
 BYTE   Ds1
 BYTE   W12
 BYTE   Ds2
 BYTE   W12
 BYTE   Ds1
 BYTE   W12
 BYTE   Ds2
 BYTE   W12
 BYTE   PEND 
//  #03 //020   ----------------------------------------
 BYTE   PATT
  POIN2 Label_569870
//  #03 //021   ----------------------------------------
 BYTE   PATT
  POIN2 Label_569870
//  #03 //022   ----------------------------------------
 BYTE   PATT
  POIN2 Label_569888
//  #03 //023   ----------------------------------------
 BYTE   PATT
  POIN2 Label_56989B
//  #03 //024   ----------------------------------------
Label_5698C2:
 BYTE   N12  Gs2  v041
 BYTE   W12
 BYTE   Gs2
 BYTE   W12
 BYTE   Gs2
 BYTE   W12
 BYTE   Gs2
 BYTE   W12
 BYTE   Gs2
 BYTE   W12
 BYTE   Gs2
 BYTE   W12
 BYTE   Gs1
 BYTE   W12
 BYTE   Gs1
 BYTE   W12
 BYTE   PEND 
//  #03 //025   ----------------------------------------
 BYTE   PATT
  POIN2 Label_5698C2
//  #03 //026   ----------------------------------------
Label_5698DA:
 BYTE   N12  En2  v041
 BYTE   W12
 BYTE   En2
 BYTE   W12
 BYTE   En2
 BYTE   W12
 BYTE   En2
 BYTE   W12
 BYTE   En2
 BYTE   W12
 BYTE   En2
 BYTE   W12
 BYTE   En1
 BYTE   W12
 BYTE   En1
 BYTE   W12
 BYTE   PEND 
//  #03 //027   ----------------------------------------
Label_5698ED:
 BYTE   N12  Ds2  v041
 BYTE   W12
 BYTE   Ds2
 BYTE   W12
 BYTE   Ds2
 BYTE   W12
 BYTE   Ds2
 BYTE   W12
 BYTE   Ds2
 BYTE   W24
 BYTE   Ds1
 BYTE   W12
 BYTE   Ds1
 BYTE   W12
 BYTE   PEND 
//  #03 //028   ----------------------------------------
 BYTE   PATT
  POIN2 Label_5698C2
//  #03 //029   ----------------------------------------
 BYTE   PATT
  POIN2 Label_5698C2
//  #03 //030   ----------------------------------------
 BYTE   PATT
  POIN2 Label_5698DA
//  #03 //031   ----------------------------------------
 BYTE   PATT
  POIN2 Label_5698ED
//  #03 //032   ----------------------------------------
 BYTE   N12  Gs2  v041
 BYTE   W12
 BYTE   Gs2
 BYTE   W12
 BYTE   Gs2
 BYTE   W12
 BYTE   Bn2
 BYTE   W12
 BYTE   Gs2
 BYTE   W12
 BYTE   Gs2
 BYTE   W12
 BYTE   Bn2
 BYTE   W12
 BYTE   As2
 BYTE   W12
//  #03 //033   ----------------------------------------
 BYTE   Fs2
 BYTE   W12
 BYTE   Fs2
 BYTE   W12
 BYTE   Fs2
 BYTE   W12
 BYTE   Gs2
 BYTE   W12
 BYTE   Fs2
 BYTE   W12
 BYTE   Fs2
 BYTE   W12
 BYTE   As2
 BYTE   W12
 BYTE   Gs2
 BYTE   W12
//  #03 //034   ----------------------------------------
 BYTE   Fs2
 BYTE   W12
 BYTE   Fs2
 BYTE   W12
 BYTE   Ds2
 BYTE   W12
 BYTE   Fs2
 BYTE   W12
 BYTE   Fs2
 BYTE   W12
 BYTE   Fs2
 BYTE   W12
 BYTE   Cs2
 BYTE   W12
 BYTE   Ds2
 BYTE   W12
//  #03 //035   ----------------------------------------
 BYTE   En2
 BYTE   W12
 BYTE   En2
 BYTE   W12
 BYTE   En2
 BYTE   W12
 BYTE   Fs2
 BYTE   W12
 BYTE   En2
 BYTE   W12
 BYTE   En2
 BYTE   W12
 BYTE   Fs2
 BYTE   W12
 BYTE   Gn2
 BYTE   W12
//  #03 //036   ----------------------------------------
 BYTE   PATT
  POIN2 Label_569836
//  #03 //037   ----------------------------------------
Label_569959:
 BYTE   N12  Fs2  v041
 BYTE   W24
 BYTE   Cs2
 BYTE   W24
 BYTE   Fs2
 BYTE   W24
 BYTE   Cs2
 BYTE   W24
 BYTE   PEND 
//  #03 //038   ----------------------------------------
 BYTE   PATT
  POIN2 Label_569959
//  #03 //039   ----------------------------------------
 BYTE   PATT
  POIN2 Label_569846
//  #03 //040   ----------------------------------------
 BYTE   PATT
  POIN2 Label_569836
//  #03 //041   ----------------------------------------
 BYTE   PATT
  POIN2 Label_569959
//  #03 //042   ----------------------------------------
 BYTE   PATT
  POIN2 Label_569959
//  #03 //043   ----------------------------------------
 BYTE   PATT
  POIN2 Label_569846
//  #03 //044   ----------------------------------------
 BYTE   PATT
  POIN2 Label_569836
//  #03 //045   ----------------------------------------
 BYTE   PATT
  POIN2 Label_569836
//  #03 //046   ----------------------------------------
 BYTE   PATT
  POIN2 Label_569846
//  #03 //047   ----------------------------------------
 BYTE   PATT
  POIN2 Label_569851
//  #03 //048   ----------------------------------------
 BYTE   PATT
  POIN2 Label_569836
//  #03 //049   ----------------------------------------
 BYTE   PATT
  POIN2 Label_569836
//  #03 //050   ----------------------------------------
 BYTE   PATT
  POIN2 Label_569846
//  #03 //051   ----------------------------------------
 BYTE   PATT
  POIN2 Label_569851
//  #03 //052   ----------------------------------------
 BYTE   PATT
  POIN2 Label_569870
//  #03 //053   ----------------------------------------
 BYTE   PATT
  POIN2 Label_569870
//  #03 //054   ----------------------------------------
 BYTE   PATT
  POIN2 Label_569888
//  #03 //055   ----------------------------------------
 BYTE   PATT
  POIN2 Label_56989B
//  #03 //056   ----------------------------------------
 BYTE   PATT
  POIN2 Label_569870
//  #03 //057   ----------------------------------------
 BYTE   PATT
  POIN2 Label_569870
//  #03 //058   ----------------------------------------
 BYTE   PATT
  POIN2 Label_569888
//  #03 //059   ----------------------------------------
 BYTE   PATT
  POIN2 Label_56989B
//  #03 //060   ----------------------------------------
 BYTE   N12  Ds2  v041
 BYTE   W12
 BYTE   Ds2
 BYTE   W12
 BYTE   Ds2
 BYTE   W12
 BYTE   Ds2
 BYTE   W12
 BYTE   Ds2
 BYTE   W12
 BYTE   Ds2
 BYTE   W12
 BYTE   Bn1
 BYTE   W12
 BYTE   Bn1
 BYTE   W12
//  #03 //061   ----------------------------------------
 BYTE   Gs1
 BYTE   W12
 BYTE   Gs1
 BYTE   W12
 BYTE   Gs1
 BYTE   W12
 BYTE   Gs1
 BYTE   W12
 BYTE   Gs1
 BYTE   W12
 BYTE   Gs1
 BYTE   W12
 BYTE   Gs1
 BYTE   W12
 BYTE   Gs1
 BYTE   W12
//  #03 //062   ----------------------------------------
 BYTE   N48
 BYTE   W48
 BYTE   N48  Gs1  v041
 BYTE   W48
//  #03 //063   ----------------------------------------
 BYTE   Gs1
 BYTE   W48
 BYTE   Gs1
 BYTE   W30
 BYTE   W18
//  #03 //064   ----------------------------------------
 BYTE   GoTo
  POIN2 Label_5697DC
 BYTE   FINE

//**************** Track 4 (Midi-Chn.3) ****************//

Konpeko_004:
//  #04 //000   ----------------------------------------
Label_01847AE4:
 BYTE   VOL   50*Konpeko_mvl/mxv
 BYTE   KEYSH   Konpeko_key+0
 BYTE   VOICE   48
 BYTE   LFOS 44
 BYTE   MODT 0
 BYTE   N96  Gs2  v041
 BYTE   N96  Ds3
 BYTE   TEMPO   120*Konpeko_tbs/2
 BYTE   W96
//  #04 //001   ----------------------------------------
 BYTE   N96  Gs2  v041
 BYTE   N96  Bn2
 BYTE   W96
//  #04 //002   ----------------------------------------
 BYTE   En2
 BYTE   N96  Bn2
 BYTE   W96
//  #04 //003   ----------------------------------------
 BYTE   Ds2
 BYTE   N96  As2
 BYTE   W96
//  #04 //004   ----------------------------------------
Label_01847B04:
 BYTE   N96  Gs2  v041
 BYTE   N96  Bn2
 BYTE   N96  Ds3
 BYTE   W96
 BYTE   PEND 
//  #04 //005   ----------------------------------------
 BYTE   PATT
  POIN2 Label_01847B04
//  #04 //006   ----------------------------------------
 BYTE   N96  Gs2  v041
 BYTE   N96  Bn2
 BYTE   N96  En3
 BYTE   W96
//  #04 //007   ----------------------------------------
 BYTE   Fs2
 BYTE   N96  As2
 BYTE   N96  Ds3
 BYTE   W96
//  #04 //008   ----------------------------------------
Label_01847B20:
 BYTE   N96  Ds3  v041
 BYTE   N96  Gs3
 BYTE   N96  Bn2
 BYTE   W96
 BYTE   PEND 
//  #04 //009   ----------------------------------------
Label_01847B29:
 BYTE   N96  Ds3  v041
 BYTE   N96  Gs3
 BYTE   N96  As2
 BYTE   W96
 BYTE   PEND 
//  #04 //010   ----------------------------------------
Label_01847B32:
 BYTE   N96  Bn2  v041
 BYTE   N96  En3
 BYTE   N96  Gs3
 BYTE   W96
 BYTE   PEND 
//  #04 //011   ----------------------------------------
Label_01847B3B:
 BYTE   N96  As2  v041
 BYTE   N96  Ds3
 BYTE   N96  Fs3
 BYTE   W96
 BYTE   PEND 
//  #04 //012   ----------------------------------------
 BYTE   PATT
  POIN2 Label_01847B20
//  #04 //013   ----------------------------------------
 BYTE   PATT
  POIN2 Label_01847B29
//  #04 //014   ----------------------------------------
 BYTE   PATT
  POIN2 Label_01847B32
//  #04 //015   ----------------------------------------
 BYTE   PATT
  POIN2 Label_01847B3B
//  #04 //016   ----------------------------------------
 BYTE   PATT
  POIN2 Label_01847B20
//  #04 //017   ----------------------------------------
 BYTE   PATT
  POIN2 Label_01847B29
//  #04 //018   ----------------------------------------
 BYTE   PATT
  POIN2 Label_01847B32
//  #04 //019   ----------------------------------------
 BYTE   PATT
  POIN2 Label_01847B3B
//  #04 //020   ----------------------------------------
 BYTE   PATT
  POIN2 Label_01847B20
//  #04 //021   ----------------------------------------
 BYTE   PATT
  POIN2 Label_01847B29
//  #04 //022   ----------------------------------------
 BYTE   PATT
  POIN2 Label_01847B32
//  #04 //023   ----------------------------------------
 BYTE   PATT
  POIN2 Label_01847B3B
//  #04 //024   ----------------------------------------
Label_01847B80:
 BYTE   N96  Gs2  v041
 BYTE   N96  Fs3
 BYTE   N96  Ds3
 BYTE   W96
 BYTE   PEND 
//  #04 //025   ----------------------------------------
Label_01847B89:
 BYTE   N96  Gs2  v041
 BYTE   N96  Bn2
 BYTE   N96  Fs3
 BYTE   W96
 BYTE   PEND 
//  #04 //026   ----------------------------------------
Label_01847B92:
 BYTE   N96  En2  v041
 BYTE   N96  Bn2
 BYTE   N96  Ds3
 BYTE   W96
 BYTE   PEND 
//  #04 //027   ----------------------------------------
Label_01847B9B:
 BYTE   N96  Fs2  v041
 BYTE   N96  Cs3
 BYTE   N96  As3
 BYTE   W96
 BYTE   PEND 
//  #04 //028   ----------------------------------------
 BYTE   PATT
  POIN2 Label_01847B80
//  #04 //029   ----------------------------------------
 BYTE   PATT
  POIN2 Label_01847B89
//  #04 //030   ----------------------------------------
 BYTE   PATT
  POIN2 Label_01847B92
//  #04 //031   ----------------------------------------
 BYTE   PATT
  POIN2 Label_01847B9B
//  #04 //032   ----------------------------------------
Label_01847BB8:
 BYTE   N96  Gs2  v041
 BYTE   N96  Ds3
 BYTE   N96  Gs3
 BYTE   W96
 BYTE   PEND 
//  #04 //033   ----------------------------------------
Label_01847BC1:
 BYTE   N96  Fs2  v041
 BYTE   N96  Cs3
 BYTE   N96  Fs3
 BYTE   W96
 BYTE   PEND 
//  #04 //034   ----------------------------------------
Label_01847BCA:
 BYTE   N96  Fs3  v041
 BYTE   N96  Cs3
 BYTE   N96  Fs2
 BYTE   W96
 BYTE   PEND 
//  #04 //035   ----------------------------------------
Label_01847BD3:
 BYTE   N96  En3  v041
 BYTE   N96  Bn2
 BYTE   N96  En2
 BYTE   W96
 BYTE   PEND 
//  #04 //036   ----------------------------------------
 BYTE   PATT
  POIN2 Label_01847BB8
//  #04 //037   ----------------------------------------
 BYTE   PATT
  POIN2 Label_01847BC1
//  #04 //038   ----------------------------------------
 BYTE   PATT
  POIN2 Label_01847BCA
//  #04 //039   ----------------------------------------
 BYTE   PATT
  POIN2 Label_01847BD3
//  #04 //040   ----------------------------------------
 BYTE   PATT
  POIN2 Label_01847BB8
//  #04 //041   ----------------------------------------
 BYTE   PATT
  POIN2 Label_01847BC1
//  #04 //042   ----------------------------------------
 BYTE   PATT
  POIN2 Label_01847BCA
//  #04 //043   ----------------------------------------
 BYTE   PATT
  POIN2 Label_01847BD3
//  #04 //044   ----------------------------------------
 BYTE   PATT
  POIN2 Label_01847B20
//  #04 //045   ----------------------------------------
 BYTE   PATT
  POIN2 Label_01847B29
//  #04 //046   ----------------------------------------
 BYTE   PATT
  POIN2 Label_01847B32
//  #04 //047   ----------------------------------------
 BYTE   PATT
  POIN2 Label_01847B3B
//  #04 //048   ----------------------------------------
 BYTE   PATT
  POIN2 Label_01847B20
//  #04 //049   ----------------------------------------
 BYTE   PATT
  POIN2 Label_01847B29
//  #04 //050   ----------------------------------------
 BYTE   PATT
  POIN2 Label_01847B32
//  #04 //051   ----------------------------------------
 BYTE   N96  As2  v041
 BYTE   N96  Ds3
 BYTE   N96  Fs3
 BYTE   W96
//  #04 //052   ----------------------------------------
 BYTE   W12
Label_01847C30:
 BYTE   N06  Gs3  v041
 BYTE   N06  Bn3
 BYTE   N06  Ds3
 BYTE   W24
 BYTE   Gs3
 BYTE   N06  Bn3
 BYTE   N06  Ds3
 BYTE   W36
 BYTE   Gs3
 BYTE   N06  Bn3
 BYTE   N06  Ds3
 BYTE   W12
 BYTE   Gs3
 BYTE   N06  Bn3
 BYTE   N06  Ds3
 BYTE   W24
 BYTE   PEND 
//  #04 //053   ----------------------------------------
Label_01847C4B:
 BYTE   N06  Gs3  v041
 BYTE   N06  Bn3
 BYTE   N06  Ds3
 BYTE   W24
 BYTE   Gs3
 BYTE   N06  Bn3
 BYTE   N06  Ds3
 BYTE   W36
 BYTE   Gs3
 BYTE   N06  Ds3
 BYTE   N06  Bn3
 BYTE   W12
 BYTE   Gs3
 BYTE   N06  Bn3
 BYTE   N06  Ds3
 BYTE   W24
 BYTE   PEND 
//  #04 //054   ----------------------------------------
Label_01847C66:
 BYTE   N06  Gs3  v041
 BYTE   N06  Ds3
 BYTE   N06  Bn3
 BYTE   W24
 BYTE   Gs3
 BYTE   N06  Bn3
 BYTE   N06  Ds3
 BYTE   W36
 BYTE   Gs3
 BYTE   N06  Bn3
 BYTE   N06  Ds3
 BYTE   W12
 BYTE   Gs3
 BYTE   N06  Bn3
 BYTE   N06  Ds3
 BYTE   W12
 BYTE   N12  Cs3
 BYTE   N12  Cs4
 BYTE   W12
 BYTE   PEND 
//  #04 //055   ----------------------------------------
 BYTE   N06  Gs3  v041
 BYTE   N06  Bn3
 BYTE   N06  Ds3
 BYTE   W12
 BYTE   Cs3
 BYTE   N06  Cs4
 BYTE   W12
 BYTE   Gs3
 BYTE   N06  Ds3
 BYTE   N06  Bn3
 BYTE   W12
 BYTE   N24  Cs3
 BYTE   N24  Cs4
 BYTE   W24
 BYTE   N06  Gs3
 BYTE   N06  Ds3
 BYTE   N06  Bn3
 BYTE   W12
 BYTE   Gs3
 BYTE   N06  Bn3
 BYTE   N06  Ds3
 BYTE   W24
//  #04 //056   ----------------------------------------
 BYTE   PATT
  POIN2 Label_01847C30
//  #04 //057   ----------------------------------------
 BYTE   PATT
  POIN2 Label_01847C4B
//  #04 //058   ----------------------------------------
 BYTE   PATT
  POIN2 Label_01847C66
//  #04 //059   ----------------------------------------
 BYTE   N06  Gs3  v041
 BYTE   N06  Bn3
 BYTE   N06  Ds3
 BYTE   W12
 BYTE   Cs3
 BYTE   N06  Cs4
 BYTE   W12
 BYTE   Gs3
 BYTE   N06  Ds3
 BYTE   N06  Bn3
 BYTE   W12
 BYTE   N24  Cs3
 BYTE   N24  Cs4
 BYTE   W24
 BYTE   N06  Gs3
 BYTE   N06  Ds3
 BYTE   N06  Bn3
 BYTE   W12
 BYTE   Gs3
 BYTE   N06  Bn3
 BYTE   N06  Ds3
 BYTE   W12
 BYTE   N96  Ds4
 BYTE   N96  Fs4
 BYTE   N96  As3
 BYTE   W96
//  #04 //060   ----------------------------------------
 BYTE   Gs3
 BYTE   N96  Bn3
 BYTE   N96  Ds4
 BYTE   W96
//  #04 //061   ----------------------------------------
 BYTE   Bn3
 BYTE   N96  Gs3
 BYTE   N96  Ds3
 BYTE   W96
//  #04 //062   ----------------------------------------
 BYTE   N96  Ds3  v041
 BYTE   N96  Gs3
 BYTE   N96  Bn3
 BYTE   W78
 BYTE   W18
//  #04 //063   ----------------------------------------
 BYTE   GoTo
  POIN2 Label_01847AE4
 BYTE   FINE

//**************** Track 5 (Midi-Chn.4) ****************//

Konpeko_005:
//  #05 //000   ----------------------------------------
Label_01847D00:
 BYTE   VOL   65*Konpeko_mvl/mxv
 BYTE   KEYSH   Konpeko_key+0
 BYTE   VOICE   11
 BYTE   PAN   c_v+34
 BYTE   LFOS 44
 BYTE   MODT 0
 BYTE   TEMPO   120*Konpeko_tbs/2
 BYTE   W48
 BYTE   N48  Gs3  v041
 BYTE   W96
//  #05 //001   ----------------------------------------
 BYTE   Gs3
 BYTE   W96
//  #05 //002   ----------------------------------------
 BYTE   En3
 BYTE   W96
//  #05 //003   ----------------------------------------
Label_01847D17:
 BYTE   N48  Ds3  v041
 BYTE   W48
 BYTE   N12  Gs2
 BYTE   W12
 BYTE   Bn2
 BYTE   W12
 BYTE   Gs2
 BYTE   W12
 BYTE   Ds3
 BYTE   W12
 BYTE   PEND 
//  #05 //004   ----------------------------------------
Label_01847D25:
 BYTE   N12  En3  v041
 BYTE   W12
 BYTE   Ds3
 BYTE   W12
 BYTE   Cs3
 BYTE   W12
 BYTE   Bn2
 BYTE   W12
 BYTE   Gs2
 BYTE   W12
 BYTE   Bn2
 BYTE   W12
 BYTE   Gs2
 BYTE   W12
 BYTE   Ds3
 BYTE   W12
 BYTE   PEND 
//  #05 //005   ----------------------------------------
Label_01847D38:
 BYTE   N12  En3  v041
 BYTE   W12
 BYTE   Ds3
 BYTE   W12
 BYTE   As2
 BYTE   W12
 BYTE   Fs2
 BYTE   W12
 BYTE   En2
 BYTE   W12
 BYTE   Gs2
 BYTE   W12
 BYTE   En2
 BYTE   W12
 BYTE   Bn2
 BYTE   W12
 BYTE   PEND 
//  #05 //006   ----------------------------------------
Label_01847D4B:
 BYTE   N12  Cs3  v041
 BYTE   W12
 BYTE   Bn2
 BYTE   W12
 BYTE   Fs2
 BYTE   W12
 BYTE   En2
 BYTE   W12
 BYTE   Ds2
 BYTE   W12
 BYTE   Fs2
 BYTE   W12
 BYTE   Ds2
 BYTE   W12
 BYTE   As2
 BYTE   W12
 BYTE   PEND 
//  #05 //007   ----------------------------------------
 BYTE   N12  Bn2  v041
 BYTE   W12
 BYTE   As2
 BYTE   W12
 BYTE   Gs2
 BYTE   W12
 BYTE   Fs2
 BYTE   W12
 BYTE   N48  Gs3
 BYTE   W48
//  #05 //008   ----------------------------------------
Label_01847D6B:
 BYTE   N48  Gs3  v041
 BYTE   W48
 BYTE   Gs3
 BYTE   W48
 BYTE   PEND 
//  #05 //009   ----------------------------------------
Label_01847D72:
 BYTE   N48  Gs3  v041
 BYTE   W48
 BYTE   En3
 BYTE   W48
 BYTE   PEND 
//  #05 //010   ----------------------------------------
Label_01847D79:
 BYTE   N48  En3  v041
 BYTE   W48
 BYTE   Ds3
 BYTE   W48
 BYTE   PEND 
//  #05 //011   ----------------------------------------
 BYTE   N48  Ds3  v041
 BYTE   W48
 BYTE   Gs3
 BYTE   W48
//  #05 //012   ----------------------------------------
 BYTE   PATT
  POIN2 Label_01847D6B
//  #05 //013   ----------------------------------------
 BYTE   PATT
  POIN2 Label_01847D72
//  #05 //014   ----------------------------------------
 BYTE   PATT
  POIN2 Label_01847D79
//  #05 //015   ----------------------------------------
 BYTE   PATT
  POIN2 Label_01847D17
//  #05 //016   ----------------------------------------
 BYTE   PATT
  POIN2 Label_01847D25
//  #05 //017   ----------------------------------------
 BYTE   PATT
  POIN2 Label_01847D38
//  #05 //018   ----------------------------------------
 BYTE   PATT
  POIN2 Label_01847D4B
//  #05 //019   ----------------------------------------
 BYTE   N12  Bn2  v041
 BYTE   W12
 BYTE   As2
 BYTE   W12
 BYTE   Gs2
 BYTE   W12
 BYTE   Fs2
 BYTE   W12
 BYTE   Gs2
 BYTE   W12
 BYTE   Bn2
 BYTE   W12
 BYTE   Gs2
 BYTE   W12
 BYTE   Ds3
 BYTE   W12
//  #05 //020   ----------------------------------------
 BYTE   PATT
  POIN2 Label_01847D25
//  #05 //021   ----------------------------------------
 BYTE   PATT
  POIN2 Label_01847D38
//  #05 //022   ----------------------------------------
 BYTE   PATT
  POIN2 Label_01847D4B
//  #05 //023   ----------------------------------------
 BYTE   N12  Bn2  v041
 BYTE   W12
 BYTE   As2
 BYTE   W12
 BYTE   Gs2
 BYTE   W12
 BYTE   Fs2
 BYTE   W84
//  #05 //024   ----------------------------------------
Label_01847DD4:
 BYTE   N12  Gs3  v041
 BYTE   W12
 BYTE   Gs3
 BYTE   W84
 BYTE   PEND 
//  #05 //025   ----------------------------------------
 BYTE   PATT
  POIN2 Label_01847DD4
//  #05 //026   ----------------------------------------
Label_01847DE0:
 BYTE   N12  En3  v041
 BYTE   W12
 BYTE   En3
 BYTE   W84
 BYTE   PEND 
//  #05 //027   ----------------------------------------
 BYTE   N12  Ds3  v041
 BYTE   W12
 BYTE   Ds3
 BYTE   W84
//  #05 //028   ----------------------------------------
 BYTE   PATT
  POIN2 Label_01847DD4
//  #05 //029   ----------------------------------------
 BYTE   PATT
  POIN2 Label_01847DD4
//  #05 //030   ----------------------------------------
 BYTE   PATT
  POIN2 Label_01847DE0
//  #05 //031   ----------------------------------------
 BYTE   N12  Ds3  v041
 BYTE   W12
 BYTE   Ds3
 BYTE   W12
 BYTE   Gs2
 BYTE   W12
 BYTE   Gs2
 BYTE   W12
 BYTE   Gs2
 BYTE   W12
 BYTE   Bn2
 BYTE   W12
 BYTE   Gs2
 BYTE   W12
 BYTE   Gs2
 BYTE   W12
//  #05 //032   ----------------------------------------
 BYTE   Bn2
 BYTE   W12
 BYTE   As2
 BYTE   W12
 BYTE   Fs2
 BYTE   W12
 BYTE   Fs2
 BYTE   W12
 BYTE   Fs2
 BYTE   W12
 BYTE   Gs2
 BYTE   W12
 BYTE   Fs2
 BYTE   W12
 BYTE   Fs2
 BYTE   W12
//  #05 //033   ----------------------------------------
 BYTE   As2
 BYTE   W12
 BYTE   Gs2
 BYTE   W12
 BYTE   Fs2
 BYTE   W12
 BYTE   Fs2
 BYTE   W12
 BYTE   Ds2
 BYTE   W12
 BYTE   Fs2
 BYTE   W12
 BYTE   Fs2
 BYTE   W12
 BYTE   Fs2
 BYTE   W12
//  #05 //034   ----------------------------------------
 BYTE   Cs2
 BYTE   W12
 BYTE   Ds2
 BYTE   W12
 BYTE   En2
 BYTE   W12
 BYTE   En2
 BYTE   W12
 BYTE   En2
 BYTE   W12
 BYTE   Fs2
 BYTE   W12
 BYTE   En2
 BYTE   W12
 BYTE   En2
 BYTE   W12
//  #05 //035   ----------------------------------------
 BYTE   Fs2
 BYTE   W12
 BYTE   Gn2
 BYTE   W96
//  #05 //036   ----------------------------------------
 BYTE   W96
//  #05 //037   ----------------------------------------
 BYTE   W96
//  #05 //038   ----------------------------------------
 BYTE   W96
//  #05 //039   ----------------------------------------
 BYTE   W12
 BYTE   Gs2
 BYTE   W12
 BYTE   Bn2
 BYTE   W12
 BYTE   Gs2
 BYTE   W12
 BYTE   Ds3
 BYTE   W12
 BYTE   En3
 BYTE   W12
 BYTE   Ds3
 BYTE   W12
 BYTE   Cs3
 BYTE   W12
//  #05 //040   ----------------------------------------
 BYTE   Bn2
 BYTE   W12
 BYTE   Gs2
 BYTE   W12
 BYTE   Bn2
 BYTE   W12
 BYTE   Gs2
 BYTE   W12
 BYTE   Ds3
 BYTE   W12
 BYTE   En3
 BYTE   W12
 BYTE   Ds3
 BYTE   W12
 BYTE   As2
 BYTE   W12
//  #05 //041   ----------------------------------------
 BYTE   Fs2
 BYTE   W12
 BYTE   En2
 BYTE   W12
 BYTE   Gs2
 BYTE   W12
 BYTE   En2
 BYTE   W12
 BYTE   Bn2
 BYTE   W12
 BYTE   Cs3
 BYTE   W12
 BYTE   Bn2
 BYTE   W12
 BYTE   Fs2
 BYTE   W12
//  #05 //042   ----------------------------------------
 BYTE   En2
 BYTE   W12
 BYTE   Ds2
 BYTE   W12
 BYTE   Fs2
 BYTE   W12
 BYTE   Ds2
 BYTE   W12
 BYTE   As2
 BYTE   W12
 BYTE   Bn2
 BYTE   W12
 BYTE   As2
 BYTE   W12
 BYTE   Gs2
 BYTE   W12
//  #05 //043   ----------------------------------------
 BYTE   Fs2
 BYTE   W12
//  #05 //044   ----------------------------------------
 BYTE   PATT
  POIN2 Label_01847D6B
//  #05 //045   ----------------------------------------
 BYTE   PATT
  POIN2 Label_01847D6B
//  #05 //046   ----------------------------------------
Label_01847E90:
 BYTE   N48  En3  v041
 BYTE   W48
 BYTE   En3
 BYTE   W48
 BYTE   PEND 
//  #05 //047   ----------------------------------------
 BYTE   N48  Ds3  v041
 BYTE   W48
 BYTE   Ds3
 BYTE   W48
//  #05 //048   ----------------------------------------
 BYTE   PATT
  POIN2 Label_01847D6B
//  #05 //049   ----------------------------------------
 BYTE   PATT
  POIN2 Label_01847D6B
//  #05 //050   ----------------------------------------
 BYTE   PATT
  POIN2 Label_01847E90
//  #05 //051   ----------------------------------------
 BYTE   N48  Ds3  v041
 BYTE   W48
 BYTE   Ds3
 BYTE   W60
//  #05 //052   ----------------------------------------
Label_01847EB2:
 BYTE   N06  Gs3  v041
 BYTE   W24
 BYTE   Gs3
 BYTE   W36
 BYTE   Gs3
 BYTE   W12
 BYTE   Gs3
 BYTE   W24
 BYTE   PEND 
//  #05 //053   ----------------------------------------
 BYTE   PATT
  POIN2 Label_01847EB2
//  #05 //054   ----------------------------------------
Label_01847EC2:
 BYTE   N06  Gs3  v041
 BYTE   W24
 BYTE   Gs3
 BYTE   W36
 BYTE   Gs3
 BYTE   W12
 BYTE   Gs3
 BYTE   W12
 BYTE   N12  Cs3
 BYTE   W12
 BYTE   PEND 
//  #05 //055   ----------------------------------------
 BYTE   N06  Gs3  v041
 BYTE   W12
 BYTE   Cs3
 BYTE   W12
 BYTE   Gs3
 BYTE   W12
 BYTE   N24  Cs3
 BYTE   W24
 BYTE   N06  Gs3
 BYTE   W12
 BYTE   Gs3
 BYTE   W24
//  #05 //056   ----------------------------------------
 BYTE   PATT
  POIN2 Label_01847EB2
//  #05 //057   ----------------------------------------
 BYTE   PATT
  POIN2 Label_01847EB2
//  #05 //058   ----------------------------------------
 BYTE   PATT
  POIN2 Label_01847EC2
//  #05 //059   ----------------------------------------
 BYTE   N06  Gs3  v041
 BYTE   W12
 BYTE   Cs3
 BYTE   W12
 BYTE   Gs3
 BYTE   W12
 BYTE   N24  Cs3
 BYTE   W24
 BYTE   N06  Gs3
 BYTE   W12
 BYTE   Gs3
 BYTE   W12
 BYTE   N12  Ds2
 BYTE   W12
//  #05 //060   ----------------------------------------
 BYTE   Fs2
 BYTE   W12
 BYTE   As2
 BYTE   W12
 BYTE   Ds3
 BYTE   W12
 BYTE   Fs3
 BYTE   W12
 BYTE   Ds3
 BYTE   W12
 BYTE   As2
 BYTE   W12
 BYTE   Fs2
 BYTE   W12
 BYTE   Gs2
 BYTE   W12
//  #05 //061   ----------------------------------------
 BYTE   Bn2
 BYTE   W12
 BYTE   Ds3
 BYTE   W12
 BYTE   Gs3
 BYTE   W12
 BYTE   N24
 BYTE   W24
 BYTE   Gs3
 BYTE   W24
 BYTE   W48
//  #05 //062   ----------------------------------------
 BYTE   N48  Gs3  v041
 BYTE   W96
//  #05 //063   ----------------------------------------
 BYTE   Gs3
 BYTE   W30
 BYTE   W18
 BYTE   GoTo
  POIN2 Label_01847D00
 BYTE   FINE

//**************** Track 6 (Midi-Chn.5) ****************//

Konpeko_006:
//  #06 //000   ----------------------------------------
Label_01847F2C:
 BYTE   VOL   55*Konpeko_mvl/mxv
 BYTE   KEYSH   Konpeko_key+0
 BYTE   VOICE   73
 BYTE   PAN   c_v-32
 BYTE   LFOS 44
 BYTE   MODT 0
 BYTE   N24  Gs3  v041
 BYTE   TEMPO   120*Konpeko_tbs/2
 BYTE   W24
 BYTE   N12  Bn3  v041
 BYTE   W12
 BYTE   As3
 BYTE   W12
 BYTE   Bn3
 BYTE   W12
 BYTE   As3
 BYTE   W12
 BYTE   N24  Gs3
 BYTE   W24
//  #06 //001   ----------------------------------------
 BYTE   N48
 BYTE   W48
 BYTE   N24  Bn3
 BYTE   W24
 BYTE   Ds4
 BYTE   W24
//  #06 //002   ----------------------------------------
 BYTE   En3
 BYTE   W24
 BYTE   N12  Gs3
 BYTE   W12
 BYTE   Fs3
 BYTE   W12
 BYTE   N48  En3
 BYTE   W48
//  #06 //003   ----------------------------------------
 BYTE   Ds3
 BYTE   W48
 BYTE   N12  En3
 BYTE   W12
 BYTE   Ds3
 BYTE   W12
 BYTE   Fs3
 BYTE   W12
 BYTE   Ds3
 BYTE   W24
//  #06 //004   ----------------------------------------
Label_01847F67:
 BYTE   N06  Gs3  v041
 BYTE   W24
 BYTE   Gs3
 BYTE   W24
 BYTE   Gs3
 BYTE   W24
 BYTE   Gs3
 BYTE   W24
 BYTE   PEND 
//  #06 //005   ----------------------------------------
 BYTE   PATT
  POIN2 Label_01847F67
//  #06 //006   ----------------------------------------
Label_01847F77:
 BYTE   N06  En3  v041
 BYTE   W24
 BYTE   En3
 BYTE   W24
 BYTE   En3
 BYTE   W24
 BYTE   En3
 BYTE   W24
 BYTE   PEND 
//  #06 //007   ----------------------------------------
 BYTE   N06  Ds3  v041
 BYTE   W24
 BYTE   Ds3
 BYTE   W24
 BYTE   Ds3
 BYTE   W18
 BYTE   Fs3
 BYTE   W12
 BYTE   Fs3
 BYTE   W18
//  #06 //008   ----------------------------------------
 BYTE   PATT
  POIN2 Label_01847F67
//  #06 //009   ----------------------------------------
 BYTE   PATT
  POIN2 Label_01847F67
//  #06 //010   ----------------------------------------
 BYTE   PATT
  POIN2 Label_01847F77
//  #06 //011   ----------------------------------------
Label_01847F9D:
 BYTE   N06  Ds3  v041
 BYTE   W24
 BYTE   Ds3
 BYTE   W24
 BYTE   Ds3
 BYTE   W24
 BYTE   Ds3
 BYTE   W24
 BYTE   PEND 
//  #06 //012   ----------------------------------------
 BYTE   PATT
  POIN2 Label_01847F67
//  #06 //013   ----------------------------------------
 BYTE   PATT
  POIN2 Label_01847F67
//  #06 //014   ----------------------------------------
 BYTE   PATT
  POIN2 Label_01847F77
//  #06 //015   ----------------------------------------
 BYTE   PATT
  POIN2 Label_01847F9D
//  #06 //016   ----------------------------------------
 BYTE   PATT
  POIN2 Label_01847F67
//  #06 //017   ----------------------------------------
 BYTE   PATT
  POIN2 Label_01847F67
//  #06 //018   ----------------------------------------
 BYTE   PATT
  POIN2 Label_01847F77
//  #06 //019   ----------------------------------------
 BYTE   PATT
  POIN2 Label_01847F9D
//  #06 //020   ----------------------------------------
 BYTE   PATT
  POIN2 Label_01847F67
//  #06 //021   ----------------------------------------
 BYTE   PATT
  POIN2 Label_01847F67
//  #06 //022   ----------------------------------------
 BYTE   PATT
  POIN2 Label_01847F77
//  #06 //023   ----------------------------------------
 BYTE   N06  Ds3  v041
 BYTE   W24
 BYTE   Ds3
 BYTE   W24
 BYTE   Ds3
 BYTE   W24
 BYTE   Ds3
 BYTE   W84
//  #06 //024   ----------------------------------------
Label_01847FE9:
 BYTE   N06  Gs3  v041
 BYTE   W12
 BYTE   Gs3
 BYTE   W84
 BYTE   PEND 
//  #06 //025   ----------------------------------------
 BYTE   PATT
  POIN2 Label_01847FE9
//  #06 //026   ----------------------------------------
Label_01847FF5:
 BYTE   N06  En3  v041
 BYTE   W12
 BYTE   En3
 BYTE   W84
 BYTE   PEND 
//  #06 //027   ----------------------------------------
 BYTE   N06  Ds3  v041
 BYTE   W12
 BYTE   Ds3
 BYTE   W84
//  #06 //028   ----------------------------------------
 BYTE   PATT
  POIN2 Label_01847FE9
//  #06 //029   ----------------------------------------
 BYTE   PATT
  POIN2 Label_01847FE9
//  #06 //030   ----------------------------------------
 BYTE   PATT
  POIN2 Label_01847FF5
//  #06 //031   ----------------------------------------
 BYTE   N06  Ds3  v041
 BYTE   W12
 BYTE   Ds3
 BYTE   W12
 BYTE   N48  Bn3
 BYTE   W48
 BYTE   Ds4
 BYTE   W48
//  #06 //032   ----------------------------------------
Label_0184801C:
 BYTE   N48  Bn3  v041
 BYTE   W48
 BYTE   Ds4
 BYTE   W48
 BYTE   PEND 
//  #06 //033   ----------------------------------------
 BYTE   PATT
  POIN2 Label_0184801C
//  #06 //034   ----------------------------------------
 BYTE   PATT
  POIN2 Label_0184801C
//  #06 //035   ----------------------------------------
 BYTE   N12  Gs3  v041
 BYTE   W12
 BYTE   Bn3
 BYTE   W12
 BYTE   Ds4
 BYTE   W12
 BYTE   Bn3
 BYTE   W12
 BYTE   Gs3
 BYTE   W12
 BYTE   Bn3
 BYTE   W12
 BYTE   Ds4
 BYTE   W12
 BYTE   Bn3
 BYTE   W12
//  #06 //036   ----------------------------------------
Label_0184803F:
 BYTE   N12  Fs3  v041
 BYTE   W12
 BYTE   As3
 BYTE   W12
 BYTE   Cs4
 BYTE   W12
 BYTE   As3
 BYTE   W12
 BYTE   Fs3
 BYTE   W12
 BYTE   As3
 BYTE   W12
 BYTE   Cs4
 BYTE   W12
 BYTE   As3
 BYTE   W12
 BYTE   PEND 
//  #06 //037   ----------------------------------------
 BYTE   PATT
  POIN2 Label_0184803F
//  #06 //038   ----------------------------------------
 BYTE   N12  En3  v041
 BYTE   W12
 BYTE   Gs3
 BYTE   W12
 BYTE   Bn3
 BYTE   W12
 BYTE   Gs3
 BYTE   W12
 BYTE   En3
 BYTE   W12
 BYTE   Gs3
 BYTE   W12
 BYTE   Bn3
 BYTE   W12
 BYTE   Gs3
 BYTE   W24
//  #06 //039   ----------------------------------------
 BYTE   PATT
  POIN2 Label_01847F67
//  #06 //040   ----------------------------------------
 BYTE   PATT
  POIN2 Label_01847F67
//  #06 //041   ----------------------------------------
Label_01848073:
 BYTE   N06  Gs3  v041
 BYTE   W24
 BYTE   Gs3
 BYTE   W36
 BYTE   Gs3
 BYTE   W12
 BYTE   Gs3
 BYTE   W12
 BYTE   N12  Cs3
 BYTE   W12
 BYTE   PEND 
//  #06 //042   ----------------------------------------
Label_01848081:
 BYTE   N06  Gs3  v041
 BYTE   W12
 BYTE   Cs3
 BYTE   W12
 BYTE   Gs3
 BYTE   W12
 BYTE   N24  Cs3
 BYTE   W24
 BYTE   N06  Gs3
 BYTE   W12
 BYTE   Gs3
 BYTE   W24
 BYTE   PEND 
//  #06 //043   ----------------------------------------
 BYTE   PATT
  POIN2 Label_01847F67
//  #06 //044   ----------------------------------------
 BYTE   PATT
  POIN2 Label_01847F67
//  #06 //045   ----------------------------------------
 BYTE   PATT
  POIN2 Label_01847F67
//  #06 //046   ----------------------------------------
 BYTE   PATT
  POIN2 Label_01847F77
//  #06 //047   ----------------------------------------
 BYTE   PATT
  POIN2 Label_01847F9D
//  #06 //048   ----------------------------------------
 BYTE   PATT
  POIN2 Label_01847F67
//  #06 //049   ----------------------------------------
 BYTE   PATT
  POIN2 Label_01847F77
//  #06 //050   ----------------------------------------
 BYTE   PATT
  POIN2 Label_01847F9D
//  #06 //051   ----------------------------------------
 BYTE   PATT
  POIN2 Label_01847F67
//  #06 //052   ----------------------------------------
 BYTE   PATT
  POIN2 Label_01847F67
//  #06 //053   ----------------------------------------
 BYTE   PATT
  POIN2 Label_01848073
//  #06 //054   ----------------------------------------
 BYTE   PATT
  POIN2 Label_01848081
//  #06 //055   ----------------------------------------
 BYTE   PATT
  POIN2 Label_01847F67
//  #06 //056   ----------------------------------------
 BYTE   PATT
  POIN2 Label_01847F67
//  #06 //057   ----------------------------------------
 BYTE   PATT
  POIN2 Label_01848073
//  #06 //058   ----------------------------------------
 BYTE   N06  Gs3  v041
 BYTE   W12
 BYTE   Cs3
 BYTE   W12
 BYTE   Gs3
 BYTE   W12
 BYTE   N24  Cs3
 BYTE   W24
 BYTE   N06  Gs3
 BYTE   W12
 BYTE   Gs3
 BYTE   W12
 BYTE   N12  Ds2
 BYTE   W12
//  #06 //059   ----------------------------------------
 BYTE   Fs2
 BYTE   W12
 BYTE   As2
 BYTE   W12
 BYTE   Ds3
 BYTE   W12
 BYTE   Fs3
 BYTE   W12
 BYTE   Ds3
 BYTE   W12
 BYTE   As2
 BYTE   W12
 BYTE   Fs2
 BYTE   W12
 BYTE   Gs2
 BYTE   W12
//  #06 //060   ----------------------------------------
 BYTE   Bn2
 BYTE   W12
 BYTE   Ds3
 BYTE   W12
 BYTE   Gs3
 BYTE   W12
 BYTE   N24
 BYTE   W24
 BYTE   Gs3
 BYTE   W24
 BYTE   N48  Bn3
 BYTE   W48
//  #06 //061   ----------------------------------------
 BYTE   N48  As3  v041
 BYTE   W48
 BYTE   Fs3
 BYTE   W48
//  #06 //062   ----------------------------------------
 BYTE   Gs3
 BYTE   W30
 BYTE   W18
 BYTE   GoTo
  POIN2 Label_01847F2C
 BYTE   FINE

//**************** Track 7 (Midi-Chn.6) ****************//

Konpeko_007:
//  #07 //000   ----------------------------------------
Label_56A124:
 BYTE   VOL   50*Konpeko_mvl/mxv
 BYTE   KEYSH   Konpeko_key+0
 BYTE   VOICE   68
 BYTE   PAN   c_v-29
 BYTE   LFOS 44
 BYTE   MODT 0
 BYTE   N24  Gs3  v041
 BYTE   TEMPO   120*Konpeko_tbs/2
 BYTE   W24
 BYTE   N12  Bn3  v041
 BYTE   W12
 BYTE   As3
 BYTE   W12
 BYTE   Bn3
 BYTE   W12
 BYTE   As3
 BYTE   W12
 BYTE   N24  Gs3
 BYTE   W24
//  #07 //001   ----------------------------------------
 BYTE   N48
 BYTE   W48
 BYTE   N24  Bn3
 BYTE   W24
 BYTE   Ds4
 BYTE   W24
//  #07 //002   ----------------------------------------
 BYTE   En3
 BYTE   W24
 BYTE   N12  Gs3
 BYTE   W12
 BYTE   Fs3
 BYTE   W12
 BYTE   N48  En3
 BYTE   W48
//  #07 //003   ----------------------------------------
 BYTE   Ds3
 BYTE   W48
 BYTE   N12  En3
 BYTE   W12
 BYTE   Ds3
 BYTE   W12
 BYTE   Fs3
 BYTE   W12
 BYTE   Ds3
 BYTE   W24
//  #07 //004   ----------------------------------------
Label_56A15F:
 BYTE   N06  Bn3  v041
 BYTE   W30
 BYTE   Bn3
 BYTE   W18
 BYTE   Bn3
 BYTE   W30
 BYTE   Bn3
 BYTE   W18
 BYTE   PEND 
//  #07 //005   ----------------------------------------
 BYTE   PATT
  POIN2 Label_56A15F
//  #07 //006   ----------------------------------------
Label_56A16F:
 BYTE   N06  Gs3  v041
 BYTE   W30
 BYTE   Gs3
 BYTE   W18
 BYTE   Gs3
 BYTE   W30
 BYTE   Gs3
 BYTE   W18
 BYTE   PEND 
//  #07 //007   ----------------------------------------
Label_56A17A:
 BYTE   N06  Fs3  v041
 BYTE   W30
 BYTE   Fs3
 BYTE   W18
 BYTE   Fs3
 BYTE   W30
 BYTE   Fs3
 BYTE   W18
 BYTE   PEND 
//  #07 //008   ----------------------------------------
 BYTE   PATT
  POIN2 Label_56A15F
//  #07 //009   ----------------------------------------
 BYTE   PATT
  POIN2 Label_56A15F
//  #07 //010   ----------------------------------------
 BYTE   PATT
  POIN2 Label_56A16F
//  #07 //011   ----------------------------------------
 BYTE   PATT
  POIN2 Label_56A17A
//  #07 //012   ----------------------------------------
 BYTE   PATT
  POIN2 Label_56A15F
//  #07 //013   ----------------------------------------
 BYTE   PATT
  POIN2 Label_56A15F
//  #07 //014   ----------------------------------------
 BYTE   PATT
  POIN2 Label_56A16F
//  #07 //015   ----------------------------------------
 BYTE   PATT
  POIN2 Label_56A17A
//  #07 //016   ----------------------------------------
 BYTE   PATT
  POIN2 Label_56A15F
//  #07 //017   ----------------------------------------
 BYTE   PATT
  POIN2 Label_56A15F
//  #07 //018   ----------------------------------------
 BYTE   PATT
  POIN2 Label_56A16F
//  #07 //019   ----------------------------------------
 BYTE   PATT
  POIN2 Label_56A17A
//  #07 //020   ----------------------------------------
 BYTE   PATT
  POIN2 Label_56A15F
//  #07 //021   ----------------------------------------
 BYTE   PATT
  POIN2 Label_56A15F
//  #07 //022   ----------------------------------------
 BYTE   PATT
  POIN2 Label_56A16F
//  #07 //023   ----------------------------------------
 BYTE   N06  Fs3  v041
 BYTE   W24
 BYTE   Fs3
 BYTE   W24
 BYTE   Fs3
 BYTE   W24
 BYTE   Fs3
 BYTE   W96
//  #07 //024   ----------------------------------------
 BYTE   W96
//  #07 //025   ----------------------------------------
 BYTE   W96
//  #07 //026   ----------------------------------------
 BYTE   W96
//  #07 //027   ----------------------------------------
 BYTE   W96
//  #07 //028   ----------------------------------------
 BYTE   W96
//  #07 //029   ----------------------------------------
 BYTE   W96
//  #07 //030   ----------------------------------------
 BYTE   W96
//  #07 //031   ----------------------------------------
 BYTE   W12
Label_56A1E2:
 BYTE   N48  Fs3  v041
 BYTE   W48
 BYTE   Gs3
 BYTE   W48
 BYTE   PEND 
//  #07 //032   ----------------------------------------
 BYTE   PATT
  POIN2 Label_56A1E2
//  #07 //033   ----------------------------------------
 BYTE   PATT
  POIN2 Label_56A1E2
//  #07 //034   ----------------------------------------
 BYTE   N48  Fs3  v041
 BYTE   W48
 BYTE   Gs3
 BYTE   W96
//  #07 //035   ----------------------------------------
 BYTE   W96
//  #07 //036   ----------------------------------------
 BYTE   W96
//  #07 //037   ----------------------------------------
 BYTE   W96
//  #07 //038   ----------------------------------------
 BYTE   W60
//  #07 //039   ----------------------------------------
 BYTE   PATT
  POIN2 Label_56A16F
//  #07 //040   ----------------------------------------
 BYTE   PATT
  POIN2 Label_56A16F
//  #07 //041   ----------------------------------------
Label_56A207:
 BYTE   N06  Gs3  v041
 BYTE   W24
 BYTE   Gs3
 BYTE   W36
 BYTE   Gs3
 BYTE   W12
 BYTE   Gs3
 BYTE   W12
 BYTE   N12  Cs3
 BYTE   W12
 BYTE   PEND 
//  #07 //042   ----------------------------------------
Label_56A215:
 BYTE   N06  Gs3  v041
 BYTE   W12
 BYTE   Cs3
 BYTE   W12
 BYTE   Gs3
 BYTE   W12
 BYTE   N24  Cs3
 BYTE   W24
 BYTE   N06  Gs3
 BYTE   W12
 BYTE   Gs3
 BYTE   W24
 BYTE   PEND 
//  #07 //043   ----------------------------------------
 BYTE   PATT
  POIN2 Label_56A15F
//  #07 //044   ----------------------------------------
 BYTE   PATT
  POIN2 Label_56A15F
//  #07 //045   ----------------------------------------
 BYTE   PATT
  POIN2 Label_56A16F
//  #07 //046   ----------------------------------------
 BYTE   PATT
  POIN2 Label_56A17A
//  #07 //047   ----------------------------------------
 BYTE   PATT
  POIN2 Label_56A15F
//  #07 //048   ----------------------------------------
 BYTE   PATT
  POIN2 Label_56A15F
//  #07 //049   ----------------------------------------
 BYTE   PATT
  POIN2 Label_56A16F
//  #07 //050   ----------------------------------------
 BYTE   PATT
  POIN2 Label_56A17A
//  #07 //051   ----------------------------------------
 BYTE   PATT
  POIN2 Label_56A16F
//  #07 //052   ----------------------------------------
 BYTE   PATT
  POIN2 Label_56A16F
//  #07 //053   ----------------------------------------
 BYTE   PATT
  POIN2 Label_56A207
//  #07 //054   ----------------------------------------
 BYTE   PATT
  POIN2 Label_56A215
//  #07 //055   ----------------------------------------
 BYTE   PATT
  POIN2 Label_56A16F
//  #07 //056   ----------------------------------------
 BYTE   PATT
  POIN2 Label_56A16F
//  #07 //057   ----------------------------------------
 BYTE   PATT
  POIN2 Label_56A207
//  #07 //058   ----------------------------------------
 BYTE   N06  Gs3  v041
 BYTE   W12
 BYTE   Cs3
 BYTE   W12
 BYTE   Gs3
 BYTE   W12
 BYTE   N24  Cs3
 BYTE   W24
 BYTE   N06  Gs3
 BYTE   W12
 BYTE   Gs3
 BYTE   W12
 BYTE   N12  Ds2
 BYTE   W12
//  #07 //059   ----------------------------------------
 BYTE   Fs2
 BYTE   W12
 BYTE   As2
 BYTE   W12
 BYTE   Ds3
 BYTE   W12
 BYTE   Fs3
 BYTE   W12
 BYTE   Ds3
 BYTE   W12
 BYTE   As2
 BYTE   W12
 BYTE   Fs2
 BYTE   W12
 BYTE   Gs2
 BYTE   W12
//  #07 //060   ----------------------------------------
 BYTE   Bn2
 BYTE   W12
 BYTE   Ds3
 BYTE   W12
 BYTE   Gs3
 BYTE   W12
 BYTE   N24
 BYTE   W24
 BYTE   Gs3
 BYTE   W24
 BYTE   N48  Bn3
 BYTE   W48
//  #07 //061   ----------------------------------------
 BYTE   N48  As3  v041
 BYTE   W48
 BYTE   Fs3
 BYTE   W48
//  #07 //062   ----------------------------------------
 BYTE   Gs3
 BYTE   W30
 BYTE   W18
 BYTE   GoTo
  POIN2 Label_56A124
 BYTE   FINE

//**************** Track 8 (Midi-Chn.7) ****************//

Konpeko_008:
//  #08 //000   ----------------------------------------
Label_0184811C:
 BYTE   VOL   85*Konpeko_mvl/mxv
 BYTE   KEYSH   Konpeko_key+0
 BYTE   VOICE   61
 BYTE   PAN   c_v+20
 BYTE   LFOS 44
 BYTE   MODT 0
 BYTE   TEMPO   120*Konpeko_tbs/2
 BYTE   W96
//  #08 //001   ----------------------------------------
 BYTE   W96
//  #08 //002   ----------------------------------------
 BYTE   W96
//  #08 //003   ----------------------------------------
 BYTE   W96
//  #08 //004   ----------------------------------------
 BYTE   N96  Gs3  v041
 BYTE   W96
//  #08 //005   ----------------------------------------
 BYTE   N48
 BYTE   W48
 BYTE   Bn3
 BYTE   W48
//  #08 //006   ----------------------------------------
 BYTE   Bn3
 BYTE   W48
 BYTE   N24  Gs3
 BYTE   W24
 BYTE   En3
 BYTE   W24
//  #08 //007   ----------------------------------------
 BYTE   N12  Gs4
 BYTE   W12
 BYTE   Fs4
 BYTE   W12
 BYTE   En4
 BYTE   W12
 BYTE   Ds4
 BYTE   W12
 BYTE   Cs4
 BYTE   W12
 BYTE   Bn3
 BYTE   W12
 BYTE   As3
 BYTE   W12
 BYTE   Gs3
 BYTE   W12
//  #08 //008   ----------------------------------------
Label_0184814E:
 BYTE   N12  Gs3  v041
 BYTE   W12
 BYTE   N06  Cs3
 BYTE   W12
 BYTE   En3
 BYTE   W12
 BYTE   Gs3
 BYTE   W12
 BYTE   N24  Bn3
 BYTE   W24
 BYTE   N12  Gs3
 BYTE   W24
 BYTE   PEND 
//  #08 //009   ----------------------------------------
Label_01848160:
 BYTE   N12  As3  v041
 BYTE   W12
 BYTE   N06  Fs3
 BYTE   W12
 BYTE   Gs3
 BYTE   W12
 BYTE   As3
 BYTE   W12
 BYTE   N24  Cs4
 BYTE   W24
 BYTE   N06  Fs3
 BYTE   W24
 BYTE   PEND 
//  #08 //010   ----------------------------------------
Label_01848172:
 BYTE   N12  Ds4  v041
 BYTE   W12
 BYTE   N06  Cs4
 BYTE   W12
 BYTE   Bn3
 BYTE   W12
 BYTE   As3
 BYTE   W12
 BYTE   N24  Bn3
 BYTE   W24
 BYTE   N06  Fs3
 BYTE   W24
 BYTE   PEND 
//  #08 //011   ----------------------------------------
Label_01848184:
 BYTE   N12  Bn3  v041
 BYTE   W12
 BYTE   N06  As3
 BYTE   W12
 BYTE   Gs3
 BYTE   W12
 BYTE   Fs3
 BYTE   W12
 BYTE   N24  Gs3
 BYTE   W24
 BYTE   N06  Ds3
 BYTE   W24
 BYTE   PEND 
//  #08 //012   ----------------------------------------
Label_01848196:
 BYTE   N06  En3  v041
 BYTE   W12
 BYTE   Fs3
 BYTE   W12
 BYTE   Gs3
 BYTE   W24
 BYTE   Gs3
 BYTE   W12
 BYTE   As3
 BYTE   W12
 BYTE   Bn3
 BYTE   W24
 BYTE   PEND 
//  #08 //013   ----------------------------------------
 BYTE   N06  Cs4  v041
 BYTE   W12
 BYTE   Bn3
 BYTE   W12
 BYTE   As3
 BYTE   W12
 BYTE   Bn3
 BYTE   W12
 BYTE   N24  Cs4
 BYTE   W24
 BYTE   N06  Fs3
 BYTE   W24
//  #08 //014   ----------------------------------------
 BYTE   Bn3
 BYTE   W12
 BYTE   Cs4
 BYTE   W12
 BYTE   Ds4
 BYTE   W12
 BYTE   En4
 BYTE   W12
 BYTE   Fs4
 BYTE   W12
 BYTE   En4
 BYTE   W12
 BYTE   Ds4
 BYTE   W12
 BYTE   Cs4
 BYTE   W12
//  #08 //015   ----------------------------------------
 BYTE   Gs3
 BYTE   W12
 BYTE   As3
 BYTE   W12
 BYTE   Bn3
 BYTE   W12
 BYTE   Cs4
 BYTE   W12
 BYTE   Ds4
 BYTE   W12
 BYTE   Gs3
 BYTE   W12
 BYTE   N24  Ds4
 BYTE   W24
//  #08 //016   ----------------------------------------
 BYTE   PATT
  POIN2 Label_0184814E
//  #08 //017   ----------------------------------------
 BYTE   PATT
  POIN2 Label_01848160
//  #08 //018   ----------------------------------------
 BYTE   PATT
  POIN2 Label_01848172
//  #08 //019   ----------------------------------------
 BYTE   PATT
  POIN2 Label_01848184
//  #08 //020   ----------------------------------------
 BYTE   PATT
  POIN2 Label_01848196
//  #08 //021   ----------------------------------------
 BYTE   N06  Cs4  v041
 BYTE   W12
 BYTE   Bn3
 BYTE   W12
 BYTE   As3
 BYTE   W12
 BYTE   Bn3
 BYTE   W12
 BYTE   Cs4
 BYTE   W12
 BYTE   Fs3
 BYTE   W12
 BYTE   As3
 BYTE   W12
 BYTE   Cs4
 BYTE   W12
//  #08 //022   ----------------------------------------
 BYTE   Bn3
 BYTE   W24
 BYTE   Fs3
 BYTE   W24
 BYTE   N36  Bn3
 BYTE   W48
//  #08 //023   ----------------------------------------
 BYTE   N06
 BYTE   W24
 BYTE   Ds4
 BYTE   W24
 BYTE   N48  Bn3
 BYTE   W48
//  #08 //024   ----------------------------------------
 BYTE   N12  Fs3
 BYTE   N12  Fs4
 BYTE   W48
 BYTE   Ds4
 BYTE   N12  Ds3
 BYTE   W48
//  #08 //025   ----------------------------------------
 BYTE   Fs3
 BYTE   N12  Fs4
 BYTE   W60
 BYTE   Fs4
 BYTE   N12  Fs3
 BYTE   W12
 BYTE   Gs4
 BYTE   N12  Gs3
 BYTE   W12
 BYTE   Fs4
 BYTE   N12  Fs3
 BYTE   W12
//  #08 //026   ----------------------------------------
 BYTE   Bn4
 BYTE   N12  Bn3
 BYTE   W48
 BYTE   Gs3
 BYTE   N12  Gs4
 BYTE   W48
//  #08 //027   ----------------------------------------
 BYTE   Fs4
 BYTE   N12  Fs3
 BYTE   W60
 BYTE   Fs4
 BYTE   N12  Fs3
 BYTE   W12
 BYTE   Gs4
 BYTE   N12  Gs3
 BYTE   W12
 BYTE   Fs4
 BYTE   N12  Fs3
 BYTE   W12
//  #08 //028   ----------------------------------------
 BYTE   Gs4
 BYTE   N12  Gs3
 BYTE   W48
 BYTE   En4
 BYTE   N12  En3
 BYTE   W48
//  #08 //029   ----------------------------------------
 BYTE   Gs3
 BYTE   N12  Gs4
 BYTE   W60
 BYTE   Fs4
 BYTE   N12  Fs3
 BYTE   W12
 BYTE   Gs4
 BYTE   N12  Gs3
 BYTE   W12
 BYTE   As4
 BYTE   N12  As3
 BYTE   W12
//  #08 //030   ----------------------------------------
 BYTE   Bn4
 BYTE   N12  Bn3
 BYTE   W48
 BYTE   Gs4
 BYTE   N12  Gs3
 BYTE   W48
//  #08 //031   ----------------------------------------
 BYTE   Fs4
 BYTE   N12  Fs3
 BYTE   W60
 BYTE   Fs3
 BYTE   N12  Fs4
 BYTE   W12
 BYTE   Gs3
 BYTE   N12  Gs4
 BYTE   W12
 BYTE   Fs3
 BYTE   N12  Fs4
 BYTE   W12
//  #08 //032   ----------------------------------------
 BYTE   N96  Gs4
 BYTE   W96
//  #08 //033   ----------------------------------------
 BYTE   Gs4
 BYTE   W96
//  #08 //034   ----------------------------------------
 BYTE   Gs4
 BYTE   W96
//  #08 //035   ----------------------------------------
 BYTE   Gs4
 BYTE   W96
//  #08 //036   ----------------------------------------
 BYTE   N24  Ds4
 BYTE   W24
 BYTE   N12  Cs4
 BYTE   W12
 BYTE   Cs4
 BYTE   W12
 BYTE   Ds4
 BYTE   W12
 BYTE   Cs4
 BYTE   W12
 BYTE   N24  Fs4
 BYTE   W24
//  #08 //037   ----------------------------------------
 BYTE   N12  Gs4
 BYTE   W12
 BYTE   N24
 BYTE   W24
 BYTE   N12  Cs5
 BYTE   W12
 BYTE   N24  Bn4
 BYTE   W24
 BYTE   N12  As4
 BYTE   W12
 BYTE   Gs4
 BYTE   W12
//  #08 //038   ----------------------------------------
 BYTE   N18  Fs4
 BYTE   W18
 BYTE   N06  Ds4
 BYTE   W06
 BYTE   Cs4
 BYTE   W06
 BYTE   N18
 BYTE   W18
 BYTE   N12  Ds4
 BYTE   W12
 BYTE   Fs4
 BYTE   W12
 BYTE   N24  Ds4
 BYTE   W24
//  #08 //039   ----------------------------------------
 BYTE   N12  Cs4
 BYTE   W12
 BYTE   Ds4
 BYTE   W12
 BYTE   Bn3
 BYTE   W12
 BYTE   As3
 BYTE   W12
 BYTE   Bn3
 BYTE   W12
 BYTE   Fs3
 BYTE   W12
 BYTE   N24  Gs3
 BYTE   W36
//  #08 //040   ----------------------------------------
Label_018482B8:
 BYTE   N06  Gs3  v041
 BYTE   W24
 BYTE   Gs3
 BYTE   W36
 BYTE   Gs3
 BYTE   W12
 BYTE   Gs3
 BYTE   W24
 BYTE   PEND 
//  #08 //041   ----------------------------------------
 BYTE   PATT
  POIN2 Label_018482B8
//  #08 //042   ----------------------------------------
 BYTE   N06  Gs3  v041
 BYTE   W24
 BYTE   Gs3
 BYTE   W36
 BYTE   Gs3
 BYTE   W12
 BYTE   Gs3
 BYTE   W12
 BYTE   N12  Cs3
 BYTE   W12
//  #08 //043   ----------------------------------------
 BYTE   N06  Gs3
 BYTE   W12
 BYTE   Cs3
 BYTE   W12
 BYTE   Gs3
 BYTE   W12
 BYTE   N24  Cs3
 BYTE   W24
 BYTE   N06  Gs3
 BYTE   W12
 BYTE   Gs3
 BYTE   W12
 BYTE   N12
 BYTE   W12
//  #08 //044   ----------------------------------------
Label_018482E6:
 BYTE   N06  Cs3  v041
 BYTE   W12
 BYTE   En3
 BYTE   W12
 BYTE   Gs3
 BYTE   W12
 BYTE   N24  Bn3
 BYTE   W24
 BYTE   N12  Gs3
 BYTE   W24
 BYTE   As3
 BYTE   W12
 BYTE   PEND 
//  #08 //045   ----------------------------------------
Label_018482F7:
 BYTE   N06  Fs3  v041
 BYTE   W12
 BYTE   Gs3
 BYTE   W12
 BYTE   As3
 BYTE   W12
 BYTE   N24  Cs4
 BYTE   W24
 BYTE   N06  Fs3
 BYTE   W24
 BYTE   N12  Ds4
 BYTE   W12
 BYTE   PEND 
//  #08 //046   ----------------------------------------
Label_01848309:
 BYTE   N06  Cs4  v041
 BYTE   W12
 BYTE   Bn3
 BYTE   W12
 BYTE   As3
 BYTE   W12
 BYTE   N24  Bn3
 BYTE   W24
 BYTE   N06  Fs3
 BYTE   W24
 BYTE   N12  Bn3
 BYTE   W12
 BYTE   PEND 
//  #08 //047   ----------------------------------------
Label_0184831B:
 BYTE   N06  As3  v041
 BYTE   W12
 BYTE   Gs3
 BYTE   W12
 BYTE   Fs3
 BYTE   W12
 BYTE   N24  Gs3
 BYTE   W24
 BYTE   N06  Ds3
 BYTE   W24
 BYTE   En3
 BYTE   W12
 BYTE   PEND 
//  #08 //048   ----------------------------------------
Label_0184832C:
 BYTE   N06  Fs3  v041
 BYTE   W12
 BYTE   Gs3
 BYTE   W24
 BYTE   Gs3
 BYTE   W12
 BYTE   As3
 BYTE   W12
 BYTE   Bn3
 BYTE   W24
 BYTE   Cs4
 BYTE   W12
 BYTE   PEND 
//  #08 //049   ----------------------------------------
 BYTE   N06  Bn3  v041
 BYTE   W12
 BYTE   As3
 BYTE   W12
 BYTE   Bn3
 BYTE   W12
 BYTE   N24  Cs4
 BYTE   W24
 BYTE   N06  Fs3
 BYTE   W24
 BYTE   Bn3
 BYTE   W12
//  #08 //050   ----------------------------------------
 BYTE   Cs4
 BYTE   W12
 BYTE   Ds4
 BYTE   W12
 BYTE   En4
 BYTE   W12
 BYTE   Fs4
 BYTE   W12
 BYTE   En4
 BYTE   W12
 BYTE   Ds4
 BYTE   W12
 BYTE   Cs4
 BYTE   W12
 BYTE   Gs3
 BYTE   W12
//  #08 //051   ----------------------------------------
 BYTE   As3
 BYTE   W12
 BYTE   Bn3
 BYTE   W12
 BYTE   Cs4
 BYTE   W12
 BYTE   Ds4
 BYTE   W12
 BYTE   Gs3
 BYTE   W12
 BYTE   N24  Ds4
 BYTE   W24
 BYTE   N12  Gs3
 BYTE   W12
//  #08 //052   ----------------------------------------
 BYTE   PATT
  POIN2 Label_018482E6
//  #08 //053   ----------------------------------------
 BYTE   PATT
  POIN2 Label_018482F7
//  #08 //054   ----------------------------------------
 BYTE   PATT
  POIN2 Label_01848309
//  #08 //055   ----------------------------------------
 BYTE   PATT
  POIN2 Label_0184831B
//  #08 //056   ----------------------------------------
 BYTE   PATT
  POIN2 Label_0184832C
//  #08 //057   ----------------------------------------
 BYTE   N06  Bn3  v041
 BYTE   W12
 BYTE   As3
 BYTE   W12
 BYTE   Bn3
 BYTE   W12
 BYTE   Cs4
 BYTE   W12
 BYTE   Fs3
 BYTE   W12
 BYTE   As3
 BYTE   W12
 BYTE   Cs4
 BYTE   W12
 BYTE   Bn3
 BYTE   W24
//  #08 //058   ----------------------------------------
 BYTE   Fs3
 BYTE   W24
 BYTE   N36  Bn3
 BYTE   W48
 BYTE   N06
 BYTE   W24
//  #08 //059   ----------------------------------------
 BYTE   Ds4
 BYTE   W24
 BYTE   N48  Bn3
 BYTE   W48
 BYTE   N96  Ds4
 BYTE   W96
//  #08 //060   ----------------------------------------
 BYTE   Gs3
 BYTE   W96
//  #08 //061   ----------------------------------------
 BYTE   W96
//  #08 //062   ----------------------------------------
 BYTE   W78
 BYTE   W18
//  #08 //063   ----------------------------------------
 BYTE   GoTo
  POIN2 Label_0184811C
 BYTE   FINE

//**************** Track 9 (Midi-Chn.8) ****************//

Konpeko_009:
//  #09 //000   ----------------------------------------
Label_018483B0:
 BYTE   VOL   55*Konpeko_mvl/mxv
 BYTE   KEYSH   Konpeko_key+0
 BYTE   VOICE   80
 BYTE   PAN   c_v-19
 BYTE   LFOS 44
 BYTE   MODT 0
 BYTE   TEMPO   120*Konpeko_tbs/2
 BYTE   W96
//  #09 //001   ----------------------------------------
 BYTE   W96
//  #09 //002   ----------------------------------------
 BYTE   W96
//  #09 //003   ----------------------------------------
 BYTE   W96
//  #09 //004   ----------------------------------------
 BYTE   N96  Gs3  v041
 BYTE   W96
//  #09 //005   ----------------------------------------
 BYTE   N48
 BYTE   W48
 BYTE   Bn3
 BYTE   W48
//  #09 //006   ----------------------------------------
 BYTE   Bn3
 BYTE   W48
 BYTE   N24  Gs3
 BYTE   W24
 BYTE   En3
 BYTE   W24
//  #09 //007   ----------------------------------------
 BYTE   N12  Gs4
 BYTE   W12
 BYTE   Fs4
 BYTE   W12
 BYTE   En4
 BYTE   W12
 BYTE   Ds4
 BYTE   W12
 BYTE   Cs4
 BYTE   W12
 BYTE   Bn3
 BYTE   W12
 BYTE   As3
 BYTE   W12
 BYTE   Gs3
 BYTE   W12
//  #09 //008   ----------------------------------------
Label_018483E2:
 BYTE   N12  Gs3  v041
 BYTE   W12
 BYTE   N06  Cs3
 BYTE   W12
 BYTE   En3
 BYTE   W12
 BYTE   Gs3
 BYTE   W12
 BYTE   N24  Bn3
 BYTE   W24
 BYTE   N12  Gs3
 BYTE   W24
 BYTE   PEND 
//  #09 //009   ----------------------------------------
Label_018483F4:
 BYTE   N12  As3  v041
 BYTE   W12
 BYTE   N06  Fs3
 BYTE   W12
 BYTE   Gs3
 BYTE   W12
 BYTE   As3
 BYTE   W12
 BYTE   N24  Cs4
 BYTE   W24
 BYTE   N06  Fs3
 BYTE   W24
 BYTE   PEND 
//  #09 //010   ----------------------------------------
Label_01848406:
 BYTE   N12  Ds4  v041
 BYTE   W12
 BYTE   N06  Cs4
 BYTE   W12
 BYTE   Bn3
 BYTE   W12
 BYTE   As3
 BYTE   W12
 BYTE   N24  Bn3
 BYTE   W24
 BYTE   N06  Fs3
 BYTE   W24
 BYTE   PEND 
//  #09 //011   ----------------------------------------
Label_01848418:
 BYTE   N12  Bn3  v041
 BYTE   W12
 BYTE   N06  As3
 BYTE   W12
 BYTE   Gs3
 BYTE   W12
 BYTE   Fs3
 BYTE   W12
 BYTE   N24  Gs3
 BYTE   W24
 BYTE   N06  Ds3
 BYTE   W24
 BYTE   PEND 
//  #09 //012   ----------------------------------------
Label_0184842A:
 BYTE   N06  En3  v041
 BYTE   W12
 BYTE   Fs3
 BYTE   W12
 BYTE   Gs3
 BYTE   W24
 BYTE   Gs3
 BYTE   W12
 BYTE   As3
 BYTE   W12
 BYTE   Bn3
 BYTE   W24
 BYTE   PEND 
//  #09 //013   ----------------------------------------
 BYTE   N06  Cs4  v041
 BYTE   W12
 BYTE   Bn3
 BYTE   W12
 BYTE   As3
 BYTE   W12
 BYTE   Bn3
 BYTE   W12
 BYTE   N24  Cs4
 BYTE   W24
 BYTE   N06  Fs3
 BYTE   W24
//  #09 //014   ----------------------------------------
 BYTE   Bn3
 BYTE   W12
 BYTE   Cs4
 BYTE   W12
 BYTE   Ds4
 BYTE   W12
 BYTE   En4
 BYTE   W12
 BYTE   Fs4
 BYTE   W12
 BYTE   En4
 BYTE   W12
 BYTE   Ds4
 BYTE   W12
 BYTE   Cs4
 BYTE   W12
//  #09 //015   ----------------------------------------
 BYTE   Gs3
 BYTE   W12
 BYTE   As3
 BYTE   W12
 BYTE   Bn3
 BYTE   W12
 BYTE   Cs4
 BYTE   W12
 BYTE   Ds4
 BYTE   W12
 BYTE   Gs3
 BYTE   W12
 BYTE   N24  Ds4
 BYTE   W24
//  #09 //016   ----------------------------------------
 BYTE   PATT
  POIN2 Label_018483E2
//  #09 //017   ----------------------------------------
 BYTE   PATT
  POIN2 Label_018483F4
//  #09 //018   ----------------------------------------
 BYTE   PATT
  POIN2 Label_01848406
//  #09 //019   ----------------------------------------
 BYTE   PATT
  POIN2 Label_01848418
//  #09 //020   ----------------------------------------
 BYTE   PATT
  POIN2 Label_0184842A
//  #09 //021   ----------------------------------------
 BYTE   N06  Cs4  v041
 BYTE   W12
 BYTE   Bn3
 BYTE   W12
 BYTE   As3
 BYTE   W12
 BYTE   Bn3
 BYTE   W12
 BYTE   Cs4
 BYTE   W12
 BYTE   Fs3
 BYTE   W12
 BYTE   As3
 BYTE   W12
 BYTE   Cs4
 BYTE   W12
//  #09 //022   ----------------------------------------
 BYTE   Bn3
 BYTE   W24
 BYTE   Fs3
 BYTE   W24
 BYTE   N36  Bn3
 BYTE   W48
//  #09 //023   ----------------------------------------
 BYTE   N06
 BYTE   W24
 BYTE   Ds4
 BYTE   W24
 BYTE   N48  Bn3
 BYTE   W96
//  #09 //024   ----------------------------------------
 BYTE   W96
//  #09 //025   ----------------------------------------
 BYTE   W96
//  #09 //026   ----------------------------------------
 BYTE   W96
//  #09 //027   ----------------------------------------
 BYTE   W96
//  #09 //028   ----------------------------------------
 BYTE   W96
//  #09 //029   ----------------------------------------
 BYTE   W96
//  #09 //030   ----------------------------------------
 BYTE   W96
//  #09 //031   ----------------------------------------
 BYTE   W48
Label_018484A9:
 BYTE   N06  Gs3  v041
 BYTE   W06
 BYTE   Bn3
 BYTE   W06
 BYTE   Ds4
 BYTE   W06
 BYTE   Fs4
 BYTE   W06
 BYTE   Gs3
 BYTE   W06
 BYTE   Bn3
 BYTE   W06
 BYTE   Fs4
 BYTE   W06
 BYTE   Gs4
 BYTE   W06
//  #09 //032   ----------------------------------------
 BYTE   Bn4
 BYTE   W06
 BYTE   Gs4
 BYTE   W06
 BYTE   Fs4
 BYTE   W06
 BYTE   Ds4
 BYTE   W06
 BYTE   Fs4
 BYTE   W06
 BYTE   Ds4
 BYTE   W06
 BYTE   Bn3
 BYTE   W06
 BYTE   Gs3
 BYTE   W06
 BYTE   PEND 
//  #09 //033   ----------------------------------------
 BYTE   PATT
  POIN2 Label_018484A9
//  #09 //034   ----------------------------------------
 BYTE   PATT
  POIN2 Label_018484A9
//  #09 //035   ----------------------------------------
 BYTE   PATT
  POIN2 Label_018484A9
//  #09 //036   ----------------------------------------
 BYTE   N24  Ds4  v041
 BYTE   W24
 BYTE   N12  Cs4
 BYTE   W12
 BYTE   Cs4
 BYTE   W12
 BYTE   Ds4
 BYTE   W12
 BYTE   Cs4
 BYTE   W12
 BYTE   N24  Fs4
 BYTE   W24
//  #09 //037   ----------------------------------------
 BYTE   N12  Gs4
 BYTE   W12
 BYTE   N24
 BYTE   W24
 BYTE   N12  Cs5
 BYTE   W12
 BYTE   N24  Bn4
 BYTE   W24
 BYTE   N12  As4
 BYTE   W12
 BYTE   Gs4
 BYTE   W12
//  #09 //038   ----------------------------------------
 BYTE   N18  Fs4
 BYTE   W18
 BYTE   N06  Ds4
 BYTE   W06
 BYTE   Cs4
 BYTE   W06
 BYTE   N18
 BYTE   W18
 BYTE   N12  Ds4
 BYTE   W12
 BYTE   Fs4
 BYTE   W12
 BYTE   N24  Ds4
 BYTE   W24
//  #09 //039   ----------------------------------------
 BYTE   N12  Cs4
 BYTE   W12
 BYTE   Ds4
 BYTE   W12
 BYTE   Bn3
 BYTE   W12
 BYTE   As3
 BYTE   W12
 BYTE   Bn3
 BYTE   W12
 BYTE   Fs3
 BYTE   W12
 BYTE   N24  Gs3
 BYTE   W36
//  #09 //040   ----------------------------------------
Label_0184851D:
 BYTE   N06  Gs3  v041
 BYTE   W24
 BYTE   Gs3
 BYTE   W36
 BYTE   Gs3
 BYTE   W12
 BYTE   Gs3
 BYTE   W24
 BYTE   PEND 
//  #09 //041   ----------------------------------------
 BYTE   PATT
  POIN2 Label_0184851D
//  #09 //042   ----------------------------------------
Label_0184852D:
 BYTE   N06  Gs3  v041
 BYTE   W24
 BYTE   Gs3
 BYTE   W36
 BYTE   Gs3
 BYTE   W12
 BYTE   Gs3
 BYTE   W12
 BYTE   N12  Cs3
 BYTE   W12
 BYTE   PEND 
//  #09 //043   ----------------------------------------
 BYTE   N06  Gs3  v041
 BYTE   W12
 BYTE   Cs3
 BYTE   W12
 BYTE   Gs3
 BYTE   W12
 BYTE   N24  Cs3
 BYTE   W24
 BYTE   N06  Gs3
 BYTE   W12
 BYTE   Gs3
 BYTE   W12
 BYTE   N12
 BYTE   W12
//  #09 //044   ----------------------------------------
Label_0184854D:
 BYTE   N06  Cs3  v041
 BYTE   W12
 BYTE   En3
 BYTE   W12
 BYTE   Gs3
 BYTE   W12
 BYTE   N24  Bn3
 BYTE   W24
 BYTE   N12  Gs3
 BYTE   W24
 BYTE   As3
 BYTE   W12
 BYTE   PEND 
//  #09 //045   ----------------------------------------
Label_0184855E:
 BYTE   N06  Fs3  v041
 BYTE   W12
 BYTE   Gs3
 BYTE   W12
 BYTE   As3
 BYTE   W12
 BYTE   N24  Cs4
 BYTE   W24
 BYTE   N06  Fs3
 BYTE   W24
 BYTE   N12  Ds4
 BYTE   W12
 BYTE   PEND 
//  #09 //046   ----------------------------------------
Label_01848570:
 BYTE   N06  Cs4  v041
 BYTE   W12
 BYTE   Bn3
 BYTE   W12
 BYTE   As3
 BYTE   W12
 BYTE   N24  Bn3
 BYTE   W24
 BYTE   N06  Fs3
 BYTE   W24
 BYTE   N12  Bn3
 BYTE   W12
 BYTE   PEND 
//  #09 //047   ----------------------------------------
 BYTE   N06  As3  v041
 BYTE   W12
 BYTE   Gs3
 BYTE   W12
 BYTE   Fs3
 BYTE   W12
 BYTE   N24  Gs3
 BYTE   W24
 BYTE   N06  Ds3
 BYTE   W24
 BYTE   En3
 BYTE   W12
//  #09 //048   ----------------------------------------
 BYTE   Fs3
 BYTE   W12
 BYTE   Gs3
 BYTE   W24
 BYTE   Gs3
 BYTE   W12
 BYTE   As3
 BYTE   W12
 BYTE   Bn3
 BYTE   W24
 BYTE   Cs4
 BYTE   W12
//  #09 //049   ----------------------------------------
 BYTE   Bn3
 BYTE   W12
 BYTE   As3
 BYTE   W12
 BYTE   Bn3
 BYTE   W12
 BYTE   N24  Cs4
 BYTE   W24
 BYTE   N06  Fs3
 BYTE   W24
 BYTE   Bn3
 BYTE   W12
//  #09 //050   ----------------------------------------
 BYTE   Cs4
 BYTE   W12
 BYTE   Ds4
 BYTE   W12
 BYTE   En4
 BYTE   W12
 BYTE   Fs4
 BYTE   W12
 BYTE   En4
 BYTE   W12
 BYTE   Ds4
 BYTE   W12
 BYTE   Cs4
 BYTE   W12
 BYTE   Gs3
 BYTE   W12
//  #09 //051   ----------------------------------------
 BYTE   As3
 BYTE   W12
 BYTE   Bn3
 BYTE   W12
 BYTE   Cs4
 BYTE   W12
 BYTE   Ds4
 BYTE   W12
 BYTE   Gs3
 BYTE   W12
 BYTE   N24  Ds4
 BYTE   W24
 BYTE   N12  Gs3
 BYTE   W12
//  #09 //052   ----------------------------------------
 BYTE   PATT
  POIN2 Label_0184854D
//  #09 //053   ----------------------------------------
 BYTE   PATT
  POIN2 Label_0184855E
//  #09 //054   ----------------------------------------
 BYTE   PATT
  POIN2 Label_01848570
//  #09 //055   ----------------------------------------
 BYTE   N06  As3  v041
 BYTE   W12
 BYTE   Gs3
 BYTE   W12
 BYTE   Fs3
 BYTE   W12
 BYTE   N24  Gs3
 BYTE   W24
 BYTE   N06  Ds3
 BYTE   W36
//  #09 //056   ----------------------------------------
 BYTE   PATT
  POIN2 Label_0184851D
//  #09 //057   ----------------------------------------
 BYTE   PATT
  POIN2 Label_0184851D
//  #09 //058   ----------------------------------------
 BYTE   PATT
  POIN2 Label_0184852D
//  #09 //059   ----------------------------------------
 BYTE   N06  Gs3  v041
 BYTE   W12
 BYTE   Cs3
 BYTE   W12
 BYTE   Gs3
 BYTE   W12
 BYTE   N24  Cs3
 BYTE   W24
 BYTE   N06  Gs3
 BYTE   W12
 BYTE   Gs3
 BYTE   W12
 BYTE   N96  Ds3
 BYTE   W96
//  #09 //060   ----------------------------------------
 BYTE   Gs3
 BYTE   W96
//  #09 //061   ----------------------------------------
 BYTE   W96
//  #09 //062   ----------------------------------------
 BYTE   W78
 BYTE   W18
//  #09 //063   ----------------------------------------
 BYTE   GoTo
  POIN2 Label_018483B0
 BYTE   FINE

//**************** Track 10 (Midi-Chn.9) ****************//

Konpeko_010:
//  #10 //000   ----------------------------------------
Label_01848618:
 BYTE   VOL   100*Konpeko_mvl/mxv
 BYTE   KEYSH   Konpeko_key+0
 BYTE   VOICE   121
 BYTE   LFOS 44
 BYTE   MODT 0
 BYTE   TEMPO   120*Konpeko_tbs/2
 BYTE   W96
//  #10 //001   ----------------------------------------
 BYTE   W96
//  #10 //002   ----------------------------------------
 BYTE   W96
//  #10 //003   ----------------------------------------
 BYTE   W96
//  #10 //004   ----------------------------------------
Label_01848628:
 BYTE   N06  Cn1  v041
 BYTE   N06  Fs1
 BYTE   W12
 BYTE   Fs1
 BYTE   W12
 BYTE   Cn1
 BYTE   N06  Fs1
 BYTE   W12
 BYTE   Fs1
 BYTE   W12
 BYTE   Cn1
 BYTE   N06  Fs1
 BYTE   W12
 BYTE   Fs1
 BYTE   W12
 BYTE   Cn1
 BYTE   N06  Fs1
 BYTE   W12
 BYTE   Fs1
 BYTE   W12
 BYTE   PEND 
//  #10 //005   ----------------------------------------
 BYTE   PATT
  POIN2 Label_01848628
//  #10 //006   ----------------------------------------
 BYTE   N06  Cn1  v041
 BYTE   N06  Fs1
 BYTE   W12
 BYTE   Fs1
 BYTE   W12
 BYTE   Cn1
 BYTE   N06  Fs1
 BYTE   N06  Dn1
 BYTE   W12
 BYTE   Fs1
 BYTE   W12
 BYTE   Cn1
 BYTE   N06  Fs1
 BYTE   W12
 BYTE   Fs1
 BYTE   W12
 BYTE   Cn1
 BYTE   N06  Fs1
 BYTE   N06  Dn1
 BYTE   W12
 BYTE   Fs1
 BYTE   W12
//  #10 //007   ----------------------------------------
 BYTE   Cn1
 BYTE   N06  Fs1
 BYTE   W12
 BYTE   Fs1
 BYTE   W12
 BYTE   Cn1
 BYTE   N06  Fs1
 BYTE   N06  Dn1
 BYTE   W12
 BYTE   Fs1
 BYTE   W12
 BYTE   Cn1
 BYTE   N06  Fs1
 BYTE   N06  Dn1
 BYTE   W12
 BYTE   Fs1
 BYTE   N06  Dn1
 BYTE   N06  Cn1
 BYTE   W12
 BYTE   Cn1
 BYTE   N06  Dn1
 BYTE   W06
 BYTE   Dn1
 BYTE   N06  Cn1
 BYTE   W06
 BYTE   Dn1
 BYTE   N06  Cn1
 BYTE   W06
 BYTE   Dn1
 BYTE   N06  Cn1
 BYTE   W06
//  #10 //008   ----------------------------------------
Label_01848690:
 BYTE   N06  Cn1  v041
 BYTE   N12  Fs1
 BYTE   N48  An2
 BYTE   W12
 BYTE   N06  Cn1
 BYTE   N12  Fs1
 BYTE   W12
 BYTE   N06  Dn1
 BYTE   N12  Fs1
 BYTE   W12
 BYTE   Fs1
 BYTE   W12
 BYTE   N06  Cn1
 BYTE   N12  Fs1
 BYTE   W12
 BYTE   Fs1
 BYTE   W12
 BYTE   N06  Dn1
 BYTE   N12  Fs1
 BYTE   W12
 BYTE   Fs1
 BYTE   W12
 BYTE   PEND 
//  #10 //009   ----------------------------------------
Label_018486B3:
 BYTE   N06  Cn1  v041
 BYTE   N12  Fs1
 BYTE   W12
 BYTE   N06  Cn1
 BYTE   N12  Fs1
 BYTE   W12
 BYTE   N06  Dn1
 BYTE   N12  Fs1
 BYTE   W12
 BYTE   Fs1
 BYTE   W12
 BYTE   N06  Cn1
 BYTE   N12  Fs1
 BYTE   W12
 BYTE   Fs1
 BYTE   W12
 BYTE   N06  Dn1
 BYTE   N12  Fs1
 BYTE   W12
 BYTE   Fs1
 BYTE   W12
 BYTE   PEND 
//  #10 //010   ----------------------------------------
 BYTE   PATT
  POIN2 Label_018486B3
//  #10 //011   ----------------------------------------
Label_018486D9:
 BYTE   N06  Cn1  v041
 BYTE   N12  Fs1
 BYTE   W12
 BYTE   N06  Cn1
 BYTE   N12  Fs1
 BYTE   W12
 BYTE   N06  Dn1
 BYTE   N12  Fs1
 BYTE   W12
 BYTE   Fs1
 BYTE   W12
 BYTE   N06  Cn1
 BYTE   N12  Fs1
 BYTE   W12
 BYTE   Fs1
 BYTE   W12
 BYTE   N06  Dn1
 BYTE   N12  Fs1
 BYTE   W12
 BYTE   N06  Dn1
 BYTE   N12  Fs1
 BYTE   W06
 BYTE   N06  Dn1
 BYTE   W06
 BYTE   PEND 
//  #10 //012   ----------------------------------------
 BYTE   PATT
  POIN2 Label_018486B3
//  #10 //013   ----------------------------------------
 BYTE   PATT
  POIN2 Label_018486B3
//  #10 //014   ----------------------------------------
 BYTE   PATT
  POIN2 Label_018486B3
//  #10 //015   ----------------------------------------
 BYTE   PATT
  POIN2 Label_018486D9
//  #10 //016   ----------------------------------------
 BYTE   PATT
  POIN2 Label_01848690
//  #10 //017   ----------------------------------------
 BYTE   PATT
  POIN2 Label_018486B3
//  #10 //018   ----------------------------------------
 BYTE   PATT
  POIN2 Label_018486B3
//  #10 //019   ----------------------------------------
 BYTE   PATT
  POIN2 Label_018486D9
//  #10 //020   ----------------------------------------
 BYTE   PATT
  POIN2 Label_018486B3
//  #10 //021   ----------------------------------------
 BYTE   PATT
  POIN2 Label_018486B3
//  #10 //022   ----------------------------------------
 BYTE   PATT
  POIN2 Label_018486B3
//  #10 //023   ----------------------------------------
 BYTE   PATT
  POIN2 Label_018486D9
//  #10 //024   ----------------------------------------
Label_0184873C:
 BYTE   N06  Cn1  v041
 BYTE   N12  Fs1
 BYTE   W24
 BYTE   N06  Cn1
 BYTE   W12
 BYTE   N12  Fs1
 BYTE   W12
 BYTE   N06  Cn1
 BYTE   W24
 BYTE   Cn1
 BYTE   N12  Fs1
 BYTE   W24
 BYTE   PEND 
//  #10 //025   ----------------------------------------
 BYTE   PATT
  POIN2 Label_0184873C
//  #10 //026   ----------------------------------------
 BYTE   PATT
  POIN2 Label_0184873C
//  #10 //027   ----------------------------------------
 BYTE   PATT
  POIN2 Label_0184873C
//  #10 //028   ----------------------------------------
 BYTE   PATT
  POIN2 Label_0184873C
//  #10 //029   ----------------------------------------
 BYTE   PATT
  POIN2 Label_0184873C
//  #10 //030   ----------------------------------------
 BYTE   PATT
  POIN2 Label_0184873C
//  #10 //031   ----------------------------------------
 BYTE   PATT
  POIN2 Label_0184873C
//  #10 //032   ----------------------------------------
Label_01848773:
 BYTE   N06  Cn1  v041
 BYTE   N06  Fs1
 BYTE   W12
 BYTE   Dn1
 BYTE   N06  Fs1
 BYTE   W06
 BYTE   Fs1
 BYTE   W06
 BYTE   Cn1
 BYTE   N06  Fs1
 BYTE   W12
 BYTE   Dn1
 BYTE   N06  Fs1
 BYTE   W06
 BYTE   Fs1
 BYTE   W06
 BYTE   Cn1
 BYTE   N06  Fs1
 BYTE   W12
 BYTE   Dn1
 BYTE   N06  Fs1
 BYTE   W06
 BYTE   Fs1
 BYTE   W06
 BYTE   Cn1
 BYTE   N06  Fs1
 BYTE   W12
 BYTE   Dn1
 BYTE   N06  Fs1
 BYTE   W06
 BYTE   Dn1
 BYTE   N06  Fs1
 BYTE   W06
 BYTE   PEND 
//  #10 //033   ----------------------------------------
 BYTE   PATT
  POIN2 Label_01848773
//  #10 //034   ----------------------------------------
 BYTE   PATT
  POIN2 Label_01848773
//  #10 //035   ----------------------------------------
 BYTE   PATT
  POIN2 Label_01848773
//  #10 //036   ----------------------------------------
 BYTE   PATT
  POIN2 Label_01848690
//  #10 //037   ----------------------------------------
 BYTE   PATT
  POIN2 Label_018486B3
//  #10 //038   ----------------------------------------
 BYTE   PATT
  POIN2 Label_018486B3
//  #10 //039   ----------------------------------------
 BYTE   PATT
  POIN2 Label_018486D9
//  #10 //040   ----------------------------------------
 BYTE   PATT
  POIN2 Label_018486B3
//  #10 //041   ----------------------------------------
 BYTE   PATT
  POIN2 Label_018486B3
//  #10 //042   ----------------------------------------
 BYTE   PATT
  POIN2 Label_018486B3
//  #10 //043   ----------------------------------------
 BYTE   PATT
  POIN2 Label_018486D9
//  #10 //044   ----------------------------------------
 BYTE   PATT
  POIN2 Label_01848690
//  #10 //045   ----------------------------------------
 BYTE   PATT
  POIN2 Label_018486B3
//  #10 //046   ----------------------------------------
 BYTE   PATT
  POIN2 Label_018486B3
//  #10 //047   ----------------------------------------
 BYTE   PATT
  POIN2 Label_018486D9
//  #10 //048   ----------------------------------------
 BYTE   PATT
  POIN2 Label_018486B3
//  #10 //049   ----------------------------------------
 BYTE   PATT
  POIN2 Label_018486B3
//  #10 //050   ----------------------------------------
 BYTE   PATT
  POIN2 Label_018486B3
//  #10 //051   ----------------------------------------
 BYTE   PATT
  POIN2 Label_018486D9
//  #10 //052   ----------------------------------------
Label_018487FF:
 BYTE   N06  Cn1  v041
 BYTE   N12  Fs1
 BYTE   W12
 BYTE   N06  Dn1
 BYTE   N12  Fs1
 BYTE   W12
 BYTE   Fs1
 BYTE   W12
 BYTE   N06  Dn1
 BYTE   N12  Fs1
 BYTE   W12
 BYTE   N06  Cn1
 BYTE   N12  Fs1
 BYTE   W12
 BYTE   N06  Cn1
 BYTE   N12  Fs1
 BYTE   W12
 BYTE   N06  Dn1
 BYTE   N12  Fs1
 BYTE   W12
 BYTE   N06  Dn1
 BYTE   N12  Fs1
 BYTE   W12
 BYTE   PEND 
//  #10 //053   ----------------------------------------
 BYTE   PATT
  POIN2 Label_018487FF
//  #10 //054   ----------------------------------------
 BYTE   PATT
  POIN2 Label_018487FF
//  #10 //055   ----------------------------------------
Label_01848830:
 BYTE   N06  Cn1  v041
 BYTE   N12  Fs1
 BYTE   W12
 BYTE   N06  Dn1
 BYTE   N12  Fs1
 BYTE   W12
 BYTE   N06  Cn1
 BYTE   N12  Fs1
 BYTE   W12
 BYTE   N06  Dn1
 BYTE   N12  Fs1
 BYTE   W06
 BYTE   N06  Cn1
 BYTE   W06
 BYTE   Dn1
 BYTE   N12  Fs1
 BYTE   W06
 BYTE   N06  Cn1
 BYTE   W06
 BYTE   Dn1
 BYTE   N12  Fs1
 BYTE   W06
 BYTE   N06  Cn1
 BYTE   W06
 BYTE   Dn1
 BYTE   N12  Fs1
 BYTE   W06
 BYTE   N06  Dn1
 BYTE   W06
 BYTE   Dn1
 BYTE   N12  Fs1
 BYTE   W06
 BYTE   N06  Dn1
 BYTE   W06
 BYTE   PEND 
//  #10 //056   ----------------------------------------
 BYTE   PATT
  POIN2 Label_018487FF
//  #10 //057   ----------------------------------------
 BYTE   PATT
  POIN2 Label_018487FF
//  #10 //058   ----------------------------------------
 BYTE   PATT
  POIN2 Label_018487FF
//  #10 //059   ----------------------------------------
 BYTE   PATT
  POIN2 Label_01848830
//  #10 //060   ----------------------------------------
Label_01848879:
 BYTE   N06  Cn1  v041
 BYTE   N06  Fs1
 BYTE   W12
 BYTE   Cn1
 BYTE   N06  Fs1
 BYTE   W06
 BYTE   Fs1
 BYTE   W06
 BYTE   Cn1
 BYTE   N06  Fs1
 BYTE   W12
 BYTE   Cn1
 BYTE   N06  Fs1
 BYTE   W06
 BYTE   Fs1
 BYTE   W06
 BYTE   Cn1
 BYTE   N06  Fs1
 BYTE   W12
 BYTE   Cn1
 BYTE   N06  Fs1
 BYTE   W06
 BYTE   Fs1
 BYTE   W06
 BYTE   Cn1
 BYTE   N06  Fs1
 BYTE   W12
 BYTE   Cn1
 BYTE   N06  Fs1
 BYTE   W06
 BYTE   Fs1
 BYTE   W06
 BYTE   PEND 
//  #10 //061   ----------------------------------------
 BYTE   PATT
  POIN2 Label_01848879
//  #10 //062   ----------------------------------------
 BYTE   N06  Cn1  v041
 BYTE   W24
 BYTE   N06  Cn1  v041
 BYTE   W24
 BYTE   Cn1
 BYTE   W24
 BYTE   Cn1
 BYTE   W24
//  #10 //063   ----------------------------------------
 BYTE   Cn1
 BYTE   W24
 BYTE   Cn1
 BYTE   W24
 BYTE   Cn1
 BYTE   W24
 BYTE   Cn1
 BYTE   W06
 BYTE   W18
//  #10 //064   ----------------------------------------
 BYTE   GoTo
  POIN2 Label_01848618
 BYTE   FINE

//******************************************************//
	ALIGN 4

Konpeko:
	BYTE	10	// NumTrks
	BYTE	0	// NumBlks
	BYTE	Konpeko_pri	// Priority
	BYTE	Konpeko_rev	// Reverb.
    
	POIN2	Konpeko_grp
    
	POIN2	Konpeko_001
	POIN2	Konpeko_002
	POIN2	Konpeko_003
	POIN2	Konpeko_004
	POIN2	Konpeko_005
	POIN2	Konpeko_006
	POIN2	Konpeko_007
	POIN2	Konpeko_008
	POIN2	Konpeko_009
	POIN2	Konpeko_010

	
