//Event file generated from Sappy .s format.
	#include "MPlayDef.event"

	#define	MarineSail_grp  voicegroup000
	#define	MarineSail_pri  0
	#define	MarineSail_rev  0
	#define	MarineSail_mvl  127
	#define	MarineSail_key  0
	#define	MarineSail_tbs  1
	#define	MarineSail_exg  0
	#define	MarineSail_cmp  1

	// .rodata
	//	MarineSail
	ALIGN 4


//**************** Track 1 (Midi-Chn.0) ****************//

MarineSail_001:
//  #01 //000   ----------------------------------------
 BYTE   KEYSH   MarineSail_key+0
 BYTE   TEMPO   202*MarineSail_tbs/2
 BYTE   VOICE   48
 BYTE   PAN   c_v+14
 BYTE   VOL   127*MarineSail_mvl/mxv
 BYTE   W96
//  #01 //001   ----------------------------------------
 BYTE   W96
//  #01 //002   ----------------------------------------
 BYTE   W96
//  #01 //003   ----------------------------------------
 BYTE   W96
//  #01 //004   ----------------------------------------
 BYTE   W96
//  #01 //005   ----------------------------------------
 BYTE   W96
//  #01 //006   ----------------------------------------
Label_0100D060:
 BYTE   W36
 BYTE   N23  Gn2  v013
 BYTE   W24
 BYTE   N11
 BYTE   W12
 BYTE   TIE  Cn3
 BYTE   W24
 BYTE   PEND 
//  #01 //007   ----------------------------------------
 BYTE   W96
//  #01 //008   ----------------------------------------
 BYTE   W23
 BYTE   EOT
 BYTE   W72
 BYTE   W01
//  #01 //009   ----------------------------------------
 BYTE   W96
//  #01 //010   ----------------------------------------
Label_0100D071:
 BYTE   W84
 BYTE   N11  Gn3  v033
 BYTE   W12
 BYTE   PEND 
//  #01 //011   ----------------------------------------
 BYTE   Gn3
 BYTE   W12
 BYTE   Gn3
 BYTE   W12
Label_0100D07B:
 BYTE   N32  Ds4  v033  gtp3
 BYTE   W72
//  #01 //012   ----------------------------------------
Label_0100D080:
 BYTE   W36
 BYTE   N11  Ds4  v033
 BYTE   W12
 BYTE   Fn4
 BYTE   W12
 BYTE   Ds4
 BYTE   W12
 BYTE   Dn4
 BYTE   W12
 BYTE   Dn4
 BYTE   W12
 BYTE   PEND 
//  #01 //013   ----------------------------------------
Label_0100D08E:
 BYTE   N32  Dn4  v033  gtp3
 BYTE   W84
 BYTE   N11  Gn3
 BYTE   W12
 BYTE   PEND 
//  #01 //014   ----------------------------------------
Label_0100D097:
 BYTE   N11  Gn3  v033
 BYTE   W12
 BYTE   Gn3
 BYTE   W12
 BYTE   N32  Cn4  v033  gtp3
 BYTE   W36
 BYTE   Cn4
 BYTE   W36
 BYTE   PEND 
//  #01 //015   ----------------------------------------
Label_0100D0A5:
 BYTE   W36
 BYTE   N11  Cn4  v033
 BYTE   W12
 BYTE   Dn4
 BYTE   W12
 BYTE   Cn4
 BYTE   W12
 BYTE   Cn4
 BYTE   W12
 BYTE   As3
 BYTE   W12
 BYTE   PEND 
//  #01 //016   ----------------------------------------
Label_0100D0B3:
 BYTE   N32  As3  v033  gtp3
 BYTE   W84
 BYTE   N11  Gn3
 BYTE   W12
 BYTE   PEND 
//  #01 //017   ----------------------------------------
Label_0100D0BC:
 BYTE   N11  Gs3  v033
 BYTE   W12
 BYTE   As3
 BYTE   W12
 BYTE   N32  Cn4  v033  gtp3
 BYTE   W48
 BYTE   N11
 BYTE   W12
 BYTE   Dn4
 BYTE   W12
 BYTE   PEND 
//  #01 //018   ----------------------------------------
Label_0100D0CC:
 BYTE   N32  Ds4  v033  gtp3
 BYTE   W36
 BYTE   N11
 BYTE   W12
 BYTE   Fn4
 BYTE   W12
 BYTE   Ds4
 BYTE   W12
 BYTE   N32  Dn4  v033  gtp3
 BYTE   W24
 BYTE   PEND 
//  #01 //019   ----------------------------------------
Label_0100D0DD:
 BYTE   W12
 BYTE   N32  Cn4  v033  gtp3
 BYTE   W72
 BYTE   N23
 BYTE   W12
 BYTE   PEND 
//  #01 //020   ----------------------------------------
Label_0100D0E6:
 BYTE   W12
 BYTE   N11  Cn4  v033
 BYTE   W12
 BYTE   N68  Cn4  v033  gtp3
 BYTE   W72
 BYTE   PEND 
//  #01 //021   ----------------------------------------
Label_0100D0F1:
 BYTE   N23  Cn4  v033
 BYTE   W24
 BYTE   Bn3
 BYTE   W24
 BYTE   Cn4
 BYTE   W24
 BYTE   TIE  Dn4
 BYTE   W24
 BYTE   PEND 
//  #01 //022   ----------------------------------------
 BYTE   W80
 BYTE   W03
 BYTE   EOT
 BYTE   W13
//  #01 //023   ----------------------------------------
Label_0100D101:
 BYTE   W24
 BYTE   N23  Ds4  v033
 BYTE   W24
 BYTE   N05  Dn4
 BYTE   W06
 BYTE   Ds4
 BYTE   W06
 BYTE   N11  Fn4
 BYTE   W12
 BYTE   Ds4
 BYTE   W12
 BYTE   Ds4
 BYTE   W12
 BYTE   PEND 
//  #01 //024   ----------------------------------------
Label_0100D113:
 BYTE   N11  Ds4  v033
 BYTE   W12
 BYTE   Dn4
 BYTE   W12
 BYTE   Ds4
 BYTE   W12
 BYTE   Fn4
 BYTE   W12
 BYTE   Ds4
 BYTE   W12
 BYTE   Ds4
 BYTE   W12
 BYTE   N23
 BYTE   W24
 BYTE   PEND 
//  #01 //025   ----------------------------------------
Label_0100D124:
 BYTE   N05  Dn4  v033
 BYTE   W06
 BYTE   Ds4
 BYTE   W06
 BYTE   N11  Fn4
 BYTE   W12
 BYTE   Ds4
 BYTE   W12
 BYTE   Ds4
 BYTE   W12
 BYTE   Ds4
 BYTE   W12
 BYTE   Dn4
 BYTE   W12
 BYTE   Dn4
 BYTE   W12
 BYTE   N23  As3
 BYTE   W12
 BYTE   PEND 
//  #01 //026   ----------------------------------------
Label_0100D13B:
 BYTE   W12
 BYTE   N11  Gn3  v033
 BYTE   W12
 BYTE   N68  Cn4  v033  gtp3
 BYTE   W72
 BYTE   PEND 
//  #01 //027   ----------------------------------------
Label_0100D146:
 BYTE   W72
 BYTE   N23  Ds4  v033
 BYTE   W24
 BYTE   PEND 
//  #01 //028   ----------------------------------------
Label_0100D14C:
 BYTE   N05  Dn4  v033
 BYTE   W06
 BYTE   Ds4
 BYTE   W06
 BYTE   N11  Fn4
 BYTE   W12
 BYTE   Ds4
 BYTE   W12
 BYTE   Fn4
 BYTE   W12
 BYTE   N56  Gn4  v033  gtp3
 BYTE   W48
 BYTE   PEND 
//  #01 //029   ----------------------------------------
Label_0100D15F:
 BYTE   W12
 BYTE   N05  Gn4  v033
 BYTE   W06
 BYTE   Gn4
 BYTE   W06
 BYTE   N11  Gs4
 BYTE   W12
 BYTE   Gn4
 BYTE   W12
 BYTE   Ds4
 BYTE   W12
 BYTE   N68  Fn4  v033  gtp3
 BYTE   W36
 BYTE   PEND 
//  #01 //030   ----------------------------------------
Label_0100D173:
 BYTE   W36
 BYTE   N11  Fn4  v033
 BYTE   W12
 BYTE   Gn4
 BYTE   W12
 BYTE   Fn4
 BYTE   W12
 BYTE   N68  Ds4  v033  gtp3
 BYTE   W24
 BYTE   PEND 
//  #01 //031   ----------------------------------------
Label_0100D182:
 BYTE   W48
 BYTE   N56  Dn4  v033  gtp3
 BYTE   W48
 BYTE   PEND 
//  #01 //032   ----------------------------------------
Label_0100D189:
 BYTE   W12
 BYTE   N11  Gn3  v033
 BYTE   W12
 BYTE   TIE  Cn4
 BYTE   W72
 BYTE   PEND 
//  #01 //033   ----------------------------------------
 BYTE   W96
//  #01 //034   ----------------------------------------
Label_0100D193:
 BYTE   W11
 BYTE   EOT
 BYTE   Cn4
 BYTE   W72
 BYTE   W01
 BYTE   N32  Cn4  v033  gtp3
 BYTE   W12
 BYTE   PEND 
//  #01 //035   ----------------------------------------
Label_0100D19E:
 BYTE   W24
 BYTE   N23  As4  v033
 BYTE   W24
 BYTE   Gs4
 BYTE   W24
 BYTE   Gn4
 BYTE   W24
 BYTE   PEND 
//  #01 //036   ----------------------------------------
Label_0100D1A8:
 BYTE   N56  Fn4  v033  gtp3
 BYTE   W60
 BYTE   N11  As3
 BYTE   W12
 BYTE   TIE  Gn4
 BYTE   W24
 BYTE   PEND 
//  #01 //037   ----------------------------------------
 BYTE   W80
 BYTE   W03
 BYTE   EOT
 BYTE   W13
//  #01 //038   ----------------------------------------
Label_0100D1B8:
 BYTE   W24
 BYTE   N23  Gn4  v033
 BYTE   W24
 BYTE   Fn4
 BYTE   W24
 BYTE   En4
 BYTE   W24
 BYTE   PEND 
//  #01 //039   ----------------------------------------
Label_0100D1C2:
 BYTE   N23  Fn4  v033
 BYTE   W24
 BYTE   Gs4
 BYTE   W24
 BYTE   Gn4
 BYTE   W24
 BYTE   N68  Ds4  v033  gtp3
 BYTE   W24
 BYTE   PEND 
//  #01 //040   ----------------------------------------
Label_0100D1D0:
 BYTE   W84
 BYTE   N11  Cn4  v033
 BYTE   W12
 BYTE   PEND 
//  #01 //041   ----------------------------------------
Label_0100D1D6:
 BYTE   N11  Dn4  v033
 BYTE   W12
 BYTE   Ds4
 BYTE   W12
 BYTE   N32  Fn4  v033  gtp3
 BYTE   W36
 BYTE   Cn5  v026
 BYTE   W36
 BYTE   PEND 
//  #01 //042   ----------------------------------------
Label_0100D1E5:
 BYTE   W36
 BYTE   N11  Fn4  v033
 BYTE   W12
 BYTE   Fn4
 BYTE   W12
 BYTE   Fn4
 BYTE   W12
 BYTE   N68  Ds4  v033  gtp3
 BYTE   W24
 BYTE   PEND 
//  #01 //043   ----------------------------------------
Label_0100D1F4:
 BYTE   W48
 BYTE   N68  Fn4  v033  gtp3
 BYTE   W48
 BYTE   PEND 
//  #01 //044   ----------------------------------------
 BYTE   W24
 BYTE   TIE  Gn4
 BYTE   W72
//  #01 //045   ----------------------------------------
 BYTE   W68
 BYTE   W03
 BYTE   EOT
 BYTE   W24
 BYTE   W01
//  #01 //046   ----------------------------------------
Label_0100D204:
 BYTE   W48
 BYTE   N23  Gn3  v033
 BYTE   W24
 BYTE   Bn3
 BYTE   W24
 BYTE   PEND 
//  #01 //047   ----------------------------------------
Label_0100D20C:
 BYTE   N23  Dn4  v033
 BYTE   W24
 BYTE   N68  En4  v033  gtp3
 BYTE   W72
 BYTE   PEND 
//  #01 //048   ----------------------------------------
Label_0100D216:
 BYTE   N32  Cn5  v033  gtp3
 BYTE   W72
 BYTE   N23
 BYTE   W24
 BYTE   PEND 
//  #01 //049   ----------------------------------------
Label_0100D21E:
 BYTE   N23  Bn4  v033
 BYTE   W24
 BYTE   An4
 BYTE   W24
 BYTE   Gs4
 BYTE   W24
 BYTE   An4
 BYTE   W24
 BYTE   PEND 
//  #01 //050   ----------------------------------------
Label_0100D229:
 BYTE   N23  Bn4  v033
 BYTE   W24
 BYTE   N56  Cn5  v033  gtp3
 BYTE   W60
 BYTE   N11  En4
 BYTE   W12
 BYTE   PEND 
//  #01 //051   ----------------------------------------
Label_0100D236:
 BYTE   N32  En4  v033  gtp3
 BYTE   W60
 BYTE   N11
 BYTE   W12
 BYTE   N56  An4  v033  gtp3
 BYTE   W24
 BYTE   PEND 
//  #01 //052   ----------------------------------------
Label_0100D243:
 BYTE   W36
 BYTE   N11  Cn4  v033
 BYTE   W12
 BYTE   N32  Cn4  v033  gtp3
 BYTE   W48
 BYTE   PEND 
//  #01 //053   ----------------------------------------
 BYTE   PATT
  POIN2 Label_0100D1B8
//  #01 //054   ----------------------------------------
Label_0100D253:
 BYTE   N56  Cn4  v033  gtp3
 BYTE   W60
 BYTE   N11  Dn4
 BYTE   W12
 BYTE   N32  Dn4  v033  gtp3
 BYTE   W24
 BYTE   PEND 
//  #01 //055   ----------------------------------------
 BYTE   PATT
  POIN2 Label_0100D204
//  #01 //056   ----------------------------------------
 BYTE   PATT
  POIN2 Label_0100D20C
//  #01 //057   ----------------------------------------
 BYTE   PATT
  POIN2 Label_0100D216
//  #01 //058   ----------------------------------------
 BYTE   PATT
  POIN2 Label_0100D21E
//  #01 //059   ----------------------------------------
 BYTE   PATT
  POIN2 Label_0100D229
//  #01 //060   ----------------------------------------
Label_0100D27A:
 BYTE   N32  En4  v033  gtp3
 BYTE   W36
 BYTE   N11
 BYTE   W12
 BYTE   Fn4
 BYTE   W12
 BYTE   Gn4
 BYTE   W12
 BYTE   N23  An4
 BYTE   W24
 BYTE   PEND 
//  #01 //061   ----------------------------------------
 BYTE   Gn4
 BYTE   W24
 BYTE   Fn4
 BYTE   W24
 BYTE   N32  Gn4  v033  gtp3
 BYTE   W36
 BYTE   N23  Cn5
 BYTE   W12
//  #01 //062   ----------------------------------------
Label_0100D295:
 BYTE   W12
 BYTE   N11  En4  v033
 BYTE   W12
 BYTE   N23
 BYTE   W24
 BYTE   N11  Dn4
 BYTE   W12
 BYTE   N68  Dn4  v033  gtp3
 BYTE   W36
 BYTE   PEND 
//  #01 //063   ----------------------------------------
Label_0100D2A5:
 BYTE   W72
 BYTE   N23  Cn4  v033
 BYTE   W24
 BYTE   PEND 
//  #01 //064   ----------------------------------------
Label_0100D2AB:
 BYTE   N23  Bn3  v033
 BYTE   W24
 BYTE   Cn4
 BYTE   W24
 BYTE   Dn4
 BYTE   W24
 BYTE   Cn4
 BYTE   W24
 BYTE   PEND 
//  #01 //065   ----------------------------------------
Label_0100D2B6:
 BYTE   N23  Dn4  v033
 BYTE   W24
 BYTE   En4
 BYTE   W24
 BYTE   Dn4
 BYTE   W24
 BYTE   En4
 BYTE   W24
 BYTE   PEND 
//  #01 //066   ----------------------------------------
Label_0100D2C1:
 BYTE   N23  An3  v033
 BYTE   W24
 BYTE   Cs4
 BYTE   W24
 BYTE   En4
 BYTE   W24
 BYTE   N32  Fn4  v033  gtp3
 BYTE   W24
 BYTE   PEND 
//  #01 //067   ----------------------------------------
Label_0100D2CF:
 BYTE   W12
 BYTE   N32  Gn4  v033  gtp3
 BYTE   W36
 BYTE   N68  An4  v033  gtp3
 BYTE   W48
 BYTE   PEND 
//  #01 //068   ----------------------------------------
 BYTE   W96
//  #01 //069   ----------------------------------------
Label_0100D2DC:
 BYTE   N23  An3  v033
 BYTE   W24
 BYTE   N11  Bn3
 BYTE   W12
 BYTE   N23  An3
 BYTE   W24
 BYTE   TIE  An4
 BYTE   W36
 BYTE   PEND 
//  #01 //070   ----------------------------------------
 BYTE   W96
//  #01 //071   ----------------------------------------
 BYTE   W96
//  #01 //072   ----------------------------------------
 BYTE   W68
 BYTE   W03
 BYTE   EOT
 BYTE   W24
 BYTE   W01
//  #01 //073   ----------------------------------------
 BYTE   W96
//  #01 //074   ----------------------------------------
 BYTE   W96
//  #01 //075   ----------------------------------------
 BYTE   W96
//  #01 //076   ----------------------------------------
 BYTE   W96
//  #01 //077   ----------------------------------------
 BYTE   W96
//  #01 //078   ----------------------------------------
Label_0100D2F6:
 BYTE   W72
 BYTE   N52  Fn5  v019  gtp1
 BYTE   W24
 BYTE   PEND 
//  #01 //079   ----------------------------------------
Label_0100D2FD:
 BYTE   W30
 BYTE   N17  Ds5  v015
 BYTE   W18
 BYTE   Cs5
 BYTE   W18
 BYTE   Gs4
 BYTE   W18
 BYTE   Gn4
 BYTE   W12
 BYTE   PEND 
//  #01 //080   ----------------------------------------
Label_0100D309:
 BYTE   W06
 BYTE   N17  Fn4  v015
 BYTE   W18
 BYTE   TIE  Ds4  v019
 BYTE   W72
 BYTE   PEND 
//  #01 //081   ----------------------------------------
Label_0100D313:
 BYTE   W52
 BYTE   W01
 BYTE   EOT
 BYTE   Ds4
 BYTE   W01
 BYTE   N17  Ds5  v019
 BYTE   W18
 BYTE   N52  Ds5  v015  gtp1
 BYTE   W24
 BYTE   PEND 
//  #01 //082   ----------------------------------------
Label_0100D322:
 BYTE   W30
 BYTE   N17  Cs5  v015
 BYTE   W18
 BYTE   Bn4
 BYTE   W18
 BYTE   Fs4
 BYTE   W18
 BYTE   Fn4
 BYTE   W12
 BYTE   PEND 
//  #01 //083   ----------------------------------------
Label_0100D32E:
 BYTE   W06
 BYTE   N17  Ds4  v015
 BYTE   W18
 BYTE   TIE  Cs5  v019
 BYTE   W72
 BYTE   PEND 
//  #01 //084   ----------------------------------------
 BYTE   W68
 BYTE   W03
 BYTE   EOT
 BYTE   W24
 BYTE   W01
//  #01 //085   ----------------------------------------
 BYTE   W96
//  #01 //086   ----------------------------------------
 BYTE   W96
//  #01 //087   ----------------------------------------
 BYTE   W96
//  #01 //088   ----------------------------------------
 BYTE   W96
//  #01 //089   ----------------------------------------
 BYTE   W96
//  #01 //090   ----------------------------------------
 BYTE   W96
//  #01 //091   ----------------------------------------
 BYTE   W96
//  #01 //092   ----------------------------------------
 BYTE   W96
//  #01 //093   ----------------------------------------
 BYTE   W36
 BYTE   N11  Gn3  v030
 BYTE   W12
 BYTE   Gn3
 BYTE   W12
 BYTE   Gn3
 BYTE   W12
 BYTE   GoTo
  POIN2 Label_0100D07B
 BYTE   FINE

//**************** Track 2 (Midi-Chn.1) ****************//

MarineSail_002:
//  #02 //000   ----------------------------------------
 BYTE   KEYSH   MarineSail_key+0
 BYTE   VOICE   100
 BYTE   PAN   c_v-16
 BYTE   VOL   127*MarineSail_mvl/mxv
 BYTE   W96
//  #02 //001   ----------------------------------------
 BYTE   W96
//  #02 //002   ----------------------------------------
 BYTE   W96
//  #02 //003   ----------------------------------------
 BYTE   W96
//  #02 //004   ----------------------------------------
 BYTE   W96
//  #02 //005   ----------------------------------------
 BYTE   W96
//  #02 //006   ----------------------------------------
 BYTE   PATT
  POIN2 Label_0100D060
//  #02 //007   ----------------------------------------
 BYTE   W96
//  #02 //008   ----------------------------------------
 BYTE   W23
 BYTE   EOT
 BYTE   Cn3
 BYTE   W72
 BYTE   W01
//  #02 //009   ----------------------------------------
 BYTE   W96
//  #02 //010   ----------------------------------------
 BYTE   PATT
  POIN2 Label_0100D071
//  #02 //011   ----------------------------------------
 BYTE   N11  Gn3  v033
 BYTE   W12
 BYTE   Gn3
 BYTE   W12
Label_010082DD:
 BYTE   N32  Ds4  v033  gtp3
 BYTE   W72
//  #02 //012   ----------------------------------------
 BYTE   PATT
  POIN2 Label_0100D080
//  #02 //013   ----------------------------------------
 BYTE   PATT
  POIN2 Label_0100D08E
//  #02 //014   ----------------------------------------
 BYTE   PATT
  POIN2 Label_0100D097
//  #02 //015   ----------------------------------------
 BYTE   PATT
  POIN2 Label_0100D0A5
//  #02 //016   ----------------------------------------
 BYTE   PATT
  POIN2 Label_0100D0B3
//  #02 //017   ----------------------------------------
 BYTE   PATT
  POIN2 Label_0100D0BC
//  #02 //018   ----------------------------------------
 BYTE   PATT
  POIN2 Label_0100D0CC
//  #02 //019   ----------------------------------------
 BYTE   PATT
  POIN2 Label_0100D0DD
//  #02 //020   ----------------------------------------
 BYTE   PATT
  POIN2 Label_0100D0E6
//  #02 //021   ----------------------------------------
 BYTE   PATT
  POIN2 Label_0100D0F1
//  #02 //022   ----------------------------------------
 BYTE   W80
 BYTE   W03
 BYTE   EOT
 BYTE   Dn4
 BYTE   W13
//  #02 //023   ----------------------------------------
 BYTE   PATT
  POIN2 Label_0100D101
//  #02 //024   ----------------------------------------
 BYTE   PATT
  POIN2 Label_0100D113
//  #02 //025   ----------------------------------------
 BYTE   PATT
  POIN2 Label_0100D124
//  #02 //026   ----------------------------------------
 BYTE   PATT
  POIN2 Label_0100D13B
//  #02 //027   ----------------------------------------
 BYTE   PATT
  POIN2 Label_0100D146
//  #02 //028   ----------------------------------------
 BYTE   PATT
  POIN2 Label_0100D14C
//  #02 //029   ----------------------------------------
 BYTE   PATT
  POIN2 Label_0100D15F
//  #02 //030   ----------------------------------------
 BYTE   PATT
  POIN2 Label_0100D173
//  #02 //031   ----------------------------------------
 BYTE   PATT
  POIN2 Label_0100D182
//  #02 //032   ----------------------------------------
 BYTE   PATT
  POIN2 Label_0100D189
//  #02 //033   ----------------------------------------
 BYTE   W96
//  #02 //034   ----------------------------------------
 BYTE   PATT
  POIN2 Label_0100D193
//  #02 //035   ----------------------------------------
 BYTE   PATT
  POIN2 Label_0100D19E
//  #02 //036   ----------------------------------------
 BYTE   PATT
  POIN2 Label_0100D1A8
//  #02 //037   ----------------------------------------
 BYTE   W80
 BYTE   W03
 BYTE   EOT
 BYTE   Gn4
 BYTE   W13
//  #02 //038   ----------------------------------------
 BYTE   PATT
  POIN2 Label_0100D1B8
//  #02 //039   ----------------------------------------
 BYTE   PATT
  POIN2 Label_0100D1C2
//  #02 //040   ----------------------------------------
 BYTE   PATT
  POIN2 Label_0100D1D0
//  #02 //041   ----------------------------------------
 BYTE   PATT
  POIN2 Label_0100D1D6
//  #02 //042   ----------------------------------------
 BYTE   PATT
  POIN2 Label_0100D1E5
//  #02 //043   ----------------------------------------
 BYTE   PATT
  POIN2 Label_0100D1F4
//  #02 //044   ----------------------------------------
 BYTE   W24
 BYTE   TIE  Gn4  v033
 BYTE   W72
//  #02 //045   ----------------------------------------
 BYTE   W68
 BYTE   W03
 BYTE   EOT
 BYTE   W24
 BYTE   W01
//  #02 //046   ----------------------------------------
 BYTE   PATT
  POIN2 Label_0100D204
//  #02 //047   ----------------------------------------
 BYTE   PATT
  POIN2 Label_0100D20C
//  #02 //048   ----------------------------------------
Label_01008392:
 BYTE   N32  Cn5  v026  gtp3
 BYTE   W72
 BYTE   N23
 BYTE   W24
 BYTE   PEND 
//  #02 //049   ----------------------------------------
 BYTE   PATT
  POIN2 Label_0100D21E
//  #02 //050   ----------------------------------------
Label_0100839F:
 BYTE   N23  Bn4  v033
 BYTE   W24
 BYTE   N56  Cn5  v026  gtp3
 BYTE   W60
 BYTE   N11  En4  v033
 BYTE   W12
 BYTE   PEND 
//  #02 //051   ----------------------------------------
 BYTE   PATT
  POIN2 Label_0100D236
//  #02 //052   ----------------------------------------
 BYTE   PATT
  POIN2 Label_0100D243
//  #02 //053   ----------------------------------------
 BYTE   PATT
  POIN2 Label_0100D1B8
//  #02 //054   ----------------------------------------
 BYTE   PATT
  POIN2 Label_0100D253
//  #02 //055   ----------------------------------------
 BYTE   PATT
  POIN2 Label_0100D204
//  #02 //056   ----------------------------------------
 BYTE   PATT
  POIN2 Label_0100D20C
//  #02 //057   ----------------------------------------
 BYTE   PATT
  POIN2 Label_01008392
//  #02 //058   ----------------------------------------
 BYTE   PATT
  POIN2 Label_0100D21E
//  #02 //059   ----------------------------------------
 BYTE   PATT
  POIN2 Label_0100839F
//  #02 //060   ----------------------------------------
 BYTE   PATT
  POIN2 Label_0100D27A
//  #02 //061   ----------------------------------------
 BYTE   N23  Gn4  v033
 BYTE   W24
 BYTE   Fn4
 BYTE   W24
 BYTE   N32  Gn4  v033  gtp3
 BYTE   W36
 BYTE   N23  Cn5  v026
 BYTE   W12
//  #02 //062   ----------------------------------------
 BYTE   PATT
  POIN2 Label_0100D295
//  #02 //063   ----------------------------------------
 BYTE   PATT
  POIN2 Label_0100D2A5
//  #02 //064   ----------------------------------------
 BYTE   PATT
  POIN2 Label_0100D2AB
//  #02 //065   ----------------------------------------
 BYTE   PATT
  POIN2 Label_0100D2B6
//  #02 //066   ----------------------------------------
 BYTE   PATT
  POIN2 Label_0100D2C1
//  #02 //067   ----------------------------------------
 BYTE   PATT
  POIN2 Label_0100D2CF
//  #02 //068   ----------------------------------------
 BYTE   W96
//  #02 //069   ----------------------------------------
 BYTE   PATT
  POIN2 Label_0100D2DC
//  #02 //070   ----------------------------------------
 BYTE   W96
//  #02 //071   ----------------------------------------
 BYTE   W96
//  #02 //072   ----------------------------------------
 BYTE   W68
 BYTE   W03
 BYTE   EOT
 BYTE   An4
 BYTE   W24
 BYTE   W01
//  #02 //073   ----------------------------------------
 BYTE   W96
//  #02 //074   ----------------------------------------
 BYTE   W96
//  #02 //075   ----------------------------------------
 BYTE   W96
//  #02 //076   ----------------------------------------
 BYTE   W96
//  #02 //077   ----------------------------------------
 BYTE   W96
//  #02 //078   ----------------------------------------
 BYTE   PATT
  POIN2 Label_0100D2F6
//  #02 //079   ----------------------------------------
 BYTE   PATT
  POIN2 Label_0100D2FD
//  #02 //080   ----------------------------------------
 BYTE   PATT
  POIN2 Label_0100D309
//  #02 //081   ----------------------------------------
 BYTE   PATT
  POIN2 Label_0100D313
//  #02 //082   ----------------------------------------
 BYTE   PATT
  POIN2 Label_0100D322
//  #02 //083   ----------------------------------------
 BYTE   PATT
  POIN2 Label_0100D32E
//  #02 //084   ----------------------------------------
 BYTE   W68
 BYTE   W03
 BYTE   EOT
 BYTE   Cs5
 BYTE   W24
 BYTE   W01
//  #02 //085   ----------------------------------------
 BYTE   W96
//  #02 //086   ----------------------------------------
 BYTE   W96
//  #02 //087   ----------------------------------------
 BYTE   W96
//  #02 //088   ----------------------------------------
 BYTE   W96
//  #02 //089   ----------------------------------------
 BYTE   W96
//  #02 //090   ----------------------------------------
 BYTE   W96
//  #02 //091   ----------------------------------------
 BYTE   W96
//  #02 //092   ----------------------------------------
 BYTE   W96
//  #02 //093   ----------------------------------------
 BYTE   W36
 BYTE   N11  Gn3  v030
 BYTE   W12
 BYTE   Gn3
 BYTE   W12
 BYTE   Gn3
 BYTE   W12
 BYTE   GoTo
  POIN2 Label_010082DD
 BYTE   FINE

//**************** Track 3 (Midi-Chn.2) ****************//

MarineSail_003:
//  #03 //000   ----------------------------------------
 BYTE   KEYSH   MarineSail_key+0
 BYTE   VOICE   42
 BYTE   PAN   c_v-36
 BYTE   VOL   127*MarineSail_mvl/mxv
 BYTE   W96
//  #03 //001   ----------------------------------------
 BYTE   W96
//  #03 //002   ----------------------------------------
 BYTE   W24
 BYTE   TIE  An4  v039
 BYTE   W72
//  #03 //003   ----------------------------------------
 BYTE   W64
 BYTE   EOT
 BYTE   W08
 BYTE   N22  Ds4  v036
 BYTE   W24
//  #03 //004   ----------------------------------------
 BYTE   Fn4
 BYTE   W24
 BYTE   Dn4
 BYTE   W24
 BYTE   N68  Cn4
 BYTE   W48
//  #03 //005   ----------------------------------------
 BYTE   W24
 BYTE   N22  Fn4
 BYTE   W24
 BYTE   Gn4
 BYTE   W24
 BYTE   Ds4
 BYTE   W24
//  #03 //006   ----------------------------------------
 BYTE   N68  Dn4
 BYTE   W72
 BYTE   Cn4
 BYTE   W24
//  #03 //007   ----------------------------------------
 BYTE   W12
 BYTE   N32  Fn4  v036  gtp2
 BYTE   W36
 BYTE   Ds4
 BYTE   W36
 BYTE   Dn4
 BYTE   W12
//  #03 //008   ----------------------------------------
 BYTE   W96
//  #03 //009   ----------------------------------------
 BYTE   W24
 BYTE   N11  Gn4  v030
 BYTE   W12
 BYTE   Gn4
 BYTE   W12
 BYTE   Gn4
 BYTE   W48
//  #03 //010   ----------------------------------------
 BYTE   Dn5  v036
 BYTE   W12
 BYTE   Dn5
 BYTE   W12
 BYTE   Dn5
 BYTE   W12
 BYTE   Dn5
 BYTE   W12
 BYTE   Dn5
 BYTE   W12
 BYTE   Dn5
 BYTE   W12
 BYTE   N17
 BYTE   W24
//  #03 //011   ----------------------------------------
 BYTE   N11  Dn3  v024
 BYTE   W12
 BYTE   Ds3
 BYTE   W12
Label_0100DAB7:
 BYTE   W12
 BYTE   N11  Dn3  v024
 BYTE   W12
 BYTE   Ds3
 BYTE   W24
 BYTE   Dn3
 BYTE   W12
 BYTE   Ds3
 BYTE   W12
//  #03 //012   ----------------------------------------
Label_0100DAC2:
 BYTE   W72
 BYTE   N11  Gn2  v024
 BYTE   W12
 BYTE   Gs2
 BYTE   W12
 BYTE   PEND 
//  #03 //013   ----------------------------------------
 BYTE   W12
 BYTE   Gn2
 BYTE   W12
 BYTE   Gs2
 BYTE   W12
 BYTE   As2
 BYTE   W24
 BYTE   Gs2
 BYTE   W12
 BYTE   As2
 BYTE   W24
//  #03 //014   ----------------------------------------
 BYTE   Dn3
 BYTE   W12
 BYTE   Ds3
 BYTE   W24
 BYTE   Dn3  v027
 BYTE   W12
 BYTE   Ds3
 BYTE   W24
 BYTE   Dn3  v030
 BYTE   W12
 BYTE   Ds3
 BYTE   W12
//  #03 //015   ----------------------------------------
 BYTE   PATT
  POIN2 Label_0100DAC2
//  #03 //016   ----------------------------------------
 BYTE   W12
 BYTE   N11  Gn2  v024
 BYTE   W12
 BYTE   Gs2
 BYTE   W12
 BYTE   As2
 BYTE   W12
 BYTE   Gn2  v030
 BYTE   W12
 BYTE   Gs2  v024
 BYTE   W12
 BYTE   As2
 BYTE   W24
//  #03 //017   ----------------------------------------
 BYTE   W96
//  #03 //018   ----------------------------------------
 BYTE   W96
//  #03 //019   ----------------------------------------
 BYTE   N17  Dn3  v036
 BYTE   W36
 BYTE   TIE  Cn3
 BYTE   W60
//  #03 //020   ----------------------------------------
 BYTE   W42
 BYTE   EOT
 BYTE   W06
 BYTE   TIE
 BYTE   W48
//  #03 //021   ----------------------------------------
 BYTE   W88
 BYTE   EOT
 BYTE   W08
//  #03 //022   ----------------------------------------
 BYTE   N68  Cn3  v030
 BYTE   W72
 BYTE   N24  Bn2  v036
 BYTE   W24
//  #03 //023   ----------------------------------------
 BYTE   N22  Ds3  v024
 BYTE   W24
 BYTE   N05  Dn3
 BYTE   W06
 BYTE   Ds3
 BYTE   W06
 BYTE   N11  Fn3
 BYTE   W12
 BYTE   Ds3
 BYTE   W12
 BYTE   Dn3
 BYTE   W12
 BYTE   Ds3
 BYTE   W12
 BYTE   Dn3
 BYTE   W12
//  #03 //024   ----------------------------------------
 BYTE   Ds3
 BYTE   W12
 BYTE   Fn3
 BYTE   W12
 BYTE   Ds3
 BYTE   W12
 BYTE   Dn3
 BYTE   W12
 BYTE   N22  Ds3
 BYTE   W24
 BYTE   N05  Dn3
 BYTE   W06
 BYTE   Ds3
 BYTE   W06
 BYTE   N11  Fn3
 BYTE   W12
//  #03 //025   ----------------------------------------
 BYTE   Ds3
 BYTE   W12
 BYTE   Dn3
 BYTE   W12
 BYTE   Ds3
 BYTE   W12
 BYTE   Dn3
 BYTE   W12
 BYTE   Cn3
 BYTE   W12
 BYTE   N22  As2
 BYTE   W36
//  #03 //026   ----------------------------------------
 BYTE   N11  Cn3
 BYTE   W12
 BYTE   Dn3
 BYTE   W12
 BYTE   Ds3
 BYTE   W12
 BYTE   As3
 BYTE   W12
 BYTE   Gs3
 BYTE   W12
 BYTE   Gn3
 BYTE   W12
 BYTE   Gs3
 BYTE   W12
 BYTE   Gn3
 BYTE   W12
//  #03 //027   ----------------------------------------
 BYTE   Fn3
 BYTE   W12
 BYTE   Ds3
 BYTE   W12
 BYTE   Cn3
 BYTE   W12
 BYTE   Ds3
 BYTE   W60
//  #03 //028   ----------------------------------------
 BYTE   N32  Ds4  v036  gtp2
 BYTE   W36
 BYTE   Fn4
 BYTE   W36
 BYTE   N68  Gn4
 BYTE   W24
//  #03 //029   ----------------------------------------
 BYTE   W96
//  #03 //030   ----------------------------------------
 BYTE   W24
 BYTE   N32  Fn4  v030  gtp2
 BYTE   W36
 BYTE   N11  Fn4  v036
 BYTE   W12
 BYTE   Gn4
 BYTE   W12
 BYTE   Fn4
 BYTE   W12
//  #03 //031   ----------------------------------------
 BYTE   N68  Ds4
 BYTE   W72
 BYTE   N56  Dn4
 BYTE   W24
//  #03 //032   ----------------------------------------
 BYTE   W36
 BYTE   N11  Gn4
 BYTE   W12
 BYTE   Gn4
 BYTE   W36
 BYTE   Gn4  v030
 BYTE   W12
//  #03 //033   ----------------------------------------
 BYTE   W24
 BYTE   Gn4
 BYTE   W36
 BYTE   Gn4
 BYTE   W24
 BYTE   Cn5
 BYTE   W12
//  #03 //034   ----------------------------------------
 BYTE   Dn5
 BYTE   W12
 BYTE   Cn5
 BYTE   W12
 BYTE   Gn4
 BYTE   W12
 BYTE   Dn4
 BYTE   W12
 BYTE   Cn4
 BYTE   W12
 BYTE   Gn3
 BYTE   W12
 BYTE   N32  Cn3  v030  gtp2
 BYTE   W24
//  #03 //035   ----------------------------------------
 BYTE   W48
 BYTE   N68  Ds4  v036
 BYTE   W48
//  #03 //036   ----------------------------------------
 BYTE   W24
 BYTE   N22  Dn4  v033
 BYTE   W24
 BYTE   Ds4  v035
 BYTE   W24
 BYTE   Fn4  v036
 BYTE   W24
//  #03 //037   ----------------------------------------
 BYTE   Gn4  v038
 BYTE   W24
 BYTE   Dn5  v039
 BYTE   W24
 BYTE   Cn5  v042
 BYTE   W24
 BYTE   Gn4  v033
 BYTE   W24
//  #03 //038   ----------------------------------------
 BYTE   Gs4  v035
 BYTE   W24
 BYTE   As4  v036
 BYTE   W24
 BYTE   N68  Cn5
 BYTE   W48
//  #03 //039   ----------------------------------------
 BYTE   W24
 BYTE   N56  Bn4  v033
 BYTE   W60
 BYTE   N11  Gn4
 BYTE   W12
//  #03 //040   ----------------------------------------
 BYTE   TIE  Gn4  v036
 BYTE   W96
//  #03 //041   ----------------------------------------
 BYTE   W40
 BYTE   EOT
 BYTE   W08
 BYTE   TIE  Fn3  v030
 BYTE   W48
//  #03 //042   ----------------------------------------
 BYTE   W88
 BYTE   EOT
 BYTE   W08
//  #03 //043   ----------------------------------------
 BYTE   N68  Ds3  v033
 BYTE   W72
 BYTE   Fn3
 BYTE   W24
//  #03 //044   ----------------------------------------
 BYTE   W48
 BYTE   N11  Gn3  v036
 BYTE   W12
 BYTE   Gn3
 BYTE   W12
 BYTE   Gn3
 BYTE   W24
//  #03 //045   ----------------------------------------
 BYTE   Dn4
 BYTE   W12
 BYTE   Dn4
 BYTE   W24
 BYTE   Gn4
 BYTE   W12
 BYTE   Gn4
 BYTE   W12
 BYTE   N22
 BYTE   W36
//  #03 //046   ----------------------------------------
 BYTE   N11
 BYTE   W12
 BYTE   Fn4
 BYTE   W12
 BYTE   Ds4
 BYTE   W12
 BYTE   Dn4
 BYTE   W12
 BYTE   Cn4
 BYTE   W12
 BYTE   Bn3
 BYTE   W12
 BYTE   N68  Gn3
 BYTE   W24
//  #03 //047   ----------------------------------------
 BYTE   W84
 BYTE   N11  En4  v030
 BYTE   W12
//  #03 //048   ----------------------------------------
 BYTE   En4
 BYTE   W12
 BYTE   En4
 BYTE   W12
 BYTE   N22  En4  v027
 BYTE   W24
 BYTE   Fn4
 BYTE   W24
 BYTE   Gn4
 BYTE   W24
//  #03 //049   ----------------------------------------
Label_0100DC13:
 BYTE   N22  Cn5  v039
 BYTE   W24
 BYTE   Bn4  v035
 BYTE   W24
 BYTE   An4  v033
 BYTE   W24
 BYTE   Gs4  v031
 BYTE   W24
 BYTE   PEND 
//  #03 //050   ----------------------------------------
 BYTE   An4  v033
 BYTE   W24
 BYTE   Bn4  v035
 BYTE   W24
 BYTE   N56  Cn5  v039
 BYTE   W48
//  #03 //051   ----------------------------------------
 BYTE   W12
 BYTE   N11  En4  v036
 BYTE   W12
 BYTE   N56
 BYTE   W60
 BYTE   N11
 BYTE   W12
//  #03 //052   ----------------------------------------
 BYTE   N56  An4
 BYTE   W60
 BYTE   N11  Cn4
 BYTE   W12
 BYTE   N68
 BYTE   W24
//  #03 //053   ----------------------------------------
 BYTE   W48
 BYTE   Cn4
 BYTE   W48
//  #03 //054   ----------------------------------------
 BYTE   W24
 BYTE   N56
 BYTE   W60
 BYTE   N11  Dn4
 BYTE   W12
//  #03 //055   ----------------------------------------
 BYTE   N17
 BYTE   W18
 BYTE   N05  Dn4  v030
 BYTE   W06
 BYTE   Dn4
 BYTE   W06
 BYTE   Dn4
 BYTE   W06
 BYTE   N11
 BYTE   W12
 BYTE   Dn4
 BYTE   W12
 BYTE   Dn4
 BYTE   W12
 BYTE   N22  Gn3  v036
 BYTE   W24
//  #03 //056   ----------------------------------------
 BYTE   Bn3
 BYTE   W24
 BYTE   Dn4
 BYTE   W24
 BYTE   N32  Cn4  v036  gtp2
 BYTE   W36
 BYTE   N11  En4  v030
 BYTE   W12
//  #03 //057   ----------------------------------------
 BYTE   Fn4
 BYTE   W12
 BYTE   Gn4
 BYTE   W12
 BYTE   N32  Gn4  v036  gtp2
 BYTE   W36
 BYTE   Cn5  v039
 BYTE   W36
//  #03 //058   ----------------------------------------
 BYTE   PATT
  POIN2 Label_0100DC13
//  #03 //059   ----------------------------------------
 BYTE   N22  An4  v033
 BYTE   W24
 BYTE   Bn4  v035
 BYTE   W24
 BYTE   N56  Cn5  v036
 BYTE   W48
//  #03 //060   ----------------------------------------
 BYTE   W12
 BYTE   N11  En4
 BYTE   W12
 BYTE   N68  En4  v030
 BYTE   W72
//  #03 //061   ----------------------------------------
 BYTE   N22  An4  v036
 BYTE   W24
 BYTE   Gn4
 BYTE   W24
 BYTE   Fn4
 BYTE   W24
 BYTE   Gn4
 BYTE   W24
//  #03 //062   ----------------------------------------
 BYTE   W12
 BYTE   N11  Cn5  v027
 BYTE   W12
 BYTE   Gn4
 BYTE   W12
 BYTE   En4  v030
 BYTE   W12
 BYTE   N22
 BYTE   W24
 BYTE   N11  Dn4
 BYTE   W12
 BYTE   N32  Dn4  v030  gtp2
 BYTE   W12
//  #03 //063   ----------------------------------------
 BYTE   W24
 BYTE   N05  Cn3  v020
 BYTE   W06
 BYTE   En3
 BYTE   W06
 BYTE   Gn3
 BYTE   W06
 BYTE   Cn4
 BYTE   W06
 BYTE   En4
 BYTE   W06
 BYTE   Gn4
 BYTE   W06
 BYTE   Cn5
 BYTE   W06
 BYTE   Gn4
 BYTE   W06
 BYTE   En4
 BYTE   W06
 BYTE   Cn4
 BYTE   W06
 BYTE   Gn3
 BYTE   W06
 BYTE   En3
 BYTE   W06
//  #03 //064   ----------------------------------------
 BYTE   W96
//  #03 //065   ----------------------------------------
 BYTE   W96
//  #03 //066   ----------------------------------------
 BYTE   W96
//  #03 //067   ----------------------------------------
 BYTE   N32  Fn4  v033  gtp2
 BYTE   W36
 BYTE   Gn4
 BYTE   W36
 BYTE   N68  An4
 BYTE   W24
//  #03 //068   ----------------------------------------
 BYTE   W48
 BYTE   N22  An4  v038
 BYTE   W24
 BYTE   N11
 BYTE   W12
 BYTE   An4
 BYTE   W12
//  #03 //069   ----------------------------------------
 BYTE   An4
 BYTE   W12
 BYTE   An4
 BYTE   W12
 BYTE   N68
 BYTE   W72
//  #03 //070   ----------------------------------------
 BYTE   N11  An4  v027
 BYTE   W12
 BYTE   En4  v020
 BYTE   W12
 BYTE   An3
 BYTE   W12
 BYTE   An3
 BYTE   W24
 BYTE   En4
 BYTE   W12
 BYTE   An4  v024
 BYTE   W12
 BYTE   En4
 BYTE   W12
//  #03 //071   ----------------------------------------
 BYTE   An3
 BYTE   W12
 BYTE   An3  v027
 BYTE   W12
 BYTE   N16  Dn4
 BYTE   W12
 BYTE   N11  En4
 BYTE   W12
 BYTE   An4  v024
 BYTE   W12
 BYTE   En4
 BYTE   W12
 BYTE   An3
 BYTE   W12
 BYTE   An3  v027
 BYTE   W12
//  #03 //072   ----------------------------------------
 BYTE   Dn4
 BYTE   W12
 BYTE   En4
 BYTE   W12
 BYTE   N17  An4  v036
 BYTE   W18
 BYTE   As4
 BYTE   W18
 BYTE   Cn5
 BYTE   W18
 BYTE   Dn5
 BYTE   W18
//  #03 //073   ----------------------------------------
 BYTE   N56  Ds5
 BYTE   W60
 BYTE   N05  Dn5  v030
 BYTE   W06
 BYTE   Cn5  v025
 BYTE   W06
 BYTE   N32  Ds4  v036  gtp2
 BYTE   W24
//  #03 //074   ----------------------------------------
 BYTE   W12
 BYTE   Cn5
 BYTE   W36
 BYTE   N22  Dn5
 BYTE   W24
 BYTE   N11  Gn4
 BYTE   W12
 BYTE   TIE
 BYTE   W12
//  #03 //075   ----------------------------------------
 BYTE   W90
 BYTE   EOT
 BYTE   W06
//  #03 //076   ----------------------------------------
 BYTE   N56  Cs5
 BYTE   W60
 BYTE   N05  Cn5  v030
 BYTE   W06
 BYTE   As4
 BYTE   W06
 BYTE   N32  Fs4  v036  gtp2
 BYTE   W24
//  #03 //077   ----------------------------------------
 BYTE   W12
 BYTE   Gn4
 BYTE   W36
 BYTE   N22  Gs4
 BYTE   W24
 BYTE   N11  Fn5  v028
 BYTE   W12
 BYTE   TIE
 BYTE   W12
//  #03 //078   ----------------------------------------
 BYTE   W90
 BYTE   EOT
 BYTE   W06
//  #03 //079   ----------------------------------------
 BYTE   W96
//  #03 //080   ----------------------------------------
 BYTE   W96
//  #03 //081   ----------------------------------------
 BYTE   W96
//  #03 //082   ----------------------------------------
 BYTE   W96
//  #03 //083   ----------------------------------------
 BYTE   W96
//  #03 //084   ----------------------------------------
 BYTE   W96
//  #03 //085   ----------------------------------------
 BYTE   N32  En3  v036  gtp2
 BYTE   W36
 BYTE   N11
 BYTE   W12
 BYTE   Fn3
 BYTE   W12
 BYTE   Gn3
 BYTE   W12
 BYTE   N32  Gs3  v036  gtp2
 BYTE   W24
//  #03 //086   ----------------------------------------
 BYTE   W12
 BYTE   N11
 BYTE   W12
 BYTE   Gn3
 BYTE   W12
 BYTE   Gs3
 BYTE   W12
 BYTE   N32  As3  v036  gtp2
 BYTE   W36
 BYTE   N11
 BYTE   W12
//  #03 //087   ----------------------------------------
 BYTE   Gs3
 BYTE   W12
 BYTE   As3
 BYTE   W12
 BYTE   Cn4
 BYTE   W24
 BYTE   Cn4
 BYTE   W12
 BYTE   Ds4
 BYTE   W12
 BYTE   Cn4
 BYTE   W12
 BYTE   Ds4
 BYTE   W12
//  #03 //088   ----------------------------------------
 BYTE   Fs4  v039
 BYTE   W12
 BYTE   Fs4
 BYTE   W12
 BYTE   Fs4
 BYTE   W48
 BYTE   Fs4
 BYTE   W12
 BYTE   Fs4
 BYTE   W12
//  #03 //089   ----------------------------------------
 BYTE   Fs4
 BYTE   W48
 BYTE   An4
 BYTE   W12
 BYTE   An4
 BYTE   W12
 BYTE   An4
 BYTE   W12
 BYTE   N32  Ds4  v036  gtp2
 BYTE   W12
//  #03 //090   ----------------------------------------
 BYTE   W24
 BYTE   N11  An4  v039
 BYTE   W12
 BYTE   An4
 BYTE   W12
 BYTE   An4
 BYTE   W12
 BYTE   N32  Ds4  v036  gtp2
 BYTE   W36
//  #03 //091   ----------------------------------------
 BYTE   N11  Gn4
 BYTE   W12
 BYTE   Gn4
 BYTE   W12
 BYTE   Gn4
 BYTE   W12
 BYTE   N24
 BYTE   W24
 BYTE   N11  Gn4  v030
 BYTE   W12
 BYTE   N32  Cn5  v035  gtp2
 BYTE   W24
//  #03 //092   ----------------------------------------
 BYTE   W12
 BYTE   N11  Gs4  v036
 BYTE   W12
 BYTE   Gs4
 BYTE   W12
 BYTE   Gs4
 BYTE   W12
 BYTE   N68  Gn4
 BYTE   W48
//  #03 //093   ----------------------------------------
 BYTE   W24
 BYTE   N48
 BYTE   W48
 BYTE   GoTo
  POIN2 Label_0100DAB7
 BYTE   FINE

//**************** Track 4 (Midi-Chn.3) ****************//

MarineSail_004:
//  #04 //000   ----------------------------------------
 BYTE   KEYSH   MarineSail_key+0
 BYTE   VOICE   61
 BYTE   PAN   c_v+52
 BYTE   N22  Cn2  v026
 BYTE   VOL   127*MarineSail_mvl/mxv
 BYTE   W36
 BYTE   N22
 BYTE   W24
 BYTE   N11  Dn2
 BYTE   W12
 BYTE   N24  Gn2
 BYTE   N22  Cn3
 BYTE   W24
//  #04 //001   ----------------------------------------
 BYTE   N44  Gn2
 BYTE   W12
 BYTE   N22  Cn3
 BYTE   W24
 BYTE   N11  Dn3
 BYTE   W12
 BYTE   N22  Cn4
 BYTE   N24  Gn3
 BYTE   W24
 BYTE   N44
 BYTE   W12
 BYTE   N22  Cn4
 BYTE   W12
//  #04 //002   ----------------------------------------
 BYTE   W12
 BYTE   N11  Dn4
 BYTE   W12
 BYTE   TIE  An3  v022
 BYTE   W72
//  #04 //003   ----------------------------------------
 BYTE   W64
 BYTE   EOT
 BYTE   W08
 BYTE   N22  Ds3
 BYTE   W24
//  #04 //004   ----------------------------------------
 BYTE   Fn3
 BYTE   W24
 BYTE   Dn3
 BYTE   W24
 BYTE   N68  Cn3
 BYTE   W48
//  #04 //005   ----------------------------------------
 BYTE   W24
 BYTE   N22  Fn3
 BYTE   W24
 BYTE   Gn3
 BYTE   W24
 BYTE   Ds3
 BYTE   W24
//  #04 //006   ----------------------------------------
 BYTE   N68  Dn3
 BYTE   W36
 BYTE   N11  Gn3  v017
 BYTE   W12
 BYTE   Cn3
 BYTE   W12
 BYTE   Gn3
 BYTE   W12
 BYTE   N68  Cn3  v022
 BYTE   W24
//  #04 //007   ----------------------------------------
 BYTE   W12
 BYTE   N32  Fn3  v022  gtp2
 BYTE   W36
 BYTE   Ds3
 BYTE   W36
 BYTE   Dn3
 BYTE   W12
//  #04 //008   ----------------------------------------
 BYTE   W24
 BYTE   N11  Cn3  v017
 BYTE   W12
 BYTE   Cn3
 BYTE   W12
 BYTE   Cn3
 BYTE   W48
//  #04 //009   ----------------------------------------
 BYTE   Gn3
 BYTE   W12
 BYTE   Gn3
 BYTE   W12
 BYTE   Gn3
 BYTE   W48
 BYTE   Dn4  v022
 BYTE   W12
 BYTE   Dn4
 BYTE   W12
//  #04 //010   ----------------------------------------
 BYTE   Dn4
 BYTE   W12
 BYTE   Dn4
 BYTE   W12
 BYTE   Dn4
 BYTE   W12
 BYTE   Dn4
 BYTE   W12
 BYTE   N17
 BYTE   W48
//  #04 //011   ----------------------------------------
 BYTE   W24
Label_0100D73E:
 BYTE   W36
 BYTE   N36  Cn3  v017
 BYTE   W36
//  #04 //012   ----------------------------------------
 BYTE   N64
 BYTE   W72
 BYTE   N24  As2  v022
 BYTE   W24
//  #04 //013   ----------------------------------------
 BYTE   N36  As2  v017
 BYTE   W96
//  #04 //014   ----------------------------------------
 BYTE   W60
 BYTE   Cn3  v019
 BYTE   W36
//  #04 //015   ----------------------------------------
 BYTE   N64  Cn3  v022
 BYTE   W72
 BYTE   N24  As2
 BYTE   W24
//  #04 //016   ----------------------------------------
 BYTE   N36  As2  v017
 BYTE   W48
 BYTE   N32  Cs3  v024  gtp2
 BYTE   W36
 BYTE   Cn3
 BYTE   W12
//  #04 //017   ----------------------------------------
 BYTE   W24
 BYTE   N68  Gs2  v026
 BYTE   W72
//  #04 //018   ----------------------------------------
 BYTE   W72
 BYTE   N17  As2  v022
 BYTE   W24
//  #04 //019   ----------------------------------------
 BYTE   W12
 BYTE   TIE  Gn2
 BYTE   W84
//  #04 //020   ----------------------------------------
 BYTE   W18
 BYTE   EOT
 BYTE   W06
 BYTE   TIE  An2
 BYTE   W72
//  #04 //021   ----------------------------------------
 BYTE   W64
 BYTE   EOT
 BYTE   W08
 BYTE   N68  Gn2  v028
 BYTE   W24
//  #04 //022   ----------------------------------------
 BYTE   W48
 BYTE   Gn2  v022
 BYTE   W48
//  #04 //023   ----------------------------------------
 BYTE   W60
 BYTE   N32  Cn3  v022  gtp2
 BYTE   W36
//  #04 //024   ----------------------------------------
 BYTE   W36
 BYTE   Cn3
 BYTE   W60
//  #04 //025   ----------------------------------------
 BYTE   W12
 BYTE   Cn3
 BYTE   W36
 BYTE   As2
 BYTE   W36
 BYTE   N24  Gn2
 BYTE   W12
//  #04 //026   ----------------------------------------
 BYTE   W12
 BYTE   N11  Gn2  v017
 BYTE   W84
//  #04 //027   ----------------------------------------
 BYTE   W72
 BYTE   N32  Ds3  v022  gtp2
 BYTE   W24
//  #04 //028   ----------------------------------------
 BYTE   W12
 BYTE   Fn3
 BYTE   W36
 BYTE   N68  Gn3
 BYTE   W48
//  #04 //029   ----------------------------------------
 BYTE   W24
 BYTE   N56  Fn3  v019
 BYTE   W60
 BYTE   N03  Fn3  v017
 BYTE   W03
 BYTE   N04  Gs3
 BYTE   W05
 BYTE   N03  Cn4
 BYTE   W04
//  #04 //030   ----------------------------------------
 BYTE   W36
 BYTE   N11  Fn3  v022
 BYTE   W12
 BYTE   Gn3
 BYTE   W12
 BYTE   Fn3
 BYTE   W12
 BYTE   N68  Ds3
 BYTE   W24
//  #04 //031   ----------------------------------------
 BYTE   W48
 BYTE   N56  Dn3
 BYTE   W48
//  #04 //032   ----------------------------------------
 BYTE   W12
 BYTE   N11  Gn3
 BYTE   W24
 BYTE   Dn4
 BYTE   W12
 BYTE   Cn4
 BYTE   W24
 BYTE   Dn4
 BYTE   W12
 BYTE   Cn4
 BYTE   W12
//  #04 //033   ----------------------------------------
 BYTE   W12
 BYTE   Dn4
 BYTE   W12
 BYTE   Cn4
 BYTE   W24
 BYTE   Dn4
 BYTE   W48
//  #04 //034   ----------------------------------------
 BYTE   W96
//  #04 //035   ----------------------------------------
 BYTE   W24
 BYTE   N68  Ds3
 BYTE   N22  As3  v017
 BYTE   W24
 BYTE   Gs3
 BYTE   W24
 BYTE   Gn3
 BYTE   W24
//  #04 //036   ----------------------------------------
 BYTE   Dn3  v019
 BYTE   W24
 BYTE   Ds3  v020
 BYTE   W24
 BYTE   Fn3  v022
 BYTE   W24
 BYTE   Gn3  v023
 BYTE   W24
//  #04 //037   ----------------------------------------
 BYTE   Dn4  v024
 BYTE   W24
 BYTE   Cn4  v026
 BYTE   W24
 BYTE   Gn3  v022
 BYTE   W24
 BYTE   Gs3
 BYTE   W24
//  #04 //038   ----------------------------------------
 BYTE   As3
 BYTE   W24
 BYTE   N68  Cn4
 BYTE   W72
//  #04 //039   ----------------------------------------
 BYTE   N56  Bn3  v019
 BYTE   W60
 BYTE   N11  Gn4  v024
 BYTE   W12
 BYTE   TIE  Gn4  v026
 BYTE   W24
//  #04 //040   ----------------------------------------
 BYTE   W12
 BYTE   N32  Fn3  v012  gtp2
 BYTE   W36
 BYTE   Gn3
 BYTE   W48
//  #04 //041   ----------------------------------------
 BYTE   W16
 BYTE   EOT
 BYTE   Gn4
 BYTE   W08
 BYTE   TIE  Cn3  v019
 BYTE   W72
//  #04 //042   ----------------------------------------
 BYTE   W64
 BYTE   EOT
 BYTE   W08
 BYTE   N68  As2  v022
 BYTE   W24
//  #04 //043   ----------------------------------------
 BYTE   W48
 BYTE   Dn3
 BYTE   W48
//  #04 //044   ----------------------------------------
 BYTE   W24
 BYTE   N11
 BYTE   W12
 BYTE   Dn3
 BYTE   W12
 BYTE   Dn3
 BYTE   W24
 BYTE   Dn3
 BYTE   W12
 BYTE   Dn3
 BYTE   W12
//  #04 //045   ----------------------------------------
 BYTE   W12
 BYTE   Gn3
 BYTE   W12
 BYTE   Gn3
 BYTE   W12
 BYTE   N22
 BYTE   W36
 BYTE   N11
 BYTE   W12
 BYTE   Fn3
 BYTE   W12
//  #04 //046   ----------------------------------------
 BYTE   Ds3
 BYTE   W12
 BYTE   Dn3
 BYTE   W12
 BYTE   Cn3
 BYTE   W12
 BYTE   Bn2
 BYTE   W12
 BYTE   N68  Gn2
 BYTE   W24
 BYTE   N22  Bn2
 BYTE   W24
//  #04 //047   ----------------------------------------
 BYTE   Dn3
 BYTE   W24
 BYTE   N68  En3  v028
 BYTE   W36
 BYTE   N11  En4  v022
 BYTE   W12
 BYTE   En4
 BYTE   W12
 BYTE   En4
 BYTE   W12
//  #04 //048   ----------------------------------------
 BYTE   N68  Cn4  v028
 BYTE   N22  En4  v019
 BYTE   W24
 BYTE   Fn4
 BYTE   W24
 BYTE   Gn4
 BYTE   W24
 BYTE   Cn4  v022
 BYTE   W24
//  #04 //049   ----------------------------------------
Label_0100D864:
 BYTE   N22  Bn3  v020
 BYTE   W24
 BYTE   An3  v019
 BYTE   W24
 BYTE   Gs3  v018
 BYTE   W24
 BYTE   An3  v019
 BYTE   W24
 BYTE   PEND 
//  #04 //050   ----------------------------------------
 BYTE   Bn3  v020
 BYTE   W24
 BYTE   N56  Cn4  v024
 BYTE   W60
 BYTE   N11  En3  v022
 BYTE   W12
//  #04 //051   ----------------------------------------
 BYTE   N56
 BYTE   W60
 BYTE   N11
 BYTE   W12
 BYTE   N56  An3
 BYTE   W24
//  #04 //052   ----------------------------------------
 BYTE   W36
 BYTE   N11  Cn3
 BYTE   W12
 BYTE   N12
 BYTE   W12
 BYTE   N56  Cn3  v019
 BYTE   W12
 BYTE   N11  En3
 BYTE   W12
 BYTE   Gn3
 BYTE   W12
//  #04 //053   ----------------------------------------
 BYTE   En3
 BYTE   W12
 BYTE   Gn3
 BYTE   W12
 BYTE   N68  Cn3  v022
 BYTE   N22  Gn3
 BYTE   W24
 BYTE   Fn3
 BYTE   W24
 BYTE   En3
 BYTE   W24
//  #04 //054   ----------------------------------------
 BYTE   N56  Cn3
 BYTE   N32  Fn3  v022  gtp2
 BYTE   W60
 BYTE   N11  Dn3
 BYTE   W12
 BYTE   N17
 BYTE   W24
//  #04 //055   ----------------------------------------
 BYTE   W48
 BYTE   N22  Gn2
 BYTE   W24
 BYTE   Bn2
 BYTE   W24
//  #04 //056   ----------------------------------------
 BYTE   Dn3
 BYTE   W24
 BYTE   N32  Cn3  v022  gtp2
 BYTE   W36
 BYTE   N11  En3  v017
 BYTE   W12
 BYTE   Fn3
 BYTE   W12
 BYTE   Gn3
 BYTE   W12
//  #04 //057   ----------------------------------------
 BYTE   N32  Gn3  v022  gtp2
 BYTE   W36
 BYTE   Cn4  v024
 BYTE   W36
 BYTE   N22  Cn4  v022
 BYTE   W24
//  #04 //058   ----------------------------------------
 BYTE   PATT
  POIN2 Label_0100D864
//  #04 //059   ----------------------------------------
 BYTE   N22  Bn3  v020
 BYTE   W24
 BYTE   N56  Cn4  v022
 BYTE   W60
 BYTE   N11  En3
 BYTE   W12
//  #04 //060   ----------------------------------------
 BYTE   N68
 BYTE   W72
 BYTE   N22  An3  v024
 BYTE   N11  Cn4  v015
 BYTE   W12
 BYTE   N22
 BYTE   W12
//  #04 //061   ----------------------------------------
 BYTE   Gn3  v024
 BYTE   W24
 BYTE   Fn3
 BYTE   N11  Cn4  v015
 BYTE   W12
 BYTE   Cn4
 BYTE   W12
 BYTE   N22  Gn3  v024
 BYTE   N11  Cn4  v015
 BYTE   W12
 BYTE   Cn4
 BYTE   W12
 BYTE   Cn4
 BYTE   W12
 BYTE   Cn4
 BYTE   W12
//  #04 //062   ----------------------------------------
 BYTE   Gn3
 BYTE   W12
 BYTE   En3  v022
 BYTE   W12
 BYTE   N22  En3  v017
 BYTE   W24
 BYTE   N11  Dn3
 BYTE   W12
 BYTE   N32  Dn3  v017  gtp2
 BYTE   W36
//  #04 //063   ----------------------------------------
 BYTE   W72
 BYTE   N22  Cn3  v022
 BYTE   W24
//  #04 //064   ----------------------------------------
 BYTE   Bn2
 BYTE   W24
 BYTE   Cn3
 BYTE   W24
 BYTE   Dn3
 BYTE   W24
 BYTE   Cn3
 BYTE   W24
//  #04 //065   ----------------------------------------
 BYTE   Dn3
 BYTE   W24
 BYTE   En3
 BYTE   W24
 BYTE   Dn3
 BYTE   W24
 BYTE   En3
 BYTE   W24
//  #04 //066   ----------------------------------------
 BYTE   An2
 BYTE   W24
 BYTE   Cs3
 BYTE   W24
 BYTE   En3
 BYTE   W24
 BYTE   N32  Fn3  v019  gtp2
 BYTE   W24
//  #04 //067   ----------------------------------------
 BYTE   W12
 BYTE   Gn3
 BYTE   W36
 BYTE   N68  An3
 BYTE   W48
//  #04 //068   ----------------------------------------
 BYTE   W24
 BYTE   N22  An3  v023
 BYTE   W24
 BYTE   N11
 BYTE   W12
 BYTE   An3
 BYTE   W12
 BYTE   An3
 BYTE   W12
 BYTE   An3
 BYTE   W12
//  #04 //069   ----------------------------------------
 BYTE   N68
 BYTE   W72
 BYTE   N48  Dn4  v015
 BYTE   W24
//  #04 //070   ----------------------------------------
 BYTE   W24
 BYTE   N72
 BYTE   W72
//  #04 //071   ----------------------------------------
 BYTE   W96
//  #04 //072   ----------------------------------------
 BYTE   N17  An3  v022
 BYTE   W18
 BYTE   As3
 BYTE   W18
 BYTE   Cn4
 BYTE   W18
 BYTE   Dn4
 BYTE   W18
 BYTE   N56  Ds4
 BYTE   W24
//  #04 //073   ----------------------------------------
 BYTE   W48
 BYTE   N32  Ds3  v022  gtp2
 BYTE   Gs3
 BYTE   W36
 BYTE   Cn4
 BYTE   W12
//  #04 //074   ----------------------------------------
 BYTE   W24
 BYTE   N22  Dn4
 BYTE   W24
 BYTE   N11  Gn3
 BYTE   W12
 BYTE   TIE
 BYTE   W36
//  #04 //075   ----------------------------------------
 BYTE   N11  Ds3  v015
 BYTE   W12
 BYTE   As3
 BYTE   W12
 BYTE   As3
 BYTE   W12
 BYTE   Ds3
 BYTE   W12
 BYTE   As3
 BYTE   W12
 BYTE   As3
 BYTE   W06
 BYTE   EOT
 BYTE   Gn3
 BYTE   W06
 BYTE   N56  Cs4  v022
 BYTE   W24
//  #04 //076   ----------------------------------------
 BYTE   W48
 BYTE   N32  Fs3  v022  gtp2
 BYTE   W36
 BYTE   Gn3
 BYTE   W12
//  #04 //077   ----------------------------------------
 BYTE   W24
 BYTE   N22  Gs3
 BYTE   W24
 BYTE   N11  Fn4
 BYTE   W12
 BYTE   N36
 BYTE   W36
//  #04 //078   ----------------------------------------
 BYTE   N12  Fn4  v017
 BYTE   W12
 BYTE   Fn4
 BYTE   W12
 BYTE   Fn4
 BYTE   W12
 BYTE   Fn4
 BYTE   W12
 BYTE   Fn4
 BYTE   W12
 BYTE   N11
 BYTE   W30
 BYTE   N17  Cn2  v018
 BYTE   W06
//  #04 //079   ----------------------------------------
 BYTE   W12
 BYTE   Gn2
 BYTE   W18
 BYTE   N08  Fn2
 BYTE   W09
 BYTE   Gn2
 BYTE   W09
 BYTE   N68  Gs2
 BYTE   W48
//  #04 //080   ----------------------------------------
 BYTE   W42
 BYTE   N17  Ds2
 BYTE   W18
 BYTE   Dn3
 BYTE   W18
 BYTE   Cn3
 BYTE   W18
//  #04 //081   ----------------------------------------
 BYTE   N68  Gn3
 BYTE   W96
//  #04 //082   ----------------------------------------
 BYTE   W12
 BYTE   N17  Fn3
 BYTE   W18
 BYTE   N08  Ds3
 BYTE   W09
 BYTE   Fn3
 BYTE   W09
 BYTE   N32  Fs3  v018  gtp2
 BYTE   W36
 BYTE   Gs2
 BYTE   W12
//  #04 //083   ----------------------------------------
 BYTE   W24
 BYTE   N17  Cs3
 BYTE   W18
 BYTE   Fn3
 BYTE   W18
 BYTE   Cn4
 BYTE   W18
 BYTE   As3
 BYTE   W18
//  #04 //084   ----------------------------------------
 BYTE   N68  Cs4
 BYTE   W72
 BYTE   N32  En3  v028  gtp2
 BYTE   W24
//  #04 //085   ----------------------------------------
 BYTE   W12
 BYTE   N11
 BYTE   W12
 BYTE   Fn3
 BYTE   W12
 BYTE   Gn3
 BYTE   W12
 BYTE   N32  Gs3  v028  gtp2
 BYTE   W36
 BYTE   N11
 BYTE   W12
//  #04 //086   ----------------------------------------
 BYTE   Gn3
 BYTE   W12
 BYTE   Gs3
 BYTE   W12
 BYTE   N32  As3  v028  gtp2
 BYTE   W36
 BYTE   N11
 BYTE   W12
 BYTE   Gs3
 BYTE   W12
 BYTE   As3
 BYTE   W12
//  #04 //087   ----------------------------------------
 BYTE   Cn4
 BYTE   W12
 BYTE   Fn3
 BYTE   W12
 BYTE   Cn4
 BYTE   W12
 BYTE   Ds4
 BYTE   W12
 BYTE   Cn4
 BYTE   W12
 BYTE   Ds4
 BYTE   W12
 BYTE   Fs3  v026
 BYTE   W12
 BYTE   Fs3
 BYTE   W12
//  #04 //088   ----------------------------------------
 BYTE   Fs3
 BYTE   W12
 BYTE   N32  Gs3  v028  gtp2
 BYTE   W36
 BYTE   N11  Fs3  v026
 BYTE   W12
 BYTE   Fs3
 BYTE   W12
 BYTE   Fs3
 BYTE   W12
 BYTE   N32  Gs3  v028  gtp2
 BYTE   W12
//  #04 //089   ----------------------------------------
 BYTE   W24
 BYTE   N11  An3  v026
 BYTE   W12
 BYTE   An3
 BYTE   W12
 BYTE   An3
 BYTE   W12
 BYTE   N32  Ds3  v024  gtp2
 BYTE   W36
//  #04 //090   ----------------------------------------
 BYTE   N11  An3  v026
 BYTE   W12
 BYTE   An3
 BYTE   W12
 BYTE   An3
 BYTE   W12
 BYTE   N32  Ds3  v024  gtp2
 BYTE   W36
 BYTE   N11  Gn3
 BYTE   W12
 BYTE   Gn3
 BYTE   W12
//  #04 //091   ----------------------------------------
 BYTE   Gn3
 BYTE   W12
 BYTE   N24
 BYTE   W12
 BYTE   N11  Dn3  v013
 BYTE   N11  Dn4  v018
 BYTE   W12
 BYTE   Gn3
 BYTE   W12
 BYTE   N32  Cn4  v022  gtp2
 BYTE   W36
 BYTE   N11  Gs3  v024
 BYTE   W12
//  #04 //092   ----------------------------------------
 BYTE   Gs3
 BYTE   W12
 BYTE   Gs3
 BYTE   W12
 BYTE   N68  Gn3
 BYTE   W72
//  #04 //093   ----------------------------------------
 BYTE   Gn3
 BYTE   W72
 BYTE   GoTo
  POIN2 Label_0100D73E
 BYTE   FINE

//**************** Track 5 (Midi-Chn.4) ****************//

MarineSail_005:
//  #05 //000   ----------------------------------------
 BYTE   KEYSH   MarineSail_key+0
 BYTE   VOICE   29
 BYTE   VOL   127*MarineSail_mvl/mxv
 BYTE   W96
//  #05 //001   ----------------------------------------
 BYTE   W96
//  #05 //002   ----------------------------------------
 BYTE   W96
//  #05 //003   ----------------------------------------
 BYTE   W96
//  #05 //004   ----------------------------------------
 BYTE   W96
//  #05 //005   ----------------------------------------
 BYTE   W96
//  #05 //006   ----------------------------------------
 BYTE   W96
//  #05 //007   ----------------------------------------
 BYTE   W96
//  #05 //008   ----------------------------------------
 BYTE   W96
//  #05 //009   ----------------------------------------
 BYTE   W96
//  #05 //010   ----------------------------------------
 BYTE   W96
//  #05 //011   ----------------------------------------
 BYTE   W24
Label_0100D366:
 BYTE   N32  Cn2  v032  gtp2
 BYTE   W36
 BYTE   Cn2
 BYTE   W36
//  #05 //012   ----------------------------------------
 BYTE   Cn2
 BYTE   W72
 BYTE   As1
 BYTE   W24
//  #05 //013   ----------------------------------------
 BYTE   W12
 BYTE   As1
 BYTE   W36
 BYTE   As1
 BYTE   W48
//  #05 //014   ----------------------------------------
 BYTE   W24
 BYTE   Gs1
 BYTE   W36
 BYTE   Gs1
 BYTE   W36
//  #05 //015   ----------------------------------------
 BYTE   Gs1
 BYTE   W72
 BYTE   Gn1
 BYTE   W24
//  #05 //016   ----------------------------------------
 BYTE   W12
 BYTE   Gn1
 BYTE   W36
 BYTE   Gn1
 BYTE   W48
//  #05 //017   ----------------------------------------
 BYTE   W24
 BYTE   Fn2
 BYTE   W36
 BYTE   N22
 BYTE   W24
 BYTE   N11  Gn2
 BYTE   W12
//  #05 //018   ----------------------------------------
 BYTE   N56  Gs2
 BYTE   W72
 BYTE   N32  Cn2  v032  gtp2
 BYTE   W24
//  #05 //019   ----------------------------------------
 BYTE   W12
 BYTE   N22
 BYTE   W24
 BYTE   N11
 BYTE   W12
 BYTE   N32  Cn2  v032  gtp2
 BYTE   W36
 BYTE   N11
 BYTE   W12
//  #05 //020   ----------------------------------------
 BYTE   Cn2
 BYTE   W12
 BYTE   Cn2
 BYTE   W12
 BYTE   N32  Dn2  v032  gtp2
 BYTE   W36
 BYTE   Dn2
 BYTE   W36
//  #05 //021   ----------------------------------------
 BYTE   Dn2
 BYTE   W36
 BYTE   N11
 BYTE   W12
 BYTE   Dn2
 BYTE   W12
 BYTE   As1
 BYTE   W12
 BYTE   N32  Gn1  v032  gtp2
 BYTE   W24
//  #05 //022   ----------------------------------------
 BYTE   W12
 BYTE   Gn1
 BYTE   W36
 BYTE   Gn1
 BYTE   W36
 BYTE   N11
 BYTE   W12
//  #05 //023   ----------------------------------------
 BYTE   Gn1
 BYTE   W12
 BYTE   Gn1
 BYTE   W12
 BYTE   N32  Fn1  v032  gtp2
 BYTE   W36
 BYTE   Cn2
 BYTE   W36
//  #05 //024   ----------------------------------------
 BYTE   Cn2
 BYTE   W36
 BYTE   Cn2
 BYTE   W36
 BYTE   Cn2
 BYTE   W24
//  #05 //025   ----------------------------------------
 BYTE   W12
 BYTE   Cn2
 BYTE   W36
 BYTE   As1
 BYTE   W36
 BYTE   N24  Gn2  v040
 BYTE   W12
//  #05 //026   ----------------------------------------
 BYTE   W12
 BYTE   N11  Gn2  v032
 BYTE   W12
 BYTE   N32  Cn2  v032  gtp2
 BYTE   W36
 BYTE   Cn2
 BYTE   W36
//  #05 //027   ----------------------------------------
Label_0100D3E5:
 BYTE   N32  Cn2  v032  gtp2
 BYTE   W72
 BYTE   Cn2
 BYTE   W24
 BYTE   PEND 
//  #05 //028   ----------------------------------------
 BYTE   W12
 BYTE   Dn2
 BYTE   W36
 BYTE   Ds2
 BYTE   W36
 BYTE   N22
 BYTE   W12
//  #05 //029   ----------------------------------------
 BYTE   W12
 BYTE   N11
 BYTE   W12
 BYTE   N32  Cn2  v032  gtp2
 BYTE   W36
 BYTE   Cn2
 BYTE   W36
//  #05 //030   ----------------------------------------
 BYTE   PATT
  POIN2 Label_0100D3E5
//  #05 //031   ----------------------------------------
 BYTE   W12
 BYTE   N32  Cn2  v032  gtp2
 BYTE   W36
 BYTE   Gn1
 BYTE   W36
 BYTE   Gn1
 BYTE   W12
//  #05 //032   ----------------------------------------
 BYTE   W24
 BYTE   Cn2
 BYTE   W36
 BYTE   Cn2
 BYTE   W36
//  #05 //033   ----------------------------------------
 BYTE   Cn2
 BYTE   W72
 BYTE   N22
 BYTE   W24
//  #05 //034   ----------------------------------------
 BYTE   N11
 BYTE   W12
 BYTE   N22
 BYTE   W24
 BYTE   N11
 BYTE   W12
 BYTE   N56
 BYTE   W48
//  #05 //035   ----------------------------------------
 BYTE   W12
 BYTE   N11
 BYTE   W12
 BYTE   N68  Fn1
 BYTE   W72
//  #05 //036   ----------------------------------------
 BYTE   As1
 BYTE   W72
 BYTE   N56  Ds2
 BYTE   W24
//  #05 //037   ----------------------------------------
 BYTE   W36
 BYTE   N11
 BYTE   W12
 BYTE   N32  Ds2  v032  gtp2
 BYTE   W36
 BYTE   N22  As1
 BYTE   W12
//  #05 //038   ----------------------------------------
 BYTE   W12
 BYTE   N11  Cn2
 BYTE   W12
 BYTE   N68  Dn2
 BYTE   W72
//  #05 //039   ----------------------------------------
 BYTE   N48  Gn1
 BYTE   W72
 BYTE   N32  Cn2  v032  gtp2
 BYTE   W24
//  #05 //040   ----------------------------------------
 BYTE   W12
 BYTE   Bn1
 BYTE   W36
 BYTE   N68  As1
 BYTE   W48
//  #05 //041   ----------------------------------------
 BYTE   W24
 BYTE   N56  An1
 BYTE   W60
 BYTE   N11
 BYTE   W12
//  #05 //042   ----------------------------------------
 BYTE   N32  An1  v032  gtp2
 BYTE   W36
 BYTE   N22  Cn2
 BYTE   W24
 BYTE   N11  Gs1
 BYTE   W12
 BYTE   N32  Gn1  v032  gtp2
 BYTE   W24
//  #05 //043   ----------------------------------------
 BYTE   W12
 BYTE   N22
 BYTE   W24
 BYTE   N11  Gs1
 BYTE   W12
 BYTE   N22  As1
 BYTE   W24
 BYTE   N11
 BYTE   W12
 BYTE   N22
 BYTE   W12
//  #05 //044   ----------------------------------------
 BYTE   W12
 BYTE   N11
 BYTE   W12
 BYTE   Gn2
 BYTE   W12
 BYTE   Gn2
 BYTE   W12
 BYTE   Gn2
 BYTE   W12
 BYTE   Gn1
 BYTE   W12
 BYTE   Cn2
 BYTE   W12
 BYTE   Cn2
 BYTE   W12
//  #05 //045   ----------------------------------------
 BYTE   Gn1
 BYTE   W12
 BYTE   Cn2
 BYTE   W12
 BYTE   Cn2
 BYTE   W12
 BYTE   Fn2
 BYTE   W12
 BYTE   Ds2
 BYTE   W12
 BYTE   Dn2
 BYTE   W12
 BYTE   Gn2
 BYTE   W12
 BYTE   Fn2
 BYTE   W12
//  #05 //046   ----------------------------------------
 BYTE   Ds2
 BYTE   W12
 BYTE   Dn2
 BYTE   W12
 BYTE   Cn2
 BYTE   W12
 BYTE   Bn1
 BYTE   W12
 BYTE   N68  Gn1
 BYTE   W48
//  #05 //047   ----------------------------------------
 BYTE   W24
 BYTE   N32  Cn2  v032  gtp2
 BYTE   W36
 BYTE   Gn1
 BYTE   W36
//  #05 //048   ----------------------------------------
 BYTE   Cn2
 BYTE   W36
 BYTE   Gn1
 BYTE   W36
 BYTE   N22  En1
 BYTE   W24
//  #05 //049   ----------------------------------------
 BYTE   N11
 BYTE   W12
 BYTE   N22
 BYTE   W24
 BYTE   N11
 BYTE   W12
 BYTE   N22
 BYTE   W24
 BYTE   N11
 BYTE   W12
 BYTE   N32  En1  v032  gtp2
 BYTE   W12
//  #05 //050   ----------------------------------------
 BYTE   W24
 BYTE   N22  An1  v026
 BYTE   W24
 BYTE   N11
 BYTE   W12
 BYTE   N32  En2  v026  gtp2
 BYTE   W36
//  #05 //051   ----------------------------------------
 BYTE   N22  Gn1
 BYTE   W24
 BYTE   N11
 BYTE   W12
 BYTE   N32  En2  v026  gtp2
 BYTE   W36
 BYTE   N22  Fn1  v032
 BYTE   W24
//  #05 //052   ----------------------------------------
Label_0100D4CE:
 BYTE   N11  Fn1  v032
 BYTE   W12
 BYTE   N22
 BYTE   W24
 BYTE   N11
 BYTE   W12
 BYTE   N22  En1
 BYTE   W24
 BYTE   N11
 BYTE   W12
 BYTE   N22
 BYTE   W12
 BYTE   PEND 
//  #05 //053   ----------------------------------------
 BYTE   W12
 BYTE   N11  Cn2
 BYTE   W12
 BYTE   N22  Dn2
 BYTE   W24
 BYTE   N11
 BYTE   W12
 BYTE   N32  An1  v032  gtp2
 BYTE   W36
//  #05 //054   ----------------------------------------
Label_0100D4EC:
 BYTE   N22  Dn2  v032
 BYTE   W24
 BYTE   N11
 BYTE   W12
 BYTE   N32  An1  v032  gtp2
 BYTE   W36
 BYTE   N17  Gn1
 BYTE   W24
 BYTE   PEND 
//  #05 //055   ----------------------------------------
Label_0100D4FB:
 BYTE   W12
 BYTE   N22  Gn1  v032
 BYTE   W24
 BYTE   N11
 BYTE   W12
 BYTE   N22
 BYTE   W24
 BYTE   N11
 BYTE   W12
 BYTE   N22
 BYTE   W12
 BYTE   PEND 
//  #05 //056   ----------------------------------------
 BYTE   W12
 BYTE   N11
 BYTE   W12
 BYTE   N22  Cn2
 BYTE   W24
 BYTE   N11
 BYTE   W12
 BYTE   N32  Gn1  v032  gtp2
 BYTE   W36
//  #05 //057   ----------------------------------------
 BYTE   N22  Cn2
 BYTE   W24
 BYTE   N11
 BYTE   W12
 BYTE   N32  Gn1  v032  gtp2
 BYTE   W36
 BYTE   N22  Bn1
 BYTE   W24
//  #05 //058   ----------------------------------------
 BYTE   N11
 BYTE   W12
 BYTE   N22
 BYTE   W24
 BYTE   N11
 BYTE   W12
 BYTE   N22  En2
 BYTE   W24
 BYTE   N11
 BYTE   W12
 BYTE   N22  En1  v038
 BYTE   W12
//  #05 //059   ----------------------------------------
 BYTE   W12
 BYTE   N11  Bn1  v032
 BYTE   W12
 BYTE   N22  An1
 BYTE   W24
 BYTE   N11
 BYTE   W12
 BYTE   N22
 BYTE   W24
 BYTE   N11
 BYTE   W12
//  #05 //060   ----------------------------------------
 BYTE   N22  Gn1
 BYTE   W24
 BYTE   N11
 BYTE   W12
 BYTE   N32  Gn1  v032  gtp2
 BYTE   W36
 BYTE   N22  Fn1
 BYTE   W24
//  #05 //061   ----------------------------------------
 BYTE   PATT
  POIN2 Label_0100D4CE
//  #05 //062   ----------------------------------------
 BYTE   W12
 BYTE   N11  En1  v032
 BYTE   W12
 BYTE   N22  As1
 BYTE   W24
 BYTE   N11
 BYTE   W12
 BYTE   N22
 BYTE   W24
 BYTE   N11
 BYTE   W12
//  #05 //063   ----------------------------------------
 BYTE   N22
 BYTE   W24
 BYTE   N11
 BYTE   W12
 BYTE   N22
 BYTE   W24
 BYTE   N11
 BYTE   W12
 BYTE   N22  Cn2
 BYTE   W24
//  #05 //064   ----------------------------------------
 BYTE   Bn1
 BYTE   W24
 BYTE   Cn2
 BYTE   W24
 BYTE   Dn2
 BYTE   W24
 BYTE   Cn2
 BYTE   W24
//  #05 //065   ----------------------------------------
 BYTE   Dn2
 BYTE   W24
 BYTE   En2
 BYTE   W24
 BYTE   Dn2
 BYTE   W24
 BYTE   En2
 BYTE   W24
//  #05 //066   ----------------------------------------
 BYTE   Cs2
 BYTE   W36
 BYTE   Cs2
 BYTE   W12
 BYTE   En2
 BYTE   W12
 BYTE   N11  Cs2
 BYTE   W12
 BYTE   N32  Dn2  v032  gtp2
 BYTE   W24
//  #05 //067   ----------------------------------------
 BYTE   W12
 BYTE   En2
 BYTE   W36
 BYTE   N68  Fn2
 BYTE   W48
//  #05 //068   ----------------------------------------
 BYTE   W24
 BYTE   N22  An1
 BYTE   W24
 BYTE   N11
 BYTE   W12
 BYTE   N22
 BYTE   W24
 BYTE   N11
 BYTE   W12
//  #05 //069   ----------------------------------------
 BYTE   N22
 BYTE   W24
 BYTE   N11
 BYTE   W12
 BYTE   N32  An1  v032  gtp2
 BYTE   W36
 BYTE   Dn2
 BYTE   W24
//  #05 //070   ----------------------------------------
 BYTE   W12
 BYTE   An1
 BYTE   W36
 BYTE   Dn2
 BYTE   W36
 BYTE   An1
 BYTE   W12
//  #05 //071   ----------------------------------------
 BYTE   W24
 BYTE   Dn2
 BYTE   W36
 BYTE   An1
 BYTE   W36
//  #05 //072   ----------------------------------------
 BYTE   Dn2
 BYTE   W36
 BYTE   An1
 BYTE   W36
 BYTE   N22  Gs1
 BYTE   W24
//  #05 //073   ----------------------------------------
 BYTE   N11
 BYTE   W12
 BYTE   N22
 BYTE   W24
 BYTE   N11
 BYTE   W12
 BYTE   N22
 BYTE   W24
 BYTE   N11
 BYTE   W12
 BYTE   N32  Ds2  v032  gtp2
 BYTE   W12
//  #05 //074   ----------------------------------------
 BYTE   W24
 BYTE   N22  As1
 BYTE   W24
 BYTE   N11
 BYTE   W12
 BYTE   N22
 BYTE   W24
 BYTE   N11
 BYTE   W12
//  #05 //075   ----------------------------------------
 BYTE   As1
 BYTE   W12
 BYTE   As1
 BYTE   W12
 BYTE   As1
 BYTE   W12
 BYTE   As1
 BYTE   W12
 BYTE   As1
 BYTE   W12
 BYTE   As1
 BYTE   W12
 BYTE   N22  Fs2  v026
 BYTE   W24
//  #05 //076   ----------------------------------------
 BYTE   N11
 BYTE   W12
 BYTE   N32  Cs2  v032  gtp2
 BYTE   W36
 BYTE   N22  Cn2
 BYTE   W24
 BYTE   N11
 BYTE   W12
 BYTE   N22
 BYTE   W12
//  #05 //077   ----------------------------------------
 BYTE   W12
 BYTE   N11
 BYTE   W12
 BYTE   N22  Fn2
 BYTE   W24
 BYTE   N11
 BYTE   W12
 BYTE   N22
 BYTE   W24
 BYTE   N11
 BYTE   W12
//  #05 //078   ----------------------------------------
 BYTE   N22
 BYTE   W24
 BYTE   N11
 BYTE   W12
 BYTE   N22
 BYTE   W24
 BYTE   N11
 BYTE   W12
 BYTE   TIE  Cs2  v029
 BYTE   W24
//  #05 //079   ----------------------------------------
 BYTE   W96
//  #05 //080   ----------------------------------------
Label_0100D607:
 BYTE   W16
 BYTE   EOT
 BYTE   Cs2
 BYTE   W08
 BYTE   TIE  Gn1  v029
 BYTE   W72
 BYTE   PEND 
//  #05 //081   ----------------------------------------
 BYTE   W64
 BYTE   EOT
 BYTE   W08
 BYTE   N18  Bn1
 BYTE   W18
 BYTE   N78  Bn1  v032
 BYTE   W06
//  #05 //082   ----------------------------------------
 BYTE   W84
 BYTE   N32  Gs2  v032  gtp2
 BYTE   W12
//  #05 //083   ----------------------------------------
 BYTE   W24
 BYTE   N56  As1  v029
 BYTE   W60
 BYTE   N11
 BYTE   W12
//  #05 //084   ----------------------------------------
 BYTE   N22
 BYTE   W24
 BYTE   N11
 BYTE   W12
 BYTE   N22  Fn1
 BYTE   W24
 BYTE   N11  Cn2  v032
 BYTE   W12
 BYTE   Cn2
 BYTE   W12
 BYTE   N22
 BYTE   W12
//  #05 //085   ----------------------------------------
 BYTE   W12
 BYTE   Cn2
 BYTE   W24
 BYTE   N11  Fn1
 BYTE   W12
 BYTE   Fn1
 BYTE   W12
 BYTE   N22
 BYTE   W24
 BYTE   N32  Fn1  v032  gtp2
 BYTE   W12
//  #05 //086   ----------------------------------------
 BYTE   W24
 BYTE   Ds2
 BYTE   W36
 BYTE   N22
 BYTE   W24
 BYTE   N11  As1
 BYTE   W12
//  #05 //087   ----------------------------------------
 BYTE   Gs1
 BYTE   W12
 BYTE   N22
 BYTE   W24
 BYTE   N32  Gs1  v032  gtp2
 BYTE   W36
 BYTE   N11  Dn2
 BYTE   W12
 BYTE   Dn2
 BYTE   W12
//  #05 //088   ----------------------------------------
 BYTE   Dn2
 BYTE   W12
 BYTE   N32  Gs2  v040  gtp2
 BYTE   W36
 BYTE   N11  Dn2  v032
 BYTE   W12
 BYTE   Dn2
 BYTE   W12
 BYTE   Dn2
 BYTE   W12
 BYTE   N32  Gs2  v040  gtp2
 BYTE   W12
//  #05 //089   ----------------------------------------
 BYTE   W24
 BYTE   N11  Fn1  v032
 BYTE   W12
 BYTE   Fn1
 BYTE   W12
 BYTE   Fn1
 BYTE   W12
 BYTE   N32  Bn1  v038  gtp2
 BYTE   W36
//  #05 //090   ----------------------------------------
 BYTE   N11  Fn1  v032
 BYTE   W12
 BYTE   Fn1
 BYTE   W12
 BYTE   Fn1
 BYTE   W12
 BYTE   N32  Bn1  v038  gtp2
 BYTE   W36
 BYTE   N11  Gn1  v032
 BYTE   W12
 BYTE   Gn1
 BYTE   W12
//  #05 //091   ----------------------------------------
 BYTE   Gn1
 BYTE   W12
 BYTE   N68
 BYTE   W72
 BYTE   N11
 BYTE   W12
//  #05 //092   ----------------------------------------
 BYTE   Gn1
 BYTE   W12
 BYTE   Gn1
 BYTE   W12
 BYTE   Gn1  v035
 BYTE   W12
 BYTE   Gn1  v032
 BYTE   W12
 BYTE   Gn1
 BYTE   W12
 BYTE   Gn1  v035
 BYTE   W12
 BYTE   Gn1  v032
 BYTE   W12
 BYTE   Gn1
 BYTE   W12
//  #05 //093   ----------------------------------------
 BYTE   Gn1  v035
 BYTE   W12
 BYTE   Gn1  v032
 BYTE   W12
 BYTE   Gn1
 BYTE   W12
 BYTE   Gn1  v035
 BYTE   W12
 BYTE   Gn1  v032
 BYTE   W12
 BYTE   Gn1
 BYTE   W12
 BYTE   GoTo
  POIN2 Label_0100D366
 BYTE   FINE

//**************** Track 6 (Midi-Chn.5) ****************//

MarineSail_006:
//  #06 //000   ----------------------------------------
 BYTE   KEYSH   MarineSail_key+0
 BYTE   VOICE   77
 BYTE   TIE  Gn1  v048
 BYTE   VOL   127*MarineSail_mvl/mxv
 BYTE   W96
//  #06 //001   ----------------------------------------
 BYTE   W96
//  #06 //002   ----------------------------------------
 BYTE   W96
//  #06 //003   ----------------------------------------
 BYTE   W52
 BYTE   W01
 BYTE   EOT
 BYTE   W19
 BYTE   N22  Ds1  v022
 BYTE   N22  Gs1
 BYTE   W24
//  #06 //004   ----------------------------------------
 BYTE   Fn1
 BYTE   N22  As1
 BYTE   W24
 BYTE   Dn1
 BYTE   N22  Gn1
 BYTE   W24
 BYTE   N68  Cn1
 BYTE   N68  Fn1
 BYTE   W48
//  #06 //005   ----------------------------------------
 BYTE   W24
 BYTE   N22  Gn1
 BYTE   N22  Dn2  v026
 BYTE   W24
 BYTE   As1  v022
 BYTE   N22  Ds2  v026
 BYTE   W24
 BYTE   Gn1  v022
 BYTE   N22  Cn2  v026
 BYTE   W24
//  #06 //006   ----------------------------------------
 BYTE   N68  Fn1  v022
 BYTE   N68  As1  v026
 BYTE   W96
//  #06 //007   ----------------------------------------
 BYTE   W12
 BYTE   N32  Fn1  v022  gtp2
 BYTE   As1
 BYTE   W36
 BYTE   Ds1
 BYTE   N32  Gs1  v022  gtp2
 BYTE   W36
 BYTE   Dn1
 BYTE   N32  Gn1  v022  gtp2
 BYTE   W12
//  #06 //008   ----------------------------------------
 BYTE   W24
 BYTE   Gn1
 BYTE   N32  Cn2  v022  gtp2
 BYTE   W36
 BYTE   N11  Gn1
 BYTE   N11  Cn2
 BYTE   W12
 BYTE   Gn1
 BYTE   N11  Cn2
 BYTE   W12
 BYTE   Gn1
 BYTE   N11  Cn2
 BYTE   W12
//  #06 //009   ----------------------------------------
 BYTE   Gn1  v024
 BYTE   N11  Cn2
 BYTE   W12
 BYTE   Gn1
 BYTE   N11  Cn2
 BYTE   W12
 BYTE   Gn1
 BYTE   N11  Cn2
 BYTE   W12
 BYTE   Gn1  v026
 BYTE   N11  Cn2
 BYTE   W12
 BYTE   Gn1
 BYTE   N11  Cn2
 BYTE   W12
 BYTE   Gn1
 BYTE   N11  Cn2
 BYTE   W12
 BYTE   Gn1  v024
 BYTE   N11  Cn2
 BYTE   W12
 BYTE   Gn1
 BYTE   N11  Cn2
 BYTE   W12
//  #06 //010   ----------------------------------------
 BYTE   Gn1
 BYTE   N11  Cn2
 BYTE   W12
 BYTE   Gn1
 BYTE   N11  Cn2
 BYTE   W12
 BYTE   Gn1
 BYTE   N11  Cn2
 BYTE   W12
 BYTE   Gn1
 BYTE   N11  Cn2
 BYTE   W12
 BYTE   N17  Gn1
 BYTE   N17  Cn2
 BYTE   W48
//  #06 //011   ----------------------------------------
 BYTE   W24
Label_0100DE6D:
 BYTE   N32  Gn1  v022  gtp2
 BYTE   Cn2
 BYTE   W36
 BYTE   Gn1
 BYTE   N32  Cn2  v022  gtp2
 BYTE   W36
//  #06 //012   ----------------------------------------
 BYTE   Gn1
 BYTE   N32  Cn2  v022  gtp2
 BYTE   W72
 BYTE   Fn1
 BYTE   N32  As1  v022  gtp2
 BYTE   W24
//  #06 //013   ----------------------------------------
 BYTE   W12
 BYTE   Fn1
 BYTE   N32  As1  v022  gtp2
 BYTE   W36
 BYTE   Fn1
 BYTE   N32  As1  v022  gtp2
 BYTE   W48
//  #06 //014   ----------------------------------------
 BYTE   W24
 BYTE   Ds1
 BYTE   N32  Gs1  v022  gtp2
 BYTE   W36
 BYTE   Ds1
 BYTE   N32  Gs1  v022  gtp2
 BYTE   W36
//  #06 //015   ----------------------------------------
 BYTE   Ds1
 BYTE   N32  Gs1  v022  gtp2
 BYTE   W72
 BYTE   Dn1
 BYTE   N32  Gn1  v022  gtp2
 BYTE   W24
//  #06 //016   ----------------------------------------
 BYTE   W12
 BYTE   Dn1
 BYTE   N32  Gn1  v022  gtp2
 BYTE   W36
 BYTE   Dn1
 BYTE   N32  Gn1  v022  gtp2
 BYTE   W48
//  #06 //017   ----------------------------------------
 BYTE   W24
 BYTE   Cn2  v032
 BYTE   W36
 BYTE   N22
 BYTE   W24
 BYTE   N11  Dn2
 BYTE   W12
//  #06 //018   ----------------------------------------
 BYTE   N56  Ds2
 BYTE   W72
 BYTE   N32  Gn1  v032  gtp2
 BYTE   W24
//  #06 //019   ----------------------------------------
 BYTE   W12
 BYTE   N22
 BYTE   W24
 BYTE   N11
 BYTE   W12
 BYTE   N32  Gn1  v032  gtp2
 BYTE   W36
 BYTE   N11
 BYTE   W12
//  #06 //020   ----------------------------------------
 BYTE   Gn1
 BYTE   W12
 BYTE   Gn1
 BYTE   W12
 BYTE   N32  An1  v032  gtp2
 BYTE   W36
 BYTE   An1
 BYTE   W36
//  #06 //021   ----------------------------------------
 BYTE   An1
 BYTE   W36
 BYTE   N11
 BYTE   W12
 BYTE   An1
 BYTE   W12
 BYTE   Fn1
 BYTE   W12
 BYTE   N32  Dn1  v032  gtp2
 BYTE   W24
//  #06 //022   ----------------------------------------
 BYTE   W12
 BYTE   Dn1
 BYTE   W36
 BYTE   Dn1
 BYTE   W36
 BYTE   N11
 BYTE   W12
//  #06 //023   ----------------------------------------
 BYTE   Dn1
 BYTE   W12
 BYTE   Dn1
 BYTE   W12
 BYTE   N32  Cn1  v038  gtp2
 BYTE   W36
 BYTE   Gn1  v032
 BYTE   W36
//  #06 //024   ----------------------------------------
 BYTE   Gn1
 BYTE   W36
 BYTE   Gn1
 BYTE   W36
 BYTE   Gn1
 BYTE   W24
//  #06 //025   ----------------------------------------
 BYTE   W12
 BYTE   Gn1
 BYTE   W36
 BYTE   Fn1
 BYTE   W36
 BYTE   Dn1
 BYTE   W12
//  #06 //026   ----------------------------------------
Label_0100DF0D:
 BYTE   W24
 BYTE   N32  Gn1  v032  gtp2
 BYTE   W36
 BYTE   Gn1
 BYTE   W36
 BYTE   PEND 
//  #06 //027   ----------------------------------------
Label_0100DF16:
 BYTE   N32  Gn1  v032  gtp2
 BYTE   W72
 BYTE   Gn1
 BYTE   W24
 BYTE   PEND 
//  #06 //028   ----------------------------------------
 BYTE   W12
 BYTE   An1
 BYTE   W36
 BYTE   As1
 BYTE   W36
 BYTE   N22
 BYTE   W12
//  #06 //029   ----------------------------------------
 BYTE   W12
 BYTE   N11
 BYTE   W12
 BYTE   N32  Gn1  v032  gtp2
 BYTE   W36
 BYTE   Gn1
 BYTE   W36
//  #06 //030   ----------------------------------------
 BYTE   PATT
  POIN2 Label_0100DF16
//  #06 //031   ----------------------------------------
 BYTE   W12
 BYTE   N32  Gn1  v032  gtp2
 BYTE   W36
 BYTE   Dn1
 BYTE   W36
 BYTE   Dn1
 BYTE   W12
//  #06 //032   ----------------------------------------
 BYTE   PATT
  POIN2 Label_0100DF0D
//  #06 //033   ----------------------------------------
 BYTE   N32  Gn1  v032  gtp2
 BYTE   W72
 BYTE   N22
 BYTE   W24
//  #06 //034   ----------------------------------------
 BYTE   N11
 BYTE   W12
 BYTE   N22
 BYTE   W24
 BYTE   N11
 BYTE   W12
 BYTE   N56
 BYTE   W48
//  #06 //035   ----------------------------------------
 BYTE   W12
 BYTE   N11
 BYTE   W12
 BYTE   N68  Cn1
 BYTE   W72
//  #06 //036   ----------------------------------------
 BYTE   Fn1
 BYTE   W72
 BYTE   N56  As1
 BYTE   W24
//  #06 //037   ----------------------------------------
 BYTE   W36
 BYTE   N11
 BYTE   W12
 BYTE   N32  As1  v032  gtp2
 BYTE   W36
 BYTE   N22  Fn1
 BYTE   W12
//  #06 //038   ----------------------------------------
 BYTE   W12
 BYTE   N11  Gn1
 BYTE   W12
 BYTE   N68  Gs1
 BYTE   W72
//  #06 //039   ----------------------------------------
 BYTE   Dn1
 BYTE   W72
 BYTE   N32  Gn1  v032  gtp2
 BYTE   W24
//  #06 //040   ----------------------------------------
 BYTE   W12
 BYTE   Fs1
 BYTE   W36
 BYTE   N68  Fn1
 BYTE   W48
//  #06 //041   ----------------------------------------
 BYTE   W24
 BYTE   N56  En1
 BYTE   W60
 BYTE   N11
 BYTE   W12
//  #06 //042   ----------------------------------------
 BYTE   N32  En1  v032  gtp2
 BYTE   W36
 BYTE   N22  Gn1
 BYTE   W24
 BYTE   N11  Ds1
 BYTE   W12
 BYTE   N32  Dn1  v032  gtp2
 BYTE   W24
//  #06 //043   ----------------------------------------
 BYTE   W12
 BYTE   N22
 BYTE   W24
 BYTE   N11  Ds1
 BYTE   W12
 BYTE   N22  Fn1
 BYTE   W24
 BYTE   N11
 BYTE   W12
 BYTE   N22
 BYTE   W12
//  #06 //044   ----------------------------------------
 BYTE   W12
 BYTE   N11
 BYTE   W12
 BYTE   Dn2
 BYTE   W12
 BYTE   Dn2
 BYTE   W12
 BYTE   Dn2
 BYTE   W12
 BYTE   Gn1
 BYTE   W12
 BYTE   Gn1
 BYTE   W12
 BYTE   Gn1
 BYTE   W12
//  #06 //045   ----------------------------------------
 BYTE   Gn1  v022
 BYTE   W12
 BYTE   Gn1
 BYTE   N11  Cn2
 BYTE   W12
 BYTE   Gn1
 BYTE   N11  Cn2
 BYTE   W12
 BYTE   Fn1
 BYTE   N11  Cn2
 BYTE   W12
 BYTE   Ds1
 BYTE   N11  As1
 BYTE   N11  Ds2
 BYTE   W12
 BYTE   Dn1
 BYTE   N11  Gs1
 BYTE   N11  Dn2
 BYTE   W12
 BYTE   Gn1  v026
 BYTE   N11  Dn2  v022
 BYTE   W12
 BYTE   Fn1  v026
 BYTE   N11  Cn2  v022
 BYTE   W12
//  #06 //046   ----------------------------------------
 BYTE   Ds1  v026
 BYTE   N11  As1  v022
 BYTE   W12
 BYTE   Dn1  v026
 BYTE   N11  Gs1  v022
 BYTE   W12
 BYTE   Cn1  v026
 BYTE   N11  Gn1  v022
 BYTE   W12
 BYTE   As0  v026
 BYTE   N11  Fn1  v022
 BYTE   W12
 BYTE   N68  Dn1  v032
 BYTE   W48
//  #06 //047   ----------------------------------------
 BYTE   W24
 BYTE   N32  Gn1  v038  gtp2
 BYTE   W36
 BYTE   Dn1
 BYTE   W36
//  #06 //048   ----------------------------------------
 BYTE   Gn1
 BYTE   W36
 BYTE   Dn1
 BYTE   W36
 BYTE   N22  Bn0  v026
 BYTE   W24
//  #06 //049   ----------------------------------------
 BYTE   N11
 BYTE   W12
 BYTE   N22
 BYTE   W24
 BYTE   N11
 BYTE   W12
 BYTE   N22
 BYTE   W24
 BYTE   N11
 BYTE   W12
 BYTE   N32  Bn0  v026  gtp2
 BYTE   W12
//  #06 //050   ----------------------------------------
 BYTE   W24
 BYTE   N22  En1  v032
 BYTE   W24
 BYTE   N11
 BYTE   W12
 BYTE   N32  Bn1  v032  gtp2
 BYTE   W36
//  #06 //051   ----------------------------------------
 BYTE   N22  Dn1
 BYTE   W24
 BYTE   N11
 BYTE   W12
 BYTE   N32  Bn1  v032  gtp2
 BYTE   W36
 BYTE   N22  Cn1  v026
 BYTE   W24
//  #06 //052   ----------------------------------------
 BYTE   N11
 BYTE   W12
 BYTE   N22
 BYTE   W24
 BYTE   N11
 BYTE   W12
 BYTE   N22  Bn0
 BYTE   W24
 BYTE   N11
 BYTE   W12
 BYTE   N22
 BYTE   W12
//  #06 //053   ----------------------------------------
 BYTE   W12
 BYTE   N11  Gn1  v018
 BYTE   N11  Cn1
 BYTE   W12
 BYTE   N22  An1  v022
 BYTE   N22  Dn1
 BYTE   W24
 BYTE   N11  An1
 BYTE   N11  Dn1
 BYTE   W12
 BYTE   N32  En1  v022  gtp2
 BYTE   An0
 BYTE   W36
//  #06 //054   ----------------------------------------
 BYTE   N22  An1
 BYTE   N22  Dn1
 BYTE   W24
 BYTE   N11  An1
 BYTE   N11  Dn1
 BYTE   W12
 BYTE   N32  En1  v022  gtp2
 BYTE   An0
 BYTE   W36
 BYTE   N17  Dn1  v032
 BYTE   W24
//  #06 //055   ----------------------------------------
 BYTE   W12
 BYTE   N22
 BYTE   W24
 BYTE   N11
 BYTE   W12
 BYTE   N22
 BYTE   W24
 BYTE   N11
 BYTE   W12
 BYTE   N22
 BYTE   W12
//  #06 //056   ----------------------------------------
 BYTE   W12
 BYTE   N11
 BYTE   W12
 BYTE   N22  Gn1  v038
 BYTE   W24
 BYTE   N11
 BYTE   W12
 BYTE   N32  Dn1  v038  gtp2
 BYTE   W36
//  #06 //057   ----------------------------------------
 BYTE   N22  Gn1
 BYTE   W24
 BYTE   N11
 BYTE   W12
 BYTE   N32  Dn1  v038  gtp2
 BYTE   W36
 BYTE   N22  En1  v032
 BYTE   W24
//  #06 //058   ----------------------------------------
 BYTE   N11
 BYTE   W12
 BYTE   N22
 BYTE   W24
 BYTE   N11
 BYTE   W12
 BYTE   N22  Bn1
 BYTE   W24
 BYTE   N11
 BYTE   W12
 BYTE   N22  En1  v038
 BYTE   W12
//  #06 //059   ----------------------------------------
 BYTE   W12
 BYTE   N11  Fn1  v032
 BYTE   W12
 BYTE   N22  En1
 BYTE   W24
 BYTE   N11
 BYTE   W12
 BYTE   N22
 BYTE   W24
 BYTE   N11
 BYTE   W12
//  #06 //060   ----------------------------------------
 BYTE   N22  Cn1
 BYTE   W24
 BYTE   N11
 BYTE   W12
 BYTE   N32  Cn1  v032  gtp2
 BYTE   W36
 BYTE   N22
 BYTE   W24
//  #06 //061   ----------------------------------------
 BYTE   N11
 BYTE   W12
 BYTE   N22
 BYTE   W24
 BYTE   N11
 BYTE   W12
 BYTE   N22  Bn0
 BYTE   W24
 BYTE   N11
 BYTE   W12
 BYTE   N22
 BYTE   W12
//  #06 //062   ----------------------------------------
 BYTE   W12
 BYTE   N11
 BYTE   W12
 BYTE   N22  Fn1
 BYTE   W24
 BYTE   N11
 BYTE   W12
 BYTE   N22
 BYTE   W24
 BYTE   N11
 BYTE   W12
//  #06 //063   ----------------------------------------
 BYTE   N22
 BYTE   W24
 BYTE   N11
 BYTE   W12
 BYTE   N22
 BYTE   W24
 BYTE   N11
 BYTE   W12
 BYTE   N22  En1  v022
 BYTE   N22  An1
 BYTE   W24
//  #06 //064   ----------------------------------------
 BYTE   N11  En1
 BYTE   N11  An1
 BYTE   W12
 BYTE   N22  En1
 BYTE   N22  An1
 BYTE   W24
 BYTE   N11  En1
 BYTE   N11  An1
 BYTE   W12
 BYTE   N22  Bn1
 BYTE   N22  Fs1
 BYTE   W24
 BYTE   N11
 BYTE   N11  Bn1
 BYTE   W12
 BYTE   N22  Fs1
 BYTE   N22  Bn1
 BYTE   W12
//  #06 //065   ----------------------------------------
 BYTE   W12
 BYTE   N11  Fs1
 BYTE   N11  Bn1
 BYTE   W12
 BYTE   N22  Gn1
 BYTE   N22  Cn2
 BYTE   W24
 BYTE   N11  Gn1
 BYTE   N11  Cn2
 BYTE   W12
 BYTE   N22  Gn1
 BYTE   N22  Cn2
 BYTE   W24
 BYTE   N11  Gn1
 BYTE   N11  Cn2
 BYTE   W12
//  #06 //066   ----------------------------------------
 BYTE   N22  Gs1
 BYTE   N22  Cs2
 BYTE   W24
 BYTE   N11
 BYTE   N11  Gs1
 BYTE   W12
 BYTE   N22
 BYTE   N22  Cs2
 BYTE   W24
 BYTE   N11  Gs1
 BYTE   N11  Cs2
 BYTE   W12
 BYTE   N32  An1  v022  gtp2
 BYTE   Dn2
 BYTE   W24
//  #06 //067   ----------------------------------------
 BYTE   W12
 BYTE   Bn1
 BYTE   N32  En2  v022  gtp2
 BYTE   W36
 BYTE   N68  Cn2
 BYTE   N68  Fn2
 BYTE   W48
//  #06 //068   ----------------------------------------
 BYTE   W24
 BYTE   N22  En1  v032
 BYTE   W24
 BYTE   N11
 BYTE   W12
 BYTE   N22
 BYTE   W24
 BYTE   N11
 BYTE   W12
//  #06 //069   ----------------------------------------
 BYTE   N22
 BYTE   W24
 BYTE   N11
 BYTE   W12
 BYTE   N32  En1  v032  gtp2
 BYTE   W36
 BYTE   An1
 BYTE   W24
//  #06 //070   ----------------------------------------
 BYTE   W12
 BYTE   En1
 BYTE   W36
 BYTE   An1
 BYTE   W36
 BYTE   En1
 BYTE   W12
//  #06 //071   ----------------------------------------
 BYTE   W24
 BYTE   An1
 BYTE   W36
 BYTE   En1
 BYTE   W36
//  #06 //072   ----------------------------------------
 BYTE   An1
 BYTE   W36
 BYTE   En1
 BYTE   W36
 BYTE   N22  Ds1
 BYTE   W24
//  #06 //073   ----------------------------------------
 BYTE   N11
 BYTE   W12
 BYTE   N22
 BYTE   W24
 BYTE   N11
 BYTE   W12
 BYTE   N22
 BYTE   W24
 BYTE   N11
 BYTE   W12
 BYTE   N32  As1  v032  gtp2
 BYTE   W12
//  #06 //074   ----------------------------------------
 BYTE   W24
 BYTE   N22  Fn1
 BYTE   W24
 BYTE   N11
 BYTE   W12
 BYTE   N22
 BYTE   W24
 BYTE   N11
 BYTE   W12
//  #06 //075   ----------------------------------------
 BYTE   Fn1
 BYTE   W12
 BYTE   Fn1
 BYTE   W12
 BYTE   Fn1
 BYTE   W12
 BYTE   Fn1
 BYTE   W12
 BYTE   Fn1
 BYTE   W12
 BYTE   Fn1
 BYTE   W12
 BYTE   N22  Cs2  v026
 BYTE   W24
//  #06 //076   ----------------------------------------
 BYTE   N11
 BYTE   W12
 BYTE   N32  Gs1  v032  gtp2
 BYTE   W36
 BYTE   N22  Gn1
 BYTE   W24
 BYTE   N11
 BYTE   W12
 BYTE   N22
 BYTE   W12
//  #06 //077   ----------------------------------------
 BYTE   W12
 BYTE   N11
 BYTE   W12
 BYTE   N22  Cn2
 BYTE   W24
 BYTE   N11
 BYTE   W12
 BYTE   N22
 BYTE   W24
 BYTE   N11
 BYTE   W12
//  #06 //078   ----------------------------------------
 BYTE   N22
 BYTE   W24
 BYTE   N11
 BYTE   W12
 BYTE   N22
 BYTE   W24
 BYTE   N11
 BYTE   W12
 BYTE   TIE  Cs2  v029
 BYTE   W24
//  #06 //079   ----------------------------------------
 BYTE   W96
//  #06 //080   ----------------------------------------
 BYTE   PATT
  POIN2 Label_0100D607
//  #06 //081   ----------------------------------------
 BYTE   W64
 BYTE   EOT
 BYTE   Gn1
 BYTE   W08
 BYTE   TIE  Fs1  v029
 BYTE   W24
//  #06 //082   ----------------------------------------
 BYTE   W96
//  #06 //083   ----------------------------------------
 BYTE   W16
 BYTE   EOT
 BYTE   W08
 BYTE   N56  Fn1
 BYTE   W60
 BYTE   N11
 BYTE   W12
//  #06 //084   ----------------------------------------
 BYTE   N22
 BYTE   W24
 BYTE   N11
 BYTE   W12
 BYTE   N22  Cn1
 BYTE   W24
 BYTE   N11  Gn1  v032
 BYTE   W12
 BYTE   Gn1
 BYTE   W12
 BYTE   N22
 BYTE   W12
//  #06 //085   ----------------------------------------
 BYTE   W12
 BYTE   Gn1
 BYTE   W24
 BYTE   N11  Cn1
 BYTE   W12
 BYTE   Cn1
 BYTE   W12
 BYTE   N22
 BYTE   W24
 BYTE   N32  Cn1  v032  gtp2
 BYTE   W12
//  #06 //086   ----------------------------------------
 BYTE   W24
 BYTE   As1
 BYTE   W36
 BYTE   N22
 BYTE   W24
 BYTE   N11  Fn1
 BYTE   W12
//  #06 //087   ----------------------------------------
 BYTE   Ds1
 BYTE   W12
 BYTE   N22
 BYTE   W24
 BYTE   N32  Ds1  v032  gtp2
 BYTE   W36
 BYTE   N11  Gs1
 BYTE   W12
 BYTE   Gs1
 BYTE   W12
//  #06 //088   ----------------------------------------
 BYTE   Gs1
 BYTE   W12
 BYTE   N32  Ds1  v038  gtp2
 BYTE   W36
 BYTE   N11  Gs1  v032
 BYTE   W12
 BYTE   Gs1
 BYTE   W12
 BYTE   Gs1
 BYTE   W12
 BYTE   N32  Ds1  v038  gtp2
 BYTE   W12
//  #06 //089   ----------------------------------------
 BYTE   W24
 BYTE   N11  Cn1  v032
 BYTE   W12
 BYTE   Cn1
 BYTE   W12
 BYTE   Cn1
 BYTE   W12
 BYTE   N32  Fs1  v038  gtp2
 BYTE   W36
//  #06 //090   ----------------------------------------
 BYTE   N11  Bn0  v032
 BYTE   W12
 BYTE   Bn0
 BYTE   W12
 BYTE   Bn0
 BYTE   W12
 BYTE   N32  Fs1  v038  gtp2
 BYTE   W36
 BYTE   N11  Dn1  v032
 BYTE   W12
 BYTE   Dn1
 BYTE   W12
//  #06 //091   ----------------------------------------
 BYTE   Dn1
 BYTE   W12
 BYTE   N68
 BYTE   W72
 BYTE   N11
 BYTE   W12
//  #06 //092   ----------------------------------------
 BYTE   Dn1
 BYTE   W12
 BYTE   Dn1
 BYTE   W12
 BYTE   Dn1  v035
 BYTE   W12
 BYTE   Dn1  v032
 BYTE   W12
 BYTE   Dn1
 BYTE   W12
 BYTE   Dn1  v035
 BYTE   W12
 BYTE   Dn1  v032
 BYTE   W12
 BYTE   Dn1
 BYTE   W12
//  #06 //093   ----------------------------------------
 BYTE   Dn1  v035
 BYTE   W12
 BYTE   Dn1  v032
 BYTE   W12
 BYTE   Dn1
 BYTE   W12
 BYTE   Dn1  v035
 BYTE   W12
 BYTE   Dn1  v032
 BYTE   W12
 BYTE   Dn1
 BYTE   W12
 BYTE   GoTo
  POIN2 Label_0100DE6D
 BYTE   FINE

//**************** Track 7 (Midi-Chn.6) ****************//

MarineSail_007:
//  #07 //000   ----------------------------------------
 BYTE   KEYSH   MarineSail_key+0
 BYTE   VOICE   104
 BYTE   VOL   127*MarineSail_mvl/mxv
 BYTE   W96
//  #07 //001   ----------------------------------------
 BYTE   W96
//  #07 //002   ----------------------------------------
 BYTE   W96
//  #07 //003   ----------------------------------------
 BYTE   W96
//  #07 //004   ----------------------------------------
 BYTE   W96
//  #07 //005   ----------------------------------------
 BYTE   W96
//  #07 //006   ----------------------------------------
 BYTE   W96
//  #07 //007   ----------------------------------------
 BYTE   W96
//  #07 //008   ----------------------------------------
 BYTE   W96
//  #07 //009   ----------------------------------------
 BYTE   W96
//  #07 //010   ----------------------------------------
 BYTE   W96
//  #07 //011   ----------------------------------------
 BYTE   W24
Label_55EF56:
 BYTE   W72
//  #07 //012   ----------------------------------------
 BYTE   W96
//  #07 //013   ----------------------------------------
 BYTE   W96
//  #07 //014   ----------------------------------------
 BYTE   W96
//  #07 //015   ----------------------------------------
 BYTE   W96
//  #07 //016   ----------------------------------------
 BYTE   W96
//  #07 //017   ----------------------------------------
 BYTE   W96
//  #07 //018   ----------------------------------------
 BYTE   W96
//  #07 //019   ----------------------------------------
 BYTE   W96
//  #07 //020   ----------------------------------------
 BYTE   W96
//  #07 //021   ----------------------------------------
 BYTE   W96
//  #07 //022   ----------------------------------------
 BYTE   W96
//  #07 //023   ----------------------------------------
 BYTE   W96
//  #07 //024   ----------------------------------------
 BYTE   W96
//  #07 //025   ----------------------------------------
 BYTE   W96
//  #07 //026   ----------------------------------------
 BYTE   W96
//  #07 //027   ----------------------------------------
 BYTE   W96
//  #07 //028   ----------------------------------------
 BYTE   W96
//  #07 //029   ----------------------------------------
 BYTE   W96
//  #07 //030   ----------------------------------------
 BYTE   W96
//  #07 //031   ----------------------------------------
 BYTE   W96
//  #07 //032   ----------------------------------------
 BYTE   W96
//  #07 //033   ----------------------------------------
 BYTE   W96
//  #07 //034   ----------------------------------------
 BYTE   W96
//  #07 //035   ----------------------------------------
 BYTE   W96
//  #07 //036   ----------------------------------------
 BYTE   W96
//  #07 //037   ----------------------------------------
 BYTE   W96
//  #07 //038   ----------------------------------------
 BYTE   W48
 BYTE   N22  Gn1  v044
 BYTE   W24
 BYTE   Fn1
 BYTE   W24
//  #07 //039   ----------------------------------------
 BYTE   En1
 BYTE   W24
 BYTE   Fn1
 BYTE   W24
 BYTE   Gs1
 BYTE   W24
 BYTE   Gn1
 BYTE   W24
//  #07 //040   ----------------------------------------
 BYTE   N96  Ds1
 BYTE   W96
//  #07 //041   ----------------------------------------
 BYTE   W96
//  #07 //042   ----------------------------------------
 BYTE   W96
//  #07 //043   ----------------------------------------
 BYTE   W96
//  #07 //044   ----------------------------------------
 BYTE   W96
//  #07 //045   ----------------------------------------
 BYTE   W96
//  #07 //046   ----------------------------------------
 BYTE   W96
//  #07 //047   ----------------------------------------
 BYTE   W96
//  #07 //048   ----------------------------------------
 BYTE   W96
//  #07 //049   ----------------------------------------
 BYTE   W96
//  #07 //050   ----------------------------------------
 BYTE   W96
//  #07 //051   ----------------------------------------
 BYTE   W96
//  #07 //052   ----------------------------------------
 BYTE   W96
//  #07 //053   ----------------------------------------
 BYTE   W96
//  #07 //054   ----------------------------------------
 BYTE   W96
//  #07 //055   ----------------------------------------
 BYTE   W96
//  #07 //056   ----------------------------------------
 BYTE   W96
//  #07 //057   ----------------------------------------
 BYTE   W96
//  #07 //058   ----------------------------------------
 BYTE   W96
//  #07 //059   ----------------------------------------
 BYTE   W96
//  #07 //060   ----------------------------------------
 BYTE   W96
//  #07 //061   ----------------------------------------
 BYTE   W96
//  #07 //062   ----------------------------------------
 BYTE   W96
//  #07 //063   ----------------------------------------
 BYTE   W96
//  #07 //064   ----------------------------------------
 BYTE   W96
//  #07 //065   ----------------------------------------
 BYTE   W96
//  #07 //066   ----------------------------------------
 BYTE   W96
//  #07 //067   ----------------------------------------
 BYTE   W96
//  #07 //068   ----------------------------------------
 BYTE   W96
//  #07 //069   ----------------------------------------
 BYTE   W96
//  #07 //070   ----------------------------------------
 BYTE   W96
//  #07 //071   ----------------------------------------
 BYTE   W96
//  #07 //072   ----------------------------------------
 BYTE   W96
//  #07 //073   ----------------------------------------
 BYTE   W96
//  #07 //074   ----------------------------------------
 BYTE   W96
//  #07 //075   ----------------------------------------
 BYTE   W96
//  #07 //076   ----------------------------------------
 BYTE   W96
//  #07 //077   ----------------------------------------
 BYTE   W96
//  #07 //078   ----------------------------------------
 BYTE   W96
//  #07 //079   ----------------------------------------
 BYTE   W96
//  #07 //080   ----------------------------------------
 BYTE   W96
//  #07 //081   ----------------------------------------
 BYTE   W96
//  #07 //082   ----------------------------------------
 BYTE   W96
//  #07 //083   ----------------------------------------
 BYTE   W96
//  #07 //084   ----------------------------------------
 BYTE   W96
//  #07 //085   ----------------------------------------
 BYTE   W96
//  #07 //086   ----------------------------------------
 BYTE   W96
//  #07 //087   ----------------------------------------
 BYTE   W96
//  #07 //088   ----------------------------------------
 BYTE   W96
//  #07 //089   ----------------------------------------
 BYTE   W96
//  #07 //090   ----------------------------------------
 BYTE   W96
//  #07 //091   ----------------------------------------
 BYTE   W96
//  #07 //092   ----------------------------------------
 BYTE   W96
//  #07 //093   ----------------------------------------
 BYTE   W72
 BYTE   GoTo
  POIN2 Label_55EF56
 BYTE   FINE

//**************** Track 8 (Midi-Chn.7) ****************//

MarineSail_008:
//  #08 //000   ----------------------------------------
 BYTE   KEYSH   MarineSail_key+0
 BYTE   VOICE   36
 BYTE   TIE  Gn1  v032
 BYTE   VOL   127*MarineSail_mvl/mxv
 BYTE   W96
//  #08 //001   ----------------------------------------
 BYTE   W96
//  #08 //002   ----------------------------------------
 BYTE   W96
//  #08 //003   ----------------------------------------
 BYTE   W52
 BYTE   W01
 BYTE   EOT
 BYTE   W19
 BYTE   N22  Gs1  v038
 BYTE   W24
//  #08 //004   ----------------------------------------
 BYTE   As1
 BYTE   W24
 BYTE   Gn1
 BYTE   W24
 BYTE   N68  Fn1
 BYTE   W48
//  #08 //005   ----------------------------------------
 BYTE   W24
 BYTE   N22  Dn2  v032
 BYTE   W24
 BYTE   Ds2
 BYTE   W24
 BYTE   Cn2
 BYTE   W24
//  #08 //006   ----------------------------------------
 BYTE   N68  As1
 BYTE   W96
//  #08 //007   ----------------------------------------
 BYTE   W12
 BYTE   N32  As1  v038  gtp2
 BYTE   W36
 BYTE   Gs1
 BYTE   W36
 BYTE   Gn1
 BYTE   W12
//  #08 //008   ----------------------------------------
 BYTE   W24
 BYTE   Cn2
 BYTE   W36
 BYTE   N11  Cn2  v032
 BYTE   W12
 BYTE   Cn2
 BYTE   W12
 BYTE   Cn2
 BYTE   W12
//  #08 //009   ----------------------------------------
 BYTE   Cn2  v035
 BYTE   W12
 BYTE   Cn2
 BYTE   W12
 BYTE   Cn2
 BYTE   W12
 BYTE   Cn2  v038
 BYTE   W12
 BYTE   Cn2
 BYTE   W12
 BYTE   Cn2
 BYTE   W12
 BYTE   Cn2  v041
 BYTE   W12
 BYTE   Cn2
 BYTE   W12
//  #08 //010   ----------------------------------------
 BYTE   Cn2
 BYTE   W12
 BYTE   Cn2
 BYTE   W12
 BYTE   Cn2
 BYTE   W12
 BYTE   Cn2
 BYTE   W12
 BYTE   N17
 BYTE   W48
//  #08 //011   ----------------------------------------
 BYTE   W24
Label_0100E2BA:
 BYTE   N32  Cn2  v038  gtp2
 BYTE   W36
 BYTE   Cn2
 BYTE   W36
//  #08 //012   ----------------------------------------
 BYTE   Cn2
 BYTE   W36
 BYTE   N11  Fn1
 BYTE   W12
 BYTE   Gn1
 BYTE   W12
 BYTE   As1
 BYTE   W12
 BYTE   N32  As1  v038  gtp2
 BYTE   W24
//  #08 //013   ----------------------------------------
 BYTE   W12
 BYTE   As1
 BYTE   W36
 BYTE   As1
 BYTE   W36
 BYTE   N11  Gn1
 BYTE   W12
//  #08 //014   ----------------------------------------
 BYTE   Gs1
 BYTE   W12
 BYTE   As1
 BYTE   W12
 BYTE   N32  Gs1  v038  gtp2
 BYTE   W36
 BYTE   Gs1
 BYTE   W36
//  #08 //015   ----------------------------------------
 BYTE   Gs1
 BYTE   W36
 BYTE   N11
 BYTE   W12
 BYTE   As1
 BYTE   W12
 BYTE   Cn2
 BYTE   W12
 BYTE   N32  Gn1  v038  gtp2
 BYTE   W24
//  #08 //016   ----------------------------------------
Label_0100E2EF:
 BYTE   W12
 BYTE   N32  Gn1  v038  gtp2
 BYTE   W36
 BYTE   Gn1
 BYTE   W36
 BYTE   N11
 BYTE   W12
 BYTE   PEND 
//  #08 //017   ----------------------------------------
 BYTE   Gn1
 BYTE   W12
 BYTE   Cn2
 BYTE   W12
 BYTE   N32  Fn2  v038  gtp2
 BYTE   W36
 BYTE   N22
 BYTE   W24
 BYTE   N11  Gn2
 BYTE   W12
//  #08 //018   ----------------------------------------
 BYTE   N56  Gs2
 BYTE   W60
 BYTE   N11  Gn2
 BYTE   W12
 BYTE   N32  Cn2  v038  gtp2
 BYTE   W24
//  #08 //019   ----------------------------------------
 BYTE   W12
 BYTE   N22
 BYTE   W24
 BYTE   N11
 BYTE   W12
 BYTE   N32  Cn2  v038  gtp2
 BYTE   W36
 BYTE   N11
 BYTE   W12
//  #08 //020   ----------------------------------------
 BYTE   Cn2
 BYTE   W12
 BYTE   Cn2
 BYTE   W12
 BYTE   N32  Dn2  v038  gtp2
 BYTE   W36
 BYTE   Dn2
 BYTE   W36
//  #08 //021   ----------------------------------------
 BYTE   Dn2
 BYTE   W36
 BYTE   N11
 BYTE   W12
 BYTE   Dn2
 BYTE   W12
 BYTE   As1
 BYTE   W12
 BYTE   N32  Gn1  v038  gtp2
 BYTE   W24
//  #08 //022   ----------------------------------------
 BYTE   PATT
  POIN2 Label_0100E2EF
//  #08 //023   ----------------------------------------
 BYTE   N11  Gn1  v038
 BYTE   W12
 BYTE   Gn1
 BYTE   W12
 BYTE   N32  Cn2  v038  gtp2
 BYTE   W36
 BYTE   Cn2
 BYTE   W36
//  #08 //024   ----------------------------------------
 BYTE   Cn2
 BYTE   W36
 BYTE   Cn2
 BYTE   W36
 BYTE   Cn2
 BYTE   W24
//  #08 //025   ----------------------------------------
 BYTE   W12
 BYTE   Cn2
 BYTE   W36
 BYTE   As1
 BYTE   W36
 BYTE   Gn1
 BYTE   W12
//  #08 //026   ----------------------------------------
Label_0100E356:
 BYTE   W24
 BYTE   N32  Cn2  v038  gtp2
 BYTE   W36
 BYTE   Cn2
 BYTE   W36
 BYTE   PEND 
//  #08 //027   ----------------------------------------
 BYTE   Cn2
 BYTE   W36
 BYTE   N11  Gn1  v032
 BYTE   W12
 BYTE   Gn1
 BYTE   W12
 BYTE   As1
 BYTE   W12
 BYTE   N32  Cn2  v032  gtp2
 BYTE   W24
//  #08 //028   ----------------------------------------
 BYTE   W12
 BYTE   Dn2  v038
 BYTE   W36
 BYTE   Ds2
 BYTE   W36
 BYTE   N22
 BYTE   W12
//  #08 //029   ----------------------------------------
 BYTE   W12
 BYTE   N11
 BYTE   W12
 BYTE   N32  Cn2  v038  gtp2
 BYTE   W36
 BYTE   Cn2
 BYTE   W36
//  #08 //030   ----------------------------------------
 BYTE   Cn2
 BYTE   W36
 BYTE   N11  Cn2  v032
 BYTE   W12
 BYTE   Dn2
 BYTE   W12
 BYTE   Ds2
 BYTE   W12
 BYTE   N32  Cn2  v038  gtp2
 BYTE   W24
//  #08 //031   ----------------------------------------
 BYTE   W12
 BYTE   Cn2
 BYTE   W36
 BYTE   Gn1
 BYTE   W36
 BYTE   Gn1
 BYTE   W12
//  #08 //032   ----------------------------------------
 BYTE   PATT
  POIN2 Label_0100E356
//  #08 //033   ----------------------------------------
 BYTE   N32  Cn2  v038  gtp2
 BYTE   W36
 BYTE   N11  Cn2  v032
 BYTE   W12
 BYTE   Cn2
 BYTE   W12
 BYTE   Cn2
 BYTE   W12
 BYTE   N22  Cn2  v038
 BYTE   W24
//  #08 //034   ----------------------------------------
 BYTE   N11
 BYTE   W12
 BYTE   N22
 BYTE   W24
 BYTE   N11
 BYTE   W12
 BYTE   N56
 BYTE   W48
//  #08 //035   ----------------------------------------
 BYTE   W12
 BYTE   N11
 BYTE   W12
 BYTE   N68  Fn1
 BYTE   W72
//  #08 //036   ----------------------------------------
 BYTE   As1
 BYTE   W72
 BYTE   N56  Ds2
 BYTE   W24
//  #08 //037   ----------------------------------------
 BYTE   W36
 BYTE   N11
 BYTE   W12
 BYTE   N32  Ds2  v038  gtp2
 BYTE   W36
 BYTE   N22  As1
 BYTE   W12
//  #08 //038   ----------------------------------------
 BYTE   W12
 BYTE   N11  Cn2
 BYTE   W12
 BYTE   N68  Dn2
 BYTE   W72
//  #08 //039   ----------------------------------------
 BYTE   Gn1
 BYTE   W72
 BYTE   N32  Cn2  v038  gtp2
 BYTE   W24
//  #08 //040   ----------------------------------------
 BYTE   W12
 BYTE   Bn1
 BYTE   W36
 BYTE   N68  As1
 BYTE   W48
//  #08 //041   ----------------------------------------
 BYTE   W24
 BYTE   N56  An1
 BYTE   W60
 BYTE   N11
 BYTE   W12
//  #08 //042   ----------------------------------------
 BYTE   N32  An1  v038  gtp2
 BYTE   W36
 BYTE   N22  Cn2
 BYTE   W24
 BYTE   N11  Gs1
 BYTE   W12
 BYTE   N32  Gn1  v038  gtp2
 BYTE   W24
//  #08 //043   ----------------------------------------
 BYTE   W12
 BYTE   N22
 BYTE   W24
 BYTE   N11  Gs1
 BYTE   W12
 BYTE   N22  As1
 BYTE   W24
 BYTE   N11
 BYTE   W12
 BYTE   N22
 BYTE   W12
//  #08 //044   ----------------------------------------
 BYTE   W12
 BYTE   N11
 BYTE   W12
 BYTE   Gn2
 BYTE   W12
 BYTE   Gn2
 BYTE   W12
 BYTE   Gn2
 BYTE   W12
 BYTE   Gn2  v032
 BYTE   W12
 BYTE   Cn2  v038
 BYTE   W12
 BYTE   Cn2
 BYTE   W12
//  #08 //045   ----------------------------------------
 BYTE   Gn2  v032
 BYTE   W12
 BYTE   Cn2
 BYTE   W12
 BYTE   Cn2
 BYTE   W12
 BYTE   Fn2
 BYTE   W12
 BYTE   Ds2
 BYTE   W12
 BYTE   Dn2
 BYTE   W12
 BYTE   Gn2  v038
 BYTE   W12
 BYTE   Fn2
 BYTE   W12
//  #08 //046   ----------------------------------------
 BYTE   Ds2
 BYTE   W12
 BYTE   Dn2
 BYTE   W12
 BYTE   Cn2
 BYTE   W12
 BYTE   As1
 BYTE   W12
 BYTE   N68  Gn1
 BYTE   W48
//  #08 //047   ----------------------------------------
 BYTE   W24
 BYTE   N32  Cn2  v038  gtp2
 BYTE   W36
 BYTE   Gn1
 BYTE   W36
//  #08 //048   ----------------------------------------
 BYTE   Cn2
 BYTE   W36
 BYTE   Gn1
 BYTE   W36
 BYTE   N22  En1  v029
 BYTE   W24
//  #08 //049   ----------------------------------------
 BYTE   N11
 BYTE   W12
 BYTE   N22
 BYTE   W24
 BYTE   N11
 BYTE   W12
 BYTE   N22
 BYTE   W24
 BYTE   N11
 BYTE   W12
 BYTE   N32  En1  v029  gtp2
 BYTE   W12
//  #08 //050   ----------------------------------------
 BYTE   W24
 BYTE   N22  An1  v032
 BYTE   W24
 BYTE   N11
 BYTE   W12
 BYTE   N32  En2  v032  gtp2
 BYTE   W36
//  #08 //051   ----------------------------------------
 BYTE   N22  Gn1
 BYTE   W24
 BYTE   N11
 BYTE   W12
 BYTE   N32  En2  v032  gtp2
 BYTE   W36
 BYTE   N22  Fn1  v026
 BYTE   W24
//  #08 //052   ----------------------------------------
 BYTE   N11
 BYTE   W12
 BYTE   N22
 BYTE   W24
 BYTE   N11
 BYTE   W12
 BYTE   N22  En1
 BYTE   W24
 BYTE   N11
 BYTE   W12
 BYTE   N22
 BYTE   W12
//  #08 //053   ----------------------------------------
 BYTE   W12
 BYTE   N11  Cn2
 BYTE   W12
 BYTE   N22  Dn2  v032
 BYTE   W24
 BYTE   N11
 BYTE   W12
 BYTE   N32  An1  v032  gtp2
 BYTE   W36
//  #08 //054   ----------------------------------------
 BYTE   PATT
  POIN2 Label_0100D4EC
//  #08 //055   ----------------------------------------
 BYTE   PATT
  POIN2 Label_0100D4FB
//  #08 //056   ----------------------------------------
 BYTE   W12
 BYTE   N11  Gn1  v032
 BYTE   W12
 BYTE   N22  Cn2  v038
 BYTE   W24
 BYTE   N11
 BYTE   W12
 BYTE   N32  Gn1  v038  gtp2
 BYTE   W36
//  #08 //057   ----------------------------------------
 BYTE   N22  Cn2
 BYTE   W24
 BYTE   N11
 BYTE   W12
 BYTE   N32  Gn1  v038  gtp2
 BYTE   W36
 BYTE   N22  Bn1  v032
 BYTE   W24
//  #08 //058   ----------------------------------------
 BYTE   N11  Bn1  v038
 BYTE   W12
 BYTE   N22
 BYTE   W24
 BYTE   N11
 BYTE   W12
 BYTE   N22  En2
 BYTE   W24
 BYTE   N11
 BYTE   W12
 BYTE   N22  Bn1  v032
 BYTE   W12
//  #08 //059   ----------------------------------------
 BYTE   W12
 BYTE   N11  Bn1  v038
 BYTE   W12
 BYTE   N22  An1
 BYTE   W24
 BYTE   N11
 BYTE   W12
 BYTE   N22
 BYTE   W24
 BYTE   N11
 BYTE   W12
//  #08 //060   ----------------------------------------
 BYTE   N22  Gn1
 BYTE   W24
 BYTE   N11
 BYTE   W12
 BYTE   N32  Gn1  v038  gtp2
 BYTE   W36
 BYTE   N22  Fn1
 BYTE   W24
//  #08 //061   ----------------------------------------
 BYTE   N11
 BYTE   W12
 BYTE   N22
 BYTE   W24
 BYTE   N11
 BYTE   W12
 BYTE   N22  En1
 BYTE   W24
 BYTE   N11
 BYTE   W12
 BYTE   N22
 BYTE   W12
//  #08 //062   ----------------------------------------
 BYTE   W12
 BYTE   N11
 BYTE   W12
 BYTE   N22  As1
 BYTE   W24
 BYTE   N11
 BYTE   W12
 BYTE   N22
 BYTE   W24
 BYTE   N11
 BYTE   W12
//  #08 //063   ----------------------------------------
 BYTE   N22
 BYTE   W24
 BYTE   N11
 BYTE   W12
 BYTE   N22
 BYTE   W24
 BYTE   N11
 BYTE   W12
 BYTE   N22  An1
 BYTE   W24
//  #08 //064   ----------------------------------------
 BYTE   N11
 BYTE   W12
 BYTE   N22
 BYTE   W24
 BYTE   N11
 BYTE   W12
 BYTE   N22  Bn1
 BYTE   W24
 BYTE   N11
 BYTE   W12
 BYTE   N22
 BYTE   W12
//  #08 //065   ----------------------------------------
 BYTE   W12
 BYTE   N11
 BYTE   W12
 BYTE   N22  Cn2
 BYTE   W24
 BYTE   N11
 BYTE   W12
 BYTE   N22
 BYTE   W24
 BYTE   N11
 BYTE   W12
//  #08 //066   ----------------------------------------
 BYTE   N22  Cs2
 BYTE   W24
 BYTE   N11
 BYTE   W12
 BYTE   N22
 BYTE   W24
 BYTE   N11
 BYTE   W12
 BYTE   N32  Dn2  v038  gtp2
 BYTE   W24
//  #08 //067   ----------------------------------------
 BYTE   W12
 BYTE   En2
 BYTE   W36
 BYTE   N68  Fn2
 BYTE   W48
//  #08 //068   ----------------------------------------
 BYTE   W24
 BYTE   N22  An1
 BYTE   W24
 BYTE   N11
 BYTE   W12
 BYTE   N22
 BYTE   W24
 BYTE   N11
 BYTE   W12
//  #08 //069   ----------------------------------------
 BYTE   N22
 BYTE   W24
 BYTE   N11
 BYTE   W12
 BYTE   N32  An1  v038  gtp2
 BYTE   W36
 BYTE   Dn2
 BYTE   W24
//  #08 //070   ----------------------------------------
 BYTE   W12
 BYTE   An1
 BYTE   W36
 BYTE   Dn2
 BYTE   W36
 BYTE   An1
 BYTE   W12
//  #08 //071   ----------------------------------------
 BYTE   W24
 BYTE   Dn2
 BYTE   W36
 BYTE   An1
 BYTE   W36
//  #08 //072   ----------------------------------------
 BYTE   Dn2
 BYTE   W36
 BYTE   An1
 BYTE   W36
 BYTE   N22  Gs1
 BYTE   W24
//  #08 //073   ----------------------------------------
 BYTE   N11
 BYTE   W12
 BYTE   N22
 BYTE   W24
 BYTE   N11
 BYTE   W12
 BYTE   N22
 BYTE   W24
 BYTE   N11
 BYTE   W12
 BYTE   N32  Ds2  v038  gtp2
 BYTE   W12
//  #08 //074   ----------------------------------------
 BYTE   W24
 BYTE   N22  As1
 BYTE   W24
 BYTE   N11
 BYTE   W12
 BYTE   N22
 BYTE   W24
 BYTE   N11
 BYTE   W12
//  #08 //075   ----------------------------------------
 BYTE   As1
 BYTE   W12
 BYTE   As1
 BYTE   W12
 BYTE   As1
 BYTE   W12
 BYTE   As1
 BYTE   W12
 BYTE   As1
 BYTE   W12
 BYTE   As1
 BYTE   W12
 BYTE   N22  Fs2  v032
 BYTE   W24
//  #08 //076   ----------------------------------------
 BYTE   N11
 BYTE   W12
 BYTE   N32  Cs2  v038  gtp2
 BYTE   W36
 BYTE   N22  Cn2
 BYTE   W24
 BYTE   N11
 BYTE   W12
 BYTE   N22
 BYTE   W12
//  #08 //077   ----------------------------------------
 BYTE   W12
 BYTE   N11
 BYTE   W12
 BYTE   N22  Fn2  v032
 BYTE   W24
 BYTE   N11
 BYTE   W12
 BYTE   N22
 BYTE   W24
 BYTE   N11
 BYTE   W12
//  #08 //078   ----------------------------------------
 BYTE   N22
 BYTE   W24
 BYTE   N11
 BYTE   W12
 BYTE   N22
 BYTE   W24
 BYTE   N11
 BYTE   W12
 BYTE   TIE  Cs2  v038
 BYTE   W24
//  #08 //079   ----------------------------------------
 BYTE   W96
//  #08 //080   ----------------------------------------
 BYTE   W16
 BYTE   EOT
 BYTE   W08
 BYTE   TIE  Cn2
 BYTE   W72
//  #08 //081   ----------------------------------------
 BYTE   W64
 BYTE   EOT
 BYTE   W08
 BYTE   TIE  Bn1
 BYTE   W24
//  #08 //082   ----------------------------------------
 BYTE   W96
//  #08 //083   ----------------------------------------
 BYTE   W16
 BYTE   EOT
 BYTE   W08
 BYTE   N56  As1
 BYTE   W60
 BYTE   N11
 BYTE   W12
//  #08 //084   ----------------------------------------
 BYTE   N22
 BYTE   W24
 BYTE   N11
 BYTE   W12
 BYTE   N22  Fn1
 BYTE   W24
 BYTE   N11  Cn2
 BYTE   W12
 BYTE   Cn2
 BYTE   W12
 BYTE   N22
 BYTE   W12
//  #08 //085   ----------------------------------------
 BYTE   W12
 BYTE   Cn2
 BYTE   W24
 BYTE   N11  Fn1
 BYTE   W12
 BYTE   Fn1
 BYTE   W12
 BYTE   N22
 BYTE   W24
 BYTE   N32  Fn1  v038  gtp2
 BYTE   W12
//  #08 //086   ----------------------------------------
 BYTE   W24
 BYTE   Ds2
 BYTE   W36
 BYTE   N22
 BYTE   W24
 BYTE   N11  As1
 BYTE   W12
//  #08 //087   ----------------------------------------
 BYTE   Gs1
 BYTE   W12
 BYTE   N22
 BYTE   W24
 BYTE   N32  Gs1  v038  gtp2
 BYTE   W36
 BYTE   N11  Dn2
 BYTE   W12
 BYTE   Dn2
 BYTE   W12
//  #08 //088   ----------------------------------------
 BYTE   Dn2
 BYTE   W12
 BYTE   N32  Gs1  v044  gtp2
 BYTE   W36
 BYTE   N11  Dn2  v038
 BYTE   W12
 BYTE   Dn2
 BYTE   W12
 BYTE   Dn2
 BYTE   W12
 BYTE   N32  Gs1  v044  gtp2
 BYTE   W12
//  #08 //089   ----------------------------------------
 BYTE   W24
 BYTE   N11  Fn1  v038
 BYTE   W12
 BYTE   Fn1
 BYTE   W12
 BYTE   Fn1
 BYTE   W12
 BYTE   N32  Bn1  v044  gtp2
 BYTE   W36
//  #08 //090   ----------------------------------------
 BYTE   N11  Fn1  v038
 BYTE   W12
 BYTE   Fn1
 BYTE   W12
 BYTE   Fn1
 BYTE   W12
 BYTE   N32  Bn1  v044  gtp2
 BYTE   W36
 BYTE   N11  Gn1  v038
 BYTE   W12
 BYTE   Gn1
 BYTE   W12
//  #08 //091   ----------------------------------------
 BYTE   Gn1
 BYTE   W12
 BYTE   N68
 BYTE   W72
 BYTE   N11
 BYTE   W12
//  #08 //092   ----------------------------------------
 BYTE   Gn1
 BYTE   W12
 BYTE   Gn1
 BYTE   W12
 BYTE   Gn1  v041
 BYTE   W12
 BYTE   Gn1  v038
 BYTE   W12
 BYTE   Gn1
 BYTE   W12
 BYTE   Gn1  v041
 BYTE   W12
 BYTE   Gn1  v038
 BYTE   W12
 BYTE   Gn1
 BYTE   W12
//  #08 //093   ----------------------------------------
 BYTE   Gn1  v041
 BYTE   W12
 BYTE   Gn1  v038
 BYTE   W12
 BYTE   Gn1
 BYTE   W12
 BYTE   Gn1  v041
 BYTE   W12
 BYTE   Gn1  v038
 BYTE   W12
 BYTE   Gn1
 BYTE   W12
 BYTE   GoTo
  POIN2 Label_0100E2BA
 BYTE   FINE

//**************** Track 9 (Midi-Chn.8) ****************//

MarineSail_009:
//  #09 //000   ----------------------------------------
 BYTE   KEYSH   MarineSail_key+0
 BYTE   VOICE   124
 BYTE   N12  En1  v030
 BYTE   VOL   127*MarineSail_mvl/mxv
 BYTE   W12
 BYTE   N12
 BYTE   W12
 BYTE   En1
 BYTE   W12
 BYTE   En1
 BYTE   W12
 BYTE   En1
 BYTE   W12
 BYTE   En1
 BYTE   W12
 BYTE   En1
 BYTE   W12
 BYTE   En1
 BYTE   W12
//  #09 //001   ----------------------------------------
Label_0100E668:
 BYTE   N12  En1  v030
 BYTE   W12
 BYTE   En1
 BYTE   W12
 BYTE   En1
 BYTE   W12
 BYTE   En1
 BYTE   W12
 BYTE   En1
 BYTE   W12
 BYTE   En1
 BYTE   W12
 BYTE   En1
 BYTE   W12
 BYTE   En1
 BYTE   W12
 BYTE   PEND 
//  #09 //002   ----------------------------------------
 BYTE   PATT
  POIN2 Label_0100E668
//  #09 //003   ----------------------------------------
 BYTE   N12  En1  v030
 BYTE   W12
 BYTE   En1
 BYTE   W12
 BYTE   En1
 BYTE   W12
 BYTE   En1
 BYTE   W12
 BYTE   En1
 BYTE   W48
//  #09 //004   ----------------------------------------
 BYTE   W96
//  #09 //005   ----------------------------------------
 BYTE   W96
//  #09 //006   ----------------------------------------
 BYTE   W96
//  #09 //007   ----------------------------------------
 BYTE   W96
//  #09 //008   ----------------------------------------
 BYTE   W24
 BYTE   N32  As1  v040  gtp3
 BYTE   W72
//  #09 //009   ----------------------------------------
 BYTE   W72
 BYTE   N12  En1
 BYTE   W12
 BYTE   En1
 BYTE   W12
//  #09 //010   ----------------------------------------
 BYTE   En1
 BYTE   W12
 BYTE   En1
 BYTE   W12
 BYTE   En1
 BYTE   W12
 BYTE   En1
 BYTE   W12
 BYTE   N32  En1  v040  gtp3
 BYTE   W48
//  #09 //011   ----------------------------------------
 BYTE   W24
Label_0100E6AA:
 BYTE   N32  Cs2  v028  gtp3
 BYTE   Cn1  v036
 BYTE   W36
 BYTE   Cn1
 BYTE   N23  Gs1  v030
 BYTE   W24
 BYTE   N12  Fs1  v024
 BYTE   W12
//  #09 //012   ----------------------------------------
 BYTE   N32  Cn1  v036  gtp3
 BYTE   N23  Gs1  v030
 BYTE   W24
 BYTE   N12  Fs1  v024
 BYTE   W12
 BYTE   N32  En1  v036  gtp3
 BYTE   Gs1  v044
 BYTE   N32  Cn1  v040  gtp3
 BYTE   W36
 BYTE   Cn1
 BYTE   N23  Gs1  v035
 BYTE   W24
//  #09 //013   ----------------------------------------
 BYTE   N12  Fs1  v024
 BYTE   W12
 BYTE   N32  Cn1  v040  gtp3
 BYTE   N23  Gs1  v035
 BYTE   W24
 BYTE   N12  Fs1  v024
 BYTE   W12
 BYTE   N23  Cn1  v040
 BYTE   N23  Gs1  v030
 BYTE   W24
 BYTE   N12  Fs1  v024
 BYTE   N11  Cn1  v040
 BYTE   W12
 BYTE   N32  Cn1  v040  gtp3
 BYTE   Gs1  v044
 BYTE   N32  En1  v036  gtp3
 BYTE   W12
//  #09 //014   ----------------------------------------
Label_0100E6FF:
 BYTE   W24
 BYTE   N32  Cn1  v040  gtp3
 BYTE   N23  Gs1  v035
 BYTE   W24
 BYTE   N12  Fs1  v024
 BYTE   W12
 BYTE   N32  Cn1  v040  gtp3
 BYTE   N23  Gs1  v035
 BYTE   W24
 BYTE   N12  Fs1  v024
 BYTE   W12
 BYTE   PEND 
//  #09 //015   ----------------------------------------
 BYTE   N32  Cn1  v040  gtp3
 BYTE   N23  Gs1  v030
 BYTE   W24
 BYTE   N12  Fs1  v024
 BYTE   W12
 BYTE   N32  Cn1  v040  gtp3
 BYTE   Gs1  v044
 BYTE   N32  En1  v036  gtp3
 BYTE   W36
 BYTE   Cn1  v040
 BYTE   N23  Gs1  v035
 BYTE   W24
//  #09 //016   ----------------------------------------
Label_0100E736:
 BYTE   N12  Fs1  v024
 BYTE   W12
 BYTE   N32  Cn1  v040  gtp3
 BYTE   N23  Gs1  v035
 BYTE   W24
 BYTE   N12  Fs1  v024
 BYTE   W12
 BYTE   N23  Gs1  v030
 BYTE   N23  Cn1  v040
 BYTE   W24
 BYTE   N12  Fs1  v024
 BYTE   N11  Cn1  v040
 BYTE   W12
 BYTE   N32  Gs1  v044  gtp3
 BYTE   En1  v036
 BYTE   N32  Cn1  v040  gtp3
 BYTE   W12
 BYTE   PEND 
//  #09 //017   ----------------------------------------
 BYTE   PATT
  POIN2 Label_0100E6FF
//  #09 //018   ----------------------------------------
Label_0100E765:
 BYTE   N32  Cn1  v040  gtp3
 BYTE   N23  Gs1  v030
 BYTE   W24
 BYTE   N12  Fs1  v024
 BYTE   W12
 BYTE   N32  Gs1  v044  gtp3
 BYTE   En1  v036
 BYTE   N32  Cn1  v040  gtp3
 BYTE   W36
 BYTE   Cn1
 BYTE   N23  Gs1  v035
 BYTE   W24
 BYTE   PEND 
//  #09 //019   ----------------------------------------
 BYTE   PATT
  POIN2 Label_0100E736
//  #09 //020   ----------------------------------------
 BYTE   PATT
  POIN2 Label_0100E6FF
//  #09 //021   ----------------------------------------
 BYTE   PATT
  POIN2 Label_0100E765
//  #09 //022   ----------------------------------------
 BYTE   N12  Fs1  v024
 BYTE   W12
 BYTE   N32  Cn1  v040  gtp3
 BYTE   N23  Gs1  v035
 BYTE   W24
 BYTE   N12  Fs1  v024
 BYTE   W12
 BYTE   N32  Gs1  v035  gtp3
 BYTE   N23  Cn1  v040
 BYTE   W24
 BYTE   N11
 BYTE   W12
 BYTE   N32  En1  v036  gtp3
 BYTE   Cs2  v040
 BYTE   N32  Cn1  v040  gtp3
 BYTE   W12
//  #09 //023   ----------------------------------------
 BYTE   W24
 BYTE   N23
 BYTE   W24
 BYTE   N11
 BYTE   W12
 BYTE   N36
 BYTE   N32  Cs2  v040  gtp3
 BYTE   En1  v036
 BYTE   W36
//  #09 //024   ----------------------------------------
 BYTE   N23  Cn1  v040
 BYTE   W24
 BYTE   N11
 BYTE   W12
 BYTE   N32  Cs2  v040  gtp3
 BYTE   En1  v036
 BYTE   N32  Cn1  v040  gtp3
 BYTE   W36
 BYTE   N23  En1  v033
 BYTE   W24
//  #09 //025   ----------------------------------------
 BYTE   N11  En1  v022
 BYTE   W12
 BYTE   N32  Gn2  v040  gtp3
 BYTE   Cn1
 BYTE   W36
 BYTE   Cn1
 BYTE   N23  Gs1  v044
 BYTE   N23  En1  v028
 BYTE   W24
 BYTE   N05
 BYTE   W06
 BYTE   En1
 BYTE   W06
 BYTE   N32  Cn1  v040  gtp3
 BYTE   N11  Bn1
 BYTE   W12
//  #09 //026   ----------------------------------------
 BYTE   Bn1
 BYTE   W12
 BYTE   An1
 BYTE   W12
 BYTE   N32  Cs2  v040  gtp3
 BYTE   Cn1
 BYTE   W36
 BYTE   Gs1  v035
 BYTE   N32  Cn1  v040  gtp3
 BYTE   W36
//  #09 //027   ----------------------------------------
Label_0100E806:
 BYTE   N23  Cn1  v040
 BYTE   N23  Gs1  v030
 BYTE   W24
 BYTE   N12  Fs1  v024
 BYTE   N11  Cn1  v040
 BYTE   W12
 BYTE   N32  Cn1  v040  gtp3
 BYTE   Gs1  v044
 BYTE   N32  En1  v036  gtp3
 BYTE   W36
 BYTE   Cn1  v040
 BYTE   N23  Gs1  v035
 BYTE   W24
 BYTE   PEND 
//  #09 //028   ----------------------------------------
Label_0100E826:
 BYTE   N12  Fs1  v024
 BYTE   W12
 BYTE   N32  Cn1  v040  gtp3
 BYTE   N23  Gs1  v035
 BYTE   W24
 BYTE   N12  Fs1  v024
 BYTE   W12
 BYTE   N32  Cn1  v040  gtp3
 BYTE   N23  Gs1  v030
 BYTE   W24
 BYTE   N12  Fs1  v024
 BYTE   W12
 BYTE   N32  Cn1  v040  gtp3
 BYTE   Gs1  v044
 BYTE   N32  En1  v036  gtp3
 BYTE   W12
 BYTE   PEND 
//  #09 //029   ----------------------------------------
 BYTE   PATT
  POIN2 Label_0100E6FF
//  #09 //030   ----------------------------------------
 BYTE   PATT
  POIN2 Label_0100E806
//  #09 //031   ----------------------------------------
 BYTE   PATT
  POIN2 Label_0100E826
//  #09 //032   ----------------------------------------
 BYTE   PATT
  POIN2 Label_0100E6FF
//  #09 //033   ----------------------------------------
 BYTE   N23  Gs1  v035
 BYTE   N23  Cn1  v040
 BYTE   W24
 BYTE   N11  Fs1  v024
 BYTE   N11  Cn1  v040
 BYTE   W12
 BYTE   N32  Gs1  v044  gtp3
 BYTE   En1  v036
 BYTE   N32  Cn1  v040  gtp3
 BYTE   W36
 BYTE   N11  En1  v033
 BYTE   W12
 BYTE   En1
 BYTE   W12
//  #09 //034   ----------------------------------------
 BYTE   En1
 BYTE   W12
 BYTE   En1
 BYTE   W12
 BYTE   En1
 BYTE   W12
 BYTE   En1
 BYTE   W12
 BYTE   N32  Cn1  v040  gtp3
 BYTE   N23  Cs2
 BYTE   W24
 BYTE   N11  Dn2
 BYTE   W12
 BYTE   Bn1
 BYTE   W12
//  #09 //035   ----------------------------------------
 BYTE   Bn1
 BYTE   W12
 BYTE   An1
 BYTE   W12
 BYTE   N32  Cs2  v040  gtp3
 BYTE   Cn1
 BYTE   W36
 BYTE   Gs1  v030
 BYTE   W24
 BYTE   N11  Cn1  v036
 BYTE   W12
//  #09 //036   ----------------------------------------
 BYTE   N32  Cn1  v040  gtp3
 BYTE   N23  Gs1  v030
 BYTE   W24
 BYTE   N11  Fs1  v032
 BYTE   W12
 BYTE   N32  Gs1  v044  gtp3
 BYTE   W36
 BYTE   Cn1  v032
 BYTE   N23  Gs1  v035
 BYTE   W24
//  #09 //037   ----------------------------------------
 BYTE   N11  Fs1  v028
 BYTE   W12
 BYTE   N32  Gs1  v035  gtp3
 BYTE   W24
 BYTE   N11  Cn1  v036
 BYTE   W12
 BYTE   N32  Gs1  v061  gtp3
 BYTE   Cn1  v040
 BYTE   W36
 BYTE   En1  v039
 BYTE   W12
//  #09 //038   ----------------------------------------
 BYTE   W24
 BYTE   Cn1  v040
 BYTE   N23  Gs1  v035
 BYTE   W24
 BYTE   N11  Fs1  v024
 BYTE   W12
 BYTE   N32  Gs1  v030  gtp3
 BYTE   W24
 BYTE   N11  Cn1  v036
 BYTE   W12
//  #09 //039   ----------------------------------------
 BYTE   N32  Gs1  v030  gtp3
 BYTE   Cn1  v040
 BYTE   W36
 BYTE   Gs1  v044
 BYTE   W36
 BYTE   Cn1  v040
 BYTE   N23  Gs1  v035
 BYTE   W24
//  #09 //040   ----------------------------------------
 BYTE   N11  Fs1  v024
 BYTE   W12
 BYTE   N32  Gs1  v030  gtp3
 BYTE   W24
 BYTE   N11  Cn1  v036
 BYTE   W12
 BYTE   N32  Gs1  v030  gtp3
 BYTE   N23  Cn1  v040
 BYTE   W24
 BYTE   N11
 BYTE   W12
 BYTE   N32  En1  v036  gtp3
 BYTE   Gs1  v044
 BYTE   W12
//  #09 //041   ----------------------------------------
 BYTE   W24
 BYTE   Cs2  v028
 BYTE   N32  Cn1  v040  gtp3
 BYTE   W36
 BYTE   Gs1  v030
 BYTE   W24
 BYTE   N11  Cn1  v036
 BYTE   W12
//  #09 //042   ----------------------------------------
 BYTE   N32  Cn1  v040  gtp3
 BYTE   N23  Gs1  v030
 BYTE   W24
 BYTE   N11  Fs1  v024
 BYTE   W12
 BYTE   N32  Gs1  v044  gtp3
 BYTE   W36
 BYTE   Cn1  v040
 BYTE   N23  Gs1  v035
 BYTE   W24
//  #09 //043   ----------------------------------------
 BYTE   N11  Fs1  v024
 BYTE   W12
 BYTE   N32  Gs1  v030  gtp3
 BYTE   W24
 BYTE   N11  Cn1  v036
 BYTE   W12
 BYTE   N32  Cn1  v040  gtp3
 BYTE   N23  Gs1  v030
 BYTE   W24
 BYTE   N11  Fs1  v024
 BYTE   W12
 BYTE   N32  Gs1  v050  gtp3
 BYTE   W12
//  #09 //044   ----------------------------------------
 BYTE   W24
 BYTE   N11  En1  v036
 BYTE   W12
 BYTE   En1
 BYTE   W12
 BYTE   En1
 BYTE   W12
 BYTE   Fs1  v028
 BYTE   W12
 BYTE   En1  v036
 BYTE   W12
 BYTE   En1
 BYTE   W12
//  #09 //045   ----------------------------------------
 BYTE   Fs1  v028
 BYTE   W12
 BYTE   En1  v036
 BYTE   W12
 BYTE   En1
 BYTE   W12
 BYTE   En1
 BYTE   W12
 BYTE   N05  En1  v028
 BYTE   W06
 BYTE   En1  v022
 BYTE   W06
 BYTE   N11  An1  v046
 BYTE   W12
 BYTE   En1  v036
 BYTE   W12
 BYTE   En1
 BYTE   W12
//  #09 //046   ----------------------------------------
 BYTE   En1
 BYTE   W12
 BYTE   En1
 BYTE   W12
 BYTE   En1
 BYTE   W12
 BYTE   En1
 BYTE   W12
 BYTE   N32  Cn1  v040  gtp3
 BYTE   N11  Cs2
 BYTE   W12
 BYTE   N05  En1  v028
 BYTE   W06
 BYTE   En1  v022
 BYTE   W06
 BYTE   N11  An1  v040
 BYTE   W12
 BYTE   Dn2
 BYTE   W12
//  #09 //047   ----------------------------------------
 BYTE   Bn1
 BYTE   W12
 BYTE   An1
 BYTE   W12
 BYTE   N32  Cs2  v040  gtp3
 BYTE   N23  Cn1
 BYTE   W24
 BYTE   N11
 BYTE   W12
 BYTE   N32  En1  v036  gtp3
 BYTE   Gs1  v044
 BYTE   N32  Cn1  v034  gtp3
 BYTE   W36
//  #09 //048   ----------------------------------------
 BYTE   Gs1  v035
 BYTE   N23  Cn1  v040
 BYTE   W24
 BYTE   N11
 BYTE   W12
 BYTE   N32  En1  v036  gtp3
 BYTE   Gs1  v035
 BYTE   N32  Cn1  v034  gtp3
 BYTE   W36
 BYTE   Gs1  v035
 BYTE   N23  Cn1  v040
 BYTE   W24
//  #09 //049   ----------------------------------------
 BYTE   N11
 BYTE   W12
 BYTE   N32  En1  v036  gtp3
 BYTE   Gs1  v035
 BYTE   N32  Cn1  v034  gtp3
 BYTE   W36
 BYTE   N23  Cn1  v040
 BYTE   N11  Gs1  v035
 BYTE   W12
 BYTE   Fs1  v024
 BYTE   W12
 BYTE   Fs1
 BYTE   N11  Cn1  v040
 BYTE   W12
 BYTE   N32  Cn1  v034  gtp3
 BYTE   N11  En1  v036
 BYTE   N11  Gs1  v035
 BYTE   W12
//  #09 //050   ----------------------------------------
 BYTE   Fs1  v024
 BYTE   W12
 BYTE   Fs1
 BYTE   W12
 BYTE   N32  Gs1  v035  gtp3
 BYTE   N23  Cn1  v040
 BYTE   W24
 BYTE   N11
 BYTE   W12
 BYTE   N32  En1  v036  gtp3
 BYTE   Gs1  v035
 BYTE   N32  Cn1  v034  gtp3
 BYTE   W36
//  #09 //051   ----------------------------------------
 BYTE   N23  Cn1  v040
 BYTE   N11  Gs1  v035
 BYTE   W12
 BYTE   Fs1  v024
 BYTE   W12
 BYTE   Cn1  v040
 BYTE   N11  Fs1  v024
 BYTE   W12
 BYTE   N32  Cn1  v034  gtp3
 BYTE   N11  En1  v036
 BYTE   N11  Gs1  v035
 BYTE   W12
 BYTE   Fs1  v024
 BYTE   W12
 BYTE   Fs1
 BYTE   W12
 BYTE   N32  Gs1  v035  gtp3
 BYTE   N23  Cn1  v040
 BYTE   W24
//  #09 //052   ----------------------------------------
 BYTE   N11
 BYTE   W12
 BYTE   N32  Cn1  v034  gtp3
 BYTE   Gs1  v035
 BYTE   N32  En1  v036  gtp3
 BYTE   W36
 BYTE   Gs1  v035
 BYTE   N23  Cn1  v040
 BYTE   W24
 BYTE   N11
 BYTE   W12
 BYTE   N32  Cn1  v034  gtp3
 BYTE   N11  Bn1  v046
 BYTE   W12
//  #09 //053   ----------------------------------------
 BYTE   Bn1
 BYTE   W12
 BYTE   An1
 BYTE   W12
 BYTE   N32  Cs2  v040  gtp3
 BYTE   N23  Cn1
 BYTE   W24
 BYTE   N11
 BYTE   W12
 BYTE   N32  En1  v036  gtp3
 BYTE   Gs1  v035
 BYTE   N32  Cn1  v034  gtp3
 BYTE   W36
//  #09 //054   ----------------------------------------
 BYTE   Gs1  v035
 BYTE   N23  Cn1  v040
 BYTE   W24
 BYTE   N11
 BYTE   W12
 BYTE   N32  Cn1  v034  gtp3
 BYTE   N12  En1  v036
 BYTE   N12  Gs1  v035
 BYTE   W12
 BYTE   N23
 BYTE   W24
 BYTE   N32  Gs1  v035  gtp3
 BYTE   N23  Cn1  v040
 BYTE   W24
//  #09 //055   ----------------------------------------
 BYTE   N11
 BYTE   W12
 BYTE   N32  En1  v036  gtp3
 BYTE   Gs1  v035
 BYTE   N32  Cn1  v034  gtp3
 BYTE   W36
 BYTE   N23  Gs1  v044
 BYTE   N23  Cn1  v040
 BYTE   W24
 BYTE   N11  En1  v036
 BYTE   W12
 BYTE   Dn2  v040
 BYTE   W12
//  #09 //056   ----------------------------------------
 BYTE   Bn1
 BYTE   W12
 BYTE   An1
 BYTE   W12
 BYTE   N32  Cs2  v040  gtp3
 BYTE   N23  Cn1
 BYTE   W24
 BYTE   N11
 BYTE   W12
 BYTE   N32  En1  v036  gtp3
 BYTE   Gs1  v035
 BYTE   N32  Cn1  v034  gtp3
 BYTE   W36
//  #09 //057   ----------------------------------------
Label_0100EAC0:
 BYTE   N32  Gs1  v035  gtp3
 BYTE   N23  Cn1  v040
 BYTE   W24
 BYTE   N11
 BYTE   W12
 BYTE   N32  Cn1  v034  gtp3
 BYTE   N12  Gs1  v035
 BYTE   N12  En1  v036
 BYTE   W12
 BYTE   N23  Gs1  v035
 BYTE   W24
 BYTE   N32  Gs1  v035  gtp3
 BYTE   N23  Cn1  v040
 BYTE   W24
 BYTE   PEND 
//  #09 //058   ----------------------------------------
Label_0100EAE2:
 BYTE   N11  Cn1  v040
 BYTE   W12
 BYTE   N32  Gs1  v035  gtp3
 BYTE   En1  v036
 BYTE   N32  Cn1  v034  gtp3
 BYTE   W36
 BYTE   Gs1  v035
 BYTE   N23  Cn1  v040
 BYTE   W24
 BYTE   N11
 BYTE   W12
 BYTE   N32  Cn1  v034  gtp3
 BYTE   N12  Gs1  v035
 BYTE   N12  En1  v036
 BYTE   W12
 BYTE   PEND 
//  #09 //059   ----------------------------------------
Label_0100EB05:
 BYTE   N23  Gs1  v035
 BYTE   W24
 BYTE   N32  Gs1  v035  gtp3
 BYTE   N23  Cn1  v040
 BYTE   W24
 BYTE   N11
 BYTE   W12
 BYTE   N32  Gs1  v035  gtp3
 BYTE   En1  v036
 BYTE   N32  Cn1  v034  gtp3
 BYTE   W36
 BYTE   PEND 
//  #09 //060   ----------------------------------------
 BYTE   PATT
  POIN2 Label_0100EAC0
//  #09 //061   ----------------------------------------
 BYTE   PATT
  POIN2 Label_0100EAE2
//  #09 //062   ----------------------------------------
 BYTE   PATT
  POIN2 Label_0100EB05
//  #09 //063   ----------------------------------------
 BYTE   N11  En1  v036
 BYTE   W12
 BYTE   En1
 BYTE   W12
 BYTE   En1
 BYTE   W12
 BYTE   N12
 BYTE   W12
 BYTE   En1
 BYTE   W12
 BYTE   En1
 BYTE   W12
 BYTE   N23  Cn1  v040
 BYTE   N23  Cs2
 BYTE   W24
//  #09 //064   ----------------------------------------
 BYTE   N11  Cn1
 BYTE   N11  Gs1  v035
 BYTE   W12
 BYTE   En1  v036
 BYTE   W12
 BYTE   N23  Cn1  v040
 BYTE   N23  Gs1  v039
 BYTE   W24
 BYTE   Cn1  v040
 BYTE   N23  Gs1  v044
 BYTE   W24
 BYTE   N11  Cn1  v040
 BYTE   N11  Gs1  v035
 BYTE   W12
 BYTE   En1  v036
 BYTE   W12
//  #09 //065   ----------------------------------------
 BYTE   N23  Cn1  v040
 BYTE   N23  Gs1  v039
 BYTE   W24
 BYTE   Cn1  v040
 BYTE   N23  Gs1  v044
 BYTE   W24
 BYTE   N11  Cn1  v040
 BYTE   N11  Gs1  v035
 BYTE   W12
 BYTE   En1  v036
 BYTE   W12
 BYTE   N23  Cn1  v040
 BYTE   N23  Gs1  v039
 BYTE   W24
//  #09 //066   ----------------------------------------
 BYTE   Cn1  v040
 BYTE   N23  Gs1  v044
 BYTE   W24
 BYTE   N11  Cn1  v040
 BYTE   N11  Gs1  v035
 BYTE   W12
 BYTE   En1  v036
 BYTE   W12
 BYTE   N23  Cn1  v040
 BYTE   N23  Gs1  v039
 BYTE   W24
 BYTE   N32  Cn1  v040  gtp3
 BYTE   Cs2
 BYTE   W24
//  #09 //067   ----------------------------------------
 BYTE   W12
 BYTE   Cn1
 BYTE   N32  Cs2  v040  gtp3
 BYTE   W36
 BYTE   N11  Fn1  v052
 BYTE   W12
 BYTE   Bn1  v028
 BYTE   W12
 BYTE   An1
 BYTE   W12
 BYTE   En1  v036
 BYTE   W12
//  #09 //068   ----------------------------------------
 BYTE   En1
 BYTE   W12
 BYTE   En1
 BYTE   W12
 BYTE   N32  Cn1  v040  gtp3
 BYTE   N11  Cs2
 BYTE   W12
 BYTE   N05  En1  v030
 BYTE   W06
 BYTE   En1  v022
 BYTE   W06
 BYTE   N11  An1  v040
 BYTE   W12
 BYTE   Dn2  v044
 BYTE   W12
 BYTE   Bn1
 BYTE   W12
 BYTE   An1
 BYTE   W12
//  #09 //069   ----------------------------------------
 BYTE   N32  Cn1  v040  gtp3
 BYTE   Cs2
 BYTE   W36
 BYTE   An1  v044
 BYTE   W36
 BYTE   Cs2  v040
 BYTE   N23  Cn1
 BYTE   W24
//  #09 //070   ----------------------------------------
 BYTE   N11
 BYTE   W12
 BYTE   N32  Cn1  v034  gtp3
 BYTE   Gs1  v044
 BYTE   N32  En1  v036  gtp3
 BYTE   W36
 BYTE   Gs1  v035
 BYTE   N23  Cn1  v040
 BYTE   W24
 BYTE   N11
 BYTE   W12
 BYTE   N32  Cn1  v034  gtp3
 BYTE   Gs1  v035
 BYTE   N32  En1  v036  gtp3
 BYTE   W12
//  #09 //071   ----------------------------------------
Label_0100EBFB:
 BYTE   W24
 BYTE   N32  Gs1  v035  gtp3
 BYTE   N23  Cn1  v040
 BYTE   W24
 BYTE   N12
 BYTE   W12
 BYTE   N32  Cn1  v034  gtp3
 BYTE   N11  En1  v036
 BYTE   W12
 BYTE   N23  Gs1  v035
 BYTE   W24
 BYTE   PEND 
//  #09 //072   ----------------------------------------
 BYTE   Cn1  v040
 BYTE   N17  Gs1  v035
 BYTE   W18
 BYTE   N05  En1  v019
 BYTE   W06
 BYTE   En1  v023
 BYTE   W06
 BYTE   En1  v030
 BYTE   W06
 BYTE   N11  Dn2  v040
 BYTE   W12
 BYTE   Bn1
 BYTE   W12
 BYTE   An1
 BYTE   W12
 BYTE   N32  Cs2  v040  gtp3
 BYTE   N23  Cn1
 BYTE   W24
//  #09 //073   ----------------------------------------
 BYTE   N11
 BYTE   W12
 BYTE   N32  Cn1  v034  gtp3
 BYTE   Gs1  v044
 BYTE   N32  En1  v036  gtp3
 BYTE   W36
 BYTE   Gs1  v035
 BYTE   N23  Cn1  v040
 BYTE   W24
 BYTE   N11
 BYTE   W12
 BYTE   N32  Gs1  v035  gtp3
 BYTE   Cn1  v034
 BYTE   N32  En1  v036  gtp3
 BYTE   W12
//  #09 //074   ----------------------------------------
 BYTE   PATT
  POIN2 Label_0100EBFB
//  #09 //075   ----------------------------------------
 BYTE   N11  Fn1  v052
 BYTE   W12
 BYTE   En1  v036
 BYTE   W12
 BYTE   En1
 BYTE   W12
 BYTE   N32  En1  v036  gtp3
 BYTE   Cs2  v040
 BYTE   W36
 BYTE   Cs2
 BYTE   N23  Cn1
 BYTE   W24
//  #09 //076   ----------------------------------------
 BYTE   N11
 BYTE   W12
 BYTE   N32  Cn1  v034  gtp3
 BYTE   Gs1  v044
 BYTE   N32  En1  v036  gtp3
 BYTE   W36
 BYTE   Gs1  v035
 BYTE   N23  Cn1  v040
 BYTE   W24
 BYTE   N11
 BYTE   W12
 BYTE   N32  Cn1  v034  gtp3
 BYTE   Gs1  v035
 BYTE   N32  En1  v022  gtp3
 BYTE   W12
//  #09 //077   ----------------------------------------
 BYTE   W24
 BYTE   Gn2  v048
 BYTE   N23  Cn1  v040
 BYTE   W24
 BYTE   N11
 BYTE   W12
 BYTE   N32  Gs1  v044  gtp3
 BYTE   En1  v028
 BYTE   N23  Cn1  v034
 BYTE   W24
 BYTE   N11  Cn1  v040
 BYTE   W12
//  #09 //078   ----------------------------------------
 BYTE   Dn2
 BYTE   W12
 BYTE   Bn1
 BYTE   W12
 BYTE   An1
 BYTE   W12
 BYTE   N32  Cn1  v040  gtp3
 BYTE   Cs2
 BYTE   W60
//  #09 //079   ----------------------------------------
 BYTE   W96
//  #09 //080   ----------------------------------------
 BYTE   W96
//  #09 //081   ----------------------------------------
 BYTE   W96
//  #09 //082   ----------------------------------------
 BYTE   W96
//  #09 //083   ----------------------------------------
 BYTE   W96
//  #09 //084   ----------------------------------------
 BYTE   N11  Cn2
 BYTE   W12
 BYTE   N05  Dn2
 BYTE   W06
 BYTE   N17  Cn2
 BYTE   W18
 BYTE   N32  Bn1  v040  gtp3
 BYTE   W36
 BYTE   Cn1
 BYTE   N17  Cs2
 BYTE   W18
 BYTE   N02  Gs1  v026
 BYTE   W03
 BYTE   Gs1
 BYTE   W03
//  #09 //085   ----------------------------------------
 BYTE   N11  Gs1  v035
 BYTE   W12
 BYTE   En1  v036
 BYTE   W12
 BYTE   En1
 BYTE   W12
 BYTE   En1
 BYTE   W12
 BYTE   N32  Cn1  v040  gtp3
 BYTE   N17  Gs1  v039
 BYTE   W18
 BYTE   N02  Gs1  v030
 BYTE   W03
 BYTE   Gs1
 BYTE   W03
 BYTE   N11  Gs1  v039
 BYTE   W12
 BYTE   En1  v036
 BYTE   W12
//  #09 //086   ----------------------------------------
 BYTE   En1
 BYTE   W12
 BYTE   En1
 BYTE   W12
 BYTE   N32  Cn1  v040  gtp3
 BYTE   N17  Gs1  v039
 BYTE   W18
 BYTE   N02  Gs1  v030
 BYTE   W02
 BYTE   N03
 BYTE   W04
 BYTE   N11  Gs1  v039
 BYTE   W12
 BYTE   En1  v036
 BYTE   W12
 BYTE   En1
 BYTE   W12
 BYTE   En1
 BYTE   W12
//  #09 //087   ----------------------------------------
 BYTE   N32  Cn1  v040  gtp3
 BYTE   N17  Gs1  v039
 BYTE   W18
 BYTE   N02  Gs1  v030
 BYTE   W02
 BYTE   N03
 BYTE   W04
 BYTE   N11  Gs1  v039
 BYTE   W12
 BYTE   En1  v036
 BYTE   W12
 BYTE   En1
 BYTE   W12
 BYTE   En1
 BYTE   W12
 BYTE   N32  Cn1  v040  gtp3
 BYTE   N11  Gs1  v044
 BYTE   N11  En1  v033
 BYTE   W12
 BYTE   Dn2  v040
 BYTE   W12
//  #09 //088   ----------------------------------------
 BYTE   Bn1
 BYTE   W12
 BYTE   N32  Cn1  v040  gtp3
 BYTE   Cs2
 BYTE   W36
 BYTE   N11  En1  v033
 BYTE   W12
 BYTE   Dn2  v040
 BYTE   W12
 BYTE   Bn1
 BYTE   W12
 BYTE   N32  Cs2  v040  gtp3
 BYTE   Cn1
 BYTE   W12
//  #09 //089   ----------------------------------------
 BYTE   W24
 BYTE   N11  En1  v033
 BYTE   W12
 BYTE   Dn2  v040
 BYTE   W12
 BYTE   Bn1
 BYTE   W12
 BYTE   N32  Cn1  v040  gtp3
 BYTE   Cs2
 BYTE   W36
//  #09 //090   ----------------------------------------
 BYTE   N11  En1  v033
 BYTE   W12
 BYTE   Dn2  v040
 BYTE   W12
 BYTE   Bn1
 BYTE   W12
 BYTE   N32  Cn1  v040  gtp3
 BYTE   Cs2
 BYTE   W36
 BYTE   N11  En1  v036
 BYTE   W12
 BYTE   En1
 BYTE   W12
//  #09 //091   ----------------------------------------
 BYTE   En1
 BYTE   W12
 BYTE   N32  En1  v036  gtp3
 BYTE   W72
 BYTE   N11
 BYTE   W12
//  #09 //092   ----------------------------------------
 BYTE   En1
 BYTE   W12
 BYTE   En1
 BYTE   W12
 BYTE   N32  En1  v036  gtp3
 BYTE   Gs1  v035
 BYTE   W72
//  #09 //093   ----------------------------------------
 BYTE   En1  v036
 BYTE   N32  Gs1  v035  gtp3
 BYTE   W72
 BYTE   GoTo
  POIN2 Label_0100E6AA
 BYTE   FINE

//******************************************************//
	ALIGN 4

MarineSail:
	BYTE	9	// NumTrks
	BYTE	0	// NumBlks
	BYTE	MarineSail_pri	// Priority
	BYTE	MarineSail_rev	// Reverb.
    
	POIN2	MarineSail_grp
    
	POIN2	MarineSail_001
	POIN2	MarineSail_002
	POIN2	MarineSail_003
	POIN2	MarineSail_004
	POIN2	MarineSail_005
	POIN2	MarineSail_006
	POIN2	MarineSail_007
	POIN2	MarineSail_008
	POIN2	MarineSail_009

	
