//Event file generated from Sappy .s format.
	#include "MPlayDef.event"

	#define	Nonfiction_grp  voicegroup000
	#define	Nonfiction_pri  0
	#define	Nonfiction_rev  0
	#define	Nonfiction_mvl  127
	#define	Nonfiction_key  0
	#define	Nonfiction_tbs  1
	#define	Nonfiction_exg  0
	#define	Nonfiction_cmp  1

	// .rodata
	//	Nonfiction
	ALIGN 4


//**************** Track 1 (Midi-Chn.0) ****************//

Nonfiction_001:
//  #01 //000   ----------------------------------------
 BYTE   KEYSH   Nonfiction_key+0
 BYTE   TEMPO   180*Nonfiction_tbs/2
 BYTE   VOICE   100
 BYTE   MODT 0
 BYTE   LFOS 44
 BYTE   VOL   47*Nonfiction_mvl/mxv
 BYTE   PAN   c_v+0
 BYTE   N90  An4  v096
 BYTE   N90  An5
 BYTE   W96
//  #01 //001   ----------------------------------------
 BYTE   N44  En5
 BYTE   N44  En6
 BYTE   W48
 BYTE   Fn5
 BYTE   N44  Fn6
 BYTE   W48
//  #01 //002   ----------------------------------------
Label_01AEEDF1:
 BYTE   TIE  An4  v096
 BYTE   TIE  An5
 BYTE   W96
 BYTE   PEND 
//  #01 //003   ----------------------------------------
 BYTE   W84
 BYTE   W02
 BYTE   EOT
 BYTE   An4  v093
 BYTE   W10
//  #01 //004   ----------------------------------------
 BYTE   N90  An4
 BYTE   N90  An5
 BYTE   W96
//  #01 //005   ----------------------------------------
 BYTE   N44  Gn4
 BYTE   N44  Gn5
 BYTE   W48
 BYTE   Cn5
 BYTE   N44  Cn6
 BYTE   W48
//  #01 //006   ----------------------------------------
 BYTE   PATT
  POIN2 Label_01AEEDF1
//  #01 //007   ----------------------------------------
 BYTE   W84
 BYTE   W02
 BYTE   EOT
 BYTE   An4  v093
 BYTE   W10
//  #01 //008   ----------------------------------------
 BYTE   N36  Cn4  v088
 BYTE   N90  Fn4
 BYTE   N90  An4  v104
 BYTE   W96
//  #01 //009   ----------------------------------------
 BYTE   N44  En4  v088
 BYTE   N44  Gn4  v104
 BYTE   N44  An4  v088
 BYTE   W48
 BYTE   Fn4  v104
 BYTE   W48
//  #01 //010   ----------------------------------------
 BYTE   N90  Dn4
 BYTE   N90  Dn5
 BYTE   W96
//  #01 //011   ----------------------------------------
 BYTE   N44  Gn3  v088
 BYTE   N44  Dn4  v104
 BYTE   W48
 BYTE   An3  v088
 BYTE   N44  En4  v104
 BYTE   W48
//  #01 //012   ----------------------------------------
 BYTE   N72  Gn3  v088
 BYTE   N90  As3
 BYTE   N90  Fn4  v104
 BYTE   W96
//  #01 //013   ----------------------------------------
 BYTE   N36  Cn4  v088
 BYTE   N44  En4  v104
 BYTE   W48
 BYTE   An3  v088
 BYTE   N44  Cn4  v104
 BYTE   W48
//  #01 //014   ----------------------------------------
 BYTE   N36  As3  v088
 BYTE   TIE  Dn4  v104
 BYTE   W96
//  #01 //015   ----------------------------------------
 BYTE   W84
 BYTE   W02
 BYTE   EOT
 BYTE   W10
//  #01 //016   ----------------------------------------
 BYTE   N92  Cn4  v048
 BYTE   W02
 BYTE   Gn4  v036
 BYTE   W02
 BYTE   N90  Cn5  v056
 BYTE   W92
//  #01 //017   ----------------------------------------
Label_01AEEE6B:
 BYTE   W96
//  #01 //018   ----------------------------------------
 BYTE   W96
//  #01 //019   ----------------------------------------
 BYTE   W96
//  #01 //020   ----------------------------------------
 BYTE   W96
//  #01 //021   ----------------------------------------
 BYTE   W96
//  #01 //022   ----------------------------------------
 BYTE   W96
//  #01 //023   ----------------------------------------
 BYTE   W96
//  #01 //024   ----------------------------------------
 BYTE   W96
//  #01 //025   ----------------------------------------
 BYTE   W96
//  #01 //026   ----------------------------------------
 BYTE   W96
//  #01 //027   ----------------------------------------
 BYTE   W96
//  #01 //028   ----------------------------------------
 BYTE   W96
//  #01 //029   ----------------------------------------
 BYTE   W96
//  #01 //030   ----------------------------------------
 BYTE   W96
//  #01 //031   ----------------------------------------
 BYTE   N05  Cn4  v016
 BYTE   N05  En4
 BYTE   N05  An4
 BYTE   W06
 BYTE   Gn3  v020
 BYTE   W06
 BYTE   Cn4  v024
 BYTE   N05  En4
 BYTE   N05  An4
 BYTE   W06
 BYTE   Gn3  v028
 BYTE   W06
 BYTE   Cn4  v032
 BYTE   N05  En4
 BYTE   N05  An4
 BYTE   W06
 BYTE   Gn3  v036
 BYTE   W06
 BYTE   Cn4  v040
 BYTE   N05  En4
 BYTE   N05  An4
 BYTE   W06
 BYTE   Gn3  v048
 BYTE   W06
 BYTE   Cn4  v052
 BYTE   N05  En4
 BYTE   N05  An4
 BYTE   W06
 BYTE   Gn3  v056
 BYTE   W06
 BYTE   Cn4  v064
 BYTE   N05  En4
 BYTE   N05  An4
 BYTE   W06
 BYTE   Gn3  v068
 BYTE   W06
 BYTE   En4  v076
 BYTE   N05  An4
 BYTE   W06
 BYTE   Gn3  v080
 BYTE   W06
 BYTE   N10  Cn4  v088
 BYTE   N05  En4
 BYTE   N05  An4
 BYTE   W06
 BYTE   Gn3  v092
 BYTE   W06
//  #01 //032   ----------------------------------------
 BYTE   TIE  An3  v088
 BYTE   TIE  Dn4  v112
 BYTE   W96
//  #01 //033   ----------------------------------------
 BYTE   W60
 BYTE   W03
 BYTE   EOT
 BYTE   An3  v074
 BYTE   W09
 BYTE   N04  En5  v088
 BYTE   W04
 BYTE   N18  Fn4
 BYTE   N18  An4
 BYTE   N18  Fn5  v104
 BYTE   W20
//  #01 //034   ----------------------------------------
Label_01AEEEE2:
 BYTE   N48  En4  v088
 BYTE   N90  An4
 BYTE   N90  En5  v104
 BYTE   W96
 BYTE   PEND 
//  #01 //035   ----------------------------------------
 BYTE   N44  Cn4  v088
 BYTE   N44  Cn5  v104
 BYTE   W48
 BYTE   En4  v088
 BYTE   N44  Gn4  v104
 BYTE   W48
//  #01 //036   ----------------------------------------
 BYTE   N04  Gs4  v088
 BYTE   W04
 BYTE   N84  Dn4
 BYTE   N84  An4  v104
 BYTE   W92
//  #01 //037   ----------------------------------------
 BYTE   W84
 BYTE   N11  Gn4  v088
 BYTE   W12
//  #01 //038   ----------------------------------------
 BYTE   N36  Cn4
 BYTE   N44  An4  v104
 BYTE   W48
 BYTE   An4  v088
 BYTE   N44  Cn5  v104
 BYTE   W48
//  #01 //039   ----------------------------------------
 BYTE   N90  Dn4  v088
 BYTE   N90  Bn4  v104
 BYTE   W96
//  #01 //040   ----------------------------------------
 BYTE   Dn4  v088
 BYTE   N90  An4  v104
 BYTE   W96
//  #01 //041   ----------------------------------------
 BYTE   N68  An3  v088
 BYTE   W72
 BYTE   N04  En5
 BYTE   W04
 BYTE   N18  Fn4
 BYTE   N18  An4
 BYTE   N18  Fn5  v104
 BYTE   W20
//  #01 //042   ----------------------------------------
 BYTE   PATT
  POIN2 Label_01AEEEE2
//  #01 //043   ----------------------------------------
 BYTE   N44  Cn4  v088
 BYTE   N44  Gn4  v104
 BYTE   N44  Cn5
 BYTE   W48
 BYTE   En4  v088
 BYTE   N44  Gn4  v104
 BYTE   W48
//  #01 //044   ----------------------------------------
 BYTE   N04  Gs4  v088
 BYTE   W04
 BYTE   TIE  Dn4
 BYTE   TIE  An4  v104
 BYTE   W92
//  #01 //045   ----------------------------------------
 BYTE   W84
 BYTE   W01
 BYTE   EOT
 BYTE   Dn4  v081
 BYTE   W11
//  #01 //046   ----------------------------------------
 BYTE   N90  Dn4  v096
 BYTE   W96
//  #01 //047   ----------------------------------------
 BYTE   N05  Fn4  v016
 BYTE   N05  An4
 BYTE   W06
 BYTE   Cn4
 BYTE   W06
 BYTE   Fn4  v020
 BYTE   N05  An4
 BYTE   W06
 BYTE   Cn4
 BYTE   W06
 BYTE   Fn4  v024
 BYTE   N05  An4
 BYTE   W06
 BYTE   Cn4
 BYTE   W06
 BYTE   Fn4  v028
 BYTE   N05  An4
 BYTE   W06
 BYTE   Cn4  v032
 BYTE   W06
 BYTE   Fn4
 BYTE   N05  An4
 BYTE   W06
 BYTE   Cn4  v036
 BYTE   W06
 BYTE   Fn4  v040
 BYTE   N05  An4
 BYTE   W06
 BYTE   Cn4  v044
 BYTE   W06
 BYTE   Fn4  v048
 BYTE   N05  An4
 BYTE   W06
 BYTE   Cn4
 BYTE   W06
 BYTE   Fn4  v052
 BYTE   N05  An4
 BYTE   W06
 BYTE   Cn4  v056
 BYTE   W06
//  #01 //048   ----------------------------------------
 BYTE   N11  Gn4  v048
 BYTE   W12
 BYTE   N80  Fn4
 BYTE   W12
 BYTE   N11  Cn5
 BYTE   W12
 BYTE   N22  An4
 BYTE   W24
 BYTE   N11  Gn4
 BYTE   W12
 BYTE   Cn5
 BYTE   W12
 BYTE   N22  An4
 BYTE   W12
//  #01 //049   ----------------------------------------
 BYTE   W12
 BYTE   N11  Gn4
 BYTE   W12
 BYTE   Fn5
 BYTE   W12
 BYTE   N22  En5
 BYTE   W24
 BYTE   N11  Cn5
 BYTE   W12
 BYTE   Gn4
 BYTE   W12
 BYTE   Fn4
 BYTE   W12
//  #01 //050   ----------------------------------------
 BYTE   N32  En4
 BYTE   W36
 BYTE   Fn4
 BYTE   W36
 BYTE   N22  Cn5
 BYTE   W24
//  #01 //051   ----------------------------------------
 BYTE   An4
 BYTE   W24
 BYTE   N11  Cn5
 BYTE   W12
 BYTE   N32  Fn4
 BYTE   W36
 BYTE   N22  Cn5
 BYTE   W24
//  #01 //052   ----------------------------------------
 BYTE   N11  An4
 BYTE   W12
 BYTE   Gn4
 BYTE   W12
 BYTE   Cn5
 BYTE   W12
 BYTE   N22  An4
 BYTE   W24
 BYTE   N11  Gn4
 BYTE   W12
 BYTE   Cn5
 BYTE   W12
 BYTE   N22  An4
 BYTE   W12
//  #01 //053   ----------------------------------------
 BYTE   W12
 BYTE   N11  Gn4
 BYTE   W12
 BYTE   Fn5
 BYTE   W12
 BYTE   N22  En5
 BYTE   W24
 BYTE   N11  Cn5
 BYTE   W12
 BYTE   Fn5
 BYTE   W12
 BYTE   Gn5
 BYTE   W12
//  #01 //054   ----------------------------------------
 BYTE   N22  Fn5
 BYTE   W24
 BYTE   En5
 BYTE   W24
 BYTE   Cn5
 BYTE   W24
 BYTE   N11  Dn5
 BYTE   W12
 BYTE   Cn5
 BYTE   W12
//  #01 //055   ----------------------------------------
 BYTE   N44  An4
 BYTE   W84
 BYTE   N03  Gn3  v076
 BYTE   W04
 BYTE   As3
 BYTE   W04
 BYTE   Dn4
 BYTE   W04
//  #01 //056   ----------------------------------------
 BYTE   N90  As3
 BYTE   N90  Fn4
 BYTE   W96
//  #01 //057   ----------------------------------------
 BYTE   N44  Cn4
 BYTE   N44  Gn4
 BYTE   W48
 BYTE   N22  Fn5
 BYTE   W24
 BYTE   An4
 BYTE   N22  Gn5
 BYTE   W24
//  #01 //058   ----------------------------------------
 BYTE   N44  An4
 BYTE   N44  Cn5
 BYTE   N44  Fn5
 BYTE   N44  An5
 BYTE   W48
 BYTE   N22  Cn5
 BYTE   W24
 BYTE   Dn5
 BYTE   W24
//  #01 //059   ----------------------------------------
 BYTE   Cn5  v080
 BYTE   N22  En5
 BYTE   N22  Cn6
 BYTE   W24
 BYTE   As4
 BYTE   N22  As5
 BYTE   W24
 BYTE   N05  Gn5  v064
 BYTE   W06
 BYTE   An5
 BYTE   W06
 BYTE   Gn5  v056
 BYTE   W06
 BYTE   An5
 BYTE   W06
 BYTE   Gn5  v052
 BYTE   W06
 BYTE   An5
 BYTE   W06
 BYTE   Gn5  v048
 BYTE   W06
 BYTE   An5
 BYTE   W06
//  #01 //060   ----------------------------------------
 BYTE   Gn5  v040
 BYTE   W06
 BYTE   An5
 BYTE   W06
 BYTE   Gn5  v036
 BYTE   W06
 BYTE   An5
 BYTE   W06
 BYTE   Gn5  v032
 BYTE   W06
 BYTE   An5  v028
 BYTE   W06
 BYTE   Gn5
 BYTE   W06
 BYTE   An5
 BYTE   W54
//  #01 //061   ----------------------------------------
 BYTE   N44  Gn4  v080
 BYTE   N44  Gn5
 BYTE   W72
 BYTE   N22  Dn5  v096
 BYTE   N22  Dn6
 BYTE   W24
//  #01 //062   ----------------------------------------
 BYTE   N90  Cn5
 BYTE   N90  Cn6
 BYTE   W96
//  #01 //063   ----------------------------------------
 BYTE   W60
 BYTE   N05  Dn5  v076
 BYTE   W06
 BYTE   En5  v080
 BYTE   W06
 BYTE   Fn5
 BYTE   W06
 BYTE   Gn5  v084
 BYTE   W06
 BYTE   N78  An5  v088
 BYTE   W12
//  #01 //064   ----------------------------------------
 BYTE   W84
 BYTE   N56  Gn5
 BYTE   W12
//  #01 //065   ----------------------------------------
Label_01AEF07E:
 BYTE   W48
 BYTE   N32  En5  v088
 BYTE   N32  Cn6
 BYTE   W36
 BYTE   N56  Fn5
 BYTE   W12
 BYTE   PEND 
//  #01 //066   ----------------------------------------
 BYTE   W48
 BYTE   N11  En5  v104
 BYTE   N11  Gn5
 BYTE   W12
 BYTE   Dn5
 BYTE   N11  Fn5
 BYTE   W12
 BYTE   En5
 BYTE   N11  Gn5
 BYTE   W12
 BYTE   N56  Fn5
 BYTE   N56  An5
 BYTE   W12
//  #01 //067   ----------------------------------------
 BYTE   W96
//  #01 //068   ----------------------------------------
 BYTE   W96
//  #01 //069   ----------------------------------------
 BYTE   W12
 BYTE   N05  As5  v088
 BYTE   W06
 BYTE   An5
 BYTE   W06
 BYTE   Fn5
 BYTE   W06
 BYTE   N12  Cn5
 BYTE   W06
 BYTE   N05  As4
 BYTE   W06
 BYTE   Cn5
 BYTE   W18
 BYTE   N11  Gn5  v104
 BYTE   W12
 BYTE   An5
 BYTE   W12
 BYTE   N78  As5
 BYTE   W12
//  #01 //070   ----------------------------------------
 BYTE   W84
 BYTE   N22  Cn5
 BYTE   N22  En5
 BYTE   W12
//  #01 //071   ----------------------------------------
 BYTE   W12
 BYTE   Dn5
 BYTE   N22  Fn5
 BYTE   W24
 BYTE   En5
 BYTE   N22  Gn5
 BYTE   W24
 BYTE   N05  Dn5  v088
 BYTE   W06
 BYTE   En5
 BYTE   W06
 BYTE   Fn5
 BYTE   W06
 BYTE   Gn5
 BYTE   W06
 BYTE   N78  An5
 BYTE   W12
//  #01 //072   ----------------------------------------
 BYTE   W84
 BYTE   N56  Gn5
 BYTE   W12
//  #01 //073   ----------------------------------------
 BYTE   PATT
  POIN2 Label_01AEF07E
//  #01 //074   ----------------------------------------
 BYTE   W54
 BYTE   N05  Cn5  v072
 BYTE   W06
 BYTE   Dn5
 BYTE   W06
 BYTE   En5
 BYTE   W06
 BYTE   Fn5
 BYTE   W06
 BYTE   Gn5
 BYTE   W06
 BYTE   N22  Cn5  v104
 BYTE   N22  An5
 BYTE   W12
//  #01 //075   ----------------------------------------
 BYTE   W12
 BYTE   N11  Dn5
 BYTE   N11  As5
 BYTE   W12
 BYTE   Cn5
 BYTE   N11  An5
 BYTE   W12
 BYTE   N22  As4
 BYTE   N22  Gn5
 BYTE   W24
 BYTE   N11  Cn5
 BYTE   N11  An5
 BYTE   W12
 BYTE   As4
 BYTE   N11  Gn5
 BYTE   W12
 BYTE   N22  Gs4
 BYTE   N22  Fn5
 BYTE   W12
//  #01 //076   ----------------------------------------
 BYTE   W12
 BYTE   N05  Cs5  v072
 BYTE   W06
 BYTE   Fn5
 BYTE   W06
 BYTE   Gs5
 BYTE   W06
 BYTE   Fn5
 BYTE   W06
 BYTE   Gs5
 BYTE   W06
 BYTE   Cs6
 BYTE   W06
 BYTE   N11  Fn6  v104
 BYTE   W36
 BYTE   N22  Gn5
 BYTE   W12
//  #01 //077   ----------------------------------------
 BYTE   W12
 BYTE   N05  Ds5  v072
 BYTE   W06
 BYTE   Gn5
 BYTE   W06
 BYTE   As5
 BYTE   W06
 BYTE   Gn5
 BYTE   W06
 BYTE   As5
 BYTE   W06
 BYTE   Ds6
 BYTE   W06
 BYTE   N11  Gn6  v104
 BYTE   W36
 BYTE   N90  Fn5
 BYTE   N90  As5
 BYTE   W12
//  #01 //078   ----------------------------------------
 BYTE   W84
 BYTE   TIE  An5
 BYTE   W12
//  #01 //079   ----------------------------------------
 BYTE   W90
 BYTE   EOT
 BYTE   W06
//  #01 //080   ----------------------------------------
Label_01AEF143:
 BYTE   W24
 BYTE   N11  En4  v060
 BYTE   W12
 BYTE   Fn4
 BYTE   W12
 BYTE   N44  Cn5  v100
 BYTE   W48
 BYTE   PEND 
//  #01 //081   ----------------------------------------
Label_01AEF14F:
 BYTE   W36
 BYTE   N11  Fn4  v052
 BYTE   W12
 BYTE   TIE  Cn5  v080
 BYTE   W48
 BYTE   PEND 
//  #01 //082   ----------------------------------------
 BYTE   W90
 BYTE   W01
 BYTE   EOT
 BYTE   W05
//  #01 //083   ----------------------------------------
 BYTE   W96
//  #01 //084   ----------------------------------------
 BYTE   PATT
  POIN2 Label_01AEF143
//  #01 //085   ----------------------------------------
 BYTE   PATT
  POIN2 Label_01AEF14F
//  #01 //086   ----------------------------------------
 BYTE   W90
 BYTE   W01
 BYTE   EOT
 BYTE   Cn5
 BYTE   W05
//  #01 //087   ----------------------------------------
 BYTE   GoTo
  POIN2 Label_01AEEE6B
//  #01 //088   ----------------------------------------
 BYTE   N92  Cn5  v052
 BYTE   W02
 BYTE   Gn5
 BYTE   W02
 BYTE   N90  Cn6  v080
 BYTE   W92
//  #01 //089   ----------------------------------------
 BYTE   Dn4  v060
 BYTE   N90  Fn4
 BYTE   N90  An4
 BYTE   W96
//  #01 //090   ----------------------------------------
 BYTE   W96
//  #01 //091   ----------------------------------------
 BYTE   W96
//  #01 //092   ----------------------------------------
 BYTE   W96
//  #01 //093   ----------------------------------------
 BYTE   W96
//  #01 //094   ----------------------------------------
 BYTE   W96
//  #01 //095   ----------------------------------------
 BYTE   W96
//  #01 //096   ----------------------------------------
 BYTE   W96
//  #01 //097   ----------------------------------------
 BYTE   W96
//  #01 //098   ----------------------------------------
 BYTE   W96
//  #01 //099   ----------------------------------------
 BYTE   W96
//  #01 //100   ----------------------------------------
 BYTE   W96
//  #01 //101   ----------------------------------------
 BYTE   W96
//  #01 //102   ----------------------------------------
 BYTE   W96
//  #01 //103   ----------------------------------------
 BYTE   W96
//  #01 //104   ----------------------------------------
 BYTE   W96
//  #01 //105   ----------------------------------------
 BYTE   W96
//  #01 //106   ----------------------------------------
 BYTE   W96
//  #01 //107   ----------------------------------------
 BYTE   W96
//  #01 //108   ----------------------------------------
 BYTE   W96
//  #01 //109   ----------------------------------------
 BYTE   W96
//  #01 //110   ----------------------------------------
 BYTE   W96
//  #01 //111   ----------------------------------------
 BYTE   W96
//  #01 //112   ----------------------------------------
 BYTE   W96
//  #01 //113   ----------------------------------------
 BYTE   W96
//  #01 //114   ----------------------------------------
 BYTE   W96
//  #01 //115   ----------------------------------------
 BYTE   W96
//  #01 //116   ----------------------------------------
 BYTE   W96
//  #01 //117   ----------------------------------------
 BYTE   W96
//  #01 //118   ----------------------------------------
 BYTE   W96
//  #01 //119   ----------------------------------------
 BYTE   W96
//  #01 //120   ----------------------------------------
 BYTE   W96
//  #01 //121   ----------------------------------------
 BYTE   W96
//  #01 //122   ----------------------------------------
 BYTE   W96
//  #01 //123   ----------------------------------------
 BYTE   W96
//  #01 //124   ----------------------------------------
 BYTE   W96
//  #01 //125   ----------------------------------------
 BYTE   W96
//  #01 //126   ----------------------------------------
 BYTE   W96
//  #01 //127   ----------------------------------------
 BYTE   W96
//  #01 //128   ----------------------------------------
 BYTE   W96
//  #01 //129   ----------------------------------------
 BYTE   W96
//  #01 //130   ----------------------------------------
 BYTE   W96
//  #01 //131   ----------------------------------------
 BYTE   W96
//  #01 //132   ----------------------------------------
 BYTE   W96
//  #01 //133   ----------------------------------------
 BYTE   W96
//  #01 //134   ----------------------------------------
 BYTE   W96
//  #01 //135   ----------------------------------------
 BYTE   W96
//  #01 //136   ----------------------------------------
 BYTE   W96
//  #01 //137   ----------------------------------------
 BYTE   W96
//  #01 //138   ----------------------------------------
 BYTE   W96
//  #01 //139   ----------------------------------------
 BYTE   W96
//  #01 //140   ----------------------------------------
 BYTE   W96
//  #01 //141   ----------------------------------------
 BYTE   W96
//  #01 //142   ----------------------------------------
 BYTE   W96
//  #01 //143   ----------------------------------------
 BYTE   W96
//  #01 //144   ----------------------------------------
 BYTE   W96
//  #01 //145   ----------------------------------------
 BYTE   W96
//  #01 //146   ----------------------------------------
 BYTE   W96
//  #01 //147   ----------------------------------------
 BYTE   W96
//  #01 //148   ----------------------------------------
 BYTE   W96
//  #01 //149   ----------------------------------------
 BYTE   W96
//  #01 //150   ----------------------------------------
 BYTE   W96
//  #01 //151   ----------------------------------------
 BYTE   W96
//  #01 //152   ----------------------------------------
 BYTE   W96
//  #01 //153   ----------------------------------------
 BYTE   W96
//  #01 //154   ----------------------------------------
 BYTE   W96
//  #01 //155   ----------------------------------------
 BYTE   W96
//  #01 //156   ----------------------------------------
 BYTE   W96
//  #01 //157   ----------------------------------------
 BYTE   W96
//  #01 //158   ----------------------------------------
 BYTE   W96
//  #01 //159   ----------------------------------------
 BYTE   W96
//  #01 //160   ----------------------------------------
 BYTE   W96
//  #01 //161   ----------------------------------------
 BYTE   W96
//  #01 //162   ----------------------------------------
 BYTE   W96
//  #01 //163   ----------------------------------------
 BYTE   W96
//  #01 //164   ----------------------------------------
 BYTE   W96
//  #01 //165   ----------------------------------------
 BYTE   W96
//  #01 //166   ----------------------------------------
 BYTE   W96
//  #01 //167   ----------------------------------------
 BYTE   W96
//  #01 //168   ----------------------------------------
 BYTE   W96
//  #01 //169   ----------------------------------------
 BYTE   W96
//  #01 //170   ----------------------------------------
 BYTE   W96
//  #01 //171   ----------------------------------------
 BYTE   W96
//  #01 //172   ----------------------------------------
 BYTE   W96
//  #01 //173   ----------------------------------------
 BYTE   W96
//  #01 //174   ----------------------------------------
 BYTE   W96
//  #01 //175   ----------------------------------------
 BYTE   W96
//  #01 //176   ----------------------------------------
 BYTE   W96
//  #01 //177   ----------------------------------------
 BYTE   W96
//  #01 //178   ----------------------------------------
 BYTE   W96
//  #01 //179   ----------------------------------------
 BYTE   W96
//  #01 //180   ----------------------------------------
 BYTE   W96
//  #01 //181   ----------------------------------------
 BYTE   W96
//  #01 //182   ----------------------------------------
 BYTE   W72
 BYTE   TEMPO   160*Nonfiction_tbs/2
 BYTE   W24
//  #01 //183   ----------------------------------------
 BYTE   W84
 BYTE   TEMPO   140*Nonfiction_tbs/2
 BYTE   W12
//  #01 //184   ----------------------------------------
 BYTE   W24
 BYTE   TEMPO   120*Nonfiction_tbs/2
 BYTE   W24
 BYTE   TEMPO   100*Nonfiction_tbs/2
 BYTE   W24
 BYTE   TEMPO   30*Nonfiction_tbs/2
 BYTE   FINE

//**************** Track 2 (Midi-Chn.1) ****************//

Nonfiction_002:
//  #02 //000   ----------------------------------------
 BYTE   KEYSH   Nonfiction_key+0
 BYTE   VOICE   46
 BYTE   MODT 0
 BYTE   LFOS 44
 BYTE   VOL   45*Nonfiction_mvl/mxv
 BYTE   PAN   c_v+0
 BYTE   W96
//  #02 //001   ----------------------------------------
 BYTE   W96
//  #02 //002   ----------------------------------------
 BYTE   W96
//  #02 //003   ----------------------------------------
 BYTE   W96
//  #02 //004   ----------------------------------------
 BYTE   W96
//  #02 //005   ----------------------------------------
 BYTE   W96
//  #02 //006   ----------------------------------------
 BYTE   W96
//  #02 //007   ----------------------------------------
 BYTE   W96
//  #02 //008   ----------------------------------------
 BYTE   N90  Dn2  v088
 BYTE   N90  An2
 BYTE   W96
//  #02 //009   ----------------------------------------
 BYTE   N44  Gn2
 BYTE   W48
 BYTE   Fn2
 BYTE   W48
//  #02 //010   ----------------------------------------
 BYTE   N90  Dn2
 BYTE   N90  As2
 BYTE   W96
//  #02 //011   ----------------------------------------
 BYTE   N44  Dn2
 BYTE   N44  Gn2
 BYTE   W48
 BYTE   En2
 BYTE   W48
//  #02 //012   ----------------------------------------
 BYTE   N90  Fn2
 BYTE   W96
//  #02 //013   ----------------------------------------
 BYTE   N44  En2
 BYTE   W48
 BYTE   Cn2
 BYTE   W48
//  #02 //014   ----------------------------------------
 BYTE   TIE  Dn2
 BYTE   W96
//  #02 //015   ----------------------------------------
 BYTE   W84
 BYTE   W02
 BYTE   EOT
 BYTE   W10
//  #02 //016   ----------------------------------------
 BYTE   W96
//  #02 //017   ----------------------------------------
Label_01AEF22F:
 BYTE   W96
//  #02 //018   ----------------------------------------
 BYTE   W96
//  #02 //019   ----------------------------------------
 BYTE   W96
//  #02 //020   ----------------------------------------
 BYTE   W72
 BYTE   N11  Gn2  v032
 BYTE   W12
 BYTE   An2
 BYTE   W12
//  #02 //021   ----------------------------------------
 BYTE   N23  Gn2
 BYTE   W96
//  #02 //022   ----------------------------------------
 BYTE   W96
//  #02 //023   ----------------------------------------
 BYTE   W96
//  #02 //024   ----------------------------------------
 BYTE   W96
//  #02 //025   ----------------------------------------
 BYTE   W96
//  #02 //026   ----------------------------------------
 BYTE   W96
//  #02 //027   ----------------------------------------
 BYTE   W96
//  #02 //028   ----------------------------------------
 BYTE   W96
//  #02 //029   ----------------------------------------
 BYTE   W96
//  #02 //030   ----------------------------------------
 BYTE   W96
//  #02 //031   ----------------------------------------
 BYTE   W72
 BYTE   N11  En2  v064
 BYTE   N11  Gn2
 BYTE   N11  Cn3
 BYTE   W12
 BYTE   N05  En2  v068
 BYTE   N05  Gn2
 BYTE   W06
 BYTE   Cn2  v072
 BYTE   W06
//  #02 //032   ----------------------------------------
Label_01AEF257:
 BYTE   N22  Fn2  v076
 BYTE   N22  An2
 BYTE   W24
 BYTE   N11  Fn2
 BYTE   N11  An2
 BYTE   W12
 BYTE   N11
 BYTE   W24
 BYTE   N11
 BYTE   W24
 BYTE   Fn2
 BYTE   N11  An2
 BYTE   W12
 BYTE   PEND 
//  #02 //033   ----------------------------------------
Label_01AEF26B:
 BYTE   N22  Gn2  v076
 BYTE   W24
 BYTE   N11  En2
 BYTE   N11  Gn2
 BYTE   W12
 BYTE   N11
 BYTE   W24
 BYTE   N11
 BYTE   W24
 BYTE   En2
 BYTE   N11  Gn2
 BYTE   W12
 BYTE   PEND 
//  #02 //034   ----------------------------------------
Label_01AEF27D:
 BYTE   N22  Fn2  v076
 BYTE   W24
 BYTE   N11  Dn2
 BYTE   N11  Fn2
 BYTE   W12
 BYTE   N11
 BYTE   W24
 BYTE   N11
 BYTE   W24
 BYTE   Dn2
 BYTE   N11  Fn2
 BYTE   W12
 BYTE   PEND 
//  #02 //035   ----------------------------------------
Label_01AEF28F:
 BYTE   N22  Fn2  v076
 BYTE   W24
 BYTE   N11  Dn2
 BYTE   N11  Fn2
 BYTE   W12
 BYTE   N11
 BYTE   W24
 BYTE   Gn2
 BYTE   W24
 BYTE   En2
 BYTE   N11  Gn2
 BYTE   W12
 BYTE   PEND 
//  #02 //036   ----------------------------------------
Label_01AEF2A1:
 BYTE   N22  An2  v076
 BYTE   W24
 BYTE   N11  Fn2
 BYTE   N11  An2
 BYTE   W12
 BYTE   N11
 BYTE   W24
 BYTE   N11
 BYTE   W24
 BYTE   Fn2
 BYTE   N11  An2
 BYTE   W12
 BYTE   PEND 
//  #02 //037   ----------------------------------------
 BYTE   PATT
  POIN2 Label_01AEF26B
//  #02 //038   ----------------------------------------
 BYTE   N22  Fn2  v076
 BYTE   W24
 BYTE   N11
 BYTE   N11  An2
 BYTE   W12
 BYTE   Fn2
 BYTE   W24
 BYTE   N11
 BYTE   W24
 BYTE   N11
 BYTE   N11  An2
 BYTE   W12
//  #02 //039   ----------------------------------------
 BYTE   N22  Gn2
 BYTE   W24
 BYTE   N11
 BYTE   N11  Bn2
 BYTE   W12
 BYTE   Gn2
 BYTE   W24
 BYTE   Dn2
 BYTE   N11  Gn2
 BYTE   W12
 BYTE   N05  Dn2
 BYTE   N05  Gn2
 BYTE   W06
 BYTE   Bn1
 BYTE   W06
 BYTE   N11  Dn2
 BYTE   N11  Gn2
 BYTE   W12
//  #02 //040   ----------------------------------------
 BYTE   PATT
  POIN2 Label_01AEF257
//  #02 //041   ----------------------------------------
 BYTE   PATT
  POIN2 Label_01AEF26B
//  #02 //042   ----------------------------------------
 BYTE   PATT
  POIN2 Label_01AEF27D
//  #02 //043   ----------------------------------------
 BYTE   PATT
  POIN2 Label_01AEF28F
//  #02 //044   ----------------------------------------
 BYTE   PATT
  POIN2 Label_01AEF2A1
//  #02 //045   ----------------------------------------
 BYTE   PATT
  POIN2 Label_01AEF26B
//  #02 //046   ----------------------------------------
 BYTE   N22  Fn2  v076
 BYTE   W24
 BYTE   N11
 BYTE   N11  As2
 BYTE   W12
 BYTE   Fn2
 BYTE   W24
 BYTE   N11
 BYTE   W24
 BYTE   N11
 BYTE   N11  As2
 BYTE   W12
//  #02 //047   ----------------------------------------
 BYTE   W72
 BYTE   N22  An1  v080
 BYTE   W24
//  #02 //048   ----------------------------------------
 BYTE   N44  Fn2
 BYTE   W48
 BYTE   Gn2
 BYTE   W48
//  #02 //049   ----------------------------------------
 BYTE   An2
 BYTE   W48
 BYTE   N11
 BYTE   W12
 BYTE   N11
 BYTE   W12
 BYTE   Fn3
 BYTE   W12
 BYTE   N22  En3
 BYTE   W12
//  #02 //050   ----------------------------------------
 BYTE   W12
 BYTE   N56  Cn3
 BYTE   W60
 BYTE   N22  Fn2
 BYTE   W24
//  #02 //051   ----------------------------------------
 BYTE   Dn3
 BYTE   W24
 BYTE   Cn3
 BYTE   W24
 BYTE   Fn2
 BYTE   W24
 BYTE   N11  Gn2
 BYTE   W12
 BYTE   N56  An2
 BYTE   W12
//  #02 //052   ----------------------------------------
 BYTE   W72
 BYTE   N22  Fn2
 BYTE   W24
//  #02 //053   ----------------------------------------
 BYTE   Dn3
 BYTE   W24
 BYTE   Cn3
 BYTE   W24
 BYTE   Fn2
 BYTE   W24
 BYTE   N11  Gn2
 BYTE   W12
 BYTE   N32  Fn2
 BYTE   W12
//  #02 //054   ----------------------------------------
 BYTE   W24
 BYTE   N22  En2
 BYTE   W24
 BYTE   Cn2
 BYTE   W24
 BYTE   N19  Dn2
 BYTE   W12
 BYTE   N56  Cn2
 BYTE   W12
//  #02 //055   ----------------------------------------
 BYTE   W48
 BYTE   N11  Cn2  v076
 BYTE   N11  En2
 BYTE   W12
 BYTE   Cn2
 BYTE   N11  En2
 BYTE   W12
 BYTE   Cn2
 BYTE   N11  En2
 BYTE   W12
 BYTE   Dn2
 BYTE   N11  Fn2
 BYTE   W12
//  #02 //056   ----------------------------------------
 BYTE   Dn2
 BYTE   N11  Fn2  v064
 BYTE   W12
 BYTE   En2
 BYTE   W12
 BYTE   Fn2
 BYTE   W12
 BYTE   N22  Cn3
 BYTE   W24
 BYTE   N11  En2
 BYTE   W12
 BYTE   Fn2
 BYTE   W12
 BYTE   N22  Cn3
 BYTE   W12
//  #02 //057   ----------------------------------------
 BYTE   N11  En2
 BYTE   W12
 BYTE   Fn2
 BYTE   W12
 BYTE   Gn2
 BYTE   W12
 BYTE   N22  Cn3
 BYTE   W24
 BYTE   N11  Fn2
 BYTE   W12
 BYTE   Gn2
 BYTE   W12
 BYTE   Cn3
 BYTE   W12
//  #02 //058   ----------------------------------------
 BYTE   Fn2
 BYTE   W12
 BYTE   En2
 BYTE   W12
 BYTE   Fn2
 BYTE   W12
 BYTE   N22  Cn3
 BYTE   W24
 BYTE   N11  En2
 BYTE   W12
 BYTE   Fn2
 BYTE   W12
 BYTE   Cn3
 BYTE   W12
//  #02 //059   ----------------------------------------
 BYTE   En2
 BYTE   W12
 BYTE   Fn2
 BYTE   W12
 BYTE   Gn2
 BYTE   W12
 BYTE   N22  Cn3
 BYTE   W24
 BYTE   N11  Fn2  v076
 BYTE   W12
 BYTE   Gn2
 BYTE   W12
 BYTE   N05  Cn3
 BYTE   W06
 BYTE   Cn2
 BYTE   N05  Gn2
 BYTE   W06
//  #02 //060   ----------------------------------------
 BYTE   N11  Dn2
 BYTE   N11  Fn2  v064
 BYTE   W12
 BYTE   En2
 BYTE   W12
 BYTE   Fn2
 BYTE   W12
 BYTE   Dn2  v076
 BYTE   N22  Cn3  v064
 BYTE   W24
 BYTE   N11  En2
 BYTE   W12
 BYTE   As1  v076
 BYTE   N11  Dn2
 BYTE   N11  Fn2  v064
 BYTE   W12
 BYTE   N22  Cn3
 BYTE   W12
//  #02 //061   ----------------------------------------
 BYTE   N11  En2
 BYTE   W12
 BYTE   Cn2  v076
 BYTE   N11  Fn2  v064
 BYTE   N11  Gn2  v076
 BYTE   W12
 BYTE   Gn2  v064
 BYTE   W12
 BYTE   N22  Cn3
 BYTE   W12
 BYTE   N11  Cn2  v076
 BYTE   N11  En2
 BYTE   N11  Gn2
 BYTE   W12
 BYTE   Fn2  v064
 BYTE   W12
 BYTE   Cn2  v076
 BYTE   N11  En2
 BYTE   N11  Gn2  v064
 BYTE   W12
 BYTE   N05  En2  v076
 BYTE   N05  Gn2
 BYTE   N05  Cn3  v064
 BYTE   W06
 BYTE   Cn2  v076
 BYTE   W06
//  #02 //062   ----------------------------------------
 BYTE   N22  Dn2
 BYTE   N22  Fn2
 BYTE   W24
 BYTE   Dn2
 BYTE   N22  Fn2
 BYTE   W24
 BYTE   N11  Dn2
 BYTE   N11  Fn2
 BYTE   W12
 BYTE   N11
 BYTE   W12
 BYTE   N05
 BYTE   N05  As2
 BYTE   W06
 BYTE   Fn3
 BYTE   W06
 BYTE   N56  Gn2
 BYTE   N56  Cn3
 BYTE   N56  Gn3
 BYTE   W12
//  #02 //063   ----------------------------------------
 BYTE   W60
 BYTE   N05  An2  v080
 BYTE   N05  Cn3
 BYTE   W06
 BYTE   En2
 BYTE   W06
 BYTE   N11  An2  v084
 BYTE   N11  Cn3
 BYTE   W12
 BYTE   N22  An2  v100
 BYTE   N22  Dn3
 BYTE   N22  Fn3
 BYTE   W12
//  #02 //064   ----------------------------------------
Label_01AEF434:
 BYTE   W12
 BYTE   N11  Dn2  v088
 BYTE   W12
 BYTE   N17  Fn2
 BYTE   N17  An2
 BYTE   N17  Dn3
 BYTE   W18
 BYTE   N05  Fn2
 BYTE   W06
 BYTE   N11  An1
 BYTE   N11  Dn2
 BYTE   W12
 BYTE   N11
 BYTE   W12
 BYTE   Fn2
 BYTE   N11  An2
 BYTE   N11  Dn3
 BYTE   W12
 BYTE   N22  En2
 BYTE   N22  Gn2
 BYTE   N22  Cn3
 BYTE   W12
 BYTE   PEND 
//  #02 //065   ----------------------------------------
Label_01AEF458:
 BYTE   W12
 BYTE   N11  An1  v088
 BYTE   W12
 BYTE   En2
 BYTE   N11  Gn2
 BYTE   N11  Cn3
 BYTE   W12
 BYTE   N05  En2
 BYTE   W06
 BYTE   Cn2
 BYTE   W06
 BYTE   N11  An1
 BYTE   W12
 BYTE   En2
 BYTE   W12
 BYTE   N11
 BYTE   N11  Gn2
 BYTE   N11  Cn3
 BYTE   W12
 BYTE   N22  Fn2
 BYTE   N22  As2
 BYTE   N22  Dn3
 BYTE   W12
 BYTE   PEND 
//  #02 //066   ----------------------------------------
Label_01AEF47B:
 BYTE   W12
 BYTE   N11  As1  v088
 BYTE   W12
 BYTE   N17  Fn2
 BYTE   N17  As2
 BYTE   N17  Dn3
 BYTE   W18
 BYTE   N05  Dn2
 BYTE   W06
 BYTE   N11  As1
 BYTE   W12
 BYTE   N11
 BYTE   W12
 BYTE   Fn2
 BYTE   N11  An2
 BYTE   N11  Dn3
 BYTE   W12
 BYTE   N22  Fn2
 BYTE   N22  An2
 BYTE   N22  Cn3
 BYTE   W12
 BYTE   PEND 
//  #02 //067   ----------------------------------------
 BYTE   W12
 BYTE   N11  Cn2
 BYTE   W12
 BYTE   Fn2
 BYTE   N11  An2
 BYTE   N11  Cn3
 BYTE   W12
 BYTE   N22  En2
 BYTE   N22  Gn2
 BYTE   N22  Cn3
 BYTE   W24
 BYTE   N11  En2
 BYTE   W12
 BYTE   N11
 BYTE   N11  Gn2
 BYTE   N11  Cn3
 BYTE   W12
 BYTE   N22  An2
 BYTE   N22  Cn3
 BYTE   N22  Fn3  v096
 BYTE   W12
//  #02 //068   ----------------------------------------
 BYTE   W12
 BYTE   N11  Fn2  v088
 BYTE   W12
 BYTE   An2
 BYTE   N11  Cn3
 BYTE   N11  Fn3
 BYTE   W12
 BYTE   N22  En2
 BYTE   N22  Gn2
 BYTE   N22  Cn3  v096
 BYTE   W24
 BYTE   N11  En2  v088
 BYTE   W12
 BYTE   N05
 BYTE   N05  Gn2
 BYTE   N05  Cn3
 BYTE   W06
 BYTE   Dn2
 BYTE   W06
 BYTE   N22  Fn2
 BYTE   N22  As2
 BYTE   N22  Dn3  v096
 BYTE   W12
//  #02 //069   ----------------------------------------
 BYTE   W12
 BYTE   N11  Fn2  v088
 BYTE   W12
 BYTE   N11
 BYTE   N11  As2
 BYTE   N11  Dn3
 BYTE   W12
 BYTE   N05  Dn2
 BYTE   W06
 BYTE   As1
 BYTE   W06
 BYTE   N11  An1
 BYTE   W12
 BYTE   As1
 BYTE   N11  Fn2
 BYTE   N11  As2
 BYTE   W12
 BYTE   Dn2
 BYTE   N11  Fn2
 BYTE   N11  As2
 BYTE   W12
 BYTE   N22  Ds2  v096
 BYTE   N22  Gn2
 BYTE   N22  As2
 BYTE   W12
//  #02 //070   ----------------------------------------
 BYTE   W12
 BYTE   N05  Ds2  v088
 BYTE   W06
 BYTE   As1
 BYTE   W06
 BYTE   N11  Ds2
 BYTE   N11  Gn2
 BYTE   N11  As2
 BYTE   W12
 BYTE   As1
 BYTE   W12
 BYTE   Ds2
 BYTE   N11  Gn2
 BYTE   N11  As2
 BYTE   W12
 BYTE   As1
 BYTE   W12
 BYTE   N05  Ds2
 BYTE   W06
 BYTE   As1
 BYTE   W06
 BYTE   N11  En2
 BYTE   N11  Gn2
 BYTE   N11  Cn3
 BYTE   W12
//  #02 //071   ----------------------------------------
 BYTE   Cn2
 BYTE   W12
 BYTE   En2
 BYTE   N11  Gn2
 BYTE   N11  Dn3
 BYTE   W12
 BYTE   N05  En2
 BYTE   W06
 BYTE   N02  Cn3
 BYTE   W06
 BYTE   N11  En2
 BYTE   N11  Gn2
 BYTE   N11  En3
 BYTE   W12
 BYTE   En2
 BYTE   W12
 BYTE   N05
 BYTE   N05  Gn2
 BYTE   W06
 BYTE   Cn2
 BYTE   W06
 BYTE   Gn2
 BYTE   W06
 BYTE   Cn3
 BYTE   W06
 BYTE   N22  An2  v100
 BYTE   N22  Dn3
 BYTE   N22  Fn3
 BYTE   W12
//  #02 //072   ----------------------------------------
 BYTE   PATT
  POIN2 Label_01AEF434
//  #02 //073   ----------------------------------------
 BYTE   PATT
  POIN2 Label_01AEF458
//  #02 //074   ----------------------------------------
 BYTE   PATT
  POIN2 Label_01AEF47B
//  #02 //075   ----------------------------------------
 BYTE   W12
 BYTE   N11  Cn2  v088
 BYTE   W12
 BYTE   Fn2
 BYTE   N11  An2
 BYTE   N11  Cn3
 BYTE   W12
 BYTE   N22  En2
 BYTE   N22  Gn2
 BYTE   N22  Cn3
 BYTE   W24
 BYTE   N05  En2
 BYTE   W06
 BYTE   Cn2
 BYTE   W06
 BYTE   N11  En2
 BYTE   N11  Gn2
 BYTE   N11  Cn3
 BYTE   W12
 BYTE   N22  Fn2
 BYTE   N22  Gs2
 BYTE   N22  Cs3
 BYTE   W12
//  #02 //076   ----------------------------------------
 BYTE   W12
 BYTE   N05  Fn2
 BYTE   W06
 BYTE   Cs2
 BYTE   W06
 BYTE   N11  Fn2
 BYTE   N11  Gs2
 BYTE   N11  Cs3
 BYTE   W12
 BYTE   N05  Fn2
 BYTE   W06
 BYTE   Cs2
 BYTE   W06
 BYTE   N11  Fn2
 BYTE   N11  Gs2
 BYTE   N11  Cs3
 BYTE   W12
 BYTE   N05  Fn2
 BYTE   W06
 BYTE   Cs2
 BYTE   W06
 BYTE   N11  Fn2
 BYTE   N11  Gs2
 BYTE   N11  Cs3
 BYTE   W12
 BYTE   N22  Gn2
 BYTE   N22  As2
 BYTE   N22  Ds3
 BYTE   W12
//  #02 //077   ----------------------------------------
 BYTE   W12
 BYTE   N05  Gn2
 BYTE   W06
 BYTE   Ds2
 BYTE   W06
 BYTE   N11  Gn2
 BYTE   N11  As2
 BYTE   N11  Ds3
 BYTE   W12
 BYTE   Ds2
 BYTE   W12
 BYTE   N05  Gn2
 BYTE   N05  As2
 BYTE   N05  Ds3
 BYTE   W06
 BYTE   Ds2
 BYTE   W06
 BYTE   Gn2
 BYTE   W06
 BYTE   Ds2
 BYTE   W06
 BYTE   N11  Gn2
 BYTE   N11  As2
 BYTE   N11  Ds3
 BYTE   W12
 BYTE   N22  Fn2
 BYTE   N22  As2
 BYTE   N22  Cn3
 BYTE   W12
//  #02 //078   ----------------------------------------
 BYTE   W12
 BYTE   N11  Cn2
 BYTE   W12
 BYTE   Fn2
 BYTE   N11  As2
 BYTE   N11  Cn3
 BYTE   W12
 BYTE   Cn2
 BYTE   W12
 BYTE   Fn2
 BYTE   N11  As2
 BYTE   N11  Cn3
 BYTE   W12
 BYTE   N05  Fn2
 BYTE   W06
 BYTE   Cn2
 BYTE   W06
 BYTE   Fn2
 BYTE   N05  As2
 BYTE   N05  Cn3
 BYTE   W06
 BYTE   Cn2
 BYTE   W06
 BYTE   N22  Fn2
 BYTE   N22  An2
 BYTE   N22  Cn3
 BYTE   W12
//  #02 //079   ----------------------------------------
 BYTE   W12
 BYTE   N11  Gn3  v052
 BYTE   W12
 BYTE   An3
 BYTE   W12
 BYTE   Gn3
 BYTE   W12
 BYTE   An3
 BYTE   W12
 BYTE   Gn3
 BYTE   W12
 BYTE   Fn3
 BYTE   W12
 BYTE   Cn3
 BYTE   W12
//  #02 //080   ----------------------------------------
 BYTE   Dn3
 BYTE   W12
 BYTE   En3
 BYTE   W12
 BYTE   Fn3
 BYTE   W12
 BYTE   Cn4
 BYTE   W12
 BYTE   En3
 BYTE   W12
 BYTE   Fn3
 BYTE   W12
 BYTE   Gn2
 BYTE   W12
 BYTE   An2
 BYTE   W12
//  #02 //081   ----------------------------------------
Label_01AEF62B:
 BYTE   N11  En3  v052
 BYTE   W12
 BYTE   Fn3
 BYTE   W12
 BYTE   Gn3
 BYTE   W12
 BYTE   Cn4
 BYTE   W12
 BYTE   En3
 BYTE   W12
 BYTE   Fn3
 BYTE   W12
 BYTE   En3
 BYTE   W12
 BYTE   Cn3
 BYTE   W12
 BYTE   PEND 
//  #02 //082   ----------------------------------------
Label_01AEF63E:
 BYTE   W12
 BYTE   N11  En3  v052
 BYTE   W12
 BYTE   Fn3
 BYTE   W12
 BYTE   Cn4
 BYTE   W12
 BYTE   En3
 BYTE   W12
 BYTE   Fn3
 BYTE   W12
 BYTE   Gn2
 BYTE   W12
 BYTE   An2
 BYTE   W12
 BYTE   PEND 
//  #02 //083   ----------------------------------------
 BYTE   PATT
  POIN2 Label_01AEF62B
//  #02 //084   ----------------------------------------
 BYTE   PATT
  POIN2 Label_01AEF63E
//  #02 //085   ----------------------------------------
 BYTE   PATT
  POIN2 Label_01AEF62B
//  #02 //086   ----------------------------------------
 BYTE   PATT
  POIN2 Label_01AEF63E
//  #02 //087   ----------------------------------------
 BYTE   GoTo
  POIN2 Label_01AEF22F
//  #02 //088   ----------------------------------------
 BYTE   W72
 BYTE   N22  An2  v076
 BYTE   W24
//  #02 //089   ----------------------------------------
 BYTE   N32
 BYTE   N32  Dn3
 BYTE   N32  Fn3
 BYTE   W36
 BYTE   N11  En3
 BYTE   W60
//  #02 //090   ----------------------------------------
 BYTE   W96
//  #02 //091   ----------------------------------------
 BYTE   W96
//  #02 //092   ----------------------------------------
 BYTE   W96
//  #02 //093   ----------------------------------------
 BYTE   W96
//  #02 //094   ----------------------------------------
 BYTE   W96
//  #02 //095   ----------------------------------------
 BYTE   W96
//  #02 //096   ----------------------------------------
 BYTE   W96
//  #02 //097   ----------------------------------------
 BYTE   W96
//  #02 //098   ----------------------------------------
 BYTE   W96
//  #02 //099   ----------------------------------------
 BYTE   W96
//  #02 //100   ----------------------------------------
 BYTE   W96
//  #02 //101   ----------------------------------------
 BYTE   W96
//  #02 //102   ----------------------------------------
 BYTE   W96
//  #02 //103   ----------------------------------------
 BYTE   W96
//  #02 //104   ----------------------------------------
 BYTE   W96
//  #02 //105   ----------------------------------------
 BYTE   W96
//  #02 //106   ----------------------------------------
 BYTE   W96
//  #02 //107   ----------------------------------------
 BYTE   W96
//  #02 //108   ----------------------------------------
 BYTE   W96
//  #02 //109   ----------------------------------------
 BYTE   W96
//  #02 //110   ----------------------------------------
 BYTE   W96
//  #02 //111   ----------------------------------------
 BYTE   W96
//  #02 //112   ----------------------------------------
 BYTE   W96
//  #02 //113   ----------------------------------------
 BYTE   W96
//  #02 //114   ----------------------------------------
 BYTE   W96
//  #02 //115   ----------------------------------------
 BYTE   W96
//  #02 //116   ----------------------------------------
 BYTE   W96
//  #02 //117   ----------------------------------------
 BYTE   W96
//  #02 //118   ----------------------------------------
 BYTE   W96
//  #02 //119   ----------------------------------------
 BYTE   W96
//  #02 //120   ----------------------------------------
 BYTE   W96
//  #02 //121   ----------------------------------------
 BYTE   W96
//  #02 //122   ----------------------------------------
 BYTE   W96
//  #02 //123   ----------------------------------------
 BYTE   W96
//  #02 //124   ----------------------------------------
 BYTE   W96
//  #02 //125   ----------------------------------------
 BYTE   W96
//  #02 //126   ----------------------------------------
 BYTE   W96
//  #02 //127   ----------------------------------------
 BYTE   W96
//  #02 //128   ----------------------------------------
 BYTE   W96
//  #02 //129   ----------------------------------------
 BYTE   W96
//  #02 //130   ----------------------------------------
 BYTE   W96
//  #02 //131   ----------------------------------------
 BYTE   W96
//  #02 //132   ----------------------------------------
 BYTE   W96
//  #02 //133   ----------------------------------------
 BYTE   W96
//  #02 //134   ----------------------------------------
 BYTE   W96
//  #02 //135   ----------------------------------------
 BYTE   W96
//  #02 //136   ----------------------------------------
 BYTE   W96
//  #02 //137   ----------------------------------------
 BYTE   W96
//  #02 //138   ----------------------------------------
 BYTE   W96
//  #02 //139   ----------------------------------------
 BYTE   W96
//  #02 //140   ----------------------------------------
 BYTE   W96
//  #02 //141   ----------------------------------------
 BYTE   W96
//  #02 //142   ----------------------------------------
 BYTE   W96
//  #02 //143   ----------------------------------------
 BYTE   W96
//  #02 //144   ----------------------------------------
 BYTE   W96
//  #02 //145   ----------------------------------------
 BYTE   W96
//  #02 //146   ----------------------------------------
 BYTE   W96
//  #02 //147   ----------------------------------------
 BYTE   W96
//  #02 //148   ----------------------------------------
 BYTE   W96
//  #02 //149   ----------------------------------------
 BYTE   W96
//  #02 //150   ----------------------------------------
 BYTE   W96
//  #02 //151   ----------------------------------------
 BYTE   W96
//  #02 //152   ----------------------------------------
 BYTE   W96
//  #02 //153   ----------------------------------------
 BYTE   W96
//  #02 //154   ----------------------------------------
 BYTE   W96
//  #02 //155   ----------------------------------------
 BYTE   W96
//  #02 //156   ----------------------------------------
 BYTE   W96
//  #02 //157   ----------------------------------------
 BYTE   W96
//  #02 //158   ----------------------------------------
 BYTE   W96
//  #02 //159   ----------------------------------------
 BYTE   W96
//  #02 //160   ----------------------------------------
 BYTE   W96
//  #02 //161   ----------------------------------------
 BYTE   W96
//  #02 //162   ----------------------------------------
 BYTE   W96
//  #02 //163   ----------------------------------------
 BYTE   W96
//  #02 //164   ----------------------------------------
 BYTE   W96
//  #02 //165   ----------------------------------------
 BYTE   W96
//  #02 //166   ----------------------------------------
 BYTE   W96
//  #02 //167   ----------------------------------------
 BYTE   W96
//  #02 //168   ----------------------------------------
 BYTE   W96
//  #02 //169   ----------------------------------------
 BYTE   W96
//  #02 //170   ----------------------------------------
 BYTE   W96
//  #02 //171   ----------------------------------------
 BYTE   W96
//  #02 //172   ----------------------------------------
 BYTE   W96
//  #02 //173   ----------------------------------------
 BYTE   W96
//  #02 //174   ----------------------------------------
 BYTE   W96
//  #02 //175   ----------------------------------------
 BYTE   W96
//  #02 //176   ----------------------------------------
 BYTE   W96
//  #02 //177   ----------------------------------------
 BYTE   W96
//  #02 //178   ----------------------------------------
 BYTE   W96
//  #02 //179   ----------------------------------------
 BYTE   W96
//  #02 //180   ----------------------------------------
 BYTE   W96
//  #02 //181   ----------------------------------------
 BYTE   W96
//  #02 //182   ----------------------------------------
 BYTE   W96
//  #02 //183   ----------------------------------------
 BYTE   W96
//  #02 //184   ----------------------------------------
 BYTE   W72
 BYTE   FINE

//**************** Track 3 (Midi-Chn.2) ****************//

Nonfiction_003:
//  #03 //000   ----------------------------------------
 BYTE   KEYSH   Nonfiction_key+0
 BYTE   VOICE   1
 BYTE   MODT 0
 BYTE   LFOS 44
 BYTE   VOL   61*Nonfiction_mvl/mxv
 BYTE   N11  An3  v068
 BYTE   W02
 BYTE   N09  Cn4
 BYTE   W02
 BYTE   N07  En4
 BYTE   W08
 BYTE   N11  En3  v048
 BYTE   W12
 BYTE   Fn3
 BYTE   W12
 BYTE   Cn4
 BYTE   W12
 BYTE   En3
 BYTE   W12
 BYTE   Fn3
 BYTE   W12
 BYTE   Gn3
 BYTE   W12
 BYTE   Cn4
 BYTE   W12
//  #03 //001   ----------------------------------------
Label_01AEF6FC:
 BYTE   N11  En3  v048
 BYTE   N11  Gn3  v068
 BYTE   N11  Cn4
 BYTE   W12
 BYTE   Fn3  v048
 BYTE   W12
 BYTE   Gn3
 BYTE   W12
 BYTE   Cn4
 BYTE   W12
 BYTE   En3
 BYTE   W12
 BYTE   Fn3
 BYTE   W12
 BYTE   En3
 BYTE   W12
 BYTE   Cn3
 BYTE   W12
 BYTE   PEND 
//  #03 //002   ----------------------------------------
Label_01AEF715:
 BYTE   N11  En3  v048
 BYTE   W02
 BYTE   N09  As3  v068
 BYTE   W02
 BYTE   N07  Dn4
 BYTE   W08
 BYTE   N11  Fn3  v048
 BYTE   W12
 BYTE   Gn3
 BYTE   W12
 BYTE   Cn4
 BYTE   W12
 BYTE   N05  En4
 BYTE   W06
 BYTE   Fn4
 BYTE   W06
 BYTE   N11  En4
 BYTE   W12
 BYTE   Cn4
 BYTE   W12
 BYTE   Gn3
 BYTE   W12
 BYTE   PEND 
//  #03 //003   ----------------------------------------
Label_01AEF735:
 BYTE   N11  En3  v048
 BYTE   W12
 BYTE   Cn3
 BYTE   W12
 BYTE   Gn2
 BYTE   W12
 BYTE   Cn3
 BYTE   W12
 BYTE   En3
 BYTE   W12
 BYTE   Fn3
 BYTE   W12
 BYTE   Gn3
 BYTE   W12
 BYTE   Cn4
 BYTE   W12
 BYTE   PEND 
//  #03 //004   ----------------------------------------
 BYTE   Fn3  v056
 BYTE   W02
 BYTE   N09  An3
 BYTE   W02
 BYTE   N07  Dn4
 BYTE   W08
 BYTE   N11  En3  v048
 BYTE   W12
 BYTE   Fn3
 BYTE   W12
 BYTE   Cn4
 BYTE   W12
 BYTE   En3
 BYTE   W12
 BYTE   Fn3
 BYTE   W12
 BYTE   Gn3
 BYTE   W12
 BYTE   Cn4
 BYTE   W12
//  #03 //005   ----------------------------------------
 BYTE   PATT
  POIN2 Label_01AEF6FC
//  #03 //006   ----------------------------------------
 BYTE   PATT
  POIN2 Label_01AEF715
//  #03 //007   ----------------------------------------
 BYTE   N11  Gn4  v048
 BYTE   W12
 BYTE   Fn4
 BYTE   W12
 BYTE   En4  v052
 BYTE   W12
 BYTE   Cn4
 BYTE   W12
 BYTE   Gn3  v056
 BYTE   W12
 BYTE   Fn3
 BYTE   W12
 BYTE   En3
 BYTE   W12
 BYTE   Cn3  v060
 BYTE   W12
//  #03 //008   ----------------------------------------
 BYTE   Dn3  v088
 BYTE   N11  An3  v104
 BYTE   W12
 BYTE   En3  v048
 BYTE   W12
 BYTE   Fn3
 BYTE   W12
 BYTE   N48  Cn4
 BYTE   W12
 BYTE   N11  En3
 BYTE   W12
 BYTE   Fn3
 BYTE   W12
 BYTE   Gn3
 BYTE   W12
 BYTE   Cn4
 BYTE   W12
//  #03 //009   ----------------------------------------
 BYTE   Cn3  v088
 BYTE   N11  Gn3  v104
 BYTE   W12
 BYTE   Fn3  v048
 BYTE   W12
 BYTE   Gn3
 BYTE   W12
 BYTE   Cn4
 BYTE   W12
 BYTE   Cn3  v088
 BYTE   N11  Fn3  v104
 BYTE   W12
 BYTE   Fn3  v048
 BYTE   W12
 BYTE   En3
 BYTE   W12
 BYTE   Cn3
 BYTE   W12
//  #03 //010   ----------------------------------------
 BYTE   Dn3  v088
 BYTE   N11  As3
 BYTE   W12
 BYTE   En3  v048
 BYTE   W12
 BYTE   Fn3
 BYTE   W12
 BYTE   As3
 BYTE   W12
 BYTE   N05  En4
 BYTE   W06
 BYTE   Fn4
 BYTE   W06
 BYTE   N11  En4
 BYTE   W12
 BYTE   Cn4
 BYTE   W12
 BYTE   Gn3
 BYTE   W12
//  #03 //011   ----------------------------------------
 BYTE   Dn3  v104
 BYTE   W12
 BYTE   Cn3  v048
 BYTE   W12
 BYTE   Gn2
 BYTE   W12
 BYTE   Cn3
 BYTE   W12
 BYTE   En3  v104
 BYTE   W12
 BYTE   Fn3  v048
 BYTE   W12
 BYTE   Gn3
 BYTE   W12
 BYTE   Cn4
 BYTE   W12
//  #03 //012   ----------------------------------------
 BYTE   Fn3  v104
 BYTE   W12
 BYTE   En3  v048
 BYTE   W12
 BYTE   Fn3
 BYTE   W12
 BYTE   Cn4
 BYTE   W12
 BYTE   En3  v060
 BYTE   W12
 BYTE   Fn3  v048
 BYTE   W12
 BYTE   N19  Gn3
 BYTE   W12
 BYTE   N11  Cn4
 BYTE   W12
//  #03 //013   ----------------------------------------
 BYTE   En3  v104
 BYTE   W12
 BYTE   Fn3  v048
 BYTE   W12
 BYTE   Gn3
 BYTE   W12
 BYTE   Cn4
 BYTE   W12
 BYTE   Cn3  v104
 BYTE   W12
 BYTE   Fn3  v048
 BYTE   W12
 BYTE   En3
 BYTE   W12
 BYTE   Cn3
 BYTE   W12
//  #03 //014   ----------------------------------------
 BYTE   Dn3  v104
 BYTE   W12
 BYTE   En3  v048
 BYTE   W12
 BYTE   Fn3
 BYTE   W12
 BYTE   TIE  As3
 BYTE   W12
 BYTE   N05  En4  v044
 BYTE   W06
 BYTE   Fn4
 BYTE   W06
 BYTE   N11  En4
 BYTE   W12
 BYTE   Cn4
 BYTE   W12
 BYTE   Gn3  v040
 BYTE   W12
//  #03 //015   ----------------------------------------
 BYTE   En3
 BYTE   W12
 BYTE   Cn3
 BYTE   W12
 BYTE   Gn2  v036
 BYTE   W12
 BYTE   Cn3
 BYTE   W12
 BYTE   En3
 BYTE   W12
 BYTE   Fn3  v032
 BYTE   W12
 BYTE   Gn3
 BYTE   W12
 BYTE   Cn4
 BYTE   W02
 BYTE   EOT
 BYTE   As3
 BYTE   W10
//  #03 //016   ----------------------------------------
 BYTE   W96
//  #03 //017   ----------------------------------------
Label_01AEF836:
 BYTE   N02  Cn4  v008
 BYTE   N02  Fn4
 BYTE   N02  Gn4
 BYTE   W02
 BYTE   Gn3
 BYTE   W03
 BYTE   Cn4
 BYTE   N02  Fn4
 BYTE   N02  Gn4
 BYTE   W03
 BYTE   Gn3
 BYTE   W03
 BYTE   Cn4
 BYTE   N02  Fn4
 BYTE   N02  Gn4
 BYTE   W03
 BYTE   Gn3
 BYTE   W03
 BYTE   Cn4
 BYTE   N02  Fn4
 BYTE   N02  Gn4
 BYTE   W03
 BYTE   Gn3
 BYTE   W03
 BYTE   Cn4
 BYTE   N02  Fn4
 BYTE   N02  Gn4
 BYTE   W03
 BYTE   Gn3
 BYTE   W03
 BYTE   Cn4
 BYTE   N02  Fn4
 BYTE   N02  Gn4
 BYTE   W03
 BYTE   Gn3
 BYTE   W03
 BYTE   Cn4
 BYTE   N02  Fn4
 BYTE   N02  Gn4
 BYTE   W03
 BYTE   Gn3
 BYTE   W03
 BYTE   Cn4
 BYTE   N02  Fn4
 BYTE   N02  Gn4
 BYTE   W03
 BYTE   Gn3
 BYTE   W03
 BYTE   Cn4
 BYTE   N02  Fn4
 BYTE   N02  Gn4
 BYTE   W03
 BYTE   Gn3  v012
 BYTE   W03
 BYTE   Cn4
 BYTE   N02  Fn4
 BYTE   N02  Gn4
 BYTE   W03
 BYTE   Gn3  v016
 BYTE   W03
 BYTE   Cn4  v020
 BYTE   N02  Fn4
 BYTE   N02  Gn4
 BYTE   W03
 BYTE   Gn3  v024
 BYTE   W03
 BYTE   Cn4
 BYTE   N02  Fn4
 BYTE   N02  Gn4
 BYTE   W03
 BYTE   Gn3  v028
 BYTE   W03
 BYTE   Cn4  v032
 BYTE   N02  Fn4
 BYTE   N02  Gn4
 BYTE   W03
 BYTE   Gn3  v036
 BYTE   W03
 BYTE   Cn4  v040
 BYTE   N02  Fn4
 BYTE   N02  Gn4
 BYTE   W03
 BYTE   Gn3  v048
 BYTE   W03
 BYTE   Cn4  v052
 BYTE   N02  Fn4
 BYTE   N02  Gn4
 BYTE   W03
 BYTE   Gn3  v056
 BYTE   W03
 BYTE   Cn4  v060
 BYTE   N02  Fn4
 BYTE   N02  Gn4
 BYTE   W03
 BYTE   Gn3  v064
 BYTE   W04
//  #03 //018   ----------------------------------------
Label_01AEF8C5:
 BYTE   W12
 BYTE   N11  En3  v048
 BYTE   W12
 BYTE   Fn3
 BYTE   W12
 BYTE   Cn4
 BYTE   W24
 BYTE   En3
 BYTE   W12
 BYTE   Fn3
 BYTE   W12
 BYTE   Cn3
 BYTE   W12
 BYTE   PEND 
//  #03 //019   ----------------------------------------
Label_01AEF8D5:
 BYTE   N11  Gn3  v056
 BYTE   W12
 BYTE   Fn3  v048
 BYTE   W12
 BYTE   Gn3
 BYTE   W12
 BYTE   Cn4
 BYTE   W24
 BYTE   En3
 BYTE   W12
 BYTE   Fn3
 BYTE   W12
 BYTE   Cn3
 BYTE   W12
 BYTE   PEND 
//  #03 //020   ----------------------------------------
 BYTE   W12
 BYTE   En3
 BYTE   W12
 BYTE   Fn3
 BYTE   W12
 BYTE   Cn4
 BYTE   W12
 BYTE   N05  En4
 BYTE   W06
 BYTE   Fn4
 BYTE   W06
 BYTE   N11  En4
 BYTE   W12
 BYTE   N22  Cn4
 BYTE   W24
//  #03 //021   ----------------------------------------
 BYTE   PATT
  POIN2 Label_01AEF735
//  #03 //022   ----------------------------------------
 BYTE   PATT
  POIN2 Label_01AEF8C5
//  #03 //023   ----------------------------------------
 BYTE   PATT
  POIN2 Label_01AEF8D5
//  #03 //024   ----------------------------------------
 BYTE   W12
 BYTE   N11  En3  v048
 BYTE   W12
 BYTE   Fn3
 BYTE   W12
 BYTE   N22  Cn4
 BYTE   W24
 BYTE   N11  Fn4
 BYTE   W12
 BYTE   En4
 BYTE   W12
 BYTE   Cn4
 BYTE   W12
//  #03 //025   ----------------------------------------
 BYTE   As3
 BYTE   W12
 BYTE   An3
 BYTE   W12
 BYTE   Fn3
 BYTE   W12
 BYTE   Cn3
 BYTE   W12
 BYTE   En3
 BYTE   W12
 BYTE   Fn3
 BYTE   W12
 BYTE   En3
 BYTE   W12
 BYTE   Cn3
 BYTE   W12
//  #03 //026   ----------------------------------------
 BYTE   W12
 BYTE   Fn3
 BYTE   W12
 BYTE   Gn3
 BYTE   W12
 BYTE   Cn3
 BYTE   W24
 BYTE   En3
 BYTE   W12
 BYTE   Fn3
 BYTE   W12
 BYTE   Cn3
 BYTE   W12
//  #03 //027   ----------------------------------------
 BYTE   W12
 BYTE   Fn3
 BYTE   W12
 BYTE   Gn3
 BYTE   W12
 BYTE   Cn4
 BYTE   W24
 BYTE   En3
 BYTE   W12
 BYTE   Fn3
 BYTE   W12
 BYTE   Cn3
 BYTE   W12
//  #03 //028   ----------------------------------------
 BYTE   W12
 BYTE   En3
 BYTE   W12
 BYTE   Fn3
 BYTE   W12
 BYTE   N44  Cn4
 BYTE   W48
 BYTE   N22  Bn3  v056
 BYTE   N22  Dn4  v048
 BYTE   W12
//  #03 //029   ----------------------------------------
 BYTE   W12
 BYTE   Gn3
 BYTE   W24
 BYTE   N11  Dn3
 BYTE   W12
 BYTE   Bn2
 BYTE   W12
 BYTE   Gn3
 BYTE   W12
 BYTE   Dn3
 BYTE   W12
 BYTE   Bn2
 BYTE   W12
//  #03 //030   ----------------------------------------
 BYTE   W12
 BYTE   En3
 BYTE   W12
 BYTE   Fn3
 BYTE   W12
 BYTE   Cn4
 BYTE   W24
 BYTE   En3
 BYTE   W12
 BYTE   Fn3
 BYTE   W12
 BYTE   Cn3  v056
 BYTE   N11  Gn3  v048
 BYTE   W12
//  #03 //031   ----------------------------------------
 BYTE   W48
 BYTE   W24
 BYTE   N12  Cn4  v092
 BYTE   W24
//  #03 //032   ----------------------------------------
 BYTE   N11  Dn3  v088
 BYTE   W12
 BYTE   En3  v068
 BYTE   W12
 BYTE   Fn3
 BYTE   W12
 BYTE   N22  Cn4
 BYTE   W12
 BYTE   W12
 BYTE   N11  En3
 BYTE   W12
 BYTE   Fn3
 BYTE   W12
 BYTE   N22  Cn3
 BYTE   W12
//  #03 //033   ----------------------------------------
Label_01AEF98C:
 BYTE   W12
 BYTE   N11  Fn3  v068
 BYTE   W12
 BYTE   Gn3
 BYTE   W12
 BYTE   N22  Cn4
 BYTE   W12
 BYTE   W12
 BYTE   N11  En3
 BYTE   W12
 BYTE   Fn3
 BYTE   W12
 BYTE   Cn3
 BYTE   W12
 BYTE   PEND 
//  #03 //034   ----------------------------------------
Label_01AEF99F:
 BYTE   W12
 BYTE   N11  En3  v068
 BYTE   W12
 BYTE   Fn3
 BYTE   W12
 BYTE   Cn4
 BYTE   W12
 BYTE   N12  En4
 BYTE   W06
 BYTE   N05  Fn4
 BYTE   W06
 BYTE   N30  En4
 BYTE   W12
 BYTE   N22  Cn4
 BYTE   W24
 BYTE   PEND 
//  #03 //035   ----------------------------------------
Label_01AEF9B5:
 BYTE   N11  En3  v068
 BYTE   W12
 BYTE   Cn3
 BYTE   W12
 BYTE   Gn2
 BYTE   W12
 BYTE   Cn3
 BYTE   W12
 BYTE   En3
 BYTE   N11  Gn3
 BYTE   W12
 BYTE   Fn3
 BYTE   W12
 BYTE   Gn3
 BYTE   W12
 BYTE   Cn4
 BYTE   W12
 BYTE   PEND 
//  #03 //036   ----------------------------------------
Label_01AEF9CA:
 BYTE   N11  An3  v068
 BYTE   W12
 BYTE   En3
 BYTE   W12
 BYTE   Fn3
 BYTE   W12
 BYTE   N22  Cn4
 BYTE   W12
 BYTE   W12
 BYTE   N11  En3
 BYTE   W12
 BYTE   Fn3
 BYTE   W12
 BYTE   N22  Cn3
 BYTE   W12
 BYTE   PEND 
//  #03 //037   ----------------------------------------
 BYTE   PATT
  POIN2 Label_01AEF98C
//  #03 //038   ----------------------------------------
 BYTE   N11  An3  v068
 BYTE   W12
 BYTE   En3
 BYTE   W12
 BYTE   Fn3
 BYTE   W12
 BYTE   Cn4
 BYTE   W12
 BYTE   N11
 BYTE   W12
 BYTE   Fn4
 BYTE   W12
 BYTE   En4
 BYTE   W12
 BYTE   Cn4
 BYTE   W12
//  #03 //039   ----------------------------------------
 BYTE   Bn3
 BYTE   W12
 BYTE   N11
 BYTE   W12
 BYTE   Gn3
 BYTE   W12
 BYTE   Dn3
 BYTE   W12
 BYTE   Gn3
 BYTE   W12
 BYTE   Dn3
 BYTE   W12
 BYTE   N22  Bn2
 BYTE   W24
//  #03 //040   ----------------------------------------
 BYTE   N11  Dn3  v088
 BYTE   N11  An3
 BYTE   W12
 BYTE   En3  v068
 BYTE   W12
 BYTE   Fn3
 BYTE   W12
 BYTE   N22  Cn4
 BYTE   W12
 BYTE   W12
 BYTE   N11  En3
 BYTE   W12
 BYTE   Fn3
 BYTE   W12
 BYTE   N22  Cn3
 BYTE   W12
//  #03 //041   ----------------------------------------
 BYTE   PATT
  POIN2 Label_01AEF98C
//  #03 //042   ----------------------------------------
 BYTE   PATT
  POIN2 Label_01AEF99F
//  #03 //043   ----------------------------------------
 BYTE   PATT
  POIN2 Label_01AEF9B5
//  #03 //044   ----------------------------------------
 BYTE   PATT
  POIN2 Label_01AEF9CA
//  #03 //045   ----------------------------------------
 BYTE   PATT
  POIN2 Label_01AEF98C
//  #03 //046   ----------------------------------------
 BYTE   N11  Fn3  v068
 BYTE   W12
 BYTE   En3
 BYTE   W12
 BYTE   Fn3
 BYTE   W12
 BYTE   N22  Cn4
 BYTE   W12
 BYTE   W12
 BYTE   N11  Fn4
 BYTE   W12
 BYTE   En4
 BYTE   W12
 BYTE   Cn4
 BYTE   W12
//  #03 //047   ----------------------------------------
 BYTE   N44  An3  v016
 BYTE   W96
//  #03 //048   ----------------------------------------
 BYTE   N92  An3  v048
 BYTE   W04
 BYTE   N90  Dn4
 BYTE   W05
 BYTE   N02  Fn4
 BYTE   W84
 BYTE   W03
//  #03 //049   ----------------------------------------
 BYTE   N92  Gn3
 BYTE   W04
 BYTE   N90  Cn4
 BYTE   W05
 BYTE   N84  En4
 BYTE   W84
 BYTE   W03
//  #03 //050   ----------------------------------------
 BYTE   N92  Fn3
 BYTE   W04
 BYTE   N90  An3
 BYTE   W05
 BYTE   N84  Cn4
 BYTE   W84
 BYTE   W03
//  #03 //051   ----------------------------------------
Label_01AEFA6B:
 BYTE   N92  An3  v048
 BYTE   W04
 BYTE   N90  Cn4
 BYTE   W05
 BYTE   N84  En4
 BYTE   W84
 BYTE   W03
 BYTE   PEND 
//  #03 //052   ----------------------------------------
 BYTE   N92  An3
 BYTE   W04
 BYTE   N90  Dn4
 BYTE   W05
 BYTE   N84  Fn4
 BYTE   W84
 BYTE   W03
//  #03 //053   ----------------------------------------
 BYTE   PATT
  POIN2 Label_01AEFA6B
//  #03 //054   ----------------------------------------
 BYTE   N92  An3  v048
 BYTE   W04
 BYTE   N90  Cn4
 BYTE   W05
 BYTE   N84  Fn4
 BYTE   W84
 BYTE   W03
//  #03 //055   ----------------------------------------
 BYTE   N44  Gn3
 BYTE   W04
 BYTE   N42  Cn4
 BYTE   W05
 BYTE   N36  En4
 BYTE   W60
 BYTE   W03
 BYTE   N22  An2  v100
 BYTE   W24
//  #03 //056   ----------------------------------------
 BYTE   N56  Dn3
 BYTE   N56  Fn3
 BYTE   W60
 BYTE   N11  En3
 BYTE   W12
 BYTE   Fn3
 BYTE   W12
 BYTE   N56  En3
 BYTE   N56  Gn3
 BYTE   W12
//  #03 //057   ----------------------------------------
 BYTE   W48
 BYTE   N11  An3
 BYTE   W12
 BYTE   N11
 BYTE   W12
 BYTE   Dn4
 BYTE   N11  Fn4
 BYTE   W12
 BYTE   N22  Cn4
 BYTE   N22  En4
 BYTE   W12
//  #03 //058   ----------------------------------------
 BYTE   W12
 BYTE   N56  An3
 BYTE   N56  Cn4
 BYTE   W60
 BYTE   N11  Fn3
 BYTE   W12
 BYTE   N32  Gn3
 BYTE   N32  Dn4
 BYTE   W12
//  #03 //059   ----------------------------------------
 BYTE   W24
 BYTE   N22  Cn4
 BYTE   W24
 BYTE   Fn3
 BYTE   N22  An4  v080
 BYTE   W24
 BYTE   N11  Gn3  v100
 BYTE   N11  As4  v080
 BYTE   W12
 BYTE   N32  Fn3  v100
 BYTE   N11  An4  v080
 BYTE   W12
//  #03 //060   ----------------------------------------
 BYTE   W24
 BYTE   N22  En3  v100
 BYTE   W24
 BYTE   Cn3
 BYTE   W24
 BYTE   N11  Dn3
 BYTE   W12
 BYTE   N56  Cn3
 BYTE   W12
//  #03 //061   ----------------------------------------
 BYTE   W72
 BYTE   N22  Dn3
 BYTE   N22  Gn3
 BYTE   N22  Dn4
 BYTE   W24
//  #03 //062   ----------------------------------------
 BYTE   N90  Cn3
 BYTE   N90  Fn3
 BYTE   N90  Cn4
 BYTE   W96
//  #03 //063   ----------------------------------------
 BYTE   W12
 BYTE   N11  Fn4  v068
 BYTE   W12
 BYTE   En4
 BYTE   W12
 BYTE   Cn4
 BYTE   W12
 BYTE   Fn4
 BYTE   W12
 BYTE   An3  v096
 BYTE   N11  En4  v076
 BYTE   N11  An4  v096
 BYTE   W12
 BYTE   Cn4  v100
 BYTE   N11  Cn5
 BYTE   W12
 BYTE   N32  Fn4  v104
 BYTE   N32  An4
 BYTE   N32  Cn5
 BYTE   N32  Fn5
 BYTE   W12
//  #03 //064   ----------------------------------------
Label_01AEFB21:
 BYTE   W24
 BYTE   N22  En4  v104
 BYTE   N22  Cn5
 BYTE   N22  En5
 BYTE   W24
 BYTE   Cn4
 BYTE   N22  An4
 BYTE   N22  Cn5
 BYTE   W24
 BYTE   N11  Fn3
 BYTE   N11  Fn4
 BYTE   W12
 BYTE   N32  Dn4
 BYTE   N32  An4
 BYTE   N32  Dn5
 BYTE   W12
 BYTE   PEND 
//  #03 //065   ----------------------------------------
Label_01AEFB3D:
 BYTE   W24
 BYTE   N22  Cn4  v104
 BYTE   N22  En4
 BYTE   N22  Cn5
 BYTE   W24
 BYTE   Fn3
 BYTE   N22  An3
 BYTE   N22  Fn4
 BYTE   W24
 BYTE   N11
 BYTE   W12
 BYTE   N32  As3
 BYTE   N32  Dn4
 BYTE   N32  As4
 BYTE   W12
 BYTE   PEND 
//  #03 //066   ----------------------------------------
 BYTE   W24
 BYTE   N22  An3
 BYTE   N22  An4
 BYTE   W24
 BYTE   N11  Gn3
 BYTE   N11  As3
 BYTE   N11  Gn4
 BYTE   W12
 BYTE   Fn3
 BYTE   N11  An3
 BYTE   N11  Fn4
 BYTE   W12
 BYTE   Gn3
 BYTE   N11  As3
 BYTE   N11  Gn4
 BYTE   W12
 BYTE   N56  An3
 BYTE   N56  Cn4
 BYTE   N56  An4
 BYTE   W12
//  #03 //067   ----------------------------------------
 BYTE   W60
 BYTE   N11  An3
 BYTE   N11  Fn4
 BYTE   W12
 BYTE   An3
 BYTE   N11  Fn4
 BYTE   W12
 BYTE   N11
 BYTE   N11  An4
 BYTE   N11  Cn5
 BYTE   W12
//  #03 //068   ----------------------------------------
 BYTE   W12
 BYTE   An3
 BYTE   N11  Fn4
 BYTE   W12
 BYTE   An3
 BYTE   N11  Fn4
 BYTE   W12
 BYTE   En4
 BYTE   N11  Gn4
 BYTE   N11  Cn5
 BYTE   W24
 BYTE   An3
 BYTE   N11  Fn4
 BYTE   W12
 BYTE   An3
 BYTE   N11  Fn4
 BYTE   W12
 BYTE   N04  Cn5
 BYTE   W04
 BYTE   N28  Dn4
 BYTE   N28  Fn4
 BYTE   N28  Dn5
 BYTE   W08
//  #03 //069   ----------------------------------------
 BYTE   W24
 BYTE   N22  Cn4
 BYTE   N06  Cn5
 BYTE   W24
 BYTE   N11  Fn3
 BYTE   N11  Fn4
 BYTE   W12
 BYTE   Gn3
 BYTE   N11  As3
 BYTE   N11  Gn4
 BYTE   W12
 BYTE   An3
 BYTE   N11  Cn4
 BYTE   N11  An4
 BYTE   W12
 BYTE   N22  As3
 BYTE   N22  Dn4
 BYTE   N22  As4
 BYTE   W12
//  #03 //070   ----------------------------------------
 BYTE   W12
 BYTE   N11  An3
 BYTE   N11  Cn4
 BYTE   N11  An4
 BYTE   W12
 BYTE   Fn3
 BYTE   N11  An3
 BYTE   N11  Fn4
 BYTE   W12
 BYTE   N32  Gn3
 BYTE   N32  As3
 BYTE   N32  Gn4
 BYTE   W36
 BYTE   N11  Fn3
 BYTE   N11  Fn4
 BYTE   W12
 BYTE   N22  En3
 BYTE   N22  Cn4
 BYTE   N22  En4
 BYTE   W12
//  #03 //071   ----------------------------------------
 BYTE   W12
 BYTE   Fn3
 BYTE   N22  Dn4
 BYTE   N22  Fn4
 BYTE   W24
 BYTE   Gn3
 BYTE   N22  En4
 BYTE   N22  Gn4
 BYTE   W24
 BYTE   N11  An3  v112
 BYTE   N11  En4  v088
 BYTE   N11  An4  v112
 BYTE   W12
 BYTE   Cn4  v108
 BYTE   N11  Cn5
 BYTE   W12
 BYTE   N32  Fn4  v104
 BYTE   N32  An4
 BYTE   N32  Cn5
 BYTE   N32  Fn5
 BYTE   W12
//  #03 //072   ----------------------------------------
 BYTE   PATT
  POIN2 Label_01AEFB21
//  #03 //073   ----------------------------------------
 BYTE   PATT
  POIN2 Label_01AEFB3D
//  #03 //074   ----------------------------------------
 BYTE   W24
 BYTE   N22  An3  v104
 BYTE   N22  An4
 BYTE   W24
 BYTE   N11  Gn3
 BYTE   N11  As3
 BYTE   N11  Gn4
 BYTE   W12
 BYTE   Cn3
 BYTE   N11  Gn3
 BYTE   N11  Cn4
 BYTE   W12
 BYTE   N11
 BYTE   N11  En4
 BYTE   N11  Cn5
 BYTE   W12
 BYTE   N22  An3
 BYTE   N22  Cn4
 BYTE   N22  An4
 BYTE   W12
//  #03 //075   ----------------------------------------
 BYTE   W12
 BYTE   N11  As3
 BYTE   N11  Dn4
 BYTE   N11  As4
 BYTE   W12
 BYTE   An3
 BYTE   N11  Cn4
 BYTE   N11  An4
 BYTE   W12
 BYTE   N22  Gn3
 BYTE   N22  As3
 BYTE   N22  Gn4
 BYTE   W24
 BYTE   N11  An3
 BYTE   N11  Cn4
 BYTE   N11  An4
 BYTE   W12
 BYTE   Gn3
 BYTE   N11  As3
 BYTE   N11  Gn4
 BYTE   W12
 BYTE   N78  Fn3
 BYTE   N78  Gs3
 BYTE   N78  Cs4
 BYTE   N78  Fn4
 BYTE   W12
//  #03 //076   ----------------------------------------
 BYTE   W72
 BYTE   N11  Cn4
 BYTE   N11  Fn4
 BYTE   N11  Cn5
 BYTE   W12
 BYTE   N78  As3
 BYTE   N78  Ds4
 BYTE   N78  Gn4
 BYTE   N78  As4
 BYTE   W12
//  #03 //077   ----------------------------------------
 BYTE   W72
 BYTE   N11  Gn3
 BYTE   N11  Ds4
 BYTE   N11  Gn4
 BYTE   W12
 BYTE   N56  As3
 BYTE   N56  Gn4
 BYTE   N56  As4
 BYTE   W12
//  #03 //078   ----------------------------------------
 BYTE   W48
 BYTE   N11  As3
 BYTE   N11  Gn4
 BYTE   N11  As4
 BYTE   W12
 BYTE   An3
 BYTE   N11  Fn4
 BYTE   N11  An4
 BYTE   W12
 BYTE   As3
 BYTE   N11  Gn4
 BYTE   N11  As4
 BYTE   W12
 BYTE   TIE  Cn4
 BYTE   TIE  Fn4
 BYTE   TIE  An4
 BYTE   TIE  Cn5
 BYTE   W12
//  #03 //079   ----------------------------------------
 BYTE   W90
 BYTE   EOT
 BYTE   Cn4  v077
 BYTE   An4  v084
 BYTE   W06
//  #03 //080   ----------------------------------------
 BYTE   W96
//  #03 //081   ----------------------------------------
 BYTE   W96
//  #03 //082   ----------------------------------------
 BYTE   W96
//  #03 //083   ----------------------------------------
 BYTE   W96
//  #03 //084   ----------------------------------------
 BYTE   W96
//  #03 //085   ----------------------------------------
 BYTE   W96
//  #03 //086   ----------------------------------------
 BYTE   W96
//  #03 //087   ----------------------------------------
 BYTE   GoTo
  POIN2 Label_01AEF836
//  #03 //088   ----------------------------------------
 BYTE   N90  Cn4  v052
 BYTE   W96
//  #03 //089   ----------------------------------------
 BYTE   W96
//  #03 //090   ----------------------------------------
 BYTE   W96
//  #03 //091   ----------------------------------------
 BYTE   W96
//  #03 //092   ----------------------------------------
 BYTE   W96
//  #03 //093   ----------------------------------------
 BYTE   W96
//  #03 //094   ----------------------------------------
 BYTE   W96
//  #03 //095   ----------------------------------------
 BYTE   W96
//  #03 //096   ----------------------------------------
 BYTE   W96
//  #03 //097   ----------------------------------------
 BYTE   W96
//  #03 //098   ----------------------------------------
 BYTE   W96
//  #03 //099   ----------------------------------------
 BYTE   W96
//  #03 //100   ----------------------------------------
 BYTE   W96
//  #03 //101   ----------------------------------------
 BYTE   W96
//  #03 //102   ----------------------------------------
 BYTE   W96
//  #03 //103   ----------------------------------------
 BYTE   W96
//  #03 //104   ----------------------------------------
 BYTE   W96
//  #03 //105   ----------------------------------------
 BYTE   W96
//  #03 //106   ----------------------------------------
 BYTE   W96
//  #03 //107   ----------------------------------------
 BYTE   W96
//  #03 //108   ----------------------------------------
 BYTE   W96
//  #03 //109   ----------------------------------------
 BYTE   W96
//  #03 //110   ----------------------------------------
 BYTE   W96
//  #03 //111   ----------------------------------------
 BYTE   W96
//  #03 //112   ----------------------------------------
 BYTE   W96
//  #03 //113   ----------------------------------------
 BYTE   W96
//  #03 //114   ----------------------------------------
 BYTE   W96
//  #03 //115   ----------------------------------------
 BYTE   W96
//  #03 //116   ----------------------------------------
 BYTE   W96
//  #03 //117   ----------------------------------------
 BYTE   W96
//  #03 //118   ----------------------------------------
 BYTE   W96
//  #03 //119   ----------------------------------------
 BYTE   W96
//  #03 //120   ----------------------------------------
 BYTE   W96
//  #03 //121   ----------------------------------------
 BYTE   W96
//  #03 //122   ----------------------------------------
 BYTE   W96
//  #03 //123   ----------------------------------------
 BYTE   W96
//  #03 //124   ----------------------------------------
 BYTE   W96
//  #03 //125   ----------------------------------------
 BYTE   W96
//  #03 //126   ----------------------------------------
 BYTE   W96
//  #03 //127   ----------------------------------------
 BYTE   W96
//  #03 //128   ----------------------------------------
 BYTE   W96
//  #03 //129   ----------------------------------------
 BYTE   W96
//  #03 //130   ----------------------------------------
 BYTE   W96
//  #03 //131   ----------------------------------------
 BYTE   W96
//  #03 //132   ----------------------------------------
 BYTE   W96
//  #03 //133   ----------------------------------------
 BYTE   W96
//  #03 //134   ----------------------------------------
 BYTE   W96
//  #03 //135   ----------------------------------------
 BYTE   W96
//  #03 //136   ----------------------------------------
 BYTE   W96
//  #03 //137   ----------------------------------------
 BYTE   W96
//  #03 //138   ----------------------------------------
 BYTE   W96
//  #03 //139   ----------------------------------------
 BYTE   W96
//  #03 //140   ----------------------------------------
 BYTE   W96
//  #03 //141   ----------------------------------------
 BYTE   W96
//  #03 //142   ----------------------------------------
 BYTE   W96
//  #03 //143   ----------------------------------------
 BYTE   W96
//  #03 //144   ----------------------------------------
 BYTE   W96
//  #03 //145   ----------------------------------------
 BYTE   W96
//  #03 //146   ----------------------------------------
 BYTE   W96
//  #03 //147   ----------------------------------------
 BYTE   W96
//  #03 //148   ----------------------------------------
 BYTE   W96
//  #03 //149   ----------------------------------------
 BYTE   W96
//  #03 //150   ----------------------------------------
 BYTE   W96
//  #03 //151   ----------------------------------------
 BYTE   W96
//  #03 //152   ----------------------------------------
 BYTE   W96
//  #03 //153   ----------------------------------------
 BYTE   W96
//  #03 //154   ----------------------------------------
 BYTE   W96
//  #03 //155   ----------------------------------------
 BYTE   W96
//  #03 //156   ----------------------------------------
 BYTE   W96
//  #03 //157   ----------------------------------------
 BYTE   W96
//  #03 //158   ----------------------------------------
 BYTE   W96
//  #03 //159   ----------------------------------------
 BYTE   W96
//  #03 //160   ----------------------------------------
 BYTE   W96
//  #03 //161   ----------------------------------------
 BYTE   W96
//  #03 //162   ----------------------------------------
 BYTE   W96
//  #03 //163   ----------------------------------------
 BYTE   W96
//  #03 //164   ----------------------------------------
 BYTE   W96
//  #03 //165   ----------------------------------------
 BYTE   W96
//  #03 //166   ----------------------------------------
 BYTE   W96
//  #03 //167   ----------------------------------------
 BYTE   W96
//  #03 //168   ----------------------------------------
 BYTE   W96
//  #03 //169   ----------------------------------------
 BYTE   W96
//  #03 //170   ----------------------------------------
 BYTE   W96
//  #03 //171   ----------------------------------------
 BYTE   W96
//  #03 //172   ----------------------------------------
 BYTE   W96
//  #03 //173   ----------------------------------------
 BYTE   W96
//  #03 //174   ----------------------------------------
 BYTE   W96
//  #03 //175   ----------------------------------------
 BYTE   W96
//  #03 //176   ----------------------------------------
 BYTE   W96
//  #03 //177   ----------------------------------------
 BYTE   W96
//  #03 //178   ----------------------------------------
 BYTE   W96
//  #03 //179   ----------------------------------------
 BYTE   W96
//  #03 //180   ----------------------------------------
 BYTE   W96
//  #03 //181   ----------------------------------------
 BYTE   W96
//  #03 //182   ----------------------------------------
 BYTE   W96
//  #03 //183   ----------------------------------------
 BYTE   W96
//  #03 //184   ----------------------------------------
 BYTE   W72
 BYTE   FINE

//**************** Track 4 (Midi-Chn.3) ****************//

Nonfiction_004:
//  #04 //000   ----------------------------------------
 BYTE   KEYSH   Nonfiction_key+0
 BYTE   VOICE   49
 BYTE   MODT 0
 BYTE   LFOS 44
 BYTE   VOL   42*Nonfiction_mvl/mxv
 BYTE   N68  Dn2  v060
 BYTE   N68  Dn3
 BYTE   W72
 BYTE   TIE  Gn2
 BYTE   W24
//  #04 //001   ----------------------------------------
 BYTE   W88
 BYTE   W01
 BYTE   EOT
 BYTE   W07
//  #04 //002   ----------------------------------------
Label_01AEFD2F:
 BYTE   TIE  As1  v060
 BYTE   TIE  As2
 BYTE   W96
 BYTE   PEND 
//  #04 //003   ----------------------------------------
 BYTE   W84
 BYTE   W02
 BYTE   EOT
 BYTE   As1  v058
 BYTE   W10
//  #04 //004   ----------------------------------------
 BYTE   N68  Dn2
 BYTE   W02
 BYTE   An2
 BYTE   W02
 BYTE   N66  Dn3
 BYTE   W68
 BYTE   TIE  Gn2
 BYTE   W24
//  #04 //005   ----------------------------------------
 BYTE   N90  Cn2
 BYTE   N90  Cn3
 BYTE   W88
 BYTE   W01
 BYTE   EOT
 BYTE   Gn2
 BYTE   W07
//  #04 //006   ----------------------------------------
 BYTE   PATT
  POIN2 Label_01AEFD2F
//  #04 //007   ----------------------------------------
 BYTE   W40
 BYTE   EOT
 BYTE   As1  v058
 BYTE   W08
 BYTE   N05  Cn1  v056
 BYTE   W06
 BYTE   Cn2
 BYTE   W06
 BYTE   Cn1  v064
 BYTE   W06
 BYTE   Cn2  v068
 BYTE   W06
 BYTE   Cn1  v076
 BYTE   N05  Gn1
 BYTE   W06
 BYTE   Cn2
 BYTE   W06
 BYTE   N11  Cn1  v084
 BYTE   N11  Gn1
 BYTE   W12
//  #04 //008   ----------------------------------------
Label_01AEFD73:
 BYTE   TIE  Dn0  v088
 BYTE   TIE  Dn1
 BYTE   W96
 BYTE   PEND 
//  #04 //009   ----------------------------------------
 BYTE   W84
 BYTE   W02
 BYTE   EOT
 BYTE   Dn0  v038
 BYTE   W10
//  #04 //010   ----------------------------------------
 BYTE   N90  As0
 BYTE   W96
//  #04 //011   ----------------------------------------
 BYTE   N68  Cn1
 BYTE   W72
 BYTE   N22  Cn0
 BYTE   N22  Cn1
 BYTE   W24
//  #04 //012   ----------------------------------------
 BYTE   N90  Gn0
 BYTE   N90  Gn1
 BYTE   W96
//  #04 //013   ----------------------------------------
 BYTE   An0
 BYTE   W96
//  #04 //014   ----------------------------------------
 BYTE   TIE  As0
 BYTE   TIE  As1
 BYTE   W96
//  #04 //015   ----------------------------------------
 BYTE   W96
//  #04 //016   ----------------------------------------
 BYTE   W96
//  #04 //017   ----------------------------------------
Label_01AEFD99:
 BYTE   W30
 BYTE   W01
 BYTE   EOT
 BYTE   As0  v046
 BYTE   W17
 BYTE   W48
//  #04 //018   ----------------------------------------
 BYTE   N92  Dn2  v064
 BYTE   W96
//  #04 //019   ----------------------------------------
 BYTE   Cn2
 BYTE   W96
//  #04 //020   ----------------------------------------
 BYTE   TIE  As1
 BYTE   W96
//  #04 //021   ----------------------------------------
 BYTE   W90
 BYTE   W01
 BYTE   EOT
 BYTE   W05
//  #04 //022   ----------------------------------------
 BYTE   N92  Dn2
 BYTE   W96
//  #04 //023   ----------------------------------------
 BYTE   Cn2
 BYTE   W96
//  #04 //024   ----------------------------------------
 BYTE   TIE  Fn2
 BYTE   W96
//  #04 //025   ----------------------------------------
 BYTE   W90
 BYTE   W01
 BYTE   EOT
 BYTE   W05
//  #04 //026   ----------------------------------------
 BYTE   N92  Gn1
 BYTE   W96
//  #04 //027   ----------------------------------------
 BYTE   An1
 BYTE   W96
//  #04 //028   ----------------------------------------
 BYTE   N32  Dn2
 BYTE   W36
 BYTE   N44  Cn2
 BYTE   W48
 BYTE   TIE  Bn1
 BYTE   W12
//  #04 //029   ----------------------------------------
 BYTE   W90
 BYTE   W01
 BYTE   EOT
 BYTE   W05
//  #04 //030   ----------------------------------------
 BYTE   N80  As1
 BYTE   W84
 BYTE   N44  Cn2
 BYTE   W12
//  #04 //031   ----------------------------------------
 BYTE   W36
 BYTE   N03  Gn1  v044
 BYTE   W04
 BYTE   An1  v048
 BYTE   W04
 BYTE   As1
 BYTE   W04
 BYTE   N44  Cn1  v072
 BYTE   N42  Cn2  v056
 BYTE   W48
//  #04 //032   ----------------------------------------
Label_01AEFDE2:
 BYTE   N11  Dn0  v076
 BYTE   N11  Dn1
 BYTE   W12
 BYTE   Dn1  v064
 BYTE   W12
 BYTE   N11
 BYTE   W12
 BYTE   Dn1  v076
 BYTE   N11  Dn2
 BYTE   W12
 BYTE   Dn2  v064
 BYTE   W12
 BYTE   Dn1  v076
 BYTE   N11  Dn2
 BYTE   W12
 BYTE   Dn2  v064
 BYTE   W12
 BYTE   Dn2  v076
 BYTE   W12
 BYTE   PEND 
//  #04 //033   ----------------------------------------
Label_01AEFE01:
 BYTE   N11  Cn1  v076
 BYTE   N11  Cn2
 BYTE   W12
 BYTE   Cn2  v064
 BYTE   W12
 BYTE   N11
 BYTE   W12
 BYTE   Cn1  v076
 BYTE   N11  Cn2
 BYTE   W12
 BYTE   Cn2  v064
 BYTE   W12
 BYTE   Cn1  v076
 BYTE   N11  Cn2
 BYTE   W12
 BYTE   Cn2  v064
 BYTE   W12
 BYTE   Cn2  v076
 BYTE   W12
 BYTE   PEND 
//  #04 //034   ----------------------------------------
Label_01AEFE20:
 BYTE   N11  As0  v076
 BYTE   N11  As1
 BYTE   W12
 BYTE   As1  v064
 BYTE   W12
 BYTE   N11
 BYTE   W12
 BYTE   As0  v076
 BYTE   N11  As1
 BYTE   W12
 BYTE   As1  v064
 BYTE   W12
 BYTE   As0  v076
 BYTE   N11  As1
 BYTE   W12
 BYTE   As1  v064
 BYTE   W12
 BYTE   As1  v076
 BYTE   W12
 BYTE   PEND 
//  #04 //035   ----------------------------------------
Label_01AEFE3F:
 BYTE   N11  As0  v076
 BYTE   N11  As1
 BYTE   W12
 BYTE   As1  v064
 BYTE   W12
 BYTE   N11
 BYTE   W12
 BYTE   As0  v076
 BYTE   N11  As1
 BYTE   W12
 BYTE   Cn2  v064
 BYTE   W12
 BYTE   Cn1  v076
 BYTE   N11  Cn2
 BYTE   W12
 BYTE   Cn2  v064
 BYTE   W12
 BYTE   Cn2  v076
 BYTE   W12
 BYTE   PEND 
//  #04 //036   ----------------------------------------
Label_01AEFE5E:
 BYTE   N11  Dn1  v076
 BYTE   N11  Dn2
 BYTE   W12
 BYTE   Dn2  v064
 BYTE   W12
 BYTE   N11
 BYTE   W12
 BYTE   Dn1  v076
 BYTE   N11  Dn2
 BYTE   W12
 BYTE   Dn2  v064
 BYTE   W12
 BYTE   Dn1  v076
 BYTE   N11  Dn2
 BYTE   W12
 BYTE   Dn2  v064
 BYTE   W12
 BYTE   Dn2  v076
 BYTE   W12
 BYTE   PEND 
//  #04 //037   ----------------------------------------
 BYTE   PATT
  POIN2 Label_01AEFE01
//  #04 //038   ----------------------------------------
 BYTE   N11  Fn0  v076
 BYTE   N11  Fn1
 BYTE   W12
 BYTE   Fn1  v064
 BYTE   W12
 BYTE   N11
 BYTE   W12
 BYTE   Fn0  v076
 BYTE   N11  Fn1
 BYTE   W12
 BYTE   Fn1  v064
 BYTE   W12
 BYTE   Fn0  v076
 BYTE   N11  Fn1
 BYTE   W12
 BYTE   Fn1  v064
 BYTE   W12
 BYTE   Fn1  v076
 BYTE   W12
//  #04 //039   ----------------------------------------
 BYTE   Gn0
 BYTE   N11  Gn1
 BYTE   W12
 BYTE   Gn1  v064
 BYTE   W12
 BYTE   N11
 BYTE   W12
 BYTE   Gn0  v076
 BYTE   N11  Gn1
 BYTE   W12
 BYTE   Gn0
 BYTE   N11  Gn1  v064
 BYTE   W12
 BYTE   Gn1  v076
 BYTE   W12
 BYTE   Gn1  v064
 BYTE   W12
 BYTE   N05  Gn1  v076
 BYTE   W06
 BYTE   Gn0
 BYTE   W06
//  #04 //040   ----------------------------------------
 BYTE   PATT
  POIN2 Label_01AEFDE2
//  #04 //041   ----------------------------------------
 BYTE   PATT
  POIN2 Label_01AEFE01
//  #04 //042   ----------------------------------------
 BYTE   PATT
  POIN2 Label_01AEFE20
//  #04 //043   ----------------------------------------
 BYTE   PATT
  POIN2 Label_01AEFE3F
//  #04 //044   ----------------------------------------
 BYTE   PATT
  POIN2 Label_01AEFE5E
//  #04 //045   ----------------------------------------
 BYTE   N11  An0  v076
 BYTE   N11  An1
 BYTE   W12
 BYTE   An1  v064
 BYTE   W12
 BYTE   N11
 BYTE   W12
 BYTE   An0  v076
 BYTE   N11  An1
 BYTE   W12
 BYTE   An1  v064
 BYTE   W12
 BYTE   An0  v076
 BYTE   N11  An1
 BYTE   W12
 BYTE   An1  v064
 BYTE   W12
 BYTE   An1  v076
 BYTE   W12
//  #04 //046   ----------------------------------------
 BYTE   PATT
  POIN2 Label_01AEFE20
//  #04 //047   ----------------------------------------
 BYTE   N90  As0  v076
 BYTE   N90  As1
 BYTE   W96
//  #04 //048   ----------------------------------------
 BYTE   Fn1  v052
 BYTE   N90  As1
 BYTE   W96
//  #04 //049   ----------------------------------------
Label_01AEFF06:
 BYTE   N90  An1  v052
 BYTE   W96
 BYTE   PEND 
//  #04 //050   ----------------------------------------
 BYTE   Dn2
 BYTE   W96
//  #04 //051   ----------------------------------------
 BYTE   Cn2
 BYTE   W96
//  #04 //052   ----------------------------------------
 BYTE   As1
 BYTE   W96
//  #04 //053   ----------------------------------------
 BYTE   PATT
  POIN2 Label_01AEFF06
//  #04 //054   ----------------------------------------
 BYTE   N72  Dn2  v052
 BYTE   W96
//  #04 //055   ----------------------------------------
 BYTE   N32  Cn1  v056
 BYTE   W36
 BYTE   N11  Cn1  v076
 BYTE   W30
 BYTE   N05  Gn1
 BYTE   W06
 BYTE   N11  En1
 BYTE   W12
 BYTE   N05  Gn0
 BYTE   W06
 BYTE   Dn1
 BYTE   W06
//  #04 //056   ----------------------------------------
 BYTE   N22  Gn0
 BYTE   N22  Gn1
 BYTE   W24
 BYTE   Gn0
 BYTE   N22  Gn1
 BYTE   W24
 BYTE   Gn0
 BYTE   N22  Gn1
 BYTE   W24
 BYTE   Gn0
 BYTE   N22  Gn1
 BYTE   W24
//  #04 //057   ----------------------------------------
Label_01AEFF3E:
 BYTE   N11  An0  v076
 BYTE   N11  An1
 BYTE   W12
 BYTE   N11
 BYTE   W12
 BYTE   N22  An0
 BYTE   N22  An1
 BYTE   W24
 BYTE   An0
 BYTE   N22  An1
 BYTE   W24
 BYTE   An0
 BYTE   N22  An1
 BYTE   W24
 BYTE   PEND 
//  #04 //058   ----------------------------------------
 BYTE   As0
 BYTE   N22  As1
 BYTE   W24
 BYTE   As0
 BYTE   N22  As1
 BYTE   W24
 BYTE   As0
 BYTE   N22  As1
 BYTE   W24
 BYTE   As0
 BYTE   N22  As1
 BYTE   W24
//  #04 //059   ----------------------------------------
 BYTE   N11  Cn1
 BYTE   N11  Cn2
 BYTE   W12
 BYTE   N11
 BYTE   W12
 BYTE   N22  Cn1
 BYTE   N22  Cn2
 BYTE   W24
 BYTE   Cn1
 BYTE   N22  Cn2
 BYTE   W24
 BYTE   N11  Cn1
 BYTE   N11  Cn2
 BYTE   W12
 BYTE   Cn1
 BYTE   W12
//  #04 //060   ----------------------------------------
 BYTE   N22  Gn0
 BYTE   N22  Gn1
 BYTE   W24
 BYTE   N11  Gn0
 BYTE   N11  Gn1
 BYTE   W12
 BYTE   N11
 BYTE   W12
 BYTE   N22  Gn0
 BYTE   N22  Gn1
 BYTE   W24
 BYTE   Gn0
 BYTE   N22  Gn1
 BYTE   W24
//  #04 //061   ----------------------------------------
 BYTE   PATT
  POIN2 Label_01AEFF3E
//  #04 //062   ----------------------------------------
 BYTE   N11  As0  v076
 BYTE   N11  As1
 BYTE   W12
 BYTE   As0
 BYTE   W12
 BYTE   As1
 BYTE   W12
 BYTE   As0
 BYTE   W12
 BYTE   N22
 BYTE   W24
 BYTE   N11
 BYTE   W12
 BYTE   N56  Cn1
 BYTE   N56  Cn2
 BYTE   W12
//  #04 //063   ----------------------------------------
 BYTE   W48
 BYTE   N11  Gn0
 BYTE   N11  Gn1
 BYTE   W12
 BYTE   An1  v080
 BYTE   W12
 BYTE   N05  As0  v084
 BYTE   W06
 BYTE   Cn1  v088
 BYTE   W06
 BYTE   N22  Dn0  v100
 BYTE   N22  Dn1
 BYTE   W12
//  #04 //064   ----------------------------------------
Label_01AEFFC0:
 BYTE   W12
 BYTE   N11  Dn1  v088
 BYTE   W12
 BYTE   N11
 BYTE   W12
 BYTE   N11
 BYTE   W12
 BYTE   Dn0
 BYTE   N11  Dn1
 BYTE   W12
 BYTE   Dn0
 BYTE   W12
 BYTE   Dn1
 BYTE   W12
 BYTE   N22  An0
 BYTE   N22  An1
 BYTE   W12
 BYTE   PEND 
//  #04 //065   ----------------------------------------
Label_01AEFFD7:
 BYTE   W12
 BYTE   N11  An0  v088
 BYTE   W12
 BYTE   N11
 BYTE   W12
 BYTE   N11
 BYTE   N11  An1
 BYTE   W12
 BYTE   An0
 BYTE   W12
 BYTE   N11
 BYTE   N11  An1
 BYTE   W12
 BYTE   An0
 BYTE   W12
 BYTE   N22  AsM1
 BYTE   N22  As0
 BYTE   W12
 BYTE   PEND 
//  #04 //066   ----------------------------------------
Label_01AEFFF0:
 BYTE   W12
 BYTE   N11  As0  v088
 BYTE   W12
 BYTE   N11
 BYTE   W12
 BYTE   N11
 BYTE   W12
 BYTE   AsM1
 BYTE   N11  As0
 BYTE   W12
 BYTE   AsM1
 BYTE   W12
 BYTE   As0
 BYTE   W12
 BYTE   N22  Fn0
 BYTE   N22  Fn1
 BYTE   W12
 BYTE   PEND 
//  #04 //067   ----------------------------------------
 BYTE   W12
 BYTE   N11  Fn0
 BYTE   W12
 BYTE   Fn1
 BYTE   W12
 BYTE   N22  En0
 BYTE   N22  En1
 BYTE   W24
 BYTE   N11  En0
 BYTE   W12
 BYTE   N05  En1
 BYTE   W06
 BYTE   En0
 BYTE   W06
 BYTE   N22  Dn0
 BYTE   N22  Dn1
 BYTE   W12
//  #04 //068   ----------------------------------------
 BYTE   W12
 BYTE   N11
 BYTE   W12
 BYTE   N11
 BYTE   W12
 BYTE   N22  An0
 BYTE   N22  An1
 BYTE   W24
 BYTE   N11  An0
 BYTE   W12
 BYTE   N11
 BYTE   W12
 BYTE   N22  AsM1
 BYTE   N22  As0
 BYTE   W12
//  #04 //069   ----------------------------------------
 BYTE   W12
 BYTE   N11
 BYTE   W12
 BYTE   N11
 BYTE   W12
 BYTE   AsM1
 BYTE   W12
 BYTE   AnM1
 BYTE   N11  An0
 BYTE   W12
 BYTE   N05  As0
 BYTE   W06
 BYTE   Cn1
 BYTE   W06
 BYTE   N11  Dn0
 BYTE   N11  Dn1
 BYTE   W12
 BYTE   N22  Ds0  v096
 BYTE   N22  Ds1
 BYTE   W12
//  #04 //070   ----------------------------------------
 BYTE   W12
 BYTE   N05  Ds0  v088
 BYTE   W06
 BYTE   Ds1
 BYTE   W06
 BYTE   N11  Ds0
 BYTE   W12
 BYTE   N11
 BYTE   N11  Ds1
 BYTE   W12
 BYTE   Ds0
 BYTE   W12
 BYTE   N11
 BYTE   N11  Ds1
 BYTE   W12
 BYTE   N05
 BYTE   W06
 BYTE   Ds0
 BYTE   W06
 BYTE   N11  Cn0
 BYTE   N11  Cn1
 BYTE   W12
//  #04 //071   ----------------------------------------
 BYTE   N11
 BYTE   W12
 BYTE   Cn0
 BYTE   N11  Cn1
 BYTE   W12
 BYTE   N05
 BYTE   W06
 BYTE   N02  Gn0
 BYTE   W06
 BYTE   N11  Cn0
 BYTE   N11  Cn1
 BYTE   W12
 BYTE   N11
 BYTE   W12
 BYTE   N05
 BYTE   W06
 BYTE   Cn0
 BYTE   W06
 BYTE   Cn1
 BYTE   W06
 BYTE   Cs1
 BYTE   W06
 BYTE   N22  Dn0  v100
 BYTE   N22  Dn1
 BYTE   W12
//  #04 //072   ----------------------------------------
 BYTE   PATT
  POIN2 Label_01AEFFC0
//  #04 //073   ----------------------------------------
 BYTE   PATT
  POIN2 Label_01AEFFD7
//  #04 //074   ----------------------------------------
 BYTE   PATT
  POIN2 Label_01AEFFF0
//  #04 //075   ----------------------------------------
 BYTE   W12
 BYTE   N11  Fn0  v088
 BYTE   W12
 BYTE   Fn1
 BYTE   W12
 BYTE   N22  En0
 BYTE   N22  En1
 BYTE   W24
 BYTE   N05  En0
 BYTE   W06
 BYTE   Cn1
 BYTE   W06
 BYTE   N11  En0
 BYTE   N11  En1
 BYTE   W12
 BYTE   N22  Cs0
 BYTE   N22  Cs1
 BYTE   W12
//  #04 //076   ----------------------------------------
 BYTE   W12
 BYTE   N05
 BYTE   W06
 BYTE   Gs0
 BYTE   W06
 BYTE   N11  Cs0
 BYTE   N11  Cs1
 BYTE   W12
 BYTE   N05
 BYTE   W06
 BYTE   Gs0
 BYTE   W06
 BYTE   N11  Cs0
 BYTE   N11  Cs1
 BYTE   W12
 BYTE   N05
 BYTE   W06
 BYTE   Gs0
 BYTE   W06
 BYTE   N11  Cs0
 BYTE   N11  Cs1
 BYTE   W12
 BYTE   N22  Ds0
 BYTE   N22  Ds1
 BYTE   W12
//  #04 //077   ----------------------------------------
 BYTE   W12
 BYTE   N05
 BYTE   W06
 BYTE   As0
 BYTE   W06
 BYTE   N11  Ds0
 BYTE   N11  Ds1
 BYTE   W12
 BYTE   N11
 BYTE   W12
 BYTE   N05  Ds0
 BYTE   N05  Ds1
 BYTE   W06
 BYTE   As0
 BYTE   W06
 BYTE   Ds1
 BYTE   W06
 BYTE   As0
 BYTE   W06
 BYTE   N11  Ds0
 BYTE   N11  Ds1
 BYTE   W12
 BYTE   N22  Fn0
 BYTE   N22  Fn1
 BYTE   W12
//  #04 //078   ----------------------------------------
 BYTE   W12
 BYTE   N11
 BYTE   W12
 BYTE   Fn0
 BYTE   N11  Fn1
 BYTE   W12
 BYTE   N11
 BYTE   W12
 BYTE   Fn0
 BYTE   N11  Fn1
 BYTE   W12
 BYTE   N05  Fn0
 BYTE   W06
 BYTE   Cn1
 BYTE   W06
 BYTE   Fn1
 BYTE   W06
 BYTE   Cn1
 BYTE   W06
 BYTE   TIE  Fn0
 BYTE   TIE  Fn1
 BYTE   W12
//  #04 //079   ----------------------------------------
 BYTE   W90
 BYTE   EOT
 BYTE   Fn0  v041
 BYTE   W06
//  #04 //080   ----------------------------------------
 BYTE   PATT
  POIN2 Label_01AEFD73
//  #04 //081   ----------------------------------------
 BYTE   W90
 BYTE   W01
 BYTE   EOT
 BYTE   Dn0  v038
 BYTE   W05
//  #04 //082   ----------------------------------------
Label_01AF0122:
 BYTE   TIE  As1  v060
 BYTE   W96
 BYTE   PEND 
//  #04 //083   ----------------------------------------
 BYTE   W84
 BYTE   W02
 BYTE   EOT
 BYTE   W10
//  #04 //084   ----------------------------------------
 BYTE   TIE  Dn2
 BYTE   W96
//  #04 //085   ----------------------------------------
 BYTE   W84
 BYTE   W02
 BYTE   EOT
 BYTE   W10
//  #04 //086   ----------------------------------------
 BYTE   PATT
  POIN2 Label_01AF0122
//  #04 //087   ----------------------------------------
 BYTE   GoTo
  POIN2 Label_01AEFD99
//  #04 //088   ----------------------------------------
 BYTE   W40
 BYTE   EOT
 BYTE   As1
 BYTE   W32
 BYTE   N11  AnM1  v060
 BYTE   N11  An0
 BYTE   W12
 BYTE   N11
 BYTE   W12
//  #04 //089   ----------------------------------------
 BYTE   W96
//  #04 //090   ----------------------------------------
 BYTE   W96
//  #04 //091   ----------------------------------------
 BYTE   W96
//  #04 //092   ----------------------------------------
 BYTE   W96
//  #04 //093   ----------------------------------------
 BYTE   W96
//  #04 //094   ----------------------------------------
 BYTE   W96
//  #04 //095   ----------------------------------------
 BYTE   W96
//  #04 //096   ----------------------------------------
 BYTE   W96
//  #04 //097   ----------------------------------------
 BYTE   W96
//  #04 //098   ----------------------------------------
 BYTE   W96
//  #04 //099   ----------------------------------------
 BYTE   W96
//  #04 //100   ----------------------------------------
 BYTE   W96
//  #04 //101   ----------------------------------------
 BYTE   W96
//  #04 //102   ----------------------------------------
 BYTE   W96
//  #04 //103   ----------------------------------------
 BYTE   W96
//  #04 //104   ----------------------------------------
 BYTE   W96
//  #04 //105   ----------------------------------------
 BYTE   W96
//  #04 //106   ----------------------------------------
 BYTE   W96
//  #04 //107   ----------------------------------------
 BYTE   W96
//  #04 //108   ----------------------------------------
 BYTE   W96
//  #04 //109   ----------------------------------------
 BYTE   W96
//  #04 //110   ----------------------------------------
 BYTE   W96
//  #04 //111   ----------------------------------------
 BYTE   W96
//  #04 //112   ----------------------------------------
 BYTE   W96
//  #04 //113   ----------------------------------------
 BYTE   W96
//  #04 //114   ----------------------------------------
 BYTE   W96
//  #04 //115   ----------------------------------------
 BYTE   W96
//  #04 //116   ----------------------------------------
 BYTE   W96
//  #04 //117   ----------------------------------------
 BYTE   W96
//  #04 //118   ----------------------------------------
 BYTE   W96
//  #04 //119   ----------------------------------------
 BYTE   W96
//  #04 //120   ----------------------------------------
 BYTE   W96
//  #04 //121   ----------------------------------------
 BYTE   W96
//  #04 //122   ----------------------------------------
 BYTE   W96
//  #04 //123   ----------------------------------------
 BYTE   W96
//  #04 //124   ----------------------------------------
 BYTE   W96
//  #04 //125   ----------------------------------------
 BYTE   W96
//  #04 //126   ----------------------------------------
 BYTE   W96
//  #04 //127   ----------------------------------------
 BYTE   W96
//  #04 //128   ----------------------------------------
 BYTE   W96
//  #04 //129   ----------------------------------------
 BYTE   W96
//  #04 //130   ----------------------------------------
 BYTE   W96
//  #04 //131   ----------------------------------------
 BYTE   W96
//  #04 //132   ----------------------------------------
 BYTE   W96
//  #04 //133   ----------------------------------------
 BYTE   W96
//  #04 //134   ----------------------------------------
 BYTE   W96
//  #04 //135   ----------------------------------------
 BYTE   W96
//  #04 //136   ----------------------------------------
 BYTE   W96
//  #04 //137   ----------------------------------------
 BYTE   W96
//  #04 //138   ----------------------------------------
 BYTE   W96
//  #04 //139   ----------------------------------------
 BYTE   W96
//  #04 //140   ----------------------------------------
 BYTE   W96
//  #04 //141   ----------------------------------------
 BYTE   W96
//  #04 //142   ----------------------------------------
 BYTE   W96
//  #04 //143   ----------------------------------------
 BYTE   W96
//  #04 //144   ----------------------------------------
 BYTE   W96
//  #04 //145   ----------------------------------------
 BYTE   W96
//  #04 //146   ----------------------------------------
 BYTE   W96
//  #04 //147   ----------------------------------------
 BYTE   W96
//  #04 //148   ----------------------------------------
 BYTE   W96
//  #04 //149   ----------------------------------------
 BYTE   W96
//  #04 //150   ----------------------------------------
 BYTE   W96
//  #04 //151   ----------------------------------------
 BYTE   W96
//  #04 //152   ----------------------------------------
 BYTE   W96
//  #04 //153   ----------------------------------------
 BYTE   W96
//  #04 //154   ----------------------------------------
 BYTE   W96
//  #04 //155   ----------------------------------------
 BYTE   W96
//  #04 //156   ----------------------------------------
 BYTE   W96
//  #04 //157   ----------------------------------------
 BYTE   W96
//  #04 //158   ----------------------------------------
 BYTE   W96
//  #04 //159   ----------------------------------------
 BYTE   W96
//  #04 //160   ----------------------------------------
 BYTE   W96
//  #04 //161   ----------------------------------------
 BYTE   W96
//  #04 //162   ----------------------------------------
 BYTE   W96
//  #04 //163   ----------------------------------------
 BYTE   W96
//  #04 //164   ----------------------------------------
 BYTE   W96
//  #04 //165   ----------------------------------------
 BYTE   W96
//  #04 //166   ----------------------------------------
 BYTE   W96
//  #04 //167   ----------------------------------------
 BYTE   W96
//  #04 //168   ----------------------------------------
 BYTE   W96
//  #04 //169   ----------------------------------------
 BYTE   W96
//  #04 //170   ----------------------------------------
 BYTE   W96
//  #04 //171   ----------------------------------------
 BYTE   W96
//  #04 //172   ----------------------------------------
 BYTE   W96
//  #04 //173   ----------------------------------------
 BYTE   W96
//  #04 //174   ----------------------------------------
 BYTE   W96
//  #04 //175   ----------------------------------------
 BYTE   W96
//  #04 //176   ----------------------------------------
 BYTE   W96
//  #04 //177   ----------------------------------------
 BYTE   W96
//  #04 //178   ----------------------------------------
 BYTE   W96
//  #04 //179   ----------------------------------------
 BYTE   W96
//  #04 //180   ----------------------------------------
 BYTE   W96
//  #04 //181   ----------------------------------------
 BYTE   W96
//  #04 //182   ----------------------------------------
 BYTE   W96
//  #04 //183   ----------------------------------------
 BYTE   W96
//  #04 //184   ----------------------------------------
 BYTE   W72
 BYTE   FINE

//**************** Track 5 (Midi-Chn.4) ****************//

Nonfiction_005:
//  #05 //000   ----------------------------------------
 BYTE   KEYSH   Nonfiction_key+0
 BYTE   VOICE   40
 BYTE   MODT 0
 BYTE   LFOS 44
 BYTE   VOL   57*Nonfiction_mvl/mxv
 BYTE   PAN   c_v+0
 BYTE   N90  An1  v096
 BYTE   N90  An2
 BYTE   W96
//  #05 //001   ----------------------------------------
 BYTE   N44  En2
 BYTE   N44  En3
 BYTE   W48
 BYTE   Fn2
 BYTE   N44  Fn3
 BYTE   W48
//  #05 //002   ----------------------------------------
Label_01AF01C7:
 BYTE   TIE  An1  v096
 BYTE   TIE  An2
 BYTE   W96
 BYTE   PEND 
//  #05 //003   ----------------------------------------
 BYTE   W84
 BYTE   W02
 BYTE   EOT
 BYTE   An1  v057
 BYTE   W10
//  #05 //004   ----------------------------------------
 BYTE   N90  An1
 BYTE   N90  An2
 BYTE   W96
//  #05 //005   ----------------------------------------
 BYTE   N44  Gn1
 BYTE   N44  Gn2
 BYTE   W48
 BYTE   Cn2
 BYTE   N44  Cn3
 BYTE   W48
//  #05 //006   ----------------------------------------
 BYTE   PATT
  POIN2 Label_01AF01C7
//  #05 //007   ----------------------------------------
 BYTE   W84
 BYTE   W02
 BYTE   EOT
 BYTE   An1  v057
 BYTE   W10
//  #05 //008   ----------------------------------------
 BYTE   N36  Cn1  v088
 BYTE   N90  Fn1
 BYTE   N90  An1  v104
 BYTE   W96
//  #05 //009   ----------------------------------------
 BYTE   N44  En1  v088
 BYTE   N44  Gn1  v104
 BYTE   N44  An1  v088
 BYTE   W48
 BYTE   Fn1  v104
 BYTE   W48
//  #05 //010   ----------------------------------------
 BYTE   N90  Dn1
 BYTE   N90  Dn2
 BYTE   W96
//  #05 //011   ----------------------------------------
 BYTE   N44  Gn0  v088
 BYTE   N44  Dn1  v104
 BYTE   W48
 BYTE   An0  v088
 BYTE   N44  En1  v104
 BYTE   W48
//  #05 //012   ----------------------------------------
 BYTE   N72  Gn0  v088
 BYTE   N90  As0
 BYTE   N90  Fn1  v104
 BYTE   W96
//  #05 //013   ----------------------------------------
 BYTE   N36  Cn1  v088
 BYTE   N44  En1  v104
 BYTE   W48
 BYTE   An0  v088
 BYTE   N44  Cn1  v104
 BYTE   W48
//  #05 //014   ----------------------------------------
 BYTE   N36  As0  v088
 BYTE   TIE  Dn1  v104
 BYTE   W96
//  #05 //015   ----------------------------------------
 BYTE   W84
 BYTE   W02
 BYTE   EOT
 BYTE   W10
//  #05 //016   ----------------------------------------
 BYTE   N92  Cn1  v048
 BYTE   W02
 BYTE   Gn1  v036
 BYTE   W02
 BYTE   N90  Cn2  v056
 BYTE   W92
//  #05 //017   ----------------------------------------
Label_01AF0241:
 BYTE   W96
//  #05 //018   ----------------------------------------
 BYTE   W96
//  #05 //019   ----------------------------------------
 BYTE   W96
//  #05 //020   ----------------------------------------
 BYTE   W96
//  #05 //021   ----------------------------------------
 BYTE   W96
//  #05 //022   ----------------------------------------
 BYTE   W96
//  #05 //023   ----------------------------------------
 BYTE   W96
//  #05 //024   ----------------------------------------
 BYTE   W96
//  #05 //025   ----------------------------------------
 BYTE   W96
//  #05 //026   ----------------------------------------
 BYTE   W96
//  #05 //027   ----------------------------------------
 BYTE   W96
//  #05 //028   ----------------------------------------
 BYTE   W96
//  #05 //029   ----------------------------------------
 BYTE   W96
//  #05 //030   ----------------------------------------
 BYTE   W96
//  #05 //031   ----------------------------------------
 BYTE   W96
//  #05 //032   ----------------------------------------
 BYTE   W96
//  #05 //033   ----------------------------------------
 BYTE   W96
//  #05 //034   ----------------------------------------
 BYTE   W96
//  #05 //035   ----------------------------------------
 BYTE   W96
//  #05 //036   ----------------------------------------
 BYTE   W96
//  #05 //037   ----------------------------------------
 BYTE   W96
//  #05 //038   ----------------------------------------
 BYTE   W96
//  #05 //039   ----------------------------------------
 BYTE   W96
//  #05 //040   ----------------------------------------
 BYTE   W96
//  #05 //041   ----------------------------------------
 BYTE   W96
//  #05 //042   ----------------------------------------
 BYTE   W96
//  #05 //043   ----------------------------------------
 BYTE   W96
//  #05 //044   ----------------------------------------
 BYTE   W96
//  #05 //045   ----------------------------------------
 BYTE   W96
//  #05 //046   ----------------------------------------
 BYTE   W96
//  #05 //047   ----------------------------------------
 BYTE   N05  Fn1  v016
 BYTE   N05  An1
 BYTE   W06
 BYTE   Cn1
 BYTE   W06
 BYTE   Fn1  v020
 BYTE   N05  An1
 BYTE   W06
 BYTE   Cn1
 BYTE   W06
 BYTE   Fn1  v024
 BYTE   N05  An1
 BYTE   W06
 BYTE   Cn1
 BYTE   W06
 BYTE   Fn1  v028
 BYTE   N05  An1
 BYTE   W06
 BYTE   Cn1  v032
 BYTE   W06
 BYTE   Fn1
 BYTE   N05  An1
 BYTE   W06
 BYTE   Cn1  v036
 BYTE   W06
 BYTE   Fn1  v040
 BYTE   N05  An1
 BYTE   W06
 BYTE   Cn1  v044
 BYTE   W06
 BYTE   Fn1  v048
 BYTE   N05  An1
 BYTE   W06
 BYTE   Cn1
 BYTE   W06
 BYTE   Fn1  v052
 BYTE   N05  An1
 BYTE   W06
 BYTE   Cn1  v056
 BYTE   W06
//  #05 //048   ----------------------------------------
 BYTE   N11  Gn1  v048
 BYTE   W12
 BYTE   N80  Fn1
 BYTE   W12
 BYTE   N11  Cn2
 BYTE   W12
 BYTE   N22  An1
 BYTE   W24
 BYTE   N11  Gn1
 BYTE   W12
 BYTE   Cn2
 BYTE   W12
 BYTE   N22  An1
 BYTE   W12
//  #05 //049   ----------------------------------------
 BYTE   W12
 BYTE   N11  Gn1
 BYTE   W12
 BYTE   Fn2
 BYTE   W12
 BYTE   N22  En2
 BYTE   W24
 BYTE   N11  Cn2
 BYTE   W12
 BYTE   Gn1
 BYTE   W12
 BYTE   Fn1
 BYTE   W12
//  #05 //050   ----------------------------------------
 BYTE   N32  En1
 BYTE   W36
 BYTE   Fn1
 BYTE   W36
 BYTE   N22  Cn2
 BYTE   W24
//  #05 //051   ----------------------------------------
 BYTE   An1
 BYTE   W24
 BYTE   N11  Cn2
 BYTE   W12
 BYTE   N32  Fn1
 BYTE   W36
 BYTE   N22  Cn2
 BYTE   W24
//  #05 //052   ----------------------------------------
 BYTE   N11  An1
 BYTE   W12
 BYTE   Gn1
 BYTE   W12
 BYTE   Cn2
 BYTE   W12
 BYTE   N22  An1
 BYTE   W24
 BYTE   N11  Gn1
 BYTE   W12
 BYTE   Cn2
 BYTE   W12
 BYTE   N22  An1
 BYTE   W12
//  #05 //053   ----------------------------------------
 BYTE   W12
 BYTE   N11  Gn1
 BYTE   W12
 BYTE   Fn2
 BYTE   W12
 BYTE   N22  En2
 BYTE   W24
 BYTE   N11  Cn2
 BYTE   W12
 BYTE   Fn2
 BYTE   W12
 BYTE   Gn2
 BYTE   W12
//  #05 //054   ----------------------------------------
 BYTE   N22  Fn2
 BYTE   W24
 BYTE   En2
 BYTE   W24
 BYTE   Cn2
 BYTE   W24
 BYTE   N11  Dn2
 BYTE   W12
 BYTE   Cn2
 BYTE   W12
//  #05 //055   ----------------------------------------
 BYTE   N44  An1
 BYTE   W84
 BYTE   N03  Gn0  v076
 BYTE   W04
 BYTE   As0
 BYTE   W04
 BYTE   Dn1
 BYTE   W04
//  #05 //056   ----------------------------------------
 BYTE   N90  As0
 BYTE   N90  Fn1
 BYTE   W96
//  #05 //057   ----------------------------------------
 BYTE   N44  Cn1
 BYTE   N44  Gn1
 BYTE   W48
 BYTE   N22  Fn2
 BYTE   W24
 BYTE   An1
 BYTE   N22  Gn2
 BYTE   W24
//  #05 //058   ----------------------------------------
 BYTE   N44  An1
 BYTE   N44  Cn2
 BYTE   N44  Fn2
 BYTE   N44  An2
 BYTE   W48
 BYTE   N22  Cn2
 BYTE   W24
 BYTE   Dn2
 BYTE   W24
//  #05 //059   ----------------------------------------
 BYTE   Cn2  v080
 BYTE   N22  En2
 BYTE   N22  Cn3
 BYTE   W24
 BYTE   As1
 BYTE   N22  As2
 BYTE   W24
 BYTE   N05  Gn2  v064
 BYTE   W06
 BYTE   An2
 BYTE   W06
 BYTE   Gn2  v056
 BYTE   W06
 BYTE   An2
 BYTE   W06
 BYTE   Gn2  v052
 BYTE   W06
 BYTE   An2
 BYTE   W06
 BYTE   Gn2  v048
 BYTE   W06
 BYTE   An2
 BYTE   W06
//  #05 //060   ----------------------------------------
 BYTE   Gn2  v040
 BYTE   W06
 BYTE   An2
 BYTE   W06
 BYTE   Gn2  v036
 BYTE   W06
 BYTE   An2
 BYTE   W06
 BYTE   Gn2  v032
 BYTE   W06
 BYTE   An2  v028
 BYTE   W06
 BYTE   Gn2
 BYTE   W06
 BYTE   An2
 BYTE   W54
//  #05 //061   ----------------------------------------
 BYTE   N44  Gn1  v080
 BYTE   N44  Gn2
 BYTE   W72
 BYTE   N22  Dn2  v096
 BYTE   N22  Dn3
 BYTE   W24
//  #05 //062   ----------------------------------------
 BYTE   N90  Cn2
 BYTE   N90  Cn3
 BYTE   W96
//  #05 //063   ----------------------------------------
 BYTE   W60
 BYTE   N05  Dn2  v076
 BYTE   W06
 BYTE   En2  v080
 BYTE   W06
 BYTE   Fn2
 BYTE   W06
 BYTE   Gn2  v084
 BYTE   W06
 BYTE   N78  An2  v088
 BYTE   W12
//  #05 //064   ----------------------------------------
 BYTE   W84
 BYTE   N56  Gn2
 BYTE   W12
//  #05 //065   ----------------------------------------
Label_01AF0385:
 BYTE   W48
 BYTE   N32  En2  v088
 BYTE   N32  Cn3
 BYTE   W36
 BYTE   N56  Fn2
 BYTE   W12
 BYTE   PEND 
//  #05 //066   ----------------------------------------
 BYTE   W48
 BYTE   N11  En2  v104
 BYTE   N11  Gn2
 BYTE   W12
 BYTE   Dn2
 BYTE   N11  Fn2
 BYTE   W12
 BYTE   En2
 BYTE   N11  Gn2
 BYTE   W12
 BYTE   N56  Fn2
 BYTE   N56  An2
 BYTE   W12
//  #05 //067   ----------------------------------------
 BYTE   W96
//  #05 //068   ----------------------------------------
 BYTE   W96
//  #05 //069   ----------------------------------------
 BYTE   W12
 BYTE   N05  As2  v088
 BYTE   W06
 BYTE   An2
 BYTE   W06
 BYTE   Fn2
 BYTE   W06
 BYTE   N12  Cn2
 BYTE   W06
 BYTE   N05  As1
 BYTE   W06
 BYTE   Cn2
 BYTE   W18
 BYTE   N11  Gn2  v104
 BYTE   W12
 BYTE   An2
 BYTE   W12
 BYTE   N78  As2
 BYTE   W12
//  #05 //070   ----------------------------------------
 BYTE   W84
 BYTE   N22  Cn2
 BYTE   N22  En2
 BYTE   W12
//  #05 //071   ----------------------------------------
 BYTE   W12
 BYTE   Dn2
 BYTE   N22  Fn2
 BYTE   W24
 BYTE   En2
 BYTE   N22  Gn2
 BYTE   W24
 BYTE   N05  Dn2  v088
 BYTE   W06
 BYTE   En2
 BYTE   W06
 BYTE   Fn2
 BYTE   W06
 BYTE   Gn2
 BYTE   W06
 BYTE   N78  An2
 BYTE   W12
//  #05 //072   ----------------------------------------
 BYTE   W84
 BYTE   N56  Gn2
 BYTE   W12
//  #05 //073   ----------------------------------------
 BYTE   PATT
  POIN2 Label_01AF0385
//  #05 //074   ----------------------------------------
 BYTE   W54
 BYTE   N05  Cn2  v072
 BYTE   W06
 BYTE   Dn2
 BYTE   W06
 BYTE   En2
 BYTE   W06
 BYTE   Fn2
 BYTE   W06
 BYTE   Gn2
 BYTE   W06
 BYTE   N22  Cn2  v104
 BYTE   N22  An2
 BYTE   W12
//  #05 //075   ----------------------------------------
 BYTE   W12
 BYTE   N11  Dn2
 BYTE   N11  As2
 BYTE   W12
 BYTE   Cn2
 BYTE   N11  An2
 BYTE   W12
 BYTE   N22  As1
 BYTE   N22  Gn2
 BYTE   W24
 BYTE   N11  Cn2
 BYTE   N11  An2
 BYTE   W12
 BYTE   As1
 BYTE   N11  Gn2
 BYTE   W12
 BYTE   N22  Gs1
 BYTE   N22  Fn2
 BYTE   W12
//  #05 //076   ----------------------------------------
 BYTE   W12
 BYTE   N05  Cs2  v072
 BYTE   W06
 BYTE   Fn2
 BYTE   W06
 BYTE   Gs2
 BYTE   W06
 BYTE   Fn2
 BYTE   W06
 BYTE   Gs2
 BYTE   W06
 BYTE   Cs3
 BYTE   W06
 BYTE   N11  Fn3  v104
 BYTE   W36
 BYTE   TIE  As1
 BYTE   N22  Gn2
 BYTE   W12
//  #05 //077   ----------------------------------------
 BYTE   W12
 BYTE   N05  Ds2  v072
 BYTE   W06
 BYTE   Gn2
 BYTE   W06
 BYTE   As2
 BYTE   W06
 BYTE   Gn2
 BYTE   W06
 BYTE   As2
 BYTE   W06
 BYTE   Ds3
 BYTE   W06
 BYTE   N11  Gn3  v104
 BYTE   W36
 BYTE   N90  Fn2
 BYTE   N90  As2
 BYTE   W12
//  #05 //078   ----------------------------------------
 BYTE   W84
 BYTE   TIE  An2
 BYTE   W12
//  #05 //079   ----------------------------------------
 BYTE   W90
 BYTE   EOT
 BYTE   W06
//  #05 //080   ----------------------------------------
Label_01AF044C:
 BYTE   W24
 BYTE   N11  En1  v060
 BYTE   W12
 BYTE   Fn1
 BYTE   W12
 BYTE   N44  Cn2  v100
 BYTE   W48
 BYTE   PEND 
//  #05 //081   ----------------------------------------
Label_01AF0458:
 BYTE   W36
 BYTE   N11  Fn1  v052
 BYTE   W12
 BYTE   TIE  Cn2  v080
 BYTE   W48
 BYTE   PEND 
//  #05 //082   ----------------------------------------
 BYTE   W90
 BYTE   W01
 BYTE   EOT
 BYTE   W05
//  #05 //083   ----------------------------------------
 BYTE   W96
//  #05 //084   ----------------------------------------
 BYTE   PATT
  POIN2 Label_01AF044C
//  #05 //085   ----------------------------------------
 BYTE   PATT
  POIN2 Label_01AF0458
//  #05 //086   ----------------------------------------
 BYTE   W90
 BYTE   W01
 BYTE   EOT
 BYTE   Cn2
 BYTE   W05
//  #05 //087   ----------------------------------------
 BYTE   GoTo
  POIN2 Label_01AF0241
//  #05 //088   ----------------------------------------
 BYTE   N92  Cn2  v052
 BYTE   W02
 BYTE   Gn2
 BYTE   W02
 BYTE   N90  Cn3  v080
 BYTE   W90
 BYTE   W01
 BYTE   EOT
 BYTE   As1
 BYTE   W01
//  #05 //089   ----------------------------------------
 BYTE   W96
//  #05 //090   ----------------------------------------
 BYTE   W84
 BYTE   TIE  Cn2  v088
 BYTE   TIE  En2
 BYTE   W12
//  #05 //091   ----------------------------------------
 BYTE   W90
 BYTE   EOT
 BYTE   Cn2  v052
 BYTE   W06
//  #05 //092   ----------------------------------------
 BYTE   W96
//  #05 //093   ----------------------------------------
 BYTE   W96
//  #05 //094   ----------------------------------------
 BYTE   W96
//  #05 //095   ----------------------------------------
 BYTE   W96
//  #05 //096   ----------------------------------------
 BYTE   W96
//  #05 //097   ----------------------------------------
 BYTE   W96
//  #05 //098   ----------------------------------------
 BYTE   W96
//  #05 //099   ----------------------------------------
 BYTE   W96
//  #05 //100   ----------------------------------------
 BYTE   W96
//  #05 //101   ----------------------------------------
 BYTE   W96
//  #05 //102   ----------------------------------------
 BYTE   W96
//  #05 //103   ----------------------------------------
 BYTE   W96
//  #05 //104   ----------------------------------------
 BYTE   W96
//  #05 //105   ----------------------------------------
 BYTE   W96
//  #05 //106   ----------------------------------------
 BYTE   W96
//  #05 //107   ----------------------------------------
 BYTE   W96
//  #05 //108   ----------------------------------------
 BYTE   W96
//  #05 //109   ----------------------------------------
 BYTE   W96
//  #05 //110   ----------------------------------------
 BYTE   W96
//  #05 //111   ----------------------------------------
 BYTE   W96
//  #05 //112   ----------------------------------------
 BYTE   W96
//  #05 //113   ----------------------------------------
 BYTE   W96
//  #05 //114   ----------------------------------------
 BYTE   W96
//  #05 //115   ----------------------------------------
 BYTE   W96
//  #05 //116   ----------------------------------------
 BYTE   W96
//  #05 //117   ----------------------------------------
 BYTE   W96
//  #05 //118   ----------------------------------------
 BYTE   W96
//  #05 //119   ----------------------------------------
 BYTE   W96
//  #05 //120   ----------------------------------------
 BYTE   W96
//  #05 //121   ----------------------------------------
 BYTE   W96
//  #05 //122   ----------------------------------------
 BYTE   W96
//  #05 //123   ----------------------------------------
 BYTE   W96
//  #05 //124   ----------------------------------------
 BYTE   W96
//  #05 //125   ----------------------------------------
 BYTE   W96
//  #05 //126   ----------------------------------------
 BYTE   W96
//  #05 //127   ----------------------------------------
 BYTE   W96
//  #05 //128   ----------------------------------------
 BYTE   W96
//  #05 //129   ----------------------------------------
 BYTE   W96
//  #05 //130   ----------------------------------------
 BYTE   W96
//  #05 //131   ----------------------------------------
 BYTE   W96
//  #05 //132   ----------------------------------------
 BYTE   W96
//  #05 //133   ----------------------------------------
 BYTE   W96
//  #05 //134   ----------------------------------------
 BYTE   W96
//  #05 //135   ----------------------------------------
 BYTE   W96
//  #05 //136   ----------------------------------------
 BYTE   W96
//  #05 //137   ----------------------------------------
 BYTE   W96
//  #05 //138   ----------------------------------------
 BYTE   W96
//  #05 //139   ----------------------------------------
 BYTE   W96
//  #05 //140   ----------------------------------------
 BYTE   W96
//  #05 //141   ----------------------------------------
 BYTE   W96
//  #05 //142   ----------------------------------------
 BYTE   W96
//  #05 //143   ----------------------------------------
 BYTE   W96
//  #05 //144   ----------------------------------------
 BYTE   W96
//  #05 //145   ----------------------------------------
 BYTE   W96
//  #05 //146   ----------------------------------------
 BYTE   W96
//  #05 //147   ----------------------------------------
 BYTE   W96
//  #05 //148   ----------------------------------------
 BYTE   W96
//  #05 //149   ----------------------------------------
 BYTE   W96
//  #05 //150   ----------------------------------------
 BYTE   W96
//  #05 //151   ----------------------------------------
 BYTE   W96
//  #05 //152   ----------------------------------------
 BYTE   W96
//  #05 //153   ----------------------------------------
 BYTE   W96
//  #05 //154   ----------------------------------------
 BYTE   W96
//  #05 //155   ----------------------------------------
 BYTE   W96
//  #05 //156   ----------------------------------------
 BYTE   W96
//  #05 //157   ----------------------------------------
 BYTE   W96
//  #05 //158   ----------------------------------------
 BYTE   W96
//  #05 //159   ----------------------------------------
 BYTE   W96
//  #05 //160   ----------------------------------------
 BYTE   W96
//  #05 //161   ----------------------------------------
 BYTE   W96
//  #05 //162   ----------------------------------------
 BYTE   W96
//  #05 //163   ----------------------------------------
 BYTE   W96
//  #05 //164   ----------------------------------------
 BYTE   W96
//  #05 //165   ----------------------------------------
 BYTE   W96
//  #05 //166   ----------------------------------------
 BYTE   W96
//  #05 //167   ----------------------------------------
 BYTE   W96
//  #05 //168   ----------------------------------------
 BYTE   W96
//  #05 //169   ----------------------------------------
 BYTE   W96
//  #05 //170   ----------------------------------------
 BYTE   W96
//  #05 //171   ----------------------------------------
 BYTE   W96
//  #05 //172   ----------------------------------------
 BYTE   W96
//  #05 //173   ----------------------------------------
 BYTE   W96
//  #05 //174   ----------------------------------------
 BYTE   W96
//  #05 //175   ----------------------------------------
 BYTE   W96
//  #05 //176   ----------------------------------------
 BYTE   W96
//  #05 //177   ----------------------------------------
 BYTE   W96
//  #05 //178   ----------------------------------------
 BYTE   W96
//  #05 //179   ----------------------------------------
 BYTE   W96
//  #05 //180   ----------------------------------------
 BYTE   W96
//  #05 //181   ----------------------------------------
 BYTE   W96
//  #05 //182   ----------------------------------------
 BYTE   W96
//  #05 //183   ----------------------------------------
 BYTE   W96
//  #05 //184   ----------------------------------------
 BYTE   W72
 BYTE   FINE

//**************** Track 6 (Midi-Chn.5) ****************//

Nonfiction_006:
//  #06 //000   ----------------------------------------
 BYTE   KEYSH   Nonfiction_key+0
 BYTE   VOICE   28
 BYTE   MODT 0
 BYTE   LFOS 44
 BYTE   VOL   66*Nonfiction_mvl/mxv
 BYTE   W96
//  #06 //001   ----------------------------------------
 BYTE   W96
//  #06 //002   ----------------------------------------
 BYTE   W96
//  #06 //003   ----------------------------------------
 BYTE   W96
//  #06 //004   ----------------------------------------
 BYTE   W96
//  #06 //005   ----------------------------------------
 BYTE   W96
//  #06 //006   ----------------------------------------
 BYTE   W96
//  #06 //007   ----------------------------------------
 BYTE   W48
 BYTE   N24  Gn0  v044
 BYTE   W24
 BYTE   N24
 BYTE   W24
//  #06 //008   ----------------------------------------
 BYTE   N96
 BYTE   W96
//  #06 //009   ----------------------------------------
 BYTE   W96
//  #06 //010   ----------------------------------------
 BYTE   N24
 BYTE   W48
 BYTE   N48
 BYTE   W48
//  #06 //011   ----------------------------------------
 BYTE   W96
//  #06 //012   ----------------------------------------
 BYTE   W96
//  #06 //013   ----------------------------------------
 BYTE   W96
//  #06 //014   ----------------------------------------
 BYTE   W96
//  #06 //015   ----------------------------------------
 BYTE   W96
//  #06 //016   ----------------------------------------
 BYTE   W96
//  #06 //017   ----------------------------------------
Label_01AF08C5:
 BYTE   W24
 BYTE   N24  Cs1  v044
 BYTE   W48
 BYTE   N24
 BYTE   W24
//  #06 //018   ----------------------------------------
 BYTE   N48
 BYTE   W96
//  #06 //019   ----------------------------------------
 BYTE   W96
//  #06 //020   ----------------------------------------
 BYTE   W96
//  #06 //021   ----------------------------------------
 BYTE   W96
//  #06 //022   ----------------------------------------
 BYTE   W96
//  #06 //023   ----------------------------------------
 BYTE   W96
//  #06 //024   ----------------------------------------
 BYTE   W96
//  #06 //025   ----------------------------------------
 BYTE   W96
//  #06 //026   ----------------------------------------
 BYTE   W96
//  #06 //027   ----------------------------------------
 BYTE   W96
//  #06 //028   ----------------------------------------
 BYTE   W96
//  #06 //029   ----------------------------------------
 BYTE   W96
//  #06 //030   ----------------------------------------
 BYTE   W48
 BYTE   N24  An0
 BYTE   N12  Gn1
 BYTE   W12
 BYTE   N12
 BYTE   W12
 BYTE   N24  As0
 BYTE   N12  Dn1
 BYTE   W12
 BYTE   N12
 BYTE   W12
//  #06 //031   ----------------------------------------
 BYTE   N24  An0
 BYTE   W24
 BYTE   As0
 BYTE   N12  Dn1
 BYTE   W12
 BYTE   Gn1
 BYTE   W12
 BYTE   N24  An0
 BYTE   N12  Dn1
 BYTE   W12
 BYTE   Gn1
 BYTE   W12
 BYTE   N24  As0
 BYTE   N12  Dn1
 BYTE   W12
 BYTE   Gn1
 BYTE   W12
//  #06 //032   ----------------------------------------
Label_01AF08FF:
 BYTE   N24  Gn0  v044
 BYTE   N24  Cs1
 BYTE   N96  Gs1
 BYTE   W24
 BYTE   N24  Gn0
 BYTE   N24  Ds1
 BYTE   W24
 BYTE   Gn0
 BYTE   N24  Cs1
 BYTE   W24
 BYTE   Gn0
 BYTE   N24  Ds1
 BYTE   W24
 BYTE   PEND 
//  #06 //033   ----------------------------------------
Label_01AF0915:
 BYTE   N24  Gn0  v044
 BYTE   N24  Cs1
 BYTE   N12  Fs1
 BYTE   W12
 BYTE   N12
 BYTE   W12
 BYTE   N24  Gn0
 BYTE   N24  Ds1
 BYTE   N12  Fs1
 BYTE   W12
 BYTE   N12
 BYTE   W12
 BYTE   N24  Gn0
 BYTE   N12  Dn1
 BYTE   W12
 BYTE   Cs1
 BYTE   N12  Dn1
 BYTE   N12  Ds1
 BYTE   W12
 BYTE   N24  Gn0
 BYTE   N12  Cs1
 BYTE   N12  Ds1
 BYTE   W12
 BYTE   Cs1
 BYTE   N12  Ds1
 BYTE   W12
 BYTE   PEND 
//  #06 //034   ----------------------------------------
Label_01AF093F:
 BYTE   N24  Gn0  v044
 BYTE   N24  Cs1
 BYTE   W24
 BYTE   Gn0
 BYTE   N24  Ds1
 BYTE   W24
 BYTE   Gn0
 BYTE   N24  Cs1
 BYTE   W24
 BYTE   Gn0
 BYTE   N24  Ds1
 BYTE   W24
 BYTE   PEND 
//  #06 //035   ----------------------------------------
 BYTE   PATT
  POIN2 Label_01AF0915
//  #06 //036   ----------------------------------------
 BYTE   PATT
  POIN2 Label_01AF093F
//  #06 //037   ----------------------------------------
 BYTE   PATT
  POIN2 Label_01AF0915
//  #06 //038   ----------------------------------------
 BYTE   N24  Gn0  v044
 BYTE   N12  An0
 BYTE   N12  Gn1
 BYTE   W12
 BYTE   An0
 BYTE   N12  Ds1
 BYTE   N12  Gn1
 BYTE   W12
 BYTE   N24  Gn0
 BYTE   N12  As0
 BYTE   N12  Cs1
 BYTE   N12  Fs1
 BYTE   W12
 BYTE   As0
 BYTE   N12  Cs1
 BYTE   N12  Ds1
 BYTE   N12  Fs1
 BYTE   W12
 BYTE   N24  Gn0
 BYTE   N12  As0
 BYTE   N12  Cs1
 BYTE   N12  Dn1
 BYTE   W12
 BYTE   As0
 BYTE   N12  Cs1
 BYTE   N12  Dn1
 BYTE   N12  Ds1
 BYTE   W12
 BYTE   N24  Gn0
 BYTE   N12  An0
 BYTE   N12  As0
 BYTE   W12
 BYTE   An0
 BYTE   N12  As0
 BYTE   N12  Ds1
 BYTE   W12
//  #06 //039   ----------------------------------------
 BYTE   N24  Gn0
 BYTE   N24  As0
 BYTE   N24  Gn1
 BYTE   W24
 BYTE   Gn0
 BYTE   N12  An0
 BYTE   N24  As0
 BYTE   N24  Cs1
 BYTE   N24  Fs1
 BYTE   N24  Gn1
 BYTE   W12
 BYTE   N12  An0
 BYTE   W12
 BYTE   N24  Gn0
 BYTE   N24  As0
 BYTE   N24  Dn1
 BYTE   N24  Fs1
 BYTE   W24
 BYTE   Gn0
 BYTE   N24  As0
 BYTE   N24  Cs1
 BYTE   N24  Dn1
 BYTE   W24
//  #06 //040   ----------------------------------------
 BYTE   Gn0
 BYTE   N12  An0
 BYTE   N24  Cs1
 BYTE   N96  Gs1
 BYTE   W12
 BYTE   N12  An0
 BYTE   W12
 BYTE   N24  Gn0
 BYTE   N24  Ds1
 BYTE   W24
 BYTE   Gn0
 BYTE   N24  Cs1
 BYTE   W24
 BYTE   Gn0
 BYTE   N24  Ds1
 BYTE   W24
//  #06 //041   ----------------------------------------
 BYTE   PATT
  POIN2 Label_01AF0915
//  #06 //042   ----------------------------------------
 BYTE   PATT
  POIN2 Label_01AF093F
//  #06 //043   ----------------------------------------
 BYTE   PATT
  POIN2 Label_01AF0915
//  #06 //044   ----------------------------------------
 BYTE   PATT
  POIN2 Label_01AF093F
//  #06 //045   ----------------------------------------
 BYTE   PATT
  POIN2 Label_01AF0915
//  #06 //046   ----------------------------------------
 BYTE   N24  Gn0  v044
 BYTE   N12  An0
 BYTE   N12  Gn1
 BYTE   W12
 BYTE   An0
 BYTE   N12  Gn1
 BYTE   W12
 BYTE   N24  Gn0
 BYTE   N24  As0
 BYTE   N12  Fs1
 BYTE   W12
 BYTE   N12
 BYTE   W12
 BYTE   N24  Gn0
 BYTE   N12  An0
 BYTE   N12  Dn1
 BYTE   W12
 BYTE   An0
 BYTE   N12  Cs1
 BYTE   N12  Dn1
 BYTE   N12  Ds1
 BYTE   W12
 BYTE   N24  Gn0
 BYTE   N12  Cs1
 BYTE   N12  Dn1
 BYTE   N12  Ds1
 BYTE   W12
 BYTE   Cs1
 BYTE   N12  Dn1
 BYTE   N12  Ds1
 BYTE   W12
//  #06 //047   ----------------------------------------
 BYTE   N96  Gs1
 BYTE   W96
//  #06 //048   ----------------------------------------
 BYTE   W96
//  #06 //049   ----------------------------------------
Label_01AF0A2D:
 BYTE   W48
 BYTE   N12  Cs1  v044
 BYTE   W12
 BYTE   N12
 BYTE   W12
 BYTE   N24
 BYTE   W24
 BYTE   PEND 
//  #06 //050   ----------------------------------------
 BYTE   W96
//  #06 //051   ----------------------------------------
 BYTE   PATT
  POIN2 Label_01AF0A2D
//  #06 //052   ----------------------------------------
 BYTE   W96
//  #06 //053   ----------------------------------------
 BYTE   PATT
  POIN2 Label_01AF0A2D
//  #06 //054   ----------------------------------------
 BYTE   W96
//  #06 //055   ----------------------------------------
 BYTE   W48
 BYTE   N12  Cs1  v044
 BYTE   W12
 BYTE   N12
 BYTE   W12
 BYTE   N12
 BYTE   W12
 BYTE   N12
 BYTE   W12
//  #06 //056   ----------------------------------------
Label_01AF0A4F:
 BYTE   N24  An0  v044
 BYTE   W48
 BYTE   N24
 BYTE   W48
 BYTE   PEND 
//  #06 //057   ----------------------------------------
 BYTE   PATT
  POIN2 Label_01AF0A4F
//  #06 //058   ----------------------------------------
Label_01AF0A5B:
 BYTE   N24  An0  v044
 BYTE   W24
 BYTE   N24
 BYTE   W24
 BYTE   N24
 BYTE   W24
 BYTE   N24
 BYTE   W24
 BYTE   PEND 
//  #06 //059   ----------------------------------------
 BYTE   PATT
  POIN2 Label_01AF0A5B
//  #06 //060   ----------------------------------------
Label_01AF0A6B:
 BYTE   N12  An0  v044
 BYTE   W12
 BYTE   N12
 BYTE   W12
 BYTE   N12
 BYTE   W12
 BYTE   N12
 BYTE   W12
 BYTE   N12
 BYTE   W12
 BYTE   N12
 BYTE   W12
 BYTE   N12
 BYTE   W12
 BYTE   N12
 BYTE   W12
 BYTE   PEND 
//  #06 //061   ----------------------------------------
 BYTE   PATT
  POIN2 Label_01AF0A6B
//  #06 //062   ----------------------------------------
 BYTE   N06  An0  v044
 BYTE   W06
 BYTE   N06
 BYTE   W06
 BYTE   N06
 BYTE   W06
 BYTE   N06
 BYTE   W06
 BYTE   N06
 BYTE   W06
 BYTE   N06
 BYTE   W06
 BYTE   N06
 BYTE   W06
 BYTE   N06
 BYTE   W06
 BYTE   N06
 BYTE   W06
 BYTE   N06
 BYTE   W06
 BYTE   N06
 BYTE   W06
 BYTE   N06
 BYTE   W06
 BYTE   N06
 BYTE   N12  Gn1
 BYTE   W06
 BYTE   N06  An0
 BYTE   W06
 BYTE   N06
 BYTE   N12  Gn1
 BYTE   W06
 BYTE   N06  An0
 BYTE   W06
//  #06 //063   ----------------------------------------
 BYTE   N24  Gn0
 BYTE   N12  Fs1
 BYTE   N12  Gn1
 BYTE   W12
 BYTE   Fs1
 BYTE   N12  Gn1
 BYTE   W12
 BYTE   N24  Gn0
 BYTE   N12  Fs1
 BYTE   W12
 BYTE   N12
 BYTE   W12
 BYTE   N24  Gn0
 BYTE   N12  Dn1
 BYTE   W12
 BYTE   N12
 BYTE   W12
 BYTE   N24  Gn0
 BYTE   N12  Dn1
 BYTE   N24  Gs1
 BYTE   W12
 BYTE   N12  Dn1
 BYTE   W12
//  #06 //064   ----------------------------------------
 BYTE   PATT
  POIN2 Label_01AF08FF
//  #06 //065   ----------------------------------------
 BYTE   N24  Gn0  v044
 BYTE   N24  Cs1
 BYTE   N12  Fs1
 BYTE   W12
 BYTE   N12
 BYTE   W12
 BYTE   N24  Gn0
 BYTE   N24  Ds1
 BYTE   N12  Fs1
 BYTE   W12
 BYTE   N12
 BYTE   W12
 BYTE   N24  Gn0
 BYTE   N12  Dn1
 BYTE   W12
 BYTE   Cs1
 BYTE   N12  Dn1
 BYTE   N12  Ds1
 BYTE   W12
 BYTE   N24  Gn0
 BYTE   N12  Cs1
 BYTE   N12  Ds1
 BYTE   W12
 BYTE   Cs1
 BYTE   N12  Ds1
 BYTE   N12  Gs1
 BYTE   W12
//  #06 //066   ----------------------------------------
 BYTE   N24  Gn0
 BYTE   N24  Cs1
 BYTE   N24  Gs1
 BYTE   W24
 BYTE   Gn0
 BYTE   N24  Ds1
 BYTE   W24
 BYTE   Gn0
 BYTE   N24  Cs1
 BYTE   W24
 BYTE   Gn0
 BYTE   N24  Ds1
 BYTE   W24
//  #06 //067   ----------------------------------------
 BYTE   PATT
  POIN2 Label_01AF0915
//  #06 //068   ----------------------------------------
 BYTE   PATT
  POIN2 Label_01AF093F
//  #06 //069   ----------------------------------------
 BYTE   PATT
  POIN2 Label_01AF0915
//  #06 //070   ----------------------------------------
 BYTE   PATT
  POIN2 Label_01AF093F
//  #06 //071   ----------------------------------------
 BYTE   N24  Gn0  v044
 BYTE   N24  An0
 BYTE   N24  Cs1
 BYTE   N12  Fs1
 BYTE   W12
 BYTE   N12
 BYTE   W12
 BYTE   N24  Gn0
 BYTE   N24  An0
 BYTE   N24  Ds1
 BYTE   N12  Fs1
 BYTE   W12
 BYTE   N12
 BYTE   W12
 BYTE   N24  Gn0
 BYTE   N24  An0
 BYTE   N12  Dn1
 BYTE   W12
 BYTE   Cs1
 BYTE   N12  Dn1
 BYTE   N12  Ds1
 BYTE   W12
 BYTE   N24  Gn0
 BYTE   N12  Cs1
 BYTE   N12  Ds1
 BYTE   W12
 BYTE   Cs1
 BYTE   N12  Ds1
 BYTE   W12
//  #06 //072   ----------------------------------------
 BYTE   PATT
  POIN2 Label_01AF08FF
//  #06 //073   ----------------------------------------
 BYTE   PATT
  POIN2 Label_01AF0915
//  #06 //074   ----------------------------------------
 BYTE   PATT
  POIN2 Label_01AF093F
//  #06 //075   ----------------------------------------
 BYTE   PATT
  POIN2 Label_01AF0915
//  #06 //076   ----------------------------------------
 BYTE   PATT
  POIN2 Label_01AF093F
//  #06 //077   ----------------------------------------
 BYTE   PATT
  POIN2 Label_01AF0915
//  #06 //078   ----------------------------------------
 BYTE   N24  Gn0  v044
 BYTE   N24  Cs1
 BYTE   W24
 BYTE   Gn0
 BYTE   N24  Ds1
 BYTE   W24
 BYTE   Gn0
 BYTE   N24  Cs1
 BYTE   W24
 BYTE   Gn0
 BYTE   N12  An0
 BYTE   N24  Ds1
 BYTE   N12  Gn1
 BYTE   W12
 BYTE   N12
 BYTE   W12
//  #06 //079   ----------------------------------------
 BYTE   N24  Gn0
 BYTE   N12  An0
 BYTE   N24  Cs1
 BYTE   N12  Fs1
 BYTE   N12  Gn1
 BYTE   W12
 BYTE   Fs1
 BYTE   N12  Gn1
 BYTE   W12
 BYTE   N24  Gn0
 BYTE   N12  An0
 BYTE   N24  Ds1
 BYTE   N12  Fs1
 BYTE   W12
 BYTE   N12
 BYTE   W12
 BYTE   N24  Gn0
 BYTE   N12  An0
 BYTE   N12  Dn1
 BYTE   W12
 BYTE   Cs1
 BYTE   N12  Dn1
 BYTE   N12  Ds1
 BYTE   W12
 BYTE   N24  Gn0
 BYTE   N12  An0
 BYTE   N12  Cs1
 BYTE   N12  Ds1
 BYTE   W12
 BYTE   Cs1
 BYTE   N12  Ds1
 BYTE   TIE  Gs1
 BYTE   W12
//  #06 //080   ----------------------------------------
 BYTE   W96
//  #06 //081   ----------------------------------------
 BYTE   EOT
 BYTE   W96
//  #06 //082   ----------------------------------------
 BYTE   W96
//  #06 //083   ----------------------------------------
 BYTE   W96
//  #06 //084   ----------------------------------------
 BYTE   W96
//  #06 //085   ----------------------------------------
 BYTE   W96
//  #06 //086   ----------------------------------------
 BYTE   W96
//  #06 //087   ----------------------------------------
 BYTE   GoTo
  POIN2 Label_01AF08C5
//  #06 //088   ----------------------------------------
 BYTE   W96
//  #06 //089   ----------------------------------------
 BYTE   W96
//  #06 //090   ----------------------------------------
 BYTE   W96
//  #06 //091   ----------------------------------------
 BYTE   W96
//  #06 //092   ----------------------------------------
 BYTE   W96
//  #06 //093   ----------------------------------------
 BYTE   W96
//  #06 //094   ----------------------------------------
 BYTE   W96
//  #06 //095   ----------------------------------------
 BYTE   W96
//  #06 //096   ----------------------------------------
 BYTE   W96
//  #06 //097   ----------------------------------------
 BYTE   W96
//  #06 //098   ----------------------------------------
 BYTE   W96
//  #06 //099   ----------------------------------------
 BYTE   W96
//  #06 //100   ----------------------------------------
 BYTE   W96
//  #06 //101   ----------------------------------------
 BYTE   W96
//  #06 //102   ----------------------------------------
 BYTE   W96
//  #06 //103   ----------------------------------------
 BYTE   W96
//  #06 //104   ----------------------------------------
 BYTE   W96
//  #06 //105   ----------------------------------------
 BYTE   W96
//  #06 //106   ----------------------------------------
 BYTE   W96
//  #06 //107   ----------------------------------------
 BYTE   W96
//  #06 //108   ----------------------------------------
 BYTE   W96
//  #06 //109   ----------------------------------------
 BYTE   W96
//  #06 //110   ----------------------------------------
 BYTE   W96
//  #06 //111   ----------------------------------------
 BYTE   W96
//  #06 //112   ----------------------------------------
 BYTE   W96
//  #06 //113   ----------------------------------------
 BYTE   W96
//  #06 //114   ----------------------------------------
 BYTE   W96
//  #06 //115   ----------------------------------------
 BYTE   W96
//  #06 //116   ----------------------------------------
 BYTE   W96
//  #06 //117   ----------------------------------------
 BYTE   W96
//  #06 //118   ----------------------------------------
 BYTE   W96
//  #06 //119   ----------------------------------------
 BYTE   W96
//  #06 //120   ----------------------------------------
 BYTE   W96
//  #06 //121   ----------------------------------------
 BYTE   W96
//  #06 //122   ----------------------------------------
 BYTE   W96
//  #06 //123   ----------------------------------------
 BYTE   W96
//  #06 //124   ----------------------------------------
 BYTE   W96
//  #06 //125   ----------------------------------------
 BYTE   W96
//  #06 //126   ----------------------------------------
 BYTE   W96
//  #06 //127   ----------------------------------------
 BYTE   W96
//  #06 //128   ----------------------------------------
 BYTE   W96
//  #06 //129   ----------------------------------------
 BYTE   W96
//  #06 //130   ----------------------------------------
 BYTE   W96
//  #06 //131   ----------------------------------------
 BYTE   W96
//  #06 //132   ----------------------------------------
 BYTE   W96
//  #06 //133   ----------------------------------------
 BYTE   W96
//  #06 //134   ----------------------------------------
 BYTE   W96
//  #06 //135   ----------------------------------------
 BYTE   W96
//  #06 //136   ----------------------------------------
 BYTE   W96
//  #06 //137   ----------------------------------------
 BYTE   W96
//  #06 //138   ----------------------------------------
 BYTE   W96
//  #06 //139   ----------------------------------------
 BYTE   W96
//  #06 //140   ----------------------------------------
 BYTE   W96
//  #06 //141   ----------------------------------------
 BYTE   W96
//  #06 //142   ----------------------------------------
 BYTE   W96
//  #06 //143   ----------------------------------------
 BYTE   W96
//  #06 //144   ----------------------------------------
 BYTE   W96
//  #06 //145   ----------------------------------------
 BYTE   W96
//  #06 //146   ----------------------------------------
 BYTE   W96
//  #06 //147   ----------------------------------------
 BYTE   W96
//  #06 //148   ----------------------------------------
 BYTE   W96
//  #06 //149   ----------------------------------------
 BYTE   W96
//  #06 //150   ----------------------------------------
 BYTE   W96
//  #06 //151   ----------------------------------------
 BYTE   W96
//  #06 //152   ----------------------------------------
 BYTE   W96
//  #06 //153   ----------------------------------------
 BYTE   W96
//  #06 //154   ----------------------------------------
 BYTE   W96
//  #06 //155   ----------------------------------------
 BYTE   W96
//  #06 //156   ----------------------------------------
 BYTE   W96
//  #06 //157   ----------------------------------------
 BYTE   W96
//  #06 //158   ----------------------------------------
 BYTE   W96
//  #06 //159   ----------------------------------------
 BYTE   W96
//  #06 //160   ----------------------------------------
 BYTE   W96
//  #06 //161   ----------------------------------------
 BYTE   W96
//  #06 //162   ----------------------------------------
 BYTE   W96
//  #06 //163   ----------------------------------------
 BYTE   W96
//  #06 //164   ----------------------------------------
 BYTE   W96
//  #06 //165   ----------------------------------------
 BYTE   W96
//  #06 //166   ----------------------------------------
 BYTE   W96
//  #06 //167   ----------------------------------------
 BYTE   W96
//  #06 //168   ----------------------------------------
 BYTE   W96
//  #06 //169   ----------------------------------------
 BYTE   W96
//  #06 //170   ----------------------------------------
 BYTE   W96
//  #06 //171   ----------------------------------------
 BYTE   W96
//  #06 //172   ----------------------------------------
 BYTE   W96
//  #06 //173   ----------------------------------------
 BYTE   W96
//  #06 //174   ----------------------------------------
 BYTE   W96
//  #06 //175   ----------------------------------------
 BYTE   W96
//  #06 //176   ----------------------------------------
 BYTE   W96
//  #06 //177   ----------------------------------------
 BYTE   W96
//  #06 //178   ----------------------------------------
 BYTE   W96
//  #06 //179   ----------------------------------------
 BYTE   W96
//  #06 //180   ----------------------------------------
 BYTE   W96
//  #06 //181   ----------------------------------------
 BYTE   W96
//  #06 //182   ----------------------------------------
 BYTE   W96
//  #06 //183   ----------------------------------------
 BYTE   W96
//  #06 //184   ----------------------------------------
 BYTE   W72
 BYTE   FINE

//**************** Track 7 (Midi-Chn.6) ****************//

Nonfiction_007:
//  #07 //000   ----------------------------------------
 BYTE   KEYSH   Nonfiction_key+0
 BYTE   VOICE   54
 BYTE   MODT 0
 BYTE   LFOS 44
 BYTE   VOL   68*Nonfiction_mvl/mxv
 BYTE   PAN   c_v+0
 BYTE   W96
//  #07 //001   ----------------------------------------
 BYTE   W96
//  #07 //002   ----------------------------------------
 BYTE   W96
//  #07 //003   ----------------------------------------
 BYTE   W96
//  #07 //004   ----------------------------------------
 BYTE   W96
//  #07 //005   ----------------------------------------
 BYTE   W96
//  #07 //006   ----------------------------------------
 BYTE   W96
//  #07 //007   ----------------------------------------
 BYTE   W96
//  #07 //008   ----------------------------------------
 BYTE   W96
//  #07 //009   ----------------------------------------
 BYTE   W96
//  #07 //010   ----------------------------------------
 BYTE   W96
//  #07 //011   ----------------------------------------
 BYTE   W96
//  #07 //012   ----------------------------------------
 BYTE   W96
//  #07 //013   ----------------------------------------
 BYTE   W96
//  #07 //014   ----------------------------------------
 BYTE   W96
//  #07 //015   ----------------------------------------
 BYTE   W96
//  #07 //016   ----------------------------------------
 BYTE   W96
//  #07 //017   ----------------------------------------
Label_01AF0C4D:
 BYTE   W72
 BYTE   N22  An3  v064
 BYTE   W24
//  #07 //018   ----------------------------------------
Label_01AF0C52:
 BYTE   N32  An3  v056
 BYTE   W01
 BYTE   Dn4
 BYTE   W01
 BYTE   Fn4  v068
 BYTE   W32
 BYTE   W02
 BYTE   N11  En4
 BYTE   W12
 BYTE   N32  Fn4
 BYTE   W36
 BYTE   N11  Gn4
 BYTE   W12
 BYTE   PEND 
//  #07 //019   ----------------------------------------
 BYTE   N22  En4
 BYTE   W24
 BYTE   N11  Fn4
 BYTE   W12
 BYTE   N22  En4
 BYTE   W24
 BYTE   Cn4
 BYTE   W24
 BYTE   N11
 BYTE   W12
//  #07 //020   ----------------------------------------
 BYTE   N22  Fn3  v056
 BYTE   N22  Dn4  v068
 BYTE   W24
 BYTE   N11  Dn4  v056
 BYTE   N11  An4  v068
 BYTE   W12
 BYTE   Dn4  v056
 BYTE   N56  An4  v068
 BYTE   W60
//  #07 //021   ----------------------------------------
Label_01AF0C87:
 BYTE   W72
 BYTE   N11  Dn4  v068
 BYTE   W12
 BYTE   En4
 BYTE   W12
 BYTE   PEND 
//  #07 //022   ----------------------------------------
 BYTE   PATT
  POIN2 Label_01AF0C52
//  #07 //023   ----------------------------------------
 BYTE   N22  En4  v068
 BYTE   W24
 BYTE   N11  Fn4
 BYTE   W12
 BYTE   N22  Gn4
 BYTE   W24
 BYTE   En4  v056
 BYTE   N22  Cn5  v068
 BYTE   W24
 BYTE   N11  En4  v056
 BYTE   N11  Cn5  v068
 BYTE   W12
//  #07 //024   ----------------------------------------
 BYTE   N23  Dn4  v056
 BYTE   W01
 BYTE   N22  Fn4
 BYTE   W01
 BYTE   N21  As4  v068
 BYTE   W22
 BYTE   N11  Cn4  v056
 BYTE   N11  An4  v068
 BYTE   W12
 BYTE   TIE  Cn4  v056
 BYTE   N56  An4  v068
 BYTE   W60
//  #07 //025   ----------------------------------------
 BYTE   W72
 BYTE   N22  Dn4
 BYTE   W24
//  #07 //026   ----------------------------------------
 BYTE   N32  As3  v056
 BYTE   W01
 BYTE   Dn4
 BYTE   W01
 BYTE   An4  v068
 BYTE   W32
 BYTE   W02
 BYTE   N11  Gn4
 BYTE   W12
 BYTE   N32  An4
 BYTE   W36
 BYTE   N11  Gn4
 BYTE   W12
//  #07 //027   ----------------------------------------
 BYTE   EOT
 BYTE   Cn4
 BYTE   N22  Cn4  v056
 BYTE   N22  En4
 BYTE   N22  Gn4  v068
 BYTE   W24
 BYTE   N11  An4
 BYTE   W12
 BYTE   N22  Cn5
 BYTE   W24
 BYTE   Fn4
 BYTE   W24
 BYTE   N11  En4
 BYTE   W12
//  #07 //028   ----------------------------------------
 BYTE   N22  Cn4  v056
 BYTE   N22  En4  v068
 BYTE   W24
 BYTE   N11  Fn4
 BYTE   W12
 BYTE   N22  En4  v056
 BYTE   N22  Gn4  v068
 BYTE   W24
 BYTE   N04  En4
 BYTE   W04
 BYTE   N06  Fn4
 BYTE   W08
 BYTE   N11  En4
 BYTE   W12
 BYTE   N56  Fn4
 BYTE   W12
//  #07 //029   ----------------------------------------
 BYTE   PATT
  POIN2 Label_01AF0C87
//  #07 //030   ----------------------------------------
 BYTE   N32  As3  v056
 BYTE   N32  Dn4
 BYTE   N32  Fn4  v068
 BYTE   W36
 BYTE   N11  En4
 BYTE   W12
 BYTE   N22  Fn4
 BYTE   W24
 BYTE   N11  Gn4
 BYTE   W12
 BYTE   N84  Cn4  v056
 BYTE   N11  En4  v068
 BYTE   W12
//  #07 //031   ----------------------------------------
 BYTE   N05  En4  v016
 BYTE   W12
 BYTE   En4  v024
 BYTE   W12
 BYTE   En4  v032
 BYTE   W12
 BYTE   En4  v040
 BYTE   W12
 BYTE   En4  v052
 BYTE   W12
 BYTE   En4  v064
 BYTE   W12
 BYTE   W24
//  #07 //032   ----------------------------------------
Label_01AF0D40:
 BYTE   W64
 BYTE   W01
 BYTE   W30
 BYTE   W01
 BYTE   PEND 
//  #07 //033   ----------------------------------------
 BYTE   PATT
  POIN2 Label_01AF0D40
//  #07 //034   ----------------------------------------
 BYTE   PATT
  POIN2 Label_01AF0D40
//  #07 //035   ----------------------------------------
 BYTE   PATT
  POIN2 Label_01AF0D40
//  #07 //036   ----------------------------------------
 BYTE   W96
//  #07 //037   ----------------------------------------
 BYTE   W96
//  #07 //038   ----------------------------------------
 BYTE   W96
//  #07 //039   ----------------------------------------
 BYTE   W96
//  #07 //040   ----------------------------------------
 BYTE   W96
//  #07 //041   ----------------------------------------
 BYTE   W96
//  #07 //042   ----------------------------------------
 BYTE   W96
//  #07 //043   ----------------------------------------
 BYTE   W96
//  #07 //044   ----------------------------------------
 BYTE   W96
//  #07 //045   ----------------------------------------
 BYTE   W96
//  #07 //046   ----------------------------------------
 BYTE   W96
//  #07 //047   ----------------------------------------
 BYTE   W96
//  #07 //048   ----------------------------------------
 BYTE   N11  Gn4  v048
 BYTE   W12
 BYTE   N80  Fn4
 BYTE   W12
 BYTE   N11  Cn5
 BYTE   W12
 BYTE   N22  An4
 BYTE   W24
 BYTE   N11  Gn4
 BYTE   W12
 BYTE   Cn5
 BYTE   W24
//  #07 //049   ----------------------------------------
 BYTE   W12
 BYTE   Gn4
 BYTE   W12
 BYTE   Fn5
 BYTE   W12
 BYTE   N22  En5
 BYTE   W24
 BYTE   N11  Cn5
 BYTE   W12
 BYTE   Gn4
 BYTE   W12
 BYTE   Fn4
 BYTE   W12
//  #07 //050   ----------------------------------------
 BYTE   N32  En4
 BYTE   W36
 BYTE   Fn4
 BYTE   W36
 BYTE   N22  Cn5
 BYTE   W24
//  #07 //051   ----------------------------------------
 BYTE   An4
 BYTE   W24
 BYTE   N11  Cn5
 BYTE   W12
 BYTE   N32  Fn4
 BYTE   W36
 BYTE   N22  Cn5
 BYTE   W24
//  #07 //052   ----------------------------------------
 BYTE   N11  An4
 BYTE   W12
 BYTE   Gn4
 BYTE   W12
 BYTE   Cn5
 BYTE   W12
 BYTE   N22  An4
 BYTE   W24
 BYTE   N11  Gn4
 BYTE   W12
 BYTE   Cn5
 BYTE   W24
//  #07 //053   ----------------------------------------
 BYTE   W12
 BYTE   Gn4
 BYTE   W12
 BYTE   Fn5
 BYTE   W12
 BYTE   N22  En5
 BYTE   W24
 BYTE   N11  Cn5
 BYTE   W12
 BYTE   Fn5
 BYTE   W12
 BYTE   Gn5
 BYTE   W12
//  #07 //054   ----------------------------------------
 BYTE   N22  Fn5
 BYTE   W24
 BYTE   En5
 BYTE   W24
 BYTE   Cn5
 BYTE   W24
 BYTE   N11  Dn5
 BYTE   W12
 BYTE   Cn5
 BYTE   W12
//  #07 //055   ----------------------------------------
 BYTE   N44  An4
 BYTE   W84
 BYTE   N03  Gn3  v076
 BYTE   W04
 BYTE   As3
 BYTE   W04
 BYTE   Dn4
 BYTE   W04
//  #07 //056   ----------------------------------------
 BYTE   W96
//  #07 //057   ----------------------------------------
 BYTE   N44  Cn4
 BYTE   N44  Gn4
 BYTE   W48
 BYTE   N22  Fn5
 BYTE   W24
 BYTE   An4
 BYTE   N22  Gn5
 BYTE   W24
//  #07 //058   ----------------------------------------
 BYTE   N44  An4
 BYTE   N44  Cn5
 BYTE   N44  Fn5
 BYTE   N44  An5
 BYTE   W48
 BYTE   N22  Cn5
 BYTE   W24
 BYTE   Dn5
 BYTE   W24
//  #07 //059   ----------------------------------------
 BYTE   Cn5  v080
 BYTE   N22  En5
 BYTE   N22  Cn6
 BYTE   W24
 BYTE   As4
 BYTE   N22  As5
 BYTE   W72
//  #07 //060   ----------------------------------------
 BYTE   W96
//  #07 //061   ----------------------------------------
 BYTE   N44  Gn4
 BYTE   N44  Gn5
 BYTE   W72
 BYTE   N22  Dn5  v096
 BYTE   N22  Dn6
 BYTE   W24
//  #07 //062   ----------------------------------------
 BYTE   N90  Cn5
 BYTE   N90  Cn6
 BYTE   W96
//  #07 //063   ----------------------------------------
 BYTE   W60
 BYTE   N05  An2  v056
 BYTE   N05  Cn3
 BYTE   W06
 BYTE   En2
 BYTE   W06
 BYTE   N11  An2
 BYTE   N11  Cn3
 BYTE   W24
//  #07 //064   ----------------------------------------
Label_01AF0E0E:
 BYTE   W12
 BYTE   N11  Dn2  v056
 BYTE   W12
 BYTE   N17  Fn2
 BYTE   N17  An2
 BYTE   N17  Dn3
 BYTE   W18
 BYTE   N05  Fn2
 BYTE   W06
 BYTE   N11  An1
 BYTE   N11  Dn2
 BYTE   W12
 BYTE   N11
 BYTE   W12
 BYTE   Fn2
 BYTE   N11  An2
 BYTE   N11  Dn3
 BYTE   W24
 BYTE   PEND 
//  #07 //065   ----------------------------------------
Label_01AF0E2B:
 BYTE   W12
 BYTE   N11  An1  v056
 BYTE   W12
 BYTE   En2
 BYTE   N11  Gn2
 BYTE   N11  Cn3
 BYTE   W12
 BYTE   N05  En2
 BYTE   W06
 BYTE   Cn2
 BYTE   W06
 BYTE   N11  An1
 BYTE   W12
 BYTE   En2
 BYTE   W12
 BYTE   N11
 BYTE   N11  Gn2
 BYTE   N11  Cn3
 BYTE   W24
 BYTE   PEND 
//  #07 //066   ----------------------------------------
Label_01AF0E47:
 BYTE   W12
 BYTE   N11  As1  v056
 BYTE   W12
 BYTE   N17  Fn2
 BYTE   N17  As2
 BYTE   N17  Dn3
 BYTE   W18
 BYTE   N05  Dn2
 BYTE   W06
 BYTE   N11  As1
 BYTE   W12
 BYTE   N11
 BYTE   W12
 BYTE   Fn2
 BYTE   N11  An2
 BYTE   N11  Dn3
 BYTE   W24
 BYTE   PEND 
//  #07 //067   ----------------------------------------
 BYTE   W12
 BYTE   Cn2
 BYTE   W12
 BYTE   Fn2
 BYTE   N11  An2
 BYTE   N11  Cn3
 BYTE   W12
 BYTE   N22  En2
 BYTE   N22  Gn2
 BYTE   N22  Cn3
 BYTE   W24
 BYTE   N11  En2
 BYTE   W12
 BYTE   N11
 BYTE   N11  Gn2
 BYTE   N11  Cn3
 BYTE   W24
//  #07 //068   ----------------------------------------
 BYTE   W12
 BYTE   Fn2
 BYTE   W12
 BYTE   An2
 BYTE   N11  Cn3
 BYTE   N11  Fn3
 BYTE   W12
 BYTE   N22  En2
 BYTE   N22  Gn2
 BYTE   N22  Cn3
 BYTE   W24
 BYTE   N11  En2
 BYTE   W12
 BYTE   N05
 BYTE   N05  Gn2
 BYTE   N05  Cn3
 BYTE   W06
 BYTE   Dn2
 BYTE   W18
//  #07 //069   ----------------------------------------
 BYTE   W12
 BYTE   N11  Fn2
 BYTE   W12
 BYTE   N11
 BYTE   N11  As2
 BYTE   N11  Dn3
 BYTE   W12
 BYTE   N05  Dn2
 BYTE   W06
 BYTE   As1
 BYTE   W06
 BYTE   N11  An1
 BYTE   W12
 BYTE   As1
 BYTE   N11  Fn2
 BYTE   N11  As2
 BYTE   W12
 BYTE   Dn2
 BYTE   N11  Fn2
 BYTE   N11  As2
 BYTE   W24
//  #07 //070   ----------------------------------------
 BYTE   W12
 BYTE   N05  Ds2
 BYTE   W06
 BYTE   As1
 BYTE   W06
 BYTE   N11  Ds2
 BYTE   N11  Gn2
 BYTE   N11  As2
 BYTE   W12
 BYTE   As1
 BYTE   W12
 BYTE   Ds2
 BYTE   N11  Gn2
 BYTE   N11  As2
 BYTE   W12
 BYTE   As1
 BYTE   W12
 BYTE   N05  Ds2
 BYTE   W06
 BYTE   As1
 BYTE   W06
 BYTE   N11  En2
 BYTE   N11  Gn2
 BYTE   N11  Cn3
 BYTE   W12
//  #07 //071   ----------------------------------------
 BYTE   Cn2
 BYTE   W12
 BYTE   En2
 BYTE   N11  Gn2
 BYTE   N11  Dn3
 BYTE   W12
 BYTE   N05  En2
 BYTE   W06
 BYTE   N02  Cn3
 BYTE   W06
 BYTE   N11  En2
 BYTE   N11  Gn2
 BYTE   N11  En3
 BYTE   W12
 BYTE   En2
 BYTE   W12
 BYTE   N05
 BYTE   N05  Gn2
 BYTE   W06
 BYTE   Cn2
 BYTE   W06
 BYTE   Gn2
 BYTE   W06
 BYTE   Cn3
 BYTE   W18
//  #07 //072   ----------------------------------------
 BYTE   PATT
  POIN2 Label_01AF0E0E
//  #07 //073   ----------------------------------------
 BYTE   PATT
  POIN2 Label_01AF0E2B
//  #07 //074   ----------------------------------------
 BYTE   PATT
  POIN2 Label_01AF0E47
//  #07 //075   ----------------------------------------
 BYTE   W12
 BYTE   N11  Cn2  v056
 BYTE   W12
 BYTE   Fn2
 BYTE   N11  An2
 BYTE   N11  Cn3
 BYTE   W12
 BYTE   N22  En2
 BYTE   N22  Gn2
 BYTE   N22  Cn3
 BYTE   W24
 BYTE   N05  En2
 BYTE   W06
 BYTE   Cn2
 BYTE   W06
 BYTE   N11  En2
 BYTE   N11  Gn2
 BYTE   N11  Cn3
 BYTE   W24
//  #07 //076   ----------------------------------------
 BYTE   W96
//  #07 //077   ----------------------------------------
 BYTE   W96
//  #07 //078   ----------------------------------------
 BYTE   W96
//  #07 //079   ----------------------------------------
 BYTE   W96
//  #07 //080   ----------------------------------------
 BYTE   W96
//  #07 //081   ----------------------------------------
 BYTE   W96
//  #07 //082   ----------------------------------------
 BYTE   W96
//  #07 //083   ----------------------------------------
 BYTE   W96
//  #07 //084   ----------------------------------------
 BYTE   W96
//  #07 //085   ----------------------------------------
 BYTE   W96
//  #07 //086   ----------------------------------------
 BYTE   W96
//  #07 //087   ----------------------------------------
 BYTE   GoTo
  POIN2 Label_01AF0C4D
//  #07 //088   ----------------------------------------
 BYTE   W96
//  #07 //089   ----------------------------------------
 BYTE   W96
//  #07 //090   ----------------------------------------
 BYTE   W96
//  #07 //091   ----------------------------------------
 BYTE   W96
//  #07 //092   ----------------------------------------
 BYTE   W96
//  #07 //093   ----------------------------------------
 BYTE   W96
//  #07 //094   ----------------------------------------
 BYTE   W96
//  #07 //095   ----------------------------------------
 BYTE   W96
//  #07 //096   ----------------------------------------
 BYTE   W96
//  #07 //097   ----------------------------------------
 BYTE   W96
//  #07 //098   ----------------------------------------
 BYTE   W96
//  #07 //099   ----------------------------------------
 BYTE   W96
//  #07 //100   ----------------------------------------
 BYTE   W96
//  #07 //101   ----------------------------------------
 BYTE   W96
//  #07 //102   ----------------------------------------
 BYTE   W96
//  #07 //103   ----------------------------------------
 BYTE   W96
//  #07 //104   ----------------------------------------
 BYTE   W96
//  #07 //105   ----------------------------------------
 BYTE   W96
//  #07 //106   ----------------------------------------
 BYTE   W96
//  #07 //107   ----------------------------------------
 BYTE   W96
//  #07 //108   ----------------------------------------
 BYTE   W96
//  #07 //109   ----------------------------------------
 BYTE   W96
//  #07 //110   ----------------------------------------
 BYTE   W96
//  #07 //111   ----------------------------------------
 BYTE   W96
//  #07 //112   ----------------------------------------
 BYTE   W96
//  #07 //113   ----------------------------------------
 BYTE   W96
//  #07 //114   ----------------------------------------
 BYTE   W96
//  #07 //115   ----------------------------------------
 BYTE   W96
//  #07 //116   ----------------------------------------
 BYTE   W96
//  #07 //117   ----------------------------------------
 BYTE   W96
//  #07 //118   ----------------------------------------
 BYTE   W96
//  #07 //119   ----------------------------------------
 BYTE   W96
//  #07 //120   ----------------------------------------
 BYTE   W96
//  #07 //121   ----------------------------------------
 BYTE   W96
//  #07 //122   ----------------------------------------
 BYTE   W96
//  #07 //123   ----------------------------------------
 BYTE   W96
//  #07 //124   ----------------------------------------
 BYTE   W96
//  #07 //125   ----------------------------------------
 BYTE   W96
//  #07 //126   ----------------------------------------
 BYTE   W96
//  #07 //127   ----------------------------------------
 BYTE   W96
//  #07 //128   ----------------------------------------
 BYTE   W96
//  #07 //129   ----------------------------------------
 BYTE   W96
//  #07 //130   ----------------------------------------
 BYTE   W96
//  #07 //131   ----------------------------------------
 BYTE   W96
//  #07 //132   ----------------------------------------
 BYTE   W96
//  #07 //133   ----------------------------------------
 BYTE   W96
//  #07 //134   ----------------------------------------
 BYTE   W96
//  #07 //135   ----------------------------------------
 BYTE   W96
//  #07 //136   ----------------------------------------
 BYTE   W96
//  #07 //137   ----------------------------------------
 BYTE   W96
//  #07 //138   ----------------------------------------
 BYTE   W96
//  #07 //139   ----------------------------------------
 BYTE   W96
//  #07 //140   ----------------------------------------
 BYTE   W96
//  #07 //141   ----------------------------------------
 BYTE   W96
//  #07 //142   ----------------------------------------
 BYTE   W96
//  #07 //143   ----------------------------------------
 BYTE   W96
//  #07 //144   ----------------------------------------
 BYTE   W96
//  #07 //145   ----------------------------------------
 BYTE   W96
//  #07 //146   ----------------------------------------
 BYTE   W96
//  #07 //147   ----------------------------------------
 BYTE   W96
//  #07 //148   ----------------------------------------
 BYTE   W96
//  #07 //149   ----------------------------------------
 BYTE   W96
//  #07 //150   ----------------------------------------
 BYTE   W96
//  #07 //151   ----------------------------------------
 BYTE   W96
//  #07 //152   ----------------------------------------
 BYTE   W96
//  #07 //153   ----------------------------------------
 BYTE   W96
//  #07 //154   ----------------------------------------
 BYTE   W96
//  #07 //155   ----------------------------------------
 BYTE   W96
//  #07 //156   ----------------------------------------
 BYTE   W96
//  #07 //157   ----------------------------------------
 BYTE   W96
//  #07 //158   ----------------------------------------
 BYTE   W96
//  #07 //159   ----------------------------------------
 BYTE   W96
//  #07 //160   ----------------------------------------
 BYTE   W96
//  #07 //161   ----------------------------------------
 BYTE   W96
//  #07 //162   ----------------------------------------
 BYTE   W96
//  #07 //163   ----------------------------------------
 BYTE   W96
//  #07 //164   ----------------------------------------
 BYTE   W96
//  #07 //165   ----------------------------------------
 BYTE   W96
//  #07 //166   ----------------------------------------
 BYTE   W96
//  #07 //167   ----------------------------------------
 BYTE   W96
//  #07 //168   ----------------------------------------
 BYTE   W96
//  #07 //169   ----------------------------------------
 BYTE   W96
//  #07 //170   ----------------------------------------
 BYTE   W96
//  #07 //171   ----------------------------------------
 BYTE   W96
//  #07 //172   ----------------------------------------
 BYTE   W96
//  #07 //173   ----------------------------------------
 BYTE   W96
//  #07 //174   ----------------------------------------
 BYTE   W96
//  #07 //175   ----------------------------------------
 BYTE   W96
//  #07 //176   ----------------------------------------
 BYTE   W96
//  #07 //177   ----------------------------------------
 BYTE   W96
//  #07 //178   ----------------------------------------
 BYTE   W96
//  #07 //179   ----------------------------------------
 BYTE   W96
//  #07 //180   ----------------------------------------
 BYTE   W96
//  #07 //181   ----------------------------------------
 BYTE   W96
//  #07 //182   ----------------------------------------
 BYTE   W96
//  #07 //183   ----------------------------------------
 BYTE   W96
//  #07 //184   ----------------------------------------
 BYTE   W72
 BYTE   FINE

//**************** Track 8 (Midi-Chn.7) ****************//

Nonfiction_008:
//  #08 //000   ----------------------------------------
 BYTE   KEYSH   Nonfiction_key+0
 BYTE   VOICE   47
 BYTE   MODT 0
 BYTE   LFOS 44
 BYTE   VOL   68*Nonfiction_mvl/mxv
 BYTE   W96
//  #08 //001   ----------------------------------------
 BYTE   W96
//  #08 //002   ----------------------------------------
 BYTE   W96
//  #08 //003   ----------------------------------------
 BYTE   W96
//  #08 //004   ----------------------------------------
 BYTE   W96
//  #08 //005   ----------------------------------------
 BYTE   W96
//  #08 //006   ----------------------------------------
 BYTE   W96
//  #08 //007   ----------------------------------------
 BYTE   W48
 BYTE   N24  Cn1  v044
 BYTE   W24
 BYTE   N24
 BYTE   W24
//  #08 //008   ----------------------------------------
 BYTE   N96
 BYTE   W96
//  #08 //009   ----------------------------------------
 BYTE   W96
//  #08 //010   ----------------------------------------
 BYTE   N24
 BYTE   W48
 BYTE   N48
 BYTE   W48
//  #08 //011   ----------------------------------------
 BYTE   W96
//  #08 //012   ----------------------------------------
 BYTE   W96
//  #08 //013   ----------------------------------------
 BYTE   W96
//  #08 //014   ----------------------------------------
 BYTE   W96
//  #08 //015   ----------------------------------------
 BYTE   W96
//  #08 //016   ----------------------------------------
 BYTE   W96
//  #08 //017   ----------------------------------------
Label_01AF0519:
 BYTE   W24
 BYTE   N24  Fs1  v044
 BYTE   W48
 BYTE   N24
 BYTE   W24
//  #08 //018   ----------------------------------------
 BYTE   N48
 BYTE   W96
//  #08 //019   ----------------------------------------
 BYTE   W96
//  #08 //020   ----------------------------------------
 BYTE   W96
//  #08 //021   ----------------------------------------
 BYTE   W96
//  #08 //022   ----------------------------------------
 BYTE   W96
//  #08 //023   ----------------------------------------
 BYTE   W96
//  #08 //024   ----------------------------------------
 BYTE   W96
//  #08 //025   ----------------------------------------
 BYTE   W96
//  #08 //026   ----------------------------------------
 BYTE   W96
//  #08 //027   ----------------------------------------
 BYTE   W96
//  #08 //028   ----------------------------------------
 BYTE   W96
//  #08 //029   ----------------------------------------
 BYTE   W96
//  #08 //030   ----------------------------------------
 BYTE   W48
 BYTE   N24  Dn1
 BYTE   N12  Cn2
 BYTE   W12
 BYTE   N12
 BYTE   W12
 BYTE   N24  En1
 BYTE   N12  Gn1
 BYTE   W12
 BYTE   N12
 BYTE   W12
//  #08 //031   ----------------------------------------
 BYTE   N24  Dn1
 BYTE   W24
 BYTE   En1
 BYTE   N12  Gn1
 BYTE   W12
 BYTE   Cn2
 BYTE   W12
 BYTE   N24  Dn1
 BYTE   N12  Gn1
 BYTE   W12
 BYTE   Cn2
 BYTE   W12
 BYTE   N24  En1
 BYTE   N12  Gn1
 BYTE   W12
 BYTE   Cn2
 BYTE   W12
//  #08 //032   ----------------------------------------
Label_01AF0553:
 BYTE   N24  Cn1  v044
 BYTE   N24  Fs1
 BYTE   N96  Cs2
 BYTE   W24
 BYTE   N24  Cn1
 BYTE   N24  Gs1
 BYTE   W24
 BYTE   Cn1
 BYTE   N24  Fs1
 BYTE   W24
 BYTE   Cn1
 BYTE   N24  Gs1
 BYTE   W24
 BYTE   PEND 
//  #08 //033   ----------------------------------------
Label_01AF0569:
 BYTE   N24  Cn1  v044
 BYTE   N24  Fs1
 BYTE   N12  Bn1
 BYTE   W12
 BYTE   N12
 BYTE   W12
 BYTE   N24  Cn1
 BYTE   N24  Gs1
 BYTE   N12  Bn1
 BYTE   W12
 BYTE   N12
 BYTE   W12
 BYTE   N24  Cn1
 BYTE   N12  Gn1
 BYTE   W12
 BYTE   Fs1
 BYTE   N12  Gn1
 BYTE   N12  Gs1
 BYTE   W12
 BYTE   N24  Cn1
 BYTE   N12  Fs1
 BYTE   N12  Gs1
 BYTE   W12
 BYTE   Fs1
 BYTE   N12  Gs1
 BYTE   W12
 BYTE   PEND 
//  #08 //034   ----------------------------------------
Label_01AF0593:
 BYTE   N24  Cn1  v044
 BYTE   N24  Fs1
 BYTE   W24
 BYTE   Cn1
 BYTE   N24  Gs1
 BYTE   W24
 BYTE   Cn1
 BYTE   N24  Fs1
 BYTE   W24
 BYTE   Cn1
 BYTE   N24  Gs1
 BYTE   W24
 BYTE   PEND 
//  #08 //035   ----------------------------------------
 BYTE   PATT
  POIN2 Label_01AF0569
//  #08 //036   ----------------------------------------
 BYTE   PATT
  POIN2 Label_01AF0593
//  #08 //037   ----------------------------------------
 BYTE   PATT
  POIN2 Label_01AF0569
//  #08 //038   ----------------------------------------
 BYTE   N24  Cn1  v044
 BYTE   N12  Dn1
 BYTE   N12  Cn2
 BYTE   W12
 BYTE   Dn1
 BYTE   N12  Gs1
 BYTE   N12  Cn2
 BYTE   W12
 BYTE   N24  Cn1
 BYTE   N12  En1
 BYTE   N12  Fs1
 BYTE   N12  Bn1
 BYTE   W12
 BYTE   En1
 BYTE   N12  Fs1
 BYTE   N12  Gs1
 BYTE   N12  Bn1
 BYTE   W12
 BYTE   N24  Cn1
 BYTE   N12  En1
 BYTE   N12  Fs1
 BYTE   N12  Gn1
 BYTE   W12
 BYTE   En1
 BYTE   N12  Fs1
 BYTE   N12  Gn1
 BYTE   N12  Gs1
 BYTE   W12
 BYTE   N24  Cn1
 BYTE   N12  Dn1
 BYTE   N12  En1
 BYTE   W12
 BYTE   Dn1
 BYTE   N12  En1
 BYTE   N12  Gs1
 BYTE   W12
//  #08 //039   ----------------------------------------
 BYTE   N24  Cn1
 BYTE   N24  En1
 BYTE   N24  Cn2
 BYTE   W24
 BYTE   Cn1
 BYTE   N12  Dn1
 BYTE   N24  En1
 BYTE   N24  Fs1
 BYTE   N24  Bn1
 BYTE   N24  Cn2
 BYTE   W12
 BYTE   N12  Dn1
 BYTE   W12
 BYTE   N24  Cn1
 BYTE   N24  En1
 BYTE   N24  Gn1
 BYTE   N24  Bn1
 BYTE   W24
 BYTE   Cn1
 BYTE   N24  En1
 BYTE   N24  Fs1
 BYTE   N24  Gn1
 BYTE   W24
//  #08 //040   ----------------------------------------
 BYTE   Cn1
 BYTE   N12  Dn1
 BYTE   N24  Fs1
 BYTE   N96  Cs2
 BYTE   W12
 BYTE   N12  Dn1
 BYTE   W12
 BYTE   N24  Cn1
 BYTE   N24  Gs1
 BYTE   W24
 BYTE   Cn1
 BYTE   N24  Fs1
 BYTE   W24
 BYTE   Cn1
 BYTE   N24  Gs1
 BYTE   W24
//  #08 //041   ----------------------------------------
 BYTE   PATT
  POIN2 Label_01AF0569
//  #08 //042   ----------------------------------------
 BYTE   PATT
  POIN2 Label_01AF0593
//  #08 //043   ----------------------------------------
 BYTE   PATT
  POIN2 Label_01AF0569
//  #08 //044   ----------------------------------------
 BYTE   PATT
  POIN2 Label_01AF0593
//  #08 //045   ----------------------------------------
 BYTE   PATT
  POIN2 Label_01AF0569
//  #08 //046   ----------------------------------------
 BYTE   N24  Cn1  v044
 BYTE   N12  Dn1
 BYTE   N12  Cn2
 BYTE   W12
 BYTE   Dn1
 BYTE   N12  Cn2
 BYTE   W12
 BYTE   N24  Cn1
 BYTE   N24  En1
 BYTE   N12  Bn1
 BYTE   W12
 BYTE   N12
 BYTE   W12
 BYTE   N24  Cn1
 BYTE   N12  Dn1
 BYTE   N12  Gn1
 BYTE   W12
 BYTE   Dn1
 BYTE   N12  Fs1
 BYTE   N12  Gn1
 BYTE   N12  Gs1
 BYTE   W12
 BYTE   N24  Cn1
 BYTE   N12  Fs1
 BYTE   N12  Gn1
 BYTE   N12  Gs1
 BYTE   W12
 BYTE   Fs1
 BYTE   N12  Gn1
 BYTE   N12  Gs1
 BYTE   W12
//  #08 //047   ----------------------------------------
 BYTE   N96  Cs2
 BYTE   W96
//  #08 //048   ----------------------------------------
 BYTE   W96
//  #08 //049   ----------------------------------------
Label_01AF0681:
 BYTE   W48
 BYTE   N12  Fs1  v044
 BYTE   W12
 BYTE   N12
 BYTE   W12
 BYTE   N24
 BYTE   W24
 BYTE   PEND 
//  #08 //050   ----------------------------------------
 BYTE   W96
//  #08 //051   ----------------------------------------
 BYTE   PATT
  POIN2 Label_01AF0681
//  #08 //052   ----------------------------------------
 BYTE   W96
//  #08 //053   ----------------------------------------
 BYTE   PATT
  POIN2 Label_01AF0681
//  #08 //054   ----------------------------------------
 BYTE   W96
//  #08 //055   ----------------------------------------
 BYTE   W48
 BYTE   N12  Fs1  v044
 BYTE   W12
 BYTE   N12
 BYTE   W12
 BYTE   N12
 BYTE   W12
 BYTE   N12
 BYTE   W12
//  #08 //056   ----------------------------------------
Label_01AF06A3:
 BYTE   N24  Dn1  v044
 BYTE   W48
 BYTE   N24
 BYTE   W48
 BYTE   PEND 
//  #08 //057   ----------------------------------------
 BYTE   PATT
  POIN2 Label_01AF06A3
//  #08 //058   ----------------------------------------
Label_01AF06AF:
 BYTE   N24  Dn1  v044
 BYTE   W24
 BYTE   N24
 BYTE   W24
 BYTE   N24
 BYTE   W24
 BYTE   N24
 BYTE   W24
 BYTE   PEND 
//  #08 //059   ----------------------------------------
 BYTE   PATT
  POIN2 Label_01AF06AF
//  #08 //060   ----------------------------------------
Label_01AF06BF:
 BYTE   N12  Dn1  v044
 BYTE   W12
 BYTE   N12
 BYTE   W12
 BYTE   N12
 BYTE   W12
 BYTE   N12
 BYTE   W12
 BYTE   N12
 BYTE   W12
 BYTE   N12
 BYTE   W12
 BYTE   N12
 BYTE   W12
 BYTE   N12
 BYTE   W12
 BYTE   PEND 
//  #08 //061   ----------------------------------------
 BYTE   PATT
  POIN2 Label_01AF06BF
//  #08 //062   ----------------------------------------
 BYTE   N06  Dn1  v044
 BYTE   W06
 BYTE   N06
 BYTE   W06
 BYTE   N06
 BYTE   W06
 BYTE   N06
 BYTE   W06
 BYTE   N06
 BYTE   W06
 BYTE   N06
 BYTE   W06
 BYTE   N06
 BYTE   W06
 BYTE   N06
 BYTE   W06
 BYTE   N06
 BYTE   W06
 BYTE   N06
 BYTE   W06
 BYTE   N06
 BYTE   W06
 BYTE   N06
 BYTE   W06
 BYTE   N06
 BYTE   N12  Cn2
 BYTE   W06
 BYTE   N06  Dn1
 BYTE   W06
 BYTE   N06
 BYTE   N12  Cn2
 BYTE   W06
 BYTE   N06  Dn1
 BYTE   W06
//  #08 //063   ----------------------------------------
 BYTE   N24  Cn1
 BYTE   N12  Bn1
 BYTE   N12  Cn2
 BYTE   W12
 BYTE   Bn1
 BYTE   N12  Cn2
 BYTE   W12
 BYTE   N24  Cn1
 BYTE   N12  Bn1
 BYTE   W12
 BYTE   N12
 BYTE   W12
 BYTE   N24  Cn1
 BYTE   N12  Gn1
 BYTE   W12
 BYTE   N12
 BYTE   W12
 BYTE   N24  Cn1
 BYTE   N12  Gn1
 BYTE   N24  Cs2
 BYTE   W12
 BYTE   N12  Gn1
 BYTE   W12
//  #08 //064   ----------------------------------------
 BYTE   PATT
  POIN2 Label_01AF0553
//  #08 //065   ----------------------------------------
 BYTE   N24  Cn1  v044
 BYTE   N24  Fs1
 BYTE   N12  Bn1
 BYTE   W12
 BYTE   N12
 BYTE   W12
 BYTE   N24  Cn1
 BYTE   N24  Gs1
 BYTE   N12  Bn1
 BYTE   W12
 BYTE   N12
 BYTE   W12
 BYTE   N24  Cn1
 BYTE   N12  Gn1
 BYTE   W12
 BYTE   Fs1
 BYTE   N12  Gn1
 BYTE   N12  Gs1
 BYTE   W12
 BYTE   N24  Cn1
 BYTE   N12  Fs1
 BYTE   N12  Gs1
 BYTE   W12
 BYTE   Fs1
 BYTE   N12  Gs1
 BYTE   N12  Cs2
 BYTE   W12
//  #08 //066   ----------------------------------------
 BYTE   N24  Cn1
 BYTE   N24  Fs1
 BYTE   N24  Cs2
 BYTE   W24
 BYTE   Cn1
 BYTE   N24  Gs1
 BYTE   W24
 BYTE   Cn1
 BYTE   N24  Fs1
 BYTE   W24
 BYTE   Cn1
 BYTE   N24  Gs1
 BYTE   W24
//  #08 //067   ----------------------------------------
 BYTE   PATT
  POIN2 Label_01AF0569
//  #08 //068   ----------------------------------------
 BYTE   PATT
  POIN2 Label_01AF0593
//  #08 //069   ----------------------------------------
 BYTE   PATT
  POIN2 Label_01AF0569
//  #08 //070   ----------------------------------------
 BYTE   PATT
  POIN2 Label_01AF0593
//  #08 //071   ----------------------------------------
 BYTE   N24  Cn1  v044
 BYTE   N24  Dn1
 BYTE   N24  Fs1
 BYTE   N12  Bn1
 BYTE   W12
 BYTE   N12
 BYTE   W12
 BYTE   N24  Cn1
 BYTE   N24  Dn1
 BYTE   N24  Gs1
 BYTE   N12  Bn1
 BYTE   W12
 BYTE   N12
 BYTE   W12
 BYTE   N24  Cn1
 BYTE   N24  Dn1
 BYTE   N12  Gn1
 BYTE   W12
 BYTE   Fs1
 BYTE   N12  Gn1
 BYTE   N12  Gs1
 BYTE   W12
 BYTE   N24  Cn1
 BYTE   N12  Fs1
 BYTE   N12  Gs1
 BYTE   W12
 BYTE   Fs1
 BYTE   N12  Gs1
 BYTE   W12
//  #08 //072   ----------------------------------------
 BYTE   PATT
  POIN2 Label_01AF0553
//  #08 //073   ----------------------------------------
 BYTE   PATT
  POIN2 Label_01AF0569
//  #08 //074   ----------------------------------------
 BYTE   PATT
  POIN2 Label_01AF0593
//  #08 //075   ----------------------------------------
 BYTE   PATT
  POIN2 Label_01AF0569
//  #08 //076   ----------------------------------------
 BYTE   PATT
  POIN2 Label_01AF0593
//  #08 //077   ----------------------------------------
 BYTE   PATT
  POIN2 Label_01AF0569
//  #08 //078   ----------------------------------------
 BYTE   N24  Cn1  v044
 BYTE   N24  Fs1
 BYTE   W24
 BYTE   Cn1
 BYTE   N24  Gs1
 BYTE   W24
 BYTE   Cn1
 BYTE   N24  Fs1
 BYTE   W24
 BYTE   Cn1
 BYTE   N12  Dn1
 BYTE   N24  Gs1
 BYTE   N12  Cn2
 BYTE   W12
 BYTE   N12
 BYTE   W12
//  #08 //079   ----------------------------------------
 BYTE   N24  Cn1
 BYTE   N12  Dn1
 BYTE   N24  Fs1
 BYTE   N12  Bn1
 BYTE   N12  Cn2
 BYTE   W12
 BYTE   Bn1
 BYTE   N12  Cn2
 BYTE   W12
 BYTE   N24  Cn1
 BYTE   N12  Dn1
 BYTE   N24  Gs1
 BYTE   N12  Bn1
 BYTE   W12
 BYTE   N12
 BYTE   W12
 BYTE   N24  Cn1
 BYTE   N12  Dn1
 BYTE   N12  Gn1
 BYTE   W12
 BYTE   Fs1
 BYTE   N12  Gn1
 BYTE   N12  Gs1
 BYTE   W12
 BYTE   N24  Cn1
 BYTE   N12  Dn1
 BYTE   N12  Fs1
 BYTE   N12  Gs1
 BYTE   W12
 BYTE   Fs1
 BYTE   N12  Gs1
 BYTE   TIE  Cs2
 BYTE   W12
//  #08 //080   ----------------------------------------
 BYTE   W96
//  #08 //081   ----------------------------------------
 BYTE   EOT
 BYTE   W96
//  #08 //082   ----------------------------------------
 BYTE   W96
//  #08 //083   ----------------------------------------
 BYTE   W96
//  #08 //084   ----------------------------------------
 BYTE   W96
//  #08 //085   ----------------------------------------
 BYTE   W96
//  #08 //086   ----------------------------------------
 BYTE   W96
//  #08 //087   ----------------------------------------
 BYTE   GoTo
  POIN2 Label_01AF0519
//  #08 //088   ----------------------------------------
 BYTE   W96
//  #08 //089   ----------------------------------------
 BYTE   W96
//  #08 //090   ----------------------------------------
 BYTE   W96
//  #08 //091   ----------------------------------------
 BYTE   W96
//  #08 //092   ----------------------------------------
 BYTE   W96
//  #08 //093   ----------------------------------------
 BYTE   W96
//  #08 //094   ----------------------------------------
 BYTE   W96
//  #08 //095   ----------------------------------------
 BYTE   W96
//  #08 //096   ----------------------------------------
 BYTE   W96
//  #08 //097   ----------------------------------------
 BYTE   W96
//  #08 //098   ----------------------------------------
 BYTE   W96
//  #08 //099   ----------------------------------------
 BYTE   W96
//  #08 //100   ----------------------------------------
 BYTE   W96
//  #08 //101   ----------------------------------------
 BYTE   W96
//  #08 //102   ----------------------------------------
 BYTE   W96
//  #08 //103   ----------------------------------------
 BYTE   W96
//  #08 //104   ----------------------------------------
 BYTE   W96
//  #08 //105   ----------------------------------------
 BYTE   W96
//  #08 //106   ----------------------------------------
 BYTE   W96
//  #08 //107   ----------------------------------------
 BYTE   W96
//  #08 //108   ----------------------------------------
 BYTE   W96
//  #08 //109   ----------------------------------------
 BYTE   W96
//  #08 //110   ----------------------------------------
 BYTE   W96
//  #08 //111   ----------------------------------------
 BYTE   W96
//  #08 //112   ----------------------------------------
 BYTE   W96
//  #08 //113   ----------------------------------------
 BYTE   W96
//  #08 //114   ----------------------------------------
 BYTE   W96
//  #08 //115   ----------------------------------------
 BYTE   W96
//  #08 //116   ----------------------------------------
 BYTE   W96
//  #08 //117   ----------------------------------------
 BYTE   W96
//  #08 //118   ----------------------------------------
 BYTE   W96
//  #08 //119   ----------------------------------------
 BYTE   W96
//  #08 //120   ----------------------------------------
 BYTE   W96
//  #08 //121   ----------------------------------------
 BYTE   W96
//  #08 //122   ----------------------------------------
 BYTE   W96
//  #08 //123   ----------------------------------------
 BYTE   W96
//  #08 //124   ----------------------------------------
 BYTE   W96
//  #08 //125   ----------------------------------------
 BYTE   W96
//  #08 //126   ----------------------------------------
 BYTE   W96
//  #08 //127   ----------------------------------------
 BYTE   W96
//  #08 //128   ----------------------------------------
 BYTE   W96
//  #08 //129   ----------------------------------------
 BYTE   W96
//  #08 //130   ----------------------------------------
 BYTE   W96
//  #08 //131   ----------------------------------------
 BYTE   W96
//  #08 //132   ----------------------------------------
 BYTE   W96
//  #08 //133   ----------------------------------------
 BYTE   W96
//  #08 //134   ----------------------------------------
 BYTE   W96
//  #08 //135   ----------------------------------------
 BYTE   W96
//  #08 //136   ----------------------------------------
 BYTE   W96
//  #08 //137   ----------------------------------------
 BYTE   W96
//  #08 //138   ----------------------------------------
 BYTE   W96
//  #08 //139   ----------------------------------------
 BYTE   W96
//  #08 //140   ----------------------------------------
 BYTE   W96
//  #08 //141   ----------------------------------------
 BYTE   W96
//  #08 //142   ----------------------------------------
 BYTE   W96
//  #08 //143   ----------------------------------------
 BYTE   W96
//  #08 //144   ----------------------------------------
 BYTE   W96
//  #08 //145   ----------------------------------------
 BYTE   W96
//  #08 //146   ----------------------------------------
 BYTE   W96
//  #08 //147   ----------------------------------------
 BYTE   W96
//  #08 //148   ----------------------------------------
 BYTE   W96
//  #08 //149   ----------------------------------------
 BYTE   W96
//  #08 //150   ----------------------------------------
 BYTE   W96
//  #08 //151   ----------------------------------------
 BYTE   W96
//  #08 //152   ----------------------------------------
 BYTE   W96
//  #08 //153   ----------------------------------------
 BYTE   W96
//  #08 //154   ----------------------------------------
 BYTE   W96
//  #08 //155   ----------------------------------------
 BYTE   W96
//  #08 //156   ----------------------------------------
 BYTE   W96
//  #08 //157   ----------------------------------------
 BYTE   W96
//  #08 //158   ----------------------------------------
 BYTE   W96
//  #08 //159   ----------------------------------------
 BYTE   W96
//  #08 //160   ----------------------------------------
 BYTE   W96
//  #08 //161   ----------------------------------------
 BYTE   W96
//  #08 //162   ----------------------------------------
 BYTE   W96
//  #08 //163   ----------------------------------------
 BYTE   W96
//  #08 //164   ----------------------------------------
 BYTE   W96
//  #08 //165   ----------------------------------------
 BYTE   W96
//  #08 //166   ----------------------------------------
 BYTE   W96
//  #08 //167   ----------------------------------------
 BYTE   W96
//  #08 //168   ----------------------------------------
 BYTE   W96
//  #08 //169   ----------------------------------------
 BYTE   W96
//  #08 //170   ----------------------------------------
 BYTE   W96
//  #08 //171   ----------------------------------------
 BYTE   W96
//  #08 //172   ----------------------------------------
 BYTE   W96
//  #08 //173   ----------------------------------------
 BYTE   W96
//  #08 //174   ----------------------------------------
 BYTE   W96
//  #08 //175   ----------------------------------------
 BYTE   W96
//  #08 //176   ----------------------------------------
 BYTE   W96
//  #08 //177   ----------------------------------------
 BYTE   W96
//  #08 //178   ----------------------------------------
 BYTE   W96
//  #08 //179   ----------------------------------------
 BYTE   W96
//  #08 //180   ----------------------------------------
 BYTE   W96
//  #08 //181   ----------------------------------------
 BYTE   W96
//  #08 //182   ----------------------------------------
 BYTE   W96
//  #08 //183   ----------------------------------------
 BYTE   W96
//  #08 //184   ----------------------------------------
 BYTE   W72
 BYTE   FINE

//**************** Track 9 (Midi-Chn.8) ****************//

Nonfiction_009:
//  #09 //000   ----------------------------------------
 BYTE   VOL   80*Nonfiction_mvl/mxv
 BYTE   KEYSH   Nonfiction_key+0
 BYTE   VOICE   122
 BYTE   MODT 0
 BYTE   LFOS 44
 BYTE   W96
//  #09 //001   ----------------------------------------
 BYTE   W96
//  #09 //002   ----------------------------------------
 BYTE   W96
//  #09 //003   ----------------------------------------
 BYTE   W96
//  #09 //004   ----------------------------------------
 BYTE   W96
//  #09 //005   ----------------------------------------
 BYTE   W96
//  #09 //006   ----------------------------------------
 BYTE   W96
//  #09 //007   ----------------------------------------
 BYTE   W96
//  #09 //008   ----------------------------------------
 BYTE   W96
//  #09 //009   ----------------------------------------
 BYTE   W96
//  #09 //010   ----------------------------------------
 BYTE   W96
//  #09 //011   ----------------------------------------
 BYTE   W96
//  #09 //012   ----------------------------------------
 BYTE   W96
//  #09 //013   ----------------------------------------
 BYTE   W96
//  #09 //014   ----------------------------------------
 BYTE   W96
//  #09 //015   ----------------------------------------
 BYTE   W96
//  #09 //016   ----------------------------------------
 BYTE   W96
//  #09 //017   ----------------------------------------
Label_01C70EBB:
 BYTE   N24  Fs1  v044
 BYTE   W48
 BYTE   N24
 BYTE   W24
 BYTE   N24
 BYTE   W24
//  #09 //018   ----------------------------------------
 BYTE   W96
//  #09 //019   ----------------------------------------
 BYTE   W96
//  #09 //020   ----------------------------------------
 BYTE   W96
//  #09 //021   ----------------------------------------
 BYTE   W96
//  #09 //022   ----------------------------------------
 BYTE   W96
//  #09 //023   ----------------------------------------
 BYTE   W96
//  #09 //024   ----------------------------------------
 BYTE   W96
//  #09 //025   ----------------------------------------
 BYTE   W96
//  #09 //026   ----------------------------------------
 BYTE   W96
//  #09 //027   ----------------------------------------
 BYTE   W96
//  #09 //028   ----------------------------------------
 BYTE   W96
//  #09 //029   ----------------------------------------
Label_01C70ECE:
 BYTE   N24  Fs1  v044
 BYTE   W24
 BYTE   N24
 BYTE   W24
 BYTE   N24
 BYTE   W24
 BYTE   N24
 BYTE   W24
 BYTE   PEND 
//  #09 //030   ----------------------------------------
 BYTE   PATT
  POIN2 Label_01C70ECE
//  #09 //031   ----------------------------------------
 BYTE   N24  Fs1  v044
 BYTE   N12  Dn2
 BYTE   W12
 BYTE   N12
 BYTE   W12
 BYTE   Fs1
 BYTE   N12  Cn2
 BYTE   N12  Dn2
 BYTE   W12
 BYTE   Fs1
 BYTE   N12  Cn2
 BYTE   W12
 BYTE   Fs1
 BYTE   N12  Cn2
 BYTE   W12
 BYTE   Fs1
 BYTE   N12  Bn1
 BYTE   W12
 BYTE   Fs1
 BYTE   N12  Bn1
 BYTE   W12
 BYTE   Fs1
 BYTE   N12  Bn1
 BYTE   W12
//  #09 //032   ----------------------------------------
Label_01C70F00:
 BYTE   N24  Cn1  v044
 BYTE   W24
 BYTE   Dn1
 BYTE   W24
 BYTE   N12  Cn1
 BYTE   W12
 BYTE   N12
 BYTE   W12
 BYTE   N24  Dn1
 BYTE   W24
 BYTE   PEND 
//  #09 //033   ----------------------------------------
Label_01C70F0F:
 BYTE   N24  Cn1  v044
 BYTE   W24
 BYTE   N12  Dn1
 BYTE   W12
 BYTE   N12
 BYTE   W12
 BYTE   N24  Cn1
 BYTE   W24
 BYTE   Dn1
 BYTE   W24
 BYTE   PEND 
//  #09 //034   ----------------------------------------
 BYTE   PATT
  POIN2 Label_01C70F00
//  #09 //035   ----------------------------------------
 BYTE   PATT
  POIN2 Label_01C70F0F
//  #09 //036   ----------------------------------------
 BYTE   PATT
  POIN2 Label_01C70F00
//  #09 //037   ----------------------------------------
 BYTE   PATT
  POIN2 Label_01C70F0F
//  #09 //038   ----------------------------------------
 BYTE   N24  Cn1  v044
 BYTE   N12  Dn2
 BYTE   W12
 BYTE   N12
 BYTE   W12
 BYTE   N24  Cn1
 BYTE   N12  Cn2
 BYTE   N12  Dn2
 BYTE   W12
 BYTE   Cn2
 BYTE   W12
 BYTE   N24  Cn1
 BYTE   N12  Bn1
 BYTE   N12  Cn2
 BYTE   N12  Dn2
 BYTE   W12
 BYTE   Bn1
 BYTE   W12
 BYTE   N24  Cn1
 BYTE   N12  Bn1
 BYTE   W12
 BYTE   N12
 BYTE   W12
//  #09 //039   ----------------------------------------
 BYTE   N24  Cn1
 BYTE   N24  Cn2
 BYTE   W24
 BYTE   Cn1
 BYTE   N24  Cn2
 BYTE   W24
 BYTE   Cn1
 BYTE   N24  Cn2
 BYTE   W24
 BYTE   Cn1
 BYTE   N24  Cn2
 BYTE   W24
//  #09 //040   ----------------------------------------
 BYTE   Cn1
 BYTE   N24  Cs2
 BYTE   W24
 BYTE   Dn1
 BYTE   W24
 BYTE   N12  Cn1
 BYTE   W12
 BYTE   N12
 BYTE   W12
 BYTE   N24  Dn1
 BYTE   W24
//  #09 //041   ----------------------------------------
 BYTE   PATT
  POIN2 Label_01C70F0F
//  #09 //042   ----------------------------------------
 BYTE   PATT
  POIN2 Label_01C70F00
//  #09 //043   ----------------------------------------
 BYTE   PATT
  POIN2 Label_01C70F0F
//  #09 //044   ----------------------------------------
 BYTE   PATT
  POIN2 Label_01C70F00
//  #09 //045   ----------------------------------------
 BYTE   PATT
  POIN2 Label_01C70F0F
//  #09 //046   ----------------------------------------
 BYTE   PATT
  POIN2 Label_01C70F00
//  #09 //047   ----------------------------------------
 BYTE   N24  Cn1  v044
 BYTE   N12  Dn2
 BYTE   W12
 BYTE   N12
 BYTE   W12
 BYTE   N24  Cn1
 BYTE   N12  Cn2
 BYTE   N12  Dn2
 BYTE   W12
 BYTE   Bn1
 BYTE   N12  Cn2
 BYTE   W12
 BYTE   Cn1
 BYTE   N12  Bn1
 BYTE   N12  Cn2
 BYTE   W12
 BYTE   Cn1
 BYTE   N12  Bn1
 BYTE   W12
 BYTE   Cn1
 BYTE   W12
 BYTE   N12
 BYTE   W12
//  #09 //048   ----------------------------------------
Label_01C70FB3:
 BYTE   N12  Ds2  v044
 BYTE   W12
 BYTE   N24  Fs1
 BYTE   W24
 BYTE   N12  Ds2
 BYTE   W12
 BYTE   N12
 BYTE   W12
 BYTE   N24  Fs1
 BYTE   W24
 BYTE   N12  Ds2
 BYTE   W12
 BYTE   PEND 
//  #09 //049   ----------------------------------------
 BYTE   PATT
  POIN2 Label_01C70FB3
//  #09 //050   ----------------------------------------
 BYTE   PATT
  POIN2 Label_01C70FB3
//  #09 //051   ----------------------------------------
 BYTE   PATT
  POIN2 Label_01C70FB3
//  #09 //052   ----------------------------------------
 BYTE   PATT
  POIN2 Label_01C70FB3
//  #09 //053   ----------------------------------------
 BYTE   PATT
  POIN2 Label_01C70FB3
//  #09 //054   ----------------------------------------
 BYTE   PATT
  POIN2 Label_01C70FB3
//  #09 //055   ----------------------------------------
 BYTE   N12  Ds2  v044
 BYTE   W12
 BYTE   N24  Fs1
 BYTE   W24
 BYTE   N12  Ds2
 BYTE   W06
 BYTE   Fs1
 BYTE   W06
 BYTE   Ds2
 BYTE   W24
 BYTE   Fs1
 BYTE   W12
 BYTE   Ds2
 BYTE   W12
//  #09 //056   ----------------------------------------
Label_01C70FF6:
 BYTE   N12  Cn1  v044
 BYTE   W12
 BYTE   N12
 BYTE   W12
 BYTE   N12
 BYTE   W12
 BYTE   N12
 BYTE   W12
 BYTE   N12
 BYTE   W12
 BYTE   N12
 BYTE   W12
 BYTE   N12
 BYTE   W12
 BYTE   N12
 BYTE   W12
 BYTE   PEND 
//  #09 //057   ----------------------------------------
 BYTE   PATT
  POIN2 Label_01C70FF6
//  #09 //058   ----------------------------------------
 BYTE   PATT
  POIN2 Label_01C70FF6
//  #09 //059   ----------------------------------------
 BYTE   PATT
  POIN2 Label_01C70FF6
//  #09 //060   ----------------------------------------
 BYTE   PATT
  POIN2 Label_01C70FF6
//  #09 //061   ----------------------------------------
 BYTE   PATT
  POIN2 Label_01C70FF6
//  #09 //062   ----------------------------------------
 BYTE   PATT
  POIN2 Label_01C70FF6
//  #09 //063   ----------------------------------------
 BYTE   N12  Dn2  v044
 BYTE   W12
 BYTE   N12
 BYTE   W12
 BYTE   N12
 BYTE   W12
 BYTE   Cn2
 BYTE   N12  Dn2
 BYTE   W12
 BYTE   Bn1
 BYTE   N12  Cn2
 BYTE   W12
 BYTE   Bn1
 BYTE   N12  Cn2
 BYTE   W12
 BYTE   Bn1
 BYTE   N12  Cn2
 BYTE   W12
 BYTE   Bn1
 BYTE   W12
//  #09 //064   ----------------------------------------
Label_01C71041:
 BYTE   N12  Cn1  v044
 BYTE   W12
 BYTE   N12
 BYTE   W12
 BYTE   N24  Dn1
 BYTE   W24
 BYTE   Cn1
 BYTE   W24
 BYTE   Dn1
 BYTE   W24
 BYTE   PEND 
//  #09 //065   ----------------------------------------
 BYTE   PATT
  POIN2 Label_01C70F0F
//  #09 //066   ----------------------------------------
 BYTE   PATT
  POIN2 Label_01C71041
//  #09 //067   ----------------------------------------
 BYTE   PATT
  POIN2 Label_01C70F0F
//  #09 //068   ----------------------------------------
 BYTE   PATT
  POIN2 Label_01C71041
//  #09 //069   ----------------------------------------
 BYTE   PATT
  POIN2 Label_01C70F0F
//  #09 //070   ----------------------------------------
 BYTE   PATT
  POIN2 Label_01C71041
//  #09 //071   ----------------------------------------
 BYTE   N24  Cn1  v044
 BYTE   N12  Dn1
 BYTE   W12
 BYTE   As1
 BYTE   W12
 BYTE   Dn1
 BYTE   W12
 BYTE   As1
 BYTE   W12
 BYTE   N24  Cn1
 BYTE   N12  Dn1
 BYTE   W12
 BYTE   As1
 BYTE   W12
 BYTE   N24  Dn1
 BYTE   N48  Cs2
 BYTE   W24
//  #09 //072   ----------------------------------------
 BYTE   PATT
  POIN2 Label_01C71041
//  #09 //073   ----------------------------------------
 BYTE   PATT
  POIN2 Label_01C70F0F
//  #09 //074   ----------------------------------------
 BYTE   PATT
  POIN2 Label_01C71041
//  #09 //075   ----------------------------------------
 BYTE   PATT
  POIN2 Label_01C70F0F
//  #09 //076   ----------------------------------------
 BYTE   PATT
  POIN2 Label_01C71041
//  #09 //077   ----------------------------------------
 BYTE   PATT
  POIN2 Label_01C70F0F
//  #09 //078   ----------------------------------------
 BYTE   PATT
  POIN2 Label_01C71041
//  #09 //079   ----------------------------------------
 BYTE   PATT
  POIN2 Label_01C70F0F
//  #09 //080   ----------------------------------------
 BYTE   W96
//  #09 //081   ----------------------------------------
 BYTE   W96
//  #09 //082   ----------------------------------------
 BYTE   W96
//  #09 //083   ----------------------------------------
 BYTE   W96
//  #09 //084   ----------------------------------------
 BYTE   W96
//  #09 //085   ----------------------------------------
 BYTE   W96
//  #09 //086   ----------------------------------------
 BYTE   W96
//  #09 //087   ----------------------------------------
 BYTE   GoTo
  POIN2 Label_01C70EBB
//  #09 //088   ----------------------------------------
 BYTE   W96
//  #09 //089   ----------------------------------------
 BYTE   W96
//  #09 //090   ----------------------------------------
 BYTE   W96
//  #09 //091   ----------------------------------------
 BYTE   W96
//  #09 //092   ----------------------------------------
 BYTE   W96
//  #09 //093   ----------------------------------------
 BYTE   W96
//  #09 //094   ----------------------------------------
 BYTE   W96
//  #09 //095   ----------------------------------------
 BYTE   W96
//  #09 //096   ----------------------------------------
 BYTE   W96
//  #09 //097   ----------------------------------------
 BYTE   W96
//  #09 //098   ----------------------------------------
 BYTE   W96
//  #09 //099   ----------------------------------------
 BYTE   W96
//  #09 //100   ----------------------------------------
 BYTE   W96
//  #09 //101   ----------------------------------------
 BYTE   W96
//  #09 //102   ----------------------------------------
 BYTE   W96
//  #09 //103   ----------------------------------------
 BYTE   W96
//  #09 //104   ----------------------------------------
 BYTE   W96
//  #09 //105   ----------------------------------------
 BYTE   W96
//  #09 //106   ----------------------------------------
 BYTE   W96
//  #09 //107   ----------------------------------------
 BYTE   W96
//  #09 //108   ----------------------------------------
 BYTE   W96
//  #09 //109   ----------------------------------------
 BYTE   W96
//  #09 //110   ----------------------------------------
 BYTE   W96
//  #09 //111   ----------------------------------------
 BYTE   W96
//  #09 //112   ----------------------------------------
 BYTE   W96
//  #09 //113   ----------------------------------------
 BYTE   W96
//  #09 //114   ----------------------------------------
 BYTE   W96
//  #09 //115   ----------------------------------------
 BYTE   W96
//  #09 //116   ----------------------------------------
 BYTE   W96
//  #09 //117   ----------------------------------------
 BYTE   W96
//  #09 //118   ----------------------------------------
 BYTE   W96
//  #09 //119   ----------------------------------------
 BYTE   W96
//  #09 //120   ----------------------------------------
 BYTE   W96
//  #09 //121   ----------------------------------------
 BYTE   W96
//  #09 //122   ----------------------------------------
 BYTE   W96
//  #09 //123   ----------------------------------------
 BYTE   W96
//  #09 //124   ----------------------------------------
 BYTE   W96
//  #09 //125   ----------------------------------------
 BYTE   W96
//  #09 //126   ----------------------------------------
 BYTE   W96
//  #09 //127   ----------------------------------------
 BYTE   W96
//  #09 //128   ----------------------------------------
 BYTE   W96
//  #09 //129   ----------------------------------------
 BYTE   W96
//  #09 //130   ----------------------------------------
 BYTE   W96
//  #09 //131   ----------------------------------------
 BYTE   W96
//  #09 //132   ----------------------------------------
 BYTE   W96
//  #09 //133   ----------------------------------------
 BYTE   W96
//  #09 //134   ----------------------------------------
 BYTE   W96
//  #09 //135   ----------------------------------------
 BYTE   W96
//  #09 //136   ----------------------------------------
 BYTE   W96
//  #09 //137   ----------------------------------------
 BYTE   W96
//  #09 //138   ----------------------------------------
 BYTE   W96
//  #09 //139   ----------------------------------------
 BYTE   W96
//  #09 //140   ----------------------------------------
 BYTE   W96
//  #09 //141   ----------------------------------------
 BYTE   W96
//  #09 //142   ----------------------------------------
 BYTE   W96
//  #09 //143   ----------------------------------------
 BYTE   W96
//  #09 //144   ----------------------------------------
 BYTE   W96
//  #09 //145   ----------------------------------------
 BYTE   W96
//  #09 //146   ----------------------------------------
 BYTE   W96
//  #09 //147   ----------------------------------------
 BYTE   W96
//  #09 //148   ----------------------------------------
 BYTE   W96
//  #09 //149   ----------------------------------------
 BYTE   W96
//  #09 //150   ----------------------------------------
 BYTE   W96
//  #09 //151   ----------------------------------------
 BYTE   W96
//  #09 //152   ----------------------------------------
 BYTE   W96
//  #09 //153   ----------------------------------------
 BYTE   W96
//  #09 //154   ----------------------------------------
 BYTE   W96
//  #09 //155   ----------------------------------------
 BYTE   W96
//  #09 //156   ----------------------------------------
 BYTE   W96
//  #09 //157   ----------------------------------------
 BYTE   W96
//  #09 //158   ----------------------------------------
 BYTE   W96
//  #09 //159   ----------------------------------------
 BYTE   W96
//  #09 //160   ----------------------------------------
 BYTE   W96
//  #09 //161   ----------------------------------------
 BYTE   W96
//  #09 //162   ----------------------------------------
 BYTE   W96
//  #09 //163   ----------------------------------------
 BYTE   W96
//  #09 //164   ----------------------------------------
 BYTE   W96
//  #09 //165   ----------------------------------------
 BYTE   W96
//  #09 //166   ----------------------------------------
 BYTE   W96
//  #09 //167   ----------------------------------------
 BYTE   W96
//  #09 //168   ----------------------------------------
 BYTE   W96
//  #09 //169   ----------------------------------------
 BYTE   W96
//  #09 //170   ----------------------------------------
 BYTE   W96
//  #09 //171   ----------------------------------------
 BYTE   W96
//  #09 //172   ----------------------------------------
 BYTE   W96
//  #09 //173   ----------------------------------------
 BYTE   W96
//  #09 //174   ----------------------------------------
 BYTE   W96
//  #09 //175   ----------------------------------------
 BYTE   W96
//  #09 //176   ----------------------------------------
 BYTE   W96
//  #09 //177   ----------------------------------------
 BYTE   W96
//  #09 //178   ----------------------------------------
 BYTE   W96
//  #09 //179   ----------------------------------------
 BYTE   W96
//  #09 //180   ----------------------------------------
 BYTE   W96
//  #09 //181   ----------------------------------------
 BYTE   W96
//  #09 //182   ----------------------------------------
 BYTE   W96
//  #09 //183   ----------------------------------------
 BYTE   W96
//  #09 //184   ----------------------------------------
 BYTE   W72
 BYTE   FINE

//**************** Track 10 (Midi-Chn.9) ****************//

Nonfiction_010:
//  #10 //000   ----------------------------------------
 BYTE   KEYSH   Nonfiction_key+0
 BYTE   VOICE   54
 BYTE   MODT 0
 BYTE   LFOS 44
 BYTE   VOL   40*Nonfiction_mvl/mxv
 BYTE   W96
//  #10 //001   ----------------------------------------
 BYTE   W96
//  #10 //002   ----------------------------------------
 BYTE   W96
//  #10 //003   ----------------------------------------
 BYTE   W96
//  #10 //004   ----------------------------------------
 BYTE   W96
//  #10 //005   ----------------------------------------
 BYTE   W96
//  #10 //006   ----------------------------------------
 BYTE   W96
//  #10 //007   ----------------------------------------
 BYTE   W96
//  #10 //008   ----------------------------------------
 BYTE   W96
//  #10 //009   ----------------------------------------
 BYTE   W96
//  #10 //010   ----------------------------------------
 BYTE   W96
//  #10 //011   ----------------------------------------
 BYTE   W96
//  #10 //012   ----------------------------------------
 BYTE   W96
//  #10 //013   ----------------------------------------
 BYTE   W96
//  #10 //014   ----------------------------------------
 BYTE   W96
//  #10 //015   ----------------------------------------
 BYTE   W96
//  #10 //016   ----------------------------------------
 BYTE   W96
//  #10 //017   ----------------------------------------
Label_01C71137:
 BYTE   W96
//  #10 //018   ----------------------------------------
 BYTE   W96
//  #10 //019   ----------------------------------------
 BYTE   W96
//  #10 //020   ----------------------------------------
 BYTE   W96
//  #10 //021   ----------------------------------------
 BYTE   W96
//  #10 //022   ----------------------------------------
 BYTE   W96
//  #10 //023   ----------------------------------------
 BYTE   W96
//  #10 //024   ----------------------------------------
 BYTE   W96
//  #10 //025   ----------------------------------------
 BYTE   W96
//  #10 //026   ----------------------------------------
 BYTE   W96
//  #10 //027   ----------------------------------------
 BYTE   W96
//  #10 //028   ----------------------------------------
 BYTE   W96
//  #10 //029   ----------------------------------------
 BYTE   W96
//  #10 //030   ----------------------------------------
 BYTE   W96
//  #10 //031   ----------------------------------------
 BYTE   W96
//  #10 //032   ----------------------------------------
 BYTE   W96
//  #10 //033   ----------------------------------------
 BYTE   W96
//  #10 //034   ----------------------------------------
 BYTE   W96
//  #10 //035   ----------------------------------------
 BYTE   W96
//  #10 //036   ----------------------------------------
 BYTE   W96
//  #10 //037   ----------------------------------------
 BYTE   W96
//  #10 //038   ----------------------------------------
 BYTE   W96
//  #10 //039   ----------------------------------------
 BYTE   W96
//  #10 //040   ----------------------------------------
 BYTE   W96
//  #10 //041   ----------------------------------------
 BYTE   W96
//  #10 //042   ----------------------------------------
 BYTE   W96
//  #10 //043   ----------------------------------------
 BYTE   W96
//  #10 //044   ----------------------------------------
 BYTE   W96
//  #10 //045   ----------------------------------------
 BYTE   W96
//  #10 //046   ----------------------------------------
 BYTE   W96
//  #10 //047   ----------------------------------------
 BYTE   W96
//  #10 //048   ----------------------------------------
 BYTE   W96
//  #10 //049   ----------------------------------------
 BYTE   W96
//  #10 //050   ----------------------------------------
 BYTE   W96
//  #10 //051   ----------------------------------------
 BYTE   W96
//  #10 //052   ----------------------------------------
 BYTE   W96
//  #10 //053   ----------------------------------------
 BYTE   W96
//  #10 //054   ----------------------------------------
 BYTE   W96
//  #10 //055   ----------------------------------------
 BYTE   W96
//  #10 //056   ----------------------------------------
 BYTE   W96
//  #10 //057   ----------------------------------------
 BYTE   W96
//  #10 //058   ----------------------------------------
 BYTE   W96
//  #10 //059   ----------------------------------------
 BYTE   W96
//  #10 //060   ----------------------------------------
 BYTE   W96
//  #10 //061   ----------------------------------------
 BYTE   W96
//  #10 //062   ----------------------------------------
 BYTE   W96
//  #10 //063   ----------------------------------------
 BYTE   W96
//  #10 //064   ----------------------------------------
 BYTE   W24
 BYTE   N22  As3  v104
 BYTE   N22  Gn4
 BYTE   N22  As4
 BYTE   W24
 BYTE   Gn3
 BYTE   N22  En4
 BYTE   N22  Gn4
 BYTE   W24
 BYTE   N11  Cn3
 BYTE   N11  Cn4
 BYTE   W12
 BYTE   N32  An3
 BYTE   N32  En4
 BYTE   N32  An4
 BYTE   W12
//  #10 //065   ----------------------------------------
Label_01C71181:
 BYTE   W24
 BYTE   N22  Gn3  v104
 BYTE   N22  As3
 BYTE   N22  Gn4
 BYTE   W24
 BYTE   Cn3
 BYTE   N22  En3
 BYTE   N22  Cn4
 BYTE   W24
 BYTE   N11
 BYTE   W12
 BYTE   N32  Fn3
 BYTE   N32  An3
 BYTE   N32  Fn4
 BYTE   W12
 BYTE   PEND 
//  #10 //066   ----------------------------------------
 BYTE   W24
 BYTE   N22  En3
 BYTE   N22  En4
 BYTE   W24
 BYTE   N11  Dn3
 BYTE   N11  Fn3
 BYTE   N11  Dn4
 BYTE   W12
 BYTE   Cn3
 BYTE   N11  En3
 BYTE   N11  Cn4
 BYTE   W12
 BYTE   Dn3
 BYTE   N11  Fn3
 BYTE   N11  Dn4
 BYTE   W12
 BYTE   N56  En3
 BYTE   N56  Gn3
 BYTE   N56  En4
 BYTE   W12
//  #10 //067   ----------------------------------------
 BYTE   W60
 BYTE   N11  En3
 BYTE   N11  Cn4
 BYTE   W12
 BYTE   En3
 BYTE   N11  Cn4
 BYTE   W12
 BYTE   N11
 BYTE   N11  En4
 BYTE   N11  Gn4
 BYTE   W12
//  #10 //068   ----------------------------------------
 BYTE   W12
 BYTE   En3
 BYTE   N11  Cn4
 BYTE   W12
 BYTE   En3
 BYTE   N11  Cn4
 BYTE   W12
 BYTE   As3
 BYTE   N11  Dn4
 BYTE   N11  Gn4
 BYTE   W24
 BYTE   En3
 BYTE   N11  Cn4
 BYTE   W12
 BYTE   En3
 BYTE   N11  Cn4
 BYTE   W12
 BYTE   N04  Gn4
 BYTE   W04
 BYTE   N28  An3
 BYTE   N28  Cn4
 BYTE   N28  An4
 BYTE   W08
//  #10 //069   ----------------------------------------
 BYTE   W24
 BYTE   N22  Gn3
 BYTE   N06  Gn4
 BYTE   W24
 BYTE   N11  Cn3
 BYTE   N11  Cn4
 BYTE   W12
 BYTE   Dn3
 BYTE   N11  Fn3
 BYTE   N11  Dn4
 BYTE   W12
 BYTE   En3
 BYTE   N11  Gn3
 BYTE   N11  En4
 BYTE   W12
 BYTE   N22  Fn3
 BYTE   N22  An3
 BYTE   N22  Fn4
 BYTE   W12
//  #10 //070   ----------------------------------------
 BYTE   W12
 BYTE   N11  En3
 BYTE   N11  Gn3
 BYTE   N11  En4
 BYTE   W12
 BYTE   Cn3
 BYTE   N11  En3
 BYTE   N11  Cn4
 BYTE   W12
 BYTE   N32  Dn3
 BYTE   N32  Fn3
 BYTE   N32  Dn4
 BYTE   W36
 BYTE   N11  Cn3
 BYTE   N11  Cn4
 BYTE   W12
 BYTE   N22  As2
 BYTE   N22  Gn3
 BYTE   N22  As3
 BYTE   W12
//  #10 //071   ----------------------------------------
 BYTE   W12
 BYTE   Cn3
 BYTE   N22  An3
 BYTE   N22  Cn4
 BYTE   W24
 BYTE   Dn3
 BYTE   N22  As3
 BYTE   N22  Dn4
 BYTE   W24
 BYTE   N11  En3  v112
 BYTE   N11  As3  v088
 BYTE   N11  En4  v112
 BYTE   W12
 BYTE   Gn3  v108
 BYTE   N11  Gn4
 BYTE   W12
 BYTE   N32  Cn4  v104
 BYTE   N32  En4
 BYTE   N32  Gn4
 BYTE   N32  Cn5
 BYTE   W12
//  #10 //072   ----------------------------------------
 BYTE   W24
 BYTE   N22  As3
 BYTE   N22  Gn4
 BYTE   N22  As4
 BYTE   W24
 BYTE   Gn3
 BYTE   N22  En4
 BYTE   N22  Gn4
 BYTE   W24
 BYTE   N11  Cn3
 BYTE   N11  Cn4
 BYTE   W12
 BYTE   N32  An3
 BYTE   N32  En4
 BYTE   N32  An4
 BYTE   W12
//  #10 //073   ----------------------------------------
 BYTE   PATT
  POIN2 Label_01C71181
//  #10 //074   ----------------------------------------
 BYTE   W24
 BYTE   N22  En3  v104
 BYTE   N22  En4
 BYTE   W24
 BYTE   N11  Dn3
 BYTE   N11  Fn3
 BYTE   N11  Dn4
 BYTE   W12
 BYTE   Gn2
 BYTE   N11  Dn3
 BYTE   N11  Gn3
 BYTE   W12
 BYTE   N11
 BYTE   N11  As3
 BYTE   N11  Gn4
 BYTE   W12
 BYTE   N22  En3
 BYTE   N22  Gn3
 BYTE   N22  En4
 BYTE   W12
//  #10 //075   ----------------------------------------
 BYTE   W12
 BYTE   N11  Fn3
 BYTE   N11  An3
 BYTE   N11  Fn4
 BYTE   W12
 BYTE   En3
 BYTE   N11  Gn3
 BYTE   N11  En4
 BYTE   W12
 BYTE   N22  Dn3
 BYTE   N22  Fn3
 BYTE   N22  Dn4
 BYTE   W24
 BYTE   N11  En3
 BYTE   N11  Gn3
 BYTE   N11  En4
 BYTE   W12
 BYTE   Dn3
 BYTE   N11  Fn3
 BYTE   N11  Dn4
 BYTE   W12
 BYTE   N78  Cn3
 BYTE   N78  Ds3
 BYTE   N78  Gs3
 BYTE   N78  Cn4
 BYTE   W12
//  #10 //076   ----------------------------------------
 BYTE   W72
 BYTE   N11  Gn3
 BYTE   N11  Cn4
 BYTE   N11  Gn4
 BYTE   W12
 BYTE   N78  Fn3
 BYTE   N78  An3
 BYTE   N78  Dn4
 BYTE   N78  Fn4
 BYTE   W12
//  #10 //077   ----------------------------------------
 BYTE   W72
 BYTE   N11  Dn3
 BYTE   N11  An3
 BYTE   N11  Dn4
 BYTE   W12
 BYTE   N56  Fn3
 BYTE   N56  Dn4
 BYTE   N56  Fn4
 BYTE   W12
//  #10 //078   ----------------------------------------
 BYTE   W48
 BYTE   N11  Fn3
 BYTE   N11  Dn4
 BYTE   N11  Fn4
 BYTE   W12
 BYTE   En3
 BYTE   N11  Cn4
 BYTE   N11  En4
 BYTE   W12
 BYTE   Fn3
 BYTE   N11  Dn4
 BYTE   N11  Fn4
 BYTE   W12
 BYTE   TIE  Gn3
 BYTE   TIE  Cn4
 BYTE   TIE  En4
 BYTE   TIE  Gn4
 BYTE   W12
//  #10 //079   ----------------------------------------
 BYTE   W90
 BYTE   EOT
 BYTE   Gn3  v072
 BYTE   En4  v079
 BYTE   W06
//  #10 //080   ----------------------------------------
 BYTE   W96
//  #10 //081   ----------------------------------------
 BYTE   W96
//  #10 //082   ----------------------------------------
 BYTE   W96
//  #10 //083   ----------------------------------------
 BYTE   W96
//  #10 //084   ----------------------------------------
 BYTE   W96
//  #10 //085   ----------------------------------------
 BYTE   W96
//  #10 //086   ----------------------------------------
 BYTE   W96
//  #10 //087   ----------------------------------------
 BYTE   GoTo
  POIN2 Label_01C71137
//  #10 //088   ----------------------------------------
 BYTE   N90  Gn3  v052
 BYTE   W96
//  #10 //089   ----------------------------------------
 BYTE   W96
//  #10 //090   ----------------------------------------
 BYTE   W96
//  #10 //091   ----------------------------------------
 BYTE   W96
//  #10 //092   ----------------------------------------
 BYTE   W96
//  #10 //093   ----------------------------------------
 BYTE   W96
//  #10 //094   ----------------------------------------
 BYTE   W96
//  #10 //095   ----------------------------------------
 BYTE   W96
//  #10 //096   ----------------------------------------
 BYTE   W96
//  #10 //097   ----------------------------------------
 BYTE   W96
//  #10 //098   ----------------------------------------
 BYTE   W96
//  #10 //099   ----------------------------------------
 BYTE   W96
//  #10 //100   ----------------------------------------
 BYTE   W96
//  #10 //101   ----------------------------------------
 BYTE   W96
//  #10 //102   ----------------------------------------
 BYTE   W96
//  #10 //103   ----------------------------------------
 BYTE   W96
//  #10 //104   ----------------------------------------
 BYTE   W96
//  #10 //105   ----------------------------------------
 BYTE   W96
//  #10 //106   ----------------------------------------
 BYTE   W96
//  #10 //107   ----------------------------------------
 BYTE   W96
//  #10 //108   ----------------------------------------
 BYTE   W96
//  #10 //109   ----------------------------------------
 BYTE   W96
//  #10 //110   ----------------------------------------
 BYTE   W96
//  #10 //111   ----------------------------------------
 BYTE   W96
//  #10 //112   ----------------------------------------
 BYTE   W96
//  #10 //113   ----------------------------------------
 BYTE   W96
//  #10 //114   ----------------------------------------
 BYTE   W96
//  #10 //115   ----------------------------------------
 BYTE   W96
//  #10 //116   ----------------------------------------
 BYTE   W96
//  #10 //117   ----------------------------------------
 BYTE   W96
//  #10 //118   ----------------------------------------
 BYTE   W96
//  #10 //119   ----------------------------------------
 BYTE   W96
//  #10 //120   ----------------------------------------
 BYTE   W96
//  #10 //121   ----------------------------------------
 BYTE   W96
//  #10 //122   ----------------------------------------
 BYTE   W96
//  #10 //123   ----------------------------------------
 BYTE   W96
//  #10 //124   ----------------------------------------
 BYTE   W96
//  #10 //125   ----------------------------------------
 BYTE   W96
//  #10 //126   ----------------------------------------
 BYTE   W96
//  #10 //127   ----------------------------------------
 BYTE   W96
//  #10 //128   ----------------------------------------
 BYTE   W96
//  #10 //129   ----------------------------------------
 BYTE   W96
//  #10 //130   ----------------------------------------
 BYTE   W96
//  #10 //131   ----------------------------------------
 BYTE   W96
//  #10 //132   ----------------------------------------
 BYTE   W96
//  #10 //133   ----------------------------------------
 BYTE   W96
//  #10 //134   ----------------------------------------
 BYTE   W96
//  #10 //135   ----------------------------------------
 BYTE   W96
//  #10 //136   ----------------------------------------
 BYTE   W96
//  #10 //137   ----------------------------------------
 BYTE   W96
//  #10 //138   ----------------------------------------
 BYTE   W96
//  #10 //139   ----------------------------------------
 BYTE   W96
//  #10 //140   ----------------------------------------
 BYTE   W96
//  #10 //141   ----------------------------------------
 BYTE   W96
//  #10 //142   ----------------------------------------
 BYTE   W96
//  #10 //143   ----------------------------------------
 BYTE   W96
//  #10 //144   ----------------------------------------
 BYTE   W96
//  #10 //145   ----------------------------------------
 BYTE   W96
//  #10 //146   ----------------------------------------
 BYTE   W96
//  #10 //147   ----------------------------------------
 BYTE   W96
//  #10 //148   ----------------------------------------
 BYTE   W96
//  #10 //149   ----------------------------------------
 BYTE   W96
//  #10 //150   ----------------------------------------
 BYTE   W96
//  #10 //151   ----------------------------------------
 BYTE   W96
//  #10 //152   ----------------------------------------
 BYTE   W96
//  #10 //153   ----------------------------------------
 BYTE   W96
//  #10 //154   ----------------------------------------
 BYTE   W96
//  #10 //155   ----------------------------------------
 BYTE   W96
//  #10 //156   ----------------------------------------
 BYTE   W96
//  #10 //157   ----------------------------------------
 BYTE   W96
//  #10 //158   ----------------------------------------
 BYTE   W96
//  #10 //159   ----------------------------------------
 BYTE   W96
//  #10 //160   ----------------------------------------
 BYTE   W96
//  #10 //161   ----------------------------------------
 BYTE   W96
//  #10 //162   ----------------------------------------
 BYTE   W96
//  #10 //163   ----------------------------------------
 BYTE   W96
//  #10 //164   ----------------------------------------
 BYTE   W96
//  #10 //165   ----------------------------------------
 BYTE   W96
//  #10 //166   ----------------------------------------
 BYTE   W96
//  #10 //167   ----------------------------------------
 BYTE   W96
//  #10 //168   ----------------------------------------
 BYTE   W96
//  #10 //169   ----------------------------------------
 BYTE   W96
//  #10 //170   ----------------------------------------
 BYTE   W96
//  #10 //171   ----------------------------------------
 BYTE   W96
//  #10 //172   ----------------------------------------
 BYTE   W96
//  #10 //173   ----------------------------------------
 BYTE   W96
//  #10 //174   ----------------------------------------
 BYTE   W96
//  #10 //175   ----------------------------------------
 BYTE   W96
//  #10 //176   ----------------------------------------
 BYTE   W96
//  #10 //177   ----------------------------------------
 BYTE   W96
//  #10 //178   ----------------------------------------
 BYTE   W96
//  #10 //179   ----------------------------------------
 BYTE   W96
//  #10 //180   ----------------------------------------
 BYTE   W96
//  #10 //181   ----------------------------------------
 BYTE   W96
//  #10 //182   ----------------------------------------
 BYTE   W96
//  #10 //183   ----------------------------------------
 BYTE   W96
//  #10 //184   ----------------------------------------
 BYTE   W72
 BYTE   FINE

//******************************************************//
	ALIGN 4

Nonfiction:
	BYTE	10	// NumTrks
	BYTE	0	// NumBlks
	BYTE	Nonfiction_pri	// Priority
	BYTE	Nonfiction_rev	// Reverb.
    
	POIN2	Nonfiction_grp
    
	POIN2	Nonfiction_001
	POIN2	Nonfiction_002
	POIN2	Nonfiction_003
	POIN2	Nonfiction_004
	POIN2	Nonfiction_005
	POIN2	Nonfiction_006
	POIN2	Nonfiction_007
	POIN2	Nonfiction_008
	POIN2	Nonfiction_009
	POIN2	Nonfiction_010

	
