//Event file generated from Sappy .s format.
	#include "MPlayDef.event"

	#define	PlasmagicSeasons_grp  voicegroup000
	#define	PlasmagicSeasons_pri  0
	#define	PlasmagicSeasons_rev  0
	#define	PlasmagicSeasons_mvl  127
	#define	PlasmagicSeasons_key  0
	#define	PlasmagicSeasons_tbs  1
	#define	PlasmagicSeasons_exg  0
	#define	PlasmagicSeasons_cmp  1

	// .rodata
	//	PlasmagicSeasons
	ALIGN 4


//**************** Track 1 (Midi-Chn.0) ****************//

PlasmagicSeasons_001:
//  #01 //000   ----------------------------------------
 BYTE   KEYSH   PlasmagicSeasons_key+0
 BYTE   TEMPO   100*PlasmagicSeasons_tbs/2
 BYTE   VOICE   1
 BYTE   MODT 0
 BYTE   LFOS 44
 BYTE   VOL   80*PlasmagicSeasons_mvl/mxv
 BYTE   PAN   c_v+0
 BYTE   N22  An3  v044
 BYTE   N44  Bn3
 BYTE   W02
 BYTE   Cn4
 BYTE   W03
 BYTE   N42  En4
 BYTE   W02
 BYTE   N36  Gn4
 BYTE   W17
 BYTE   N22  Gn3
 BYTE   W24
 BYTE   Cn4
 BYTE   N44  En4
 BYTE   W02
 BYTE   Gn4
 BYTE   W03
 BYTE   N42  Cn5
 BYTE   W19
 BYTE   N22  An3
 BYTE   W24
//  #01 //001   ----------------------------------------
 BYTE   N44  Bn3
 BYTE   W02
 BYTE   Ds4
 BYTE   W03
 BYTE   N42  Fs4
 BYTE   W42
 BYTE   W01
 BYTE   TEMPO   60*PlasmagicSeasons_tbs/2
 BYTE   N23  Bn5
 BYTE   W01
 BYTE   N22  Fs5
 BYTE   W02
 BYTE   N20  Ds5
 BYTE   W01
 BYTE   N19  Bn4
 BYTE   W20
 BYTE   TEMPO   120*PlasmagicSeasons_tbs/2
 BYTE   N01  An5
 BYTE   N01  Bn5
 BYTE   W01
 BYTE   Gn5
 BYTE   W01
 BYTE   Fn5
 BYTE   W01
 BYTE   En5
 BYTE   W01
 BYTE   Dn5
 BYTE   W01
 BYTE   Bn4
 BYTE   N01  Cn5
 BYTE   W01
 BYTE   An4
 BYTE   W01
 BYTE   Gn4
 BYTE   W01
 BYTE   Fn4
 BYTE   W01
 BYTE   En4
 BYTE   W01
 BYTE   Dn4
 BYTE   W01
 BYTE   Cn4
 BYTE   W01
 BYTE   N11  Bn3
 BYTE   W12
//  #01 //002   ----------------------------------------
 BYTE   TEMPO   194*PlasmagicSeasons_tbs/2
 BYTE   N15  Cn4  v060
 BYTE   W15
 BYTE   N07  En4
 BYTE   W09
 BYTE   N15  Cn4
 BYTE   W15
 BYTE   N22  Gn4
 BYTE   W24
 BYTE   N07  Cn4
 BYTE   W09
 BYTE   N15  Gn3
 BYTE   W15
 BYTE   N22  Fs3
 BYTE   W09
//  #01 //003   ----------------------------------------
 BYTE   W15
 BYTE   Cn4
 BYTE   N22  En4
 BYTE   W24
 BYTE   N07  Fs3
 BYTE   W09
 BYTE   N15  Cn4
 BYTE   N15  En4
 BYTE   W15
 BYTE   N07  Dn4
 BYTE   W09
 BYTE   N15  Cn4
 BYTE   W15
 BYTE   N07  Bn3
 BYTE   W09
//  #01 //004   ----------------------------------------
 BYTE   N15  An3
 BYTE   N15  Dn4
 BYTE   W15
 BYTE   N10
 BYTE   N10  Fs4
 BYTE   W24
 BYTE   N22
 BYTE   N22  An4
 BYTE   W24
 BYTE   N07  Dn4
 BYTE   W09
 BYTE   N15  Cn4
 BYTE   W15
 BYTE   N22  Bn3
 BYTE   W09
//  #01 //005   ----------------------------------------
 BYTE   W15
 BYTE   Dn4
 BYTE   N22  Fs4
 BYTE   W24
 BYTE   En4
 BYTE   N22  Gn4
 BYTE   W24
 BYTE   N07  Fs4
 BYTE   W09
 BYTE   N15  En4
 BYTE   W15
 BYTE   N07  Dn4
 BYTE   W09
//  #01 //006   ----------------------------------------
 BYTE   N15  Cn4
 BYTE   W15
 BYTE   N07  En4
 BYTE   W09
 BYTE   N15  Cn4
 BYTE   W15
 BYTE   N22  Gn4
 BYTE   W24
 BYTE   N07  Cn4
 BYTE   W09
 BYTE   N15  Gn3
 BYTE   W15
 BYTE   N30  Fs3
 BYTE   W09
//  #01 //007   ----------------------------------------
 BYTE   W24
 BYTE   N22  Gn3
 BYTE   W24
 BYTE   N15  Bn3
 BYTE   N15  Dn4
 BYTE   W15
 BYTE   N22  An3
 BYTE   N22  Cn4
 BYTE   W24
 BYTE   N30  Gs3
 BYTE   N30  Bn3
 BYTE   W09
//  #01 //008   ----------------------------------------
 BYTE   W24
 BYTE   N08  En4
 BYTE   W09
 BYTE   Fs4
 BYTE   W09
 BYTE   Gs4
 BYTE   W09
 BYTE   An4
 BYTE   W09
 BYTE   Bn4
 BYTE   W09
 BYTE   An4
 BYTE   W09
 BYTE   Gs4
 BYTE   W09
 BYTE   Fs4
 BYTE   W09
//  #01 //009   ----------------------------------------
 BYTE   N11  En4
 BYTE   W24
 BYTE   N68  Gn5
 BYTE   W05
 BYTE   N66  Ds5
 BYTE   W05
 BYTE   N60  Bn4
 BYTE   W05
 BYTE   N56  Gn4
 BYTE   W56
 BYTE   W01
//  #01 //010   ----------------------------------------
Label_010E654C:
 BYTE   W24
 BYTE   N22  Gn3  v060
 BYTE   W24
 BYTE   N15  An3
 BYTE   W15
 BYTE   N22  Gn3
 BYTE   W24
 BYTE   N30  Fs3
 BYTE   N30  Cn4
 BYTE   W09
 BYTE   PEND 
//  #01 //011   ----------------------------------------
 BYTE   W24
 BYTE   N22  Bn3
 BYTE   W24
 BYTE   Fs3
 BYTE   N22  An3
 BYTE   W24
 BYTE   Fs3
 BYTE   W24
//  #01 //012   ----------------------------------------
 BYTE   N15  En3
 BYTE   N15  Gn3
 BYTE   W15
 BYTE   N07  Fs3
 BYTE   W09
 BYTE   N15  Gn3
 BYTE   W15
 BYTE   N22  En3
 BYTE   N22  An3
 BYTE   W24
 BYTE   Gn3
 BYTE   W24
 BYTE   N52  Dn3
 BYTE   W09
//  #01 //013   ----------------------------------------
 BYTE   W60
 BYTE   W03
 BYTE   N07
 BYTE   W09
 BYTE   N15
 BYTE   W15
 BYTE   N07
 BYTE   W09
//  #01 //014   ----------------------------------------
 BYTE   N44  En3
 BYTE   N44  Gn3
 BYTE   W60
 BYTE   W03
 BYTE   N07  En3
 BYTE   W09
 BYTE   N15  Gn3
 BYTE   W15
 BYTE   N07  Bn3
 BYTE   W09
//  #01 //015   ----------------------------------------
 BYTE   N15  Ds3
 BYTE   N15  An3
 BYTE   W15
 BYTE   N22  Bn3
 BYTE   W24
 BYTE   N07  Dn3
 BYTE   N30  Gn3
 BYTE   W48
 BYTE   N07
 BYTE   W09
//  #01 //016   ----------------------------------------
 BYTE   N22  Cn4
 BYTE   W24
 BYTE   Bn3
 BYTE   W24
 BYTE   An3
 BYTE   W24
 BYTE   N15  Gn3
 BYTE   W15
 BYTE   N07
 BYTE   W09
//  #01 //017   ----------------------------------------
 BYTE   N15
 BYTE   W15
 BYTE   N07  Fs3
 BYTE   W09
 BYTE   N15  Gn3
 BYTE   W15
 BYTE   N30  An3
 BYTE   W56
 BYTE   W01
//  #01 //018   ----------------------------------------
 BYTE   PATT
  POIN2 Label_010E654C
//  #01 //019   ----------------------------------------
 BYTE   W24
 BYTE   N22  Bn3  v060
 BYTE   W24
 BYTE   N15  Fs3
 BYTE   N15  Dn4
 BYTE   W15
 BYTE   N22  Bn3
 BYTE   W24
 BYTE   N07
 BYTE   W09
//  #01 //020   ----------------------------------------
 BYTE   N15  An3
 BYTE   W15
 BYTE   N07  Gn3
 BYTE   W09
 BYTE   N15  An3
 BYTE   W15
 BYTE   N07  Gn3
 BYTE   W09
 BYTE   N15  An3
 BYTE   W15
 BYTE   N22  Gn3
 BYTE   W24
 BYTE   N30  Fn3
 BYTE   N30  Bn3
 BYTE   W09
//  #01 //021   ----------------------------------------
 BYTE   W36
 BYTE   W03
 BYTE   N07
 BYTE   W09
 BYTE   N15
 BYTE   W15
 BYTE   N22  Cn4
 BYTE   W24
 BYTE   N44  En3
 BYTE   N44  Bn3
 BYTE   W09
//  #01 //022   ----------------------------------------
 BYTE   W36
 BYTE   W03
 BYTE   N07  Gn3
 BYTE   W09
 BYTE   N22
 BYTE   W24
 BYTE   En3
 BYTE   W24
//  #01 //023   ----------------------------------------
 BYTE   N15  Dn3
 BYTE   W15
 BYTE   N07
 BYTE   W09
 BYTE   N15  An3
 BYTE   W15
 BYTE   N30  Gn3
 BYTE   W32
 BYTE   W01
 BYTE   N22
 BYTE   W24
//  #01 //024   ----------------------------------------
 BYTE   En3
 BYTE   N22  Cn4
 BYTE   W24
 BYTE   Bn3  v064
 BYTE   W24
 BYTE   Dn3  v068
 BYTE   N22  Fs3
 BYTE   W24
 BYTE   An3
 BYTE   W24
//  #01 //025   ----------------------------------------
 BYTE   N16  Bn2  v072
 BYTE   N16  Dn3
 BYTE   N16  Gn3
 BYTE   W24
 BYTE   Bn2
 BYTE   N16  Dn3
 BYTE   N16  Gn3
 BYTE   W24
 BYTE   Bn2
 BYTE   N16  Dn3
 BYTE   N16  Gn3
 BYTE   W24
 BYTE   N11  Gn4
 BYTE   W24
//  #01 //026   ----------------------------------------
 BYTE   N68  Bn3  v044
 BYTE   W05
 BYTE   N66  Cn4
 BYTE   W05
 BYTE   N60  En4
 BYTE   W05
 BYTE   N56  Gn4
 BYTE   W56
 BYTE   W01
 BYTE   N22
 BYTE   W24
//  #01 //027   ----------------------------------------
 BYTE   N15  Cn4
 BYTE   N15  Gn4
 BYTE   W15
 BYTE   N22  En4
 BYTE   W24
 BYTE   Cn4
 BYTE   N22  Gn4
 BYTE   W24
 BYTE   N07
 BYTE   W09
 BYTE   N15
 BYTE   W15
 BYTE   N07  An4
 BYTE   W09
//  #01 //028   ----------------------------------------
 BYTE   N44  Cn4
 BYTE   W05
 BYTE   N42  Gn4
 BYTE   W05
 BYTE   N36  As4
 BYTE   W36
 BYTE   W02
 BYTE   An4
 BYTE   W36
 BYTE   W03
 BYTE   N22  Cn4
 BYTE   N22  Gn4
 BYTE   W09
//  #01 //029   ----------------------------------------
 BYTE   W15
 BYTE   N07  An4
 BYTE   W09
 BYTE   N15  Gn4
 BYTE   W15
 BYTE   N22  Cn4
 BYTE   N22  Gn4
 BYTE   W24
 BYTE   Ds4
 BYTE   W32
 BYTE   W01
//  #01 //030   ----------------------------------------
 BYTE   W24
 BYTE   Bn3
 BYTE   N22  Dn4
 BYTE   W24
 BYTE   Bn3
 BYTE   N22  Dn4
 BYTE   W36
 BYTE   W03
 BYTE   N07
 BYTE   W09
//  #01 //031   ----------------------------------------
 BYTE   N15
 BYTE   N15  Dn5
 BYTE   W15
 BYTE   N22  Cn5
 BYTE   W24
 BYTE   Dn4
 BYTE   N22  Bn4
 BYTE   W24
 BYTE   N07  Gn4
 BYTE   W09
 BYTE   N15  Bn4
 BYTE   W15
 BYTE   N07  Cn5
 BYTE   W09
//  #01 //032   ----------------------------------------
 BYTE   N44  En4
 BYTE   N44  Bn4
 BYTE   W48
 BYTE   En4
 BYTE   N44  Cn5
 BYTE   W48
//  #01 //033   ----------------------------------------
 BYTE   N36  En4
 BYTE   N36  Bn4
 BYTE   W36
 BYTE   W03
 BYTE   N30  En4  v048
 BYTE   N30  Gs4
 BYTE   W32
 BYTE   W01
 BYTE   N01  Gn5  v056
 BYTE   W01
 BYTE   Fn5
 BYTE   W02
 BYTE   En5
 BYTE   W02
 BYTE   Dn5
 BYTE   W01
 BYTE   Cn5
 BYTE   W02
 BYTE   Bn4
 BYTE   W02
 BYTE   An4
 BYTE   W01
 BYTE   Gn4
 BYTE   W02
 BYTE   Fn4
 BYTE   W02
 BYTE   En4
 BYTE   W01
 BYTE   Dn4
 BYTE   W02
 BYTE   Cn4  v060
 BYTE   W02
 BYTE   Bn3
 BYTE   W02
 BYTE   An3
 BYTE   W02
//  #01 //034   ----------------------------------------
 BYTE   N22  Gn3
 BYTE   W60
 BYTE   W03
 BYTE   N07  En4
 BYTE   W09
 BYTE   N15  Gn4
 BYTE   W15
 BYTE   N07  En4
 BYTE   W09
//  #01 //035   ----------------------------------------
 BYTE   N22  Gn4
 BYTE   W24
 BYTE   N15  En4
 BYTE   W15
 BYTE   N07  Gn4
 BYTE   W24
 BYTE   N30  Cn3
 BYTE   N30  En3
 BYTE   W32
 BYTE   W01
//  #01 //036   ----------------------------------------
 BYTE   N22  Bn2
 BYTE   N22  Dn3
 BYTE   W60
 BYTE   W03
 BYTE   N07  En4
 BYTE   W09
 BYTE   N15  Gn4
 BYTE   W15
 BYTE   N07  En4
 BYTE   W09
//  #01 //037   ----------------------------------------
 BYTE   N22  Gn4
 BYTE   W24
 BYTE   N15  An4
 BYTE   W15
 BYTE   N22  Bn4
 BYTE   W24
 BYTE   N30  En4
 BYTE   W32
 BYTE   W01
//  #01 //038   ----------------------------------------
 BYTE   N44  Cn4
 BYTE   W05
 BYTE   N42  Ds4
 BYTE   W05
 BYTE   N36  An4
 BYTE   W36
 BYTE   W02
 BYTE   N44  Gn4
 BYTE   W48
//  #01 //039   ----------------------------------------
 BYTE   Ds4
 BYTE   W48
 BYTE   Cn4
 BYTE   W48
//  #01 //040   ----------------------------------------
 BYTE   TIE  Fs3
 BYTE   W03
 BYTE   An3
 BYTE   W03
 BYTE   Dn4
 BYTE   W90
//  #01 //041   ----------------------------------------
 BYTE   W44
 BYTE   EOT
 BYTE   W01
 BYTE   EOT
 BYTE   Fs3  v069
 BYTE   W03
 BYTE   N11  Gn3
 BYTE   N11  Gn4
 BYTE   W24
 BYTE   N22  Gs3
 BYTE   N22  Gs4
 BYTE   W24
//  #01 //042   ----------------------------------------
 BYTE   N15  Dn4
 BYTE   N15  An4
 BYTE   W15
 BYTE   N07  Gs4
 BYTE   W09
 BYTE   N15  Dn4
 BYTE   N15  An4
 BYTE   W15
 BYTE   N22  Dn4
 BYTE   N22  An4
 BYTE   W24
 BYTE   N07  Gs4
 BYTE   W09
 BYTE   N15  Dn4
 BYTE   N15  An4
 BYTE   W15
 BYTE   N07  En4
 BYTE   N07  Bn4
 BYTE   W09
//  #01 //043   ----------------------------------------
 BYTE   W24
 BYTE   N36  Fn4
 BYTE   N36  An4
 BYTE   N36  Cs5
 BYTE   W36
 BYTE   W03
 BYTE   N07  En4
 BYTE   W09
 BYTE   N15  Gn4
 BYTE   W15
 BYTE   N07  En4
 BYTE   W09
//  #01 //044   ----------------------------------------
Label_010E675A:
 BYTE   N22  Gn4  v060
 BYTE   N22  Bn4
 BYTE   W48
 BYTE   En4
 BYTE   N22  Gn4
 BYTE   N22  Cn5
 BYTE   W36
 BYTE   W03
 BYTE   Fs4
 BYTE   N22  An4
 BYTE   N22  Dn5
 BYTE   W09
 BYTE   PEND 
//  #01 //045   ----------------------------------------
Label_010E676E:
 BYTE   W15
 BYTE   N07  Cn5  v060
 BYTE   W09
 BYTE   N22  An4
 BYTE   N22  Dn5
 BYTE   W24
 BYTE   N15  Fs4
 BYTE   N15  An4
 BYTE   W15
 BYTE   N22  En4
 BYTE   N22  Gn4
 BYTE   W24
 BYTE   Dn4
 BYTE   N22  An4
 BYTE   W09
 BYTE   PEND 
//  #01 //046   ----------------------------------------
 BYTE   W15
 BYTE   N07  Gn4
 BYTE   W09
 BYTE   N15  Dn4
 BYTE   N15  An4
 BYTE   W15
 BYTE   N07  Gn4
 BYTE   W09
 BYTE   N15  Dn4
 BYTE   N15  An4
 BYTE   W15
 BYTE   N07
 BYTE   W09
 BYTE   N15  Bn4
 BYTE   W15
 BYTE   N22  En4
 BYTE   N22  Cn5
 BYTE   W09
//  #01 //047   ----------------------------------------
 BYTE   W15
 BYTE   N07  Bn4
 BYTE   W09
 BYTE   N15  An4
 BYTE   W15
 BYTE   N22  En4
 BYTE   N22  Bn4
 BYTE   W24
 BYTE   N07  En4
 BYTE   W09
 BYTE   N15  Gn4
 BYTE   W15
 BYTE   N07  En4
 BYTE   W09
//  #01 //048   ----------------------------------------
 BYTE   N44  Bn3
 BYTE   W02
 BYTE   Cn4
 BYTE   W03
 BYTE   N42  En4
 BYTE   W02
 BYTE   N40  Gn4
 BYTE   W56
 BYTE   N07  En4
 BYTE   W09
 BYTE   N15  Gn4
 BYTE   W15
 BYTE   N07  En4
 BYTE   W09
//  #01 //049   ----------------------------------------
 BYTE   N36
 BYTE   N36  Gn4
 BYTE   N36  As4
 BYTE   W36
 BYTE   W03
 BYTE   N22  En4
 BYTE   N22  An4
 BYTE   W24
 BYTE   N07  Dn4
 BYTE   W09
 BYTE   N15
 BYTE   W15
 BYTE   N07
 BYTE   W09
//  #01 //050   ----------------------------------------
 BYTE   N15  Dn5
 BYTE   W15
 BYTE   N07  Cn5
 BYTE   W09
 BYTE   N15  Bn4
 BYTE   W15
 BYTE   N07  An4
 BYTE   W09
 BYTE   N15  Fs4
 BYTE   N15  Bn4
 BYTE   W15
 BYTE   N22  Cn5
 BYTE   W24
 BYTE   N52  En4
 BYTE   N52  Bn4
 BYTE   W09
//  #01 //051   ----------------------------------------
 BYTE   W60
 BYTE   W03
 BYTE   N07  En4
 BYTE   W09
 BYTE   N15  Gn4
 BYTE   W15
 BYTE   N07  En4
 BYTE   W09
//  #01 //052   ----------------------------------------
 BYTE   PATT
  POIN2 Label_010E675A
//  #01 //053   ----------------------------------------
 BYTE   PATT
  POIN2 Label_010E676E
//  #01 //054   ----------------------------------------
 BYTE   W15
 BYTE   N07  Fs4  v060
 BYTE   W09
 BYTE   N15  Gn4
 BYTE   W15
 BYTE   N22  Dn4
 BYTE   N22  An4
 BYTE   W24
 BYTE   Bn4
 BYTE   W24
 BYTE   En4
 BYTE   N22  Cn5
 BYTE   W09
//  #01 //055   ----------------------------------------
 BYTE   W15
 BYTE   N52  Fn4
 BYTE   N52  Dn5
 BYTE   W56
 BYTE   W01
 BYTE   N05  Cn5
 BYTE   W05
 BYTE   N17  Fn4
 BYTE   N17  Dn5
 BYTE   W19
//  #01 //056   ----------------------------------------
 BYTE   N44  Cn4
 BYTE   N44  Gn4
 BYTE   W72
 BYTE   N22  Bn4
 BYTE   W24
//  #01 //057   ----------------------------------------
 BYTE   N15  En4
 BYTE   N15  Cn5
 BYTE   W15
 BYTE   N22  Bn4
 BYTE   W24
 BYTE   En4
 BYTE   N22  An4
 BYTE   W24
 BYTE   Gn4
 BYTE   W24
 BYTE   En4
 BYTE   N22  An4
 BYTE   W09
//  #01 //058   ----------------------------------------
 BYTE   W15
 BYTE   N30  Dn4
 BYTE   N30  Bn4
 BYTE   W48
 BYTE   N07  En4
 BYTE   W09
 BYTE   N15  Gs4
 BYTE   W15
 BYTE   N07  Bn4
 BYTE   W09
//  #01 //059   ----------------------------------------
 BYTE   Dn5
 BYTE   W08
 BYTE   Cn5  v048
 BYTE   W08
 BYTE   Bn4
 BYTE   W08
 BYTE   An4
 BYTE   W08
 BYTE   Gn4
 BYTE   W08
 BYTE   Fs4
 BYTE   W08
 BYTE   N22  En4  v060
 BYTE   N22  Bn4
 BYTE   W24
 BYTE   N15  An4
 BYTE   W15
 BYTE   N22  Cn4
 BYTE   N22  An4
 BYTE   W09
//  #01 //060   ----------------------------------------
 BYTE   W15
 BYTE   N07  Gn4
 BYTE   W09
 BYTE   N44  Cn4
 BYTE   N44  Gn4
 BYTE   W48
 BYTE   N22
 BYTE   W24
//  #01 //061   ----------------------------------------
 BYTE   N15  Dn4
 BYTE   N15  Gn4
 BYTE   W15
 BYTE   N22  Fs4
 BYTE   W24
 BYTE   Dn4
 BYTE   N22  Fs4
 BYTE   W24
 BYTE   Gn4
 BYTE   W24
 BYTE   TIE  Bn3
 BYTE   TIE  Dn4
 BYTE   TIE  Gn4
 BYTE   W09
//  #01 //062   ----------------------------------------
 BYTE   W96
//  #01 //063   ----------------------------------------
 BYTE   W36
 BYTE   W03
 BYTE   EOT
 BYTE   Bn3  v074
 BYTE   Gn4
 BYTE   W09
 BYTE   N01  Dn5
 BYTE   W01
 BYTE   Cn5
 BYTE   W02
 BYTE   Bn4
 BYTE   W02
 BYTE   An4
 BYTE   W01
 BYTE   Gn4
 BYTE   W02
 BYTE   Fn4
 BYTE   W02
 BYTE   En4
 BYTE   W01
 BYTE   Dn4
 BYTE   W02
 BYTE   Cn4
 BYTE   W02
 BYTE   Bn3
 BYTE   W01
 BYTE   An3
 BYTE   W02
 BYTE   Gn3
 BYTE   W02
 BYTE   Fn3
 BYTE   W02
 BYTE   En3
 BYTE   W02
 BYTE   N22  Dn3
 BYTE   W24
//  #01 //064   ----------------------------------------
 BYTE   N44  Fs4
 BYTE   N44  An4
 BYTE   N44  Dn5
 BYTE   W48
 BYTE   N15  Fs4
 BYTE   W15
 BYTE   N22  An4
 BYTE   N22  Dn5
 BYTE   W24
 BYTE   N52  Fn4
 BYTE   N52  An4
 BYTE   N52  Cn5
 BYTE   W09
//  #01 //065   ----------------------------------------
 BYTE   W48
 BYTE   N44  Fn4
 BYTE   N44  An4
 BYTE   N44  Cn5
 BYTE   W48
//  #01 //066   ----------------------------------------
 BYTE   Dn4
 BYTE   N44  Gn4
 BYTE   N44  Bn4
 BYTE   W48
 BYTE   N15  Dn4
 BYTE   W15
 BYTE   N22  Gn4
 BYTE   N22  Bn4
 BYTE   W24
 BYTE   N30  Ds4
 BYTE   N30  Gn4
 BYTE   N30  As4
 BYTE   W09
//  #01 //067   ----------------------------------------
 BYTE   W24
 BYTE   N22  An4
 BYTE   W24
 BYTE   Ds4
 BYTE   N22  Gn4
 BYTE   W24
 BYTE   Ds4
 BYTE   W24
//  #01 //068   ----------------------------------------
 BYTE   An3
 BYTE   W24
 BYTE   N11  Dn4
 BYTE   N11  En4
 BYTE   N11  An4
 BYTE   W24
 BYTE   N15  Dn4
 BYTE   N15  En4
 BYTE   N15  An4
 BYTE   W15
 BYTE   N10  Dn4
 BYTE   N10  En4
 BYTE   N10  An4
 BYTE   W24
 BYTE   N07  Dn4
 BYTE   N30  An4
 BYTE   W09
//  #01 //069   ----------------------------------------
 BYTE   N15  En4
 BYTE   W15
 BYTE   N07  Dn4
 BYTE   W09
 BYTE   N15  En4
 BYTE   W15
 BYTE   N30  An4
 BYTE   W32
 BYTE   W01
 BYTE   N22  En4
 BYTE   W24
//  #01 //070   ----------------------------------------
 BYTE   Bn2
 BYTE   N22  Bn3
 BYTE   W24
 BYTE   En3
 BYTE   N22  En4
 BYTE   W24
 BYTE   Fs3
 BYTE   N22  Fs4
 BYTE   W24
 BYTE   An3
 BYTE   N22  An4
 BYTE   W24
//  #01 //071   ----------------------------------------
 BYTE   N05  Bn3
 BYTE   N05  Bn4
 BYTE   W24
 BYTE   N68  Gn5
 BYTE   W05
 BYTE   N66  Ds5
 BYTE   W05
 BYTE   N60  Bn4
 BYTE   W05
 BYTE   N56  Gn4
 BYTE   W56
 BYTE   W01
//  #01 //072   ----------------------------------------
 BYTE   W24
 BYTE   GoTo
  POIN2 Label_010E654C
//  #01 //073   ----------------------------------------
 BYTE   W72
 BYTE   W96
//  #01 //074   ----------------------------------------
 BYTE   W96
//  #01 //075   ----------------------------------------
 BYTE   W96
//  #01 //076   ----------------------------------------
 BYTE   W96
//  #01 //077   ----------------------------------------
 BYTE   W96
//  #01 //078   ----------------------------------------
 BYTE   W96
//  #01 //079   ----------------------------------------
 BYTE   W96
//  #01 //080   ----------------------------------------
 BYTE   W96
//  #01 //081   ----------------------------------------
 BYTE   W96
//  #01 //082   ----------------------------------------
 BYTE   W96
//  #01 //083   ----------------------------------------
 BYTE   W96
//  #01 //084   ----------------------------------------
 BYTE   W96
//  #01 //085   ----------------------------------------
 BYTE   W96
//  #01 //086   ----------------------------------------
 BYTE   W96
//  #01 //087   ----------------------------------------
 BYTE   W96
//  #01 //088   ----------------------------------------
 BYTE   W96
//  #01 //089   ----------------------------------------
 BYTE   W96
//  #01 //090   ----------------------------------------
 BYTE   W96
//  #01 //091   ----------------------------------------
 BYTE   W96
//  #01 //092   ----------------------------------------
 BYTE   W96
//  #01 //093   ----------------------------------------
 BYTE   W96
//  #01 //094   ----------------------------------------
 BYTE   W96
//  #01 //095   ----------------------------------------
 BYTE   W96
//  #01 //096   ----------------------------------------
 BYTE   W96
//  #01 //097   ----------------------------------------
 BYTE   W96
//  #01 //098   ----------------------------------------
 BYTE   W96
//  #01 //099   ----------------------------------------
 BYTE   W96
//  #01 //100   ----------------------------------------
 BYTE   W96
//  #01 //101   ----------------------------------------
 BYTE   W96
//  #01 //102   ----------------------------------------
 BYTE   W96
//  #01 //103   ----------------------------------------
 BYTE   W96
//  #01 //104   ----------------------------------------
 BYTE   W96
//  #01 //105   ----------------------------------------
 BYTE   W96
//  #01 //106   ----------------------------------------
 BYTE   W96
//  #01 //107   ----------------------------------------
 BYTE   W96
//  #01 //108   ----------------------------------------
 BYTE   W96
//  #01 //109   ----------------------------------------
 BYTE   W96
//  #01 //110   ----------------------------------------
 BYTE   W96
//  #01 //111   ----------------------------------------
 BYTE   W96
//  #01 //112   ----------------------------------------
 BYTE   W96
//  #01 //113   ----------------------------------------
 BYTE   W96
//  #01 //114   ----------------------------------------
 BYTE   W96
//  #01 //115   ----------------------------------------
 BYTE   W96
//  #01 //116   ----------------------------------------
 BYTE   W96
//  #01 //117   ----------------------------------------
 BYTE   W96
//  #01 //118   ----------------------------------------
 BYTE   W96
//  #01 //119   ----------------------------------------
 BYTE   W96
//  #01 //120   ----------------------------------------
 BYTE   W96
//  #01 //121   ----------------------------------------
 BYTE   W96
//  #01 //122   ----------------------------------------
 BYTE   W96
//  #01 //123   ----------------------------------------
 BYTE   W96
//  #01 //124   ----------------------------------------
 BYTE   W96
//  #01 //125   ----------------------------------------
 BYTE   W96
//  #01 //126   ----------------------------------------
 BYTE   W96
//  #01 //127   ----------------------------------------
 BYTE   W96
//  #01 //128   ----------------------------------------
 BYTE   W96
//  #01 //129   ----------------------------------------
 BYTE   W96
//  #01 //130   ----------------------------------------
 BYTE   W96
//  #01 //131   ----------------------------------------
 BYTE   W96
//  #01 //132   ----------------------------------------
 BYTE   W96
//  #01 //133   ----------------------------------------
 BYTE   W96
//  #01 //134   ----------------------------------------
 BYTE   W96
//  #01 //135   ----------------------------------------
 BYTE   W96
//  #01 //136   ----------------------------------------
 BYTE   W96
//  #01 //137   ----------------------------------------
 BYTE   W96
//  #01 //138   ----------------------------------------
 BYTE   W96
//  #01 //139   ----------------------------------------
 BYTE   W96
//  #01 //140   ----------------------------------------
 BYTE   W96
//  #01 //141   ----------------------------------------
 BYTE   W96
//  #01 //142   ----------------------------------------
 BYTE   W96
//  #01 //143   ----------------------------------------
 BYTE   W96
//  #01 //144   ----------------------------------------
 BYTE   W96
//  #01 //145   ----------------------------------------
 BYTE   W96
//  #01 //146   ----------------------------------------
 BYTE   W96
//  #01 //147   ----------------------------------------
 BYTE   W96
//  #01 //148   ----------------------------------------
 BYTE   W96
//  #01 //149   ----------------------------------------
 BYTE   W96
//  #01 //150   ----------------------------------------
 BYTE   W96
//  #01 //151   ----------------------------------------
 BYTE   W96
//  #01 //152   ----------------------------------------
 BYTE   W96
//  #01 //153   ----------------------------------------
 BYTE   W96
//  #01 //154   ----------------------------------------
 BYTE   W96
//  #01 //155   ----------------------------------------
 BYTE   W96
//  #01 //156   ----------------------------------------
 BYTE   W96
//  #01 //157   ----------------------------------------
 BYTE   W96
//  #01 //158   ----------------------------------------
 BYTE   W96
//  #01 //159   ----------------------------------------
 BYTE   W96
//  #01 //160   ----------------------------------------
 BYTE   W96
//  #01 //161   ----------------------------------------
 BYTE   W96
//  #01 //162   ----------------------------------------
 BYTE   W96
//  #01 //163   ----------------------------------------
 BYTE   W96
//  #01 //164   ----------------------------------------
 BYTE   W96
//  #01 //165   ----------------------------------------
 BYTE   W96
//  #01 //166   ----------------------------------------
 BYTE   W96
//  #01 //167   ----------------------------------------
 BYTE   W96
//  #01 //168   ----------------------------------------
 BYTE   W96
//  #01 //169   ----------------------------------------
 BYTE   W96
//  #01 //170   ----------------------------------------
 BYTE   W96
//  #01 //171   ----------------------------------------
 BYTE   W96
//  #01 //172   ----------------------------------------
 BYTE   W96
//  #01 //173   ----------------------------------------
 BYTE   W96
//  #01 //174   ----------------------------------------
 BYTE   W96
//  #01 //175   ----------------------------------------
 BYTE   W96
//  #01 //176   ----------------------------------------
 BYTE   W96
//  #01 //177   ----------------------------------------
 BYTE   W96
//  #01 //178   ----------------------------------------
 BYTE   W96
//  #01 //179   ----------------------------------------
 BYTE   W96
//  #01 //180   ----------------------------------------
 BYTE   W96
//  #01 //181   ----------------------------------------
 BYTE   W96
//  #01 //182   ----------------------------------------
 BYTE   W96
//  #01 //183   ----------------------------------------
 BYTE   W96
//  #01 //184   ----------------------------------------
 BYTE   W96
//  #01 //185   ----------------------------------------
 BYTE   W96
//  #01 //186   ----------------------------------------
 BYTE   W96
//  #01 //187   ----------------------------------------
 BYTE   W96
//  #01 //188   ----------------------------------------
 BYTE   W96
//  #01 //189   ----------------------------------------
 BYTE   W96
//  #01 //190   ----------------------------------------
 BYTE   W96
//  #01 //191   ----------------------------------------
 BYTE   W48
 BYTE   TEMPO   78*PlasmagicSeasons_tbs/2
 BYTE   FINE

//**************** Track 2 (Midi-Chn.1) ****************//

PlasmagicSeasons_002:
//  #02 //000   ----------------------------------------
 BYTE   VOL   80*PlasmagicSeasons_mvl/mxv
 BYTE   KEYSH   PlasmagicSeasons_key+0
 BYTE   VOICE   36
 BYTE   MODT 0
 BYTE   LFOS 44
 BYTE   N44  An2  v044
 BYTE   W48
 BYTE   Cn3
 BYTE   W48
//  #02 //001   ----------------------------------------
 BYTE   N68  En2
 BYTE   W02
 BYTE   Bn2
 BYTE   W68
 BYTE   W02
 BYTE   W12
 BYTE   N11  Gs1
 BYTE   W12
//  #02 //002   ----------------------------------------
Label_010E69E2:
 BYTE   N22  An1  v044
 BYTE   W24
 BYTE   N11  Cn2
 BYTE   N11  En2
 BYTE   W24
 BYTE   N22  En1
 BYTE   W24
 BYTE   N11  Cn2
 BYTE   N11  En2
 BYTE   W24
 BYTE   PEND 
//  #02 //003   ----------------------------------------
 BYTE   Dn2
 BYTE   W24
 BYTE   Cn2
 BYTE   W24
 BYTE   Bn1
 BYTE   W24
 BYTE   An1
 BYTE   W24
//  #02 //004   ----------------------------------------
 BYTE   N22  Bn1
 BYTE   W24
 BYTE   N11  Dn2
 BYTE   N11  Fs2
 BYTE   W24
 BYTE   N22  Fs1
 BYTE   W24
 BYTE   N11  Dn2
 BYTE   N11  Fs2
 BYTE   W24
//  #02 //005   ----------------------------------------
 BYTE   En2
 BYTE   W24
 BYTE   Fs2
 BYTE   W24
 BYTE   Gn2
 BYTE   W24
 BYTE   En2
 BYTE   W24
//  #02 //006   ----------------------------------------
 BYTE   PATT
  POIN2 Label_010E69E2
//  #02 //007   ----------------------------------------
 BYTE   N11  Dn1  v044
 BYTE   W24
 BYTE   En1
 BYTE   W24
 BYTE   Fs1
 BYTE   W24
 BYTE   Dn1
 BYTE   W24
//  #02 //008   ----------------------------------------
 BYTE   N22  En1
 BYTE   W24
 BYTE   N23  Bn1
 BYTE   N23  En2
 BYTE   N23  Gs2
 BYTE   W24
 BYTE   Bn1
 BYTE   N23  En2
 BYTE   N23  Gs2
 BYTE   W24
 BYTE   Bn1
 BYTE   N23  En2
 BYTE   N23  Gs2
 BYTE   W24
//  #02 //009   ----------------------------------------
 BYTE   N11  En2
 BYTE   W24
 BYTE   N68  Fn3
 BYTE   W05
 BYTE   N66  An3
 BYTE   W05
 BYTE   N60  Cn4
 BYTE   W60
 BYTE   W02
//  #02 //010   ----------------------------------------
Label_010E6A46:
 BYTE   N22  Gn1  v044
 BYTE   N22  Dn2
 BYTE   W48
 BYTE   N36  Gn1
 BYTE   N36  Dn2
 BYTE   N36  Fs2
 BYTE   W36
 BYTE   W03
 BYTE   N30  Fs1
 BYTE   N30  Cn2
 BYTE   N30  En2
 BYTE   W09
//  #02 //011   ----------------------------------------
 BYTE   W48
 BYTE   N22  Bn1
 BYTE   N22  Ds2
 BYTE   N22  Fs2
 BYTE   W48
//  #02 //012   ----------------------------------------
Label_010E6A63:
 BYTE   N22  En2  v044
 BYTE   W24
 BYTE   Gn2
 BYTE   N22  Bn2
 BYTE   W24
 BYTE   Bn1
 BYTE   W24
 BYTE   Gn2
 BYTE   N22  Bn2
 BYTE   W24
 BYTE   PEND 
//  #02 //013   ----------------------------------------
 BYTE   Dn2
 BYTE   W24
 BYTE   Fn2
 BYTE   N22  An2
 BYTE   N22  Cn3
 BYTE   W24
 BYTE   Bn1
 BYTE   W24
 BYTE   Dn2
 BYTE   N22  Fn2
 BYTE   N22  An2
 BYTE   W24
//  #02 //014   ----------------------------------------
 BYTE   Cs2
 BYTE   N22  Gn2
 BYTE   N22  Cs3
 BYTE   W36
 BYTE   W03
 BYTE   N52  Cn2
 BYTE   N52  En2
 BYTE   N52  Gn2
 BYTE   N52  Cn3
 BYTE   W56
 BYTE   W01
//  #02 //015   ----------------------------------------
 BYTE   N22  Bn1
 BYTE   N22  Fs2
 BYTE   N22  Bn2
 BYTE   W36
 BYTE   W03
 BYTE   As1
 BYTE   N22  Fn2
 BYTE   N22  As2
 BYTE   W24
 BYTE   N07  As1
 BYTE   W09
 BYTE   N22  As2
 BYTE   W24
//  #02 //016   ----------------------------------------
 BYTE   N11  An1
 BYTE   W24
 BYTE   Bn1
 BYTE   W24
 BYTE   Cn2
 BYTE   W24
 BYTE   An1
 BYTE   W24
//  #02 //017   ----------------------------------------
 BYTE   N22  Dn2
 BYTE   N22  Fs2
 BYTE   N22  An2
 BYTE   W36
 BYTE   W03
 BYTE   Dn2
 BYTE   N22  Fs2
 BYTE   N22  An2
 BYTE   W24
 BYTE   N07  Dn2
 BYTE   W09
 BYTE   N22  Dn3
 BYTE   W24
//  #02 //018   ----------------------------------------
 BYTE   N11  Gn1
 BYTE   W24
 BYTE   N22  Dn2
 BYTE   N22  Gn2
 BYTE   N22  Bn2
 BYTE   W24
 BYTE   Gn1
 BYTE   W24
 BYTE   Dn2
 BYTE   N22  Gn2
 BYTE   W24
//  #02 //019   ----------------------------------------
 BYTE   Fs1
 BYTE   N22  Cn2
 BYTE   N22  En2
 BYTE   W36
 BYTE   W03
 BYTE   Bn1
 BYTE   N22  Dn2
 BYTE   N22  Fs2
 BYTE   W24
 BYTE   N07  Bn1
 BYTE   W09
 BYTE   N22  Bn2
 BYTE   W24
//  #02 //020   ----------------------------------------
 BYTE   PATT
  POIN2 Label_010E6A63
//  #02 //021   ----------------------------------------
 BYTE   N22  Dn2  v044
 BYTE   W24
 BYTE   Fn2
 BYTE   N22  An2
 BYTE   N22  Cn3
 BYTE   W24
 BYTE   Gn1
 BYTE   W24
 BYTE   Dn2
 BYTE   N22  Gn2
 BYTE   N22  Bn2
 BYTE   W24
//  #02 //022   ----------------------------------------
 BYTE   Cn2
 BYTE   W24
 BYTE   En2
 BYTE   N22  Gn2
 BYTE   N22  Bn2
 BYTE   W24
 BYTE   Gn1
 BYTE   W24
 BYTE   En2
 BYTE   N22  Gn2
 BYTE   W24
//  #02 //023   ----------------------------------------
 BYTE   Bn1
 BYTE   N22  Fs2
 BYTE   N22  An2
 BYTE   W36
 BYTE   W03
 BYTE   En2
 BYTE   N22  Bn2
 BYTE   N22  Dn3
 BYTE   W24
 BYTE   N07  En2
 BYTE   W09
 BYTE   N15  En3
 BYTE   W15
 BYTE   N07  Bn2
 BYTE   W09
//  #02 //024   ----------------------------------------
 BYTE   N22  Cn2
 BYTE   W24
 BYTE   En2
 BYTE   N22  Gn2
 BYTE   W24
 BYTE   Dn2  v048
 BYTE   W24
 BYTE   Fs2
 BYTE   N22  An2
 BYTE   W24
//  #02 //025   ----------------------------------------
 BYTE   N16  Gn1  v072
 BYTE   N16  Dn2
 BYTE   W24
 BYTE   Gn1
 BYTE   N16  Dn2
 BYTE   W24
 BYTE   Gn1
 BYTE   N16  Dn2
 BYTE   W48
//  #02 //026   ----------------------------------------
Label_010E6B3E:
 BYTE   N22  Cn2  v032
 BYTE   W24
 BYTE   En2
 BYTE   N22  Gn2
 BYTE   W24
 BYTE   Gn1
 BYTE   W24
 BYTE   En2
 BYTE   N22  Gn2
 BYTE   W24
 BYTE   PEND 
//  #02 //027   ----------------------------------------
 BYTE   PATT
  POIN2 Label_010E6B3E
//  #02 //028   ----------------------------------------
Label_010E6B52:
 BYTE   N22  Cn2  v032
 BYTE   W24
 BYTE   Ds2
 BYTE   N22  Gn2
 BYTE   W24
 BYTE   Gn1
 BYTE   W24
 BYTE   Ds2
 BYTE   N22  Gn2
 BYTE   W24
 BYTE   PEND 
//  #02 //029   ----------------------------------------
 BYTE   PATT
  POIN2 Label_010E6B52
//  #02 //030   ----------------------------------------
Label_010E6B66:
 BYTE   N22  Bn1  v032
 BYTE   W24
 BYTE   Dn2
 BYTE   N22  Fs2
 BYTE   N22  An2
 BYTE   W24
 BYTE   Bn1
 BYTE   W24
 BYTE   Dn2
 BYTE   N22  Fs2
 BYTE   N22  An2
 BYTE   W24
 BYTE   PEND 
//  #02 //031   ----------------------------------------
 BYTE   PATT
  POIN2 Label_010E6B66
//  #02 //032   ----------------------------------------
 BYTE   N22  En1  v032
 BYTE   W24
 BYTE   Gs1
 BYTE   N22  Bn1
 BYTE   W24
 BYTE   En1
 BYTE   W24
 BYTE   Gs1
 BYTE   N22  Bn1
 BYTE   W24
//  #02 //033   ----------------------------------------
 BYTE   En1
 BYTE   W24
 BYTE   Gs1
 BYTE   N22  Bn1
 BYTE   N22  Dn2
 BYTE   W24
 BYTE   En1  v036
 BYTE   W24
 BYTE   Gs1  v040
 BYTE   N22  Bn1
 BYTE   N22  Dn2
 BYTE   W24
//  #02 //034   ----------------------------------------
 BYTE   An1  v044
 BYTE   N22  Cn2
 BYTE   N22  En2
 BYTE   N22  Gn2
 BYTE   W96
//  #02 //035   ----------------------------------------
 BYTE   W60
 BYTE   W03
 BYTE   N30  As1  v060
 BYTE   N30  En2
 BYTE   N30  Gn2
 BYTE   W32
 BYTE   W01
//  #02 //036   ----------------------------------------
 BYTE   N22  Bn1
 BYTE   N22  Fs2
 BYTE   N22  An2
 BYTE   W96
//  #02 //037   ----------------------------------------
 BYTE   W60
 BYTE   W03
 BYTE   N30  Bn1
 BYTE   N30  Fs2
 BYTE   N30  An2
 BYTE   W32
 BYTE   W01
//  #02 //038   ----------------------------------------
 BYTE   TIE  Cn2
 BYTE   W02
 BYTE   Ds2
 BYTE   W03
 BYTE   Gn2
 BYTE   W02
 BYTE   Cn3
 BYTE   W88
 BYTE   W01
//  #02 //039   ----------------------------------------
 BYTE   W90
 BYTE   EOT
 BYTE   Ds2  v060
 BYTE   W01
 BYTE   Cn2  v055
 BYTE   W05
//  #02 //040   ----------------------------------------
 BYTE   N11  Dn1
 BYTE   N11  Dn2
 BYTE   W24
 BYTE   Ds1
 BYTE   N11  Ds2
 BYTE   W24
 BYTE   En1
 BYTE   N11  En2
 BYTE   W24
 BYTE   Fn1
 BYTE   N11  Fn2
 BYTE   W24
//  #02 //041   ----------------------------------------
 BYTE   Fs1
 BYTE   N11  Fs2
 BYTE   W24
 BYTE   Gn1
 BYTE   N11  Gn2
 BYTE   W24
 BYTE   An1
 BYTE   N11  An2
 BYTE   W24
 BYTE   N22  As1
 BYTE   N22  As2
 BYTE   W24
//  #02 //042   ----------------------------------------
 BYTE   N15  Fs2  v052
 BYTE   N15  An2
 BYTE   W15
 BYTE   N07  Bn1
 BYTE   W09
 BYTE   N15  Fs2
 BYTE   N15  An2
 BYTE   W15
 BYTE   N07  Bn1
 BYTE   W09
 BYTE   N15  Fs2
 BYTE   N15  An2
 BYTE   W15
 BYTE   N07  Bn1
 BYTE   W09
 BYTE   N15  Fs2
 BYTE   N15  An2
 BYTE   W15
 BYTE   N07  Bn1
 BYTE   W09
//  #02 //043   ----------------------------------------
 BYTE   N11  En2  v060
 BYTE   N11  Gs2
 BYTE   W24
 BYTE   N68  Bn1
 BYTE   N68  Fs2
 BYTE   N68  An2
 BYTE   W72
//  #02 //044   ----------------------------------------
Label_010E6C25:
 BYTE   N22  An1  v044
 BYTE   W24
 BYTE   Cn2
 BYTE   N22  En2
 BYTE   N22  Gn2
 BYTE   W24
 BYTE   An1
 BYTE   W24
 BYTE   Cn2
 BYTE   N22  En2
 BYTE   N22  Gn2
 BYTE   W24
 BYTE   PEND 
//  #02 //045   ----------------------------------------
Label_010E6C38:
 BYTE   N22  Dn2  v044
 BYTE   W24
 BYTE   Fs2
 BYTE   N22  An2
 BYTE   W24
 BYTE   Dn2
 BYTE   W24
 BYTE   Fs2
 BYTE   N22  An2
 BYTE   W24
 BYTE   PEND 
//  #02 //046   ----------------------------------------
Label_010E6C47:
 BYTE   N22  Bn1  v044
 BYTE   W24
 BYTE   Dn2
 BYTE   N22  Fs2
 BYTE   N22  An2
 BYTE   W24
 BYTE   Bn1
 BYTE   W24
 BYTE   Dn2
 BYTE   N22  Fs2
 BYTE   N22  An2
 BYTE   W24
 BYTE   PEND 
//  #02 //047   ----------------------------------------
 BYTE   En2
 BYTE   W24
 BYTE   Gn2
 BYTE   N22  Bn2
 BYTE   W24
 BYTE   En2
 BYTE   W24
 BYTE   Gn2
 BYTE   N22  Bn2
 BYTE   W24
//  #02 //048   ----------------------------------------
 BYTE   PATT
  POIN2 Label_010E6C25
//  #02 //049   ----------------------------------------
 BYTE   PATT
  POIN2 Label_010E6C38
//  #02 //050   ----------------------------------------
 BYTE   PATT
  POIN2 Label_010E6C47
//  #02 //051   ----------------------------------------
 BYTE   N22  En1  v044
 BYTE   W24
 BYTE   Gs1
 BYTE   N22  Bn1
 BYTE   N22  En2
 BYTE   W24
 BYTE   En1
 BYTE   W24
 BYTE   Gs1
 BYTE   N22  Bn1
 BYTE   N22  En2
 BYTE   W24
//  #02 //052   ----------------------------------------
 BYTE   PATT
  POIN2 Label_010E6C25
//  #02 //053   ----------------------------------------
 BYTE   PATT
  POIN2 Label_010E6C38
//  #02 //054   ----------------------------------------
 BYTE   PATT
  POIN2 Label_010E6C47
//  #02 //055   ----------------------------------------
 BYTE   N22  As1  v044
 BYTE   W24
 BYTE   Dn2
 BYTE   N22  Fn2
 BYTE   N22  As2
 BYTE   W24
 BYTE   As1
 BYTE   W24
 BYTE   Dn2
 BYTE   N22  Fn2
 BYTE   N22  As2
 BYTE   W24
//  #02 //056   ----------------------------------------
 BYTE   An1
 BYTE   W24
 BYTE   En2
 BYTE   N22  Gn2
 BYTE   W24
 BYTE   An1
 BYTE   W24
 BYTE   En2
 BYTE   N22  Gn2
 BYTE   W24
//  #02 //057   ----------------------------------------
 BYTE   PATT
  POIN2 Label_010E6C38
//  #02 //058   ----------------------------------------
 BYTE   N22  En2  v060
 BYTE   W24
 BYTE   En2  v044
 BYTE   N22  Gs2
 BYTE   N22  Bn2
 BYTE   N22  Dn3
 BYTE   W24
 BYTE   En2  v048
 BYTE   N22  Gs2
 BYTE   N22  Bn2
 BYTE   N22  Dn3
 BYTE   W24
 BYTE   En2  v052
 BYTE   N22  Gs2
 BYTE   N22  Bn2
 BYTE   N22  Dn3
 BYTE   W24
//  #02 //059   ----------------------------------------
 BYTE   En2  v044
 BYTE   W24
 BYTE   Gs2
 BYTE   N22  Bn2
 BYTE   N22  Dn3
 BYTE   W24
 BYTE   En2
 BYTE   W24
 BYTE   Gs2
 BYTE   N22  Bn2
 BYTE   W24
//  #02 //060   ----------------------------------------
 BYTE   PATT
  POIN2 Label_010E6C25
//  #02 //061   ----------------------------------------
 BYTE   N22  Dn2  v044
 BYTE   N22  Fs2
 BYTE   N22  An2
 BYTE   N22  Cn3
 BYTE   W24
 BYTE   Dn2  v048
 BYTE   N22  Fs2
 BYTE   N22  An2
 BYTE   N22  Cn3
 BYTE   W24
 BYTE   Dn2  v052
 BYTE   N22  Fs2
 BYTE   N22  An2
 BYTE   N22  Cn3
 BYTE   W24
 BYTE   Dn2  v060
 BYTE   N22  Fs2
 BYTE   N22  An2
 BYTE   N22  Cn3
 BYTE   W24
//  #02 //062   ----------------------------------------
 BYTE   TIE  Gn1
 BYTE   W03
 BYTE   Bn1
 BYTE   W04
 BYTE   Dn2
 BYTE   W04
 BYTE   Fs2
 BYTE   W84
 BYTE   W01
//  #02 //063   ----------------------------------------
 BYTE   W36
 BYTE   W01
 BYTE   EOT
 BYTE   Gn1  v047
 BYTE   Dn2  v054
 BYTE   W02
 BYTE   N07  Gn1
 BYTE   W09
 BYTE   N44  Bn1
 BYTE   W05
 BYTE   N42  Dn2
 BYTE   W05
 BYTE   N36  Fs2
 BYTE   W36
 BYTE   W02
//  #02 //064   ----------------------------------------
 BYTE   N22  Dn2
 BYTE   W24
 BYTE   Fs2
 BYTE   N22  An2
 BYTE   N22  Dn3
 BYTE   W24
 BYTE   Dn2
 BYTE   W24
 BYTE   Fs2
 BYTE   N22  An2
 BYTE   N22  Dn3
 BYTE   W24
//  #02 //065   ----------------------------------------
 BYTE   Cn2
 BYTE   W24
 BYTE   Fn2
 BYTE   N22  An2
 BYTE   N22  Cn3
 BYTE   W24
 BYTE   Cn2
 BYTE   W24
 BYTE   Fn2
 BYTE   N22  An2
 BYTE   N22  Cn3
 BYTE   W24
//  #02 //066   ----------------------------------------
 BYTE   Bn1
 BYTE   W24
 BYTE   Dn2
 BYTE   N22  Gn2
 BYTE   N22  Bn2
 BYTE   W24
 BYTE   Bn1
 BYTE   W24
 BYTE   Dn2
 BYTE   N22  Gn2
 BYTE   N22  Bn2
 BYTE   W24
//  #02 //067   ----------------------------------------
 BYTE   As1
 BYTE   W24
 BYTE   Ds2
 BYTE   N22  Gn2
 BYTE   N22  Bn2
 BYTE   W24
 BYTE   Gn1
 BYTE   W24
 BYTE   Ds2
 BYTE   N22  Gn2
 BYTE   N22  Bn2
 BYTE   W24
//  #02 //068   ----------------------------------------
 BYTE   An1
 BYTE   N22  En2
 BYTE   N22  An2
 BYTE   W24
 BYTE   N15  En2
 BYTE   N15  An2
 BYTE   W15
 BYTE   N07  An1
 BYTE   W09
 BYTE   N15  En2
 BYTE   N15  An2
 BYTE   W15
 BYTE   N07  An1
 BYTE   W09
 BYTE   N15  En2
 BYTE   N15  An2
 BYTE   W15
 BYTE   N07  An1
 BYTE   W09
//  #02 //069   ----------------------------------------
 BYTE   N15  En2
 BYTE   N15  An2
 BYTE   W15
 BYTE   N07  An1
 BYTE   W09
 BYTE   N15  En2
 BYTE   N15  An2
 BYTE   W15
 BYTE   N07  An1
 BYTE   W09
 BYTE   N15  En2
 BYTE   N15  An2
 BYTE   W15
 BYTE   N07  An1
 BYTE   W09
 BYTE   N15  En2
 BYTE   N15  An2
 BYTE   W15
 BYTE   N07  An1
 BYTE   W09
//  #02 //070   ----------------------------------------
 BYTE   N22  Bn1
 BYTE   N22  Fs2
 BYTE   W24
 BYTE   Bn1
 BYTE   N22  Fs2
 BYTE   W24
 BYTE   Bn1
 BYTE   N22  Fs2
 BYTE   N22  Bn2
 BYTE   W24
 BYTE   Bn1
 BYTE   N22  Fs2
 BYTE   N22  Bn2
 BYTE   W24
//  #02 //071   ----------------------------------------
 BYTE   N05  Bn1
 BYTE   N05  Fs2
 BYTE   N05  Bn2
 BYTE   W24
 BYTE   N68  Fn3  v044
 BYTE   W05
 BYTE   N66  An3
 BYTE   W05
 BYTE   N60  Cn4
 BYTE   W60
 BYTE   W02
//  #02 //072   ----------------------------------------
 BYTE   W24
 BYTE   GoTo
  POIN2 Label_010E6A46
//  #02 //073   ----------------------------------------
 BYTE   W72
 BYTE   W96
//  #02 //074   ----------------------------------------
 BYTE   W96
//  #02 //075   ----------------------------------------
 BYTE   W96
//  #02 //076   ----------------------------------------
 BYTE   W96
//  #02 //077   ----------------------------------------
 BYTE   W96
//  #02 //078   ----------------------------------------
 BYTE   W96
//  #02 //079   ----------------------------------------
 BYTE   W96
//  #02 //080   ----------------------------------------
 BYTE   W96
//  #02 //081   ----------------------------------------
 BYTE   W96
//  #02 //082   ----------------------------------------
 BYTE   W96
//  #02 //083   ----------------------------------------
 BYTE   W96
//  #02 //084   ----------------------------------------
 BYTE   W96
//  #02 //085   ----------------------------------------
 BYTE   W96
//  #02 //086   ----------------------------------------
 BYTE   W96
//  #02 //087   ----------------------------------------
 BYTE   W96
//  #02 //088   ----------------------------------------
 BYTE   W96
//  #02 //089   ----------------------------------------
 BYTE   W96
//  #02 //090   ----------------------------------------
 BYTE   W96
//  #02 //091   ----------------------------------------
 BYTE   W96
//  #02 //092   ----------------------------------------
 BYTE   W96
//  #02 //093   ----------------------------------------
 BYTE   W96
//  #02 //094   ----------------------------------------
 BYTE   W96
//  #02 //095   ----------------------------------------
 BYTE   W96
//  #02 //096   ----------------------------------------
 BYTE   W96
//  #02 //097   ----------------------------------------
 BYTE   W96
//  #02 //098   ----------------------------------------
 BYTE   W96
//  #02 //099   ----------------------------------------
 BYTE   W96
//  #02 //100   ----------------------------------------
 BYTE   W96
//  #02 //101   ----------------------------------------
 BYTE   W96
//  #02 //102   ----------------------------------------
 BYTE   W96
//  #02 //103   ----------------------------------------
 BYTE   W96
//  #02 //104   ----------------------------------------
 BYTE   W96
//  #02 //105   ----------------------------------------
 BYTE   W96
//  #02 //106   ----------------------------------------
 BYTE   W96
//  #02 //107   ----------------------------------------
 BYTE   W96
//  #02 //108   ----------------------------------------
 BYTE   W96
//  #02 //109   ----------------------------------------
 BYTE   W96
//  #02 //110   ----------------------------------------
 BYTE   W96
//  #02 //111   ----------------------------------------
 BYTE   W96
//  #02 //112   ----------------------------------------
 BYTE   W96
//  #02 //113   ----------------------------------------
 BYTE   W96
//  #02 //114   ----------------------------------------
 BYTE   W96
//  #02 //115   ----------------------------------------
 BYTE   W96
//  #02 //116   ----------------------------------------
 BYTE   W96
//  #02 //117   ----------------------------------------
 BYTE   W96
//  #02 //118   ----------------------------------------
 BYTE   W96
//  #02 //119   ----------------------------------------
 BYTE   W96
//  #02 //120   ----------------------------------------
 BYTE   W96
//  #02 //121   ----------------------------------------
 BYTE   W96
//  #02 //122   ----------------------------------------
 BYTE   W96
//  #02 //123   ----------------------------------------
 BYTE   W96
//  #02 //124   ----------------------------------------
 BYTE   W96
//  #02 //125   ----------------------------------------
 BYTE   W96
//  #02 //126   ----------------------------------------
 BYTE   W96
//  #02 //127   ----------------------------------------
 BYTE   W96
//  #02 //128   ----------------------------------------
 BYTE   W96
//  #02 //129   ----------------------------------------
 BYTE   W96
//  #02 //130   ----------------------------------------
 BYTE   W96
//  #02 //131   ----------------------------------------
 BYTE   W96
//  #02 //132   ----------------------------------------
 BYTE   W96
//  #02 //133   ----------------------------------------
 BYTE   W96
//  #02 //134   ----------------------------------------
 BYTE   W96
//  #02 //135   ----------------------------------------
 BYTE   W96
//  #02 //136   ----------------------------------------
 BYTE   W96
//  #02 //137   ----------------------------------------
 BYTE   W96
//  #02 //138   ----------------------------------------
 BYTE   W96
//  #02 //139   ----------------------------------------
 BYTE   W96
//  #02 //140   ----------------------------------------
 BYTE   W96
//  #02 //141   ----------------------------------------
 BYTE   W96
//  #02 //142   ----------------------------------------
 BYTE   W96
//  #02 //143   ----------------------------------------
 BYTE   W96
//  #02 //144   ----------------------------------------
 BYTE   W96
//  #02 //145   ----------------------------------------
 BYTE   W96
//  #02 //146   ----------------------------------------
 BYTE   W96
//  #02 //147   ----------------------------------------
 BYTE   W96
//  #02 //148   ----------------------------------------
 BYTE   W96
//  #02 //149   ----------------------------------------
 BYTE   W96
//  #02 //150   ----------------------------------------
 BYTE   W96
//  #02 //151   ----------------------------------------
 BYTE   W96
//  #02 //152   ----------------------------------------
 BYTE   W96
//  #02 //153   ----------------------------------------
 BYTE   W96
//  #02 //154   ----------------------------------------
 BYTE   W96
//  #02 //155   ----------------------------------------
 BYTE   W96
//  #02 //156   ----------------------------------------
 BYTE   W96
//  #02 //157   ----------------------------------------
 BYTE   W96
//  #02 //158   ----------------------------------------
 BYTE   W96
//  #02 //159   ----------------------------------------
 BYTE   W96
//  #02 //160   ----------------------------------------
 BYTE   W96
//  #02 //161   ----------------------------------------
 BYTE   W96
//  #02 //162   ----------------------------------------
 BYTE   W96
//  #02 //163   ----------------------------------------
 BYTE   W96
//  #02 //164   ----------------------------------------
 BYTE   W96
//  #02 //165   ----------------------------------------
 BYTE   W96
//  #02 //166   ----------------------------------------
 BYTE   W96
//  #02 //167   ----------------------------------------
 BYTE   W96
//  #02 //168   ----------------------------------------
 BYTE   W96
//  #02 //169   ----------------------------------------
 BYTE   W96
//  #02 //170   ----------------------------------------
 BYTE   W96
//  #02 //171   ----------------------------------------
 BYTE   W96
//  #02 //172   ----------------------------------------
 BYTE   W96
//  #02 //173   ----------------------------------------
 BYTE   W96
//  #02 //174   ----------------------------------------
 BYTE   W96
//  #02 //175   ----------------------------------------
 BYTE   W96
//  #02 //176   ----------------------------------------
 BYTE   W96
//  #02 //177   ----------------------------------------
 BYTE   W96
//  #02 //178   ----------------------------------------
 BYTE   W96
//  #02 //179   ----------------------------------------
 BYTE   W96
//  #02 //180   ----------------------------------------
 BYTE   W96
//  #02 //181   ----------------------------------------
 BYTE   W96
//  #02 //182   ----------------------------------------
 BYTE   W96
//  #02 //183   ----------------------------------------
 BYTE   W96
//  #02 //184   ----------------------------------------
 BYTE   W96
//  #02 //185   ----------------------------------------
 BYTE   W96
//  #02 //186   ----------------------------------------
 BYTE   W96
//  #02 //187   ----------------------------------------
 BYTE   W96
//  #02 //188   ----------------------------------------
 BYTE   W96
//  #02 //189   ----------------------------------------
 BYTE   W96
//  #02 //190   ----------------------------------------
 BYTE   W96
//  #02 //191   ----------------------------------------
 BYTE   W48
 BYTE   FINE

//**************** Track 3 (Midi-Chn.2) ****************//

PlasmagicSeasons_003:
//  #03 //000   ----------------------------------------
 BYTE   KEYSH   PlasmagicSeasons_key+0
 BYTE   VOICE   75
 BYTE   MODT 0
 BYTE   LFOS 44
 BYTE   PAN   c_v+0
 BYTE   VOL   80*PlasmagicSeasons_mvl/mxv
 BYTE   N22  An3  v044
 BYTE   N44  Bn3
 BYTE   W02
 BYTE   Cn4
 BYTE   W03
 BYTE   N42  En4
 BYTE   W02
 BYTE   N36  Gn4
 BYTE   W17
 BYTE   N22  Gn3
 BYTE   W24
 BYTE   Cn4
 BYTE   N44  En4
 BYTE   W02
 BYTE   Gn4
 BYTE   W03
 BYTE   N42  Cn5
 BYTE   W19
 BYTE   N22  An3
 BYTE   W24
//  #03 //001   ----------------------------------------
 BYTE   N44  Bn3
 BYTE   W02
 BYTE   Ds4
 BYTE   W03
 BYTE   N42  Fs4
 BYTE   W42
 BYTE   W01
 BYTE   N23  Bn5
 BYTE   W01
 BYTE   N22  Fs5
 BYTE   W02
 BYTE   N20  Ds5
 BYTE   W01
 BYTE   N19  Bn4
 BYTE   W20
 BYTE   N01  An5
 BYTE   N01  Bn5
 BYTE   W01
 BYTE   Gn5
 BYTE   W01
 BYTE   Fn5
 BYTE   W01
 BYTE   En5
 BYTE   W01
 BYTE   Dn5
 BYTE   W01
 BYTE   Bn4
 BYTE   N01  Cn5
 BYTE   W01
 BYTE   An4
 BYTE   W01
 BYTE   Gn4
 BYTE   W01
 BYTE   Fn4
 BYTE   W01
 BYTE   En4
 BYTE   W01
 BYTE   Dn4
 BYTE   W01
 BYTE   Cn4
 BYTE   W01
 BYTE   N11  Bn3
 BYTE   W12
//  #03 //002   ----------------------------------------
 BYTE   N15  Cn4  v060
 BYTE   W15
 BYTE   N07  En4
 BYTE   W09
 BYTE   N15  Cn4
 BYTE   W15
 BYTE   N22  Gn4
 BYTE   W24
 BYTE   N07  Cn4
 BYTE   W09
 BYTE   N15  Gn3
 BYTE   W15
 BYTE   N22  Fs3
 BYTE   W09
//  #03 //003   ----------------------------------------
 BYTE   W15
 BYTE   Cn4
 BYTE   N22  En4
 BYTE   W24
 BYTE   N07  Fs3
 BYTE   W09
 BYTE   N15  Cn4
 BYTE   N15  En4
 BYTE   W15
 BYTE   N07  Dn4
 BYTE   W09
 BYTE   N15  Cn4
 BYTE   W15
 BYTE   N07  Bn3
 BYTE   W09
//  #03 //004   ----------------------------------------
 BYTE   N15  An3
 BYTE   N15  Dn4
 BYTE   W15
 BYTE   N10
 BYTE   N10  Fs4
 BYTE   W24
 BYTE   N22
 BYTE   N22  An4
 BYTE   W24
 BYTE   N07  Dn4
 BYTE   W09
 BYTE   N15  Cn4
 BYTE   W15
 BYTE   N22  Bn3
 BYTE   W09
//  #03 //005   ----------------------------------------
 BYTE   W15
 BYTE   Dn4
 BYTE   N22  Fs4
 BYTE   W24
 BYTE   En4
 BYTE   N22  Gn4
 BYTE   W24
 BYTE   N07  Fs4
 BYTE   W09
 BYTE   N15  En4
 BYTE   W15
 BYTE   N07  Dn4
 BYTE   W09
//  #03 //006   ----------------------------------------
 BYTE   N15  Cn4
 BYTE   W15
 BYTE   N07  En4
 BYTE   W09
 BYTE   N15  Cn4
 BYTE   W15
 BYTE   N22  Gn4
 BYTE   W24
 BYTE   N07  Cn4
 BYTE   W09
 BYTE   N15  Gn3
 BYTE   W15
 BYTE   N30  Fs3
 BYTE   W09
//  #03 //007   ----------------------------------------
 BYTE   W24
 BYTE   N22  Gn3
 BYTE   W24
 BYTE   N15  Bn3
 BYTE   N15  Dn4
 BYTE   W15
 BYTE   N22  An3
 BYTE   N22  Cn4
 BYTE   W24
 BYTE   N30  Gs3
 BYTE   N30  Bn3
 BYTE   W09
//  #03 //008   ----------------------------------------
 BYTE   W24
 BYTE   N08  En4
 BYTE   W09
 BYTE   Fs4
 BYTE   W09
 BYTE   Gs4
 BYTE   W09
 BYTE   An4
 BYTE   W09
 BYTE   Bn4
 BYTE   W09
 BYTE   An4
 BYTE   W09
 BYTE   Gs4
 BYTE   W09
 BYTE   Fs4
 BYTE   W09
//  #03 //009   ----------------------------------------
 BYTE   N11  En4
 BYTE   W24
 BYTE   N68  Gn5
 BYTE   W05
 BYTE   N66  Ds5
 BYTE   W05
 BYTE   N60  Bn4
 BYTE   W05
 BYTE   N56  Gn4
 BYTE   W56
 BYTE   W01
//  #03 //010   ----------------------------------------
Label_010E6F54:
 BYTE   W24
 BYTE   N22  Gn3  v060
 BYTE   W24
 BYTE   N15  An3
 BYTE   W15
 BYTE   N22  Gn3
 BYTE   W24
 BYTE   N30  Fs3
 BYTE   N30  Cn4
 BYTE   W09
 BYTE   PEND 
//  #03 //011   ----------------------------------------
 BYTE   W24
 BYTE   N22  Bn3
 BYTE   W24
 BYTE   Fs3
 BYTE   N22  An3
 BYTE   W24
 BYTE   Fs3
 BYTE   W24
//  #03 //012   ----------------------------------------
 BYTE   N15  En3
 BYTE   N15  Gn3
 BYTE   W15
 BYTE   N07  Fs3
 BYTE   W09
 BYTE   N15  Gn3
 BYTE   W15
 BYTE   N22  En3
 BYTE   N22  An3
 BYTE   W24
 BYTE   Gn3
 BYTE   W24
 BYTE   N52  Dn3
 BYTE   W09
//  #03 //013   ----------------------------------------
 BYTE   W60
 BYTE   W03
 BYTE   N07
 BYTE   W09
 BYTE   N15
 BYTE   W15
 BYTE   N07
 BYTE   W09
//  #03 //014   ----------------------------------------
 BYTE   N44  En3
 BYTE   N44  Gn3
 BYTE   W60
 BYTE   W03
 BYTE   N07  En3
 BYTE   W09
 BYTE   N15  Gn3
 BYTE   W15
 BYTE   N07  Bn3
 BYTE   W09
//  #03 //015   ----------------------------------------
 BYTE   N15  Ds3
 BYTE   N15  An3
 BYTE   W15
 BYTE   N22  Bn3
 BYTE   W24
 BYTE   N07  Dn3
 BYTE   N30  Gn3
 BYTE   W48
 BYTE   N07
 BYTE   W09
//  #03 //016   ----------------------------------------
 BYTE   N22  Cn4
 BYTE   W24
 BYTE   Bn3
 BYTE   W24
 BYTE   An3
 BYTE   W24
 BYTE   N15  Gn3
 BYTE   W15
 BYTE   N07
 BYTE   W09
//  #03 //017   ----------------------------------------
 BYTE   N15
 BYTE   W15
 BYTE   N07  Fs3
 BYTE   W09
 BYTE   N15  Gn3
 BYTE   W15
 BYTE   N30  An3
 BYTE   W56
 BYTE   W01
//  #03 //018   ----------------------------------------
 BYTE   PATT
  POIN2 Label_010E6F54
//  #03 //019   ----------------------------------------
 BYTE   W24
 BYTE   N22  Bn3  v060
 BYTE   W24
 BYTE   N15  Fs3
 BYTE   N15  Dn4
 BYTE   W15
 BYTE   N22  Bn3
 BYTE   W24
 BYTE   N07
 BYTE   W09
//  #03 //020   ----------------------------------------
 BYTE   N15  An3
 BYTE   W15
 BYTE   N07  Gn3
 BYTE   W09
 BYTE   N15  An3
 BYTE   W15
 BYTE   N07  Gn3
 BYTE   W09
 BYTE   N15  An3
 BYTE   W15
 BYTE   N22  Gn3
 BYTE   W24
 BYTE   N30  Fn3
 BYTE   N30  Bn3
 BYTE   W09
//  #03 //021   ----------------------------------------
 BYTE   W36
 BYTE   W03
 BYTE   N07
 BYTE   W09
 BYTE   N15
 BYTE   W15
 BYTE   N22  Cn4
 BYTE   W24
 BYTE   N44  En3
 BYTE   N44  Bn3
 BYTE   W09
//  #03 //022   ----------------------------------------
 BYTE   W36
 BYTE   W03
 BYTE   N07  Gn3
 BYTE   W09
 BYTE   N22
 BYTE   W24
 BYTE   En3
 BYTE   W24
//  #03 //023   ----------------------------------------
 BYTE   N15  Dn3
 BYTE   W15
 BYTE   N07
 BYTE   W09
 BYTE   N15  An3
 BYTE   W15
 BYTE   N30  Gn3
 BYTE   W32
 BYTE   W01
 BYTE   N22
 BYTE   W24
//  #03 //024   ----------------------------------------
 BYTE   En3
 BYTE   N22  Cn4
 BYTE   W24
 BYTE   Bn3  v064
 BYTE   W24
 BYTE   Dn3  v068
 BYTE   N22  Fs3
 BYTE   W24
 BYTE   An3
 BYTE   W24
//  #03 //025   ----------------------------------------
 BYTE   N16  Bn2  v072
 BYTE   N16  Dn3
 BYTE   N16  Gn3
 BYTE   W24
 BYTE   Bn2
 BYTE   N16  Dn3
 BYTE   N16  Gn3
 BYTE   W24
 BYTE   Bn2
 BYTE   N16  Dn3
 BYTE   N16  Gn3
 BYTE   W24
 BYTE   N11  Gn4
 BYTE   W24
//  #03 //026   ----------------------------------------
 BYTE   N68  Bn3  v044
 BYTE   W05
 BYTE   N66  Cn4
 BYTE   W05
 BYTE   N60  En4
 BYTE   W05
 BYTE   N56  Gn4
 BYTE   W56
 BYTE   W01
 BYTE   N22
 BYTE   W24
//  #03 //027   ----------------------------------------
 BYTE   N15  Cn4
 BYTE   N15  Gn4
 BYTE   W15
 BYTE   N22  En4
 BYTE   W24
 BYTE   Cn4
 BYTE   N22  Gn4
 BYTE   W24
 BYTE   N07
 BYTE   W09
 BYTE   N15
 BYTE   W15
 BYTE   N07  An4
 BYTE   W09
//  #03 //028   ----------------------------------------
 BYTE   N44  Cn4
 BYTE   W05
 BYTE   N42  Gn4
 BYTE   W05
 BYTE   N36  As4
 BYTE   W36
 BYTE   W02
 BYTE   An4
 BYTE   W36
 BYTE   W03
 BYTE   N22  Cn4
 BYTE   N22  Gn4
 BYTE   W09
//  #03 //029   ----------------------------------------
 BYTE   W15
 BYTE   N07  An4
 BYTE   W09
 BYTE   N15  Gn4
 BYTE   W15
 BYTE   N22  Cn4
 BYTE   N22  Gn4
 BYTE   W24
 BYTE   Ds4
 BYTE   W32
 BYTE   W01
//  #03 //030   ----------------------------------------
 BYTE   W24
 BYTE   Bn3
 BYTE   N22  Dn4
 BYTE   W24
 BYTE   Bn3
 BYTE   N22  Dn4
 BYTE   W36
 BYTE   W03
 BYTE   N07
 BYTE   W09
//  #03 //031   ----------------------------------------
 BYTE   N15
 BYTE   N15  Dn5
 BYTE   W15
 BYTE   N22  Cn5
 BYTE   W24
 BYTE   Dn4
 BYTE   N22  Bn4
 BYTE   W24
 BYTE   N07  Gn4
 BYTE   W09
 BYTE   N15  Bn4
 BYTE   W15
 BYTE   N07  Cn5
 BYTE   W09
//  #03 //032   ----------------------------------------
 BYTE   N44  En4
 BYTE   N44  Bn4
 BYTE   W48
 BYTE   En4
 BYTE   N44  Cn5
 BYTE   W48
//  #03 //033   ----------------------------------------
 BYTE   N36  En4
 BYTE   N36  Bn4
 BYTE   W36
 BYTE   W03
 BYTE   N30  En4  v048
 BYTE   N30  Gs4
 BYTE   W32
 BYTE   W01
 BYTE   N01  Gn5  v056
 BYTE   W01
 BYTE   Fn5
 BYTE   W02
 BYTE   En5
 BYTE   W02
 BYTE   Dn5
 BYTE   W01
 BYTE   Cn5
 BYTE   W02
 BYTE   Bn4
 BYTE   W02
 BYTE   An4
 BYTE   W01
 BYTE   Gn4
 BYTE   W02
 BYTE   Fn4
 BYTE   W02
 BYTE   En4
 BYTE   W01
 BYTE   Dn4
 BYTE   W02
 BYTE   Cn4  v060
 BYTE   W02
 BYTE   Bn3
 BYTE   W02
 BYTE   An3
 BYTE   W02
//  #03 //034   ----------------------------------------
 BYTE   N22  Gn3
 BYTE   W60
 BYTE   W03
 BYTE   N07  En4
 BYTE   W09
 BYTE   N15  Gn4
 BYTE   W15
 BYTE   N07  En4
 BYTE   W09
//  #03 //035   ----------------------------------------
 BYTE   N22  Gn4
 BYTE   W24
 BYTE   N15  En4
 BYTE   W15
 BYTE   N07  Gn4
 BYTE   W24
 BYTE   N30  Cn3
 BYTE   N30  En3
 BYTE   W32
 BYTE   W01
//  #03 //036   ----------------------------------------
 BYTE   N22  Bn2
 BYTE   N22  Dn3
 BYTE   W60
 BYTE   W03
 BYTE   N07  En4
 BYTE   W09
 BYTE   N15  Gn4
 BYTE   W15
 BYTE   N07  En4
 BYTE   W09
//  #03 //037   ----------------------------------------
 BYTE   N22  Gn4
 BYTE   W24
 BYTE   N15  An4
 BYTE   W15
 BYTE   N22  Bn4
 BYTE   W24
 BYTE   N30  En4
 BYTE   W32
 BYTE   W01
//  #03 //038   ----------------------------------------
 BYTE   N44  Cn4
 BYTE   W05
 BYTE   N42  Ds4
 BYTE   W05
 BYTE   N36  An4
 BYTE   W36
 BYTE   W02
 BYTE   N44  Gn4
 BYTE   W48
//  #03 //039   ----------------------------------------
 BYTE   Ds4
 BYTE   W48
 BYTE   Cn4
 BYTE   W48
//  #03 //040   ----------------------------------------
 BYTE   TIE  Fs3
 BYTE   W03
 BYTE   An3
 BYTE   W03
 BYTE   Dn4
 BYTE   W90
//  #03 //041   ----------------------------------------
 BYTE   W44
 BYTE   EOT
 BYTE   W01
 BYTE   EOT
 BYTE   Fs3  v069
 BYTE   W03
 BYTE   N11  Gn3
 BYTE   N11  Gn4
 BYTE   W24
 BYTE   N22  Gs3
 BYTE   N22  Gs4
 BYTE   W24
//  #03 //042   ----------------------------------------
 BYTE   N15  Dn4
 BYTE   N15  An4
 BYTE   W15
 BYTE   N07  Gs4
 BYTE   W09
 BYTE   N15  Dn4
 BYTE   N15  An4
 BYTE   W15
 BYTE   N22  Dn4
 BYTE   N22  An4
 BYTE   W24
 BYTE   N07  Gs4
 BYTE   W09
 BYTE   N15  Dn4
 BYTE   N15  An4
 BYTE   W15
 BYTE   N07  En4
 BYTE   N07  Bn4
 BYTE   W09
//  #03 //043   ----------------------------------------
 BYTE   W24
 BYTE   N36  Fn4
 BYTE   N36  An4
 BYTE   N36  Cs5
 BYTE   W36
 BYTE   W03
 BYTE   N07  En4
 BYTE   W09
 BYTE   N15  Gn4
 BYTE   W15
 BYTE   N07  En4
 BYTE   W09
//  #03 //044   ----------------------------------------
Label_010E7162:
 BYTE   N22  Gn4  v060
 BYTE   N22  Bn4
 BYTE   W48
 BYTE   En4
 BYTE   N22  Gn4
 BYTE   N22  Cn5
 BYTE   W36
 BYTE   W03
 BYTE   Fs4
 BYTE   N22  An4
 BYTE   N22  Dn5
 BYTE   W09
 BYTE   PEND 
//  #03 //045   ----------------------------------------
Label_010E7176:
 BYTE   W15
 BYTE   N07  Cn5  v060
 BYTE   W09
 BYTE   N22  An4
 BYTE   N22  Dn5
 BYTE   W24
 BYTE   N15  Fs4
 BYTE   N15  An4
 BYTE   W15
 BYTE   N22  En4
 BYTE   N22  Gn4
 BYTE   W24
 BYTE   Dn4
 BYTE   N22  An4
 BYTE   W09
 BYTE   PEND 
//  #03 //046   ----------------------------------------
 BYTE   W15
 BYTE   N07  Gn4
 BYTE   W09
 BYTE   N15  Dn4
 BYTE   N15  An4
 BYTE   W15
 BYTE   N07  Gn4
 BYTE   W09
 BYTE   N15  Dn4
 BYTE   N15  An4
 BYTE   W15
 BYTE   N07
 BYTE   W09
 BYTE   N15  Bn4
 BYTE   W15
 BYTE   N22  En4
 BYTE   N22  Cn5
 BYTE   W09
//  #03 //047   ----------------------------------------
 BYTE   W15
 BYTE   N07  Bn4
 BYTE   W09
 BYTE   N15  An4
 BYTE   W15
 BYTE   N22  En4
 BYTE   N22  Bn4
 BYTE   W24
 BYTE   N07  En4
 BYTE   W09
 BYTE   N15  Gn4
 BYTE   W15
 BYTE   N07  En4
 BYTE   W09
//  #03 //048   ----------------------------------------
 BYTE   N44  Bn3
 BYTE   W02
 BYTE   Cn4
 BYTE   W03
 BYTE   N42  En4
 BYTE   W02
 BYTE   N40  Gn4
 BYTE   W56
 BYTE   N07  En4
 BYTE   W09
 BYTE   N15  Gn4
 BYTE   W15
 BYTE   N07  En4
 BYTE   W09
//  #03 //049   ----------------------------------------
 BYTE   N36
 BYTE   N36  Gn4
 BYTE   N36  As4
 BYTE   W36
 BYTE   W03
 BYTE   N22  En4
 BYTE   N22  An4
 BYTE   W24
 BYTE   N07  Dn4
 BYTE   W09
 BYTE   N15
 BYTE   W15
 BYTE   N07
 BYTE   W09
//  #03 //050   ----------------------------------------
 BYTE   N15  Dn5
 BYTE   W15
 BYTE   N07  Cn5
 BYTE   W09
 BYTE   N15  Bn4
 BYTE   W15
 BYTE   N07  An4
 BYTE   W09
 BYTE   N15  Fs4
 BYTE   N15  Bn4
 BYTE   W15
 BYTE   N22  Cn5
 BYTE   W24
 BYTE   N52  En4
 BYTE   N52  Bn4
 BYTE   W09
//  #03 //051   ----------------------------------------
 BYTE   W60
 BYTE   W03
 BYTE   N07  En4
 BYTE   W09
 BYTE   N15  Gn4
 BYTE   W15
 BYTE   N07  En4
 BYTE   W09
//  #03 //052   ----------------------------------------
 BYTE   PATT
  POIN2 Label_010E7162
//  #03 //053   ----------------------------------------
 BYTE   PATT
  POIN2 Label_010E7176
//  #03 //054   ----------------------------------------
 BYTE   W15
 BYTE   N07  Fs4  v060
 BYTE   W09
 BYTE   N15  Gn4
 BYTE   W15
 BYTE   N22  Dn4
 BYTE   N22  An4
 BYTE   W24
 BYTE   Bn4
 BYTE   W24
 BYTE   En4
 BYTE   N22  Cn5
 BYTE   W09
//  #03 //055   ----------------------------------------
 BYTE   W15
 BYTE   N52  Fn4
 BYTE   N52  Dn5
 BYTE   W56
 BYTE   W01
 BYTE   N05  Cn5
 BYTE   W05
 BYTE   N17  Fn4
 BYTE   N17  Dn5
 BYTE   W19
//  #03 //056   ----------------------------------------
 BYTE   N44  Cn4
 BYTE   N44  Gn4
 BYTE   W72
 BYTE   N22  Bn4
 BYTE   W24
//  #03 //057   ----------------------------------------
 BYTE   N15  En4
 BYTE   N15  Cn5
 BYTE   W15
 BYTE   N22  Bn4
 BYTE   W24
 BYTE   En4
 BYTE   N22  An4
 BYTE   W24
 BYTE   Gn4
 BYTE   W24
 BYTE   En4
 BYTE   N22  An4
 BYTE   W09
//  #03 //058   ----------------------------------------
 BYTE   W15
 BYTE   N30  Dn4
 BYTE   N30  Bn4
 BYTE   W48
 BYTE   N07  En4
 BYTE   W09
 BYTE   N15  Gs4
 BYTE   W15
 BYTE   N07  Bn4
 BYTE   W09
//  #03 //059   ----------------------------------------
 BYTE   Dn5
 BYTE   W08
 BYTE   Cn5  v048
 BYTE   W08
 BYTE   Bn4
 BYTE   W08
 BYTE   An4
 BYTE   W08
 BYTE   Gn4
 BYTE   W08
 BYTE   Fs4
 BYTE   W08
 BYTE   N22  En4  v060
 BYTE   N22  Bn4
 BYTE   W24
 BYTE   N15  An4
 BYTE   W15
 BYTE   N22  Cn4
 BYTE   N22  An4
 BYTE   W09
//  #03 //060   ----------------------------------------
 BYTE   W15
 BYTE   N07  Gn4
 BYTE   W09
 BYTE   N44  Cn4
 BYTE   N44  Gn4
 BYTE   W48
 BYTE   N22
 BYTE   W24
//  #03 //061   ----------------------------------------
 BYTE   N15  Dn4
 BYTE   N15  Gn4
 BYTE   W15
 BYTE   N22  Fs4
 BYTE   W24
 BYTE   Dn4
 BYTE   N22  Fs4
 BYTE   W24
 BYTE   Gn4
 BYTE   W24
 BYTE   TIE  Bn3
 BYTE   TIE  Dn4
 BYTE   TIE  Gn4
 BYTE   W09
//  #03 //062   ----------------------------------------
 BYTE   W96
//  #03 //063   ----------------------------------------
 BYTE   W36
 BYTE   W03
 BYTE   EOT
 BYTE   Bn3  v074
 BYTE   Gn4
 BYTE   W09
 BYTE   N01  Dn5
 BYTE   W01
 BYTE   Cn5
 BYTE   W02
 BYTE   Bn4
 BYTE   W02
 BYTE   An4
 BYTE   W01
 BYTE   Gn4
 BYTE   W02
 BYTE   Fn4
 BYTE   W02
 BYTE   En4
 BYTE   W01
 BYTE   Dn4
 BYTE   W02
 BYTE   Cn4
 BYTE   W02
 BYTE   Bn3
 BYTE   W01
 BYTE   An3
 BYTE   W02
 BYTE   Gn3
 BYTE   W02
 BYTE   Fn3
 BYTE   W02
 BYTE   En3
 BYTE   W02
 BYTE   N22  Dn3
 BYTE   W24
//  #03 //064   ----------------------------------------
 BYTE   N44  Fs4
 BYTE   N44  An4
 BYTE   N44  Dn5
 BYTE   W48
 BYTE   N15  Fs4
 BYTE   W15
 BYTE   N22  An4
 BYTE   N22  Dn5
 BYTE   W24
 BYTE   N52  Fn4
 BYTE   N52  An4
 BYTE   N52  Cn5
 BYTE   W09
//  #03 //065   ----------------------------------------
 BYTE   W48
 BYTE   N44  Fn4
 BYTE   N44  An4
 BYTE   N44  Cn5
 BYTE   W48
//  #03 //066   ----------------------------------------
 BYTE   Dn4
 BYTE   N44  Gn4
 BYTE   N44  Bn4
 BYTE   W48
 BYTE   N15  Dn4
 BYTE   W15
 BYTE   N22  Gn4
 BYTE   N22  Bn4
 BYTE   W24
 BYTE   N30  Ds4
 BYTE   N30  Gn4
 BYTE   N30  As4
 BYTE   W09
//  #03 //067   ----------------------------------------
 BYTE   W24
 BYTE   N22  An4
 BYTE   W24
 BYTE   Ds4
 BYTE   N22  Gn4
 BYTE   W24
 BYTE   Ds4
 BYTE   W24
//  #03 //068   ----------------------------------------
 BYTE   An3
 BYTE   W24
 BYTE   N11  Dn4
 BYTE   N11  En4
 BYTE   N11  An4
 BYTE   W24
 BYTE   N15  Dn4
 BYTE   N15  En4
 BYTE   N15  An4
 BYTE   W15
 BYTE   N10  Dn4
 BYTE   N10  En4
 BYTE   N10  An4
 BYTE   W24
 BYTE   N07  Dn4
 BYTE   N30  An4
 BYTE   W09
//  #03 //069   ----------------------------------------
 BYTE   N15  En4
 BYTE   W15
 BYTE   N07  Dn4
 BYTE   W09
 BYTE   N15  En4
 BYTE   W15
 BYTE   N30  An4
 BYTE   W32
 BYTE   W01
 BYTE   N22  En4
 BYTE   W24
//  #03 //070   ----------------------------------------
 BYTE   Bn2
 BYTE   N22  Bn3
 BYTE   W24
 BYTE   En3
 BYTE   N22  En4
 BYTE   W24
 BYTE   Fs3
 BYTE   N22  Fs4
 BYTE   W24
 BYTE   An3
 BYTE   N22  An4
 BYTE   W24
//  #03 //071   ----------------------------------------
 BYTE   N05  Bn3
 BYTE   N05  Bn4
 BYTE   W24
 BYTE   N68  Gn5
 BYTE   W05
 BYTE   N66  Ds5
 BYTE   W05
 BYTE   N60  Bn4
 BYTE   W05
 BYTE   N56  Gn4
 BYTE   W56
 BYTE   W01
//  #03 //072   ----------------------------------------
 BYTE   W24
 BYTE   GoTo
  POIN2 Label_010E6F54
//  #03 //073   ----------------------------------------
 BYTE   W72
 BYTE   W96
//  #03 //074   ----------------------------------------
 BYTE   W96
//  #03 //075   ----------------------------------------
 BYTE   W96
//  #03 //076   ----------------------------------------
 BYTE   W96
//  #03 //077   ----------------------------------------
 BYTE   W96
//  #03 //078   ----------------------------------------
 BYTE   W96
//  #03 //079   ----------------------------------------
 BYTE   W96
//  #03 //080   ----------------------------------------
 BYTE   W96
//  #03 //081   ----------------------------------------
 BYTE   W96
//  #03 //082   ----------------------------------------
 BYTE   W96
//  #03 //083   ----------------------------------------
 BYTE   W96
//  #03 //084   ----------------------------------------
 BYTE   W96
//  #03 //085   ----------------------------------------
 BYTE   W96
//  #03 //086   ----------------------------------------
 BYTE   W96
//  #03 //087   ----------------------------------------
 BYTE   W96
//  #03 //088   ----------------------------------------
 BYTE   W96
//  #03 //089   ----------------------------------------
 BYTE   W96
//  #03 //090   ----------------------------------------
 BYTE   W96
//  #03 //091   ----------------------------------------
 BYTE   W96
//  #03 //092   ----------------------------------------
 BYTE   W96
//  #03 //093   ----------------------------------------
 BYTE   W96
//  #03 //094   ----------------------------------------
 BYTE   W96
//  #03 //095   ----------------------------------------
 BYTE   W96
//  #03 //096   ----------------------------------------
 BYTE   W96
//  #03 //097   ----------------------------------------
 BYTE   W96
//  #03 //098   ----------------------------------------
 BYTE   W96
//  #03 //099   ----------------------------------------
 BYTE   W96
//  #03 //100   ----------------------------------------
 BYTE   W96
//  #03 //101   ----------------------------------------
 BYTE   W96
//  #03 //102   ----------------------------------------
 BYTE   W96
//  #03 //103   ----------------------------------------
 BYTE   W96
//  #03 //104   ----------------------------------------
 BYTE   W96
//  #03 //105   ----------------------------------------
 BYTE   W96
//  #03 //106   ----------------------------------------
 BYTE   W96
//  #03 //107   ----------------------------------------
 BYTE   W96
//  #03 //108   ----------------------------------------
 BYTE   W96
//  #03 //109   ----------------------------------------
 BYTE   W96
//  #03 //110   ----------------------------------------
 BYTE   W96
//  #03 //111   ----------------------------------------
 BYTE   W96
//  #03 //112   ----------------------------------------
 BYTE   W96
//  #03 //113   ----------------------------------------
 BYTE   W96
//  #03 //114   ----------------------------------------
 BYTE   W96
//  #03 //115   ----------------------------------------
 BYTE   W96
//  #03 //116   ----------------------------------------
 BYTE   W96
//  #03 //117   ----------------------------------------
 BYTE   W96
//  #03 //118   ----------------------------------------
 BYTE   W96
//  #03 //119   ----------------------------------------
 BYTE   W96
//  #03 //120   ----------------------------------------
 BYTE   W96
//  #03 //121   ----------------------------------------
 BYTE   W96
//  #03 //122   ----------------------------------------
 BYTE   W96
//  #03 //123   ----------------------------------------
 BYTE   W96
//  #03 //124   ----------------------------------------
 BYTE   W96
//  #03 //125   ----------------------------------------
 BYTE   W96
//  #03 //126   ----------------------------------------
 BYTE   W96
//  #03 //127   ----------------------------------------
 BYTE   W96
//  #03 //128   ----------------------------------------
 BYTE   W96
//  #03 //129   ----------------------------------------
 BYTE   W96
//  #03 //130   ----------------------------------------
 BYTE   W96
//  #03 //131   ----------------------------------------
 BYTE   W96
//  #03 //132   ----------------------------------------
 BYTE   W96
//  #03 //133   ----------------------------------------
 BYTE   W96
//  #03 //134   ----------------------------------------
 BYTE   W96
//  #03 //135   ----------------------------------------
 BYTE   W96
//  #03 //136   ----------------------------------------
 BYTE   W96
//  #03 //137   ----------------------------------------
 BYTE   W96
//  #03 //138   ----------------------------------------
 BYTE   W96
//  #03 //139   ----------------------------------------
 BYTE   W96
//  #03 //140   ----------------------------------------
 BYTE   W96
//  #03 //141   ----------------------------------------
 BYTE   W96
//  #03 //142   ----------------------------------------
 BYTE   W96
//  #03 //143   ----------------------------------------
 BYTE   W96
//  #03 //144   ----------------------------------------
 BYTE   W96
//  #03 //145   ----------------------------------------
 BYTE   W96
//  #03 //146   ----------------------------------------
 BYTE   W96
//  #03 //147   ----------------------------------------
 BYTE   W96
//  #03 //148   ----------------------------------------
 BYTE   W96
//  #03 //149   ----------------------------------------
 BYTE   W96
//  #03 //150   ----------------------------------------
 BYTE   W96
//  #03 //151   ----------------------------------------
 BYTE   W96
//  #03 //152   ----------------------------------------
 BYTE   W96
//  #03 //153   ----------------------------------------
 BYTE   W96
//  #03 //154   ----------------------------------------
 BYTE   W96
//  #03 //155   ----------------------------------------
 BYTE   W96
//  #03 //156   ----------------------------------------
 BYTE   W96
//  #03 //157   ----------------------------------------
 BYTE   W96
//  #03 //158   ----------------------------------------
 BYTE   W96
//  #03 //159   ----------------------------------------
 BYTE   W96
//  #03 //160   ----------------------------------------
 BYTE   W96
//  #03 //161   ----------------------------------------
 BYTE   W96
//  #03 //162   ----------------------------------------
 BYTE   W96
//  #03 //163   ----------------------------------------
 BYTE   W96
//  #03 //164   ----------------------------------------
 BYTE   W96
//  #03 //165   ----------------------------------------
 BYTE   W96
//  #03 //166   ----------------------------------------
 BYTE   W96
//  #03 //167   ----------------------------------------
 BYTE   W96
//  #03 //168   ----------------------------------------
 BYTE   W96
//  #03 //169   ----------------------------------------
 BYTE   W96
//  #03 //170   ----------------------------------------
 BYTE   W96
//  #03 //171   ----------------------------------------
 BYTE   W96
//  #03 //172   ----------------------------------------
 BYTE   W96
//  #03 //173   ----------------------------------------
 BYTE   W96
//  #03 //174   ----------------------------------------
 BYTE   W96
//  #03 //175   ----------------------------------------
 BYTE   W96
//  #03 //176   ----------------------------------------
 BYTE   W96
//  #03 //177   ----------------------------------------
 BYTE   W96
//  #03 //178   ----------------------------------------
 BYTE   W96
//  #03 //179   ----------------------------------------
 BYTE   W96
//  #03 //180   ----------------------------------------
 BYTE   W96
//  #03 //181   ----------------------------------------
 BYTE   W96
//  #03 //182   ----------------------------------------
 BYTE   W96
//  #03 //183   ----------------------------------------
 BYTE   W96
//  #03 //184   ----------------------------------------
 BYTE   W96
//  #03 //185   ----------------------------------------
 BYTE   W96
//  #03 //186   ----------------------------------------
 BYTE   W96
//  #03 //187   ----------------------------------------
 BYTE   W96
//  #03 //188   ----------------------------------------
 BYTE   W96
//  #03 //189   ----------------------------------------
 BYTE   W96
//  #03 //190   ----------------------------------------
 BYTE   W96
//  #03 //191   ----------------------------------------
 BYTE   W48
 BYTE   FINE

//**************** Track 4 (Midi-Chn.3) ****************//

PlasmagicSeasons_004:
//  #04 //000   ----------------------------------------
 BYTE   VOL   80*PlasmagicSeasons_mvl/mxv
 BYTE   KEYSH   PlasmagicSeasons_key+0
 BYTE   VOICE   58
 BYTE   MODT 0
 BYTE   LFOS 44
 BYTE   N44  An2  v044
 BYTE   W48
 BYTE   Cn3
 BYTE   W48
//  #04 //001   ----------------------------------------
 BYTE   N68  En2
 BYTE   W02
 BYTE   Bn2
 BYTE   W68
 BYTE   W02
 BYTE   W12
 BYTE   N11  Gs1
 BYTE   W12
//  #04 //002   ----------------------------------------
Label_010E73E6:
 BYTE   N22  An1  v044
 BYTE   W24
 BYTE   N11  Cn2
 BYTE   N11  En2
 BYTE   W24
 BYTE   N22  En1
 BYTE   W24
 BYTE   N11  Cn2
 BYTE   N11  En2
 BYTE   W24
 BYTE   PEND 
//  #04 //003   ----------------------------------------
 BYTE   Dn2
 BYTE   W24
 BYTE   Cn2
 BYTE   W24
 BYTE   Bn1
 BYTE   W24
 BYTE   An1
 BYTE   W24
//  #04 //004   ----------------------------------------
 BYTE   N22  Bn1
 BYTE   W24
 BYTE   N11  Dn2
 BYTE   N11  Fs2
 BYTE   W24
 BYTE   N22  Fs1
 BYTE   W24
 BYTE   N11  Dn2
 BYTE   N11  Fs2
 BYTE   W24
//  #04 //005   ----------------------------------------
 BYTE   En2
 BYTE   W24
 BYTE   Fs2
 BYTE   W24
 BYTE   Gn2
 BYTE   W24
 BYTE   En2
 BYTE   W24
//  #04 //006   ----------------------------------------
 BYTE   PATT
  POIN2 Label_010E73E6
//  #04 //007   ----------------------------------------
 BYTE   N11  Dn1  v044
 BYTE   W24
 BYTE   En1
 BYTE   W24
 BYTE   Fs1
 BYTE   W24
 BYTE   Dn1
 BYTE   W24
//  #04 //008   ----------------------------------------
 BYTE   N22  En1
 BYTE   W24
 BYTE   N23  Bn1
 BYTE   N23  En2
 BYTE   N23  Gs2
 BYTE   W24
 BYTE   Bn1
 BYTE   N23  En2
 BYTE   N23  Gs2
 BYTE   W24
 BYTE   Bn1
 BYTE   N23  En2
 BYTE   N23  Gs2
 BYTE   W24
//  #04 //009   ----------------------------------------
 BYTE   N11  En2
 BYTE   W24
 BYTE   N68  Fn3
 BYTE   W05
 BYTE   N66  An3
 BYTE   W05
 BYTE   N60  Cn4
 BYTE   W60
 BYTE   W02
//  #04 //010   ----------------------------------------
Label_010E744A:
 BYTE   N22  Gn1  v044
 BYTE   N22  Dn2
 BYTE   W48
 BYTE   N36  Gn1
 BYTE   N36  Dn2
 BYTE   N36  Fs2
 BYTE   W36
 BYTE   W03
 BYTE   N30  Fs1
 BYTE   N30  Cn2
 BYTE   N30  En2
 BYTE   W09
//  #04 //011   ----------------------------------------
 BYTE   W48
 BYTE   N22  Bn1
 BYTE   N22  Ds2
 BYTE   N22  Fs2
 BYTE   W48
//  #04 //012   ----------------------------------------
Label_010E7467:
 BYTE   N22  En2  v044
 BYTE   W24
 BYTE   Gn2
 BYTE   N22  Bn2
 BYTE   W24
 BYTE   Bn1
 BYTE   W24
 BYTE   Gn2
 BYTE   N22  Bn2
 BYTE   W24
 BYTE   PEND 
//  #04 //013   ----------------------------------------
 BYTE   Dn2
 BYTE   W24
 BYTE   Fn2
 BYTE   N22  An2
 BYTE   N22  Cn3
 BYTE   W24
 BYTE   Bn1
 BYTE   W24
 BYTE   Dn2
 BYTE   N22  Fn2
 BYTE   N22  An2
 BYTE   W24
//  #04 //014   ----------------------------------------
 BYTE   Cs2
 BYTE   N22  Gn2
 BYTE   N22  Cs3
 BYTE   W36
 BYTE   W03
 BYTE   N52  Cn2
 BYTE   N52  En2
 BYTE   N52  Gn2
 BYTE   N52  Cn3
 BYTE   W56
 BYTE   W01
//  #04 //015   ----------------------------------------
 BYTE   N22  Bn1
 BYTE   N22  Fs2
 BYTE   N22  Bn2
 BYTE   W36
 BYTE   W03
 BYTE   As1
 BYTE   N22  Fn2
 BYTE   N22  As2
 BYTE   W24
 BYTE   N07  As1
 BYTE   W09
 BYTE   N22  As2
 BYTE   W24
//  #04 //016   ----------------------------------------
 BYTE   N11  An1
 BYTE   W24
 BYTE   Bn1
 BYTE   W24
 BYTE   Cn2
 BYTE   W24
 BYTE   An1
 BYTE   W24
//  #04 //017   ----------------------------------------
 BYTE   N22  Dn2
 BYTE   N22  Fs2
 BYTE   N22  An2
 BYTE   W36
 BYTE   W03
 BYTE   Dn2
 BYTE   N22  Fs2
 BYTE   N22  An2
 BYTE   W24
 BYTE   N07  Dn2
 BYTE   W09
 BYTE   N22  Dn3
 BYTE   W24
//  #04 //018   ----------------------------------------
 BYTE   N11  Gn1
 BYTE   W24
 BYTE   N22  Dn2
 BYTE   N22  Gn2
 BYTE   N22  Bn2
 BYTE   W24
 BYTE   Gn1
 BYTE   W24
 BYTE   Dn2
 BYTE   N22  Gn2
 BYTE   W24
//  #04 //019   ----------------------------------------
 BYTE   Fs1
 BYTE   N22  Cn2
 BYTE   N22  En2
 BYTE   W36
 BYTE   W03
 BYTE   Bn1
 BYTE   N22  Dn2
 BYTE   N22  Fs2
 BYTE   W24
 BYTE   N07  Bn1
 BYTE   W09
 BYTE   N22  Bn2
 BYTE   W24
//  #04 //020   ----------------------------------------
 BYTE   PATT
  POIN2 Label_010E7467
//  #04 //021   ----------------------------------------
 BYTE   N22  Dn2  v044
 BYTE   W24
 BYTE   Fn2
 BYTE   N22  An2
 BYTE   N22  Cn3
 BYTE   W24
 BYTE   Gn1
 BYTE   W24
 BYTE   Dn2
 BYTE   N22  Gn2
 BYTE   N22  Bn2
 BYTE   W24
//  #04 //022   ----------------------------------------
 BYTE   Cn2
 BYTE   W24
 BYTE   En2
 BYTE   N22  Gn2
 BYTE   N22  Bn2
 BYTE   W24
 BYTE   Gn1
 BYTE   W24
 BYTE   En2
 BYTE   N22  Gn2
 BYTE   W24
//  #04 //023   ----------------------------------------
 BYTE   Bn1
 BYTE   N22  Fs2
 BYTE   N22  An2
 BYTE   W36
 BYTE   W03
 BYTE   En2
 BYTE   N22  Bn2
 BYTE   N22  Dn3
 BYTE   W24
 BYTE   N07  En2
 BYTE   W09
 BYTE   N15  En3
 BYTE   W15
 BYTE   N07  Bn2
 BYTE   W09
//  #04 //024   ----------------------------------------
 BYTE   N22  Cn2
 BYTE   W24
 BYTE   En2
 BYTE   N22  Gn2
 BYTE   W24
 BYTE   Dn2  v048
 BYTE   W24
 BYTE   Fs2
 BYTE   N22  An2
 BYTE   W24
//  #04 //025   ----------------------------------------
 BYTE   N16  Gn1  v072
 BYTE   N16  Dn2
 BYTE   W24
 BYTE   Gn1
 BYTE   N16  Dn2
 BYTE   W24
 BYTE   Gn1
 BYTE   N16  Dn2
 BYTE   W48
//  #04 //026   ----------------------------------------
Label_010E7542:
 BYTE   N22  Cn2  v032
 BYTE   W24
 BYTE   En2
 BYTE   N22  Gn2
 BYTE   W24
 BYTE   Gn1
 BYTE   W24
 BYTE   En2
 BYTE   N22  Gn2
 BYTE   W24
 BYTE   PEND 
//  #04 //027   ----------------------------------------
 BYTE   PATT
  POIN2 Label_010E7542
//  #04 //028   ----------------------------------------
Label_010E7556:
 BYTE   N22  Cn2  v032
 BYTE   W24
 BYTE   Ds2
 BYTE   N22  Gn2
 BYTE   W24
 BYTE   Gn1
 BYTE   W24
 BYTE   Ds2
 BYTE   N22  Gn2
 BYTE   W24
 BYTE   PEND 
//  #04 //029   ----------------------------------------
 BYTE   PATT
  POIN2 Label_010E7556
//  #04 //030   ----------------------------------------
Label_010E756A:
 BYTE   N22  Bn1  v032
 BYTE   W24
 BYTE   Dn2
 BYTE   N22  Fs2
 BYTE   N22  An2
 BYTE   W24
 BYTE   Bn1
 BYTE   W24
 BYTE   Dn2
 BYTE   N22  Fs2
 BYTE   N22  An2
 BYTE   W24
 BYTE   PEND 
//  #04 //031   ----------------------------------------
 BYTE   PATT
  POIN2 Label_010E756A
//  #04 //032   ----------------------------------------
 BYTE   N22  En1  v032
 BYTE   W24
 BYTE   Gs1
 BYTE   N22  Bn1
 BYTE   W24
 BYTE   En1
 BYTE   W24
 BYTE   Gs1
 BYTE   N22  Bn1
 BYTE   W24
//  #04 //033   ----------------------------------------
 BYTE   En1
 BYTE   W24
 BYTE   Gs1
 BYTE   N22  Bn1
 BYTE   N22  Dn2
 BYTE   W24
 BYTE   En1  v036
 BYTE   W24
 BYTE   Gs1  v040
 BYTE   N22  Bn1
 BYTE   N22  Dn2
 BYTE   W24
//  #04 //034   ----------------------------------------
 BYTE   An1  v044
 BYTE   N22  Cn2
 BYTE   N22  En2
 BYTE   N22  Gn2
 BYTE   W96
//  #04 //035   ----------------------------------------
 BYTE   W60
 BYTE   W03
 BYTE   N30  As1  v060
 BYTE   N30  En2
 BYTE   N30  Gn2
 BYTE   W32
 BYTE   W01
//  #04 //036   ----------------------------------------
 BYTE   N22  Bn1
 BYTE   N22  Fs2
 BYTE   N22  An2
 BYTE   W96
//  #04 //037   ----------------------------------------
 BYTE   W60
 BYTE   W03
 BYTE   N30  Bn1
 BYTE   N30  Fs2
 BYTE   N30  An2
 BYTE   W32
 BYTE   W01
//  #04 //038   ----------------------------------------
 BYTE   TIE  Cn2
 BYTE   W02
 BYTE   Ds2
 BYTE   W03
 BYTE   Gn2
 BYTE   W02
 BYTE   Cn3
 BYTE   W88
 BYTE   W01
//  #04 //039   ----------------------------------------
 BYTE   W90
 BYTE   EOT
 BYTE   Ds2  v060
 BYTE   W01
 BYTE   Cn2  v055
 BYTE   W05
//  #04 //040   ----------------------------------------
 BYTE   N11  Dn1
 BYTE   N11  Dn2
 BYTE   W24
 BYTE   Ds1
 BYTE   N11  Ds2
 BYTE   W24
 BYTE   En1
 BYTE   N11  En2
 BYTE   W24
 BYTE   Fn1
 BYTE   N11  Fn2
 BYTE   W24
//  #04 //041   ----------------------------------------
 BYTE   Fs1
 BYTE   N11  Fs2
 BYTE   W24
 BYTE   Gn1
 BYTE   N11  Gn2
 BYTE   W24
 BYTE   An1
 BYTE   N11  An2
 BYTE   W24
 BYTE   N22  As1
 BYTE   N22  As2
 BYTE   W24
//  #04 //042   ----------------------------------------
 BYTE   N15  Fs2  v052
 BYTE   N15  An2
 BYTE   W15
 BYTE   N07  Bn1
 BYTE   W09
 BYTE   N15  Fs2
 BYTE   N15  An2
 BYTE   W15
 BYTE   N07  Bn1
 BYTE   W09
 BYTE   N15  Fs2
 BYTE   N15  An2
 BYTE   W15
 BYTE   N07  Bn1
 BYTE   W09
 BYTE   N15  Fs2
 BYTE   N15  An2
 BYTE   W15
 BYTE   N07  Bn1
 BYTE   W09
//  #04 //043   ----------------------------------------
 BYTE   N11  En2  v060
 BYTE   N11  Gs2
 BYTE   W24
 BYTE   N68  Bn1
 BYTE   N68  Fs2
 BYTE   N68  An2
 BYTE   W72
//  #04 //044   ----------------------------------------
Label_010E7629:
 BYTE   N22  An1  v044
 BYTE   W24
 BYTE   Cn2
 BYTE   N22  En2
 BYTE   N22  Gn2
 BYTE   W24
 BYTE   An1
 BYTE   W24
 BYTE   Cn2
 BYTE   N22  En2
 BYTE   N22  Gn2
 BYTE   W24
 BYTE   PEND 
//  #04 //045   ----------------------------------------
Label_010E763C:
 BYTE   N22  Dn2  v044
 BYTE   W24
 BYTE   Fs2
 BYTE   N22  An2
 BYTE   W24
 BYTE   Dn2
 BYTE   W24
 BYTE   Fs2
 BYTE   N22  An2
 BYTE   W24
 BYTE   PEND 
//  #04 //046   ----------------------------------------
Label_010E764B:
 BYTE   N22  Bn1  v044
 BYTE   W24
 BYTE   Dn2
 BYTE   N22  Fs2
 BYTE   N22  An2
 BYTE   W24
 BYTE   Bn1
 BYTE   W24
 BYTE   Dn2
 BYTE   N22  Fs2
 BYTE   N22  An2
 BYTE   W24
 BYTE   PEND 
//  #04 //047   ----------------------------------------
 BYTE   En2
 BYTE   W24
 BYTE   Gn2
 BYTE   N22  Bn2
 BYTE   W24
 BYTE   En2
 BYTE   W24
 BYTE   Gn2
 BYTE   N22  Bn2
 BYTE   W24
//  #04 //048   ----------------------------------------
 BYTE   PATT
  POIN2 Label_010E7629
//  #04 //049   ----------------------------------------
 BYTE   PATT
  POIN2 Label_010E763C
//  #04 //050   ----------------------------------------
 BYTE   PATT
  POIN2 Label_010E764B
//  #04 //051   ----------------------------------------
 BYTE   N22  En1  v044
 BYTE   W24
 BYTE   Gs1
 BYTE   N22  Bn1
 BYTE   N22  En2
 BYTE   W24
 BYTE   En1
 BYTE   W24
 BYTE   Gs1
 BYTE   N22  Bn1
 BYTE   N22  En2
 BYTE   W24
//  #04 //052   ----------------------------------------
 BYTE   PATT
  POIN2 Label_010E7629
//  #04 //053   ----------------------------------------
 BYTE   PATT
  POIN2 Label_010E763C
//  #04 //054   ----------------------------------------
 BYTE   PATT
  POIN2 Label_010E764B
//  #04 //055   ----------------------------------------
 BYTE   N22  As1  v044
 BYTE   W24
 BYTE   Dn2
 BYTE   N22  Fn2
 BYTE   N22  As2
 BYTE   W24
 BYTE   As1
 BYTE   W24
 BYTE   Dn2
 BYTE   N22  Fn2
 BYTE   N22  As2
 BYTE   W24
//  #04 //056   ----------------------------------------
 BYTE   An1
 BYTE   W24
 BYTE   En2
 BYTE   N22  Gn2
 BYTE   W24
 BYTE   An1
 BYTE   W24
 BYTE   En2
 BYTE   N22  Gn2
 BYTE   W24
//  #04 //057   ----------------------------------------
 BYTE   PATT
  POIN2 Label_010E763C
//  #04 //058   ----------------------------------------
 BYTE   N22  En2  v060
 BYTE   W24
 BYTE   En2  v044
 BYTE   N22  Gs2
 BYTE   N22  Bn2
 BYTE   N22  Dn3
 BYTE   W24
 BYTE   En2  v048
 BYTE   N22  Gs2
 BYTE   N22  Bn2
 BYTE   N22  Dn3
 BYTE   W24
 BYTE   En2  v052
 BYTE   N22  Gs2
 BYTE   N22  Bn2
 BYTE   N22  Dn3
 BYTE   W24
//  #04 //059   ----------------------------------------
 BYTE   En2  v044
 BYTE   W24
 BYTE   Gs2
 BYTE   N22  Bn2
 BYTE   N22  Dn3
 BYTE   W24
 BYTE   En2
 BYTE   W24
 BYTE   Gs2
 BYTE   N22  Bn2
 BYTE   W24
//  #04 //060   ----------------------------------------
 BYTE   PATT
  POIN2 Label_010E7629
//  #04 //061   ----------------------------------------
 BYTE   N22  Dn2  v044
 BYTE   N22  Fs2
 BYTE   N22  An2
 BYTE   N22  Cn3
 BYTE   W24
 BYTE   Dn2  v048
 BYTE   N22  Fs2
 BYTE   N22  An2
 BYTE   N22  Cn3
 BYTE   W24
 BYTE   Dn2  v052
 BYTE   N22  Fs2
 BYTE   N22  An2
 BYTE   N22  Cn3
 BYTE   W24
 BYTE   Dn2  v060
 BYTE   N22  Fs2
 BYTE   N22  An2
 BYTE   N22  Cn3
 BYTE   W24
//  #04 //062   ----------------------------------------
 BYTE   TIE  Gn1
 BYTE   W03
 BYTE   Bn1
 BYTE   W04
 BYTE   Dn2
 BYTE   W04
 BYTE   Fs2
 BYTE   W84
 BYTE   W01
//  #04 //063   ----------------------------------------
 BYTE   W36
 BYTE   W01
 BYTE   EOT
 BYTE   Gn1  v047
 BYTE   Dn2  v054
 BYTE   W02
 BYTE   N07  Gn1
 BYTE   W09
 BYTE   N44  Bn1
 BYTE   W05
 BYTE   N42  Dn2
 BYTE   W05
 BYTE   N36  Fs2
 BYTE   W36
 BYTE   W02
//  #04 //064   ----------------------------------------
 BYTE   N22  Dn2
 BYTE   W24
 BYTE   Fs2
 BYTE   N22  An2
 BYTE   N22  Dn3
 BYTE   W24
 BYTE   Dn2
 BYTE   W24
 BYTE   Fs2
 BYTE   N22  An2
 BYTE   N22  Dn3
 BYTE   W24
//  #04 //065   ----------------------------------------
 BYTE   Cn2
 BYTE   W24
 BYTE   Fn2
 BYTE   N22  An2
 BYTE   N22  Cn3
 BYTE   W24
 BYTE   Cn2
 BYTE   W24
 BYTE   Fn2
 BYTE   N22  An2
 BYTE   N22  Cn3
 BYTE   W24
//  #04 //066   ----------------------------------------
 BYTE   Bn1
 BYTE   W24
 BYTE   Dn2
 BYTE   N22  Gn2
 BYTE   N22  Bn2
 BYTE   W24
 BYTE   Bn1
 BYTE   W24
 BYTE   Dn2
 BYTE   N22  Gn2
 BYTE   N22  Bn2
 BYTE   W24
//  #04 //067   ----------------------------------------
 BYTE   As1
 BYTE   W24
 BYTE   Ds2
 BYTE   N22  Gn2
 BYTE   N22  Bn2
 BYTE   W24
 BYTE   Gn1
 BYTE   W24
 BYTE   Ds2
 BYTE   N22  Gn2
 BYTE   N22  Bn2
 BYTE   W24
//  #04 //068   ----------------------------------------
 BYTE   An1
 BYTE   N22  En2
 BYTE   N22  An2
 BYTE   W24
 BYTE   N15  En2
 BYTE   N15  An2
 BYTE   W15
 BYTE   N07  An1
 BYTE   W09
 BYTE   N15  En2
 BYTE   N15  An2
 BYTE   W15
 BYTE   N07  An1
 BYTE   W09
 BYTE   N15  En2
 BYTE   N15  An2
 BYTE   W15
 BYTE   N07  An1
 BYTE   W09
//  #04 //069   ----------------------------------------
 BYTE   N15  En2
 BYTE   N15  An2
 BYTE   W15
 BYTE   N07  An1
 BYTE   W09
 BYTE   N15  En2
 BYTE   N15  An2
 BYTE   W15
 BYTE   N07  An1
 BYTE   W09
 BYTE   N15  En2
 BYTE   N15  An2
 BYTE   W15
 BYTE   N07  An1
 BYTE   W09
 BYTE   N15  En2
 BYTE   N15  An2
 BYTE   W15
 BYTE   N07  An1
 BYTE   W09
//  #04 //070   ----------------------------------------
 BYTE   N22  Bn1
 BYTE   N22  Fs2
 BYTE   W24
 BYTE   Bn1
 BYTE   N22  Fs2
 BYTE   W24
 BYTE   Bn1
 BYTE   N22  Fs2
 BYTE   N22  Bn2
 BYTE   W24
 BYTE   Bn1
 BYTE   N22  Fs2
 BYTE   N22  Bn2
 BYTE   W24
//  #04 //071   ----------------------------------------
 BYTE   N05  Bn1
 BYTE   N05  Fs2
 BYTE   N05  Bn2
 BYTE   W24
 BYTE   N68  Fn3  v044
 BYTE   W05
 BYTE   N66  An3
 BYTE   W05
 BYTE   N60  Cn4
 BYTE   W60
 BYTE   W02
//  #04 //072   ----------------------------------------
 BYTE   W24
 BYTE   GoTo
  POIN2 Label_010E744A
//  #04 //073   ----------------------------------------
 BYTE   W72
 BYTE   W96
//  #04 //074   ----------------------------------------
 BYTE   W96
//  #04 //075   ----------------------------------------
 BYTE   W96
//  #04 //076   ----------------------------------------
 BYTE   W96
//  #04 //077   ----------------------------------------
 BYTE   W96
//  #04 //078   ----------------------------------------
 BYTE   W96
//  #04 //079   ----------------------------------------
 BYTE   W96
//  #04 //080   ----------------------------------------
 BYTE   W96
//  #04 //081   ----------------------------------------
 BYTE   W96
//  #04 //082   ----------------------------------------
 BYTE   W96
//  #04 //083   ----------------------------------------
 BYTE   W96
//  #04 //084   ----------------------------------------
 BYTE   W96
//  #04 //085   ----------------------------------------
 BYTE   W96
//  #04 //086   ----------------------------------------
 BYTE   W96
//  #04 //087   ----------------------------------------
 BYTE   W96
//  #04 //088   ----------------------------------------
 BYTE   W96
//  #04 //089   ----------------------------------------
 BYTE   W96
//  #04 //090   ----------------------------------------
 BYTE   W96
//  #04 //091   ----------------------------------------
 BYTE   W96
//  #04 //092   ----------------------------------------
 BYTE   W96
//  #04 //093   ----------------------------------------
 BYTE   W96
//  #04 //094   ----------------------------------------
 BYTE   W96
//  #04 //095   ----------------------------------------
 BYTE   W96
//  #04 //096   ----------------------------------------
 BYTE   W96
//  #04 //097   ----------------------------------------
 BYTE   W96
//  #04 //098   ----------------------------------------
 BYTE   W96
//  #04 //099   ----------------------------------------
 BYTE   W96
//  #04 //100   ----------------------------------------
 BYTE   W96
//  #04 //101   ----------------------------------------
 BYTE   W96
//  #04 //102   ----------------------------------------
 BYTE   W96
//  #04 //103   ----------------------------------------
 BYTE   W96
//  #04 //104   ----------------------------------------
 BYTE   W96
//  #04 //105   ----------------------------------------
 BYTE   W96
//  #04 //106   ----------------------------------------
 BYTE   W96
//  #04 //107   ----------------------------------------
 BYTE   W96
//  #04 //108   ----------------------------------------
 BYTE   W96
//  #04 //109   ----------------------------------------
 BYTE   W96
//  #04 //110   ----------------------------------------
 BYTE   W96
//  #04 //111   ----------------------------------------
 BYTE   W96
//  #04 //112   ----------------------------------------
 BYTE   W96
//  #04 //113   ----------------------------------------
 BYTE   W96
//  #04 //114   ----------------------------------------
 BYTE   W96
//  #04 //115   ----------------------------------------
 BYTE   W96
//  #04 //116   ----------------------------------------
 BYTE   W96
//  #04 //117   ----------------------------------------
 BYTE   W96
//  #04 //118   ----------------------------------------
 BYTE   W96
//  #04 //119   ----------------------------------------
 BYTE   W96
//  #04 //120   ----------------------------------------
 BYTE   W96
//  #04 //121   ----------------------------------------
 BYTE   W96
//  #04 //122   ----------------------------------------
 BYTE   W96
//  #04 //123   ----------------------------------------
 BYTE   W96
//  #04 //124   ----------------------------------------
 BYTE   W96
//  #04 //125   ----------------------------------------
 BYTE   W96
//  #04 //126   ----------------------------------------
 BYTE   W96
//  #04 //127   ----------------------------------------
 BYTE   W96
//  #04 //128   ----------------------------------------
 BYTE   W96
//  #04 //129   ----------------------------------------
 BYTE   W96
//  #04 //130   ----------------------------------------
 BYTE   W96
//  #04 //131   ----------------------------------------
 BYTE   W96
//  #04 //132   ----------------------------------------
 BYTE   W96
//  #04 //133   ----------------------------------------
 BYTE   W96
//  #04 //134   ----------------------------------------
 BYTE   W96
//  #04 //135   ----------------------------------------
 BYTE   W96
//  #04 //136   ----------------------------------------
 BYTE   W96
//  #04 //137   ----------------------------------------
 BYTE   W96
//  #04 //138   ----------------------------------------
 BYTE   W96
//  #04 //139   ----------------------------------------
 BYTE   W96
//  #04 //140   ----------------------------------------
 BYTE   W96
//  #04 //141   ----------------------------------------
 BYTE   W96
//  #04 //142   ----------------------------------------
 BYTE   W96
//  #04 //143   ----------------------------------------
 BYTE   W96
//  #04 //144   ----------------------------------------
 BYTE   W96
//  #04 //145   ----------------------------------------
 BYTE   W96
//  #04 //146   ----------------------------------------
 BYTE   W96
//  #04 //147   ----------------------------------------
 BYTE   W96
//  #04 //148   ----------------------------------------
 BYTE   W96
//  #04 //149   ----------------------------------------
 BYTE   W96
//  #04 //150   ----------------------------------------
 BYTE   W96
//  #04 //151   ----------------------------------------
 BYTE   W96
//  #04 //152   ----------------------------------------
 BYTE   W96
//  #04 //153   ----------------------------------------
 BYTE   W96
//  #04 //154   ----------------------------------------
 BYTE   W96
//  #04 //155   ----------------------------------------
 BYTE   W96
//  #04 //156   ----------------------------------------
 BYTE   W96
//  #04 //157   ----------------------------------------
 BYTE   W96
//  #04 //158   ----------------------------------------
 BYTE   W96
//  #04 //159   ----------------------------------------
 BYTE   W96
//  #04 //160   ----------------------------------------
 BYTE   W96
//  #04 //161   ----------------------------------------
 BYTE   W96
//  #04 //162   ----------------------------------------
 BYTE   W96
//  #04 //163   ----------------------------------------
 BYTE   W96
//  #04 //164   ----------------------------------------
 BYTE   W96
//  #04 //165   ----------------------------------------
 BYTE   W96
//  #04 //166   ----------------------------------------
 BYTE   W96
//  #04 //167   ----------------------------------------
 BYTE   W96
//  #04 //168   ----------------------------------------
 BYTE   W96
//  #04 //169   ----------------------------------------
 BYTE   W96
//  #04 //170   ----------------------------------------
 BYTE   W96
//  #04 //171   ----------------------------------------
 BYTE   W96
//  #04 //172   ----------------------------------------
 BYTE   W96
//  #04 //173   ----------------------------------------
 BYTE   W96
//  #04 //174   ----------------------------------------
 BYTE   W96
//  #04 //175   ----------------------------------------
 BYTE   W96
//  #04 //176   ----------------------------------------
 BYTE   W96
//  #04 //177   ----------------------------------------
 BYTE   W96
//  #04 //178   ----------------------------------------
 BYTE   W96
//  #04 //179   ----------------------------------------
 BYTE   W96
//  #04 //180   ----------------------------------------
 BYTE   W96
//  #04 //181   ----------------------------------------
 BYTE   W96
//  #04 //182   ----------------------------------------
 BYTE   W96
//  #04 //183   ----------------------------------------
 BYTE   W96
//  #04 //184   ----------------------------------------
 BYTE   W96
//  #04 //185   ----------------------------------------
 BYTE   W96
//  #04 //186   ----------------------------------------
 BYTE   W96
//  #04 //187   ----------------------------------------
 BYTE   W96
//  #04 //188   ----------------------------------------
 BYTE   W96
//  #04 //189   ----------------------------------------
 BYTE   W96
//  #04 //190   ----------------------------------------
 BYTE   W96
//  #04 //191   ----------------------------------------
 BYTE   W48
 BYTE   FINE

//**************** Track 5 (Midi-Chn.4) ****************//

PlasmagicSeasons_005:
//  #05 //000   ----------------------------------------
 BYTE   KEYSH   PlasmagicSeasons_key+0
 BYTE   VOICE   54
 BYTE   MODT 0
 BYTE   LFOS 44
 BYTE   PAN   c_v+0
 BYTE   VOL   80*PlasmagicSeasons_mvl/mxv
 BYTE   W96
//  #05 //001   ----------------------------------------
 BYTE   W96
//  #05 //002   ----------------------------------------
 BYTE   W96
//  #05 //003   ----------------------------------------
 BYTE   W96
//  #05 //004   ----------------------------------------
 BYTE   W96
//  #05 //005   ----------------------------------------
 BYTE   W96
//  #05 //006   ----------------------------------------
 BYTE   W96
//  #05 //007   ----------------------------------------
 BYTE   W96
//  #05 //008   ----------------------------------------
 BYTE   W96
//  #05 //009   ----------------------------------------
 BYTE   W96
//  #05 //010   ----------------------------------------
Label_010E7872:
 BYTE   W24
 BYTE   N22  Gn3  v060
 BYTE   W24
 BYTE   N15  An3
 BYTE   W15
 BYTE   N22  Gn3
 BYTE   W24
 BYTE   N30  Fs3
 BYTE   N30  Cn4
 BYTE   W09
 BYTE   PEND 
//  #05 //011   ----------------------------------------
 BYTE   W24
 BYTE   N22  Bn3
 BYTE   W24
 BYTE   Fs3
 BYTE   N22  An3
 BYTE   W24
 BYTE   Fs3
 BYTE   W24
//  #05 //012   ----------------------------------------
 BYTE   N15  En3
 BYTE   N15  Gn3
 BYTE   W15
 BYTE   N07  Fs3
 BYTE   W09
 BYTE   N15  Gn3
 BYTE   W15
 BYTE   N22  En3
 BYTE   N22  An3
 BYTE   W24
 BYTE   Gn3
 BYTE   W24
 BYTE   N52  Dn3
 BYTE   W09
//  #05 //013   ----------------------------------------
 BYTE   W60
 BYTE   W03
 BYTE   N07
 BYTE   W09
 BYTE   N15
 BYTE   W15
 BYTE   N07
 BYTE   W09
//  #05 //014   ----------------------------------------
 BYTE   N44  En3
 BYTE   N44  Gn3
 BYTE   W60
 BYTE   W03
 BYTE   N07  En3
 BYTE   W09
 BYTE   N15  Gn3
 BYTE   W15
 BYTE   N07  Bn3
 BYTE   W09
//  #05 //015   ----------------------------------------
 BYTE   N15  Ds3
 BYTE   N15  An3
 BYTE   W15
 BYTE   N22  Bn3
 BYTE   W24
 BYTE   N07  Dn3
 BYTE   N30  Gn3
 BYTE   W48
 BYTE   N07
 BYTE   W09
//  #05 //016   ----------------------------------------
 BYTE   N22  Cn4
 BYTE   W24
 BYTE   Bn3
 BYTE   W24
 BYTE   An3
 BYTE   W24
 BYTE   N15  Gn3
 BYTE   W15
 BYTE   N07
 BYTE   W09
//  #05 //017   ----------------------------------------
 BYTE   N15
 BYTE   W15
 BYTE   N07  Fs3
 BYTE   W09
 BYTE   N15  Gn3
 BYTE   W15
 BYTE   N30  An3
 BYTE   W56
 BYTE   W01
//  #05 //018   ----------------------------------------
 BYTE   PATT
  POIN2 Label_010E7872
//  #05 //019   ----------------------------------------
 BYTE   W24
 BYTE   N22  Bn3  v060
 BYTE   W24
 BYTE   N15  Fs3
 BYTE   N15  Dn4
 BYTE   W15
 BYTE   N22  Bn3
 BYTE   W24
 BYTE   N07
 BYTE   W09
//  #05 //020   ----------------------------------------
 BYTE   N15  An3
 BYTE   W15
 BYTE   N07  Gn3
 BYTE   W09
 BYTE   N15  An3
 BYTE   W15
 BYTE   N07  Gn3
 BYTE   W09
 BYTE   N15  An3
 BYTE   W15
 BYTE   N22  Gn3
 BYTE   W24
 BYTE   N30  Fn3
 BYTE   N30  Bn3
 BYTE   W09
//  #05 //021   ----------------------------------------
 BYTE   W36
 BYTE   W03
 BYTE   N07
 BYTE   W09
 BYTE   N15
 BYTE   W15
 BYTE   N22  Cn4
 BYTE   W24
 BYTE   N44  En3
 BYTE   N44  Bn3
 BYTE   W09
//  #05 //022   ----------------------------------------
 BYTE   W36
 BYTE   W03
 BYTE   N07  Gn3
 BYTE   W09
 BYTE   N22
 BYTE   W24
 BYTE   En3
 BYTE   W24
//  #05 //023   ----------------------------------------
 BYTE   N15  Dn3
 BYTE   W15
 BYTE   N07
 BYTE   W09
 BYTE   N15  An3
 BYTE   W15
 BYTE   N30  Gn3
 BYTE   W32
 BYTE   W01
 BYTE   N22
 BYTE   W24
//  #05 //024   ----------------------------------------
 BYTE   En3
 BYTE   N22  Cn4
 BYTE   W24
 BYTE   Bn3  v064
 BYTE   W24
 BYTE   Dn3  v068
 BYTE   N22  Fs3
 BYTE   W24
 BYTE   An3
 BYTE   W24
//  #05 //025   ----------------------------------------
 BYTE   N16  Bn2  v072
 BYTE   N16  Dn3
 BYTE   N16  Gn3
 BYTE   W24
 BYTE   Bn2
 BYTE   N16  Dn3
 BYTE   N16  Gn3
 BYTE   W24
 BYTE   Bn2
 BYTE   N16  Dn3
 BYTE   N16  Gn3
 BYTE   W24
 BYTE   N11  Gn4
 BYTE   W24
//  #05 //026   ----------------------------------------
 BYTE   N68  Bn3  v044
 BYTE   W05
 BYTE   N66  Cn4
 BYTE   W05
 BYTE   N60  En4
 BYTE   W05
 BYTE   N56  Gn4
 BYTE   W56
 BYTE   W01
 BYTE   N22
 BYTE   W24
//  #05 //027   ----------------------------------------
 BYTE   N15  Cn4
 BYTE   N15  Gn4
 BYTE   W15
 BYTE   N22  En4
 BYTE   W24
 BYTE   Cn4
 BYTE   N22  Gn4
 BYTE   W24
 BYTE   N07
 BYTE   W09
 BYTE   N15
 BYTE   W15
 BYTE   N07  An4
 BYTE   W09
//  #05 //028   ----------------------------------------
 BYTE   N44  Cn4
 BYTE   W05
 BYTE   N42  Gn4
 BYTE   W05
 BYTE   N36  As4
 BYTE   W36
 BYTE   W02
 BYTE   An4
 BYTE   W36
 BYTE   W03
 BYTE   N22  Cn4
 BYTE   N22  Gn4
 BYTE   W09
//  #05 //029   ----------------------------------------
 BYTE   W15
 BYTE   N07  An4
 BYTE   W09
 BYTE   N15  Gn4
 BYTE   W15
 BYTE   N22  Cn4
 BYTE   N22  Gn4
 BYTE   W24
 BYTE   Ds4
 BYTE   W32
 BYTE   W01
//  #05 //030   ----------------------------------------
 BYTE   W24
 BYTE   Bn3
 BYTE   N22  Dn4
 BYTE   W24
 BYTE   Bn3
 BYTE   N22  Dn4
 BYTE   W36
 BYTE   W03
 BYTE   N07
 BYTE   W09
//  #05 //031   ----------------------------------------
 BYTE   N15
 BYTE   N15  Dn5
 BYTE   W15
 BYTE   N22  Cn5
 BYTE   W24
 BYTE   Dn4
 BYTE   N22  Bn4
 BYTE   W24
 BYTE   N07  Gn4
 BYTE   W09
 BYTE   N15  Bn4
 BYTE   W15
 BYTE   N07  Cn5
 BYTE   W09
//  #05 //032   ----------------------------------------
 BYTE   N44  En4
 BYTE   N44  Bn4
 BYTE   W48
 BYTE   En4
 BYTE   N44  Cn5
 BYTE   W48
//  #05 //033   ----------------------------------------
 BYTE   N36  En4
 BYTE   N36  Bn4
 BYTE   W36
 BYTE   W03
 BYTE   N30  En4  v048
 BYTE   N30  Gs4
 BYTE   W32
 BYTE   W01
 BYTE   N01  Gn5  v056
 BYTE   W01
 BYTE   Fn5
 BYTE   W02
 BYTE   En5
 BYTE   W02
 BYTE   Dn5
 BYTE   W01
 BYTE   Cn5
 BYTE   W02
 BYTE   Bn4
 BYTE   W02
 BYTE   An4
 BYTE   W01
 BYTE   Gn4
 BYTE   W02
 BYTE   Fn4
 BYTE   W02
 BYTE   En4
 BYTE   W01
 BYTE   Dn4
 BYTE   W02
 BYTE   Cn4  v060
 BYTE   W02
 BYTE   Bn3
 BYTE   W02
 BYTE   An3
 BYTE   W02
//  #05 //034   ----------------------------------------
 BYTE   N22  Gn3
 BYTE   W60
 BYTE   W03
 BYTE   N07  En4
 BYTE   W09
 BYTE   N15  Gn4
 BYTE   W15
 BYTE   N07  En4
 BYTE   W09
//  #05 //035   ----------------------------------------
 BYTE   N22  Gn4
 BYTE   W24
 BYTE   N15  En4
 BYTE   W15
 BYTE   N07  Gn4
 BYTE   W24
 BYTE   N30  Cn3
 BYTE   N30  En3
 BYTE   W32
 BYTE   W01
//  #05 //036   ----------------------------------------
 BYTE   N22  Bn2
 BYTE   N22  Dn3
 BYTE   W60
 BYTE   W03
 BYTE   N07  En4
 BYTE   W09
 BYTE   N15  Gn4
 BYTE   W15
 BYTE   N07  En4
 BYTE   W09
//  #05 //037   ----------------------------------------
 BYTE   N22  Gn4
 BYTE   W24
 BYTE   N15  An4
 BYTE   W15
 BYTE   N22  Bn4
 BYTE   W24
 BYTE   N30  En4
 BYTE   W32
 BYTE   W01
//  #05 //038   ----------------------------------------
 BYTE   N44  Cn4
 BYTE   W05
 BYTE   N42  Ds4
 BYTE   W05
 BYTE   N36  An4
 BYTE   W36
 BYTE   W02
 BYTE   N44  Gn4
 BYTE   W48
//  #05 //039   ----------------------------------------
 BYTE   Ds4
 BYTE   W48
 BYTE   Cn4
 BYTE   W48
//  #05 //040   ----------------------------------------
 BYTE   TIE  Fs3
 BYTE   W03
 BYTE   An3
 BYTE   W03
 BYTE   Dn4
 BYTE   W90
//  #05 //041   ----------------------------------------
 BYTE   W44
 BYTE   EOT
 BYTE   W01
 BYTE   EOT
 BYTE   Fs3  v069
 BYTE   W03
 BYTE   N11  Gn3
 BYTE   N11  Gn4
 BYTE   W24
 BYTE   N22  Gs3
 BYTE   N22  Gs4
 BYTE   W24
//  #05 //042   ----------------------------------------
 BYTE   N15  Dn4
 BYTE   N15  An4
 BYTE   W15
 BYTE   N07  Gs4
 BYTE   W09
 BYTE   N15  Dn4
 BYTE   N15  An4
 BYTE   W15
 BYTE   N22  Dn4
 BYTE   N22  An4
 BYTE   W24
 BYTE   N07  Gs4
 BYTE   W09
 BYTE   N15  Dn4
 BYTE   N15  An4
 BYTE   W15
 BYTE   N07  En4
 BYTE   N07  Bn4
 BYTE   W09
//  #05 //043   ----------------------------------------
 BYTE   W24
 BYTE   N36  Fn4
 BYTE   N36  An4
 BYTE   N36  Cs5
 BYTE   W36
 BYTE   W03
 BYTE   N07  En4
 BYTE   W09
 BYTE   N15  Gn4
 BYTE   W15
 BYTE   N07  En4
 BYTE   W09
//  #05 //044   ----------------------------------------
Label_010E7A80:
 BYTE   N22  Gn4  v060
 BYTE   N22  Bn4
 BYTE   W48
 BYTE   En4
 BYTE   N22  Gn4
 BYTE   N22  Cn5
 BYTE   W36
 BYTE   W03
 BYTE   Fs4
 BYTE   N22  An4
 BYTE   N22  Dn5
 BYTE   W09
 BYTE   PEND 
//  #05 //045   ----------------------------------------
Label_010E7A94:
 BYTE   W15
 BYTE   N07  Cn5  v060
 BYTE   W09
 BYTE   N22  An4
 BYTE   N22  Dn5
 BYTE   W24
 BYTE   N15  Fs4
 BYTE   N15  An4
 BYTE   W15
 BYTE   N22  En4
 BYTE   N22  Gn4
 BYTE   W24
 BYTE   Dn4
 BYTE   N22  An4
 BYTE   W09
 BYTE   PEND 
//  #05 //046   ----------------------------------------
 BYTE   W15
 BYTE   N07  Gn4
 BYTE   W09
 BYTE   N15  Dn4
 BYTE   N15  An4
 BYTE   W15
 BYTE   N07  Gn4
 BYTE   W09
 BYTE   N15  Dn4
 BYTE   N15  An4
 BYTE   W15
 BYTE   N07
 BYTE   W09
 BYTE   N15  Bn4
 BYTE   W15
 BYTE   N22  En4
 BYTE   N22  Cn5
 BYTE   W09
//  #05 //047   ----------------------------------------
 BYTE   W15
 BYTE   N07  Bn4
 BYTE   W09
 BYTE   N15  An4
 BYTE   W15
 BYTE   N22  En4
 BYTE   N22  Bn4
 BYTE   W24
 BYTE   N07  En4
 BYTE   W09
 BYTE   N15  Gn4
 BYTE   W15
 BYTE   N07  En4
 BYTE   W09
//  #05 //048   ----------------------------------------
 BYTE   N44  Bn3
 BYTE   W02
 BYTE   Cn4
 BYTE   W03
 BYTE   N42  En4
 BYTE   W02
 BYTE   N40  Gn4
 BYTE   W56
 BYTE   N07  En4
 BYTE   W09
 BYTE   N15  Gn4
 BYTE   W15
 BYTE   N07  En4
 BYTE   W09
//  #05 //049   ----------------------------------------
 BYTE   N36
 BYTE   N36  Gn4
 BYTE   N36  As4
 BYTE   W36
 BYTE   W03
 BYTE   N22  En4
 BYTE   N22  An4
 BYTE   W24
 BYTE   N07  Dn4
 BYTE   W09
 BYTE   N15
 BYTE   W15
 BYTE   N07
 BYTE   W09
//  #05 //050   ----------------------------------------
 BYTE   N15  Dn5
 BYTE   W15
 BYTE   N07  Cn5
 BYTE   W09
 BYTE   N15  Bn4
 BYTE   W15
 BYTE   N07  An4
 BYTE   W09
 BYTE   N15  Fs4
 BYTE   N15  Bn4
 BYTE   W15
 BYTE   N22  Cn5
 BYTE   W24
 BYTE   N52  En4
 BYTE   N52  Bn4
 BYTE   W09
//  #05 //051   ----------------------------------------
 BYTE   W60
 BYTE   W03
 BYTE   N07  En4
 BYTE   W09
 BYTE   N15  Gn4
 BYTE   W15
 BYTE   N07  En4
 BYTE   W09
//  #05 //052   ----------------------------------------
 BYTE   PATT
  POIN2 Label_010E7A80
//  #05 //053   ----------------------------------------
 BYTE   PATT
  POIN2 Label_010E7A94
//  #05 //054   ----------------------------------------
 BYTE   W15
 BYTE   N07  Fs4  v060
 BYTE   W09
 BYTE   N15  Gn4
 BYTE   W15
 BYTE   N22  Dn4
 BYTE   N22  An4
 BYTE   W24
 BYTE   Bn4
 BYTE   W24
 BYTE   En4
 BYTE   N22  Cn5
 BYTE   W09
//  #05 //055   ----------------------------------------
 BYTE   W15
 BYTE   N52  Fn4
 BYTE   N52  Dn5
 BYTE   W56
 BYTE   W01
 BYTE   N05  Cn5
 BYTE   W05
 BYTE   N17  Fn4
 BYTE   N17  Dn5
 BYTE   W19
//  #05 //056   ----------------------------------------
 BYTE   N44  Cn4
 BYTE   N44  Gn4
 BYTE   W72
 BYTE   N22  Bn4
 BYTE   W24
//  #05 //057   ----------------------------------------
 BYTE   N15  En4
 BYTE   N15  Cn5
 BYTE   W15
 BYTE   N22  Bn4
 BYTE   W24
 BYTE   En4
 BYTE   N22  An4
 BYTE   W24
 BYTE   Gn4
 BYTE   W24
 BYTE   En4
 BYTE   N22  An4
 BYTE   W09
//  #05 //058   ----------------------------------------
 BYTE   W15
 BYTE   N30  Dn4
 BYTE   N30  Bn4
 BYTE   W48
 BYTE   N07  En4
 BYTE   W09
 BYTE   N15  Gs4
 BYTE   W15
 BYTE   N07  Bn4
 BYTE   W09
//  #05 //059   ----------------------------------------
 BYTE   Dn5
 BYTE   W08
 BYTE   Cn5  v048
 BYTE   W08
 BYTE   Bn4
 BYTE   W08
 BYTE   An4
 BYTE   W08
 BYTE   Gn4
 BYTE   W08
 BYTE   Fs4
 BYTE   W08
 BYTE   N22  En4  v060
 BYTE   N22  Bn4
 BYTE   W24
 BYTE   N15  An4
 BYTE   W15
 BYTE   N22  Cn4
 BYTE   N22  An4
 BYTE   W09
//  #05 //060   ----------------------------------------
 BYTE   W15
 BYTE   N07  Gn4
 BYTE   W09
 BYTE   N44  Cn4
 BYTE   N44  Gn4
 BYTE   W48
 BYTE   N22
 BYTE   W24
//  #05 //061   ----------------------------------------
 BYTE   N15  Dn4
 BYTE   N15  Gn4
 BYTE   W15
 BYTE   N22  Fs4
 BYTE   W24
 BYTE   Dn4
 BYTE   N22  Fs4
 BYTE   W24
 BYTE   Gn4
 BYTE   W24
 BYTE   TIE  Bn3
 BYTE   TIE  Dn4
 BYTE   TIE  Gn4
 BYTE   W09
//  #05 //062   ----------------------------------------
 BYTE   W96
//  #05 //063   ----------------------------------------
 BYTE   W36
 BYTE   W03
 BYTE   EOT
 BYTE   Bn3  v074
 BYTE   Gn4
 BYTE   W09
 BYTE   N01  Dn5
 BYTE   W01
 BYTE   Cn5
 BYTE   W02
 BYTE   Bn4
 BYTE   W02
 BYTE   An4
 BYTE   W01
 BYTE   Gn4
 BYTE   W02
 BYTE   Fn4
 BYTE   W02
 BYTE   En4
 BYTE   W01
 BYTE   Dn4
 BYTE   W02
 BYTE   Cn4
 BYTE   W02
 BYTE   Bn3
 BYTE   W01
 BYTE   An3
 BYTE   W02
 BYTE   Gn3
 BYTE   W02
 BYTE   Fn3
 BYTE   W02
 BYTE   En3
 BYTE   W02
 BYTE   N22  Dn3
 BYTE   W24
//  #05 //064   ----------------------------------------
 BYTE   N44  Fs4
 BYTE   N44  An4
 BYTE   N44  Dn5
 BYTE   W48
 BYTE   N15  Fs4
 BYTE   W15
 BYTE   N22  An4
 BYTE   N22  Dn5
 BYTE   W24
 BYTE   N52  Fn4
 BYTE   N52  An4
 BYTE   N52  Cn5
 BYTE   W09
//  #05 //065   ----------------------------------------
 BYTE   W48
 BYTE   N44  Fn4
 BYTE   N44  An4
 BYTE   N44  Cn5
 BYTE   W48
//  #05 //066   ----------------------------------------
 BYTE   Dn4
 BYTE   N44  Gn4
 BYTE   N44  Bn4
 BYTE   W48
 BYTE   N15  Dn4
 BYTE   W15
 BYTE   N22  Gn4
 BYTE   N22  Bn4
 BYTE   W24
 BYTE   N30  Ds4
 BYTE   N30  Gn4
 BYTE   N30  As4
 BYTE   W09
//  #05 //067   ----------------------------------------
 BYTE   W24
 BYTE   N22  An4
 BYTE   W24
 BYTE   Ds4
 BYTE   N22  Gn4
 BYTE   W24
 BYTE   Ds4
 BYTE   W24
//  #05 //068   ----------------------------------------
 BYTE   An3
 BYTE   W24
 BYTE   N11  Dn4
 BYTE   N11  En4
 BYTE   N11  An4
 BYTE   W24
 BYTE   N15  Dn4
 BYTE   N15  En4
 BYTE   N15  An4
 BYTE   W15
 BYTE   N10  Dn4
 BYTE   N10  En4
 BYTE   N10  An4
 BYTE   W24
 BYTE   N07  Dn4
 BYTE   N30  An4
 BYTE   W09
//  #05 //069   ----------------------------------------
 BYTE   N15  En4
 BYTE   W15
 BYTE   N07  Dn4
 BYTE   W09
 BYTE   N15  En4
 BYTE   W15
 BYTE   N30  An4
 BYTE   W32
 BYTE   W01
 BYTE   N22  En4
 BYTE   W24
//  #05 //070   ----------------------------------------
 BYTE   Bn2
 BYTE   N22  Bn3
 BYTE   W24
 BYTE   En3
 BYTE   N22  En4
 BYTE   W24
 BYTE   Fs3
 BYTE   N22  Fs4
 BYTE   W24
 BYTE   An3
 BYTE   N22  An4
 BYTE   W24
//  #05 //071   ----------------------------------------
 BYTE   N05  Bn3
 BYTE   N05  Bn4
 BYTE   W24
 BYTE   N68  Gn5
 BYTE   W05
 BYTE   N66  Ds5
 BYTE   W05
 BYTE   N60  Bn4
 BYTE   W05
 BYTE   N56  Gn4
 BYTE   W56
 BYTE   W01
//  #05 //072   ----------------------------------------
 BYTE   W24
 BYTE   GoTo
  POIN2 Label_010E7872
//  #05 //073   ----------------------------------------
 BYTE   W72
 BYTE   W96
//  #05 //074   ----------------------------------------
 BYTE   W96
//  #05 //075   ----------------------------------------
 BYTE   W96
//  #05 //076   ----------------------------------------
 BYTE   W96
//  #05 //077   ----------------------------------------
 BYTE   W96
//  #05 //078   ----------------------------------------
 BYTE   W96
//  #05 //079   ----------------------------------------
 BYTE   W96
//  #05 //080   ----------------------------------------
 BYTE   W96
//  #05 //081   ----------------------------------------
 BYTE   W96
//  #05 //082   ----------------------------------------
 BYTE   W96
//  #05 //083   ----------------------------------------
 BYTE   W96
//  #05 //084   ----------------------------------------
 BYTE   W96
//  #05 //085   ----------------------------------------
 BYTE   W96
//  #05 //086   ----------------------------------------
 BYTE   W96
//  #05 //087   ----------------------------------------
 BYTE   W96
//  #05 //088   ----------------------------------------
 BYTE   W96
//  #05 //089   ----------------------------------------
 BYTE   W96
//  #05 //090   ----------------------------------------
 BYTE   W96
//  #05 //091   ----------------------------------------
 BYTE   W96
//  #05 //092   ----------------------------------------
 BYTE   W96
//  #05 //093   ----------------------------------------
 BYTE   W96
//  #05 //094   ----------------------------------------
 BYTE   W96
//  #05 //095   ----------------------------------------
 BYTE   W96
//  #05 //096   ----------------------------------------
 BYTE   W96
//  #05 //097   ----------------------------------------
 BYTE   W96
//  #05 //098   ----------------------------------------
 BYTE   W96
//  #05 //099   ----------------------------------------
 BYTE   W96
//  #05 //100   ----------------------------------------
 BYTE   W96
//  #05 //101   ----------------------------------------
 BYTE   W96
//  #05 //102   ----------------------------------------
 BYTE   W96
//  #05 //103   ----------------------------------------
 BYTE   W96
//  #05 //104   ----------------------------------------
 BYTE   W96
//  #05 //105   ----------------------------------------
 BYTE   W96
//  #05 //106   ----------------------------------------
 BYTE   W96
//  #05 //107   ----------------------------------------
 BYTE   W96
//  #05 //108   ----------------------------------------
 BYTE   W96
//  #05 //109   ----------------------------------------
 BYTE   W96
//  #05 //110   ----------------------------------------
 BYTE   W96
//  #05 //111   ----------------------------------------
 BYTE   W96
//  #05 //112   ----------------------------------------
 BYTE   W96
//  #05 //113   ----------------------------------------
 BYTE   W96
//  #05 //114   ----------------------------------------
 BYTE   W96
//  #05 //115   ----------------------------------------
 BYTE   W96
//  #05 //116   ----------------------------------------
 BYTE   W96
//  #05 //117   ----------------------------------------
 BYTE   W96
//  #05 //118   ----------------------------------------
 BYTE   W96
//  #05 //119   ----------------------------------------
 BYTE   W96
//  #05 //120   ----------------------------------------
 BYTE   W96
//  #05 //121   ----------------------------------------
 BYTE   W96
//  #05 //122   ----------------------------------------
 BYTE   W96
//  #05 //123   ----------------------------------------
 BYTE   W96
//  #05 //124   ----------------------------------------
 BYTE   W96
//  #05 //125   ----------------------------------------
 BYTE   W96
//  #05 //126   ----------------------------------------
 BYTE   W96
//  #05 //127   ----------------------------------------
 BYTE   W96
//  #05 //128   ----------------------------------------
 BYTE   W96
//  #05 //129   ----------------------------------------
 BYTE   W96
//  #05 //130   ----------------------------------------
 BYTE   W96
//  #05 //131   ----------------------------------------
 BYTE   W96
//  #05 //132   ----------------------------------------
 BYTE   W96
//  #05 //133   ----------------------------------------
 BYTE   W96
//  #05 //134   ----------------------------------------
 BYTE   W96
//  #05 //135   ----------------------------------------
 BYTE   W96
//  #05 //136   ----------------------------------------
 BYTE   W96
//  #05 //137   ----------------------------------------
 BYTE   W96
//  #05 //138   ----------------------------------------
 BYTE   W96
//  #05 //139   ----------------------------------------
 BYTE   W96
//  #05 //140   ----------------------------------------
 BYTE   W96
//  #05 //141   ----------------------------------------
 BYTE   W96
//  #05 //142   ----------------------------------------
 BYTE   W96
//  #05 //143   ----------------------------------------
 BYTE   W96
//  #05 //144   ----------------------------------------
 BYTE   W96
//  #05 //145   ----------------------------------------
 BYTE   W96
//  #05 //146   ----------------------------------------
 BYTE   W96
//  #05 //147   ----------------------------------------
 BYTE   W96
//  #05 //148   ----------------------------------------
 BYTE   W96
//  #05 //149   ----------------------------------------
 BYTE   W96
//  #05 //150   ----------------------------------------
 BYTE   W96
//  #05 //151   ----------------------------------------
 BYTE   W96
//  #05 //152   ----------------------------------------
 BYTE   W96
//  #05 //153   ----------------------------------------
 BYTE   W96
//  #05 //154   ----------------------------------------
 BYTE   W96
//  #05 //155   ----------------------------------------
 BYTE   W96
//  #05 //156   ----------------------------------------
 BYTE   W96
//  #05 //157   ----------------------------------------
 BYTE   W96
//  #05 //158   ----------------------------------------
 BYTE   W96
//  #05 //159   ----------------------------------------
 BYTE   W96
//  #05 //160   ----------------------------------------
 BYTE   W96
//  #05 //161   ----------------------------------------
 BYTE   W96
//  #05 //162   ----------------------------------------
 BYTE   W96
//  #05 //163   ----------------------------------------
 BYTE   W96
//  #05 //164   ----------------------------------------
 BYTE   W96
//  #05 //165   ----------------------------------------
 BYTE   W96
//  #05 //166   ----------------------------------------
 BYTE   W96
//  #05 //167   ----------------------------------------
 BYTE   W96
//  #05 //168   ----------------------------------------
 BYTE   W96
//  #05 //169   ----------------------------------------
 BYTE   W96
//  #05 //170   ----------------------------------------
 BYTE   W96
//  #05 //171   ----------------------------------------
 BYTE   W96
//  #05 //172   ----------------------------------------
 BYTE   W96
//  #05 //173   ----------------------------------------
 BYTE   W96
//  #05 //174   ----------------------------------------
 BYTE   W96
//  #05 //175   ----------------------------------------
 BYTE   W96
//  #05 //176   ----------------------------------------
 BYTE   W96
//  #05 //177   ----------------------------------------
 BYTE   W96
//  #05 //178   ----------------------------------------
 BYTE   W96
//  #05 //179   ----------------------------------------
 BYTE   W96
//  #05 //180   ----------------------------------------
 BYTE   W96
//  #05 //181   ----------------------------------------
 BYTE   W96
//  #05 //182   ----------------------------------------
 BYTE   W96
//  #05 //183   ----------------------------------------
 BYTE   W96
//  #05 //184   ----------------------------------------
 BYTE   W96
//  #05 //185   ----------------------------------------
 BYTE   W96
//  #05 //186   ----------------------------------------
 BYTE   W96
//  #05 //187   ----------------------------------------
 BYTE   W96
//  #05 //188   ----------------------------------------
 BYTE   W96
//  #05 //189   ----------------------------------------
 BYTE   W96
//  #05 //190   ----------------------------------------
 BYTE   W96
//  #05 //191   ----------------------------------------
 BYTE   W48
 BYTE   FINE

//******************************************************//
	ALIGN 4

PlasmagicSeasons:
	BYTE	5	// NumTrks
	BYTE	0	// NumBlks
	BYTE	PlasmagicSeasons_pri	// Priority
	BYTE	PlasmagicSeasons_rev	// Reverb.
    
	POIN2	PlasmagicSeasons_grp
    
	POIN2	PlasmagicSeasons_001
	POIN2	PlasmagicSeasons_002
	POIN2	PlasmagicSeasons_003
	POIN2	PlasmagicSeasons_004
	POIN2	PlasmagicSeasons_005

	
