//Event file generated from Sappy .s format.
	#include "MPlayDef.event"

	#define	ShinySmilyStory_grp  voicegroup000
	#define	ShinySmilyStory_pri  0
	#define	ShinySmilyStory_rev  0
	#define	ShinySmilyStory_mvl  127
	#define	ShinySmilyStory_key  0
	#define	ShinySmilyStory_tbs  1
	#define	ShinySmilyStory_exg  0
	#define	ShinySmilyStory_cmp  1

	// .rodata
	//	ShinySmilyStory
	ALIGN 4


//**************** Track 1 (Midi-Chn.0) ****************//

ShinySmilyStory_001:
//  #01 //000   ----------------------------------------
 BYTE   KEYSH   ShinySmilyStory_key+0
 BYTE   TEMPO   168*ShinySmilyStory_tbs/2
 BYTE   VOICE   1
 BYTE   MODT 0
 BYTE   LFOS 44
 BYTE   VOL   32*ShinySmilyStory_mvl/mxv
 BYTE   PAN   c_v+0
Label_01F52F16:
 BYTE   W36
 BYTE   N18  As4  v112
 BYTE   W24
 BYTE   N12  Gs4
 BYTE   W12
 BYTE   As4
 BYTE   W24
//  #01 //001   ----------------------------------------
 BYTE   Gs4
 BYTE   W12
 BYTE   N18  As4
 BYTE   W24
 BYTE   N18
 BYTE   W24
 BYTE   N12
 BYTE   W12
 BYTE   Ds5
 BYTE   W24
//  #01 //002   ----------------------------------------
 BYTE   As4
 BYTE   W12
 BYTE   N18  Ds5
 BYTE   W24
 BYTE   As4
 BYTE   W24
 BYTE   N12  Gs4
 BYTE   W12
 BYTE   As4  v108
 BYTE   W24
//  #01 //003   ----------------------------------------
 BYTE   Gs4
 BYTE   W12
 BYTE   N18  As4
 BYTE   W24
 BYTE   Gs4
 BYTE   W24
 BYTE   N12
 BYTE   W12
 BYTE   Ds5
 BYTE   W12
 BYTE   Cs5
 BYTE   W12
//  #01 //004   ----------------------------------------
 BYTE   Cn5
 BYTE   W12
 BYTE   As4
 BYTE   W12
 BYTE   Gs4
 BYTE   W12
 BYTE   N24
 BYTE   W24
 BYTE   N12  Ds4  v076
 BYTE   W12
 BYTE   Gs4
 BYTE   W12
 BYTE   Ds4
 BYTE   W12
//  #01 //005   ----------------------------------------
 BYTE   Gs4
 BYTE   W12
 BYTE   N24  Cn5
 BYTE   W24
 BYTE   Gs4
 BYTE   W24
 BYTE   N12  Ds4
 BYTE   W12
 BYTE   Gs4
 BYTE   W12
 BYTE   Ds4
 BYTE   W12
//  #01 //006   ----------------------------------------
 BYTE   Gs4
 BYTE   W12
 BYTE   N24  Cn5
 BYTE   W24
 BYTE   W72
//  #01 //007   ----------------------------------------
 BYTE   N12  Fn4
 BYTE   W12
 BYTE   N24  Gs4
 BYTE   W12
 BYTE   W56
 BYTE   W02
 BYTE   N01  Fn6  v108
 BYTE   W02
 BYTE   Ds6
 BYTE   W01
 BYTE   Cs6
 BYTE   W02
 BYTE   Cn6
 BYTE   W01
 BYTE   As5
 BYTE   W02
 BYTE   Gs5
 BYTE   W01
 BYTE   Gn5
 BYTE   W02
 BYTE   Fn5
 BYTE   W01
 BYTE   Ds5
 BYTE   W02
//  #01 //008   ----------------------------------------
 BYTE   Cs5
 BYTE   W01
 BYTE   Cn5
 BYTE   W02
 BYTE   As4
 BYTE   W01
 BYTE   Gs4
 BYTE   W02
 BYTE   Gn4
 BYTE   W01
 BYTE   Fn4
 BYTE   W02
 BYTE   Ds4
 BYTE   W01
 BYTE   Cs4
 BYTE   W14
 BYTE   N36  Gs3
 BYTE   N36  Ds4
 BYTE   W36
 BYTE   N60  Gs3
 BYTE   N60  Ds4
 BYTE   W60
//  #01 //009   ----------------------------------------
 BYTE   N36  Ds3
 BYTE   N36  As3
 BYTE   W36
 BYTE   Ds3
 BYTE   N36  Ds4
 BYTE   W36
 BYTE   N24  Ds3  v104
 BYTE   N24  As3
 BYTE   W24
//  #01 //010   ----------------------------------------
 BYTE   N96  Ds3
 BYTE   N96  Gs3
 BYTE   W96
//  #01 //011   ----------------------------------------
 BYTE   N36  Cn3  v100
 BYTE   N24  Gs3
 BYTE   W24
 BYTE   N12  Cn4
 BYTE   W12
 BYTE   N36  Cn3
 BYTE   N36  Ds4
 BYTE   W36
 BYTE   N24  Cn3
 BYTE   N24  Gs3
 BYTE   W24
//  #01 //012   ----------------------------------------
 BYTE   N36
 BYTE   N36  Cs4
 BYTE   W36
 BYTE   Gs3
 BYTE   N36  Cs4
 BYTE   W36
 BYTE   N24  Gs3
 BYTE   N24  Cs4
 BYTE   W24
//  #01 //013   ----------------------------------------
 BYTE   N36  Gs3
 BYTE   N36  Cn4
 BYTE   W36
 BYTE   Gs3
 BYTE   N36  Cn4
 BYTE   W36
 BYTE   N24  Gs3
 BYTE   N24  Cn4
 BYTE   W24
//  #01 //014   ----------------------------------------
 BYTE   Gs3
 BYTE   W24
 BYTE   Gn3
 BYTE   W24
 BYTE   Gs3
 BYTE   W24
 BYTE   Cn4
 BYTE   W24
//  #01 //015   ----------------------------------------
 BYTE   N12  As3
 BYTE   W12
 BYTE   N12
 BYTE   W24
 BYTE   N24
 BYTE   W24
 BYTE   N12  Ds4
 BYTE   W12
 BYTE   Gn4
 BYTE   W12
 BYTE   As4
 BYTE   W12
//  #01 //016   ----------------------------------------
 BYTE   Cn5
 BYTE   W12
 BYTE   As4
 BYTE   W12
 BYTE   Gn4
 BYTE   W12
 BYTE   N36  En4
 BYTE   W60
//  #01 //017   ----------------------------------------
 BYTE   N96  Cn4
 BYTE   N96  Fn4
 BYTE   W96
//  #01 //018   ----------------------------------------
 BYTE   Cn4
 BYTE   N96  En4
 BYTE   W96
//  #01 //019   ----------------------------------------
 BYTE   N36  An3
 BYTE   N36  Dn4
 BYTE   W36
 BYTE   An3
 BYTE   N36  Dn4
 BYTE   W36
 BYTE   N24  An3
 BYTE   N24  Dn4
 BYTE   W24
//  #01 //020   ----------------------------------------
 BYTE   N36  Fn3
 BYTE   N36  Cn4
 BYTE   W36
 BYTE   Fn3
 BYTE   N36  Cn4
 BYTE   W36
 BYTE   N24  Fn3
 BYTE   N24  Cn4
 BYTE   W24
//  #01 //021   ----------------------------------------
 BYTE   N36  As2
 BYTE   N36  Dn3
 BYTE   W36
 BYTE   N12  Fn4
 BYTE   W12
 BYTE   En4
 BYTE   W12
 BYTE   Dn4
 BYTE   W12
 BYTE   As3
 BYTE   W12
 BYTE   Fn3
 BYTE   W12
//  #01 //022   ----------------------------------------
 BYTE   N36  An2
 BYTE   N36  Cn3
 BYTE   W36
 BYTE   An2
 BYTE   N36  Cn3
 BYTE   W36
 BYTE   N24  An2
 BYTE   N24  Cn3
 BYTE   W24
//  #01 //023   ----------------------------------------
 BYTE   As3
 BYTE   N24  Fn4
 BYTE   W24
 BYTE   As3
 BYTE   N24  Cs4
 BYTE   W24
 BYTE   As3
 BYTE   N24  Fn4
 BYTE   W24
 BYTE   Cs4
 BYTE   N24  Gn4
 BYTE   W24
//  #01 //024   ----------------------------------------
 BYTE   N12  An2
 BYTE   N12  Cn3
 BYTE   W12
 BYTE   N18  An2
 BYTE   N18  Cn3
 BYTE   W24
 BYTE   An2
 BYTE   N18  Cn3
 BYTE   W24
 BYTE   N30  An2
 BYTE   N30  Cn3
 BYTE   W36
//  #01 //025   ----------------------------------------
 BYTE   N96  An2
 BYTE   N96  Cn3
 BYTE   W96
//  #01 //026   ----------------------------------------
 BYTE   N36  Gn3
 BYTE   N36  Cn4
 BYTE   W36
 BYTE   Gn3
 BYTE   N36  Cn4
 BYTE   W36
 BYTE   N24  Gn3
 BYTE   N24  Cn4
 BYTE   W24
//  #01 //027   ----------------------------------------
 BYTE   N36  Fn3
 BYTE   N36  An3
 BYTE   W36
 BYTE   Fn3
 BYTE   N36  An3
 BYTE   W36
 BYTE   N24  Fn3
 BYTE   N24  An3
 BYTE   W24
//  #01 //028   ----------------------------------------
 BYTE   N36  Dn3
 BYTE   N36  Gn3
 BYTE   W36
 BYTE   N12  Fn4
 BYTE   W12
 BYTE   En4
 BYTE   W12
 BYTE   Dn4
 BYTE   W12
 BYTE   Cn4
 BYTE   W12
 BYTE   An3
 BYTE   W12
//  #01 //029   ----------------------------------------
 BYTE   N96  Fn3
 BYTE   N96  As3
 BYTE   W96
//  #01 //030   ----------------------------------------
 BYTE   N36  Cn3
 BYTE   N36  An3
 BYTE   W36
 BYTE   Cn3
 BYTE   N36  An3
 BYTE   W36
 BYTE   N24  Cn3
 BYTE   N24  An3
 BYTE   W24
//  #01 //031   ----------------------------------------
 BYTE   Cn3
 BYTE   N24  Gn3
 BYTE   W36
 BYTE   N12  Cn3
 BYTE   N12  Gn3
 BYTE   W24
 BYTE   Cn3
 BYTE   N12  Gn3
 BYTE   W24
 BYTE   TIE  Fn3
 BYTE   TIE  An3
 BYTE   W12
//  #01 //032   ----------------------------------------
 BYTE   W96
//  #01 //033   ----------------------------------------
 BYTE   EOT
 BYTE   Fn3  v069
 BYTE   N48  As3
 BYTE   N48  Dn4
 BYTE   W48
 BYTE   N48
 BYTE   N48  Fn4
 BYTE   W48
//  #01 //034   ----------------------------------------
 BYTE   Cn4
 BYTE   N48  En4
 BYTE   W48
 BYTE   Gn3
 BYTE   N48  Cn4
 BYTE   W48
//  #01 //035   ----------------------------------------
 BYTE   Gn3
 BYTE   N48  Cn4
 BYTE   W48
 BYTE   N48
 BYTE   N48  En4
 BYTE   W48
//  #01 //036   ----------------------------------------
 BYTE   N36  An3
 BYTE   N48  Dn4
 BYTE   W48
 BYTE   N36
 BYTE   N36  Fn4
 BYTE   W36
 BYTE   N60  Gn2
 BYTE   N60  As2
 BYTE   W12
//  #01 //037   ----------------------------------------
 BYTE   W48
 BYTE   N18  An2
 BYTE   N18  Cn3
 BYTE   W36
 BYTE   N60  As2
 BYTE   N60  Dn3
 BYTE   W12
//  #01 //038   ----------------------------------------
 BYTE   W48
 BYTE   N18  Gn3
 BYTE   N18  Cn4
 BYTE   W48
//  #01 //039   ----------------------------------------
 BYTE   N48  Cs4
 BYTE   N48  Fn4
 BYTE   W48
 BYTE   Gs3
 BYTE   N48  Cs4
 BYTE   W48
//  #01 //040   ----------------------------------------
 BYTE   N48
 BYTE   N48  Fn4
 BYTE   W48
 BYTE   Cs4
 BYTE   N48  Gs4
 BYTE   W48
//  #01 //041   ----------------------------------------
 BYTE   W12
 BYTE   N09  Ds4  v104
 BYTE   N09  As4
 BYTE   W12
 BYTE   Ds4
 BYTE   N09  As4
 BYTE   W24
 BYTE   Ds4
 BYTE   N09  As4
 BYTE   W12
 BYTE   Ds4
 BYTE   N09  As4
 BYTE   W24
 BYTE   Ds4
 BYTE   N09  As4
 BYTE   W12
//  #01 //042   ----------------------------------------
 BYTE   W24
 BYTE   N42  Ds4
 BYTE   N36  As4
 BYTE   W24
 BYTE   N01  Ds6
 BYTE   W01
 BYTE   Cn6
 BYTE   W02
 BYTE   As5
 BYTE   W01
 BYTE   An5
 BYTE   W02
 BYTE   Gn5
 BYTE   W01
 BYTE   Fn5
 BYTE   W02
 BYTE   Ds5
 BYTE   W01
 BYTE   Cn5
 BYTE   W02
 BYTE   N32  As4
 BYTE   W01
 BYTE   N01  An4
 BYTE   W02
 BYTE   Gn4
 BYTE   W01
 BYTE   Fn4
 BYTE   W02
 BYTE   N24  Ds4
 BYTE   W01
 BYTE   N01  Cn4
 BYTE   W02
 BYTE   As3
 BYTE   W01
 BYTE   An3
 BYTE   W02
 BYTE   Gn3
 BYTE   W01
 BYTE   Fn3
 BYTE   W02
 BYTE   Ds3
 BYTE   W01
 BYTE   Cn3
 BYTE   W02
 BYTE   As2
 BYTE   W01
 BYTE   An2
 BYTE   W02
 BYTE   Gn2
 BYTE   W01
 BYTE   Fn2
 BYTE   W02
 BYTE   Ds2
 BYTE   W01
 BYTE   Cn2
 BYTE   W02
 BYTE   As1
 BYTE   W01
 BYTE   An1
 BYTE   W02
 BYTE   Gn1
 BYTE   W01
 BYTE   Fn1
 BYTE   W02
 BYTE   Ds1
 BYTE   W01
 BYTE   Cn1
 BYTE   W02
//  #01 //043   ----------------------------------------
Label_01F5316B:
 BYTE   N96  Gs3  v104
 BYTE   N96  Cn4
 BYTE   N96  Ds4
 BYTE   W96
 BYTE   PEND 
//  #01 //044   ----------------------------------------
Label_01F53174:
 BYTE   N96  Gn3  v104
 BYTE   N96  As3
 BYTE   N96  Dn4
 BYTE   W96
 BYTE   PEND 
//  #01 //045   ----------------------------------------
Label_01F5317D:
 BYTE   TIE  Gs3  v104
 BYTE   TIE  Cn4
 BYTE   TIE  Ds4
 BYTE   W96
 BYTE   PEND 
//  #01 //046   ----------------------------------------
 BYTE   W96
//  #01 //047   ----------------------------------------
 BYTE   EOT
 BYTE   Gs3  v072
 BYTE   Ds4
Label_01F5318B:
 BYTE   N36  Cs4  v104
 BYTE   N36  Fn4
 BYTE   W36
 BYTE   N60  Cs4
 BYTE   N60  Fn4
 BYTE   W60
 BYTE   PEND 
//  #01 //048   ----------------------------------------
Label_01F53197:
 BYTE   N36  Cn4  v104
 BYTE   N36  Ds4
 BYTE   W36
 BYTE   N60  Cn4
 BYTE   N60  Ds4
 BYTE   W60
 BYTE   PEND 
//  #01 //049   ----------------------------------------
 BYTE   N24  Cs4
 BYTE   N24  Cs5
 BYTE   W24
 BYTE   Cn4
 BYTE   N24  Cn5
 BYTE   W24
 BYTE   As3
 BYTE   N24  As4
 BYTE   W24
 BYTE   Gs3
 BYTE   N24  Gs4
 BYTE   W24
//  #01 //050   ----------------------------------------
 BYTE   W12
 BYTE   N06  Bn3
 BYTE   N06  En4
 BYTE   W12
 BYTE   N24  Bn3
 BYTE   N24  En4
 BYTE   W36
 BYTE   N36  As3
 BYTE   N36  Ds4
 BYTE   W36
//  #01 //051   ----------------------------------------
 BYTE   PATT
  POIN2 Label_01F5316B
//  #01 //052   ----------------------------------------
 BYTE   PATT
  POIN2 Label_01F53174
//  #01 //053   ----------------------------------------
 BYTE   PATT
  POIN2 Label_01F5317D
//  #01 //054   ----------------------------------------
 BYTE   W96
//  #01 //055   ----------------------------------------
 BYTE   EOT
 BYTE   Gs3  v072
 BYTE   Ds4
//  #01 //056   ----------------------------------------
 BYTE   PATT
  POIN2 Label_01F5318B
//  #01 //057   ----------------------------------------
 BYTE   PATT
  POIN2 Label_01F53197
//  #01 //058   ----------------------------------------
 BYTE   N24  Cs3  v104
 BYTE   W24
 BYTE   Fn3
 BYTE   W24
 BYTE   Gs3
 BYTE   W24
 BYTE   Cs4
 BYTE   W24
//  #01 //059   ----------------------------------------
 BYTE   W12
 BYTE   N12  Ds4
 BYTE   W36
 BYTE   N06
 BYTE   W12
 BYTE   N06
 BYTE   W06
 BYTE   N01  Gs5
 BYTE   W01
 BYTE   Gn5
 BYTE   W02
 BYTE   Fn5
 BYTE   W01
 BYTE   Ds5
 BYTE   W02
 BYTE   Cs5
 BYTE   W01
 BYTE   Cn5
 BYTE   W02
 BYTE   As4
 BYTE   W01
 BYTE   Gs4
 BYTE   W02
 BYTE   Gn4
 BYTE   W01
 BYTE   Fn4
 BYTE   W02
 BYTE   Ds4
 BYTE   W01
 BYTE   Cs4
 BYTE   W02
 BYTE   Cn4
 BYTE   W01
 BYTE   As3
 BYTE   W02
 BYTE   Gs3
 BYTE   W01
 BYTE   Gn3
 BYTE   W02
 BYTE   Fn3
 BYTE   W01
 BYTE   Ds3
 BYTE   W02
 BYTE   Cs3
 BYTE   W01
 BYTE   Cn3
 BYTE   W02
//  #01 //060   ----------------------------------------
 BYTE   N36  Fn2
 BYTE   N36  Cs3
 BYTE   N36  Fn3
 BYTE   W36
 BYTE   Ds2
 BYTE   N36  Cn3
 BYTE   N36  Ds3
 BYTE   W36
 BYTE   Cs2
 BYTE   N36  As2
 BYTE   N36  Cs3
 BYTE   W24
//  #01 //061   ----------------------------------------
 BYTE   W12
 BYTE   Cn2
 BYTE   N36  Gs2
 BYTE   N36  Cn3
 BYTE   W36
 BYTE   N24  Cs2
 BYTE   N24  As2
 BYTE   N24  Cs3
 BYTE   W24
 BYTE   Ds2  v100
 BYTE   N24  Cn3
 BYTE   N24  Ds3
 BYTE   W24
//  #01 //062   ----------------------------------------
Label_01F53245:
 BYTE   N36  Fn2  v100
 BYTE   N36  Cs3
 BYTE   N36  Fn3
 BYTE   W36
 BYTE   Ds2
 BYTE   N36  Cn3
 BYTE   N36  Ds3
 BYTE   W36
 BYTE   Cs2
 BYTE   N36  As2
 BYTE   N36  Cs3
 BYTE   W24
 BYTE   PEND 
//  #01 //063   ----------------------------------------
 BYTE   W12
 BYTE   Ds2
 BYTE   N36  Cn3
 BYTE   N36  Ds3
 BYTE   W36
 BYTE   N24  Fn2
 BYTE   N24  Cs3
 BYTE   N24  Fn3
 BYTE   W24
 BYTE   Gn2
 BYTE   N24  Ds3
 BYTE   N24  Gn3
 BYTE   W24
//  #01 //064   ----------------------------------------
 BYTE   PATT
  POIN2 Label_01F53245
//  #01 //065   ----------------------------------------
 BYTE   W12
 BYTE   N36  Cn2  v100
 BYTE   N36  Gs2
 BYTE   N36  Cn3
 BYTE   W36
 BYTE   N24  Cs2
 BYTE   N24  As2
 BYTE   N24  Cs3
 BYTE   W24
 BYTE   Ds2
 BYTE   N24  Cn3
 BYTE   N24  Ds3
 BYTE   W24
//  #01 //066   ----------------------------------------
 BYTE   N36  Gs2
 BYTE   N36  Cs3
 BYTE   N36  Gs3
 BYTE   W36
 BYTE   As2
 BYTE   N36  Gn3
 BYTE   N36  As3
 BYTE   W36
 BYTE   Bn2
 BYTE   N36  Gs3
 BYTE   N36  Bn3
 BYTE   W24
//  #01 //067   ----------------------------------------
 BYTE   W12
 BYTE   Cs3
 BYTE   N36  Fs3
 BYTE   N36  Cs4
 BYTE   W36
 BYTE   Ds3
 BYTE   N36  Gn3
 BYTE   N36  Ds4
 BYTE   W36
 BYTE   TIE  Ds3
 BYTE   TIE  Gs3
 BYTE   TIE  Ds4
 BYTE   W12
//  #01 //068   ----------------------------------------
 BYTE   W96
//  #01 //069   ----------------------------------------
 BYTE   W96
//  #01 //070   ----------------------------------------
 BYTE   EOT
 BYTE   Ds3  v068
 BYTE   Ds4
 BYTE   W44
 BYTE   GoTo
  POIN2 Label_01F52F16
 BYTE   FINE

//**************** Track 2 (Midi-Chn.1) ****************//

ShinySmilyStory_002:
//  #02 //000   ----------------------------------------
 BYTE   KEYSH   ShinySmilyStory_key+0
 BYTE   VOICE   80
 BYTE   MODT 0
 BYTE   LFOS 44
 BYTE   VOL   45*ShinySmilyStory_mvl/mxv
 BYTE   PAN   c_v-1
Label_01F68E88:
 BYTE   N09  Ds3  v127
 BYTE   W12
 BYTE   Fn3
 BYTE   W12
 BYTE   Gn3
 BYTE   W12
Label_01F68E90:
 BYTE   N24  Gs3  v127
 BYTE   W24
 BYTE   N18  Ds3
 BYTE   W24
 BYTE   N24  As3
 BYTE   W24
//  #02 //001   ----------------------------------------
 BYTE   N12  Gs3
 BYTE   W12
 BYTE   N24  Gn3
 BYTE   W12
 BYTE   PEND 
Label_01F68EA1:
 BYTE   W12
 BYTE   N12  Gs3  v127
 BYTE   W12
 BYTE   As3
 BYTE   W12
 BYTE   N48  Cn4
 BYTE   W60
 BYTE   PEND 
//  #02 //002   ----------------------------------------
 BYTE   PATT
  POIN2 Label_01F68E90
//  #02 //003   ----------------------------------------
Label_01F68EB1:
 BYTE   W12
 BYTE   N12  Gs3  v127
 BYTE   W12
 BYTE   As3
 BYTE   W12
 BYTE   N36  Cn4
 BYTE   W48
 BYTE   N12
 BYTE   W12
 BYTE   PEND 
//  #02 //004   ----------------------------------------
Label_01F68EBE:
 BYTE   N12  Cs4  v127
 BYTE   W12
 BYTE   N24  Cn4
 BYTE   W24
 BYTE   N36  Gs3
 BYTE   W48
 BYTE   N12  Cn4
 BYTE   W12
 BYTE   PEND 
//  #02 //005   ----------------------------------------
 BYTE   PATT
  POIN2 Label_01F68EBE
//  #02 //006   ----------------------------------------
 BYTE   N12  Cs4  v127
 BYTE   W12
 BYTE   N24  Cn4
 BYTE   W24
 BYTE   N84  Gs3
 BYTE   W60
//  #02 //007   ----------------------------------------
 BYTE   W36
 BYTE   N12
 BYTE   W12
 BYTE   N24  As3
 BYTE   W24
 BYTE   N12  Gn3
 BYTE   W12
 BYTE   TIE  Gs3
 BYTE   W12
//  #02 //008   ----------------------------------------
 BYTE   W96
//  #02 //009   ----------------------------------------
 BYTE   W96
//  #02 //010   ----------------------------------------
 BYTE   EOT
 BYTE   W96
//  #02 //011   ----------------------------------------
 BYTE   W96
//  #02 //012   ----------------------------------------
 BYTE   W96
//  #02 //013   ----------------------------------------
 BYTE   W96
//  #02 //014   ----------------------------------------
 BYTE   W96
//  #02 //015   ----------------------------------------
 BYTE   W96
//  #02 //016   ----------------------------------------
 BYTE   W96
//  #02 //017   ----------------------------------------
Label_01F68EF1:
 BYTE   W12
 BYTE   N09  An3  v120
 BYTE   W12
 BYTE   N21
 BYTE   W24
 BYTE   N12
 BYTE   W12
 BYTE   Fn3
 BYTE   W12
 BYTE   N12
 BYTE   W12
 BYTE   N12
 BYTE   W12
 BYTE   PEND 
//  #02 //018   ----------------------------------------
 BYTE   Gn3  v127
 BYTE   W12
 BYTE   Fn3  v120
 BYTE   W12
 BYTE   Gn3
 BYTE   W12
 BYTE   N21  An3
 BYTE   W24
 BYTE   N12  As3
 BYTE   W12
 BYTE   An3
 BYTE   W12
 BYTE   Gn3
 BYTE   W12
//  #02 //019   ----------------------------------------
Label_01F68F13:
 BYTE   N21  Fn3  v120
 BYTE   W24
 BYTE   N12  Dn3
 BYTE   W12
 BYTE   N21  Fn3
 BYTE   W24
 BYTE   Gn3
 BYTE   W24
 BYTE   N68  An3
 BYTE   W12
 BYTE   PEND 
//  #02 //020   ----------------------------------------
Label_01F68F23:
 BYTE   W60
 BYTE   N12  An3  v120
 BYTE   W12
 BYTE   As3
 BYTE   W12
 BYTE   N21  Cn4
 BYTE   W12
 BYTE   PEND 
//  #02 //021   ----------------------------------------
Label_01F68F2E:
 BYTE   W12
 BYTE   N12  As3  v120
 BYTE   W12
 BYTE   An3
 BYTE   W12
 BYTE   N24  As3
 BYTE   W24
 BYTE   Cn4
 BYTE   W24
 BYTE   As3
 BYTE   W12
 BYTE   PEND 
//  #02 //022   ----------------------------------------
Label_01F68F3D:
 BYTE   W12
 BYTE   N12  An3  v120
 BYTE   W12
 BYTE   Gn3
 BYTE   W12
 BYTE   N36  Fn3
 BYTE   W48
 BYTE   N09
 BYTE   W12
 BYTE   PEND 
//  #02 //023   ----------------------------------------
 BYTE   N24
 BYTE   W24
 BYTE   Cs3
 BYTE   W24
 BYTE   Fn3
 BYTE   W24
 BYTE   N09  Gn3
 BYTE   W12
 BYTE   N12
 BYTE   W12
//  #02 //024   ----------------------------------------
 BYTE   N09  Gs3
 BYTE   W12
 BYTE   N21
 BYTE   W24
 BYTE   N24
 BYTE   W24
 BYTE   N36  Gn3
 BYTE   W36
//  #02 //025   ----------------------------------------
 BYTE   PATT
  POIN2 Label_01F68EF1
//  #02 //026   ----------------------------------------
 BYTE   N12  Gn3  v120
 BYTE   W12
 BYTE   Fn3
 BYTE   W12
 BYTE   Gn3
 BYTE   W12
 BYTE   N21  An3
 BYTE   W24
 BYTE   N12  As3
 BYTE   W12
 BYTE   An3
 BYTE   W12
 BYTE   Gn3
 BYTE   W12
//  #02 //027   ----------------------------------------
 BYTE   PATT
  POIN2 Label_01F68F13
//  #02 //028   ----------------------------------------
 BYTE   PATT
  POIN2 Label_01F68F23
//  #02 //029   ----------------------------------------
 BYTE   PATT
  POIN2 Label_01F68F2E
//  #02 //030   ----------------------------------------
 BYTE   PATT
  POIN2 Label_01F68F3D
//  #02 //031   ----------------------------------------
 BYTE   N24  Fn3  v120
 BYTE   W24
 BYTE   N12  Dn3
 BYTE   W12
 BYTE   Fn3
 BYTE   W24
 BYTE   Gn3
 BYTE   W24
 BYTE   N21
 BYTE   W12
//  #02 //032   ----------------------------------------
 BYTE   W12
 BYTE   N09  Fn3
 BYTE   W12
 BYTE   N48
 BYTE   W72
//  #02 //033   ----------------------------------------
 BYTE   W24
 BYTE   N12  As3
 BYTE   W12
 BYTE   N12
 BYTE   W12
 BYTE   N24
 BYTE   W24
 BYTE   N12  An3
 BYTE   W12
 BYTE   N24  As3
 BYTE   W12
//  #02 //034   ----------------------------------------
 BYTE   W12
 BYTE   N12  Cn4
 BYTE   W12
 BYTE   N36
 BYTE   W48
 BYTE   N24  Gn3
 BYTE   W24
//  #02 //035   ----------------------------------------
 BYTE   Cn4
 BYTE   W24
 BYTE   As3
 BYTE   W24
 BYTE   An3
 BYTE   W24
 BYTE   N12  Cn4
 BYTE   W12
 BYTE   N24  An3
 BYTE   W12
//  #02 //036   ----------------------------------------
 BYTE   W12
 BYTE   N12  Gn3
 BYTE   W12
 BYTE   N24  Fn3
 BYTE   W36
 BYTE   N12  An3
 BYTE   W12
 BYTE   N12
 BYTE   W12
 BYTE   N24  As3
 BYTE   W12
//  #02 //037   ----------------------------------------
 BYTE   W12
 BYTE   N12  An3
 BYTE   W12
 BYTE   As3
 BYTE   W12
 BYTE   An3
 BYTE   W12
 BYTE   N24  Fn3
 BYTE   W36
 BYTE   As3
 BYTE   W12
//  #02 //038   ----------------------------------------
 BYTE   W12
 BYTE   N12  An3
 BYTE   W12
 BYTE   As3
 BYTE   W12
 BYTE   An3
 BYTE   W12
 BYTE   N24  Fn3
 BYTE   W48
//  #02 //039   ----------------------------------------
 BYTE   W24
 BYTE   Cs3
 BYTE   W24
 BYTE   N24
 BYTE   W24
 BYTE   Fn3
 BYTE   W24
//  #02 //040   ----------------------------------------
 BYTE   Gs3
 BYTE   W24
 BYTE   Gn3
 BYTE   W24
 BYTE   Gs3
 BYTE   W24
 BYTE   Cn4
 BYTE   W24
//  #02 //041   ----------------------------------------
 BYTE   N96  As3
 BYTE   W96
//  #02 //042   ----------------------------------------
 BYTE   W60
 BYTE   N12  Ds3  v127
 BYTE   W12
 BYTE   Fn3
 BYTE   W12
 BYTE   Gn3
 BYTE   W12
//  #02 //043   ----------------------------------------
Label_01F69002:
 BYTE   N24  Gs3  v127
 BYTE   W24
 BYTE   N21  Ds3
 BYTE   W24
 BYTE   N24  As3
 BYTE   W24
 BYTE   N12  Gs3
 BYTE   W12
 BYTE   N24  Gn3
 BYTE   W12
 BYTE   PEND 
//  #02 //044   ----------------------------------------
 BYTE   PATT
  POIN2 Label_01F68EA1
//  #02 //045   ----------------------------------------
 BYTE   PATT
  POIN2 Label_01F69002
//  #02 //046   ----------------------------------------
 BYTE   PATT
  POIN2 Label_01F68EB1
//  #02 //047   ----------------------------------------
 BYTE   PATT
  POIN2 Label_01F68EBE
//  #02 //048   ----------------------------------------
Label_01F69027:
 BYTE   N12  Cs4  v127
 BYTE   W12
 BYTE   N24  Cn4
 BYTE   W24
 BYTE   N36  Gs3
 BYTE   W48
 BYTE   N12
 BYTE   W12
 BYTE   PEND 
//  #02 //049   ----------------------------------------
 BYTE   N24  Cs4
 BYTE   W24
 BYTE   Cn4
 BYTE   W24
 BYTE   As3
 BYTE   W24
 BYTE   N21  Gs3
 BYTE   W24
//  #02 //050   ----------------------------------------
 BYTE   N24
 BYTE   W36
 BYTE   N09  As3
 BYTE   W12
 BYTE   N44
 BYTE   W48
//  #02 //051   ----------------------------------------
 BYTE   PATT
  POIN2 Label_01F69002
//  #02 //052   ----------------------------------------
 BYTE   PATT
  POIN2 Label_01F68EA1
//  #02 //053   ----------------------------------------
 BYTE   PATT
  POIN2 Label_01F69002
//  #02 //054   ----------------------------------------
 BYTE   PATT
  POIN2 Label_01F68EB1
//  #02 //055   ----------------------------------------
 BYTE   PATT
  POIN2 Label_01F69027
//  #02 //056   ----------------------------------------
 BYTE   N12  As3  v127
 BYTE   W12
 BYTE   N24  Gs3
 BYTE   W24
 BYTE   N36  Cn4
 BYTE   W48
 BYTE   N12  Fn3
 BYTE   W12
//  #02 //057   ----------------------------------------
 BYTE   N24
 BYTE   W24
 BYTE   N12  Cn4
 BYTE   W12
 BYTE   N72  Cs4
 BYTE   W60
//  #02 //058   ----------------------------------------
 BYTE   W36
 BYTE   N09
 BYTE   W12
 BYTE   N24  As3
 BYTE   W24
 BYTE   N12  Cn4
 BYTE   W12
 BYTE   TIE  Gs3
 BYTE   W12
//  #02 //059   ----------------------------------------
 BYTE   W96
//  #02 //060   ----------------------------------------
 BYTE   W96
//  #02 //061   ----------------------------------------
 BYTE   EOT
 BYTE   W96
//  #02 //062   ----------------------------------------
 BYTE   W96
//  #02 //063   ----------------------------------------
 BYTE   W96
//  #02 //064   ----------------------------------------
 BYTE   W96
//  #02 //065   ----------------------------------------
 BYTE   W96
//  #02 //066   ----------------------------------------
 BYTE   W96
//  #02 //067   ----------------------------------------
 BYTE   W96
//  #02 //068   ----------------------------------------
 BYTE   W96
//  #02 //069   ----------------------------------------
 BYTE   W44
 BYTE   GoTo
  POIN2 Label_01F68E88
 BYTE   FINE

//**************** Track 3 (Midi-Chn.2) ****************//

ShinySmilyStory_003:
//  #03 //000   ----------------------------------------
 BYTE   KEYSH   ShinySmilyStory_key+0
 BYTE   VOICE   80
 BYTE   MODT 0
 BYTE   LFOS 44
 BYTE   VOL   27*ShinySmilyStory_mvl/mxv
 BYTE   PAN   c_v+16
Label_01F69594:
 BYTE   W36
 BYTE   W96
//  #03 //001   ----------------------------------------
 BYTE   W96
//  #03 //002   ----------------------------------------
 BYTE   W96
//  #03 //003   ----------------------------------------
 BYTE   W96
//  #03 //004   ----------------------------------------
 BYTE   W96
//  #03 //005   ----------------------------------------
 BYTE   W96
//  #03 //006   ----------------------------------------
 BYTE   W96
//  #03 //007   ----------------------------------------
 BYTE   W96
//  #03 //008   ----------------------------------------
 BYTE   W96
//  #03 //009   ----------------------------------------
 BYTE   W96
//  #03 //010   ----------------------------------------
 BYTE   W96
//  #03 //011   ----------------------------------------
 BYTE   W96
//  #03 //012   ----------------------------------------
 BYTE   W96
//  #03 //013   ----------------------------------------
 BYTE   W96
//  #03 //014   ----------------------------------------
 BYTE   W96
//  #03 //015   ----------------------------------------
 BYTE   W96
//  #03 //016   ----------------------------------------
 BYTE   W96
//  #03 //017   ----------------------------------------
 BYTE   W96
//  #03 //018   ----------------------------------------
 BYTE   W96
//  #03 //019   ----------------------------------------
 BYTE   W96
//  #03 //020   ----------------------------------------
 BYTE   W96
//  #03 //021   ----------------------------------------
 BYTE   W96
//  #03 //022   ----------------------------------------
 BYTE   W96
//  #03 //023   ----------------------------------------
 BYTE   W96
//  #03 //024   ----------------------------------------
 BYTE   W96
//  #03 //025   ----------------------------------------
 BYTE   W96
//  #03 //026   ----------------------------------------
 BYTE   W96
//  #03 //027   ----------------------------------------
 BYTE   W96
//  #03 //028   ----------------------------------------
 BYTE   W96
//  #03 //029   ----------------------------------------
 BYTE   W96
//  #03 //030   ----------------------------------------
 BYTE   W84
 BYTE   N09  An3  v120
 BYTE   W12
//  #03 //031   ----------------------------------------
 BYTE   N24  As3
 BYTE   W24
 BYTE   N12  Fn3
 BYTE   W12
 BYTE   As3
 BYTE   W24
 BYTE   N12
 BYTE   W24
 BYTE   N21
 BYTE   W12
//  #03 //032   ----------------------------------------
 BYTE   W12
 BYTE   N09  An3
 BYTE   W12
 BYTE   N48
 BYTE   W72
//  #03 //033   ----------------------------------------
 BYTE   W96
//  #03 //034   ----------------------------------------
 BYTE   W96
//  #03 //035   ----------------------------------------
 BYTE   W96
//  #03 //036   ----------------------------------------
 BYTE   W60
 BYTE   N12  Cn4
 BYTE   W12
 BYTE   N12
 BYTE   W12
 BYTE   N24  Dn4
 BYTE   W12
//  #03 //037   ----------------------------------------
 BYTE   W12
 BYTE   N12  Cn4
 BYTE   W12
 BYTE   Dn4
 BYTE   W12
 BYTE   Cn4
 BYTE   W12
 BYTE   N24  An3
 BYTE   W36
 BYTE   Dn4
 BYTE   W12
//  #03 //038   ----------------------------------------
 BYTE   W12
 BYTE   N12  Cn4
 BYTE   W12
 BYTE   Dn4
 BYTE   W12
 BYTE   Cn4
 BYTE   W12
 BYTE   N24  An3
 BYTE   W48
//  #03 //039   ----------------------------------------
 BYTE   W24
 BYTE   As2
 BYTE   W24
 BYTE   N24
 BYTE   W24
 BYTE   Cs3
 BYTE   W24
//  #03 //040   ----------------------------------------
 BYTE   Ds3
 BYTE   W24
 BYTE   Cs3
 BYTE   W24
 BYTE   Ds3
 BYTE   W24
 BYTE   Gs3
 BYTE   W24
//  #03 //041   ----------------------------------------
 BYTE   N96  Ds3
 BYTE   N96  Cs4
 BYTE   W96
//  #03 //042   ----------------------------------------
 BYTE   W60
 BYTE   N12  Cn3  v088
 BYTE   W12
 BYTE   Dn3
 BYTE   W12
 BYTE   Ds3
 BYTE   W12
//  #03 //043   ----------------------------------------
Label_01F6960B:
 BYTE   N24  Ds3  v088
 BYTE   W24
 BYTE   N21  Cn3
 BYTE   W24
 BYTE   N24  Fn3
 BYTE   W24
 BYTE   N12  Ds3
 BYTE   W12
 BYTE   N24
 BYTE   W12
 BYTE   PEND 
//  #03 //044   ----------------------------------------
Label_01F6961B:
 BYTE   W12
 BYTE   N12  Ds3  v088
 BYTE   W12
 BYTE   Fn3
 BYTE   W12
 BYTE   N48  Gn3
 BYTE   W60
 BYTE   PEND 
//  #03 //045   ----------------------------------------
 BYTE   PATT
  POIN2 Label_01F6960B
//  #03 //046   ----------------------------------------
Label_01F6962B:
 BYTE   W12
 BYTE   N12  Ds3  v088
 BYTE   W12
 BYTE   Fn3
 BYTE   W12
 BYTE   N36  Gn3
 BYTE   W48
 BYTE   N12
 BYTE   W12
 BYTE   PEND 
//  #03 //047   ----------------------------------------
 BYTE   Gs3
 BYTE   W12
 BYTE   N24  Gn3
 BYTE   W24
 BYTE   N36  Ds3
 BYTE   W48
 BYTE   N12  Gn3
 BYTE   W12
//  #03 //048   ----------------------------------------
Label_01F69643:
 BYTE   N12  Gs3  v088
 BYTE   W12
 BYTE   N24  Gn3
 BYTE   W24
 BYTE   N36  Ds3
 BYTE   W48
 BYTE   N12
 BYTE   W12
 BYTE   PEND 
//  #03 //049   ----------------------------------------
 BYTE   N24  Gs3
 BYTE   W24
 BYTE   Gn3
 BYTE   W24
 BYTE   Fn3
 BYTE   W24
 BYTE   N21  Ds3
 BYTE   W24
//  #03 //050   ----------------------------------------
 BYTE   N24
 BYTE   W36
 BYTE   N09  Gn3
 BYTE   W12
 BYTE   N48
 BYTE   W48
//  #03 //051   ----------------------------------------
 BYTE   PATT
  POIN2 Label_01F6960B
//  #03 //052   ----------------------------------------
 BYTE   PATT
  POIN2 Label_01F6961B
//  #03 //053   ----------------------------------------
 BYTE   PATT
  POIN2 Label_01F6960B
//  #03 //054   ----------------------------------------
 BYTE   PATT
  POIN2 Label_01F6962B
//  #03 //055   ----------------------------------------
 BYTE   PATT
  POIN2 Label_01F69643
//  #03 //056   ----------------------------------------
 BYTE   N12  Fn3  v088
 BYTE   W12
 BYTE   N24  Ds3
 BYTE   W24
 BYTE   N36  Gn3
 BYTE   W48
 BYTE   N12  Cs3
 BYTE   W12
//  #03 //057   ----------------------------------------
 BYTE   N24
 BYTE   W24
 BYTE   N12  Gs3
 BYTE   W12
 BYTE   N72
 BYTE   W60
//  #03 //058   ----------------------------------------
 BYTE   W36
 BYTE   N12
 BYTE   W12
 BYTE   N24  Fn3
 BYTE   W24
 BYTE   N12
 BYTE   W12
 BYTE   TIE  Ds3
 BYTE   W12
//  #03 //059   ----------------------------------------
 BYTE   W96
//  #03 //060   ----------------------------------------
 BYTE   W96
//  #03 //061   ----------------------------------------
 BYTE   EOT
 BYTE   W96
//  #03 //062   ----------------------------------------
 BYTE   W96
//  #03 //063   ----------------------------------------
 BYTE   W96
//  #03 //064   ----------------------------------------
 BYTE   W96
//  #03 //065   ----------------------------------------
 BYTE   W96
//  #03 //066   ----------------------------------------
 BYTE   W96
//  #03 //067   ----------------------------------------
 BYTE   W96
//  #03 //068   ----------------------------------------
 BYTE   W96
//  #03 //069   ----------------------------------------
 BYTE   W44
 BYTE   GoTo
  POIN2 Label_01F69594
 BYTE   FINE

//**************** Track 4 (Midi-Chn.3) ****************//

ShinySmilyStory_004:
//  #04 //000   ----------------------------------------
 BYTE   KEYSH   ShinySmilyStory_key+0
 BYTE   VOICE   28
 BYTE   MODT 0
 BYTE   LFOS 44
 BYTE   VOL   38*ShinySmilyStory_mvl/mxv
 BYTE   PAN   c_v-32
Label_01F67DEC:
 BYTE   W36
 BYTE   N36  As3  v088
 BYTE   W36
 BYTE   Gs3
 BYTE   W36
//  #04 //001   ----------------------------------------
 BYTE   N24  Ds4
 BYTE   W24
 BYTE   N36  Gn3
 BYTE   W36
 BYTE   Ds4
 BYTE   W36
//  #04 //002   ----------------------------------------
 BYTE   N24  As3
 BYTE   W24
 BYTE   N36  Gs3
 BYTE   W36
 BYTE   Ds4
 BYTE   W36
//  #04 //003   ----------------------------------------
 BYTE   N24  As3
 BYTE   W24
 BYTE   Gs3
 BYTE   W24
 BYTE   N12  As3
 BYTE   W12
 BYTE   N24  Ds4
 BYTE   W60
//  #04 //004   ----------------------------------------
 BYTE   N96  Cs3
 BYTE   W96
//  #04 //005   ----------------------------------------
 BYTE   Cn3
 BYTE   W96
//  #04 //006   ----------------------------------------
 BYTE   As2
 BYTE   W96
//  #04 //007   ----------------------------------------
 BYTE   W96
//  #04 //008   ----------------------------------------
 BYTE   W96
//  #04 //009   ----------------------------------------
 BYTE   W96
//  #04 //010   ----------------------------------------
 BYTE   W96
//  #04 //011   ----------------------------------------
 BYTE   W96
//  #04 //012   ----------------------------------------
 BYTE   W96
//  #04 //013   ----------------------------------------
 BYTE   W96
//  #04 //014   ----------------------------------------
 BYTE   W96
//  #04 //015   ----------------------------------------
 BYTE   W96
//  #04 //016   ----------------------------------------
 BYTE   W96
//  #04 //017   ----------------------------------------
 BYTE   N12  Fn2
 BYTE   W12
 BYTE   N12
 BYTE   W12
 BYTE   N12
 BYTE   W12
 BYTE   N12
 BYTE   W12
 BYTE   N12
 BYTE   W12
 BYTE   N12
 BYTE   W12
 BYTE   N12
 BYTE   W12
 BYTE   N12
 BYTE   W12
//  #04 //018   ----------------------------------------
 BYTE   En2
 BYTE   W12
 BYTE   N12
 BYTE   W12
 BYTE   N12
 BYTE   W12
 BYTE   N12
 BYTE   W12
 BYTE   N12
 BYTE   W12
 BYTE   N12
 BYTE   W12
 BYTE   N12
 BYTE   W12
 BYTE   N12
 BYTE   W12
//  #04 //019   ----------------------------------------
 BYTE   Dn2
 BYTE   W12
 BYTE   N12
 BYTE   W12
 BYTE   N12
 BYTE   W12
 BYTE   N12
 BYTE   W12
 BYTE   N12
 BYTE   W12
 BYTE   N12
 BYTE   W12
 BYTE   N12
 BYTE   W12
 BYTE   N12
 BYTE   W12
//  #04 //020   ----------------------------------------
 BYTE   Cn2
 BYTE   W12
 BYTE   N12
 BYTE   W12
 BYTE   N12
 BYTE   W12
 BYTE   N12
 BYTE   W12
 BYTE   N12
 BYTE   W12
 BYTE   N12
 BYTE   W12
 BYTE   N12
 BYTE   W12
 BYTE   N12
 BYTE   W12
//  #04 //021   ----------------------------------------
 BYTE   As1
 BYTE   W12
 BYTE   N12
 BYTE   W12
 BYTE   N12
 BYTE   W12
 BYTE   N12
 BYTE   W12
 BYTE   N12
 BYTE   W12
 BYTE   N12
 BYTE   W12
 BYTE   N12
 BYTE   W12
 BYTE   N12
 BYTE   W12
//  #04 //022   ----------------------------------------
 BYTE   An1
 BYTE   W12
 BYTE   N12
 BYTE   W12
 BYTE   N12
 BYTE   W12
 BYTE   N12
 BYTE   W12
 BYTE   N12
 BYTE   W12
 BYTE   N12
 BYTE   W12
 BYTE   N12
 BYTE   W12
 BYTE   N12
 BYTE   W12
//  #04 //023   ----------------------------------------
 BYTE   N24  As2
 BYTE   W24
 BYTE   N24
 BYTE   W24
 BYTE   N24
 BYTE   W24
 BYTE   N24
 BYTE   W24
//  #04 //024   ----------------------------------------
 BYTE   N12  Cn3
 BYTE   W12
 BYTE   N18
 BYTE   W24
 BYTE   N18
 BYTE   W24
 BYTE   N30
 BYTE   W36
//  #04 //025   ----------------------------------------
 BYTE   N96  An2
 BYTE   W96
//  #04 //026   ----------------------------------------
 BYTE   N36  Gn2
 BYTE   W36
 BYTE   N36
 BYTE   W36
 BYTE   N24
 BYTE   W24
//  #04 //027   ----------------------------------------
 BYTE   N96  Dn2
 BYTE   W96
//  #04 //028   ----------------------------------------
 BYTE   N12  Cn2
 BYTE   W12
 BYTE   N12
 BYTE   W24
 BYTE   N24
 BYTE   W24
 BYTE   N12
 BYTE   W12
 BYTE   N12
 BYTE   W12
 BYTE   N12
 BYTE   W12
//  #04 //029   ----------------------------------------
 BYTE   N42  As1
 BYTE   W48
 BYTE   N48
 BYTE   W48
//  #04 //030   ----------------------------------------
 BYTE   N42  An1
 BYTE   W48
 BYTE   N48
 BYTE   W48
//  #04 //031   ----------------------------------------
 BYTE   N24
 BYTE   W36
 BYTE   N12  Gn2
 BYTE   W24
 BYTE   N12
 BYTE   W24
 BYTE   N24  Fn2
 BYTE   W12
//  #04 //032   ----------------------------------------
 BYTE   W12
 BYTE   N12  Cn3
 BYTE   W12
 BYTE   Fn3
 BYTE   W12
 BYTE   Gn3
 BYTE   W12
 BYTE   An3
 BYTE   W12
 BYTE   Gn3
 BYTE   W12
 BYTE   An3
 BYTE   W12
 BYTE   Gn3
 BYTE   W12
//  #04 //033   ----------------------------------------
 BYTE   N36  As2
 BYTE   W36
 BYTE   N06
 BYTE   W12
 BYTE   N36
 BYTE   W36
 BYTE   N12  Cn3
 BYTE   W12
//  #04 //034   ----------------------------------------
 BYTE   W12
 BYTE   N12
 BYTE   W24
 BYTE   N12
 BYTE   W12
 BYTE   N48
 BYTE   W48
//  #04 //035   ----------------------------------------
 BYTE   N84
 BYTE   W84
 BYTE   N12  Dn3
 BYTE   W12
//  #04 //036   ----------------------------------------
 BYTE   W12
 BYTE   N12
 BYTE   W24
 BYTE   N12
 BYTE   W12
 BYTE   N36
 BYTE   W36
 BYTE   N24  As2
 BYTE   W12
//  #04 //037   ----------------------------------------
 BYTE   W12
 BYTE   N12
 BYTE   W12
 BYTE   N12
 BYTE   W12
 BYTE   N12
 BYTE   W12
 BYTE   N18  An2
 BYTE   W36
 BYTE   N24  As2
 BYTE   W12
//  #04 //038   ----------------------------------------
 BYTE   W12
 BYTE   N12
 BYTE   W12
 BYTE   N12
 BYTE   W12
 BYTE   N12
 BYTE   W12
 BYTE   N18  Cn3
 BYTE   W36
 BYTE   N60  Cs3
 BYTE   W12
//  #04 //039   ----------------------------------------
 BYTE   W48
 BYTE   N48
 BYTE   W48
//  #04 //040   ----------------------------------------
 BYTE   N48
 BYTE   W48
 BYTE   N48
 BYTE   W48
//  #04 //041   ----------------------------------------
 BYTE   W12
 BYTE   N09  As3
 BYTE   W12
 BYTE   N09
 BYTE   W24
 BYTE   N09
 BYTE   W12
 BYTE   N09
 BYTE   W24
 BYTE   N09
 BYTE   W12
//  #04 //042   ----------------------------------------
 BYTE   W24
 BYTE   N72  Gn3
 BYTE   W72
//  #04 //043   ----------------------------------------
Label_01F67F21:
 BYTE   N24  Gs2  v088
 BYTE   W24
 BYTE   N12
 BYTE   W12
 BYTE   N24
 BYTE   W24
 BYTE   N12
 BYTE   W12
 BYTE   N24
 BYTE   W24
 BYTE   PEND 
//  #04 //044   ----------------------------------------
Label_01F67F2E:
 BYTE   N24  Gn2  v088
 BYTE   W24
 BYTE   N12
 BYTE   W12
 BYTE   N24
 BYTE   W24
 BYTE   N12
 BYTE   W12
 BYTE   N24
 BYTE   W24
 BYTE   PEND 
//  #04 //045   ----------------------------------------
Label_01F67F3B:
 BYTE   N24  Fn2  v088
 BYTE   W24
 BYTE   N12
 BYTE   W12
 BYTE   N24
 BYTE   W24
 BYTE   N12
 BYTE   W12
 BYTE   N24
 BYTE   W24
 BYTE   PEND 
//  #04 //046   ----------------------------------------
Label_01F67F48:
 BYTE   N24  Ds2  v088
 BYTE   W24
 BYTE   N12
 BYTE   W12
 BYTE   N24
 BYTE   W24
 BYTE   N12
 BYTE   W12
 BYTE   N24
 BYTE   W24
 BYTE   PEND 
//  #04 //047   ----------------------------------------
Label_01F67F55:
 BYTE   N24  Cs3  v088
 BYTE   W24
 BYTE   N12
 BYTE   W12
 BYTE   N24
 BYTE   W24
 BYTE   N12
 BYTE   W12
 BYTE   N24
 BYTE   W24
 BYTE   PEND 
//  #04 //048   ----------------------------------------
Label_01F67F62:
 BYTE   N24  Cn3  v088
 BYTE   W24
 BYTE   N12
 BYTE   W12
 BYTE   N24
 BYTE   W24
 BYTE   N12
 BYTE   W12
 BYTE   N24
 BYTE   W24
 BYTE   PEND 
//  #04 //049   ----------------------------------------
 BYTE   As2
 BYTE   W24
 BYTE   Cn3
 BYTE   W24
 BYTE   Cs3
 BYTE   W24
 BYTE   Gs2
 BYTE   W24
//  #04 //050   ----------------------------------------
 BYTE   W24
 BYTE   En3
 BYTE   W36
 BYTE   N06  Ds3
 BYTE   W24
 BYTE   N06
 BYTE   W12
//  #04 //051   ----------------------------------------
 BYTE   PATT
  POIN2 Label_01F67F21
//  #04 //052   ----------------------------------------
 BYTE   PATT
  POIN2 Label_01F67F2E
//  #04 //053   ----------------------------------------
 BYTE   PATT
  POIN2 Label_01F67F3B
//  #04 //054   ----------------------------------------
 BYTE   PATT
  POIN2 Label_01F67F48
//  #04 //055   ----------------------------------------
 BYTE   PATT
  POIN2 Label_01F67F55
//  #04 //056   ----------------------------------------
 BYTE   PATT
  POIN2 Label_01F67F62
//  #04 //057   ----------------------------------------
 BYTE   W96
//  #04 //058   ----------------------------------------
 BYTE   W96
//  #04 //059   ----------------------------------------
 BYTE   W96
//  #04 //060   ----------------------------------------
 BYTE   W96
//  #04 //061   ----------------------------------------
 BYTE   W96
//  #04 //062   ----------------------------------------
 BYTE   W96
//  #04 //063   ----------------------------------------
 BYTE   W96
//  #04 //064   ----------------------------------------
 BYTE   W96
//  #04 //065   ----------------------------------------
 BYTE   W96
//  #04 //066   ----------------------------------------
 BYTE   W96
//  #04 //067   ----------------------------------------
 BYTE   W96
//  #04 //068   ----------------------------------------
 BYTE   W96
//  #04 //069   ----------------------------------------
 BYTE   W44
 BYTE   GoTo
  POIN2 Label_01F67DEC
 BYTE   FINE

//**************** Track 5 (Midi-Chn.4) ****************//

ShinySmilyStory_005:
//  #05 //000   ----------------------------------------
 BYTE   KEYSH   ShinySmilyStory_key+0
 BYTE   VOICE   28
 BYTE   MODT 0
 BYTE   LFOS 44
 BYTE   VOL   32*ShinySmilyStory_mvl/mxv
 BYTE   PAN   c_v+26
Label_01F67FC0:
 BYTE   W36
 BYTE   N09  Ds3  v088
 BYTE   W12
 BYTE   Cs4
 BYTE   W12
 BYTE   Ds3
 BYTE   W12
 BYTE   Cs4
 BYTE   W12
 BYTE   Ds3
 BYTE   W12
//  #05 //001   ----------------------------------------
 BYTE   N09
 BYTE   W12
 BYTE   Cs4
 BYTE   W12
 BYTE   Ds3
 BYTE   W12
 BYTE   Cs4
 BYTE   W12
 BYTE   Ds3
 BYTE   W12
 BYTE   N09
 BYTE   W12
 BYTE   N09
 BYTE   W12
 BYTE   N09
 BYTE   W12
//  #05 //002   ----------------------------------------
 BYTE   Cs4
 BYTE   W12
 BYTE   Ds3
 BYTE   W12
 BYTE   Cs4
 BYTE   W12
 BYTE   Ds3
 BYTE   W12
 BYTE   Cs4
 BYTE   W12
 BYTE   Ds3
 BYTE   W12
 BYTE   N09
 BYTE   W12
 BYTE   Cs4
 BYTE   W12
//  #05 //003   ----------------------------------------
 BYTE   Ds3
 BYTE   W12
 BYTE   Cs4
 BYTE   W12
 BYTE   Ds3
 BYTE   W12
 BYTE   N09
 BYTE   W12
 BYTE   Cs4
 BYTE   W12
 BYTE   Ds3
 BYTE   W12
 BYTE   Cs4
 BYTE   W60
//  #05 //004   ----------------------------------------
 BYTE   N36  Gs3
 BYTE   W36
 BYTE   N60  Cs4
 BYTE   W60
//  #05 //005   ----------------------------------------
 BYTE   N36  Gs3
 BYTE   W36
 BYTE   N24  Cn4
 BYTE   W24
 BYTE   N12  As3
 BYTE   W12
 BYTE   N24  Gs3
 BYTE   W24
//  #05 //006   ----------------------------------------
 BYTE   N96
 BYTE   W96
//  #05 //007   ----------------------------------------
 BYTE   W12
 BYTE   N12  As3
 BYTE   W36
 BYTE   N06
 BYTE   W12
 BYTE   N24
 BYTE   W36
//  #05 //008   ----------------------------------------
Label_01F68017:
 BYTE   N18  Gs3  v088
 BYTE   W24
 BYTE   N06
 BYTE   W12
 BYTE   N24
 BYTE   W24
 BYTE   N09
 BYTE   W12
 BYTE   N09
 BYTE   W12
 BYTE   N09
 BYTE   W12
 BYTE   PEND 
//  #05 //009   ----------------------------------------
 BYTE   N18  Gn3
 BYTE   W24
 BYTE   N06
 BYTE   W12
 BYTE   N24
 BYTE   W24
 BYTE   N09
 BYTE   W12
 BYTE   N09
 BYTE   W12
 BYTE   N09
 BYTE   W12
//  #05 //010   ----------------------------------------
 BYTE   PATT
  POIN2 Label_01F68017
//  #05 //011   ----------------------------------------
 BYTE   N18  Gs3  v088
 BYTE   W24
 BYTE   N06
 BYTE   W12
 BYTE   N36  Ds4
 BYTE   W36
 BYTE   N24  As3
 BYTE   W24
//  #05 //012   ----------------------------------------
 BYTE   PATT
  POIN2 Label_01F68017
//  #05 //013   ----------------------------------------
 BYTE   PATT
  POIN2 Label_01F68017
//  #05 //014   ----------------------------------------
 BYTE   N24  Cs4  v088
 BYTE   W24
 BYTE   Cn4
 BYTE   W24
 BYTE   Cs4
 BYTE   W24
 BYTE   Fn4
 BYTE   W24
//  #05 //015   ----------------------------------------
 BYTE   N12  Ds4
 BYTE   W12
 BYTE   N12
 BYTE   W24
 BYTE   N36
 BYTE   W60
//  #05 //016   ----------------------------------------
 BYTE   N12  Cn4
 BYTE   W12
 BYTE   N12
 BYTE   W24
 BYTE   N36
 BYTE   W60
//  #05 //017   ----------------------------------------
 BYTE   N12  Fn2
 BYTE   W12
 BYTE   N12
 BYTE   W12
 BYTE   Fn3
 BYTE   W12
 BYTE   Fn2
 BYTE   W12
 BYTE   N12
 BYTE   W12
 BYTE   Fn3
 BYTE   W12
 BYTE   Fn2
 BYTE   W12
 BYTE   Fn3
 BYTE   W12
//  #05 //018   ----------------------------------------
 BYTE   En2
 BYTE   W12
 BYTE   N12
 BYTE   W12
 BYTE   En3
 BYTE   W12
 BYTE   En2
 BYTE   W12
 BYTE   N12
 BYTE   W12
 BYTE   En3
 BYTE   W12
 BYTE   En2
 BYTE   W12
 BYTE   En3
 BYTE   W12
//  #05 //019   ----------------------------------------
 BYTE   Dn2
 BYTE   W12
 BYTE   N12
 BYTE   W12
 BYTE   Fn3
 BYTE   W12
 BYTE   Dn2
 BYTE   W12
 BYTE   N12
 BYTE   W12
 BYTE   Fn3
 BYTE   W12
 BYTE   Dn2
 BYTE   W12
 BYTE   Fn3
 BYTE   W12
//  #05 //020   ----------------------------------------
 BYTE   Cn2
 BYTE   W12
 BYTE   N12
 BYTE   W12
 BYTE   Fn3
 BYTE   W12
 BYTE   Cn2
 BYTE   W12
 BYTE   N12
 BYTE   W12
 BYTE   Fn3
 BYTE   W12
 BYTE   Cn2
 BYTE   W12
 BYTE   Fn3
 BYTE   W12
//  #05 //021   ----------------------------------------
 BYTE   As1
 BYTE   W12
 BYTE   N12
 BYTE   W12
 BYTE   Fn3
 BYTE   W12
 BYTE   As1
 BYTE   W12
 BYTE   N12
 BYTE   W12
 BYTE   Fn3
 BYTE   W12
 BYTE   As1
 BYTE   W12
 BYTE   Fn3
 BYTE   W12
//  #05 //022   ----------------------------------------
 BYTE   An1
 BYTE   W12
 BYTE   N12
 BYTE   W12
 BYTE   Fn3
 BYTE   W12
 BYTE   An1
 BYTE   W12
 BYTE   N12
 BYTE   W12
 BYTE   Fn3
 BYTE   W12
 BYTE   An1
 BYTE   W12
 BYTE   Fn3
 BYTE   W12
//  #05 //023   ----------------------------------------
 BYTE   N24
 BYTE   W24
 BYTE   Cs3
 BYTE   W24
 BYTE   Fn3
 BYTE   W24
 BYTE   Gn3
 BYTE   W24
//  #05 //024   ----------------------------------------
 BYTE   N12  Gs3
 BYTE   W12
 BYTE   N18
 BYTE   W24
 BYTE   N18
 BYTE   W24
 BYTE   N30  Gn3
 BYTE   W36
//  #05 //025   ----------------------------------------
 BYTE   N12  Cn2
 BYTE   W12
 BYTE   Fn2
 BYTE   W12
 BYTE   Cn3
 BYTE   W12
 BYTE   N36  An3
 BYTE   W36
 BYTE   N24  Fn3
 BYTE   W24
//  #05 //026   ----------------------------------------
 BYTE   N12  Cn3
 BYTE   W12
 BYTE   En3
 BYTE   W12
 BYTE   An3
 BYTE   W12
 BYTE   N24  Cn4
 BYTE   W24
 BYTE   N12  An3
 BYTE   W12
 BYTE   En3
 BYTE   W12
 BYTE   Cn3
 BYTE   W12
//  #05 //027   ----------------------------------------
 BYTE   Dn3
 BYTE   W12
 BYTE   Fn3
 BYTE   W12
 BYTE   An3
 BYTE   W12
 BYTE   N36  Fn4
 BYTE   W36
 BYTE   N12  Dn4
 BYTE   W12
 BYTE   Cn4
 BYTE   W12
//  #05 //028   ----------------------------------------
 BYTE   Cn3
 BYTE   W12
 BYTE   Fn3
 BYTE   W12
 BYTE   An3
 BYTE   W12
 BYTE   N24  Fn4
 BYTE   W24
 BYTE   N12  Dn4
 BYTE   W12
 BYTE   An3
 BYTE   W12
 BYTE   Fn3
 BYTE   W12
//  #05 //029   ----------------------------------------
 BYTE   As2
 BYTE   W12
 BYTE   Dn3
 BYTE   W12
 BYTE   Fn3
 BYTE   W12
 BYTE   N24  As3
 BYTE   W24
 BYTE   N12  Fn3
 BYTE   W12
 BYTE   N24  Dn3
 BYTE   W24
//  #05 //030   ----------------------------------------
 BYTE   N12  An2
 BYTE   W12
 BYTE   Cn3
 BYTE   W12
 BYTE   Fn3
 BYTE   W12
 BYTE   N24  An3
 BYTE   W24
 BYTE   N12  Fn3
 BYTE   W12
 BYTE   Cn3
 BYTE   W12
 BYTE   An2
 BYTE   W12
//  #05 //031   ----------------------------------------
 BYTE   N24  Gn3
 BYTE   W36
 BYTE   N12
 BYTE   W24
 BYTE   N12
 BYTE   W24
 BYTE   N48  Fn3
 BYTE   W12
//  #05 //032   ----------------------------------------
 BYTE   W36
 BYTE   N12
 BYTE   W12
 BYTE   Dn3
 BYTE   W12
 BYTE   Cn3
 BYTE   W12
 BYTE   As2
 BYTE   W12
 BYTE   Gn2
 BYTE   W12
//  #05 //033   ----------------------------------------
 BYTE   N24  As2
 BYTE   W24
 BYTE   Dn3
 BYTE   W24
 BYTE   As3
 BYTE   W24
 BYTE   Fn3
 BYTE   W24
//  #05 //034   ----------------------------------------
 BYTE   Cn3
 BYTE   W24
 BYTE   En3
 BYTE   W24
 BYTE   Cn4
 BYTE   W24
 BYTE   Gn3
 BYTE   W24
//  #05 //035   ----------------------------------------
 BYTE   Cn3
 BYTE   W24
 BYTE   Cn4
 BYTE   W24
 BYTE   An3
 BYTE   W24
 BYTE   En3
 BYTE   W24
//  #05 //036   ----------------------------------------
 BYTE   N36  Dn3
 BYTE   W36
 BYTE   N12  Cn4
 BYTE   W12
 BYTE   An3
 BYTE   W12
 BYTE   Fn3
 BYTE   W12
 BYTE   Dn3
 BYTE   W12
 BYTE   N24  Gn2
 BYTE   N24  As2
 BYTE   W12
//  #05 //037   ----------------------------------------
 BYTE   W12
 BYTE   N12  Gn2
 BYTE   N12  As2
 BYTE   W12
 BYTE   Gn2
 BYTE   N12  As2
 BYTE   W12
 BYTE   Gn2
 BYTE   N12  As2
 BYTE   W12
 BYTE   N18  An2
 BYTE   W24
 BYTE   N06  Gn2
 BYTE   W06
 BYTE   An2
 BYTE   W06
 BYTE   N24  Fn2
 BYTE   N24  As2
 BYTE   W12
//  #05 //038   ----------------------------------------
 BYTE   W12
 BYTE   N12  Fn2
 BYTE   N12  As2
 BYTE   W12
 BYTE   Fn2
 BYTE   N12  As2
 BYTE   W12
 BYTE   Fn2
 BYTE   N12  As2
 BYTE   W12
 BYTE   N18  Cn3
 BYTE   W36
 BYTE   TIE  Cs3
 BYTE   W12
//  #05 //039   ----------------------------------------
 BYTE   W24
 BYTE   Cs4
 BYTE   W72
//  #05 //040   ----------------------------------------
 BYTE   W36
 BYTE   EOT
 BYTE   N12  Fn4
 BYTE   W12
 BYTE   Ds4
 BYTE   W12
 BYTE   Cs4
 BYTE   W12
 BYTE   Gs3
 BYTE   W12
 BYTE   Fn3
 BYTE   W12
//  #05 //041   ----------------------------------------
 BYTE   EOT
 BYTE   Cs3
 BYTE   W96
//  #05 //042   ----------------------------------------
 BYTE   W96
//  #05 //043   ----------------------------------------
Label_01F681B7:
 BYTE   N21  Gs2  v088
 BYTE   W24
 BYTE   N09
 BYTE   W12
 BYTE   N21
 BYTE   W24
 BYTE   N09
 BYTE   W12
 BYTE   N09
 BYTE   W12
 BYTE   N09
 BYTE   W12
 BYTE   PEND 
//  #05 //044   ----------------------------------------
Label_01F681C6:
 BYTE   N21  Gn2  v088
 BYTE   W24
 BYTE   N09
 BYTE   W12
 BYTE   N21
 BYTE   W24
 BYTE   N09
 BYTE   W12
 BYTE   N09
 BYTE   W12
 BYTE   N09
 BYTE   W12
 BYTE   PEND 
//  #05 //045   ----------------------------------------
 BYTE   PATT
  POIN2 Label_01F681B7
//  #05 //046   ----------------------------------------
Label_01F681DA:
 BYTE   N09  Gs2  v088
 BYTE   W12
 BYTE   N09
 BYTE   W12
 BYTE   N09
 BYTE   W12
 BYTE   N21
 BYTE   W24
 BYTE   N09
 BYTE   W12
 BYTE   N09
 BYTE   W12
 BYTE   N09
 BYTE   W12
 BYTE   PEND 
//  #05 //047   ----------------------------------------
Label_01F681EB:
 BYTE   N21  Fn2  v088
 BYTE   W24
 BYTE   N09
 BYTE   W12
 BYTE   N21
 BYTE   W24
 BYTE   N09
 BYTE   W12
 BYTE   N09
 BYTE   W12
 BYTE   N09
 BYTE   W12
 BYTE   PEND 
//  #05 //048   ----------------------------------------
Label_01F681FA:
 BYTE   N21  Ds2  v088
 BYTE   W24
 BYTE   N09
 BYTE   W12
 BYTE   N21
 BYTE   W24
 BYTE   N09
 BYTE   W12
 BYTE   N09
 BYTE   W12
 BYTE   N09
 BYTE   W12
 BYTE   PEND 
//  #05 //049   ----------------------------------------
 BYTE   N24  Cs3
 BYTE   W24
 BYTE   Cn3
 BYTE   W24
 BYTE   As2
 BYTE   W24
 BYTE   Gs2
 BYTE   W24
//  #05 //050   ----------------------------------------
 BYTE   W12
 BYTE   N06  Bn2
 BYTE   W12
 BYTE   N24
 BYTE   W24
 BYTE   N12  As2
 BYTE   W12
 BYTE   N12
 BYTE   W12
 BYTE   N12
 BYTE   W12
 BYTE   N12
 BYTE   W12
//  #05 //051   ----------------------------------------
 BYTE   PATT
  POIN2 Label_01F681B7
//  #05 //052   ----------------------------------------
 BYTE   PATT
  POIN2 Label_01F681C6
//  #05 //053   ----------------------------------------
 BYTE   PATT
  POIN2 Label_01F681B7
//  #05 //054   ----------------------------------------
 BYTE   PATT
  POIN2 Label_01F681DA
//  #05 //055   ----------------------------------------
 BYTE   PATT
  POIN2 Label_01F681EB
//  #05 //056   ----------------------------------------
 BYTE   PATT
  POIN2 Label_01F681FA
//  #05 //057   ----------------------------------------
 BYTE   N21  As2  v088
 BYTE   W24
 BYTE   N09
 BYTE   W12
 BYTE   N21
 BYTE   W24
 BYTE   N09
 BYTE   W12
 BYTE   N09
 BYTE   W12
 BYTE   N09
 BYTE   W12
//  #05 //058   ----------------------------------------
 BYTE   W12
 BYTE   N12  Ds3
 BYTE   W36
 BYTE   N06
 BYTE   W12
 BYTE   N24
 BYTE   W36
//  #05 //059   ----------------------------------------
Label_01F68255:
 BYTE   N36  Fn3  v088
 BYTE   W36
 BYTE   Ds3
 BYTE   W36
 BYTE   Cs3
 BYTE   W24
 BYTE   PEND 
//  #05 //060   ----------------------------------------
Label_01F6825E:
 BYTE   W12
 BYTE   N36  Cn3  v088
 BYTE   W36
 BYTE   N24  As2
 BYTE   W24
 BYTE   Cn3
 BYTE   W24
 BYTE   PEND 
//  #05 //061   ----------------------------------------
 BYTE   PATT
  POIN2 Label_01F68255
//  #05 //062   ----------------------------------------
 BYTE   W12
 BYTE   N36  Ds3  v088
 BYTE   W36
 BYTE   N24  Fn3
 BYTE   W24
 BYTE   Gn3
 BYTE   W24
//  #05 //063   ----------------------------------------
 BYTE   PATT
  POIN2 Label_01F68255
//  #05 //064   ----------------------------------------
 BYTE   PATT
  POIN2 Label_01F6825E
//  #05 //065   ----------------------------------------
 BYTE   N36  Cs3  v088
 BYTE   W36
 BYTE   Ds3
 BYTE   W36
 BYTE   Gs3
 BYTE   W24
//  #05 //066   ----------------------------------------
 BYTE   W12
 BYTE   As3
 BYTE   W36
 BYTE   Ds4
 BYTE   W36
 BYTE   TIE
 BYTE   W12
//  #05 //067   ----------------------------------------
 BYTE   W96
//  #05 //068   ----------------------------------------
 BYTE   W96
//  #05 //069   ----------------------------------------
 BYTE   EOT
 BYTE   W44
 BYTE   GoTo
  POIN2 Label_01F67FC0
 BYTE   FINE

//**************** Track 6 (Midi-Chn.5) ****************//

ShinySmilyStory_006:
//  #06 //000   ----------------------------------------
 BYTE   KEYSH   ShinySmilyStory_key+0
 BYTE   VOICE   48
 BYTE   MODT 0
 BYTE   LFOS 44
 BYTE   VOL   32*ShinySmilyStory_mvl/mxv
 BYTE   PAN   c_v-19
Label_0197AFA4:
 BYTE   W36
 BYTE   W96
//  #06 //001   ----------------------------------------
 BYTE   W96
//  #06 //002   ----------------------------------------
 BYTE   W96
//  #06 //003   ----------------------------------------
 BYTE   W96
//  #06 //004   ----------------------------------------
 BYTE   N96  Gs4  v088
 BYTE   W96
//  #06 //005   ----------------------------------------
 BYTE   N96
 BYTE   W96
//  #06 //006   ----------------------------------------
 BYTE   N24  Cs5
 BYTE   W36
 BYTE   N60
 BYTE   W60
//  #06 //007   ----------------------------------------
 BYTE   W12
 BYTE   N12  Ds5
 BYTE   W36
 BYTE   N06
 BYTE   W12
 BYTE   N24
 BYTE   W36
//  #06 //008   ----------------------------------------
 BYTE   W96
//  #06 //009   ----------------------------------------
 BYTE   W96
//  #06 //010   ----------------------------------------
 BYTE   W96
//  #06 //011   ----------------------------------------
 BYTE   W96
//  #06 //012   ----------------------------------------
 BYTE   W96
//  #06 //013   ----------------------------------------
 BYTE   W96
//  #06 //014   ----------------------------------------
 BYTE   W96
//  #06 //015   ----------------------------------------
 BYTE   W96
//  #06 //016   ----------------------------------------
 BYTE   W96
//  #06 //017   ----------------------------------------
 BYTE   W96
//  #06 //018   ----------------------------------------
 BYTE   W96
//  #06 //019   ----------------------------------------
 BYTE   W48
 BYTE   N48  Fn3
 BYTE   W48
//  #06 //020   ----------------------------------------
 BYTE   En3
 BYTE   W48
 BYTE   Cn3
 BYTE   W48
//  #06 //021   ----------------------------------------
 BYTE   N96  Dn3
 BYTE   W96
//  #06 //022   ----------------------------------------
 BYTE   N72  Cn3
 BYTE   W72
 BYTE   N24  An2
 BYTE   W24
//  #06 //023   ----------------------------------------
 BYTE   N96  As2
 BYTE   W96
//  #06 //024   ----------------------------------------
 BYTE   N12  Cn3
 BYTE   W12
 BYTE   N18
 BYTE   W24
 BYTE   N18
 BYTE   W24
 BYTE   N30
 BYTE   W36
//  #06 //025   ----------------------------------------
 BYTE   N96  An3
 BYTE   W96
//  #06 //026   ----------------------------------------
 BYTE   N48  Cn4
 BYTE   W48
 BYTE   En4
 BYTE   W48
//  #06 //027   ----------------------------------------
 BYTE   Fn4
 BYTE   W48
 BYTE   En4
 BYTE   W48
//  #06 //028   ----------------------------------------
 BYTE   Dn4
 BYTE   W48
 BYTE   Cn4
 BYTE   W48
//  #06 //029   ----------------------------------------
 BYTE   N96  Dn4
 BYTE   W96
//  #06 //030   ----------------------------------------
 BYTE   N48  Cn4
 BYTE   W48
 BYTE   An3
 BYTE   W48
//  #06 //031   ----------------------------------------
 BYTE   N24  As3
 BYTE   W36
 BYTE   N12  Cn4
 BYTE   W24
 BYTE   N12
 BYTE   W24
 BYTE   TIE  An3
 BYTE   W12
//  #06 //032   ----------------------------------------
 BYTE   W96
//  #06 //033   ----------------------------------------
 BYTE   EOT
 BYTE   N96  Dn4
 BYTE   W96
//  #06 //034   ----------------------------------------
 BYTE   N48  Cn4  v060
 BYTE   W48
 BYTE   En4  v088
 BYTE   W48
//  #06 //035   ----------------------------------------
 BYTE   N48
 BYTE   W48
 BYTE   Gn4
 BYTE   W48
//  #06 //036   ----------------------------------------
 BYTE   N24  Fn4
 BYTE   W24
 BYTE   N12  En4
 BYTE   W12
 BYTE   N24  Dn4
 BYTE   W24
 BYTE   Cn4
 BYTE   W24
 BYTE   As3
 BYTE   W12
//  #06 //037   ----------------------------------------
 BYTE   W12
 BYTE   N12
 BYTE   W12
 BYTE   N12
 BYTE   W12
 BYTE   Dn4
 BYTE   W12
 BYTE   N18  Fn4
 BYTE   W36
 BYTE   N24  As3
 BYTE   W12
//  #06 //038   ----------------------------------------
 BYTE   W12
 BYTE   N12
 BYTE   W12
 BYTE   N12
 BYTE   W12
 BYTE   Dn4
 BYTE   W12
 BYTE   N18  Fn4
 BYTE   W36
 BYTE   N60
 BYTE   W12
//  #06 //039   ----------------------------------------
 BYTE   W48
 BYTE   N48  Cs4
 BYTE   W48
//  #06 //040   ----------------------------------------
 BYTE   Fn4
 BYTE   W48
 BYTE   Gs4
 BYTE   W48
//  #06 //041   ----------------------------------------
 BYTE   W12
 BYTE   N09  As4
 BYTE   W12
 BYTE   N09
 BYTE   W24
 BYTE   N09
 BYTE   W12
 BYTE   N09
 BYTE   W24
 BYTE   N09
 BYTE   W12
//  #06 //042   ----------------------------------------
 BYTE   W24
 BYTE   N72
 BYTE   W72
//  #06 //043   ----------------------------------------
 BYTE   W96
//  #06 //044   ----------------------------------------
 BYTE   W48
 BYTE   N48  As5  v056
 BYTE   W48
//  #06 //045   ----------------------------------------
Label_0197B05A:
 BYTE   N48  Gs5  v060
 BYTE   W48
 BYTE   Gn5  v076
 BYTE   W48
 BYTE   PEND 
//  #06 //046   ----------------------------------------
Label_0197B062:
 BYTE   N48  Ds5  v088
 BYTE   W48
 BYTE   Cn5
 BYTE   W48
 BYTE   PEND 
//  #06 //047   ----------------------------------------
 BYTE   N84  Fn5
 BYTE   W96
//  #06 //048   ----------------------------------------
Label_0197B06C:
 BYTE   N48  Ds5  v088
 BYTE   W48
 BYTE   N24  Gn5
 BYTE   W24
 BYTE   N12  Cn5
 BYTE   W24
 BYTE   PEND 
//  #06 //049   ----------------------------------------
 BYTE   N24  Cs5
 BYTE   N24  Gs5
 BYTE   W24
 BYTE   Cn5
 BYTE   N24  Gn5
 BYTE   W24
 BYTE   As4
 BYTE   N24  Fn5
 BYTE   W24
 BYTE   Gs4
 BYTE   N24  Ds5
 BYTE   W24
//  #06 //050   ----------------------------------------
 BYTE   W12
 BYTE   N06  Bn4
 BYTE   N06  Gs5
 BYTE   W12
 BYTE   N24  Bn4
 BYTE   N24  Gs5
 BYTE   W36
 BYTE   N06  As4
 BYTE   N06  Gn5
 BYTE   W12
 BYTE   N24  As4
 BYTE   N24  Gn5
 BYTE   W24
//  #06 //051   ----------------------------------------
 BYTE   W96
//  #06 //052   ----------------------------------------
 BYTE   W48
 BYTE   N48  As5  v056
 BYTE   W48
//  #06 //053   ----------------------------------------
 BYTE   PATT
  POIN2 Label_0197B05A
//  #06 //054   ----------------------------------------
 BYTE   PATT
  POIN2 Label_0197B062
//  #06 //055   ----------------------------------------
 BYTE   N84  Fn5  v088
 BYTE   W96
//  #06 //056   ----------------------------------------
 BYTE   PATT
  POIN2 Label_0197B06C
//  #06 //057   ----------------------------------------
 BYTE   N96  Cs4  v088
 BYTE   W96
//  #06 //058   ----------------------------------------
 BYTE   W96
//  #06 //059   ----------------------------------------
Label_0197B0BB:
 BYTE   N12  Fn5  v088
 BYTE   W12
 BYTE   Ds5
 BYTE   W12
 BYTE   Cs5
 BYTE   W12
 BYTE   Ds5
 BYTE   W12
 BYTE   Cs5
 BYTE   W12
 BYTE   Cn5
 BYTE   W12
 BYTE   Cs5
 BYTE   W12
 BYTE   Cn5
 BYTE   W12
 BYTE   PEND 
//  #06 //060   ----------------------------------------
Label_0197B0CE:
 BYTE   N12  As4  v088
 BYTE   W12
 BYTE   Cn5
 BYTE   W12
 BYTE   As4
 BYTE   W12
 BYTE   Gs4
 BYTE   W12
 BYTE   N06  Ds4
 BYTE   W06
 BYTE   Fn4
 BYTE   W06
 BYTE   Fs4
 BYTE   W06
 BYTE   Gs4
 BYTE   W06
 BYTE   As4
 BYTE   W06
 BYTE   Cn5
 BYTE   W06
 BYTE   Cs5
 BYTE   W06
 BYTE   Ds5
 BYTE   W06
 BYTE   PEND 
//  #06 //061   ----------------------------------------
 BYTE   PATT
  POIN2 Label_0197B0BB
//  #06 //062   ----------------------------------------
 BYTE   N12  As4  v088
 BYTE   W12
 BYTE   Ds5
 BYTE   W12
 BYTE   Cs5
 BYTE   W12
 BYTE   Cn5
 BYTE   W12
 BYTE   N06  Ds4
 BYTE   W06
 BYTE   Fn4
 BYTE   W06
 BYTE   Fs4
 BYTE   W06
 BYTE   Gs4
 BYTE   W06
 BYTE   As4
 BYTE   W06
 BYTE   Cn5
 BYTE   W06
 BYTE   Cs5
 BYTE   W06
 BYTE   Ds5
 BYTE   W06
//  #06 //063   ----------------------------------------
 BYTE   PATT
  POIN2 Label_0197B0BB
//  #06 //064   ----------------------------------------
 BYTE   PATT
  POIN2 Label_0197B0CE
//  #06 //065   ----------------------------------------
 BYTE   N12  Fn5  v088
 BYTE   W12
 BYTE   Ds5
 BYTE   W12
 BYTE   Cs5
 BYTE   W12
 BYTE   Gn5
 BYTE   W12
 BYTE   Fn5
 BYTE   W12
 BYTE   Ds5
 BYTE   W12
 BYTE   Gs5
 BYTE   W12
 BYTE   Gn5
 BYTE   W12
//  #06 //066   ----------------------------------------
 BYTE   Fn5
 BYTE   W12
 BYTE   As5
 BYTE   W12
 BYTE   Gs5
 BYTE   W12
 BYTE   Fn5
 BYTE   W12
 BYTE   N36  Gn5
 BYTE   W36
 BYTE   TIE  Gs5
 BYTE   W12
//  #06 //067   ----------------------------------------
 BYTE   W96
//  #06 //068   ----------------------------------------
 BYTE   W96
//  #06 //069   ----------------------------------------
 BYTE   EOT
 BYTE   W44
 BYTE   GoTo
  POIN2 Label_0197AFA4
 BYTE   FINE

//**************** Track 7 (Midi-Chn.6) ****************//

ShinySmilyStory_007:
//  #07 //000   ----------------------------------------
 BYTE   KEYSH   ShinySmilyStory_key+0
 BYTE   VOICE   1
 BYTE   MODT 0
 BYTE   LFOS 44
 BYTE   VOL   23*ShinySmilyStory_mvl/mxv
 BYTE   PAN   c_v+0
Label_0197B15C:
 BYTE   W36
 BYTE   W48
 BYTE   N48  Gs6  v088
 BYTE   W48
//  #07 //001   ----------------------------------------
 BYTE   Gn6
 BYTE   W48
 BYTE   Ds6
 BYTE   W48
//  #07 //002   ----------------------------------------
 BYTE   N96  Fn6
 BYTE   W96
//  #07 //003   ----------------------------------------
 BYTE   Ds6
 BYTE   W96
//  #07 //004   ----------------------------------------
 BYTE   Cs6
 BYTE   W96
//  #07 //005   ----------------------------------------
 BYTE   Cn6
 BYTE   W96
//  #07 //006   ----------------------------------------
 BYTE   As5
 BYTE   W96
//  #07 //007   ----------------------------------------
 BYTE   W96
//  #07 //008   ----------------------------------------
Label_0197B172:
 BYTE   W24
 BYTE   N24  Cn6  v088
 BYTE   W24
 BYTE   Ds6
 BYTE   W24
 BYTE   Gs6
 BYTE   W24
 BYTE   PEND 
//  #07 //009   ----------------------------------------
 BYTE   Gn6
 BYTE   W24
 BYTE   N12  Gs6
 BYTE   W12
 BYTE   Gn6
 BYTE   W24
 BYTE   Fn6
 BYTE   W24
 BYTE   N24  Ds6
 BYTE   W12
//  #07 //010   ----------------------------------------
 BYTE   PATT
  POIN2 Label_0197B172
//  #07 //011   ----------------------------------------
 BYTE   N24  Gn6  v088
 BYTE   W24
 BYTE   N12  Gs6
 BYTE   W12
 BYTE   Cn7
 BYTE   W24
 BYTE   As6
 BYTE   W36
//  #07 //012   ----------------------------------------
 BYTE   W96
//  #07 //013   ----------------------------------------
 BYTE   W96
//  #07 //014   ----------------------------------------
 BYTE   N24  Gs6
 BYTE   W24
 BYTE   Gn6
 BYTE   W24
 BYTE   Gs6
 BYTE   W24
 BYTE   Cn7
 BYTE   W24
//  #07 //015   ----------------------------------------
 BYTE   N12  As6
 BYTE   W12
 BYTE   N12
 BYTE   W24
 BYTE   N36
 BYTE   W60
//  #07 //016   ----------------------------------------
 BYTE   W96
//  #07 //017   ----------------------------------------
 BYTE   W96
//  #07 //018   ----------------------------------------
 BYTE   W96
//  #07 //019   ----------------------------------------
 BYTE   W96
//  #07 //020   ----------------------------------------
 BYTE   W96
//  #07 //021   ----------------------------------------
 BYTE   W96
//  #07 //022   ----------------------------------------
 BYTE   W96
//  #07 //023   ----------------------------------------
 BYTE   W96
//  #07 //024   ----------------------------------------
 BYTE   W96
//  #07 //025   ----------------------------------------
 BYTE   W96
//  #07 //026   ----------------------------------------
 BYTE   W96
//  #07 //027   ----------------------------------------
 BYTE   W96
//  #07 //028   ----------------------------------------
 BYTE   W96
//  #07 //029   ----------------------------------------
 BYTE   W96
//  #07 //030   ----------------------------------------
 BYTE   W96
//  #07 //031   ----------------------------------------
 BYTE   W96
//  #07 //032   ----------------------------------------
 BYTE   W96
//  #07 //033   ----------------------------------------
 BYTE   W96
//  #07 //034   ----------------------------------------
 BYTE   N48  En6
 BYTE   W48
 BYTE   N96  Cn6
 BYTE   W48
//  #07 //035   ----------------------------------------
 BYTE   W48
 BYTE   N48  Dn6
 BYTE   W48
//  #07 //036   ----------------------------------------
 BYTE   N36  Cn6
 BYTE   W36
 BYTE   N48  Fn6
 BYTE   W60
//  #07 //037   ----------------------------------------
 BYTE   W96
//  #07 //038   ----------------------------------------
 BYTE   W96
//  #07 //039   ----------------------------------------
 BYTE   W96
//  #07 //040   ----------------------------------------
 BYTE   W96
//  #07 //041   ----------------------------------------
 BYTE   W96
//  #07 //042   ----------------------------------------
 BYTE   W96
//  #07 //043   ----------------------------------------
 BYTE   N96  Ds6
 BYTE   W96
//  #07 //044   ----------------------------------------
Label_0197B1D5:
 BYTE   N48  Cn7  v088
 BYTE   W48
 BYTE   As6
 BYTE   W48
 BYTE   PEND 
//  #07 //045   ----------------------------------------
Label_0197B1DC:
 BYTE   N48  Gs6  v088
 BYTE   W48
 BYTE   Gn6
 BYTE   W48
 BYTE   PEND 
//  #07 //046   ----------------------------------------
Label_0197B1E3:
 BYTE   N48  Ds6  v088
 BYTE   W48
 BYTE   Cn6
 BYTE   W48
 BYTE   PEND 
//  #07 //047   ----------------------------------------
 BYTE   W96
//  #07 //048   ----------------------------------------
 BYTE   N96  Ds6
 BYTE   W96
//  #07 //049   ----------------------------------------
 BYTE   N24  Gs6
 BYTE   W24
 BYTE   Gn6
 BYTE   W24
 BYTE   Fn6
 BYTE   W24
 BYTE   Ds6
 BYTE   W24
//  #07 //050   ----------------------------------------
 BYTE   W96
//  #07 //051   ----------------------------------------
 BYTE   N96
 BYTE   W96
//  #07 //052   ----------------------------------------
 BYTE   PATT
  POIN2 Label_0197B1D5
//  #07 //053   ----------------------------------------
 BYTE   PATT
  POIN2 Label_0197B1DC
//  #07 //054   ----------------------------------------
 BYTE   PATT
  POIN2 Label_0197B1E3
//  #07 //055   ----------------------------------------
 BYTE   W96
//  #07 //056   ----------------------------------------
 BYTE   N96  Ds6  v088
 BYTE   W96
//  #07 //057   ----------------------------------------
 BYTE   Cs6
 BYTE   W96
//  #07 //058   ----------------------------------------
 BYTE   W12
 BYTE   N12  Ds6
 BYTE   W36
 BYTE   N06
 BYTE   W12
 BYTE   N24
 BYTE   W36
//  #07 //059   ----------------------------------------
Label_0197B218:
 BYTE   N12  Fn6  v088
 BYTE   W12
 BYTE   Ds6
 BYTE   W12
 BYTE   Cs6
 BYTE   W12
 BYTE   Ds6
 BYTE   W12
 BYTE   Cs6
 BYTE   W12
 BYTE   Cn6
 BYTE   W12
 BYTE   Cs6
 BYTE   W12
 BYTE   Cn6
 BYTE   W12
 BYTE   PEND 
//  #07 //060   ----------------------------------------
Label_0197B22B:
 BYTE   N12  As5  v088
 BYTE   W12
 BYTE   Cn6
 BYTE   W12
 BYTE   As5
 BYTE   W12
 BYTE   Gs5
 BYTE   W12
 BYTE   N06  Ds5
 BYTE   W06
 BYTE   Fn5
 BYTE   W06
 BYTE   Fs5
 BYTE   W06
 BYTE   Gs5
 BYTE   W06
 BYTE   As5
 BYTE   W06
 BYTE   Cn6
 BYTE   W06
 BYTE   Cs6
 BYTE   W06
 BYTE   Ds6
 BYTE   W06
 BYTE   PEND 
//  #07 //061   ----------------------------------------
 BYTE   PATT
  POIN2 Label_0197B218
//  #07 //062   ----------------------------------------
 BYTE   N12  As5  v088
 BYTE   W12
 BYTE   Ds6
 BYTE   W12
 BYTE   Cs6
 BYTE   W12
 BYTE   Cn6
 BYTE   W12
 BYTE   N06  Ds5
 BYTE   W06
 BYTE   Fn5
 BYTE   W06
 BYTE   Fs5
 BYTE   W06
 BYTE   Gs5
 BYTE   W06
 BYTE   As5
 BYTE   W06
 BYTE   Cn6
 BYTE   W06
 BYTE   Cs6
 BYTE   W06
 BYTE   Ds6
 BYTE   W06
//  #07 //063   ----------------------------------------
 BYTE   PATT
  POIN2 Label_0197B218
//  #07 //064   ----------------------------------------
 BYTE   PATT
  POIN2 Label_0197B22B
//  #07 //065   ----------------------------------------
 BYTE   N12  Fn6  v088
 BYTE   W12
 BYTE   Ds6
 BYTE   W12
 BYTE   Cs6
 BYTE   W12
 BYTE   Gn6
 BYTE   W12
 BYTE   Fn6
 BYTE   W12
 BYTE   Ds6
 BYTE   W12
 BYTE   Gs6
 BYTE   W12
 BYTE   Gn6
 BYTE   W12
//  #07 //066   ----------------------------------------
 BYTE   Fn6
 BYTE   W12
 BYTE   As6
 BYTE   W12
 BYTE   Gs6
 BYTE   W12
 BYTE   Fn6
 BYTE   W12
 BYTE   N36  Gn6
 BYTE   W36
 BYTE   TIE  Gs6
 BYTE   W12
//  #07 //067   ----------------------------------------
 BYTE   W96
//  #07 //068   ----------------------------------------
 BYTE   W96
//  #07 //069   ----------------------------------------
 BYTE   EOT
 BYTE   W44
 BYTE   GoTo
  POIN2 Label_0197B15C
 BYTE   FINE

//**************** Track 8 (Midi-Chn.7) ****************//

ShinySmilyStory_008:
//  #08 //000   ----------------------------------------
 BYTE   KEYSH   ShinySmilyStory_key+0
 BYTE   VOICE   33
 BYTE   MODT 0
 BYTE   LFOS 44
 BYTE   VOL   39*ShinySmilyStory_mvl/mxv
 BYTE   PAN   c_v+0
Label_01F68894:
 BYTE   W36
 BYTE   W96
//  #08 //001   ----------------------------------------
 BYTE   W96
//  #08 //002   ----------------------------------------
 BYTE   BEND   c_v+0
 BYTE   W96
//  #08 //003   ----------------------------------------
 BYTE   W96
//  #08 //004   ----------------------------------------
 BYTE   N96  Cs1  v088
 BYTE   W96
//  #08 //005   ----------------------------------------
 BYTE   Cn1
 BYTE   W96
//  #08 //006   ----------------------------------------
 BYTE   N12  As0
 BYTE   W12
 BYTE   N12
 BYTE   W12
 BYTE   As1
 BYTE   W12
 BYTE   As0
 BYTE   W12
 BYTE   N12
 BYTE   W12
 BYTE   N12
 BYTE   W12
 BYTE   As1
 BYTE   W12
 BYTE   As0
 BYTE   W12
//  #08 //007   ----------------------------------------
 BYTE   W12
 BYTE   N12
 BYTE   W36
 BYTE   N06
 BYTE   W12
 BYTE   N24
 BYTE   W36
//  #08 //008   ----------------------------------------
 BYTE   N12  Gs0
 BYTE   W12
 BYTE   N12
 BYTE   W12
 BYTE   N12
 BYTE   W12
 BYTE   N12
 BYTE   W12
 BYTE   N12
 BYTE   W12
 BYTE   N12
 BYTE   W12
 BYTE   N12
 BYTE   W12
 BYTE   N12
 BYTE   W12
//  #08 //009   ----------------------------------------
 BYTE   Gn0
 BYTE   W12
 BYTE   N12
 BYTE   W12
 BYTE   N12
 BYTE   W12
 BYTE   Cs1
 BYTE   W12
 BYTE   As1
 BYTE   W12
 BYTE   N12
 BYTE   W12
 BYTE   N12
 BYTE   W12
 BYTE   Gn1
 BYTE   W12
//  #08 //010   ----------------------------------------
 BYTE   Fn1
 BYTE   W12
 BYTE   N12
 BYTE   W12
 BYTE   N12
 BYTE   W12
 BYTE   N12
 BYTE   W12
 BYTE   N12
 BYTE   W12
 BYTE   Cn1
 BYTE   W12
 BYTE   Fn1
 BYTE   W12
 BYTE   N12
 BYTE   W12
//  #08 //011   ----------------------------------------
 BYTE   Ds1
 BYTE   W12
 BYTE   N12
 BYTE   W12
 BYTE   Gs0
 BYTE   W12
 BYTE   Ds1
 BYTE   W12
 BYTE   N12
 BYTE   W12
 BYTE   N12
 BYTE   W12
 BYTE   N12
 BYTE   W12
 BYTE   N12
 BYTE   W12
//  #08 //012   ----------------------------------------
 BYTE   Cs1
 BYTE   W12
 BYTE   N12
 BYTE   W12
 BYTE   N12
 BYTE   W12
 BYTE   N12
 BYTE   W12
 BYTE   N12
 BYTE   W12
 BYTE   N12
 BYTE   W12
 BYTE   N12
 BYTE   W12
 BYTE   N12
 BYTE   W12
//  #08 //013   ----------------------------------------
Label_01F6890A:
 BYTE   N12  Cn1  v088
 BYTE   W12
 BYTE   N12
 BYTE   W12
 BYTE   N12
 BYTE   W12
 BYTE   N12
 BYTE   W12
 BYTE   N12
 BYTE   W12
 BYTE   N12
 BYTE   W12
 BYTE   N12
 BYTE   W12
 BYTE   N12
 BYTE   W12
 BYTE   PEND 
//  #08 //014   ----------------------------------------
 BYTE   As0
 BYTE   W12
 BYTE   N12
 BYTE   W12
 BYTE   Cn1
 BYTE   W12
 BYTE   N12
 BYTE   W12
 BYTE   Cs1
 BYTE   W12
 BYTE   N12
 BYTE   W12
 BYTE   Dn1
 BYTE   W12
 BYTE   N12
 BYTE   W12
//  #08 //015   ----------------------------------------
 BYTE   Ds1
 BYTE   W12
 BYTE   N12
 BYTE   W24
 BYTE   N48
 BYTE   W60
//  #08 //016   ----------------------------------------
 BYTE   N12  Cn1
 BYTE   W12
 BYTE   N12
 BYTE   W24
 BYTE   N24
 BYTE   W24
 BYTE   N12
 BYTE   W12
 BYTE   An0
 BYTE   W12
 BYTE   Cn1
 BYTE   W12
//  #08 //017   ----------------------------------------
Label_01F68940:
 BYTE   N12  Fn0  v088
 BYTE   W12
 BYTE   N12
 BYTE   W12
 BYTE   N12
 BYTE   W12
 BYTE   N12
 BYTE   W12
 BYTE   N12
 BYTE   W12
 BYTE   N12
 BYTE   W12
 BYTE   N12
 BYTE   W12
 BYTE   N12
 BYTE   W12
 BYTE   PEND 
//  #08 //018   ----------------------------------------
 BYTE   En0
 BYTE   W12
 BYTE   N12
 BYTE   W12
 BYTE   N12
 BYTE   W12
 BYTE   N12
 BYTE   W12
 BYTE   N12
 BYTE   W12
 BYTE   N12
 BYTE   W12
 BYTE   N12
 BYTE   W12
 BYTE   N12
 BYTE   W12
//  #08 //019   ----------------------------------------
 BYTE   Dn0
 BYTE   W12
 BYTE   N12
 BYTE   W12
 BYTE   N12
 BYTE   W12
 BYTE   N12
 BYTE   W12
 BYTE   N12
 BYTE   W12
 BYTE   N12
 BYTE   W12
 BYTE   N12
 BYTE   W12
 BYTE   N12
 BYTE   W12
//  #08 //020   ----------------------------------------
 BYTE   Cn0
 BYTE   W12
 BYTE   N12
 BYTE   W12
 BYTE   Fn0
 BYTE   W12
 BYTE   N12
 BYTE   W12
 BYTE   Gn0
 BYTE   W12
 BYTE   N12
 BYTE   W12
 BYTE   An0
 BYTE   W12
 BYTE   N12
 BYTE   W12
//  #08 //021   ----------------------------------------
 BYTE   As0
 BYTE   W12
 BYTE   N12
 BYTE   W12
 BYTE   N12
 BYTE   W12
 BYTE   N12
 BYTE   W12
 BYTE   N12
 BYTE   W12
 BYTE   Fn0
 BYTE   W12
 BYTE   As0
 BYTE   W12
 BYTE   N12
 BYTE   W12
//  #08 //022   ----------------------------------------
 BYTE   An0
 BYTE   W12
 BYTE   N12
 BYTE   W12
 BYTE   N12
 BYTE   W12
 BYTE   N12
 BYTE   W12
 BYTE   N12
 BYTE   W12
 BYTE   Fn0
 BYTE   W12
 BYTE   An0
 BYTE   W12
 BYTE   N12
 BYTE   W12
//  #08 //023   ----------------------------------------
 BYTE   N24  Cs0
 BYTE   W24
 BYTE   Cs1
 BYTE   W24
 BYTE   N24
 BYTE   W24
 BYTE   N24
 BYTE   W24
//  #08 //024   ----------------------------------------
 BYTE   N12  Cn1
 BYTE   W12
 BYTE   N12
 BYTE   W24
 BYTE   N12
 BYTE   W24
 BYTE   N12
 BYTE   W12
 BYTE   N12
 BYTE   W12
 BYTE   Bn0
 BYTE   W12
//  #08 //025   ----------------------------------------
 BYTE   PATT
  POIN2 Label_01F68940
//  #08 //026   ----------------------------------------
 BYTE   N12  En0  v088
 BYTE   W12
 BYTE   N12
 BYTE   W12
 BYTE   Gn0
 BYTE   W12
 BYTE   An0
 BYTE   W12
 BYTE   Cn1
 BYTE   W12
 BYTE   N12
 BYTE   W12
 BYTE   N12
 BYTE   W12
 BYTE   N12
 BYTE   W12
//  #08 //027   ----------------------------------------
 BYTE   Dn1
 BYTE   W12
 BYTE   An0
 BYTE   W12
 BYTE   Dn1
 BYTE   W12
 BYTE   N12
 BYTE   W12
 BYTE   N12
 BYTE   W12
 BYTE   N12
 BYTE   W12
 BYTE   N12
 BYTE   W12
 BYTE   N12
 BYTE   W12
//  #08 //028   ----------------------------------------
 BYTE   PATT
  POIN2 Label_01F6890A
//  #08 //029   ----------------------------------------
Label_01F689E5:
 BYTE   N12  As0  v088
 BYTE   W12
 BYTE   N12
 BYTE   W12
 BYTE   N12
 BYTE   W12
 BYTE   N12
 BYTE   W12
 BYTE   N12
 BYTE   W12
 BYTE   N12
 BYTE   W12
 BYTE   N12
 BYTE   W12
 BYTE   N12
 BYTE   W12
 BYTE   PEND 
//  #08 //030   ----------------------------------------
 BYTE   An0
 BYTE   W12
 BYTE   N12
 BYTE   W12
 BYTE   N12
 BYTE   W12
 BYTE   Cn1
 BYTE   W12
 BYTE   An1
 BYTE   W12
 BYTE   N12
 BYTE   W12
 BYTE   Fn1
 BYTE   W12
 BYTE   Dn1
 BYTE   W12
//  #08 //031   ----------------------------------------
 BYTE   N24  An0
 BYTE   W36
 BYTE   N12
 BYTE   W24
 BYTE   N12
 BYTE   W24
 BYTE   N36  Fn0
 BYTE   W12
//  #08 //032   ----------------------------------------
 BYTE   W24
 BYTE   N24  Cn1
 BYTE   W24
 BYTE   N12
 BYTE   W12
 BYTE   As0
 BYTE   W12
 BYTE   An0
 BYTE   W12
 BYTE   Fn0
 BYTE   W12
//  #08 //033   ----------------------------------------
 BYTE   N24  As0
 BYTE   W24
 BYTE   N12  Cn1
 BYTE   W12
 BYTE   Dn1
 BYTE   W12
 BYTE   Fn1
 BYTE   W12
 BYTE   Dn1
 BYTE   W12
 BYTE   Cn1
 BYTE   W12
 BYTE   As0
 BYTE   W12
//  #08 //034   ----------------------------------------
 BYTE   Cn1
 BYTE   W12
 BYTE   N12
 BYTE   W12
 BYTE   As0
 BYTE   W12
 BYTE   Cn1
 BYTE   W12
 BYTE   As1
 BYTE   W12
 BYTE   Gn1
 BYTE   W12
 BYTE   Fn1
 BYTE   W12
 BYTE   Dn1
 BYTE   W12
//  #08 //035   ----------------------------------------
 BYTE   An0
 BYTE   W12
 BYTE   N12
 BYTE   W12
 BYTE   N12
 BYTE   W12
 BYTE   N12
 BYTE   W12
 BYTE   N36  En1
 BYTE   W36
 BYTE   N12  Ds1
 BYTE   W12
//  #08 //036   ----------------------------------------
 BYTE   Dn1
 BYTE   W12
 BYTE   An0
 BYTE   W12
 BYTE   N12
 BYTE   W12
 BYTE   Dn1
 BYTE   W12
 BYTE   Dn2
 BYTE   W12
 BYTE   An1
 BYTE   W12
 BYTE   Gn1
 BYTE   W12
 BYTE   N24  Gn0
 BYTE   W12
//  #08 //037   ----------------------------------------
 BYTE   W12
 BYTE   N09
 BYTE   W12
 BYTE   N09
 BYTE   W12
 BYTE   N09
 BYTE   W12
 BYTE   N15  An0
 BYTE   W36
 BYTE   N24  As0
 BYTE   W12
//  #08 //038   ----------------------------------------
 BYTE   W12
 BYTE   N09
 BYTE   W12
 BYTE   N09
 BYTE   W12
 BYTE   N09
 BYTE   W12
 BYTE   N15  Cn1
 BYTE   W36
 BYTE   N24  Cs1
 BYTE   W12
//  #08 //039   ----------------------------------------
 BYTE   W12
 BYTE   N12
 BYTE   W12
 BYTE   N12
 BYTE   W12
 BYTE   Gs1
 BYTE   W12
 BYTE   Cs2
 BYTE   W12
 BYTE   N12
 BYTE   W12
 BYTE   N12
 BYTE   W12
 BYTE   N12
 BYTE   W12
//  #08 //040   ----------------------------------------
 BYTE   N24  Fn1
 BYTE   W24
 BYTE   N12
 BYTE   W12
 BYTE   Gs1
 BYTE   W12
 BYTE   Fn2
 BYTE   W12
 BYTE   Cs2
 BYTE   W12
 BYTE   Gs1
 BYTE   W12
 BYTE   As1
 BYTE   W12
//  #08 //041   ----------------------------------------
 BYTE   W12
 BYTE   Ds1
 BYTE   W12
 BYTE   N12
 BYTE   W24
 BYTE   N12
 BYTE   W12
 BYTE   N12
 BYTE   W24
 BYTE   N12
 BYTE   W12
//  #08 //042   ----------------------------------------
 BYTE   W24
 BYTE   N48
 BYTE   W48
 BYTE   BEND   c_v+0
 BYTE   N24
 BYTE   W01
 BYTE   BEND   c_v-1
 BYTE   W01
 BYTE   BEND   c_v-2
 BYTE   W02
 BYTE   BEND   c_v-3
 BYTE   W01
 BYTE   BEND   c_v-4
 BYTE   W01
 BYTE   BEND   c_v-5
 BYTE   W01
 BYTE   BEND   c_v-6
 BYTE   W01
 BYTE   BEND   c_v-7
 BYTE   W01
 BYTE   BEND   c_v-8
 BYTE   W01
 BYTE   BEND   c_v-10
 BYTE   W01
 BYTE   BEND   c_v-11
 BYTE   W01
 BYTE   BEND   c_v-13
 BYTE   W01
 BYTE   BEND   c_v-15
 BYTE   W01
 BYTE   BEND   c_v-17
 BYTE   W01
 BYTE   BEND   c_v-19
 BYTE   W01
 BYTE   BEND   c_v-21
 BYTE   W01
 BYTE   BEND   c_v-22
 BYTE   W01
 BYTE   BEND   c_v-24
 BYTE   W01
 BYTE   BEND   c_v-26
 BYTE   W02
 BYTE   BEND   c_v+0
 BYTE   W03
//  #08 //043   ----------------------------------------
Label_01F68AE0:
 BYTE   N24  Gs0  v088
 BYTE   W24
 BYTE   N12
 BYTE   W12
 BYTE   N12
 BYTE   W12
 BYTE   N12
 BYTE   W12
 BYTE   N12
 BYTE   W12
 BYTE   N12
 BYTE   W12
 BYTE   N12
 BYTE   W12
 BYTE   PEND 
//  #08 //044   ----------------------------------------
Label_01F68AF1:
 BYTE   N12  Gn0  v088
 BYTE   W12
 BYTE   N12
 BYTE   W12
 BYTE   N12
 BYTE   W12
 BYTE   Ds1
 BYTE   W12
 BYTE   Gn1
 BYTE   W12
 BYTE   N12
 BYTE   W12
 BYTE   Ds1
 BYTE   W12
 BYTE   Cn1
 BYTE   W12
 BYTE   PEND 
//  #08 //045   ----------------------------------------
 BYTE   PATT
  POIN2 Label_01F68940
//  #08 //046   ----------------------------------------
Label_01F68B09:
 BYTE   N12  Ds0  v088
 BYTE   W12
 BYTE   N12
 BYTE   W12
 BYTE   N12
 BYTE   W12
 BYTE   Gs0
 BYTE   W12
 BYTE   As0
 BYTE   W12
 BYTE   N12
 BYTE   W12
 BYTE   Cn1
 BYTE   W12
 BYTE   N12
 BYTE   W12
 BYTE   PEND 
//  #08 //047   ----------------------------------------
Label_01F68B1C:
 BYTE   N12  Cs1  v088
 BYTE   W12
 BYTE   N12
 BYTE   W12
 BYTE   N12
 BYTE   W12
 BYTE   Gs1
 BYTE   W12
 BYTE   Cs2
 BYTE   W12
 BYTE   N12
 BYTE   W12
 BYTE   N12
 BYTE   W12
 BYTE   Gs1
 BYTE   W12
 BYTE   PEND 
//  #08 //048   ----------------------------------------
Label_01F68B2F:
 BYTE   N12  Cn1  v088
 BYTE   W12
 BYTE   N12
 BYTE   W12
 BYTE   N12
 BYTE   W12
 BYTE   Gn1
 BYTE   W12
 BYTE   Cn2
 BYTE   W12
 BYTE   N12
 BYTE   W12
 BYTE   N12
 BYTE   W12
 BYTE   Gn1
 BYTE   W12
 BYTE   PEND 
//  #08 //049   ----------------------------------------
 BYTE   N24  As0
 BYTE   W24
 BYTE   Cn1
 BYTE   W24
 BYTE   Cs1
 BYTE   W24
 BYTE   As0
 BYTE   W24
//  #08 //050   ----------------------------------------
 BYTE   W12
 BYTE   N06  En1
 BYTE   W12
 BYTE   N12
 BYTE   W12
 BYTE   N06  Dn1
 BYTE   W06
 BYTE   Ds1
 BYTE   W06
 BYTE   N12  En1
 BYTE   W12
 BYTE   As1
 BYTE   W12
 BYTE   Ds2
 BYTE   W12
 BYTE   N01  Cs2
 BYTE   W01
 BYTE   Cn2
 BYTE   W02
 BYTE   As1
 BYTE   W01
 BYTE   Gn1
 BYTE   W02
 BYTE   Fs1
 BYTE   W01
 BYTE   En1
 BYTE   W02
 BYTE   Dn1
 BYTE   W01
 BYTE   Cn1
 BYTE   W02
//  #08 //051   ----------------------------------------
 BYTE   PATT
  POIN2 Label_01F68AE0
//  #08 //052   ----------------------------------------
 BYTE   PATT
  POIN2 Label_01F68AF1
//  #08 //053   ----------------------------------------
 BYTE   PATT
  POIN2 Label_01F68940
//  #08 //054   ----------------------------------------
 BYTE   PATT
  POIN2 Label_01F68B09
//  #08 //055   ----------------------------------------
 BYTE   PATT
  POIN2 Label_01F68B1C
//  #08 //056   ----------------------------------------
 BYTE   PATT
  POIN2 Label_01F68B2F
//  #08 //057   ----------------------------------------
 BYTE   PATT
  POIN2 Label_01F689E5
//  #08 //058   ----------------------------------------
 BYTE   W12
 BYTE   N12  Ds1  v088
 BYTE   W36
 BYTE   N06
 BYTE   W12
 BYTE   N24
 BYTE   W36
//  #08 //059   ----------------------------------------
Label_01F68B9A:
 BYTE   N36  Cs1  v088
 BYTE   W36
 BYTE   Cn1
 BYTE   W36
 BYTE   As0
 BYTE   W24
 BYTE   PEND 
//  #08 //060   ----------------------------------------
Label_01F68BA3:
 BYTE   W12
 BYTE   N36  Gs0  v088
 BYTE   W36
 BYTE   N24  As0
 BYTE   W24
 BYTE   Cn1
 BYTE   W24
 BYTE   PEND 
//  #08 //061   ----------------------------------------
 BYTE   PATT
  POIN2 Label_01F68B9A
//  #08 //062   ----------------------------------------
 BYTE   W12
 BYTE   N36  Cn1  v088
 BYTE   W36
 BYTE   N24  Cs1
 BYTE   W24
 BYTE   Ds1
 BYTE   W24
//  #08 //063   ----------------------------------------
 BYTE   PATT
  POIN2 Label_01F68B9A
//  #08 //064   ----------------------------------------
 BYTE   PATT
  POIN2 Label_01F68BA3
//  #08 //065   ----------------------------------------
 BYTE   N36  Cs1  v088
 BYTE   W36
 BYTE   Ds1
 BYTE   W36
 BYTE   En1
 BYTE   W24
//  #08 //066   ----------------------------------------
 BYTE   W12
 BYTE   Fs1
 BYTE   W36
 BYTE   Gn1
 BYTE   W36
 BYTE   TIE  Gs1
 BYTE   W12
//  #08 //067   ----------------------------------------
 BYTE   W96
//  #08 //068   ----------------------------------------
 BYTE   W48
 BYTE   BEND   c_v+0
 BYTE   W07
 BYTE   BEND   c_v-14
 BYTE   W06
 BYTE   BEND   c_v-20
 BYTE   W07
 BYTE   BEND   c_v-25
 BYTE   W07
 BYTE   BEND   c_v-29
 BYTE   W08
 BYTE   BEND   c_v-33
 BYTE   W07
 BYTE   BEND   c_v-36
 BYTE   W03
 BYTE   BEND   c_v-37
 BYTE   W03
//  #08 //069   ----------------------------------------
 BYTE   EOT
 BYTE   W44
 BYTE   GoTo
  POIN2 Label_01F68894
 BYTE   FINE

//**************** Track 9 (Midi-Chn.8) ****************//

ShinySmilyStory_009:
//  #09 //000   ----------------------------------------
 BYTE   KEYSH   ShinySmilyStory_key+0
 BYTE   VOICE   61
 BYTE   MODT 0
 BYTE   LFOS 44
 BYTE   VOL   50*ShinySmilyStory_mvl/mxv
 BYTE   PAN   c_v+0
Label_01F68604:
 BYTE   W36
 BYTE   W96
//  #09 //001   ----------------------------------------
 BYTE   W96
//  #09 //002   ----------------------------------------
 BYTE   W96
//  #09 //003   ----------------------------------------
 BYTE   W96
//  #09 //004   ----------------------------------------
 BYTE   W96
//  #09 //005   ----------------------------------------
 BYTE   W96
//  #09 //006   ----------------------------------------
 BYTE   W96
//  #09 //007   ----------------------------------------
 BYTE   W96
//  #09 //008   ----------------------------------------
 BYTE   W24
 BYTE   N24  Cn3  v112
 BYTE   W24
 BYTE   Ds3
 BYTE   W24
 BYTE   Gs3
 BYTE   W24
//  #09 //009   ----------------------------------------
 BYTE   Gn3
 BYTE   W24
 BYTE   N12  Gs3  v108
 BYTE   W12
 BYTE   Gn3
 BYTE   W24
 BYTE   Fn3
 BYTE   W24
 BYTE   N01  Dn3
 BYTE   W01
 BYTE   N22  Ds3
 BYTE   W11
//  #09 //010   ----------------------------------------
 BYTE   W24
 BYTE   N24  Cn3
 BYTE   W24
 BYTE   Ds3
 BYTE   W24
 BYTE   N01  Gn3
 BYTE   W01
 BYTE   N22  Gs3
 BYTE   W23
//  #09 //011   ----------------------------------------
 BYTE   N24  Gn3
 BYTE   W24
 BYTE   N12  Gs3
 BYTE   W12
 BYTE   Cn4
 BYTE   W24
 BYTE   Gn3
 BYTE   W24
 BYTE   N48  Gs3
 BYTE   W12
//  #09 //012   ----------------------------------------
 BYTE   W60
 BYTE   N12  Gs2
 BYTE   W12
 BYTE   As2
 BYTE   W12
 BYTE   Cn3
 BYTE   W12
//  #09 //013   ----------------------------------------
 BYTE   Cs3
 BYTE   W12
 BYTE   Cn3
 BYTE   W12
 BYTE   Cs3
 BYTE   W12
 BYTE   N24  Ds3
 BYTE   W24
 BYTE   N12
 BYTE   W12
 BYTE   Fn3
 BYTE   W12
 BYTE   Gn3
 BYTE   W12
//  #09 //014   ----------------------------------------
 BYTE   N24  Gs3
 BYTE   W24
 BYTE   Gn3
 BYTE   W24
 BYTE   Gs3
 BYTE   W24
 BYTE   N01  Bn3
 BYTE   W01
 BYTE   N22  Cn4
 BYTE   W23
//  #09 //015   ----------------------------------------
 BYTE   N12  As3
 BYTE   W12
 BYTE   N12
 BYTE   W24
 BYTE   N36
 BYTE   W60
//  #09 //016   ----------------------------------------
 BYTE   N12  Gn3
 BYTE   W12
 BYTE   N12
 BYTE   W24
 BYTE   N36
 BYTE   W60
//  #09 //017   ----------------------------------------
 BYTE   W96
//  #09 //018   ----------------------------------------
 BYTE   W96
//  #09 //019   ----------------------------------------
 BYTE   W96
//  #09 //020   ----------------------------------------
 BYTE   W96
//  #09 //021   ----------------------------------------
 BYTE   W96
//  #09 //022   ----------------------------------------
 BYTE   W96
//  #09 //023   ----------------------------------------
 BYTE   W96
//  #09 //024   ----------------------------------------
 BYTE   W96
//  #09 //025   ----------------------------------------
 BYTE   W96
//  #09 //026   ----------------------------------------
 BYTE   W96
//  #09 //027   ----------------------------------------
 BYTE   W60
 BYTE   N09  Cn3
 BYTE   W12
 BYTE   Dn3
 BYTE   W12
 BYTE   En3
 BYTE   W12
//  #09 //028   ----------------------------------------
 BYTE   Fn3
 BYTE   W12
 BYTE   En3
 BYTE   W24
 BYTE   N12  Fn3
 BYTE   W24
 BYTE   Gn3
 BYTE   W24
 BYTE   N30  Fn3
 BYTE   W12
//  #09 //029   ----------------------------------------
 BYTE   W18
 BYTE   N01  En3  v104
 BYTE   W01
 BYTE   Ds3
 BYTE   W02
 BYTE   Dn3  v100
 BYTE   W01
 BYTE   Cs3
 BYTE   W72
 BYTE   W02
//  #09 //030   ----------------------------------------
 BYTE   W96
//  #09 //031   ----------------------------------------
 BYTE   W96
//  #09 //032   ----------------------------------------
 BYTE   W12
 BYTE   N12  Cn3  v108
 BYTE   W12
 BYTE   Fn3
 BYTE   W12
 BYTE   Gn3
 BYTE   W12
 BYTE   An3
 BYTE   W12
 BYTE   Gn3
 BYTE   W12
 BYTE   An3
 BYTE   W12
 BYTE   N09  Gn3
 BYTE   W12
//  #09 //033   ----------------------------------------
 BYTE   N24  Fn3
 BYTE   W96
//  #09 //034   ----------------------------------------
 BYTE   W96
//  #09 //035   ----------------------------------------
 BYTE   W96
//  #09 //036   ----------------------------------------
 BYTE   W12
 BYTE   N09  Fn3  v104
 BYTE   W12
 BYTE   En3
 BYTE   W12
 BYTE   Fn3
 BYTE   W12
 BYTE   Gn3
 BYTE   W12
 BYTE   An3
 BYTE   W24
 BYTE   N36  As3
 BYTE   W12
//  #09 //037   ----------------------------------------
 BYTE   W60
 BYTE   N12  Fn3
 BYTE   W12
 BYTE   As3
 BYTE   W12
 BYTE   N48  Dn4
 BYTE   W12
//  #09 //038   ----------------------------------------
 BYTE   W96
//  #09 //039   ----------------------------------------
 BYTE   W96
//  #09 //040   ----------------------------------------
 BYTE   W12
 BYTE   N09  Fn3  v108
 BYTE   W12
 BYTE   N09
 BYTE   W24
 BYTE   N09
 BYTE   W12
 BYTE   N09
 BYTE   W12
 BYTE   Gn3
 BYTE   W12
 BYTE   Gs3
 BYTE   W12
//  #09 //041   ----------------------------------------
 BYTE   W12
 BYTE   As3  v104
 BYTE   W12
 BYTE   N09
 BYTE   W24
 BYTE   N09
 BYTE   W12
 BYTE   N09
 BYTE   W24
 BYTE   N09
 BYTE   W12
//  #09 //042   ----------------------------------------
 BYTE   W12
 BYTE   Cs4
 BYTE   W12
 BYTE   N36  Ds4
 BYTE   W36
 BYTE   N01  Ds4  v088
 BYTE   W01
 BYTE   Dn4  v084
 BYTE   W02
 BYTE   Cs4  v080
 BYTE   W01
 BYTE   Cn4  v076
 BYTE   W02
 BYTE   Bn3
 BYTE   W01
 BYTE   As3  v064
 BYTE   W02
 BYTE   An3  v060
 BYTE   W24
 BYTE   W03
//  #09 //043   ----------------------------------------
 BYTE   W24
 BYTE   N36  Ds4  v108
 BYTE   W72
//  #09 //044   ----------------------------------------
Label_01F6870C:
 BYTE   W12
 BYTE   N12  As2  v100
 BYTE   W12
 BYTE   Ds3
 BYTE   W12
 BYTE   Gn3
 BYTE   W24
 BYTE   As3
 BYTE   W24
 BYTE   N36  Gs3
 BYTE   W12
 BYTE   PEND 
//  #09 //045   ----------------------------------------
 BYTE   W96
//  #09 //046   ----------------------------------------
Label_01F6871C:
 BYTE   W12
 BYTE   N12  Ds3  v100
 BYTE   W12
 BYTE   Gs3
 BYTE   W12
 BYTE   Cn4
 BYTE   W24
 BYTE   As3
 BYTE   W24
 BYTE   N36  Gs3
 BYTE   W12
 BYTE   PEND 
//  #09 //047   ----------------------------------------
Label_01F6872B:
 BYTE   W60
 BYTE   N06  Fn4  v100
 BYTE   W12
 BYTE   N12
 BYTE   W24
 BYTE   PEND 
//  #09 //048   ----------------------------------------
 BYTE   W60
 BYTE   N06  Ds4  v096
 BYTE   W12
 BYTE   N12  Ds4  v092
 BYTE   W24
//  #09 //049   ----------------------------------------
 BYTE   N24  Cs4
 BYTE   W24
 BYTE   Cn4  v100
 BYTE   W24
 BYTE   As3
 BYTE   W24
 BYTE   Gs3
 BYTE   W24
//  #09 //050   ----------------------------------------
 BYTE   W12
 BYTE   N06  Bn3
 BYTE   W12
 BYTE   N24
 BYTE   W24
 BYTE   N12  As2
 BYTE   W12
 BYTE   Ds3
 BYTE   W12
 BYTE   Gn3
 BYTE   W12
 BYTE   As3
 BYTE   W12
//  #09 //051   ----------------------------------------
 BYTE   W24
 BYTE   N36  Ds4
 BYTE   W72
//  #09 //052   ----------------------------------------
 BYTE   PATT
  POIN2 Label_01F6870C
//  #09 //053   ----------------------------------------
 BYTE   W96
//  #09 //054   ----------------------------------------
 BYTE   PATT
  POIN2 Label_01F6871C
//  #09 //055   ----------------------------------------
 BYTE   PATT
  POIN2 Label_01F6872B
//  #09 //056   ----------------------------------------
 BYTE   W60
 BYTE   N06  Ds4  v100
 BYTE   W12
 BYTE   N12
 BYTE   W24
//  #09 //057   ----------------------------------------
 BYTE   N24  Cs3
 BYTE   W24
 BYTE   Fn3
 BYTE   W24
 BYTE   Gs3
 BYTE   W24
 BYTE   Cs4
 BYTE   W24
//  #09 //058   ----------------------------------------
 BYTE   W12
 BYTE   N12  As3
 BYTE   W36
 BYTE   N06
 BYTE   W12
 BYTE   N24
 BYTE   W36
//  #09 //059   ----------------------------------------
 BYTE   W96
//  #09 //060   ----------------------------------------
 BYTE   W96
//  #09 //061   ----------------------------------------
 BYTE   W96
//  #09 //062   ----------------------------------------
 BYTE   W96
//  #09 //063   ----------------------------------------
 BYTE   W96
//  #09 //064   ----------------------------------------
 BYTE   W96
//  #09 //065   ----------------------------------------
 BYTE   W96
//  #09 //066   ----------------------------------------
 BYTE   W96
//  #09 //067   ----------------------------------------
 BYTE   W96
//  #09 //068   ----------------------------------------
 BYTE   W96
//  #09 //069   ----------------------------------------
 BYTE   W44
 BYTE   GoTo
  POIN2 Label_01F68604
 BYTE   FINE

//**************** Track 10 (Midi-Chn.9) ****************//

ShinySmilyStory_010:
//  #10 //000   ----------------------------------------
 BYTE   KEYSH   ShinySmilyStory_key+0
 BYTE   VOICE   30
 BYTE   MODT 0
 BYTE   LFOS 44
 BYTE   VOL   23*ShinySmilyStory_mvl/mxv
 BYTE   PAN   c_v+13
Label_01F687A0:
 BYTE   W36
 BYTE   W96
//  #10 //001   ----------------------------------------
 BYTE   W96
//  #10 //002   ----------------------------------------
 BYTE   W96
//  #10 //003   ----------------------------------------
 BYTE   W96
//  #10 //004   ----------------------------------------
 BYTE   W96
//  #10 //005   ----------------------------------------
 BYTE   W96
//  #10 //006   ----------------------------------------
 BYTE   W96
//  #10 //007   ----------------------------------------
 BYTE   W96
//  #10 //008   ----------------------------------------
 BYTE   W96
//  #10 //009   ----------------------------------------
 BYTE   W96
//  #10 //010   ----------------------------------------
 BYTE   W96
//  #10 //011   ----------------------------------------
 BYTE   W72
 BYTE   N24  Fn4  v088
 BYTE   W24
//  #10 //012   ----------------------------------------
 BYTE   N48  Ds4
 BYTE   W60
 BYTE   N12
 BYTE   W12
 BYTE   Cs4
 BYTE   W12
 BYTE   Cn4
 BYTE   W12
//  #10 //013   ----------------------------------------
 BYTE   Cs4
 BYTE   W12
 BYTE   Cn4
 BYTE   W12
 BYTE   As3
 BYTE   W12
 BYTE   N60  Gs3
 BYTE   W60
//  #10 //014   ----------------------------------------
 BYTE   W96
//  #10 //015   ----------------------------------------
 BYTE   W48
 BYTE   N12  As2
 BYTE   W12
 BYTE   Ds3
 BYTE   W12
 BYTE   Gn3
 BYTE   W12
 BYTE   As3
 BYTE   W12
//  #10 //016   ----------------------------------------
 BYTE   Cn4
 BYTE   W12
 BYTE   As3
 BYTE   W12
 BYTE   Gn3
 BYTE   W12
 BYTE   N36  En3
 BYTE   W60
//  #10 //017   ----------------------------------------
 BYTE   W96
//  #10 //018   ----------------------------------------
 BYTE   W96
//  #10 //019   ----------------------------------------
 BYTE   W96
//  #10 //020   ----------------------------------------
 BYTE   W96
//  #10 //021   ----------------------------------------
 BYTE   W96
//  #10 //022   ----------------------------------------
 BYTE   W96
//  #10 //023   ----------------------------------------
 BYTE   W96
//  #10 //024   ----------------------------------------
 BYTE   W96
//  #10 //025   ----------------------------------------
 BYTE   W96
//  #10 //026   ----------------------------------------
 BYTE   W96
//  #10 //027   ----------------------------------------
 BYTE   W96
//  #10 //028   ----------------------------------------
 BYTE   W96
//  #10 //029   ----------------------------------------
 BYTE   W96
//  #10 //030   ----------------------------------------
 BYTE   W96
//  #10 //031   ----------------------------------------
 BYTE   W96
//  #10 //032   ----------------------------------------
 BYTE   W96
//  #10 //033   ----------------------------------------
 BYTE   W96
//  #10 //034   ----------------------------------------
 BYTE   W96
//  #10 //035   ----------------------------------------
 BYTE   W96
//  #10 //036   ----------------------------------------
 BYTE   W96
//  #10 //037   ----------------------------------------
 BYTE   W96
//  #10 //038   ----------------------------------------
 BYTE   W96
//  #10 //039   ----------------------------------------
 BYTE   W96
//  #10 //040   ----------------------------------------
 BYTE   W96
//  #10 //041   ----------------------------------------
 BYTE   W96
//  #10 //042   ----------------------------------------
 BYTE   W96
//  #10 //043   ----------------------------------------
 BYTE   W96
//  #10 //044   ----------------------------------------
 BYTE   W96
//  #10 //045   ----------------------------------------
 BYTE   W96
//  #10 //046   ----------------------------------------
 BYTE   W96
//  #10 //047   ----------------------------------------
 BYTE   W96
//  #10 //048   ----------------------------------------
 BYTE   W96
//  #10 //049   ----------------------------------------
 BYTE   W96
//  #10 //050   ----------------------------------------
 BYTE   W96
//  #10 //051   ----------------------------------------
 BYTE   W96
//  #10 //052   ----------------------------------------
 BYTE   W96
//  #10 //053   ----------------------------------------
 BYTE   W96
//  #10 //054   ----------------------------------------
 BYTE   W96
//  #10 //055   ----------------------------------------
 BYTE   W96
//  #10 //056   ----------------------------------------
 BYTE   W96
//  #10 //057   ----------------------------------------
 BYTE   W96
//  #10 //058   ----------------------------------------
 BYTE   W96
//  #10 //059   ----------------------------------------
Label_01F68801:
 BYTE   N12  Fn4  v088
 BYTE   W12
 BYTE   Ds4
 BYTE   W12
 BYTE   Cs4
 BYTE   W12
 BYTE   Ds4
 BYTE   W12
 BYTE   Cs4
 BYTE   W12
 BYTE   Cn4
 BYTE   W12
 BYTE   Cs4
 BYTE   W12
 BYTE   Cn4
 BYTE   W12
 BYTE   PEND 
//  #10 //060   ----------------------------------------
Label_01F68814:
 BYTE   N12  As3  v088
 BYTE   W12
 BYTE   Cn4
 BYTE   W12
 BYTE   As3
 BYTE   W12
 BYTE   Gs3
 BYTE   W12
 BYTE   N06  Ds3
 BYTE   W06
 BYTE   Fn3
 BYTE   W06
 BYTE   Fs3
 BYTE   W06
 BYTE   Gs3
 BYTE   W06
 BYTE   As3
 BYTE   W06
 BYTE   Cn4
 BYTE   W06
 BYTE   Cs4
 BYTE   W06
 BYTE   Ds4
 BYTE   W06
 BYTE   PEND 
//  #10 //061   ----------------------------------------
 BYTE   PATT
  POIN2 Label_01F68801
//  #10 //062   ----------------------------------------
 BYTE   N12  As3  v088
 BYTE   W12
 BYTE   Ds4
 BYTE   W12
 BYTE   Cs4
 BYTE   W12
 BYTE   Cn4
 BYTE   W12
 BYTE   N06  Ds3
 BYTE   W06
 BYTE   Fn3
 BYTE   W06
 BYTE   Fs3
 BYTE   W06
 BYTE   Gs3
 BYTE   W06
 BYTE   As3
 BYTE   W06
 BYTE   Cn4
 BYTE   W06
 BYTE   Cs4
 BYTE   W06
 BYTE   Ds4
 BYTE   W06
//  #10 //063   ----------------------------------------
 BYTE   PATT
  POIN2 Label_01F68801
//  #10 //064   ----------------------------------------
 BYTE   PATT
  POIN2 Label_01F68814
//  #10 //065   ----------------------------------------
 BYTE   N12  Fn4  v088
 BYTE   W12
 BYTE   Ds4
 BYTE   W12
 BYTE   Cs4
 BYTE   W12
 BYTE   Gn4
 BYTE   W12
 BYTE   Fn4
 BYTE   W12
 BYTE   Ds4
 BYTE   W12
 BYTE   Gs4
 BYTE   W12
 BYTE   Gn4
 BYTE   W12
//  #10 //066   ----------------------------------------
 BYTE   Fn4
 BYTE   W12
 BYTE   As4
 BYTE   W12
 BYTE   Gs4
 BYTE   W12
 BYTE   Fn4
 BYTE   W12
 BYTE   N36  Gn4
 BYTE   W36
 BYTE   TIE  Gs4
 BYTE   W12
//  #10 //067   ----------------------------------------
 BYTE   W96
//  #10 //068   ----------------------------------------
 BYTE   W96
//  #10 //069   ----------------------------------------
 BYTE   EOT
 BYTE   W44
 BYTE   GoTo
  POIN2 Label_01F687A0
 BYTE   FINE

//**************** Track 11 (Midi-Chn.10) ****************//

ShinySmilyStory_011:
//  #11 //000   ----------------------------------------
 BYTE   KEYSH   ShinySmilyStory_key+0
 BYTE   VOICE   124
 BYTE   MODT 0
 BYTE   LFOS 44
 BYTE   VOL   40*ShinySmilyStory_mvl/mxv
 BYTE   PAN   c_v+0
Label_01F696B8:
 BYTE   W36
 BYTE   W96
//  #11 //001   ----------------------------------------
 BYTE   W96
//  #11 //002   ----------------------------------------
 BYTE   W96
//  #11 //003   ----------------------------------------
 BYTE   W72
 BYTE   N06  Gn1  v088
 BYTE   N06  Bn1
 BYTE   W24
//  #11 //004   ----------------------------------------
 BYTE   Cn1
 BYTE   N06  An2
 BYTE   W48
 BYTE   Dn1  v008
 BYTE   W12
 BYTE   Dn1  v016
 BYTE   W12
 BYTE   Dn1  v020
 BYTE   W12
 BYTE   Dn1  v024
 BYTE   W12
//  #11 //005   ----------------------------------------
 BYTE   Dn1  v036
 BYTE   W12
 BYTE   Dn1  v048
 BYTE   W12
 BYTE   Dn1  v056
 BYTE   W12
 BYTE   N06
 BYTE   W12
 BYTE   Cn1  v064
 BYTE   N06  Dn1
 BYTE   W12
 BYTE   Cn1  v088
 BYTE   N06  Dn1
 BYTE   W06
 BYTE   Cn1
 BYTE   W06
 BYTE   N06
 BYTE   N06  Cs2
 BYTE   W24
//  #11 //006   ----------------------------------------
 BYTE   N06
 BYTE   W12
 BYTE   Cn1
 BYTE   W12
 BYTE   N06
 BYTE   W12
 BYTE   Cs2
 BYTE   W12
 BYTE   Cn1
 BYTE   W12
 BYTE   N06
 BYTE   W12
 BYTE   Cs2
 BYTE   W12
 BYTE   Cn1
 BYTE   W12
//  #11 //007   ----------------------------------------
 BYTE   N06
 BYTE   W12
 BYTE   N06
 BYTE   N06  Dn1
 BYTE   W12
 BYTE   N03  Cs2  v004
 BYTE   W03
 BYTE   N03
 BYTE   W03
 BYTE   N03
 BYTE   W03
 BYTE   Cs2  v008
 BYTE   W03
 BYTE   N03
 BYTE   W03
 BYTE   N03
 BYTE   W03
 BYTE   Cs2  v012
 BYTE   W03
 BYTE   Cs2  v016
 BYTE   W03
 BYTE   N06  Cn1  v088
 BYTE   N06  Dn1
 BYTE   N03  Cs2  v016
 BYTE   W03
 BYTE   Cs2  v020
 BYTE   W03
 BYTE   Cs2  v024
 BYTE   W03
 BYTE   Cs2  v028
 BYTE   W03
 BYTE   N06  Cn1  v088
 BYTE   N06  Dn1
 BYTE   N03  Cs2  v032
 BYTE   W03
 BYTE   Cs2  v036
 BYTE   W03
 BYTE   Cs2  v040
 BYTE   W03
 BYTE   Cs2  v044
 BYTE   W03
 BYTE   Cs2  v048
 BYTE   W03
 BYTE   Cs2  v052
 BYTE   W03
 BYTE   Cs2  v060
 BYTE   W03
 BYTE   Cs2  v064
 BYTE   W03
 BYTE   Cs2  v068
 BYTE   W03
 BYTE   Cs2  v076
 BYTE   W03
 BYTE   Cs2  v084
 BYTE   W03
 BYTE   Cs2  v088
 BYTE   W03
//  #11 //008   ----------------------------------------
 BYTE   N06  Cn1
 BYTE   N06  Gn1
 BYTE   N06  Cs2
 BYTE   W12
 BYTE   Bn1
 BYTE   W12
 BYTE   Cn1
 BYTE   N06  Dn1
 BYTE   N06  Gn1
 BYTE   W12
 BYTE   Bn1
 BYTE   W12
 BYTE   Cn1
 BYTE   N06  Gn1
 BYTE   W12
 BYTE   Bn1
 BYTE   W12
 BYTE   Cn1
 BYTE   N06  Dn1
 BYTE   N06  Gn1
 BYTE   W12
 BYTE   Bn1
 BYTE   W12
//  #11 //009   ----------------------------------------
Label_01F69774:
 BYTE   N06  Cn1  v088
 BYTE   N06  Gn1
 BYTE   W12
 BYTE   Bn1
 BYTE   W12
 BYTE   Cn1
 BYTE   N06  Dn1
 BYTE   N06  Gn1
 BYTE   W12
 BYTE   Bn1
 BYTE   W12
 BYTE   Cn1
 BYTE   N06  Gn1
 BYTE   W12
 BYTE   Bn1
 BYTE   W12
 BYTE   Cn1
 BYTE   N06  Dn1
 BYTE   N06  Gn1
 BYTE   W12
 BYTE   Bn1
 BYTE   W12
 BYTE   PEND 
//  #11 //010   ----------------------------------------
 BYTE   PATT
  POIN2 Label_01F69774
//  #11 //011   ----------------------------------------
 BYTE   PATT
  POIN2 Label_01F69774
//  #11 //012   ----------------------------------------
 BYTE   PATT
  POIN2 Label_01F69774
//  #11 //013   ----------------------------------------
 BYTE   N06  Cn1  v088
 BYTE   N06  Gn1
 BYTE   W12
 BYTE   Bn1
 BYTE   W12
 BYTE   Cn1
 BYTE   N06  Dn1
 BYTE   N06  Gn1
 BYTE   W12
 BYTE   Bn1
 BYTE   W12
 BYTE   Cn1
 BYTE   N06  Gn1
 BYTE   W12
 BYTE   Bn1
 BYTE   W12
 BYTE   Cn1
 BYTE   N06  Dn1
 BYTE   N06  Cs2
 BYTE   W12
 BYTE   Dn1  v056
 BYTE   N06  Bn1
 BYTE   W06
 BYTE   Dn1  v080
 BYTE   W06
//  #11 //014   ----------------------------------------
 BYTE   Cn1  v088
 BYTE   N06  Cs2
 BYTE   W24
 BYTE   Cn1
 BYTE   N06  Cs2
 BYTE   W24
 BYTE   Cn1
 BYTE   N06  Cs2
 BYTE   W24
 BYTE   Cn1
 BYTE   N06  Cs2
 BYTE   W12
 BYTE   Dn1  v056
 BYTE   W06
 BYTE   Dn1  v080
 BYTE   W06
//  #11 //015   ----------------------------------------
 BYTE   Cn1  v088
 BYTE   N06  Dn1
 BYTE   N06  Cs2
 BYTE   W36
 BYTE   Cn1
 BYTE   W24
 BYTE   N06
 BYTE   N06  Cs2
 BYTE   W12
 BYTE   Dn1
 BYTE   W06
 BYTE   N06
 BYTE   W06
 BYTE   N06
 BYTE   W12
//  #11 //016   ----------------------------------------
 BYTE   Cn1
 BYTE   N06  An2
 BYTE   W24
 BYTE   Cs2
 BYTE   W12
 BYTE   Cn1
 BYTE   N06  An2
 BYTE   W24
 BYTE   Cn1
 BYTE   W12
 BYTE   Dn1
 BYTE   N06  Cs2
 BYTE   W12
 BYTE   Dn1
 BYTE   W06
 BYTE   N06
 BYTE   W06
//  #11 //017   ----------------------------------------
 BYTE   Cn1
 BYTE   N06  Cs2
 BYTE   W24
 BYTE   Cn1
 BYTE   N06  Gn1
 BYTE   W24
 BYTE   Cn1
 BYTE   N06  Gn1
 BYTE   W24
 BYTE   Cn1
 BYTE   N06  Gn1
 BYTE   W24
//  #11 //018   ----------------------------------------
 BYTE   Cn1
 BYTE   N06  Gn1
 BYTE   W24
 BYTE   Cn1
 BYTE   N06  Gn1
 BYTE   W24
 BYTE   Cn1
 BYTE   N06  Gn1
 BYTE   W24
 BYTE   Cn1
 BYTE   N06  Gn1
 BYTE   W12
 BYTE   N06
 BYTE   W06
 BYTE   N06
 BYTE   W06
//  #11 //019   ----------------------------------------
Label_01F69828:
 BYTE   N06  Cn1  v088
 BYTE   N06  Gn1
 BYTE   W12
 BYTE   N06
 BYTE   W12
 BYTE   Cn1
 BYTE   N06  Gn1
 BYTE   W12
 BYTE   N06
 BYTE   W12
 BYTE   Cn1
 BYTE   N06  Gn1
 BYTE   W12
 BYTE   N06
 BYTE   W12
 BYTE   Cn1
 BYTE   N06  Gn1
 BYTE   W12
 BYTE   N06
 BYTE   W12
 BYTE   PEND 
//  #11 //020   ----------------------------------------
 BYTE   Cn1
 BYTE   N06  Gn1
 BYTE   W12
 BYTE   N06
 BYTE   W12
 BYTE   Cn1
 BYTE   N06  Gn1
 BYTE   W12
 BYTE   N06
 BYTE   W06
 BYTE   N06
 BYTE   W06
 BYTE   Cn1
 BYTE   N06  Gn1
 BYTE   W12
 BYTE   Dn1
 BYTE   N06  Bn1
 BYTE   W12
 BYTE   Cn1
 BYTE   N06  Gn1
 BYTE   W12
 BYTE   Dn1
 BYTE   N06  Bn1
 BYTE   W12
//  #11 //021   ----------------------------------------
 BYTE   PATT
  POIN2 Label_01F69828
//  #11 //022   ----------------------------------------
 BYTE   N06  Cn1  v088
 BYTE   N06  Gn1
 BYTE   W12
 BYTE   N06
 BYTE   W12
 BYTE   Cn1
 BYTE   N06  Gn1
 BYTE   N06  Bn1
 BYTE   W12
 BYTE   Gn1
 BYTE   W12
 BYTE   Cn1
 BYTE   N06  Gn1
 BYTE   N06  Bn1
 BYTE   W12
 BYTE   Dn1
 BYTE   N06  Gn1
 BYTE   W12
 BYTE   Cn1
 BYTE   N06  Gn1
 BYTE   N06  Bn1
 BYTE   W12
 BYTE   Dn1
 BYTE   N06  Gn1
 BYTE   W06
 BYTE   Dn1
 BYTE   W06
//  #11 //023   ----------------------------------------
 BYTE   Cn1
 BYTE   N06  An2
 BYTE   W24
 BYTE   Cn1
 BYTE   N06  Cs2
 BYTE   W24
 BYTE   Cn1
 BYTE   N06  An2
 BYTE   W24
 BYTE   Cn1
 BYTE   N06  Cs2
 BYTE   W24
//  #11 //024   ----------------------------------------
 BYTE   Cn1
 BYTE   N06  Dn2
 BYTE   W12
 BYTE   Cn1
 BYTE   N06  Bn1
 BYTE   W12
 BYTE   An1
 BYTE   W12
 BYTE   Cn1
 BYTE   N06  Gn1
 BYTE   N06  Bn1
 BYTE   W24
 BYTE   Cn1
 BYTE   N06  An2
 BYTE   W12
 BYTE   Dn1
 BYTE   W06
 BYTE   N06
 BYTE   W06
 BYTE   N06
 BYTE   W12
//  #11 //025   ----------------------------------------
 BYTE   Cn1
 BYTE   N06  An2
 BYTE   W12
 BYTE   Gn1
 BYTE   W12
 BYTE   Cn1
 BYTE   N06  Dn1
 BYTE   N06  Gn1
 BYTE   W12
 BYTE   N06
 BYTE   W12
 BYTE   Cn1
 BYTE   N06  Gn1
 BYTE   W12
 BYTE   N06
 BYTE   W12
 BYTE   Cn1
 BYTE   N06  Dn1
 BYTE   N06  Gn1
 BYTE   W12
 BYTE   N06
 BYTE   W12
//  #11 //026   ----------------------------------------
 BYTE   Cn1
 BYTE   N06  Gn1
 BYTE   W12
 BYTE   N06
 BYTE   W12
 BYTE   Cn1
 BYTE   N06  Dn1
 BYTE   N06  Gn1
 BYTE   W12
 BYTE   N06
 BYTE   W12
 BYTE   Cn1
 BYTE   N06  Gn1
 BYTE   W12
 BYTE   N06
 BYTE   W12
 BYTE   Cn1
 BYTE   N06  Dn1
 BYTE   N06  Gn1
 BYTE   W12
 BYTE   N06
 BYTE   W06
 BYTE   N06
 BYTE   W06
//  #11 //027   ----------------------------------------
 BYTE   Cn1
 BYTE   N06  Gn1
 BYTE   W12
 BYTE   N06
 BYTE   W12
 BYTE   Cn1
 BYTE   N06  Dn1
 BYTE   N06  Gn1
 BYTE   W12
 BYTE   N06
 BYTE   W12
 BYTE   Cn1
 BYTE   N06  Gn1
 BYTE   W12
 BYTE   N06
 BYTE   W12
 BYTE   Cn1
 BYTE   N06  Dn1
 BYTE   N06  Gn1
 BYTE   W12
 BYTE   N06
 BYTE   W12
//  #11 //028   ----------------------------------------
 BYTE   Cn1
 BYTE   N06  Gn1
 BYTE   W12
 BYTE   N06
 BYTE   W12
 BYTE   Cn1
 BYTE   N06  Dn1
 BYTE   N06  Gn1
 BYTE   W12
 BYTE   N06
 BYTE   W12
 BYTE   Cn1
 BYTE   N06  Gn1
 BYTE   W12
 BYTE   N06
 BYTE   N06  Dn2
 BYTE   W12
 BYTE   Cn1
 BYTE   N06  Bn1
 BYTE   W06
 BYTE   Gn1
 BYTE   W06
 BYTE   Fn1
 BYTE   W12
//  #11 //029   ----------------------------------------
 BYTE   Cn1
 BYTE   N06  Cs2
 BYTE   W24
 BYTE   Cn1
 BYTE   N06  Dn1
 BYTE   N06  Gn1
 BYTE   W12
 BYTE   N06
 BYTE   W12
 BYTE   Cn1
 BYTE   N06  Gn1
 BYTE   W12
 BYTE   N06
 BYTE   W12
 BYTE   Cn1
 BYTE   N06  Dn1
 BYTE   N06  Gn1
 BYTE   W12
 BYTE   N06
 BYTE   W12
//  #11 //030   ----------------------------------------
 BYTE   Cn1
 BYTE   N06  Gn1
 BYTE   W12
 BYTE   N06
 BYTE   W06
 BYTE   N06
 BYTE   W06
 BYTE   Cn1
 BYTE   N06  Dn1
 BYTE   N06  Gn1
 BYTE   W12
 BYTE   N06
 BYTE   W12
 BYTE   Cn1
 BYTE   N06  Gn1
 BYTE   W12
 BYTE   N06
 BYTE   W12
 BYTE   Cn1
 BYTE   N06  Dn1
 BYTE   N06  Bn1
 BYTE   W12
 BYTE   Dn1  v044
 BYTE   W06
 BYTE   Dn1  v068
 BYTE   W06
//  #11 //031   ----------------------------------------
 BYTE   Cn1  v088
 BYTE   N06  Dn1  v084
 BYTE   W12
 BYTE   Dn2  v088
 BYTE   W06
 BYTE   Bn1
 BYTE   W06
 BYTE   Gn1
 BYTE   W12
 BYTE   Cn1
 BYTE   N06  Dn1
 BYTE   N06  Bn1
 BYTE   W24
 BYTE   Cn1
 BYTE   N06  Dn1
 BYTE   N06  Bn1
 BYTE   W24
 BYTE   Cn1
 BYTE   N06  An2
 BYTE   W12
//  #11 //032   ----------------------------------------
 BYTE   W12
 BYTE   Cn1
 BYTE   W12
 BYTE   Dn1
 BYTE   N06  Cs2
 BYTE   W12
 BYTE   Dn1
 BYTE   W12
 BYTE   Cn1
 BYTE   W24
 BYTE   Dn1
 BYTE   N06  Bn1
 BYTE   W12
 BYTE   Dn1  v064
 BYTE   W06
 BYTE   Dn1  v088
 BYTE   W06
//  #11 //033   ----------------------------------------
 BYTE   Cn1
 BYTE   N06  Gn2
 BYTE   W24
 BYTE   Bn1
 BYTE   W12
 BYTE   Cn1
 BYTE   W12
 BYTE   Dn1
 BYTE   N06  Bn1
 BYTE   W24
 BYTE   N06
 BYTE   W12
 BYTE   Cn1
 BYTE   W12
//  #11 //034   ----------------------------------------
 BYTE   Bn1
 BYTE   W12
 BYTE   Cn1
 BYTE   W12
 BYTE   Bn1
 BYTE   W12
 BYTE   Cn1
 BYTE   W12
 BYTE   Dn1
 BYTE   N06  Bn1
 BYTE   W24
 BYTE   N06
 BYTE   W12
 BYTE   Cn1
 BYTE   W06
 BYTE   N06
 BYTE   W06
//  #11 //035   ----------------------------------------
 BYTE   N06
 BYTE   N06  Bn1
 BYTE   W12
 BYTE   Dn1
 BYTE   W12
 BYTE   Bn1
 BYTE   W12
 BYTE   Cn1
 BYTE   W12
 BYTE   Dn1
 BYTE   N06  Bn1
 BYTE   W24
 BYTE   N06
 BYTE   W12
 BYTE   Cn1
 BYTE   W12
//  #11 //036   ----------------------------------------
 BYTE   Bn1
 BYTE   W12
 BYTE   Cn1
 BYTE   W12
 BYTE   Bn1
 BYTE   W12
 BYTE   Cn1
 BYTE   W12
 BYTE   Dn1
 BYTE   N06  Bn1
 BYTE   W12
 BYTE   Cn1
 BYTE   W12
 BYTE   Bn1
 BYTE   W12
 BYTE   Cn1
 BYTE   N06  Cs2
 BYTE   W12
//  #11 //037   ----------------------------------------
 BYTE   W12
 BYTE   Dn1  v036
 BYTE   N06  Bn1
 BYTE   W12
 BYTE   Dn1  v040
 BYTE   N06  Bn1
 BYTE   W12
 BYTE   Dn1
 BYTE   N06  Bn1
 BYTE   W12
 BYTE   N06
 BYTE   W12
 BYTE   Cn1  v088
 BYTE   N06  Ds1
 BYTE   W12
 BYTE   N06
 BYTE   W12
 BYTE   Cn1
 BYTE   N06  Cs2
 BYTE   W12
//  #11 //038   ----------------------------------------
 BYTE   W12
 BYTE   Dn1  v036
 BYTE   N06  Bn1
 BYTE   W12
 BYTE   Dn1  v040
 BYTE   N06  Bn1
 BYTE   W12
 BYTE   Dn1
 BYTE   N06  Bn1
 BYTE   W12
 BYTE   Dn1
 BYTE   N06  Bn1
 BYTE   W12
 BYTE   Cn1  v088
 BYTE   N06  Ds1
 BYTE   W12
 BYTE   N06
 BYTE   W12
 BYTE   Cn1
 BYTE   N06  Cs2
 BYTE   W12
//  #11 //039   ----------------------------------------
 BYTE   W12
 BYTE   Cn1
 BYTE   W12
 BYTE   N06
 BYTE   N06  Fs1
 BYTE   N06  Bn1  v040
 BYTE   W24
 BYTE   Cn1  v088
 BYTE   N06  Fs1
 BYTE   N06  Bn1  v040
 BYTE   W24
 BYTE   Cn1  v088
 BYTE   N06  Bn1  v068
 BYTE   W24
//  #11 //040   ----------------------------------------
 BYTE   Cn1  v088
 BYTE   N06  Bn1
 BYTE   W24
 BYTE   Cn1
 BYTE   N06  Bn1
 BYTE   W24
 BYTE   Cn1
 BYTE   N06  Bn1
 BYTE   W24
 BYTE   Cn1
 BYTE   N06  Bn1
 BYTE   N06  Cs2
 BYTE   W24
//  #11 //041   ----------------------------------------
 BYTE   W12
 BYTE   Cn1
 BYTE   N03  Bn1  v004
 BYTE   N72  En2  v088
 BYTE   W03
 BYTE   N03  Bn1  v004
 BYTE   W03
 BYTE   N03
 BYTE   W03
 BYTE   Bn1  v008
 BYTE   W03
 BYTE   N06  Cn1  v088
 BYTE   N03  Bn1  v008
 BYTE   W03
 BYTE   N03
 BYTE   W03
 BYTE   Bn1  v012
 BYTE   W03
 BYTE   Bn1  v016
 BYTE   W03
 BYTE   N03
 BYTE   W03
 BYTE   Bn1  v020
 BYTE   W03
 BYTE   Bn1  v024
 BYTE   W03
 BYTE   Bn1  v028
 BYTE   W03
 BYTE   N06  Cn1  v088
 BYTE   N03  Bn1  v032
 BYTE   W03
 BYTE   Bn1  v036
 BYTE   W03
 BYTE   Bn1  v040
 BYTE   W03
 BYTE   Bn1  v044
 BYTE   W03
 BYTE   N06  Cn1  v088
 BYTE   N03  Bn1  v048
 BYTE   W03
 BYTE   Bn1  v052
 BYTE   W03
 BYTE   Bn1  v060
 BYTE   W03
 BYTE   Bn1  v064
 BYTE   W03
 BYTE   Bn1  v068
 BYTE   W03
 BYTE   Bn1  v076
 BYTE   W03
 BYTE   Bn1  v084
 BYTE   W03
 BYTE   Bn1  v088
 BYTE   W03
 BYTE   N06  Cn1
 BYTE   N06  Bn1
 BYTE   W12
//  #11 //042   ----------------------------------------
 BYTE   W12
 BYTE   Cn1
 BYTE   W12
 BYTE   N06
 BYTE   N06  Cs2
 BYTE   W24
 BYTE   Dn1
 BYTE   W24
 BYTE   Dn1  v032
 BYTE   W12
 BYTE   Dn1  v052
 BYTE   W06
 BYTE   Dn1  v080
 BYTE   W06
//  #11 //043   ----------------------------------------
 BYTE   Cn1  v088
 BYTE   N06  Fs1
 BYTE   N06  An2
 BYTE   W12
 BYTE   Bn1
 BYTE   W12
 BYTE   Cn1
 BYTE   N06  Dn1
 BYTE   N06  Fs1
 BYTE   W12
 BYTE   Bn1
 BYTE   W12
 BYTE   Cn1
 BYTE   N06  Fs1
 BYTE   W12
 BYTE   Bn1
 BYTE   W12
 BYTE   Cn1
 BYTE   N06  Dn1
 BYTE   N06  Fs1
 BYTE   W12
 BYTE   Bn1
 BYTE   W12
//  #11 //044   ----------------------------------------
Label_01F69AD3:
 BYTE   N06  Cn1  v088
 BYTE   N06  Fs1
 BYTE   W12
 BYTE   Bn1
 BYTE   W12
 BYTE   Cn1
 BYTE   N06  Dn1
 BYTE   N06  Fs1
 BYTE   W12
 BYTE   Bn1
 BYTE   W12
 BYTE   Cn1
 BYTE   N06  Fs1
 BYTE   W12
 BYTE   Bn1
 BYTE   W12
 BYTE   Cn1
 BYTE   N06  Dn1
 BYTE   N06  Fs1
 BYTE   W12
 BYTE   Bn1
 BYTE   W12
 BYTE   PEND 
//  #11 //045   ----------------------------------------
 BYTE   PATT
  POIN2 Label_01F69AD3
//  #11 //046   ----------------------------------------
 BYTE   PATT
  POIN2 Label_01F69AD3
//  #11 //047   ----------------------------------------
Label_01F69AFC:
 BYTE   N06  Cn1  v088
 BYTE   N06  Fs1
 BYTE   W12
 BYTE   Bn1
 BYTE   W12
 BYTE   Cn1
 BYTE   N06  Dn1
 BYTE   N06  Fs1
 BYTE   W12
 BYTE   Bn1
 BYTE   W12
 BYTE   Cn1
 BYTE   N06  Fs1
 BYTE   W12
 BYTE   Ds1  v116
 BYTE   N06  Bn1  v088
 BYTE   W12
 BYTE   Cn1
 BYTE   N06  Dn1
 BYTE   N06  Ds1  v116
 BYTE   N06  Fs1  v088
 BYTE   W12
 BYTE   Bn1
 BYTE   W12
 BYTE   PEND 
//  #11 //048   ----------------------------------------
 BYTE   PATT
  POIN2 Label_01F69AFC
//  #11 //049   ----------------------------------------
 BYTE   N06  Cn1  v088
 BYTE   N06  Cs2
 BYTE   W24
 BYTE   Cn1
 BYTE   N06  Cs2
 BYTE   W24
 BYTE   Cn1
 BYTE   N06  Cs2
 BYTE   W24
 BYTE   Cn1
 BYTE   N06  Cs2
 BYTE   W12
 BYTE   Dn1  v056
 BYTE   W06
 BYTE   N06
 BYTE   W06
//  #11 //050   ----------------------------------------
 BYTE   Cn1  v088
 BYTE   W12
 BYTE   Dn1
 BYTE   N06  Gn2
 BYTE   W12
 BYTE   Dn1
 BYTE   N06  Gn2
 BYTE   W12
 BYTE   Cn1
 BYTE   N06  Fs1
 BYTE   W12
 BYTE   Cn1
 BYTE   N06  Fs1
 BYTE   W12
 BYTE   Bn1
 BYTE   W12
 BYTE   Dn1
 BYTE   N06  Cs2
 BYTE   W12
 BYTE   Dn1
 BYTE   W06
 BYTE   N06
 BYTE   W06
//  #11 //051   ----------------------------------------
 BYTE   Cn1
 BYTE   N06  Dn1
 BYTE   N06  Fs1
 BYTE   N12  Cs2
 BYTE   W12
 BYTE   Bn1
 BYTE   W12
 BYTE   Cn1
 BYTE   N06  Dn1
 BYTE   N06  Fs1
 BYTE   W12
 BYTE   Bn1
 BYTE   W12
 BYTE   Cn1
 BYTE   N06  Fs1
 BYTE   W12
 BYTE   Bn1
 BYTE   W12
 BYTE   Cn1
 BYTE   N06  Dn1
 BYTE   N06  Fs1
 BYTE   W12
 BYTE   Bn1
 BYTE   W12
//  #11 //052   ----------------------------------------
 BYTE   PATT
  POIN2 Label_01F69AD3
//  #11 //053   ----------------------------------------
 BYTE   PATT
  POIN2 Label_01F69AD3
//  #11 //054   ----------------------------------------
 BYTE   PATT
  POIN2 Label_01F69AD3
//  #11 //055   ----------------------------------------
 BYTE   PATT
  POIN2 Label_01F69AFC
//  #11 //056   ----------------------------------------
 BYTE   PATT
  POIN2 Label_01F69AFC
//  #11 //057   ----------------------------------------
 BYTE   N06  Cn1  v088
 BYTE   N06  Dn1  v020
 BYTE   N24  Cs2  v088
 BYTE   W24
 BYTE   Cn1
 BYTE   N06  Dn1  v024
 BYTE   N06  Bn1  v020
 BYTE   W12
 BYTE   Dn1  v024
 BYTE   W12
 BYTE   Cn1  v088
 BYTE   N06  Dn1  v028
 BYTE   N06  Bn1  v048
 BYTE   W12
 BYTE   Dn1  v040
 BYTE   W12
 BYTE   Cn1  v088
 BYTE   N06  Dn1  v052
 BYTE   N06  Bn1  v084
 BYTE   W12
 BYTE   Dn1  v068
 BYTE   W12
//  #11 //058   ----------------------------------------
 BYTE   W12
 BYTE   Cn1  v088
 BYTE   N06  Dn1
 BYTE   N06  Gn2
 BYTE   W12
 BYTE   N03  Cs2  v004
 BYTE   W03
 BYTE   N03
 BYTE   W03
 BYTE   N03
 BYTE   W03
 BYTE   Cs2  v008
 BYTE   W03
 BYTE   N06  Dn1  v012
 BYTE   N06  Cs2  v008
 BYTE   W03
 BYTE   N03
 BYTE   W03
 BYTE   N06  Dn1  v024
 BYTE   N06  Cs2  v012
 BYTE   W03
 BYTE   Cs2  v016
 BYTE   W03
 BYTE   N06  Cn1  v084
 BYTE   N06  Dn1
 BYTE   N06  Cs2  v016
 BYTE   W03
 BYTE   Cs2  v020
 BYTE   W03
 BYTE   Cs2  v024
 BYTE   W03
 BYTE   Cs2  v028
 BYTE   W03
 BYTE   N06  Cn1  v088
 BYTE   N06  Dn1
 BYTE   N06  Cs2  v032
 BYTE   W03
 BYTE   Cs2  v036
 BYTE   W03
 BYTE   Cs2  v040
 BYTE   W03
 BYTE   Cs2  v044
 BYTE   W03
 BYTE   N06  Dn1  v088
 BYTE   N06  Cs2  v048
 BYTE   W03
 BYTE   Cs2  v052
 BYTE   W03
 BYTE   Cs2  v060
 BYTE   W03
 BYTE   Cs2  v064
 BYTE   W03
 BYTE   N06  Dn1  v088
 BYTE   N06  Cs2  v068
 BYTE   W03
 BYTE   Cs2  v076
 BYTE   W03
 BYTE   N06  Dn1  v088
 BYTE   N06  Cs2  v084
 BYTE   W03
 BYTE   Cs2  v088
 BYTE   W03
//  #11 //059   ----------------------------------------
Label_01F69C30:
 BYTE   N06  Dn1  v088
 BYTE   N06  An2
 BYTE   W12
 BYTE   Cn1
 BYTE   W12
 BYTE   N06
 BYTE   W12
 BYTE   Dn1
 BYTE   N06  An2
 BYTE   W12
 BYTE   Cn1
 BYTE   W12
 BYTE   N06
 BYTE   W12
 BYTE   Dn1
 BYTE   N06  An2
 BYTE   W12
 BYTE   Cn1
 BYTE   W12
 BYTE   PEND 
//  #11 //060   ----------------------------------------
Label_01F69C49:
 BYTE   N06  Cn1  v088
 BYTE   W12
 BYTE   Dn1
 BYTE   N06  An2
 BYTE   W12
 BYTE   Cn1
 BYTE   W12
 BYTE   N06
 BYTE   W12
 BYTE   Dn1
 BYTE   N06  An2
 BYTE   W12
 BYTE   Cn1
 BYTE   W12
 BYTE   Dn1
 BYTE   N06  An2
 BYTE   W12
 BYTE   Cn1
 BYTE   W12
 BYTE   PEND 
//  #11 //061   ----------------------------------------
 BYTE   PATT
  POIN2 Label_01F69C30
//  #11 //062   ----------------------------------------
 BYTE   PATT
  POIN2 Label_01F69C49
//  #11 //063   ----------------------------------------
 BYTE   PATT
  POIN2 Label_01F69C30
//  #11 //064   ----------------------------------------
 BYTE   PATT
  POIN2 Label_01F69C49
//  #11 //065   ----------------------------------------
 BYTE   PATT
  POIN2 Label_01F69C30
//  #11 //066   ----------------------------------------
 BYTE   N06  Cn1  v088
 BYTE   W12
 BYTE   Dn1
 BYTE   N06  An2
 BYTE   W12
 BYTE   Cn1
 BYTE   W12
 BYTE   N06
 BYTE   W12
 BYTE   Dn1
 BYTE   N06  An2
 BYTE   W12
 BYTE   Cn1
 BYTE   W12
 BYTE   Dn1
 BYTE   N06  An2
 BYTE   W12
 BYTE   Cn1
 BYTE   N06  Gn2
 BYTE   W12
//  #11 //067   ----------------------------------------
 BYTE   W96
//  #11 //068   ----------------------------------------
 BYTE   W96
//  #11 //069   ----------------------------------------
 BYTE   W44
 BYTE   GoTo
  POIN2 Label_01F696B8
 BYTE   FINE

//**************** Track 12 (Midi-Chn.11) ****************//

ShinySmilyStory_012:
//  #12 //000   ----------------------------------------
 BYTE   KEYSH   ShinySmilyStory_key+0
 BYTE   VOICE   1
 BYTE   MODT 0
 BYTE   LFOS 44
 BYTE   VOL   23*ShinySmilyStory_mvl/mxv
 BYTE   PAN   c_v+28
Label_01F691E0:
 BYTE   W36
 BYTE   W96
//  #12 //001   ----------------------------------------
 BYTE   W96
//  #12 //002   ----------------------------------------
 BYTE   W96
//  #12 //003   ----------------------------------------
 BYTE   W96
//  #12 //004   ----------------------------------------
 BYTE   W96
//  #12 //005   ----------------------------------------
 BYTE   W96
//  #12 //006   ----------------------------------------
 BYTE   W96
//  #12 //007   ----------------------------------------
 BYTE   W96
//  #12 //008   ----------------------------------------
 BYTE   W96
//  #12 //009   ----------------------------------------
 BYTE   W96
//  #12 //010   ----------------------------------------
 BYTE   W96
//  #12 //011   ----------------------------------------
 BYTE   W96
//  #12 //012   ----------------------------------------
 BYTE   W96
//  #12 //013   ----------------------------------------
 BYTE   W96
//  #12 //014   ----------------------------------------
 BYTE   W96
//  #12 //015   ----------------------------------------
 BYTE   W96
//  #12 //016   ----------------------------------------
 BYTE   W96
//  #12 //017   ----------------------------------------
 BYTE   W96
//  #12 //018   ----------------------------------------
 BYTE   W96
//  #12 //019   ----------------------------------------
 BYTE   W96
//  #12 //020   ----------------------------------------
 BYTE   W96
//  #12 //021   ----------------------------------------
 BYTE   W96
//  #12 //022   ----------------------------------------
 BYTE   W96
//  #12 //023   ----------------------------------------
 BYTE   W96
//  #12 //024   ----------------------------------------
 BYTE   W96
//  #12 //025   ----------------------------------------
 BYTE   W96
//  #12 //026   ----------------------------------------
 BYTE   W96
//  #12 //027   ----------------------------------------
 BYTE   W96
//  #12 //028   ----------------------------------------
 BYTE   W96
//  #12 //029   ----------------------------------------
 BYTE   W96
//  #12 //030   ----------------------------------------
 BYTE   W96
//  #12 //031   ----------------------------------------
 BYTE   W92
 BYTE   W03
 BYTE   VOL   0*ShinySmilyStory_mvl/mxv
 BYTE   W01
//  #12 //032   ----------------------------------------
 BYTE   VOL   0*ShinySmilyStory_mvl/mxv
 BYTE   N06  Fn4  v108
 BYTE   W01
 BYTE   VOL   0*ShinySmilyStory_mvl/mxv
 BYTE   W01
 BYTE   VOL   0*ShinySmilyStory_mvl/mxv
 BYTE   W01
 BYTE   VOL   0*ShinySmilyStory_mvl/mxv
 BYTE   W01
 BYTE   VOL   0*ShinySmilyStory_mvl/mxv
 BYTE   W01
 BYTE   VOL   0*ShinySmilyStory_mvl/mxv
 BYTE   W01
 BYTE   VOL   0*ShinySmilyStory_mvl/mxv
 BYTE   N06  An4
 BYTE   W01
 BYTE   VOL   0*ShinySmilyStory_mvl/mxv
 BYTE   W01
 BYTE   VOL   0*ShinySmilyStory_mvl/mxv
 BYTE   W01
 BYTE   VOL   0*ShinySmilyStory_mvl/mxv
 BYTE   W01
 BYTE   VOL   0*ShinySmilyStory_mvl/mxv
 BYTE   W01
 BYTE   VOL   2*ShinySmilyStory_mvl/mxv
 BYTE   W01
 BYTE   VOL   4*ShinySmilyStory_mvl/mxv
 BYTE   N06  Cn5
 BYTE   W01
 BYTE   VOL   5*ShinySmilyStory_mvl/mxv
 BYTE   W01
 BYTE   VOL   7*ShinySmilyStory_mvl/mxv
 BYTE   W01
 BYTE   VOL   8*ShinySmilyStory_mvl/mxv
 BYTE   W01
 BYTE   VOL   10*ShinySmilyStory_mvl/mxv
 BYTE   W01
 BYTE   VOL   12*ShinySmilyStory_mvl/mxv
 BYTE   W01
 BYTE   VOL   14*ShinySmilyStory_mvl/mxv
 BYTE   N06  Fn5
 BYTE   W01
 BYTE   VOL   16*ShinySmilyStory_mvl/mxv
 BYTE   W01
 BYTE   VOL   19*ShinySmilyStory_mvl/mxv
 BYTE   W01
 BYTE   VOL   21*ShinySmilyStory_mvl/mxv
 BYTE   W01
 BYTE   VOL   22*ShinySmilyStory_mvl/mxv
 BYTE   W02
 BYTE   VOL   8*ShinySmilyStory_mvl/mxv
 BYTE   N06  Cn5
 BYTE   W01
 BYTE   VOL   12*ShinySmilyStory_mvl/mxv
 BYTE   W01
 BYTE   VOL   22*ShinySmilyStory_mvl/mxv
 BYTE   W01
 BYTE   VOL   10*ShinySmilyStory_mvl/mxv
 BYTE   W03
 BYTE   N06  Fn5
 BYTE   W06
 BYTE   An5
 BYTE   W06
 BYTE   Cn6
 BYTE   W06
 BYTE   Fn4
 BYTE   W06
 BYTE   An4
 BYTE   W06
 BYTE   Fn4
 BYTE   W06
 BYTE   An4
 BYTE   W06
 BYTE   Cn5
 BYTE   W06
 BYTE   Fn5
 BYTE   W06
 BYTE   An5
 BYTE   W06
 BYTE   Cn6
 BYTE   W04
 BYTE   VOL   23*ShinySmilyStory_mvl/mxv
 BYTE   W01
 BYTE   VOL   0*ShinySmilyStory_mvl/mxv
 BYTE   W01
//  #12 //033   ----------------------------------------
 BYTE   N06  Cn5
 BYTE   W01
 BYTE   VOL   0*ShinySmilyStory_mvl/mxv
 BYTE   W01
 BYTE   VOL   0*ShinySmilyStory_mvl/mxv
 BYTE   W01
 BYTE   VOL   0*ShinySmilyStory_mvl/mxv
 BYTE   W03
 BYTE   VOL   0*ShinySmilyStory_mvl/mxv
 BYTE   N06  En5
 BYTE   W02
 BYTE   VOL   0*ShinySmilyStory_mvl/mxv
 BYTE   W01
 BYTE   VOL   0*ShinySmilyStory_mvl/mxv
 BYTE   W02
 BYTE   VOL   0*ShinySmilyStory_mvl/mxv
 BYTE   W01
 BYTE   N06  An5
 BYTE   W01
 BYTE   VOL   0*ShinySmilyStory_mvl/mxv
 BYTE   W01
 BYTE   VOL   0*ShinySmilyStory_mvl/mxv
 BYTE   W01
 BYTE   VOL   0*ShinySmilyStory_mvl/mxv
 BYTE   W01
 BYTE   VOL   0*ShinySmilyStory_mvl/mxv
 BYTE   W02
 BYTE   VOL   0*ShinySmilyStory_mvl/mxv
 BYTE   N06  Cn6
 BYTE   W01
 BYTE   VOL   0*ShinySmilyStory_mvl/mxv
 BYTE   W01
 BYTE   VOL   0*ShinySmilyStory_mvl/mxv
 BYTE   W01
 BYTE   VOL   0*ShinySmilyStory_mvl/mxv
 BYTE   W01
 BYTE   VOL   0*ShinySmilyStory_mvl/mxv
 BYTE   W01
 BYTE   VOL   0*ShinySmilyStory_mvl/mxv
 BYTE   W01
 BYTE   VOL   0*ShinySmilyStory_mvl/mxv
 BYTE   N06  Cn5
 BYTE   W01
 BYTE   VOL   0*ShinySmilyStory_mvl/mxv
 BYTE   W01
 BYTE   VOL   0*ShinySmilyStory_mvl/mxv
 BYTE   W01
 BYTE   VOL   0*ShinySmilyStory_mvl/mxv
 BYTE   W01
 BYTE   VOL   0*ShinySmilyStory_mvl/mxv
 BYTE   W01
 BYTE   VOL   0*ShinySmilyStory_mvl/mxv
 BYTE   W01
 BYTE   VOL   0*ShinySmilyStory_mvl/mxv
 BYTE   N06  En5
 BYTE   W01
 BYTE   VOL   0*ShinySmilyStory_mvl/mxv
 BYTE   W01
 BYTE   VOL   0*ShinySmilyStory_mvl/mxv
 BYTE   W01
 BYTE   VOL   0*ShinySmilyStory_mvl/mxv
 BYTE   W01
 BYTE   VOL   0*ShinySmilyStory_mvl/mxv
 BYTE   W01
 BYTE   VOL   0*ShinySmilyStory_mvl/mxv
 BYTE   W01
 BYTE   VOL   0*ShinySmilyStory_mvl/mxv
 BYTE   N06  An5
 BYTE   W01
 BYTE   VOL   0*ShinySmilyStory_mvl/mxv
 BYTE   W01
 BYTE   VOL   0*ShinySmilyStory_mvl/mxv
 BYTE   W01
 BYTE   VOL   0*ShinySmilyStory_mvl/mxv
 BYTE   W01
 BYTE   VOL   0*ShinySmilyStory_mvl/mxv
 BYTE   W01
 BYTE   VOL   0*ShinySmilyStory_mvl/mxv
 BYTE   W01
 BYTE   VOL   0*ShinySmilyStory_mvl/mxv
 BYTE   N06  Cn6
 BYTE   W01
 BYTE   VOL   0*ShinySmilyStory_mvl/mxv
 BYTE   W01
 BYTE   VOL   0*ShinySmilyStory_mvl/mxv
 BYTE   W01
 BYTE   VOL   0*ShinySmilyStory_mvl/mxv
 BYTE   W01
 BYTE   VOL   0*ShinySmilyStory_mvl/mxv
 BYTE   W02
 BYTE   VOL   23*ShinySmilyStory_mvl/mxv
 BYTE   W48
//  #12 //034   ----------------------------------------
 BYTE   W96
//  #12 //035   ----------------------------------------
 BYTE   W96
//  #12 //036   ----------------------------------------
 BYTE   W96
//  #12 //037   ----------------------------------------
 BYTE   W96
//  #12 //038   ----------------------------------------
 BYTE   W96
//  #12 //039   ----------------------------------------
 BYTE   W96
//  #12 //040   ----------------------------------------
 BYTE   W96
//  #12 //041   ----------------------------------------
 BYTE   W96
//  #12 //042   ----------------------------------------
 BYTE   W96
//  #12 //043   ----------------------------------------
 BYTE   W96
//  #12 //044   ----------------------------------------
 BYTE   W96
//  #12 //045   ----------------------------------------
 BYTE   W96
//  #12 //046   ----------------------------------------
 BYTE   W96
//  #12 //047   ----------------------------------------
 BYTE   W96
//  #12 //048   ----------------------------------------
 BYTE   W96
//  #12 //049   ----------------------------------------
 BYTE   W96
//  #12 //050   ----------------------------------------
 BYTE   W96
//  #12 //051   ----------------------------------------
 BYTE   W96
//  #12 //052   ----------------------------------------
 BYTE   W96
//  #12 //053   ----------------------------------------
 BYTE   W96
//  #12 //054   ----------------------------------------
 BYTE   W96
//  #12 //055   ----------------------------------------
 BYTE   W96
//  #12 //056   ----------------------------------------
 BYTE   W96
//  #12 //057   ----------------------------------------
 BYTE   W96
//  #12 //058   ----------------------------------------
 BYTE   W96
//  #12 //059   ----------------------------------------
 BYTE   W96
//  #12 //060   ----------------------------------------
 BYTE   W96
//  #12 //061   ----------------------------------------
 BYTE   W96
//  #12 //062   ----------------------------------------
 BYTE   W96
//  #12 //063   ----------------------------------------
 BYTE   W96
//  #12 //064   ----------------------------------------
 BYTE   W96
//  #12 //065   ----------------------------------------
 BYTE   W96
//  #12 //066   ----------------------------------------
 BYTE   W96
//  #12 //067   ----------------------------------------
 BYTE   W96
//  #12 //068   ----------------------------------------
 BYTE   W96
//  #12 //069   ----------------------------------------
 BYTE   W44
 BYTE   GoTo
  POIN2 Label_01F691E0
 BYTE   FINE

//**************** Track 13 (Midi-Chn.12) ****************//

ShinySmilyStory_013:
//  #13 //000   ----------------------------------------
 BYTE   KEYSH   ShinySmilyStory_key+0
 BYTE   VOICE   81
 BYTE   MODT 0
 BYTE   LFOS 44
 BYTE   VOL   38*ShinySmilyStory_mvl/mxv
 BYTE   PAN   c_v+0
Label_01F6937C:
 BYTE   W36
 BYTE   W96
//  #13 //001   ----------------------------------------
 BYTE   W96
//  #13 //002   ----------------------------------------
 BYTE   W96
//  #13 //003   ----------------------------------------
 BYTE   W96
//  #13 //004   ----------------------------------------
 BYTE   W96
//  #13 //005   ----------------------------------------
 BYTE   W96
//  #13 //006   ----------------------------------------
 BYTE   W96
//  #13 //007   ----------------------------------------
 BYTE   W96
//  #13 //008   ----------------------------------------
 BYTE   W24
 BYTE   N24  Cn3  v112
 BYTE   W24
 BYTE   Ds3
 BYTE   W24
 BYTE   Gs3
 BYTE   W24
//  #13 //009   ----------------------------------------
 BYTE   Gn3
 BYTE   W24
 BYTE   N12  Gs3  v108
 BYTE   W12
 BYTE   Gn3
 BYTE   W24
 BYTE   Fn3
 BYTE   W24
 BYTE   N01  Dn3
 BYTE   W01
 BYTE   N22  Ds3
 BYTE   W11
//  #13 //010   ----------------------------------------
 BYTE   W24
 BYTE   N24  Cn3
 BYTE   W24
 BYTE   Ds3
 BYTE   W24
 BYTE   N01  Gn3
 BYTE   W01
 BYTE   N22  Gs3
 BYTE   W23
//  #13 //011   ----------------------------------------
 BYTE   N24  Gn3
 BYTE   W24
 BYTE   N12  Gs3
 BYTE   W12
 BYTE   Cn4
 BYTE   W24
 BYTE   Gn3
 BYTE   W24
 BYTE   N48  Gs3
 BYTE   W12
//  #13 //012   ----------------------------------------
 BYTE   W60
 BYTE   N12  Gs2
 BYTE   W12
 BYTE   As2
 BYTE   W12
 BYTE   Cn3
 BYTE   W12
//  #13 //013   ----------------------------------------
 BYTE   Cs3
 BYTE   W12
 BYTE   Cn3
 BYTE   W12
 BYTE   Cs3
 BYTE   W12
 BYTE   N24  Ds3
 BYTE   W24
 BYTE   N12
 BYTE   W12
 BYTE   Fn3
 BYTE   W12
 BYTE   Gn3
 BYTE   W12
//  #13 //014   ----------------------------------------
 BYTE   N24  Gs3
 BYTE   W24
 BYTE   Gn3
 BYTE   W24
 BYTE   Gs3
 BYTE   W24
 BYTE   N01  Bn3
 BYTE   W01
 BYTE   N22  Cn4
 BYTE   W23
//  #13 //015   ----------------------------------------
 BYTE   N12  As3
 BYTE   W12
 BYTE   N12
 BYTE   W24
 BYTE   N36
 BYTE   W60
//  #13 //016   ----------------------------------------
 BYTE   N12  Gn3
 BYTE   W12
 BYTE   N12
 BYTE   W24
 BYTE   N36
 BYTE   W60
//  #13 //017   ----------------------------------------
 BYTE   W96
//  #13 //018   ----------------------------------------
 BYTE   W96
//  #13 //019   ----------------------------------------
 BYTE   W96
//  #13 //020   ----------------------------------------
 BYTE   W96
//  #13 //021   ----------------------------------------
 BYTE   W96
//  #13 //022   ----------------------------------------
 BYTE   W96
//  #13 //023   ----------------------------------------
 BYTE   W96
//  #13 //024   ----------------------------------------
 BYTE   W96
//  #13 //025   ----------------------------------------
 BYTE   W96
//  #13 //026   ----------------------------------------
 BYTE   W96
//  #13 //027   ----------------------------------------
 BYTE   W60
 BYTE   N09  Cn3
 BYTE   W12
 BYTE   Dn3
 BYTE   W12
 BYTE   En3
 BYTE   W12
//  #13 //028   ----------------------------------------
 BYTE   Fn3
 BYTE   W12
 BYTE   En3
 BYTE   W24
 BYTE   N12  Fn3
 BYTE   W24
 BYTE   Gn3
 BYTE   W24
 BYTE   N30  Fn3
 BYTE   W12
//  #13 //029   ----------------------------------------
 BYTE   W18
 BYTE   N01  En3  v104
 BYTE   W01
 BYTE   Ds3
 BYTE   W02
 BYTE   Dn3  v100
 BYTE   W01
 BYTE   Cs3
 BYTE   W72
 BYTE   W02
//  #13 //030   ----------------------------------------
 BYTE   W96
//  #13 //031   ----------------------------------------
 BYTE   W96
//  #13 //032   ----------------------------------------
 BYTE   W12
 BYTE   N12  Cn3  v108
 BYTE   W12
 BYTE   Fn3
 BYTE   W12
 BYTE   Gn3
 BYTE   W12
 BYTE   An3
 BYTE   W12
 BYTE   Gn3
 BYTE   W12
 BYTE   An3
 BYTE   W12
 BYTE   N09  Gn3
 BYTE   W12
//  #13 //033   ----------------------------------------
 BYTE   N24  Fn3
 BYTE   W96
//  #13 //034   ----------------------------------------
 BYTE   W96
//  #13 //035   ----------------------------------------
 BYTE   W96
//  #13 //036   ----------------------------------------
 BYTE   W12
 BYTE   N09  Fn3  v104
 BYTE   W12
 BYTE   En3
 BYTE   W12
 BYTE   Fn3
 BYTE   W12
 BYTE   Gn3
 BYTE   W12
 BYTE   An3
 BYTE   W24
 BYTE   N36  As3
 BYTE   W12
//  #13 //037   ----------------------------------------
 BYTE   W60
 BYTE   N12  Fn3
 BYTE   W12
 BYTE   As3
 BYTE   W12
 BYTE   N48  Dn4
 BYTE   W12
//  #13 //038   ----------------------------------------
 BYTE   W96
//  #13 //039   ----------------------------------------
 BYTE   W96
//  #13 //040   ----------------------------------------
 BYTE   W12
 BYTE   N09  Fn3  v108
 BYTE   W12
 BYTE   N09
 BYTE   W24
 BYTE   N09
 BYTE   W12
 BYTE   N09
 BYTE   W12
 BYTE   Gn3
 BYTE   W12
 BYTE   Gs3
 BYTE   W12
//  #13 //041   ----------------------------------------
 BYTE   W12
 BYTE   As3  v104
 BYTE   W12
 BYTE   N09
 BYTE   W24
 BYTE   N09
 BYTE   W12
 BYTE   N09
 BYTE   W24
 BYTE   N09
 BYTE   W12
//  #13 //042   ----------------------------------------
 BYTE   W12
 BYTE   Cs4
 BYTE   W12
 BYTE   N36  Ds4
 BYTE   W36
 BYTE   N01  Ds4  v088
 BYTE   W01
 BYTE   Dn4  v084
 BYTE   W02
 BYTE   Cs4  v080
 BYTE   W01
 BYTE   Cn4  v076
 BYTE   W02
 BYTE   Bn3
 BYTE   W01
 BYTE   As3  v064
 BYTE   W02
 BYTE   An3  v060
 BYTE   W24
 BYTE   W03
//  #13 //043   ----------------------------------------
 BYTE   W24
 BYTE   N36  Ds4  v108
 BYTE   W72
//  #13 //044   ----------------------------------------
Label_01F69484:
 BYTE   W12
 BYTE   N12  As2  v100
 BYTE   W12
 BYTE   Ds3
 BYTE   W12
 BYTE   Gn3
 BYTE   W24
 BYTE   As3
 BYTE   W24
 BYTE   N36  Gs3
 BYTE   W12
 BYTE   PEND 
//  #13 //045   ----------------------------------------
 BYTE   W96
//  #13 //046   ----------------------------------------
Label_01F69494:
 BYTE   W12
 BYTE   N12  Ds3  v100
 BYTE   W12
 BYTE   Gs3
 BYTE   W12
 BYTE   Cn4
 BYTE   W24
 BYTE   As3
 BYTE   W24
 BYTE   N36  Gs3
 BYTE   W12
 BYTE   PEND 
//  #13 //047   ----------------------------------------
Label_01F694A3:
 BYTE   W60
 BYTE   N06  Fn4  v100
 BYTE   W12
 BYTE   N12
 BYTE   W24
 BYTE   PEND 
//  #13 //048   ----------------------------------------
 BYTE   W60
 BYTE   N06  Ds4  v096
 BYTE   W12
 BYTE   N12  Ds4  v092
 BYTE   W24
//  #13 //049   ----------------------------------------
 BYTE   N24  Cs4
 BYTE   W24
 BYTE   Cn4  v100
 BYTE   W24
 BYTE   As3
 BYTE   W24
 BYTE   Gs3
 BYTE   W24
//  #13 //050   ----------------------------------------
 BYTE   W12
 BYTE   N06  Bn3
 BYTE   W12
 BYTE   N24
 BYTE   W24
 BYTE   N12  As2
 BYTE   W12
 BYTE   Ds3
 BYTE   W12
 BYTE   Gn3
 BYTE   W12
 BYTE   As3
 BYTE   W12
//  #13 //051   ----------------------------------------
 BYTE   W24
 BYTE   N36  Ds4
 BYTE   W72
//  #13 //052   ----------------------------------------
 BYTE   PATT
  POIN2 Label_01F69484
//  #13 //053   ----------------------------------------
 BYTE   W96
//  #13 //054   ----------------------------------------
 BYTE   PATT
  POIN2 Label_01F69494
//  #13 //055   ----------------------------------------
 BYTE   PATT
  POIN2 Label_01F694A3
//  #13 //056   ----------------------------------------
 BYTE   W60
 BYTE   N06  Ds4  v100
 BYTE   W12
 BYTE   N12
 BYTE   W24
//  #13 //057   ----------------------------------------
 BYTE   N24  Cs3
 BYTE   W24
 BYTE   Fn3
 BYTE   W24
 BYTE   Gs3
 BYTE   W24
 BYTE   Cs4
 BYTE   W24
//  #13 //058   ----------------------------------------
 BYTE   W12
 BYTE   N12  As3
 BYTE   W36
 BYTE   N06
 BYTE   W12
 BYTE   N24
 BYTE   W36
//  #13 //059   ----------------------------------------
 BYTE   W96
//  #13 //060   ----------------------------------------
 BYTE   W96
//  #13 //061   ----------------------------------------
 BYTE   W96
//  #13 //062   ----------------------------------------
 BYTE   W96
//  #13 //063   ----------------------------------------
 BYTE   W96
//  #13 //064   ----------------------------------------
 BYTE   W96
//  #13 //065   ----------------------------------------
 BYTE   W96
//  #13 //066   ----------------------------------------
 BYTE   W96
//  #13 //067   ----------------------------------------
 BYTE   W96
//  #13 //068   ----------------------------------------
 BYTE   W96
//  #13 //069   ----------------------------------------
 BYTE   W44
 BYTE   GoTo
  POIN2 Label_01F6937C
 BYTE   FINE

//**************** Track 14 (Midi-Chn.13) ****************//

ShinySmilyStory_014:
//  #14 //000   ----------------------------------------
 BYTE   KEYSH   ShinySmilyStory_key+0
 BYTE   VOICE   50
 BYTE   MODT 0
 BYTE   LFOS 44
 BYTE   VOL   33*ShinySmilyStory_mvl/mxv
 BYTE   PAN   c_v+0
Label_01F19844:
 BYTE   W36
 BYTE   N96  Gs2  v048
 BYTE   N96  Cn3
 BYTE   N96  Ds3
 BYTE   W96
//  #14 //001   ----------------------------------------
 BYTE   Gn2
 BYTE   N96  As2
 BYTE   N96  Ds3
 BYTE   W96
//  #14 //002   ----------------------------------------
 BYTE   Fn2
 BYTE   N96  Gs2
 BYTE   N96  Cn3
 BYTE   W96
//  #14 //003   ----------------------------------------
 BYTE   Ds2
 BYTE   N96  Gs2
 BYTE   N96  Cn3
 BYTE   W96
//  #14 //004   ----------------------------------------
Label_01F1985F:
 BYTE   N96  Cs2  v088
 BYTE   N96  Fn2
 BYTE   N96  Gs2
 BYTE   W96
 BYTE   PEND 
//  #14 //005   ----------------------------------------
Label_01F19868:
 BYTE   N96  Cn2  v088
 BYTE   N96  Ds2
 BYTE   N96  Gs2
 BYTE   W96
 BYTE   PEND 
//  #14 //006   ----------------------------------------
 BYTE   As1
 BYTE   N96  Cs2
 BYTE   N96  Fn2
 BYTE   W96
//  #14 //007   ----------------------------------------
 BYTE   W96
//  #14 //008   ----------------------------------------
 BYTE   Cn3
 BYTE   N96  Ds3
 BYTE   N96  Gs3
 BYTE   W96
//  #14 //009   ----------------------------------------
 BYTE   As2
 BYTE   N96  Ds3
 BYTE   N96  Gn3
 BYTE   W96
//  #14 //010   ----------------------------------------
 BYTE   Gs2
 BYTE   N96  Cn3
 BYTE   N96  Ds3
 BYTE   W96
//  #14 //011   ----------------------------------------
 BYTE   Ds2
 BYTE   N96  Gs2
 BYTE   N96  Cn3
 BYTE   W96
//  #14 //012   ----------------------------------------
 BYTE   PATT
  POIN2 Label_01F1985F
//  #14 //013   ----------------------------------------
 BYTE   PATT
  POIN2 Label_01F19868
//  #14 //014   ----------------------------------------
 BYTE   N24  Fn2  v088
 BYTE   W24
 BYTE   Gn2
 BYTE   W24
 BYTE   Gs2
 BYTE   W24
 BYTE   Cn3
 BYTE   W24
//  #14 //015   ----------------------------------------
 BYTE   N96  As2
 BYTE   W96
//  #14 //016   ----------------------------------------
 BYTE   Cn3
 BYTE   W96
//  #14 //017   ----------------------------------------
 BYTE   Fn3
 BYTE   N96  An3
 BYTE   W96
//  #14 //018   ----------------------------------------
 BYTE   En3
 BYTE   N96  Gn3
 BYTE   W96
//  #14 //019   ----------------------------------------
 BYTE   Dn3
 BYTE   TIE  Fn3
 BYTE   W96
//  #14 //020   ----------------------------------------
 BYTE   N96  Cn3
 BYTE   W96
//  #14 //021   ----------------------------------------
 BYTE   EOT
 BYTE   Fn3
 BYTE   N96  As2
 BYTE   N96  Dn3
 BYTE   W96
//  #14 //022   ----------------------------------------
 BYTE   An2
 BYTE   N96  Cn3
 BYTE   W96
//  #14 //023   ----------------------------------------
 BYTE   As2
 BYTE   N96  Cs3
 BYTE   W96
//  #14 //024   ----------------------------------------
 BYTE   Cn3
 BYTE   N96  En3
 BYTE   W96
//  #14 //025   ----------------------------------------
 BYTE   Fn3
 BYTE   N96  An3
 BYTE   W96
//  #14 //026   ----------------------------------------
 BYTE   En3
 BYTE   N96  Gn3
 BYTE   W96
//  #14 //027   ----------------------------------------
 BYTE   Dn3
 BYTE   N96  Fn3
 BYTE   W96
//  #14 //028   ----------------------------------------
 BYTE   An2
 BYTE   N96  Cn3
 BYTE   W96
//  #14 //029   ----------------------------------------
 BYTE   As2
 BYTE   N96  Dn3
 BYTE   W96
//  #14 //030   ----------------------------------------
 BYTE   An2
 BYTE   N96  Cn3
 BYTE   W96
//  #14 //031   ----------------------------------------
 BYTE   N24  Gn2
 BYTE   N24  Cn3
 BYTE   W36
 BYTE   N12  Gn2
 BYTE   N12  Cn3
 BYTE   W24
 BYTE   Gn2
 BYTE   N12  Cn3
 BYTE   W24
 BYTE   TIE  Fn2
 BYTE   TIE  Cn3
 BYTE   W12
//  #14 //032   ----------------------------------------
 BYTE   W96
//  #14 //033   ----------------------------------------
 BYTE   EOT
 BYTE   Fn2  v060
 BYTE   N96  Dn3
 BYTE   N96  Fn3
 BYTE   W96
//  #14 //034   ----------------------------------------
 BYTE   Cn3
 BYTE   N96  En3
 BYTE   W96
//  #14 //035   ----------------------------------------
 BYTE   Cn3
 BYTE   N96  En3
 BYTE   W96
//  #14 //036   ----------------------------------------
 BYTE   N84  Dn3
 BYTE   N84  Fn3
 BYTE   W84
 BYTE   N60  Gn2
 BYTE   N60  As2
 BYTE   W12
//  #14 //037   ----------------------------------------
 BYTE   W48
 BYTE   N18  An2
 BYTE   N18  Cn3
 BYTE   W36
 BYTE   N60  As2
 BYTE   N60  Dn3
 BYTE   W12
//  #14 //038   ----------------------------------------
 BYTE   W48
 BYTE   N18  Cn3
 BYTE   N18  Gn3
 BYTE   W36
 BYTE   TIE  Cs3
 BYTE   TIE  Gs3
 BYTE   W12
//  #14 //039   ----------------------------------------
 BYTE   W96
//  #14 //040   ----------------------------------------
 BYTE   W96
//  #14 //041   ----------------------------------------
 BYTE   EOT
 BYTE   Cs3  v068
 BYTE   W12
 BYTE   N09  Ds3
 BYTE   N09  As3
 BYTE   W12
 BYTE   Ds3
 BYTE   N09  As3
 BYTE   W24
 BYTE   Ds3
 BYTE   N09  As3
 BYTE   W12
 BYTE   Ds3
 BYTE   N09  As3
 BYTE   W24
 BYTE   Ds3
 BYTE   N09  As3
 BYTE   W12
//  #14 //042   ----------------------------------------
 BYTE   W24
 BYTE   N72  Ds3
 BYTE   N72  Gn3
 BYTE   W72
//  #14 //043   ----------------------------------------
Label_01F19948:
 BYTE   N96  Gs3  v088
 BYTE   N96  Cn4
 BYTE   N96  Ds4
 BYTE   W96
 BYTE   PEND 
//  #14 //044   ----------------------------------------
Label_01F19951:
 BYTE   N96  Gn3  v088
 BYTE   N96  As3
 BYTE   N96  Dn4
 BYTE   W96
 BYTE   PEND 
//  #14 //045   ----------------------------------------
 BYTE   PATT
  POIN2 Label_01F19948
//  #14 //046   ----------------------------------------
 BYTE   PATT
  POIN2 Label_01F19948
//  #14 //047   ----------------------------------------
Label_01F19964:
 BYTE   N84  Fn3  v088
 BYTE   N84  Gs3
 BYTE   N84  Cs4
 BYTE   W96
 BYTE   PEND 
//  #14 //048   ----------------------------------------
Label_01F1996D:
 BYTE   N84  Ds3  v088
 BYTE   N84  Gs3
 BYTE   N84  Cn4
 BYTE   W96
 BYTE   PEND 
//  #14 //049   ----------------------------------------
 BYTE   N24  As2
 BYTE   N24  Cs4
 BYTE   W24
 BYTE   Cn3
 BYTE   N24  Cn4
 BYTE   W24
 BYTE   Cs3
 BYTE   N24  As3
 BYTE   W24
 BYTE   Cs3
 BYTE   N24  Gs3
 BYTE   W24
//  #14 //050   ----------------------------------------
 BYTE   W12
 BYTE   N06  En3
 BYTE   N06  Bn3
 BYTE   W12
 BYTE   N24  En3
 BYTE   N24  Bn3
 BYTE   W36
 BYTE   N06  Ds3
 BYTE   N06  As3
 BYTE   W12
 BYTE   N24  Ds3
 BYTE   N24  As3
 BYTE   W24
//  #14 //051   ----------------------------------------
 BYTE   PATT
  POIN2 Label_01F19948
//  #14 //052   ----------------------------------------
 BYTE   PATT
  POIN2 Label_01F19951
//  #14 //053   ----------------------------------------
 BYTE   PATT
  POIN2 Label_01F19948
//  #14 //054   ----------------------------------------
 BYTE   PATT
  POIN2 Label_01F19948
//  #14 //055   ----------------------------------------
 BYTE   PATT
  POIN2 Label_01F19964
//  #14 //056   ----------------------------------------
 BYTE   PATT
  POIN2 Label_01F1996D
//  #14 //057   ----------------------------------------
 BYTE   N96  Fn2  v088
 BYTE   N96  As2
 BYTE   N96  Cs3
 BYTE   W96
//  #14 //058   ----------------------------------------
 BYTE   W96
//  #14 //059   ----------------------------------------
Label_01F199C3:
 BYTE   N36  Cs3  v088
 BYTE   N36  Fn3
 BYTE   W36
 BYTE   Cn3
 BYTE   N36  Ds3
 BYTE   W36
 BYTE   As2
 BYTE   N36  Cs3
 BYTE   W24
 BYTE   PEND 
//  #14 //060   ----------------------------------------
Label_01F199D2:
 BYTE   W12
 BYTE   N36  Gs2  v088
 BYTE   N36  Cn3
 BYTE   W36
 BYTE   N24  As2
 BYTE   N24  Cs3
 BYTE   W24
 BYTE   Cn3
 BYTE   N24  Ds3
 BYTE   W24
 BYTE   PEND 
//  #14 //061   ----------------------------------------
 BYTE   PATT
  POIN2 Label_01F199C3
//  #14 //062   ----------------------------------------
 BYTE   W12
 BYTE   N36  Cn3  v088
 BYTE   N36  Ds3
 BYTE   W36
 BYTE   N24  Cs3
 BYTE   N24  Fn3
 BYTE   W24
 BYTE   Ds3
 BYTE   N24  Gn3
 BYTE   W24
//  #14 //063   ----------------------------------------
 BYTE   PATT
  POIN2 Label_01F199C3
//  #14 //064   ----------------------------------------
 BYTE   PATT
  POIN2 Label_01F199D2
//  #14 //065   ----------------------------------------
 BYTE   N36  Cs3  v088
 BYTE   N36  Gs3
 BYTE   W36
 BYTE   Gn3
 BYTE   N36  As3
 BYTE   W36
 BYTE   Gs3
 BYTE   N36  Bn3
 BYTE   W24
//  #14 //066   ----------------------------------------
 BYTE   W12
 BYTE   Fs3
 BYTE   N36  Cs4
 BYTE   W36
 BYTE   Gn3
 BYTE   N36  Ds4
 BYTE   W36
 BYTE   TIE  Gs3
 BYTE   TIE  Ds4
 BYTE   W12
//  #14 //067   ----------------------------------------
 BYTE   W96
//  #14 //068   ----------------------------------------
 BYTE   W96
//  #14 //069   ----------------------------------------
 BYTE   EOT
 BYTE   Gs3  v075
 BYTE   W44
 BYTE   GoTo
  POIN2 Label_01F19844
 BYTE   FINE

//**************** Track 15 (Midi-Chn.14) ****************//

ShinySmilyStory_015:
//  #15 //000   ----------------------------------------
 BYTE   KEYSH   ShinySmilyStory_key+0
 BYTE   VOICE   104
 BYTE   MODT 0
 BYTE   LFOS 44
 BYTE   VOL   7*ShinySmilyStory_mvl/mxv
 BYTE   PAN   c_v-24
Label_01F682A8:
 BYTE   PAN   c_v-24
 BYTE   W36
 BYTE   PAN   c_v-50
 BYTE   N48  Fn6  v088
 BYTE   W01
 BYTE   PAN   c_v-41
 BYTE   W02
 BYTE   PAN   c_v-37
 BYTE   W02
 BYTE   PAN   c_v-34
 BYTE   W02
 BYTE   PAN   c_v-31
 BYTE   W02
 BYTE   PAN   c_v-29
 BYTE   W02
 BYTE   PAN   c_v-27
 BYTE   W02
 BYTE   PAN   c_v-25
 BYTE   W02
 BYTE   PAN   c_v-23
 BYTE   W02
 BYTE   PAN   c_v-21
 BYTE   W03
 BYTE   PAN   c_v-19
 BYTE   W02
 BYTE   PAN   c_v-17
 BYTE   W03
 BYTE   PAN   c_v-15
 BYTE   W03
 BYTE   PAN   c_v-13
 BYTE   W02
 BYTE   PAN   c_v-12
 BYTE   W01
 BYTE   PAN   c_v-11
 BYTE   W02
 BYTE   PAN   c_v-10
 BYTE   W02
 BYTE   PAN   c_v-9
 BYTE   W02
 BYTE   PAN   c_v-8
 BYTE   W01
 BYTE   PAN   c_v-7
 BYTE   W02
 BYTE   PAN   c_v-6
 BYTE   W02
 BYTE   PAN   c_v-5
 BYTE   W02
 BYTE   PAN   c_v-4
 BYTE   W02
 BYTE   PAN   c_v-3
 BYTE   W02
 BYTE   PAN   c_v-2
 BYTE   N48  Cn6
 BYTE   W02
 BYTE   PAN   c_v-1
 BYTE   W02
 BYTE   PAN   c_v+0
 BYTE   W02
 BYTE   PAN   c_v+1
 BYTE   W02
 BYTE   PAN   c_v+2
 BYTE   W02
 BYTE   PAN   c_v+3
 BYTE   W03
//  #15 //001   ----------------------------------------
 BYTE   PAN   c_v+4
 BYTE   W02
 BYTE   PAN   c_v+5
 BYTE   W02
 BYTE   PAN   c_v+6
 BYTE   W03
 BYTE   PAN   c_v+7
 BYTE   W02
 BYTE   PAN   c_v+8
 BYTE   W03
 BYTE   PAN   c_v+9
 BYTE   W02
 BYTE   PAN   c_v+10
 BYTE   W03
 BYTE   PAN   c_v+11
 BYTE   W02
 BYTE   PAN   c_v+12
 BYTE   W03
 BYTE   PAN   c_v+13
 BYTE   W03
 BYTE   PAN   c_v+14
 BYTE   W02
 BYTE   PAN   c_v+15
 BYTE   W03
 BYTE   PAN   c_v+16
 BYTE   W03
 BYTE   PAN   c_v+17
 BYTE   W02
 BYTE   N48  Gn6
 BYTE   W01
 BYTE   PAN   c_v+18
 BYTE   W02
 BYTE   PAN   c_v+19
 BYTE   W03
 BYTE   PAN   c_v+20
 BYTE   W03
 BYTE   PAN   c_v+21
 BYTE   W03
 BYTE   PAN   c_v+22
 BYTE   W03
 BYTE   PAN   c_v+23
 BYTE   W03
 BYTE   PAN   c_v+24
 BYTE   W04
 BYTE   PAN   c_v+25
 BYTE   W03
 BYTE   PAN   c_v+26
 BYTE   W03
 BYTE   PAN   c_v+27
 BYTE   W03
 BYTE   PAN   c_v+28
 BYTE   W04
 BYTE   PAN   c_v+29
 BYTE   W03
 BYTE   PAN   c_v+30
 BYTE   W03
 BYTE   PAN   c_v+31
 BYTE   W04
 BYTE   PAN   c_v+32
 BYTE   W03
 BYTE   PAN   c_v+33
 BYTE   N48  Ds6  v020
 BYTE   W04
 BYTE   PAN   c_v+34
 BYTE   W03
 BYTE   PAN   c_v+35
 BYTE   W04
 BYTE   PAN   c_v+36
 BYTE   W03
//  #15 //002   ----------------------------------------
 BYTE   PAN   c_v+37
 BYTE   W04
 BYTE   PAN   c_v+38
 BYTE   W04
 BYTE   PAN   c_v+39
 BYTE   W04
 BYTE   PAN   c_v+40
 BYTE   W03
 BYTE   PAN   c_v+41
 BYTE   W04
 BYTE   PAN   c_v+42
 BYTE   W04
 BYTE   PAN   c_v+43
 BYTE   W04
 BYTE   PAN   c_v+44
 BYTE   W04
 BYTE   PAN   c_v+45
 BYTE   W03
 BYTE   W01
 BYTE   PAN   c_v+46
 BYTE   W92
//  #15 //003   ----------------------------------------
 BYTE   W03
 BYTE   W96
//  #15 //004   ----------------------------------------
 BYTE   W96
//  #15 //005   ----------------------------------------
 BYTE   W96
//  #15 //006   ----------------------------------------
 BYTE   W96
//  #15 //007   ----------------------------------------
 BYTE   W96
//  #15 //008   ----------------------------------------
 BYTE   W96
//  #15 //009   ----------------------------------------
 BYTE   W96
//  #15 //010   ----------------------------------------
 BYTE   W96
//  #15 //011   ----------------------------------------
 BYTE   W96
//  #15 //012   ----------------------------------------
 BYTE   W96
//  #15 //013   ----------------------------------------
 BYTE   W96
//  #15 //014   ----------------------------------------
 BYTE   W96
//  #15 //015   ----------------------------------------
 BYTE   W96
//  #15 //016   ----------------------------------------
 BYTE   W96
//  #15 //017   ----------------------------------------
 BYTE   BEND   c_v+63
 BYTE   TIE  Cn6  v088
 BYTE   W02
 BYTE   BEND   c_v+51
 BYTE   W02
 BYTE   BEND   c_v+46
 BYTE   W02
 BYTE   BEND   c_v+42
 BYTE   W01
 BYTE   BEND   c_v+39
 BYTE   W02
 BYTE   BEND   c_v+36
 BYTE   W02
 BYTE   BEND   c_v+33
 BYTE   W02
 BYTE   BEND   c_v+30
 BYTE   W02
 BYTE   BEND   c_v+28
 BYTE   W02
 BYTE   BEND   c_v+26
 BYTE   W02
 BYTE   BEND   c_v+24
 BYTE   W01
 BYTE   BEND   c_v+22
 BYTE   W02
 BYTE   BEND   c_v+20
 BYTE   W03
 BYTE   BEND   c_v+18
 BYTE   W02
 BYTE   BEND   c_v+16
 BYTE   W02
 BYTE   BEND   c_v+14
 BYTE   W02
 BYTE   BEND   c_v+12
 BYTE   W03
 BYTE   BEND   c_v+10
 BYTE   W03
 BYTE   BEND   c_v+8
 BYTE   W02
 BYTE   BEND   c_v+6
 BYTE   W03
 BYTE   BEND   c_v+4
 BYTE   W03
 BYTE   BEND   c_v+2
 BYTE   W03
 BYTE   BEND   c_v+0
 BYTE   W01
 BYTE   BEND   c_v-1
 BYTE   W02
 BYTE   BEND   c_v-2
 BYTE   W02
 BYTE   BEND   c_v-3
 BYTE   W01
 BYTE   BEND   c_v-4
 BYTE   W02
 BYTE   BEND   c_v-5
 BYTE   W01
 BYTE   BEND   c_v-6
 BYTE   W02
 BYTE   BEND   c_v-7
 BYTE   W02
 BYTE   BEND   c_v-8
 BYTE   W01
 BYTE   BEND   c_v-9
 BYTE   W02
 BYTE   BEND   c_v-10
 BYTE   W02
 BYTE   BEND   c_v-11
 BYTE   W02
 BYTE   BEND   c_v-12
 BYTE   W02
 BYTE   BEND   c_v-13
 BYTE   W01
 BYTE   BEND   c_v-14
 BYTE   W02
 BYTE   BEND   c_v-15
 BYTE   W02
 BYTE   BEND   c_v-16
 BYTE   W02
 BYTE   BEND   c_v-17
 BYTE   W02
 BYTE   BEND   c_v-18
 BYTE   W02
 BYTE   BEND   c_v-19
 BYTE   W02
 BYTE   BEND   c_v-20
 BYTE   W02
 BYTE   BEND   c_v-21
 BYTE   W02
 BYTE   BEND   c_v-22
 BYTE   W02
 BYTE   BEND   c_v-23
 BYTE   W02
 BYTE   BEND   c_v-24
 BYTE   W02
 BYTE   BEND   c_v-25
 BYTE   W02
 BYTE   BEND   c_v-26
 BYTE   W01
//  #15 //018   ----------------------------------------
 BYTE   VOL   7*ShinySmilyStory_mvl/mxv
 BYTE   W01
 BYTE   BEND   c_v-27
 BYTE   W03
 BYTE   BEND   c_v-28
 BYTE   W02
 BYTE   BEND   c_v-29
 BYTE   W02
 BYTE   BEND   c_v-30
 BYTE   W02
 BYTE   BEND   c_v-31
 BYTE   W02
 BYTE   VOL   6*ShinySmilyStory_mvl/mxv
 BYTE   W01
 BYTE   BEND   c_v-32
 BYTE   W02
 BYTE   BEND   c_v-33
 BYTE   W02
 BYTE   VOL   5*ShinySmilyStory_mvl/mxv
 BYTE   BEND   c_v-34
 BYTE   W02
 BYTE   BEND   c_v-35
 BYTE   W02
 BYTE   VOL   5*ShinySmilyStory_mvl/mxv
 BYTE   W01
 BYTE   BEND   c_v-36
 BYTE   W02
 BYTE   VOL   4*ShinySmilyStory_mvl/mxv
 BYTE   BEND   c_v-37
 BYTE   W03
 BYTE   VOL   4*ShinySmilyStory_mvl/mxv
 BYTE   BEND   c_v-38
 BYTE   W02
 BYTE   BEND   c_v-39
 BYTE   W01
 BYTE   VOL   4*ShinySmilyStory_mvl/mxv
 BYTE   W02
 BYTE   VOL   3*ShinySmilyStory_mvl/mxv
 BYTE   BEND   c_v-40
 BYTE   W02
 BYTE   VOL   2*ShinySmilyStory_mvl/mxv
 BYTE   BEND   c_v-41
 BYTE   W03
 BYTE   VOL   2*ShinySmilyStory_mvl/mxv
 BYTE   BEND   c_v-42
 BYTE   W02
 BYTE   VOL   1*ShinySmilyStory_mvl/mxv
 BYTE   BEND   c_v-43
 BYTE   W01
 BYTE   VOL   1*ShinySmilyStory_mvl/mxv
 BYTE   W02
 BYTE   VOL   0*ShinySmilyStory_mvl/mxv
 BYTE   BEND   c_v-44
 BYTE   W02
 BYTE   VOL   0*ShinySmilyStory_mvl/mxv
 BYTE   BEND   c_v-45
 BYTE   W02
 BYTE   VOL   0*ShinySmilyStory_mvl/mxv
 BYTE   W01
 BYTE   VOL   0*ShinySmilyStory_mvl/mxv
 BYTE   BEND   c_v-46
 BYTE   W02
 BYTE   VOL   0*ShinySmilyStory_mvl/mxv
 BYTE   BEND   c_v-47
 BYTE   W03
 BYTE   VOL   0*ShinySmilyStory_mvl/mxv
 BYTE   BEND   c_v-48
 BYTE   W02
 BYTE   VOL   0*ShinySmilyStory_mvl/mxv
 BYTE   W01
 BYTE   BEND   c_v-49
 BYTE   W02
 BYTE   VOL   0*ShinySmilyStory_mvl/mxv
 BYTE   BEND   c_v-50
 BYTE   W03
 BYTE   VOL   0*ShinySmilyStory_mvl/mxv
 BYTE   BEND   c_v-51
 BYTE   W02
 BYTE   VOL   0*ShinySmilyStory_mvl/mxv
 BYTE   W01
 BYTE   BEND   c_v-52
 BYTE   W01
 BYTE   VOL   0*ShinySmilyStory_mvl/mxv
 BYTE   W02
 BYTE   BEND   c_v-53
 BYTE   W01
 BYTE   VOL   0*ShinySmilyStory_mvl/mxv
 BYTE   W01
 BYTE   BEND   c_v-54
 BYTE   W01
 BYTE   VOL   0*ShinySmilyStory_mvl/mxv
 BYTE   W02
 BYTE   VOL   0*ShinySmilyStory_mvl/mxv
 BYTE   BEND   c_v-55
 BYTE   W02
 BYTE   VOL   0*ShinySmilyStory_mvl/mxv
 BYTE   W01
 BYTE   BEND   c_v-56
 BYTE   W01
 BYTE   VOL   0*ShinySmilyStory_mvl/mxv
 BYTE   W02
 BYTE   VOL   0*ShinySmilyStory_mvl/mxv
 BYTE   BEND   c_v-57
 BYTE   W02
 BYTE   VOL   0*ShinySmilyStory_mvl/mxv
 BYTE   W01
 BYTE   VOL   0*ShinySmilyStory_mvl/mxv
 BYTE   BEND   c_v-58
 BYTE   W02
 BYTE   VOL   0*ShinySmilyStory_mvl/mxv
 BYTE   W01
 BYTE   BEND   c_v-59
 BYTE   W01
 BYTE   VOL   0*ShinySmilyStory_mvl/mxv
 BYTE   W02
 BYTE   VOL   0*ShinySmilyStory_mvl/mxv
 BYTE   BEND   c_v-60
 BYTE   W01
 BYTE   VOL   0*ShinySmilyStory_mvl/mxv
 BYTE   W02
 BYTE   VOL   0*ShinySmilyStory_mvl/mxv
 BYTE   BEND   c_v-61
 BYTE   W02
 BYTE   VOL   0*ShinySmilyStory_mvl/mxv
 BYTE   W01
 BYTE   VOL   0*ShinySmilyStory_mvl/mxv
 BYTE   BEND   c_v-62
 BYTE   W02
 BYTE   VOL   0*ShinySmilyStory_mvl/mxv
 BYTE   W01
 BYTE   VOL   0*ShinySmilyStory_mvl/mxv
 BYTE   BEND   c_v-63
 BYTE   W01
//  #15 //019   ----------------------------------------
 BYTE   EOT
 BYTE   W01
 BYTE   VOL   7*ShinySmilyStory_mvl/mxv
 BYTE   W01
 BYTE   BEND   c_v+0
 BYTE   W92
 BYTE   W02
//  #15 //020   ----------------------------------------
 BYTE   W96
//  #15 //021   ----------------------------------------
 BYTE   W96
//  #15 //022   ----------------------------------------
 BYTE   W96
//  #15 //023   ----------------------------------------
 BYTE   W96
//  #15 //024   ----------------------------------------
 BYTE   W96
//  #15 //025   ----------------------------------------
 BYTE   W96
//  #15 //026   ----------------------------------------
 BYTE   W96
//  #15 //027   ----------------------------------------
 BYTE   W96
//  #15 //028   ----------------------------------------
 BYTE   W96
//  #15 //029   ----------------------------------------
 BYTE   W96
//  #15 //030   ----------------------------------------
 BYTE   W96
//  #15 //031   ----------------------------------------
 BYTE   W96
//  #15 //032   ----------------------------------------
 BYTE   W96
//  #15 //033   ----------------------------------------
 BYTE   W96
//  #15 //034   ----------------------------------------
 BYTE   W96
//  #15 //035   ----------------------------------------
 BYTE   W96
//  #15 //036   ----------------------------------------
 BYTE   W96
//  #15 //037   ----------------------------------------
 BYTE   W96
//  #15 //038   ----------------------------------------
 BYTE   W96
//  #15 //039   ----------------------------------------
 BYTE   W96
//  #15 //040   ----------------------------------------
 BYTE   W96
//  #15 //041   ----------------------------------------
 BYTE   W96
//  #15 //042   ----------------------------------------
 BYTE   W96
//  #15 //043   ----------------------------------------
 BYTE   W96
//  #15 //044   ----------------------------------------
 BYTE   W96
//  #15 //045   ----------------------------------------
 BYTE   W96
//  #15 //046   ----------------------------------------
 BYTE   W96
//  #15 //047   ----------------------------------------
 BYTE   W96
//  #15 //048   ----------------------------------------
 BYTE   W96
//  #15 //049   ----------------------------------------
 BYTE   W96
//  #15 //050   ----------------------------------------
 BYTE   W96
//  #15 //051   ----------------------------------------
 BYTE   W96
//  #15 //052   ----------------------------------------
 BYTE   W96
//  #15 //053   ----------------------------------------
 BYTE   W96
//  #15 //054   ----------------------------------------
 BYTE   W96
//  #15 //055   ----------------------------------------
 BYTE   W96
//  #15 //056   ----------------------------------------
 BYTE   W96
//  #15 //057   ----------------------------------------
 BYTE   W96
//  #15 //058   ----------------------------------------
 BYTE   W96
//  #15 //059   ----------------------------------------
 BYTE   W96
//  #15 //060   ----------------------------------------
 BYTE   W96
//  #15 //061   ----------------------------------------
 BYTE   W96
//  #15 //062   ----------------------------------------
 BYTE   W96
//  #15 //063   ----------------------------------------
 BYTE   W96
//  #15 //064   ----------------------------------------
 BYTE   W96
//  #15 //065   ----------------------------------------
 BYTE   W96
//  #15 //066   ----------------------------------------
 BYTE   W96
//  #15 //067   ----------------------------------------
 BYTE   W96
//  #15 //068   ----------------------------------------
 BYTE   W96
//  #15 //069   ----------------------------------------
 BYTE   W44
 BYTE   GoTo
  POIN2 Label_01F682A8
 BYTE   FINE

//******************************************************//
	ALIGN 4

ShinySmilyStory:
	BYTE	15	// NumTrks
	BYTE	0	// NumBlks
	BYTE	ShinySmilyStory_pri	// Priority
	BYTE	ShinySmilyStory_rev	// Reverb.
    
	POIN2	ShinySmilyStory_grp
    
	POIN2	ShinySmilyStory_001
	POIN2	ShinySmilyStory_002
	POIN2	ShinySmilyStory_003
	POIN2	ShinySmilyStory_004
	POIN2	ShinySmilyStory_005
	POIN2	ShinySmilyStory_006
	POIN2	ShinySmilyStory_007
	POIN2	ShinySmilyStory_008
	POIN2	ShinySmilyStory_009
	POIN2	ShinySmilyStory_010
	POIN2	ShinySmilyStory_011
	POIN2	ShinySmilyStory_012
	POIN2	ShinySmilyStory_013
	POIN2	ShinySmilyStory_014
	POIN2	ShinySmilyStory_015

	
