	.include "MPlayDef.s"

	.equ	song59_grp, voicegroup000
	.equ	song59_pri, 0
	.equ	song59_rev, 0
	.equ	song59_mvl, 127
	.equ	song59_key, 0
	.equ	song59_tbs, 1
	.equ	song59_exg, 0
	.equ	song59_cmp, 1

	.section .rodata
	.global	song59
	.align	2


@**************** Track 1 (Midi-Chn.0) ****************@

song59_001:
@  #01 @000   ----------------------------------------
 .byte   KEYSH , song59_key+0
Label_013A24A2:
 .byte   TEMPO , 106*song59_tbs/2
 .byte   VOICE , 60
 .byte   VOL , 74*song59_mvl/mxv
 .byte   W60
 .byte   N03 ,Ds2 ,v100
 .byte   W03
 .byte   Fn2
 .byte   W03
 .byte   Fs2
 .byte   W03
 .byte   Gs2
 .byte   W03
 .byte   N60 ,As2
 .byte   W72
@  #01 @001   ----------------------------------------
Label_013A24B6:
 .byte   N60 ,As2 ,v100
 .byte   W66
 .byte   N06
 .byte   W06
 .byte   PEND 
 .byte   N96 ,An2
 .byte   W72
@  #01 @002   ----------------------------------------
Label_013A24C0:
 .byte   W60
 .byte   N03 ,Ds2 ,v100
 .byte   W03
 .byte   Fn2
 .byte   W03
 .byte   Fs2
 .byte   W03
 .byte   Gs2
 .byte   W03
 .byte   PEND 
 .byte   N60 ,As2
 .byte   W72
@  #01 @003   ----------------------------------------
 .byte   PATT
  .word Label_013A24B6
@  #01 @004   ----------------------------------------
 .byte   N96 ,Cn3 ,v100
 .byte   W72
 .byte   W48
@  #01 @005   ----------------------------------------
 .byte   N24
 .byte   W24
 .byte   TIE ,Cs3
 .byte   W72
@  #01 @006   ----------------------------------------
 .byte   W60
 .byte   EOT
 .byte   W06
 .byte   N06
 .byte   W06
 .byte   TIE ,Cn3
 .byte   W72
@  #01 @007   ----------------------------------------
 .byte   W60
 .byte   EOT
 .byte   W12
 .byte   N72 ,Fs3 ,v088
 .byte   W72
@  #01 @008   ----------------------------------------
Label_013A24ED:
 .byte   N48 ,Cs3 ,v088
 .byte   W48
 .byte   N24 ,Ds3
 .byte   W24
 .byte   PEND 
 .byte   N72 ,Fn3
 .byte   W72
@  #01 @009   ----------------------------------------
 .byte   As2
 .byte   W72
 .byte   Ds3
 .byte   W72
@  #01 @010   ----------------------------------------
Label_013A24FC:
 .byte   N48 ,As2 ,v088
 .byte   W48
 .byte   N24 ,Cn3
 .byte   W24
 .byte   PEND 
 .byte   N72 ,Cs3
 .byte   W72
@  #01 @011   ----------------------------------------
Label_013A2507:
 .byte   N48 ,Cs3 ,v088
 .byte   W48
 .byte   N24
 .byte   W24
 .byte   PEND 
 .byte   TIE
 .byte   W72
@  #01 @012   ----------------------------------------
 .byte   W48
 .byte   EOT
 .byte   N24 ,Ds3
 .byte   W24
 .byte   TIE ,Fn3
 .byte   W72
@  #01 @013   ----------------------------------------
 .byte   W72
 .byte   EOT
 .byte   VOL , 74*song59_mvl/mxv
 .byte   W60
@  #01 @014   ----------------------------------------
 .byte   N03 ,Ds2 ,v100
 .byte   W03
 .byte   Fn2
 .byte   W03
 .byte   Fs2
 .byte   W03
 .byte   Gs2
 .byte   W03
 .byte   N60 ,As2
 .byte   W72
@  #01 @015   ----------------------------------------
 .byte   PATT
  .word Label_013A24B6
@  #01 @016   ----------------------------------------
 .byte   N96 ,An2 ,v100
 .byte   W72
@  #01 @017   ----------------------------------------
 .byte   PATT
  .word Label_013A24C0
@  #01 @018   ----------------------------------------
 .byte   N60 ,As2 ,v100
 .byte   W72
@  #01 @019   ----------------------------------------
 .byte   PATT
  .word Label_013A24B6
@  #01 @020   ----------------------------------------
 .byte   N96 ,Cn3 ,v100
 .byte   W72
 .byte   W48
@  #01 @021   ----------------------------------------
 .byte   N24
 .byte   W24
 .byte   TIE ,Cs3
 .byte   W72
@  #01 @022   ----------------------------------------
 .byte   W60
 .byte   EOT
 .byte   W06
 .byte   N06
 .byte   W06
 .byte   TIE ,Cn3
 .byte   W72
@  #01 @023   ----------------------------------------
 .byte   W60
 .byte   EOT
 .byte   W12
 .byte   N72 ,Fs3 ,v088
 .byte   W72
@  #01 @024   ----------------------------------------
 .byte   PATT
  .word Label_013A24ED
@  #01 @025   ----------------------------------------
 .byte   N72 ,Fn3 ,v088
 .byte   W72
 .byte   As2
 .byte   W72
@  #01 @026   ----------------------------------------
 .byte   Ds3
 .byte   W72
@  #01 @027   ----------------------------------------
 .byte   PATT
  .word Label_013A24FC
@  #01 @028   ----------------------------------------
 .byte   N72 ,Cs3 ,v088
 .byte   W72
@  #01 @029   ----------------------------------------
 .byte   PATT
  .word Label_013A2507
@  #01 @030   ----------------------------------------
 .byte   TIE ,Cs3 ,v088
 .byte   W72
 .byte   W48
@  #01 @031   ----------------------------------------
 .byte   EOT
 .byte   N24 ,Ds3
 .byte   W24
 .byte   TIE ,Fn3
 .byte   W72
@  #01 @032   ----------------------------------------
 .byte   W72
 .byte   EOT
 .byte   GOTO
  .word Label_013A24A2
 .byte   FINE

@**************** Track 2 (Midi-Chn.1) ****************@

song59_002:
@  #02 @000   ----------------------------------------
 .byte   KEYSH , song59_key+0
Label_013A258E:
 .byte   VOICE , 50
 .byte   VOL , 61*song59_mvl/mxv
 .byte   W72
 .byte   W72
@  #02 @001   ----------------------------------------
 .byte   W72
 .byte   W72
@  #02 @002   ----------------------------------------
 .byte   W72
 .byte   W72
@  #02 @003   ----------------------------------------
 .byte   W72
 .byte   W72
@  #02 @004   ----------------------------------------
 .byte   W72
 .byte   W72
@  #02 @005   ----------------------------------------
 .byte   W72
 .byte   W72
@  #02 @006   ----------------------------------------
 .byte   W72
 .byte   N72 ,Fs4 ,v100
 .byte   W72
@  #02 @007   ----------------------------------------
Label_013A25A3:
 .byte   N48 ,Cs4 ,v100
 .byte   W48
 .byte   N24 ,Ds4
 .byte   W24
 .byte   PEND 
 .byte   N72 ,Fn4
 .byte   W72
@  #02 @008   ----------------------------------------
 .byte   As3
 .byte   W72
 .byte   Ds4
 .byte   W72
@  #02 @009   ----------------------------------------
Label_013A25B2:
 .byte   N48 ,As3 ,v100
 .byte   W48
 .byte   N24 ,Cn4
 .byte   W24
 .byte   PEND 
 .byte   N72 ,Cs4
 .byte   W72
@  #02 @010   ----------------------------------------
Label_013A25BD:
 .byte   N48 ,Cs4 ,v100
 .byte   W48
 .byte   N24
 .byte   W24
 .byte   PEND 
 .byte   TIE
 .byte   W72
@  #02 @011   ----------------------------------------
 .byte   W48
 .byte   EOT
 .byte   N24 ,Ds4
 .byte   W24
 .byte   TIE ,Fn4
 .byte   W72
@  #02 @012   ----------------------------------------
 .byte   W72
 .byte   EOT
 .byte   VOL , 61*song59_mvl/mxv
 .byte   W72
@  #02 @013   ----------------------------------------
 .byte   W72
 .byte   W72
@  #02 @014   ----------------------------------------
 .byte   W72
 .byte   W72
@  #02 @015   ----------------------------------------
 .byte   W72
 .byte   W72
@  #02 @016   ----------------------------------------
 .byte   W72
 .byte   W72
@  #02 @017   ----------------------------------------
 .byte   W72
 .byte   W72
@  #02 @018   ----------------------------------------
 .byte   W72
 .byte   W72
@  #02 @019   ----------------------------------------
 .byte   N72 ,Fs4
 .byte   W72
@  #02 @020   ----------------------------------------
 .byte   PATT
  .word Label_013A25A3
@  #02 @021   ----------------------------------------
 .byte   N72 ,Fn4 ,v100
 .byte   W72
 .byte   As3
 .byte   W72
@  #02 @022   ----------------------------------------
 .byte   Ds4
 .byte   W72
@  #02 @023   ----------------------------------------
 .byte   PATT
  .word Label_013A25B2
@  #02 @024   ----------------------------------------
 .byte   N72 ,Cs4 ,v100
 .byte   W72
@  #02 @025   ----------------------------------------
 .byte   PATT
  .word Label_013A25BD
@  #02 @026   ----------------------------------------
 .byte   TIE ,Cs4 ,v100
 .byte   W72
 .byte   W48
@  #02 @027   ----------------------------------------
 .byte   EOT
 .byte   N24 ,Ds4
 .byte   W24
 .byte   TIE ,Fn4
 .byte   W72
@  #02 @028   ----------------------------------------
 .byte   W72
 .byte   EOT
 .byte   GOTO
  .word Label_013A258E
 .byte   FINE

@**************** Track 3 (Midi-Chn.2) ****************@

song59_003:
@  #03 @000   ----------------------------------------
 .byte   KEYSH , song59_key+0
Label_013A2616:
 .byte   VOICE , 33
 .byte   VOL , 52*song59_mvl/mxv
 .byte   N09 ,Ds1 ,v100
 .byte   W12
 .byte   N09
 .byte   W12
 .byte   N09
 .byte   W12
 .byte   N09
 .byte   W12
 .byte   N09
 .byte   W12
 .byte   N09
 .byte   W12
Label_013A2628:
 .byte   N09 ,Ds1 ,v100
 .byte   W12
 .byte   N09
 .byte   W12
@  #03 @001   ----------------------------------------
 .byte   N09
 .byte   W12
 .byte   N09
 .byte   W12
 .byte   N09
 .byte   W12
 .byte   N09
 .byte   W12
 .byte   PEND 
@  #03 @002   ----------------------------------------
 .byte   PATT
  .word Label_013A2628
@  #03 @003   ----------------------------------------
 .byte   PATT
  .word Label_013A2628
@  #03 @004   ----------------------------------------
 .byte   PATT
  .word Label_013A2628
@  #03 @005   ----------------------------------------
 .byte   PATT
  .word Label_013A2628
@  #03 @006   ----------------------------------------
 .byte   PATT
  .word Label_013A2628
@  #03 @007   ----------------------------------------
 .byte   PATT
  .word Label_013A2628
@  #03 @008   ----------------------------------------
 .byte   PATT
  .word Label_013A2628
@  #03 @009   ----------------------------------------
Label_013A265A:
 .byte   N09 ,Fn1 ,v100
 .byte   W12
 .byte   N09
 .byte   W12
 .byte   N09
 .byte   W12
 .byte   N09
 .byte   W12
 .byte   N09
 .byte   W12
 .byte   N09
 .byte   W12
 .byte   PEND 
@  #03 @010   ----------------------------------------
 .byte   PATT
  .word Label_013A265A
@  #03 @011   ----------------------------------------
 .byte   PATT
  .word Label_013A265A
@  #03 @012   ----------------------------------------
 .byte   PATT
  .word Label_013A265A
@  #03 @013   ----------------------------------------
Label_013A2678:
 .byte   N09 ,Cs1 ,v100
 .byte   W12
 .byte   N09
 .byte   W12
 .byte   N09
 .byte   W12
 .byte   N09
 .byte   W12
 .byte   N09
 .byte   W12
 .byte   N09
 .byte   W12
 .byte   PEND 
@  #03 @014   ----------------------------------------
 .byte   PATT
  .word Label_013A2678
@  #03 @015   ----------------------------------------
Label_013A268C:
 .byte   N09 ,Cn1 ,v100
 .byte   W12
 .byte   N09
 .byte   W12
 .byte   N09
 .byte   W12
 .byte   N09
 .byte   W12
 .byte   N09
 .byte   W12
 .byte   N09
 .byte   W12
 .byte   PEND 
@  #03 @016   ----------------------------------------
 .byte   PATT
  .word Label_013A265A
@  #03 @017   ----------------------------------------
 .byte   PATT
  .word Label_013A2628
@  #03 @018   ----------------------------------------
 .byte   PATT
  .word Label_013A2628
@  #03 @019   ----------------------------------------
Label_013A26AA:
 .byte   N09 ,As1 ,v100
 .byte   W12
 .byte   N09
 .byte   W12
 .byte   N09
 .byte   W12
 .byte   N09
 .byte   W12
 .byte   N09
 .byte   W12
 .byte   N09
 .byte   W12
 .byte   PEND 
Label_013A26B9:
 .byte   N09 ,Gs1 ,v100
 .byte   W12
 .byte   N09
 .byte   W12
@  #03 @020   ----------------------------------------
 .byte   N09
 .byte   W12
 .byte   N09
 .byte   W12
 .byte   N09
 .byte   W12
 .byte   N09
 .byte   W12
 .byte   PEND 
Label_013A26C8:
 .byte   N09 ,Fs1 ,v100
 .byte   W12
 .byte   N09
 .byte   W12
 .byte   N09
 .byte   W12
 .byte   N09
 .byte   W12
@  #03 @021   ----------------------------------------
 .byte   N09
 .byte   W12
 .byte   N09
 .byte   W12
 .byte   PEND 
@  #03 @022   ----------------------------------------
 .byte   PATT
  .word Label_013A26C8
@  #03 @023   ----------------------------------------
 .byte   PATT
  .word Label_013A265A
@  #03 @024   ----------------------------------------
 .byte   PATT
  .word Label_013A265A
@  #03 @025   ----------------------------------------
 .byte   PATT
  .word Label_013A2628
@  #03 @026   ----------------------------------------
 .byte   PATT
  .word Label_013A2628
@  #03 @027   ----------------------------------------
 .byte   PATT
  .word Label_013A2628
@  #03 @028   ----------------------------------------
 .byte   PATT
  .word Label_013A2628
@  #03 @029   ----------------------------------------
 .byte   PATT
  .word Label_013A2628
@  #03 @030   ----------------------------------------
 .byte   PATT
  .word Label_013A2628
@  #03 @031   ----------------------------------------
 .byte   PATT
  .word Label_013A2628
@  #03 @032   ----------------------------------------
 .byte   PATT
  .word Label_013A2628
@  #03 @033   ----------------------------------------
 .byte   PATT
  .word Label_013A2628
@  #03 @034   ----------------------------------------
 .byte   PATT
  .word Label_013A265A
@  #03 @035   ----------------------------------------
 .byte   PATT
  .word Label_013A265A
@  #03 @036   ----------------------------------------
 .byte   PATT
  .word Label_013A265A
@  #03 @037   ----------------------------------------
 .byte   PATT
  .word Label_013A265A
@  #03 @038   ----------------------------------------
 .byte   PATT
  .word Label_013A2678
@  #03 @039   ----------------------------------------
 .byte   PATT
  .word Label_013A2678
@  #03 @040   ----------------------------------------
 .byte   PATT
  .word Label_013A268C
@  #03 @041   ----------------------------------------
 .byte   PATT
  .word Label_013A265A
@  #03 @042   ----------------------------------------
 .byte   PATT
  .word Label_013A2628
@  #03 @043   ----------------------------------------
 .byte   PATT
  .word Label_013A2628
@  #03 @044   ----------------------------------------
 .byte   PATT
  .word Label_013A26AA
@  #03 @045   ----------------------------------------
 .byte   PATT
  .word Label_013A26B9
@  #03 @046   ----------------------------------------
 .byte   PATT
  .word Label_013A26C8
@  #03 @047   ----------------------------------------
 .byte   PATT
  .word Label_013A26C8
@  #03 @048   ----------------------------------------
 .byte   PATT
  .word Label_013A265A
@  #03 @049   ----------------------------------------
 .byte   PATT
  .word Label_013A265A
@  #03 @050   ----------------------------------------
 .byte   GOTO
  .word Label_013A2616
 .byte   FINE

@**************** Track 4 (Midi-Chn.3) ****************@

song59_004:
@  #04 @000   ----------------------------------------
 .byte   KEYSH , song59_key+0
Label_013A276E:
 .byte   VOICE , 60
 .byte   VOL , 63*song59_mvl/mxv
 .byte   W72
 .byte   N60 ,Fs2 ,v100
 .byte   W72
@  #04 @001   ----------------------------------------
Label_013A2777:
 .byte   N60 ,Fs2 ,v100
 .byte   W66
 .byte   N06
 .byte   W06
 .byte   PEND 
 .byte   N96 ,Fn2
 .byte   W72
@  #04 @002   ----------------------------------------
 .byte   W72
 .byte   N60 ,Fs2
 .byte   W72
@  #04 @003   ----------------------------------------
 .byte   PATT
  .word Label_013A2777
@  #04 @004   ----------------------------------------
 .byte   N96 ,Fn2 ,v100
 .byte   W72
 .byte   W48
@  #04 @005   ----------------------------------------
 .byte   N24
 .byte   W24
 .byte   TIE ,As2
 .byte   W72
@  #04 @006   ----------------------------------------
 .byte   W60
 .byte   EOT
 .byte   W06
 .byte   N06
 .byte   W06
 .byte   TIE
 .byte   W72
@  #04 @007   ----------------------------------------
 .byte   W60
 .byte   EOT
 .byte   W12
 .byte   N72 ,Cs3
 .byte   W72
@  #04 @008   ----------------------------------------
 .byte   As2
 .byte   W72
 .byte   Cn3
 .byte   W72
@  #04 @009   ----------------------------------------
 .byte   Gs2
 .byte   W72
 .byte   As2
 .byte   W72
@  #04 @010   ----------------------------------------
Label_013A27A9:
 .byte   N48 ,Fs2 ,v100
 .byte   W48
 .byte   N24 ,Gs2
 .byte   W24
 .byte   PEND 
 .byte   N72 ,As2
 .byte   W72
@  #04 @011   ----------------------------------------
Label_013A27B4:
 .byte   N48 ,Gs2 ,v100
 .byte   W48
 .byte   N24
 .byte   W24
 .byte   PEND 
 .byte   TIE ,As2
 .byte   W72
@  #04 @012   ----------------------------------------
 .byte   W48
 .byte   EOT
 .byte   N24
 .byte   W24
 .byte   N72 ,Ds3
 .byte   W72
@  #04 @013   ----------------------------------------
 .byte   Cn3
 .byte   W72
 .byte   W72
@  #04 @014   ----------------------------------------
 .byte   N60 ,Fs2
 .byte   W72
@  #04 @015   ----------------------------------------
 .byte   PATT
  .word Label_013A2777
@  #04 @016   ----------------------------------------
 .byte   N96 ,Fn2 ,v100
 .byte   W72
 .byte   W72
@  #04 @017   ----------------------------------------
 .byte   N60 ,Fs2
 .byte   W72
@  #04 @018   ----------------------------------------
 .byte   PATT
  .word Label_013A2777
@  #04 @019   ----------------------------------------
 .byte   N96 ,Fn2 ,v100
 .byte   W72
 .byte   W48
@  #04 @020   ----------------------------------------
 .byte   N24
 .byte   W24
 .byte   TIE ,As2
 .byte   W72
@  #04 @021   ----------------------------------------
 .byte   W60
 .byte   EOT
 .byte   W06
 .byte   N06
 .byte   W06
 .byte   TIE
 .byte   W72
@  #04 @022   ----------------------------------------
 .byte   W60
 .byte   EOT
 .byte   W12
 .byte   N72 ,Cs3
 .byte   W72
@  #04 @023   ----------------------------------------
 .byte   As2
 .byte   W72
 .byte   Cn3
 .byte   W72
@  #04 @024   ----------------------------------------
 .byte   Gs2
 .byte   W72
 .byte   As2
 .byte   W72
@  #04 @025   ----------------------------------------
 .byte   PATT
  .word Label_013A27A9
@  #04 @026   ----------------------------------------
 .byte   N72 ,As2 ,v100
 .byte   W72
@  #04 @027   ----------------------------------------
 .byte   PATT
  .word Label_013A27B4
@  #04 @028   ----------------------------------------
 .byte   TIE ,As2 ,v100
 .byte   W72
 .byte   W48
@  #04 @029   ----------------------------------------
 .byte   EOT
 .byte   N24
 .byte   W24
 .byte   N72 ,Ds3
 .byte   W72
@  #04 @030   ----------------------------------------
 .byte   Cn3
 .byte   W72
 .byte   GOTO
  .word Label_013A276E
 .byte   FINE

@**************** Track 5 (Midi-Chn.4) ****************@

song59_005:
@  #05 @000   ----------------------------------------
 .byte   KEYSH , song59_key+0
Label_013A2822:
 .byte   VOICE , 60
 .byte   VOL , 63*song59_mvl/mxv
 .byte   W72
 .byte   N60 ,Ds2 ,v100
 .byte   W72
@  #05 @001   ----------------------------------------
Label_013A282B:
 .byte   N60 ,Ds2 ,v100
 .byte   W66
 .byte   N06
 .byte   W06
 .byte   PEND 
 .byte   N96
 .byte   W72
@  #05 @002   ----------------------------------------
 .byte   W72
 .byte   N60
 .byte   W72
@  #05 @003   ----------------------------------------
 .byte   PATT
  .word Label_013A282B
@  #05 @004   ----------------------------------------
 .byte   N96 ,Ds2 ,v100
 .byte   W72
 .byte   W48
@  #05 @005   ----------------------------------------
 .byte   N24
 .byte   W24
 .byte   TIE ,Fs2
 .byte   W72
@  #05 @006   ----------------------------------------
 .byte   W60
 .byte   EOT
 .byte   W06
 .byte   N06
 .byte   W06
 .byte   TIE ,Fn2
 .byte   W72
@  #05 @007   ----------------------------------------
 .byte   W60
 .byte   EOT
 .byte   W12
 .byte   N72 ,As2
 .byte   W72
@  #05 @008   ----------------------------------------
 .byte   Fs2
 .byte   W72
 .byte   Fn2
 .byte   W72
@  #05 @009   ----------------------------------------
 .byte   N72
 .byte   W72
 .byte   Fs2
 .byte   W72
@  #05 @010   ----------------------------------------
Label_013A285C:
 .byte   N48 ,Ds2 ,v100
 .byte   W48
 .byte   N24
 .byte   W24
 .byte   PEND 
 .byte   N72 ,Fn2
 .byte   W72
@  #05 @011   ----------------------------------------
Label_013A2866:
 .byte   N48 ,Fn2 ,v100
 .byte   W48
 .byte   N24
 .byte   W24
 .byte   PEND 
 .byte   TIE ,Fs2
 .byte   W72
@  #05 @012   ----------------------------------------
 .byte   W72
 .byte   EOT
 .byte   TIE ,Gs2
 .byte   W72
@  #05 @013   ----------------------------------------
 .byte   W72
 .byte   EOT
 .byte   W72
@  #05 @014   ----------------------------------------
 .byte   N60 ,Ds2
 .byte   W72
@  #05 @015   ----------------------------------------
 .byte   PATT
  .word Label_013A282B
@  #05 @016   ----------------------------------------
 .byte   N96 ,Ds2 ,v100
 .byte   W72
 .byte   W72
@  #05 @017   ----------------------------------------
 .byte   N60
 .byte   W72
@  #05 @018   ----------------------------------------
 .byte   PATT
  .word Label_013A282B
@  #05 @019   ----------------------------------------
 .byte   N96 ,Ds2 ,v100
 .byte   W72
 .byte   W48
@  #05 @020   ----------------------------------------
 .byte   N24
 .byte   W24
 .byte   TIE ,Fs2
 .byte   W72
@  #05 @021   ----------------------------------------
 .byte   W60
 .byte   EOT
 .byte   W06
 .byte   N06
 .byte   W06
 .byte   TIE ,Fn2
 .byte   W72
@  #05 @022   ----------------------------------------
 .byte   W60
 .byte   EOT
 .byte   W12
 .byte   N72 ,As2
 .byte   W72
@  #05 @023   ----------------------------------------
 .byte   Fs2
 .byte   W72
 .byte   Fn2
 .byte   W72
@  #05 @024   ----------------------------------------
 .byte   N72
 .byte   W72
 .byte   Fs2
 .byte   W72
@  #05 @025   ----------------------------------------
 .byte   PATT
  .word Label_013A285C
@  #05 @026   ----------------------------------------
 .byte   N72 ,Fn2 ,v100
 .byte   W72
@  #05 @027   ----------------------------------------
 .byte   PATT
  .word Label_013A2866
@  #05 @028   ----------------------------------------
 .byte   TIE ,Fs2 ,v100
 .byte   W72
 .byte   W72
@  #05 @029   ----------------------------------------
 .byte   EOT
 .byte   TIE ,Gs2
 .byte   W72
 .byte   W72
@  #05 @030   ----------------------------------------
 .byte   EOT
 .byte   GOTO
  .word Label_013A2822
 .byte   FINE

@**************** Track 6 (Midi-Chn.5) ****************@

song59_006:
@  #06 @000   ----------------------------------------
 .byte   KEYSH , song59_key+0
Label_013A28CE:
 .byte   VOICE , 56
 .byte   VOL , 61*song59_mvl/mxv
 .byte   W72
 .byte   W72
@  #06 @001   ----------------------------------------
 .byte   W72
Label_013A28D5:
 .byte   W24
@  #06 @002   ----------------------------------------
 .byte   N24 ,Cn3 ,v100
 .byte   W24
 .byte   Fn3
 .byte   W24
 .byte   PEND 
 .byte   N48 ,Cn4
 .byte   W72
@  #06 @003   ----------------------------------------
 .byte   W72
 .byte   W72
@  #06 @004   ----------------------------------------
 .byte   W48
 .byte   N24 ,Fn3
 .byte   W24
 .byte   N36 ,Cn4
 .byte   W72
@  #06 @005   ----------------------------------------
 .byte   W72
 .byte   W72
@  #06 @006   ----------------------------------------
 .byte   W72
 .byte   W72
@  #06 @007   ----------------------------------------
 .byte   W72
 .byte   W72
@  #06 @008   ----------------------------------------
 .byte   W72
 .byte   W72
@  #06 @009   ----------------------------------------
 .byte   W72
 .byte   W72
@  #06 @010   ----------------------------------------
 .byte   W72
 .byte   W72
@  #06 @011   ----------------------------------------
 .byte   W72
 .byte   W72
@  #06 @012   ----------------------------------------
 .byte   W72
 .byte   W72
@  #06 @013   ----------------------------------------
 .byte   VOL , 61*song59_mvl/mxv
 .byte   W72
 .byte   W72
@  #06 @014   ----------------------------------------
 .byte   W72
@  #06 @015   ----------------------------------------
 .byte   PATT
  .word Label_013A28D5
@  #06 @016   ----------------------------------------
 .byte   N48 ,Cn4 ,v100
 .byte   W72
 .byte   W72
@  #06 @017   ----------------------------------------
 .byte   W72
 .byte   W48
@  #06 @018   ----------------------------------------
 .byte   N24 ,Fn3
 .byte   W24
 .byte   N36 ,Cn4
 .byte   W72
@  #06 @019   ----------------------------------------
 .byte   W72
 .byte   W72
@  #06 @020   ----------------------------------------
 .byte   W72
 .byte   W72
@  #06 @021   ----------------------------------------
 .byte   W72
 .byte   W72
@  #06 @022   ----------------------------------------
 .byte   W72
 .byte   W72
@  #06 @023   ----------------------------------------
 .byte   W72
 .byte   W72
@  #06 @024   ----------------------------------------
 .byte   W72
 .byte   W72
@  #06 @025   ----------------------------------------
 .byte   W72
 .byte   W72
@  #06 @026   ----------------------------------------
 .byte   W72
 .byte   W72
@  #06 @027   ----------------------------------------
 .byte   GOTO
  .word Label_013A28CE
 .byte   FINE

@**************** Track 7 (Midi-Chn.6) ****************@

song59_007:
@  #07 @000   ----------------------------------------
 .byte   KEYSH , song59_key+0
Label_013A292A:
 .byte   VOICE , 50
 .byte   VOL , 66*song59_mvl/mxv
 .byte   W72
 .byte   W72
@  #07 @001   ----------------------------------------
 .byte   W72
 .byte   W72
@  #07 @002   ----------------------------------------
 .byte   W72
 .byte   W72
@  #07 @003   ----------------------------------------
 .byte   W72
 .byte   W72
@  #07 @004   ----------------------------------------
 .byte   W72
 .byte   W72
@  #07 @005   ----------------------------------------
 .byte   W72
 .byte   W72
@  #07 @006   ----------------------------------------
 .byte   W72
 .byte   N72 ,Fs3 ,v100
 .byte   W72
@  #07 @007   ----------------------------------------
Label_013A293F:
 .byte   N48 ,Cs3 ,v100
 .byte   W48
 .byte   N24 ,Ds3
 .byte   W24
 .byte   PEND 
 .byte   N72 ,Fn3
 .byte   W72
@  #07 @008   ----------------------------------------
 .byte   As2
 .byte   W72
 .byte   Ds3
 .byte   W72
@  #07 @009   ----------------------------------------
Label_013A294E:
 .byte   N48 ,As2 ,v100
 .byte   W48
 .byte   N24 ,Cn3
 .byte   W24
 .byte   PEND 
 .byte   N72 ,Cs3
 .byte   W72
@  #07 @010   ----------------------------------------
Label_013A2959:
 .byte   N48 ,Cs3 ,v100
 .byte   W48
 .byte   N24
 .byte   W24
 .byte   PEND 
 .byte   TIE
 .byte   W72
@  #07 @011   ----------------------------------------
 .byte   W48
 .byte   EOT
 .byte   N24 ,Ds3
 .byte   W24
 .byte   TIE ,Fn3
 .byte   W72
@  #07 @012   ----------------------------------------
 .byte   W72
 .byte   EOT
 .byte   VOL , 66*song59_mvl/mxv
 .byte   W72
@  #07 @013   ----------------------------------------
 .byte   W72
 .byte   W72
@  #07 @014   ----------------------------------------
 .byte   W72
 .byte   W72
@  #07 @015   ----------------------------------------
 .byte   W72
 .byte   W72
@  #07 @016   ----------------------------------------
 .byte   W72
 .byte   W72
@  #07 @017   ----------------------------------------
 .byte   W72
 .byte   W72
@  #07 @018   ----------------------------------------
 .byte   W72
 .byte   W72
@  #07 @019   ----------------------------------------
 .byte   N72 ,Fs3
 .byte   W72
@  #07 @020   ----------------------------------------
 .byte   PATT
  .word Label_013A293F
@  #07 @021   ----------------------------------------
 .byte   N72 ,Fn3 ,v100
 .byte   W72
 .byte   As2
 .byte   W72
@  #07 @022   ----------------------------------------
 .byte   Ds3
 .byte   W72
@  #07 @023   ----------------------------------------
 .byte   PATT
  .word Label_013A294E
@  #07 @024   ----------------------------------------
 .byte   N72 ,Cs3 ,v100
 .byte   W72
@  #07 @025   ----------------------------------------
 .byte   PATT
  .word Label_013A2959
@  #07 @026   ----------------------------------------
 .byte   TIE ,Cs3 ,v100
 .byte   W72
 .byte   W48
@  #07 @027   ----------------------------------------
 .byte   EOT
 .byte   N24 ,Ds3
 .byte   W24
 .byte   TIE ,Fn3
 .byte   W72
@  #07 @028   ----------------------------------------
 .byte   W72
 .byte   EOT
 .byte   GOTO
  .word Label_013A292A
 .byte   FINE

@**************** Track 8 (Midi-Chn.7) ****************@

song59_008:
@  #08 @000   ----------------------------------------
 .byte   KEYSH , song59_key+0
Label_013A29B2:
 .byte   VOICE , 47
 .byte   VOL , 45*song59_mvl/mxv
 .byte   N24 ,Gn2 ,v100
 .byte   W60
 .byte   N12 ,Gn2 ,v080
 .byte   W12
Label_013A29BE:
 .byte   N24 ,Gn2 ,v100
 .byte   W36
@  #08 @001   ----------------------------------------
 .byte   N12 ,Gn2 ,v080
 .byte   W12
 .byte   N12
 .byte   W12
 .byte   N12
 .byte   W12
 .byte   PEND 
Label_013A29CB:
 .byte   N24 ,Gn2 ,v100
 .byte   W36
 .byte   N12 ,Ds2 ,v080
 .byte   W12
 .byte   Gn2
 .byte   W12
@  #08 @002   ----------------------------------------
 .byte   Ds2
 .byte   W12
 .byte   PEND 
@  #08 @003   ----------------------------------------
 .byte   PATT
  .word Label_013A29CB
@  #08 @004   ----------------------------------------
 .byte   PATT
  .word Label_013A29CB
@  #08 @005   ----------------------------------------
Label_013A29E2:
 .byte   N24 ,Gn2 ,v100
 .byte   W24
 .byte   N12 ,Gn2 ,v080
 .byte   W12
 .byte   Ds2
 .byte   W24
 .byte   N12
 .byte   W12
 .byte   PEND 
@  #08 @006   ----------------------------------------
 .byte   PATT
  .word Label_013A29CB
@  #08 @007   ----------------------------------------
 .byte   PATT
  .word Label_013A29CB
@  #08 @008   ----------------------------------------
Label_013A29F9:
 .byte   N24 ,Gn2 ,v100
 .byte   W60
 .byte   N06 ,Gn2 ,v080
 .byte   W06
 .byte   Ds2
 .byte   W06
 .byte   PEND 
 .byte   N24 ,Gn2 ,v100
 .byte   W72
@  #08 @009   ----------------------------------------
Label_013A2A08:
 .byte   N24 ,Gn2 ,v100
 .byte   W60
 .byte   N06 ,Gn2 ,v080
 .byte   W06
 .byte   N06
 .byte   W06
 .byte   PEND 
Label_013A2A13:
 .byte   N12 ,Gn2 ,v100
 .byte   W12
 .byte   Ds2 ,v072
 .byte   W12
@  #08 @010   ----------------------------------------
 .byte   Gn2
 .byte   W12
 .byte   Ds2
 .byte   W12
 .byte   Gn2
 .byte   W12
 .byte   Ds2
 .byte   W12
 .byte   PEND 
Label_013A2A23:
 .byte   N12 ,Gn2 ,v100
 .byte   W12
 .byte   Ds2 ,v072
 .byte   W12
 .byte   Gn2
 .byte   W12
 .byte   Ds2
 .byte   W12
@  #08 @011   ----------------------------------------
 .byte   Gn2
 .byte   W12
 .byte   N06
 .byte   W06
 .byte   N06
 .byte   W06
 .byte   PEND 
@  #08 @012   ----------------------------------------
 .byte   PATT
  .word Label_013A2A13
@  #08 @013   ----------------------------------------
 .byte   PATT
  .word Label_013A2A23
@  #08 @014   ----------------------------------------
 .byte   PATT
  .word Label_013A2A13
@  #08 @015   ----------------------------------------
 .byte   PATT
  .word Label_013A2A23
@  #08 @016   ----------------------------------------
 .byte   PATT
  .word Label_013A2A13
@  #08 @017   ----------------------------------------
 .byte   PATT
  .word Label_013A2A23
@  #08 @018   ----------------------------------------
 .byte   PATT
  .word Label_013A2A13
@  #08 @019   ----------------------------------------
 .byte   PATT
  .word Label_013A2A23
@  #08 @020   ----------------------------------------
 .byte   PATT
  .word Label_013A2A13
@  #08 @021   ----------------------------------------
 .byte   PATT
  .word Label_013A2A23
@  #08 @022   ----------------------------------------
 .byte   PATT
  .word Label_013A2A13
@  #08 @023   ----------------------------------------
 .byte   PATT
  .word Label_013A2A23
@  #08 @024   ----------------------------------------
 .byte   VOL , 45*song59_mvl/mxv
 .byte   N24 ,Gn2 ,v100
 .byte   W60
 .byte   N12 ,Gn2 ,v080
 .byte   W12
@  #08 @025   ----------------------------------------
 .byte   PATT
  .word Label_013A29BE
@  #08 @026   ----------------------------------------
 .byte   PATT
  .word Label_013A29CB
@  #08 @027   ----------------------------------------
 .byte   PATT
  .word Label_013A29CB
@  #08 @028   ----------------------------------------
 .byte   PATT
  .word Label_013A29CB
@  #08 @029   ----------------------------------------
 .byte   PATT
  .word Label_013A29E2
@  #08 @030   ----------------------------------------
 .byte   PATT
  .word Label_013A29CB
@  #08 @031   ----------------------------------------
 .byte   PATT
  .word Label_013A29CB
@  #08 @032   ----------------------------------------
 .byte   PATT
  .word Label_013A29F9
@  #08 @033   ----------------------------------------
 .byte   N24 ,Gn2 ,v100
 .byte   W72
@  #08 @034   ----------------------------------------
 .byte   PATT
  .word Label_013A2A08
@  #08 @035   ----------------------------------------
 .byte   PATT
  .word Label_013A2A13
@  #08 @036   ----------------------------------------
 .byte   PATT
  .word Label_013A2A23
@  #08 @037   ----------------------------------------
 .byte   PATT
  .word Label_013A2A13
@  #08 @038   ----------------------------------------
 .byte   PATT
  .word Label_013A2A23
@  #08 @039   ----------------------------------------
 .byte   PATT
  .word Label_013A2A13
@  #08 @040   ----------------------------------------
 .byte   PATT
  .word Label_013A2A23
@  #08 @041   ----------------------------------------
 .byte   PATT
  .word Label_013A2A13
@  #08 @042   ----------------------------------------
 .byte   PATT
  .word Label_013A2A23
@  #08 @043   ----------------------------------------
 .byte   PATT
  .word Label_013A2A13
@  #08 @044   ----------------------------------------
 .byte   PATT
  .word Label_013A2A23
@  #08 @045   ----------------------------------------
 .byte   PATT
  .word Label_013A2A13
@  #08 @046   ----------------------------------------
 .byte   PATT
  .word Label_013A2A23
@  #08 @047   ----------------------------------------
 .byte   PATT
  .word Label_013A2A13
@  #08 @048   ----------------------------------------
 .byte   PATT
  .word Label_013A2A23
@  #08 @049   ----------------------------------------
 .byte   GOTO
  .word Label_013A29B2
 .byte   FINE

@**************** Track 9 (Midi-Chn.8) ****************@

song59_009:
@  #09 @000   ----------------------------------------
 .byte   KEYSH , song59_key+0
Label_013A2AFA:
 .byte   VOICE , 56
 .byte   VOL , 68*song59_mvl/mxv
 .byte   W60
 .byte   N03 ,Ds2 ,v100
 .byte   W03
 .byte   Fn2
 .byte   W03
 .byte   Fs2
 .byte   W03
 .byte   Gs2
 .byte   W03
 .byte   N60 ,As2
 .byte   W72
@  #09 @001   ----------------------------------------
Label_013A2B0C:
 .byte   N60 ,As2 ,v100
 .byte   W66
 .byte   N06
 .byte   W06
 .byte   PEND 
 .byte   N96 ,An2
 .byte   W72
@  #09 @002   ----------------------------------------
Label_013A2B16:
 .byte   W60
 .byte   N03 ,Ds2 ,v100
 .byte   W03
 .byte   Fn2
 .byte   W03
 .byte   Fs2
 .byte   W03
 .byte   Gs2
 .byte   W03
 .byte   PEND 
 .byte   N60 ,As2
 .byte   W72
@  #09 @003   ----------------------------------------
 .byte   PATT
  .word Label_013A2B0C
@  #09 @004   ----------------------------------------
 .byte   N96 ,Cn3 ,v100
 .byte   W72
 .byte   W48
@  #09 @005   ----------------------------------------
 .byte   N24
 .byte   W24
 .byte   TIE ,Cs3
 .byte   W72
@  #09 @006   ----------------------------------------
 .byte   W60
 .byte   EOT
 .byte   W06
 .byte   N06
 .byte   W06
 .byte   TIE ,Cn3
 .byte   W72
@  #09 @007   ----------------------------------------
 .byte   W60
 .byte   EOT
 .byte   W12
 .byte   N72 ,Fs3 ,v088
 .byte   W72
@  #09 @008   ----------------------------------------
Label_013A2B43:
 .byte   N48 ,Cs3 ,v088
 .byte   W48
 .byte   N24 ,Ds3
 .byte   W24
 .byte   PEND 
 .byte   N72 ,Fn3
 .byte   W72
@  #09 @009   ----------------------------------------
 .byte   As2
 .byte   W72
 .byte   Ds3
 .byte   W72
@  #09 @010   ----------------------------------------
Label_013A2B52:
 .byte   N48 ,As2 ,v088
 .byte   W48
 .byte   N24 ,Cn3
 .byte   W24
 .byte   PEND 
 .byte   N72 ,Cs3
 .byte   W72
@  #09 @011   ----------------------------------------
Label_013A2B5D:
 .byte   N48 ,Cs3 ,v088
 .byte   W48
 .byte   N24
 .byte   W24
 .byte   PEND 
 .byte   TIE
 .byte   W72
@  #09 @012   ----------------------------------------
 .byte   W48
 .byte   EOT
 .byte   N24 ,Ds3
 .byte   W24
 .byte   TIE ,Fn3
 .byte   W72
@  #09 @013   ----------------------------------------
 .byte   W72
 .byte   EOT
 .byte   VOL , 68*song59_mvl/mxv
 .byte   W60
@  #09 @014   ----------------------------------------
 .byte   N03 ,Ds2 ,v100
 .byte   W03
 .byte   Fn2
 .byte   W03
 .byte   Fs2
 .byte   W03
 .byte   Gs2
 .byte   W03
 .byte   N60 ,As2
 .byte   W72
@  #09 @015   ----------------------------------------
 .byte   PATT
  .word Label_013A2B0C
@  #09 @016   ----------------------------------------
 .byte   N96 ,An2 ,v100
 .byte   W72
@  #09 @017   ----------------------------------------
 .byte   PATT
  .word Label_013A2B16
@  #09 @018   ----------------------------------------
 .byte   N60 ,As2 ,v100
 .byte   W72
@  #09 @019   ----------------------------------------
 .byte   PATT
  .word Label_013A2B0C
@  #09 @020   ----------------------------------------
 .byte   N96 ,Cn3 ,v100
 .byte   W72
 .byte   W48
@  #09 @021   ----------------------------------------
 .byte   N24
 .byte   W24
 .byte   TIE ,Cs3
 .byte   W72
@  #09 @022   ----------------------------------------
 .byte   W60
 .byte   EOT
 .byte   W06
 .byte   N06
 .byte   W06
 .byte   TIE ,Cn3
 .byte   W72
@  #09 @023   ----------------------------------------
 .byte   W60
 .byte   EOT
 .byte   W12
 .byte   N72 ,Fs3 ,v088
 .byte   W72
@  #09 @024   ----------------------------------------
 .byte   PATT
  .word Label_013A2B43
@  #09 @025   ----------------------------------------
 .byte   N72 ,Fn3 ,v088
 .byte   W72
 .byte   As2
 .byte   W72
@  #09 @026   ----------------------------------------
 .byte   Ds3
 .byte   W72
@  #09 @027   ----------------------------------------
 .byte   PATT
  .word Label_013A2B52
@  #09 @028   ----------------------------------------
 .byte   N72 ,Cs3 ,v088
 .byte   W72
@  #09 @029   ----------------------------------------
 .byte   PATT
  .word Label_013A2B5D
@  #09 @030   ----------------------------------------
 .byte   TIE ,Cs3 ,v088
 .byte   W72
 .byte   W48
@  #09 @031   ----------------------------------------
 .byte   EOT
 .byte   N24 ,Ds3
 .byte   W24
 .byte   TIE ,Fn3
 .byte   W72
@  #09 @032   ----------------------------------------
 .byte   W72
 .byte   EOT
 .byte   GOTO
  .word Label_013A2AFA
 .byte   FINE

@**************** Track 10 (Midi-Chn.9) ****************@

song59_010:
@  #10 @000   ----------------------------------------
 .byte   KEYSH , song59_key+0
Label_013A2BE2:
 .byte   VOICE , 56
 .byte   VOL , 56*song59_mvl/mxv
 .byte   W72
 .byte   N60 ,Fs2 ,v100
 .byte   W72
@  #10 @001   ----------------------------------------
Label_013A2BEB:
 .byte   N60 ,Fs2 ,v100
 .byte   W66
 .byte   N06
 .byte   W06
 .byte   PEND 
 .byte   N96 ,Fn2
 .byte   W72
@  #10 @002   ----------------------------------------
 .byte   W72
 .byte   N60 ,Fs2
 .byte   W72
@  #10 @003   ----------------------------------------
 .byte   PATT
  .word Label_013A2BEB
@  #10 @004   ----------------------------------------
 .byte   N96 ,Fn2 ,v100
 .byte   W72
 .byte   W48
@  #10 @005   ----------------------------------------
 .byte   N24
 .byte   W24
 .byte   TIE ,As2
 .byte   W72
@  #10 @006   ----------------------------------------
 .byte   W60
 .byte   EOT
 .byte   W06
 .byte   N06
 .byte   W06
 .byte   TIE
 .byte   W72
@  #10 @007   ----------------------------------------
 .byte   W60
 .byte   EOT
 .byte   W12
 .byte   N72 ,Cs3
 .byte   W72
@  #10 @008   ----------------------------------------
 .byte   As2
 .byte   W72
 .byte   Cn3
 .byte   W72
@  #10 @009   ----------------------------------------
 .byte   Gs2
 .byte   W72
 .byte   As2
 .byte   W72
@  #10 @010   ----------------------------------------
Label_013A2C1D:
 .byte   N48 ,Fs2 ,v100
 .byte   W48
 .byte   N24 ,Gs2
 .byte   W24
 .byte   PEND 
 .byte   N72 ,As2
 .byte   W72
@  #10 @011   ----------------------------------------
Label_013A2C28:
 .byte   N48 ,Gs2 ,v100
 .byte   W48
 .byte   N24
 .byte   W24
 .byte   PEND 
 .byte   TIE ,As2
 .byte   W72
@  #10 @012   ----------------------------------------
 .byte   W48
 .byte   EOT
 .byte   N24
 .byte   W24
 .byte   N72 ,Ds3
 .byte   W72
@  #10 @013   ----------------------------------------
 .byte   Cn3
 .byte   W72
 .byte   W72
@  #10 @014   ----------------------------------------
 .byte   N60 ,Fs2
 .byte   W72
@  #10 @015   ----------------------------------------
 .byte   PATT
  .word Label_013A2BEB
@  #10 @016   ----------------------------------------
 .byte   N96 ,Fn2 ,v100
 .byte   W72
 .byte   W72
@  #10 @017   ----------------------------------------
 .byte   N60 ,Fs2
 .byte   W72
@  #10 @018   ----------------------------------------
 .byte   PATT
  .word Label_013A2BEB
@  #10 @019   ----------------------------------------
 .byte   N96 ,Fn2 ,v100
 .byte   W72
 .byte   W48
@  #10 @020   ----------------------------------------
 .byte   N24
 .byte   W24
 .byte   TIE ,As2
 .byte   W72
@  #10 @021   ----------------------------------------
 .byte   W60
 .byte   EOT
 .byte   W06
 .byte   N06
 .byte   W06
 .byte   TIE
 .byte   W72
@  #10 @022   ----------------------------------------
 .byte   W60
 .byte   EOT
 .byte   W12
 .byte   N72 ,Cs3
 .byte   W72
@  #10 @023   ----------------------------------------
 .byte   As2
 .byte   W72
 .byte   Cn3
 .byte   W72
@  #10 @024   ----------------------------------------
 .byte   Gs2
 .byte   W72
 .byte   As2
 .byte   W72
@  #10 @025   ----------------------------------------
 .byte   PATT
  .word Label_013A2C1D
@  #10 @026   ----------------------------------------
 .byte   N72 ,As2 ,v100
 .byte   W72
@  #10 @027   ----------------------------------------
 .byte   PATT
  .word Label_013A2C28
@  #10 @028   ----------------------------------------
 .byte   TIE ,As2 ,v100
 .byte   W72
 .byte   W48
@  #10 @029   ----------------------------------------
 .byte   EOT
 .byte   N24
 .byte   W24
 .byte   N72 ,Ds3
 .byte   W72
@  #10 @030   ----------------------------------------
 .byte   Cn3
 .byte   W72
 .byte   GOTO
  .word Label_013A2BE2
 .byte   FINE

@**************** Track 11 (Midi-Chn.10) ****************@

song59_011:
@  #11 @000   ----------------------------------------
 .byte   KEYSH , song59_key+0
Label_013A2C96:
 .byte   VOICE , 56
 .byte   VOL , 56*song59_mvl/mxv
 .byte   W72
 .byte   N60 ,Ds2 ,v100
 .byte   W72
@  #11 @001   ----------------------------------------
Label_013A2C9F:
 .byte   N60 ,Ds2 ,v100
 .byte   W66
 .byte   N06
 .byte   W06
 .byte   PEND 
 .byte   N96
 .byte   W72
@  #11 @002   ----------------------------------------
 .byte   W72
 .byte   N60
 .byte   W72
@  #11 @003   ----------------------------------------
 .byte   PATT
  .word Label_013A2C9F
@  #11 @004   ----------------------------------------
 .byte   N96 ,Ds2 ,v100
 .byte   W72
 .byte   W48
@  #11 @005   ----------------------------------------
 .byte   N24
 .byte   W24
 .byte   TIE ,Fs2
 .byte   W72
@  #11 @006   ----------------------------------------
 .byte   W60
 .byte   EOT
 .byte   W06
 .byte   N06
 .byte   W06
 .byte   TIE ,Fn2
 .byte   W72
@  #11 @007   ----------------------------------------
 .byte   W60
 .byte   EOT
 .byte   W12
 .byte   N72 ,As2
 .byte   W72
@  #11 @008   ----------------------------------------
 .byte   Fs2
 .byte   W72
 .byte   Fn2
 .byte   W72
@  #11 @009   ----------------------------------------
 .byte   N72
 .byte   W72
 .byte   Fs2
 .byte   W72
@  #11 @010   ----------------------------------------
Label_013A2CD0:
 .byte   N48 ,Ds2 ,v100
 .byte   W48
 .byte   N24
 .byte   W24
 .byte   PEND 
 .byte   N72 ,Fn2
 .byte   W72
@  #11 @011   ----------------------------------------
Label_013A2CDA:
 .byte   N48 ,Fn2 ,v100
 .byte   W48
 .byte   N24
 .byte   W24
 .byte   PEND 
 .byte   TIE ,Fs2
 .byte   W72
@  #11 @012   ----------------------------------------
 .byte   W72
 .byte   EOT
 .byte   TIE ,Gs2
 .byte   W72
@  #11 @013   ----------------------------------------
 .byte   W72
 .byte   EOT
 .byte   W72
@  #11 @014   ----------------------------------------
 .byte   N60 ,Ds2
 .byte   W72
@  #11 @015   ----------------------------------------
 .byte   PATT
  .word Label_013A2C9F
@  #11 @016   ----------------------------------------
 .byte   N96 ,Ds2 ,v100
 .byte   W72
 .byte   W72
@  #11 @017   ----------------------------------------
 .byte   N60
 .byte   W72
@  #11 @018   ----------------------------------------
 .byte   PATT
  .word Label_013A2C9F
@  #11 @019   ----------------------------------------
 .byte   N96 ,Ds2 ,v100
 .byte   W72
 .byte   W48
@  #11 @020   ----------------------------------------
 .byte   N24
 .byte   W24
 .byte   TIE ,Fs2
 .byte   W72
@  #11 @021   ----------------------------------------
 .byte   W60
 .byte   EOT
 .byte   W06
 .byte   N06
 .byte   W06
 .byte   TIE ,Fn2
 .byte   W72
@  #11 @022   ----------------------------------------
 .byte   W60
 .byte   EOT
 .byte   W12
 .byte   N72 ,As2
 .byte   W72
@  #11 @023   ----------------------------------------
 .byte   Fs2
 .byte   W72
 .byte   Fn2
 .byte   W72
@  #11 @024   ----------------------------------------
 .byte   N72
 .byte   W72
 .byte   Fs2
 .byte   W72
@  #11 @025   ----------------------------------------
 .byte   PATT
  .word Label_013A2CD0
@  #11 @026   ----------------------------------------
 .byte   N72 ,Fn2 ,v100
 .byte   W72
@  #11 @027   ----------------------------------------
 .byte   PATT
  .word Label_013A2CDA
@  #11 @028   ----------------------------------------
 .byte   TIE ,Fs2 ,v100
 .byte   W72
 .byte   W72
@  #11 @029   ----------------------------------------
 .byte   EOT
 .byte   TIE ,Gs2
 .byte   W72
 .byte   W72
@  #11 @030   ----------------------------------------
 .byte   EOT
 .byte   GOTO
  .word Label_013A2C96
 .byte   FINE

@**************** Track 12 (Midi-Chn.11) ****************@

song59_012:
@  #12 @000   ----------------------------------------
 .byte   KEYSH , song59_key+0
Label_013A2D42:
 .byte   VOICE , 60
 .byte   VOL , 63*song59_mvl/mxv
 .byte   W72
 .byte   W72
@  #12 @001   ----------------------------------------
 .byte   W72
Label_013A2D49:
 .byte   W24
@  #12 @002   ----------------------------------------
 .byte   N24 ,Cn3 ,v100
 .byte   W24
 .byte   Fn3
 .byte   W24
 .byte   PEND 
 .byte   N48 ,Cn4
 .byte   W72
@  #12 @003   ----------------------------------------
 .byte   W72
 .byte   W72
@  #12 @004   ----------------------------------------
 .byte   W48
 .byte   N24 ,Fn3
 .byte   W24
 .byte   N36 ,Cn4
 .byte   W72
@  #12 @005   ----------------------------------------
 .byte   W72
 .byte   W72
@  #12 @006   ----------------------------------------
 .byte   W72
 .byte   W72
@  #12 @007   ----------------------------------------
 .byte   W72
 .byte   W72
@  #12 @008   ----------------------------------------
 .byte   W72
 .byte   W72
@  #12 @009   ----------------------------------------
 .byte   W72
 .byte   W72
@  #12 @010   ----------------------------------------
 .byte   W72
 .byte   W72
@  #12 @011   ----------------------------------------
 .byte   W72
 .byte   W72
@  #12 @012   ----------------------------------------
 .byte   W72
 .byte   W72
@  #12 @013   ----------------------------------------
 .byte   W72
 .byte   W72
@  #12 @014   ----------------------------------------
 .byte   W72
@  #12 @015   ----------------------------------------
 .byte   PATT
  .word Label_013A2D49
@  #12 @016   ----------------------------------------
 .byte   N48 ,Cn4 ,v100
 .byte   W72
 .byte   W72
@  #12 @017   ----------------------------------------
 .byte   W72
 .byte   W48
@  #12 @018   ----------------------------------------
 .byte   N24 ,Fn3
 .byte   W24
 .byte   N36 ,Cn4
 .byte   W72
@  #12 @019   ----------------------------------------
 .byte   W72
 .byte   W72
@  #12 @020   ----------------------------------------
 .byte   W72
 .byte   W72
@  #12 @021   ----------------------------------------
 .byte   W72
 .byte   W72
@  #12 @022   ----------------------------------------
 .byte   W72
 .byte   W72
@  #12 @023   ----------------------------------------
 .byte   W72
 .byte   W72
@  #12 @024   ----------------------------------------
 .byte   W72
 .byte   W72
@  #12 @025   ----------------------------------------
 .byte   W72
 .byte   W72
@  #12 @026   ----------------------------------------
 .byte   W72
 .byte   W72
@  #12 @027   ----------------------------------------
 .byte   GOTO
  .word Label_013A2D42
 .byte   FINE

@**************** Track 13 (Midi-Chn.12) ****************@

song59_013:
@  #13 @000   ----------------------------------------
 .byte   KEYSH , song59_key+0
Label_013A2D9A:
 .byte   VOICE , 47
 .byte   VOL , 58*song59_mvl/mxv
 .byte   N24 ,Gn1 ,v100
 .byte   W60
 .byte   N12 ,Gn1 ,v080
 .byte   W12
Label_013A2DA6:
 .byte   N24 ,Gn1 ,v100
 .byte   W36
@  #13 @001   ----------------------------------------
 .byte   N12 ,Gn1 ,v080
 .byte   W12
 .byte   N12
 .byte   W12
 .byte   N12
 .byte   W12
 .byte   PEND 
Label_013A2DB3:
 .byte   N24 ,Gn1 ,v100
 .byte   W36
 .byte   N12 ,Ds1 ,v080
 .byte   W12
 .byte   Gn1
 .byte   W12
@  #13 @002   ----------------------------------------
 .byte   Ds1
 .byte   W12
 .byte   PEND 
@  #13 @003   ----------------------------------------
 .byte   PATT
  .word Label_013A2DB3
@  #13 @004   ----------------------------------------
 .byte   PATT
  .word Label_013A2DB3
@  #13 @005   ----------------------------------------
Label_013A2DCA:
 .byte   N24 ,Gn1 ,v100
 .byte   W24
 .byte   N12 ,Gn1 ,v080
 .byte   W12
 .byte   Ds1
 .byte   W24
 .byte   N12
 .byte   W12
 .byte   PEND 
@  #13 @006   ----------------------------------------
 .byte   PATT
  .word Label_013A2DB3
@  #13 @007   ----------------------------------------
 .byte   PATT
  .word Label_013A2DB3
@  #13 @008   ----------------------------------------
Label_013A2DE1:
 .byte   N24 ,Gn1 ,v100
 .byte   W60
 .byte   N06 ,Gn1 ,v080
 .byte   W06
 .byte   Ds1
 .byte   W06
 .byte   PEND 
 .byte   N24 ,Gn1 ,v100
 .byte   W72
@  #13 @009   ----------------------------------------
Label_013A2DF0:
 .byte   N24 ,Gn1 ,v100
 .byte   W60
 .byte   N06 ,Gn1 ,v080
 .byte   W06
 .byte   N06
 .byte   W06
 .byte   PEND 
Label_013A2DFB:
 .byte   N12 ,Gn1 ,v100
 .byte   W12
 .byte   Ds1 ,v072
 .byte   W12
@  #13 @010   ----------------------------------------
 .byte   Gn1
 .byte   W12
 .byte   Ds1
 .byte   W12
 .byte   Gn1
 .byte   W12
 .byte   Ds1
 .byte   W12
 .byte   PEND 
Label_013A2E0B:
 .byte   N12 ,Gn1 ,v100
 .byte   W12
 .byte   Ds1 ,v072
 .byte   W12
 .byte   Gn1
 .byte   W12
 .byte   Ds1
 .byte   W12
@  #13 @011   ----------------------------------------
 .byte   Gn1
 .byte   W12
 .byte   N06
 .byte   W06
 .byte   N06
 .byte   W06
 .byte   PEND 
@  #13 @012   ----------------------------------------
 .byte   PATT
  .word Label_013A2DFB
@  #13 @013   ----------------------------------------
 .byte   PATT
  .word Label_013A2E0B
@  #13 @014   ----------------------------------------
 .byte   PATT
  .word Label_013A2DFB
@  #13 @015   ----------------------------------------
 .byte   PATT
  .word Label_013A2E0B
@  #13 @016   ----------------------------------------
 .byte   PATT
  .word Label_013A2DFB
@  #13 @017   ----------------------------------------
 .byte   PATT
  .word Label_013A2E0B
@  #13 @018   ----------------------------------------
 .byte   PATT
  .word Label_013A2DFB
@  #13 @019   ----------------------------------------
 .byte   PATT
  .word Label_013A2E0B
@  #13 @020   ----------------------------------------
 .byte   PATT
  .word Label_013A2DFB
@  #13 @021   ----------------------------------------
 .byte   PATT
  .word Label_013A2E0B
@  #13 @022   ----------------------------------------
 .byte   PATT
  .word Label_013A2DFB
@  #13 @023   ----------------------------------------
 .byte   PATT
  .word Label_013A2E0B
@  #13 @024   ----------------------------------------
 .byte   N24 ,Gn1 ,v100
 .byte   W60
 .byte   N12 ,Gn1 ,v080
 .byte   W12
@  #13 @025   ----------------------------------------
 .byte   PATT
  .word Label_013A2DA6
@  #13 @026   ----------------------------------------
 .byte   PATT
  .word Label_013A2DB3
@  #13 @027   ----------------------------------------
 .byte   PATT
  .word Label_013A2DB3
@  #13 @028   ----------------------------------------
 .byte   PATT
  .word Label_013A2DB3
@  #13 @029   ----------------------------------------
 .byte   PATT
  .word Label_013A2DCA
@  #13 @030   ----------------------------------------
 .byte   PATT
  .word Label_013A2DB3
@  #13 @031   ----------------------------------------
 .byte   PATT
  .word Label_013A2DB3
@  #13 @032   ----------------------------------------
 .byte   PATT
  .word Label_013A2DE1
@  #13 @033   ----------------------------------------
 .byte   N24 ,Gn1 ,v100
 .byte   W72
@  #13 @034   ----------------------------------------
 .byte   PATT
  .word Label_013A2DF0
@  #13 @035   ----------------------------------------
 .byte   PATT
  .word Label_013A2DFB
@  #13 @036   ----------------------------------------
 .byte   PATT
  .word Label_013A2E0B
@  #13 @037   ----------------------------------------
 .byte   PATT
  .word Label_013A2DFB
@  #13 @038   ----------------------------------------
 .byte   PATT
  .word Label_013A2E0B
@  #13 @039   ----------------------------------------
 .byte   PATT
  .word Label_013A2DFB
@  #13 @040   ----------------------------------------
 .byte   PATT
  .word Label_013A2E0B
@  #13 @041   ----------------------------------------
 .byte   PATT
  .word Label_013A2DFB
@  #13 @042   ----------------------------------------
 .byte   PATT
  .word Label_013A2E0B
@  #13 @043   ----------------------------------------
 .byte   PATT
  .word Label_013A2DFB
@  #13 @044   ----------------------------------------
 .byte   PATT
  .word Label_013A2E0B
@  #13 @045   ----------------------------------------
 .byte   PATT
  .word Label_013A2DFB
@  #13 @046   ----------------------------------------
 .byte   PATT
  .word Label_013A2E0B
@  #13 @047   ----------------------------------------
 .byte   PATT
  .word Label_013A2DFB
@  #13 @048   ----------------------------------------
 .byte   PATT
  .word Label_013A2E0B
@  #13 @049   ----------------------------------------
 .byte   GOTO
  .word Label_013A2D9A
 .byte   FINE

@******************************************************@
	.align	2

song59:
	.byte	13	@ NumTrks
	.byte	0	@ NumBlks
	.byte	song59_pri	@ Priority
	.byte	song59_rev	@ Reverb.
    
	.word	song59_grp
    
	.word	song59_001
	.word	song59_002
	.word	song59_003
	.word	song59_004
	.word	song59_005
	.word	song59_006
	.word	song59_007
	.word	song59_008
	.word	song59_009
	.word	song59_010
	.word	song59_011
	.word	song59_012
	.word	song59_013

	.end
