	.include "MPlayDef.s"

	.equ	song15_grp, voicegroup000
	.equ	song15_pri, 0
	.equ	song15_rev, 0
	.equ	song15_mvl, 127
	.equ	song15_key, 0
	.equ	song15_tbs, 1
	.equ	song15_exg, 0
	.equ	song15_cmp, 1

	.section .rodata
	.global	song15
	.align	2


@**************** Track 1 (Midi-Chn.0) ****************@

song15_001:
@  #01 @000   ----------------------------------------
 .byte   KEYSH , song15_key+0
 .byte   TEMPO , 88*song15_tbs/2
 .byte   VOICE , 10
 .byte   MODT 0
 .byte   LFOS 44
 .byte   VOL , 53*song15_mvl/mxv
 .byte   PAN , c_v+0
 .byte   W96
@  #01 @001   ----------------------------------------
Label_0159216F:
 .byte   N02 ,An1 ,v048
 .byte   W02
 .byte   N16 ,As1
 .byte   W10
 .byte   N07 ,An2
 .byte   W07
 .byte   N04 ,Dn3
 .byte   N04 ,Fn3
 .byte   W05
 .byte   W06
 .byte   N17 ,An2
 .byte   N17 ,Dn3
 .byte   W06
 .byte   N11 ,As1
 .byte   W12
 .byte   N19 ,An1
 .byte   W12
 .byte   N07 ,Gn2
 .byte   W07
 .byte   N04 ,Cs3
 .byte   N04 ,En3
 .byte   W05
 .byte   W06
 .byte   N17 ,Gn2
 .byte   N17 ,Cs3
 .byte   W06
 .byte   N11 ,An1
 .byte   W12
 .byte   PEND 
@  #01 @002   ----------------------------------------
Label_0159219C:
 .byte   N02 ,Cs2 ,v048
 .byte   W02
 .byte   N09 ,Dn2
 .byte   W10
 .byte   N07 ,Fn2
 .byte   W07
 .byte   N04 ,An2
 .byte   N04 ,Cn3
 .byte   W05
 .byte   W06
 .byte   N02 ,Gs1
 .byte   W02
 .byte   N09 ,An1
 .byte   W10
 .byte   N13 ,Gn1
 .byte   W06
 .byte   W08
 .byte   N03 ,Gn2
 .byte   W04
 .byte   N07 ,Bn2
 .byte   W08
 .byte   N03 ,En3
 .byte   W04
 .byte   W06
 .byte   N17 ,Gn1
 .byte   N17 ,Bn2
 .byte   N17 ,Ds3
 .byte   W18
 .byte   PEND 
@  #01 @003   ----------------------------------------
 .byte   PATT
  .word Label_0159216F
@  #01 @004   ----------------------------------------
Label_015921CD:
 .byte   N07 ,Dn2 ,v048
 .byte   W08
 .byte   N15 ,Cn3
 .byte   N15 ,En3
 .byte   W04
 .byte   N11 ,Dn2
 .byte   W12
 .byte   N07 ,Cs2
 .byte   W08
 .byte   N15 ,Bn2
 .byte   N15 ,Ds3
 .byte   W04
 .byte   N11 ,Cs2
 .byte   W12
 .byte   N07 ,Cn2
 .byte   W08
 .byte   N15 ,As2
 .byte   N15 ,Dn3
 .byte   W04
 .byte   N11 ,Cn2
 .byte   W12
 .byte   N07 ,Fn1
 .byte   W08
 .byte   N15 ,An2
 .byte   N15 ,Ds3
 .byte   W04
 .byte   N11 ,Fn1
 .byte   W12
 .byte   PEND 
@  #01 @005   ----------------------------------------
 .byte   PATT
  .word Label_0159216F
@  #01 @006   ----------------------------------------
 .byte   PATT
  .word Label_0159219C
@  #01 @007   ----------------------------------------
 .byte   PATT
  .word Label_0159216F
@  #01 @008   ----------------------------------------
 .byte   PATT
  .word Label_015921CD
@  #01 @009   ----------------------------------------
 .byte   PATT
  .word Label_0159216F
@  #01 @010   ----------------------------------------
 .byte   PATT
  .word Label_0159219C
@  #01 @011   ----------------------------------------
 .byte   PATT
  .word Label_0159216F
@  #01 @012   ----------------------------------------
 .byte   PATT
  .word Label_015921CD
@  #01 @013   ----------------------------------------
 .byte   PATT
  .word Label_0159216F
@  #01 @014   ----------------------------------------
 .byte   PATT
  .word Label_0159219C
@  #01 @015   ----------------------------------------
 .byte   PATT
  .word Label_0159216F
@  #01 @016   ----------------------------------------
 .byte   PATT
  .word Label_015921CD
@  #01 @017   ----------------------------------------
Label_01592237:
@  #01 @018   ----------------------------------------
 .byte   PATT
  .word Label_0159216F
@  #01 @019   ----------------------------------------
 .byte   PATT
  .word Label_0159219C
@  #01 @020   ----------------------------------------
 .byte   PATT
  .word Label_0159216F
@  #01 @021   ----------------------------------------
 .byte   PATT
  .word Label_015921CD
@  #01 @022   ----------------------------------------
 .byte   PATT
  .word Label_0159216F
@  #01 @023   ----------------------------------------
 .byte   PATT
  .word Label_0159219C
@  #01 @024   ----------------------------------------
 .byte   PATT
  .word Label_0159216F
@  #01 @025   ----------------------------------------
 .byte   PATT
  .word Label_015921CD
@  #01 @026   ----------------------------------------
 .byte   PATT
  .word Label_0159216F
@  #01 @027   ----------------------------------------
 .byte   PATT
  .word Label_0159219C
@  #01 @028   ----------------------------------------
 .byte   PATT
  .word Label_0159216F
@  #01 @029   ----------------------------------------
 .byte   PATT
  .word Label_015921CD
@  #01 @030   ----------------------------------------
 .byte   PATT
  .word Label_0159216F
@  #01 @031   ----------------------------------------
 .byte   PATT
  .word Label_0159219C
@  #01 @032   ----------------------------------------
 .byte   PATT
  .word Label_0159216F
@  #01 @033   ----------------------------------------
 .byte   PATT
  .word Label_015921CD
@  #01 @034   ----------------------------------------
 .byte   PATT
  .word Label_0159216F
@  #01 @035   ----------------------------------------
 .byte   PATT
  .word Label_0159219C
@  #01 @036   ----------------------------------------
 .byte   PATT
  .word Label_0159216F
@  #01 @037   ----------------------------------------
 .byte   PATT
  .word Label_015921CD
@  #01 @038   ----------------------------------------
 .byte   PATT
  .word Label_0159216F
@  #01 @039   ----------------------------------------
 .byte   PATT
  .word Label_0159219C
@  #01 @040   ----------------------------------------
 .byte   PATT
  .word Label_0159216F
@  #01 @041   ----------------------------------------
 .byte   PATT
  .word Label_015921CD
@  #01 @042   ----------------------------------------
 .byte   W96
@  #01 @043   ----------------------------------------
 .byte   W96
@  #01 @044   ----------------------------------------
 .byte   W96
@  #01 @045   ----------------------------------------
 .byte   W72
 .byte   N05 ,An2 ,v048
 .byte   W06
 .byte   BEND , c_v+30
 .byte   N17 ,En3
 .byte   W01
 .byte   BEND , c_v+29
 .byte   W01
 .byte   BEND , c_v+27
 .byte   W01
 .byte   BEND , c_v+26
 .byte   W01
 .byte   BEND , c_v+23
 .byte   W01
 .byte   BEND , c_v+21
 .byte   W01
 .byte   BEND , c_v+20
 .byte   W01
 .byte   BEND , c_v+19
 .byte   W01
 .byte   BEND , c_v+16
 .byte   W01
 .byte   BEND , c_v+14
 .byte   W01
 .byte   BEND , c_v+13
 .byte   W01
 .byte   BEND , c_v+12
 .byte   W01
 .byte   BEND , c_v+9
 .byte   W01
 .byte   BEND , c_v+7
 .byte   W01
 .byte   BEND , c_v+6
 .byte   W01
 .byte   BEND , c_v+4
 .byte   W01
 .byte   BEND , c_v+2
 .byte   W01
 .byte   BEND , c_v+0
 .byte   W01
@  #01 @046   ----------------------------------------
 .byte   BEND , c_v+0
 .byte   N02 ,An1
 .byte   W02
 .byte   N16 ,As1
 .byte   W10
 .byte   N07 ,An2
 .byte   W07
 .byte   N04 ,Dn3
 .byte   N04 ,Fn3
 .byte   W05
 .byte   W06
 .byte   N17 ,An2
 .byte   N17 ,Dn3
 .byte   W06
 .byte   N11 ,As1
 .byte   W12
 .byte   N19 ,An1
 .byte   W12
 .byte   N07 ,Gn2
 .byte   W07
 .byte   N04 ,Cs3
 .byte   N04 ,En3
 .byte   W05
 .byte   W06
 .byte   N17 ,Gn2
 .byte   N17 ,Cs3
 .byte   W06
 .byte   N11 ,An1
 .byte   W12
@  #01 @047   ----------------------------------------
 .byte   PATT
  .word Label_0159219C
@  #01 @048   ----------------------------------------
 .byte   PATT
  .word Label_0159216F
@  #01 @049   ----------------------------------------
 .byte   PATT
  .word Label_015921CD
@  #01 @050   ----------------------------------------
 .byte   PATT
  .word Label_0159216F
@  #01 @051   ----------------------------------------
 .byte   PATT
  .word Label_0159219C
@  #01 @052   ----------------------------------------
 .byte   PATT
  .word Label_0159216F
@  #01 @053   ----------------------------------------
 .byte   PATT
  .word Label_015921CD
@  #01 @054   ----------------------------------------
 .byte   PATT
  .word Label_0159216F
@  #01 @055   ----------------------------------------
 .byte   PATT
  .word Label_0159219C
@  #01 @056   ----------------------------------------
 .byte   PATT
  .word Label_0159216F
@  #01 @057   ----------------------------------------
 .byte   PATT
  .word Label_015921CD
@  #01 @058   ----------------------------------------
 .byte   PATT
  .word Label_0159216F
@  #01 @059   ----------------------------------------
 .byte   PATT
  .word Label_0159219C
@  #01 @060   ----------------------------------------
 .byte   PATT
  .word Label_0159216F
@  #01 @061   ----------------------------------------
 .byte   PATT
  .word Label_015921CD
@  #01 @062   ----------------------------------------
 .byte   PATT
  .word Label_0159216F
@  #01 @063   ----------------------------------------
 .byte   PATT
  .word Label_0159219C
@  #01 @064   ----------------------------------------
 .byte   PATT
  .word Label_0159216F
@  #01 @065   ----------------------------------------
 .byte   N07 ,Dn2 ,v048
 .byte   W08
 .byte   N15 ,Cn3
 .byte   N15 ,En3
 .byte   W04
 .byte   N11 ,Dn2
 .byte   W12
 .byte   N07 ,Cs2
 .byte   W08
 .byte   N15 ,Bn2
 .byte   N15 ,Ds3
 .byte   W04
 .byte   N11 ,Cs2
 .byte   W12
 .byte   N07 ,Cn2
 .byte   W08
 .byte   N15 ,As2
 .byte   N15 ,Dn3
 .byte   W04
 .byte   N11 ,Cn2
 .byte   W12
 .byte   N07 ,Fn1
 .byte   W08
 .byte   N15 ,An2
 .byte   N15 ,Ds3
 .byte   W04
 .byte   N11 ,Fn1
 .byte   W11
 .byte   BEND , c_v+0
 .byte   W01
@  #01 @066   ----------------------------------------
 .byte   W10
 .byte   GOTO
  .word Label_01592237
@  #01 @067   ----------------------------------------
 .byte   W84
 .byte   W02
 .byte   W96
@  #01 @068   ----------------------------------------
 .byte   W96
@  #01 @069   ----------------------------------------
 .byte   W96
@  #01 @070   ----------------------------------------
 .byte   W96
@  #01 @071   ----------------------------------------
 .byte   W96
@  #01 @072   ----------------------------------------
 .byte   W96
@  #01 @073   ----------------------------------------
 .byte   W96
@  #01 @074   ----------------------------------------
 .byte   W24
 .byte   TEMPO , 14*song15_tbs/2
 .byte   W12
 .byte   TEMPO , 22*song15_tbs/2
 .byte   W12
 .byte   TEMPO , 30*song15_tbs/2
 .byte   W24
 .byte   TEMPO , 44*song15_tbs/2
 .byte   W12
 .byte   TEMPO , 52*song15_tbs/2
 .byte   W12
@  #01 @075   ----------------------------------------
 .byte   TEMPO , 60*song15_tbs/2
 .byte   W12
 .byte   TEMPO , 60*song15_tbs/2
 .byte   W12
 .byte   TEMPO , 60*song15_tbs/2
 .byte   W12
 .byte   TEMPO , 60*song15_tbs/2
 .byte   W12
 .byte   TEMPO , 60*song15_tbs/2
 .byte   W12
 .byte   TEMPO , 60*song15_tbs/2
 .byte   W06
 .byte   TEMPO , 60*song15_tbs/2
 .byte   W06
 .byte   TEMPO , 60*song15_tbs/2
 .byte   W06
 .byte   TEMPO , 60*song15_tbs/2
 .byte   W12
 .byte   TEMPO , 60*song15_tbs/2
 .byte   W06
@  #01 @076   ----------------------------------------
 .byte   TEMPO , 60*song15_tbs/2
 .byte   W06
 .byte   TEMPO , 60*song15_tbs/2
 .byte   W06
 .byte   TEMPO , 60*song15_tbs/2
 .byte   W12
 .byte   TEMPO , 60*song15_tbs/2
 .byte   W24
 .byte   TEMPO , 60*song15_tbs/2
 .byte   W24
 .byte   TEMPO , 60*song15_tbs/2
 .byte   W12
 .byte   TEMPO , 60*song15_tbs/2
 .byte   W12
@  #01 @077   ----------------------------------------
 .byte   TEMPO , 60*song15_tbs/2
 .byte   W12
 .byte   TEMPO , 60*song15_tbs/2
 .byte   W12
 .byte   TEMPO , 60*song15_tbs/2
 .byte   W12
 .byte   TEMPO , 60*song15_tbs/2
 .byte   W12
 .byte   TEMPO , 60*song15_tbs/2
 .byte   W12
 .byte   TEMPO , 60*song15_tbs/2
 .byte   W06
 .byte   TEMPO , 60*song15_tbs/2
 .byte   W06
 .byte   TEMPO , 60*song15_tbs/2
 .byte   W06
 .byte   TEMPO , 60*song15_tbs/2
 .byte   W12
 .byte   TEMPO , 62*song15_tbs/2
 .byte   W06
@  #01 @078   ----------------------------------------
 .byte   TEMPO , 62*song15_tbs/2
 .byte   W06
 .byte   TEMPO , 62*song15_tbs/2
 .byte   W06
 .byte   TEMPO , 64*song15_tbs/2
 .byte   W12
 .byte   TEMPO , 64*song15_tbs/2
 .byte   W24
 .byte   TEMPO , 70*song15_tbs/2
 .byte   W24
 .byte   TEMPO , 76*song15_tbs/2
 .byte   W02
 .byte   TEMPO , 78*song15_tbs/2
 .byte   W02
 .byte   TEMPO , 78*song15_tbs/2
 .byte   W02
 .byte   TEMPO , 80*song15_tbs/2
 .byte   W06
 .byte   TEMPO , 82*song15_tbs/2
 .byte   W02
 .byte   TEMPO , 84*song15_tbs/2
 .byte   W02
 .byte   TEMPO , 84*song15_tbs/2
 .byte   W02
 .byte   TEMPO , 86*song15_tbs/2
 .byte   W06
@  #01 @079   ----------------------------------------
 .byte   TEMPO , 88*song15_tbs/2
 .byte   W96
@  #01 @080   ----------------------------------------
 .byte   W96
@  #01 @081   ----------------------------------------
 .byte   W96
@  #01 @082   ----------------------------------------
 .byte   W96
@  #01 @083   ----------------------------------------
 .byte   W96
@  #01 @084   ----------------------------------------
 .byte   W96
@  #01 @085   ----------------------------------------
 .byte   TEMPO , 88*song15_tbs/2
 .byte   W12
 .byte   TEMPO , 88*song15_tbs/2
 .byte   W04
 .byte   TEMPO , 86*song15_tbs/2
 .byte   W03
 .byte   TEMPO , 86*song15_tbs/2
 .byte   W05
 .byte   TEMPO , 86*song15_tbs/2
 .byte   W06
 .byte   TEMPO , 84*song15_tbs/2
 .byte   W06
 .byte   TEMPO , 84*song15_tbs/2
 .byte   W12
 .byte   TEMPO , 82*song15_tbs/2
 .byte   W12
 .byte   TEMPO , 80*song15_tbs/2
 .byte   W04
 .byte   TEMPO , 78*song15_tbs/2
 .byte   W03
 .byte   TEMPO , 78*song15_tbs/2
 .byte   W05
 .byte   TEMPO , 78*song15_tbs/2
 .byte   W06
 .byte   TEMPO , 76*song15_tbs/2
 .byte   W06
 .byte   TEMPO , 76*song15_tbs/2
 .byte   W12
@  #01 @086   ----------------------------------------
 .byte   TEMPO , 74*song15_tbs/2
 .byte   W08
 .byte   TEMPO , 72*song15_tbs/2
 .byte   W04
 .byte   TEMPO , 72*song15_tbs/2
 .byte   W12
 .byte   TEMPO , 70*song15_tbs/2
 .byte   W08
 .byte   TEMPO , 70*song15_tbs/2
 .byte   W04
 .byte   TEMPO , 68*song15_tbs/2
 .byte   W12
 .byte   TEMPO , 66*song15_tbs/2
 .byte   W08
 .byte   TEMPO , 66*song15_tbs/2
 .byte   W04
 .byte   TEMPO , 64*song15_tbs/2
 .byte   W12
 .byte   TEMPO , 62*song15_tbs/2
 .byte   W08
 .byte   TEMPO , 62*song15_tbs/2
 .byte   W04
 .byte   TEMPO , 60*song15_tbs/2
 .byte   W12
@  #01 @087   ----------------------------------------
 .byte   TEMPO , 60*song15_tbs/2
 .byte   FINE

@**************** Track 2 (Midi-Chn.1) ****************@

song15_002:
@  #02 @000   ----------------------------------------
 .byte   KEYSH , song15_key+0
 .byte   VOICE , 77
 .byte   MODT 0
 .byte   LFOS 44
 .byte   VOL , 53*song15_mvl/mxv
 .byte   PAN , c_v+0
 .byte   W96
@  #02 @001   ----------------------------------------
 .byte   W96
@  #02 @002   ----------------------------------------
 .byte   W96
@  #02 @003   ----------------------------------------
 .byte   W96
@  #02 @004   ----------------------------------------
 .byte   W96
@  #02 @005   ----------------------------------------
 .byte   W96
@  #02 @006   ----------------------------------------
 .byte   W96
@  #02 @007   ----------------------------------------
 .byte   W96
@  #02 @008   ----------------------------------------
 .byte   W78
 .byte   N05 ,Fn4 ,v060
 .byte   W06
 .byte   Gn4
 .byte   W06
 .byte   Fn4
 .byte   W06
@  #02 @009   ----------------------------------------
Label_5590A5:
 .byte   N02 ,Gn4 ,v060
 .byte   W02
 .byte   N09 ,An4
 .byte   W10
 .byte   N05 ,Dn4
 .byte   W06
 .byte   Fn4
 .byte   W12
 .byte   N05
 .byte   W06
 .byte   Gn4
 .byte   W06
 .byte   Fn4
 .byte   W06
 .byte   N02 ,Gn4
 .byte   W02
 .byte   N09 ,An4
 .byte   W10
 .byte   N05 ,Dn4
 .byte   W06
 .byte   Fn4
 .byte   W12
 .byte   N05
 .byte   W06
 .byte   Gn4
 .byte   W06
 .byte   Fn4
 .byte   W06
 .byte   PEND 
@  #02 @010   ----------------------------------------
Label_5590C9:
 .byte   N02 ,Gn4 ,v060
 .byte   W02
 .byte   N09 ,An4
 .byte   W10
 .byte   N05 ,Cn5
 .byte   W12
 .byte   N05
 .byte   W06
 .byte   An4
 .byte   W12
 .byte   N02 ,Cn5
 .byte   W02
 .byte   N09 ,Dn5
 .byte   W10
 .byte   N05 ,Cn5
 .byte   W12
 .byte   N11 ,Gn4
 .byte   W06
 .byte   W06
 .byte   N05 ,Fn4
 .byte   W06
 .byte   Gn4
 .byte   W06
 .byte   Fn4
 .byte   W06
 .byte   PEND 
@  #02 @011   ----------------------------------------
Label_5590EC:
 .byte   N11 ,An4 ,v060
 .byte   W12
 .byte   N05 ,Dn4
 .byte   W06
 .byte   Fn4
 .byte   W12
 .byte   N05
 .byte   W06
 .byte   Gn4
 .byte   W06
 .byte   Fn4
 .byte   W06
 .byte   N02 ,Gn4
 .byte   W02
 .byte   N09 ,An4
 .byte   W10
 .byte   N05 ,Dn4
 .byte   W06
 .byte   Fn4
 .byte   W12
 .byte   N05
 .byte   W06
 .byte   Gn4
 .byte   W06
 .byte   Fn4
 .byte   W06
 .byte   PEND 
@  #02 @012   ----------------------------------------
Label_55910D:
 .byte   N02 ,Gn4 ,v060
 .byte   W02
 .byte   N09 ,An4
 .byte   W10
 .byte   N05 ,Cn5
 .byte   W06
 .byte   Gn4
 .byte   W12
 .byte   Fn4
 .byte   W06
 .byte   Gn4
 .byte   W06
 .byte   Fn4
 .byte   W06
 .byte   Gn4
 .byte   W06
 .byte   An4
 .byte   W18
 .byte   Gs4
 .byte   W06
 .byte   Gn4
 .byte   W06
 .byte   Fn4
 .byte   W06
 .byte   Gn4
 .byte   W06
 .byte   PEND 
@  #02 @013   ----------------------------------------
 .byte   PATT
  .word Label_5590A5
@  #02 @014   ----------------------------------------
 .byte   PATT
  .word Label_5590C9
@  #02 @015   ----------------------------------------
 .byte   PATT
  .word Label_5590EC
@  #02 @016   ----------------------------------------
Label_55913B:
 .byte   N02 ,Gn4 ,v060
 .byte   W02
 .byte   N09 ,An4
 .byte   W10
 .byte   N05 ,Cn5
 .byte   W06
 .byte   Gn4
 .byte   W12
 .byte   Fn4
 .byte   W06
 .byte   Gn4
 .byte   W06
 .byte   Fn4
 .byte   W06
 .byte   Gn4
 .byte   W06
 .byte   An4
 .byte   W18
 .byte   Gs4
 .byte   W06
 .byte   Gn4
 .byte   W06
 .byte   N11 ,Fn4
 .byte   W12
 .byte   PEND 
@  #02 @017   ----------------------------------------
Label_559159:
 .byte   W96
@  #02 @018   ----------------------------------------
 .byte   W96
@  #02 @019   ----------------------------------------
 .byte   W96
@  #02 @020   ----------------------------------------
 .byte   W96
@  #02 @021   ----------------------------------------
 .byte   W96
@  #02 @022   ----------------------------------------
 .byte   W96
@  #02 @023   ----------------------------------------
 .byte   W96
@  #02 @024   ----------------------------------------
 .byte   W96
@  #02 @025   ----------------------------------------
 .byte   W96
@  #02 @026   ----------------------------------------
 .byte   W96
@  #02 @027   ----------------------------------------
 .byte   W96
@  #02 @028   ----------------------------------------
 .byte   W96
@  #02 @029   ----------------------------------------
 .byte   W96
@  #02 @030   ----------------------------------------
 .byte   W96
@  #02 @031   ----------------------------------------
 .byte   W96
@  #02 @032   ----------------------------------------
 .byte   W96
@  #02 @033   ----------------------------------------
 .byte   W72
 .byte   N02 ,En5 ,v044
 .byte   W02
 .byte   N06 ,Fn5
 .byte   W07
 .byte   N08 ,En5
 .byte   W09
 .byte   N02 ,Cn5
 .byte   W06
@  #02 @034   ----------------------------------------
 .byte   N02
 .byte   W02
 .byte   N06 ,Dn5
 .byte   W07
 .byte   N08 ,Cn5
 .byte   W09
 .byte   N02 ,An4
 .byte   W06
 .byte   N08 ,Cn5
 .byte   W09
 .byte   An4
 .byte   W09
 .byte   N02 ,Gn4
 .byte   W06
 .byte   N02
 .byte   W02
 .byte   N10 ,An4
 .byte   W22
 .byte   N02 ,Gs4
 .byte   W02
 .byte   N09 ,Gn4
 .byte   W10
 .byte   N07 ,Fn4
 .byte   W07
 .byte   N04 ,Gn4
 .byte   W05
@  #02 @035   ----------------------------------------
 .byte   N02
 .byte   W02
 .byte   N10 ,An4
 .byte   W68
 .byte   W02
 .byte   N10
 .byte   W10
 .byte   N03 ,As4
 .byte   W07
 .byte   Bn4
 .byte   W07
@  #02 @036   ----------------------------------------
 .byte   N02
 .byte   W02
 .byte   N05 ,Cn5
 .byte   W06
 .byte   N01 ,Gs4
 .byte   W04
 .byte   N07 ,Gn4
 .byte   W07
 .byte   N04 ,Fn4
 .byte   W05
 .byte   N05 ,Gn4
 .byte   W06
 .byte   Fn4
 .byte   W06
 .byte   N02 ,Gn4
 .byte   W02
 .byte   Gs4
 .byte   W02
 .byte   N07 ,An4
 .byte   W32
 .byte   N11 ,Fn4
 .byte   W24
@  #02 @037   ----------------------------------------
 .byte   W72
 .byte   N02 ,En5
 .byte   W02
 .byte   N06 ,Fn5
 .byte   W07
 .byte   N08 ,En5
 .byte   W09
 .byte   N02 ,Cn5
 .byte   W06
@  #02 @038   ----------------------------------------
 .byte   N02
 .byte   W02
 .byte   N06 ,Dn5
 .byte   W07
 .byte   N08 ,Cn5
 .byte   W09
 .byte   N02 ,An4
 .byte   W06
 .byte   N08 ,Cn5
 .byte   W09
 .byte   An4
 .byte   W09
 .byte   N02 ,Gn4
 .byte   W06
 .byte   N02
 .byte   W02
 .byte   N10 ,An4
 .byte   W22
 .byte   N02 ,Gs4
 .byte   W02
 .byte   N09 ,Gn4
 .byte   W10
 .byte   N07 ,Fn4
 .byte   W07
 .byte   N04 ,Gn4
 .byte   W05
@  #02 @039   ----------------------------------------
 .byte   N02
 .byte   W02
 .byte   N10 ,An4
 .byte   W68
 .byte   W02
 .byte   N10
 .byte   W10
 .byte   N03 ,As4
 .byte   W07
 .byte   Bn4
 .byte   W07
@  #02 @040   ----------------------------------------
 .byte   N02
 .byte   W02
 .byte   N05 ,Cn5
 .byte   W06
 .byte   N01 ,Gs4
 .byte   W04
 .byte   N07 ,Gn4
 .byte   W07
 .byte   N04 ,Fn4
 .byte   W05
 .byte   N05 ,Gn4
 .byte   W06
 .byte   Fn4
 .byte   W06
 .byte   N02 ,Gn4
 .byte   W02
 .byte   Gs4
 .byte   W02
 .byte   N07 ,An4
 .byte   W32
 .byte   N11 ,Fn4
 .byte   W24
@  #02 @041   ----------------------------------------
 .byte   W96
@  #02 @042   ----------------------------------------
 .byte   W96
@  #02 @043   ----------------------------------------
 .byte   W96
@  #02 @044   ----------------------------------------
 .byte   W96
@  #02 @045   ----------------------------------------
 .byte   W96
@  #02 @046   ----------------------------------------
 .byte   W96
@  #02 @047   ----------------------------------------
 .byte   W96
@  #02 @048   ----------------------------------------
 .byte   W96
@  #02 @049   ----------------------------------------
 .byte   W96
@  #02 @050   ----------------------------------------
 .byte   W96
@  #02 @051   ----------------------------------------
 .byte   W96
@  #02 @052   ----------------------------------------
 .byte   W96
@  #02 @053   ----------------------------------------
 .byte   W96
@  #02 @054   ----------------------------------------
 .byte   W96
@  #02 @055   ----------------------------------------
 .byte   W96
@  #02 @056   ----------------------------------------
 .byte   W78
 .byte   N05 ,Fn4 ,v060
 .byte   W06
 .byte   Gn4
 .byte   W06
 .byte   Fn4
 .byte   W06
@  #02 @057   ----------------------------------------
 .byte   PATT
  .word Label_5590A5
@  #02 @058   ----------------------------------------
 .byte   PATT
  .word Label_5590C9
@  #02 @059   ----------------------------------------
 .byte   PATT
  .word Label_5590EC
@  #02 @060   ----------------------------------------
 .byte   PATT
  .word Label_55910D
@  #02 @061   ----------------------------------------
 .byte   PATT
  .word Label_5590A5
@  #02 @062   ----------------------------------------
 .byte   PATT
  .word Label_5590C9
@  #02 @063   ----------------------------------------
 .byte   PATT
  .word Label_5590EC
@  #02 @064   ----------------------------------------
 .byte   PATT
  .word Label_55913B
@  #02 @065   ----------------------------------------
 .byte   W10
 .byte   GOTO
  .word Label_559159
@  #02 @066   ----------------------------------------
 .byte   W84
 .byte   W02
 .byte   W96
@  #02 @067   ----------------------------------------
 .byte   W96
@  #02 @068   ----------------------------------------
 .byte   W96
@  #02 @069   ----------------------------------------
 .byte   W96
@  #02 @070   ----------------------------------------
 .byte   W96
@  #02 @071   ----------------------------------------
 .byte   W96
@  #02 @072   ----------------------------------------
 .byte   W96
@  #02 @073   ----------------------------------------
 .byte   W96
@  #02 @074   ----------------------------------------
 .byte   W96
@  #02 @075   ----------------------------------------
 .byte   W96
@  #02 @076   ----------------------------------------
 .byte   W96
@  #02 @077   ----------------------------------------
 .byte   W96
@  #02 @078   ----------------------------------------
 .byte   W96
@  #02 @079   ----------------------------------------
 .byte   W96
@  #02 @080   ----------------------------------------
 .byte   W96
@  #02 @081   ----------------------------------------
 .byte   W96
@  #02 @082   ----------------------------------------
 .byte   W96
@  #02 @083   ----------------------------------------
 .byte   W96
@  #02 @084   ----------------------------------------
 .byte   W96
@  #02 @085   ----------------------------------------
 .byte   W96
 .byte   FINE

@**************** Track 3 (Midi-Chn.2) ****************@

song15_003:
@  #03 @000   ----------------------------------------
 .byte   KEYSH , song15_key+0
 .byte   VOICE , 62
 .byte   MODT 0
 .byte   LFOS 44
 .byte   VOL , 53*song15_mvl/mxv
 .byte   PAN , c_v+0
 .byte   W96
@  #03 @001   ----------------------------------------
 .byte   W96
@  #03 @002   ----------------------------------------
 .byte   W96
@  #03 @003   ----------------------------------------
 .byte   W96
@  #03 @004   ----------------------------------------
 .byte   W96
@  #03 @005   ----------------------------------------
 .byte   W96
@  #03 @006   ----------------------------------------
 .byte   W96
@  #03 @007   ----------------------------------------
 .byte   W96
@  #03 @008   ----------------------------------------
 .byte   W96
@  #03 @009   ----------------------------------------
 .byte   W96
@  #03 @010   ----------------------------------------
 .byte   W96
@  #03 @011   ----------------------------------------
 .byte   W96
@  #03 @012   ----------------------------------------
 .byte   W96
@  #03 @013   ----------------------------------------
 .byte   W96
@  #03 @014   ----------------------------------------
 .byte   W96
@  #03 @015   ----------------------------------------
 .byte   W96
@  #03 @016   ----------------------------------------
 .byte   W96
@  #03 @017   ----------------------------------------
Label_558855:
 .byte   W96
@  #03 @018   ----------------------------------------
 .byte   W96
@  #03 @019   ----------------------------------------
 .byte   W96
@  #03 @020   ----------------------------------------
 .byte   W96
@  #03 @021   ----------------------------------------
 .byte   W96
@  #03 @022   ----------------------------------------
 .byte   W96
@  #03 @023   ----------------------------------------
 .byte   W96
@  #03 @024   ----------------------------------------
Label_55885C:
 .byte   W72
 .byte   N11 ,Fn3 ,v044
 .byte   N11 ,An3
 .byte   W12
 .byte   Gn3
 .byte   N11 ,As3
 .byte   W12
 .byte   PEND 
@  #03 @025   ----------------------------------------
Label_558868:
 .byte   N44 ,Fn3 ,v044
 .byte   N44 ,An3
 .byte   W48
 .byte   N23 ,En3
 .byte   N23 ,Gn3
 .byte   W24
 .byte   N23
 .byte   N23 ,Cn4
 .byte   W24
 .byte   PEND 
@  #03 @026   ----------------------------------------
Label_558878:
 .byte   N44 ,Fn3 ,v044
 .byte   N44 ,An3
 .byte   W48
 .byte   N23 ,Bn2
 .byte   N23 ,Dn3
 .byte   W24
 .byte   En3
 .byte   N23 ,Gn3
 .byte   W24
 .byte   PEND 
@  #03 @027   ----------------------------------------
 .byte   PATT
  .word Label_558868
@  #03 @028   ----------------------------------------
Label_55888D:
 .byte   N23 ,Fn3 ,v044
 .byte   N23 ,An3
 .byte   W24
 .byte   En3
 .byte   N23 ,Gs3
 .byte   W24
 .byte   Ds3
 .byte   N23 ,Gn3
 .byte   W24
 .byte   Fn3
 .byte   N23 ,An3
 .byte   W24
 .byte   PEND 
@  #03 @029   ----------------------------------------
 .byte   PATT
  .word Label_558868
@  #03 @030   ----------------------------------------
 .byte   PATT
  .word Label_558878
@  #03 @031   ----------------------------------------
 .byte   PATT
  .word Label_558868
@  #03 @032   ----------------------------------------
 .byte   PATT
  .word Label_55888D
@  #03 @033   ----------------------------------------
 .byte   W96
@  #03 @034   ----------------------------------------
 .byte   W96
@  #03 @035   ----------------------------------------
 .byte   W96
@  #03 @036   ----------------------------------------
 .byte   W96
@  #03 @037   ----------------------------------------
 .byte   W96
@  #03 @038   ----------------------------------------
 .byte   W96
@  #03 @039   ----------------------------------------
 .byte   W96
@  #03 @040   ----------------------------------------
 .byte   W96
@  #03 @041   ----------------------------------------
 .byte   W96
@  #03 @042   ----------------------------------------
 .byte   W96
@  #03 @043   ----------------------------------------
 .byte   W96
@  #03 @044   ----------------------------------------
 .byte   W96
@  #03 @045   ----------------------------------------
 .byte   W96
@  #03 @046   ----------------------------------------
 .byte   W96
@  #03 @047   ----------------------------------------
 .byte   W96
@  #03 @048   ----------------------------------------
 .byte   PATT
  .word Label_55885C
@  #03 @049   ----------------------------------------
 .byte   N44 ,Fn3 ,v044
 .byte   N44 ,An3
 .byte   W48
 .byte   N23 ,En3
 .byte   N23 ,Gn3
 .byte   W24
 .byte   N23
 .byte   N23 ,Cn4
 .byte   W24
@  #03 @050   ----------------------------------------
 .byte   PATT
  .word Label_558878
@  #03 @051   ----------------------------------------
 .byte   PATT
  .word Label_558868
@  #03 @052   ----------------------------------------
 .byte   PATT
  .word Label_55888D
@  #03 @053   ----------------------------------------
 .byte   PATT
  .word Label_558868
@  #03 @054   ----------------------------------------
 .byte   PATT
  .word Label_558878
@  #03 @055   ----------------------------------------
 .byte   PATT
  .word Label_558868
@  #03 @056   ----------------------------------------
 .byte   PATT
  .word Label_55888D
@  #03 @057   ----------------------------------------
 .byte   W96
@  #03 @058   ----------------------------------------
 .byte   W96
@  #03 @059   ----------------------------------------
 .byte   W96
@  #03 @060   ----------------------------------------
 .byte   W96
@  #03 @061   ----------------------------------------
 .byte   W96
@  #03 @062   ----------------------------------------
 .byte   W96
@  #03 @063   ----------------------------------------
 .byte   W96
@  #03 @064   ----------------------------------------
 .byte   W96
@  #03 @065   ----------------------------------------
 .byte   W10
 .byte   GOTO
  .word Label_558855
@  #03 @066   ----------------------------------------
 .byte   W84
 .byte   W02
 .byte   W96
@  #03 @067   ----------------------------------------
 .byte   W96
@  #03 @068   ----------------------------------------
 .byte   W96
@  #03 @069   ----------------------------------------
 .byte   W96
@  #03 @070   ----------------------------------------
 .byte   W96
@  #03 @071   ----------------------------------------
 .byte   W96
@  #03 @072   ----------------------------------------
 .byte   W96
@  #03 @073   ----------------------------------------
 .byte   W96
@  #03 @074   ----------------------------------------
 .byte   W96
@  #03 @075   ----------------------------------------
 .byte   W96
@  #03 @076   ----------------------------------------
 .byte   W96
@  #03 @077   ----------------------------------------
 .byte   W96
@  #03 @078   ----------------------------------------
 .byte   W96
@  #03 @079   ----------------------------------------
 .byte   W96
@  #03 @080   ----------------------------------------
 .byte   W96
@  #03 @081   ----------------------------------------
 .byte   W96
@  #03 @082   ----------------------------------------
 .byte   W96
@  #03 @083   ----------------------------------------
 .byte   W96
@  #03 @084   ----------------------------------------
 .byte   W96
@  #03 @085   ----------------------------------------
 .byte   W96
 .byte   FINE

@**************** Track 4 (Midi-Chn.3) ****************@

song15_004:
@  #04 @000   ----------------------------------------
 .byte   KEYSH , song15_key+0
 .byte   VOICE , 91
 .byte   MODT 0
 .byte   LFOS 44
 .byte   VOL , 53*song15_mvl/mxv
 .byte   PAN , c_v+0
 .byte   W96
@  #04 @001   ----------------------------------------
 .byte   W96
@  #04 @002   ----------------------------------------
 .byte   W96
@  #04 @003   ----------------------------------------
 .byte   W96
@  #04 @004   ----------------------------------------
 .byte   W96
@  #04 @005   ----------------------------------------
 .byte   W96
@  #04 @006   ----------------------------------------
 .byte   W96
@  #04 @007   ----------------------------------------
 .byte   W96
@  #04 @008   ----------------------------------------
 .byte   W96
@  #04 @009   ----------------------------------------
Label_558935:
 .byte   N44 ,Dn3 ,v044
 .byte   N44 ,An3
 .byte   W48
 .byte   N23 ,Cn3
 .byte   N23 ,Gn3
 .byte   W24
 .byte   En3
 .byte   N23 ,Cn4
 .byte   W24
 .byte   PEND 
@  #04 @010   ----------------------------------------
Label_558945:
 .byte   N44 ,Dn3 ,v044
 .byte   N44 ,An3
 .byte   W72
 .byte   N23 ,Cn3
 .byte   N23 ,Gn3
 .byte   W24
 .byte   PEND 
@  #04 @011   ----------------------------------------
 .byte   PATT
  .word Label_558935
@  #04 @012   ----------------------------------------
Label_558956:
 .byte   N23 ,Dn3 ,v044
 .byte   N23 ,An3
 .byte   W24
 .byte   Cs3
 .byte   N23 ,Gs3
 .byte   W24
 .byte   Cn3
 .byte   N23 ,Gn3
 .byte   W24
 .byte   Dn3
 .byte   N23 ,An3
 .byte   W24
 .byte   PEND 
@  #04 @013   ----------------------------------------
 .byte   PATT
  .word Label_558935
@  #04 @014   ----------------------------------------
 .byte   PATT
  .word Label_558945
@  #04 @015   ----------------------------------------
 .byte   PATT
  .word Label_558935
@  #04 @016   ----------------------------------------
 .byte   PATT
  .word Label_558956
@  #04 @017   ----------------------------------------
Label_55897D:
 .byte   W96
@  #04 @018   ----------------------------------------
 .byte   W96
@  #04 @019   ----------------------------------------
 .byte   W96
@  #04 @020   ----------------------------------------
 .byte   W96
@  #04 @021   ----------------------------------------
 .byte   W96
@  #04 @022   ----------------------------------------
 .byte   W96
@  #04 @023   ----------------------------------------
 .byte   W96
@  #04 @024   ----------------------------------------
 .byte   W96
@  #04 @025   ----------------------------------------
 .byte   W96
@  #04 @026   ----------------------------------------
 .byte   W96
@  #04 @027   ----------------------------------------
 .byte   W96
@  #04 @028   ----------------------------------------
 .byte   W96
@  #04 @029   ----------------------------------------
 .byte   W96
@  #04 @030   ----------------------------------------
 .byte   W96
@  #04 @031   ----------------------------------------
 .byte   W96
@  #04 @032   ----------------------------------------
 .byte   W96
@  #04 @033   ----------------------------------------
 .byte   W96
@  #04 @034   ----------------------------------------
 .byte   W96
@  #04 @035   ----------------------------------------
 .byte   W96
@  #04 @036   ----------------------------------------
 .byte   W96
@  #04 @037   ----------------------------------------
 .byte   W96
@  #04 @038   ----------------------------------------
 .byte   W96
@  #04 @039   ----------------------------------------
 .byte   W96
@  #04 @040   ----------------------------------------
 .byte   W96
@  #04 @041   ----------------------------------------
 .byte   W96
@  #04 @042   ----------------------------------------
 .byte   W96
@  #04 @043   ----------------------------------------
 .byte   W96
@  #04 @044   ----------------------------------------
 .byte   W96
@  #04 @045   ----------------------------------------
 .byte   W96
@  #04 @046   ----------------------------------------
 .byte   W96
@  #04 @047   ----------------------------------------
 .byte   W96
@  #04 @048   ----------------------------------------
 .byte   W96
@  #04 @049   ----------------------------------------
 .byte   W96
@  #04 @050   ----------------------------------------
 .byte   W96
@  #04 @051   ----------------------------------------
 .byte   W96
@  #04 @052   ----------------------------------------
 .byte   W96
@  #04 @053   ----------------------------------------
 .byte   W96
@  #04 @054   ----------------------------------------
 .byte   W96
@  #04 @055   ----------------------------------------
 .byte   W96
@  #04 @056   ----------------------------------------
 .byte   W96
@  #04 @057   ----------------------------------------
 .byte   PATT
  .word Label_558935
@  #04 @058   ----------------------------------------
 .byte   PATT
  .word Label_558945
@  #04 @059   ----------------------------------------
 .byte   PATT
  .word Label_558935
@  #04 @060   ----------------------------------------
 .byte   PATT
  .word Label_558956
@  #04 @061   ----------------------------------------
 .byte   PATT
  .word Label_558935
@  #04 @062   ----------------------------------------
 .byte   PATT
  .word Label_558945
@  #04 @063   ----------------------------------------
 .byte   PATT
  .word Label_558935
@  #04 @064   ----------------------------------------
 .byte   PATT
  .word Label_558956
@  #04 @065   ----------------------------------------
 .byte   W10
 .byte   GOTO
  .word Label_55897D
@  #04 @066   ----------------------------------------
 .byte   W84
 .byte   W02
 .byte   W96
@  #04 @067   ----------------------------------------
 .byte   W96
@  #04 @068   ----------------------------------------
 .byte   W96
@  #04 @069   ----------------------------------------
 .byte   W96
@  #04 @070   ----------------------------------------
 .byte   W96
@  #04 @071   ----------------------------------------
 .byte   W96
@  #04 @072   ----------------------------------------
 .byte   W96
@  #04 @073   ----------------------------------------
 .byte   W96
@  #04 @074   ----------------------------------------
 .byte   W96
@  #04 @075   ----------------------------------------
 .byte   W96
@  #04 @076   ----------------------------------------
 .byte   W96
@  #04 @077   ----------------------------------------
 .byte   W96
@  #04 @078   ----------------------------------------
 .byte   W96
@  #04 @079   ----------------------------------------
 .byte   W96
@  #04 @080   ----------------------------------------
 .byte   W96
@  #04 @081   ----------------------------------------
 .byte   W96
@  #04 @082   ----------------------------------------
 .byte   W96
@  #04 @083   ----------------------------------------
 .byte   W96
@  #04 @084   ----------------------------------------
 .byte   W96
@  #04 @085   ----------------------------------------
 .byte   W96
 .byte   FINE

@**************** Track 5 (Midi-Chn.4) ****************@

song15_005:
@  #05 @000   ----------------------------------------
 .byte   KEYSH , song15_key+0
 .byte   VOICE , 4
 .byte   MODT 0
 .byte   LFOS 44
 .byte   VOL , 53*song15_mvl/mxv
 .byte   PAN , c_v+0
 .byte   W72
 .byte   N02 ,Gs4 ,v127
 .byte   W02
 .byte   N09 ,An4
 .byte   W10
 .byte   N11 ,As4
 .byte   W12
@  #05 @001   ----------------------------------------
Label_0159249F:
 .byte   N02 ,As4 ,v127
 .byte   W02
 .byte   N04 ,Cn5
 .byte   W10
 .byte   N05
 .byte   W12
 .byte   N05
 .byte   W12
 .byte   N05
 .byte   W12
 .byte   N05
 .byte   W18
 .byte   As4
 .byte   W06
 .byte   An4
 .byte   W06
 .byte   N11 ,Gn4
 .byte   W12
 .byte   N02 ,Gs4
 .byte   W02
 .byte   N09 ,Gn4
 .byte   W04
 .byte   PEND 
@  #05 @002   ----------------------------------------
Label_015924BC:
 .byte   W06
 .byte   N05 ,Fn4 ,v127
 .byte   W06
 .byte   N02 ,Gs4
 .byte   W02
 .byte   N09 ,An4
 .byte   W56
 .byte   W02
 .byte   N02 ,Gs4
 .byte   W02
 .byte   N09 ,An4
 .byte   W10
 .byte   N11 ,As4
 .byte   W12
 .byte   PEND 
@  #05 @003   ----------------------------------------
Label_015924D2:
 .byte   N05 ,Cn5 ,v127
 .byte   W12
 .byte   N05
 .byte   W12
 .byte   N05
 .byte   W12
 .byte   N05
 .byte   W12
 .byte   N05
 .byte   W18
 .byte   As4
 .byte   W06
 .byte   An4
 .byte   W06
 .byte   N11 ,Gn4
 .byte   W12
 .byte   N02 ,Gs4
 .byte   W02
 .byte   N09 ,Gn4
 .byte   W04
 .byte   PEND 
@  #05 @004   ----------------------------------------
Label_015924EC:
 .byte   W06
 .byte   N05 ,Fn4 ,v127
 .byte   W06
 .byte   N11
 .byte   W60
 .byte   N02 ,Gs4
 .byte   W02
 .byte   N09 ,An4
 .byte   W10
 .byte   N11 ,As4
 .byte   W12
 .byte   PEND 
@  #05 @005   ----------------------------------------
 .byte   PATT
  .word Label_0159249F
@  #05 @006   ----------------------------------------
 .byte   PATT
  .word Label_015924BC
@  #05 @007   ----------------------------------------
 .byte   PATT
  .word Label_015924D2
@  #05 @008   ----------------------------------------
Label_0159250C:
 .byte   W06
 .byte   N05 ,Fn4 ,v127
 .byte   W06
 .byte   N11
 .byte   W84
 .byte   PEND 
@  #05 @009   ----------------------------------------
 .byte   W96
@  #05 @010   ----------------------------------------
 .byte   W96
@  #05 @011   ----------------------------------------
 .byte   W96
@  #05 @012   ----------------------------------------
 .byte   W96
@  #05 @013   ----------------------------------------
 .byte   W96
@  #05 @014   ----------------------------------------
 .byte   W96
@  #05 @015   ----------------------------------------
 .byte   W96
@  #05 @016   ----------------------------------------
 .byte   W96
@  #05 @017   ----------------------------------------
Label_0159251C:
 .byte   W12
 .byte   N05 ,Fn4 ,v127
 .byte   W12
 .byte   N05
 .byte   W24
 .byte   N05
 .byte   W12
 .byte   N03
 .byte   W07
 .byte   N02 ,Cs4 ,v044
 .byte   W17
 .byte   N03 ,Fn4 ,v127
 .byte   W07
 .byte   N02 ,Dn4
 .byte   W05
 .byte   PEND 
@  #05 @018   ----------------------------------------
Label_01592533:
 .byte   N05 ,Fn4 ,v127
 .byte   W12
 .byte   N03 ,Dn4
 .byte   W07
 .byte   N05 ,Fn4
 .byte   W11
 .byte   N02 ,Gn4
 .byte   W06
 .byte   N02
 .byte   W02
 .byte   N07 ,An4
 .byte   W56
 .byte   W02
 .byte   PEND 
@  #05 @019   ----------------------------------------
 .byte   PATT
  .word Label_0159251C
@  #05 @020   ----------------------------------------
Label_0159254C:
 .byte   N05 ,Fn4 ,v127
 .byte   W12
 .byte   N03 ,Dn4
 .byte   W07
 .byte   N05 ,Fn4
 .byte   W11
 .byte   Gn4
 .byte   W12
 .byte   N08 ,Fn4
 .byte   W54
 .byte   PEND 
@  #05 @021   ----------------------------------------
 .byte   PATT
  .word Label_0159251C
@  #05 @022   ----------------------------------------
Label_01592561:
 .byte   N05 ,Fn4 ,v127
 .byte   W12
 .byte   N03 ,Dn4
 .byte   W07
 .byte   N05 ,Fn4
 .byte   W11
 .byte   N02 ,Cn5
 .byte   W06
 .byte   Gn4
 .byte   W02
 .byte   N10 ,An4
 .byte   W56
 .byte   W02
 .byte   PEND 
@  #05 @023   ----------------------------------------
 .byte   PATT
  .word Label_0159251C
@  #05 @024   ----------------------------------------
Label_0159257A:
 .byte   N05 ,Fn4 ,v127
 .byte   W12
 .byte   N03 ,Dn4
 .byte   W07
 .byte   N05 ,Fn4
 .byte   W11
 .byte   Gn4
 .byte   W12
 .byte   N08 ,Fn4
 .byte   W30
 .byte   N02 ,Gs4
 .byte   W02
 .byte   N09 ,An4
 .byte   W10
 .byte   N11 ,As4
 .byte   W12
 .byte   PEND 
@  #05 @025   ----------------------------------------
 .byte   PATT
  .word Label_0159249F
@  #05 @026   ----------------------------------------
 .byte   PATT
  .word Label_015924BC
@  #05 @027   ----------------------------------------
 .byte   PATT
  .word Label_015924D2
@  #05 @028   ----------------------------------------
 .byte   PATT
  .word Label_015924EC
@  #05 @029   ----------------------------------------
 .byte   PATT
  .word Label_0159249F
@  #05 @030   ----------------------------------------
 .byte   PATT
  .word Label_015924BC
@  #05 @031   ----------------------------------------
 .byte   PATT
  .word Label_015924D2
@  #05 @032   ----------------------------------------
 .byte   W06
 .byte   N05 ,Fn4 ,v127
 .byte   W06
 .byte   N11
 .byte   W48
 .byte   Cn4
 .byte   W12
 .byte   N02 ,Fn4
 .byte   W02
 .byte   N09 ,Gn4
 .byte   W10
 .byte   N11 ,Fn4
 .byte   W12
@  #05 @033   ----------------------------------------
 .byte   W96
@  #05 @034   ----------------------------------------
 .byte   W96
@  #05 @035   ----------------------------------------
 .byte   W96
@  #05 @036   ----------------------------------------
 .byte   W96
@  #05 @037   ----------------------------------------
 .byte   W96
@  #05 @038   ----------------------------------------
 .byte   W96
@  #05 @039   ----------------------------------------
 .byte   W96
@  #05 @040   ----------------------------------------
 .byte   W96
@  #05 @041   ----------------------------------------
 .byte   PATT
  .word Label_0159251C
@  #05 @042   ----------------------------------------
 .byte   PATT
  .word Label_01592533
@  #05 @043   ----------------------------------------
 .byte   PATT
  .word Label_0159251C
@  #05 @044   ----------------------------------------
 .byte   PATT
  .word Label_0159254C
@  #05 @045   ----------------------------------------
 .byte   PATT
  .word Label_0159251C
@  #05 @046   ----------------------------------------
 .byte   PATT
  .word Label_01592561
@  #05 @047   ----------------------------------------
 .byte   PATT
  .word Label_0159251C
@  #05 @048   ----------------------------------------
 .byte   PATT
  .word Label_0159257A
@  #05 @049   ----------------------------------------
 .byte   PATT
  .word Label_0159249F
@  #05 @050   ----------------------------------------
 .byte   PATT
  .word Label_015924BC
@  #05 @051   ----------------------------------------
 .byte   PATT
  .word Label_015924D2
@  #05 @052   ----------------------------------------
 .byte   PATT
  .word Label_015924EC
@  #05 @053   ----------------------------------------
 .byte   PATT
  .word Label_0159249F
@  #05 @054   ----------------------------------------
 .byte   PATT
  .word Label_015924BC
@  #05 @055   ----------------------------------------
 .byte   PATT
  .word Label_015924D2
@  #05 @056   ----------------------------------------
 .byte   PATT
  .word Label_0159250C
@  #05 @057   ----------------------------------------
 .byte   W96
@  #05 @058   ----------------------------------------
 .byte   W96
@  #05 @059   ----------------------------------------
 .byte   W96
@  #05 @060   ----------------------------------------
 .byte   W96
@  #05 @061   ----------------------------------------
 .byte   W96
@  #05 @062   ----------------------------------------
 .byte   W96
@  #05 @063   ----------------------------------------
 .byte   W96
@  #05 @064   ----------------------------------------
 .byte   W96
@  #05 @065   ----------------------------------------
 .byte   W10
 .byte   GOTO
  .word Label_0159251C
@  #05 @066   ----------------------------------------
 .byte   W84
 .byte   W02
 .byte   W96
@  #05 @067   ----------------------------------------
 .byte   W96
@  #05 @068   ----------------------------------------
 .byte   W96
@  #05 @069   ----------------------------------------
 .byte   W96
@  #05 @070   ----------------------------------------
 .byte   W96
@  #05 @071   ----------------------------------------
 .byte   W96
@  #05 @072   ----------------------------------------
 .byte   W96
@  #05 @073   ----------------------------------------
 .byte   W96
@  #05 @074   ----------------------------------------
 .byte   W96
@  #05 @075   ----------------------------------------
 .byte   W96
@  #05 @076   ----------------------------------------
 .byte   W96
@  #05 @077   ----------------------------------------
 .byte   W96
@  #05 @078   ----------------------------------------
 .byte   W96
@  #05 @079   ----------------------------------------
 .byte   W96
@  #05 @080   ----------------------------------------
 .byte   W96
@  #05 @081   ----------------------------------------
 .byte   W96
@  #05 @082   ----------------------------------------
 .byte   W96
@  #05 @083   ----------------------------------------
 .byte   W96
@  #05 @084   ----------------------------------------
 .byte   W96
@  #05 @085   ----------------------------------------
 .byte   W96
 .byte   FINE

@**************** Track 6 (Midi-Chn.5) ****************@

song15_006:
@  #06 @000   ----------------------------------------
 .byte   KEYSH , song15_key+0
 .byte   VOICE , 124
 .byte   MODT 0
 .byte   LFOS 44
 .byte   VOL , 53*song15_mvl/mxv
 .byte   PAN , c_v+0
 .byte   VOL , 53*song15_mvl/mxv
 .byte   PAN , c_v+0
 .byte   VOL , 53*song15_mvl/mxv
 .byte   PAN , c_v+0
 .byte   VOL , 53*song15_mvl/mxv
 .byte   PAN , c_v+0
 .byte   VOL , 53*song15_mvl/mxv
 .byte   PAN , c_v+0
 .byte   VOL , 53*song15_mvl/mxv
 .byte   PAN , c_v+0
 .byte   VOL , 53*song15_mvl/mxv
 .byte   PAN , c_v+0
 .byte   W96
@  #06 @001   ----------------------------------------
Label_0159266D:
 .byte   W24
 .byte   N11 ,En0 ,v127
 .byte   N11 ,En2
 .byte   W48
 .byte   En0
 .byte   N11 ,En2
 .byte   W24
 .byte   PEND 
@  #06 @002   ----------------------------------------
 .byte   PATT
  .word Label_0159266D
@  #06 @003   ----------------------------------------
 .byte   PATT
  .word Label_0159266D
@  #06 @004   ----------------------------------------
 .byte   W72
 .byte   N01 ,En4 ,v060
 .byte   W02
 .byte   N01
 .byte   W02
 .byte   N01
 .byte   W02
 .byte   N05
 .byte   W06
 .byte   N01
 .byte   W02
 .byte   N01
 .byte   W02
 .byte   N01
 .byte   W02
 .byte   N05
 .byte   W06
@  #06 @005   ----------------------------------------
Label_01592696:
 .byte   N23 ,Cn1 ,v060
 .byte   N11 ,En4
 .byte   W12
 .byte   N11
 .byte   W12
 .byte   En0 ,v127
 .byte   N23 ,Ds1 ,v104
 .byte   N11 ,En2 ,v127
 .byte   N11 ,En4 ,v060
 .byte   W12
 .byte   N11
 .byte   W12
 .byte   Cn1
 .byte   N11 ,En4
 .byte   W12
 .byte   Cn1
 .byte   N11 ,En4
 .byte   W12
 .byte   En0 ,v127
 .byte   N23 ,Ds1 ,v104
 .byte   N11 ,En2 ,v127
 .byte   N11 ,En4 ,v060
 .byte   W08
 .byte   N07 ,Cn1
 .byte   W04
 .byte   N11 ,En4
 .byte   W12
 .byte   PEND 
@  #06 @006   ----------------------------------------
 .byte   N23 ,Cn1
 .byte   N11 ,En4
 .byte   W12
 .byte   N11
 .byte   W12
 .byte   En0 ,v127
 .byte   N23 ,Ds1 ,v104
 .byte   N11 ,En2 ,v127
 .byte   N11 ,En4 ,v060
 .byte   W12
 .byte   N11
 .byte   W12
 .byte   Cn1
 .byte   N11 ,En4
 .byte   W12
 .byte   Cn1
 .byte   N11 ,Ds2
 .byte   W12
 .byte   En0 ,v127
 .byte   N23 ,Ds1 ,v104
 .byte   N11 ,En2 ,v127
 .byte   N11 ,En4 ,v060
 .byte   W08
 .byte   N07 ,Cn1
 .byte   W04
 .byte   N11 ,Fn4
 .byte   W12
@  #06 @007   ----------------------------------------
 .byte   N23 ,Cn1
 .byte   N11 ,En4
 .byte   W12
 .byte   N11
 .byte   W12
 .byte   En0 ,v127
 .byte   N23 ,Ds1 ,v104
 .byte   N11 ,En2 ,v127
 .byte   N11 ,En4 ,v060
 .byte   W12
 .byte   N11
 .byte   W12
 .byte   Cn1
 .byte   N11 ,En4
 .byte   W12
 .byte   Cn1
 .byte   N11 ,Ds2
 .byte   W12
 .byte   En0 ,v127
 .byte   N23 ,Ds1 ,v104
 .byte   N11 ,En2 ,v127
 .byte   N11 ,En4 ,v060
 .byte   W08
 .byte   N07 ,Cn1
 .byte   W04
 .byte   N11 ,En4
 .byte   W12
@  #06 @008   ----------------------------------------
 .byte   N23 ,Cn1
 .byte   N11 ,En4
 .byte   W12
 .byte   N11
 .byte   W12
 .byte   Ds1 ,v104
 .byte   N11 ,En4 ,v060
 .byte   W12
 .byte   N11
 .byte   W08
 .byte   N03 ,Ds1 ,v104
 .byte   W04
 .byte   N23
 .byte   N11 ,En4 ,v060
 .byte   W12
 .byte   Dn1
 .byte   W12
 .byte   N23 ,Ds1 ,v104
 .byte   N09 ,En4 ,v060
 .byte   W09
 .byte   N04
 .byte   W05
 .byte   N09
 .byte   W10
@  #06 @009   ----------------------------------------
Label_0159274A:
 .byte   N23 ,Cn1 ,v060
 .byte   N11 ,En4
 .byte   W12
 .byte   N11
 .byte   W12
 .byte   En0 ,v127
 .byte   N23 ,Ds1 ,v104
 .byte   N11 ,En2 ,v127
 .byte   N11 ,En4 ,v060
 .byte   W12
 .byte   N11
 .byte   W12
 .byte   Cn1
 .byte   N11 ,En4
 .byte   W12
 .byte   Cn1
 .byte   N11 ,En4
 .byte   W12
 .byte   En0 ,v127
 .byte   N23 ,Ds1 ,v104
 .byte   N11 ,En2 ,v127
 .byte   N11 ,En4 ,v060
 .byte   W08
 .byte   N07 ,Cn1
 .byte   W04
 .byte   N11 ,En4
 .byte   W12
 .byte   PEND 
@  #06 @010   ----------------------------------------
Label_0159277B:
 .byte   N23 ,Cn1 ,v060
 .byte   N11 ,En4
 .byte   W12
 .byte   N11
 .byte   W12
 .byte   En0 ,v127
 .byte   N23 ,Ds1 ,v104
 .byte   N11 ,En2 ,v127
 .byte   N11 ,En4 ,v060
 .byte   W12
 .byte   N11
 .byte   W12
 .byte   Cn1
 .byte   N11 ,En4
 .byte   W12
 .byte   Cn1
 .byte   N11 ,Fn4
 .byte   W12
 .byte   En0 ,v127
 .byte   N23 ,Ds1 ,v104
 .byte   N11 ,En2 ,v127
 .byte   N11 ,En4 ,v060
 .byte   W08
 .byte   N07 ,Cn1
 .byte   W04
 .byte   En4
 .byte   W07
 .byte   N04
 .byte   W05
 .byte   PEND 
@  #06 @011   ----------------------------------------
Label_015927AD:
 .byte   N23 ,Cn1 ,v060
 .byte   N11 ,En4
 .byte   W12
 .byte   N11
 .byte   W12
 .byte   En0 ,v127
 .byte   N23 ,Ds1 ,v104
 .byte   N11 ,En2 ,v127
 .byte   N11 ,En4 ,v060
 .byte   W12
 .byte   N11
 .byte   W12
 .byte   Cn1
 .byte   N11 ,En4
 .byte   W12
 .byte   Cn1
 .byte   N11 ,Fn4
 .byte   W12
 .byte   En0 ,v127
 .byte   N23 ,Ds1 ,v104
 .byte   N11 ,En2 ,v127
 .byte   N11 ,En4 ,v060
 .byte   W08
 .byte   N07 ,Cn1
 .byte   W04
 .byte   N11 ,En4
 .byte   W12
 .byte   PEND 
@  #06 @012   ----------------------------------------
Label_015927DE:
 .byte   N23 ,Cn1 ,v060
 .byte   N11 ,En4
 .byte   W12
 .byte   N11
 .byte   W12
 .byte   Ds1 ,v104
 .byte   N11 ,En4 ,v060
 .byte   W12
 .byte   N11
 .byte   W08
 .byte   N03 ,Ds1 ,v104
 .byte   W04
 .byte   N23
 .byte   N11 ,En4 ,v060
 .byte   W12
 .byte   Dn1
 .byte   N11 ,Fn4
 .byte   W12
 .byte   N23 ,Ds1 ,v104
 .byte   N09 ,En4 ,v060
 .byte   W09
 .byte   N04
 .byte   W05
 .byte   N09
 .byte   W10
 .byte   PEND 
@  #06 @013   ----------------------------------------
 .byte   PATT
  .word Label_0159274A
@  #06 @014   ----------------------------------------
 .byte   PATT
  .word Label_0159277B
@  #06 @015   ----------------------------------------
 .byte   PATT
  .word Label_015927AD
@  #06 @016   ----------------------------------------
 .byte   PATT
  .word Label_015927DE
@  #06 @017   ----------------------------------------
Label_0159281B:
@  #06 @018   ----------------------------------------
 .byte   PATT
  .word Label_01592696
@  #06 @019   ----------------------------------------
Label_01592820:
 .byte   N23 ,Cn1 ,v060
 .byte   N11 ,En4
 .byte   W12
 .byte   N11
 .byte   W12
 .byte   En0 ,v127
 .byte   N23 ,Ds1 ,v104
 .byte   N11 ,En2 ,v127
 .byte   N11 ,En4 ,v060
 .byte   W12
 .byte   N11
 .byte   W12
 .byte   Cn1
 .byte   N11 ,En4
 .byte   W12
 .byte   Cn1
 .byte   N11 ,Fn4
 .byte   W12
 .byte   En0 ,v127
 .byte   N23 ,Ds1 ,v104
 .byte   N11 ,En2 ,v127
 .byte   N11 ,En4 ,v060
 .byte   W08
 .byte   N07 ,Cn1
 .byte   W05
 .byte   N04 ,En4
 .byte   W05
 .byte   N05
 .byte   W06
 .byte   PEND 
@  #06 @020   ----------------------------------------
Label_01592853:
 .byte   N23 ,Cn1 ,v060
 .byte   N11 ,En4
 .byte   W12
 .byte   N11
 .byte   W12
 .byte   En0 ,v127
 .byte   N23 ,Ds1 ,v104
 .byte   N11 ,En2 ,v127
 .byte   N11 ,En4 ,v060
 .byte   W12
 .byte   N11
 .byte   W12
 .byte   Cn1
 .byte   N11 ,En4
 .byte   W12
 .byte   Cn1
 .byte   N11 ,Fn4
 .byte   W12
 .byte   En0 ,v127
 .byte   N23 ,Ds1 ,v104
 .byte   N11 ,En2 ,v127
 .byte   N11 ,En4 ,v060
 .byte   W08
 .byte   N07 ,Cn1
 .byte   W04
 .byte   N11 ,En4
 .byte   W12
 .byte   PEND 
@  #06 @021   ----------------------------------------
 .byte   N23 ,Cn1
 .byte   N11 ,En4
 .byte   W12
 .byte   N11
 .byte   W12
 .byte   Ds1 ,v104
 .byte   N11 ,En4 ,v060
 .byte   W12
 .byte   N11
 .byte   W08
 .byte   N03 ,Ds1 ,v104
 .byte   W04
 .byte   N23
 .byte   N11 ,En4 ,v060
 .byte   W12
 .byte   Dn1
 .byte   N11 ,Fn4
 .byte   W12
 .byte   N23 ,Ds1 ,v104
 .byte   N09 ,En4 ,v060
 .byte   W09
 .byte   N04
 .byte   W05
 .byte   N09
 .byte   W10
@  #06 @022   ----------------------------------------
 .byte   PATT
  .word Label_01592696
@  #06 @023   ----------------------------------------
 .byte   PATT
  .word Label_01592820
@  #06 @024   ----------------------------------------
 .byte   PATT
  .word Label_01592853
@  #06 @025   ----------------------------------------
 .byte   N23 ,Cn1 ,v060
 .byte   N11 ,En4
 .byte   W12
 .byte   N11
 .byte   W12
 .byte   Ds1 ,v104
 .byte   N11 ,En4 ,v060
 .byte   W12
 .byte   N11
 .byte   W08
 .byte   N03 ,Ds1 ,v104
 .byte   W04
 .byte   N23
 .byte   N11 ,En4 ,v060
 .byte   W12
 .byte   Dn1
 .byte   N11 ,Fn4
 .byte   W12
 .byte   N23 ,Ds1 ,v104
 .byte   N09 ,En4 ,v060
 .byte   W09
 .byte   N04
 .byte   W05
 .byte   N09
 .byte   W10
@  #06 @026   ----------------------------------------
Label_015928E2:
 .byte   N23 ,Cn1 ,v060
 .byte   N11 ,En4
 .byte   W12
 .byte   N11
 .byte   W12
 .byte   En0 ,v127
 .byte   N23 ,Ds1 ,v104
 .byte   N11 ,En2 ,v127
 .byte   N11 ,En4 ,v060
 .byte   W12
 .byte   N11
 .byte   W12
 .byte   Cn1
 .byte   N11 ,En4
 .byte   W12
 .byte   Cn1
 .byte   N11 ,En4
 .byte   W12
 .byte   En0 ,v127
 .byte   N23 ,Ds1 ,v104
 .byte   N11 ,En2 ,v127
 .byte   N11 ,En4 ,v060
 .byte   W08
 .byte   N07 ,Cn1
 .byte   W04
 .byte   N11 ,En4
 .byte   W12
 .byte   PEND 
@  #06 @027   ----------------------------------------
Label_01592913:
 .byte   N23 ,Cn1 ,v060
 .byte   N11 ,En4
 .byte   W12
 .byte   N11
 .byte   W12
 .byte   En0 ,v127
 .byte   N23 ,Ds1 ,v104
 .byte   N11 ,En2 ,v127
 .byte   N11 ,En4 ,v060
 .byte   W12
 .byte   N11
 .byte   W12
 .byte   Cn1
 .byte   N11 ,En4
 .byte   W12
 .byte   Cn1
 .byte   N11 ,Fn4
 .byte   W12
 .byte   En0 ,v127
 .byte   N23 ,Ds1 ,v104
 .byte   N11 ,En2 ,v127
 .byte   N11 ,En4 ,v060
 .byte   W08
 .byte   N07 ,Cn1
 .byte   W05
 .byte   N04 ,En4
 .byte   W05
 .byte   N05
 .byte   W06
 .byte   PEND 
@  #06 @028   ----------------------------------------
Label_01592946:
 .byte   N23 ,Cn1 ,v060
 .byte   N11 ,En4
 .byte   W12
 .byte   N11
 .byte   W12
 .byte   En0 ,v127
 .byte   N23 ,Ds1 ,v104
 .byte   N11 ,En2 ,v127
 .byte   N11 ,En4 ,v060
 .byte   W12
 .byte   N11
 .byte   W12
 .byte   Cn1
 .byte   N11 ,En4
 .byte   W12
 .byte   Cn1
 .byte   N11 ,Fn4
 .byte   W12
 .byte   En0 ,v127
 .byte   N23 ,Ds1 ,v104
 .byte   N11 ,En2 ,v127
 .byte   N11 ,En4 ,v060
 .byte   W08
 .byte   N07 ,Cn1
 .byte   W04
 .byte   N11 ,En4
 .byte   W12
 .byte   PEND 
@  #06 @029   ----------------------------------------
Label_01592977:
 .byte   N23 ,Cn1 ,v060
 .byte   N11 ,En4
 .byte   W12
 .byte   N11
 .byte   W12
 .byte   Ds1 ,v104
 .byte   N11 ,En4 ,v060
 .byte   W12
 .byte   N11
 .byte   W08
 .byte   N03 ,Ds1 ,v104
 .byte   W04
 .byte   N23
 .byte   N11 ,En4 ,v060
 .byte   W12
 .byte   Dn1
 .byte   N11 ,Fn4
 .byte   W12
 .byte   N23 ,Ds1 ,v104
 .byte   N11 ,En4 ,v060
 .byte   W12
 .byte   N07
 .byte   W07
 .byte   N04
 .byte   W05
 .byte   PEND 
@  #06 @030   ----------------------------------------
 .byte   PATT
  .word Label_015928E2
@  #06 @031   ----------------------------------------
 .byte   PATT
  .word Label_01592913
@  #06 @032   ----------------------------------------
 .byte   PATT
  .word Label_01592946
@  #06 @033   ----------------------------------------
 .byte   PATT
  .word Label_01592977
@  #06 @034   ----------------------------------------
 .byte   PATT
  .word Label_0159266D
@  #06 @035   ----------------------------------------
 .byte   PATT
  .word Label_0159266D
@  #06 @036   ----------------------------------------
 .byte   PATT
  .word Label_0159266D
@  #06 @037   ----------------------------------------
 .byte   W96
@  #06 @038   ----------------------------------------
 .byte   N11 ,En4 ,v060
 .byte   W12
 .byte   N11
 .byte   W12
 .byte   En0 ,v127
 .byte   N11 ,En2
 .byte   N23 ,Fs2
 .byte   N11 ,Gn4 ,v060
 .byte   W12
 .byte   En4
 .byte   W12
 .byte   N11
 .byte   W12
 .byte   N11
 .byte   W12
 .byte   En0 ,v127
 .byte   N11 ,En2
 .byte   N23 ,Fs2
 .byte   N11 ,Gn4 ,v060
 .byte   W12
 .byte   En4
 .byte   W12
@  #06 @039   ----------------------------------------
 .byte   N11
 .byte   W12
 .byte   N11
 .byte   W12
 .byte   En0 ,v127
 .byte   N11 ,En2
 .byte   N23 ,Fs2
 .byte   N11 ,Gn4 ,v060
 .byte   W12
 .byte   En4
 .byte   W12
 .byte   N11
 .byte   W12
 .byte   Fn4
 .byte   W12
 .byte   En0 ,v127
 .byte   N11 ,En2
 .byte   N23 ,Fs2
 .byte   N11 ,Gn4 ,v060
 .byte   W12
 .byte   En4
 .byte   W12
@  #06 @040   ----------------------------------------
 .byte   N11
 .byte   W12
 .byte   N11
 .byte   W12
 .byte   En0 ,v127
 .byte   N11 ,En2
 .byte   N23 ,Fs2
 .byte   N11 ,Gn4 ,v060
 .byte   W12
 .byte   En4
 .byte   W12
 .byte   N11
 .byte   W12
 .byte   Fn4
 .byte   W12
 .byte   En0 ,v127
 .byte   N11 ,En2
 .byte   N23 ,Fs2
 .byte   N11 ,Gn4 ,v060
 .byte   W12
 .byte   En4
 .byte   W12
@  #06 @041   ----------------------------------------
 .byte   N11
 .byte   W12
 .byte   N11
 .byte   W12
 .byte   N23 ,Fs2 ,v127
 .byte   N11 ,Gn4 ,v060
 .byte   W12
 .byte   En4
 .byte   W12
 .byte   N11
 .byte   W12
 .byte   Fn4
 .byte   W12
 .byte   Dn2 ,v127
 .byte   N23 ,Fs2 ,v060
 .byte   N11 ,Gn4
 .byte   W12
 .byte   Dn2 ,v127
 .byte   N11 ,En4 ,v060
 .byte   W12
@  #06 @042   ----------------------------------------
 .byte   N23 ,Cn1
 .byte   N11 ,En4
 .byte   W12
 .byte   N11
 .byte   W12
 .byte   N23 ,Dn1
 .byte   N23 ,Dn2 ,v127
 .byte   N11 ,En4 ,v060
 .byte   W12
 .byte   N11
 .byte   W06
 .byte   N02 ,Bn0
 .byte   W06
 .byte   N11 ,Cn1
 .byte   N11 ,En4
 .byte   W12
 .byte   Cn1
 .byte   N11 ,En4
 .byte   W12
 .byte   N23 ,Dn1
 .byte   N23 ,Dn2 ,v127
 .byte   N11 ,En4 ,v060
 .byte   W08
 .byte   N07 ,Cn1
 .byte   W04
 .byte   N11 ,En4
 .byte   W12
@  #06 @043   ----------------------------------------
 .byte   N23 ,Cn1
 .byte   N11 ,En4
 .byte   W12
 .byte   N11
 .byte   W12
 .byte   N23 ,Dn1
 .byte   N23 ,Dn2 ,v127
 .byte   N11 ,En4 ,v060
 .byte   W06
 .byte   N02 ,Bn0
 .byte   W06
 .byte   N11 ,En4
 .byte   W06
 .byte   N02 ,Bn0
 .byte   W06
 .byte   N11 ,Cn1
 .byte   N11 ,En4
 .byte   W12
 .byte   Cn1
 .byte   N11 ,Fn4
 .byte   W12
 .byte   N23 ,Dn1
 .byte   N23 ,Dn2 ,v127
 .byte   N11 ,En4 ,v060
 .byte   W08
 .byte   N07 ,Cn1
 .byte   W04
 .byte   N02 ,En4
 .byte   W03
 .byte   N02
 .byte   W09
@  #06 @044   ----------------------------------------
 .byte   N23 ,Cn1
 .byte   N11 ,En4
 .byte   W12
 .byte   N11
 .byte   W12
 .byte   N23 ,Dn1
 .byte   N23 ,Dn2 ,v127
 .byte   N11 ,En4 ,v060
 .byte   W12
 .byte   N11
 .byte   W06
 .byte   N02 ,Bn0
 .byte   W06
 .byte   N23 ,Cn1
 .byte   N11 ,En4
 .byte   W12
 .byte   Fn4
 .byte   W12
 .byte   N23 ,Dn1
 .byte   N23 ,Dn2 ,v127
 .byte   N11 ,En4 ,v060
 .byte   W12
 .byte   N11
 .byte   W12
@  #06 @045   ----------------------------------------
Label_01592ACC:
 .byte   N11 ,Cn1 ,v060
 .byte   N11 ,En4
 .byte   W12
 .byte   Bn0
 .byte   N11 ,En4
 .byte   W12
 .byte   N23 ,Cn1
 .byte   N11 ,Dn1
 .byte   N11 ,Dn2 ,v127
 .byte   N11 ,En4 ,v060
 .byte   W12
 .byte   N11
 .byte   W08
 .byte   N03 ,Dn1
 .byte   N03 ,Dn2 ,v127
 .byte   W04
 .byte   N11 ,Bn0 ,v060
 .byte   N12 ,Dn1
 .byte   N23 ,Dn2 ,v127
 .byte   N11 ,En4 ,v060
 .byte   W12
 .byte   Cn1
 .byte   N11 ,Dn1
 .byte   N11 ,Fn4
 .byte   W12
 .byte   N23 ,Cn1
 .byte   N23 ,Dn1
 .byte   N23 ,Dn2 ,v127
 .byte   W24
 .byte   PEND 
@  #06 @046   ----------------------------------------
 .byte   Cn1 ,v060
 .byte   N11 ,En4
 .byte   W12
 .byte   N11
 .byte   W12
 .byte   En0 ,v127
 .byte   N23 ,Dn1 ,v060
 .byte   N23 ,Dn2 ,v127
 .byte   N11 ,En2
 .byte   N11 ,En4 ,v060
 .byte   W12
 .byte   N11
 .byte   W06
 .byte   N02 ,Bn0
 .byte   W06
 .byte   N11 ,Cn1
 .byte   N11 ,En4
 .byte   W12
 .byte   Cn1
 .byte   N11 ,En4
 .byte   W12
 .byte   En0 ,v127
 .byte   N23 ,Dn1 ,v060
 .byte   N23 ,Dn2 ,v127
 .byte   N11 ,En2
 .byte   N11 ,En4 ,v060
 .byte   W08
 .byte   N07 ,Cn1
 .byte   W04
 .byte   N11 ,En4
 .byte   W12
@  #06 @047   ----------------------------------------
 .byte   N23 ,Cn1
 .byte   N11 ,En4
 .byte   W12
 .byte   N11
 .byte   W12
 .byte   En0 ,v127
 .byte   N23 ,Dn1 ,v060
 .byte   N23 ,Dn2 ,v127
 .byte   N11 ,En2
 .byte   N11 ,En4 ,v060
 .byte   W06
 .byte   N02 ,Bn0
 .byte   W06
 .byte   N11 ,En4
 .byte   W06
 .byte   N02 ,Bn0
 .byte   W06
 .byte   N11 ,Cn1
 .byte   N11 ,En4
 .byte   W12
 .byte   Cn1
 .byte   N11 ,Fn4
 .byte   W12
 .byte   En0 ,v127
 .byte   N23 ,Dn1 ,v060
 .byte   N23 ,Dn2 ,v127
 .byte   N11 ,En2
 .byte   N11 ,En4 ,v060
 .byte   W08
 .byte   N07 ,Cn1
 .byte   W04
 .byte   N02 ,En4
 .byte   W03
 .byte   N02
 .byte   W09
@  #06 @048   ----------------------------------------
 .byte   N23 ,Cn1
 .byte   N11 ,En4
 .byte   W12
 .byte   N11
 .byte   W12
 .byte   En0 ,v127
 .byte   N23 ,Dn1 ,v060
 .byte   N23 ,Dn2 ,v127
 .byte   N11 ,En2
 .byte   N11 ,En4 ,v060
 .byte   W12
 .byte   N11
 .byte   W06
 .byte   N02 ,Bn0
 .byte   W06
 .byte   N23 ,Cn1
 .byte   N11 ,En4
 .byte   W12
 .byte   Fn4
 .byte   W12
 .byte   En0 ,v127
 .byte   N23 ,Dn1 ,v060
 .byte   N23 ,Dn2 ,v127
 .byte   N11 ,En2
 .byte   N11 ,En4 ,v060
 .byte   W12
 .byte   N11
 .byte   W12
@  #06 @049   ----------------------------------------
 .byte   PATT
  .word Label_01592ACC
@  #06 @050   ----------------------------------------
 .byte   PATT
  .word Label_015928E2
@  #06 @051   ----------------------------------------
 .byte   PATT
  .word Label_01592913
@  #06 @052   ----------------------------------------
 .byte   PATT
  .word Label_01592946
@  #06 @053   ----------------------------------------
 .byte   PATT
  .word Label_01592977
@  #06 @054   ----------------------------------------
 .byte   PATT
  .word Label_015928E2
@  #06 @055   ----------------------------------------
 .byte   PATT
  .word Label_01592913
@  #06 @056   ----------------------------------------
 .byte   PATT
  .word Label_01592946
@  #06 @057   ----------------------------------------
 .byte   N23 ,Cn1 ,v060
 .byte   N11 ,En4
 .byte   W12
 .byte   N11
 .byte   W12
 .byte   Ds1 ,v104
 .byte   N11 ,En4 ,v060
 .byte   W12
 .byte   N11
 .byte   W08
 .byte   N03 ,Ds1 ,v104
 .byte   W04
 .byte   N23
 .byte   N11 ,En4 ,v060
 .byte   W12
 .byte   Dn1
 .byte   N11 ,Fn4
 .byte   W12
 .byte   N23 ,Ds1 ,v104
 .byte   N11 ,En4 ,v060
 .byte   W12
 .byte   N07
 .byte   W07
 .byte   N04
 .byte   W05
@  #06 @058   ----------------------------------------
 .byte   PATT
  .word Label_0159274A
@  #06 @059   ----------------------------------------
 .byte   PATT
  .word Label_0159277B
@  #06 @060   ----------------------------------------
 .byte   PATT
  .word Label_015927AD
@  #06 @061   ----------------------------------------
 .byte   PATT
  .word Label_015927DE
@  #06 @062   ----------------------------------------
 .byte   PATT
  .word Label_0159274A
@  #06 @063   ----------------------------------------
 .byte   PATT
  .word Label_0159277B
@  #06 @064   ----------------------------------------
 .byte   PATT
  .word Label_015927AD
@  #06 @065   ----------------------------------------
 .byte   PATT
  .word Label_015927DE
@  #06 @066   ----------------------------------------
 .byte   W10
 .byte   GOTO
  .word Label_0159281B
@  #06 @067   ----------------------------------------
 .byte   W84
 .byte   W02
 .byte   W96
@  #06 @068   ----------------------------------------
 .byte   W96
@  #06 @069   ----------------------------------------
 .byte   W96
@  #06 @070   ----------------------------------------
 .byte   W96
@  #06 @071   ----------------------------------------
 .byte   W96
@  #06 @072   ----------------------------------------
 .byte   W96
@  #06 @073   ----------------------------------------
 .byte   W96
@  #06 @074   ----------------------------------------
 .byte   W96
@  #06 @075   ----------------------------------------
 .byte   W96
@  #06 @076   ----------------------------------------
 .byte   W96
@  #06 @077   ----------------------------------------
 .byte   W96
@  #06 @078   ----------------------------------------
 .byte   W96
@  #06 @079   ----------------------------------------
 .byte   W96
@  #06 @080   ----------------------------------------
 .byte   W96
@  #06 @081   ----------------------------------------
 .byte   W96
@  #06 @082   ----------------------------------------
 .byte   W96
@  #06 @083   ----------------------------------------
 .byte   W96
@  #06 @084   ----------------------------------------
 .byte   W96
@  #06 @085   ----------------------------------------
 .byte   W96
@  #06 @086   ----------------------------------------
 .byte   W96
 .byte   FINE

@**************** Track 7 (Midi-Chn.6) ****************@

song15_007:
@  #07 @000   ----------------------------------------
 .byte   KEYSH , song15_key+0
 .byte   VOICE , 33
 .byte   MODT 0
 .byte   LFOS 44
 .byte   VOL , 53*song15_mvl/mxv
 .byte   PAN , c_v+0
 .byte   W96
@  #07 @001   ----------------------------------------
 .byte   W96
@  #07 @002   ----------------------------------------
 .byte   W96
@  #07 @003   ----------------------------------------
 .byte   W96
@  #07 @004   ----------------------------------------
 .byte   W96
@  #07 @005   ----------------------------------------
 .byte   W96
@  #07 @006   ----------------------------------------
 .byte   W96
@  #07 @007   ----------------------------------------
 .byte   W96
@  #07 @008   ----------------------------------------
 .byte   W96
@  #07 @009   ----------------------------------------
 .byte   W96
@  #07 @010   ----------------------------------------
 .byte   W96
@  #07 @011   ----------------------------------------
 .byte   W96
@  #07 @012   ----------------------------------------
 .byte   W96
@  #07 @013   ----------------------------------------
 .byte   W96
@  #07 @014   ----------------------------------------
 .byte   W96
@  #07 @015   ----------------------------------------
 .byte   W96
@  #07 @016   ----------------------------------------
 .byte   W96
@  #07 @017   ----------------------------------------
Label_55929D:
 .byte   W96
@  #07 @018   ----------------------------------------
 .byte   W96
@  #07 @019   ----------------------------------------
 .byte   W96
@  #07 @020   ----------------------------------------
 .byte   W96
@  #07 @021   ----------------------------------------
 .byte   W96
@  #07 @022   ----------------------------------------
 .byte   W96
@  #07 @023   ----------------------------------------
 .byte   W96
@  #07 @024   ----------------------------------------
 .byte   W96
@  #07 @025   ----------------------------------------
 .byte   W96
@  #07 @026   ----------------------------------------
 .byte   W96
@  #07 @027   ----------------------------------------
 .byte   W96
@  #07 @028   ----------------------------------------
 .byte   W96
@  #07 @029   ----------------------------------------
 .byte   W96
@  #07 @030   ----------------------------------------
 .byte   W96
@  #07 @031   ----------------------------------------
 .byte   W96
@  #07 @032   ----------------------------------------
 .byte   W96
@  #07 @033   ----------------------------------------
 .byte   W96
@  #07 @034   ----------------------------------------
 .byte   W96
@  #07 @035   ----------------------------------------
 .byte   W96
@  #07 @036   ----------------------------------------
 .byte   W96
@  #07 @037   ----------------------------------------
 .byte   W96
@  #07 @038   ----------------------------------------
 .byte   W96
@  #07 @039   ----------------------------------------
 .byte   W96
@  #07 @040   ----------------------------------------
 .byte   W96
@  #07 @041   ----------------------------------------
Label_5592B5:
 .byte   N16 ,As0 ,v036
 .byte   W42
 .byte   N03
 .byte   W06
 .byte   N07 ,An0
 .byte   W12
 .byte   N07
 .byte   W20
 .byte   N05
 .byte   W16
 .byte   PEND 
@  #07 @042   ----------------------------------------
Label_5592C3:
 .byte   N16 ,Dn1 ,v036
 .byte   W30
 .byte   N03 ,An0
 .byte   W12
 .byte   N03
 .byte   W06
 .byte   N07 ,Gn0
 .byte   W12
 .byte   N07
 .byte   W20
 .byte   N05
 .byte   W16
 .byte   PEND 
@  #07 @043   ----------------------------------------
Label_5592D4:
 .byte   N16 ,As0 ,v036
 .byte   W42
 .byte   N03
 .byte   W06
 .byte   N16 ,An0
 .byte   W48
 .byte   PEND 
@  #07 @044   ----------------------------------------
Label_5592DE:
 .byte   N07 ,Dn1 ,v036
 .byte   W12
 .byte   N07
 .byte   W12
 .byte   N16 ,Cs1
 .byte   W24
 .byte   N07 ,Cn1
 .byte   W12
 .byte   N07
 .byte   W12
 .byte   N16 ,An0
 .byte   W24
 .byte   PEND 
@  #07 @045   ----------------------------------------
 .byte   PATT
  .word Label_5592B5
@  #07 @046   ----------------------------------------
 .byte   PATT
  .word Label_5592C3
@  #07 @047   ----------------------------------------
 .byte   PATT
  .word Label_5592D4
@  #07 @048   ----------------------------------------
 .byte   PATT
  .word Label_5592DE
@  #07 @049   ----------------------------------------
 .byte   W96
@  #07 @050   ----------------------------------------
 .byte   W96
@  #07 @051   ----------------------------------------
 .byte   W96
@  #07 @052   ----------------------------------------
 .byte   W96
@  #07 @053   ----------------------------------------
 .byte   W96
@  #07 @054   ----------------------------------------
 .byte   W96
@  #07 @055   ----------------------------------------
 .byte   W96
@  #07 @056   ----------------------------------------
 .byte   W96
@  #07 @057   ----------------------------------------
 .byte   W96
@  #07 @058   ----------------------------------------
 .byte   W96
@  #07 @059   ----------------------------------------
 .byte   W96
@  #07 @060   ----------------------------------------
 .byte   W96
@  #07 @061   ----------------------------------------
 .byte   W96
@  #07 @062   ----------------------------------------
 .byte   W96
@  #07 @063   ----------------------------------------
 .byte   W96
@  #07 @064   ----------------------------------------
 .byte   W96
@  #07 @065   ----------------------------------------
 .byte   W10
 .byte   GOTO
  .word Label_55929D
@  #07 @066   ----------------------------------------
 .byte   W84
 .byte   W02
 .byte   W96
@  #07 @067   ----------------------------------------
 .byte   W96
@  #07 @068   ----------------------------------------
 .byte   W96
@  #07 @069   ----------------------------------------
 .byte   W96
@  #07 @070   ----------------------------------------
 .byte   W96
@  #07 @071   ----------------------------------------
 .byte   W96
@  #07 @072   ----------------------------------------
 .byte   W96
@  #07 @073   ----------------------------------------
 .byte   W96
@  #07 @074   ----------------------------------------
 .byte   W96
@  #07 @075   ----------------------------------------
 .byte   W96
@  #07 @076   ----------------------------------------
 .byte   W96
@  #07 @077   ----------------------------------------
 .byte   W96
@  #07 @078   ----------------------------------------
 .byte   W96
@  #07 @079   ----------------------------------------
 .byte   W96
@  #07 @080   ----------------------------------------
 .byte   W96
@  #07 @081   ----------------------------------------
 .byte   W96
@  #07 @082   ----------------------------------------
 .byte   W96
@  #07 @083   ----------------------------------------
 .byte   W96
@  #07 @084   ----------------------------------------
 .byte   W96
@  #07 @085   ----------------------------------------
 .byte   W96
 .byte   FINE

@******************************************************@
	.align	2

song15:
	.byte	7	@ NumTrks
	.byte	0	@ NumBlks
	.byte	song15_pri	@ Priority
	.byte	song15_rev	@ Reverb.
    
	.word	song15_grp
    
	.word	song15_001
	.word	song15_002
	.word	song15_003
	.word	song15_004
	.word	song15_005
	.word	song15_006
	.word	song15_007

	.end
