	.include "MPlayDef.s"

	.equ	song62_grp, voicegroup000
	.equ	song62_pri, 0
	.equ	song62_rev, 0
	.equ	song62_mvl, 127
	.equ	song62_key, 0
	.equ	song62_tbs, 1
	.equ	song62_exg, 0
	.equ	song62_cmp, 1

	.section .rodata
	.global	song62
	.align	2


@**************** Track 1 (Midi-Chn.0) ****************@

song62_001:
@  #01 @000   ----------------------------------------
 .byte   KEYSH , song62_key+0
Label_0198008A:
 .byte   TEMPO , 148*song62_tbs/2
 .byte   VOICE , 48
 .byte   MODT 0
 .byte   LFOS 44
 .byte   VOL , 53*song62_mvl/mxv
 .byte   PAN , c_v+0
 .byte   VOL , 53*song62_mvl/mxv
 .byte   PAN , c_v+0
 .byte   VOL , 53*song62_mvl/mxv
 .byte   PAN , c_v+0
 .byte   W48
 .byte   N32 ,As4 ,v060
 .byte   W36
 .byte   N11 ,Gs4
 .byte   W12
@  #01 @001   ----------------------------------------
 .byte   N68
 .byte   W72
 .byte   N11 ,Cs4
 .byte   W12
 .byte   N44 ,Gs4
 .byte   W12
@  #01 @002   ----------------------------------------
 .byte   W36
 .byte   N11 ,Gs3
 .byte   W12
 .byte   N11
 .byte   W12
 .byte   As3
 .byte   W12
 .byte   Gs3
 .byte   W12
 .byte   Cs4
 .byte   W12
@  #01 @003   ----------------------------------------
 .byte   N92 ,Ds4
 .byte   W96
@  #01 @004   ----------------------------------------
 .byte   W24
 .byte   N23 ,Cs5
 .byte   W24
 .byte   Cn5
 .byte   W24
 .byte   As4
 .byte   W24
@  #01 @005   ----------------------------------------
 .byte   N32 ,Gs4
 .byte   W36
 .byte   N11 ,Cs4
 .byte   W12
 .byte   N32
 .byte   W36
 .byte   N11
 .byte   W12
@  #01 @006   ----------------------------------------
 .byte   N23
 .byte   W24
 .byte   N23
 .byte   W24
 .byte   Gs3
 .byte   W24
 .byte   Ds4
 .byte   W24
@  #01 @007   ----------------------------------------
 .byte   TIE ,Cs4
 .byte   W96
@  #01 @008   ----------------------------------------
 .byte   W23
 .byte   EOT
 .byte   W13
 .byte   N11
 .byte   W12
 .byte   Ds4
 .byte   W12
 .byte   Cs4
 .byte   W12
 .byte   N23 ,Gs4
 .byte   W24
@  #01 @009   ----------------------------------------
 .byte   TIE ,Fn4 ,v028
 .byte   TIE ,Gs4
 .byte   W96
@  #01 @010   ----------------------------------------
Label_019800EC:
 .byte   W92
 .byte   W03
 .byte   PEND 
 .byte   EOT
 .byte   Fn4 ,v080
 .byte   W01
@  #01 @011   ----------------------------------------
 .byte   TIE ,Ds4 ,v028
 .byte   TIE ,Gs4
 .byte   W96
@  #01 @012   ----------------------------------------
 .byte   PATT
  .word Label_019800EC
@  #01 @013   ----------------------------------------
 .byte   EOT
 .byte   Ds4 ,v080
 .byte   W01
Label_01980102:
 .byte   TIE ,Cs4 ,v028
 .byte   TIE ,Gs4
 .byte   W96
 .byte   PEND 
@  #01 @014   ----------------------------------------
 .byte   PATT
  .word Label_019800EC
@  #01 @015   ----------------------------------------
 .byte   EOT
 .byte   Cs4 ,v080
 .byte   W01
@  #01 @016   ----------------------------------------
 .byte   PATT
  .word Label_01980102
@  #01 @017   ----------------------------------------
 .byte   W44
 .byte   W03
 .byte   EOT
 .byte   Cs4 ,v080
 .byte   W48
 .byte   W01
@  #01 @018   ----------------------------------------
 .byte   W12
 .byte   N11 ,Fn4 ,v060
 .byte   W12
 .byte   N23
 .byte   W24
 .byte   Ds4
 .byte   W24
 .byte   N11 ,Cs4
 .byte   W12
 .byte   N23 ,Fs4
 .byte   W12
@  #01 @019   ----------------------------------------
 .byte   W12
 .byte   Fn4
 .byte   W24
 .byte   Ds4
 .byte   W12
 .byte   W12
 .byte   Cs4
 .byte   W24
 .byte   N32 ,Gs3
 .byte   W12
@  #01 @020   ----------------------------------------
 .byte   W36
 .byte   N11 ,Ds4
 .byte   W12
 .byte   N11
 .byte   W12
 .byte   N11
 .byte   W12
 .byte   Cs4
 .byte   W12
 .byte   N23 ,Gs4
 .byte   W12
@  #01 @021   ----------------------------------------
 .byte   W12
 .byte   As4
 .byte   W24
 .byte   Gs4
 .byte   W12
 .byte   W12
 .byte   N11 ,Fn4
 .byte   W12
 .byte   Ds4
 .byte   W12
 .byte   Cs4
 .byte   W12
@  #01 @022   ----------------------------------------
 .byte   W12
 .byte   Gs3
 .byte   W12
 .byte   Cs4
 .byte   W12
 .byte   Gs3
 .byte   W12
 .byte   Ds4
 .byte   W12
 .byte   N11
 .byte   W12
 .byte   Cs4
 .byte   W12
 .byte   N23 ,Gs4
 .byte   W12
@  #01 @023   ----------------------------------------
 .byte   W12
 .byte   N11 ,Fn4
 .byte   W12
 .byte   Ds4
 .byte   W12
 .byte   Cs4
 .byte   W12
 .byte   Ds4
 .byte   W12
 .byte   Cs4
 .byte   W12
 .byte   As4
 .byte   W12
 .byte   TIE ,Gs4
 .byte   W12
@  #01 @024   ----------------------------------------
Label_01980173:
 .byte   W92
 .byte   W03
 .byte   PEND 
 .byte   EOT
 .byte   Gs4
 .byte   W01
@  #01 @025   ----------------------------------------
 .byte   W84
 .byte   N11 ,Gs3 ,v080
 .byte   W12
@  #01 @026   ----------------------------------------
 .byte   N32
 .byte   W36
 .byte   N11 ,Cs4
 .byte   W12
 .byte   N32
 .byte   W36
 .byte   N11
 .byte   W12
@  #01 @027   ----------------------------------------
 .byte   N32 ,Cn4
 .byte   W36
 .byte   N11 ,Cs4
 .byte   W12
 .byte   N32 ,Gs3
 .byte   W36
 .byte   N11
 .byte   W12
@  #01 @028   ----------------------------------------
Label_01980192:
 .byte   N32 ,Fn4 ,v080
 .byte   W36
 .byte   N11 ,Fs4
 .byte   W12
 .byte   N32 ,Fn4
 .byte   W36
 .byte   N11 ,Ds4
 .byte   W12
 .byte   PEND 
@  #01 @029   ----------------------------------------
 .byte   N23 ,Cs4
 .byte   N24 ,Ds4
 .byte   W24
 .byte   N11
 .byte   W12
 .byte   Cs4
 .byte   W12
 .byte   N23
 .byte   W24
 .byte   N11 ,Cn4
 .byte   W12
 .byte   As3
 .byte   N11 ,Cs4
 .byte   W12
@  #01 @030   ----------------------------------------
 .byte   TIE ,Gs3
 .byte   N32 ,Cs4
 .byte   W36
 .byte   N11 ,Gs4
 .byte   W12
 .byte   N32
 .byte   W36
 .byte   N11 ,Cs4
 .byte   W12
@  #01 @031   ----------------------------------------
 .byte   N32 ,Cn4
 .byte   W36
 .byte   N11 ,Cs4
 .byte   W12
 .byte   EOT
 .byte   Gs3
 .byte   N11
 .byte   W24
 .byte   N11
 .byte   W12
 .byte   Cs4
 .byte   W12
@  #01 @032   ----------------------------------------
 .byte   N23 ,Fn4
 .byte   W24
 .byte   N11 ,Cs4
 .byte   W12
 .byte   N23 ,Fn4
 .byte   W12
 .byte   W12
 .byte   Fs4
 .byte   W24
 .byte   N44 ,Fn4
 .byte   W12
@  #01 @033   ----------------------------------------
 .byte   W36
 .byte   N32 ,Ds4
 .byte   W12
 .byte   W36
 .byte   N11 ,Cs4
 .byte   W12
@  #01 @034   ----------------------------------------
 .byte   N36 ,Gs3
 .byte   N32 ,Cs4
 .byte   W36
 .byte   N11 ,Gs3
 .byte   W12
 .byte   N23 ,Gs4
 .byte   W36
 .byte   N11 ,Cs4
 .byte   W12
@  #01 @035   ----------------------------------------
 .byte   N32
 .byte   W36
 .byte   N11 ,Gs3
 .byte   W12
 .byte   N23 ,Gs4
 .byte   W24
 .byte   N11 ,Gs3
 .byte   W12
 .byte   N11
 .byte   W12
@  #01 @036   ----------------------------------------
 .byte   Fn4
 .byte   W12
 .byte   Fs4
 .byte   W12
 .byte   Fn4
 .byte   W12
 .byte   Ds4
 .byte   W12
 .byte   N11
 .byte   W12
 .byte   Cs4
 .byte   W12
 .byte   Gs3
 .byte   W12
 .byte   N11
 .byte   W12
@  #01 @037   ----------------------------------------
 .byte   Fn4
 .byte   W12
 .byte   Fs4
 .byte   W12
 .byte   Fn4
 .byte   W12
 .byte   Ds4
 .byte   W12
 .byte   N11
 .byte   W12
 .byte   Gs4
 .byte   W12
 .byte   Cs4
 .byte   W12
 .byte   Gs3
 .byte   W12
@  #01 @038   ----------------------------------------
 .byte   N23
 .byte   W36
 .byte   N11 ,Ds4
 .byte   W12
 .byte   N32
 .byte   W36
 .byte   N11 ,Cs4
 .byte   W12
@  #01 @039   ----------------------------------------
 .byte   N32 ,Gs3
 .byte   W36
 .byte   N11
 .byte   W12
 .byte   Ds4
 .byte   W12
 .byte   Fn4
 .byte   W12
 .byte   Fs4
 .byte   W12
 .byte   N32 ,Fn4
 .byte   W12
@  #01 @040   ----------------------------------------
 .byte   W24
 .byte   N44 ,Ds4
 .byte   W60
 .byte   N11 ,Gs3
 .byte   W12
@  #01 @041   ----------------------------------------
 .byte   PATT
  .word Label_01980192
@  #01 @042   ----------------------------------------
 .byte   TIE ,Cs3 ,v080
 .byte   N32 ,Ds4
 .byte   W36
 .byte   TIE ,Cs4
 .byte   W12
 .byte   W48
@  #01 @043   ----------------------------------------
 .byte   W92
 .byte   W03
 .byte   EOT
 .byte   Cs3 ,v073
 .byte   W01
@  #01 @044   ----------------------------------------
 .byte   TIE
 .byte   TIE ,Cs5 ,v060
 .byte   W96
@  #01 @045   ----------------------------------------
 .byte   PATT
  .word Label_01980173
@  #01 @046   ----------------------------------------
 .byte   EOT
 .byte   Cs4 ,v085
 .byte   W01
 .byte   TIE ,Cs3 ,v080
 .byte   TIE ,Fn4 ,v060
 .byte   W96
@  #01 @047   ----------------------------------------
 .byte   PATT
  .word Label_01980173
@  #01 @048   ----------------------------------------
 .byte   EOT
 .byte   Cs3 ,v077
 .byte   W01
 .byte   N92 ,Cs4 ,v080
 .byte   N92 ,En4 ,v060
 .byte   W96
@  #01 @049   ----------------------------------------
 .byte   N05 ,En4 ,v116
 .byte   W01
 .byte   W01
 .byte   W01
 .byte   W01
 .byte   W01
 .byte   W07
 .byte   N05
 .byte   W01
 .byte   W01
 .byte   W01
 .byte   W01
 .byte   W01
 .byte   W30
 .byte   W01
 .byte   W12
 .byte   GOTO
  .word Label_0198008A
@  #01 @050   ----------------------------------------
 .byte   W36
 .byte   W96
@  #01 @051   ----------------------------------------
 .byte   W96
@  #01 @052   ----------------------------------------
 .byte   W96
@  #01 @053   ----------------------------------------
 .byte   W96
@  #01 @054   ----------------------------------------
 .byte   W96
@  #01 @055   ----------------------------------------
 .byte   W96
@  #01 @056   ----------------------------------------
 .byte   W96
@  #01 @057   ----------------------------------------
 .byte   W96
@  #01 @058   ----------------------------------------
 .byte   W96
@  #01 @059   ----------------------------------------
 .byte   W96
@  #01 @060   ----------------------------------------
 .byte   W96
@  #01 @061   ----------------------------------------
 .byte   W96
@  #01 @062   ----------------------------------------
 .byte   W96
@  #01 @063   ----------------------------------------
 .byte   W96
@  #01 @064   ----------------------------------------
 .byte   W96
@  #01 @065   ----------------------------------------
 .byte   W96
@  #01 @066   ----------------------------------------
 .byte   W96
@  #01 @067   ----------------------------------------
 .byte   W96
@  #01 @068   ----------------------------------------
 .byte   W96
@  #01 @069   ----------------------------------------
 .byte   W96
@  #01 @070   ----------------------------------------
 .byte   W96
@  #01 @071   ----------------------------------------
 .byte   W96
@  #01 @072   ----------------------------------------
 .byte   W96
@  #01 @073   ----------------------------------------
 .byte   W96
@  #01 @074   ----------------------------------------
 .byte   W96
@  #01 @075   ----------------------------------------
 .byte   W96
@  #01 @076   ----------------------------------------
 .byte   W96
@  #01 @077   ----------------------------------------
 .byte   W96
@  #01 @078   ----------------------------------------
 .byte   W96
@  #01 @079   ----------------------------------------
 .byte   W96
@  #01 @080   ----------------------------------------
 .byte   W96
@  #01 @081   ----------------------------------------
 .byte   W96
@  #01 @082   ----------------------------------------
 .byte   W96
@  #01 @083   ----------------------------------------
 .byte   W96
@  #01 @084   ----------------------------------------
 .byte   W96
@  #01 @085   ----------------------------------------
 .byte   W96
@  #01 @086   ----------------------------------------
 .byte   W96
@  #01 @087   ----------------------------------------
 .byte   W96
@  #01 @088   ----------------------------------------
 .byte   W96
@  #01 @089   ----------------------------------------
 .byte   W96
@  #01 @090   ----------------------------------------
 .byte   W96
@  #01 @091   ----------------------------------------
 .byte   W96
@  #01 @092   ----------------------------------------
 .byte   W96
@  #01 @093   ----------------------------------------
 .byte   W96
@  #01 @094   ----------------------------------------
 .byte   W96
@  #01 @095   ----------------------------------------
 .byte   W96
@  #01 @096   ----------------------------------------
 .byte   W96
@  #01 @097   ----------------------------------------
 .byte   W96
@  #01 @098   ----------------------------------------
 .byte   W96
@  #01 @099   ----------------------------------------
 .byte   W96
@  #01 @100   ----------------------------------------
 .byte   W96
@  #01 @101   ----------------------------------------
 .byte   W96
@  #01 @102   ----------------------------------------
 .byte   W96
@  #01 @103   ----------------------------------------
 .byte   W96
@  #01 @104   ----------------------------------------
 .byte   W96
@  #01 @105   ----------------------------------------
 .byte   TEMPO , 138*song62_tbs/2
 .byte   W48
 .byte   TEMPO , 134*song62_tbs/2
 .byte   W48
@  #01 @106   ----------------------------------------
 .byte   TEMPO , 132*song62_tbs/2
 .byte   W96
@  #01 @107   ----------------------------------------
 .byte   W96
@  #01 @108   ----------------------------------------
 .byte   W96
@  #01 @109   ----------------------------------------
 .byte   W96
@  #01 @110   ----------------------------------------
 .byte   W96
@  #01 @111   ----------------------------------------
 .byte   W96
@  #01 @112   ----------------------------------------
 .byte   W96
@  #01 @113   ----------------------------------------
 .byte   W96
@  #01 @114   ----------------------------------------
 .byte   W96
@  #01 @115   ----------------------------------------
 .byte   W96
@  #01 @116   ----------------------------------------
 .byte   W96
@  #01 @117   ----------------------------------------
 .byte   W96
@  #01 @118   ----------------------------------------
 .byte   W96
@  #01 @119   ----------------------------------------
 .byte   TEMPO , 130*song62_tbs/2
 .byte   W48
 .byte   TEMPO , 124*song62_tbs/2
 .byte   W48
@  #01 @120   ----------------------------------------
 .byte   TEMPO , 120*song62_tbs/2
 .byte   W48
 .byte   TEMPO , 108*song62_tbs/2
 .byte   W48
@  #01 @121   ----------------------------------------
 .byte   TEMPO , 100*song62_tbs/2
 .byte   W36
 .byte   TEMPO , 88*song62_tbs/2
 .byte   W12
 .byte   TEMPO , 78*song62_tbs/2
 .byte   W24
 .byte   TEMPO , 70*song62_tbs/2
 .byte   W24
@  #01 @122   ----------------------------------------
 .byte   TEMPO , 100*song62_tbs/2
 .byte   W96
@  #01 @123   ----------------------------------------
 .byte   TEMPO , 60*song62_tbs/2
 .byte   W96
@  #01 @124   ----------------------------------------
 .byte   TEMPO , 288*song62_tbs/2
 .byte   W96
@  #01 @125   ----------------------------------------
 .byte   TEMPO , 60*song62_tbs/2
 .byte   FINE

@**************** Track 2 (Midi-Chn.1) ****************@

song62_002:
@  #02 @000   ----------------------------------------
 .byte   KEYSH , song62_key+0
Label_01980302:
 .byte   VOICE , 45
 .byte   MODT 0
 .byte   LFOS 44
 .byte   VOL , 53*song62_mvl/mxv
 .byte   PAN , c_v+0
 .byte   VOL , 53*song62_mvl/mxv
 .byte   PAN , c_v+0
 .byte   W96
@  #02 @001   ----------------------------------------
 .byte   W96
@  #02 @002   ----------------------------------------
 .byte   W96
@  #02 @003   ----------------------------------------
 .byte   W96
@  #02 @004   ----------------------------------------
 .byte   W96
@  #02 @005   ----------------------------------------
 .byte   W96
@  #02 @006   ----------------------------------------
 .byte   W96
@  #02 @007   ----------------------------------------
 .byte   W96
@  #02 @008   ----------------------------------------
 .byte   W36
 .byte   N11 ,Cs5 ,v060
 .byte   W12
 .byte   Ds5
 .byte   W12
 .byte   Cs5
 .byte   W12
 .byte   N23 ,Gs5
 .byte   W24
@  #02 @009   ----------------------------------------
 .byte   W96
@  #02 @010   ----------------------------------------
 .byte   W96
@  #02 @011   ----------------------------------------
 .byte   W96
@  #02 @012   ----------------------------------------
 .byte   W96
@  #02 @013   ----------------------------------------
 .byte   W96
@  #02 @014   ----------------------------------------
 .byte   W96
@  #02 @015   ----------------------------------------
 .byte   W96
@  #02 @016   ----------------------------------------
 .byte   W96
@  #02 @017   ----------------------------------------
 .byte   W96
@  #02 @018   ----------------------------------------
 .byte   W96
@  #02 @019   ----------------------------------------
 .byte   W96
@  #02 @020   ----------------------------------------
 .byte   W96
@  #02 @021   ----------------------------------------
 .byte   W96
@  #02 @022   ----------------------------------------
 .byte   W96
@  #02 @023   ----------------------------------------
 .byte   W96
@  #02 @024   ----------------------------------------
 .byte   W96
@  #02 @025   ----------------------------------------
 .byte   W96
@  #02 @026   ----------------------------------------
 .byte   W96
@  #02 @027   ----------------------------------------
 .byte   W96
@  #02 @028   ----------------------------------------
 .byte   W96
@  #02 @029   ----------------------------------------
 .byte   W96
@  #02 @030   ----------------------------------------
 .byte   W96
@  #02 @031   ----------------------------------------
 .byte   W96
@  #02 @032   ----------------------------------------
 .byte   W96
@  #02 @033   ----------------------------------------
 .byte   W96
@  #02 @034   ----------------------------------------
 .byte   W72
 .byte   N11
 .byte   W12
 .byte   N11
 .byte   W12
@  #02 @035   ----------------------------------------
 .byte   Fn6
 .byte   W12
 .byte   Fs6
 .byte   W12
 .byte   Fn6
 .byte   W12
 .byte   Ds6
 .byte   W12
 .byte   N11
 .byte   W12
 .byte   Cs6
 .byte   W12
 .byte   Gs5
 .byte   W12
 .byte   N11
 .byte   W12
@  #02 @036   ----------------------------------------
 .byte   Fn6
 .byte   W12
 .byte   Fs6
 .byte   W12
 .byte   Fn6
 .byte   W12
 .byte   Ds6
 .byte   W12
 .byte   N11
 .byte   W12
 .byte   Gs6
 .byte   W36
@  #02 @037   ----------------------------------------
 .byte   W96
@  #02 @038   ----------------------------------------
 .byte   W96
@  #02 @039   ----------------------------------------
 .byte   W96
@  #02 @040   ----------------------------------------
 .byte   W96
@  #02 @041   ----------------------------------------
Label_01980362:
 .byte   N11 ,Ds6 ,v080
 .byte   W12
 .byte   Cs6
 .byte   W12
 .byte   Gs6
 .byte   W12
 .byte   Cs6
 .byte   W12
 .byte   Ds6
 .byte   W12
 .byte   Cs6
 .byte   W12
 .byte   Gs5
 .byte   W12
 .byte   Cs6
 .byte   W12
 .byte   PEND 
@  #02 @042   ----------------------------------------
 .byte   PATT
  .word Label_01980362
@  #02 @043   ----------------------------------------
 .byte   PATT
  .word Label_01980362
@  #02 @044   ----------------------------------------
 .byte   PATT
  .word Label_01980362
@  #02 @045   ----------------------------------------
 .byte   PATT
  .word Label_01980362
@  #02 @046   ----------------------------------------
 .byte   PATT
  .word Label_01980362
@  #02 @047   ----------------------------------------
 .byte   PATT
  .word Label_01980362
@  #02 @048   ----------------------------------------
 .byte   W60
 .byte   GOTO
  .word Label_01980302
@  #02 @049   ----------------------------------------
 .byte   W36
 .byte   W96
@  #02 @050   ----------------------------------------
 .byte   W96
@  #02 @051   ----------------------------------------
 .byte   W96
@  #02 @052   ----------------------------------------
 .byte   W96
@  #02 @053   ----------------------------------------
 .byte   W96
@  #02 @054   ----------------------------------------
 .byte   W96
@  #02 @055   ----------------------------------------
 .byte   W96
@  #02 @056   ----------------------------------------
 .byte   W96
@  #02 @057   ----------------------------------------
 .byte   W96
@  #02 @058   ----------------------------------------
 .byte   W96
@  #02 @059   ----------------------------------------
 .byte   W96
@  #02 @060   ----------------------------------------
 .byte   W96
@  #02 @061   ----------------------------------------
 .byte   W96
@  #02 @062   ----------------------------------------
 .byte   W96
@  #02 @063   ----------------------------------------
 .byte   W96
@  #02 @064   ----------------------------------------
 .byte   W96
@  #02 @065   ----------------------------------------
 .byte   W96
@  #02 @066   ----------------------------------------
 .byte   W96
@  #02 @067   ----------------------------------------
 .byte   W96
@  #02 @068   ----------------------------------------
 .byte   W96
@  #02 @069   ----------------------------------------
 .byte   W96
@  #02 @070   ----------------------------------------
 .byte   W96
@  #02 @071   ----------------------------------------
 .byte   W96
@  #02 @072   ----------------------------------------
 .byte   W96
@  #02 @073   ----------------------------------------
 .byte   W96
@  #02 @074   ----------------------------------------
 .byte   W96
@  #02 @075   ----------------------------------------
 .byte   W96
@  #02 @076   ----------------------------------------
 .byte   W96
@  #02 @077   ----------------------------------------
 .byte   W96
@  #02 @078   ----------------------------------------
 .byte   W96
@  #02 @079   ----------------------------------------
 .byte   W96
@  #02 @080   ----------------------------------------
 .byte   W96
@  #02 @081   ----------------------------------------
 .byte   W96
@  #02 @082   ----------------------------------------
 .byte   W96
@  #02 @083   ----------------------------------------
 .byte   W96
@  #02 @084   ----------------------------------------
 .byte   W96
@  #02 @085   ----------------------------------------
 .byte   W96
@  #02 @086   ----------------------------------------
 .byte   W96
@  #02 @087   ----------------------------------------
 .byte   W96
@  #02 @088   ----------------------------------------
 .byte   W96
@  #02 @089   ----------------------------------------
 .byte   W96
@  #02 @090   ----------------------------------------
 .byte   W96
@  #02 @091   ----------------------------------------
 .byte   W96
@  #02 @092   ----------------------------------------
 .byte   W96
@  #02 @093   ----------------------------------------
 .byte   W96
@  #02 @094   ----------------------------------------
 .byte   W96
@  #02 @095   ----------------------------------------
 .byte   W96
@  #02 @096   ----------------------------------------
 .byte   W96
@  #02 @097   ----------------------------------------
 .byte   W96
@  #02 @098   ----------------------------------------
 .byte   W96
@  #02 @099   ----------------------------------------
 .byte   W96
@  #02 @100   ----------------------------------------
 .byte   W96
@  #02 @101   ----------------------------------------
 .byte   W96
@  #02 @102   ----------------------------------------
 .byte   W96
@  #02 @103   ----------------------------------------
 .byte   W96
@  #02 @104   ----------------------------------------
 .byte   W96
@  #02 @105   ----------------------------------------
 .byte   W96
@  #02 @106   ----------------------------------------
 .byte   W96
@  #02 @107   ----------------------------------------
 .byte   W96
@  #02 @108   ----------------------------------------
 .byte   W96
@  #02 @109   ----------------------------------------
 .byte   W96
@  #02 @110   ----------------------------------------
 .byte   W96
@  #02 @111   ----------------------------------------
 .byte   W96
@  #02 @112   ----------------------------------------
 .byte   W96
@  #02 @113   ----------------------------------------
 .byte   W96
@  #02 @114   ----------------------------------------
 .byte   W96
@  #02 @115   ----------------------------------------
 .byte   W96
@  #02 @116   ----------------------------------------
 .byte   W96
@  #02 @117   ----------------------------------------
 .byte   W96
@  #02 @118   ----------------------------------------
 .byte   W96
@  #02 @119   ----------------------------------------
 .byte   W96
@  #02 @120   ----------------------------------------
 .byte   W96
@  #02 @121   ----------------------------------------
 .byte   W96
@  #02 @122   ----------------------------------------
 .byte   W96
@  #02 @123   ----------------------------------------
 .byte   W96
 .byte   FINE

@**************** Track 3 (Midi-Chn.2) ****************@

song62_003:
@  #03 @000   ----------------------------------------
 .byte   KEYSH , song62_key+0
Label_019803EA:
 .byte   VOICE , 44
 .byte   MODT 0
 .byte   LFOS 44
 .byte   VOL , 80*song62_mvl/mxv
 .byte   PAN , c_v+0
 .byte   VOL , 53*song62_mvl/mxv
 .byte   PAN , c_v+0
 .byte   W96
@  #03 @001   ----------------------------------------
 .byte   W96
@  #03 @002   ----------------------------------------
 .byte   W96
@  #03 @003   ----------------------------------------
 .byte   W96
@  #03 @004   ----------------------------------------
 .byte   W96
@  #03 @005   ----------------------------------------
 .byte   W96
@  #03 @006   ----------------------------------------
 .byte   W96
@  #03 @007   ----------------------------------------
 .byte   W96
@  #03 @008   ----------------------------------------
 .byte   W96
@  #03 @009   ----------------------------------------
 .byte   TIE ,Fn4 ,v028
 .byte   TIE ,Gs4
 .byte   W96
@  #03 @010   ----------------------------------------
Label_01980407:
 .byte   W84
 .byte   W02
 .byte   PEND 
 .byte   EOT
 .byte   Fn4 ,v080
 .byte   W10
@  #03 @011   ----------------------------------------
 .byte   TIE ,Ds4 ,v028
 .byte   TIE ,Gs4
 .byte   W96
@  #03 @012   ----------------------------------------
 .byte   PATT
  .word Label_01980407
@  #03 @013   ----------------------------------------
 .byte   EOT
 .byte   Ds4 ,v080
 .byte   W10
Label_0198041D:
 .byte   TIE ,Cs4 ,v028
 .byte   TIE ,Gs4
 .byte   W96
 .byte   PEND 
@  #03 @014   ----------------------------------------
 .byte   PATT
  .word Label_01980407
@  #03 @015   ----------------------------------------
 .byte   EOT
 .byte   Cs4 ,v080
 .byte   W10
@  #03 @016   ----------------------------------------
 .byte   PATT
  .word Label_0198041D
@  #03 @017   ----------------------------------------
 .byte   W40
 .byte   EOT
 .byte   Cs4 ,v080
 .byte   W56
@  #03 @018   ----------------------------------------
 .byte   W12
 .byte   N11 ,Fn4 ,v060
 .byte   W12
 .byte   N22
 .byte   W24
 .byte   Ds4
 .byte   W24
 .byte   N11 ,Cs4
 .byte   W12
 .byte   N22 ,Fs4
 .byte   W12
@  #03 @019   ----------------------------------------
 .byte   W12
 .byte   Fn4
 .byte   W24
 .byte   Ds4
 .byte   W12
 .byte   W12
 .byte   Cs4
 .byte   W24
 .byte   N32 ,Gs3
 .byte   W12
@  #03 @020   ----------------------------------------
 .byte   W36
 .byte   N11 ,Ds4
 .byte   W12
 .byte   N11
 .byte   W12
 .byte   N11
 .byte   W12
 .byte   Cs4
 .byte   W12
 .byte   N22 ,Gs4
 .byte   W12
@  #03 @021   ----------------------------------------
 .byte   W12
 .byte   As4
 .byte   W24
 .byte   Gs4
 .byte   W12
 .byte   W12
 .byte   N11 ,Fn4
 .byte   W12
 .byte   Ds4
 .byte   W12
 .byte   Cs4
 .byte   W12
@  #03 @022   ----------------------------------------
 .byte   W12
 .byte   Gs3
 .byte   W12
 .byte   Cs4
 .byte   W12
 .byte   Gs3
 .byte   W12
 .byte   Ds4
 .byte   W12
 .byte   N11
 .byte   W12
 .byte   Cs4
 .byte   W12
 .byte   N22 ,Gs4
 .byte   W12
@  #03 @023   ----------------------------------------
 .byte   W12
 .byte   N11 ,Fn4
 .byte   W12
 .byte   Ds4
 .byte   W12
 .byte   Cs4
 .byte   W12
 .byte   Ds4
 .byte   W12
 .byte   Cs4
 .byte   W12
 .byte   As4
 .byte   W12
 .byte   TIE ,Gs4
 .byte   W12
@  #03 @024   ----------------------------------------
 .byte   W90
 .byte   EOT
 .byte   W06
@  #03 @025   ----------------------------------------
 .byte   W84
 .byte   N11 ,Fn4 ,v080
 .byte   N11 ,Gs4
 .byte   W12
@  #03 @026   ----------------------------------------
 .byte   N32 ,Fn4
 .byte   N32 ,Gs4
 .byte   W36
 .byte   N11
 .byte   N11 ,Cs5
 .byte   W12
 .byte   N32 ,Gs4
 .byte   N32 ,Cs5
 .byte   W36
 .byte   N11 ,Gs4
 .byte   N11 ,Cs5
 .byte   W12
@  #03 @027   ----------------------------------------
 .byte   N32 ,Fs4
 .byte   N32 ,Cn5
 .byte   W36
 .byte   N11 ,Gs4
 .byte   N11 ,Cs5
 .byte   W12
 .byte   N32 ,Fn4
 .byte   N32 ,Gs4
 .byte   W36
 .byte   N11 ,Fn4
 .byte   N11 ,Gs4
 .byte   W12
@  #03 @028   ----------------------------------------
Label_019804BD:
 .byte   N32 ,Cs5 ,v080
 .byte   N32 ,Fn5
 .byte   W36
 .byte   N11 ,Ds5
 .byte   N11 ,Fs5
 .byte   W12
 .byte   N32 ,Cs5
 .byte   N32 ,Fn5
 .byte   W36
 .byte   N11 ,Cn5
 .byte   N11 ,Ds5
 .byte   W12
 .byte   PEND 
@  #03 @029   ----------------------------------------
 .byte   N32 ,Cn5
 .byte   N32 ,Ds5
 .byte   W36
 .byte   N11 ,Gs4
 .byte   N11 ,Cs5
 .byte   W12
 .byte   N32 ,Fs4
 .byte   N32 ,Cs5
 .byte   W36
 .byte   N11 ,Fs4
 .byte   N11 ,Cs5
 .byte   W12
@  #03 @030   ----------------------------------------
 .byte   N32 ,Fn4
 .byte   N32 ,Cs5
 .byte   W36
 .byte   N11
 .byte   N11 ,Gs5
 .byte   W12
 .byte   N32 ,Cs5
 .byte   N32 ,Gs5
 .byte   W36
 .byte   N11 ,Gs4
 .byte   N11 ,Cs5
 .byte   W12
@  #03 @031   ----------------------------------------
 .byte   N32 ,Fs4
 .byte   N32 ,Cn5
 .byte   W36
 .byte   N11 ,Gs4
 .byte   N11 ,Cs5
 .byte   W12
 .byte   Fn4
 .byte   N11 ,Gs4
 .byte   W24
 .byte   Fn4
 .byte   N11 ,Gs4
 .byte   W12
 .byte   As4
 .byte   N11 ,Cs5
 .byte   W12
@  #03 @032   ----------------------------------------
 .byte   N22
 .byte   N22 ,Fn5
 .byte   W24
 .byte   N11 ,As4
 .byte   N11 ,Cs5
 .byte   W12
 .byte   N22
 .byte   N22 ,Fn5
 .byte   W12
 .byte   W12
 .byte   Ds5
 .byte   N22 ,Fs5
 .byte   W24
 .byte   N44 ,Cs5
 .byte   N44 ,Fn5
 .byte   W12
@  #03 @033   ----------------------------------------
 .byte   W36
 .byte   N32 ,Cn5
 .byte   N32 ,Ds5
 .byte   W12
 .byte   W36
 .byte   N11 ,Cs5
 .byte   W12
@  #03 @034   ----------------------------------------
 .byte   N32
 .byte   W36
 .byte   N11 ,Gs4
 .byte   W12
 .byte   N22 ,Gs5
 .byte   W36
 .byte   N11 ,Cs5
 .byte   W12
@  #03 @035   ----------------------------------------
 .byte   N32
 .byte   W36
 .byte   N11 ,Gs4
 .byte   W12
 .byte   N22 ,Gs5
 .byte   W24
 .byte   N11 ,Gs4
 .byte   W12
 .byte   N11
 .byte   W12
@  #03 @036   ----------------------------------------
 .byte   Cs5
 .byte   N11 ,Fn5
 .byte   W12
 .byte   Ds5
 .byte   N11 ,Fs5
 .byte   W12
 .byte   Cs5
 .byte   N11 ,Fn5
 .byte   W12
 .byte   Cn5
 .byte   N11 ,Ds5
 .byte   W12
 .byte   Cn5
 .byte   N11 ,Ds5
 .byte   W12
 .byte   Gs4
 .byte   N11 ,Cs5
 .byte   W12
 .byte   Fn4
 .byte   N11 ,Gs4
 .byte   W12
 .byte   Fn4
 .byte   N11 ,Gs4
 .byte   W12
@  #03 @037   ----------------------------------------
 .byte   Cs5
 .byte   N11 ,Fn5
 .byte   W12
 .byte   Ds5
 .byte   N11 ,Fs5
 .byte   W12
 .byte   Cs5
 .byte   N11 ,Fn5
 .byte   W12
 .byte   Cn5
 .byte   N11 ,Ds5
 .byte   W12
 .byte   Cn5
 .byte   N11 ,Ds5
 .byte   W12
 .byte   N11
 .byte   N11 ,Gs5
 .byte   W12
 .byte   Gs4
 .byte   N11 ,Cs5
 .byte   W12
 .byte   Ds4
 .byte   N11 ,Gs4
 .byte   W12
@  #03 @038   ----------------------------------------
 .byte   N22 ,Fn4
 .byte   N22 ,Gs4
 .byte   W36
 .byte   N11
 .byte   N11 ,Ds5
 .byte   W12
 .byte   N32 ,Gs4
 .byte   N32 ,Ds5
 .byte   W36
 .byte   N11 ,Fs4
 .byte   N11 ,Cs5
 .byte   W12
@  #03 @039   ----------------------------------------
 .byte   N32 ,Fn4
 .byte   N32 ,Gs4
 .byte   W36
 .byte   N11 ,Fn4
 .byte   N11 ,Gs4
 .byte   W12
 .byte   As4
 .byte   N11 ,Ds5
 .byte   W12
 .byte   Cs5
 .byte   N11 ,Fn5
 .byte   W12
 .byte   Ds5
 .byte   N11 ,Fs5
 .byte   W12
 .byte   N32 ,Cs5
 .byte   N32 ,Fn5
 .byte   W12
@  #03 @040   ----------------------------------------
 .byte   W24
 .byte   N44 ,Cn5
 .byte   N44 ,Ds5
 .byte   W60
 .byte   N11 ,Fn4
 .byte   N11 ,Gs4
 .byte   W12
@  #03 @041   ----------------------------------------
 .byte   PATT
  .word Label_019804BD
@  #03 @042   ----------------------------------------
 .byte   N32 ,Cn5 ,v080
 .byte   N32 ,Ds5
 .byte   W36
 .byte   TIE ,Gs4
 .byte   TIE ,Cs5
 .byte   W12
 .byte   W48
@  #03 @043   ----------------------------------------
 .byte   W88
 .byte   EOT
 .byte   Gs4 ,v085
 .byte   W08
@  #03 @044   ----------------------------------------
 .byte   W96
@  #03 @045   ----------------------------------------
 .byte   W36
 .byte   N11 ,Cs4
 .byte   N11 ,Cs5
 .byte   W12
 .byte   Ds4
 .byte   N11 ,Ds5
 .byte   W12
 .byte   Cs4
 .byte   N11 ,Cs5
 .byte   W12
 .byte   N22 ,Gs3
 .byte   N22 ,Gs4
 .byte   W24
@  #03 @046   ----------------------------------------
 .byte   W96
@  #03 @047   ----------------------------------------
 .byte   W96
@  #03 @048   ----------------------------------------
 .byte   W96
@  #03 @049   ----------------------------------------
 .byte   W60
 .byte   GOTO
  .word Label_019803EA
@  #03 @050   ----------------------------------------
 .byte   W36
 .byte   W96
@  #03 @051   ----------------------------------------
 .byte   W96
@  #03 @052   ----------------------------------------
 .byte   W96
@  #03 @053   ----------------------------------------
 .byte   W96
@  #03 @054   ----------------------------------------
 .byte   W96
@  #03 @055   ----------------------------------------
 .byte   W96
@  #03 @056   ----------------------------------------
 .byte   W96
@  #03 @057   ----------------------------------------
 .byte   W96
@  #03 @058   ----------------------------------------
 .byte   W96
@  #03 @059   ----------------------------------------
 .byte   W96
@  #03 @060   ----------------------------------------
 .byte   W96
@  #03 @061   ----------------------------------------
 .byte   W96
@  #03 @062   ----------------------------------------
 .byte   W96
@  #03 @063   ----------------------------------------
 .byte   W96
@  #03 @064   ----------------------------------------
 .byte   W96
@  #03 @065   ----------------------------------------
 .byte   W96
@  #03 @066   ----------------------------------------
 .byte   W96
@  #03 @067   ----------------------------------------
 .byte   W96
@  #03 @068   ----------------------------------------
 .byte   W96
@  #03 @069   ----------------------------------------
 .byte   W96
@  #03 @070   ----------------------------------------
 .byte   W96
@  #03 @071   ----------------------------------------
 .byte   W96
@  #03 @072   ----------------------------------------
 .byte   W96
@  #03 @073   ----------------------------------------
 .byte   W96
@  #03 @074   ----------------------------------------
 .byte   W96
@  #03 @075   ----------------------------------------
 .byte   W96
@  #03 @076   ----------------------------------------
 .byte   W96
@  #03 @077   ----------------------------------------
 .byte   W96
@  #03 @078   ----------------------------------------
 .byte   W96
@  #03 @079   ----------------------------------------
 .byte   W96
@  #03 @080   ----------------------------------------
 .byte   W96
@  #03 @081   ----------------------------------------
 .byte   W96
@  #03 @082   ----------------------------------------
 .byte   W96
@  #03 @083   ----------------------------------------
 .byte   W96
@  #03 @084   ----------------------------------------
 .byte   W96
@  #03 @085   ----------------------------------------
 .byte   W96
@  #03 @086   ----------------------------------------
 .byte   W96
@  #03 @087   ----------------------------------------
 .byte   W96
@  #03 @088   ----------------------------------------
 .byte   W96
@  #03 @089   ----------------------------------------
 .byte   W96
@  #03 @090   ----------------------------------------
 .byte   W96
@  #03 @091   ----------------------------------------
 .byte   W96
@  #03 @092   ----------------------------------------
 .byte   W96
@  #03 @093   ----------------------------------------
 .byte   W96
@  #03 @094   ----------------------------------------
 .byte   W96
@  #03 @095   ----------------------------------------
 .byte   W96
@  #03 @096   ----------------------------------------
 .byte   W96
@  #03 @097   ----------------------------------------
 .byte   W96
@  #03 @098   ----------------------------------------
 .byte   W96
@  #03 @099   ----------------------------------------
 .byte   W96
@  #03 @100   ----------------------------------------
 .byte   W96
@  #03 @101   ----------------------------------------
 .byte   W96
@  #03 @102   ----------------------------------------
 .byte   W96
@  #03 @103   ----------------------------------------
 .byte   W96
@  #03 @104   ----------------------------------------
 .byte   W96
@  #03 @105   ----------------------------------------
 .byte   W96
@  #03 @106   ----------------------------------------
 .byte   W96
@  #03 @107   ----------------------------------------
 .byte   W96
@  #03 @108   ----------------------------------------
 .byte   W96
@  #03 @109   ----------------------------------------
 .byte   W96
@  #03 @110   ----------------------------------------
 .byte   W96
@  #03 @111   ----------------------------------------
 .byte   W96
@  #03 @112   ----------------------------------------
 .byte   W96
@  #03 @113   ----------------------------------------
 .byte   W96
@  #03 @114   ----------------------------------------
 .byte   W96
@  #03 @115   ----------------------------------------
 .byte   W96
@  #03 @116   ----------------------------------------
 .byte   W96
@  #03 @117   ----------------------------------------
 .byte   W96
@  #03 @118   ----------------------------------------
 .byte   W96
@  #03 @119   ----------------------------------------
 .byte   W96
@  #03 @120   ----------------------------------------
 .byte   W96
@  #03 @121   ----------------------------------------
 .byte   W96
@  #03 @122   ----------------------------------------
 .byte   W96
@  #03 @123   ----------------------------------------
 .byte   W96
@  #03 @124   ----------------------------------------
 .byte   W96
 .byte   FINE

@**************** Track 4 (Midi-Chn.3) ****************@

song62_004:
@  #04 @000   ----------------------------------------
 .byte   KEYSH , song62_key+0
Label_01980646:
 .byte   VOICE , 121
 .byte   MODT 0
 .byte   LFOS 44
 .byte   VOL , 41*song62_mvl/mxv
 .byte   PAN , c_v+0
 .byte   VOL , 41*song62_mvl/mxv
 .byte   PAN , c_v+0
 .byte   W96
@  #04 @001   ----------------------------------------
 .byte   W96
@  #04 @002   ----------------------------------------
 .byte   W96
@  #04 @003   ----------------------------------------
 .byte   W96
@  #04 @004   ----------------------------------------
 .byte   W96
@  #04 @005   ----------------------------------------
 .byte   W96
@  #04 @006   ----------------------------------------
 .byte   W96
@  #04 @007   ----------------------------------------
 .byte   W96
@  #04 @008   ----------------------------------------
 .byte   W96
@  #04 @009   ----------------------------------------
 .byte   W96
@  #04 @010   ----------------------------------------
 .byte   W96
@  #04 @011   ----------------------------------------
 .byte   W96
@  #04 @012   ----------------------------------------
 .byte   W96
@  #04 @013   ----------------------------------------
 .byte   W96
@  #04 @014   ----------------------------------------
 .byte   W96
@  #04 @015   ----------------------------------------
 .byte   W96
@  #04 @016   ----------------------------------------
 .byte   TIE ,Fn1 ,v060
 .byte   W96
@  #04 @017   ----------------------------------------
 .byte   W96
@  #04 @018   ----------------------------------------
 .byte   W92
 .byte   W03
 .byte   EOT
 .byte   W01
@  #04 @019   ----------------------------------------
 .byte   W96
@  #04 @020   ----------------------------------------
 .byte   W96
@  #04 @021   ----------------------------------------
 .byte   W96
@  #04 @022   ----------------------------------------
 .byte   W96
@  #04 @023   ----------------------------------------
 .byte   W96
@  #04 @024   ----------------------------------------
 .byte   TIE
 .byte   W96
@  #04 @025   ----------------------------------------
 .byte   W96
@  #04 @026   ----------------------------------------
 .byte   W92
 .byte   W03
 .byte   EOT
 .byte   W01
@  #04 @027   ----------------------------------------
 .byte   W96
@  #04 @028   ----------------------------------------
 .byte   W96
@  #04 @029   ----------------------------------------
 .byte   W96
@  #04 @030   ----------------------------------------
 .byte   W96
@  #04 @031   ----------------------------------------
 .byte   W96
@  #04 @032   ----------------------------------------
 .byte   W96
@  #04 @033   ----------------------------------------
 .byte   W96
@  #04 @034   ----------------------------------------
 .byte   W96
@  #04 @035   ----------------------------------------
 .byte   W96
@  #04 @036   ----------------------------------------
 .byte   W96
@  #04 @037   ----------------------------------------
 .byte   W96
@  #04 @038   ----------------------------------------
 .byte   W96
@  #04 @039   ----------------------------------------
 .byte   W96
@  #04 @040   ----------------------------------------
 .byte   TIE
 .byte   W96
@  #04 @041   ----------------------------------------
Label_01980688:
 .byte   N23 ,Dn1 ,v127
 .byte   W24
 .byte   Dn1 ,v080
 .byte   W48
 .byte   N05
 .byte   W06
 .byte   N05
 .byte   W06
 .byte   N11 ,Dn1 ,v127
 .byte   W12
 .byte   PEND 
@  #04 @042   ----------------------------------------
 .byte   W12
 .byte   N11
 .byte   W24
 .byte   N05 ,Dn1 ,v080
 .byte   W06
 .byte   N05
 .byte   W06
 .byte   N23 ,Dn1 ,v127
 .byte   W24
 .byte   N02 ,Dn1 ,v080
 .byte   W03
 .byte   N02
 .byte   W03
 .byte   N02
 .byte   W03
 .byte   N02
 .byte   W03
 .byte   N02
 .byte   W03
 .byte   N02
 .byte   W03
 .byte   N02
 .byte   W03
 .byte   N02
 .byte   W02
 .byte   EOT
 .byte   Fn1
 .byte   W01
@  #04 @043   ----------------------------------------
 .byte   N23 ,Dn1 ,v127
 .byte   W48
 .byte   N11
 .byte   W12
 .byte   Dn1 ,v080
 .byte   W24
 .byte   N11
 .byte   W12
@  #04 @044   ----------------------------------------
 .byte   W12
 .byte   Dn1 ,v127
 .byte   W24
 .byte   N05 ,Dn1 ,v080
 .byte   W06
 .byte   N05
 .byte   W06
 .byte   N11
 .byte   W12
 .byte   Dn1 ,v127
 .byte   W36
@  #04 @045   ----------------------------------------
 .byte   PATT
  .word Label_01980688
@  #04 @046   ----------------------------------------
 .byte   W12
 .byte   N11 ,Dn1 ,v127
 .byte   W24
 .byte   N05 ,Dn1 ,v080
 .byte   W06
 .byte   N05
 .byte   W06
 .byte   N23 ,Dn1 ,v127
 .byte   W24
 .byte   N02 ,Dn1 ,v080
 .byte   W03
 .byte   N02
 .byte   W03
 .byte   N02
 .byte   W03
 .byte   N02
 .byte   W03
 .byte   N02
 .byte   W03
 .byte   N02
 .byte   W03
 .byte   N02
 .byte   W03
 .byte   N02
 .byte   W03
@  #04 @047   ----------------------------------------
 .byte   N23 ,Dn1 ,v127
 .byte   N92 ,Fn1 ,v060
 .byte   W48
 .byte   N11 ,Dn1 ,v127
 .byte   W12
 .byte   Dn1 ,v080
 .byte   W24
 .byte   N11
 .byte   W12
@  #04 @048   ----------------------------------------
 .byte   N11
 .byte   W12
 .byte   Dn1 ,v127
 .byte   W48
 .byte   GOTO
  .word Label_01980646
@  #04 @049   ----------------------------------------
 .byte   W36
 .byte   W96
@  #04 @050   ----------------------------------------
 .byte   W96
@  #04 @051   ----------------------------------------
 .byte   W96
@  #04 @052   ----------------------------------------
 .byte   W96
@  #04 @053   ----------------------------------------
 .byte   W96
@  #04 @054   ----------------------------------------
 .byte   W96
@  #04 @055   ----------------------------------------
 .byte   W96
@  #04 @056   ----------------------------------------
 .byte   W96
@  #04 @057   ----------------------------------------
 .byte   W96
@  #04 @058   ----------------------------------------
 .byte   W96
@  #04 @059   ----------------------------------------
 .byte   W96
@  #04 @060   ----------------------------------------
 .byte   W96
@  #04 @061   ----------------------------------------
 .byte   W96
@  #04 @062   ----------------------------------------
 .byte   W96
@  #04 @063   ----------------------------------------
 .byte   W96
@  #04 @064   ----------------------------------------
 .byte   W96
@  #04 @065   ----------------------------------------
 .byte   W96
@  #04 @066   ----------------------------------------
 .byte   W96
@  #04 @067   ----------------------------------------
 .byte   W96
@  #04 @068   ----------------------------------------
 .byte   W96
@  #04 @069   ----------------------------------------
 .byte   W96
@  #04 @070   ----------------------------------------
 .byte   W96
@  #04 @071   ----------------------------------------
 .byte   W96
@  #04 @072   ----------------------------------------
 .byte   W96
@  #04 @073   ----------------------------------------
 .byte   W96
@  #04 @074   ----------------------------------------
 .byte   W96
@  #04 @075   ----------------------------------------
 .byte   W96
@  #04 @076   ----------------------------------------
 .byte   W96
@  #04 @077   ----------------------------------------
 .byte   W96
@  #04 @078   ----------------------------------------
 .byte   W96
@  #04 @079   ----------------------------------------
 .byte   W96
@  #04 @080   ----------------------------------------
 .byte   W96
@  #04 @081   ----------------------------------------
 .byte   W96
@  #04 @082   ----------------------------------------
 .byte   W96
@  #04 @083   ----------------------------------------
 .byte   W96
@  #04 @084   ----------------------------------------
 .byte   W96
@  #04 @085   ----------------------------------------
 .byte   W96
@  #04 @086   ----------------------------------------
 .byte   W96
@  #04 @087   ----------------------------------------
 .byte   W96
@  #04 @088   ----------------------------------------
 .byte   W96
@  #04 @089   ----------------------------------------
 .byte   W96
@  #04 @090   ----------------------------------------
 .byte   W96
@  #04 @091   ----------------------------------------
 .byte   W96
@  #04 @092   ----------------------------------------
 .byte   W96
@  #04 @093   ----------------------------------------
 .byte   W96
@  #04 @094   ----------------------------------------
 .byte   W96
@  #04 @095   ----------------------------------------
 .byte   W96
@  #04 @096   ----------------------------------------
 .byte   W96
@  #04 @097   ----------------------------------------
 .byte   W96
@  #04 @098   ----------------------------------------
 .byte   W96
@  #04 @099   ----------------------------------------
 .byte   W96
@  #04 @100   ----------------------------------------
 .byte   W96
@  #04 @101   ----------------------------------------
 .byte   W96
@  #04 @102   ----------------------------------------
 .byte   W96
@  #04 @103   ----------------------------------------
 .byte   W96
@  #04 @104   ----------------------------------------
 .byte   W96
@  #04 @105   ----------------------------------------
 .byte   W96
@  #04 @106   ----------------------------------------
 .byte   W96
@  #04 @107   ----------------------------------------
 .byte   W96
@  #04 @108   ----------------------------------------
 .byte   W96
@  #04 @109   ----------------------------------------
 .byte   W96
@  #04 @110   ----------------------------------------
 .byte   W96
@  #04 @111   ----------------------------------------
 .byte   W96
@  #04 @112   ----------------------------------------
 .byte   W96
@  #04 @113   ----------------------------------------
 .byte   W96
@  #04 @114   ----------------------------------------
 .byte   W96
@  #04 @115   ----------------------------------------
 .byte   W96
@  #04 @116   ----------------------------------------
 .byte   W96
@  #04 @117   ----------------------------------------
 .byte   W96
@  #04 @118   ----------------------------------------
 .byte   W96
@  #04 @119   ----------------------------------------
 .byte   W96
@  #04 @120   ----------------------------------------
 .byte   W96
@  #04 @121   ----------------------------------------
 .byte   W96
@  #04 @122   ----------------------------------------
 .byte   W96
@  #04 @123   ----------------------------------------
 .byte   W96
 .byte   FINE

@**************** Track 5 (Midi-Chn.4) ****************@

song62_005:
@  #05 @000   ----------------------------------------
 .byte   KEYSH , song62_key+0
Label_01980766:
 .byte   VOICE , 75
 .byte   MODT 0
 .byte   LFOS 44
 .byte   VOL , 53*song62_mvl/mxv
 .byte   PAN , c_v+0
 .byte   VOL , 53*song62_mvl/mxv
 .byte   PAN , c_v+0
 .byte   W48
 .byte   N32 ,Fs3 ,v060
 .byte   W36
 .byte   N11 ,Fn3
 .byte   W12
@  #05 @001   ----------------------------------------
 .byte   N68 ,Gs2
 .byte   N68 ,Fn3
 .byte   W72
 .byte   N11 ,As2
 .byte   N11 ,Fs3
 .byte   W12
 .byte   TIE ,Gs2
 .byte   N44 ,Fn3
 .byte   W12
@  #05 @002   ----------------------------------------
 .byte   W36
 .byte   N11
 .byte   W12
 .byte   N11
 .byte   W12
 .byte   Fs3
 .byte   W12
 .byte   Fn3
 .byte   W12
 .byte   Gs3
 .byte   W11
 .byte   EOT
 .byte   Gs2
 .byte   W01
@  #05 @003   ----------------------------------------
 .byte   N92 ,Cn4
 .byte   W24
 .byte   N23 ,Cs3
 .byte   W24
 .byte   Ds3
 .byte   W24
 .byte   Cs3
 .byte   W24
@  #05 @004   ----------------------------------------
 .byte   N44 ,Cn3
 .byte   W24
 .byte   N23 ,Fn4
 .byte   W24
 .byte   Gs2
 .byte   N23 ,Ds4
 .byte   W24
 .byte   Fs2
 .byte   N23 ,Cs4
 .byte   W24
@  #05 @005   ----------------------------------------
 .byte   N44 ,Fn2
 .byte   N32 ,Cs4
 .byte   W36
 .byte   N11 ,Fn3
 .byte   W12
 .byte   N44 ,Gs2
 .byte   N32 ,Fn3
 .byte   W36
 .byte   N11
 .byte   W12
@  #05 @006   ----------------------------------------
 .byte   N44 ,Ds3
 .byte   N23 ,Gs3
 .byte   W24
 .byte   N23
 .byte   W24
 .byte   Cn3
 .byte   W24
 .byte   Fs3
 .byte   W24
@  #05 @007   ----------------------------------------
 .byte   TIE ,Gs2
 .byte   TIE ,Fn3
 .byte   W96
@  #05 @008   ----------------------------------------
 .byte   W23
 .byte   EOT
 .byte   Gs2 ,v065
 .byte   W13
 .byte   N11 ,Cs3
 .byte   W12
 .byte   Ds3
 .byte   W12
 .byte   Cs3
 .byte   W12
 .byte   N23 ,Cn3
 .byte   N23 ,Gs3
 .byte   W24
@  #05 @009   ----------------------------------------
 .byte   W24
 .byte   N44 ,Gs2
 .byte   N23 ,Fn3
 .byte   W24
 .byte   Ds3
 .byte   W24
 .byte   N11 ,Gs2
 .byte   N11 ,Cs3
 .byte   W12
 .byte   N23
 .byte   N23 ,Fs3
 .byte   W12
@  #05 @010   ----------------------------------------
 .byte   W12
 .byte   Cs3
 .byte   N23 ,Fn3
 .byte   W24
 .byte   Cn3
 .byte   N23 ,Ds3
 .byte   W12
 .byte   W12
 .byte   As2
 .byte   N23 ,Cs3
 .byte   W24
 .byte   N32 ,Ds2
 .byte   N32 ,Gs2
 .byte   W12
@  #05 @011   ----------------------------------------
 .byte   W36
 .byte   N11
 .byte   N11 ,Cs3
 .byte   W12
 .byte   N23 ,Cn3
 .byte   N23 ,Ds3
 .byte   W24
 .byte   N11 ,Gs2
 .byte   N11 ,Cs3
 .byte   W12
 .byte   N68 ,Fn3
 .byte   N23 ,Gs3
 .byte   W12
@  #05 @012   ----------------------------------------
 .byte   W12
 .byte   As3
 .byte   W24
 .byte   Gs3
 .byte   W12
 .byte   W12
 .byte   N11 ,Cs3
 .byte   N11 ,Fn3
 .byte   W12
 .byte   Cn3
 .byte   N11 ,Ds3
 .byte   W12
 .byte   As2
 .byte   N11 ,Cs3
 .byte   W12
@  #05 @013   ----------------------------------------
 .byte   W12
 .byte   Fn2
 .byte   N11 ,Gs2
 .byte   W12
 .byte   N11
 .byte   N11 ,Cs3
 .byte   W12
 .byte   Fn2
 .byte   N11 ,Gs2
 .byte   W12
 .byte   Cn3
 .byte   N11 ,Ds3
 .byte   W12
 .byte   Cn3
 .byte   N11 ,Ds3
 .byte   W12
 .byte   As2
 .byte   N11 ,Cs3
 .byte   W12
 .byte   N23 ,Fn3
 .byte   N23 ,Gs3
 .byte   W12
@  #05 @014   ----------------------------------------
 .byte   W12
 .byte   N11 ,Cs3
 .byte   N11 ,Fn3
 .byte   W12
 .byte   Cn3
 .byte   N11 ,Ds3
 .byte   W12
 .byte   As2
 .byte   N11 ,Cs3
 .byte   W12
 .byte   Cn3
 .byte   N11 ,Ds3
 .byte   W12
 .byte   As2
 .byte   N11 ,Cs3
 .byte   W12
 .byte   Fn3
 .byte   N11 ,As3
 .byte   W12
 .byte   TIE ,Cs3
 .byte   TIE ,Gs3
 .byte   W12
@  #05 @015   ----------------------------------------
 .byte   W96
@  #05 @016   ----------------------------------------
 .byte   W44
 .byte   W03
 .byte   EOT
 .byte   Cs3 ,v068
 .byte   W48
 .byte   W01
@  #05 @017   ----------------------------------------
 .byte   N92 ,As3
 .byte   W12
 .byte   N11 ,Fn4
 .byte   W12
 .byte   N23
 .byte   W24
 .byte   Ds4
 .byte   W24
 .byte   N11 ,Cs4
 .byte   W12
 .byte   N23 ,Fs4
 .byte   W12
@  #05 @018   ----------------------------------------
 .byte   N84 ,Gs3
 .byte   W12
 .byte   N23 ,Fn4
 .byte   W24
 .byte   Ds4
 .byte   W12
 .byte   W12
 .byte   Cs4
 .byte   W24
 .byte   N11 ,Gs3
 .byte   W12
@  #05 @019   ----------------------------------------
 .byte   N92 ,Fn3
 .byte   W36
 .byte   N11 ,Ds4
 .byte   W12
 .byte   N11
 .byte   W12
 .byte   N11
 .byte   W12
 .byte   Cs4
 .byte   W12
 .byte   N23 ,Gs4
 .byte   W12
@  #05 @020   ----------------------------------------
 .byte   N44 ,Gs3
 .byte   W12
 .byte   N23 ,As4
 .byte   W24
 .byte   Gs4
 .byte   W12
 .byte   N44 ,Cn4
 .byte   W12
 .byte   N11 ,Fn4
 .byte   W12
 .byte   Ds4
 .byte   W12
 .byte   Cs4
 .byte   W12
@  #05 @021   ----------------------------------------
 .byte   W12
 .byte   Fn3
 .byte   N11 ,Gs3
 .byte   W12
 .byte   N11
 .byte   N11 ,Cs4
 .byte   W12
 .byte   Fn3
 .byte   N11 ,Gs3
 .byte   W12
 .byte   Cn4
 .byte   N11 ,Ds4
 .byte   W12
 .byte   Cn4
 .byte   N11 ,Ds4
 .byte   W12
 .byte   Gs3
 .byte   N11 ,Cs4
 .byte   W12
 .byte   N23 ,Fn4
 .byte   N23 ,Gs4
 .byte   W12
@  #05 @022   ----------------------------------------
 .byte   W12
 .byte   N11 ,Cs4
 .byte   N11 ,Fn4
 .byte   W12
 .byte   Cn4
 .byte   N11 ,Ds4
 .byte   W12
 .byte   Gs3
 .byte   N11 ,Cs4
 .byte   W12
 .byte   Fs3
 .byte   N11 ,Ds4
 .byte   W12
 .byte   Gs3
 .byte   N11 ,Cs4
 .byte   W12
 .byte   Fn4
 .byte   N11 ,As4
 .byte   W12
 .byte   TIE ,Ds4
 .byte   TIE ,Gs4
 .byte   W12
@  #05 @023   ----------------------------------------
Label_019808ED:
 .byte   W92
 .byte   W03
 .byte   PEND 
 .byte   EOT
 .byte   Ds4 ,v080
 .byte   W01
@  #05 @024   ----------------------------------------
 .byte   W84
 .byte   N11 ,Fn3 ,v080
 .byte   N11 ,Gs3
 .byte   W12
@  #05 @025   ----------------------------------------
 .byte   N32 ,Fn3
 .byte   N32 ,Gs3
 .byte   W36
 .byte   N11
 .byte   N11 ,Cs4
 .byte   W12
 .byte   N32 ,Gs3
 .byte   N32 ,Cs4
 .byte   W36
 .byte   N11 ,Gs3
 .byte   N11 ,Cs4
 .byte   W12
@  #05 @026   ----------------------------------------
 .byte   N32 ,Fs3
 .byte   N32 ,Cn4
 .byte   W36
 .byte   N11 ,Gs3
 .byte   N11 ,Cs4
 .byte   W12
 .byte   N32 ,Fn3
 .byte   N32 ,Gs3
 .byte   W36
 .byte   N11 ,Fn3
 .byte   N11 ,Gs3
 .byte   W12
@  #05 @027   ----------------------------------------
Label_01980922:
 .byte   N32 ,Cs4 ,v080
 .byte   N32 ,Fn4
 .byte   W36
 .byte   N11 ,Ds4
 .byte   N11 ,Fs4
 .byte   W12
 .byte   N32 ,Cs4
 .byte   N32 ,Fn4
 .byte   W36
 .byte   N11 ,Cn4
 .byte   N11 ,Ds4
 .byte   W12
 .byte   PEND 
@  #05 @028   ----------------------------------------
 .byte   N32 ,Cn4
 .byte   N32 ,Ds4
 .byte   W36
 .byte   N11 ,Gs3
 .byte   N11 ,Cs4
 .byte   W12
 .byte   N32 ,Fs3
 .byte   N32 ,Cs4
 .byte   W36
 .byte   N11 ,Fs3
 .byte   N11 ,Cs4
 .byte   W12
@  #05 @029   ----------------------------------------
 .byte   N32 ,Fn3
 .byte   N32 ,Cs4
 .byte   W36
 .byte   N11
 .byte   N11 ,Gs4
 .byte   W12
 .byte   N32 ,Cs4
 .byte   N32 ,Gs4
 .byte   W36
 .byte   N11 ,Gs3
 .byte   N11 ,Cs4
 .byte   W12
@  #05 @030   ----------------------------------------
 .byte   N32 ,Fs3
 .byte   N32 ,Cn4
 .byte   W36
 .byte   N11 ,Gs3
 .byte   N11 ,Cs4
 .byte   W12
 .byte   Fn3
 .byte   N11 ,Gs3
 .byte   W24
 .byte   Fn3
 .byte   N11 ,Gs3
 .byte   W12
 .byte   As3
 .byte   N11 ,Cs4
 .byte   W12
@  #05 @031   ----------------------------------------
 .byte   N23
 .byte   N23 ,Fn4
 .byte   W24
 .byte   N11 ,As3
 .byte   N11 ,Cs4
 .byte   W12
 .byte   N23
 .byte   N23 ,Fn4
 .byte   W12
 .byte   W12
 .byte   Ds4
 .byte   N23 ,Fs4
 .byte   W24
 .byte   N44 ,Cs4
 .byte   N44 ,Fn4
 .byte   W12
@  #05 @032   ----------------------------------------
 .byte   W36
 .byte   N32 ,Cn4
 .byte   N32 ,Ds4
 .byte   W12
 .byte   W36
 .byte   N11 ,Cs4
 .byte   W12
@  #05 @033   ----------------------------------------
 .byte   N32
 .byte   W36
 .byte   N11 ,Gs3
 .byte   W12
 .byte   N23 ,Gs4
 .byte   W36
 .byte   N11 ,Cs4
 .byte   W12
@  #05 @034   ----------------------------------------
 .byte   N32
 .byte   W36
 .byte   N11 ,Gs3
 .byte   W12
 .byte   N23 ,Gs4
 .byte   W24
 .byte   N11 ,Gs3
 .byte   W12
 .byte   N11
 .byte   W12
@  #05 @035   ----------------------------------------
 .byte   Cs4
 .byte   N11 ,Fn4
 .byte   W12
 .byte   Ds4
 .byte   N11 ,Fs4
 .byte   W12
 .byte   Cs4
 .byte   N11 ,Fn4
 .byte   W12
 .byte   Cn4
 .byte   N11 ,Ds4
 .byte   W12
 .byte   Cn4
 .byte   N11 ,Ds4
 .byte   W12
 .byte   Gs3
 .byte   N11 ,Cs4
 .byte   W12
 .byte   Fn3
 .byte   N11 ,Gs3
 .byte   W12
 .byte   Fn3
 .byte   N11 ,Gs3
 .byte   W12
@  #05 @036   ----------------------------------------
 .byte   Cs4
 .byte   N11 ,Fn4
 .byte   W12
 .byte   Ds4
 .byte   N11 ,Fs4
 .byte   W12
 .byte   Cs4
 .byte   N11 ,Fn4
 .byte   W12
 .byte   Cn4
 .byte   N11 ,Ds4
 .byte   W12
 .byte   Cn4
 .byte   N11 ,Ds4
 .byte   W12
 .byte   N11
 .byte   N11 ,Gs4
 .byte   W12
 .byte   Gs3
 .byte   N11 ,Cs4
 .byte   W12
 .byte   Ds3
 .byte   N11 ,Gs3
 .byte   W12
@  #05 @037   ----------------------------------------
 .byte   N23 ,Fn3
 .byte   N23 ,Gs3
 .byte   W36
 .byte   N11
 .byte   N11 ,Ds4
 .byte   W12
 .byte   N32 ,Gs3
 .byte   N32 ,Ds4
 .byte   W36
 .byte   N11 ,Fs3
 .byte   N11 ,Cs4
 .byte   W12
@  #05 @038   ----------------------------------------
 .byte   N32 ,Fn3
 .byte   N32 ,Gs3
 .byte   W36
 .byte   N11 ,Fn3
 .byte   N11 ,Gs3
 .byte   W12
 .byte   As3
 .byte   N11 ,Ds4
 .byte   W12
 .byte   Cs4
 .byte   N11 ,Fn4
 .byte   W12
 .byte   Ds4
 .byte   N11 ,Fs4
 .byte   W12
 .byte   N32 ,Cs4
 .byte   N32 ,Fn4
 .byte   W12
@  #05 @039   ----------------------------------------
 .byte   W24
 .byte   N44 ,Cn4
 .byte   N44 ,Ds4
 .byte   W60
 .byte   N11 ,Fn3
 .byte   N11 ,Gs3
 .byte   W12
@  #05 @040   ----------------------------------------
 .byte   PATT
  .word Label_01980922
@  #05 @041   ----------------------------------------
 .byte   N32 ,Cn4 ,v080
 .byte   N32 ,Ds4
 .byte   W36
 .byte   TIE ,Gs3
 .byte   TIE ,Cs4
 .byte   W12
 .byte   W48
@  #05 @042   ----------------------------------------
 .byte   W92
 .byte   W03
 .byte   EOT
 .byte   Gs3 ,v073
 .byte   W01
@  #05 @043   ----------------------------------------
 .byte   TIE ,En4 ,v060
 .byte   W96
@  #05 @044   ----------------------------------------
 .byte   W36
 .byte   N11 ,Cs3 ,v080
 .byte   N11 ,Cs4
 .byte   W12
 .byte   Ds3
 .byte   N11 ,Ds4
 .byte   W12
 .byte   Cs3
 .byte   N11 ,Cs4
 .byte   W12
 .byte   N23 ,Gs2
 .byte   N23 ,Gs3
 .byte   W23
 .byte   EOT
 .byte   En4
 .byte   W01
@  #05 @045   ----------------------------------------
 .byte   TIE ,Gs3 ,v060
 .byte   W96
@  #05 @046   ----------------------------------------
 .byte   PATT
  .word Label_019808ED
@  #05 @047   ----------------------------------------
 .byte   EOT
 .byte   Gs3
 .byte   W01
 .byte   N92 ,Bn3 ,v060
 .byte   W96
@  #05 @048   ----------------------------------------
 .byte   N05 ,Bn3 ,v116
 .byte   W01
 .byte   W01
 .byte   W01
 .byte   W01
 .byte   W01
 .byte   W07
 .byte   N05
 .byte   W01
 .byte   W01
 .byte   W01
 .byte   W01
 .byte   W01
 .byte   W30
 .byte   W01
 .byte   W12
 .byte   GOTO
  .word Label_01980766
@  #05 @049   ----------------------------------------
 .byte   W36
 .byte   W96
@  #05 @050   ----------------------------------------
 .byte   W96
@  #05 @051   ----------------------------------------
 .byte   W96
@  #05 @052   ----------------------------------------
 .byte   W96
@  #05 @053   ----------------------------------------
 .byte   W96
@  #05 @054   ----------------------------------------
 .byte   W96
@  #05 @055   ----------------------------------------
 .byte   W96
@  #05 @056   ----------------------------------------
 .byte   W96
@  #05 @057   ----------------------------------------
 .byte   W96
@  #05 @058   ----------------------------------------
 .byte   W96
@  #05 @059   ----------------------------------------
 .byte   W96
@  #05 @060   ----------------------------------------
 .byte   W96
@  #05 @061   ----------------------------------------
 .byte   W96
@  #05 @062   ----------------------------------------
 .byte   W96
@  #05 @063   ----------------------------------------
 .byte   W96
@  #05 @064   ----------------------------------------
 .byte   W96
@  #05 @065   ----------------------------------------
 .byte   W96
@  #05 @066   ----------------------------------------
 .byte   W96
@  #05 @067   ----------------------------------------
 .byte   W96
@  #05 @068   ----------------------------------------
 .byte   W96
@  #05 @069   ----------------------------------------
 .byte   W96
@  #05 @070   ----------------------------------------
 .byte   W96
@  #05 @071   ----------------------------------------
 .byte   W96
@  #05 @072   ----------------------------------------
 .byte   W96
@  #05 @073   ----------------------------------------
 .byte   W96
@  #05 @074   ----------------------------------------
 .byte   W96
@  #05 @075   ----------------------------------------
 .byte   W96
@  #05 @076   ----------------------------------------
 .byte   W96
@  #05 @077   ----------------------------------------
 .byte   W96
@  #05 @078   ----------------------------------------
 .byte   W96
@  #05 @079   ----------------------------------------
 .byte   W96
@  #05 @080   ----------------------------------------
 .byte   W96
@  #05 @081   ----------------------------------------
 .byte   W96
@  #05 @082   ----------------------------------------
 .byte   W96
@  #05 @083   ----------------------------------------
 .byte   W96
@  #05 @084   ----------------------------------------
 .byte   W96
@  #05 @085   ----------------------------------------
 .byte   W96
@  #05 @086   ----------------------------------------
 .byte   W96
@  #05 @087   ----------------------------------------
 .byte   W96
@  #05 @088   ----------------------------------------
 .byte   W96
@  #05 @089   ----------------------------------------
 .byte   W96
@  #05 @090   ----------------------------------------
 .byte   W96
@  #05 @091   ----------------------------------------
 .byte   W96
@  #05 @092   ----------------------------------------
 .byte   W96
@  #05 @093   ----------------------------------------
 .byte   W96
@  #05 @094   ----------------------------------------
 .byte   W96
@  #05 @095   ----------------------------------------
 .byte   W96
@  #05 @096   ----------------------------------------
 .byte   W96
@  #05 @097   ----------------------------------------
 .byte   W96
@  #05 @098   ----------------------------------------
 .byte   W96
@  #05 @099   ----------------------------------------
 .byte   W96
@  #05 @100   ----------------------------------------
 .byte   W96
@  #05 @101   ----------------------------------------
 .byte   W96
@  #05 @102   ----------------------------------------
 .byte   W96
@  #05 @103   ----------------------------------------
 .byte   W96
@  #05 @104   ----------------------------------------
 .byte   W96
@  #05 @105   ----------------------------------------
 .byte   W96
@  #05 @106   ----------------------------------------
 .byte   W96
@  #05 @107   ----------------------------------------
 .byte   W96
@  #05 @108   ----------------------------------------
 .byte   W96
@  #05 @109   ----------------------------------------
 .byte   W96
@  #05 @110   ----------------------------------------
 .byte   W96
@  #05 @111   ----------------------------------------
 .byte   W96
@  #05 @112   ----------------------------------------
 .byte   W96
@  #05 @113   ----------------------------------------
 .byte   W96
@  #05 @114   ----------------------------------------
 .byte   W96
@  #05 @115   ----------------------------------------
 .byte   W96
@  #05 @116   ----------------------------------------
 .byte   W96
@  #05 @117   ----------------------------------------
 .byte   W96
@  #05 @118   ----------------------------------------
 .byte   W96
@  #05 @119   ----------------------------------------
 .byte   W96
@  #05 @120   ----------------------------------------
 .byte   W96
@  #05 @121   ----------------------------------------
 .byte   W96
@  #05 @122   ----------------------------------------
 .byte   W96
@  #05 @123   ----------------------------------------
 .byte   W96
 .byte   FINE

@**************** Track 6 (Midi-Chn.5) ****************@

song62_006:
@  #06 @000   ----------------------------------------
 .byte   KEYSH , song62_key+0
Label_01980AD2:
 .byte   VOICE , 45
 .byte   MODT 0
 .byte   LFOS 44
 .byte   VOL , 53*song62_mvl/mxv
 .byte   PAN , c_v+0
 .byte   VOL , 53*song62_mvl/mxv
 .byte   PAN , c_v+0
 .byte   W96
@  #06 @001   ----------------------------------------
 .byte   N68 ,Cs2 ,v060
 .byte   W72
 .byte   N11 ,Ds2
 .byte   W12
 .byte   N32 ,Fn2
 .byte   W12
@  #06 @002   ----------------------------------------
 .byte   W24
 .byte   N44 ,Cs2
 .byte   W48
 .byte   N11 ,Cn2
 .byte   W12
 .byte   As1
 .byte   W12
@  #06 @003   ----------------------------------------
Label_01980AF4:
 .byte   N92 ,Gs1 ,v060
 .byte   W96
 .byte   PEND 
@  #06 @004   ----------------------------------------
 .byte   N44 ,Gs2
 .byte   W48
 .byte   N23 ,Ds2
 .byte   W24
 .byte   Cn2
 .byte   W24
@  #06 @005   ----------------------------------------
 .byte   N68 ,As1
 .byte   W72
 .byte   N23
 .byte   W24
@  #06 @006   ----------------------------------------
 .byte   N44 ,Gs1
 .byte   W48
 .byte   N23 ,Ds2
 .byte   W24
 .byte   Gs1
 .byte   W24
@  #06 @007   ----------------------------------------
Label_01980B0E:
 .byte   N32 ,Fs1 ,v060
 .byte   W36
 .byte   N11 ,Fn1
 .byte   W12
 .byte   Fs1
 .byte   W12
 .byte   Fn1
 .byte   W12
 .byte   Fs1
 .byte   W12
 .byte   Gs1
 .byte   W12
 .byte   PEND 
@  #06 @008   ----------------------------------------
 .byte   As1
 .byte   W12
 .byte   Fs1
 .byte   W12
 .byte   Gs1
 .byte   W12
 .byte   As1
 .byte   W12
 .byte   N23 ,Cn2
 .byte   W24
 .byte   Ds2
 .byte   W24
@  #06 @009   ----------------------------------------
 .byte   N92 ,Cs2
 .byte   W96
@  #06 @010   ----------------------------------------
 .byte   N68 ,Fn2
 .byte   W72
 .byte   N11 ,Ds2
 .byte   W12
 .byte   Cs2
 .byte   W12
@  #06 @011   ----------------------------------------
 .byte   N92 ,Cn2
 .byte   W96
@  #06 @012   ----------------------------------------
 .byte   N44 ,Gs2
 .byte   W48
 .byte   N23 ,Cn2
 .byte   W24
 .byte   N11 ,Cs2
 .byte   W12
 .byte   Cn2
 .byte   W12
@  #06 @013   ----------------------------------------
 .byte   N92 ,As1
 .byte   W96
@  #06 @014   ----------------------------------------
 .byte   PATT
  .word Label_01980AF4
@  #06 @015   ----------------------------------------
 .byte   PATT
  .word Label_01980B0E
@  #06 @016   ----------------------------------------
 .byte   N11 ,As1 ,v060
 .byte   W12
 .byte   Fs1
 .byte   W12
 .byte   Gs1
 .byte   W12
 .byte   As1
 .byte   W12
 .byte   N23 ,Cn2
 .byte   W24
 .byte   Cs2
 .byte   W24
@  #06 @017   ----------------------------------------
 .byte   N68
 .byte   W72
 .byte   N11 ,Cn2
 .byte   W12
 .byte   Cs2
 .byte   W12
@  #06 @018   ----------------------------------------
 .byte   N23
 .byte   W24
 .byte   Ds2
 .byte   W24
 .byte   Fn2
 .byte   W24
 .byte   Cs2
 .byte   W24
@  #06 @019   ----------------------------------------
 .byte   N68 ,Gs2
 .byte   W72
 .byte   N11 ,Fs2
 .byte   W12
 .byte   Fn2
 .byte   W12
@  #06 @020   ----------------------------------------
 .byte   N44 ,Ds2
 .byte   W48
 .byte   Cs2
 .byte   W48
@  #06 @021   ----------------------------------------
 .byte   N92 ,Fs2
 .byte   W96
@  #06 @022   ----------------------------------------
 .byte   Gs2
 .byte   W96
@  #06 @023   ----------------------------------------
 .byte   N11
 .byte   N11 ,Cs3
 .byte   W12
 .byte   Fs2
 .byte   N11 ,Bn2
 .byte   W12
 .byte   Gs2
 .byte   N11 ,Cs3
 .byte   W12
 .byte   As2
 .byte   N11 ,Ds3
 .byte   W12
 .byte   Cs3
 .byte   N11 ,Fs3
 .byte   W12
 .byte   Bn2
 .byte   N11 ,Ds3
 .byte   W12
 .byte   Cs3
 .byte   N11 ,Fs3
 .byte   W12
 .byte   Cs3
 .byte   N11 ,Fn3
 .byte   W12
@  #06 @024   ----------------------------------------
 .byte   N92 ,Cn3
 .byte   N92 ,Ds3
 .byte   W96
@  #06 @025   ----------------------------------------
 .byte   N32 ,Gs2 ,v080
 .byte   W36
 .byte   N11 ,Cs3
 .byte   W12
 .byte   N32
 .byte   W36
 .byte   N11
 .byte   W12
@  #06 @026   ----------------------------------------
 .byte   N32 ,Cn3
 .byte   W36
 .byte   N11 ,Cs3
 .byte   W12
 .byte   N32 ,Gs2
 .byte   W36
 .byte   N11
 .byte   W12
@  #06 @027   ----------------------------------------
Label_01980BBC:
 .byte   N32 ,Fn3 ,v080
 .byte   W36
 .byte   N11 ,Fs3
 .byte   W12
 .byte   N32 ,Fn3
 .byte   W36
 .byte   N11 ,Ds3
 .byte   W12
 .byte   PEND 
@  #06 @028   ----------------------------------------
 .byte   N32
 .byte   W36
 .byte   N11 ,Cs3
 .byte   W12
 .byte   N32
 .byte   W36
 .byte   N11
 .byte   W12
@  #06 @029   ----------------------------------------
 .byte   N32
 .byte   W36
 .byte   N11 ,Gs3
 .byte   W12
 .byte   N32
 .byte   W36
 .byte   N11 ,Cs3
 .byte   W12
@  #06 @030   ----------------------------------------
 .byte   N32 ,Cn3
 .byte   W36
 .byte   N11 ,Cs3
 .byte   W12
 .byte   Gs2
 .byte   W24
 .byte   N11
 .byte   W12
 .byte   Cs3
 .byte   W12
@  #06 @031   ----------------------------------------
 .byte   N23 ,Fn3
 .byte   W24
 .byte   N11 ,Cs3
 .byte   W12
 .byte   N23 ,Fn3
 .byte   W12
 .byte   W12
 .byte   Fs3
 .byte   W24
 .byte   N44 ,Fn3
 .byte   W12
@  #06 @032   ----------------------------------------
 .byte   W36
 .byte   N32 ,Ds3
 .byte   W12
 .byte   W36
 .byte   N11 ,Cs3
 .byte   W12
@  #06 @033   ----------------------------------------
 .byte   N32
 .byte   W36
 .byte   N11 ,Gs2
 .byte   W12
 .byte   N23 ,Gs3
 .byte   W36
 .byte   N11 ,Cs3
 .byte   W12
@  #06 @034   ----------------------------------------
 .byte   N32
 .byte   W36
 .byte   N11 ,Gs2
 .byte   W12
 .byte   N23 ,Gs3
 .byte   W24
 .byte   N11 ,Gs2
 .byte   W12
 .byte   N11
 .byte   W12
@  #06 @035   ----------------------------------------
 .byte   Fn3
 .byte   W12
 .byte   Fs3
 .byte   W12
 .byte   Fn3
 .byte   W12
 .byte   Ds3
 .byte   W12
 .byte   N11
 .byte   W12
 .byte   Cs3
 .byte   W12
 .byte   Gs2
 .byte   W12
 .byte   N11
 .byte   W12
@  #06 @036   ----------------------------------------
 .byte   Fn3
 .byte   W12
 .byte   Fs3
 .byte   W12
 .byte   Fn3
 .byte   W12
 .byte   Ds3
 .byte   W12
 .byte   N11
 .byte   W12
 .byte   Gs3
 .byte   W12
 .byte   Cs3
 .byte   W12
 .byte   Gs2
 .byte   W12
@  #06 @037   ----------------------------------------
 .byte   N23
 .byte   W36
 .byte   N11 ,Ds3
 .byte   W12
 .byte   N32
 .byte   W36
 .byte   N11 ,Cs3
 .byte   W12
@  #06 @038   ----------------------------------------
 .byte   N32 ,Gs2
 .byte   W36
 .byte   N11
 .byte   W12
 .byte   Ds3
 .byte   W12
 .byte   Fn3
 .byte   W12
 .byte   Fs3
 .byte   W12
 .byte   N32 ,Fn3
 .byte   W12
@  #06 @039   ----------------------------------------
 .byte   W24
 .byte   N44 ,Ds3
 .byte   W60
 .byte   N11 ,Gs2
 .byte   W12
@  #06 @040   ----------------------------------------
 .byte   PATT
  .word Label_01980BBC
@  #06 @041   ----------------------------------------
 .byte   N32 ,Ds3 ,v080
 .byte   W36
 .byte   TIE ,Cs3
 .byte   W12
 .byte   W48
@  #06 @042   ----------------------------------------
 .byte   W92
 .byte   W03
 .byte   EOT
 .byte   W01
@  #06 @043   ----------------------------------------
 .byte   W96
@  #06 @044   ----------------------------------------
 .byte   W36
 .byte   N11
 .byte   W12
 .byte   Ds3
 .byte   W12
 .byte   Cs3
 .byte   W12
 .byte   N23 ,Gs2
 .byte   W24
@  #06 @045   ----------------------------------------
 .byte   W96
@  #06 @046   ----------------------------------------
 .byte   W96
@  #06 @047   ----------------------------------------
 .byte   W96
@  #06 @048   ----------------------------------------
 .byte   W60
 .byte   GOTO
  .word Label_01980AD2
@  #06 @049   ----------------------------------------
 .byte   W36
 .byte   W96
@  #06 @050   ----------------------------------------
 .byte   W96
@  #06 @051   ----------------------------------------
 .byte   W96
@  #06 @052   ----------------------------------------
 .byte   W96
@  #06 @053   ----------------------------------------
 .byte   W96
@  #06 @054   ----------------------------------------
 .byte   W96
@  #06 @055   ----------------------------------------
 .byte   W96
@  #06 @056   ----------------------------------------
 .byte   W96
@  #06 @057   ----------------------------------------
 .byte   W96
@  #06 @058   ----------------------------------------
 .byte   W96
@  #06 @059   ----------------------------------------
 .byte   W96
@  #06 @060   ----------------------------------------
 .byte   W96
@  #06 @061   ----------------------------------------
 .byte   W96
@  #06 @062   ----------------------------------------
 .byte   W96
@  #06 @063   ----------------------------------------
 .byte   W96
@  #06 @064   ----------------------------------------
 .byte   W96
@  #06 @065   ----------------------------------------
 .byte   W96
@  #06 @066   ----------------------------------------
 .byte   W96
@  #06 @067   ----------------------------------------
 .byte   W96
@  #06 @068   ----------------------------------------
 .byte   W96
@  #06 @069   ----------------------------------------
 .byte   W96
@  #06 @070   ----------------------------------------
 .byte   W96
@  #06 @071   ----------------------------------------
 .byte   W96
@  #06 @072   ----------------------------------------
 .byte   W96
@  #06 @073   ----------------------------------------
 .byte   W96
@  #06 @074   ----------------------------------------
 .byte   W96
@  #06 @075   ----------------------------------------
 .byte   W96
@  #06 @076   ----------------------------------------
 .byte   W96
@  #06 @077   ----------------------------------------
 .byte   W96
@  #06 @078   ----------------------------------------
 .byte   W96
@  #06 @079   ----------------------------------------
 .byte   W96
@  #06 @080   ----------------------------------------
 .byte   W96
@  #06 @081   ----------------------------------------
 .byte   W96
@  #06 @082   ----------------------------------------
 .byte   W96
@  #06 @083   ----------------------------------------
 .byte   W96
@  #06 @084   ----------------------------------------
 .byte   W96
@  #06 @085   ----------------------------------------
 .byte   W96
@  #06 @086   ----------------------------------------
 .byte   W96
@  #06 @087   ----------------------------------------
 .byte   W96
@  #06 @088   ----------------------------------------
 .byte   W96
@  #06 @089   ----------------------------------------
 .byte   W96
@  #06 @090   ----------------------------------------
 .byte   W96
@  #06 @091   ----------------------------------------
 .byte   W96
@  #06 @092   ----------------------------------------
 .byte   W96
@  #06 @093   ----------------------------------------
 .byte   W96
@  #06 @094   ----------------------------------------
 .byte   W96
@  #06 @095   ----------------------------------------
 .byte   W96
@  #06 @096   ----------------------------------------
 .byte   W96
@  #06 @097   ----------------------------------------
 .byte   W96
@  #06 @098   ----------------------------------------
 .byte   W96
@  #06 @099   ----------------------------------------
 .byte   W96
@  #06 @100   ----------------------------------------
 .byte   W96
@  #06 @101   ----------------------------------------
 .byte   W96
@  #06 @102   ----------------------------------------
 .byte   W96
@  #06 @103   ----------------------------------------
 .byte   W96
@  #06 @104   ----------------------------------------
 .byte   W96
@  #06 @105   ----------------------------------------
 .byte   W96
@  #06 @106   ----------------------------------------
 .byte   W96
@  #06 @107   ----------------------------------------
 .byte   W96
@  #06 @108   ----------------------------------------
 .byte   W96
@  #06 @109   ----------------------------------------
 .byte   W96
@  #06 @110   ----------------------------------------
 .byte   W96
@  #06 @111   ----------------------------------------
 .byte   W96
@  #06 @112   ----------------------------------------
 .byte   W96
@  #06 @113   ----------------------------------------
 .byte   W96
@  #06 @114   ----------------------------------------
 .byte   W96
@  #06 @115   ----------------------------------------
 .byte   W96
@  #06 @116   ----------------------------------------
 .byte   W96
@  #06 @117   ----------------------------------------
 .byte   W96
@  #06 @118   ----------------------------------------
 .byte   W96
@  #06 @119   ----------------------------------------
 .byte   W96
@  #06 @120   ----------------------------------------
 .byte   W96
@  #06 @121   ----------------------------------------
 .byte   W96
@  #06 @122   ----------------------------------------
 .byte   W96
@  #06 @123   ----------------------------------------
 .byte   W96
 .byte   FINE

@**************** Track 7 (Midi-Chn.6) ****************@

song62_007:
@  #07 @000   ----------------------------------------
 .byte   KEYSH , song62_key+0
Label_01980CCE:
 .byte   VOICE , 77
 .byte   MODT 0
 .byte   LFOS 44
 .byte   VOL , 54*song62_mvl/mxv
 .byte   PAN , c_v+0
 .byte   VOL , 53*song62_mvl/mxv
 .byte   PAN , c_v+0
 .byte   W96
@  #07 @001   ----------------------------------------
 .byte   N68 ,Gs2 ,v060
 .byte   W72
 .byte   N11 ,As2
 .byte   W12
 .byte   TIE ,Gs2
 .byte   W12
@  #07 @002   ----------------------------------------
Label_01980CE7:
 .byte   W92
 .byte   W03
 .byte   PEND 
 .byte   EOT
 .byte   Gs2
 .byte   W01
@  #07 @003   ----------------------------------------
 .byte   W24
 .byte   N23 ,Cs3 ,v060
 .byte   W24
 .byte   Ds3
 .byte   W24
 .byte   Cs3
 .byte   W24
@  #07 @004   ----------------------------------------
 .byte   N44 ,Cn3
 .byte   W48
 .byte   N23 ,Gs2
 .byte   W24
 .byte   Fs2
 .byte   W24
@  #07 @005   ----------------------------------------
 .byte   N44 ,Fn2
 .byte   W48
 .byte   Gs2
 .byte   W48
@  #07 @006   ----------------------------------------
 .byte   Ds3
 .byte   W48
 .byte   Cn3
 .byte   W48
@  #07 @007   ----------------------------------------
Label_01980D07:
 .byte   TIE ,Gs2 ,v060
 .byte   W96
 .byte   PEND 
@  #07 @008   ----------------------------------------
 .byte   W23
 .byte   EOT
 .byte   W13
 .byte   N11 ,Cs3
 .byte   W12
 .byte   Ds3
 .byte   W12
 .byte   Cs3
 .byte   W12
 .byte   N23 ,Cn3
 .byte   W24
@  #07 @009   ----------------------------------------
 .byte   W24
 .byte   N44 ,Gs2
 .byte   W48
 .byte   N11
 .byte   W12
 .byte   N23 ,Cs3
 .byte   W12
@  #07 @010   ----------------------------------------
 .byte   W12
 .byte   N23
 .byte   W24
 .byte   Cn3
 .byte   W12
 .byte   W12
 .byte   As2
 .byte   W24
 .byte   N32 ,Ds2
 .byte   W12
@  #07 @011   ----------------------------------------
 .byte   W36
 .byte   N11 ,Gs2
 .byte   W12
 .byte   N23 ,Cn3
 .byte   W24
 .byte   N11 ,Gs2
 .byte   W12
 .byte   N68 ,Fn3
 .byte   W12
@  #07 @012   ----------------------------------------
 .byte   W48
 .byte   W12
 .byte   N11 ,Cs3
 .byte   W12
 .byte   Cn3
 .byte   W12
 .byte   As2
 .byte   W12
@  #07 @013   ----------------------------------------
 .byte   W12
 .byte   Fn2
 .byte   W12
 .byte   Gs2
 .byte   W12
 .byte   Fn2
 .byte   W12
 .byte   Cn3
 .byte   W12
 .byte   N11
 .byte   W12
 .byte   As2
 .byte   W12
 .byte   N23 ,Fn3
 .byte   W12
@  #07 @014   ----------------------------------------
 .byte   W12
 .byte   N11 ,Cs3
 .byte   W12
 .byte   Cn3
 .byte   W12
 .byte   As2
 .byte   W12
 .byte   Cn3
 .byte   W12
 .byte   As2
 .byte   W12
 .byte   Fn3
 .byte   W12
 .byte   TIE ,Cs3
 .byte   W12
@  #07 @015   ----------------------------------------
 .byte   W96
@  #07 @016   ----------------------------------------
 .byte   W44
 .byte   W03
 .byte   EOT
 .byte   W48
 .byte   W01
@  #07 @017   ----------------------------------------
 .byte   N92 ,Fs3
 .byte   W96
@  #07 @018   ----------------------------------------
Label_01980D6D:
 .byte   N92 ,Cs3 ,v060
 .byte   W96
 .byte   PEND 
@  #07 @019   ----------------------------------------
 .byte   PATT
  .word Label_01980D6D
@  #07 @020   ----------------------------------------
 .byte   N44 ,Ds3 ,v060
 .byte   W48
 .byte   Gs2
 .byte   W48
@  #07 @021   ----------------------------------------
 .byte   PATT
  .word Label_01980D6D
@  #07 @022   ----------------------------------------
 .byte   PATT
  .word Label_01980D6D
@  #07 @023   ----------------------------------------
 .byte   N11 ,Cs3 ,v060
 .byte   W12
 .byte   Bn2
 .byte   W12
 .byte   Cs3
 .byte   W12
 .byte   Ds3
 .byte   W12
 .byte   Fs3
 .byte   W12
 .byte   Ds3
 .byte   W12
 .byte   Fs3
 .byte   W12
 .byte   Cs4
 .byte   W12
@  #07 @024   ----------------------------------------
 .byte   N92 ,Cn4
 .byte   W96
@  #07 @025   ----------------------------------------
Label_01980D9C:
 .byte   N68 ,Gs2 ,v080
 .byte   W72
 .byte   N23 ,Ds3
 .byte   W24
 .byte   PEND 
@  #07 @026   ----------------------------------------
 .byte   N32 ,Cn3
 .byte   W36
 .byte   N11 ,Cs3
 .byte   W12
 .byte   N32
 .byte   W36
 .byte   N11 ,Gs2
 .byte   W12
@  #07 @027   ----------------------------------------
Label_01980DAF:
 .byte   N92 ,Cs3 ,v080
 .byte   W96
 .byte   PEND 
@  #07 @028   ----------------------------------------
 .byte   N23
 .byte   W24
 .byte   Ds3
 .byte   W24
 .byte   Cs3
 .byte   W24
 .byte   N11 ,Cn3
 .byte   W12
 .byte   As2
 .byte   W12
@  #07 @029   ----------------------------------------
Label_01980DBF:
 .byte   N68 ,Gs2 ,v080
 .byte   W72
 .byte   N23 ,Cn3
 .byte   W24
 .byte   PEND 
@  #07 @030   ----------------------------------------
 .byte   N32
 .byte   W36
 .byte   N11 ,Cs3
 .byte   W12
 .byte   N44
 .byte   W48
@  #07 @031   ----------------------------------------
 .byte   N92 ,As2
 .byte   W96
@  #07 @032   ----------------------------------------
Label_01980DD1:
 .byte   N44 ,Cn3 ,v080
 .byte   W48
 .byte   As2
 .byte   W48
 .byte   PEND 
@  #07 @033   ----------------------------------------
 .byte   PATT
  .word Label_01980DBF
@  #07 @034   ----------------------------------------
 .byte   PATT
  .word Label_01980DAF
@  #07 @035   ----------------------------------------
 .byte   N68 ,Fs3 ,v080
 .byte   W72
 .byte   N23 ,Cs3
 .byte   W24
@  #07 @036   ----------------------------------------
 .byte   PATT
  .word Label_01980DD1
@  #07 @037   ----------------------------------------
 .byte   PATT
  .word Label_01980D9C
@  #07 @038   ----------------------------------------
 .byte   PATT
  .word Label_01980DAF
@  #07 @039   ----------------------------------------
 .byte   N68 ,As2 ,v080
 .byte   W72
 .byte   N23 ,Cs3
 .byte   W24
@  #07 @040   ----------------------------------------
 .byte   N44 ,Cn3
 .byte   W48
 .byte   Gs2
 .byte   W48
@  #07 @041   ----------------------------------------
 .byte   PATT
  .word Label_01980D07
@  #07 @042   ----------------------------------------
 .byte   PATT
  .word Label_01980CE7
@  #07 @043   ----------------------------------------
 .byte   EOT
 .byte   Gs2
 .byte   W01
 .byte   TIE ,Bn2 ,v060
 .byte   W96
@  #07 @044   ----------------------------------------
 .byte   PATT
  .word Label_01980CE7
@  #07 @045   ----------------------------------------
 .byte   EOT
 .byte   Bn2
 .byte   W01
 .byte   TIE ,Fn2 ,v060
 .byte   W96
@  #07 @046   ----------------------------------------
 .byte   PATT
  .word Label_01980CE7
@  #07 @047   ----------------------------------------
 .byte   EOT
 .byte   Fn2
 .byte   W01
 .byte   N92 ,Bn2 ,v060
 .byte   W96
@  #07 @048   ----------------------------------------
 .byte   N05 ,Bn2 ,v116
 .byte   W01
 .byte   W01
 .byte   W01
 .byte   W01
 .byte   W01
 .byte   W07
 .byte   N05
 .byte   W01
 .byte   W01
 .byte   W01
 .byte   W01
 .byte   W01
 .byte   W30
 .byte   W01
 .byte   W12
 .byte   GOTO
  .word Label_01980CCE
@  #07 @049   ----------------------------------------
 .byte   W36
 .byte   W96
@  #07 @050   ----------------------------------------
 .byte   W96
@  #07 @051   ----------------------------------------
 .byte   W96
@  #07 @052   ----------------------------------------
 .byte   W96
@  #07 @053   ----------------------------------------
 .byte   W96
@  #07 @054   ----------------------------------------
 .byte   W96
@  #07 @055   ----------------------------------------
 .byte   W96
@  #07 @056   ----------------------------------------
 .byte   W96
@  #07 @057   ----------------------------------------
 .byte   W96
@  #07 @058   ----------------------------------------
 .byte   W96
@  #07 @059   ----------------------------------------
 .byte   W96
@  #07 @060   ----------------------------------------
 .byte   W96
@  #07 @061   ----------------------------------------
 .byte   W96
@  #07 @062   ----------------------------------------
 .byte   W96
@  #07 @063   ----------------------------------------
 .byte   W96
@  #07 @064   ----------------------------------------
 .byte   W96
@  #07 @065   ----------------------------------------
 .byte   W96
@  #07 @066   ----------------------------------------
 .byte   W96
@  #07 @067   ----------------------------------------
 .byte   W96
@  #07 @068   ----------------------------------------
 .byte   W96
@  #07 @069   ----------------------------------------
 .byte   W96
@  #07 @070   ----------------------------------------
 .byte   W96
@  #07 @071   ----------------------------------------
 .byte   W96
@  #07 @072   ----------------------------------------
 .byte   W96
@  #07 @073   ----------------------------------------
 .byte   W96
@  #07 @074   ----------------------------------------
 .byte   W96
@  #07 @075   ----------------------------------------
 .byte   W96
@  #07 @076   ----------------------------------------
 .byte   W96
@  #07 @077   ----------------------------------------
 .byte   W96
@  #07 @078   ----------------------------------------
 .byte   W96
@  #07 @079   ----------------------------------------
 .byte   W96
@  #07 @080   ----------------------------------------
 .byte   W96
@  #07 @081   ----------------------------------------
 .byte   W96
@  #07 @082   ----------------------------------------
 .byte   W96
@  #07 @083   ----------------------------------------
 .byte   W96
@  #07 @084   ----------------------------------------
 .byte   W96
@  #07 @085   ----------------------------------------
 .byte   W96
@  #07 @086   ----------------------------------------
 .byte   W96
@  #07 @087   ----------------------------------------
 .byte   W96
@  #07 @088   ----------------------------------------
 .byte   W96
@  #07 @089   ----------------------------------------
 .byte   W96
@  #07 @090   ----------------------------------------
 .byte   W96
@  #07 @091   ----------------------------------------
 .byte   W96
@  #07 @092   ----------------------------------------
 .byte   W96
@  #07 @093   ----------------------------------------
 .byte   W96
@  #07 @094   ----------------------------------------
 .byte   W96
@  #07 @095   ----------------------------------------
 .byte   W96
@  #07 @096   ----------------------------------------
 .byte   W96
@  #07 @097   ----------------------------------------
 .byte   W96
@  #07 @098   ----------------------------------------
 .byte   W96
@  #07 @099   ----------------------------------------
 .byte   W96
@  #07 @100   ----------------------------------------
 .byte   W96
@  #07 @101   ----------------------------------------
 .byte   W96
@  #07 @102   ----------------------------------------
 .byte   W96
@  #07 @103   ----------------------------------------
 .byte   W96
@  #07 @104   ----------------------------------------
 .byte   W96
@  #07 @105   ----------------------------------------
 .byte   W96
@  #07 @106   ----------------------------------------
 .byte   W96
@  #07 @107   ----------------------------------------
 .byte   W96
@  #07 @108   ----------------------------------------
 .byte   W96
@  #07 @109   ----------------------------------------
 .byte   W96
@  #07 @110   ----------------------------------------
 .byte   W96
@  #07 @111   ----------------------------------------
 .byte   W96
@  #07 @112   ----------------------------------------
 .byte   W96
@  #07 @113   ----------------------------------------
 .byte   W96
@  #07 @114   ----------------------------------------
 .byte   W96
@  #07 @115   ----------------------------------------
 .byte   W96
@  #07 @116   ----------------------------------------
 .byte   W96
@  #07 @117   ----------------------------------------
 .byte   W96
@  #07 @118   ----------------------------------------
 .byte   W96
@  #07 @119   ----------------------------------------
 .byte   W96
@  #07 @120   ----------------------------------------
 .byte   W96
@  #07 @121   ----------------------------------------
 .byte   W96
@  #07 @122   ----------------------------------------
 .byte   W96
@  #07 @123   ----------------------------------------
 .byte   W96
 .byte   FINE

@**************** Track 8 (Midi-Chn.7) ****************@

song62_008:
@  #08 @000   ----------------------------------------
 .byte   KEYSH , song62_key+0
Label_01980E96:
 .byte   VOICE , 81
 .byte   MODT 0
 .byte   LFOS 44
 .byte   VOL , 53*song62_mvl/mxv
 .byte   PAN , c_v+0
 .byte   VOL , 53*song62_mvl/mxv
 .byte   PAN , c_v+0
 .byte   W96
@  #08 @001   ----------------------------------------
 .byte   N68 ,Cs2 ,v060
 .byte   W72
 .byte   N11 ,Ds2
 .byte   W12
 .byte   N32 ,Fn2
 .byte   W12
@  #08 @002   ----------------------------------------
 .byte   W24
 .byte   N44 ,Cs2
 .byte   W48
 .byte   N11 ,Cn2
 .byte   W12
 .byte   As1
 .byte   W12
@  #08 @003   ----------------------------------------
Label_01980EB8:
 .byte   N92 ,Gs1 ,v060
 .byte   W96
 .byte   PEND 
@  #08 @004   ----------------------------------------
 .byte   N44 ,Gs2
 .byte   W48
 .byte   N23 ,Ds2
 .byte   W24
 .byte   Cn2
 .byte   W24
@  #08 @005   ----------------------------------------
 .byte   N68 ,As1
 .byte   W72
 .byte   N23
 .byte   W24
@  #08 @006   ----------------------------------------
 .byte   N44 ,Gs1
 .byte   W48
 .byte   N23 ,Ds2
 .byte   W24
 .byte   Gs1
 .byte   W24
@  #08 @007   ----------------------------------------
Label_01980ED2:
 .byte   N32 ,Fs1 ,v060
 .byte   W36
 .byte   N11 ,Fn1
 .byte   W12
 .byte   Fs1
 .byte   W12
 .byte   Fn1
 .byte   W12
 .byte   Fs1
 .byte   W12
 .byte   Gs1
 .byte   W12
 .byte   PEND 
@  #08 @008   ----------------------------------------
 .byte   As1
 .byte   W12
 .byte   Fs1
 .byte   W12
 .byte   Gs1
 .byte   W12
 .byte   As1
 .byte   W12
 .byte   N23 ,Cn2
 .byte   W24
 .byte   Ds2
 .byte   W24
@  #08 @009   ----------------------------------------
Label_01980EEF:
 .byte   N92 ,Cs2 ,v060
 .byte   W96
 .byte   PEND 
@  #08 @010   ----------------------------------------
 .byte   N68 ,Fn2
 .byte   W72
 .byte   N11 ,Ds2
 .byte   W12
 .byte   Cs2
 .byte   W12
@  #08 @011   ----------------------------------------
 .byte   N92 ,Cn2
 .byte   W96
@  #08 @012   ----------------------------------------
 .byte   N44 ,Gs2
 .byte   W48
 .byte   N23 ,Cn2
 .byte   W24
 .byte   N11 ,Cs2
 .byte   W12
 .byte   Cn2
 .byte   W12
@  #08 @013   ----------------------------------------
 .byte   N92 ,As1
 .byte   W96
@  #08 @014   ----------------------------------------
 .byte   PATT
  .word Label_01980EB8
@  #08 @015   ----------------------------------------
 .byte   PATT
  .word Label_01980ED2
@  #08 @016   ----------------------------------------
 .byte   N11 ,As1 ,v060
 .byte   W12
 .byte   Fs1
 .byte   W12
 .byte   Gs1
 .byte   W12
 .byte   As1
 .byte   W12
 .byte   N23 ,Cn2
 .byte   W24
 .byte   Cs2
 .byte   W24
@  #08 @017   ----------------------------------------
 .byte   N68
 .byte   W72
 .byte   N11 ,Cn2
 .byte   W12
 .byte   Cs2
 .byte   W12
@  #08 @018   ----------------------------------------
 .byte   N23
 .byte   W24
 .byte   Ds2
 .byte   W24
 .byte   Fn2
 .byte   W24
 .byte   Cs2
 .byte   W24
@  #08 @019   ----------------------------------------
 .byte   N68 ,Gs2
 .byte   W72
 .byte   N11 ,Fs2
 .byte   W12
 .byte   Fn2
 .byte   W12
@  #08 @020   ----------------------------------------
 .byte   N44 ,Ds2
 .byte   W48
 .byte   Cs2
 .byte   W48
@  #08 @021   ----------------------------------------
 .byte   N92 ,Fs2
 .byte   W96
@  #08 @022   ----------------------------------------
 .byte   Gs2
 .byte   W96
@  #08 @023   ----------------------------------------
 .byte   N11
 .byte   W12
 .byte   Fs2
 .byte   W12
 .byte   Gs2
 .byte   W12
 .byte   As2
 .byte   W12
 .byte   Cs3
 .byte   W12
 .byte   Bn2
 .byte   W12
 .byte   Cs3
 .byte   W12
 .byte   Fn3
 .byte   W12
@  #08 @024   ----------------------------------------
 .byte   N92 ,Ds3
 .byte   W96
@  #08 @025   ----------------------------------------
 .byte   N68 ,Fn2 ,v080
 .byte   N68 ,Gs2
 .byte   W72
 .byte   N23 ,Cn3
 .byte   N23 ,Ds3
 .byte   W24
@  #08 @026   ----------------------------------------
 .byte   N32 ,Fn2
 .byte   N32 ,Cn3
 .byte   W36
 .byte   N11 ,Gs2
 .byte   N11 ,Cs3
 .byte   W12
 .byte   N32 ,Gs2
 .byte   N32 ,Cs3
 .byte   W36
 .byte   N11 ,Fn2
 .byte   N11 ,Gs2
 .byte   W12
@  #08 @027   ----------------------------------------
 .byte   N92 ,As2
 .byte   N92 ,Cs3
 .byte   W96
@  #08 @028   ----------------------------------------
 .byte   N23 ,Gs2
 .byte   N23 ,Cs3
 .byte   W24
 .byte   Cn3
 .byte   N23 ,Ds3
 .byte   W24
 .byte   As2
 .byte   N23 ,Cs3
 .byte   W24
 .byte   N11 ,Gs2
 .byte   N11 ,Cn3
 .byte   W12
 .byte   Fs2
 .byte   N11 ,As2
 .byte   W12
@  #08 @029   ----------------------------------------
 .byte   N68 ,Fn2
 .byte   N68 ,Gs2
 .byte   W72
 .byte   N23 ,Ds2
 .byte   N23 ,Cn3
 .byte   W24
@  #08 @030   ----------------------------------------
 .byte   N32 ,Ds2
 .byte   N32 ,Cn3
 .byte   W36
 .byte   N11 ,Fn2
 .byte   N11 ,Cs3
 .byte   W12
 .byte   N44 ,Fn2
 .byte   N44 ,Cs3
 .byte   W48
@  #08 @031   ----------------------------------------
 .byte   N68 ,As1
 .byte   N92 ,As2
 .byte   W72
 .byte   N23 ,Cs2
 .byte   W24
@  #08 @032   ----------------------------------------
Label_01980FB5:
 .byte   N44 ,Ds2 ,v080
 .byte   N44 ,Cn3
 .byte   W48
 .byte   Cs2
 .byte   N44 ,As2
 .byte   W48
 .byte   PEND 
@  #08 @033   ----------------------------------------
 .byte   N68 ,Cs2
 .byte   N68 ,Gs2
 .byte   W72
 .byte   N23 ,Ds2
 .byte   N23 ,Cn3
 .byte   W24
@  #08 @034   ----------------------------------------
 .byte   N92 ,Gs2
 .byte   N92 ,Cs3
 .byte   W96
@  #08 @035   ----------------------------------------
 .byte   N68 ,Fs2
 .byte   N68 ,Ds3
 .byte   W72
 .byte   N23 ,Fn2
 .byte   N23 ,Cs3
 .byte   W24
@  #08 @036   ----------------------------------------
 .byte   PATT
  .word Label_01980FB5
@  #08 @037   ----------------------------------------
 .byte   N68 ,Cs2 ,v080
 .byte   N68 ,Gs2
 .byte   W72
 .byte   N23 ,Cn2
 .byte   N23 ,Fs2
 .byte   N23 ,Ds3
 .byte   W24
@  #08 @038   ----------------------------------------
 .byte   N92 ,Cs2
 .byte   N92 ,Fn2
 .byte   N92 ,Cs3
 .byte   W96
@  #08 @039   ----------------------------------------
 .byte   N68 ,Fs2
 .byte   N68 ,As2
 .byte   W72
 .byte   N23 ,Fn2
 .byte   N23 ,Cs3
 .byte   W24
@  #08 @040   ----------------------------------------
 .byte   N44 ,Ds2
 .byte   N44 ,Cn3
 .byte   W48
 .byte   Cn2
 .byte   N44 ,Gs2
 .byte   W48
@  #08 @041   ----------------------------------------
 .byte   TIE ,Fn2 ,v060
 .byte   TIE ,Gs2 ,v080
 .byte   W96
@  #08 @042   ----------------------------------------
Label_0198100C:
 .byte   W92
 .byte   W03
 .byte   PEND 
 .byte   EOT
 .byte   Fn2 ,v056
 .byte   W01
@  #08 @043   ----------------------------------------
 .byte   TIE ,En2 ,v060
 .byte   W96
@  #08 @044   ----------------------------------------
 .byte   W36
 .byte   N11 ,Cs3 ,v080
 .byte   W12
 .byte   Ds3
 .byte   W12
 .byte   Cs3
 .byte   W12
 .byte   N23 ,Gs2
 .byte   W23
 .byte   EOT
 .byte   En2
 .byte   W01
@  #08 @045   ----------------------------------------
 .byte   TIE ,Gs1 ,v060
 .byte   W96
@  #08 @046   ----------------------------------------
 .byte   PATT
  .word Label_0198100C
@  #08 @047   ----------------------------------------
 .byte   EOT
 .byte   Gs1
 .byte   W01
@  #08 @048   ----------------------------------------
 .byte   PATT
  .word Label_01980EEF
@  #08 @049   ----------------------------------------
 .byte   N05 ,Cs2 ,v116
 .byte   W01
 .byte   W01
 .byte   W01
 .byte   W01
 .byte   W01
 .byte   W07
 .byte   N05
 .byte   W01
 .byte   W01
 .byte   W01
 .byte   W01
 .byte   W01
 .byte   W30
 .byte   W01
 .byte   W12
 .byte   GOTO
  .word Label_01980E96
@  #08 @050   ----------------------------------------
 .byte   W36
 .byte   W96
@  #08 @051   ----------------------------------------
 .byte   W96
@  #08 @052   ----------------------------------------
 .byte   W96
@  #08 @053   ----------------------------------------
 .byte   W96
@  #08 @054   ----------------------------------------
 .byte   W96
@  #08 @055   ----------------------------------------
 .byte   W96
@  #08 @056   ----------------------------------------
 .byte   W96
@  #08 @057   ----------------------------------------
 .byte   W96
@  #08 @058   ----------------------------------------
 .byte   W96
@  #08 @059   ----------------------------------------
 .byte   W96
@  #08 @060   ----------------------------------------
 .byte   W96
@  #08 @061   ----------------------------------------
 .byte   W96
@  #08 @062   ----------------------------------------
 .byte   W96
@  #08 @063   ----------------------------------------
 .byte   W96
@  #08 @064   ----------------------------------------
 .byte   W96
@  #08 @065   ----------------------------------------
 .byte   W96
@  #08 @066   ----------------------------------------
 .byte   W96
@  #08 @067   ----------------------------------------
 .byte   W96
@  #08 @068   ----------------------------------------
 .byte   W96
@  #08 @069   ----------------------------------------
 .byte   W96
@  #08 @070   ----------------------------------------
 .byte   W96
@  #08 @071   ----------------------------------------
 .byte   W96
@  #08 @072   ----------------------------------------
 .byte   W96
@  #08 @073   ----------------------------------------
 .byte   W96
@  #08 @074   ----------------------------------------
 .byte   W96
@  #08 @075   ----------------------------------------
 .byte   W96
@  #08 @076   ----------------------------------------
 .byte   W96
@  #08 @077   ----------------------------------------
 .byte   W96
@  #08 @078   ----------------------------------------
 .byte   W96
@  #08 @079   ----------------------------------------
 .byte   W96
@  #08 @080   ----------------------------------------
 .byte   W96
@  #08 @081   ----------------------------------------
 .byte   W96
@  #08 @082   ----------------------------------------
 .byte   W96
@  #08 @083   ----------------------------------------
 .byte   W96
@  #08 @084   ----------------------------------------
 .byte   W96
@  #08 @085   ----------------------------------------
 .byte   W96
@  #08 @086   ----------------------------------------
 .byte   W96
@  #08 @087   ----------------------------------------
 .byte   W96
@  #08 @088   ----------------------------------------
 .byte   W96
@  #08 @089   ----------------------------------------
 .byte   W96
@  #08 @090   ----------------------------------------
 .byte   W96
@  #08 @091   ----------------------------------------
 .byte   W96
@  #08 @092   ----------------------------------------
 .byte   W96
@  #08 @093   ----------------------------------------
 .byte   W96
@  #08 @094   ----------------------------------------
 .byte   W96
@  #08 @095   ----------------------------------------
 .byte   W96
@  #08 @096   ----------------------------------------
 .byte   W96
@  #08 @097   ----------------------------------------
 .byte   W96
@  #08 @098   ----------------------------------------
 .byte   W96
@  #08 @099   ----------------------------------------
 .byte   W96
@  #08 @100   ----------------------------------------
 .byte   W96
@  #08 @101   ----------------------------------------
 .byte   W96
@  #08 @102   ----------------------------------------
 .byte   W96
@  #08 @103   ----------------------------------------
 .byte   W96
@  #08 @104   ----------------------------------------
 .byte   W96
@  #08 @105   ----------------------------------------
 .byte   W96
@  #08 @106   ----------------------------------------
 .byte   W96
@  #08 @107   ----------------------------------------
 .byte   W96
@  #08 @108   ----------------------------------------
 .byte   W96
@  #08 @109   ----------------------------------------
 .byte   W96
@  #08 @110   ----------------------------------------
 .byte   W96
@  #08 @111   ----------------------------------------
 .byte   W96
@  #08 @112   ----------------------------------------
 .byte   W96
@  #08 @113   ----------------------------------------
 .byte   W96
@  #08 @114   ----------------------------------------
 .byte   W96
@  #08 @115   ----------------------------------------
 .byte   W96
@  #08 @116   ----------------------------------------
 .byte   W96
@  #08 @117   ----------------------------------------
 .byte   W96
@  #08 @118   ----------------------------------------
 .byte   W96
@  #08 @119   ----------------------------------------
 .byte   W96
@  #08 @120   ----------------------------------------
 .byte   W96
@  #08 @121   ----------------------------------------
 .byte   W96
@  #08 @122   ----------------------------------------
 .byte   W96
@  #08 @123   ----------------------------------------
 .byte   W96
@  #08 @124   ----------------------------------------
 .byte   W96
 .byte   FINE

@**************** Track 9 (Midi-Chn.8) ****************@

song62_009:
@  #09 @000   ----------------------------------------
 .byte   KEYSH , song62_key+0
Label_0198109E:
 .byte   VOICE , 85
 .byte   MODT 0
 .byte   LFOS 44
 .byte   VOL , 53*song62_mvl/mxv
 .byte   PAN , c_v+0
 .byte   VOL , 53*song62_mvl/mxv
 .byte   PAN , c_v+0
 .byte   W96
@  #09 @001   ----------------------------------------
 .byte   W96
@  #09 @002   ----------------------------------------
 .byte   W96
@  #09 @003   ----------------------------------------
 .byte   W96
@  #09 @004   ----------------------------------------
 .byte   W96
@  #09 @005   ----------------------------------------
 .byte   W96
@  #09 @006   ----------------------------------------
 .byte   W96
@  #09 @007   ----------------------------------------
 .byte   W96
@  #09 @008   ----------------------------------------
 .byte   W96
@  #09 @009   ----------------------------------------
 .byte   W96
@  #09 @010   ----------------------------------------
 .byte   W96
@  #09 @011   ----------------------------------------
 .byte   W96
@  #09 @012   ----------------------------------------
 .byte   W96
@  #09 @013   ----------------------------------------
 .byte   W96
@  #09 @014   ----------------------------------------
 .byte   W96
@  #09 @015   ----------------------------------------
 .byte   W96
@  #09 @016   ----------------------------------------
 .byte   W96
@  #09 @017   ----------------------------------------
Label_019810BD:
 .byte   N68 ,Ds1 ,v060
 .byte   W72
 .byte   N23 ,Cs1
 .byte   W24
 .byte   PEND 
@  #09 @018   ----------------------------------------
Label_019810C5:
 .byte   N68 ,Fn1 ,v060
 .byte   W72
 .byte   N23 ,Cs1
 .byte   W24
 .byte   PEND 
@  #09 @019   ----------------------------------------
 .byte   N68 ,Fs1
 .byte   W72
 .byte   N23 ,Cs1
 .byte   W24
@  #09 @020   ----------------------------------------
 .byte   N68 ,Gs1
 .byte   W48
 .byte   W24
 .byte   N11 ,Fs1
 .byte   W12
 .byte   Fn1
 .byte   W12
@  #09 @021   ----------------------------------------
 .byte   PATT
  .word Label_019810BD
@  #09 @022   ----------------------------------------
 .byte   PATT
  .word Label_019810C5
@  #09 @023   ----------------------------------------
 .byte   N68 ,Bn0 ,v060
 .byte   W72
 .byte   N23
 .byte   W24
@  #09 @024   ----------------------------------------
 .byte   N92 ,Gs0
 .byte   W96
@  #09 @025   ----------------------------------------
 .byte   N68 ,Cs1 ,v080
 .byte   W72
 .byte   N11
 .byte   W12
 .byte   Ds1
 .byte   W12
@  #09 @026   ----------------------------------------
 .byte   N44 ,Fn1
 .byte   W48
 .byte   Fn0
 .byte   W48
@  #09 @027   ----------------------------------------
 .byte   N68 ,Fs0
 .byte   W72
 .byte   N23 ,As0
 .byte   W24
@  #09 @028   ----------------------------------------
Label_01981102:
 .byte   N44 ,Gs0 ,v080
 .byte   W48
 .byte   Fs0
 .byte   W48
 .byte   PEND 
@  #09 @029   ----------------------------------------
Label_01981109:
 .byte   N68 ,Fn0 ,v080
 .byte   W72
 .byte   N11 ,Fs0
 .byte   W12
 .byte   Gs0
 .byte   W12
 .byte   PEND 
@  #09 @030   ----------------------------------------
Label_01981113:
 .byte   N92 ,As0 ,v080
 .byte   W96
 .byte   PEND 
@  #09 @031   ----------------------------------------
Label_01981118:
 .byte   N56 ,Ds1 ,v080
 .byte   W48
 .byte   W12
 .byte   N11 ,Cs1
 .byte   W12
 .byte   Cn1
 .byte   W12
 .byte   As0
 .byte   W12
 .byte   PEND 
@  #09 @032   ----------------------------------------
 .byte   PATT
  .word Label_01981102
@  #09 @033   ----------------------------------------
 .byte   PATT
  .word Label_01981109
@  #09 @034   ----------------------------------------
 .byte   PATT
  .word Label_01981113
@  #09 @035   ----------------------------------------
 .byte   N68 ,Ds1 ,v080
 .byte   W72
 .byte   N23 ,As0
 .byte   W24
@  #09 @036   ----------------------------------------
 .byte   PATT
  .word Label_01981102
@  #09 @037   ----------------------------------------
 .byte   N68 ,Fn0 ,v080
 .byte   W72
 .byte   N23
 .byte   W24
@  #09 @038   ----------------------------------------
 .byte   N68 ,As0
 .byte   W72
 .byte   N11 ,Cn1
 .byte   W12
 .byte   Cs1
 .byte   W12
@  #09 @039   ----------------------------------------
 .byte   PATT
  .word Label_01981118
@  #09 @040   ----------------------------------------
 .byte   N68 ,Gs0 ,v080
 .byte   W72
 .byte   N23 ,Cn1
 .byte   W24
@  #09 @041   ----------------------------------------
Label_0198115A:
 .byte   TIE ,Cs1 ,v060
 .byte   W96
 .byte   PEND 
@  #09 @042   ----------------------------------------
Label_0198115F:
 .byte   W92
 .byte   W03
 .byte   PEND 
 .byte   EOT
 .byte   Cs1
 .byte   W01
@  #09 @043   ----------------------------------------
 .byte   TIE ,Cs2 ,v060
 .byte   W96
@  #09 @044   ----------------------------------------
 .byte   PATT
  .word Label_0198115F
@  #09 @045   ----------------------------------------
 .byte   EOT
 .byte   Cs2
 .byte   W01
@  #09 @046   ----------------------------------------
 .byte   PATT
  .word Label_0198115A
@  #09 @047   ----------------------------------------
 .byte   PATT
  .word Label_0198115F
@  #09 @048   ----------------------------------------
 .byte   EOT
 .byte   Cs1
 .byte   W01
 .byte   N92 ,Fs1 ,v060
 .byte   W96
@  #09 @049   ----------------------------------------
 .byte   N05 ,Fs1 ,v116
 .byte   W01
 .byte   W01
 .byte   W01
 .byte   W01
 .byte   W01
 .byte   W07
 .byte   N05
 .byte   W01
 .byte   W01
 .byte   W01
 .byte   W01
 .byte   W01
 .byte   W30
 .byte   W01
 .byte   W12
 .byte   GOTO
  .word Label_0198109E
@  #09 @050   ----------------------------------------
 .byte   W36
 .byte   W96
@  #09 @051   ----------------------------------------
 .byte   W96
@  #09 @052   ----------------------------------------
 .byte   W96
@  #09 @053   ----------------------------------------
 .byte   W96
@  #09 @054   ----------------------------------------
 .byte   W96
@  #09 @055   ----------------------------------------
 .byte   W96
@  #09 @056   ----------------------------------------
 .byte   W96
@  #09 @057   ----------------------------------------
 .byte   W96
@  #09 @058   ----------------------------------------
 .byte   W96
@  #09 @059   ----------------------------------------
 .byte   W96
@  #09 @060   ----------------------------------------
 .byte   W96
@  #09 @061   ----------------------------------------
 .byte   W96
@  #09 @062   ----------------------------------------
 .byte   W96
@  #09 @063   ----------------------------------------
 .byte   W96
@  #09 @064   ----------------------------------------
 .byte   W96
@  #09 @065   ----------------------------------------
 .byte   W96
@  #09 @066   ----------------------------------------
 .byte   W96
@  #09 @067   ----------------------------------------
 .byte   W96
@  #09 @068   ----------------------------------------
 .byte   W96
@  #09 @069   ----------------------------------------
 .byte   W96
@  #09 @070   ----------------------------------------
 .byte   W96
@  #09 @071   ----------------------------------------
 .byte   W96
@  #09 @072   ----------------------------------------
 .byte   W96
@  #09 @073   ----------------------------------------
 .byte   W96
@  #09 @074   ----------------------------------------
 .byte   W96
@  #09 @075   ----------------------------------------
 .byte   W96
@  #09 @076   ----------------------------------------
 .byte   W96
@  #09 @077   ----------------------------------------
 .byte   W96
@  #09 @078   ----------------------------------------
 .byte   W96
@  #09 @079   ----------------------------------------
 .byte   W96
@  #09 @080   ----------------------------------------
 .byte   W96
@  #09 @081   ----------------------------------------
 .byte   W96
@  #09 @082   ----------------------------------------
 .byte   W96
@  #09 @083   ----------------------------------------
 .byte   W96
@  #09 @084   ----------------------------------------
 .byte   W96
@  #09 @085   ----------------------------------------
 .byte   W96
@  #09 @086   ----------------------------------------
 .byte   W96
@  #09 @087   ----------------------------------------
 .byte   W96
@  #09 @088   ----------------------------------------
 .byte   W96
@  #09 @089   ----------------------------------------
 .byte   W96
@  #09 @090   ----------------------------------------
 .byte   W96
@  #09 @091   ----------------------------------------
 .byte   W96
@  #09 @092   ----------------------------------------
 .byte   W96
@  #09 @093   ----------------------------------------
 .byte   W96
@  #09 @094   ----------------------------------------
 .byte   W96
@  #09 @095   ----------------------------------------
 .byte   W96
@  #09 @096   ----------------------------------------
 .byte   W96
@  #09 @097   ----------------------------------------
 .byte   W96
@  #09 @098   ----------------------------------------
 .byte   W96
@  #09 @099   ----------------------------------------
 .byte   W96
@  #09 @100   ----------------------------------------
 .byte   W96
@  #09 @101   ----------------------------------------
 .byte   W96
@  #09 @102   ----------------------------------------
 .byte   W96
@  #09 @103   ----------------------------------------
 .byte   W96
@  #09 @104   ----------------------------------------
 .byte   W96
@  #09 @105   ----------------------------------------
 .byte   W96
@  #09 @106   ----------------------------------------
 .byte   W96
@  #09 @107   ----------------------------------------
 .byte   W96
@  #09 @108   ----------------------------------------
 .byte   W96
@  #09 @109   ----------------------------------------
 .byte   W96
@  #09 @110   ----------------------------------------
 .byte   W96
@  #09 @111   ----------------------------------------
 .byte   W96
@  #09 @112   ----------------------------------------
 .byte   W96
@  #09 @113   ----------------------------------------
 .byte   W96
@  #09 @114   ----------------------------------------
 .byte   W96
@  #09 @115   ----------------------------------------
 .byte   W96
@  #09 @116   ----------------------------------------
 .byte   W96
@  #09 @117   ----------------------------------------
 .byte   W96
@  #09 @118   ----------------------------------------
 .byte   W96
@  #09 @119   ----------------------------------------
 .byte   W96
@  #09 @120   ----------------------------------------
 .byte   W96
@  #09 @121   ----------------------------------------
 .byte   W96
@  #09 @122   ----------------------------------------
 .byte   W96
@  #09 @123   ----------------------------------------
 .byte   W96
@  #09 @124   ----------------------------------------
 .byte   W96
 .byte   FINE

@******************************************************@
	.align	2

song62:
	.byte	9	@ NumTrks
	.byte	0	@ NumBlks
	.byte	song62_pri	@ Priority
	.byte	song62_rev	@ Reverb.
    
	.word	song62_grp
    
	.word	song62_001
	.word	song62_002
	.word	song62_003
	.word	song62_004
	.word	song62_005
	.word	song62_006
	.word	song62_007
	.word	song62_008
	.word	song62_009

	.end
