	.include "MPlayDef.s"

	.equ	song01B5_grp, voicegroup000
	.equ	song01B5_pri, 0
	.equ	song01B5_rev, 0
	.equ	song01B5_mvl, 127
	.equ	song01B5_key, 0
	.equ	song01B5_tbs, 1
	.equ	song01B5_exg, 0
	.equ	song01B5_cmp, 1

	.section .rodata
	.global	song01B5
	.align	2


@**************** Track 1 (Midi-Chn.0) ****************@

song01B5_001:
@ 000   ----------------------------------------
 .byte   KEYSH , song01B5_key+0
 .byte   TEMPO , 126*song01B5_tbs/2
 .byte   VOICE , 48
 .byte   VOL , 62*song01B5_mvl/mxv
 .byte   N96 ,As2 ,v100
 .byte   W96
@ 001   ----------------------------------------
 .byte   An2
 .byte   W96
@ 002   ----------------------------------------
 .byte   Cn3
 .byte   W96
@ 003   ----------------------------------------
 .byte   N72 ,As2
 .byte   W72
 .byte   N24 ,An2
 .byte   W24
@ 004   ----------------------------------------
Label_0_01297862:
 .byte   N08 ,Gn3 ,v100
 .byte   W08
 .byte   An3
 .byte   W08
 .byte   As3
 .byte   W08
 .byte   N48 ,Dn4
 .byte   W60
 .byte   N12
 .byte   W12
 .byte   PEND 
@ 005   ----------------------------------------
Label_0_01297870:
 .byte   N24 ,Cs4 ,v100
 .byte   W24
 .byte   N06 ,An3
 .byte   W06
 .byte   As3
 .byte   W06
 .byte   An3
 .byte   W06
 .byte   As3
 .byte   W06
 .byte   Cs4
 .byte   W06
 .byte   Dn4
 .byte   W06
 .byte   Cs4
 .byte   W06
 .byte   Dn4
 .byte   W06
 .byte   En4
 .byte   W06
 .byte   Fn4
 .byte   W06
 .byte   En4
 .byte   W06
 .byte   Fn4
 .byte   W06
 .byte   PEND 
@ 006   ----------------------------------------
 .byte   PATT
  .word Label_0_01297862
@ 007   ----------------------------------------
Label_0_01297893:
 .byte   N24 ,En4 ,v100
 .byte   W24
 .byte   N06 ,An3
 .byte   W06
 .byte   As3
 .byte   W06
 .byte   An3
 .byte   W06
 .byte   As3
 .byte   W06
 .byte   Cs4
 .byte   W06
 .byte   Dn4
 .byte   W06
 .byte   Cs4
 .byte   W06
 .byte   Dn4
 .byte   W06
 .byte   En4
 .byte   W06
 .byte   Fn4
 .byte   W06
 .byte   Gn4
 .byte   W06
 .byte   An4
 .byte   W06
 .byte   PEND 
@ 008   ----------------------------------------
 .byte   PATT
  .word Label_0_01297862
@ 009   ----------------------------------------
 .byte   PATT
  .word Label_0_01297870
@ 010   ----------------------------------------
 .byte   PATT
  .word Label_0_01297862
@ 011   ----------------------------------------
Label_0_012978C0:
 .byte   N24 ,En4 ,v100
 .byte   W24
 .byte   N06 ,An4
 .byte   W06
 .byte   Gs4
 .byte   W06
 .byte   Gn4
 .byte   W06
 .byte   Fs4
 .byte   W06
 .byte   Fn4
 .byte   W06
 .byte   En4
 .byte   W06
 .byte   Ds4
 .byte   W06
 .byte   Dn4
 .byte   W06
 .byte   Cs4
 .byte   W06
 .byte   Cn4
 .byte   W06
 .byte   Bn3
 .byte   W06
 .byte   As3
 .byte   W06
 .byte   PEND 
@ 012   ----------------------------------------
 .byte   N96 ,Fn3
 .byte   W96
@ 013   ----------------------------------------
 .byte   En3
 .byte   W96
@ 014   ----------------------------------------
 .byte   Fn3
 .byte   W96
@ 015   ----------------------------------------
 .byte   N48 ,En3
 .byte   W48
 .byte   Gn3
 .byte   W48
@ 016   ----------------------------------------
Label_0_012978EA:
 .byte   N24 ,Gs4 ,v100
 .byte   W48
 .byte   N48
 .byte   W48
 .byte   PEND 
@ 017   ----------------------------------------
Label_0_012978F1:
 .byte   W24
 .byte   N08 ,Gs3 ,v100
 .byte   W08
 .byte   Cs4
 .byte   W08
 .byte   Fs4
 .byte   W08
 .byte   N12 ,Gs4
 .byte   W24
 .byte   N08
 .byte   W08
 .byte   N08
 .byte   W08
 .byte   N08
 .byte   W08
 .byte   PEND 
@ 018   ----------------------------------------
Label_0_01297904:
 .byte   N12 ,An4 ,v100
 .byte   W24
 .byte   N08
 .byte   W08
 .byte   N08
 .byte   W08
 .byte   N08
 .byte   W08
 .byte   N48
 .byte   W48
 .byte   PEND 
@ 019   ----------------------------------------
Label_0_01297911:
 .byte   W24
 .byte   N08 ,An4 ,v100
 .byte   W08
 .byte   N08
 .byte   W08
 .byte   N08
 .byte   W08
 .byte   N12
 .byte   W24
 .byte   N12
 .byte   W24
 .byte   PEND 
@ 020   ----------------------------------------
 .byte   TIE
 .byte   W96
@ 021   ----------------------------------------
 .byte   W96
@ 022   ----------------------------------------
 .byte   EOT
 .byte   W24
 .byte   N72
 .byte   W72
@ 023   ----------------------------------------
 .byte   W24
 .byte   En4
 .byte   W72
@ 024   ----------------------------------------
 .byte   GOTO
  .word Label_0_01297862
@ 025   ----------------------------------------
 .byte   PATT
  .word Label_0_01297862
@ 026   ----------------------------------------
 .byte   PATT
  .word Label_0_01297870
@ 027   ----------------------------------------
 .byte   PATT
  .word Label_0_01297862
@ 028   ----------------------------------------
 .byte   PATT
  .word Label_0_01297893
@ 029   ----------------------------------------
 .byte   PATT
  .word Label_0_01297862
@ 030   ----------------------------------------
 .byte   PATT
  .word Label_0_01297870
@ 031   ----------------------------------------
 .byte   PATT
  .word Label_0_01297862
@ 032   ----------------------------------------
 .byte   PATT
  .word Label_0_012978C0
@ 033   ----------------------------------------
 .byte   N96 ,Fn3 ,v100
 .byte   W96
@ 034   ----------------------------------------
 .byte   En3
 .byte   W96
@ 035   ----------------------------------------
 .byte   Fn3
 .byte   W96
@ 036   ----------------------------------------
 .byte   N48 ,En3
 .byte   W48
 .byte   Gn3
 .byte   W48
@ 037   ----------------------------------------
 .byte   PATT
  .word Label_0_012978EA
@ 038   ----------------------------------------
 .byte   PATT
  .word Label_0_012978F1
@ 039   ----------------------------------------
 .byte   PATT
  .word Label_0_01297904
@ 040   ----------------------------------------
 .byte   PATT
  .word Label_0_01297911
@ 041   ----------------------------------------
 .byte   TIE ,An4 ,v100
 .byte   W96
@ 042   ----------------------------------------
 .byte   W96
@ 043   ----------------------------------------
 .byte   EOT
 .byte   W24
 .byte   N72
 .byte   W72
@ 044   ----------------------------------------
 .byte   W24
 .byte   En4
 .byte   W72
 .byte   FINE

@**************** Track 2 (Midi-Chn.1) ****************@

song01B5_002:
@ 000   ----------------------------------------
 .byte   KEYSH , song01B5_key+0
 .byte   VOICE , 48
 .byte   VOL , 58*song01B5_mvl/mxv
 .byte   N96 ,Ds2 ,v100
 .byte   W96
@ 001   ----------------------------------------
 .byte   En2
 .byte   W96
@ 002   ----------------------------------------
 .byte   Fn2
 .byte   W96
@ 003   ----------------------------------------
 .byte   Ds2
 .byte   W96
@ 004   ----------------------------------------
Label_1_01297994:
 .byte   N12 ,Dn2 ,v100
 .byte   W24
 .byte   N60 ,As2
 .byte   W72
 .byte   PEND 
@ 005   ----------------------------------------
 .byte   N84 ,An2
 .byte   W96
@ 006   ----------------------------------------
 .byte   PATT
  .word Label_1_01297994
@ 007   ----------------------------------------
 .byte   N84 ,Cs3 ,v100
 .byte   W96
@ 008   ----------------------------------------
 .byte   PATT
  .word Label_1_01297994
@ 009   ----------------------------------------
 .byte   N84 ,An2 ,v100
 .byte   W96
@ 010   ----------------------------------------
 .byte   PATT
  .word Label_1_01297994
@ 011   ----------------------------------------
 .byte   N84 ,Cs3 ,v100
 .byte   W96
@ 012   ----------------------------------------
 .byte   N84
 .byte   W96
@ 013   ----------------------------------------
 .byte   Cn3
 .byte   W96
@ 014   ----------------------------------------
 .byte   Cs3
 .byte   W96
@ 015   ----------------------------------------
Label_1_012979C0:
 .byte   N36 ,Cn3 ,v100
 .byte   W48
 .byte   En3
 .byte   W48
 .byte   PEND 
@ 016   ----------------------------------------
Label_1_012979C7:
 .byte   N24 ,Cs4 ,v100
 .byte   W48
 .byte   N48
 .byte   W48
 .byte   PEND 
@ 017   ----------------------------------------
Label_1_012979CE:
 .byte   W48
 .byte   N12 ,Cs4 ,v100
 .byte   W24
 .byte   N08
 .byte   W08
 .byte   N08
 .byte   W08
 .byte   N08
 .byte   W08
 .byte   PEND 
@ 018   ----------------------------------------
Label_1_012979DA:
 .byte   N12 ,Dn4 ,v100
 .byte   W24
 .byte   N08
 .byte   W08
 .byte   N08
 .byte   W08
 .byte   N08
 .byte   W08
 .byte   N48
 .byte   W48
 .byte   PEND 
@ 019   ----------------------------------------
Label_1_012979E7:
 .byte   W24
 .byte   N08 ,Dn4 ,v100
 .byte   W08
 .byte   N08
 .byte   W08
 .byte   N08
 .byte   W08
 .byte   N12
 .byte   W24
 .byte   N12
 .byte   W24
 .byte   PEND 
@ 020   ----------------------------------------
 .byte   TIE
 .byte   W96
@ 021   ----------------------------------------
 .byte   W96
@ 022   ----------------------------------------
 .byte   EOT
Label_1_012979F9:
 .byte   W24
 .byte   N24 ,Gs2 ,v100
 .byte   W24
 .byte   An2
 .byte   W24
 .byte   Bn2
 .byte   W24
 .byte   PEND 
@ 023   ----------------------------------------
Label_1_01297A03:
 .byte   N24 ,Dn3 ,v092
 .byte   W24
 .byte   En3
 .byte   W24
 .byte   Gn3
 .byte   W24
 .byte   An3 ,v088
 .byte   W24
 .byte   PEND 
@ 024   ----------------------------------------
 .byte   GOTO
  .word Label_1_01297994
@ 025   ----------------------------------------
 .byte   PATT
  .word Label_1_01297994
@ 026   ----------------------------------------
 .byte   N84 ,An2 ,v100
 .byte   W96
@ 027   ----------------------------------------
 .byte   PATT
  .word Label_1_01297994
@ 028   ----------------------------------------
 .byte   N84 ,Cs3 ,v100
 .byte   W96
@ 029   ----------------------------------------
 .byte   PATT
  .word Label_1_01297994
@ 030   ----------------------------------------
 .byte   N84 ,An2 ,v100
 .byte   W96
@ 031   ----------------------------------------
 .byte   PATT
  .word Label_1_01297994
@ 032   ----------------------------------------
 .byte   N84 ,Cs3 ,v100
 .byte   W96
@ 033   ----------------------------------------
 .byte   N84
 .byte   W96
@ 034   ----------------------------------------
 .byte   Cn3
 .byte   W96
@ 035   ----------------------------------------
 .byte   Cs3
 .byte   W96
@ 036   ----------------------------------------
 .byte   PATT
  .word Label_1_012979C0
@ 037   ----------------------------------------
 .byte   PATT
  .word Label_1_012979C7
@ 038   ----------------------------------------
 .byte   PATT
  .word Label_1_012979CE
@ 039   ----------------------------------------
 .byte   PATT
  .word Label_1_012979DA
@ 040   ----------------------------------------
 .byte   PATT
  .word Label_1_012979E7
@ 041   ----------------------------------------
 .byte   TIE ,Dn4 ,v100
 .byte   W96
@ 042   ----------------------------------------
 .byte   W96
@ 043   ----------------------------------------
 .byte   EOT
@ 044   ----------------------------------------
 .byte   PATT
  .word Label_1_012979F9
@ 045   ----------------------------------------
 .byte   PATT
  .word Label_1_01297A03
 .byte   FINE

@**************** Track 3 (Midi-Chn.2) ****************@

song01B5_003:
@ 000   ----------------------------------------
 .byte   KEYSH , song01B5_key+0
 .byte   VOICE , 48
 .byte   VOL , 58*song01B5_mvl/mxv
 .byte   W96
@ 001   ----------------------------------------
 .byte   W96
@ 002   ----------------------------------------
 .byte   W96
@ 003   ----------------------------------------
 .byte   W96
@ 004   ----------------------------------------
Label_2_01297A72:
 .byte   W96
@ 005   ----------------------------------------
 .byte   N96 ,En2 ,v100
 .byte   W96
@ 006   ----------------------------------------
 .byte   W96
@ 007   ----------------------------------------
 .byte   An2
 .byte   W96
@ 008   ----------------------------------------
 .byte   W96
@ 009   ----------------------------------------
 .byte   En2
 .byte   W96
@ 010   ----------------------------------------
 .byte   W96
@ 011   ----------------------------------------
 .byte   An2
 .byte   W96
@ 012   ----------------------------------------
 .byte   As2
 .byte   W96
@ 013   ----------------------------------------
 .byte   Fs2
 .byte   W96
@ 014   ----------------------------------------
 .byte   As2
 .byte   W96
@ 015   ----------------------------------------
Label_2_01297A86:
 .byte   N48 ,Fs2 ,v100
 .byte   W48
 .byte   Cn3
 .byte   W48
 .byte   PEND 
@ 016   ----------------------------------------
 .byte   W96
@ 017   ----------------------------------------
 .byte   W96
@ 018   ----------------------------------------
 .byte   W96
@ 019   ----------------------------------------
 .byte   W96
@ 020   ----------------------------------------
 .byte   W96
@ 021   ----------------------------------------
 .byte   W96
@ 022   ----------------------------------------
 .byte   W96
@ 023   ----------------------------------------
 .byte   W96
@ 024   ----------------------------------------
 .byte   GOTO
  .word Label_2_01297A72
@ 025   ----------------------------------------
 .byte   W96
@ 026   ----------------------------------------
 .byte   N96 ,En2
 .byte   W96
@ 027   ----------------------------------------
 .byte   W96
@ 028   ----------------------------------------
 .byte   An2
 .byte   W96
@ 029   ----------------------------------------
 .byte   W96
@ 030   ----------------------------------------
 .byte   En2
 .byte   W96
@ 031   ----------------------------------------
 .byte   W96
@ 032   ----------------------------------------
 .byte   An2
 .byte   W96
@ 033   ----------------------------------------
 .byte   As2
 .byte   W96
@ 034   ----------------------------------------
 .byte   Fs2
 .byte   W96
@ 035   ----------------------------------------
 .byte   As2
 .byte   W96
@ 036   ----------------------------------------
 .byte   PATT
  .word Label_2_01297A86
 .byte   FINE

@**************** Track 4 (Midi-Chn.3) ****************@

song01B5_004:
@ 000   ----------------------------------------
 .byte   KEYSH , song01B5_key+0
 .byte   VOICE , 48
 .byte   VOL , 58*song01B5_mvl/mxv
 .byte   W96
@ 001   ----------------------------------------
 .byte   W96
@ 002   ----------------------------------------
 .byte   W96
@ 003   ----------------------------------------
 .byte   W96
@ 004   ----------------------------------------
Label_3_01297ABE:
 .byte   N08 ,Gn2 ,v100
 .byte   W08
 .byte   An2
 .byte   W08
 .byte   As2
 .byte   W08
 .byte   N48 ,Dn3
 .byte   W60
 .byte   N12
 .byte   W12
 .byte   PEND 
@ 005   ----------------------------------------
 .byte   N96 ,Cs3
 .byte   W96
@ 006   ----------------------------------------
 .byte   PATT
  .word Label_3_01297ABE
@ 007   ----------------------------------------
 .byte   N96 ,En3 ,v100
 .byte   W96
@ 008   ----------------------------------------
 .byte   PATT
  .word Label_3_01297ABE
@ 009   ----------------------------------------
 .byte   N96 ,Cs3 ,v100
 .byte   W96
@ 010   ----------------------------------------
 .byte   PATT
  .word Label_3_01297ABE
@ 011   ----------------------------------------
 .byte   N96 ,En3 ,v100
 .byte   W96
@ 012   ----------------------------------------
 .byte   Gs3
 .byte   W96
@ 013   ----------------------------------------
 .byte   W96
@ 014   ----------------------------------------
 .byte   W96
@ 015   ----------------------------------------
 .byte   W96
@ 016   ----------------------------------------
Label_3_01297AEF:
 .byte   N24 ,Fn4 ,v100
 .byte   W48
 .byte   N48
 .byte   W48
 .byte   PEND 
@ 017   ----------------------------------------
 .byte   W48
 .byte   N12
 .byte   W48
@ 018   ----------------------------------------
Label_3_01297AF9:
 .byte   N12 ,Fs4 ,v100
 .byte   W24
 .byte   N08
 .byte   W08
 .byte   N08
 .byte   W08
 .byte   N08
 .byte   W08
 .byte   N48
 .byte   W48
 .byte   PEND 
@ 019   ----------------------------------------
Label_3_01297B06:
 .byte   W24
 .byte   N08 ,Fs4 ,v100
 .byte   W08
 .byte   N08
 .byte   W08
 .byte   N08
 .byte   W08
 .byte   N12
 .byte   W24
 .byte   N12
 .byte   W24
 .byte   PEND 
@ 020   ----------------------------------------
 .byte   TIE
 .byte   W96
@ 021   ----------------------------------------
 .byte   W96
@ 022   ----------------------------------------
 .byte   EOT
 .byte   W24
 .byte   N72
 .byte   W72
@ 023   ----------------------------------------
 .byte   W24
 .byte   Gs3 ,v088
 .byte   W72
@ 024   ----------------------------------------
 .byte   GOTO
  .word Label_3_01297ABE
@ 025   ----------------------------------------
 .byte   PATT
  .word Label_3_01297ABE
@ 026   ----------------------------------------
 .byte   N96 ,Cs3 ,v100
 .byte   W96
@ 027   ----------------------------------------
 .byte   PATT
  .word Label_3_01297ABE
@ 028   ----------------------------------------
 .byte   N96 ,En3 ,v100
 .byte   W96
@ 029   ----------------------------------------
 .byte   PATT
  .word Label_3_01297ABE
@ 030   ----------------------------------------
 .byte   N96 ,Cs3 ,v100
 .byte   W96
@ 031   ----------------------------------------
 .byte   PATT
  .word Label_3_01297ABE
@ 032   ----------------------------------------
 .byte   N96 ,En3 ,v100
 .byte   W96
@ 033   ----------------------------------------
 .byte   Gs3
 .byte   W96
@ 034   ----------------------------------------
 .byte   W96
@ 035   ----------------------------------------
 .byte   W96
@ 036   ----------------------------------------
 .byte   W96
@ 037   ----------------------------------------
 .byte   PATT
  .word Label_3_01297AEF
@ 038   ----------------------------------------
 .byte   W48
 .byte   N12 ,Fn4 ,v100
 .byte   W48
@ 039   ----------------------------------------
 .byte   PATT
  .word Label_3_01297AF9
@ 040   ----------------------------------------
 .byte   PATT
  .word Label_3_01297B06
@ 041   ----------------------------------------
 .byte   TIE ,Fs4 ,v100
 .byte   W96
@ 042   ----------------------------------------
 .byte   W96
@ 043   ----------------------------------------
 .byte   EOT
 .byte   W24
 .byte   N72
 .byte   W72
@ 044   ----------------------------------------
 .byte   W24
 .byte   Gs3 ,v088
 .byte   W72
 .byte   FINE

@**************** Track 5 (Midi-Chn.4) ****************@

song01B5_005:
@ 000   ----------------------------------------
 .byte   KEYSH , song01B5_key+0
 .byte   VOICE , 56
 .byte   VOL , 69*song01B5_mvl/mxv
 .byte   PAN , c_v+16
 .byte   W96
@ 001   ----------------------------------------
 .byte   W96
@ 002   ----------------------------------------
 .byte   W96
@ 003   ----------------------------------------
 .byte   W96
@ 004   ----------------------------------------
Label_4_01297B7C:
 .byte   W96
@ 005   ----------------------------------------
 .byte   W96
@ 006   ----------------------------------------
 .byte   W96
@ 007   ----------------------------------------
 .byte   W96
@ 008   ----------------------------------------
 .byte   W96
@ 009   ----------------------------------------
 .byte   W96
@ 010   ----------------------------------------
 .byte   W96
@ 011   ----------------------------------------
 .byte   W96
@ 012   ----------------------------------------
 .byte   W96
@ 013   ----------------------------------------
 .byte   W96
@ 014   ----------------------------------------
 .byte   W96
@ 015   ----------------------------------------
 .byte   W96
@ 016   ----------------------------------------
 .byte   N72 ,Cs3 ,v116
 .byte   W96
@ 017   ----------------------------------------
Label_4_01297B8C:
 .byte   N24 ,Gs2 ,v116
 .byte   W32
 .byte   Cs3
 .byte   W32
 .byte   Gs3
 .byte   W32
 .byte   PEND 
@ 018   ----------------------------------------
 .byte   N72 ,Fs3
 .byte   W96
@ 019   ----------------------------------------
Label_4_01297B98:
 .byte   N24 ,An3 ,v116
 .byte   W32
 .byte   Gs3
 .byte   W32
 .byte   Fs3
 .byte   W32
 .byte   PEND 
@ 020   ----------------------------------------
 .byte   N72 ,An3
 .byte   W96
@ 021   ----------------------------------------
Label_4_01297BA4:
 .byte   W24
 .byte   N08 ,Gs2 ,v116
 .byte   W08
 .byte   Cs3
 .byte   W08
 .byte   Fs3
 .byte   W08
 .byte   N48 ,Gs3
 .byte   W48
 .byte   PEND 
@ 022   ----------------------------------------
Label_4_01297BB1:
 .byte   W24
 .byte   N24 ,Gs3 ,v116
 .byte   W24
 .byte   Fs3
 .byte   W24
 .byte   Cs3
 .byte   W24
 .byte   PEND 
@ 023   ----------------------------------------
Label_4_01297BBB:
 .byte   N24 ,En3 ,v116
 .byte   W24
 .byte   Dn3
 .byte   W24
 .byte   An2
 .byte   W24
 .byte   Fn2
 .byte   W24
 .byte   PEND 
@ 024   ----------------------------------------
 .byte   GOTO
  .word Label_4_01297B7C
@ 025   ----------------------------------------
 .byte   W96
@ 026   ----------------------------------------
 .byte   W96
@ 027   ----------------------------------------
 .byte   W96
@ 028   ----------------------------------------
 .byte   W96
@ 029   ----------------------------------------
 .byte   W96
@ 030   ----------------------------------------
 .byte   W96
@ 031   ----------------------------------------
 .byte   W96
@ 032   ----------------------------------------
 .byte   W96
@ 033   ----------------------------------------
 .byte   W96
@ 034   ----------------------------------------
 .byte   W96
@ 035   ----------------------------------------
 .byte   W96
@ 036   ----------------------------------------
 .byte   W96
@ 037   ----------------------------------------
 .byte   N72 ,Cs3
 .byte   W96
@ 038   ----------------------------------------
 .byte   PATT
  .word Label_4_01297B8C
@ 039   ----------------------------------------
 .byte   N72 ,Fs3 ,v116
 .byte   W96
@ 040   ----------------------------------------
 .byte   PATT
  .word Label_4_01297B98
@ 041   ----------------------------------------
 .byte   N72 ,An3 ,v116
 .byte   W96
@ 042   ----------------------------------------
 .byte   PATT
  .word Label_4_01297BA4
@ 043   ----------------------------------------
 .byte   PATT
  .word Label_4_01297BB1
@ 044   ----------------------------------------
 .byte   PATT
  .word Label_4_01297BBB
 .byte   FINE

@**************** Track 6 (Midi-Chn.5) ****************@

song01B5_006:
@ 000   ----------------------------------------
 .byte   KEYSH , song01B5_key+0
 .byte   VOICE , 56
 .byte   VOL , 47*song01B5_mvl/mxv
 .byte   PAN , c_v+16
 .byte   W96
@ 001   ----------------------------------------
 .byte   W96
@ 002   ----------------------------------------
 .byte   W96
@ 003   ----------------------------------------
 .byte   W96
@ 004   ----------------------------------------
Label_5_01297C08:
 .byte   W96
@ 005   ----------------------------------------
 .byte   W96
@ 006   ----------------------------------------
 .byte   W96
@ 007   ----------------------------------------
 .byte   W96
@ 008   ----------------------------------------
 .byte   W96
@ 009   ----------------------------------------
 .byte   W96
@ 010   ----------------------------------------
 .byte   W96
@ 011   ----------------------------------------
 .byte   W96
@ 012   ----------------------------------------
 .byte   W96
@ 013   ----------------------------------------
Label_5_01297C11:
 .byte   W24
 .byte   N24 ,Gn2 ,v112
 .byte   W24
 .byte   Cn3
 .byte   W24
 .byte   Gn3
 .byte   W24
 .byte   PEND 
@ 014   ----------------------------------------
 .byte   W96
@ 015   ----------------------------------------
 .byte   PATT
  .word Label_5_01297C11
@ 016   ----------------------------------------
Label_5_01297C21:
 .byte   W03
 .byte   N72 ,Cs3 ,v100
 .byte   W92
 .byte   W01
 .byte   PEND 
@ 017   ----------------------------------------
Label_5_01297C28:
 .byte   W03
 .byte   N24 ,Gs2 ,v100
 .byte   W32
 .byte   Cs3
 .byte   W32
 .byte   Gs3
 .byte   W28
 .byte   W01
 .byte   PEND 
@ 018   ----------------------------------------
Label_5_01297C33:
 .byte   W03
 .byte   N72 ,Fs3 ,v100
 .byte   W92
 .byte   W01
 .byte   PEND 
@ 019   ----------------------------------------
Label_5_01297C3A:
 .byte   W03
 .byte   N24 ,An3 ,v100
 .byte   W32
 .byte   Gs3
 .byte   W32
 .byte   Fs3
 .byte   W28
 .byte   W01
 .byte   PEND 
@ 020   ----------------------------------------
Label_5_01297C45:
 .byte   W03
 .byte   N72 ,An3 ,v100
 .byte   W92
 .byte   W01
 .byte   PEND 
@ 021   ----------------------------------------
Label_5_01297C4C:
 .byte   W24
 .byte   W03
 .byte   N08 ,Gs2 ,v100
 .byte   W08
 .byte   Cs3
 .byte   W08
 .byte   Fs3
 .byte   W08
 .byte   N48 ,Gs3
 .byte   W44
 .byte   W01
 .byte   PEND 
@ 022   ----------------------------------------
Label_5_01297C5B:
 .byte   W24
 .byte   W03
 .byte   N24 ,Gs3 ,v100
 .byte   W24
 .byte   Fs3
 .byte   W24
 .byte   Cs3
 .byte   W21
 .byte   PEND 
@ 023   ----------------------------------------
 .byte   W03
 .byte   En3
 .byte   W24
 .byte   Dn3
 .byte   W24
 .byte   An2
 .byte   W24
 .byte   Fn2
 .byte   W21
@ 024   ----------------------------------------
 .byte   GOTO
  .word Label_5_01297C08
@ 025   ----------------------------------------
 .byte   W96
@ 026   ----------------------------------------
 .byte   W96
@ 027   ----------------------------------------
 .byte   W96
@ 028   ----------------------------------------
 .byte   W96
@ 029   ----------------------------------------
 .byte   W96
@ 030   ----------------------------------------
 .byte   W96
@ 031   ----------------------------------------
 .byte   W96
@ 032   ----------------------------------------
 .byte   W96
@ 033   ----------------------------------------
 .byte   W96
@ 034   ----------------------------------------
 .byte   PATT
  .word Label_5_01297C11
@ 035   ----------------------------------------
 .byte   W96
@ 036   ----------------------------------------
 .byte   PATT
  .word Label_5_01297C11
@ 037   ----------------------------------------
 .byte   PATT
  .word Label_5_01297C21
@ 038   ----------------------------------------
 .byte   PATT
  .word Label_5_01297C28
@ 039   ----------------------------------------
 .byte   PATT
  .word Label_5_01297C33
@ 040   ----------------------------------------
 .byte   PATT
  .word Label_5_01297C3A
@ 041   ----------------------------------------
 .byte   PATT
  .word Label_5_01297C45
@ 042   ----------------------------------------
 .byte   PATT
  .word Label_5_01297C4C
@ 043   ----------------------------------------
 .byte   PATT
  .word Label_5_01297C5B
@ 044   ----------------------------------------
 .byte   W03
 .byte   N24 ,En3 ,v100
 .byte   W24
 .byte   Dn3
 .byte   W24
 .byte   An2
 .byte   W24
 .byte   N21 ,Fn2
 .byte   W21
 .byte   FINE

@**************** Track 7 (Midi-Chn.6) ****************@

song01B5_007:
@ 000   ----------------------------------------
 .byte   KEYSH , song01B5_key+0
 .byte   VOICE , 58
 .byte   VOL , 75*song01B5_mvl/mxv
 .byte   N12 ,Gn1 ,v076
 .byte   W12
 .byte   N12
 .byte   W12
 .byte   N12
 .byte   W12
 .byte   N12
 .byte   W12
 .byte   N12
 .byte   W12
 .byte   N12
 .byte   W12
 .byte   N12
 .byte   W12
 .byte   N12
 .byte   W12
@ 001   ----------------------------------------
Label_6_01297CD0:
 .byte   N12 ,Gn1 ,v076
 .byte   W12
 .byte   N12
 .byte   W12
 .byte   N12
 .byte   W12
 .byte   N12
 .byte   W12
 .byte   N12
 .byte   W12
 .byte   N12
 .byte   W12
 .byte   N12
 .byte   W12
 .byte   N12
 .byte   W12
 .byte   PEND 
@ 002   ----------------------------------------
 .byte   PATT
  .word Label_6_01297CD0
@ 003   ----------------------------------------
 .byte   PATT
  .word Label_6_01297CD0
@ 004   ----------------------------------------
Label_6_01297CED:
 .byte   N12 ,Gn1 ,v100
 .byte   W12
 .byte   Gn1 ,v088
 .byte   W12
 .byte   Gn1 ,v080
 .byte   W12
 .byte   Gn1 ,v072
 .byte   W12
 .byte   N12
 .byte   W12
 .byte   N12
 .byte   W12
 .byte   Gn1 ,v080
 .byte   W12
 .byte   Gn1 ,v088
 .byte   W12
 .byte   PEND 
@ 005   ----------------------------------------
 .byte   PATT
  .word Label_6_01297CED
@ 006   ----------------------------------------
 .byte   PATT
  .word Label_6_01297CED
@ 007   ----------------------------------------
 .byte   PATT
  .word Label_6_01297CED
@ 008   ----------------------------------------
 .byte   PATT
  .word Label_6_01297CED
@ 009   ----------------------------------------
 .byte   PATT
  .word Label_6_01297CED
@ 010   ----------------------------------------
 .byte   PATT
  .word Label_6_01297CED
@ 011   ----------------------------------------
Label_6_01297D23:
 .byte   N12 ,Gn1 ,v100
 .byte   W12
 .byte   Gn1 ,v088
 .byte   W12
 .byte   Gn1 ,v080
 .byte   W12
 .byte   Gn1 ,v072
 .byte   W12
 .byte   N12
 .byte   W12
 .byte   N12
 .byte   W12
 .byte   Gn1 ,v080
 .byte   W12
 .byte   An1 ,v088
 .byte   W12
 .byte   PEND 
@ 012   ----------------------------------------
Label_6_01297D3B:
 .byte   N12 ,As1 ,v100
 .byte   W12
 .byte   As1 ,v088
 .byte   W12
 .byte   As1 ,v080
 .byte   W12
 .byte   As1 ,v072
 .byte   W12
 .byte   N12
 .byte   W12
 .byte   N12
 .byte   W12
 .byte   As1 ,v080
 .byte   W12
 .byte   As1 ,v088
 .byte   W12
 .byte   PEND 
@ 013   ----------------------------------------
 .byte   PATT
  .word Label_6_01297D3B
@ 014   ----------------------------------------
 .byte   PATT
  .word Label_6_01297D3B
@ 015   ----------------------------------------
 .byte   PATT
  .word Label_6_01297D3B
@ 016   ----------------------------------------
Label_6_01297D62:
 .byte   N48 ,Bn1 ,v100
 .byte   W72
 .byte   N08
 .byte   W08
 .byte   N08
 .byte   W08
 .byte   N08
 .byte   W08
 .byte   PEND 
@ 017   ----------------------------------------
 .byte   PATT
  .word Label_6_01297D62
@ 018   ----------------------------------------
 .byte   PATT
  .word Label_6_01297D62
@ 019   ----------------------------------------
Label_6_01297D77:
 .byte   N12 ,Bn1 ,v100
 .byte   W24
 .byte   N48
 .byte   W72
 .byte   PEND 
@ 020   ----------------------------------------
 .byte   N72 ,Dn2
 .byte   W96
@ 021   ----------------------------------------
 .byte   Dn1
 .byte   W96
@ 022   ----------------------------------------
 .byte   Cs1
 .byte   W96
@ 023   ----------------------------------------
 .byte   Cn1
 .byte   W96
@ 024   ----------------------------------------
 .byte   GOTO
  .word Label_6_01297CED
@ 025   ----------------------------------------
 .byte   PATT
  .word Label_6_01297CED
@ 026   ----------------------------------------
 .byte   PATT
  .word Label_6_01297CED
@ 027   ----------------------------------------
 .byte   PATT
  .word Label_6_01297CED
@ 028   ----------------------------------------
 .byte   PATT
  .word Label_6_01297CED
@ 029   ----------------------------------------
 .byte   PATT
  .word Label_6_01297CED
@ 030   ----------------------------------------
 .byte   PATT
  .word Label_6_01297CED
@ 031   ----------------------------------------
 .byte   PATT
  .word Label_6_01297CED
@ 032   ----------------------------------------
 .byte   PATT
  .word Label_6_01297D23
@ 033   ----------------------------------------
 .byte   PATT
  .word Label_6_01297D3B
@ 034   ----------------------------------------
 .byte   PATT
  .word Label_6_01297D3B
@ 035   ----------------------------------------
 .byte   PATT
  .word Label_6_01297D3B
@ 036   ----------------------------------------
 .byte   PATT
  .word Label_6_01297D3B
@ 037   ----------------------------------------
 .byte   PATT
  .word Label_6_01297D62
@ 038   ----------------------------------------
 .byte   PATT
  .word Label_6_01297D62
@ 039   ----------------------------------------
 .byte   PATT
  .word Label_6_01297D62
@ 040   ----------------------------------------
 .byte   PATT
  .word Label_6_01297D77
@ 041   ----------------------------------------
 .byte   N72 ,Dn2 ,v100
 .byte   W96
@ 042   ----------------------------------------
 .byte   Dn1
 .byte   W96
@ 043   ----------------------------------------
 .byte   Cs1
 .byte   W96
@ 044   ----------------------------------------
 .byte   Cn1
 .byte   W96
 .byte   FINE

@**************** Track 8 (Midi-Chn.7) ****************@

song01B5_008:
@ 000   ----------------------------------------
 .byte   KEYSH , song01B5_key+0
 .byte   VOICE , 60
 .byte   VOL , 74*song01B5_mvl/mxv
 .byte   W96
@ 001   ----------------------------------------
 .byte   W96
@ 002   ----------------------------------------
 .byte   W96
@ 003   ----------------------------------------
 .byte   W96
@ 004   ----------------------------------------
Label_7_01297DF2:
 .byte   W96
@ 005   ----------------------------------------
 .byte   W96
@ 006   ----------------------------------------
 .byte   W96
@ 007   ----------------------------------------
 .byte   W96
@ 008   ----------------------------------------
 .byte   W96
@ 009   ----------------------------------------
 .byte   W96
@ 010   ----------------------------------------
 .byte   W96
@ 011   ----------------------------------------
 .byte   W96
@ 012   ----------------------------------------
 .byte   W96
@ 013   ----------------------------------------
Label_7_01297DFB:
 .byte   W24
 .byte   N24 ,Gn2 ,v116
 .byte   W24
 .byte   Cn3
 .byte   W24
 .byte   Gn3
 .byte   W24
 .byte   PEND 
@ 014   ----------------------------------------
 .byte   W96
@ 015   ----------------------------------------
 .byte   PATT
  .word Label_7_01297DFB
@ 016   ----------------------------------------
 .byte   W96
@ 017   ----------------------------------------
 .byte   W96
@ 018   ----------------------------------------
 .byte   W96
@ 019   ----------------------------------------
 .byte   W96
@ 020   ----------------------------------------
 .byte   W96
@ 021   ----------------------------------------
 .byte   W96
@ 022   ----------------------------------------
 .byte   W96
@ 023   ----------------------------------------
 .byte   W96
@ 024   ----------------------------------------
 .byte   GOTO
  .word Label_7_01297DF2
@ 025   ----------------------------------------
 .byte   W96
@ 026   ----------------------------------------
 .byte   W96
@ 027   ----------------------------------------
 .byte   W96
@ 028   ----------------------------------------
 .byte   W96
@ 029   ----------------------------------------
 .byte   W96
@ 030   ----------------------------------------
 .byte   W96
@ 031   ----------------------------------------
 .byte   W96
@ 032   ----------------------------------------
 .byte   W96
@ 033   ----------------------------------------
 .byte   W96
@ 034   ----------------------------------------
 .byte   PATT
  .word Label_7_01297DFB
@ 035   ----------------------------------------
 .byte   W96
@ 036   ----------------------------------------
 .byte   PATT
  .word Label_7_01297DFB
 .byte   FINE

@**************** Track 9 (Midi-Chn.8) ****************@

song01B5_009:
@ 000   ----------------------------------------
 .byte   KEYSH , song01B5_key+0
 .byte   VOICE , 47
 .byte   VOL , 44*song01B5_mvl/mxv
 .byte   PAN , c_v-16
 .byte   W96
@ 001   ----------------------------------------
 .byte   W96
@ 002   ----------------------------------------
 .byte   W96
@ 003   ----------------------------------------
 .byte   W96
@ 004   ----------------------------------------
Label_8_01297E3C:
 .byte   N12 ,Fn2 ,v112
 .byte   W12
 .byte   Fn2 ,v088
 .byte   W12
 .byte   N12
 .byte   W12
 .byte   N06
 .byte   W06
 .byte   N06
 .byte   W18
 .byte   N06
 .byte   W06
 .byte   N06
 .byte   W06
 .byte   N12
 .byte   W12
 .byte   N06
 .byte   W06
 .byte   N06
 .byte   W06
 .byte   PEND 
@ 005   ----------------------------------------
Label_8_01297E54:
 .byte   N12 ,Fn2 ,v112
 .byte   W12
 .byte   Fn2 ,v088
 .byte   W12
 .byte   N12
 .byte   W12
 .byte   N06
 .byte   W06
 .byte   N06
 .byte   W30
 .byte   N06
 .byte   W06
 .byte   N06
 .byte   W06
 .byte   N12
 .byte   W12
 .byte   PEND 
@ 006   ----------------------------------------
 .byte   PATT
  .word Label_8_01297E3C
@ 007   ----------------------------------------
 .byte   PATT
  .word Label_8_01297E54
@ 008   ----------------------------------------
 .byte   PATT
  .word Label_8_01297E3C
@ 009   ----------------------------------------
 .byte   PATT
  .word Label_8_01297E54
@ 010   ----------------------------------------
 .byte   PATT
  .word Label_8_01297E3C
@ 011   ----------------------------------------
Label_8_01297E81:
 .byte   N12 ,Fn2 ,v112
 .byte   W12
 .byte   N06 ,Fn2 ,v088
 .byte   W06
 .byte   N06
 .byte   W06
 .byte   N12
 .byte   W48
 .byte   N06
 .byte   W06
 .byte   N06
 .byte   W06
 .byte   N12
 .byte   W12
 .byte   PEND 
@ 012   ----------------------------------------
 .byte   PATT
  .word Label_8_01297E3C
@ 013   ----------------------------------------
 .byte   PATT
  .word Label_8_01297E81
@ 014   ----------------------------------------
 .byte   PATT
  .word Label_8_01297E3C
@ 015   ----------------------------------------
 .byte   PATT
  .word Label_8_01297E81
@ 016   ----------------------------------------
 .byte   N12 ,Fn2 ,v112
 .byte   W96
@ 017   ----------------------------------------
 .byte   W96
@ 018   ----------------------------------------
 .byte   W96
@ 019   ----------------------------------------
 .byte   W96
@ 020   ----------------------------------------
 .byte   W96
@ 021   ----------------------------------------
 .byte   W96
@ 022   ----------------------------------------
 .byte   W96
@ 023   ----------------------------------------
 .byte   W96
@ 024   ----------------------------------------
 .byte   GOTO
  .word Label_8_01297E3C
@ 025   ----------------------------------------
 .byte   PATT
  .word Label_8_01297E3C
@ 026   ----------------------------------------
 .byte   PATT
  .word Label_8_01297E54
@ 027   ----------------------------------------
 .byte   PATT
  .word Label_8_01297E3C
@ 028   ----------------------------------------
 .byte   PATT
  .word Label_8_01297E54
@ 029   ----------------------------------------
 .byte   PATT
  .word Label_8_01297E3C
@ 030   ----------------------------------------
 .byte   PATT
  .word Label_8_01297E54
@ 031   ----------------------------------------
 .byte   PATT
  .word Label_8_01297E3C
@ 032   ----------------------------------------
 .byte   PATT
  .word Label_8_01297E81
@ 033   ----------------------------------------
 .byte   PATT
  .word Label_8_01297E3C
@ 034   ----------------------------------------
 .byte   PATT
  .word Label_8_01297E81
@ 035   ----------------------------------------
 .byte   PATT
  .word Label_8_01297E3C
@ 036   ----------------------------------------
 .byte   PATT
  .word Label_8_01297E81
@ 037   ----------------------------------------
 .byte   N12 ,Fn2 ,v112
 .byte   W96
 .byte   FINE

@**************** Track 10 (Midi-Chn.9) ****************@

song01B5_010:
@ 000   ----------------------------------------
 .byte   KEYSH , song01B5_key+0
 .byte   VOICE , 124
 .byte   VOL , 49*song01B5_mvl/mxv
 .byte   W96
@ 001   ----------------------------------------
 .byte   W96
@ 002   ----------------------------------------
 .byte   W96
@ 003   ----------------------------------------
 .byte   W96
@ 004   ----------------------------------------
Label_9_01297F06:
 .byte   W48
 .byte   N06 ,Dn1 ,v080
 .byte   N06 ,En1 ,v100
 .byte   W48
 .byte   PEND 
@ 005   ----------------------------------------
Label_9_01297F0F:
 .byte   W48
 .byte   N06 ,Dn1 ,v080
 .byte   N06 ,En1 ,v100
 .byte   W12
 .byte   Dn1 ,v080
 .byte   N06 ,En1 ,v100
 .byte   W36
 .byte   PEND 
@ 006   ----------------------------------------
 .byte   PATT
  .word Label_9_01297F06
@ 007   ----------------------------------------
 .byte   PATT
  .word Label_9_01297F0F
@ 008   ----------------------------------------
 .byte   PATT
  .word Label_9_01297F06
@ 009   ----------------------------------------
 .byte   PATT
  .word Label_9_01297F0F
@ 010   ----------------------------------------
 .byte   PATT
  .word Label_9_01297F06
@ 011   ----------------------------------------
Label_9_01297F37:
 .byte   W36
 .byte   N06 ,Dn1 ,v080
 .byte   N06 ,En1 ,v100
 .byte   W12
 .byte   Dn1 ,v080
 .byte   N06 ,En1 ,v100
 .byte   W12
 .byte   Dn1 ,v080
 .byte   N06 ,En1 ,v100
 .byte   W36
 .byte   PEND 
@ 012   ----------------------------------------
 .byte   PATT
  .word Label_9_01297F06
@ 013   ----------------------------------------
 .byte   PATT
  .word Label_9_01297F37
@ 014   ----------------------------------------
 .byte   PATT
  .word Label_9_01297F06
@ 015   ----------------------------------------
 .byte   PATT
  .word Label_9_01297F37
@ 016   ----------------------------------------
Label_9_01297F60:
 .byte   W36
 .byte   N06 ,Dn1 ,v088
 .byte   N06 ,En1 ,v100
 .byte   W06
 .byte   Dn1 ,v088
 .byte   N06 ,En1 ,v100
 .byte   W06
 .byte   Dn1 ,v088
 .byte   N06 ,En1 ,v100
 .byte   W12
 .byte   Dn1 ,v088
 .byte   N06 ,En1 ,v100
 .byte   W24
 .byte   Dn1 ,v088
 .byte   N06 ,En1 ,v100
 .byte   W12
 .byte   PEND 
@ 017   ----------------------------------------
Label_9_01297F81:
 .byte   N06 ,Dn1 ,v088
 .byte   N06 ,En1 ,v100
 .byte   W36
 .byte   Dn1 ,v088
 .byte   N06 ,En1 ,v100
 .byte   W06
 .byte   Dn1 ,v088
 .byte   N06 ,En1 ,v100
 .byte   W06
 .byte   Dn1 ,v088
 .byte   N06 ,En1 ,v100
 .byte   W12
 .byte   Dn1 ,v088
 .byte   N06 ,En1 ,v100
 .byte   W12
 .byte   Dn1 ,v088
 .byte   N06 ,En1 ,v100
 .byte   W12
 .byte   Dn1 ,v088
 .byte   N06 ,En1 ,v100
 .byte   W12
 .byte   PEND 
@ 018   ----------------------------------------
 .byte   PATT
  .word Label_9_01297F81
@ 019   ----------------------------------------
Label_9_01297FB2:
 .byte   N06 ,Dn1 ,v088
 .byte   N06 ,En1 ,v100
 .byte   W24
 .byte   Dn1 ,v088
 .byte   N06 ,En1 ,v100
 .byte   W06
 .byte   Dn1 ,v088
 .byte   W06
 .byte   N06
 .byte   W06
 .byte   N06
 .byte   W06
 .byte   N06
 .byte   N06 ,En1 ,v100
 .byte   W06
 .byte   Dn1 ,v088
 .byte   W06
 .byte   N06
 .byte   W06
 .byte   N06
 .byte   W06
 .byte   N06
 .byte   N06 ,En1 ,v100
 .byte   W12
 .byte   Dn1 ,v088
 .byte   N06 ,En1 ,v100
 .byte   W12
 .byte   PEND 
@ 020   ----------------------------------------
Label_9_01297FDE:
 .byte   N06 ,Dn1 ,v088
 .byte   N06 ,En1 ,v100
 .byte   W36
 .byte   Dn1 ,v088
 .byte   N06 ,En1 ,v100
 .byte   W06
 .byte   Dn1 ,v088
 .byte   N06 ,En1 ,v100
 .byte   W06
 .byte   Dn1 ,v088
 .byte   N06 ,En1 ,v100
 .byte   W12
 .byte   Dn1 ,v088
 .byte   N06 ,En1 ,v100
 .byte   W36
 .byte   PEND 
@ 021   ----------------------------------------
Label_9_01297FFE:
 .byte   N06 ,Dn1 ,v088
 .byte   N06 ,En1 ,v100
 .byte   W36
 .byte   Dn1 ,v088
 .byte   N06 ,En1 ,v100
 .byte   W06
 .byte   Dn1 ,v088
 .byte   N06 ,En1 ,v100
 .byte   W06
 .byte   Dn1 ,v088
 .byte   N06 ,En1 ,v100
 .byte   W12
 .byte   Dn1 ,v088
 .byte   N06 ,En1 ,v100
 .byte   W24
 .byte   Dn1 ,v088
 .byte   N06 ,En1 ,v100
 .byte   W12
 .byte   PEND 
@ 022   ----------------------------------------
 .byte   PATT
  .word Label_9_01297FDE
@ 023   ----------------------------------------
Label_9_01298029:
 .byte   N06 ,Dn1 ,v088
 .byte   N06 ,En1 ,v100
 .byte   W06
 .byte   Dn1 ,v088
 .byte   W06
 .byte   N06
 .byte   W06
 .byte   N06
 .byte   W06
 .byte   N06
 .byte   N06 ,En1 ,v100
 .byte   W06
 .byte   Dn1 ,v088
 .byte   W06
 .byte   N06
 .byte   W06
 .byte   N06
 .byte   W06
 .byte   Dn1 ,v076
 .byte   N06 ,En1 ,v092
 .byte   W06
 .byte   Dn1 ,v076
 .byte   W06
 .byte   N06
 .byte   W06
 .byte   N06
 .byte   W06
 .byte   Dn1 ,v068
 .byte   N06 ,En1 ,v080
 .byte   W06
 .byte   Dn1 ,v068
 .byte   W06
 .byte   N06
 .byte   W06
 .byte   N06
 .byte   W06
 .byte   PEND 
@ 024   ----------------------------------------
 .byte   GOTO
  .word Label_9_01297F06
@ 025   ----------------------------------------
 .byte   PATT
  .word Label_9_01297F06
@ 026   ----------------------------------------
 .byte   PATT
  .word Label_9_01297F0F
@ 027   ----------------------------------------
 .byte   PATT
  .word Label_9_01297F06
@ 028   ----------------------------------------
 .byte   PATT
  .word Label_9_01297F0F
@ 029   ----------------------------------------
 .byte   PATT
  .word Label_9_01297F06
@ 030   ----------------------------------------
 .byte   PATT
  .word Label_9_01297F0F
@ 031   ----------------------------------------
 .byte   PATT
  .word Label_9_01297F06
@ 032   ----------------------------------------
 .byte   PATT
  .word Label_9_01297F37
@ 033   ----------------------------------------
 .byte   PATT
  .word Label_9_01297F06
@ 034   ----------------------------------------
 .byte   PATT
  .word Label_9_01297F37
@ 035   ----------------------------------------
 .byte   PATT
  .word Label_9_01297F06
@ 036   ----------------------------------------
 .byte   PATT
  .word Label_9_01297F37
@ 037   ----------------------------------------
 .byte   PATT
  .word Label_9_01297F60
@ 038   ----------------------------------------
 .byte   PATT
  .word Label_9_01297F81
@ 039   ----------------------------------------
 .byte   PATT
  .word Label_9_01297F81
@ 040   ----------------------------------------
 .byte   PATT
  .word Label_9_01297FB2
@ 041   ----------------------------------------
 .byte   PATT
  .word Label_9_01297FDE
@ 042   ----------------------------------------
 .byte   PATT
  .word Label_9_01297FFE
@ 043   ----------------------------------------
 .byte   PATT
  .word Label_9_01297FDE
@ 044   ----------------------------------------
 .byte   PATT
  .word Label_9_01298029
 .byte   FINE

@**************** Track 11 (Midi-Chn.10) ****************@

song01B5_011:
@ 000   ----------------------------------------
 .byte   KEYSH , song01B5_key+0
 .byte   VOICE , 47
 .byte   VOL , 51*song01B5_mvl/mxv
 .byte   PAN , c_v-16
 .byte   W96
@ 001   ----------------------------------------
 .byte   W96
@ 002   ----------------------------------------
 .byte   W96
@ 003   ----------------------------------------
 .byte   W96
@ 004   ----------------------------------------
Label_10_012980D4:
 .byte   N12 ,Fn1 ,v112
 .byte   W12
 .byte   Fn1 ,v088
 .byte   W12
 .byte   N12
 .byte   W12
 .byte   N06
 .byte   W06
 .byte   N06
 .byte   W18
 .byte   N06
 .byte   W06
 .byte   N06
 .byte   W06
 .byte   N12
 .byte   W12
 .byte   N06
 .byte   W06
 .byte   N06
 .byte   W06
 .byte   PEND 
@ 005   ----------------------------------------
Label_10_012980EC:
 .byte   N12 ,Fn1 ,v112
 .byte   W12
 .byte   Fn1 ,v088
 .byte   W12
 .byte   N12
 .byte   W12
 .byte   N06
 .byte   W06
 .byte   N06
 .byte   W30
 .byte   N06
 .byte   W06
 .byte   N06
 .byte   W06
 .byte   N12
 .byte   W12
 .byte   PEND 
@ 006   ----------------------------------------
 .byte   PATT
  .word Label_10_012980D4
@ 007   ----------------------------------------
 .byte   PATT
  .word Label_10_012980EC
@ 008   ----------------------------------------
 .byte   PATT
  .word Label_10_012980D4
@ 009   ----------------------------------------
 .byte   PATT
  .word Label_10_012980EC
@ 010   ----------------------------------------
 .byte   PATT
  .word Label_10_012980D4
@ 011   ----------------------------------------
Label_10_01298119:
 .byte   N12 ,Fn1 ,v112
 .byte   W12
 .byte   N06 ,Fn1 ,v088
 .byte   W06
 .byte   N06
 .byte   W06
 .byte   N12
 .byte   W48
 .byte   N06
 .byte   W06
 .byte   N06
 .byte   W06
 .byte   N12
 .byte   W12
 .byte   PEND 
@ 012   ----------------------------------------
 .byte   PATT
  .word Label_10_012980D4
@ 013   ----------------------------------------
 .byte   PATT
  .word Label_10_01298119
@ 014   ----------------------------------------
 .byte   PATT
  .word Label_10_012980D4
@ 015   ----------------------------------------
 .byte   PATT
  .word Label_10_01298119
@ 016   ----------------------------------------
 .byte   N12 ,Fn1 ,v112
 .byte   W96
@ 017   ----------------------------------------
 .byte   W96
@ 018   ----------------------------------------
 .byte   W96
@ 019   ----------------------------------------
 .byte   W96
@ 020   ----------------------------------------
 .byte   W96
@ 021   ----------------------------------------
 .byte   W96
@ 022   ----------------------------------------
 .byte   W96
@ 023   ----------------------------------------
 .byte   W96
@ 024   ----------------------------------------
 .byte   GOTO
  .word Label_10_012980D4
@ 025   ----------------------------------------
 .byte   PATT
  .word Label_10_012980D4
@ 026   ----------------------------------------
 .byte   PATT
  .word Label_10_012980EC
@ 027   ----------------------------------------
 .byte   PATT
  .word Label_10_012980D4
@ 028   ----------------------------------------
 .byte   PATT
  .word Label_10_012980EC
@ 029   ----------------------------------------
 .byte   PATT
  .word Label_10_012980D4
@ 030   ----------------------------------------
 .byte   PATT
  .word Label_10_012980EC
@ 031   ----------------------------------------
 .byte   PATT
  .word Label_10_012980D4
@ 032   ----------------------------------------
 .byte   PATT
  .word Label_10_01298119
@ 033   ----------------------------------------
 .byte   PATT
  .word Label_10_012980D4
@ 034   ----------------------------------------
 .byte   PATT
  .word Label_10_01298119
@ 035   ----------------------------------------
 .byte   PATT
  .word Label_10_012980D4
@ 036   ----------------------------------------
 .byte   PATT
  .word Label_10_01298119
@ 037   ----------------------------------------
 .byte   N12 ,Fn1 ,v112
 .byte   W12
 .byte   FINE

@******************************************************@
	.align	2

song01B5:
	.byte	11	@ NumTrks
	.byte	0	@ NumBlks
	.byte	song01B5_pri	@ Priority
	.byte	song01B5_rev	@ Reverb.
    
	.word	song01B5_grp
    
	.word	song01B5_001
	.word	song01B5_002
	.word	song01B5_003
	.word	song01B5_004
	.word	song01B5_005
	.word	song01B5_006
	.word	song01B5_007
	.word	song01B5_008
	.word	song01B5_009
	.word	song01B5_010
	.word	song01B5_011

	.end
